<?xml version="1.0" encoding="UTF-8"?><svg xmlns="http://www.w3.org/2000/svg" xmlns:xlink="http://www.w3.org/1999/xlink" viewBox="0 0 107.23 99.45"><defs><style>.cls-1{fill:url(#linear-gradient);}.cls-2{fill:url(#linear-gradient-7);}.cls-2,.cls-3,.cls-4,.cls-5,.cls-6,.cls-7{mix-blend-mode:multiply;opacity:.3;}.cls-3{fill:url(#linear-gradient-9);}.cls-4{fill:url(#linear-gradient-3);}.cls-5{fill:url(#linear-gradient-11);}.cls-6{fill:url(#linear-gradient-14);}.cls-7{fill:url(#linear-gradient-15);}.cls-8{fill:url(#linear-gradient-13);mix-blend-mode:screen;opacity:.8;}.cls-9{fill:url(#linear-gradient-8);}.cls-10{fill:url(#linear-gradient-4);}.cls-11{fill:url(#linear-gradient-2);}.cls-12{fill:url(#linear-gradient-6);}.cls-13{fill:url(#linear-gradient-5);}.cls-14{fill:url(#linear-gradient-12);}.cls-15{fill:url(#linear-gradient-10);}.cls-16{isolation:isolate;}</style><linearGradient id="linear-gradient" x1="-154.43" y1="78.33" x2="-151.08" y2="84.48" gradientTransform="translate(-94.8) rotate(-180) scale(1 -1)" gradientUnits="userSpaceOnUse"><stop offset="0" stop-color="#4fc3f7"/><stop offset="1" stop-color="#039be5"/></linearGradient><linearGradient id="linear-gradient-2" x1="-152.08" y1="82.71" x2="-143.36" y2="90.99" xlink:href="#linear-gradient"/><linearGradient id="linear-gradient-3" x1="-144.23" y1="85.24" x2="-143.15" y2="83.22" gradientTransform="translate(-94.8) rotate(-180) scale(1 -1)" gradientUnits="userSpaceOnUse"><stop offset="0" stop-color="#fff"/><stop offset=".14" stop-color="#ece6f2"/><stop offset=".42" stop-color="#bba7d3"/><stop offset=".82" stop-color="#6d42a2"/><stop offset="1" stop-color="#4a148c"/></linearGradient><linearGradient id="linear-gradient-4" x1="-129.69" y1="79.98" x2="-86.94" y2="88.98" xlink:href="#linear-gradient"/><linearGradient id="linear-gradient-5" x1="-138.34" y1="88" x2="-134.78" y2="76.59" gradientTransform="translate(-94.8) rotate(-180) scale(1 -1)" gradientUnits="userSpaceOnUse"><stop offset="0" stop-color="#4fc3f7"/><stop offset=".02" stop-color="#4bc1f6"/><stop offset=".29" stop-color="#2cb0ee"/><stop offset=".54" stop-color="#15a4e9"/><stop offset=".79" stop-color="#079de6"/><stop offset="1" stop-color="#039be5"/></linearGradient><linearGradient id="linear-gradient-6" x1="-172.18" y1="40.08" x2="-153.36" y2="48.15" xlink:href="#linear-gradient"/><linearGradient id="linear-gradient-7" x1="-158.33" y1="47.27" x2="-154.46" y2="47.44" xlink:href="#linear-gradient-3"/><linearGradient id="linear-gradient-8" x1="-207.73" y1="18.74" x2="-170.98" y2="14.26" xlink:href="#linear-gradient"/><linearGradient id="linear-gradient-9" x1="-181.48" y1="10.89" x2="-178.41" y2="10.8" xlink:href="#linear-gradient-3"/><linearGradient id="linear-gradient-10" x1="-190.01" y1="3.6" x2="-160.07" y2="52.07" xlink:href="#linear-gradient"/><linearGradient id="linear-gradient-11" x1="-168.83" y1="39.09" x2="-164.42" y2="41.42" xlink:href="#linear-gradient-3"/><linearGradient id="linear-gradient-12" x1="-156.54" y1="51.06" x2="-101.97" y2="51.06" xlink:href="#linear-gradient"/><linearGradient id="linear-gradient-13" x1="-131.34" y1="52.97" x2="-127.88" y2="50.33" gradientTransform="translate(-94.8) rotate(-180) scale(1 -1)" gradientUnits="userSpaceOnUse"><stop offset="0" stop-color="#000"/><stop offset=".12" stop-color="#040404"/><stop offset=".24" stop-color="#111"/><stop offset=".37" stop-color="#262626"/><stop offset=".5" stop-color="#444"/><stop offset=".63" stop-color="#6a6a6a"/><stop offset=".77" stop-color="#9a9a9a"/><stop offset=".9" stop-color="#d0d0d0"/><stop offset="1" stop-color="#fff"/></linearGradient><linearGradient id="linear-gradient-14" x1="-137.53" y1="83.12" x2="-137.22" y2="81.25" xlink:href="#linear-gradient-3"/><linearGradient id="linear-gradient-15" x1="-115.26" y1="85.9" x2="-115.01" y2="83.86" xlink:href="#linear-gradient-3"/></defs><g class="cls-16"><g id="Layer_2"><g id="_ÎÓÈ_1"><g><polygon class="cls-1" points="73.92 85.54 43.23 84.42 43.23 74.96 73.92 85.54"/><polygon class="cls-11" points="70.21 90.29 38.06 89.11 39.52 79.71 70.21 90.29"/><polygon class="cls-4" points="39.15 89.15 57.38 79.71 59.24 80.48 40.72 89.21 39.15 89.15"/><polygon class="cls-10" points="35.49 91.05 0 99.45 27.32 69.45 35.49 91.05"/><polygon class="cls-13" points="57.38 79.71 35.49 91.05 24.06 78.22 57.38 79.71"/><polygon class="cls-12" points="84.51 63.6 59.59 78.22 60.83 16.66 63.58 16.1 84.51 63.6"/><polygon class="cls-2" points="65.16 74.96 59.59 78.22 60.9 16.64 61.15 16.59 65.16 74.96"/><path class="cls-9" d="M84.51,0c1.3,1.08,22.72,33.31,22.72,33.31l-29.42-16.66L84.51,0Z"/><path class="cls-3" d="M84.51,0c.22,.19,1.05,1.31,2.25,3.01V21.73s-3.14-1.78-3.14-1.78V2.22S84.51,0,84.51,0Z"/><path class="cls-15" d="M84.51,0c-16.87,0-23.36,16.66-23.36,16.66l23.36,46.94V0Z"/><path class="cls-5" d="M84.51,59.03v4.56S61.15,16.66,61.15,16.66c0,0,.16-.4,.48-1.06l22.89,43.44Z"/><path class="cls-14" d="M60.89,16.1L7.17,86.02s53.74-6.18,54.39-6.41c.65-.23-.67-63.5-.67-63.5Z"/><polygon class="cls-8" points="60.89 16.1 7.17 86.02 11.31 85.54 60.98 20.7 60.89 16.1"/><polygon class="cls-6" points="28.78 83.52 56.28 80.28 54.48 81.2 30.1 85.01 28.78 83.52"/><polygon class="cls-7" points="28.78 83.52 29.77 84.64 11.15 87.2 12.83 85.36 28.78 83.52"/></g></g></g></g></svg>