<svg xmlns="http://www.w3.org/2000/svg" xmlns:xlink="http://www.w3.org/1999/xlink" viewBox="0 0 62.59 43.55"><defs><style>.cls-1{fill:url(#linear-gradient);}.cls-2{fill:url(#linear-gradient-2);}.cls-3{fill:url(#linear-gradient-3);}.cls-4{fill:url(#linear-gradient-4);}.cls-5{fill:url(#linear-gradient-5);}.cls-6{fill:url(#linear-gradient-6);}.cls-7{fill:url(#linear-gradient-7);}.cls-8{fill:url(#linear-gradient-8);}.cls-9{fill:url(#linear-gradient-9);}.cls-10{fill:url(#linear-gradient-10);}</style><linearGradient id="linear-gradient" x1="2.1" y1="23.31" x2="13.67" y2="8.27" gradientTransform="matrix(-1, 0, 0, 1, 62.59, 0)" gradientUnits="userSpaceOnUse"><stop offset="0" stop-color="#ffdd51"/><stop offset="1" stop-color="#ffc93c"/></linearGradient><linearGradient id="linear-gradient-2" x1="-0.75" y1="23.6" x2="9.26" y2="26.18" xlink:href="#linear-gradient"/><linearGradient id="linear-gradient-3" x1="24.57" y1="6.16" x2="12.65" y2="9.77" xlink:href="#linear-gradient"/><linearGradient id="linear-gradient-4" x1="27.1" y1="1.86" x2="14.29" y2="9.74" xlink:href="#linear-gradient"/><linearGradient id="linear-gradient-5" x1="21.12" y1="21.9" x2="14.29" y2="28.02" xlink:href="#linear-gradient"/><linearGradient id="linear-gradient-6" x1="33.14" y1="8.49" x2="14.04" y2="24.12" xlink:href="#linear-gradient"/><linearGradient id="linear-gradient-7" x1="44.82" y1="27" x2="44.38" y2="20.15" xlink:href="#linear-gradient"/><linearGradient id="linear-gradient-8" x1="45.23" y1="23.65" x2="43.46" y2="31.02" xlink:href="#linear-gradient"/><linearGradient id="linear-gradient-9" x1="43.55" y1="28.41" x2="46.73" y2="41.72" xlink:href="#linear-gradient"/><linearGradient id="linear-gradient-10" x1="44.8" y1="43.19" x2="45.54" y2="26.04" xlink:href="#linear-gradient"/></defs><g id="Layer_2" data-name="Layer 2"><g id="Origami"><g id="carp"><polygon class="cls-1" points="60.9 8.79 52.07 14.18 50.94 25.94 56.52 20.13 60.95 15.52 60.9 8.79"/><polygon class="cls-2" points="62.59 28.2 56.52 20.13 50.94 25.94 62.59 29.02 62.59 28.2"/><polygon class="cls-3" points="60.9 8.79 52.07 14.18 41.76 12.16 54.82 6.37 60.9 8.79"/><polygon class="cls-4" points="43.33 0.29 48.88 9.07 41.86 12.16 42.56 0 43.33 0.29"/><polygon class="cls-5" points="52.07 14.18 31.37 30.05 51.14 25.79 52.07 14.18"/><polygon class="cls-6" points="42.16 12.23 52.07 14.18 35.92 26.59 42.16 12.23"/><path class="cls-7" d="M.15,26.76s-.25-6.52-.1-6.47,6.06-1,18.28,3.55S36,26.46,36,26.46,34.4,28.11,26.55,28c-5.87-.09-12.59-1.67-18.4-1.56C3.19,26.54.74,26.69.15,26.76Z"/><path class="cls-8" d="M.15,26.76l4,5.4L34,28.05l2-1.59s-1.14,1.1-6.89,1.41-9.42-1-15.6-1.48A85.41,85.41,0,0,0,.15,26.76Z"/><path class="cls-9" d="M34,28.05,4.16,32.16,1.74,38.37s15.2-4.78,20.9-7.4A20.81,20.81,0,0,1,33,29Z"/><path class="cls-10" d="M1.74,38.37,3.8,43.55,31.63,30,33,29a15.48,15.48,0,0,0-6.08.37,146.58,146.58,0,0,0-13.8,5C10.73,35.39,1.74,38.37,1.74,38.37Z"/></g></g></g></svg>