<?xml version="1.0" encoding="UTF-8"?><svg xmlns="http://www.w3.org/2000/svg" xmlns:xlink="http://www.w3.org/1999/xlink" viewBox="0 0 87.53 96.95"><defs><style>.cls-1{fill:url(#linear-gradient);}.cls-2{fill:url(#linear-gradient-7);}.cls-2,.cls-3,.cls-4,.cls-5,.cls-6,.cls-7{mix-blend-mode:screen;}.cls-2,.cls-7{opacity:.2;}.cls-3{fill:url(#linear-gradient-9);}.cls-3,.cls-8,.cls-9,.cls-10{opacity:.4;}.cls-4{fill:url(#linear-gradient-4);}.cls-4,.cls-5,.cls-6,.cls-11,.cls-12,.cls-13,.cls-14{opacity:.3;}.cls-5{fill:url(#linear-gradient-22);}.cls-6{fill:url(#linear-gradient-24);}.cls-7{fill:url(#linear-gradient-20);}.cls-11{fill:url(#linear-gradient-5);}.cls-11,.cls-8,.cls-9,.cls-10,.cls-12,.cls-13,.cls-14{mix-blend-mode:multiply;}.cls-8{fill:url(#linear-gradient-26);}.cls-9{fill:url(#linear-gradient-25);}.cls-10{fill:url(#linear-gradient-13);}.cls-12{fill:url(#linear-gradient-12);}.cls-13{fill:url(#linear-gradient-11);}.cls-14{fill:url(#linear-gradient-14);}.cls-15{fill:url(#linear-gradient-8);}.cls-16{fill:url(#linear-gradient-3);}.cls-17{fill:url(#linear-gradient-2);}.cls-18{fill:url(#linear-gradient-6);}.cls-19{fill:url(#linear-gradient-18);}.cls-20{fill:url(#linear-gradient-21);}.cls-21{fill:url(#linear-gradient-23);}.cls-22{fill:url(#linear-gradient-15);}.cls-23{fill:url(#linear-gradient-19);}.cls-24{fill:url(#linear-gradient-16);}.cls-25{fill:url(#linear-gradient-17);}.cls-26{fill:url(#linear-gradient-10);}.cls-27{fill:url(#linear-gradient-27);}.cls-28{isolation:isolate;}</style><linearGradient id="linear-gradient" x1="0" y1="89.6" x2="21.44" y2="89.6" gradientUnits="userSpaceOnUse"><stop offset="0" stop-color="#ffd54f"/><stop offset="1" stop-color="#ffa000"/></linearGradient><linearGradient id="linear-gradient-2" x1="6.75" x2="42.19" xlink:href="#linear-gradient"/><linearGradient id="linear-gradient-3" x1="21.35" y1="65.63" x2="59.68" y2="65.63" xlink:href="#linear-gradient"/><linearGradient id="linear-gradient-4" x1="33.62" y1="50.95" x2="32.36" y2="50.22" gradientUnits="userSpaceOnUse"><stop offset="0" stop-color="#000"/><stop offset=".09" stop-color="#060606"/><stop offset=".22" stop-color="#181818"/><stop offset=".36" stop-color="#363636"/><stop offset=".53" stop-color="#606060"/><stop offset=".71" stop-color="#969696"/><stop offset=".89" stop-color="#d6d6d6"/><stop offset="1" stop-color="#fff"/></linearGradient><linearGradient id="linear-gradient-5" x1="42.85" y1="65.26" x2="48.62" y2="64.58" gradientUnits="userSpaceOnUse"><stop offset="0" stop-color="#fff"/><stop offset=".09" stop-color="#fdf9f8"/><stop offset=".23" stop-color="#faeae4"/><stop offset=".39" stop-color="#f5d0c5"/><stop offset=".57" stop-color="#eead99"/><stop offset=".77" stop-color="#e48061"/><stop offset=".97" stop-color="#d9491d"/><stop offset="1" stop-color="#d84315"/></linearGradient><linearGradient id="linear-gradient-6" x1="44.46" y1="66.75" x2="60.63" y2="66.41" gradientUnits="userSpaceOnUse"><stop offset="0" stop-color="#ffd54f"/><stop offset="1" stop-color="#ffab1f"/></linearGradient><linearGradient id="linear-gradient-7" x1="47.65" y1="66.5" x2="45.48" y2="66.76" gradientUnits="userSpaceOnUse"><stop offset="0" stop-color="#000"/><stop offset=".12" stop-color="#040404"/><stop offset=".24" stop-color="#111"/><stop offset=".37" stop-color="#262626"/><stop offset=".5" stop-color="#444"/><stop offset=".63" stop-color="#6b6b6b"/><stop offset=".77" stop-color="#9a9a9a"/><stop offset=".9" stop-color="#d1d1d1"/><stop offset="1" stop-color="#fff"/></linearGradient><linearGradient id="linear-gradient-8" x1="60.37" y1="66.6" x2="78.48" y2="66.6" xlink:href="#linear-gradient-6"/><linearGradient id="linear-gradient-9" x1="73.32" y1="66.53" x2="74.65" y2="66.69" xlink:href="#linear-gradient-7"/><linearGradient id="linear-gradient-10" x1="57.99" y1="98.77" x2="55.19" y2="94.36" gradientUnits="userSpaceOnUse"><stop offset="0" stop-color="#ffa000"/><stop offset="1" stop-color="#ffd54f"/></linearGradient><linearGradient id="linear-gradient-11" x1="50.35" y1="46.93" x2="51.88" y2="40.38" xlink:href="#linear-gradient-5"/><linearGradient id="linear-gradient-12" x1="70.41" y1="45.64" x2="68.97" y2="41.45" gradientUnits="userSpaceOnUse"><stop offset="0" stop-color="#fff"/><stop offset=".1" stop-color="#fefaf9"/><stop offset=".23" stop-color="#fbeeea"/><stop offset=".38" stop-color="#f7dad1"/><stop offset=".53" stop-color="#f1bdad"/><stop offset=".69" stop-color="#e99980"/><stop offset=".86" stop-color="#e06d49"/><stop offset="1" stop-color="#d84315"/></linearGradient><linearGradient id="linear-gradient-13" x1="29.42" y1="92.69" x2="32.54" y2="89.11" xlink:href="#linear-gradient-5"/><linearGradient id="linear-gradient-14" x1="11.8" y1="89.77" x2="13.36" y2="92.36" xlink:href="#linear-gradient-5"/><linearGradient id="linear-gradient-15" x1="40.68" y1="11.68" x2="56.15" y2="11.68" xlink:href="#linear-gradient"/><linearGradient id="linear-gradient-16" x1="38.71" y1="13.17" x2="46.43" y2="13.17" xlink:href="#linear-gradient"/><linearGradient id="linear-gradient-17" x1="70.85" y1="6.67" x2="78.1" y2="9.66" xlink:href="#linear-gradient"/><linearGradient id="linear-gradient-18" x1="73.82" y1="10.83" x2="81.16" y2="13.21" xlink:href="#linear-gradient"/><linearGradient id="linear-gradient-19" x1="33.21" y1="31.36" x2="60.53" y2="31.36" xlink:href="#linear-gradient"/><linearGradient id="linear-gradient-20" x1="38.89" y1="22.93" x2="39.85" y2="23.59" gradientUnits="userSpaceOnUse"><stop offset="0" stop-color="#fff"/><stop offset=".1" stop-color="#d1d1d1"/><stop offset=".23" stop-color="#9a9a9a"/><stop offset=".37" stop-color="#6b6b6b"/><stop offset=".5" stop-color="#444"/><stop offset=".63" stop-color="#262626"/><stop offset=".76" stop-color="#111"/><stop offset=".88" stop-color="#040404"/><stop offset="1" stop-color="#000"/></linearGradient><linearGradient id="linear-gradient-21" x1="73.9" y1="39.68" x2="59.14" y2="15.16" xlink:href="#linear-gradient-10"/><linearGradient id="linear-gradient-22" x1="81.02" y1="23.48" x2="81.88" y2="22.91" xlink:href="#linear-gradient-7"/><linearGradient id="linear-gradient-23" x1="44.65" y1="31.36" x2="76.09" y2="31.36" xlink:href="#linear-gradient-6"/><linearGradient id="linear-gradient-24" x1="60.37" y1="15.48" x2="60.37" y2="14.55" xlink:href="#linear-gradient-7"/><linearGradient id="linear-gradient-25" x1="54.6" y1="92.67" x2="55.83" y2="96" xlink:href="#linear-gradient-5"/><linearGradient id="linear-gradient-26" x1="65.97" y1="93.16" x2="65.27" y2="95" xlink:href="#linear-gradient-5"/><linearGradient id="linear-gradient-27" x1="71.15" y1="94.54" x2="60.3" y2="94.31" xlink:href="#linear-gradient-10"/></defs><g class="cls-28"><g id="Layer_2"><g id="_ÎÓÈ_1"><g><polygon class="cls-1" points="21.44 88.82 0 83.63 6.75 95.56 21.44 88.82"/><polygon class="cls-17" points="42.19 95.56 6.75 95.56 27.84 83.63 42.19 95.56"/><path class="cls-16" d="M41.5,34.3c-.65,.03-17.03,30.56-17.03,30.56v19.94l15.99,12.15h15.69V34.3h-14.65Z"/><path class="cls-4" d="M43.02,34.3h-1.52c-.65,.03-17.03,30.56-17.03,30.56v2.89l18.55-33.44Z"/><polygon class="cls-11" points="40.19 36.26 46.9 96.95 51.31 96.95 43.01 32.55 40.19 36.26"/><polygon class="cls-18" points="42.26 36.26 50.05 96.95 60.37 96.95 60.37 36.26 42.26 36.26"/><polygon class="cls-2" points="42.26 36.26 50.05 96.95 51.31 96.95 43.26 36.26 42.26 36.26"/><polygon class="cls-15" points="78.48 36.26 60.37 36.26 60.37 96.95 70.69 96.95 78.48 36.26"/><polygon class="cls-3" points="78.48 36.26 77.66 36.26 69.43 96.95 70.69 96.95 78.48 36.26"/><polygon class="cls-26" points="49.94 96.95 60.37 91.67 60.37 96.95 49.94 96.95"/><polygon class="cls-13" points="60.37 48.17 42.35 37.02 43.46 45.65 60.37 48.17"/><polygon class="cls-12" points="60.36 48.17 78.37 37.02 77.61 42.96 60.36 48.17"/><polygon class="cls-10" points="25.03 85.22 38.62 95.56 32.3 95.56 23.46 86.11 25.03 85.22"/><polygon class="cls-14" points="5.26 92.93 6.75 95.56 19.49 88.35 16.58 87.65 5.26 92.93"/><g><polygon class="cls-22" points="40.68 0 46.43 23.37 56.15 14.55 40.68 0"/><polygon class="cls-24" points="40.68 0 38.71 26.34 46.43 21.12 40.68 0"/><polygon class="cls-25" points="80.05 0 64.59 14.55 74.89 18.81 80.05 0"/><polygon class="cls-19" points="80.05 0 74.89 18.81 82.02 26.34 80.05 0"/></g><polygon class="cls-23" points="44.65 14.55 33.21 31.36 60.37 48.17 60.37 14.55 44.65 14.55"/><polygon class="cls-7" points="45.08 15.47 44.65 14.55 33.21 31.36 34.18 31.96 45.08 15.47"/><polygon class="cls-20" points="87.53 31.36 76.09 14.55 60.37 14.55 60.37 48.17 87.53 31.36"/><polygon class="cls-5" points="86.72 31.86 87.53 31.36 76.09 14.55 75.66 15.47 86.72 31.86"/><polygon class="cls-21" points="44.65 14.55 76.09 14.55 60.37 48.17 44.65 14.55"/><polygon class="cls-6" points="75.66 15.47 76.09 14.55 44.65 14.55 45.08 15.47 75.66 15.47"/><polygon class="cls-9" points="60.37 91.67 49.6 93.44 50.05 96.95 60.37 91.67"/><polygon class="cls-8" points="60.37 91.67 70.97 94.78 70.69 96.95 60.37 91.67"/><polygon class="cls-27" points="70.8 96.95 60.37 91.67 60.37 96.95 70.8 96.95"/></g></g></g></g></svg>