<?xml version="1.0" encoding="UTF-8"?><svg xmlns="http://www.w3.org/2000/svg" xmlns:xlink="http://www.w3.org/1999/xlink" viewBox="0 0 193.67 89.7"><defs><style>.cls-1{fill:url(#linear-gradient);}.cls-2{fill:url(#linear-gradient-8);}.cls-2,.cls-3,.cls-4,.cls-5,.cls-6{mix-blend-mode:screen;}.cls-2,.cls-3,.cls-4,.cls-5,.cls-6,.cls-7,.cls-8,.cls-9,.cls-10,.cls-11,.cls-12,.cls-13{opacity:.3;}.cls-3{fill:url(#linear-gradient-20);}.cls-4{fill:url(#linear-gradient-18);}.cls-5{fill:url(#linear-gradient-16);}.cls-6{fill:url(#linear-gradient-13);}.cls-7{fill:url(#linear-gradient-6);}.cls-7,.cls-8,.cls-9,.cls-10,.cls-11,.cls-12,.cls-13{mix-blend-mode:multiply;}.cls-8{fill:url(#linear-gradient-3);}.cls-9{fill:url(#linear-gradient-2);}.cls-10{fill:url(#linear-gradient-11);}.cls-11{fill:url(#linear-gradient-23);}.cls-12{fill:url(#linear-gradient-24);}.cls-13{fill:url(#linear-gradient-25);}.cls-14{fill:url(#linear-gradient-9);}.cls-15{fill:url(#linear-gradient-4);}.cls-16{fill:url(#linear-gradient-7);}.cls-17{fill:url(#linear-gradient-5);}.cls-18{fill:url(#linear-gradient-14);}.cls-19{fill:url(#linear-gradient-22);}.cls-20{fill:url(#linear-gradient-21);}.cls-21{fill:url(#linear-gradient-15);}.cls-22{fill:url(#linear-gradient-19);}.cls-23{fill:url(#linear-gradient-17);}.cls-24{fill:url(#linear-gradient-12);}.cls-25{fill:url(#linear-gradient-10);}.cls-26{isolation:isolate;}</style><linearGradient id="linear-gradient" x1="168.55" y1="32.37" x2="149.05" y2="28.62" gradientTransform="translate(193.67) rotate(-180) scale(1 -1)" gradientUnits="userSpaceOnUse"><stop offset="0" stop-color="#ce93d8"/><stop offset="1" stop-color="#a959be"/></linearGradient><linearGradient id="linear-gradient-2" x1="152.8" y1="28.93" x2="155.05" y2="28.93" gradientTransform="translate(193.67) rotate(-180) scale(1 -1)" gradientUnits="userSpaceOnUse"><stop offset="0" stop-color="#4a148c"/><stop offset=".18" stop-color="#6d42a2"/><stop offset=".58" stop-color="#bba7d3"/><stop offset=".86" stop-color="#ece6f2"/><stop offset=".99" stop-color="#fff"/></linearGradient><linearGradient id="linear-gradient-3" x1="160.8" y1="47.35" x2="160.17" y2="48.76" gradientTransform="translate(193.67) rotate(-180) scale(1 -1)" gradientUnits="userSpaceOnUse"><stop offset="0" stop-color="#fff"/><stop offset=".14" stop-color="#ece6f2"/><stop offset=".42" stop-color="#bba7d3"/><stop offset=".82" stop-color="#6d42a2"/><stop offset="1" stop-color="#4a148c"/></linearGradient><linearGradient id="linear-gradient-4" x1="96.22" y1="43.97" x2="126.72" y2="38.97" xlink:href="#linear-gradient"/><linearGradient id="linear-gradient-5" x1="113.93" y1="64.24" x2="68.99" y2="37.95" xlink:href="#linear-gradient"/><linearGradient id="linear-gradient-6" x1="87.84" y1="40.93" x2="82" y2="40.93" xlink:href="#linear-gradient-3"/><linearGradient id="linear-gradient-7" x1="163.39" y1="66.16" x2="167.14" y2="46.66" xlink:href="#linear-gradient"/><linearGradient id="linear-gradient-8" x1="173.42" y1="54.22" x2="173.01" y2="55.16" gradientTransform="translate(193.67) rotate(-180) scale(1 -1)" gradientUnits="userSpaceOnUse"><stop offset="0" stop-color="#fff"/><stop offset=".12" stop-color="#e8e8e8"/><stop offset=".37" stop-color="#acacac"/><stop offset=".72" stop-color="#4f4f4f"/><stop offset="1" stop-color="#000"/></linearGradient><linearGradient id="linear-gradient-9" x1="82.31" y1="23.56" x2="118.06" y2="13.06" xlink:href="#linear-gradient"/><linearGradient id="linear-gradient-10" x1="157.24" y1="88.91" x2="133.89" y2="38.29" xlink:href="#linear-gradient"/><linearGradient id="linear-gradient-11" x1="139.18" y1="53.9" x2="139.18" y2="49.72" xlink:href="#linear-gradient-3"/><linearGradient id="linear-gradient-12" x1="73.83" y1="77.25" x2="61.25" y2="6.35" xlink:href="#linear-gradient"/><linearGradient id="linear-gradient-13" x1="85.03" y1="39.34" x2="83.08" y2="39.34" gradientTransform="translate(193.67) rotate(-180) scale(1 -1)" gradientUnits="userSpaceOnUse"><stop offset="0" stop-color="#fff"/><stop offset=".1" stop-color="#d0d0d0"/><stop offset=".23" stop-color="#9a9a9a"/><stop offset=".37" stop-color="#6a6a6a"/><stop offset=".5" stop-color="#444"/><stop offset=".63" stop-color="#262626"/><stop offset=".76" stop-color="#111"/><stop offset=".88" stop-color="#040404"/><stop offset="1" stop-color="#000"/></linearGradient><linearGradient id="linear-gradient-14" x1="34.29" y1="16.61" x2="47.36" y2="16.61" xlink:href="#linear-gradient"/><linearGradient id="linear-gradient-15" x1="-1.77" y1="21.04" x2="25.9" y2="26.53" xlink:href="#linear-gradient"/><linearGradient id="linear-gradient-16" x1="10.36" y1="19.13" x2="11.2" y2="21.03" xlink:href="#linear-gradient-13"/><linearGradient id="linear-gradient-17" x1="14.42" y1="19.39" x2="44.05" y2="22.13" xlink:href="#linear-gradient"/><linearGradient id="linear-gradient-18" x1="29.76" y1="10.22" x2="30.56" y2="12.78" xlink:href="#linear-gradient-13"/><linearGradient id="linear-gradient-19" x1="154.31" y1="53.44" x2="122.56" y2="1.44" xlink:href="#linear-gradient"/><linearGradient id="linear-gradient-20" x1="132.36" y1="8.54" x2="132.36" y2="10.54" xlink:href="#linear-gradient-13"/><linearGradient id="linear-gradient-21" x1="45.09" y1="14.49" x2="39.09" y2=".17" xlink:href="#linear-gradient"/><linearGradient id="linear-gradient-22" x1="49.41" y1="25.06" x2="44.77" y2="20.27" xlink:href="#linear-gradient"/><linearGradient id="linear-gradient-23" x1="18.87" y1="24.91" x2="21.5" y2="24.03" xlink:href="#linear-gradient-3"/><linearGradient id="linear-gradient-24" x1="115.97" y1="30.04" x2="119.03" y2="29" xlink:href="#linear-gradient-3"/><linearGradient id="linear-gradient-25" x1="109.78" y1="45.67" x2="107.03" y2="44.35" xlink:href="#linear-gradient-3"/></defs><g class="cls-26"><g id="Layer_2"><g id="_ÎÓÈ_1"><g><polygon class="cls-1" points="41.41 9.32 25.17 52.28 46.85 43.03 41.41 9.32"/><polygon class="cls-9" points="38.58 16.81 40.66 11.3 40.66 45.68 38.58 46.56 38.58 16.81"/><polygon class="cls-8" points="25.23 52.12 40.93 45.23 40.93 43.52 25.83 50.54 25.23 52.12"/><path class="cls-15" d="M100.66,65.57c-.5-.52-36.39-18-36.39-18l13.68-27.86,22.71,45.86Z"/><polygon class="cls-17" points="108.7 89.7 75.24 22.61 109.85 10.45 111.89 89.7 108.7 89.7"/><polygon class="cls-7" points="108.7 10.85 106.43 11.65 105.36 68.72 111.43 71.01 108.7 10.85"/><polygon class="cls-16" points="52.57 42.06 22.54 70.01 0 63.12 54.79 39.23 52.57 42.06"/><polygon class="cls-2" points="40.55 45.44 40.55 46.56 1.23 63.5 0 63.12 40.55 45.44"/><polygon class="cls-14" points="108.7 9.94 79.36 9.32 73.86 25.38 109.32 11.06 108.7 9.94"/><path class="cls-25" d="M44.03,89.7c-.68-11.94-1.71-39.95-1.71-39.95h24.35c-.33,.41-13.4,28.09-19.41,39.95h-3.24Z"/><path class="cls-10" d="M42.47,53.78c-.09-2.49-.15-4.03-.15-4.03h24.35c-.07,.09-.82,1.61-1.98,4.03h-22.22Z"/><polygon class="cls-24" points="150.66 9.32 108.7 9.32 108.7 68.46 116.72 72.37 150.66 34.25 150.66 9.32"/><polygon class="cls-6" points="110.58 9.32 110.58 69.37 108.7 68.46 108.7 9.32 110.58 9.32"/><path class="cls-18" d="M159.38,0c0,.39-5.29,32.48-5.4,33.2-.11,.72-8.04-16.53-7.66-16.79,.34-.23,9.78-13.4,11.92-16.13,.25-.32,1.14-.28,1.14-.28Z"/><polygon class="cls-21" points="193.67 23.57 188.52 33.2 167.8 32.68 172.95 14.71 193.67 23.57"/><polygon class="cls-5" points="193.67 23.57 192.73 25.33 172.93 17.25 172.95 14.71 193.67 23.57"/><polygon class="cls-23" points="175.34 14.06 169.31 35.68 147.72 37.37 152.36 6.51 175.34 14.06"/><polygon class="cls-4" points="175.34 14.06 174.68 16.41 152.06 9.12 152.36 6.51 175.34 14.06"/><polygon class="cls-22" points="83.26 8.59 39.36 8.59 40.19 51.56 67.9 51.56 83.26 8.59"/><polygon class="cls-3" points="39.4 10.57 39.36 8.59 83.26 8.59 82.55 10.57 39.4 10.57"/><path class="cls-20" d="M153.75,0c0,.39-2.19,24.33-2.19,24.33l-10.87-7.92S150.47,3.01,152.61,.28c.25-.32,1.14-.28,1.14-.28Z"/><path class="cls-19" d="M140.69,16.41l10.87,7.92-3.21,8.87s-7.72-16.72-7.66-16.79Z"/><polygon class="cls-11" points="174.92 15.56 170.13 32.74 172.29 32.79 177.2 16.54 174.92 15.56"/><polygon class="cls-12" points="82.97 9.39 84.73 9.39 70.63 50.67 68.58 49.67 82.97 9.39"/><polygon class="cls-13" points="95.29 62.8 90.87 60.61 76.1 28.74 77.04 26.37 95.29 62.8"/></g></g></g></g></svg>