<svg xmlns="http://www.w3.org/2000/svg" xmlns:xlink="http://www.w3.org/1999/xlink" viewBox="0 0 83.29 32.75"><defs><style>.cls-1{fill:url(#linear-gradient);}.cls-2{fill:url(#linear-gradient-2);}.cls-3{fill:url(#linear-gradient-3);}.cls-4{fill:url(#linear-gradient-4);}.cls-5{fill:url(#linear-gradient-5);}.cls-6{fill:url(#linear-gradient-6);}.cls-7{fill:url(#linear-gradient-7);}.cls-8{fill:url(#linear-gradient-8);}.cls-9{fill:url(#linear-gradient-9);}.cls-10{fill:url(#linear-gradient-10);}.cls-11{fill:url(#linear-gradient-11);}</style><linearGradient id="linear-gradient" x1="5.82" y1="-1.12" x2="3.69" y2="4.86" gradientTransform="matrix(-1, 0, 0, 1, 83.29, 0)" gradientUnits="userSpaceOnUse"><stop offset="0" stop-color="#d1dbdd"/><stop offset="1" stop-color="#aebdc2"/></linearGradient><linearGradient id="linear-gradient-2" x1="17.77" y1="3.21" x2="12.97" y2="16.65" xlink:href="#linear-gradient"/><linearGradient id="linear-gradient-3" x1="29.78" y1="14.49" x2="24.86" y2="28.27" xlink:href="#linear-gradient"/><linearGradient id="linear-gradient-4" x1="29.47" y1="6.62" x2="26.63" y2="14.58" xlink:href="#linear-gradient"/><linearGradient id="linear-gradient-5" x1="25.05" y1="19.27" x2="42.23" y2="19.27" xlink:href="#linear-gradient"/><linearGradient id="linear-gradient-6" x1="19.01" y1="33.93" x2="24.5" y2="23.23" xlink:href="#linear-gradient"/><linearGradient id="linear-gradient-7" x1="32.99" y1="18.05" x2="62.7" y2="18.05" xlink:href="#linear-gradient"/><linearGradient id="linear-gradient-8" x1="52.66" y1="20.03" x2="83.29" y2="20.03" xlink:href="#linear-gradient"/><linearGradient id="linear-gradient-9" x1="32.99" y1="27.9" x2="42.46" y2="27.9" xlink:href="#linear-gradient"/><linearGradient id="linear-gradient-10" x1="34.97" y1="29.97" x2="38.37" y2="29.97" xlink:href="#linear-gradient"/><linearGradient id="linear-gradient-11" x1="42.38" y1="25.45" x2="55.77" y2="25.45" xlink:href="#linear-gradient"/></defs><g id="Layer_2" data-name="Layer 2"><g id="Origami"><g id="Dyno"><polygon class="cls-1" points="83.29 4.24 79.35 0 75.29 3.76 81.55 6.35 83.29 4.24"/><polygon class="cls-2" points="60.44 25.11 79.17 5.31 75.29 3.76 58.23 16.94 60.44 25.11"/><path class="cls-3" d="M60.56,32.57c-.06-.18-8.11-10.26-8.11-10.26l5.78-5.37,2.21,8.17Z"/><polygon class="cls-4" points="60.38 15.27 51.49 9.84 58.23 16.94 60.38 15.27"/><path class="cls-5" d="M58.23,16.94l-6.74-7.1c-.24.06-10.44.84-10.44.84L50.3,23.62l-3,3.93.87,1.14L56,26.64l-3.5-4.33Z"/><path class="cls-6" d="M62.53,32.75c0-.24-1-8.83-1-8.83l-1.07,1.19.1,6.16Z"/><polygon class="cls-7" points="20.59 23.27 41.05 10.68 50.3 23.62 27.63 25.41 20.59 23.27"/><polygon class="cls-8" points="30.63 17.09 0 16.8 20.57 23.25 30.63 17.09"/><polygon class="cls-9" points="50.3 23.62 40.87 24.34 40.83 29.21 43.98 32.17 50.3 23.62"/><polygon class="cls-10" points="48.32 28.7 45.81 32.4 44.92 30.84 47.34 27.55 48.32 28.7"/><polygon class="cls-11" points="40.9 26.57 27.52 25.41 40.87 24.34 40.9 26.57"/></g></g></g></svg>