<?xml version="1.0" encoding="UTF-8"?><svg xmlns="http://www.w3.org/2000/svg" xmlns:xlink="http://www.w3.org/1999/xlink" viewBox="0 0 121.08 118.87"><defs><style>.cls-1{fill:url(#linear-gradient);}.cls-2{fill:url(#linear-gradient-7);}.cls-2,.cls-3,.cls-4{opacity:.2;}.cls-2,.cls-3,.cls-4,.cls-5,.cls-6,.cls-7{mix-blend-mode:multiply;}.cls-3{fill:url(#linear-gradient-4);}.cls-4{fill:url(#linear-gradient-16);}.cls-5{fill:url(#linear-gradient-12);}.cls-5,.cls-6,.cls-7{opacity:.3;}.cls-6{fill:url(#linear-gradient-13);}.cls-7{fill:url(#linear-gradient-14);}.cls-8{fill:url(#linear-gradient-8);}.cls-9{fill:url(#linear-gradient-9);}.cls-10{fill:url(#linear-gradient-3);}.cls-11{fill:url(#linear-gradient-2);}.cls-12{fill:url(#linear-gradient-6);}.cls-13{fill:url(#linear-gradient-5);}.cls-14{fill:url(#linear-gradient-15);}.cls-15{fill:url(#linear-gradient-10);}.cls-16{fill:url(#linear-gradient-11);}.cls-17{isolation:isolate;}</style><linearGradient id="linear-gradient" x1="122.09" y1="75.23" x2="110.67" y2="58.57" gradientTransform="translate(123.27 2.26) rotate(-177.9) scale(1 -1)" gradientUnits="userSpaceOnUse"><stop offset="0" stop-color="#ffd54f"/><stop offset="1" stop-color="#ffad1d"/></linearGradient><linearGradient id="linear-gradient-2" x1="114.54" y1="60.59" x2="98.59" y2="61.69" xlink:href="#linear-gradient"/><linearGradient id="linear-gradient-3" x1="41.91" y1="8.15" x2="46.41" y2="13.95" xlink:href="#linear-gradient"/><linearGradient id="linear-gradient-4" x1="39.25" y1="14.82" x2="40.27" y2="16.71" gradientTransform="translate(123.27 2.26) rotate(-177.9) scale(1 -1)" gradientUnits="userSpaceOnUse"><stop offset="0" stop-color="#fff"/><stop offset=".02" stop-color="#fefbfa"/><stop offset=".51" stop-color="#e99980"/><stop offset=".85" stop-color="#dd5b33"/><stop offset="1" stop-color="#d84315"/></linearGradient><linearGradient id="linear-gradient-5" x1="44.25" y1="11.08" x2="49.29" y2="16.27" xlink:href="#linear-gradient"/><linearGradient id="linear-gradient-6" x1="18.88" y1="62.44" x2="19.66" y2="41.88" xlink:href="#linear-gradient"/><linearGradient id="linear-gradient-7" x1="19.61" y1="47.98" x2="19.61" y2="42.71" gradientTransform="translate(123.27 2.26) rotate(-177.9) scale(1 -1)" gradientUnits="userSpaceOnUse"><stop offset="0" stop-color="#fff"/><stop offset=".49" stop-color="#ea9d86"/><stop offset=".84" stop-color="#dd5c34"/><stop offset="1" stop-color="#d84315"/></linearGradient><linearGradient id="linear-gradient-8" x1="11.49" y1="50.88" x2="38.5" y2="16.49" xlink:href="#linear-gradient"/><linearGradient id="linear-gradient-9" x1="23.91" y1="66.42" x2="62.28" y2="65.75" gradientTransform="translate(123.27 2.26) rotate(-177.9) scale(1 -1)" gradientUnits="userSpaceOnUse"><stop offset="0" stop-color="#ffd54f"/><stop offset="1" stop-color="#ffad1d"/></linearGradient><linearGradient id="linear-gradient-10" x1="111.25" y1="78.94" x2="78.42" y2="88.61" gradientTransform="translate(123.27 2.26) rotate(-177.9) scale(1 -1)" gradientUnits="userSpaceOnUse"><stop offset="0" stop-color="#ffd54f"/><stop offset=".29" stop-color="#ffd14b"/><stop offset=".57" stop-color="#ffc83f"/><stop offset=".84" stop-color="#ffb92c"/><stop offset="1" stop-color="#ffad1d"/></linearGradient><linearGradient id="linear-gradient-11" x1="94.96" y1="80.31" x2="69" y2="96.04" gradientTransform="translate(123.27 2.26) rotate(-177.9) scale(1 -1)" gradientUnits="userSpaceOnUse"><stop offset="0" stop-color="#ffd54f"/><stop offset=".26" stop-color="#ffd049"/><stop offset=".59" stop-color="#ffc43a"/><stop offset=".94" stop-color="#ffb021"/><stop offset="1" stop-color="#ffad1d"/></linearGradient><linearGradient id="linear-gradient-12" x1="112.42" y1="60.34" x2="110.79" y2="59.64" xlink:href="#linear-gradient-7"/><linearGradient id="linear-gradient-13" x1="104.74" y1="59.88" x2="102.48" y2="60.87" xlink:href="#linear-gradient-7"/><linearGradient id="linear-gradient-14" x1="71.95" y1="68.61" x2="69.11" y2="68.61" xlink:href="#linear-gradient-7"/><linearGradient id="linear-gradient-15" x1="42.97" y1="81.71" x2="78.37" y2="85.54" gradientTransform="translate(123.27 2.26) rotate(-177.9) scale(1 -1)" gradientUnits="userSpaceOnUse"><stop offset="0" stop-color="#ffd54f"/><stop offset=".12" stop-color="#ffcf47"/><stop offset=".68" stop-color="#ffb628"/><stop offset="1" stop-color="#ffad1d"/></linearGradient><linearGradient id="linear-gradient-16" x1="26.97" y1="30.59" x2="29.88" y2="31.03" xlink:href="#linear-gradient-7"/></defs><g class="cls-17"><g id="Layer_2"><g id="_ÎÓÈ_1"><g><polygon class="cls-1" points="7.07 52.01 0 73.1 12.53 63.42 7.07 52.01"/><path class="cls-11" d="M23.94,50.6s-9.13,19.04-9.03,18.73c.09-.31-7.8-17.31-7.8-17.31l16.84-1.42Z"/><path class="cls-10" d="M93.2,18.58L67.74,0s18.45,25.34,19.19,26c.74,.66,6.27-7.41,6.27-7.41Z"/><path class="cls-3" d="M91.33,20.73l-15.71-10.27-.07,.22s13.64,11.52,14.06,11.9c.74,.66,1.73-1.85,1.73-1.85Z"/><path class="cls-13" d="M90.1,21.33L64.64,2.74s18.45,25.34,19.19,26c.74,.66,6.26-7.41,6.26-7.41Z"/><path class="cls-12" d="M110.17,44.91c-.49,2.41-4.76,17.95-4.76,17.95l-11.4-18.54,16.16,.59Z"/><path class="cls-2" d="M97.15,49.42l-3.14-5.1,16.16,.59c-.15,.72-.63,2.63-1.24,4.94l-11.78-.43Z"/><polygon class="cls-8" points="92.12 16.41 121.08 47.25 90.98 47.44 92.12 16.41"/><path class="cls-9" d="M92.12,16.41s-33.32,28.21-33.38,29.84c1.13,2.39,34.21,72.38,34.21,72.38l6.42,.24-7.24-102.45Z"/><polygon class="cls-15" points="41.19 48.2 22.16 49.61 13.17 68.74 12.3 117.69 41.19 48.2"/><polygon class="cls-16" points="41.19 48.2 12.3 117.69 17.79 117.89 52.89 83.87 50.18 48.02 41.19 48.2"/><polygon class="cls-5" points="7.1 52.02 12.39 63.53 11.01 64.59 6.82 53.07 7.1 52.02"/><polygon class="cls-6" points="21.6 50.8 19.75 50.95 13.08 65.06 13.97 67.05 21.6 50.8"/><polygon class="cls-7" points="50.18 48.02 49.59 48.04 48.11 88.37 51.03 85.67 50.18 48.02"/><polygon class="cls-14" points="92.95 118.63 50.21 88.17 50.18 48.02 58.74 46.26 92.95 118.63"/><polygon class="cls-4" points="92.12 16.41 94.39 47.41 97.13 47.4 93.24 17.5 92.12 16.41"/></g></g></g></g></svg>