<?xml version="1.0" encoding="UTF-8"?><svg xmlns="http://www.w3.org/2000/svg" xmlns:xlink="http://www.w3.org/1999/xlink" viewBox="0 0 151.6 118.57"><defs><style>.cls-1{fill:url(#linear-gradient);}.cls-2{fill:url(#linear-gradient-7);}.cls-2,.cls-3{mix-blend-mode:screen;}.cls-2,.cls-4,.cls-5,.cls-6,.cls-7{opacity:.3;}.cls-3{fill:url(#linear-gradient-10);opacity:.2;}.cls-4{fill:url(#linear-gradient-5);}.cls-4,.cls-5,.cls-6,.cls-7{mix-blend-mode:multiply;}.cls-5{fill:url(#linear-gradient-2);}.cls-6{fill:url(#linear-gradient-12);}.cls-7{fill:url(#linear-gradient-11);}.cls-8{fill:url(#linear-gradient-8);}.cls-9{fill:url(#linear-gradient-9);}.cls-10{fill:url(#linear-gradient-3);}.cls-11{fill:url(#linear-gradient-4);}.cls-12{fill:url(#linear-gradient-6);}.cls-13{isolation:isolate;}</style><linearGradient id="linear-gradient" x1="141.93" y1="7.89" x2="130.29" y2="15.15" gradientUnits="userSpaceOnUse"><stop offset="0" stop-color="#ffd54f"/><stop offset="1" stop-color="#ffad1d"/></linearGradient><linearGradient id="linear-gradient-2" x1="130.92" y1="11.44" x2="129.42" y2="12.9" gradientUnits="userSpaceOnUse"><stop offset="0" stop-color="#fff"/><stop offset=".09" stop-color="#fdf7f6"/><stop offset=".24" stop-color="#f9e4de"/><stop offset=".42" stop-color="#f3c5b7"/><stop offset=".63" stop-color="#ea9a81"/><stop offset=".87" stop-color="#de633d"/><stop offset="1" stop-color="#d84315"/></linearGradient><linearGradient id="linear-gradient-3" x1="113.62" y1="118.68" x2="102.83" y2="113.15" xlink:href="#linear-gradient"/><linearGradient id="linear-gradient-4" x1="107.56" y1="119.11" x2="108.31" y2="89.95" xlink:href="#linear-gradient"/><linearGradient id="linear-gradient-5" x1="108.3" y1="95.37" x2="108.3" y2="90.33" xlink:href="#linear-gradient-2"/><linearGradient id="linear-gradient-6" x1="35.77" y1="57.95" x2="57.46" y2="70.62" xlink:href="#linear-gradient"/><linearGradient id="linear-gradient-7" x1="48.36" y1="65.29" x2="49.28" y2="67.22" gradientUnits="userSpaceOnUse"><stop offset="0" stop-color="#fff"/><stop offset=".16" stop-color="#cecece"/><stop offset=".47" stop-color="#777"/><stop offset=".72" stop-color="#363636"/><stop offset=".91" stop-color="#0f0f0f"/><stop offset="1" stop-color="#000"/></linearGradient><linearGradient id="linear-gradient-8" x1="125.24" y1="47.48" x2="151.5" y2="47.48" xlink:href="#linear-gradient"/><linearGradient id="linear-gradient-9" x1="86.94" y1="97.34" x2="118.2" y2="40.05" xlink:href="#linear-gradient"/><linearGradient id="linear-gradient-10" x1="74.13" y1="66.55" x2="77.08" y2="69.3" xlink:href="#linear-gradient-7"/><linearGradient id="linear-gradient-11" x1="105.21" y1="114.96" x2="103.91" y2="114.37" xlink:href="#linear-gradient-2"/><linearGradient id="linear-gradient-12" x1="72.81" y1="65.35" x2="76.76" y2="69.31" xlink:href="#linear-gradient-2"/></defs><g class="cls-13"><g id="Layer_2"><g id="_ÎÓÈ_1"><g><path class="cls-1" d="M132.69,17.42c.64,0,18.91-1.91,18.91-1.91L132.69,0l-7.32,6.36,7.32,11.06Z"/><polygon class="cls-5" points="133.77 17.33 135.85 17.13 125.95 5.85 125.37 6.36 133.77 17.33"/><path class="cls-10" d="M104.8,108.07c.17,.52,8.44,10.5,8.44,10.5h-11.71l3.27-10.5Z"/><path class="cls-11" d="M98.67,90.4l2.86,28.18s10.65-18.08,16.4-28.18h-19.26Z"/><path class="cls-4" d="M115.13,95.27c1-1.74,1.95-3.39,2.79-4.88h-19.26l.5,4.88h15.97Z"/><polygon class="cls-12" points="0 88.67 70.6 88.67 96.73 41.95 0 88.67"/><polygon class="cls-2" points="0 88.67 4.42 88.73 95.31 45.15 96.73 41.95 0 88.67"/><path class="cls-8" d="M125.38,6.37c-.62-.62,1.06,83.06,1.7,82.21,.64-.85,24.43-41.1,24.43-41.1,0,0-16.99-31.98-26.13-41.11Z"/><polygon class="cls-9" points="96.73 41.95 50.76 94.73 127.18 92.51 133.02 41.95 96.73 41.95"/><polygon class="cls-3" points="96.73 41.95 50.76 94.73 54.85 94.73 101.53 42.12 96.73 41.95"/><polygon class="cls-7" points="106.43 110.23 101.53 118.57 103.64 118.57 106.68 110.54 106.43 110.23"/><polygon class="cls-6" points="56.11 88.59 96.73 41.95 96.44 42.09 48.73 88.59 56.11 88.59"/></g></g></g></g></svg>