<?xml version="1.0" encoding="UTF-8"?><svg xmlns="http://www.w3.org/2000/svg" xmlns:xlink="http://www.w3.org/1999/xlink" viewBox="0 0 108.36 130.72"><defs><style>.cls-1{fill:url(#linear-gradient);}.cls-2{fill:url(#linear-gradient-28);}.cls-2,.cls-3{mix-blend-mode:screen;}.cls-2,.cls-4,.cls-5,.cls-6{opacity:.3;}.cls-7{fill:url(#linear-gradient-24);}.cls-7,.cls-8,.cls-9,.cls-10,.cls-11,.cls-12,.cls-13,.cls-14,.cls-15,.cls-4,.cls-5,.cls-6,.cls-16,.cls-17{mix-blend-mode:multiply;}.cls-7,.cls-8,.cls-9,.cls-10,.cls-16,.cls-17{opacity:.5;}.cls-8{fill:url(#linear-gradient-27);}.cls-9{fill:url(#linear-gradient-18);}.cls-10{fill:url(#linear-gradient-23);}.cls-3{fill:url(#linear-gradient-26);opacity:.2;}.cls-11{fill:url(#linear-gradient-29);}.cls-11,.cls-12,.cls-13,.cls-14,.cls-15{opacity:.4;}.cls-12{fill:url(#linear-gradient-30);}.cls-13{fill:url(#linear-gradient-32);}.cls-14{fill:url(#linear-gradient-31);}.cls-15{fill:url(#linear-gradient-20);}.cls-4{fill:url(#linear-gradient-14);}.cls-5{fill:url(#linear-gradient-21);}.cls-6{fill:url(#linear-gradient-19);}.cls-16{fill:url(#linear-gradient-7);}.cls-17{fill:url(#linear-gradient-8);}.cls-18{fill:url(#linear-gradient-9);}.cls-19{fill:url(#linear-gradient-3);}.cls-20{fill:url(#linear-gradient-4);}.cls-21{fill:url(#linear-gradient-2);}.cls-22{fill:url(#linear-gradient-6);}.cls-23{fill:url(#linear-gradient-5);}.cls-24{fill:url(#linear-gradient-22);}.cls-25{fill:url(#linear-gradient-15);}.cls-26{fill:url(#linear-gradient-16);}.cls-27{fill:url(#linear-gradient-17);}.cls-28{fill:url(#linear-gradient-13);}.cls-29{fill:url(#linear-gradient-12);}.cls-30{fill:url(#linear-gradient-10);}.cls-31{fill:url(#linear-gradient-11);}.cls-32{fill:url(#linear-gradient-25);}.cls-33{isolation:isolate;}</style><linearGradient id="linear-gradient" x1="49.04" y1="129.38" x2="42.99" y2="127.43" gradientTransform="translate(108.36) rotate(-180) scale(1 -1)" gradientUnits="userSpaceOnUse"><stop offset="0" stop-color="#478905"/><stop offset="1" stop-color="#76b530"/></linearGradient><linearGradient id="linear-gradient-2" x1="47.19" y1="100.48" x2="49.24" y2="130.84" xlink:href="#linear-gradient"/><linearGradient id="linear-gradient-3" x1="98.3" y1="123.7" x2="90.55" y2="123.18" xlink:href="#linear-gradient"/><linearGradient id="linear-gradient-4" x1="91.82" y1="99.19" x2="92.56" y2="126.19" xlink:href="#linear-gradient"/><linearGradient id="linear-gradient-5" x1="108.57" y1="128.16" x2="100.7" y2="127.77" xlink:href="#linear-gradient"/><linearGradient id="linear-gradient-6" x1="102.45" y1="98.31" x2="103.34" y2="130.8" xlink:href="#linear-gradient"/><linearGradient id="linear-gradient-7" x1="91.64" y1="105" x2="92.92" y2="102.89" gradientTransform="translate(108.36) rotate(-180) scale(1 -1)" gradientUnits="userSpaceOnUse"><stop offset="0" stop-color="#fff"/><stop offset=".09" stop-color="#f7f9f7"/><stop offset=".23" stop-color="#e3ebe4"/><stop offset=".4" stop-color="#c2d4c3"/><stop offset=".59" stop-color="#94b396"/><stop offset=".8" stop-color="#5a8a5d"/><stop offset="1" stop-color="#1b5e20"/></linearGradient><linearGradient id="linear-gradient-8" x1="102.46" y1="110.86" x2="103.6" y2="108.97" xlink:href="#linear-gradient-7"/><linearGradient id="linear-gradient-9" x1="41.08" y1="127.83" x2="35.65" y2="122.71" xlink:href="#linear-gradient"/><linearGradient id="linear-gradient-10" x1="43.58" y1="96.31" x2="32.5" y2="125.33" xlink:href="#linear-gradient"/><linearGradient id="linear-gradient-11" x1="-5" y1="36.43" x2="16.42" y2="19.48" gradientTransform="translate(108.36) rotate(-180) scale(1 -1)" gradientUnits="userSpaceOnUse"><stop offset="0" stop-color="#478905"/><stop offset=".36" stop-color="#5e9f1a"/><stop offset=".73" stop-color="#6faf2a"/><stop offset="1" stop-color="#76b530"/></linearGradient><linearGradient id="linear-gradient-12" x1="12.6" y1="7.99" x2="26.76" y2="31.59" gradientTransform="translate(108.36) rotate(-180) scale(1 -1)" gradientUnits="userSpaceOnUse"><stop offset="0" stop-color="#76b530"/><stop offset=".35" stop-color="#69a924"/><stop offset=".99" stop-color="#478905"/><stop offset="1" stop-color="#478905"/></linearGradient><linearGradient id="linear-gradient-13" x1="34.05" y1="37.57" x2="19.82" y2="60.46" gradientTransform="translate(108.36) rotate(-180) scale(1 -1)" gradientUnits="userSpaceOnUse"><stop offset="0" stop-color="#478905"/><stop offset=".35" stop-color="#5d9d19"/><stop offset=".73" stop-color="#6fae2a"/><stop offset="1" stop-color="#76b530"/></linearGradient><linearGradient id="linear-gradient-14" x1="27.58" y1="46.04" x2="31.29" y2="44.06" gradientTransform="translate(108.36) rotate(-180) scale(1 -1)" gradientUnits="userSpaceOnUse"><stop offset="0" stop-color="#fff"/><stop offset=".1" stop-color="#f8faf8"/><stop offset=".23" stop-color="#e5ece5"/><stop offset=".4" stop-color="#c6d6c7"/><stop offset=".58" stop-color="#9ab89d"/><stop offset=".78" stop-color="#639166"/><stop offset=".98" stop-color="#206125"/><stop offset="1" stop-color="#1b5e20"/></linearGradient><linearGradient id="linear-gradient-15" x1="21.57" y1="53.97" x2="24.24" y2="79.97" xlink:href="#linear-gradient"/><linearGradient id="linear-gradient-16" x1="37.52" y1="57.9" x2="78.14" y2="102.67" xlink:href="#linear-gradient"/><linearGradient id="linear-gradient-17" x1="22.8" y1="31.63" x2="51.58" y2="25.96" gradientTransform="translate(108.36) rotate(-180) scale(1 -1)" gradientUnits="userSpaceOnUse"><stop offset="0" stop-color="#76b530"/><stop offset="1" stop-color="#478905"/></linearGradient><linearGradient id="linear-gradient-18" x1="17.79" y1="24.69" x2="19.15" y2="24.12" gradientTransform="translate(108.36) rotate(-180) scale(1 -1)" gradientUnits="userSpaceOnUse"><stop offset="0" stop-color="#fff"/><stop offset=".09" stop-color="#f6f8f6"/><stop offset=".24" stop-color="#dee7df"/><stop offset=".43" stop-color="#b7ccb8"/><stop offset=".65" stop-color="#81a684"/><stop offset=".89" stop-color="#3d7641"/><stop offset="1" stop-color="#1b5e20"/></linearGradient><linearGradient id="linear-gradient-19" x1="21.99" y1="14.96" x2="23.46" y2="16.25" gradientTransform="translate(108.36) rotate(-180) scale(1 -1)" gradientUnits="userSpaceOnUse"><stop offset="0" stop-color="#fff"/><stop offset=".16" stop-color="#d4e0d5"/><stop offset=".46" stop-color="#85a988"/><stop offset=".71" stop-color="#4c8050"/><stop offset=".9" stop-color="#28672d"/><stop offset="1" stop-color="#1b5e20"/></linearGradient><linearGradient id="linear-gradient-20" x1="34.12" y1="61.04" x2="37.15" y2="63.7" gradientTransform="translate(108.36) rotate(-180) scale(1 -1)" gradientUnits="userSpaceOnUse"><stop offset="0" stop-color="#fff"/><stop offset=".37" stop-color="#a5c0a7"/><stop offset=".8" stop-color="#427946"/><stop offset="1" stop-color="#1b5e20"/></linearGradient><linearGradient id="linear-gradient-21" x1="22.44" y1="74.01" x2="24.23" y2="75.63" xlink:href="#linear-gradient-7"/><linearGradient id="linear-gradient-22" x1="67.91" y1="55.48" x2="110.61" y2="97.83" xlink:href="#linear-gradient"/><linearGradient id="linear-gradient-23" x1="37.92" y1="109.99" x2="40.29" y2="107.27" xlink:href="#linear-gradient-7"/><linearGradient id="linear-gradient-24" x1="45.16" y1="116.51" x2="46.03" y2="113.25" xlink:href="#linear-gradient-7"/><linearGradient id="linear-gradient-25" x1="17.89" y1="68.61" x2="49.2" y2="86.97" xlink:href="#linear-gradient"/><linearGradient id="linear-gradient-26" x1="29.3" y1="69.95" x2="30.9" y2="71.45" gradientTransform="translate(108.36) rotate(-180) scale(1 -1)" gradientUnits="userSpaceOnUse"><stop offset="0" stop-color="#fff"/><stop offset=".1" stop-color="#d0d0d0"/><stop offset=".23" stop-color="#9a9a9a"/><stop offset=".37" stop-color="#6a6a6a"/><stop offset=".5" stop-color="#444"/><stop offset=".63" stop-color="#262626"/><stop offset=".76" stop-color="#111"/><stop offset=".88" stop-color="#040404"/><stop offset="1" stop-color="#000"/></linearGradient><linearGradient id="linear-gradient-27" x1="49.7" y1="116.53" x2="49.43" y2="113.47" xlink:href="#linear-gradient-7"/><linearGradient id="linear-gradient-28" x1="36.17" y1="28.62" x2="38.37" y2="28.62" gradientTransform="translate(108.36) rotate(-180) scale(1 -1)" gradientUnits="userSpaceOnUse"><stop offset="0" stop-color="#000"/><stop offset=".12" stop-color="#040404"/><stop offset=".24" stop-color="#111"/><stop offset=".37" stop-color="#262626"/><stop offset=".5" stop-color="#444"/><stop offset=".63" stop-color="#6a6a6a"/><stop offset=".77" stop-color="#9a9a9a"/><stop offset=".9" stop-color="#d0d0d0"/><stop offset="1" stop-color="#fff"/></linearGradient><linearGradient id="linear-gradient-29" x1="39.64" y1="124.83" x2="40.48" y2="124.49" gradientTransform="translate(108.36) rotate(-180) scale(1 -1)" gradientUnits="userSpaceOnUse"><stop offset="0" stop-color="#fff"/><stop offset=".1" stop-color="#f9faf9"/><stop offset=".24" stop-color="#e8efe9"/><stop offset=".39" stop-color="#cddcce"/><stop offset=".55" stop-color="#a8c1a9"/><stop offset=".72" stop-color="#779f7a"/><stop offset=".9" stop-color="#3d7641"/><stop offset="1" stop-color="#1b5e20"/></linearGradient><linearGradient id="linear-gradient-30" x1="46.84" y1="128.7" x2="47.88" y2="128.35" gradientTransform="translate(108.36) rotate(-180) scale(1 -1)" gradientUnits="userSpaceOnUse"><stop offset="0" stop-color="#fff"/><stop offset=".09" stop-color="#f7f9f7"/><stop offset=".24" stop-color="#e2eae2"/><stop offset=".41" stop-color="#bfd2c0"/><stop offset=".61" stop-color="#8fb091"/><stop offset=".82" stop-color="#528556"/><stop offset="1" stop-color="#1b5e20"/></linearGradient><linearGradient id="linear-gradient-31" x1="95.97" y1="124.55" x2="96.93" y2="124.02" gradientTransform="translate(108.36) rotate(-180) scale(1 -1)" gradientUnits="userSpaceOnUse"><stop offset="0" stop-color="#fff"/><stop offset=".09" stop-color="#f5f8f6"/><stop offset=".24" stop-color="#dde7de"/><stop offset=".43" stop-color="#b5cbb7"/><stop offset=".66" stop-color="#7ea380"/><stop offset=".9" stop-color="#38723c"/><stop offset="1" stop-color="#1b5e20"/></linearGradient><linearGradient id="linear-gradient-32" x1="106.27" y1="129.08" x2="107.43" y2="128.52" xlink:href="#linear-gradient-31"/></defs><g class="cls-33"><g id="Layer_2"><g id="_ÎÓÈ_1"><g><polygon class="cls-1" points="59.96 125.19 67.55 130.72 59.96 130.72 59.96 125.19"/><path class="cls-21" d="M66.85,101.47c.12,.36-6.89,29.25-6.89,29.25l-4.67-28.53,11.56-.72Z"/><polygon class="cls-19" points="10.61 120.64 18.2 126.18 10.61 126.18 10.61 120.64"/><path class="cls-20" d="M10.55,104.78c-.12,.32,.06,21.4,.06,21.4l11.8-28.12-11.87,6.72Z"/><polygon class="cls-23" points=".19 125.18 7.78 130.72 .19 130.72 .19 125.18"/><path class="cls-22" d="M11.11,104.69L.19,130.72s-.03-13.06,0-20.04l10.92-5.99Z"/><polygon class="cls-16" points="20.61 102.34 10.51 108.78 10.51 105.87 21.84 99.42 20.61 102.34"/><polygon class="cls-17" points="10.65 105.79 9.4 108.78 .18 114.33 .18 111.75 10.65 105.79"/><polygon class="cls-18" points="67.42 121.35 75.01 126.88 67.42 126.88 67.42 121.35"/><path class="cls-30" d="M74.31,97.63c.12,.36-6.89,29.25-6.89,29.25l-4.67-28.53,11.56-.72Z"/><path class="cls-31" d="M93.35,9.32c1.85,.84,15.01,12.27,15.01,12.27l-.92,11.31-11.94,.87s-2.08-22.87-2.15-24.45Z"/><polygon class="cls-29" points="93.35 9.32 95.5 33.78 88.39 26.79 79.55 9.65 93.35 9.32"/><polygon class="cls-28" points="87.51 28.05 96.76 57.24 75.23 66.14 68.88 59.6 87.51 28.05"/><polygon class="cls-4" points="87.51 28.05 88.34 30.15 72.24 63.06 68.88 59.6 87.51 28.05"/><polygon class="cls-25" points="96.76 57.24 93.35 84.84 75.23 66.14 96.76 57.24"/><polygon class="cls-26" points="64.62 55.2 31.99 55.2 29.99 94.79 60.6 114.7 64.62 55.2"/><polygon class="cls-27" points="91.54 21.49 70.27 0 70.27 57.24 91.54 21.49"/><polygon class="cls-9" points="91.54 21.49 88.39 26.79 89.42 27.81 91.54 21.49"/><polygon class="cls-6" points="91.54 21.49 79.82 9.64 81.93 9.59 91.54 21.49"/><polygon class="cls-15" points="70.27 57.24 68.88 59.6 75.23 66.14 78.04 64.98 70.27 57.24"/><polygon class="cls-5" points="93.35 84.84 75.23 66.14 78.04 64.98 93.59 82.89 93.35 84.84"/><polygon class="cls-24" points="0 66.67 15.06 52.99 31.99 55.2 29.99 94.79 0 111.85 0 66.67"/><polygon class="cls-10" points="73.07 103.27 64.8 110.85 65.29 113.82 71.78 108.78 73.07 103.27"/><polygon class="cls-7" points="64.71 110.93 60.6 114.7 60.6 118.02 63.54 115.91 64.71 110.93"/><path class="cls-32" d="M93.35,84.84c-.68,.45-32.75,29.87-32.75,29.87l4.02-59.5,28.73,29.64Z"/><path class="cls-3" d="M93.35,84.84c-.68,.45-1.81,1.6-1.81,1.6l-27.08-28.91,.16-2.32,28.73,29.64Z"/><polygon class="cls-8" points="60.6 118.02 57.48 115.51 56.95 112.33 60.6 114.7 60.6 118.02"/><polygon class="cls-2" points="70.27 0 70.27 57.24 72.05 54.25 72.05 1.8 70.27 0"/><polygon class="cls-11" points="68.56 122.18 69.6 122.94 67.76 126.88 67.42 126.88 68.56 122.18"/><polygon class="cls-12" points="61.1 126.02 59.96 130.72 60.6 130.72 62.29 126.88 61.1 126.02"/><polygon class="cls-14" points="12.39 121.94 10.61 126.18 11.22 126.18 13.64 122.85 12.39 121.94"/><polygon class="cls-13" points="1.97 126.48 3.19 127.37 1.08 130.72 .19 130.72 1.97 126.48"/></g></g></g></g></svg>