<?xml version="1.0" encoding="UTF-8"?><svg xmlns="http://www.w3.org/2000/svg" xmlns:xlink="http://www.w3.org/1999/xlink" viewBox="0 0 158.55 94.41"><defs><style>.cls-1{fill:url(#linear-gradient);}.cls-2{fill:url(#linear-gradient-19);}.cls-2,.cls-3,.cls-4,.cls-5,.cls-6,.cls-7,.cls-8,.cls-9,.cls-10,.cls-11,.cls-12,.cls-13,.cls-14{mix-blend-mode:multiply;}.cls-2,.cls-14{opacity:.5;}.cls-3{fill:url(#linear-gradient-6);}.cls-3,.cls-7,.cls-8,.cls-9,.cls-10,.cls-11,.cls-12,.cls-13{opacity:.3;}.cls-4{fill:url(#linear-gradient-21);}.cls-4,.cls-5,.cls-6{opacity:.4;}.cls-5{fill:url(#linear-gradient-20);}.cls-6{fill:url(#linear-gradient-23);}.cls-7{fill:url(#linear-gradient-12);}.cls-8{fill:url(#linear-gradient-15);}.cls-9{fill:url(#linear-gradient-22);}.cls-10{fill:url(#linear-gradient-18);}.cls-11{fill:url(#linear-gradient-16);}.cls-12{fill:url(#linear-gradient-17);}.cls-13{fill:url(#linear-gradient-24);}.cls-14{fill:url(#linear-gradient-2);}.cls-15{fill:url(#linear-gradient-8);}.cls-16{fill:url(#linear-gradient-9);}.cls-17{fill:url(#linear-gradient-3);}.cls-18{fill:url(#linear-gradient-4);}.cls-19{fill:url(#linear-gradient-7);}.cls-20{fill:url(#linear-gradient-5);}.cls-21{fill:url(#linear-gradient-14);}.cls-22{fill:url(#linear-gradient-13);}.cls-23{fill:url(#linear-gradient-10);}.cls-24{fill:url(#linear-gradient-11);}.cls-25{isolation:isolate;}</style><linearGradient id="linear-gradient" x1="38.02" y1="33.54" x2="120.53" y2="33.54" gradientUnits="userSpaceOnUse"><stop offset="0" stop-color="#a959be"/><stop offset=".45" stop-color="#ce93d8"/><stop offset="1" stop-color="#a959be"/></linearGradient><linearGradient id="linear-gradient-2" x1="27.24" y1="39.29" x2="25.19" y2="39.29" gradientTransform="translate(108.52) rotate(-180) scale(1 -1)" gradientUnits="userSpaceOnUse"><stop offset="0" stop-color="#fff"/><stop offset=".14" stop-color="#ece6f2"/><stop offset=".42" stop-color="#bba7d3"/><stop offset=".82" stop-color="#6d42a2"/><stop offset="1" stop-color="#4a148c"/></linearGradient><linearGradient id="linear-gradient-3" x1="38.02" y1="-.47" x2="38.02" y2="13.08" gradientUnits="userSpaceOnUse"><stop offset="0" stop-color="#b168c4"/><stop offset=".3" stop-color="#b36cc5"/><stop offset=".61" stop-color="#bc78cb"/><stop offset=".93" stop-color="#ca8dd5"/><stop offset="1" stop-color="#ce93d8"/></linearGradient><linearGradient id="linear-gradient-4" x1="120.53" y1="-1.29" x2="120.53" y2="13.21" xlink:href="#linear-gradient-3"/><linearGradient id="linear-gradient-5" x1="79.28" y1="15.46" x2="79.28" y2="-.05" gradientUnits="userSpaceOnUse"><stop offset="0" stop-color="#a959be"/><stop offset="1" stop-color="#ce93d8"/></linearGradient><linearGradient id="linear-gradient-6" x1="79.28" y1="14.12" x2="79.28" y2="10.74" gradientUnits="userSpaceOnUse"><stop offset="0" stop-color="#4a148c"/><stop offset=".18" stop-color="#6d42a2"/><stop offset=".58" stop-color="#bba7d3"/><stop offset=".86" stop-color="#ece6f2"/><stop offset=".99" stop-color="#fff"/></linearGradient><linearGradient id="linear-gradient-7" x1="79.23" y1="10.77" x2="79.9" y2="31.77" gradientUnits="userSpaceOnUse"><stop offset="0" stop-color="#ce93d8"/><stop offset="1" stop-color="#9633b0"/></linearGradient><linearGradient id="linear-gradient-8" x1="36.54" y1="2.39" x2="44.9" y2="57.77" xlink:href="#linear-gradient-5"/><linearGradient id="linear-gradient-9" x1="121.31" y1="7.62" x2="112.97" y2="56.62" xlink:href="#linear-gradient-5"/><linearGradient id="linear-gradient-10" x1="56.16" y1="31.64" x2="76.83" y2="67.81" xlink:href="#linear-gradient-5"/><linearGradient id="linear-gradient-11" x1="73" y1="56.4" x2="59.33" y2="91.16" xlink:href="#linear-gradient-5"/><linearGradient id="linear-gradient-12" x1="65.62" y1="71.23" x2="64.41" y2="69.97" gradientTransform="matrix(1, 0, 0, 1, 0, 0)" xlink:href="#linear-gradient-2"/><linearGradient id="linear-gradient-13" x1="102.62" y1="30.56" x2="79.79" y2="72.06" xlink:href="#linear-gradient-5"/><linearGradient id="linear-gradient-14" x1="85.14" y1="56.11" x2="98.81" y2="90.37" xlink:href="#linear-gradient-5"/><linearGradient id="linear-gradient-15" x1="64.13" y1="10.82" x2="66.37" y2="11.17" gradientTransform="matrix(1, 0, 0, 1, 0, 0)" xlink:href="#linear-gradient-2"/><linearGradient id="linear-gradient-16" x1="94.57" y1="10.74" x2="92.22" y2="11.54" gradientTransform="matrix(1, 0, 0, 1, 0, 0)" xlink:href="#linear-gradient-2"/><linearGradient id="linear-gradient-17" x1="59.28" y1="35.37" x2="55.47" y2="32.29" gradientTransform="matrix(1, 0, 0, 1, 0, 0)" xlink:href="#linear-gradient-2"/><linearGradient id="linear-gradient-18" x1="99.25" y1="35.49" x2="102.56" y2="32.66" gradientTransform="matrix(1, 0, 0, 1, 0, 0)" xlink:href="#linear-gradient-2"/><linearGradient id="linear-gradient-19" x1="77.47" y1="39.29" x2="75.43" y2="39.29" gradientTransform="matrix(1, 0, 0, 1, 0, 0)" xlink:href="#linear-gradient-2"/><linearGradient id="linear-gradient-20" x1="41.86" y1="52.88" x2="43.58" y2="52.27" gradientUnits="userSpaceOnUse"><stop offset="0" stop-color="#fff"/><stop offset=".14" stop-color="#ece6f2"/><stop offset=".42" stop-color="#bba7d3"/><stop offset=".82" stop-color="#6d42a2"/><stop offset="1" stop-color="#4a148c"/></linearGradient><linearGradient id="linear-gradient-21" x1="116.92" y1="53.1" x2="114.87" y2="52.25" xlink:href="#linear-gradient-20"/><linearGradient id="linear-gradient-22" x1="33.5" y1="10.37" x2="33.56" y2="12.46" xlink:href="#linear-gradient-20"/><linearGradient id="linear-gradient-23" x1="125.06" y1="10.33" x2="124.98" y2="12.76" xlink:href="#linear-gradient-20"/><linearGradient id="linear-gradient-24" x1="-8.94" y1="71.31" x2="-10.16" y2="70.05" gradientTransform="translate(83.9) rotate(-180) scale(1 -1)" xlink:href="#linear-gradient-2"/></defs><g class="cls-25"><g id="Layer_2"><g id="_ÎÓÈ_1"><g><polygon class="cls-1" points="38.02 54.88 120.53 54.88 82.5 12.2 76.05 12.2 38.02 54.88"/><polygon class="cls-14" points="82.73 54.88 81.1 54.88 81.1 27.22 82.73 23.71 82.73 54.88"/><g><polygon class="cls-17" points="76.05 12.2 27.56 0 0 12.2 76.05 12.2"/><polygon class="cls-18" points="82.5 12.2 130.99 0 158.55 12.2 82.5 12.2"/></g><polygon class="cls-20" points="94.26 13.96 85.61 1.26 72.94 1.26 64.29 13.96 94.26 13.96"/><polygon class="cls-3" points="66.48 10.74 64.29 13.96 94.26 13.96 92.07 10.74 66.48 10.74"/><polygon class="cls-19" points="70.87 12.2 79.45 31.43 87.68 12.2 70.87 12.2"/><polygon class="cls-15" points="0 12.2 76.05 12.2 38.02 54.88 0 12.2"/><polygon class="cls-16" points="158.55 12.2 82.5 12.2 120.53 54.88 158.55 12.2"/><polygon class="cls-23" points="76 12.2 76 59.79 68.47 94.34 53.13 80.49 42.64 49.65 76 12.2"/><polygon class="cls-24" points="76 59.79 68.47 94.34 53.13 80.49 76 59.79"/><polygon class="cls-7" points="76 59.79 55.23 82.39 53.13 80.49 76 59.79"/><polygon class="cls-22" points="82.46 12.26 82.46 59.86 89.99 94.41 105.33 80.56 115.91 49.66 82.46 12.26"/><polygon class="cls-21" points="82.46 59.86 89.99 94.41 105.33 80.56 82.46 59.86"/><polygon class="cls-8" points="65.08 9.44 63.19 12.2 65.49 12.2 67.03 9.93 65.08 9.44"/><polygon class="cls-11" points="91.52 9.93 93.06 12.2 95.54 12.26 93.73 9.37 91.52 9.93"/><polygon class="cls-12" points="76 12.2 38.02 54.88 44.42 54.88 76.05 13.45 76 12.2"/><polygon class="cls-10" points="82.46 12.26 120.53 54.88 114.12 54.88 82.5 13.11 82.46 12.26"/><polygon class="cls-2" points="76.03 54.88 77.66 54.88 77.66 27.22 76.03 23.71 76.03 54.88"/><polygon class="cls-5" points="44.42 54.88 42.4 54.88 41.42 51.07 42.64 49.7 44.42 54.88"/><polygon class="cls-4" points="114.12 54.88 116.43 54.88 117.47 51.45 115.97 49.76 114.12 54.88"/><polygon class="cls-9" points="0 12.2 65.08 9.44 67.03 9.93 65.49 12.2 0 12.2"/><polygon class="cls-6" points="91.52 9.93 93.73 9.37 158.55 12.2 93.06 12.2 91.52 9.93"/><polygon class="cls-13" points="82.46 59.86 103.23 82.47 105.33 80.56 82.46 59.86"/></g></g></g></g></svg>