<svg xmlns="http://www.w3.org/2000/svg" xmlns:xlink="http://www.w3.org/1999/xlink" viewBox="0 0 44.99 30.72"><defs><style>.cls-1{fill:url(#linear-gradient);}.cls-2{fill:url(#linear-gradient-2);}.cls-3{fill:url(#linear-gradient-3);}.cls-4{fill:url(#linear-gradient-4);}.cls-5{fill:url(#linear-gradient-5);}.cls-6{fill:url(#linear-gradient-6);}</style><linearGradient id="linear-gradient" y1="5.48" x2="4.53" y2="5.48" gradientTransform="matrix(-1, 0, 0, 1, 44.99, 0)" gradientUnits="userSpaceOnUse"><stop offset="0" stop-color="#e779af"/><stop offset="1" stop-color="#c0027e"/></linearGradient><linearGradient id="linear-gradient-2" x1="6" y1="6.68" x2="30.47" y2="6.68" xlink:href="#linear-gradient"/><linearGradient id="linear-gradient-3" x1="-5" y1="20.22" x2="29.78" y2="20.22" xlink:href="#linear-gradient"/><linearGradient id="linear-gradient-4" x1="21.86" y1="17.05" x2="33.05" y2="17.05" xlink:href="#linear-gradient"/><linearGradient id="linear-gradient-5" x1="12.35" y1="29.03" x2="18.91" y2="29.03" xlink:href="#linear-gradient"/><linearGradient id="linear-gradient-6" x1="26.41" y1="24.43" x2="44.99" y2="24.43" xlink:href="#linear-gradient"/></defs><g id="Layer_2" data-name="Layer 2"><g id="Origami"><g id="parrot"><polygon class="cls-1" points="44.99 9.33 40.51 1.64 40.46 9.21 44.99 9.33"/><path class="cls-2" d="M40.51,1.64,32.46,0,20.67,9.77l19.84,3.59Z"/><polygon class="cls-3" points="40.51 13.36 40.51 18.5 26.19 30.66 21.56 18.95 20.67 9.77 40.51 13.36"/><polygon class="cls-4" points="23.13 22.98 19.1 24.32 11.94 17.46 20.67 9.77 21.56 18.95 23.13 22.98"/><polygon class="cls-5" points="30.05 27.34 32.64 30.65 26.08 30.72 30.05 27.34"/><polygon class="cls-6" points="18.58 23.76 0 30.7 12.68 18.17 18.58 23.76"/></g></g></g></svg>