<?xml version="1.0" encoding="UTF-8"?><svg xmlns="http://www.w3.org/2000/svg" xmlns:xlink="http://www.w3.org/1999/xlink" viewBox="0 0 92.51 102.38"><defs><style>.cls-1{fill:url(#linear-gradient);}.cls-2{fill:url(#linear-gradient-4);}.cls-2,.cls-3,.cls-4,.cls-5,.cls-6,.cls-7,.cls-8,.cls-9,.cls-10,.cls-11,.cls-12,.cls-13,.cls-14,.cls-15,.cls-16{opacity:.2;}.cls-2,.cls-3,.cls-4,.cls-5,.cls-6,.cls-7,.cls-17,.cls-18{mix-blend-mode:screen;}.cls-19{fill:#ffa000;}.cls-3{fill:url(#linear-gradient-13);}.cls-4{fill:url(#linear-gradient-12);}.cls-5{fill:url(#linear-gradient-11);}.cls-6{fill:url(#linear-gradient-41);}.cls-7{fill:url(#linear-gradient-42);}.cls-20{fill:url(#linear-gradient-2);}.cls-20,.cls-8,.cls-9,.cls-10,.cls-11,.cls-12,.cls-13,.cls-14,.cls-15,.cls-16,.cls-21,.cls-22,.cls-23,.cls-24{mix-blend-mode:multiply;}.cls-20,.cls-21,.cls-22,.cls-23{opacity:.3;}.cls-8{fill:url(#linear-gradient-5);}.cls-9{fill:url(#linear-gradient-9);}.cls-10{fill:url(#linear-gradient-24);}.cls-11{fill:url(#linear-gradient-26);}.cls-12{fill:url(#linear-gradient-29);}.cls-13{fill:url(#linear-gradient-28);}.cls-14{fill:url(#linear-gradient-34);}.cls-15{fill:url(#linear-gradient-21);}.cls-16{fill:url(#linear-gradient-14);}.cls-21{fill:url(#linear-gradient-19);}.cls-22{fill:url(#linear-gradient-39);}.cls-23{fill:url(#linear-gradient-38);}.cls-17{fill:url(#linear-gradient-32);opacity:.8;}.cls-25{fill:url(#linear-gradient-8);}.cls-26{fill:url(#linear-gradient-3);}.cls-27{fill:url(#linear-gradient-6);}.cls-18{fill:url(#linear-gradient-31);}.cls-18,.cls-24{opacity:.1;}.cls-28{fill:url(#linear-gradient-40);}.cls-29{fill:url(#linear-gradient-18);}.cls-30{fill:url(#linear-gradient-22);}.cls-31{fill:url(#linear-gradient-20);}.cls-32{fill:url(#linear-gradient-23);}.cls-33{fill:url(#linear-gradient-15);}.cls-34{fill:url(#linear-gradient-16);}.cls-35{fill:url(#linear-gradient-17);}.cls-36{fill:url(#linear-gradient-10);}.cls-37{fill:url(#linear-gradient-27);}.cls-38{fill:url(#linear-gradient-35);}.cls-39{fill:url(#linear-gradient-37);}.cls-40{fill:url(#linear-gradient-36);}.cls-41{fill:url(#linear-gradient-25);}.cls-42{fill:url(#linear-gradient-33);}.cls-43{fill:url(#linear-gradient-30);}.cls-44{isolation:isolate;}.cls-24{fill:url(#linear-gradient-7);}</style><linearGradient id="linear-gradient" x1="10.87" y1="63.8" x2="11.08" y2="58.11" gradientTransform="translate(92.51) rotate(-180) scale(1 -1)" gradientUnits="userSpaceOnUse"><stop offset="0" stop-color="#ffd54f"/><stop offset=".07" stop-color="#ffcd44"/><stop offset=".32" stop-color="#ffb926"/><stop offset=".55" stop-color="#ffab11"/><stop offset=".78" stop-color="#ffa204"/><stop offset="1" stop-color="#ffa000"/></linearGradient><linearGradient id="linear-gradient-2" x1="12.43" y1="60.73" x2="13.07" y2="58.76" gradientTransform="translate(92.51) rotate(-180) scale(1 -1)" gradientUnits="userSpaceOnUse"><stop offset="0" stop-color="#fff"/><stop offset=".49" stop-color="#ea9d86"/><stop offset=".84" stop-color="#dd5c34"/><stop offset="1" stop-color="#d84315"/></linearGradient><linearGradient id="linear-gradient-3" x1="18.7" y1="94.54" x2="28.53" y2="85.9" gradientTransform="translate(92.51) rotate(-180) scale(1 -1)" gradientUnits="userSpaceOnUse"><stop offset="0" stop-color="#ffd54f"/><stop offset="1" stop-color="#ffad1d"/></linearGradient><linearGradient id="linear-gradient-4" x1="19.78" y1="86.48" x2="20.43" y2="87.25" gradientTransform="translate(92.51) rotate(-180) scale(1 -1)" gradientUnits="userSpaceOnUse"><stop offset="0" stop-color="#fff"/><stop offset=".09" stop-color="#e4e4e4"/><stop offset=".43" stop-color="#838383"/><stop offset=".7" stop-color="#3c3c3c"/><stop offset=".9" stop-color="#101010"/><stop offset="1" stop-color="#000"/></linearGradient><linearGradient id="linear-gradient-5" x1="24.57" y1="87.76" x2="28.69" y2="86.39" xlink:href="#linear-gradient-2"/><linearGradient id="linear-gradient-6" x1="23.03" y1="80.22" x2="48.38" y2="80.22" xlink:href="#linear-gradient"/><linearGradient id="linear-gradient-7" x1="35.47" y1="81.74" x2="37.54" y2="79.17" xlink:href="#linear-gradient-2"/><linearGradient id="linear-gradient-8" x1="14.4" y1="97.43" x2="31.49" y2="97.43" xlink:href="#linear-gradient-3"/><linearGradient id="linear-gradient-9" x1="25.04" y1="98.6" x2="28.35" y2="97.33" xlink:href="#linear-gradient-2"/><linearGradient id="linear-gradient-10" x1="24.45" y1="91.51" x2="45.91" y2="91.11" gradientTransform="translate(92.51) rotate(-180) scale(1 -1)" gradientUnits="userSpaceOnUse"><stop offset="0" stop-color="#ffd54f"/><stop offset=".29" stop-color="#ffcc43"/><stop offset=".79" stop-color="#ffb425"/><stop offset="1" stop-color="#ffa917"/></linearGradient><linearGradient id="linear-gradient-11" x1="31.56" y1="86.87" x2="32.42" y2="87.97" xlink:href="#linear-gradient-4"/><linearGradient id="linear-gradient-12" x1="19.05" y1="97.88" x2="19.73" y2="98.75" xlink:href="#linear-gradient-4"/><linearGradient id="linear-gradient-13" x1="27.53" y1="79.28" x2="28.3" y2="80.27" xlink:href="#linear-gradient-4"/><linearGradient id="linear-gradient-14" x1="39.93" y1="92.33" x2="44.36" y2="91.41" xlink:href="#linear-gradient-2"/><linearGradient id="linear-gradient-15" x1="38.52" y1="12.6" x2="65.39" y2="11.97" gradientTransform="translate(93.9 8.94) rotate(-164.44) scale(1 -1)" xlink:href="#linear-gradient-3"/><linearGradient id="linear-gradient-16" x1="39.54" y1="4.8" x2="45.77" y2="8.93" gradientTransform="translate(91.42 -3.19) rotate(175.97) scale(1 -1)" xlink:href="#linear-gradient-3"/><linearGradient id="linear-gradient-17" x1="42.93" y1="11.05" x2="69.05" y2="10.45" xlink:href="#linear-gradient-3"/><linearGradient id="linear-gradient-18" x1="41.15" y1="7.05" x2="50.27" y2="10.96" xlink:href="#linear-gradient-3"/><linearGradient id="linear-gradient-19" x1="44.65" y1="11.06" x2="42.28" y2="11.92" gradientTransform="translate(92.51) rotate(-180) scale(1 -1)" gradientUnits="userSpaceOnUse"><stop offset="0" stop-color="#fff"/><stop offset=".16" stop-color="#f9e6e0"/><stop offset=".5" stop-color="#eca691"/><stop offset="1" stop-color="#d84315"/></linearGradient><linearGradient id="linear-gradient-20" x1="12.97" y1="45.89" x2="25.56" y2="62.39" xlink:href="#linear-gradient-3"/><linearGradient id="linear-gradient-21" x1="22.48" y1="52.17" x2="25.89" y2="52.17" xlink:href="#linear-gradient-2"/><linearGradient id="linear-gradient-22" x1="81.99" y1="77.71" x2="93.87" y2="79.02" gradientTransform="translate(92.51) rotate(-180) scale(1 -1)" gradientUnits="userSpaceOnUse"><stop offset="0" stop-color="#ffd54f"/><stop offset=".23" stop-color="#ffd14b"/><stop offset=".45" stop-color="#ffc73f"/><stop offset=".67" stop-color="#ffb62c"/><stop offset=".89" stop-color="#ff9e11"/><stop offset="1" stop-color="#ff8f00"/></linearGradient><linearGradient id="linear-gradient-23" x1="91.51" y1="81.81" x2="79.83" y2="73.96" gradientTransform="translate(92.51) rotate(-180) scale(1 -1)" gradientUnits="userSpaceOnUse"><stop offset="0" stop-color="#ffd54f"/><stop offset="1" stop-color="#ffa000"/></linearGradient><linearGradient id="linear-gradient-24" x1="83.06" y1="75.41" x2="79.99" y2="74.21" gradientTransform="translate(92.51) rotate(-180) scale(1 -1)" gradientUnits="userSpaceOnUse"><stop offset="0" stop-color="#fff"/><stop offset=".13" stop-color="#faebe6"/><stop offset=".41" stop-color="#f0b9a7"/><stop offset=".82" stop-color="#df6944"/><stop offset="1" stop-color="#d84315"/></linearGradient><linearGradient id="linear-gradient-25" x1="0" y1="25.94" x2="24.58" y2="25.94" gradientTransform="translate(92.51) rotate(-180) scale(1 -1)" gradientUnits="userSpaceOnUse"><stop offset="0" stop-color="#ffd54f"/><stop offset="1" stop-color="#ffa60f"/></linearGradient><linearGradient id="linear-gradient-26" x1="21.9" y1="25.8" x2="27.49" y2="26.06" xlink:href="#linear-gradient-2"/><linearGradient id="linear-gradient-27" x1="11.47" y1="64.21" x2="35.66" y2="22.19" gradientTransform="translate(92.51) rotate(-180) scale(1 -1)" gradientUnits="userSpaceOnUse"><stop offset="0" stop-color="#ffd54f"/><stop offset=".26" stop-color="#ffcf48"/><stop offset=".64" stop-color="#ffc035"/><stop offset="1" stop-color="#ffad1d"/></linearGradient><linearGradient id="linear-gradient-28" x1="58.87" y1="68" x2="61.25" y2="67.21" xlink:href="#linear-gradient-2"/><linearGradient id="linear-gradient-29" x1="59.62" y1="68.04" x2="56.18" y2="69.04" xlink:href="#linear-gradient-2"/><linearGradient id="linear-gradient-30" x1="77.19" y1="60.91" x2="57.61" y2="68.13" xlink:href="#linear-gradient-3"/><linearGradient id="linear-gradient-31" x1="62.07" y1="66.63" x2="59.01" y2="67.57" gradientTransform="translate(92.51) rotate(-180) scale(1 -1)" gradientUnits="userSpaceOnUse"><stop offset="0" stop-color="#000"/><stop offset=".24" stop-color="#484848"/><stop offset=".51" stop-color="#959595"/><stop offset=".74" stop-color="#cecece"/><stop offset=".91" stop-color="#f1f1f1"/><stop offset="1" stop-color="#fff"/></linearGradient><linearGradient id="linear-gradient-32" x1="65.4" y1="52.97" x2="67.4" y2="50.97" gradientTransform="translate(92.51) rotate(-180) scale(1 -1)" gradientUnits="userSpaceOnUse"><stop offset="0" stop-color="#000"/><stop offset=".12" stop-color="#040404"/><stop offset=".24" stop-color="#111"/><stop offset=".37" stop-color="#262626"/><stop offset=".5" stop-color="#444"/><stop offset=".63" stop-color="#6a6a6a"/><stop offset=".77" stop-color="#9a9a9a"/><stop offset=".9" stop-color="#d0d0d0"/><stop offset="1" stop-color="#fff"/></linearGradient><linearGradient id="linear-gradient-33" x1="46.61" y1="104.67" x2="53.2" y2="89.5" xlink:href="#linear-gradient-3"/><linearGradient id="linear-gradient-34" x1="49.57" y1="93.12" x2="54.87" y2="88.61" xlink:href="#linear-gradient-24"/><linearGradient id="linear-gradient-35" x1="62.46" y1="67.93" x2="25.83" y2="66.57" gradientTransform="translate(92.51) rotate(-180) scale(1 -1)" gradientUnits="userSpaceOnUse"><stop offset="0" stop-color="#ffd54f"/><stop offset=".63" stop-color="#ffb92c"/><stop offset="1" stop-color="#ffad1d"/></linearGradient><linearGradient id="linear-gradient-36" x1="31.85" y1="22.15" x2="45.82" y2="18.71" xlink:href="#linear-gradient-3"/><linearGradient id="linear-gradient-37" x1="8.68" y1="79.13" x2="13.84" y2="69.09" xlink:href="#linear-gradient"/><linearGradient id="linear-gradient-38" x1="11.11" y1="71.64" x2="11.95" y2="70" xlink:href="#linear-gradient-2"/><linearGradient id="linear-gradient-39" x1="35.8" y1="42.87" x2="37.76" y2="45.54" xlink:href="#linear-gradient-2"/><linearGradient id="linear-gradient-40" x1="42.37" y1="58.13" x2="26.62" y2="51" gradientTransform="translate(92.51) rotate(-180) scale(1 -1)" gradientUnits="userSpaceOnUse"><stop offset="0" stop-color="#ffd54f"/><stop offset="1" stop-color="#ffb32e"/></linearGradient><linearGradient id="linear-gradient-41" x1="27.69" y1="51.23" x2="28.53" y2="52.21" gradientTransform="translate(92.51) rotate(-180) scale(1 -1)" gradientUnits="userSpaceOnUse"><stop offset="0" stop-color="#fff"/><stop offset=".09" stop-color="#f1f1f1"/><stop offset=".26" stop-color="#cecece"/><stop offset=".49" stop-color="#959595"/><stop offset=".76" stop-color="#484848"/><stop offset="1" stop-color="#000"/></linearGradient><linearGradient id="linear-gradient-42" x1="59.78" y1="67.58" x2="56.5" y2="68.53" xlink:href="#linear-gradient-41"/></defs><g class="cls-44"><g id="Layer_2"><g id="_ÎÓÈ_1"><g><g><polygon class="cls-1" points="85.5 58.49 88.2 65.64 75.01 60.47 85.5 58.49"/><polygon class="cls-20" points="85.5 58.49 85.7 59.01 77.53 61.46 73.64 59.97 85.5 58.49"/><polygon class="cls-26" points="60.82 90.63 77.91 90.63 67.62 82.4 60.82 90.63"/><polygon class="cls-2" points="66.86 83.14 76.58 90.65 77.91 90.63 67.62 82.4 66.86 83.14"/><path class="cls-8" d="M66.33,90.64c-4.3,.02-5.5,0-5.5,0l6.8-8.23s.75,.62,1.85,1.52l-3.14,6.72Z"/><polygon class="cls-27" points="44.13 91.14 51.89 69.31 69.48 82.76 61.55 91.14 44.13 91.14"/><polygon class="cls-24" points="62.17 77.16 52.06 86.52 49.43 82.66 60.16 75.63 62.17 77.16"/><path class="cls-25" d="M61.02,101.55s17.24-.15,17.08,0c-.16,.16-10.29-8.23-10.29-8.23l-6.8,8.23Z"/><path class="cls-9" d="M65.39,101.55h-4.37s6.8-8.23,6.8-8.23c0,0-.06-.04,1.94,1.6l-4.37,6.63Z"/><polygon class="cls-36" points="44.33 102.05 52.09 80.22 69.67 93.67 61.75 102.05 44.33 102.05"/><polygon class="cls-5" points="52.11 82.02 52.09 80.22 69.67 93.67 68.8 94.6 52.11 82.02"/><polygon class="cls-4" points="68.11 95.33 69 94.39 77.98 101.49 76.52 101.49 68.11 95.33"/><polygon class="cls-3" points="59.59 76.91 60.88 76.21 69.48 82.78 68.6 83.7 59.59 76.91"/><polygon class="cls-16" points="55.43 82.79 50.2 102.04 45.53 102.04 53.54 81.35 55.43 82.79"/><g><polygon class="cls-33" points="44.35 0 28.96 3.99 51.88 18.27 44.35 0"/><polygon class="cls-34" points="56.19 6.81 49.67 16.91 44.35 0 56.19 6.81"/></g><g><polygon class="cls-35" points="38.77 3.6 24.89 12.6 50.11 18.27 38.77 3.6"/><polygon class="cls-29" points="50.52 5.52 47.64 17.48 38.77 3.6 50.52 5.52"/></g><polygon class="cls-21" points="50.52 5.52 50.11 5.52 46.14 15.14 47.64 17.48 50.52 5.52"/><path class="cls-31" d="M66.7,42.3c9.65,8.11,18.67,15.76,18.81,16.19l-18.81,3.55v-19.74Z"/><path class="cls-15" d="M69.95,45.03v16.4s-3.25,.61-3.25,.61v-19.74c1.1,.92,2.18,1.83,3.25,2.73Z"/><polygon class="cls-30" points="0 74.37 1.62 83.2 11.25 80.98 0 74.37"/><polygon class="cls-32" points="9.24 67.66 0 74.37 4.31 85.62 15.34 80.78 9.24 67.66"/><polygon class="cls-10" points="9.24 67.66 7.32 69.05 11.85 82.31 15.34 80.78 9.24 67.66"/><polygon class="cls-41" points="69 8.28 92.51 26.48 67.92 43.61 69 8.28"/><polygon class="cls-11" points="69.67 8.8 71.49 41.12 68.06 43.51 69 8.28 69.67 8.8"/><polygon class="cls-37" points="67.43 68.1 69 8.28 43.39 33.83 67.43 68.1"/><polygon class="cls-19" points="43.39 33.83 63.75 73.18 22.79 102.38 8.22 68.13 43.39 33.83"/><polygon class="cls-13" points="43.39 33.83 22.52 101.73 21.1 98.41 43.39 33.83"/><polygon class="cls-12" points="43.39 33.83 29.73 97.43 22.79 102.38 43.39 33.83"/><polygon class="cls-43" points="43.39 33.83 8.22 68.13 22.15 100.87 43.39 33.83"/><polygon class="cls-18" points="43.39 33.83 40.27 36.87 20.11 96.07 22.15 100.87 43.39 33.83"/><polygon class="cls-17" points="43.39 33.83 8.22 68.13 9.24 70.52 42.29 37.61 43.39 33.83"/><polygon class="cls-42" points="22.79 102.38 45.85 102.38 56.55 78.31 22.79 102.38"/><polygon class="cls-14" points="22.79 102.38 33.08 102.38 55.8 80.22 56.55 78.31 22.79 102.38"/><polygon class="cls-38" points="43.39 33.83 23.63 101.78 63.75 73.18 43.39 33.83"/><path class="cls-40" d="M43.39,33.83c.52-.52,7.13-28.3,7.13-28.3l18.47,2.75-25.61,25.55Z"/><polygon class="cls-39" points="85.5 69.49 88.2 76.64 72.74 70.47 85.5 69.49"/><polygon class="cls-23" points="85.5 69.49 78.83 72.9 76.32 71.9 85.5 69.49"/><polygon class="cls-22" points="67.87 51.13 43.69 33 43.39 33.83 67.7 55.51 67.87 51.13"/><path class="cls-28" d="M85.5,69.49c-.31-.92-42.11-35.66-42.11-35.66l13.16,44.48,28.96-8.82Z"/><path class="cls-6" d="M85.5,69.49c-.31-.92-42.11-35.66-42.11-35.66l.3,1.01,40.86,34.94,.95-.29Z"/></g><polygon class="cls-7" points="44.33 37.01 43.39 33.83 23.63 101.78 27.44 98.97 44.33 37.01"/></g></g></g></g></svg>