<svg xmlns="http://www.w3.org/2000/svg" xmlns:xlink="http://www.w3.org/1999/xlink" viewBox="0 0 56.59 52.94"><defs><style>.cls-1{fill:url(#linear-gradient);}.cls-2{fill:url(#linear-gradient-2);}.cls-3{fill:url(#linear-gradient-3);}.cls-4{fill:url(#linear-gradient-4);}.cls-5{fill:url(#linear-gradient-5);}.cls-6{fill:url(#linear-gradient-6);}.cls-7{fill:url(#linear-gradient-7);}.cls-8{fill:url(#linear-gradient-8);}.cls-9{fill:url(#linear-gradient-9);}</style><linearGradient id="linear-gradient" x1="2.51" y1="12.28" x2="7.12" y2="12.28" gradientTransform="matrix(-1, 0, 0, 1, 56.59, 0)" gradientUnits="userSpaceOnUse"><stop offset="0" stop-color="#af6f4f"/><stop offset="1" stop-color="#6f4836"/></linearGradient><linearGradient id="linear-gradient-2" x1="4.59" y1="5.99" x2="9.09" y2="5.99" xlink:href="#linear-gradient"/><linearGradient id="linear-gradient-3" x1="1.61" y1="12.32" x2="23.54" y2="12.32" xlink:href="#linear-gradient"/><linearGradient id="linear-gradient-4" x1="4.21" y1="26.55" x2="30.66" y2="26.55" xlink:href="#linear-gradient"/><linearGradient id="linear-gradient-5" x1="11.3" y1="43.12" x2="22.52" y2="43.12" xlink:href="#linear-gradient"/><linearGradient id="linear-gradient-6" x1="22.35" y1="32.54" x2="50.39" y2="32.54" xlink:href="#linear-gradient"/><linearGradient id="linear-gradient-7" x1="36.93" y1="48.29" x2="57.98" y2="48.29" xlink:href="#linear-gradient"/><linearGradient id="linear-gradient-8" x1="47.92" y1="40.02" x2="56.59" y2="40.02" xlink:href="#linear-gradient"/><linearGradient id="linear-gradient-9" x1="0" y1="3.87" x2="9.09" y2="3.87" xlink:href="#linear-gradient"/></defs><g id="Layer_2" data-name="Layer 2"><g id="Origami"><g id="sea_lion" data-name="sea lion"><polygon class="cls-1" points="53.19 16.82 53.19 10.03 52 7.73 50.05 9.18 53.19 16.82"/><polygon class="cls-2" points="47.84 10.88 52 7.73 47.5 1.1 47.84 10.88"/><polygon class="cls-3" points="47.5 1.1 48.77 23.54 33.05 15.55 45.8 1.44 47.5 1.1 54.13 5.69 54.98 14.19 52 7.73 54.13 5.69 47.5 1.1"/><polygon class="cls-4" points="48.77 23.54 33.05 15.55 27.87 20.56 34.24 37.56 42.82 36.96 48.77 23.54"/><polygon class="cls-5" points="42.82 36.96 42.91 44.01 45.29 49.11 41.8 49.28 34.07 42.74 34.24 37.56 42.82 36.96"/><polygon class="cls-6" points="27.87 20.56 34.24 37.56 34.07 42.74 6.2 44.52 10.37 32.46 27.87 20.56"/><polygon class="cls-7" points="19.66 43.64 14.95 49.28 6.12 52.94 6.2 44.52 19.66 43.64"/><polygon class="cls-8" points="8.67 37.3 4.59 35.52 0 35.86 6.2 44.52 8.67 37.3"/><path class="cls-9" d="M52,7.73,56.59,3.4s-1.7-3.4-2-3.4-7,1.1-7,1.1Z"/></g></g></g></svg>