<svg xmlns="http://www.w3.org/2000/svg" xmlns:xlink="http://www.w3.org/1999/xlink" viewBox="0 0 28.85 58.26"><defs><style>.cls-1{fill:url(#linear-gradient);}.cls-2{fill:url(#linear-gradient-2);}.cls-3{fill:url(#linear-gradient-3);}.cls-4{fill:url(#linear-gradient-4);}.cls-5{fill:url(#linear-gradient-5);}.cls-6{fill:url(#linear-gradient-6);}.cls-7{fill:url(#linear-gradient-7);}.cls-8{fill:url(#linear-gradient-8);}.cls-9{fill:url(#linear-gradient-9);}.cls-10{fill:url(#linear-gradient-10);}.cls-11{fill:url(#linear-gradient-11);}.cls-12{fill:url(#linear-gradient-12);}.cls-13{fill:url(#linear-gradient-13);}.cls-14{fill:url(#linear-gradient-14);}.cls-15{fill:url(#linear-gradient-15);}</style><linearGradient id="linear-gradient" y1="48.94" x2="2.62" y2="48.94" gradientTransform="matrix(-1, 0, 0, 1, 28.85, 0)" gradientUnits="userSpaceOnUse"><stop offset="0" stop-color="#b9d432"/><stop offset="0.5" stop-color="#77b343"/><stop offset="1" stop-color="#567133"/></linearGradient><linearGradient id="linear-gradient-2" x1="2.02" y1="13.51" x2="18.59" y2="-1.82" xlink:href="#linear-gradient"/><linearGradient id="linear-gradient-3" x1="0" y1="52.46" x2="3.04" y2="52.46" xlink:href="#linear-gradient"/><linearGradient id="linear-gradient-4" x1="1.52" y1="54.74" x2="9.66" y2="54.74" xlink:href="#linear-gradient"/><linearGradient id="linear-gradient-5" x1="1.52" y1="56.32" x2="9.66" y2="56.32" xlink:href="#linear-gradient"/><linearGradient id="linear-gradient-6" x1="8.97" y1="55.15" x2="18.08" y2="55.15" xlink:href="#linear-gradient"/><linearGradient id="linear-gradient-7" x1="7.73" y1="53.15" x2="16.57" y2="53.15" xlink:href="#linear-gradient"/><linearGradient id="linear-gradient-8" x1="16.57" y1="47.07" x2="23.74" y2="47.07" xlink:href="#linear-gradient"/><linearGradient id="linear-gradient-9" x1="13.11" y1="46.25" x2="21.67" y2="46.25" xlink:href="#linear-gradient"/><linearGradient id="linear-gradient-10" x1="6.71" y1="39.49" x2="31.56" y2="20.03" xlink:href="#linear-gradient"/><linearGradient id="linear-gradient-11" x1="18.64" y1="30.23" x2="23.74" y2="30.23" xlink:href="#linear-gradient"/><linearGradient id="linear-gradient-12" x1="43.49" y1="8.18" x2="21.12" y2="30.13" xlink:href="#linear-gradient"/><linearGradient id="linear-gradient-13" x1="9.11" y1="19.36" x2="23.74" y2="19.36" xlink:href="#linear-gradient"/><linearGradient id="linear-gradient-14" x1="14.49" y1="13.11" x2="24.85" y2="13.11" xlink:href="#linear-gradient"/><linearGradient id="linear-gradient-15" x1="24.33" y1="-5.69" x2="15.63" y2="8.81" xlink:href="#linear-gradient"/></defs><g id="Layer_2" data-name="Layer 2"><g id="Origami"><g id="seahorse"><polygon class="cls-1" points="26.23 47.9 27.47 49.84 28.85 49.97 27.89 48.45 26.23 47.9"/><polygon class="cls-2" points="25.82 7.32 18.5 4.97 16.7 9.39 18.36 9.53 25.95 8.84 25.82 7.32"/><polygon class="cls-3" points="27.47 49.84 28.85 49.97 27.33 55.08 25.82 52.6 27.47 49.84"/><polygon class="cls-4" points="25.82 52.6 20.16 53.56 19.19 56.88 27.33 54.39 25.82 52.6"/><polygon class="cls-5" points="27.33 54.39 27.33 55.08 19.19 58.26 19.19 56.88 27.33 54.39"/><polygon class="cls-6" points="19.88 56.74 12.29 52.05 10.77 52.87 19.19 58.26 19.88 56.74"/><polygon class="cls-7" points="21.12 54.53 14.91 49.56 12.29 52.05 19.88 56.74 21.12 54.53"/><polygon class="cls-8" points="7.46 41.28 12.29 52.05 10.77 52.87 5.11 41.41 7.46 41.28"/><polygon class="cls-9" points="14.36 40.45 15.74 50.59 12.29 52.05 7.18 40.72 14.36 40.45"/><polygon class="cls-10" points="19.74 23.67 10.22 20.16 7.59 22.64 7.32 41.83 13.94 43.48 19.74 23.67"/><polygon class="cls-11" points="10.22 20.16 5.11 18.64 5.11 41.41 7.32 41.83 7.59 22.64 10.22 20.16"/><polygon class="cls-12" points="7.59 22.64 1.93 20.98 0 27.33 4.42 34.24 7.46 32.72 7.59 22.64"/><polygon class="cls-13" points="5.11 18.64 14.36 15.05 19.74 23.67 5.11 18.64"/><polygon class="cls-14" points="4 8.97 6.07 18.64 14.36 15.05 13.8 7.59 4 8.97"/><polygon class="cls-15" points="19.33 3.45 12.84 0 4 8.97 18.36 10.08 19.33 3.45"/></g></g></g></svg>