<?xml version="1.0" encoding="UTF-8"?><svg xmlns="http://www.w3.org/2000/svg" xmlns:xlink="http://www.w3.org/1999/xlink" viewBox="0 0 96.89 116.09"><defs><style>.cls-1{fill:url(#linear-gradient);}.cls-2{fill:url(#linear-gradient-7);}.cls-2,.cls-3,.cls-4,.cls-5,.cls-6,.cls-7,.cls-8,.cls-9,.cls-10,.cls-11,.cls-12,.cls-13{mix-blend-mode:multiply;}.cls-2,.cls-3,.cls-4,.cls-7,.cls-8,.cls-9,.cls-10,.cls-11,.cls-12{opacity:.3;}.cls-3{fill:url(#linear-gradient-5);}.cls-4{fill:url(#linear-gradient-2);}.cls-5{fill:url(#linear-gradient-26);}.cls-5,.cls-6,.cls-13{opacity:.2;}.cls-6{fill:url(#linear-gradient-14);}.cls-7{fill:url(#linear-gradient-18);}.cls-8{fill:url(#linear-gradient-19);}.cls-9{fill:url(#linear-gradient-27);}.cls-10{fill:url(#linear-gradient-28);}.cls-11{fill:url(#linear-gradient-29);}.cls-12{fill:url(#linear-gradient-25);}.cls-14{fill:url(#linear-gradient-8);}.cls-15{fill:url(#linear-gradient-9);}.cls-16{fill:url(#linear-gradient-3);}.cls-17{fill:url(#linear-gradient-4);}.cls-18{fill:url(#linear-gradient-6);}.cls-19{fill:url(#linear-gradient-22);}.cls-20{fill:url(#linear-gradient-20);}.cls-21{fill:url(#linear-gradient-21);}.cls-22{fill:url(#linear-gradient-23);}.cls-23{fill:url(#linear-gradient-15);}.cls-24{fill:url(#linear-gradient-16);}.cls-25{fill:url(#linear-gradient-17);}.cls-26{fill:url(#linear-gradient-13);}.cls-27{fill:url(#linear-gradient-12);}.cls-28{fill:url(#linear-gradient-10);}.cls-29{fill:url(#linear-gradient-11);}.cls-30{fill:url(#linear-gradient-24);}.cls-31{isolation:isolate;}</style><linearGradient id="linear-gradient" x1="10.8" y1="102.52" x2="14.28" y2="96.43" gradientTransform="translate(107.36 8.44) rotate(-171.01) scale(1 -1)" gradientUnits="userSpaceOnUse"><stop offset="0" stop-color="#75c535"/><stop offset="1" stop-color="#4c9815"/></linearGradient><linearGradient id="linear-gradient-2" x1="11.6" y1="96.74" x2="11.4" y2="97.2" gradientTransform="translate(107.36 8.44) rotate(-171.01) scale(1 -1)" gradientUnits="userSpaceOnUse"><stop offset="0" stop-color="#297134"/><stop offset="1" stop-color="#fafafa"/></linearGradient><linearGradient id="linear-gradient-3" x1="1.99" y1="55.04" x2="9.92" y2="57.75" xlink:href="#linear-gradient"/><linearGradient id="linear-gradient-4" x1="19.47" y1="53.77" x2="21.03" y2="64.41" xlink:href="#linear-gradient"/><linearGradient id="linear-gradient-5" x1="17.33" y1="63.36" x2="17.84" y2="60.75" xlink:href="#linear-gradient-2"/><linearGradient id="linear-gradient-6" x1="34.38" y1="6.54" x2="36.61" y2="29.78" xlink:href="#linear-gradient"/><linearGradient id="linear-gradient-7" x1="39.04" y1="23.98" x2="37.39" y2="22.09" xlink:href="#linear-gradient-2"/><linearGradient id="linear-gradient-8" x1="68.77" y1="35.48" x2="85.57" y2="2.16" gradientTransform="translate(107.36 8.44) rotate(-171.01) scale(1 -1)" gradientUnits="userSpaceOnUse"><stop offset="0" stop-color="#4c9815"/><stop offset="1" stop-color="#75c535"/></linearGradient><linearGradient id="linear-gradient-9" x1="72.23" y1="28.16" x2="75.04" y2="25.95" xlink:href="#linear-gradient-2"/><linearGradient id="linear-gradient-10" x1="72.26" y1="73.84" x2="83.71" y2="36.63" xlink:href="#linear-gradient-8"/><linearGradient id="linear-gradient-11" x1="101.11" y1="70.4" x2="60.97" y2="84.55" xlink:href="#linear-gradient-8"/><linearGradient id="linear-gradient-12" x1="70.48" y1="84.74" x2="52.73" y2="102.49" xlink:href="#linear-gradient-8"/><linearGradient id="linear-gradient-13" x1="6.2" y1="93.78" x2="21.98" y2="93.78" xlink:href="#linear-gradient"/><linearGradient id="linear-gradient-14" x1="22.38" y1="93.76" x2="20.15" y2="93.86" xlink:href="#linear-gradient-2"/><linearGradient id="linear-gradient-15" x1="-.64" y1="63.37" x2="6.15" y2="64.97" xlink:href="#linear-gradient"/><linearGradient id="linear-gradient-16" x1="7.28" y1="60.04" x2="22.96" y2="71.43" xlink:href="#linear-gradient"/><linearGradient id="linear-gradient-17" x1="29.11" y1="84.94" x2="18.94" y2="98.79" xlink:href="#linear-gradient-8"/><linearGradient id="linear-gradient-18" x1="25.95" y1="94.92" x2="28.21" y2="96.69" gradientTransform="translate(107.36 8.44) rotate(-171.01) scale(1 -1)" gradientUnits="userSpaceOnUse"><stop offset="0" stop-color="#fafafa"/><stop offset="1" stop-color="#297134"/></linearGradient><linearGradient id="linear-gradient-19" x1="26.88" y1="87.93" x2="25.9" y2="90.05" xlink:href="#linear-gradient-2"/><linearGradient id="linear-gradient-20" x1="30.67" y1="85.36" x2="35.94" y2="120.87" xlink:href="#linear-gradient"/><linearGradient id="linear-gradient-21" x1="40.47" y1="12.14" x2="45.44" y2="32.25" xlink:href="#linear-gradient"/><linearGradient id="linear-gradient-22" x1="14.54" y1="24.43" x2="29.54" y2="46.62" gradientTransform="translate(107.36 8.44) rotate(-171.01) scale(1 -1)" gradientUnits="userSpaceOnUse"><stop offset="0" stop-color="#75c535"/><stop offset="1" stop-color="#529d1d"/></linearGradient><linearGradient id="linear-gradient-23" x1="22.7" y1="40.56" x2="36.1" y2="47.45" xlink:href="#linear-gradient"/><linearGradient id="linear-gradient-24" x1="51.82" y1="72.47" x2="14.42" y2="77.82" xlink:href="#linear-gradient-8"/><linearGradient id="linear-gradient-25" x1="36.61" y1="28.98" x2="37.64" y2="27.65" xlink:href="#linear-gradient-2"/><linearGradient id="linear-gradient-26" x1="29.82" y1="61.04" x2="27" y2="58.66" xlink:href="#linear-gradient-2"/><linearGradient id="linear-gradient-27" x1="45.33" y1="96.53" x2="44.72" y2="98.1" xlink:href="#linear-gradient-2"/><linearGradient id="linear-gradient-28" x1="68.67" y1="86.54" x2="67.67" y2="87.85" xlink:href="#linear-gradient-2"/><linearGradient id="linear-gradient-29" x1="77.54" y1="67.18" x2="77.63" y2="69.43" xlink:href="#linear-gradient-18"/></defs><g class="cls-31"><g id="Layer_2"><g id="_ÎÓÈ_1"><g><polygon class="cls-1" points="86.44 100.97 85.7 105.68 70.21 102.68 86.44 100.97"/><polygon class="cls-4" points="86.44 100.97 75.19 103.65 76.41 103.88 86.4 101.26 86.44 100.97"/><polygon class="cls-16" points="95.79 62.57 95.85 65.11 89.13 67.71 88.96 59.98 95.79 62.57"/><polygon class="cls-17" points="66.96 58.71 89.5 59.77 89.55 67.71 72.25 71.58 66.96 58.71"/><polygon class="cls-3" points="89.58 67.53 89.54 65.41 70.94 65.93 71.8 68.01 89.58 67.53"/><polygon class="cls-18" points="76.25 26.61 64.32 8.72 62.64 33.08 76.25 26.61"/><polygon class="cls-2" points="63.54 20.05 70.38 28.81 68.77 29.62 63.41 21.92 63.54 20.05"/><polygon class="cls-14" points="23.1 35.3 18.5 0 39.47 13.94 23.1 35.3"/><g class="cls-13"><polygon class="cls-15" points="22.27 28.62 39.47 13.94 23.1 35.3 22.27 28.62"/></g><polygon class="cls-28" points="0 60.14 39.47 13.94 40.1 67.75 0 60.14"/><polygon class="cls-29" points="13.1 89.78 0 60.14 40.92 67.6 39.87 76.29 13.1 89.78"/><polygon class="cls-27" points="33.13 103.87 13.1 89.78 38.99 76.73 33.13 103.87"/><polygon class="cls-26" points="72.49 90.41 86.44 100.97 69.84 104.92 72.49 90.41"/><polygon class="cls-6" points="71.63 104.49 69.84 104.92 72.49 90.41 73.72 91.33 71.63 104.49"/><polygon class="cls-23" points="96.7 68.42 96.89 71.34 90.73 75.49 90.34 67.9 96.7 68.42"/><polygon class="cls-24" points="70.75 67.69 90.67 67.47 90.95 75.65 77.21 81.16 70.75 67.69"/><polygon class="cls-25" points="61.59 92.66 69.84 104.92 72.61 89.77 61.59 92.66"/><polygon class="cls-7" points="61.59 92.66 69.84 104.92 69.95 104.21 64.28 92.86 61.59 92.66"/><polygon class="cls-8" points="61.59 92.66 62.86 94.55 72.16 92.22 72.61 89.77 61.59 92.66"/><polygon class="cls-20" points="32.72 91.34 33.13 103.87 45.32 116.09 84.89 115.85 85.89 109.55 69.84 104.92 56.78 85.51 32.72 91.34"/><polygon class="cls-21" points="69.06 30.03 56.25 11.64 56.4 33.75 57 35.77 69.06 30.03"/><polygon class="cls-19" points="96.48 50.59 91.23 57.09 57 35.77 76.65 25.51 96.48 50.59"/><polygon class="cls-22" points="91.23 57.09 68.9 60.18 57 35.77 91.23 57.09"/><polygon class="cls-30" points="61.49 44.89 78.95 80.83 75.5 90.28 32.27 100.21 32.72 91.34 61.49 44.89"/><path class="cls-12" d="M75.81,25.95l-18.8,9.82-.25-.84s18.29-10.13,18.38-9.99,.67,1.01,.67,1.01Z"/><polygon class="cls-5" points="78.79 80.53 61.49 44.89 81.6 79.4 78.79 80.53"/><polygon class="cls-9" points="62.07 93.37 33.06 100.03 33.07 101.93 62.47 93.96 62.07 93.37"/><polygon class="cls-10" points="38.99 76.73 38.84 77.45 15.58 91.52 13.1 89.78 38.99 76.73"/><polygon class="cls-11" points="40.1 67.45 0 60.14 .98 59 40.09 66.77 40.1 67.45"/></g></g></g></g></svg>