<svg xmlns="http://www.w3.org/2000/svg" xmlns:xlink="http://www.w3.org/1999/xlink" viewBox="0 0 62.76 46.12"><defs><style>.cls-1{fill:url(#linear-gradient);}.cls-2{fill:url(#linear-gradient-2);}.cls-3{fill:url(#linear-gradient-3);}.cls-4{fill:url(#linear-gradient-4);}.cls-5{fill:url(#linear-gradient-5);}.cls-6{fill:url(#linear-gradient-6);}.cls-7{fill:url(#linear-gradient-7);}.cls-8{fill:url(#linear-gradient-8);}.cls-9{fill:url(#linear-gradient-9);}</style><linearGradient id="linear-gradient" x1="46.21" y1="16.39" x2="4.54" y2="47.64" gradientTransform="matrix(-1, 0, 0, 1, 62.76, 0)" gradientUnits="userSpaceOnUse"><stop offset="0.01" stop-color="#b9bbbd"/><stop offset="0.99" stop-color="#eaebec"/></linearGradient><linearGradient id="linear-gradient-2" x1="9.8" y1="33.88" x2="62.76" y2="33.88" xlink:href="#linear-gradient"/><linearGradient id="linear-gradient-3" x1="26" y1="36.82" x2="22.53" y2="47.53" xlink:href="#linear-gradient"/><linearGradient id="linear-gradient-4" x1="44.33" y1="42.75" x2="24.95" y2="33.78" xlink:href="#linear-gradient"/><linearGradient id="linear-gradient-5" x1="3.37" y1="20.82" x2="18.27" y2="20.82" xlink:href="#linear-gradient"/><linearGradient id="linear-gradient-6" x1="10.42" y1="5.23" x2="-4.92" y2="8.42" xlink:href="#linear-gradient"/><linearGradient id="linear-gradient-7" x1="13.47" y1="5.2" x2="17.25" y2="5.2" xlink:href="#linear-gradient"/><linearGradient id="linear-gradient-8" x1="0" y1="4.75" x2="15.1" y2="4.75" xlink:href="#linear-gradient"/><linearGradient id="linear-gradient-9" x1="8.78" y1="18.31" x2="9.88" y2="29.3" xlink:href="#linear-gradient"/></defs><g id="Layer_2" data-name="Layer 2"><g id="Origami"><g id="swan"><polygon class="cls-1" points="59.39 37.86 39.29 21.02 10.51 24.29 52.96 44.39 59.39 37.86"/><polygon class="cls-2" points="52.35 45.51 0.51 26.23 0 25 36.33 22.25 52.96 44.39 52.35 45.51"/><polygon class="cls-3" points="52.35 45.51 51.63 46.12 26.84 45.61 38.67 40.2 52.35 45.51"/><polygon class="cls-4" points="22.02 34.26 26.83 45.64 38.67 40.2 22.02 34.26"/><path class="cls-5" d="M59.39,37.86,45.51,3.78s-1.12,6.12-1,6.53,3.77,18.26,3.77,18.26Z"/><polygon class="cls-6" points="62.66 10.1 49.29 6.63 47.65 1.53 62.76 9.49 62.66 10.1"/><polygon class="cls-7" points="47.65 1.53 45.51 3.78 47.55 8.88 49.29 6.63 47.65 1.53"/><polygon class="cls-8" points="47.65 1.53 52.25 0 62.76 9.49 47.65 1.53"/><polygon class="cls-9" points="48.59 7.5 59.39 37.86 47.55 8.88 48.59 7.5"/></g></g></g></svg>