<svg xmlns="http://www.w3.org/2000/svg" xmlns:xlink="http://www.w3.org/1999/xlink" viewBox="0 0 38.72 48.63"><defs><style>.cls-1{fill:url(#linear-gradient);}.cls-2{fill:url(#linear-gradient-2);}.cls-3{fill:url(#linear-gradient-3);}.cls-4{fill:url(#linear-gradient-4);}.cls-5{fill:url(#linear-gradient-5);}.cls-6{fill:url(#linear-gradient-6);}.cls-7{fill:url(#linear-gradient-7);}.cls-8{fill:url(#linear-gradient-8);}</style><linearGradient id="linear-gradient" x1="-5.07" y1="8.58" x2="32.25" y2="22.76" gradientTransform="matrix(-1, 0, 0, 1, 38.72, 0)" gradientUnits="userSpaceOnUse"><stop offset="0" stop-color="#b0d253"/><stop offset="1" stop-color="#609941"/></linearGradient><linearGradient id="linear-gradient-2" x1="-5.14" y1="35.44" x2="55.04" y2="26.76" xlink:href="#linear-gradient"/><linearGradient id="linear-gradient-3" x1="42.74" y1="44.35" x2="30.87" y2="32.2" xlink:href="#linear-gradient"/><linearGradient id="linear-gradient-4" x1="30.6" y1="12.27" x2="35.36" y2="12.27" xlink:href="#linear-gradient"/><linearGradient id="linear-gradient-5" x1="37.2" y1="24.45" x2="38.72" y2="24.45" xlink:href="#linear-gradient"/><linearGradient id="linear-gradient-6" x1="1.66" y1="8.66" x2="12.56" y2="8.66" xlink:href="#linear-gradient"/><linearGradient id="linear-gradient-7" x1="1.42" y1="39.97" x2="12.32" y2="39.97" xlink:href="#linear-gradient"/><linearGradient id="linear-gradient-8" x1="-4.45" y1="19.44" x2="9.15" y2="28.4" xlink:href="#linear-gradient"/></defs><g id="Layer_2" data-name="Layer 2"><g id="Origami"><g id="turtle"><polygon class="cls-1" points="35.4 24.5 35.4 17.9 25.65 8.05 11.69 8.05 1.35 18.38 1.35 24.61 35.4 24.5"/><polygon class="cls-2" points="35.4 31.32 35.4 24.5 1.35 24.5 1.35 30.34 11.69 40.52 25.65 40.63 35.4 31.32"/><polygon class="cls-3" points="4.22 40.74 3.25 32.08 7.9 36.73 4.22 40.74"/><polygon class="cls-4" points="8.12 11.84 4.22 8.05 3.36 16.49 8.12 11.84"/><polygon class="cls-5" points="1.52 22.98 0 24.39 1.52 25.91 1.52 22.98"/><polygon class="cls-6" points="34.89 17.32 37.06 14.94 28.83 0 26.16 0.76 27.02 9.45 34.89 17.32"/><polygon class="cls-7" points="35.13 31.31 37.29 33.69 29.07 48.63 26.4 47.87 27.26 39.18 35.13 31.31"/><polygon class="cls-8" points="35.43 21.32 38.72 24.64 35.43 27.75 35.43 21.32"/></g></g></g></svg>