<svg xmlns="http://www.w3.org/2000/svg" xmlns:xlink="http://www.w3.org/1999/xlink" viewBox="0 0 53.55 33.03"><defs><style>.cls-1{fill:url(#linear-gradient);}.cls-2{fill:url(#linear-gradient-2);}.cls-3{fill:url(#linear-gradient-3);}.cls-4{fill:url(#linear-gradient-4);}.cls-5{fill:url(#linear-gradient-5);}.cls-6{fill:url(#linear-gradient-6);}.cls-7{fill:url(#linear-gradient-7);}.cls-8{fill:url(#linear-gradient-8);}.cls-9{fill:url(#linear-gradient-9);}.cls-10{fill:url(#linear-gradient-10);}.cls-11{fill:url(#linear-gradient-11);}.cls-12{fill:url(#linear-gradient-12);}</style><linearGradient id="linear-gradient" x1="642.69" y1="16.48" x2="651.97" y2="16.48" gradientTransform="translate(-636.92)" gradientUnits="userSpaceOnUse"><stop offset="0" stop-color="#9b6041"/><stop offset="1" stop-color="#4c2e1f"/></linearGradient><linearGradient id="linear-gradient-2" x1="661.46" y1="22.67" x2="667" y2="22.67" xlink:href="#linear-gradient"/><linearGradient id="linear-gradient-3" x1="636.92" y1="9.87" x2="643.52" y2="9.87" xlink:href="#linear-gradient"/><linearGradient id="linear-gradient-4" x1="668.45" y1="6.93" x2="681.35" y2="6.93" xlink:href="#linear-gradient"/><linearGradient id="linear-gradient-5" x1="688.71" y1="15.32" x2="695.41" y2="15.32" xlink:href="#linear-gradient"/><linearGradient id="linear-gradient-6" x1="680.33" y1="17.09" x2="685.94" y2="17.09" xlink:href="#linear-gradient"/><linearGradient id="linear-gradient-7" x1="681.94" y1="12.74" x2="691.4" y2="12.74" xlink:href="#linear-gradient"/><linearGradient id="linear-gradient-8" x1="673.95" y1="7.93" x2="692.81" y2="7.93" xlink:href="#linear-gradient"/><linearGradient id="linear-gradient-9" x1="677.82" y1="3.06" x2="688.19" y2="3.06" xlink:href="#linear-gradient"/><linearGradient id="linear-gradient-10" x1="649.43" y1="9.6" x2="691.28" y2="9.6" xlink:href="#linear-gradient"/><linearGradient id="linear-gradient-11" x1="628.05" y1="16.02" x2="673.34" y2="16.02" xlink:href="#linear-gradient"/><linearGradient id="linear-gradient-12" x1="656.8" y1="16.64" x2="675.12" y2="16.64" xlink:href="#linear-gradient"/></defs><g id="Layer_2" data-name="Layer 2"><g id="Origami"><g id="bear"><path class="cls-1" d="M6.75,31.67,1.91,15.38s1.47-9,1.91-9,9.83-5.14,10.27-5.14l9.25.15L12.77,31.67Z"/><polygon class="cls-2" points="22.77 13.67 22.17 25.95 24.81 31.38 29.65 31.67 22.77 13.67"/><path class="cls-3" d="M3.08,13.32,0,10.39l3.82-4,2.79,5.29S2.64,13.32,3.08,13.32Z"/><polygon class="cls-4" points="41.91 1.53 32.92 0.24 33.18 13.62 39.64 10.39 41.91 1.53"/><polygon class="cls-5" points="53.55 16.44 52.13 13.4 52.13 17.24 53.55 16.44"/><polygon class="cls-6" points="43.41 13.7 48.14 20.49 49.03 14.58 43.41 13.7"/><polygon class="cls-7" points="49.62 8.08 43.41 13.7 52.28 17.39 52.87 14.58 49.62 8.08"/><polygon class="cls-8" points="40.31 5.42 38.98 10.59 40.9 13.55 43.41 13.7 49.62 8.08 45.48 2.17 40.31 5.42"/><polygon class="cls-9" points="40.6 0.69 40.31 5.42 45.48 2.17 40.6 0.69"/><polygon class="cls-10" points="33.32 0.26 18.46 1.21 15.27 18.94 25.73 18.72 33.32 0.26"/><polygon class="cls-11" points="3.82 6.42 13.06 0 23.52 0.99 20.22 14.31 16.7 21.91 16.59 32.04 8.33 31.49 1.5 15.08 3.82 6.42"/><polygon class="cls-12" points="33.32 0.26 23.86 9.47 23.52 25.43 26.39 32.59 33.43 33.03 33.54 28.96 32.11 23.45 33.76 13.54 33.32 0.26"/></g></g></g></svg>