<svg xmlns="http://www.w3.org/2000/svg" xmlns:xlink="http://www.w3.org/1999/xlink" viewBox="0 0 36.07 41.08"><defs><style>.cls-1{fill:url(#linear-gradient);}.cls-2{fill:url(#linear-gradient-2);}.cls-3{fill:url(#linear-gradient-3);}.cls-4{fill:url(#linear-gradient-4);}.cls-5{fill:url(#linear-gradient-5);}.cls-6{fill:url(#linear-gradient-6);}.cls-7{fill:url(#linear-gradient-7);}</style><linearGradient id="linear-gradient" x1="38.1" y1="43.17" x2="8.3" y2="33.91" gradientTransform="matrix(-1, 0, 0, 1, 36.07, 0)" gradientUnits="userSpaceOnUse"><stop offset="0" stop-color="#ffdd51"/><stop offset="1" stop-color="#f48039"/></linearGradient><linearGradient id="linear-gradient-2" x1="4.65" y1="20.42" x2="16.95" y2="10.3" xlink:href="#linear-gradient"/><linearGradient id="linear-gradient-3" x1="3.81" y1="3.62" x2="9.4" y2="3.62" xlink:href="#linear-gradient"/><linearGradient id="linear-gradient-4" x1="30.78" y1="18.57" x2="20.65" y2="10.76" xlink:href="#linear-gradient"/><linearGradient id="linear-gradient-5" x1="-0.35" y1="28.61" x2="10.07" y2="17.62" xlink:href="#linear-gradient"/><linearGradient id="linear-gradient-6" x1="7.85" y1="18.68" x2="11.9" y2="16" xlink:href="#linear-gradient"/><linearGradient id="linear-gradient-7" x1="5.64" y1="15.26" x2="18.22" y2="45.63" xlink:href="#linear-gradient"/></defs><g id="Layer_2" data-name="Layer 2"><g id="Origami"><g id="cat"><polygon class="cls-1" points="36.07 37.42 0 36.45 4.34 41.08 36.07 37.42"/><polygon class="cls-2" points="35.78 8.1 26.67 5.79 15.67 11.43 12.34 20.62 23.34 23.15 23.34 23.15 33.56 17.26 35.78 8.1"/><polygon class="cls-3" points="32.26 7.23 29.85 0 26.67 5.79 32.26 7.23"/><polygon class="cls-4" points="15.67 11.43 9.45 10.61 13.86 16.72 15.67 11.43"/><polygon class="cls-5" points="33.56 17.26 29.61 16.39 24.45 19.39 23.34 23.15 33.56 17.26"/><polygon class="cls-6" points="29.61 16.39 28.55 20.16 24.45 19.39 29.61 16.39"/><polygon class="cls-7" points="36.07 37.42 29.9 19.39 23.34 23.15 16.11 21.41 6.75 36.65 36.07 37.42"/></g></g></g></svg>