<svg xmlns="http://www.w3.org/2000/svg" xmlns:xlink="http://www.w3.org/1999/xlink" viewBox="0 0 42.2 34.43"><defs><style>.cls-1{fill:url(#linear-gradient);}.cls-2{fill:url(#linear-gradient-2);}.cls-3{fill:url(#linear-gradient-3);}.cls-4{fill:url(#linear-gradient-4);}.cls-5{fill:url(#linear-gradient-5);}.cls-6{fill:url(#linear-gradient-6);}.cls-7{fill:url(#linear-gradient-7);}.cls-8{fill:url(#linear-gradient-8);}</style><linearGradient id="linear-gradient" x1="-0.08" y1="5.73" x2="12.29" y2="4.39" gradientUnits="userSpaceOnUse"><stop offset="0" stop-color="#f05d39"/><stop offset="1" stop-color="#b9131a"/></linearGradient><linearGradient id="linear-gradient-2" x1="17.57" y1="6.92" x2="5.47" y2="4.5" xlink:href="#linear-gradient"/><linearGradient id="linear-gradient-3" x1="10.73" y1="36.2" x2="38.16" y2="0.97" xlink:href="#linear-gradient"/><linearGradient id="linear-gradient-4" x1="27.06" y1="9.39" x2="39.65" y2="0.47" xlink:href="#linear-gradient"/><linearGradient id="linear-gradient-5" x1="19.9" y1="11.85" x2="26.77" y2="-12.38" xlink:href="#linear-gradient"/><linearGradient id="linear-gradient-6" x1="-2.35" y1="31.99" x2="9.75" y2="17.2" xlink:href="#linear-gradient"/><linearGradient id="linear-gradient-7" x1="43.1" y1="30.44" x2="31.26" y2="16.72" xlink:href="#linear-gradient"/><linearGradient id="linear-gradient-8" x1="19.44" y1="35.31" x2="23.47" y2="-6.11" xlink:href="#linear-gradient"/></defs><g id="Layer_2" data-name="Layer 2"><g id="Origami"><g id="crab"><polygon class="cls-1" points="0.34 9.56 11.59 0 5.74 9.56 0.34 9.56"/><polygon class="cls-2" points="11.59 0 7.99 10.13 4.39 10.01 11.59 0"/><polygon class="cls-3" points="40.73 9.68 29.48 0.11 35.33 9.68 40.73 9.68"/><polygon class="cls-4" points="29.48 0.11 33.08 10.24 36.68 10.13 29.48 0.11"/><path class="cls-5" d="M.34,9.56l40.39.12S37.8,17.78,37.47,18s-32.41.23-32.41.23Z"/><polygon class="cls-6" points="0 18.45 9.68 25.43 4.39 34.43 0 18.45"/><polygon class="cls-7" points="41.74 18.34 37.35 34.32 32.4 25.88 41.74 18.34"/><path class="cls-8" d="M0,18.45,14.85,9.68,27,9.56s15.53,8.55,15.19,8.55-13.27,14-13.27,14l-16.09.11Z"/></g></g></g></svg>