<svg xmlns="http://www.w3.org/2000/svg" xmlns:xlink="http://www.w3.org/1999/xlink" viewBox="0 0 49.23 39.16"><defs><style>.cls-1{fill:url(#linear-gradient);}.cls-2{fill:url(#linear-gradient-2);}.cls-3{fill:url(#linear-gradient-3);}.cls-4{fill:url(#linear-gradient-4);}.cls-5{fill:url(#linear-gradient-5);}.cls-6{fill:url(#linear-gradient-6);}.cls-7{fill:url(#linear-gradient-7);}.cls-8{fill:url(#linear-gradient-8);}.cls-9{fill:url(#linear-gradient-9);}.cls-10{fill:url(#linear-gradient-10);}.cls-11{fill:url(#linear-gradient-11);}</style><linearGradient id="linear-gradient" x1="-269.74" y1="21.76" x2="-264.03" y2="21.76" gradientTransform="translate(309.12)" gradientUnits="userSpaceOnUse"><stop offset="0" stop-color="#c2d1d3"/><stop offset="1" stop-color="#7f9ba3"/></linearGradient><linearGradient id="linear-gradient-2" x1="-262.75" y1="12.66" x2="-265.52" y2="18.7" xlink:href="#linear-gradient"/><linearGradient id="linear-gradient-3" x1="-265.04" y1="29.59" x2="-260.9" y2="29.59" xlink:href="#linear-gradient"/><linearGradient id="linear-gradient-4" x1="-261.68" y1="28.64" x2="-259.89" y2="28.64" xlink:href="#linear-gradient"/><linearGradient id="linear-gradient-5" x1="-280.48" y1="26.18" x2="-275.33" y2="26.18" xlink:href="#linear-gradient"/><linearGradient id="linear-gradient-6" x1="-283.65" y1="23.53" x2="-284.41" y2="35.61" xlink:href="#linear-gradient"/><linearGradient id="linear-gradient-7" x1="-294.91" y1="26.68" x2="-275.67" y2="26.68" xlink:href="#linear-gradient"/><linearGradient id="linear-gradient-8" x1="-302.58" y1="22.29" x2="-307.88" y2="41.71" xlink:href="#linear-gradient"/><linearGradient id="linear-gradient-9" x1="-276.83" y1="5.93" x2="-287.4" y2="18.77" xlink:href="#linear-gradient"/><linearGradient id="linear-gradient-10" x1="-285.89" y1="-14.03" x2="-299.23" y2="31.03" xlink:href="#linear-gradient"/><linearGradient id="linear-gradient-11" x1="-299.75" y1="18.13" x2="-260.11" y2="-1.97" xlink:href="#linear-gradient"/></defs><g id="Layer_2" data-name="Layer 2"><g id="Origami"><g id="elephant"><polygon class="cls-1" points="39.38 14.21 41.17 27.63 44.08 30.99 45.09 28.64 41.17 12.53 39.38 14.21"/><polygon class="cls-2" points="45.09 28.64 40.5 12.31 45.2 7.05 45.09 28.64"/><polygon class="cls-3" points="47.44 28.64 45.31 28.19 44.08 30.99 48.22 30.21 47.44 28.64"/><polygon class="cls-4" points="49.23 27.07 47.44 28.64 48.22 30.21 49.23 27.07"/><polygon class="cls-5" points="33.79 17.12 31.55 34.24 28.64 35.69 32.22 16.67 33.79 17.12"/><polygon class="cls-6" points="33.12 16.78 29.31 38.04 24.84 39.16 18.68 16.56 33.12 16.78"/><path class="cls-7" d="M14.21,23.38c.45.23,15.1,14.66,15.1,14.66l4.14-21.82-14.77-.89Z"/><polygon class="cls-8" points="0.27 37.91 0.77 19.78 14.1 18.24 6.04 38.15 0.27 37.91"/><polygon class="cls-9" points="22.82 5.93 22.15 18.13 28.87 20.14 35.13 13.98 22.82 5.93"/><path class="cls-10" d="M0,19.69c.34-.11,6.15-9.17,6.15-9.17L19,5.15l9.62,7.27L6,38.15Z"/><polygon class="cls-11" points="19.8 0.22 16.34 8.95 28.87 20.14 45.09 12.64 45.2 7.05 37.03 0 19.8 0.22"/></g></g></g></svg>