<svg xmlns="http://www.w3.org/2000/svg" xmlns:xlink="http://www.w3.org/1999/xlink" viewBox="0 0 54.16 42.14"><defs><style>.cls-1{fill:url(#linear-gradient);}.cls-2{fill:url(#linear-gradient-2);}.cls-3{fill:url(#linear-gradient-3);}.cls-4{fill:url(#linear-gradient-4);}.cls-5{fill:url(#linear-gradient-5);}.cls-6{fill:url(#linear-gradient-6);}.cls-7{fill:url(#linear-gradient-7);}.cls-8{fill:url(#linear-gradient-8);}.cls-9{fill:url(#linear-gradient-9);}.cls-10{fill:url(#linear-gradient-10);}.cls-11{fill:url(#linear-gradient-11);}</style><linearGradient id="linear-gradient" x1="88.6" y1="-18.13" x2="96.58" y2="-18.13" gradientTransform="matrix(-0.99, -0.12, -0.12, 0.99, 123.95, 69.11)" gradientUnits="userSpaceOnUse"><stop offset="0" stop-color="#f49b1e"/><stop offset="1" stop-color="#ea5724"/></linearGradient><linearGradient id="linear-gradient-2" x1="89.94" y1="-30.43" x2="99.53" y2="-30.43" xlink:href="#linear-gradient"/><linearGradient id="linear-gradient-3" x1="33.8" y1="40.57" x2="39.47" y2="40.57" gradientTransform="matrix(-1, 0, 0, 1, 54.16, 0)" xlink:href="#linear-gradient"/><linearGradient id="linear-gradient-4" x1="33.85" y1="32.74" x2="42.07" y2="32.74" gradientTransform="matrix(-1, 0, 0, 1, 54.16, 0)" xlink:href="#linear-gradient"/><linearGradient id="linear-gradient-5" x1="4.9" y1="13.91" x2="29.41" y2="13.91" gradientTransform="matrix(-1, 0, 0, 1, 54.16, 0)" xlink:href="#linear-gradient"/><linearGradient id="linear-gradient-6" x1="45.42" y1="10.06" x2="20.72" y2="35.05" gradientTransform="matrix(-1, 0, 0, 1, 54.16, 0)" xlink:href="#linear-gradient"/><linearGradient id="linear-gradient-7" x1="0" y1="12.64" x2="9.45" y2="12.64" gradientTransform="matrix(-1, 0, 0, 1, 54.16, 0)" xlink:href="#linear-gradient"/><linearGradient id="linear-gradient-8" x1="3.09" y1="17.43" x2="9.42" y2="17.43" gradientTransform="matrix(-1, 0, 0, 1, 54.16, 0)" xlink:href="#linear-gradient"/><linearGradient id="linear-gradient-9" x1="43.58" y1="16" x2="48.62" y2="16" gradientTransform="matrix(-1, 0, 0, 1, 54.16, 0)" xlink:href="#linear-gradient"/><linearGradient id="linear-gradient-10" x1="44.9" y1="22.24" x2="50.67" y2="22.24" gradientTransform="matrix(-1, 0, 0, 1, 54.16, 0)" xlink:href="#linear-gradient"/><linearGradient id="linear-gradient-11" x1="50.59" y1="26.76" x2="54.16" y2="26.76" gradientTransform="matrix(-1, 0, 0, 1, 54.16, 0)" xlink:href="#linear-gradient"/></defs><g id="Layer_2" data-name="Layer 2"><g id="Origami"><g id="lion"><polygon class="cls-1" points="38.05 41.76 34.67 38.21 30.41 38.56 33.96 41.43 38.05 41.76"/><polygon class="cls-2" points="38.32 16.3 28.79 27.55 29.69 31.57 30.41 38.56 34.67 38.21 37.93 31.77 38.32 16.3"/><polygon class="cls-3" points="20.36 41.87 18.27 39 14.7 39.26 17.14 42.14 20.36 41.87"/><polygon class="cls-4" points="12.09 26.21 20.31 26.47 20.16 32.8 18.27 39 14.7 39.26 12.09 26.21"/><polygon class="cls-5" points="40.52 27.6 49.26 4.48 35.94 0 24.75 11.19 31.25 27.82 40.52 27.6"/><polygon class="cls-6" points="10.58 13.44 24.75 11.19 31.25 27.82 12.31 28.63 10.16 26.55 10.58 13.44"/><polygon class="cls-7" points="47.98 7.69 54.16 12.04 53.63 17.58 44.71 16.39 47.98 7.69"/><polygon class="cls-8" points="44.74 16.38 50.47 17.06 51.07 18.48 44.74 16.38"/><polygon class="cls-9" points="10.58 13.44 5.54 16.77 10.49 18.55 10.58 13.44"/><polygon class="cls-10" points="5.54 16.77 3.5 25.87 3.54 27.71 9.26 18.11 5.54 16.77"/><polygon class="cls-11" points="0 27.4 3.57 25.84 3.57 27.67 0 27.4"/></g></g></g></svg>