<svg xmlns="http://www.w3.org/2000/svg" xmlns:xlink="http://www.w3.org/1999/xlink" viewBox="0 0 50.01 39.06"><defs><style>.cls-1{fill:url(#linear-gradient);}.cls-2{fill:url(#linear-gradient-2);}.cls-3{fill:url(#linear-gradient-3);}.cls-4{fill:url(#linear-gradient-4);}.cls-5{fill:url(#linear-gradient-5);}.cls-6{fill:url(#linear-gradient-6);}.cls-7{fill:url(#linear-gradient-7);}.cls-8{fill:url(#linear-gradient-8);}.cls-9{fill:url(#linear-gradient-9);}</style><linearGradient id="linear-gradient" y1="22.56" x2="3.8" y2="22.56" gradientTransform="matrix(-1, 0, 0, 1, 50.01, 0)" gradientUnits="userSpaceOnUse"><stop offset="0.01" stop-color="#b9bbbd"/><stop offset="0.99" stop-color="#eaebec"/></linearGradient><linearGradient id="linear-gradient-2" x1="2.3" y1="15.62" x2="21.35" y2="15.62" xlink:href="#linear-gradient"/><linearGradient id="linear-gradient-3" x1="2.06" y1="11.44" x2="10.45" y2="13.57" gradientTransform="matrix(-1, 0, 0, 1, 50.01, 0)" gradientUnits="userSpaceOnUse"><stop offset="0" stop-color="#7a7c7f"/><stop offset="1" stop-color="#231f20"/></linearGradient><linearGradient id="linear-gradient-4" x1="3.25" y1="6.91" x2="29.38" y2="26.44" gradientTransform="matrix(-1, 0, 0, 1, 50.01, 0)" gradientUnits="userSpaceOnUse"><stop offset="0" stop-color="#7a7c7f"/><stop offset="0.05" stop-color="#737577"/><stop offset="0.33" stop-color="#515052"/><stop offset="0.59" stop-color="#383536"/><stop offset="0.82" stop-color="#282526"/><stop offset="1" stop-color="#231f20"/></linearGradient><linearGradient id="linear-gradient-5" x1="29.27" y1="12.56" x2="46.71" y2="12.56" xlink:href="#linear-gradient"/><linearGradient id="linear-gradient-6" x1="32.44" y1="26.34" x2="52.24" y2="14.73" xlink:href="#linear-gradient-3"/><linearGradient id="linear-gradient-7" x1="33.71" y1="27.74" x2="40.77" y2="27.74" xlink:href="#linear-gradient"/><linearGradient id="linear-gradient-8" x1="6.77" y1="29.6" x2="13.37" y2="29.6" xlink:href="#linear-gradient"/><linearGradient id="linear-gradient-9" x1="1.3" y1="17.11" x2="6.75" y2="20.34" xlink:href="#linear-gradient-3"/></defs><g id="Layer_2" data-name="Layer 2"><g id="Origami"><g id="panda"><polygon class="cls-1" points="49.3 25.69 50.01 22.39 47.1 19.3 46.21 25.82 49.3 25.69"/><polygon class="cls-2" points="47.71 15.37 46.21 25.82 36.22 25.82 28.66 5.43 44.12 12.49 47.71 15.37"/><polygon class="cls-3" points="45.89 13.91 46.12 10.57 43.87 10.53 42.38 11.76 44.12 12.49 45.89 13.91"/><path class="cls-4" d="M28.58,4.64s13.36,34.59,13,34.42-19.09-9.23-19.09-9.23L15.67,11,18.13,0Z"/><polygon class="cls-5" points="18.07 0.25 3.3 5.51 7.98 24.02 20.74 24.88 15.67 11.03 18.07 0.25"/><path class="cls-6" d="M10.9,34.88,3.3,5.51S0,23.4,0,23.52,10.9,34.88,10.9,34.88Z"/><path class="cls-7" d="M16.29,31.42c-.08-.13-2.17-7-2.17-7l-4.89-.38Z"/><polygon class="cls-8" points="43.24 33.38 39.69 25.82 36.64 25.82 38.9 31.67 43.24 33.38"/><polygon class="cls-9" points="47.63 16.02 44.95 18.01 44.91 21.01 47.38 19.64 47.63 16.02"/></g></g></g></svg>