<svg xmlns="http://www.w3.org/2000/svg" xmlns:xlink="http://www.w3.org/1999/xlink" viewBox="0 0 54.91 30.56"><defs><style>.cls-1{fill:url(#linear-gradient);}.cls-2{fill:url(#linear-gradient-2);}.cls-3{fill:url(#linear-gradient-3);}.cls-4{fill:url(#linear-gradient-4);}.cls-5{fill:url(#linear-gradient-5);}.cls-6{fill:url(#linear-gradient-6);}.cls-7{fill:url(#linear-gradient-7);}.cls-8{fill:url(#linear-gradient-8);}.cls-9{fill:url(#linear-gradient-9);}.cls-10{fill:url(#linear-gradient-10);}</style><linearGradient id="linear-gradient" x1="383.82" y1="17.76" x2="369.06" y2="11.4" gradientTransform="translate(-330)" gradientUnits="userSpaceOnUse"><stop offset="0" stop-color="#f2c2b6"/><stop offset="1" stop-color="#eb9688"/></linearGradient><linearGradient id="linear-gradient-2" x1="327.7" y1="29.99" x2="341.87" y2="14.94" xlink:href="#linear-gradient"/><linearGradient id="linear-gradient-3" x1="338.41" y1="9.48" x2="329.15" y2="16.13" xlink:href="#linear-gradient"/><linearGradient id="linear-gradient-4" x1="343.11" y1="16.9" x2="334.15" y2="3.88" xlink:href="#linear-gradient"/><linearGradient id="linear-gradient-5" x1="368.56" y1="-2.92" x2="347.44" y2="23.12" xlink:href="#linear-gradient"/><linearGradient id="linear-gradient-6" x1="376.78" y1="19.85" x2="363.47" y2="34.9" xlink:href="#linear-gradient"/><linearGradient id="linear-gradient-7" x1="378.98" y1="14.56" x2="384.91" y2="14.56" xlink:href="#linear-gradient"/><linearGradient id="linear-gradient-8" x1="339.74" y1="-4.21" x2="344.66" y2="43.53" xlink:href="#linear-gradient"/><linearGradient id="linear-gradient-9" x1="379.05" y1="-10.98" x2="357.64" y2="16.51" xlink:href="#linear-gradient"/><linearGradient id="linear-gradient-10" x1="347.1" y1="18" x2="334.66" y2="35.36" xlink:href="#linear-gradient"/></defs><g id="Layer_2" data-name="Layer 2"><g id="Origami"><g id="pig"><polygon class="cls-1" points="40.85 25.09 52.16 17.97 45.73 4.07 42.58 0 32.09 0 40.85 25.09"/><polygon class="cls-2" points="3.8 27.81 4.98 15.48 7.87 25.97 3.8 27.81"/><polygon class="cls-3" points="3.54 10.01 0 12.9 4.85 15 3.54 10.01"/><path class="cls-4" d="M13.47.52,3.1,8.79,7.84,26.14,8.72,12C8.74,12.15,13.47.52,13.47.52Z"/><polygon class="cls-5" points="13.47 0.53 32.09 0 40.09 22.69 36.42 25.45 17.4 25.58 13.47 0.53"/><polygon class="cls-6" points="36.42 25.45 40.09 22.69 42.84 30.43 36.42 25.45"/><polygon class="cls-7" points="48.98 11.14 53.66 11.14 54.91 16.13 52.16 17.97 48.98 11.14"/><polygon class="cls-8" points="8.61 12.07 13.47 0.53 17.4 25.58 7.93 22.82 8.61 12.07"/><polygon class="cls-9" points="32.09 0 29.6 14.95 39.57 11.8 45.73 4.07 42.58 0 32.09 0"/><path class="cls-10" d="M7.3,30.56c.13-.52.63-7.74.63-7.74l9.47,2.76Z"/></g></g></g></svg>