<svg xmlns="http://www.w3.org/2000/svg" xmlns:xlink="http://www.w3.org/1999/xlink" viewBox="0 0 37.37 38.82"><defs><style>.cls-1{fill:url(#linear-gradient);}.cls-2{fill:url(#linear-gradient-2);}.cls-3{fill:url(#linear-gradient-3);}.cls-4{fill:url(#linear-gradient-4);}.cls-5{fill:url(#linear-gradient-5);}.cls-6{fill:url(#linear-gradient-6);}.cls-7{fill:url(#linear-gradient-7);}.cls-8{fill:url(#linear-gradient-8);}.cls-9{fill:url(#linear-gradient-9);}</style><linearGradient id="linear-gradient" y1="9.4" x2="15.31" y2="9.4" gradientTransform="matrix(-1, 0, 0, 1, 37.37, 0)" gradientUnits="userSpaceOnUse"><stop offset="0" stop-color="#c2d1d3"/><stop offset="1" stop-color="#7f9ba3"/></linearGradient><linearGradient id="linear-gradient-2" x1="9" y1="6.5" x2="28.21" y2="6.5" xlink:href="#linear-gradient"/><linearGradient id="linear-gradient-3" x1="7.3" y1="3.45" x2="24.31" y2="3.45" xlink:href="#linear-gradient"/><linearGradient id="linear-gradient-4" x1="-0.19" y1="17.33" x2="8.54" y2="13.69" xlink:href="#linear-gradient"/><linearGradient id="linear-gradient-5" x1="15.58" y1="6.69" x2="7.57" y2="25.86" xlink:href="#linear-gradient"/><linearGradient id="linear-gradient-6" x1="21.8" y1="11.27" x2="8.45" y2="34.81" xlink:href="#linear-gradient"/><linearGradient id="linear-gradient-7" x1="42.46" y1="22.02" x2="14.79" y2="26.63" xlink:href="#linear-gradient"/><linearGradient id="linear-gradient-8" x1="40.91" y1="10.59" x2="31.93" y2="21.03" xlink:href="#linear-gradient"/><linearGradient id="linear-gradient-9" x1="14.71" y1="35.87" x2="29.71" y2="35.87" xlink:href="#linear-gradient"/></defs><g id="Layer_2" data-name="Layer 2"><g id="Origami"><g id="rabbit"><path class="cls-1" d="M37.37,12.31c-.5-.1-7.31-6.61-7.31-6.61l-8,4.9,6.5,2.51Z"/><polygon class="cls-2" points="28.36 6.9 16.26 2.4 9.15 5.5 22.06 10.6 28.36 6.9"/><path class="cls-3" d="M30.06,5.7C29.86,5.5,19.36,0,19,0s-5.9,1.7-5.9,1.7l1.73,1.35,1.47-.65,12.1,4.5Z"/><polygon class="cls-4" points="37.37 12.3 28.76 18.61 28.56 13.11 37.37 12.3"/><polygon class="cls-5" points="28.56 13.11 22.06 10.6 20.16 11.55 25.46 25.31 28.76 18.61 28.56 13.11"/><polygon class="cls-6" points="28.01 31.66 20.16 11.55 20.46 27.71 28.01 31.66"/><path class="cls-7" d="M20.16,11.55,7.05,16.36.5,29.36s7,9.36,7.15,9.46S20.46,27.71,20.46,27.71Z"/><polygon class="cls-8" points="4.9 14.71 1.3 15.66 0 20.41 3.4 23.61 6.25 17.96 4.9 14.71"/><path class="cls-9" d="M22.66,38.77c-.3-.15-8-5.86-8-5.86l-7,5.91Z"/></g></g></g></svg>