<svg xmlns="http://www.w3.org/2000/svg" xmlns:xlink="http://www.w3.org/1999/xlink" viewBox="0 0 44.18 48.64"><defs><style>.cls-1{fill:url(#linear-gradient);}.cls-2{fill:url(#linear-gradient-2);}.cls-3{fill:url(#linear-gradient-3);}.cls-4{fill:url(#linear-gradient-4);}.cls-5{fill:url(#linear-gradient-5);}.cls-6{fill:url(#linear-gradient-6);}.cls-7{fill:url(#linear-gradient-7);}.cls-8{fill:url(#linear-gradient-8);}.cls-9{fill:url(#linear-gradient-9);}</style><linearGradient id="linear-gradient" y1="18.63" x2="17.29" y2="18.63" gradientUnits="userSpaceOnUse"><stop offset="0" stop-color="#f05d39"/><stop offset="1" stop-color="#b9131a"/></linearGradient><linearGradient id="linear-gradient-2" x1="10.83" y1="23.95" x2="14.61" y2="23.95" xlink:href="#linear-gradient"/><linearGradient id="linear-gradient-3" x1="31.2" y1="9.71" x2="24.54" y2="28.35" xlink:href="#linear-gradient"/><linearGradient id="linear-gradient-4" x1="13.93" y1="35.88" x2="32.82" y2="35.88" xlink:href="#linear-gradient"/><linearGradient id="linear-gradient-5" x1="23.4" y1="18.86" x2="40.4" y2="18.86" xlink:href="#linear-gradient"/><linearGradient id="linear-gradient-6" x1="39.07" y1="7.93" x2="44.18" y2="7.93" xlink:href="#linear-gradient"/><linearGradient id="linear-gradient-7" x1="33.44" y1="4.42" x2="39.01" y2="4.42" xlink:href="#linear-gradient"/><linearGradient id="linear-gradient-8" x1="20.43" y1="44.4" x2="24.65" y2="44.4" xlink:href="#linear-gradient"/><linearGradient id="linear-gradient-9" x1="22.62" y1="47.68" x2="26.59" y2="47.68" xlink:href="#linear-gradient"/></defs><g id="Layer_2" data-name="Layer 2"><g id="Origami"><polygon class="cls-1" points="0 26.93 7.35 11.18 17.29 10.34 14.61 20.18 10.83 23.36 0 26.93"/><polygon class="cls-2" points="10.83 23.36 12.57 27.73 14.61 20.18 10.83 23.36"/><polygon class="cls-3" points="11.73 30.61 17.29 10.34 36.42 33.39 33.24 36.37 11.73 30.61"/><polygon class="cls-4" points="13.93 31.21 17.39 40 28.47 40.55 32.82 36.21 13.93 31.21"/><polygon class="cls-5" points="23.41 17.74 39.01 4.32 39.06 5.42 40.4 30.86 36.42 33.39 23.41 17.74"/><path class="cls-6" d="M44.18,9.19c-.1,0-5.11-3.77-5.11-3.77l.24,5Z"/><polygon class="cls-7" points="33.79 8.85 33.44 0 39.01 4.32 33.79 8.85"/><polygon class="cls-8" points="20.43 40.15 22.61 48.64 24.65 40.34 20.43 40.15"/><polygon class="cls-9" points="26.59 48.62 23.08 46.75 22.61 48.62 26.59 48.62"/></g></g></svg>