<?xml version="1.0" encoding="UTF-8" standalone="no"?>
<!DOCTYPE svg PUBLIC "-//W3C//DTD SVG 1.1//EN"
 "http://www.w3.org/Graphics/SVG/1.1/DTD/svg11.dtd">
<!-- Generated by graphviz version 2.44.0 (20200518.1210)
 -->
<!-- Title: g Pages: 1 -->
<svg width="177pt" height="152pt"
 viewBox="0.00 0.00 177.43 152.00" xmlns="http://www.w3.org/2000/svg" xmlns:xlink="http://www.w3.org/1999/xlink">
<g id="graph0" class="graph" transform="scale(1 1) rotate(0) translate(4 148)">
<title>g</title>
<polygon fill="white" stroke="transparent" points="-4,4 -4,-148 173.43,-148 173.43,4 -4,4"/>
<g id="node1" class="node">
<title></title>
<ellipse fill="none" stroke="#666666" cx="3.5" cy="-72" rx="3.5" ry="3.5"/>
</g>
<!-- /Alice -->
<g id="node2" class="node">
<title>/Alice</title>
<polygon fill="none" stroke="#b3b3b3" points="167.83,-144 78.05,-144 78.05,-108 167.83,-108 167.83,-144"/>
<text text-anchor="middle" x="122.94" y="-121.8" font-family="Helvetica,sans-Serif" font-size="14.00">Hello, Alice.</text>
</g>
<!-- &#45;&gt;/Alice -->
<g id="edge1" class="edge">
<title>&#45;&gt;/Alice</title>
<path fill="none" stroke="#999999" d="M6.15,-74.3C9.33,-78.58 16.73,-87.78 25,-93 38.83,-101.72 55.23,-108.44 70.57,-113.46"/>
<polygon fill="#999999" stroke="#999999" points="78,-115.79 69.83,-116.77 74.42,-114.67 70.84,-113.54 70.84,-113.54 70.84,-113.54 74.42,-114.67 71.85,-110.32 78,-115.79 78,-115.79"/>
<text text-anchor="middle" x="41.72" y="-112.2" font-family="Helvetica,sans-Serif" font-size="14.00">Alice</text>
</g>
<!-- /Bob -->
<g id="node3" class="node">
<title>/Bob</title>
<polygon fill="none" stroke="#b3b3b3" points="165.4,-90 80.48,-90 80.48,-54 165.4,-54 165.4,-90"/>
<text text-anchor="middle" x="122.94" y="-67.8" font-family="Helvetica,sans-Serif" font-size="14.00">Hello, Bob.</text>
</g>
<!-- &#45;&gt;/Bob -->
<g id="edge2" class="edge">
<title>&#45;&gt;/Bob</title>
<path fill="none" stroke="#999999" d="M7.4,-72C16.6,-72 46.05,-72 72.78,-72"/>
<polygon fill="#999999" stroke="#999999" points="80.59,-72 73.1,-75.38 76.84,-72 73.09,-72 73.09,-72 73.09,-72 76.84,-72 73.09,-68.63 80.59,-72 80.59,-72"/>
<text text-anchor="middle" x="41.72" y="-76.2" font-family="Helvetica,sans-Serif" font-size="14.00">Bob</text>
</g>
<!-- /Carol -->
<g id="node4" class="node">
<title>/Carol</title>
<polygon fill="none" stroke="#b3b3b3" points="169.43,-36 76.44,-36 76.44,0 169.43,0 169.43,-36"/>
<text text-anchor="middle" x="122.94" y="-13.8" font-family="Helvetica,sans-Serif" font-size="14.00">Hello, Carol.</text>
</g>
<!-- &#45;&gt;/Carol -->
<g id="edge3" class="edge">
<title>&#45;&gt;/Carol</title>
<path fill="none" stroke="#999999" d="M6.16,-69.72C9.35,-65.49 16.76,-56.38 25,-51.2 38.33,-42.82 54.03,-36.26 68.87,-31.27"/>
<polygon fill="#999999" stroke="#999999" points="76.07,-28.95 69.97,-34.47 72.5,-30.1 68.93,-31.25 68.93,-31.25 68.93,-31.25 72.5,-30.1 67.9,-28.04 76.07,-28.95 76.07,-28.95"/>
<text text-anchor="middle" x="41.72" y="-56.2" font-family="Helvetica,sans-Serif" font-size="14.00">Carol</text>
</g>
</g>
</svg>
