<?xml version="1.0" encoding="UTF-8" standalone="no"?>
<!DOCTYPE svg PUBLIC "-//W3C//DTD SVG 1.1//EN"
 "http://www.w3.org/Graphics/SVG/1.1/DTD/svg11.dtd">
<!-- Generated by graphviz version 2.44.0 (20200518.1210)
 -->
<!-- Title: g Pages: 1 -->
<svg width="483pt" height="92pt"
 viewBox="0.00 0.00 483.04 91.60" xmlns="http://www.w3.org/2000/svg" xmlns:xlink="http://www.w3.org/1999/xlink">
<g id="graph0" class="graph" transform="scale(1 1) rotate(0) translate(4 87.6)">
<title>g</title>
<polygon fill="white" stroke="transparent" points="-4,4 -4,-87.6 479.04,-87.6 479.04,4 -4,4"/>
<g id="node1" class="node">
<title></title>
<ellipse fill="none" stroke="#666666" cx="3.5" cy="-41.8" rx="3.5" ry="3.5"/>
</g>
<!-- /index.html -->
<g id="node2" class="node">
<title>/index.html</title>
<polygon fill="none" stroke="#b3b3b3" points="241.14,-83.4 106.67,-83.4 106.67,-42.2 241.14,-42.2 241.14,-83.4"/>
<text text-anchor="middle" x="173.9" y="-67" font-family="Helvetica,sans-Serif" font-size="14.00">&lt;!DOCTYPE html&gt;</text>
<text text-anchor="middle" x="173.9" y="-50.2" font-family="Helvetica,sans-Serif" font-size="14.00">&lt;htm…</text>
</g>
<!-- &#45;&gt;/index.html -->
<g id="edge1" class="edge">
<title>&#45;&gt;/index.html</title>
<path fill="none" stroke="#999999" d="M7.15,-42.13C17.93,-43.48 59.89,-48.71 98.88,-53.57"/>
<polygon fill="#999999" stroke="#999999" points="106.63,-54.54 98.77,-56.96 102.91,-54.07 99.19,-53.61 99.19,-53.61 99.19,-53.61 102.91,-54.07 99.61,-50.26 106.63,-54.54 106.63,-54.54"/>
<text text-anchor="middle" x="56.89" y="-57" font-family="Helvetica,sans-Serif" font-size="14.00">index.html</text>
</g>
<!-- /about -->
<g id="node3" class="node">
<title>/about</title>
<ellipse fill="none" stroke="#666666" cx="173.9" cy="-20.8" rx="3.5" ry="3.5"/>
</g>
<!-- &#45;&gt;/about -->
<g id="edge2" class="edge">
<title>&#45;&gt;/about</title>
<path fill="none" stroke="#999999" d="M6.32,-39.37C9.55,-35.29 16.73,-27.19 25,-24 73.65,-5.22 138.17,-14.22 162.78,-18.74"/>
<polygon fill="#999999" stroke="#999999" points="170.34,-20.23 162.33,-22.09 166.66,-19.51 162.98,-18.78 162.98,-18.78 162.98,-18.78 166.66,-19.51 163.64,-15.47 170.34,-20.23 170.34,-20.23"/>
<text text-anchor="middle" x="56.89" y="-29" font-family="Helvetica,sans-Serif" font-size="14.00">about</text>
</g>
<!-- /about/index.html -->
<g id="node4" class="node">
<title>/about/index.html</title>
<polygon fill="none" stroke="#b3b3b3" points="475.16,-41.4 340.69,-41.4 340.69,-0.2 475.16,-0.2 475.16,-41.4"/>
<text text-anchor="middle" x="407.93" y="-25" font-family="Helvetica,sans-Serif" font-size="14.00">&lt;!DOCTYPE html&gt;</text>
<text text-anchor="middle" x="407.93" y="-8.2" font-family="Helvetica,sans-Serif" font-size="14.00">&lt;htm…</text>
</g>
<!-- /about&#45;&gt;/about/index.html -->
<g id="edge3" class="edge">
<title>/about&#45;&gt;/about/index.html</title>
<path fill="none" stroke="#999999" d="M177.51,-20.8C192.76,-20.8 271.92,-20.8 333.03,-20.8"/>
<polygon fill="#999999" stroke="#999999" points="340.77,-20.8 333.27,-24.18 337.02,-20.8 333.27,-20.8 333.27,-20.8 333.27,-20.8 337.02,-20.8 333.27,-17.43 340.77,-20.8 340.77,-20.8"/>
<text text-anchor="middle" x="290.92" y="-25" font-family="Helvetica,sans-Serif" font-size="14.00">index.html</text>
</g>
</g>
</svg>
