<?xml version="1.0" encoding="UTF-8"?>
<svg id="Layer_2" data-name="Layer 2" xmlns="http://www.w3.org/2000/svg" width="204.89" height="204.89" xmlns:xlink="http://www.w3.org/1999/xlink" viewBox="0 0 204.89 204.89">
  <defs>
    <clipPath id="clippath">
      <rect width="204.89" height="204.89" style="fill: none;"/>
    </clipPath>
    <linearGradient id="linear-gradient" x1="51.98" y1="114.78" x2="145.62" y2="256.66" gradientUnits="userSpaceOnUse">
      <stop offset="0" stop-color="#0b173d"/>
      <stop offset=".5" stop-color="#0c193f"/>
      <stop offset=".82" stop-color="#132248"/>
      <stop offset="1" stop-color="#192b51"/>
    </linearGradient>
    <linearGradient id="linear-gradient-2" x1="128.69" y1="174.94" x2="144.26" y2="179.31" gradientUnits="userSpaceOnUse">
      <stop offset="0" stop-color="#f0c499"/>
      <stop offset=".52" stop-color="#f4cfa5"/>
      <stop offset="1" stop-color="#f7d4ab"/>
    </linearGradient>
    <linearGradient id="linear-gradient-3" x1="78.41" y1="181.08" x2="143.63" y2="199.4" xlink:href="#linear-gradient-2"/>
    <linearGradient id="linear-gradient-4" x1="100.46" y1="217.98" x2="69.36" y2="176.31" gradientUnits="userSpaceOnUse">
      <stop offset="0" stop-color="#f0c499"/>
      <stop offset=".51" stop-color="#e3b086"/>
      <stop offset="1" stop-color="#dba379"/>
    </linearGradient>
    <linearGradient id="linear-gradient-5" x1="142.57" y1="179.96" x2="75.39" y2="154.63" xlink:href="#linear-gradient-4"/>
    <linearGradient id="linear-gradient-6" x1="75.73" y1="-269.17" x2="74.81" y2="-220.08" gradientTransform="translate(11.84 310.01) rotate(3.42) scale(1 .96)" gradientUnits="userSpaceOnUse">
      <stop offset="0" stop-color="#ffd9b3"/>
      <stop offset=".28" stop-color="#fbd6af"/>
      <stop offset="1" stop-color="#f7d4ab"/>
    </linearGradient>
    <linearGradient id="linear-gradient-7" x1="-105.78" y1="601.55" x2="-95.59" y2="626.25" gradientTransform="translate(53.39 -585.57) rotate(177.48) scale(.99 -1.14) skewX(3.14)" gradientUnits="userSpaceOnUse">
      <stop offset="0" stop-color="#dba379"/>
      <stop offset=".49" stop-color="#e3b086"/>
      <stop offset="1" stop-color="#f0c499"/>
    </linearGradient>
    <linearGradient id="linear-gradient-8" x1="1021.87" y1="563.64" x2="1031.91" y2="588" gradientTransform="translate(-975.07 -581.79) rotate(2) scale(.99 1.14) skewX(3.13)" xlink:href="#linear-gradient-7"/>
    <linearGradient id="linear-gradient-9" x1="89.94" y1="-216.86" x2="106.33" y2="-201.38" gradientTransform="translate(11.89 299.63) rotate(3.42)" xlink:href="#linear-gradient-2"/>
    <linearGradient id="linear-gradient-10" x1="56.25" y1="-212.63" x2="52.39" y2="-196.29" gradientTransform="translate(11.89 299.63) rotate(3.42)" xlink:href="#linear-gradient-2"/>
    <radialGradient id="radial-gradient" cx="-261.38" cy="29.91" fx="-261.38" fy="29.91" r="23.1" gradientTransform="translate(-136.26 105.63) rotate(177.65) scale(1.02 -.71) skewX(-1.54)" gradientUnits="userSpaceOnUse">
      <stop offset="0" stop-color="#f8c39c"/>
      <stop offset="1" stop-color="#f7d4ab"/>
    </radialGradient>
    <radialGradient id="radial-gradient-2" cx="90.61" cy="12.88" fx="90.61" fy="12.88" r="23.69" gradientTransform="translate(-19.67 113.23) rotate(-3.81) scale(1.02 .69) skewX(2.86)" xlink:href="#radial-gradient"/>
    <linearGradient id="linear-gradient-11" x1="191.15" y1="165.05" x2="176.94" y2="169.95" gradientTransform="translate(-50.58 -56.36) rotate(-.26)" gradientUnits="userSpaceOnUse">
      <stop offset="0" stop-color="#fbd6af"/>
      <stop offset="1" stop-color="#f7d4ab"/>
    </linearGradient>
    <linearGradient id="linear-gradient-12" x1="127.08" y1="169.96" x2="105.99" y2="164.81" xlink:href="#linear-gradient-11"/>
    <linearGradient id="Gradient_58" data-name="Gradient 58" x1="-3155.19" y1="-155.74" x2="-3129.66" y2="-155.74" gradientTransform="translate(-3000.3 -559.65) rotate(-165.3) scale(1 -1)" gradientUnits="userSpaceOnUse">
      <stop offset="0" stop-color="#2b1b13"/>
      <stop offset=".04" stop-color="#2e1d14"/>
      <stop offset=".38" stop-color="#442b1d"/>
      <stop offset=".71" stop-color="#513423"/>
      <stop offset="1" stop-color="#563725"/>
    </linearGradient>
    <linearGradient id="Gradient_58-2" data-name="Gradient 58" x1="342.61" y1="534.87" x2="370.49" y2="534.87" gradientTransform="translate(-339.37 -357.38) rotate(-12.57)" xlink:href="#Gradient_58"/>
    <linearGradient id="linear-gradient-13" x1="206.94" y1="157.12" x2="179.73" y2="180.38" gradientTransform="translate(-65.5 -72.58) rotate(1.21)" xlink:href="#linear-gradient-4"/>
    <linearGradient id="linear-gradient-14" x1="185.1" y1="136.04" x2="159.79" y2="129.93" gradientTransform="translate(-44.63 -30.96)" gradientUnits="userSpaceOnUse">
      <stop offset="0" stop-color="#ece7e7"/>
      <stop offset=".23" stop-color="#f5f3f3"/>
      <stop offset=".53" stop-color="#fcfcfc"/>
      <stop offset="1" stop-color="#fff"/>
    </linearGradient>
    <linearGradient id="Gradient_96" data-name="Gradient 96" x1="188.34" y1="150.68" x2="164.31" y2="128.86" gradientTransform="translate(-44.63 -30.96)" gradientUnits="userSpaceOnUse">
      <stop offset="0" stop-color="#a8c3dd"/>
      <stop offset="1" stop-color="#7a90a5"/>
    </linearGradient>
    <linearGradient id="Gradient_96-2" data-name="Gradient 96" x1="101.83" y1="-192.57" x2="101.02" y2="-200" gradientTransform="translate(11.89 299.63) rotate(3.42)" xlink:href="#Gradient_96"/>
    <radialGradient id="Gradient_25" data-name="Gradient 25" cx="-917.03" cy="149.94" fx="-917.03" fy="149.94" r="4.04" gradientTransform="translate(1053.25 -27.83) rotate(1.3) skewX(.07)" gradientUnits="userSpaceOnUse">
      <stop offset="0" stop-color="#666"/>
      <stop offset="1" stop-color="#1d1d1d"/>
    </radialGradient>
    <linearGradient id="linear-gradient-15" x1="112.25" y1="162.48" x2="132.53" y2="161.52" gradientTransform="translate(4.57 -66.15) rotate(1.2)" gradientUnits="userSpaceOnUse">
      <stop offset="0" stop-color="#2b1b13"/>
      <stop offset=".04" stop-color="#2e1d14"/>
      <stop offset=".38" stop-color="#442b1d"/>
      <stop offset=".71" stop-color="#513423"/>
      <stop offset="1" stop-color="#563725"/>
    </linearGradient>
    <linearGradient id="linear-gradient-16" x1="85.34" y1="-97.91" x2="82.95" y2="-129.05" gradientTransform="translate(11.89 299.63) rotate(3.42)" gradientUnits="userSpaceOnUse">
      <stop offset="0" stop-color="#f7d4ab"/>
      <stop offset=".45" stop-color="#f3caa0"/>
      <stop offset="1" stop-color="#f0c499"/>
    </linearGradient>
    <linearGradient id="linear-gradient-17" x1="-2953.87" y1="224.3" x2="-2980.88" y2="247.39" gradientTransform="translate(-2892.21 -72.93) rotate(178.8) scale(1 -1)" xlink:href="#linear-gradient-4"/>
    <linearGradient id="linear-gradient-18" x1="141.2" y1="135.82" x2="115.2" y2="129.54" xlink:href="#linear-gradient-14"/>
    <linearGradient id="Gradient_96-3" data-name="Gradient 96" x1="143.94" y1="151" x2="119.82" y2="129.11" xlink:href="#Gradient_96"/>
    <linearGradient id="Gradient_96-4" data-name="Gradient 96" x1="57.26" y1="-187.73" x2="56.46" y2="-195.15" gradientTransform="translate(11.89 299.63) rotate(3.42)" xlink:href="#Gradient_96"/>
    <radialGradient id="Gradient_25-2" data-name="Gradient 25" cx="-4294.95" cy="227.31" fx="-4294.95" fy="227.31" r="4.04" gradientTransform="translate(-4221.68 -28.37) rotate(178.7) scale(1 -1) skewX(.09)" xlink:href="#Gradient_25"/>
    <linearGradient id="linear-gradient-19" x1="-3048.4" y1="228.63" x2="-3028.3" y2="227.67" gradientTransform="translate(-2962.28 -66.51) rotate(178.81) scale(1 -1)" xlink:href="#linear-gradient-15"/>
    <linearGradient id="Gradient_32" data-name="Gradient 32" x1="82.83" y1="-284" x2="65.71" y2="-132.91" gradientTransform="translate(11.89 299.63) rotate(3.42)" gradientUnits="userSpaceOnUse">
      <stop offset="0" stop-color="#724831"/>
      <stop offset=".22" stop-color="#67412c"/>
      <stop offset=".63" stop-color="#5a3926"/>
      <stop offset="1" stop-color="#563725"/>
    </linearGradient>
    <linearGradient id="Gradient_32-2" data-name="Gradient 32" x1="31.41" y1="-245.32" x2="20.64" y2="-150.26" xlink:href="#Gradient_32"/>
    <linearGradient id="linear-gradient-20" x1="82.31" y1="-169.46" x2="82" y2="-173.43" gradientTransform="translate(10.43 323.27) rotate(3.42) scale(1 .93)" xlink:href="#linear-gradient-16"/>
    <linearGradient id="Gradient_115" data-name="Gradient 115" x1="101.67" y1="125.63" x2="99.52" y2="180.56" gradientUnits="userSpaceOnUse">
      <stop offset="0" stop-color="#d6ac88"/>
      <stop offset="1" stop-color="#a18166"/>
    </linearGradient>
    <linearGradient id="Gradient_115-2" data-name="Gradient 115" x1="102.67" y1="125.31" x2="100.6" y2="178.23" xlink:href="#Gradient_115"/>
    <linearGradient id="Gradient_27" data-name="Gradient 27" x1="102.89" y1="60.82" x2="115.29" y2="20.02" gradientUnits="userSpaceOnUse">
      <stop offset="0" stop-color="#724831"/>
      <stop offset=".42" stop-color="#7f553b"/>
      <stop offset="1" stop-color="#8e6346"/>
    </linearGradient>
    <linearGradient id="Gradient_27-2" data-name="Gradient 27" x1="85.99" y1="55.68" x2="98.39" y2="14.88" xlink:href="#Gradient_27"/>
    <linearGradient id="Gradient_27-3" data-name="Gradient 27" x1="72.72" y1="51.99" x2="85.41" y2="10.23" xlink:href="#Gradient_27"/>
    <linearGradient id="Gradient_27-4" data-name="Gradient 27" x1="64.02" y1="47.5" x2="76.42" y2="6.7" xlink:href="#Gradient_27"/>
    <linearGradient id="Gradient_115-3" data-name="Gradient 115" x1="104.09" y1="-151.34" x2="103.29" y2="-154.73" gradientTransform="translate(11.89 299.63) rotate(3.42)" xlink:href="#Gradient_115"/>
    <linearGradient id="Gradient_115-4" data-name="Gradient 115" x1="61.36" y1="-151.12" x2="60.63" y2="-154.21" gradientTransform="translate(11.89 299.63) rotate(3.42)" xlink:href="#Gradient_115"/>
    <linearGradient id="Gradient_27-5" data-name="Gradient 27" x1="118.25" y1="65.48" x2="130.64" y2="24.68" xlink:href="#Gradient_27"/>
    <linearGradient id="linear-gradient-21" x1="347.85" y1="974.83" x2="348.65" y2="947.66" gradientTransform="translate(-305.37 -798.17) rotate(-3.55)" gradientUnits="userSpaceOnUse">
      <stop offset="0" stop-color="#f7d4ab"/>
      <stop offset=".76" stop-color="#f2c89e"/>
      <stop offset="1" stop-color="#f0c499"/>
    </linearGradient>
    <linearGradient id="linear-gradient-22" x1="236" y1="782.09" x2="227.09" y2="750.45" gradientTransform="translate(-188.24 -608.24) rotate(-4.28)" xlink:href="#linear-gradient-7"/>
    <linearGradient id="linear-gradient-23" x1="128.32" y1="234.91" x2="125.67" y2="225.51" gradientTransform="translate(-9.75 -92.04) rotate(3.8)" gradientUnits="userSpaceOnUse">
      <stop offset="0" stop-color="#ffd9b3"/>
      <stop offset="1" stop-color="#f7d4ab"/>
    </linearGradient>
    <linearGradient id="linear-gradient-24" x1="102.85" y1="134.28" x2="102.58" y2="137.77" gradientUnits="userSpaceOnUse">
      <stop offset="0" stop-color="#e8d8d7"/>
      <stop offset=".34" stop-color="#ede1e0"/>
      <stop offset=".91" stop-color="#fcfafa"/>
      <stop offset="1" stop-color="#fff"/>
    </linearGradient>
    <linearGradient id="linear-gradient-25" x1="102.29" y1="155.24" x2="101.62" y2="140.51" gradientUnits="userSpaceOnUse">
      <stop offset="0" stop-color="#e8d8d7"/>
      <stop offset="1" stop-color="#fff"/>
    </linearGradient>
    <linearGradient id="linear-gradient-26" x1="103.54" y1="153.51" x2="103.45" y2="148.23" gradientUnits="userSpaceOnUse">
      <stop offset="0" stop-color="#f0c499"/>
      <stop offset=".52" stop-color="#f1c69b"/>
      <stop offset=".85" stop-color="#f4cea4"/>
      <stop offset="1" stop-color="#f7d4ab"/>
    </linearGradient>
    <linearGradient id="linear-gradient-27" x1="102.52" y1="133.56" x2="102.66" y2="138.1" xlink:href="#linear-gradient-24"/>
    <linearGradient id="linear-gradient-28" x1="102.19" y1="152.3" x2="101.53" y2="138.71" gradientUnits="userSpaceOnUse">
      <stop offset="0" stop-color="#e8d8d7"/>
      <stop offset=".35" stop-color="#ede1e1"/>
      <stop offset=".96" stop-color="#fdfcfc"/>
      <stop offset="1" stop-color="#fff"/>
    </linearGradient>
    <linearGradient id="Gradient_27-6" data-name="Gradient 27" x1="131.76" y1="69.59" x2="144.16" y2="28.79" xlink:href="#Gradient_27"/>
    <linearGradient id="Gradient_27-7" data-name="Gradient 27" x1="54.32" y1="46.06" x2="66.72" y2="5.26" xlink:href="#Gradient_27"/>
    <linearGradient id="Gradient_27-8" data-name="Gradient 27" x1="18.79" y1="-235.99" x2="28.15" y2="-234.75" gradientTransform="translate(11.89 299.63) rotate(3.42)" xlink:href="#Gradient_27"/>
    <linearGradient id="Gradient_27-9" data-name="Gradient 27" x1="144.15" y1="73.55" x2="157.3" y2="30.31" xlink:href="#Gradient_27"/>
    <linearGradient id="Gradient_58-3" data-name="Gradient 58" x1="36.25" y1="-146.5" x2="129.84" y2="-314.15" gradientTransform="translate(11.89 299.63) rotate(3.42)" xlink:href="#Gradient_58"/>
    <linearGradient id="Gradient_115-5" data-name="Gradient 115" x1="82.85" y1="-153.46" x2="82.46" y2="-158.58" gradientTransform="translate(10.43 323.27) rotate(3.42) scale(1 .93)" xlink:href="#Gradient_115"/>
    <linearGradient id="Gradient_113" data-name="Gradient 113" x1="80.85" y1="-183.17" x2="79.76" y2="-168.32" gradientTransform="translate(11.89 299.63) rotate(3.42)" gradientUnits="userSpaceOnUse">
      <stop offset="0" stop-color="#a18166"/>
      <stop offset="1" stop-color="#d6ac88"/>
    </linearGradient>
    <linearGradient id="linear-gradient-29" x1="179.78" y1="341.77" x2="180.48" y2="366.19" gradientTransform="translate(-92.81 -239.64) rotate(-2.17)" gradientUnits="userSpaceOnUse">
      <stop offset="0" stop-color="#f7d4ab"/>
      <stop offset=".52" stop-color="#f5d1a8"/>
      <stop offset=".85" stop-color="#f2c99f"/>
      <stop offset="1" stop-color="#f0c499"/>
    </linearGradient>
    <linearGradient id="linear-gradient-30" x1="180.09" y1="690.87" x2="181.6" y2="679.72" gradientTransform="translate(-123.28 -1043.06) rotate(-2.16) scale(1 1.7) skewX(.04)" xlink:href="#linear-gradient-6"/>
    <linearGradient id="Gradient_115-6" data-name="Gradient 115" x1="84.54" y1="-169.4" x2="83.35" y2="-174.48" gradientTransform="translate(10.43 323.27) rotate(3.42) scale(1 .93)" xlink:href="#Gradient_115"/>
    <linearGradient id="linear-gradient-31" x1="101.7" y1="184.34" x2="104.24" y2="332.34" gradientUnits="userSpaceOnUse">
      <stop offset="0" stop-color="#2b416b"/>
      <stop offset=".46" stop-color="#293e68"/>
      <stop offset=".75" stop-color="#23375f"/>
      <stop offset="1" stop-color="#192b51"/>
    </linearGradient>
    <linearGradient id="linear-gradient-32" x1="99.39" y1="192.57" x2="119.94" y2="192.57" gradientTransform="matrix(1,0,0,1,0,0)" xlink:href="#linear-gradient-6"/>
    <linearGradient id="linear-gradient-33" x1="116.03" y1="364.46" x2="87.7" y2="213.17" xlink:href="#linear-gradient-31"/>
    <linearGradient id="linear-gradient-34" x1="70.51" y1="261.51" x2="71.36" y2="220.07" xlink:href="#linear-gradient-31"/>
    <linearGradient id="linear-gradient-35" x1="71.43" y1="303.31" x2="71.43" y2="180.1" xlink:href="#linear-gradient-31"/>
    <linearGradient id="linear-gradient-36" x1="77.79" y1="207.7" x2="76.75" y2="136.04" xlink:href="#linear-gradient"/>
    <linearGradient id="linear-gradient-37" x1="76.51" y1="341.35" x2="121.82" y2="188.42" xlink:href="#linear-gradient-31"/>
    <linearGradient id="linear-gradient-38" x1="131.4" y1="265.86" x2="132.28" y2="222.69" xlink:href="#linear-gradient-31"/>
    <linearGradient id="linear-gradient-39" x1="132.99" y1="314.64" x2="132.99" y2="177.37" xlink:href="#linear-gradient-31"/>
    <linearGradient id="linear-gradient-40" x1="126.27" y1="207.22" x2="125.38" y2="145.64" xlink:href="#linear-gradient"/>
    <linearGradient id="linear-gradient-41" x1="112.65" y1="225.89" x2="122.94" y2="243.21" xlink:href="#linear-gradient-31"/>
    <linearGradient id="linear-gradient-42" x1="146.34" y1="222.86" x2="157.14" y2="241.04" xlink:href="#linear-gradient-31"/>
  </defs>
  <g id="Layer_1-2" data-name="Layer 1">
    <g style="clip-path: url(#clippath);">
      <g>
        <path d="M70.58,171.44s25.47-18.7,63.1-2.44c0,0,17.81,22.47.85,38.81s-59.9,14.8-66.11,1.41c-6.2-13.39-2.78-34.93,2.16-37.78Z" style="fill: url(#linear-gradient);"/>
        <path d="M134.42,188.78l6.66-8.51s-7.23-2.17-10.07-16.92c-.12.11-.24.22-.36.33-.87,8.81.71,17.24,3.77,25.09Z" style="fill: url(#linear-gradient-2);"/>
        <path d="M130.65,163.69c-11.43,10.5-16.96,14.97-31.67,14.05-5.69,0-16.94,2.61-24.05-2.09,5.96,11.97,17.22,21.08,26.44,29.14,3.8,3.8,5.36,10.31,7.33,16.85l25.73-32.86c-3.06-7.85-4.64-16.28-3.77-25.09Z" style="fill: url(#linear-gradient-3);"/>
        <path d="M83.29,177.12s-9.84-2.47-10.52-3.02c-1.21,2.84-2.69,5.81-4.52,8.9l31.5,51.88,8.94-13.23c-1.96-6.54-3.52-13.04-7.33-16.85-9.22-8.06-14.7-16.01-18.07-27.68Z" style="fill: url(#linear-gradient-4);"/>
        <path d="M131.01,163.36c-.53-2.76-.91-5.96-1.06-9.66l-58.14-14.7s3.12,16.83.97,35.1c7.04,5.71,20.98,6.64,27.26,6.64,14.87.93,25.81-7.81,30.97-17.38Z" style="fill: url(#linear-gradient-5);"/>
        <path d="M223.41,223.05c-15.56-5.75-74.21-32.38-74.21-32.38l-47.79,44.91-40.82-44.91s-68.63,27.64-79.27,32.38l28.4,84.45-.06,4.45h186.72l27.03-88.9Z" style="fill: #192b51;"/>
        <g>
          <path d="M57.89,100.25s3.46,47.13,4.78,49.1c1.32,1.97,21.18,16.52,23.74,18.7,2.56,2.19,29.19.84,29.19.84,0,0,22.37-16.51,24.31-19.72,1.94-3.22,5.25-49.67,5.25-49.67,0,0,5.87-37.88-3.19-50.88-9.06-12.99-70.81-17.2-81.05.87-10.24,18.07-3.03,50.76-3.03,50.76Z" style="fill: url(#linear-gradient-6);"/>
          <g>
            <path d="M152.98,95.58c9.66-.71,3.36,14.45,3.36,14.45-3.74,19.63-2.13,23-10.71,22.27-6.35-.54.45-36.22,7.35-36.72Z" style="fill: #f0c499;"/>
            <path d="M147.22,123.8s3.06-3.43,2.9-10.78c-.37-17.33,8.75-17.65,5.61-6.14,0,0-.73-5.63-2.03-4.09-1.59,1.89,1.21,3.29-1.1,12-1.21,4.53-5.38,9.02-5.38,9.02Z" style="fill: url(#linear-gradient-7);"/>
          </g>
          <g>
            <path d="M50.65,95.85c-9.65-.39-3.52,14.56-3.52,14.56,3.53,19.51,3,22.41,10.47,21.92,8.39-.55-.05-36.21-6.95-36.49Z" style="fill: #f0c499;"/>
            <path d="M56.11,123.89s-3.02-3.33-2.78-10.69c.56-17.35-8.56-17.37-5.54-5.96,0,0,.79-5.66,2.07-4.16,1.57,1.84-1.24,3.33.97,11.96,1.16,4.49,5.28,8.85,5.28,8.85Z" style="fill: url(#linear-gradient-8);"/>
          </g>
          <path d="M114.43,88.97s-6.52,7.88-6.38,8.76c.14.87,1.26,11.39,1.26,11.39,0,0,25.42-.8,28.74-1.84,3.32-1.04,5.05-11.26,5.05-11.26l-6.01-9.76s-5.28-2.41-6.02-1.91c-.74.5-16.64,4.63-16.64,4.63Z" style="fill: url(#linear-gradient-9);"/>
          <path d="M87.91,88.95s6.43,7.49,6.32,8.37c-.11.88-.45,11.57-.45,11.57,0,0-25.43.15-28.79-.76-3.36-.91-4.44-7.4-4.44-7.4l.55-6.38s5.44-4.95,6.13-5.51c5.35-4.38,20.68.11,20.68.11Z" style="fill: url(#linear-gradient-10);"/>
          <path d="M126.9,132.26c8.21.5,17.38-.56,19.02-17.26.94-9.51-.12-14.47-4.19-15.2-8.62-1.54-20.96,2.21-26.09,4.87-10.84,5.61-3.29,26.69,11.26,27.59Z" style="fill: url(#radial-gradient);"/>
          <path d="M85.79,103.4c-2.35-.83-20.24-4.75-25.55-3.2-3.03.88-1.73,7.58-1.19,13.94.26,3.05.24,7.94.95,9.85,3.48,9.4,16.59,9.75,24.15,7.09,12.9-4.54,13.57-23.47,1.65-27.69Z" style="fill: url(#radial-gradient-2);"/>
          <path d="M140.9,106.32c-1.49-.81-2.58.38-5.65,1.38-3.01.99-11.25,2.55-7.37,4.6,4.29,2.27,10.27-.89,10.99-1.48.72-.59,3.86-3.5,2.03-4.5Z" style="fill: url(#linear-gradient-11);"/>
          <path d="M68,108.63c-3.13-.82-4.29-1.94-5.73-1.05-1.77,1.11,1.54,3.83,2.3,4.37.76.55,6.91,3.34,11.06.83,3.75-2.28-4.56-3.35-7.63-4.15Z" style="fill: url(#linear-gradient-12);"/>
          <path d="M71.75,84.21c3.03-2.81,10.7-.23,14.5.85,2.15.61,5.19,1.48,6.97,2.72-.08,1.27-.28,2.15-1.03,3.48,1.08-.53,1.65-1.86,1.7-2.88.05.04.93,2.56-1.04,4.66-.94,1-4.11-.87-12.01-3.15-2.15-.62-5.75-1.89-8.98-1.7-1.18.07-3.68.65-3.68.65-.13-.45,2.13-3.29,3.57-4.63Z" style="fill: url(#Gradient_58);"/>
          <path d="M131.91,83.84c-2.3-2.17-9.89-.57-13.82.51-2.01.55-7.24,1.57-9.12,2.75.03,1.27.2,2.16.92,3.51-1.09-.56-1.61-1.92-1.63-2.94-.05.04-1.05,2.52.88,4.69.92,1.03,4.25-.72,12.42-2.72,2.22-.54,6.96-1.69,9.27-1.38,1.2.16,5.44.59,5.44.59.15-.44-1.79-2.58-4.37-5.01Z" style="fill: url(#Gradient_58-2);"/>
          <g>
            <path d="M111.24,104.51c-1.02-1.22.04-3.84.61-5.47,1.79-5.11,5.68-6.8,13.72-6.97,2.64-.06,7.2.5,10,3.08,2.16,1.99,3.4,3.96,3.16,5.73-.12.9-4.35,5.97-13.12,6.23-5.74.18-12.26-.05-14.38-2.59Z" style="fill: url(#linear-gradient-13);"/>
            <path d="M134.58,100.81c-.22.59-.54,1.11-.94,1.59-.62.75-1.41,1.36-2.3,1.83-.33.15-.68.25-1.05.33-.05.02-.1.02-.14.03-.59.13-1.14.26-1.67.36-2.78.56-4.92.82-6.75.82-.75,0-1.43-.05-2.08-.13-.32-.03-.63-.1-.94-.18-2.67-.62-4.67-2.37-5.05-3.09,0,0,0-.02.02-.03v-.02c.14-.33,1.18-2.55,2.83-4.31,1.03-1.1,2.32-2.01,3.8-2.17.48-.05.94-.1,1.4-.11,8.32-.34,12.48,4.59,12.86,5.07.02.02.02.03.02.03Z" style="fill: url(#linear-gradient-14);"/>
            <path d="M134.56,100.77s.02.04.02.04c-.23.59-.55,1.12-.94,1.59-.1-.06-.22-.13-.35-.2-.84-.45-2.35-1.07-5.2-1.3-11.74-.97-14.28,1.3-14.41,1.42,0,0,0,0,0,0,.36-1.86,1.42-3.27,2.83-4.32,1.48-1.1,3.34-1.83,5.19-2.29,1.53-.38,3.04-.59,4.33-.69,4.16-.32,8.17,5.24,8.53,5.75Z" style="fill: #ddd;"/>
            <path d="M131.02,102.85c-.06.34-.24,1.27-.44,1.63-.13.08-.59.26-.76.34-.59.13-1.22.32-1.75.42-2.78.56-4.52.51-6.34.51-.75,0-1.43-.05-2.08-.13-.32-.03-.63-.1-.94-.18-.57-.75-1.11-1.85-1.08-3.35.09-3.97,3.43-5.74,7.11-5.44,3.67.31,6.86,2.37,6.27,6.19Z" style="fill: url(#Gradient_96);"/>
            <path d="M117.77,100.91s5.21-1.14,13.3.56c0,0-.15-4.13-5.02-5.02-4.57-.84-7.94,2.1-8.28,4.46Z" style="fill: url(#Gradient_96-2);"/>
            <path d="M124.71,97.21c-2.25-.12-4.33,1.64-4.44,3.91-.11,2.26,1.79,4.17,4.04,4.29,2.26.12,4.17-1.62,4.28-3.89.11-2.26-1.63-4.19-3.88-4.31Z" style="fill: url(#Gradient_25);"/>
            <path d="M124.56,97.2c-2.66-.15-3.9,1.79-4.23,3.4,0,0,4.37-.43,8.26.38,0,0-.21-3.57-4.02-3.78Z"/>
            <path d="M130.15,103.91c.44-.82.09-1.88-.77-2.36-.86-.48-1.92-.2-2.36.63-.44.83-.1,1.88.77,2.36.86.48,1.92.2,2.37-.63Z" style="fill: #fff;"/>
            <path d="M126.03,101.72c.35-.65.08-1.48-.6-1.86-.68-.38-1.52-.16-1.87.49-.35.65-.08,1.48.6,1.86.68.38,1.52.16,1.87-.49Z" style="fill: #fff;"/>
            <path d="M113.67,102.34s-.39-3.12,3.35-5.66c3.93-2.67,10.57-2.6,14.42-.19,2.32,1.45,3.14,4.32,3.14,4.32,0,0-4.89-3.47-10.13-3.23-2.9.13-4.01.39-5.32.7-3.41.82-5.46,4.06-5.46,4.06Z" style="fill: url(#linear-gradient-15);"/>
          </g>
          <path d="M70.11,53.65c1.7-.82,26.71,2.72,30.63,1.83,3.92-.89,24.99-4.72,29.08-2.44,4.09,2.28,6.98,6.83,7.38,9.34.4,2.51-.25,14.94,0,16.96s3.79,4.54,4.8,16.26c1.01,11.72.48,22.84-.15,27.71-.62,4.87-5.1,21.02-5.1,21.02l8.19-23.61s.82-2.8,1-5.72c.18-2.93,2.36-38.55,2.36-38.55l-11.72-34.68-68.71-3.29-14.86,33.24,3.84,40.14,1.86,5.41,5.81,20.45s-2.22-24.63-2.93-26.1c-.71-1.47-.71-14.78-.47-17.27.66-6.78,4.03-13.37,4.45-15.17s-1.69-14.6-1.26-16.41c.43-1.8,5.81-9.12,5.81-9.12Z" style="fill: url(#linear-gradient-16);"/>
          <g>
            <path d="M92.38,104.83c1.01-1.22-.04-3.84-.61-5.48-1.77-5.11-5.63-6.8-13.6-6.98-2.62-.06-7.14.5-9.92,3.08-2.14,1.99-3.37,3.96-3.13,5.73.12.9,4.31,5.97,13,6.24,5.68.18,12.15-.04,14.25-2.59Z" style="fill: url(#linear-gradient-17);"/>
            <path d="M89.98,102.68c-.36.7-2.23,2.34-4.71,3.01-.39.11-.8.21-1.23.26-.64.08-1.34.13-2.08.13-1.79,0-3.92-.26-6.67-.82-.35-.07-.69-.15-1.05-.21-.25-.07-.5-.11-.76-.16-.36-.08-.69-.2-1.02-.33-.88-.47-1.67-1.1-2.28-1.85-.39-.46-.71-1-.93-1.58,0,0,0-.02.02-.03.38-.46,4.5-5.39,12.75-5.06.44.03.91.07,1.39.11,1.46.16,2.72,1.08,3.76,2.17,1.64,1.77,2.66,3.99,2.8,4.32v.02s.02.03.02.03Z" style="fill: url(#linear-gradient-18);"/>
            <path d="M69.28,101.09s-.02.04-.02.04c.23.59.54,1.12.93,1.59.1-.06.22-.13.35-.2.83-.45,2.33-1.07,5.15-1.3,11.64-.97,14.15,1.3,14.28,1.42,0,0,0,0,0,0-.36-1.86-1.41-3.27-2.81-4.32-1.46-1.1-3.31-1.83-5.14-2.29-1.51-.38-3.01-.59-4.3-.69-4.12-.32-8.1,5.24-8.45,5.74Z" style="fill: #ddd;"/>
            <path d="M86.29,102.42c.03,1.45-.47,2.53-1.01,3.27-.39.11-.8.21-1.23.26-.64.08-1.34.13-2.08.13-1.79,0-3.53.13-6.26-.51-.34-.08-1.03-.35-1.39-.42-.33-.11-.59-.13-.79-.26-.21-.38-.46-1.38-.51-1.72-.58-3.83,2.58-5.88,6.22-6.18,3.65-.31,6.96,1.46,7.05,5.43Z" style="fill: url(#Gradient_96-3);"/>
            <path d="M86.15,101.23s-5.16-1.14-13.18.56c0,0,.15-4.13,4.98-5.02,4.53-.83,7.87,2.1,8.2,4.46Z" style="fill: url(#Gradient_96-4);"/>
            <path d="M79.28,97.53c2.23-.12,4.29,1.64,4.4,3.91.11,2.26-1.78,4.17-4.01,4.29-2.24.12-4.14-1.63-4.24-3.89-.11-2.26,1.62-4.19,3.85-4.31Z" style="fill: url(#Gradient_25-2);"/>
            <path d="M79.42,97.52c2.64-.15,3.86,1.79,4.2,3.4,0,0-4.33-.43-8.18.38,0,0,.21-3.57,3.99-3.78Z"/>
            <path d="M81.23,104.71c-.43-.82-.09-1.88.77-2.36.86-.48,1.9-.2,2.34.63.44.83.09,1.88-.76,2.36-.85.48-1.91.2-2.34-.63Z" style="fill: #fff;"/>
            <path d="M78.39,102.31c-.35-.65-.08-1.48.6-1.86.68-.38,1.51-.16,1.85.5.35.65.08,1.48-.6,1.86-.68.38-1.51.16-1.85-.5Z" style="fill: #fff;"/>
            <path d="M89.97,102.66s.39-3.12-3.32-5.66c-3.89-2.67-10.48-2.6-14.29-.2-2.3,1.45-3.11,4.32-3.11,4.32,0,0,4.85-3.47,10.04-3.22,2.88.13,3.98.39,5.27.7,3.38.82,5.41,4.06,5.41,4.06Z" style="fill: url(#linear-gradient-19);"/>
          </g>
          <path d="M62.08,54.72s6.71-9.75,23.67-7.09c11.28,1.77,11.75,1.65,15.54,2.48,3.79.84,21.94-6.15,29.92-3.03,7.98,3.12,8.76,12.33,8.83,16.87.06,4.54-.91,15.23.2,15.94,1.1.71,5.1,5.19,4.74,11.41s.96,23.7.96,23.7c0,0,1.29-18.9,7.71-19.44l.4-13.02s2.57-8.94,2.79-12.64c.41-6.97-1.57-12.9-1.68-14.07-.29-3-5.41-8.19-6.3-9.19,0,0,3.25-6.99-5.67-11.86,0,0-1.81-14.62-17.62-17.93s-29.1-2.41-33.98-.7c0,0-17.44-4.46-26.03,6.96,0,0-11.01,4.38-12.13,15.22s2.58,15.25,3.19,15.09l5.47,1.31Z" style="fill: url(#Gradient_32);"/>
          <path d="M63.77,53.41s-5.47,7.03-3.68,21.07c0,0-2.75,7.7-2.75,12.81,0,5.11,1.51,24.83,1.51,24.83,0,0-3.34-16.75-9.65-16.19,0,0-1.22-11.56-1.54-12.3,0,0-4.89-9.16-1.45-19.9,1.99-6.2,10.39-10.32,10.39-10.32h7.17Z" style="fill: url(#Gradient_32-2);"/>
          <path d="M79.69,150.86s11.29,6.63,11.94,6.52c.64-.11,8.45-4.94,8.45-4.94,0,0,8.46,5.69,10.91,5.5,2.45-.19,12.4-7.5,12.4-7.5,0,0-7.89,11.17-10.4,12.35-2.51,1.18-27.76-.27-27.76-.27l-5.55-11.66Z" style="fill: url(#linear-gradient-20);"/>
          <path d="M144.93,120.62s-1.45,23.06-3.46,27.54c-2.02,4.48-24.3,22.25-28.56,25.78-4.26,3.53-20.3.54-23.36,0-3.06-.54-25.37-20.83-28.42-25.78-3.05-4.95-2.08-34.02-2.08-34.02,0,0,4.01,20.64,6.82,24.63,2.81,3.99,20.75,17.53,23.78,19.53,1.28.85,4.05,1.35,6.15-1.51,2-2.72,1.06-4.1,6.18-3.79,4.1.24,3.25,1.91,6.19,5.36,2.08,2.43,4.02,1.38,5.34.23,2.8-2.45,24.51-19.38,25.44-21.57.93-2.18,5.99-16.41,5.99-16.41Z" style="fill: url(#Gradient_115);"/>
          <path d="M78.9,140.68c3.31-7.49,14.4-13.43,15.62-13.05,7.39,2.25,14.88-.52,15.83-.83.94-.3,11.2,7.86,13.39,12.11,2.19,4.25,3.69,10.07,4.11,12.62.51,3.15-4.93,4.87-4.93,4.87,0,0,.28-8.73-.55-11.93-5.92-2.79-29.01-8.6-29.01-8.6,0,0-7.31,4.41-11.98,5.72-.37,4.68-.83,13.11-.83,13.11,0,0-2.84.5-5.12-3.89.55-5.6,2.49-7.87,3.48-10.13Z" style="fill: url(#Gradient_115-2);"/>
          <path d="M101.76,41.2s-.18-23.3,28.56-22.86c0,0-16.7-10.06-27.31,1.54-10.61,11.6-1.26,21.32-1.26,21.32Z" style="fill: url(#Gradient_27);"/>
          <path d="M88.74,38.91s1.28-18.05,18.09-22.17c0,0-5.6-7.17-15.24-.59-9.64,6.58-2.85,22.76-2.85,22.76Z" style="fill: url(#Gradient_27-2);"/>
          <path d="M81.72,40.01s-3.53-19.22,9.87-23.86c0,0-10.37-7.22-16.6,3.39-6.22,10.61,6.73,20.47,6.73,20.47Z" style="fill: url(#Gradient_27-3);"/>
          <path d="M69.44,41.2s-12.22-11.02-3.89-19.6,15.59-5.48,15.59-5.48c0,0-8.26,5.12-9.79,11.26-1.53,6.14-1.91,13.83-1.91,13.83Z" style="fill: url(#Gradient_27-4);"/>
          <path d="M121.43,146.51l1.72-1.55-.6-3.64s3.02,4.02,2.85,6.04c-.08.89-3.97-.86-3.97-.86Z" style="fill: url(#Gradient_115-3);"/>
          <path d="M83.29,145.35l-1.78-1.01s-.1-4.56-.13-4.4c0,0-1.69,3.29-2.62,5.41-1,2.26,4.54,0,4.54,0Z" style="fill: url(#Gradient_115-4);"/>
          <path d="M111.73,38.5s.12-14.97,11.74-17.65c11.62-2.68,18.37,4.36,19.71,13.93,0,0-2.68-11.01-16.6-6.72-9.42,2.91-14.85,10.44-14.85,10.44Z" style="fill: url(#Gradient_27-5);"/>
          <g>
            <path d="M92.7,132.76c1.71-.18,5.47.93,11.7,1.47,13.51-1.11,19.56,5.24,18.96,11.9-8.17-.3-19.67-1.24-20.37-1.11-12.3-.3-19.36,1.11-22.08.91-.81-1.11-1.27-11.81,11.79-13.17Z" style="fill: url(#linear-gradient-21);"/>
            <path d="M115.59,136.04c-3.29-1.1-8.58-.55-11.76-.54-3.36,0-10.42-2.89-15.63-.94-6.08,2.27-9.64,12.37-6.98,11.49,5.85-.73,17.91-2.28,22.18-2.24,1.72.01,12.38,1.53,19.36,3.23,4.35,1.05-1.11-8.97-7.16-10.99Z" style="fill: url(#linear-gradient-22);"/>
            <path d="M93.61,145.62c4.03-.6,15.83-.1,18.69.43,15.19,2.81-7.71,1.77-11.61,1.66-3.9-.11-24.97.6-7.07-2.09Z" style="fill: url(#linear-gradient-23);"/>
            <path d="M86.67,144.31c-2.13.11-3.06-.03-4.11-.52-1.05-.49,0-7.21,6.76-8.56,6.76-1.35,10.36.9,13.52.9s10.36-1.8,15.32,2.25c4.96,4.06,7.21,8.56,3.15,7.66-4.05-.9-14.51-3.23-19.36-3.15-1.6.03-10.04,1.14-15.27,1.41Z" style="fill: #711e22;"/>
            <path d="M87.1,135.94s0,2.47,1.82,2.32c3.14-.26,29.23.13,29.23.13,0,0-1.81-1.89-6.29-2.55-1.78-.26-3.96-.15-8.47.3-2.61.26-5.58-1.52-10.08-1.36-4.39.15-6.2,1.16-6.2,1.16Z" style="fill: url(#linear-gradient-24);"/>
            <path d="M84.24,144.27s-.53-1.7,1.16-2.58c2.82-1.48,13.71-.87,17.83-.96,2.43-.05,12.62.45,14.42,1.8,1.8,1.35,1.8,3.1,1.8,3.1,0,0-9.81-2.35-14.76-2.6-4.74-.24-14.1,1.34-20.46,1.24Z" style="fill: url(#linear-gradient-25);"/>
            <path d="M87.97,151.46s12.62-2.7,18.92-1.8c6.31.9,12.16,2.7,12.16,2.7,0,0-12.62-.9-15.32-.9h-15.77Z" style="fill: url(#linear-gradient-26);"/>
            <path d="M87.1,135.94s1.73-1.13,5.81-1.19c5.19-.08,7.55,1.19,9.56,1.29,2.02.1,5.85-.6,8.62-.35,2.77.25,5.48.97,7.05,2.7l-2.77-.05s-1.71-1.09-8.02-1.19c-6.3-.1-8.12-.55-9.73-.91-1.61-.35-8.72.01-10.39.72,0,0-.13-.53-.15-1.02Z" style="fill: url(#linear-gradient-27);"/>
            <path d="M90.23,144.07c-1.71.11-4.92.51-6.02.2,0,0-.06-.54-.03-.77.2-.01,3.38.3,6.71-.2s11.9-1.26,13.66-1.06c1.76.2,13.93,2.14,14.78,2.66.11.42.14.74.14.74,0,0-10.73-2.38-15.13-2.55-5.26-.2-8.12.58-14.12.97Z" style="fill: url(#linear-gradient-28);"/>
          </g>
          <path d="M129.58,44.2s12.98-6.74,19.28,2.45c0,0,.7-10.13-9.07-10.71-9.77-.58-10.21,8.26-10.21,8.26Z" style="fill: url(#Gradient_27-6);"/>
          <path d="M56.61,53.41s-7.53-5.15-2.87-20.3c2.37-7.72,11.82-10.01,11.82-10.01,0,0-3.79,3.04-8.95,16.14-2.42,6.15,0,14.16,0,14.16Z" style="fill: url(#Gradient_27-7);"/>
          <path d="M56.61,53.41s-7.71.13-11.4,9.65c-2.02,5.23,4.08,17.1,4.08,17.1,0,0-1.33-11.29.64-16.96,2.23-6.43,6.68-9.79,6.68-9.79Z" style="fill: url(#Gradient_27-8);"/>
          <path d="M141.95,48.97s9.49-4.29,13.18,5.26c2.39,6.19,2.63,10.45-2.09,18.58,0,0,.36-12.45-1.9-15.98-2.26-3.52-9.18-7.85-9.18-7.85Z" style="fill: url(#Gradient_27-9);"/>
          <path d="M59.05,114.15s.22-6.89.04-18.3c-.1-6.64,1-11.37,4.68-16.86,0,0-2.01-15.79-1.13-17.85,1.96-4.58,8.63-10.88,9.86-11.08,1.23-.2,26.67,2.04,29.81,1.68s23.14-3.69,28.89-.73c2.41,1.25,8.5,6.82,8.66,9.89.16,3.07-.75,18.29-.75,18.29,0,0,5.01,5.78,4.92,14.05s1.88,21.76,1.88,21.76c0,0,2.13-25.41,1.9-28.28s-1.6-27.22-2.7-29.72c-1.1-2.51-10.18-11.81-15.55-12.8-5.36-1-27.44,1.45-28.42,2.06s-27.25-6.42-31.71-3.55c-4.45,2.87-13.04,12.9-13,15.49.04,2.6-1.57,23.5-1.52,25.49.02.85,4.13,30.45,4.13,30.45Z" style="fill: url(#Gradient_58-3);"/>
          <path d="M72.44,160.03s13.99,11.12,17.55,11.96c4.52,1.06,18.51,2.41,23.04.43,3.82-1.68,16.67-12.45,16.67-12.45,0,0-11.54,13.54-16.84,15.28-3.29,1.08-19.28,1.18-23.62-.21-4.33-1.38-15.9-13.91-16.8-15.01Z" style="fill: url(#Gradient_115-5);"/>
          <path d="M91.63,128.89s10.77,4.65,11.24,4.55c.47-.11,10.63-4.67,10.63-4.67,0,0-1.29-2.05-3.14-2.16-3.2-.19-6.53,2.72-8.73,2.18-.95-.23-5.74-1.59-8.32-1.73-1.85-.1-1.68,1.83-1.68,1.83Z" style="fill: url(#Gradient_113);"/>
          <g>
            <path d="M106.38,128.12c6.5-5.18,7.12.65,7.12.65-3.59-2.91-7.12-.65-7.12-.65Z" style="fill: #dca57b;"/>
            <path d="M91.63,128.89s.89-1.78,5.64-.37c0,0-7.9-5.1-5.64.37Z" style="fill: #dca57b;"/>
            <path d="M108.77,110.49c.05,2.45,1.34,11.63.65,13.06-1.54,3.17-4.59,4.52-7.48,4.39-2.17.35-6.11-.6-8.36-3.77-.92-1.29.69-10.52.2-13.11,0,0-9.37,16.94-2.15,17.82,0,0-1.18-1.9,1.68-1.83,2.54.06,3.88,4.45,8.88,4.26,5.52-.21,4.55-4.12,7.47-4.62,3.62-.63,3,1.75,3.84,2.07,3.6-1.61-1.3-13.95-4.73-18.27Z" style="fill: url(#linear-gradient-29);"/>
            <path d="M97.54,120.35c-.15,2.73.21,5.64,4.23,5.55,4.42-.11,4.49-3.09,4.03-5.58-2.74-14.72-7.72-10.12-8.26.03Z" style="fill: url(#linear-gradient-30);"/>
          </g>
          <path d="M94.31,158.49s3.14-4.81,4-5.74c.83-.9,5.57-.59,6.36.38.81,1,5.06,6.96,5.06,6.96,0,0-5.73-4.73-6.25-5.07-.52-.34-2.34-1.34-3.67-.85-1.33.49-5.5,4.33-5.5,4.33Z" style="fill: url(#Gradient_115-6);"/>
        </g>
        <path d="M-18.68,223.05s34.61,62.94,44.87,69.91c10.05,6.83,149.97,11.02,163.56-4.36l33.66-65.55-75.82-40.06-25.55,19.4-22.29,32.48-39.06-50.54-79.37,38.72Z" style="fill: url(#linear-gradient-31);"/>
        <path d="M99.39,185.31s14.38.95,19.77-2.32c4.71-2.85-13.45,19.15-14.94,19.39-1.49.24-4.83-17.08-4.83-17.08Z" style="fill: url(#linear-gradient-32);"/>
        <g>
          <path d="M86.99,203.82s6.83,6.28,8.09,7.39c1.21,1.06,4.95,18.55,4.95,18.55l-2.15,36.69-19.64-54.48,8.75-8.14Z" style="fill: url(#linear-gradient-33);"/>
          <path d="M56.62,191.92c0,4.09,7.23,33.57,7.7,35.15,0,0,8.93-7.71,14.93-12.5l7.74-10.75s-30.37-15.99-30.37-11.9Z" style="fill: url(#linear-gradient-34);"/>
          <path d="M72.09,170.46s-4.95,6.31-2.42,14.92c2.37,8.05,17.32,18.44,17.32,18.44,0,0-17.89,14.96-21.35,18.33-2.42-8.47-11.57-31.91-9.46-35.24,4.05-6.4,9.85-13.15,15.91-16.46Z" style="fill: url(#linear-gradient-35);"/>
          <path d="M72.09,170.46s-6.34,8.26,1.06,19.17c5.29,7.81,13.85,14.19,13.85,14.19,0,0-11.6-8.15-14.62-11.87-9.34-11.48-.28-21.5-.28-21.5Z" style="fill: url(#linear-gradient-36);"/>
          <path d="M115.52,203.52c-2.29,1.5-5.28,3.58-9,6.48-1.57,1.22-7.59,21.77-7.07,26.47.07.62.11,1.55.12,2.66,5.63-1.64,12.14-2.05,17.9-3.27.69-6.2.88-12.67,1.49-18.46.04-.37.33-5.32.33-5.32.38-3.66.16-3.46.33-5.85-2.01-.16-3.45-1.22-4.1-2.71Z" style="fill: url(#linear-gradient-37);"/>
          <path d="M115.52,203.52l3.77,8.56c4.24,3.31,17.16,11.62,23.79,14.99.81.41,5.84-30.09,7.04-38.56l-34.61,15.01Z" style="fill: url(#linear-gradient-38);"/>
          <path d="M115.52,203.52s24.1,16.27,27.17,19.59c2.69-10.61,7.76-30.97,7.76-37.04,0-3.19-13.63-15.47-16.77-17.07,0,0,1.77,5.23.87,10.31-3.22,18.22-19.03,24.21-19.03,24.21Z" style="fill: url(#linear-gradient-39);"/>
          <path d="M115.52,203.52s23.66-11.19,18.16-34.52c0,0,13.59,22.67-18.16,34.52Z" style="fill: url(#linear-gradient-40);"/>
          <path d="M115.52,203.52s-6.61,4.6-9.72,6.19c-3.11,1.6-5.9,21.93-5.9,21.93,0,0,5.63-17.71,6.65-19.36,1.02-1.65,8.97-8.76,8.97-8.76Z" style="fill: url(#linear-gradient-41);"/>
        </g>
        <path d="M127.97,212.08l14.73,11.03,4.57-18.83s-4.43,12.8-5.5,13.13c-1.07.33-13.8-5.33-13.8-5.33Z" style="fill: url(#linear-gradient-42);"/>
      </g>
    </g>
  </g>
</svg>