<?xml version="1.0" encoding="UTF-8"?>
<svg id="Layer_2" data-name="Layer 2" xmlns="http://www.w3.org/2000/svg" xmlns:xlink="http://www.w3.org/1999/xlink" viewBox="0 0 302.32 298.58">
  <defs>
    <style>
      .cls-1 {
        fill: url(#Gradient_58);
      }

      .cls-2 {
        fill: url(#Gradient_32);
      }

      .cls-3 {
        fill: url(#Gradient_96);
      }

      .cls-4 {
        fill: url(#Gradient_27);
      }

      .cls-5 {
        fill: url(#Gradient_25);
      }

      .cls-6 {
        fill: url(#Gradient_113);
      }

      .cls-7 {
        fill: url(#Gradient_115);
      }

      .cls-8 {
        fill: url(#radial-gradient-2);
      }

      .cls-9 {
        fill: url(#linear-gradient-8);
      }

      .cls-10 {
        fill: url(#linear-gradient-7);
      }

      .cls-11 {
        fill: url(#linear-gradient-5);
      }

      .cls-12 {
        fill: url(#linear-gradient-6);
      }

      .cls-13 {
        fill: url(#linear-gradient-9);
      }

      .cls-14 {
        fill: url(#linear-gradient-4);
      }

      .cls-15 {
        fill: url(#linear-gradient-3);
      }

      .cls-16 {
        fill: url(#linear-gradient-2);
      }

      .cls-17 {
        fill: url(#radial-gradient);
      }

      .cls-18 {
        fill: url(#linear-gradient);
      }

      .cls-19 {
        fill: #ddd;
      }

      .cls-20 {
        fill: #192b51;
      }

      .cls-21 {
        fill: #fff;
      }

      .cls-22 {
        fill: #f0c499;
      }

      .cls-23 {
        fill: #711e22;
      }

      .cls-24 {
        fill: url(#Gradient_115-4);
      }

      .cls-25 {
        fill: url(#Gradient_115-5);
      }

      .cls-26 {
        fill: url(#Gradient_115-6);
      }

      .cls-27 {
        fill: url(#Gradient_115-3);
      }

      .cls-28 {
        fill: url(#Gradient_115-2);
      }

      .cls-29 {
        fill: url(#linear-gradient-43);
      }

      .cls-30 {
        fill: url(#linear-gradient-40);
      }

      .cls-31 {
        fill: url(#linear-gradient-41);
      }

      .cls-32 {
        fill: url(#linear-gradient-42);
      }

      .cls-33 {
        fill: url(#linear-gradient-49);
      }

      .cls-34 {
        fill: url(#linear-gradient-48);
      }

      .cls-35 {
        fill: url(#linear-gradient-45);
      }

      .cls-36 {
        fill: url(#linear-gradient-47);
      }

      .cls-37 {
        fill: url(#linear-gradient-44);
      }

      .cls-38 {
        fill: url(#linear-gradient-46);
      }

      .cls-39 {
        fill: url(#linear-gradient-10);
      }

      .cls-40 {
        fill: url(#linear-gradient-11);
      }

      .cls-41 {
        fill: url(#linear-gradient-12);
      }

      .cls-42 {
        fill: url(#linear-gradient-13);
      }

      .cls-43 {
        fill: url(#linear-gradient-19);
      }

      .cls-44 {
        fill: url(#linear-gradient-14);
      }

      .cls-45 {
        fill: url(#linear-gradient-21);
      }

      .cls-46 {
        fill: url(#linear-gradient-20);
      }

      .cls-47 {
        fill: url(#linear-gradient-22);
      }

      .cls-48 {
        fill: url(#linear-gradient-23);
      }

      .cls-49 {
        fill: url(#linear-gradient-28);
      }

      .cls-50 {
        fill: url(#linear-gradient-25);
      }

      .cls-51 {
        fill: url(#linear-gradient-32);
      }

      .cls-52 {
        fill: url(#linear-gradient-31);
      }

      .cls-53 {
        fill: url(#linear-gradient-33);
      }

      .cls-54 {
        fill: url(#linear-gradient-30);
      }

      .cls-55 {
        fill: url(#linear-gradient-15);
      }

      .cls-56 {
        fill: url(#linear-gradient-16);
      }

      .cls-57 {
        fill: url(#linear-gradient-17);
      }

      .cls-58 {
        fill: url(#linear-gradient-18);
      }

      .cls-59 {
        fill: url(#linear-gradient-35);
      }

      .cls-60 {
        fill: url(#linear-gradient-34);
      }

      .cls-61 {
        fill: url(#linear-gradient-36);
      }

      .cls-62 {
        fill: url(#linear-gradient-38);
      }

      .cls-63 {
        fill: url(#linear-gradient-27);
      }

      .cls-64 {
        fill: url(#linear-gradient-24);
      }

      .cls-65 {
        fill: url(#linear-gradient-26);
      }

      .cls-66 {
        fill: url(#linear-gradient-29);
      }

      .cls-67 {
        fill: url(#linear-gradient-37);
      }

      .cls-68 {
        fill: url(#linear-gradient-39);
      }

      .cls-69 {
        fill: url(#linear-gradient-53);
      }

      .cls-70 {
        fill: url(#linear-gradient-54);
      }

      .cls-71 {
        fill: url(#linear-gradient-55);
      }

      .cls-72 {
        fill: url(#linear-gradient-56);
      }

      .cls-73 {
        fill: url(#linear-gradient-50);
      }

      .cls-74 {
        fill: url(#linear-gradient-51);
      }

      .cls-75 {
        fill: url(#linear-gradient-52);
      }

      .cls-76 {
        fill: url(#Gradient_32-2);
      }

      .cls-77 {
        fill: url(#Gradient_58-3);
      }

      .cls-78 {
        fill: url(#Gradient_58-2);
      }

      .cls-79 {
        fill: url(#Gradient_25-2);
      }

      .cls-80 {
        fill: url(#Gradient_96-2);
      }

      .cls-81 {
        fill: url(#Gradient_96-3);
      }

      .cls-82 {
        fill: url(#Gradient_96-4);
      }

      .cls-83 {
        fill: url(#Gradient_27-9);
      }

      .cls-84 {
        fill: url(#Gradient_27-2);
      }

      .cls-85 {
        fill: url(#Gradient_27-4);
      }

      .cls-86 {
        fill: url(#Gradient_27-3);
      }

      .cls-87 {
        fill: url(#Gradient_27-6);
      }

      .cls-88 {
        fill: url(#Gradient_27-5);
      }

      .cls-89 {
        fill: url(#Gradient_27-8);
      }

      .cls-90 {
        fill: url(#Gradient_27-7);
      }

      .cls-91 {
        fill: #dca57b;
      }
    </style>
    <linearGradient id="linear-gradient" x1="100.51" y1="101.41" x2="194.15" y2="243.29" gradientUnits="userSpaceOnUse">
      <stop offset="0" stop-color="#0b173d"/>
      <stop offset=".5" stop-color="#0c193f"/>
      <stop offset=".82" stop-color="#132248"/>
      <stop offset="1" stop-color="#192b51"/>
    </linearGradient>
    <linearGradient id="linear-gradient-2" x1="177.22" y1="161.57" x2="192.79" y2="165.94" gradientUnits="userSpaceOnUse">
      <stop offset="0" stop-color="#f0c499"/>
      <stop offset=".52" stop-color="#f4cfa5"/>
      <stop offset="1" stop-color="#f7d4ab"/>
    </linearGradient>
    <linearGradient id="linear-gradient-3" x1="126.94" y1="167.72" x2="192.16" y2="186.03" xlink:href="#linear-gradient-2"/>
    <linearGradient id="linear-gradient-4" x1="148.99" y1="204.61" x2="117.89" y2="162.94" gradientUnits="userSpaceOnUse">
      <stop offset="0" stop-color="#f0c499"/>
      <stop offset=".51" stop-color="#e3b086"/>
      <stop offset="1" stop-color="#dba379"/>
    </linearGradient>
    <linearGradient id="linear-gradient-5" x1="191.1" y1="166.59" x2="123.92" y2="141.26" xlink:href="#linear-gradient-4"/>
    <linearGradient id="linear-gradient-6" x1="44.72" y1="192.33" x2="35.69" y2="295.54" gradientUnits="userSpaceOnUse">
      <stop offset="0" stop-color="#2b416b"/>
      <stop offset=".46" stop-color="#293e68"/>
      <stop offset=".75" stop-color="#23375f"/>
      <stop offset="1" stop-color="#192b51"/>
    </linearGradient>
    <linearGradient id="linear-gradient-7" x1="273.55" y1="210.2" x2="274.68" y2="347.58" xlink:href="#linear-gradient-6"/>
    <linearGradient id="linear-gradient-8" x1="124.26" y1="-282.54" x2="123.34" y2="-233.45" gradientTransform="translate(11.16 306.59) rotate(3.42) scale(1 .96)" gradientUnits="userSpaceOnUse">
      <stop offset="0" stop-color="#ffd9b3"/>
      <stop offset=".28" stop-color="#fbd6af"/>
      <stop offset="1" stop-color="#f7d4ab"/>
    </linearGradient>
    <linearGradient id="linear-gradient-9" x1="-57.25" y1="588.18" x2="-47.06" y2="612.88" gradientTransform="translate(150.03 -585.75) rotate(177.48) scale(.99 -1.14) skewX(3.14)" gradientUnits="userSpaceOnUse">
      <stop offset="0" stop-color="#dba379"/>
      <stop offset=".49" stop-color="#e3b086"/>
      <stop offset="1" stop-color="#f0c499"/>
    </linearGradient>
    <linearGradient id="linear-gradient-10" x1="1070.4" y1="550.27" x2="1080.44" y2="574.63" gradientTransform="translate(-974.53 -581.55) rotate(2) scale(.99 1.14) skewX(3.13)" xlink:href="#linear-gradient-9"/>
    <linearGradient id="linear-gradient-11" x1="138.47" y1="-230.23" x2="154.86" y2="-214.75" gradientTransform="translate(11.18 296.71) rotate(3.42)" xlink:href="#linear-gradient-2"/>
    <linearGradient id="linear-gradient-12" x1="104.78" y1="-226" x2="100.92" y2="-209.66" gradientTransform="translate(11.18 296.71) rotate(3.42)" xlink:href="#linear-gradient-2"/>
    <radialGradient id="radial-gradient" cx="-212.85" cy="16.54" fx="-212.85" fy="16.54" r="23.1" gradientTransform="translate(-37.54 99.74) rotate(177.65) scale(1.02 -.71) skewX(-1.54)" gradientUnits="userSpaceOnUse">
      <stop offset="0" stop-color="#f8c39c"/>
      <stop offset="1" stop-color="#f7d4ab"/>
    </radialGradient>
    <radialGradient id="radial-gradient-2" cx="139.14" cy="-.49" fx="139.14" fy="-.49" r="23.69" gradientTransform="translate(-19.15 112.3) rotate(-3.81) scale(1.02 .69) skewX(2.86)" xlink:href="#radial-gradient"/>
    <linearGradient id="linear-gradient-13" x1="239.68" y1="151.68" x2="225.47" y2="156.58" gradientTransform="translate(-50.52 -56.15) rotate(-.26)" gradientUnits="userSpaceOnUse">
      <stop offset="0" stop-color="#fbd6af"/>
      <stop offset="1" stop-color="#f7d4ab"/>
    </linearGradient>
    <linearGradient id="linear-gradient-14" x1="175.61" y1="156.59" x2="154.52" y2="151.44" xlink:href="#linear-gradient-13"/>
    <linearGradient id="Gradient_58" data-name="Gradient 58" x1="-3106.66" y1="-169.11" x2="-3081.13" y2="-169.11" gradientTransform="translate(-2908.23 -547.77) rotate(-165.3) scale(1 -1)" gradientUnits="userSpaceOnUse">
      <stop offset="0" stop-color="#2b1b13"/>
      <stop offset=".04" stop-color="#2e1d14"/>
      <stop offset=".38" stop-color="#442b1d"/>
      <stop offset=".71" stop-color="#513423"/>
      <stop offset="1" stop-color="#563725"/>
    </linearGradient>
    <linearGradient id="Gradient_58-2" data-name="Gradient 58" x1="391.14" y1="521.5" x2="419.02" y2="521.5" gradientTransform="translate(-335.29 -347.13) rotate(-12.57)" xlink:href="#Gradient_58"/>
    <linearGradient id="linear-gradient-15" x1="255.47" y1="143.75" x2="228.26" y2="167.01" gradientTransform="translate(-65.78 -73.61) rotate(1.21)" xlink:href="#linear-gradient-4"/>
    <linearGradient id="linear-gradient-16" x1="233.63" y1="122.67" x2="208.32" y2="116.56" gradientTransform="translate(-44.64 -30.97)" gradientUnits="userSpaceOnUse">
      <stop offset="0" stop-color="#ece7e7"/>
      <stop offset=".23" stop-color="#f5f3f3"/>
      <stop offset=".53" stop-color="#fcfcfc"/>
      <stop offset="1" stop-color="#fff"/>
    </linearGradient>
    <linearGradient id="Gradient_96" data-name="Gradient 96" x1="236.87" y1="137.31" x2="212.84" y2="115.49" gradientTransform="translate(-44.64 -30.97)" gradientUnits="userSpaceOnUse">
      <stop offset="0" stop-color="#a8c3dd"/>
      <stop offset="1" stop-color="#7a90a5"/>
    </linearGradient>
    <linearGradient id="Gradient_96-2" data-name="Gradient 96" x1="150.36" y1="-205.94" x2="149.55" y2="-213.37" gradientTransform="translate(11.18 296.71) rotate(3.42)" xlink:href="#Gradient_96"/>
    <radialGradient id="Gradient_25" data-name="Gradient 25" cx="-868.5" cy="136.57" fx="-868.5" fy="136.57" r="4.04" gradientTransform="translate(1052.49 -28.94) rotate(1.3) skewX(.07)" gradientUnits="userSpaceOnUse">
      <stop offset="0" stop-color="#666"/>
      <stop offset="1" stop-color="#1d1d1d"/>
    </radialGradient>
    <linearGradient id="linear-gradient-17" x1="160.78" y1="149.11" x2="181.06" y2="148.15" gradientTransform="translate(4.3 -67.16) rotate(1.2)" gradientUnits="userSpaceOnUse">
      <stop offset="0" stop-color="#2b1b13"/>
      <stop offset=".04" stop-color="#2e1d14"/>
      <stop offset=".38" stop-color="#442b1d"/>
      <stop offset=".71" stop-color="#513423"/>
      <stop offset="1" stop-color="#563725"/>
    </linearGradient>
    <linearGradient id="linear-gradient-18" x1="133.87" y1="-111.28" x2="131.48" y2="-142.42" gradientTransform="translate(11.18 296.71) rotate(3.42)" gradientUnits="userSpaceOnUse">
      <stop offset="0" stop-color="#f7d4ab"/>
      <stop offset=".45" stop-color="#f3caa0"/>
      <stop offset="1" stop-color="#f0c499"/>
    </linearGradient>
    <linearGradient id="linear-gradient-19" x1="-2905.34" y1="210.93" x2="-2932.35" y2="234.02" gradientTransform="translate(-2794.88 -73.95) rotate(178.8) scale(1 -1)" xlink:href="#linear-gradient-4"/>
    <linearGradient id="linear-gradient-20" x1="189.73" y1="122.45" x2="163.73" y2="116.17" xlink:href="#linear-gradient-16"/>
    <linearGradient id="Gradient_96-3" data-name="Gradient 96" x1="192.47" y1="137.64" x2="168.35" y2="115.74" xlink:href="#Gradient_96"/>
    <linearGradient id="Gradient_96-4" data-name="Gradient 96" x1="105.79" y1="-201.1" x2="104.99" y2="-208.52" gradientTransform="translate(11.18 296.71) rotate(3.42)" xlink:href="#Gradient_96"/>
    <radialGradient id="Gradient_25-2" data-name="Gradient 25" cx="-4246.42" cy="213.94" fx="-4246.42" fy="213.94" r="4.04" gradientTransform="translate(-4124.32 -29.48) rotate(178.7) scale(1 -1) skewX(.09)" xlink:href="#Gradient_25"/>
    <linearGradient id="linear-gradient-21" x1="-2999.87" y1="215.26" x2="-2979.77" y2="214.3" gradientTransform="translate(-2864.96 -67.52) rotate(178.81) scale(1 -1)" xlink:href="#linear-gradient-17"/>
    <linearGradient id="Gradient_32" data-name="Gradient 32" x1="131.36" y1="-297.37" x2="114.24" y2="-146.28" gradientTransform="translate(11.18 296.71) rotate(3.42)" gradientUnits="userSpaceOnUse">
      <stop offset="0" stop-color="#724831"/>
      <stop offset=".22" stop-color="#67412c"/>
      <stop offset=".63" stop-color="#5a3926"/>
      <stop offset="1" stop-color="#563725"/>
    </linearGradient>
    <linearGradient id="Gradient_32-2" data-name="Gradient 32" x1="79.94" y1="-258.69" x2="69.17" y2="-163.63" xlink:href="#Gradient_32"/>
    <linearGradient id="linear-gradient-22" x1="130.84" y1="-182.83" x2="130.53" y2="-186.8" gradientTransform="translate(9.78 319.44) rotate(3.42) scale(1 .93)" xlink:href="#linear-gradient-18"/>
    <linearGradient id="Gradient_115" data-name="Gradient 115" x1="150.2" y1="112.26" x2="148.05" y2="167.19" gradientUnits="userSpaceOnUse">
      <stop offset="0" stop-color="#d6ac88"/>
      <stop offset="1" stop-color="#a18166"/>
    </linearGradient>
    <linearGradient id="Gradient_115-2" data-name="Gradient 115" x1="151.2" y1="111.94" x2="149.13" y2="164.86" xlink:href="#Gradient_115"/>
    <linearGradient id="Gradient_27" data-name="Gradient 27" x1="151.42" y1="47.45" x2="163.82" y2="6.65" gradientUnits="userSpaceOnUse">
      <stop offset="0" stop-color="#724831"/>
      <stop offset=".42" stop-color="#7f553b"/>
      <stop offset="1" stop-color="#8e6346"/>
    </linearGradient>
    <linearGradient id="Gradient_27-2" data-name="Gradient 27" x1="134.52" y1="42.31" x2="146.92" y2="1.51" xlink:href="#Gradient_27"/>
    <linearGradient id="Gradient_27-3" data-name="Gradient 27" x1="121.25" y1="38.62" x2="133.94" y2="-3.14" xlink:href="#Gradient_27"/>
    <linearGradient id="Gradient_27-4" data-name="Gradient 27" x1="112.55" y1="34.13" x2="124.95" y2="-6.67" xlink:href="#Gradient_27"/>
    <linearGradient id="Gradient_115-3" data-name="Gradient 115" x1="152.62" y1="-164.71" x2="151.82" y2="-168.1" gradientTransform="translate(11.18 296.71) rotate(3.42)" xlink:href="#Gradient_115"/>
    <linearGradient id="Gradient_115-4" data-name="Gradient 115" x1="109.89" y1="-164.48" x2="109.16" y2="-167.58" gradientTransform="translate(11.18 296.71) rotate(3.42)" xlink:href="#Gradient_115"/>
    <linearGradient id="Gradient_27-5" data-name="Gradient 27" x1="166.78" y1="52.11" x2="179.17" y2="11.32" xlink:href="#Gradient_27"/>
    <linearGradient id="linear-gradient-23" x1="396.38" y1="961.46" x2="397.18" y2="934.29" gradientTransform="translate(-304.45 -795.19) rotate(-3.55)" gradientUnits="userSpaceOnUse">
      <stop offset="0" stop-color="#f7d4ab"/>
      <stop offset=".76" stop-color="#f2c89e"/>
      <stop offset="1" stop-color="#f0c499"/>
    </linearGradient>
    <linearGradient id="linear-gradient-24" x1="284.53" y1="768.72" x2="275.62" y2="737.08" gradientTransform="translate(-187.11 -604.66) rotate(-4.28)" xlink:href="#linear-gradient-9"/>
    <linearGradient id="linear-gradient-25" x1="176.85" y1="221.54" x2="174.2" y2="212.14" gradientTransform="translate(-10.53 -95.29) rotate(3.8)" gradientUnits="userSpaceOnUse">
      <stop offset="0" stop-color="#ffd9b3"/>
      <stop offset="1" stop-color="#f7d4ab"/>
    </linearGradient>
    <linearGradient id="linear-gradient-26" x1="151.38" y1="120.91" x2="151.11" y2="124.4" gradientUnits="userSpaceOnUse">
      <stop offset="0" stop-color="#e8d8d7"/>
      <stop offset=".34" stop-color="#ede1e0"/>
      <stop offset=".91" stop-color="#fcfafa"/>
      <stop offset="1" stop-color="#fff"/>
    </linearGradient>
    <linearGradient id="linear-gradient-27" x1="150.82" y1="141.87" x2="150.15" y2="127.14" gradientUnits="userSpaceOnUse">
      <stop offset="0" stop-color="#e8d8d7"/>
      <stop offset="1" stop-color="#fff"/>
    </linearGradient>
    <linearGradient id="linear-gradient-28" x1="152.07" y1="140.14" x2="151.98" y2="134.86" gradientUnits="userSpaceOnUse">
      <stop offset="0" stop-color="#f0c499"/>
      <stop offset=".52" stop-color="#f1c69b"/>
      <stop offset=".85" stop-color="#f4cea4"/>
      <stop offset="1" stop-color="#f7d4ab"/>
    </linearGradient>
    <linearGradient id="linear-gradient-29" x1="151.05" y1="120.19" x2="151.19" y2="124.74" xlink:href="#linear-gradient-26"/>
    <linearGradient id="linear-gradient-30" x1="150.72" y1="138.93" x2="150.05" y2="125.34" gradientUnits="userSpaceOnUse">
      <stop offset="0" stop-color="#e8d8d7"/>
      <stop offset=".35" stop-color="#ede1e1"/>
      <stop offset=".96" stop-color="#fdfcfc"/>
      <stop offset="1" stop-color="#fff"/>
    </linearGradient>
    <linearGradient id="Gradient_27-6" data-name="Gradient 27" x1="180.29" y1="56.22" x2="192.69" y2="15.42" xlink:href="#Gradient_27"/>
    <linearGradient id="Gradient_27-7" data-name="Gradient 27" x1="102.85" y1="32.69" x2="115.25" y2="-8.11" xlink:href="#Gradient_27"/>
    <linearGradient id="Gradient_27-8" data-name="Gradient 27" x1="67.32" y1="-249.35" x2="76.68" y2="-248.12" gradientTransform="translate(11.18 296.71) rotate(3.42)" xlink:href="#Gradient_27"/>
    <linearGradient id="Gradient_27-9" data-name="Gradient 27" x1="192.68" y1="60.18" x2="205.83" y2="16.94" xlink:href="#Gradient_27"/>
    <linearGradient id="Gradient_58-3" data-name="Gradient 58" x1="84.78" y1="-159.87" x2="178.37" y2="-327.52" gradientTransform="translate(11.18 296.71) rotate(3.42)" xlink:href="#Gradient_58"/>
    <linearGradient id="Gradient_115-5" data-name="Gradient 115" x1="131.38" y1="-166.83" x2="130.99" y2="-171.95" gradientTransform="translate(9.78 319.44) rotate(3.42) scale(1 .93)" xlink:href="#Gradient_115"/>
    <linearGradient id="Gradient_113" data-name="Gradient 113" x1="129.38" y1="-196.54" x2="128.29" y2="-181.69" gradientTransform="translate(11.18 296.71) rotate(3.42)" gradientUnits="userSpaceOnUse">
      <stop offset="0" stop-color="#a18166"/>
      <stop offset="1" stop-color="#d6ac88"/>
    </linearGradient>
    <linearGradient id="linear-gradient-31" x1="228.31" y1="328.4" x2="229.01" y2="352.82" gradientTransform="translate(-92.26 -237.81) rotate(-2.17)" gradientUnits="userSpaceOnUse">
      <stop offset="0" stop-color="#f7d4ab"/>
      <stop offset=".52" stop-color="#f5d1a8"/>
      <stop offset=".85" stop-color="#f2c99f"/>
      <stop offset="1" stop-color="#f0c499"/>
    </linearGradient>
    <linearGradient id="linear-gradient-32" x1="228.62" y1="677.5" x2="230.13" y2="666.35" gradientTransform="translate(-122.37 -1031.82) rotate(-2.16) scale(1 1.7) skewX(.04)" xlink:href="#linear-gradient-8"/>
    <linearGradient id="Gradient_115-6" data-name="Gradient 115" x1="133.07" y1="-182.76" x2="131.88" y2="-187.85" gradientTransform="translate(9.78 319.44) rotate(3.42) scale(1 .93)" xlink:href="#Gradient_115"/>
    <linearGradient id="linear-gradient-33" x1="249.38" y1="231.3" x2="249.67" y2="425.07" xlink:href="#linear-gradient"/>
    <linearGradient id="linear-gradient-34" x1="150.23" y1="170.97" x2="152.77" y2="318.97" xlink:href="#linear-gradient-6"/>
    <linearGradient id="linear-gradient-35" x1="147.92" y1="179.2" x2="168.47" y2="179.2" gradientTransform="matrix(1,0,0,1,0,0)" xlink:href="#linear-gradient-8"/>
    <linearGradient id="linear-gradient-36" x1="241.46" y1="231.31" x2="241.75" y2="425.08" xlink:href="#linear-gradient"/>
    <linearGradient id="linear-gradient-37" x1="27.47" y1="205.33" x2="28.61" y2="342.52" xlink:href="#linear-gradient-6"/>
    <linearGradient id="linear-gradient-38" x1="51.08" y1="231.6" x2="51.38" y2="425.37" xlink:href="#linear-gradient"/>
    <linearGradient id="linear-gradient-39" x1="60.68" y1="231.58" x2="60.97" y2="425.35" xlink:href="#linear-gradient"/>
    <linearGradient id="linear-gradient-40" x1="155.42" y1="207.68" x2="155.15" y2="312.85" xlink:href="#linear-gradient-6"/>
    <linearGradient id="linear-gradient-41" x1="164.56" y1="351.1" x2="136.23" y2="199.8" xlink:href="#linear-gradient-6"/>
    <linearGradient id="linear-gradient-42" x1="119.04" y1="248.14" x2="119.88" y2="206.7" xlink:href="#linear-gradient-6"/>
    <linearGradient id="linear-gradient-43" x1="119.96" y1="289.94" x2="119.96" y2="166.73" xlink:href="#linear-gradient-6"/>
    <linearGradient id="linear-gradient-44" x1="126.32" y1="194.33" x2="125.28" y2="122.67" xlink:href="#linear-gradient"/>
    <linearGradient id="linear-gradient-45" x1="125.04" y1="327.98" x2="170.35" y2="175.05" xlink:href="#linear-gradient-6"/>
    <linearGradient id="linear-gradient-46" x1="179.93" y1="252.49" x2="180.81" y2="209.32" xlink:href="#linear-gradient-6"/>
    <linearGradient id="linear-gradient-47" x1="162.01" y1="305.65" x2="169.37" y2="149.28" xlink:href="#linear-gradient"/>
    <linearGradient id="linear-gradient-48" x1="152.6" y1="303.36" x2="138.18" y2="216.61" xlink:href="#linear-gradient"/>
    <linearGradient id="linear-gradient-49" x1="181.52" y1="301.27" x2="181.52" y2="164" xlink:href="#linear-gradient-6"/>
    <linearGradient id="linear-gradient-50" x1="174.8" y1="193.85" x2="173.91" y2="132.27" xlink:href="#linear-gradient"/>
    <linearGradient id="linear-gradient-51" x1="134.08" y1="201.13" x2="140.29" y2="210.54" xlink:href="#linear-gradient"/>
    <linearGradient id="linear-gradient-52" x1="161.18" y1="212.52" x2="171.47" y2="229.84" xlink:href="#linear-gradient-6"/>
    <linearGradient id="linear-gradient-53" x1="187.11" y1="194.08" x2="147.08" y2="304.3" gradientUnits="userSpaceOnUse">
      <stop offset="0" stop-color="#2b416b"/>
      <stop offset=".54" stop-color="#1f325a"/>
      <stop offset="1" stop-color="#192b51"/>
    </linearGradient>
    <linearGradient id="linear-gradient-54" x1="172.73" y1="196.53" x2="137.94" y2="292.31" gradientUnits="userSpaceOnUse">
      <stop offset="0" stop-color="#2b416b"/>
      <stop offset=".53" stop-color="#1f335a"/>
      <stop offset="1" stop-color="#192b51"/>
    </linearGradient>
    <linearGradient id="linear-gradient-55" x1="194.87" y1="209.49" x2="205.67" y2="227.67" xlink:href="#linear-gradient-6"/>
    <linearGradient id="linear-gradient-56" x1="122.53" y1="205.49" x2="131.94" y2="221.33" xlink:href="#linear-gradient-6"/>
  </defs>
  <g id="Layer_1-2" data-name="Layer 1">
    <g>
      <path class="cls-18" d="M119.11,158.07s25.47-18.7,63.1-2.44c0,0,17.81,22.47.85,38.81s-59.9,14.8-66.11,1.41c-6.2-13.39-2.78-34.93,2.16-37.78Z"/>
      <path class="cls-16" d="M182.95,175.41l6.66-8.51s-7.23-2.17-10.07-16.92c-.12.11-.24.22-.36.33-.87,8.81.71,17.24,3.77,25.09Z"/>
      <path class="cls-15" d="M179.18,150.32c-11.43,10.5-16.96,14.97-31.67,14.05-5.69,0-16.94,2.61-24.05-2.09,5.96,11.97,17.22,21.08,26.44,29.14,3.8,3.8,5.36,10.31,7.33,16.85l25.73-32.86c-3.06-7.85-4.64-16.28-3.77-25.09Z"/>
      <path class="cls-14" d="M131.82,163.75s-9.84-2.47-10.52-3.02c-1.21,2.84-2.69,5.81-4.52,8.9l31.5,51.88,8.94-13.23c-1.96-6.54-3.52-13.04-7.33-16.85-9.22-8.06-14.7-16.01-18.07-27.68Z"/>
      <path class="cls-11" d="M179.54,149.99c-.53-2.76-.91-5.96-1.06-9.66l-58.14-14.7s3.12,16.83.97,35.1c7.04,5.71,20.98,6.64,27.26,6.64,14.87.93,25.81-7.81,30.97-17.38Z"/>
      <path class="cls-20" d="M271.94,209.68c-15.56-5.75-74.21-32.38-74.21-32.38l-47.79,44.91-40.82-44.91s-68.63,27.64-79.27,32.38l28.4,84.45-.06,4.45h186.72l27.03-88.9Z"/>
      <path class="cls-12" d="M58.25,277.81l-28.4-68.13c-12.03,9.93-14.9,49.15-15.13,88.9h43.45c.1-7.31-.56-14.75.08-20.77Z"/>
      <path class="cls-10" d="M297.34,273.97c-11.14-62.84-25.41-64.28-25.41-64.28l-25.9,64.47,5.51,11.59c1.24,4.5,2.9,8.78,4.91,12.84h45.86c-1.76-7.98-3.51-16.33-4.98-24.61Z"/>
      <path class="cls-20" d="M249.11,273.65l-.39,24.93h11.57c-5.01-8.14-8.9-16.65-11.18-24.93Z"/>
      <g>
        <path class="cls-9" d="M106.42,86.89s3.46,47.13,4.78,49.1c1.32,1.97,21.18,16.52,23.74,18.7,2.56,2.19,29.19.84,29.19.84,0,0,22.37-16.51,24.31-19.72,1.94-3.22,5.25-49.67,5.25-49.67,0,0,5.87-37.88-3.19-50.88-9.06-12.99-70.81-17.2-81.05.87-10.24,18.07-3.03,50.76-3.03,50.76Z"/>
        <g>
          <path class="cls-22" d="M201.51,82.21c9.66-.71,3.36,14.45,3.36,14.45-3.74,19.63-2.13,23-10.71,22.27-6.35-.54.45-36.22,7.35-36.72Z"/>
          <path class="cls-13" d="M195.75,110.43s3.06-3.43,2.9-10.78c-.37-17.33,8.75-17.65,5.61-6.14,0,0-.73-5.63-2.03-4.09-1.59,1.89,1.21,3.29-1.1,12-1.21,4.53-5.38,9.02-5.38,9.02Z"/>
        </g>
        <g>
          <path class="cls-22" d="M99.18,82.48c-9.65-.39-3.52,14.56-3.52,14.56,3.53,19.51,3,22.41,10.47,21.92,8.39-.55-.05-36.21-6.95-36.49Z"/>
          <path class="cls-39" d="M104.64,110.52s-3.02-3.33-2.78-10.69c.56-17.35-8.56-17.37-5.54-5.96,0,0,.79-5.66,2.07-4.16,1.57,1.84-1.24,3.33.97,11.96,1.16,4.49,5.28,8.85,5.28,8.85Z"/>
        </g>
        <path class="cls-40" d="M162.96,75.6s-6.52,7.88-6.38,8.76c.14.87,1.26,11.39,1.26,11.39,0,0,25.42-.8,28.74-1.84,3.32-1.04,5.05-11.26,5.05-11.26l-6.01-9.76s-5.28-2.41-6.02-1.91c-.74.5-16.64,4.63-16.64,4.63Z"/>
        <path class="cls-41" d="M136.44,75.58s6.43,7.49,6.32,8.37c-.11.88-.45,11.57-.45,11.57,0,0-25.43.15-28.79-.76-3.36-.91-4.44-7.4-4.44-7.4l.55-6.38s5.44-4.95,6.13-5.51c5.35-4.38,20.68.11,20.68.11Z"/>
        <path class="cls-17" d="M175.43,118.89c8.21.5,17.38-.56,19.02-17.26.94-9.51-.12-14.47-4.19-15.2-8.62-1.54-20.96,2.21-26.09,4.87-10.84,5.61-3.29,26.69,11.26,27.59Z"/>
        <path class="cls-8" d="M134.32,90.03c-2.35-.83-20.24-4.75-25.55-3.2-3.03.88-1.73,7.58-1.19,13.94.26,3.05.24,7.94.95,9.85,3.48,9.4,16.59,9.75,24.15,7.09,12.9-4.54,13.57-23.47,1.65-27.69Z"/>
        <path class="cls-42" d="M189.43,92.95c-1.49-.81-2.58.38-5.65,1.38-3.01.99-11.25,2.55-7.37,4.6,4.29,2.27,10.27-.89,10.99-1.48.72-.59,3.86-3.5,2.03-4.5Z"/>
        <path class="cls-44" d="M116.53,95.26c-3.13-.82-4.29-1.94-5.73-1.05-1.77,1.11,1.54,3.83,2.3,4.37.76.55,6.91,3.34,11.06.83,3.75-2.28-4.56-3.35-7.63-4.15Z"/>
        <path class="cls-1" d="M120.28,70.84c3.03-2.81,10.7-.23,14.5.85,2.15.61,5.19,1.48,6.97,2.72-.08,1.27-.28,2.15-1.03,3.48,1.08-.53,1.65-1.86,1.7-2.88.05.04.93,2.56-1.04,4.66-.94,1-4.11-.87-12.01-3.15-2.15-.62-5.75-1.89-8.98-1.7-1.18.07-3.68.65-3.68.65-.13-.45,2.13-3.29,3.57-4.63Z"/>
        <path class="cls-78" d="M180.44,70.47c-2.3-2.17-9.89-.57-13.82.51-2.01.55-7.24,1.57-9.12,2.75.03,1.27.2,2.16.92,3.51-1.09-.56-1.61-1.92-1.63-2.94-.05.04-1.05,2.52.88,4.69.92,1.03,4.25-.72,12.42-2.72,2.22-.54,6.96-1.69,9.27-1.38,1.2.16,5.44.59,5.44.59.15-.44-1.79-2.58-4.37-5.01Z"/>
        <g>
          <path class="cls-55" d="M159.77,91.14c-1.02-1.22.04-3.84.61-5.47,1.79-5.11,5.68-6.8,13.72-6.97,2.64-.06,7.2.5,10,3.08,2.16,1.99,3.4,3.96,3.16,5.73-.12.9-4.35,5.97-13.12,6.23-5.74.18-12.26-.05-14.38-2.59Z"/>
          <path class="cls-56" d="M183.11,87.44c-.22.59-.54,1.11-.94,1.59-.62.75-1.41,1.36-2.3,1.83-.33.15-.68.25-1.05.33-.05.02-.1.02-.14.03-.59.13-1.14.26-1.67.36-2.78.56-4.92.82-6.75.82-.75,0-1.43-.05-2.08-.13-.32-.03-.63-.1-.94-.18-2.67-.62-4.67-2.37-5.05-3.09,0,0,0-.02.02-.03v-.02c.14-.33,1.18-2.55,2.83-4.31,1.03-1.1,2.32-2.01,3.8-2.17.48-.05.94-.1,1.4-.11,8.32-.34,12.48,4.59,12.86,5.07.02.02.02.03.02.03Z"/>
          <path class="cls-19" d="M183.09,87.4s.02.04.02.04c-.23.59-.55,1.12-.94,1.59-.1-.06-.22-.13-.35-.2-.84-.45-2.35-1.07-5.2-1.3-11.74-.97-14.28,1.3-14.41,1.42,0,0,0,0,0,0,.36-1.86,1.42-3.27,2.83-4.32,1.48-1.1,3.34-1.83,5.19-2.29,1.53-.38,3.04-.59,4.33-.69,4.16-.32,8.17,5.24,8.53,5.75Z"/>
          <path class="cls-3" d="M179.55,89.48c-.06.34-.24,1.27-.44,1.63-.13.08-.59.26-.76.34-.59.13-1.22.32-1.75.42-2.78.56-4.52.51-6.34.51-.75,0-1.43-.05-2.08-.13-.32-.03-.63-.1-.94-.18-.57-.75-1.11-1.85-1.08-3.35.09-3.97,3.43-5.74,7.11-5.44,3.67.31,6.86,2.37,6.27,6.19Z"/>
          <path class="cls-80" d="M166.3,87.54s5.21-1.14,13.3.56c0,0-.15-4.13-5.02-5.02-4.57-.84-7.94,2.1-8.28,4.46Z"/>
          <path class="cls-5" d="M173.24,83.84c-2.25-.12-4.33,1.64-4.44,3.91-.11,2.26,1.79,4.17,4.04,4.29,2.26.12,4.17-1.62,4.28-3.89.11-2.26-1.63-4.19-3.88-4.31Z"/>
          <path d="M173.09,83.83c-2.66-.15-3.9,1.79-4.23,3.4,0,0,4.37-.43,8.26.38,0,0-.21-3.57-4.02-3.78Z"/>
          <path class="cls-21" d="M178.68,90.54c.44-.82.09-1.88-.77-2.36-.86-.48-1.92-.2-2.36.63-.44.83-.1,1.88.77,2.36.86.48,1.92.2,2.37-.63Z"/>
          <path class="cls-21" d="M174.56,88.35c.35-.65.08-1.48-.6-1.86-.68-.38-1.52-.16-1.87.49-.35.65-.08,1.48.6,1.86.68.38,1.52.16,1.87-.49Z"/>
          <path class="cls-57" d="M162.2,88.97s-.39-3.12,3.35-5.66c3.93-2.67,10.57-2.6,14.42-.19,2.32,1.45,3.14,4.32,3.14,4.32,0,0-4.89-3.47-10.13-3.23-2.9.13-4.01.39-5.32.7-3.41.82-5.46,4.06-5.46,4.06Z"/>
        </g>
        <path class="cls-58" d="M118.64,40.28c1.7-.82,26.71,2.72,30.63,1.83,3.92-.89,24.99-4.72,29.08-2.44,4.09,2.28,6.98,6.83,7.38,9.34.4,2.51-.25,14.94,0,16.96s3.79,4.54,4.8,16.26c1.01,11.72.48,22.84-.15,27.71-.62,4.87-5.1,21.02-5.1,21.02l8.19-23.61s.82-2.8,1-5.72c.18-2.93,2.36-38.55,2.36-38.55l-11.72-34.68-68.71-3.29-14.86,33.24,3.84,40.14,1.86,5.41,5.81,20.45s-2.22-24.63-2.93-26.1c-.71-1.47-.71-14.78-.47-17.27.66-6.78,4.03-13.37,4.45-15.17s-1.69-14.6-1.26-16.41c.43-1.8,5.81-9.12,5.81-9.12Z"/>
        <g>
          <path class="cls-43" d="M140.91,91.46c1.01-1.22-.04-3.84-.61-5.48-1.77-5.11-5.63-6.8-13.6-6.98-2.62-.06-7.14.5-9.92,3.08-2.14,1.99-3.37,3.96-3.13,5.73.12.9,4.31,5.97,13,6.24,5.68.18,12.15-.04,14.25-2.59Z"/>
          <path class="cls-46" d="M138.51,89.31c-.36.7-2.23,2.34-4.71,3.01-.39.11-.8.21-1.23.26-.64.08-1.34.13-2.08.13-1.79,0-3.92-.26-6.67-.82-.35-.07-.69-.15-1.05-.21-.25-.07-.5-.11-.76-.16-.36-.08-.69-.2-1.02-.33-.88-.47-1.67-1.1-2.28-1.85-.39-.46-.71-1-.93-1.58,0,0,0-.02.02-.03.38-.46,4.5-5.39,12.75-5.06.44.03.91.07,1.39.11,1.46.16,2.72,1.08,3.76,2.17,1.64,1.77,2.66,3.99,2.8,4.32v.02s.02.03.02.03Z"/>
          <path class="cls-19" d="M117.81,87.72s-.02.04-.02.04c.23.59.54,1.12.93,1.59.1-.06.22-.13.35-.2.83-.45,2.33-1.07,5.15-1.3,11.64-.97,14.15,1.3,14.28,1.42,0,0,0,0,0,0-.36-1.86-1.41-3.27-2.81-4.32-1.46-1.1-3.31-1.83-5.14-2.29-1.51-.38-3.01-.59-4.3-.69-4.12-.32-8.1,5.24-8.45,5.74Z"/>
          <path class="cls-81" d="M134.82,89.05c.03,1.45-.47,2.53-1.01,3.27-.39.11-.8.21-1.23.26-.64.08-1.34.13-2.08.13-1.79,0-3.53.13-6.26-.51-.34-.08-1.03-.35-1.39-.42-.33-.11-.59-.13-.79-.26-.21-.38-.46-1.38-.51-1.72-.58-3.83,2.58-5.88,6.22-6.18,3.65-.31,6.96,1.46,7.05,5.43Z"/>
          <path class="cls-82" d="M134.68,87.86s-5.16-1.14-13.18.56c0,0,.15-4.13,4.98-5.02,4.53-.83,7.87,2.1,8.2,4.46Z"/>
          <path class="cls-79" d="M127.81,84.16c2.23-.12,4.29,1.64,4.4,3.91.11,2.26-1.78,4.17-4.01,4.29-2.24.12-4.14-1.63-4.24-3.89-.11-2.26,1.62-4.19,3.85-4.31Z"/>
          <path d="M127.95,84.16c2.64-.15,3.86,1.79,4.2,3.4,0,0-4.33-.43-8.18.38,0,0,.21-3.57,3.99-3.78Z"/>
          <path class="cls-21" d="M129.76,91.34c-.43-.82-.09-1.88.77-2.36.86-.48,1.9-.2,2.34.63.44.83.09,1.88-.76,2.36-.85.48-1.91.2-2.34-.63Z"/>
          <path class="cls-21" d="M126.92,88.94c-.35-.65-.08-1.48.6-1.86.68-.38,1.51-.16,1.85.5.35.65.08,1.48-.6,1.86-.68.38-1.51.16-1.85-.5Z"/>
          <path class="cls-45" d="M138.5,89.29s.39-3.12-3.32-5.66c-3.89-2.67-10.48-2.6-14.29-.2-2.3,1.45-3.11,4.32-3.11,4.32,0,0,4.85-3.47,10.04-3.22,2.88.13,3.98.39,5.27.7,3.38.82,5.41,4.06,5.41,4.06Z"/>
        </g>
        <path class="cls-2" d="M110.61,41.35s6.71-9.75,23.67-7.09c11.28,1.77,11.75,1.65,15.54,2.48,3.79.84,21.94-6.15,29.92-3.03,7.98,3.12,8.76,12.33,8.83,16.87.06,4.54-.91,15.23.2,15.94,1.1.71,5.1,5.19,4.74,11.41s.96,23.7.96,23.7c0,0,1.29-18.9,7.71-19.44l.4-13.02s2.57-8.94,2.79-12.64c.41-6.97-1.57-12.9-1.68-14.07-.29-3-5.41-8.19-6.3-9.19,0,0,3.25-6.99-5.67-11.86,0,0-1.81-14.62-17.62-17.93s-29.1-2.41-33.98-.7c0,0-17.44-4.46-26.03,6.96,0,0-11.01,4.38-12.13,15.22s2.58,15.25,3.19,15.09l5.47,1.31Z"/>
        <path class="cls-76" d="M112.3,40.04s-5.47,7.03-3.68,21.07c0,0-2.75,7.7-2.75,12.81,0,5.11,1.51,24.83,1.51,24.83,0,0-3.34-16.75-9.65-16.19,0,0-1.22-11.56-1.54-12.3,0,0-4.89-9.16-1.45-19.9,1.99-6.2,10.39-10.32,10.39-10.32h7.17Z"/>
        <path class="cls-47" d="M128.22,137.49s11.29,6.63,11.94,6.52c.64-.11,8.45-4.94,8.45-4.94,0,0,8.46,5.69,10.91,5.5,2.45-.19,12.4-7.5,12.4-7.5,0,0-7.89,11.17-10.4,12.35-2.51,1.18-27.76-.27-27.76-.27l-5.55-11.66Z"/>
        <path class="cls-7" d="M193.46,107.25s-1.45,23.06-3.46,27.54c-2.02,4.48-24.3,22.25-28.56,25.78-4.26,3.53-20.3.54-23.36,0-3.06-.54-25.37-20.83-28.42-25.78-3.05-4.95-2.08-34.02-2.08-34.02,0,0,4.01,20.64,6.82,24.63,2.81,3.99,20.75,17.53,23.78,19.53,1.28.85,4.05,1.35,6.15-1.51,2-2.72,1.06-4.1,6.18-3.79,4.1.24,3.25,1.91,6.19,5.36,2.08,2.43,4.02,1.38,5.34.23,2.8-2.45,24.51-19.38,25.44-21.57.93-2.18,5.99-16.41,5.99-16.41Z"/>
        <path class="cls-28" d="M127.43,127.31c3.31-7.49,14.4-13.43,15.62-13.05,7.39,2.25,14.88-.52,15.83-.83.94-.3,11.2,7.86,13.39,12.11,2.19,4.25,3.69,10.07,4.11,12.62.51,3.15-4.93,4.87-4.93,4.87,0,0,.28-8.73-.55-11.93-5.92-2.79-29.01-8.6-29.01-8.6,0,0-7.31,4.41-11.98,5.72-.37,4.68-.83,13.11-.83,13.11,0,0-2.84.5-5.12-3.89.55-5.6,2.49-7.87,3.48-10.13Z"/>
        <path class="cls-4" d="M150.29,27.83s-.18-23.3,28.56-22.86c0,0-16.7-10.06-27.31,1.54-10.61,11.6-1.26,21.32-1.26,21.32Z"/>
        <path class="cls-84" d="M137.27,25.54s1.28-18.05,18.09-22.17c0,0-5.6-7.17-15.24-.59-9.64,6.58-2.85,22.76-2.85,22.76Z"/>
        <path class="cls-86" d="M130.25,26.64s-3.53-19.22,9.87-23.86c0,0-10.37-7.22-16.6,3.39-6.22,10.61,6.73,20.47,6.73,20.47Z"/>
        <path class="cls-85" d="M117.97,27.83s-12.22-11.02-3.89-19.6,15.59-5.48,15.59-5.48c0,0-8.26,5.12-9.79,11.26-1.53,6.14-1.91,13.83-1.91,13.83Z"/>
        <path class="cls-27" d="M169.96,133.14l1.72-1.55-.6-3.64s3.02,4.02,2.85,6.04c-.08.89-3.97-.86-3.97-.86Z"/>
        <path class="cls-24" d="M131.82,131.98l-1.78-1.01s-.1-4.56-.13-4.4c0,0-1.69,3.29-2.62,5.41-1,2.26,4.54,0,4.54,0Z"/>
        <path class="cls-88" d="M160.26,25.14s.12-14.97,11.74-17.65c11.62-2.68,18.37,4.36,19.71,13.93,0,0-2.68-11.01-16.6-6.72-9.42,2.91-14.85,10.44-14.85,10.44Z"/>
        <g>
          <path class="cls-48" d="M141.23,119.39c1.71-.18,5.47.93,11.7,1.47,13.51-1.11,19.56,5.24,18.96,11.9-8.17-.3-19.67-1.24-20.37-1.11-12.3-.3-19.36,1.11-22.08.91-.81-1.11-1.27-11.81,11.79-13.17Z"/>
          <path class="cls-64" d="M164.12,122.68c-3.29-1.1-8.58-.55-11.76-.54-3.36,0-10.42-2.89-15.63-.94-6.08,2.27-9.64,12.37-6.98,11.49,5.85-.73,17.91-2.28,22.18-2.24,1.72.01,12.38,1.53,19.36,3.23,4.35,1.05-1.11-8.97-7.16-10.99Z"/>
          <path class="cls-50" d="M142.14,132.25c4.03-.6,15.83-.1,18.69.43,15.19,2.81-7.71,1.77-11.61,1.66-3.9-.11-24.97.6-7.07-2.09Z"/>
          <path class="cls-23" d="M135.2,130.95c-2.13.11-3.06-.03-4.11-.52-1.05-.49,0-7.21,6.76-8.56,6.76-1.35,10.36.9,13.52.9s10.36-1.8,15.32,2.25c4.96,4.06,7.21,8.56,3.15,7.66-4.05-.9-14.51-3.23-19.36-3.15-1.6.03-10.04,1.14-15.27,1.41Z"/>
          <path class="cls-65" d="M135.63,122.57s0,2.47,1.82,2.32c3.14-.26,29.23.13,29.23.13,0,0-1.81-1.89-6.29-2.55-1.78-.26-3.96-.15-8.47.3-2.61.26-5.58-1.52-10.08-1.36-4.39.15-6.2,1.16-6.2,1.16Z"/>
          <path class="cls-63" d="M132.77,130.91s-.53-1.7,1.16-2.58c2.82-1.48,13.71-.87,17.83-.96,2.43-.05,12.62.45,14.42,1.8,1.8,1.35,1.8,3.1,1.8,3.1,0,0-9.81-2.35-14.76-2.6-4.74-.24-14.1,1.34-20.46,1.24Z"/>
          <path class="cls-49" d="M136.5,138.09s12.62-2.7,18.92-1.8c6.31.9,12.16,2.7,12.16,2.7,0,0-12.62-.9-15.32-.9h-15.77Z"/>
          <path class="cls-66" d="M135.63,122.57s1.73-1.13,5.81-1.19c5.19-.08,7.55,1.19,9.56,1.29,2.02.1,5.85-.6,8.62-.35,2.77.25,5.48.97,7.05,2.7l-2.77-.05s-1.71-1.09-8.02-1.19c-6.3-.1-8.12-.55-9.73-.91-1.61-.35-8.72.01-10.39.72,0,0-.13-.53-.15-1.02Z"/>
          <path class="cls-54" d="M138.76,130.7c-1.71.11-4.92.51-6.02.2,0,0-.06-.54-.03-.77.2-.01,3.38.3,6.71-.2s11.9-1.26,13.66-1.06c1.76.2,13.93,2.14,14.78,2.66.11.42.14.74.14.74,0,0-10.73-2.38-15.13-2.55-5.26-.2-8.12.58-14.12.97Z"/>
        </g>
        <path class="cls-87" d="M178.1,30.83s12.98-6.74,19.28,2.45c0,0,.7-10.13-9.07-10.71-9.77-.58-10.21,8.26-10.21,8.26Z"/>
        <path class="cls-90" d="M105.14,40.04s-7.53-5.15-2.87-20.3c2.37-7.72,11.82-10.01,11.82-10.01,0,0-3.79,3.04-8.95,16.14-2.42,6.15,0,14.16,0,14.16Z"/>
        <path class="cls-89" d="M105.14,40.04s-7.71.13-11.4,9.65c-2.02,5.23,4.08,17.1,4.08,17.1,0,0-1.33-11.29.64-16.96,2.23-6.43,6.68-9.79,6.68-9.79Z"/>
        <path class="cls-83" d="M190.48,35.6s9.49-4.29,13.18,5.26c2.39,6.19,2.63,10.45-2.09,18.58,0,0,.36-12.45-1.9-15.98-2.26-3.52-9.18-7.85-9.18-7.85Z"/>
        <path class="cls-77" d="M107.58,100.78s.22-6.89.04-18.3c-.1-6.64,1-11.37,4.68-16.86,0,0-2.01-15.79-1.13-17.85,1.96-4.58,8.63-10.88,9.86-11.08,1.23-.2,26.67,2.04,29.81,1.68s23.14-3.69,28.89-.73c2.41,1.25,8.5,6.82,8.66,9.89.16,3.07-.75,18.29-.75,18.29,0,0,5.01,5.78,4.92,14.05s1.88,21.76,1.88,21.76c0,0,2.13-25.41,1.9-28.28s-1.6-27.22-2.7-29.72c-1.1-2.51-10.18-11.81-15.55-12.8-5.36-1-27.44,1.45-28.42,2.06s-27.25-6.42-31.71-3.55c-4.45,2.87-13.04,12.9-13,15.49.04,2.6-1.57,23.5-1.52,25.49.02.85,4.13,30.45,4.13,30.45Z"/>
        <path class="cls-25" d="M120.97,146.67s13.99,11.12,17.55,11.96c4.52,1.06,18.51,2.41,23.04.43,3.82-1.68,16.67-12.45,16.67-12.45,0,0-11.54,13.54-16.84,15.28-3.29,1.08-19.28,1.18-23.62-.21-4.33-1.38-15.9-13.91-16.8-15.01Z"/>
        <path class="cls-6" d="M140.16,115.52s10.77,4.65,11.24,4.55c.47-.11,10.63-4.67,10.63-4.67,0,0-1.29-2.05-3.14-2.16-3.2-.19-6.53,2.72-8.73,2.18-.95-.23-5.74-1.59-8.32-1.73-1.85-.1-1.68,1.83-1.68,1.83Z"/>
        <g>
          <path class="cls-91" d="M154.91,114.75c6.5-5.18,7.12.65,7.12.65-3.59-2.91-7.12-.65-7.12-.65Z"/>
          <path class="cls-91" d="M140.16,115.52s.89-1.78,5.64-.37c0,0-7.9-5.1-5.64.37Z"/>
          <path class="cls-52" d="M157.3,97.12c.05,2.45,1.34,11.63.65,13.06-1.54,3.17-4.59,4.52-7.48,4.39-2.17.35-6.11-.6-8.36-3.77-.92-1.29.69-10.52.2-13.11,0,0-9.37,16.94-2.15,17.82,0,0-1.18-1.9,1.68-1.83,2.54.06,3.88,4.45,8.88,4.26,5.52-.21,4.55-4.12,7.47-4.62,3.62-.63,3,1.75,3.84,2.07,3.6-1.61-1.3-13.95-4.73-18.27Z"/>
          <path class="cls-51" d="M146.07,106.98c-.15,2.73.21,5.64,4.23,5.55,4.42-.11,4.49-3.09,4.03-5.58-2.74-14.72-7.72-10.12-8.26.03Z"/>
        </g>
        <path class="cls-26" d="M142.84,145.12s3.14-4.81,4-5.74c.83-.9,5.57-.59,6.36.38.81,1,5.06,6.96,5.06,6.96,0,0-5.73-4.73-6.25-5.07-.52-.34-2.34-1.34-3.67-.85-1.33.49-5.5,4.33-5.5,4.33Z"/>
      </g>
      <path class="cls-53" d="M249.23,284.3c1.34-6.84,9.9-42.75,9.9-42.75l-19.41,43.43,3.66,13.6h10.56c-2.94-7.79-4.87-13.45-4.71-14.28Z"/>
      <path class="cls-60" d="M29.85,209.68s34.61,62.94,44.87,69.91c10.05,6.83,149.97,11.02,163.56-4.36l33.66-65.55-75.82-40.06-25.55,19.4-22.29,32.48-39.06-50.54-79.37,38.72Z"/>
      <path class="cls-59" d="M147.92,171.94s14.38.95,19.77-2.32c4.71-2.85-13.45,19.15-14.94,19.39-1.49.24-4.83-17.08-4.83-17.08Z"/>
      <polygon class="cls-61" points="239.72 284.98 240.32 298.58 243.38 298.58 239.72 284.98"/>
      <path class="cls-67" d="M50.78,285.74l5.51-11.59-25.9-64.47s-14.27,1.44-25.41,64.28c-1.47,8.28-3.21,16.63-4.98,24.61h45.86c2.01-4.06,3.68-8.34,4.91-12.84Z"/>
      <path class="cls-20" d="M53.21,273.65c-2.28,8.28-6.17,16.79-11.18,24.93h11.57l-.39-24.93Z"/>
      <path class="cls-62" d="M62.6,284.98l-22.95-52.23s12.09,44.72,13.43,51.55c.16.83-1.77,6.49-4.71,14.28h10.56l3.66-13.6Z"/>
      <polygon class="cls-68" points="62.6 284.98 58.94 298.58 62 298.58 62.6 284.98"/>
      <path class="cls-30" d="M165.57,219.33c-5.41,2.22-11.92,2.3-17.59,3.77,0,0-1.35,34.1-2.97,75.48h16.49l4.07-79.25Z"/>
      <g>
        <path class="cls-31" d="M135.52,190.45s6.83,6.28,8.09,7.39c1.21,1.06,4.95,18.55,4.95,18.55l-2.15,36.69-19.64-54.48,8.75-8.14Z"/>
        <path class="cls-32" d="M105.15,178.55c0,4.09,7.23,33.57,7.7,35.15,0,0,8.93-7.71,14.93-12.5l7.74-10.75s-30.37-15.99-30.37-11.9Z"/>
        <path class="cls-29" d="M120.62,157.09s-4.95,6.31-2.42,14.92c2.37,8.05,17.32,18.44,17.32,18.44,0,0-17.89,14.96-21.35,18.33-2.42-8.47-11.57-31.91-9.46-35.24,4.05-6.4,9.85-13.15,15.91-16.46Z"/>
        <path class="cls-37" d="M120.62,157.09s-6.34,8.26,1.06,19.17c5.29,7.81,13.85,14.19,13.85,14.19,0,0-11.6-8.15-14.62-11.87-9.34-11.48-.28-21.5-.28-21.5Z"/>
        <path class="cls-35" d="M164.05,190.15c-2.29,1.5-5.28,3.58-9,6.48-1.57,1.22-7.59,21.77-7.07,26.47.07.62.11,1.55.12,2.66,5.63-1.64,12.14-2.05,17.9-3.27.69-6.2.88-12.67,1.49-18.46.04-.37.33-5.32.33-5.32.38-3.66.16-3.46.33-5.85-2.01-.16-3.45-1.22-4.1-2.71Z"/>
        <path class="cls-38" d="M164.05,190.15l3.77,8.56c4.24,3.31,17.16,11.62,23.79,14.99.81.41,5.84-30.09,7.04-38.56l-34.61,15.01Z"/>
        <polygon class="cls-36" points="165.57 257.73 167.83 198.71 163.58 244.55 162.05 280.34 162.05 280.51 161.24 298.58 162.5 298.58 165.57 257.73"/>
        <path class="cls-34" d="M147.98,234.42v-11.33s-.29,2.9-.69,6.98c-.62,6.3-3.35,36.54-4.19,68.5h2.16l2.72-64.16Z"/>
        <path class="cls-33" d="M164.05,190.15s24.1,16.27,27.17,19.59c2.69-10.61,7.76-30.97,7.76-37.04,0-3.19-13.63-15.47-16.77-17.07,0,0,1.77,5.23.87,10.31-3.22,18.22-19.03,24.21-19.03,24.21Z"/>
        <path class="cls-73" d="M164.05,190.15s23.66-11.19,18.16-34.52c0,0,13.59,22.67-18.16,34.52Z"/>
        <path class="cls-74" d="M139.75,206.15c0,1.17-1.06,2.12-2.36,2.12s-2.36-.95-2.36-2.12,1.06-2.12,2.36-2.12,2.36.95,2.36,2.12Z"/>
        <path class="cls-75" d="M164.05,190.15s-6.61,4.6-9.72,6.19c-3.11,1.6-5.9,21.93-5.9,21.93,0,0,5.63-17.71,6.65-19.36,1.02-1.65,8.97-8.76,8.97-8.76Z"/>
        <path class="cls-69" d="M156.46,284.98c0,1.17-1.06,2.12-2.36,2.12s-2.36-.95-2.36-2.12,1.06-2.12,2.36-2.12,2.36.95,2.36,2.12Z"/>
        <path class="cls-70" d="M157.92,243.81c0,1.2-1.06,2.16-2.36,2.16s-2.36-.97-2.36-2.16,1.06-2.16,2.36-2.16,2.36.97,2.36,2.16Z"/>
      </g>
      <path class="cls-71" d="M176.5,198.71l14.73,11.03,4.57-18.83s-4.43,12.8-5.5,13.13c-1.07.33-13.8-5.33-13.8-5.33Z"/>
      <path class="cls-72" d="M109.42,194.38l4.75,14.41,13.61-11.82s-12.26,8.56-12.72,8.39c-.46-.17-5.63-10.98-5.63-10.98Z"/>
    </g>
  </g>
</svg>