<?xml version="1.0" encoding="UTF-8"?>
<svg id="Layer_2" data-name="Layer 2" xmlns="http://www.w3.org/2000/svg" xmlns:xlink="http://www.w3.org/1999/xlink" viewBox="0 0 302.32 298.58">
  <defs>
    <style>
      .cls-1 {
        fill: url(#Gradient_58);
      }

      .cls-2 {
        fill: url(#Gradient_32);
      }

      .cls-3 {
        fill: url(#Gradient_96);
      }

      .cls-4 {
        fill: url(#Gradient_27);
      }

      .cls-5 {
        fill: url(#Gradient_25);
      }

      .cls-6 {
        fill: url(#Gradient_113);
      }

      .cls-7 {
        fill: url(#Gradient_115);
      }

      .cls-8 {
        fill: url(#radial-gradient-2);
      }

      .cls-9 {
        fill: url(#linear-gradient-8);
      }

      .cls-10 {
        fill: url(#linear-gradient-7);
      }

      .cls-11 {
        fill: url(#linear-gradient-5);
      }

      .cls-12 {
        fill: url(#linear-gradient-6);
      }

      .cls-13 {
        fill: url(#linear-gradient-9);
      }

      .cls-14 {
        fill: url(#linear-gradient-4);
      }

      .cls-15 {
        fill: url(#linear-gradient-3);
      }

      .cls-16 {
        fill: url(#linear-gradient-2);
      }

      .cls-17 {
        fill: url(#radial-gradient);
      }

      .cls-18 {
        fill: url(#linear-gradient);
      }

      .cls-19 {
        fill: #ddd;
      }

      .cls-20 {
        fill: #192b51;
      }

      .cls-21 {
        fill: #fff;
      }

      .cls-22 {
        fill: #f0c499;
      }

      .cls-23 {
        fill: url(#Gradient_115-4);
      }

      .cls-24 {
        fill: url(#Gradient_115-5);
      }

      .cls-25 {
        fill: url(#Gradient_115-6);
      }

      .cls-26 {
        fill: url(#Gradient_115-3);
      }

      .cls-27 {
        fill: url(#Gradient_115-2);
      }

      .cls-28 {
        fill: url(#linear-gradient-43);
      }

      .cls-29 {
        fill: url(#linear-gradient-40);
      }

      .cls-30 {
        fill: url(#linear-gradient-41);
      }

      .cls-31 {
        fill: url(#linear-gradient-42);
      }

      .cls-32 {
        fill: url(#linear-gradient-49);
      }

      .cls-33 {
        fill: url(#linear-gradient-48);
      }

      .cls-34 {
        fill: url(#linear-gradient-45);
      }

      .cls-35 {
        fill: url(#linear-gradient-47);
      }

      .cls-36 {
        fill: url(#linear-gradient-44);
      }

      .cls-37 {
        fill: url(#linear-gradient-46);
      }

      .cls-38 {
        fill: url(#linear-gradient-10);
      }

      .cls-39 {
        fill: url(#linear-gradient-11);
      }

      .cls-40 {
        fill: url(#linear-gradient-12);
      }

      .cls-41 {
        fill: url(#linear-gradient-13);
      }

      .cls-42 {
        fill: url(#linear-gradient-19);
      }

      .cls-43 {
        fill: url(#linear-gradient-14);
      }

      .cls-44 {
        fill: url(#linear-gradient-21);
      }

      .cls-45 {
        fill: url(#linear-gradient-20);
      }

      .cls-46 {
        fill: url(#linear-gradient-22);
      }

      .cls-47 {
        fill: url(#linear-gradient-23);
      }

      .cls-48 {
        fill: url(#linear-gradient-28);
      }

      .cls-49 {
        fill: url(#linear-gradient-25);
      }

      .cls-50 {
        fill: url(#linear-gradient-32);
      }

      .cls-51 {
        fill: url(#linear-gradient-31);
      }

      .cls-52 {
        fill: url(#linear-gradient-33);
      }

      .cls-53 {
        fill: url(#linear-gradient-30);
      }

      .cls-54 {
        fill: url(#linear-gradient-15);
      }

      .cls-55 {
        fill: url(#linear-gradient-16);
      }

      .cls-56 {
        fill: url(#linear-gradient-17);
      }

      .cls-57 {
        fill: url(#linear-gradient-18);
      }

      .cls-58 {
        fill: url(#linear-gradient-35);
      }

      .cls-59 {
        fill: url(#linear-gradient-34);
      }

      .cls-60 {
        fill: url(#linear-gradient-36);
      }

      .cls-61 {
        fill: url(#linear-gradient-38);
      }

      .cls-62 {
        fill: url(#linear-gradient-27);
      }

      .cls-63 {
        fill: url(#linear-gradient-24);
      }

      .cls-64 {
        fill: url(#linear-gradient-26);
      }

      .cls-65 {
        fill: url(#linear-gradient-29);
      }

      .cls-66 {
        fill: url(#linear-gradient-37);
      }

      .cls-67 {
        fill: url(#linear-gradient-39);
      }

      .cls-68 {
        fill: url(#linear-gradient-53);
      }

      .cls-69 {
        fill: url(#linear-gradient-50);
      }

      .cls-70 {
        fill: url(#linear-gradient-51);
      }

      .cls-71 {
        fill: url(#linear-gradient-52);
      }

      .cls-72 {
        fill: url(#Gradient_32-2);
      }

      .cls-73 {
        fill: url(#Gradient_58-3);
      }

      .cls-74 {
        fill: url(#Gradient_58-2);
      }

      .cls-75 {
        fill: url(#Gradient_25-2);
      }

      .cls-76 {
        fill: url(#Gradient_96-2);
      }

      .cls-77 {
        fill: url(#Gradient_96-3);
      }

      .cls-78 {
        fill: url(#Gradient_96-4);
      }

      .cls-79 {
        fill: url(#Gradient_27-9);
      }

      .cls-80 {
        fill: url(#Gradient_27-2);
      }

      .cls-81 {
        fill: url(#Gradient_27-4);
      }

      .cls-82 {
        fill: url(#Gradient_27-3);
      }

      .cls-83 {
        fill: url(#Gradient_27-6);
      }

      .cls-84 {
        fill: url(#Gradient_27-5);
      }

      .cls-85 {
        fill: url(#Gradient_27-8);
      }

      .cls-86 {
        fill: url(#Gradient_27-7);
      }

      .cls-87 {
        fill: #dca57b;
      }
    </style>
    <linearGradient id="linear-gradient" x1="100.51" y1="101.41" x2="194.15" y2="243.29" gradientUnits="userSpaceOnUse">
      <stop offset="0" stop-color="#0b173d"/>
      <stop offset=".5" stop-color="#0c193f"/>
      <stop offset=".82" stop-color="#132248"/>
      <stop offset="1" stop-color="#192b51"/>
    </linearGradient>
    <linearGradient id="linear-gradient-2" x1="177.22" y1="161.57" x2="192.79" y2="165.94" gradientUnits="userSpaceOnUse">
      <stop offset="0" stop-color="#f0c499"/>
      <stop offset=".52" stop-color="#f4cfa5"/>
      <stop offset="1" stop-color="#f7d4ab"/>
    </linearGradient>
    <linearGradient id="linear-gradient-3" x1="126.94" y1="167.72" x2="192.16" y2="186.03" xlink:href="#linear-gradient-2"/>
    <linearGradient id="linear-gradient-4" x1="148.99" y1="204.61" x2="117.89" y2="162.94" gradientUnits="userSpaceOnUse">
      <stop offset="0" stop-color="#f0c499"/>
      <stop offset=".51" stop-color="#e3b086"/>
      <stop offset="1" stop-color="#dba379"/>
    </linearGradient>
    <linearGradient id="linear-gradient-5" x1="191.1" y1="166.59" x2="123.92" y2="141.26" xlink:href="#linear-gradient-4"/>
    <linearGradient id="linear-gradient-6" x1="44.72" y1="192.33" x2="35.69" y2="295.54" gradientUnits="userSpaceOnUse">
      <stop offset="0" stop-color="#2b416b"/>
      <stop offset=".46" stop-color="#293e68"/>
      <stop offset=".75" stop-color="#23375f"/>
      <stop offset="1" stop-color="#192b51"/>
    </linearGradient>
    <linearGradient id="linear-gradient-7" x1="273.55" y1="210.2" x2="274.68" y2="347.58" xlink:href="#linear-gradient-6"/>
    <linearGradient id="linear-gradient-8" x1="123.4" y1="-302.64" x2="122.48" y2="-253.43" gradientTransform="translate(10.57 326.06) rotate(3.42) scale(1 .96)" gradientUnits="userSpaceOnUse">
      <stop offset="0" stop-color="#ffd9b3"/>
      <stop offset=".28" stop-color="#fbd6af"/>
      <stop offset="1" stop-color="#f7d4ab"/>
    </linearGradient>
    <linearGradient id="linear-gradient-9" x1="-713" y1="600.92" x2="-702.79" y2="625.68" gradientTransform="translate(-500.92 -571.48) rotate(177.48) scale(.99 -1.14) skewX(3.14)" gradientUnits="userSpaceOnUse">
      <stop offset="0" stop-color="#dba379"/>
      <stop offset=".49" stop-color="#e3b086"/>
      <stop offset="1" stop-color="#f0c499"/>
    </linearGradient>
    <linearGradient id="linear-gradient-10" x1="1072.45" y1="540.48" x2="1082.51" y2="564.9" gradientTransform="translate(-976.85 -570.21) rotate(2) scale(.99 1.14) skewX(3.13)" xlink:href="#linear-gradient-9"/>
    <linearGradient id="linear-gradient-11" x1="132.65" y1="-253.04" x2="152.4" y2="-234.39" gradientTransform="translate(10.59 316.18) rotate(3.42)" xlink:href="#linear-gradient-2"/>
    <linearGradient id="linear-gradient-12" x1="105.15" y1="-249.77" x2="100.43" y2="-229.78" gradientTransform="translate(10.59 316.18) rotate(3.42)" xlink:href="#linear-gradient-2"/>
    <radialGradient id="radial-gradient" cx="-858.93" cy="35.67" fx="-858.93" fy="35.67" r="23.16" gradientTransform="translate(-697.07 113.39) rotate(177.65) scale(1.02 -.71) skewX(-1.54)" gradientUnits="userSpaceOnUse">
      <stop offset="0" stop-color="#f8c39c"/>
      <stop offset="1" stop-color="#f7d4ab"/>
    </radialGradient>
    <radialGradient id="radial-gradient-2" cx="130.64" cy="31.32" fx="130.64" fy="31.32" r="23.75" gradientTransform="translate(-13.95 90.18) rotate(-3.81) scale(1.02 .69) skewX(2.86)" xlink:href="#radial-gradient"/>
    <linearGradient id="linear-gradient-13" x1="239.47" y1="153.38" x2="225.22" y2="158.29" gradientTransform="translate(-50.52 -57.62) rotate(-.26)" gradientUnits="userSpaceOnUse">
      <stop offset="0" stop-color="#fbd6af"/>
      <stop offset="1" stop-color="#f7d4ab"/>
    </linearGradient>
    <linearGradient id="linear-gradient-14" x1="175.25" y1="158.3" x2="154.11" y2="153.13" xlink:href="#linear-gradient-13"/>
    <linearGradient id="Gradient_58" data-name="Gradient 58" x1="-2681.91" y1="224.24" x2="-2654.39" y2="224.24" gradientTransform="translate(-2543.74 302.76) rotate(170.25) scale(1 -1)" gradientUnits="userSpaceOnUse">
      <stop offset="0" stop-color="#2b1b13"/>
      <stop offset=".04" stop-color="#2e1d14"/>
      <stop offset=".38" stop-color="#442b1d"/>
      <stop offset=".71" stop-color="#513423"/>
      <stop offset="1" stop-color="#563725"/>
    </linearGradient>
    <linearGradient id="Gradient_58-2" data-name="Gradient 58" x1="1298.21" y1="160.35" x2="1327.37" y2="160.35" gradientTransform="translate(-1090.29 -310.69) rotate(9.82)" xlink:href="#Gradient_58"/>
    <linearGradient id="linear-gradient-15" x1="255.24" y1="137.37" x2="228.16" y2="160.5" gradientTransform="translate(-65.84 -66.68) rotate(1.21)" xlink:href="#linear-gradient-4"/>
    <linearGradient id="linear-gradient-16" x1="233.8" y1="123.05" x2="208.21" y2="116.87" gradientTransform="translate(-44.64 -30.94)" gradientUnits="userSpaceOnUse">
      <stop offset="0" stop-color="#ece7e7"/>
      <stop offset=".23" stop-color="#f5f3f3"/>
      <stop offset=".53" stop-color="#fcfcfc"/>
      <stop offset="1" stop-color="#fff"/>
    </linearGradient>
    <linearGradient id="Gradient_96" data-name="Gradient 96" x1="237.09" y1="137.77" x2="212.79" y2="115.72" gradientTransform="translate(-44.64 -30.94)" gradientUnits="userSpaceOnUse">
      <stop offset="0" stop-color="#a8c3dd"/>
      <stop offset="1" stop-color="#7a90a5"/>
    </linearGradient>
    <linearGradient id="Gradient_96-2" data-name="Gradient 96" x1="149.82" y1="-224.99" x2="149.01" y2="-232.49" gradientTransform="translate(10.59 316.18) rotate(3.42)" xlink:href="#Gradient_96"/>
    <radialGradient id="Gradient_25" data-name="Gradient 25" cx="172.65" cy="88.58" fx="172.65" fy="88.58" r="4.01" gradientUnits="userSpaceOnUse">
      <stop offset="0" stop-color="#666"/>
      <stop offset="1" stop-color="#1d1d1d"/>
    </radialGradient>
    <linearGradient id="linear-gradient-17" x1="161.79" y1="86.21" x2="182.27" y2="85.23" gradientUnits="userSpaceOnUse">
      <stop offset="0" stop-color="#2b1b13"/>
      <stop offset=".04" stop-color="#2e1d14"/>
      <stop offset=".38" stop-color="#442b1d"/>
      <stop offset=".71" stop-color="#513423"/>
      <stop offset="1" stop-color="#563725"/>
    </linearGradient>
    <linearGradient id="linear-gradient-18" x1="-3558.29" y1="218.32" x2="-3585.2" y2="241.32" gradientTransform="translate(-3448.2 -67.09) rotate(178.8) scale(1 -1)" xlink:href="#linear-gradient-4"/>
    <linearGradient id="linear-gradient-19" x1="189.32" y1="123.25" x2="163.03" y2="116.91" xlink:href="#linear-gradient-16"/>
    <linearGradient id="Gradient_96-3" data-name="Gradient 96" x1="147.58" y1="107.2" x2="123.17" y2="85.05" gradientTransform="matrix(1,0,0,1,0,0)" xlink:href="#Gradient_96"/>
    <linearGradient id="Gradient_96-4" data-name="Gradient 96" x1="104.78" y1="-220.09" x2="103.97" y2="-227.59" gradientTransform="translate(10.59 316.18) rotate(3.42)" xlink:href="#Gradient_96"/>
    <radialGradient id="Gradient_25-2" data-name="Gradient 25" cx="127.36" cy="88.89" fx="127.36" fy="88.89" r="4" xlink:href="#Gradient_25"/>
    <linearGradient id="linear-gradient-20" x1="116.99" y1="87.05" x2="137.17" y2="86.09" xlink:href="#linear-gradient-17"/>
    <linearGradient id="linear-gradient-21" x1="133.03" y1="-130.27" x2="130.63" y2="-161.48" gradientTransform="translate(10.59 316.18) rotate(3.42)" gradientUnits="userSpaceOnUse">
      <stop offset="0" stop-color="#f7d4ab"/>
      <stop offset=".45" stop-color="#f3caa0"/>
      <stop offset="1" stop-color="#f0c499"/>
    </linearGradient>
    <linearGradient id="Gradient_32" data-name="Gradient 32" x1="130.52" y1="-316.81" x2="113.36" y2="-165.36" gradientTransform="translate(10.59 316.18) rotate(3.42)" gradientUnits="userSpaceOnUse">
      <stop offset="0" stop-color="#724831"/>
      <stop offset=".22" stop-color="#67412c"/>
      <stop offset=".63" stop-color="#5a3926"/>
      <stop offset="1" stop-color="#563725"/>
    </linearGradient>
    <linearGradient id="Gradient_32-2" data-name="Gradient 32" x1="78.97" y1="-278.04" x2="68.18" y2="-182.75" xlink:href="#Gradient_32"/>
    <linearGradient id="linear-gradient-22" x1="129.99" y1="-208.49" x2="129.67" y2="-212.6" gradientTransform="translate(9.19 338.91) rotate(3.42) scale(1 .93)" xlink:href="#linear-gradient-21"/>
    <linearGradient id="Gradient_115" data-name="Gradient 115" x1="149.91" y1="112.21" x2="147.83" y2="165.45" gradientUnits="userSpaceOnUse">
      <stop offset="0" stop-color="#d6ac88"/>
      <stop offset="1" stop-color="#a18166"/>
    </linearGradient>
    <linearGradient id="Gradient_115-2" data-name="Gradient 115" x1="150.94" y1="111.3" x2="148.8" y2="165.94" xlink:href="#Gradient_115"/>
    <linearGradient id="Gradient_27" data-name="Gradient 27" x1="151.13" y1="47.56" x2="163.56" y2="6.67" gradientUnits="userSpaceOnUse">
      <stop offset="0" stop-color="#724831"/>
      <stop offset=".42" stop-color="#7f553b"/>
      <stop offset="1" stop-color="#8e6346"/>
    </linearGradient>
    <linearGradient id="Gradient_27-2" data-name="Gradient 27" x1="134.18" y1="42.41" x2="146.61" y2="1.52" xlink:href="#Gradient_27"/>
    <linearGradient id="Gradient_27-3" data-name="Gradient 27" x1="120.89" y1="38.71" x2="133.61" y2="-3.15" xlink:href="#Gradient_27"/>
    <linearGradient id="Gradient_27-4" data-name="Gradient 27" x1="112.16" y1="34.21" x2="124.59" y2="-6.68" xlink:href="#Gradient_27"/>
    <linearGradient id="Gradient_115-3" data-name="Gradient 115" x1="150.12" y1="-189.18" x2="149.45" y2="-192.01" gradientTransform="translate(10.59 316.18) rotate(3.42)" xlink:href="#Gradient_115"/>
    <linearGradient id="Gradient_115-4" data-name="Gradient 115" x1="109.68" y1="-189.16" x2="109.17" y2="-191.31" gradientTransform="translate(10.59 316.18) rotate(3.42)" xlink:href="#Gradient_115"/>
    <linearGradient id="Gradient_27-5" data-name="Gradient 27" x1="166.52" y1="52.24" x2="178.95" y2="11.34" xlink:href="#Gradient_27"/>
    <linearGradient id="Gradient_27-6" data-name="Gradient 27" x1="180.07" y1="56.36" x2="192.49" y2="15.46" xlink:href="#Gradient_27"/>
    <linearGradient id="Gradient_27-7" data-name="Gradient 27" x1="102.44" y1="32.77" x2="114.87" y2="-8.13" xlink:href="#Gradient_27"/>
    <linearGradient id="Gradient_27-8" data-name="Gradient 27" x1="66.33" y1="-268.68" x2="75.71" y2="-267.44" gradientTransform="translate(10.59 316.18) rotate(3.42)" xlink:href="#Gradient_27"/>
    <linearGradient id="Gradient_27-9" data-name="Gradient 27" x1="192.49" y1="60.33" x2="205.66" y2="16.98" xlink:href="#Gradient_27"/>
    <linearGradient id="Gradient_58-3" data-name="Gradient 58" x1="83.82" y1="-178.98" x2="177.63" y2="-347.02" gradientTransform="translate(10.59 316.18) rotate(3.42)" xlink:href="#Gradient_58"/>
    <linearGradient id="Gradient_115-5" data-name="Gradient 115" x1="130.4" y1="-189.27" x2="130" y2="-194.46" gradientTransform="translate(9.19 338.91) rotate(3.42) scale(1 .93)" xlink:href="#Gradient_115"/>
    <linearGradient id="Gradient_113" data-name="Gradient 113" x1="128.53" y1="-215.73" x2="127.44" y2="-200.85" gradientTransform="translate(10.59 316.18) rotate(3.42)" gradientUnits="userSpaceOnUse">
      <stop offset="0" stop-color="#a18166"/>
      <stop offset="1" stop-color="#d6ac88"/>
    </linearGradient>
    <linearGradient id="linear-gradient-23" x1="227.76" y1="340.96" x2="228.46" y2="365.44" gradientTransform="translate(-92.49 -250.19) rotate(-2.17)" gradientUnits="userSpaceOnUse">
      <stop offset="0" stop-color="#f7d4ab"/>
      <stop offset=".52" stop-color="#f5d1a8"/>
      <stop offset=".85" stop-color="#f2c99f"/>
      <stop offset="1" stop-color="#f0c499"/>
    </linearGradient>
    <linearGradient id="linear-gradient-24" x1="228.07" y1="684.88" x2="229.59" y2="673.71" gradientTransform="translate(-122.6 -1044.14) rotate(-2.16) scale(1 1.7) skewX(.04)" xlink:href="#linear-gradient-8"/>
    <linearGradient id="Gradient_115-6" data-name="Gradient 115" x1="130.42" y1="-211.51" x2="129.47" y2="-215.54" gradientTransform="translate(9.19 338.91) rotate(3.42) scale(1 .93)" xlink:href="#Gradient_115"/>
    <linearGradient id="linear-gradient-25" x1="-17014.89" y1="-1290.17" x2="-17014.44" y2="-1305.61" gradientTransform="translate(17208.2 554.4) rotate(-2.92)" gradientUnits="userSpaceOnUse">
      <stop offset="0" stop-color="#f7d4ab"/>
      <stop offset=".76" stop-color="#f2c89e"/>
      <stop offset="1" stop-color="#f0c499"/>
    </linearGradient>
    <linearGradient id="linear-gradient-26" x1="-17098.55" y1="-1697.29" x2="-17104.23" y2="-1717.45" gradientTransform="translate(17324.46 741.81) rotate(-3.65)" xlink:href="#linear-gradient-9"/>
    <linearGradient id="linear-gradient-27" x1="-17094.13" y1="-1018.34" x2="-17094.21" y2="-1023.15" gradientTransform="translate(17266.41 676.32) rotate(-1.59)" gradientUnits="userSpaceOnUse">
      <stop offset="0" stop-color="#f0c499"/>
      <stop offset=".52" stop-color="#f1c69b"/>
      <stop offset=".85" stop-color="#f4cea4"/>
      <stop offset="1" stop-color="#f7d4ab"/>
    </linearGradient>
    <linearGradient id="linear-gradient-28" x1="-12701.96" y1="550.03" x2="-12703.68" y2="543.91" gradientTransform="translate(17654.81 1324.03) rotate(5.7) scale(1.38 1)" gradientUnits="userSpaceOnUse">
      <stop offset="0" stop-color="#ffd9b3"/>
      <stop offset="1" stop-color="#f7d4ab"/>
    </linearGradient>
    <linearGradient id="linear-gradient-29" x1="-17366.43" y1="-1046.07" x2="-17368.31" y2="-1051.22" gradientTransform="translate(17504.24 1372.91) rotate(.64)" xlink:href="#linear-gradient-9"/>
    <linearGradient id="linear-gradient-30" x1="249.38" y1="231.3" x2="249.67" y2="425.07" xlink:href="#linear-gradient"/>
    <linearGradient id="linear-gradient-31" x1="150.23" y1="170.97" x2="152.77" y2="318.97" xlink:href="#linear-gradient-6"/>
    <linearGradient id="linear-gradient-32" x1="147.92" y1="179.2" x2="168.47" y2="179.2" gradientTransform="matrix(1,0,0,1,0,0)" xlink:href="#linear-gradient-8"/>
    <linearGradient id="linear-gradient-33" x1="241.46" y1="231.31" x2="241.75" y2="425.08" xlink:href="#linear-gradient"/>
    <linearGradient id="linear-gradient-34" x1="27.47" y1="205.33" x2="28.61" y2="342.52" xlink:href="#linear-gradient-6"/>
    <linearGradient id="linear-gradient-35" x1="51.08" y1="231.6" x2="51.38" y2="425.37" xlink:href="#linear-gradient"/>
    <linearGradient id="linear-gradient-36" x1="60.68" y1="231.58" x2="60.97" y2="425.35" xlink:href="#linear-gradient"/>
    <linearGradient id="linear-gradient-37" x1="155.42" y1="207.68" x2="155.15" y2="312.85" xlink:href="#linear-gradient-6"/>
    <linearGradient id="linear-gradient-38" x1="164.56" y1="351.1" x2="136.23" y2="199.8" xlink:href="#linear-gradient-6"/>
    <linearGradient id="linear-gradient-39" x1="119.04" y1="248.14" x2="119.88" y2="206.7" xlink:href="#linear-gradient-6"/>
    <linearGradient id="linear-gradient-40" x1="119.96" y1="289.94" x2="119.96" y2="166.73" xlink:href="#linear-gradient-6"/>
    <linearGradient id="linear-gradient-41" x1="126.32" y1="194.33" x2="125.28" y2="122.67" xlink:href="#linear-gradient"/>
    <linearGradient id="linear-gradient-42" x1="125.04" y1="327.98" x2="170.35" y2="175.05" xlink:href="#linear-gradient-6"/>
    <linearGradient id="linear-gradient-43" x1="179.93" y1="252.49" x2="180.81" y2="209.32" xlink:href="#linear-gradient-6"/>
    <linearGradient id="linear-gradient-44" x1="162.01" y1="305.65" x2="169.37" y2="149.28" xlink:href="#linear-gradient"/>
    <linearGradient id="linear-gradient-45" x1="152.6" y1="303.36" x2="138.18" y2="216.61" xlink:href="#linear-gradient"/>
    <linearGradient id="linear-gradient-46" x1="181.52" y1="301.27" x2="181.52" y2="164" xlink:href="#linear-gradient-6"/>
    <linearGradient id="linear-gradient-47" x1="174.8" y1="193.85" x2="173.91" y2="132.27" xlink:href="#linear-gradient"/>
    <linearGradient id="linear-gradient-48" x1="134.08" y1="201.13" x2="140.29" y2="210.55" xlink:href="#linear-gradient"/>
    <linearGradient id="linear-gradient-49" x1="161.18" y1="212.52" x2="171.47" y2="229.84" xlink:href="#linear-gradient-6"/>
    <linearGradient id="linear-gradient-50" x1="187.11" y1="194.08" x2="147.08" y2="304.3" gradientUnits="userSpaceOnUse">
      <stop offset="0" stop-color="#2b416b"/>
      <stop offset=".54" stop-color="#1f325a"/>
      <stop offset="1" stop-color="#192b51"/>
    </linearGradient>
    <linearGradient id="linear-gradient-51" x1="172.73" y1="196.53" x2="137.94" y2="292.31" gradientUnits="userSpaceOnUse">
      <stop offset="0" stop-color="#2b416b"/>
      <stop offset=".53" stop-color="#1f335a"/>
      <stop offset="1" stop-color="#192b51"/>
    </linearGradient>
    <linearGradient id="linear-gradient-52" x1="194.87" y1="209.49" x2="205.67" y2="227.67" xlink:href="#linear-gradient-6"/>
    <linearGradient id="linear-gradient-53" x1="122.53" y1="205.49" x2="131.94" y2="221.33" xlink:href="#linear-gradient-6"/>
  </defs>
  <g id="Layer_1-2" data-name="Layer 1">
    <g>
      <path class="cls-18" d="M119.11,158.07s25.47-18.7,63.1-2.44c0,0,17.81,22.47.85,38.81-16.96,16.34-59.9,14.8-66.11,1.41-6.2-13.39-2.78-34.93,2.16-37.78Z"/>
      <path class="cls-16" d="M182.95,175.41l6.66-8.51s-7.23-2.17-10.07-16.92c-.12.11-.24.22-.36.33-.87,8.81.71,17.24,3.77,25.09Z"/>
      <path class="cls-15" d="M179.18,150.32c-11.43,10.5-16.96,14.97-31.67,14.05-5.69,0-16.94,2.61-24.05-2.09,5.96,11.97,17.22,21.08,26.44,29.14,3.8,3.8,5.36,10.31,7.33,16.85l25.73-32.86c-3.06-7.85-4.64-16.28-3.77-25.09Z"/>
      <path class="cls-14" d="M131.82,163.75s-9.84-2.47-10.52-3.02c-1.21,2.84-2.69,5.81-4.52,8.9l31.5,51.88,8.94-13.23c-1.96-6.54-3.52-13.04-7.33-16.85-9.22-8.06-14.7-16.01-18.07-27.68Z"/>
      <path class="cls-11" d="M179.54,149.99c-.53-2.76-.91-5.96-1.06-9.66l-58.14-14.7s3.12,16.83.97,35.1c7.04,5.71,20.98,6.64,27.26,6.64,14.87.93,25.81-7.81,30.97-17.38Z"/>
      <path class="cls-20" d="M271.94,209.68c-15.56-5.75-74.21-32.38-74.21-32.38l-47.79,44.91-40.82-44.91s-68.63,27.64-79.27,32.38l28.4,84.45-.06,4.45h186.72l27.03-88.9Z"/>
      <path class="cls-12" d="M58.25,277.81l-28.4-68.13c-12.03,9.93-14.9,49.15-15.13,88.9h43.45c.1-7.31-.56-14.75.08-20.77Z"/>
      <path class="cls-10" d="M297.34,273.97c-11.14-62.84-25.41-64.28-25.41-64.28l-25.9,64.47,5.51,11.59c1.24,4.5,2.9,8.78,4.91,12.84h45.86c-1.76-7.98-3.51-16.33-4.98-24.61Z"/>
      <g>
        <path class="cls-9" d="M106.01,87.09s3.47,47.24,4.79,49.21c1.32,1.97,21.23,16.56,23.8,18.75s29.26.84,29.26.84c0,0,22.42-16.55,24.37-19.77,1.94-3.22,5.26-49.79,5.26-49.79,0,0,5.88-37.97-3.2-51-9.08-13.03-70.98-17.24-81.25.87-10.27,18.11-3.04,50.88-3.04,50.88Z"/>
        <g>
          <path class="cls-22" d="M201.34,82.41c9.68-.71,3.37,14.49,3.37,14.49-3.75,19.67-2.13,23.06-10.74,22.32-6.37-.54.45-36.3,7.37-36.81Z"/>
          <path class="cls-13" d="M195.56,110.7s3.06-3.44,2.91-10.81c-.37-17.38,8.77-17.69,5.62-6.16,0,0-.73-5.65-2.03-4.1-1.6,1.9,1.21,3.29-1.1,12.03-1.21,4.54-5.39,9.05-5.39,9.05Z"/>
        </g>
        <g>
          <path class="cls-22" d="M98.76,82.68c-9.68-.39-3.53,14.6-3.53,14.6,3.54,19.56,3.01,22.47,10.49,21.98,8.41-.55-.05-36.3-6.96-36.58Z"/>
          <path class="cls-38" d="M104.23,110.79s-3.03-3.34-2.79-10.71c.56-17.39-8.58-17.41-5.55-5.98,0,0,.79-5.67,2.08-4.17,1.57,1.84-1.25,3.34.97,11.99,1.16,4.5,5.29,8.87,5.29,8.87Z"/>
        </g>
        <path class="cls-39" d="M159.72,70.34s-3.56,10.6-3.42,11.47,1.27,14.17,1.27,14.17c0,0,25.48-.8,28.81-1.85,3.33-1.04,5.06-11.29,5.06-11.29l-7.22-8.57s-4.1-3.63-4.84-3.13c-.74.5-19.66-.8-19.66-.8Z"/>
        <path class="cls-40" d="M139.43,71.01s3.52,10.5,3.41,11.37c-.11.88-.84,13.37-.84,13.37,0,0-25.49.16-28.86-.76s-4.45-7.41-4.45-7.41l.37-4.31s5.63-7.05,6.32-7.61c5.37-4.39,24.05-4.65,24.05-4.65Z"/>
        <path class="cls-17" d="M175.2,119.18c8.23.51,17.42-.56,19.07-17.3.94-9.54-.13-14.51-4.2-15.23-8.64-1.55-21.01,2.22-26.15,4.88-10.87,5.62-3.3,26.76,11.28,27.66Z"/>
        <path class="cls-8" d="M133.98,90.25c-2.36-.84-20.28-4.76-25.61-3.2-3.04.89-1.73,7.6-1.2,13.97.26,3.06.24,7.96.95,9.88,3.49,9.42,16.63,9.77,24.2,7.11,12.93-4.55,13.6-23.53,1.65-27.75Z"/>
        <path class="cls-41" d="M189.23,93.18c-1.49-.81-2.59.38-5.67,1.39-3.02.99-11.28,2.56-7.38,4.61,4.3,2.27,10.29-.89,11.01-1.48.72-.59,3.87-3.51,2.04-4.51Z"/>
        <path class="cls-43" d="M116.15,95.49c-3.14-.83-4.3-1.95-5.74-1.05-1.77,1.11,1.55,3.83,2.31,4.38.76.55,6.93,3.35,11.08.83,3.76-2.28-4.57-3.35-7.65-4.16Z"/>
        <path class="cls-1" d="M117.43,71.86c2.91-3.46,9.67-4.65,13.59-5.24,2.22-.33,5.35-.8,7.49-.41.45,1.2.64,2.08.5,3.6.77-.93.73-2.38.36-3.34.06.02,1.91,1.95.98,4.69-.44,1.31-4.11.91-12.26,2.11-2.21.32-5.71.98-8.9,2.18-1.11.41-5.09,1.89-5.09,1.89-.31-.36,2.08-3.97,3.34-5.48Z"/>
        <path class="cls-74" d="M182.71,71.22c-1.93-2.51-8.95-4.31-13-4.81-2.08-.26-7.32-1.31-9.51-.93-.45,1.19-.64,2.08-.49,3.6-.79-.94-.76-2.39-.39-3.35-.06.02-1.94,1.93-.97,4.69.46,1.31,4.21.95,12.55,2.22,2.27.35,7.11,1.05,10.34,2.06,1.16.36,5,1.91,5,1.91.31-.35-1.82-3.16-3.55-5.4Z"/>
        <g>
          <path class="cls-54" d="M159.64,91.47c-1.03-1.24.04-3.88.62-5.53,1.81-5.16,5.28-5.68,13.41-5.85,2.67-.06,6.06.68,10.23,3.1,2.57,1.49,3.77,2.82,3.53,4.61-.12.91-4.39,6.03-13.27,6.3-5.8.18-12.4-.05-14.53-2.62Z"/>
          <path class="cls-55" d="M183.23,87.73c-.23.59-.55,1.12-.95,1.6-.63.76-1.43,1.37-2.33,1.85-.34.15-.69.25-1.06.33-.05.02-.1.02-.14.03-.59.13-1.16.26-1.69.36-2.81.56-4.98.83-6.82.83-.75,0-1.44-.05-2.1-.13-.32-.03-.64-.1-.95-.18-2.7-.63-4.72-2.4-5.1-3.12,0,0,0-.02.02-.03v-.02c.14-.33.72-1.57,2.39-3.35,1.04-1.11,3.08-2.23,4.57-2.39.48-.05,1.41-.57,1.87-.59,8.41-.35,11.89,4.3,12.28,4.78.02.02.02.03.02.03Z"/>
          <path class="cls-19" d="M183.23,87.72c-.22.59-.54,1.14-.95,1.62-.1-.07-.22-.12-.35-.21-.86-.46-2.64-.96-5.51-1.21-10.9-.9-13.71.85-14.22,1.25-.04.02-.05.06-.09.09.36-1.87,1.43-3.29,2.85-4.37.56-.42,1.17-.78,1.83-1.09.1-.06.21-.11.33-.15,1.54-.64,3.32-.94,5.09-.99,2.56-.1,5.54.38,7.96,1.68,0,.01.01.01.01.01,1.67,1.47,2.83,3.08,3.02,3.34v.02h.02Z"/>
          <path class="cls-3" d="M179.63,89.8c-.06.35-.24,1.29-.45,1.65-.13.08-.59.26-.77.35-.59.13-1.24.33-1.76.43-2.81.56-4.56.52-6.41.52-.75,0-1.44-.05-2.1-.13-.32-.03-.64-.1-.95-.18-.58-.76-1.12-1.87-1.09-3.39.1-4.01,3.47-5.8,7.19-5.5,3.71.31,6.93,2.4,6.34,6.26Z"/>
          <path class="cls-76" d="M166.24,87.83s5.27-1.15,13.44.57c0,0-.15-4.18-5.08-5.07-4.62-.84-8.03,2.12-8.36,4.51Z"/>
          <path class="cls-5" d="M171.21,92.74c-1.99-.03-.02,0-.02,0-1.53-.7-2.59-2.21-2.5-3.94.11-2.3,2.21-4.08,4.48-3.95,2.28.13,4.04,2.07,3.94,4.35-.07,1.38-.81,2.57-1.87,3.25,0,0-2.03.32-4.03.29Z"/>
          <path d="M173.03,84.84c-2.69-.15-3.94,1.81-4.28,3.44,0,0,4.42-.44,8.35.39,0,0-.21-3.61-4.07-3.82Z"/>
          <path class="cls-21" d="M178.75,90.87c.44-.83.09-1.9-.78-2.39-.87-.48-1.94-.2-2.39.63-.45.84-.1,1.9.78,2.39.87.49,1.94.2,2.39-.63Z"/>
          <path class="cls-21" d="M174.29,91.18c.35-.66.08-1.5-.61-1.88-.69-.38-1.54-.16-1.89.5-.35.66-.08,1.5.61,1.88.69.38,1.54.16,1.89-.5Z"/>
          <path class="cls-56" d="M183.2,87.68v.02c-.4-.2-5.46-2.05-10.55-1.82-2.93.14-3.74.37-5.05.67-3.02.72-4.96,2.08-5.4,2.61-.04.02-.05.06-.09.09-.04-.26-.14-2.13,2.85-4.37.17-.14.36-.26.56-.4.4-.27.82-.51,1.27-.69.1-.06.21-.11.33-.15,1.54-.64,3.32-.94,5.09-.99,2.56-.1,5.54.38,7.96,1.68,0,.01.01.01.01.01,2.24,1.21,2.9,3.04,3.02,3.34Z"/>
        </g>
        <g>
          <path class="cls-57" d="M140.57,91.79c1.02-1.24-.04-3.88-.61-5.53-1.79-5.16-5.59-5.69-13.65-5.87-2.65-.06-6.94.72-10.17,3.11-2.37,1.76-3.35,2.81-3.11,4.6.12.91,4.35,6.03,13.14,6.3,5.74.18,12.28-.05,14.4-2.62Z"/>
          <path class="cls-42" d="M138.15,89.62c-.37.71-2.26,2.36-4.76,3.04-.4.12-.81.22-1.24.26-.65.08-1.35.13-2.1.13-1.81,0-3.96-.26-6.74-.83-.35-.07-.7-.15-1.07-.21-.25-.07-.51-.12-.76-.17-.36-.08-.7-.2-1.03-.33-.89-.48-1.69-1.11-2.31-1.87-.4-.46-.72-1.01-.94-1.6,0,0,0-.02.02-.03.38-.46,3.67-4.84,12.01-4.51.45.03,1.29.47,1.77.52,1.48.17,3.09.99,4.14,2.09,1.65,1.78,2.86,3.13,3.01,3.46v.02s.02.03.02.03Z"/>
          <path class="cls-19" d="M138.13,89.57l-.07-.07c-.47-.36-3.44-2.26-14.36-1.36-2.84.23-4.37.85-5.2,1.31-.14.07-.25.14-.36.21-.4-.48-.72-1.03-.95-1.62h.01s.01-.02.02-.04c.16-.22,1.25-1.21,2.58-2.49.31-.25.58-.46.94-.68.47-.28,1.08-.66,1.63-.87,1.58-.65,2.87-.68,4.71-.68,2.66,0,5,.37,7.04,1.76,2.03,1.38,3.25,2.48,3.67,3.36.01.02.02.05.04.07.14.35.23.72.31,1.11Z"/>
          <path class="cls-77" d="M134.41,89.36c.04,1.47-.47,2.55-1.01,3.31-.39.11-.81.22-1.24.25-.67.09-1.37.14-2.1.14-.29,0-.57,0-.88.02-1.11,0-2.26,0-3.68-.2-.54-.09-1.13-.2-1.76-.34-.36-.07-1.04-.36-1.42-.41-.32-.13-.59-.14-.79-.27-.22-.38-.47-1.4-.52-1.74-.59-3.86,2.61-5.95,6.29-6.24,3.68-.32,7.03,1.47,7.12,5.48Z"/>
          <path class="cls-78" d="M134.27,88.16s-5.22-1.15-13.32.57c0,0,.15-4.18,5.03-5.07,4.58-.84,7.95,2.13,8.29,4.51Z"/>
          <path class="cls-75" d="M131.78,89.09c.09,1.76-1.04,3.33-2.61,3.99-1.11,0-2.26,0-3.68-.2-1.17-.67-1.98-1.92-2.05-3.4-.13-2.28,1.62-4.22,3.88-4.35,2.26-.13,4.35,1.67,4.46,3.95Z"/>
          <path d="M127.47,85.13c2.66-.15,3.91,1.81,4.24,3.44,0,0-4.38-.44-8.27.39,0,0,.21-3.61,4.03-3.82Z"/>
          <path class="cls-21" d="M129.78,91.67c-.44-.83-.09-1.9.77-2.39.87-.48,1.92-.2,2.37.63.44.84.1,1.9-.77,2.39-.86.49-1.93.2-2.37-.63Z"/>
          <path class="cls-21" d="M126.13,91.78c-.35-.66-.08-1.5.6-1.88.69-.38,1.52-.16,1.87.5.35.66.08,1.5-.6,1.88-.69.38-1.53.16-1.87-.5Z"/>
          <path class="cls-45" d="M138.14,89.61s0-.02-.01-.04l-.07-.07c-.43-.52-2.26-1.89-5.24-2.63-1.31-.3-2.56-.61-5.45-.75-4.98-.21-9.68,1.64-10.15,1.89-.01.01-.01.02-.02.02.07-.16.88-1.54,2.42-2.81.31-.25.66-.47,1-.72,1.67-1.17,4.68-1.5,6.52-1.5,2.66,0,5.23.43,7.27,1.83,2.03,1.38,2.95,2.67,3.37,3.55.01.02.02.05.04.07.32.69.32,1.12.32,1.15Z"/>
        </g>
        <path class="cls-44" d="M118.26,40.38c1.71-.82,26.78,2.73,30.71,1.83,3.93-.89,25.05-4.73,29.15-2.45,4.1,2.28,7,6.84,7.4,9.36.4,2.52-.25,14.97,0,17s3.79,4.55,4.81,16.3c1.01,11.75.48,22.9-.15,27.78-.62,4.88-5.12,21.07-5.12,21.07l8.21-23.67s.82-2.8,1-5.74c.18-2.93,2.36-38.65,2.36-38.65l-11.75-34.77-68.88-3.3-14.9,33.32,3.85,40.24,1.87,5.42,5.83,20.5s-2.23-24.69-2.93-26.16c-.71-1.47-.71-14.81-.47-17.31.66-6.79,4.04-13.4,4.46-15.21.42-1.81-1.7-14.64-1.26-16.45.43-1.81,5.82-9.14,5.82-9.14Z"/>
        <path class="cls-2" d="M110.22,41.45s6.72-9.77,23.73-7.1c11.31,1.77,11.78,1.65,15.58,2.49,3.8.84,22-6.17,29.99-3.03,7.99,3.13,8.78,12.36,8.85,16.91.06,4.55-.91,15.26.2,15.98,1.11.71,5.11,5.21,4.75,11.43-.36,6.23.96,23.75.96,23.75,0,0,1.29-18.95,7.73-19.49l.4-13.05s2.58-8.96,2.79-12.67c.41-6.99-1.57-12.93-1.68-14.1-.29-3.01-5.42-8.21-6.31-9.21,0,0,3.26-7.01-5.68-11.89,0,0-1.81-14.65-17.66-17.98-15.85-3.32-29.17-2.42-34.06-.71,0,0-17.49-4.48-26.09,6.97,0,0-11.04,4.39-12.16,15.25-1.12,10.87,2.59,15.28,3.19,15.12l5.48,1.31Z"/>
        <path class="cls-72" d="M111.92,40.13s-5.48,7.04-3.69,21.12c0,0-2.75,7.72-2.76,12.84,0,5.12,1.51,24.89,1.51,24.89,0,0-3.35-16.79-9.67-16.23,0,0-1.23-11.58-1.55-12.33,0,0-4.91-9.18-1.45-19.95,1.99-6.21,10.41-10.34,10.41-10.34h7.18Z"/>
        <path class="cls-46" d="M126.62,133.46s12.57,7.07,13.21,6.96c.64-.11,8.47-4.95,8.47-4.95,0,0,8.48,5.7,10.94,5.51,2.46-.19,14.24-9.16,14.24-9.16,0,0-3.1,11.74-5.61,12.92-2.52,1.18-40.88-.86-40.88-.86l-.37-10.42Z"/>
        <path class="cls-7" d="M193.27,107.51s-1.45,23.11-3.47,27.6c-2.02,4.49-24.36,20.33-28.63,23.87-4.27,3.54-20.35.54-23.41,0-3.07-.54-25.43-18.91-28.48-23.87-3.06-4.96-2.09-34.1-2.09-34.1,0,0,4.02,20.69,6.84,24.69,2.82,4,20.8,14.61,23.83,16.62,1.28.85,4.06.37,6.16-2.5,2-2.73,1.07-4.11,6.19-3.8,4.11.25,3.26,1.92,6.21,5.37,2.08,2.44,4.03,2.37,5.35,1.22,2.81-2.46,24.57-16.47,25.5-18.66.93-2.19,6-16.45,6-16.45Z"/>
        <path class="cls-27" d="M126.1,127.08c2.56-2.99,14.48-12.67,15.71-12.29,7.41,2.26,15.11-1.69,16.05-1.99.94-.3,13.48,11.89,15.04,14.09,1.67,2.35,2.82,9.05,3.24,11.61.51,3.16-4.94,4.88-4.94,4.88,0,0,.76-11.92.74-15.38-5.93-2.79-30.38-5.19-30.38-5.19,0,0-9.52,3.67-14.19,4.98-1.12,4.74,2.03,13.26,2.03,13.26,0,0-3.52,1.12-5.81-3.27.55-5.61,1.84-9.9,2.51-10.69Z"/>
        <path class="cls-4" d="M149.99,27.9s-.18-23.36,28.63-22.91c0,0-16.74-10.08-27.37,1.54-10.63,11.63-1.26,21.37-1.26,21.37Z"/>
        <path class="cls-80" d="M136.94,25.6s1.28-18.1,18.13-22.22c0,0-5.61-7.19-15.27-.59-9.66,6.59-2.86,22.82-2.86,22.82Z"/>
        <path class="cls-82" d="M129.9,26.7s-3.54-19.27,9.89-23.92c0,0-10.4-7.24-16.64,3.4-6.24,10.64,6.75,20.52,6.75,20.52Z"/>
        <path class="cls-81" d="M117.6,27.9s-12.25-11.04-3.9-19.65c8.36-8.61,15.63-5.49,15.63-5.49,0,0-8.28,5.13-9.82,11.29-1.54,6.15-1.92,13.86-1.92,13.86Z"/>
        <path class="cls-26" d="M171.9,130.33l-.12-2.31-3.91-2.61s4.5,2.04,4.38,2.68c-.15.81-.35,2.24-.35,2.24Z"/>
        <path class="cls-23" d="M127.13,130.12l.67-2.34s5.58-1.85,5.52-2.99c0,0-6.02,2.53-6.45,3.13l.25,2.21Z"/>
        <path class="cls-84" d="M159.99,25.2s.12-15,11.77-17.7c11.65-2.69,18.42,4.37,19.76,13.97,0,0-2.69-11.04-16.64-6.73-9.44,2.92-14.89,10.46-14.89,10.46Z"/>
        <path class="cls-83" d="M177.88,30.9s13.01-6.76,19.32,2.45c0,0,.7-10.15-9.1-10.73-9.8-.58-10.23,8.28-10.23,8.28Z"/>
        <path class="cls-86" d="M104.73,40.13s-7.55-5.17-2.88-20.35c2.38-7.74,11.85-10.03,11.85-10.03,0,0-3.8,3.04-8.97,16.18-2.42,6.16,0,14.2,0,14.2Z"/>
        <path class="cls-85" d="M104.73,40.13s-7.73.13-11.42,9.67c-2.03,5.24,4.09,17.14,4.09,17.14,0,0-1.33-11.32.64-17,2.23-6.44,6.7-9.81,6.7-9.81Z"/>
        <path class="cls-79" d="M190.28,35.68s9.51-4.3,13.21,5.27c2.4,6.21,2.64,10.48-2.1,18.62,0,0,.36-12.48-1.9-16.02-2.27-3.53-9.21-7.87-9.21-7.87Z"/>
        <path class="cls-73" d="M107.18,101.02s.22-6.9.04-18.34c-.1-6.66,1-11.4,4.69-16.9,0,0-2.02-15.83-1.13-17.89,1.97-4.59,8.65-10.91,9.88-11.11,1.24-.2,26.74,2.04,29.88,1.69,3.15-.36,23.2-3.7,28.96-.73,2.42,1.25,8.52,6.84,8.69,9.91.16,3.07-.75,18.34-.75,18.34,0,0,5.02,5.8,4.93,14.08-.09,8.29,1.88,21.81,1.88,21.81,0,0,2.14-25.48,1.9-28.34-.24-2.87-1.61-27.28-2.71-29.79-1.1-2.51-10.21-11.83-15.58-12.84-5.38-1-27.5,1.45-28.49,2.06-.99.61-27.32-6.43-31.78-3.56-4.47,2.88-13.08,12.93-13.03,15.53.04,2.6-1.57,23.56-1.53,25.56.02.85,4.14,30.52,4.14,30.52Z"/>
        <path class="cls-24" d="M119,144.87s15.62,11.33,19.19,12.16c4.54,1.06,18.55,2.42,23.09.43,3.83-1.68,18.26-12.59,18.26-12.59,0,0-13.11,13.69-18.43,15.43-3.29,1.08-19.33,1.18-23.68-.21-4.34-1.39-17.54-14.12-18.44-15.22Z"/>
        <path class="cls-6" d="M139.84,115.79s10.79,4.67,11.26,4.56,10.66-4.68,10.66-4.68c0,0-1.29-2.06-3.14-2.17-3.21-.19-6.55,2.73-8.75,2.19-.95-.23-5.76-1.59-8.34-1.73-1.86-.1-1.69,1.84-1.69,1.84Z"/>
        <g>
          <path class="cls-87" d="M154.63,115.02c6.51-5.19,7.13.65,7.13.65-3.6-2.92-7.13-.65-7.13-.65Z"/>
          <path class="cls-87" d="M139.84,115.79s.89-1.79,5.65-.37c0,0-7.92-5.12-5.65.37Z"/>
          <path class="cls-47" d="M157.02,97.36c.05,2.45,1.34,11.66.65,13.09-1.54,3.18-4.6,4.53-7.5,4.4-2.17.35-6.13-.6-8.38-3.78-.92-1.3.69-10.55.2-13.14,0,0-9.39,16.98-2.15,17.87,0,0-1.19-1.9,1.69-1.84,2.54.06,3.89,4.46,8.9,4.27,5.53-.21,4.57-4.13,7.49-4.63,3.63-.63,3.01,1.75,3.85,2.08,3.61-1.62-1.3-13.98-4.75-18.31Z"/>
          <path class="cls-63" d="M145.76,107.24c-.15,2.73.21,5.66,4.24,5.56,4.43-.11,4.5-3.1,4.04-5.59-2.75-14.76-7.74-10.14-8.28.03Z"/>
        </g>
        <path class="cls-25" d="M142.53,141.53s3.15-4.82,4.01-5.76c.83-.91,5.59-.59,6.37.38.81,1.01,3.51,5.25,3.51,5.25,0,0-4.17-3.02-4.69-3.36-.52-.34-2.34-1.34-3.68-.85-1.33.49-5.52,4.34-5.52,4.34Z"/>
        <g>
          <path class="cls-49" d="M141,120.94c3.67-1.5,6.1,0,8.62,0s4.7-1.22,7.58-.51c4.4,1.08,9.56,4.11,14.34,7.42-2.18-.4-4.62-1.26-8.62-2.42-.65-.19-7.71-1.56-8.45-1.43-9.12-.99-9.83-.26-19.4,1.79-.82.17-6.33,1.75-7.26,1.98,1.14-.41,8.56-4.95,13.19-6.84Z"/>
          <path class="cls-64" d="M172.25,128.1c-7.28-2.42-9.18-3.7-12.59-4.19-3.63-.51-6.5-.82-9.87-.85-3.55-.03-5.52.08-9.59,1.01-2.36.54-10.21,3.03-13.32,3.84,2.69.04,6.09-1.29,8.62-1.44,3.8-1.07,14.29-3.41,26.51-.37,4.59,1.14,8.04,1.65,10.25,2Z"/>
          <path class="cls-62" d="M136.65,130.54s11.7,5.51,28.02-.65c0,0-9.94,2.87-28.02.65Z"/>
          <path class="cls-48" d="M142.69,125.9c2.6-.29,14.48-.86,15.81.66,1.33,1.51-5.02,3.64-10.7,3.23-5.68-.41-10.9-3.24-5.12-3.88Z"/>
          <path class="cls-65" d="M143.94,132.43s3.44.78,6.21.81c2.95.03,3.38-.23,6.88-1.19,0,0-6.87,1.36-13.09.37Z"/>
        </g>
      </g>
      <path class="cls-20" d="M249.11,273.65l-.39,24.93h11.57c-5.01-8.14-8.9-16.65-11.18-24.93Z"/>
      <path class="cls-53" d="M249.23,284.3c1.34-6.84,9.9-42.75,9.9-42.75l-19.41,43.43,3.66,13.6h10.56c-2.94-7.79-4.87-13.45-4.71-14.28Z"/>
      <path class="cls-51" d="M29.85,209.68s34.61,62.94,44.87,69.91c10.05,6.83,149.97,11.02,163.56-4.36l33.66-65.55-75.82-40.06-25.55,19.4-22.29,32.48-39.06-50.54-79.37,38.72Z"/>
      <path class="cls-50" d="M147.92,171.94s14.38.95,19.77-2.32c4.71-2.85-13.45,19.15-14.94,19.39-1.49.24-4.83-17.08-4.83-17.08Z"/>
      <polygon class="cls-52" points="239.72 284.98 240.32 298.58 243.38 298.58 239.72 284.98"/>
      <path class="cls-59" d="M50.78,285.74l5.51-11.59-25.9-64.47s-14.27,1.44-25.41,64.28c-1.47,8.28-3.21,16.63-4.98,24.61h45.86c2.01-4.06,3.68-8.34,4.91-12.84Z"/>
      <path class="cls-20" d="M53.21,273.65c-2.28,8.28-6.17,16.79-11.18,24.93h11.57l-.39-24.93Z"/>
      <path class="cls-58" d="M62.6,284.98l-22.95-52.23s12.09,44.72,13.43,51.55c.16.83-1.77,6.49-4.71,14.28h10.56l3.66-13.6Z"/>
      <polygon class="cls-60" points="62.6 284.98 58.94 298.58 62 298.58 62.6 284.98"/>
      <path class="cls-66" d="M165.57,219.33c-5.41,2.22-11.92,2.3-17.59,3.77,0,0-1.35,34.1-2.97,75.48h16.49l4.07-79.25Z"/>
      <g>
        <path class="cls-61" d="M135.52,190.45s6.83,6.28,8.09,7.39c1.21,1.06,4.95,18.55,4.95,18.55l-2.15,36.69-19.64-54.48,8.75-8.14Z"/>
        <path class="cls-67" d="M105.15,178.55c0,4.09,7.23,33.57,7.7,35.15,0,0,8.93-7.71,14.93-12.5l7.74-10.75s-30.37-15.99-30.37-11.9Z"/>
        <path class="cls-29" d="M120.62,157.09s-4.95,6.31-2.42,14.92c2.37,8.05,17.32,18.44,17.32,18.44,0,0-17.89,14.96-21.35,18.33-2.42-8.47-11.57-31.91-9.46-35.24,4.05-6.4,9.85-13.15,15.91-16.46Z"/>
        <path class="cls-30" d="M120.62,157.09s-6.34,8.26,1.06,19.17c5.29,7.81,13.85,14.19,13.85,14.19,0,0-11.6-8.15-14.62-11.87-9.34-11.48-.28-21.5-.28-21.5Z"/>
        <path class="cls-31" d="M164.05,190.15c-2.29,1.5-5.28,3.58-9,6.48-1.57,1.22-7.59,21.77-7.07,26.47.07.62.11,1.55.12,2.66,5.63-1.64,12.14-2.05,17.9-3.27.69-6.2.88-12.67,1.49-18.46.04-.37.33-5.32.33-5.32.38-3.66.16-3.46.33-5.85-2.01-.16-3.45-1.22-4.1-2.71Z"/>
        <path class="cls-28" d="M164.05,190.15l3.77,8.56c4.24,3.31,17.16,11.62,23.79,14.99.81.41,5.84-30.09,7.04-38.56l-34.61,15.01Z"/>
        <polygon class="cls-36" points="165.57 257.73 167.83 198.71 163.58 244.55 162.05 280.34 162.05 280.51 161.24 298.58 162.5 298.58 165.57 257.73"/>
        <path class="cls-34" d="M147.98,234.42v-11.33s-.29,2.9-.69,6.98c-.62,6.3-3.35,36.54-4.19,68.5h2.16l2.72-64.16Z"/>
        <path class="cls-37" d="M164.05,190.15s24.1,16.27,27.17,19.59c2.69-10.61,7.76-30.97,7.76-37.04,0-3.19-13.63-15.47-16.77-17.07,0,0,1.77,5.23.87,10.31-3.22,18.22-19.03,24.21-19.03,24.21Z"/>
        <path class="cls-35" d="M164.05,190.15s23.66-11.19,18.16-34.52c0,0,13.59,22.67-18.16,34.52Z"/>
        <ellipse class="cls-33" cx="137.39" cy="206.15" rx="2.36" ry="2.12"/>
        <path class="cls-32" d="M164.05,190.15s-6.61,4.6-9.72,6.19c-3.11,1.6-5.9,21.93-5.9,21.93,0,0,5.63-17.71,6.65-19.36,1.02-1.65,8.97-8.76,8.97-8.76Z"/>
        <path class="cls-69" d="M156.46,284.98c0,1.17-1.06,2.12-2.36,2.12s-2.36-.95-2.36-2.12,1.06-2.12,2.36-2.12,2.36.95,2.36,2.12Z"/>
        <path class="cls-70" d="M157.92,243.81c0,1.2-1.06,2.16-2.36,2.16s-2.36-.97-2.36-2.16,1.06-2.16,2.36-2.16,2.36.97,2.36,2.16Z"/>
      </g>
      <path class="cls-71" d="M176.5,198.71l14.73,11.03,4.57-18.83s-4.43,12.8-5.5,13.13c-1.07.33-13.8-5.33-13.8-5.33Z"/>
      <path class="cls-68" d="M109.42,194.38l4.75,14.41,13.61-11.82s-12.26,8.56-12.72,8.39c-.46-.17-5.63-10.98-5.63-10.98Z"/>
    </g>
  </g>
</svg>