<?xml version="1.0" encoding="UTF-8"?>
<svg id="Layer_2" data-name="Layer 2" xmlns="http://www.w3.org/2000/svg" width="204.89" height="204.89" xmlns:xlink="http://www.w3.org/1999/xlink" viewBox="0 0 204.89 204.89">
  <defs>
    <clipPath id="clippath">
      <rect width="204.89" height="204.89" style="fill: none;"/>
    </clipPath>
    <linearGradient id="linear-gradient" x1="52.76" y1="113.36" x2="146.4" y2="255.24" gradientUnits="userSpaceOnUse">
      <stop offset="0" stop-color="#0b173d"/>
      <stop offset=".5" stop-color="#0c193f"/>
      <stop offset=".82" stop-color="#132248"/>
      <stop offset="1" stop-color="#192b51"/>
    </linearGradient>
    <linearGradient id="linear-gradient-2" x1="129.47" y1="173.52" x2="145.04" y2="177.89" gradientUnits="userSpaceOnUse">
      <stop offset="0" stop-color="#f0c499"/>
      <stop offset=".52" stop-color="#f4cfa5"/>
      <stop offset="1" stop-color="#f7d4ab"/>
    </linearGradient>
    <linearGradient id="linear-gradient-3" x1="79.19" y1="179.67" x2="144.41" y2="197.98" xlink:href="#linear-gradient-2"/>
    <linearGradient id="linear-gradient-4" x1="101.24" y1="216.56" x2="70.14" y2="174.89" gradientUnits="userSpaceOnUse">
      <stop offset="0" stop-color="#f0c499"/>
      <stop offset=".51" stop-color="#e3b086"/>
      <stop offset="1" stop-color="#dba379"/>
    </linearGradient>
    <linearGradient id="linear-gradient-5" x1="143.35" y1="178.54" x2="76.17" y2="153.21" xlink:href="#linear-gradient-4"/>
    <linearGradient id="linear-gradient-6" x1="75.65" y1="-290.63" x2="74.73" y2="-241.42" gradientTransform="translate(11.18 329.32) rotate(3.42) scale(1 .96)" gradientUnits="userSpaceOnUse">
      <stop offset="0" stop-color="#ffd9b3"/>
      <stop offset=".28" stop-color="#fbd6af"/>
      <stop offset="1" stop-color="#f7d4ab"/>
    </linearGradient>
    <linearGradient id="linear-gradient-7" x1="-758.74" y1="612.83" x2="-748.53" y2="637.6" gradientTransform="translate(-594.02 -571.16) rotate(177.48) scale(.99 -1.14) skewX(3.14)" gradientUnits="userSpaceOnUse">
      <stop offset="0" stop-color="#dba379"/>
      <stop offset=".49" stop-color="#e3b086"/>
      <stop offset="1" stop-color="#f0c499"/>
    </linearGradient>
    <linearGradient id="linear-gradient-8" x1="1024.69" y1="552.47" x2="1034.76" y2="576.88" gradientTransform="translate(-977.36 -570.31) rotate(2) scale(.99 1.14) skewX(3.13)" xlink:href="#linear-gradient-7"/>
    <linearGradient id="linear-gradient-9" x1="84.91" y1="-241.03" x2="104.65" y2="-222.38" gradientTransform="translate(11.22 318.99) rotate(3.42)" xlink:href="#linear-gradient-2"/>
    <linearGradient id="linear-gradient-10" x1="57.4" y1="-237.76" x2="52.69" y2="-217.77" gradientTransform="translate(11.22 318.99) rotate(3.42)" xlink:href="#linear-gradient-2"/>
    <radialGradient id="radial-gradient" cx="-904.71" cy="47.56" fx="-904.71" fy="47.56" r="23.16" gradientTransform="translate(-792.12 118.8) rotate(177.65) scale(1.02 -.71) skewX(-1.54)" gradientUnits="userSpaceOnUse">
      <stop offset="0" stop-color="#f8c39c"/>
      <stop offset="1" stop-color="#f7d4ab"/>
    </radialGradient>
    <radialGradient id="radial-gradient-2" cx="82.91" cy="43.17" fx="82.91" fy="43.17" r="23.75" gradientTransform="translate(-14.36 90.78) rotate(-3.81) scale(1.02 .69) skewX(2.86)" xlink:href="#radial-gradient"/>
    <linearGradient id="linear-gradient-11" x1="191.72" y1="165.32" x2="177.47" y2="170.24" gradientTransform="translate(-50.58 -57.83) rotate(-.26)" gradientUnits="userSpaceOnUse">
      <stop offset="0" stop-color="#fbd6af"/>
      <stop offset="1" stop-color="#f7d4ab"/>
    </linearGradient>
    <linearGradient id="linear-gradient-12" x1="127.5" y1="170.24" x2="106.36" y2="165.08" xlink:href="#linear-gradient-11"/>
    <linearGradient id="Gradient_58" data-name="Gradient 58" x1="-2727.68" y1="236.02" x2="-2700.15" y2="236.02" gradientTransform="translate(-2638.58 310.86) rotate(170.25) scale(1 -1)" gradientUnits="userSpaceOnUse">
      <stop offset="0" stop-color="#2b1b13"/>
      <stop offset=".04" stop-color="#2e1d14"/>
      <stop offset=".38" stop-color="#442b1d"/>
      <stop offset=".71" stop-color="#513423"/>
      <stop offset="1" stop-color="#563725"/>
    </linearGradient>
    <linearGradient id="Gradient_58-2" data-name="Gradient 58" x1="1250.47" y1="172.48" x2="1279.63" y2="172.48" gradientTransform="translate(-1088.94 -302.55) rotate(9.82)" xlink:href="#Gradient_58"/>
    <linearGradient id="linear-gradient-13" x1="207.49" y1="149.34" x2="180.41" y2="172.48" gradientTransform="translate(-65.6 -65.69) rotate(1.21)" xlink:href="#linear-gradient-4"/>
    <linearGradient id="linear-gradient-14" x1="186.05" y1="135" x2="160.46" y2="128.82" gradientTransform="translate(-44.63 -30.93)" gradientUnits="userSpaceOnUse">
      <stop offset="0" stop-color="#ece7e7"/>
      <stop offset=".23" stop-color="#f5f3f3"/>
      <stop offset=".53" stop-color="#fcfcfc"/>
      <stop offset="1" stop-color="#fff"/>
    </linearGradient>
    <linearGradient id="Gradient_96" data-name="Gradient 96" x1="189.34" y1="149.72" x2="165.05" y2="127.67" gradientTransform="translate(-44.63 -30.93)" gradientUnits="userSpaceOnUse">
      <stop offset="0" stop-color="#a8c3dd"/>
      <stop offset="1" stop-color="#7a90a5"/>
    </linearGradient>
    <linearGradient id="Gradient_96-2" data-name="Gradient 96" x1="102.07" y1="-212.98" x2="101.26" y2="-220.48" gradientTransform="translate(11.22 318.99) rotate(3.42)" xlink:href="#Gradient_96"/>
    <radialGradient id="Gradient_25" data-name="Gradient 25" cx="124.9" cy="100.53" fx="124.9" fy="100.53" r="4.01" gradientUnits="userSpaceOnUse">
      <stop offset="0" stop-color="#666"/>
      <stop offset="1" stop-color="#1d1d1d"/>
    </radialGradient>
    <linearGradient id="linear-gradient-15" x1="114.04" y1="98.16" x2="134.52" y2="97.18" gradientUnits="userSpaceOnUse">
      <stop offset="0" stop-color="#2b1b13"/>
      <stop offset=".04" stop-color="#2e1d14"/>
      <stop offset=".38" stop-color="#442b1d"/>
      <stop offset=".71" stop-color="#513423"/>
      <stop offset="1" stop-color="#563725"/>
    </linearGradient>
    <linearGradient id="linear-gradient-16" x1="-3604.04" y1="230.25" x2="-3630.95" y2="253.25" gradientTransform="translate(-3541.94 -66.11) rotate(178.8) scale(1 -1)" xlink:href="#linear-gradient-4"/>
    <linearGradient id="linear-gradient-17" x1="141.57" y1="135.2" x2="115.28" y2="128.86" xlink:href="#linear-gradient-14"/>
    <linearGradient id="Gradient_96-3" data-name="Gradient 96" x1="99.83" y1="119.15" x2="75.42" y2="97" gradientTransform="matrix(1,0,0,1,0,0)" xlink:href="#Gradient_96"/>
    <linearGradient id="Gradient_96-4" data-name="Gradient 96" x1="57.03" y1="-208.08" x2="56.22" y2="-215.58" gradientTransform="translate(11.22 318.99) rotate(3.42)" xlink:href="#Gradient_96"/>
    <radialGradient id="Gradient_25-2" data-name="Gradient 25" cx="79.61" cy="100.84" fx="79.61" fy="100.84" r="4" xlink:href="#Gradient_25"/>
    <linearGradient id="linear-gradient-18" x1="69.24" y1="99" x2="89.42" y2="98.04" xlink:href="#linear-gradient-15"/>
    <linearGradient id="linear-gradient-19" x1="85.28" y1="-118.26" x2="82.88" y2="-149.47" gradientTransform="translate(11.22 318.99) rotate(3.42)" gradientUnits="userSpaceOnUse">
      <stop offset="0" stop-color="#f7d4ab"/>
      <stop offset=".45" stop-color="#f3caa0"/>
      <stop offset="1" stop-color="#f0c499"/>
    </linearGradient>
    <linearGradient id="Gradient_32" data-name="Gradient 32" x1="82.77" y1="-304.8" x2="65.61" y2="-153.35" gradientTransform="translate(11.22 318.99) rotate(3.42)" gradientUnits="userSpaceOnUse">
      <stop offset="0" stop-color="#724831"/>
      <stop offset=".22" stop-color="#67412c"/>
      <stop offset=".63" stop-color="#5a3926"/>
      <stop offset="1" stop-color="#563725"/>
    </linearGradient>
    <linearGradient id="Gradient_32-2" data-name="Gradient 32" x1="31.23" y1="-266.03" x2="20.43" y2="-170.74" xlink:href="#Gradient_32"/>
    <linearGradient id="linear-gradient-20" x1="82.24" y1="-196.48" x2="81.92" y2="-200.59" gradientTransform="translate(9.77 342.54) rotate(3.42) scale(1 .93)" xlink:href="#linear-gradient-19"/>
    <linearGradient id="Gradient_115" data-name="Gradient 115" x1="102.16" y1="124.16" x2="100.08" y2="177.41" gradientUnits="userSpaceOnUse">
      <stop offset="0" stop-color="#d6ac88"/>
      <stop offset="1" stop-color="#a18166"/>
    </linearGradient>
    <linearGradient id="Gradient_115-2" data-name="Gradient 115" x1="103.19" y1="123.25" x2="101.05" y2="177.89" xlink:href="#Gradient_115"/>
    <linearGradient id="Gradient_27" data-name="Gradient 27" x1="103.38" y1="59.51" x2="115.81" y2="18.62" gradientUnits="userSpaceOnUse">
      <stop offset="0" stop-color="#724831"/>
      <stop offset=".42" stop-color="#7f553b"/>
      <stop offset="1" stop-color="#8e6346"/>
    </linearGradient>
    <linearGradient id="Gradient_27-2" data-name="Gradient 27" x1="86.43" y1="54.36" x2="98.86" y2="13.47" xlink:href="#Gradient_27"/>
    <linearGradient id="Gradient_27-3" data-name="Gradient 27" x1="73.14" y1="50.66" x2="85.86" y2="8.8" xlink:href="#Gradient_27"/>
    <linearGradient id="Gradient_27-4" data-name="Gradient 27" x1="64.41" y1="46.16" x2="76.84" y2="5.27" xlink:href="#Gradient_27"/>
    <linearGradient id="Gradient_115-3" data-name="Gradient 115" x1="102.37" y1="-177.17" x2="101.71" y2="-180" gradientTransform="translate(11.22 318.99) rotate(3.42)" xlink:href="#Gradient_115"/>
    <linearGradient id="Gradient_115-4" data-name="Gradient 115" x1="61.93" y1="-177.15" x2="61.42" y2="-179.3" gradientTransform="translate(11.22 318.99) rotate(3.42)" xlink:href="#Gradient_115"/>
    <linearGradient id="Gradient_27-5" data-name="Gradient 27" x1="118.77" y1="64.19" x2="131.2" y2="23.29" xlink:href="#Gradient_27"/>
    <linearGradient id="Gradient_27-6" data-name="Gradient 27" x1="132.32" y1="68.31" x2="144.74" y2="27.41" xlink:href="#Gradient_27"/>
    <linearGradient id="Gradient_27-7" data-name="Gradient 27" x1="54.69" y1="44.72" x2="67.12" y2="3.82" xlink:href="#Gradient_27"/>
    <linearGradient id="Gradient_27-8" data-name="Gradient 27" x1="18.58" y1="-256.67" x2="27.96" y2="-255.43" gradientTransform="translate(11.22 318.99) rotate(3.42)" xlink:href="#Gradient_27"/>
    <linearGradient id="Gradient_27-9" data-name="Gradient 27" x1="144.74" y1="72.28" x2="157.91" y2="28.93" xlink:href="#Gradient_27"/>
    <linearGradient id="Gradient_58-3" data-name="Gradient 58" x1="36.08" y1="-166.97" x2="129.89" y2="-335.01" gradientTransform="translate(11.22 318.99) rotate(3.42)" xlink:href="#Gradient_58"/>
    <linearGradient id="Gradient_115-5" data-name="Gradient 115" x1="82.65" y1="-177.25" x2="82.26" y2="-182.45" gradientTransform="translate(9.77 342.54) rotate(3.42) scale(1 .93)" xlink:href="#Gradient_115"/>
    <linearGradient id="Gradient_113" data-name="Gradient 113" x1="80.78" y1="-203.72" x2="79.69" y2="-188.84" gradientTransform="translate(11.22 318.99) rotate(3.42)" gradientUnits="userSpaceOnUse">
      <stop offset="0" stop-color="#a18166"/>
      <stop offset="1" stop-color="#d6ac88"/>
    </linearGradient>
    <linearGradient id="linear-gradient-21" x1="180.02" y1="352.87" x2="180.71" y2="377.36" gradientTransform="translate(-92.98 -251.95) rotate(-2.17)" gradientUnits="userSpaceOnUse">
      <stop offset="0" stop-color="#f7d4ab"/>
      <stop offset=".52" stop-color="#f5d1a8"/>
      <stop offset=".85" stop-color="#f2c99f"/>
      <stop offset="1" stop-color="#f0c499"/>
    </linearGradient>
    <linearGradient id="linear-gradient-22" x1="180.32" y1="696.81" x2="181.84" y2="685.63" gradientTransform="translate(-123.41 -1054.31) rotate(-2.16) scale(1 1.7) skewX(.04)" xlink:href="#linear-gradient-6"/>
    <linearGradient id="Gradient_115-6" data-name="Gradient 115" x1="82.67" y1="-199.49" x2="81.72" y2="-203.52" gradientTransform="translate(9.77 342.54) rotate(3.42) scale(1 .93)" xlink:href="#Gradient_115"/>
    <linearGradient id="linear-gradient-23" x1="-17062.64" y1="-1278.27" x2="-17062.19" y2="-1293.71" gradientTransform="translate(17207.53 552.04) rotate(-2.92)" gradientUnits="userSpaceOnUse">
      <stop offset="0" stop-color="#f7d4ab"/>
      <stop offset=".76" stop-color="#f2c89e"/>
      <stop offset="1" stop-color="#f0c499"/>
    </linearGradient>
    <linearGradient id="linear-gradient-24" x1="-17146.3" y1="-1685.41" x2="-17151.98" y2="-1705.57" gradientTransform="translate(17323.61 738.86) rotate(-3.65)" xlink:href="#linear-gradient-7"/>
    <linearGradient id="linear-gradient-25" x1="-17141.88" y1="-1006.42" x2="-17141.96" y2="-1011.23" gradientTransform="translate(17266.06 675.03) rotate(-1.59)" gradientUnits="userSpaceOnUse">
      <stop offset="0" stop-color="#f0c499"/>
      <stop offset=".52" stop-color="#f1c69b"/>
      <stop offset=".85" stop-color="#f4cea4"/>
      <stop offset="1" stop-color="#f7d4ab"/>
    </linearGradient>
    <linearGradient id="linear-gradient-26" x1="-12749.43" y1="562.08" x2="-12751.15" y2="555.96" gradientTransform="translate(17673.47 1330.5) rotate(5.7) scale(1.38 1)" gradientUnits="userSpaceOnUse">
      <stop offset="0" stop-color="#ffd9b3"/>
      <stop offset="1" stop-color="#f7d4ab"/>
    </linearGradient>
    <linearGradient id="linear-gradient-27" x1="-17414.18" y1="-1034.11" x2="-17416.06" y2="-1039.26" gradientTransform="translate(17504.37 1373.43) rotate(.64)" xlink:href="#linear-gradient-7"/>
    <linearGradient id="linear-gradient-28" x1="102.48" y1="182.92" x2="105.02" y2="330.92" gradientUnits="userSpaceOnUse">
      <stop offset="0" stop-color="#2b416b"/>
      <stop offset=".46" stop-color="#293e68"/>
      <stop offset=".75" stop-color="#23375f"/>
      <stop offset="1" stop-color="#192b51"/>
    </linearGradient>
    <linearGradient id="linear-gradient-29" x1="100.17" y1="191.15" x2="120.72" y2="191.15" gradientTransform="matrix(1,0,0,1,0,0)" xlink:href="#linear-gradient-6"/>
    <linearGradient id="linear-gradient-30" x1="116.81" y1="363.05" x2="88.48" y2="211.76" xlink:href="#linear-gradient-28"/>
    <linearGradient id="linear-gradient-31" x1="71.29" y1="260.09" x2="72.14" y2="218.65" xlink:href="#linear-gradient-28"/>
    <linearGradient id="linear-gradient-32" x1="72.21" y1="301.89" x2="72.21" y2="178.68" xlink:href="#linear-gradient-28"/>
    <linearGradient id="linear-gradient-33" x1="78.57" y1="206.28" x2="77.53" y2="134.62" xlink:href="#linear-gradient"/>
    <linearGradient id="linear-gradient-34" x1="77.29" y1="339.93" x2="122.6" y2="187" xlink:href="#linear-gradient-28"/>
    <linearGradient id="linear-gradient-35" x1="132.18" y1="264.44" x2="133.06" y2="221.27" xlink:href="#linear-gradient-28"/>
    <linearGradient id="linear-gradient-36" x1="133.77" y1="313.22" x2="133.77" y2="175.95" xlink:href="#linear-gradient-28"/>
    <linearGradient id="linear-gradient-37" x1="127.05" y1="205.8" x2="126.16" y2="144.22" xlink:href="#linear-gradient"/>
    <linearGradient id="linear-gradient-38" x1="113.43" y1="224.47" x2="123.72" y2="241.79" xlink:href="#linear-gradient-28"/>
    <linearGradient id="linear-gradient-39" x1="147.12" y1="221.44" x2="157.92" y2="239.63" xlink:href="#linear-gradient-28"/>
  </defs>
  <g id="Layer_1-2" data-name="Layer 1">
    <g style="clip-path: url(#clippath);">
      <g>
        <path d="M71.36,170.02s25.47-18.7,63.1-2.44c0,0,17.81,22.47.85,38.81-16.96,16.34-59.9,14.8-66.11,1.41-6.2-13.39-2.78-34.93,2.16-37.78Z" style="fill: url(#linear-gradient);"/>
        <path d="M135.2,187.36l6.66-8.51s-7.23-2.17-10.07-16.92c-.12.11-.24.22-.36.33-.87,8.81.71,17.24,3.77,25.09Z" style="fill: url(#linear-gradient-2);"/>
        <path d="M131.43,162.27c-11.43,10.5-16.96,14.97-31.67,14.05-5.69,0-16.94,2.61-24.05-2.09,5.96,11.97,17.22,21.08,26.44,29.14,3.8,3.8,5.36,10.31,7.33,16.85l25.73-32.86c-3.06-7.85-4.64-16.28-3.77-25.09Z" style="fill: url(#linear-gradient-3);"/>
        <path d="M84.07,175.7s-9.84-2.47-10.52-3.02c-1.21,2.84-2.69,5.81-4.52,8.9l31.5,51.88,8.94-13.23c-1.96-6.54-3.52-13.04-7.33-16.85-9.22-8.06-14.7-16.01-18.07-27.68Z" style="fill: url(#linear-gradient-4);"/>
        <path d="M131.79,161.94c-.53-2.76-.91-5.96-1.06-9.66l-58.14-14.7s3.12,16.83.97,35.1c7.04,5.71,20.98,6.64,27.26,6.64,14.87.93,25.81-7.81,30.97-17.38Z" style="fill: url(#linear-gradient-5);"/>
        <path d="M224.19,221.63c-15.56-5.75-74.21-32.38-74.21-32.38l-47.79,44.91-40.82-44.91S-7.26,216.89-17.9,221.63l28.4,84.45-.06,4.45h186.72l27.03-88.9Z" style="fill: #192b51;"/>
        <g>
          <path d="M58.26,99.04s3.47,47.24,4.79,49.21c1.32,1.97,21.23,16.56,23.8,18.75s29.26.84,29.26.84c0,0,22.42-16.55,24.37-19.77,1.94-3.22,5.26-49.79,5.26-49.79,0,0,5.88-37.97-3.2-51-9.08-13.03-70.98-17.24-81.25.87-10.27,18.11-3.04,50.88-3.04,50.88Z" style="fill: url(#linear-gradient-6);"/>
          <g>
            <path d="M153.59,94.36c9.68-.71,3.37,14.49,3.37,14.49-3.75,19.67-2.13,23.06-10.74,22.32-6.37-.54.45-36.3,7.37-36.81Z" style="fill: #f0c499;"/>
            <path d="M147.81,122.65s3.06-3.44,2.91-10.81c-.37-17.38,8.77-17.69,5.62-6.16,0,0-.73-5.65-2.03-4.1-1.6,1.9,1.21,3.29-1.1,12.03-1.21,4.54-5.39,9.05-5.39,9.05Z" style="fill: url(#linear-gradient-7);"/>
          </g>
          <g>
            <path d="M51.01,94.63c-9.68-.39-3.53,14.6-3.53,14.6,3.54,19.56,3.01,22.47,10.49,21.98,8.41-.55-.05-36.3-6.96-36.58Z" style="fill: #f0c499;"/>
            <path d="M56.48,122.74s-3.03-3.34-2.79-10.71c.56-17.39-8.58-17.41-5.55-5.98,0,0,.79-5.67,2.08-4.17,1.57,1.84-1.25,3.34.97,11.99,1.16,4.5,5.29,8.87,5.29,8.87Z" style="fill: url(#linear-gradient-8);"/>
          </g>
          <path d="M111.97,82.29s-3.56,10.6-3.42,11.47,1.27,14.17,1.27,14.17c0,0,25.48-.8,28.81-1.85,3.33-1.04,5.06-11.29,5.06-11.29l-7.22-8.57s-4.1-3.63-4.84-3.13c-.74.5-19.66-.8-19.66-.8Z" style="fill: url(#linear-gradient-9);"/>
          <path d="M91.68,82.96s3.52,10.5,3.41,11.37c-.11.88-.84,13.37-.84,13.37,0,0-25.49.16-28.86-.76s-4.45-7.41-4.45-7.41l.37-4.31s5.63-7.05,6.32-7.61c5.37-4.39,24.05-4.65,24.05-4.65Z" style="fill: url(#linear-gradient-10);"/>
          <path d="M127.45,131.13c8.23.51,17.42-.56,19.07-17.3.94-9.54-.13-14.51-4.2-15.23-8.64-1.55-21.01,2.22-26.15,4.88-10.87,5.62-3.3,26.76,11.28,27.66Z" style="fill: url(#radial-gradient);"/>
          <path d="M86.24,102.2c-2.36-.84-20.28-4.76-25.61-3.2-3.04.89-1.73,7.6-1.2,13.97.26,3.06.24,7.96.95,9.88,3.49,9.42,16.63,9.77,24.2,7.11,12.93-4.55,13.6-23.53,1.65-27.75Z" style="fill: url(#radial-gradient-2);"/>
          <path d="M141.48,105.13c-1.49-.81-2.59.38-5.67,1.39-3.02.99-11.28,2.56-7.38,4.61,4.3,2.27,10.29-.89,11.01-1.48.72-.59,3.87-3.51,2.04-4.51Z" style="fill: url(#linear-gradient-11);"/>
          <path d="M68.4,107.44c-3.14-.83-4.3-1.95-5.74-1.05-1.77,1.11,1.55,3.83,2.31,4.38.76.55,6.93,3.35,11.08.83,3.76-2.28-4.57-3.35-7.65-4.16Z" style="fill: url(#linear-gradient-12);"/>
          <path d="M69.68,83.81c2.91-3.46,9.67-4.65,13.59-5.24,2.22-.33,5.35-.8,7.49-.41.45,1.2.64,2.08.5,3.6.77-.93.73-2.38.36-3.34.06.02,1.91,1.95.98,4.69-.44,1.31-4.11.91-12.26,2.11-2.21.32-5.71.98-8.9,2.18-1.11.41-5.09,1.89-5.09,1.89-.31-.36,2.08-3.97,3.34-5.48Z" style="fill: url(#Gradient_58);"/>
          <path d="M134.96,83.17c-1.93-2.51-8.95-4.31-13-4.81-2.08-.26-7.32-1.31-9.51-.93-.45,1.19-.64,2.08-.49,3.6-.79-.94-.76-2.39-.39-3.35-.06.02-1.94,1.93-.97,4.69.46,1.31,4.21.95,12.55,2.22,2.27.35,7.11,1.05,10.34,2.06,1.16.36,5,1.91,5,1.91.31-.35-1.82-3.16-3.55-5.4Z" style="fill: url(#Gradient_58-2);"/>
          <g>
            <path d="M111.89,103.42c-1.03-1.24.04-3.88.62-5.53,1.81-5.16,5.28-5.68,13.41-5.85,2.67-.06,6.06.68,10.23,3.1,2.57,1.49,3.77,2.82,3.53,4.61-.12.91-4.39,6.03-13.27,6.3-5.8.18-12.4-.05-14.53-2.62Z" style="fill: url(#linear-gradient-13);"/>
            <path d="M135.48,99.68c-.23.59-.55,1.12-.95,1.6-.63.76-1.43,1.37-2.33,1.85-.34.15-.69.25-1.06.33-.05.02-.1.02-.14.03-.59.13-1.16.26-1.69.36-2.81.56-4.98.83-6.82.83-.75,0-1.44-.05-2.1-.13-.32-.03-.64-.1-.95-.18-2.7-.63-4.72-2.4-5.1-3.12,0,0,0-.02.02-.03v-.02c.14-.33.72-1.57,2.39-3.35,1.04-1.11,3.08-2.23,4.57-2.39.48-.05,1.41-.57,1.87-.59,8.41-.35,11.89,4.3,12.28,4.78.02.02.02.03.02.03Z" style="fill: url(#linear-gradient-14);"/>
            <path d="M135.48,99.67c-.22.59-.54,1.14-.95,1.62-.1-.07-.22-.12-.35-.21-.86-.46-2.64-.96-5.51-1.21-10.9-.9-13.71.85-14.22,1.25-.04.02-.05.06-.09.09.36-1.87,1.43-3.29,2.85-4.37.56-.42,1.17-.78,1.83-1.09.1-.06.21-.11.33-.15,1.54-.64,3.32-.94,5.09-.99,2.56-.1,5.54.38,7.96,1.68,0,.01.01.01.01.01,1.67,1.47,2.83,3.08,3.02,3.34v.02h.02Z" style="fill: #ddd;"/>
            <path d="M131.88,101.75c-.06.35-.24,1.29-.45,1.65-.13.08-.59.26-.77.35-.59.13-1.24.33-1.76.43-2.81.56-4.56.52-6.41.52-.75,0-1.44-.05-2.1-.13-.32-.03-.64-.1-.95-.18-.58-.76-1.12-1.87-1.09-3.39.1-4.01,3.47-5.8,7.19-5.5,3.71.31,6.93,2.4,6.34,6.26Z" style="fill: url(#Gradient_96);"/>
            <path d="M118.49,99.78s5.27-1.15,13.44.57c0,0-.15-4.18-5.08-5.07-4.62-.84-8.03,2.12-8.36,4.51Z" style="fill: url(#Gradient_96-2);"/>
            <path d="M123.46,104.69c-1.99-.03-.02,0-.02,0-1.53-.7-2.59-2.21-2.5-3.94.11-2.3,2.21-4.08,4.48-3.95,2.28.13,4.04,2.07,3.94,4.35-.07,1.38-.81,2.57-1.87,3.25,0,0-2.03.32-4.03.29Z" style="fill: url(#Gradient_25);"/>
            <path d="M125.28,96.79c-2.69-.15-3.94,1.81-4.28,3.44,0,0,4.42-.44,8.35.39,0,0-.21-3.61-4.07-3.82Z"/>
            <path d="M131,102.82c.44-.83.09-1.9-.78-2.39-.87-.48-1.94-.2-2.39.63-.45.84-.1,1.9.78,2.39.87.49,1.94.2,2.39-.63Z" style="fill: #fff;"/>
            <path d="M126.54,103.13c.35-.66.08-1.5-.61-1.88-.69-.38-1.54-.16-1.89.5-.35.66-.08,1.5.61,1.88.69.38,1.54.16,1.89-.5Z" style="fill: #fff;"/>
            <path d="M135.45,99.63v.02c-.4-.2-5.46-2.05-10.55-1.82-2.93.14-3.74.37-5.05.67-3.02.72-4.96,2.08-5.4,2.61-.04.02-.05.06-.09.09-.04-.26-.14-2.13,2.85-4.37.17-.14.36-.26.56-.4.4-.27.82-.51,1.27-.69.1-.06.21-.11.33-.15,1.54-.64,3.32-.94,5.09-.99,2.56-.1,5.54.38,7.96,1.68,0,.01.01.01.01.01,2.24,1.21,2.9,3.04,3.02,3.34Z" style="fill: url(#linear-gradient-15);"/>
          </g>
          <g>
            <path d="M92.82,103.74c1.02-1.24-.04-3.88-.61-5.53-1.79-5.16-5.59-5.69-13.65-5.87-2.65-.06-6.94.72-10.17,3.11-2.37,1.76-3.35,2.81-3.11,4.6.12.91,4.35,6.03,13.14,6.3,5.74.18,12.28-.05,14.4-2.62Z" style="fill: url(#linear-gradient-16);"/>
            <path d="M90.4,101.57c-.37.71-2.26,2.36-4.76,3.04-.4.12-.81.22-1.24.26-.65.08-1.35.13-2.1.13-1.81,0-3.96-.26-6.74-.83-.35-.07-.7-.15-1.07-.21-.25-.07-.51-.12-.76-.17-.36-.08-.7-.2-1.03-.33-.89-.48-1.69-1.11-2.31-1.87-.4-.46-.72-1.01-.94-1.6,0,0,0-.02.02-.03.38-.46,3.67-4.84,12.01-4.51.45.03,1.29.47,1.77.52,1.48.17,3.09.99,4.14,2.09,1.65,1.78,2.86,3.13,3.01,3.46v.02s.02.03.02.03Z" style="fill: url(#linear-gradient-17);"/>
            <path d="M90.38,101.52l-.07-.07c-.47-.36-3.44-2.26-14.36-1.36-2.84.23-4.37.85-5.2,1.31-.14.07-.25.14-.36.21-.4-.48-.72-1.03-.95-1.62h.01s.01-.02.02-.04c.16-.22,1.25-1.21,2.58-2.49.31-.25.58-.46.94-.68.47-.28,1.08-.66,1.63-.87,1.58-.65,2.87-.68,4.71-.68,2.66,0,5,.37,7.04,1.76,2.03,1.38,3.25,2.48,3.67,3.36.01.02.02.05.04.07.14.35.23.72.31,1.11Z" style="fill: #ddd;"/>
            <path d="M86.66,101.31c.04,1.47-.47,2.55-1.01,3.31-.39.11-.81.22-1.24.25-.67.09-1.37.14-2.1.14-.29,0-.57,0-.88.02-1.11,0-2.26,0-3.68-.2-.54-.09-1.13-.2-1.76-.34-.36-.07-1.04-.36-1.42-.41-.32-.13-.59-.14-.79-.27-.22-.38-.47-1.4-.52-1.74-.59-3.86,2.61-5.95,6.29-6.24,3.68-.32,7.03,1.47,7.12,5.48Z" style="fill: url(#Gradient_96-3);"/>
            <path d="M86.52,100.11s-5.22-1.15-13.32.57c0,0,.15-4.18,5.03-5.07,4.58-.84,7.95,2.13,8.29,4.51Z" style="fill: url(#Gradient_96-4);"/>
            <path d="M84.03,101.04c.09,1.76-1.04,3.33-2.61,3.99-1.11,0-2.26,0-3.68-.2-1.17-.67-1.98-1.92-2.05-3.4-.13-2.28,1.62-4.22,3.88-4.35,2.26-.13,4.35,1.67,4.46,3.95Z" style="fill: url(#Gradient_25-2);"/>
            <path d="M79.73,97.08c2.66-.15,3.91,1.81,4.24,3.44,0,0-4.38-.44-8.27.39,0,0,.21-3.61,4.03-3.82Z"/>
            <path d="M82.03,103.62c-.44-.83-.09-1.9.77-2.39.87-.48,1.92-.2,2.37.63.44.84.1,1.9-.77,2.39-.86.49-1.93.2-2.37-.63Z" style="fill: #fff;"/>
            <path d="M78.38,103.73c-.35-.66-.08-1.5.6-1.88.69-.38,1.52-.16,1.87.5.35.66.08,1.5-.6,1.88-.69.38-1.53.16-1.87-.5Z" style="fill: #fff;"/>
            <path d="M90.39,101.56s0-.02-.01-.04l-.07-.07c-.43-.52-2.26-1.89-5.24-2.63-1.31-.3-2.56-.61-5.45-.75-4.98-.21-9.68,1.64-10.15,1.89-.01.01-.01.02-.02.02.07-.16.88-1.54,2.42-2.81.31-.25.66-.47,1-.72,1.67-1.17,4.68-1.5,6.52-1.5,2.66,0,5.23.43,7.27,1.83,2.03,1.38,2.95,2.67,3.37,3.55.01.02.02.05.04.07.32.69.32,1.12.32,1.15Z" style="fill: url(#linear-gradient-18);"/>
          </g>
          <path d="M70.51,52.33c1.71-.82,26.78,2.73,30.71,1.83,3.93-.89,25.05-4.73,29.15-2.45,4.1,2.28,7,6.84,7.4,9.36.4,2.52-.25,14.97,0,17s3.79,4.55,4.81,16.3c1.01,11.75.48,22.9-.15,27.78-.62,4.88-5.12,21.07-5.12,21.07l8.21-23.67s.82-2.8,1-5.74c.18-2.93,2.36-38.65,2.36-38.65l-11.75-34.77-68.88-3.3-14.9,33.32,3.85,40.24,1.87,5.42,5.83,20.5s-2.23-24.69-2.93-26.16c-.71-1.47-.71-14.81-.47-17.31.66-6.79,4.04-13.4,4.46-15.21.42-1.81-1.7-14.64-1.26-16.45.43-1.81,5.82-9.14,5.82-9.14Z" style="fill: url(#linear-gradient-19);"/>
          <path d="M62.47,53.4s6.72-9.77,23.73-7.1c11.31,1.77,11.78,1.65,15.58,2.49,3.8.84,22-6.17,29.99-3.03,7.99,3.13,8.78,12.36,8.85,16.91.06,4.55-.91,15.26.2,15.98,1.11.71,5.11,5.21,4.75,11.43-.36,6.23.96,23.75.96,23.75,0,0,1.29-18.95,7.73-19.49l.4-13.05s2.58-8.96,2.79-12.67c.41-6.99-1.57-12.93-1.68-14.1-.29-3.01-5.42-8.21-6.31-9.21,0,0,3.26-7.01-5.68-11.89,0,0-1.81-14.65-17.66-17.98-15.85-3.32-29.17-2.42-34.06-.71,0,0-17.49-4.48-26.09,6.97,0,0-11.04,4.39-12.16,15.25-1.12,10.87,2.59,15.28,3.19,15.12l5.48,1.31Z" style="fill: url(#Gradient_32);"/>
          <path d="M64.17,52.08s-5.48,7.04-3.69,21.12c0,0-2.75,7.72-2.76,12.84,0,5.12,1.51,24.89,1.51,24.89,0,0-3.35-16.79-9.67-16.23,0,0-1.23-11.58-1.55-12.33,0,0-4.91-9.18-1.45-19.95,1.99-6.21,10.41-10.34,10.41-10.34h7.18Z" style="fill: url(#Gradient_32-2);"/>
          <path d="M78.87,145.41s12.57,7.07,13.21,6.96c.64-.11,8.47-4.95,8.47-4.95,0,0,8.48,5.7,10.94,5.51,2.46-.19,14.24-9.16,14.24-9.16,0,0-3.1,11.74-5.61,12.92-2.52,1.18-40.88-.86-40.88-.86l-.37-10.42Z" style="fill: url(#linear-gradient-20);"/>
          <path d="M145.52,119.46s-1.45,23.11-3.47,27.6c-2.02,4.49-24.36,20.33-28.63,23.87-4.27,3.54-20.35.54-23.41,0-3.07-.54-25.43-18.91-28.48-23.87-3.06-4.96-2.09-34.1-2.09-34.1,0,0,4.02,20.69,6.84,24.69,2.82,4,20.8,14.61,23.83,16.62,1.28.85,4.06.37,6.16-2.5,2-2.73,1.07-4.11,6.19-3.8,4.11.25,3.26,1.92,6.21,5.37,2.08,2.44,4.03,2.37,5.35,1.22,2.81-2.46,24.57-16.47,25.5-18.66.93-2.19,6-16.45,6-16.45Z" style="fill: url(#Gradient_115);"/>
          <path d="M78.35,139.03c2.56-2.99,14.48-12.67,15.71-12.29,7.41,2.26,15.11-1.69,16.05-1.99.94-.3,13.48,11.89,15.04,14.09,1.67,2.35,2.82,9.05,3.24,11.61.51,3.16-4.94,4.88-4.94,4.88,0,0,.76-11.92.74-15.38-5.93-2.79-30.38-5.19-30.38-5.19,0,0-9.52,3.67-14.19,4.98-1.12,4.74,2.03,13.26,2.03,13.26,0,0-3.52,1.12-5.81-3.27.55-5.61,1.84-9.9,2.51-10.69Z" style="fill: url(#Gradient_115-2);"/>
          <path d="M102.24,39.85s-.18-23.36,28.63-22.91c0,0-16.74-10.08-27.37,1.54-10.63,11.63-1.26,21.37-1.26,21.37Z" style="fill: url(#Gradient_27);"/>
          <path d="M89.19,37.55s1.28-18.1,18.13-22.22c0,0-5.61-7.19-15.27-.59-9.66,6.59-2.86,22.82-2.86,22.82Z" style="fill: url(#Gradient_27-2);"/>
          <path d="M82.15,38.65s-3.54-19.27,9.89-23.92c0,0-10.4-7.24-16.64,3.4-6.24,10.64,6.75,20.52,6.75,20.52Z" style="fill: url(#Gradient_27-3);"/>
          <path d="M69.85,39.85s-12.25-11.04-3.9-19.65c8.36-8.61,15.63-5.49,15.63-5.49,0,0-8.28,5.13-9.82,11.29-1.54,6.15-1.92,13.86-1.92,13.86Z" style="fill: url(#Gradient_27-4);"/>
          <path d="M124.15,142.28l-.12-2.31-3.91-2.61s4.5,2.04,4.38,2.68c-.15.81-.35,2.24-.35,2.24Z" style="fill: url(#Gradient_115-3);"/>
          <path d="M79.38,142.07l.67-2.34s5.58-1.85,5.52-2.99c0,0-6.02,2.53-6.45,3.13l.25,2.21Z" style="fill: url(#Gradient_115-4);"/>
          <path d="M112.24,37.15s.12-15,11.77-17.7c11.65-2.69,18.42,4.37,19.76,13.97,0,0-2.69-11.04-16.64-6.73-9.44,2.92-14.89,10.46-14.89,10.46Z" style="fill: url(#Gradient_27-5);"/>
          <path d="M130.13,42.85s13.01-6.76,19.32,2.45c0,0,.7-10.15-9.1-10.73-9.8-.58-10.23,8.28-10.23,8.28Z" style="fill: url(#Gradient_27-6);"/>
          <path d="M56.98,52.08s-7.55-5.17-2.88-20.35c2.38-7.74,11.85-10.03,11.85-10.03,0,0-3.8,3.04-8.97,16.18-2.42,6.16,0,14.2,0,14.2Z" style="fill: url(#Gradient_27-7);"/>
          <path d="M56.98,52.08s-7.73.13-11.42,9.67c-2.03,5.24,4.09,17.14,4.09,17.14,0,0-1.33-11.32.64-17,2.23-6.44,6.7-9.81,6.7-9.81Z" style="fill: url(#Gradient_27-8);"/>
          <path d="M142.53,47.63s9.51-4.3,13.21,5.27c2.4,6.21,2.64,10.48-2.1,18.62,0,0,.36-12.48-1.9-16.02-2.27-3.53-9.21-7.87-9.21-7.87Z" style="fill: url(#Gradient_27-9);"/>
          <path d="M59.43,112.97s.22-6.9.04-18.34c-.1-6.66,1-11.4,4.69-16.9,0,0-2.02-15.83-1.13-17.89,1.97-4.59,8.65-10.91,9.88-11.11,1.24-.2,26.74,2.04,29.88,1.69,3.15-.36,23.2-3.7,28.96-.73,2.42,1.25,8.52,6.84,8.69,9.91.16,3.07-.75,18.34-.75,18.34,0,0,5.02,5.8,4.93,14.08-.09,8.29,1.88,21.81,1.88,21.81,0,0,2.14-25.48,1.9-28.34-.24-2.87-1.61-27.28-2.71-29.79-1.1-2.51-10.21-11.83-15.58-12.84-5.38-1-27.5,1.45-28.49,2.06-.99.61-27.32-6.43-31.78-3.56-4.47,2.88-13.08,12.93-13.03,15.53.04,2.6-1.57,23.56-1.53,25.56.02.85,4.14,30.52,4.14,30.52Z" style="fill: url(#Gradient_58-3);"/>
          <path d="M71.25,156.82s15.62,11.33,19.19,12.16c4.54,1.06,18.55,2.42,23.09.43,3.83-1.68,18.26-12.59,18.26-12.59,0,0-13.11,13.69-18.43,15.43-3.29,1.08-19.33,1.18-23.68-.21-4.34-1.39-17.54-14.12-18.44-15.22Z" style="fill: url(#Gradient_115-5);"/>
          <path d="M92.09,127.75s10.79,4.67,11.26,4.56,10.66-4.68,10.66-4.68c0,0-1.29-2.06-3.14-2.17-3.21-.19-6.55,2.73-8.75,2.19-.95-.23-5.76-1.59-8.34-1.73-1.86-.1-1.69,1.84-1.69,1.84Z" style="fill: url(#Gradient_113);"/>
          <g>
            <path d="M106.88,126.97c6.51-5.19,7.13.65,7.13.65-3.6-2.92-7.13-.65-7.13-.65Z" style="fill: #dca57b;"/>
            <path d="M92.09,127.75s.89-1.79,5.65-.37c0,0-7.92-5.12-5.65.37Z" style="fill: #dca57b;"/>
            <path d="M109.27,109.31c.05,2.45,1.34,11.66.65,13.09-1.54,3.18-4.6,4.53-7.5,4.4-2.17.35-6.13-.6-8.38-3.78-.92-1.3.69-10.55.2-13.14,0,0-9.39,16.98-2.15,17.87,0,0-1.19-1.9,1.69-1.84,2.54.06,3.89,4.46,8.9,4.27,5.53-.21,4.57-4.13,7.49-4.63,3.63-.63,3.01,1.75,3.85,2.08,3.61-1.62-1.3-13.98-4.75-18.31Z" style="fill: url(#linear-gradient-21);"/>
            <path d="M98.01,119.19c-.15,2.73.21,5.66,4.24,5.56,4.43-.11,4.5-3.1,4.04-5.59-2.75-14.76-7.74-10.14-8.28.03Z" style="fill: url(#linear-gradient-22);"/>
          </g>
          <path d="M94.78,153.48s3.15-4.82,4.01-5.76c.83-.91,5.59-.59,6.37.38.81,1.01,3.51,5.25,3.51,5.25,0,0-4.17-3.02-4.69-3.36-.52-.34-2.34-1.34-3.68-.85-1.33.49-5.52,4.34-5.52,4.34Z" style="fill: url(#Gradient_115-6);"/>
          <g>
            <path d="M93.25,132.89c3.67-1.5,6.1,0,8.62,0s4.7-1.22,7.58-.51c4.4,1.08,9.56,4.11,14.34,7.42-2.18-.4-4.62-1.26-8.62-2.42-.65-.19-7.71-1.56-8.45-1.43-9.12-.99-9.83-.26-19.4,1.79-.82.17-6.33,1.75-7.26,1.98,1.14-.41,8.56-4.95,13.19-6.84Z" style="fill: url(#linear-gradient-23);"/>
            <path d="M124.5,140.05c-7.28-2.42-9.18-3.7-12.59-4.19-3.63-.51-6.5-.82-9.87-.85-3.55-.03-5.52.08-9.59,1.01-2.36.54-10.21,3.03-13.32,3.84,2.69.04,6.09-1.29,8.62-1.44,3.8-1.07,14.29-3.41,26.51-.37,4.59,1.14,8.04,1.65,10.25,2Z" style="fill: url(#linear-gradient-24);"/>
            <path d="M88.9,142.49s11.7,5.51,28.02-.65c0,0-9.94,2.87-28.02.65Z" style="fill: url(#linear-gradient-25);"/>
            <path d="M94.94,137.85c2.6-.29,14.48-.86,15.81.66,1.33,1.51-5.02,3.64-10.7,3.23-5.68-.41-10.9-3.24-5.12-3.88Z" style="fill: url(#linear-gradient-26);"/>
            <path d="M96.19,144.38s3.44.78,6.21.81c2.95.03,3.38-.23,6.88-1.19,0,0-6.87,1.36-13.09.37Z" style="fill: url(#linear-gradient-27);"/>
          </g>
        </g>
        <path d="M-17.9,221.63s34.61,62.94,44.87,69.91c10.05,6.83,149.97,11.02,163.56-4.36l33.66-65.55-75.82-40.06-25.55,19.4-22.29,32.48-39.06-50.54-79.37,38.72Z" style="fill: url(#linear-gradient-28);"/>
        <path d="M100.17,183.89s14.38.95,19.77-2.32c4.71-2.85-13.45,19.15-14.94,19.39-1.49.24-4.83-17.08-4.83-17.08Z" style="fill: url(#linear-gradient-29);"/>
        <g>
          <path d="M87.77,202.4s6.83,6.28,8.09,7.39c1.21,1.06,4.95,18.55,4.95,18.55l-2.15,36.69-19.64-54.48,8.75-8.14Z" style="fill: url(#linear-gradient-30);"/>
          <path d="M57.4,190.5c0,4.09,7.23,33.57,7.7,35.15,0,0,8.93-7.71,14.93-12.5l7.74-10.75s-30.37-15.99-30.37-11.9Z" style="fill: url(#linear-gradient-31);"/>
          <path d="M72.87,169.04s-4.95,6.31-2.42,14.92c2.37,8.05,17.32,18.44,17.32,18.44,0,0-17.89,14.96-21.35,18.33-2.42-8.47-11.57-31.91-9.46-35.24,4.05-6.4,9.85-13.15,15.91-16.46Z" style="fill: url(#linear-gradient-32);"/>
          <path d="M72.87,169.04s-6.34,8.26,1.06,19.17c5.29,7.81,13.85,14.19,13.85,14.19,0,0-11.6-8.15-14.62-11.87-9.34-11.48-.28-21.5-.28-21.5Z" style="fill: url(#linear-gradient-33);"/>
          <path d="M116.3,202.1c-2.29,1.5-5.28,3.58-9,6.48-1.57,1.22-7.59,21.77-7.07,26.47.07.62.11,1.55.12,2.66,5.63-1.64,12.14-2.05,17.9-3.27.69-6.2.88-12.67,1.49-18.46.04-.37.33-5.32.33-5.32.38-3.66.16-3.46.33-5.85-2.01-.16-3.45-1.22-4.1-2.71Z" style="fill: url(#linear-gradient-34);"/>
          <path d="M116.3,202.1l3.77,8.56c4.24,3.31,17.16,11.62,23.79,14.99.81.41,5.84-30.09,7.04-38.56l-34.61,15.01Z" style="fill: url(#linear-gradient-35);"/>
          <path d="M116.3,202.1s24.1,16.27,27.17,19.59c2.69-10.61,7.76-30.97,7.76-37.04,0-3.19-13.63-15.47-16.77-17.07,0,0,1.77,5.23.87,10.31-3.22,18.22-19.03,24.21-19.03,24.21Z" style="fill: url(#linear-gradient-36);"/>
          <path d="M116.3,202.1s23.66-11.19,18.16-34.52c0,0,13.59,22.67-18.16,34.52Z" style="fill: url(#linear-gradient-37);"/>
          <path d="M116.3,202.1s-6.61,4.6-9.72,6.19c-3.11,1.6-5.9,21.93-5.9,21.93,0,0,5.63-17.71,6.65-19.36,1.02-1.65,8.97-8.76,8.97-8.76Z" style="fill: url(#linear-gradient-38);"/>
        </g>
        <path d="M128.75,210.66l14.73,11.03,4.57-18.83s-4.43,12.8-5.5,13.13c-1.07.33-13.8-5.33-13.8-5.33Z" style="fill: url(#linear-gradient-39);"/>
      </g>
    </g>
  </g>
</svg>