<?xml version="1.0" encoding="UTF-8"?>
<svg id="Layer_2" data-name="Layer 2" xmlns="http://www.w3.org/2000/svg" width="204.89" height="204.89" xmlns:xlink="http://www.w3.org/1999/xlink" viewBox="0 0 204.89 204.89">
  <defs>
    <clipPath id="clippath">
      <rect width="204.89" height="204.89" style="fill: none;"/>
    </clipPath>
    <linearGradient id="linear-gradient" x1="51.93" y1="114.62" x2="145.58" y2="256.5" gradientUnits="userSpaceOnUse">
      <stop offset="0" stop-color="#0b173d"/>
      <stop offset=".5" stop-color="#0c193f"/>
      <stop offset=".82" stop-color="#132248"/>
      <stop offset="1" stop-color="#192b51"/>
    </linearGradient>
    <linearGradient id="linear-gradient-2" x1="128.64" y1="174.78" x2="144.21" y2="179.15" gradientUnits="userSpaceOnUse">
      <stop offset="0" stop-color="#f0c499"/>
      <stop offset=".52" stop-color="#f4cfa5"/>
      <stop offset="1" stop-color="#f7d4ab"/>
    </linearGradient>
    <linearGradient id="linear-gradient-3" x1="78.36" y1="180.92" x2="143.58" y2="199.23" xlink:href="#linear-gradient-2"/>
    <linearGradient id="linear-gradient-4" x1="99.77" y1="218.3" x2="68.66" y2="176.64" gradientUnits="userSpaceOnUse">
      <stop offset="0" stop-color="#f0c499"/>
      <stop offset=".51" stop-color="#e3b086"/>
      <stop offset="1" stop-color="#dba379"/>
    </linearGradient>
    <linearGradient id="linear-gradient-5" x1="142.25" y1="180.52" x2="75.07" y2="155.19" xlink:href="#linear-gradient-4"/>
    <linearGradient id="linear-gradient-6" x1="101.65" y1="184.18" x2="104.19" y2="332.18" gradientUnits="userSpaceOnUse">
      <stop offset="0" stop-color="#2b416b"/>
      <stop offset=".46" stop-color="#293e68"/>
      <stop offset=".75" stop-color="#23375f"/>
      <stop offset="1" stop-color="#192b51"/>
    </linearGradient>
    <linearGradient id="linear-gradient-7" x1="35.97" y1="-293.45" x2="35.01" y2="-242.51" gradientTransform="translate(50.49 336.45) rotate(3.42) scale(1 .96)" gradientUnits="userSpaceOnUse">
      <stop offset="0" stop-color="#ffd9b3"/>
      <stop offset=".28" stop-color="#fbd6af"/>
      <stop offset="1" stop-color="#f7d4ab"/>
    </linearGradient>
    <linearGradient id="linear-gradient-8" x1="-103.66" y1="686.63" x2="-93.5" y2="711.28" gradientTransform="translate(56.12 -683.16) rotate(177.48) scale(.99 -1.14) skewX(3.14)" gradientUnits="userSpaceOnUse">
      <stop offset="0" stop-color="#dba379"/>
      <stop offset=".49" stop-color="#e3b086"/>
      <stop offset="1" stop-color="#f0c499"/>
    </linearGradient>
    <linearGradient id="linear-gradient-9" x1="1030.97" y1="648.48" x2="1040.98" y2="672.77" gradientTransform="translate(-984.78 -679.32) rotate(2) scale(.99 1.14) skewX(3.13)" xlink:href="#linear-gradient-8"/>
    <linearGradient id="linear-gradient-10" x1="48.58" y1="-214.17" x2="64.99" y2="-198.68" gradientTransform="translate(52.09 300.84) rotate(3.42)" xlink:href="#linear-gradient-2"/>
    <linearGradient id="linear-gradient-11" x1="17.14" y1="-211.41" x2="13.29" y2="-195.11" gradientTransform="translate(52.09 300.84) rotate(3.42)" xlink:href="#linear-gradient-2"/>
    <radialGradient id="radial-gradient" cx="-314.35" cy="-241.47" fx="-314.35" fy="-241.47" r="23.04" gradientTransform="translate(-174.53 300.62) rotate(177.65) scale(1.02 -.71) skewX(-1.54)" gradientUnits="userSpaceOnUse">
      <stop offset="0" stop-color="#f8c39c"/>
      <stop offset="1" stop-color="#f7d4ab"/>
    </radialGradient>
    <radialGradient id="radial-gradient-2" cx="183.94" cy="-288.26" fx="183.94" fy="-288.26" r="23.63" gradientTransform="translate(-84.89 325.68) rotate(-3.81) scale(1.02 .69) skewX(2.86)" xlink:href="#radial-gradient"/>
    <linearGradient id="linear-gradient-12" x1="194.5" y1="164.94" x2="180.32" y2="169.83" gradientTransform="translate(-53.62 -56.36) rotate(-.26)" gradientUnits="userSpaceOnUse">
      <stop offset="0" stop-color="#fbd6af"/>
      <stop offset="1" stop-color="#f7d4ab"/>
    </linearGradient>
    <linearGradient id="linear-gradient-13" x1="130.58" y1="169.83" x2="109.55" y2="164.69" xlink:href="#linear-gradient-12"/>
    <linearGradient id="Gradient_58" data-name="Gradient 58" x1="-2984.51" y1="113.02" x2="-2959.04" y2="113.02" gradientTransform="translate(-2896.71 -28.13) rotate(-179.93) scale(1 -1)" gradientUnits="userSpaceOnUse">
      <stop offset="0" stop-color="#2b1b13"/>
      <stop offset=".04" stop-color="#2e1d14"/>
      <stop offset=".38" stop-color="#442b1d"/>
      <stop offset=".71" stop-color="#513423"/>
      <stop offset="1" stop-color="#563725"/>
    </linearGradient>
    <linearGradient id="Gradient_58-2" data-name="Gradient 58" x1="398.79" y1="113.48" x2="426.6" y2="113.48" gradientTransform="translate(-284.34 -25.53) rotate(.07)" xlink:href="#Gradient_58"/>
    <linearGradient id="linear-gradient-14" x1="192.96" y1="157.2" x2="165.82" y2="180.4" gradientTransform="translate(-51.2 -72.44) rotate(1.21)" xlink:href="#linear-gradient-4"/>
    <linearGradient id="linear-gradient-15" x1="185.35" y1="135.92" x2="160.1" y2="129.83" gradientTransform="translate(-44.57 -30.96)" gradientUnits="userSpaceOnUse">
      <stop offset="0" stop-color="#ece7e7"/>
      <stop offset=".23" stop-color="#f5f3f3"/>
      <stop offset=".53" stop-color="#fcfcfc"/>
      <stop offset="1" stop-color="#fff"/>
    </linearGradient>
    <linearGradient id="Gradient_96" data-name="Gradient 96" x1="188.58" y1="150.52" x2="164.61" y2="128.76" gradientTransform="translate(-44.57 -30.96)" gradientUnits="userSpaceOnUse">
      <stop offset="0" stop-color="#a8c3dd"/>
      <stop offset="1" stop-color="#7a90a5"/>
    </linearGradient>
    <linearGradient id="Gradient_96-2" data-name="Gradient 96" x1="61.97" y1="-191.55" x2="61.17" y2="-198.96" gradientTransform="translate(52.09 300.84) rotate(3.42)" xlink:href="#Gradient_96"/>
    <radialGradient id="Gradient_25" data-name="Gradient 25" cx="-931.05" cy="150.01" fx="-931.05" fy="150.01" r="4.03" gradientTransform="translate(1067.75 -27.69) rotate(1.3) skewX(.07)" gradientUnits="userSpaceOnUse">
      <stop offset="0" stop-color="#666"/>
      <stop offset="1" stop-color="#1d1d1d"/>
    </radialGradient>
    <linearGradient id="linear-gradient-16" x1="98.53" y1="162.53" x2="118.77" y2="161.57" gradientTransform="translate(18.67 -66.01) rotate(1.2)" gradientUnits="userSpaceOnUse">
      <stop offset="0" stop-color="#2b1b13"/>
      <stop offset=".04" stop-color="#2e1d14"/>
      <stop offset=".38" stop-color="#442b1d"/>
      <stop offset=".71" stop-color="#513423"/>
      <stop offset="1" stop-color="#563725"/>
    </linearGradient>
    <linearGradient id="linear-gradient-17" x1="45.52" y1="-97.13" x2="43.13" y2="-128.19" gradientTransform="translate(52.09 300.84) rotate(3.42)" gradientUnits="userSpaceOnUse">
      <stop offset="0" stop-color="#f7d4ab"/>
      <stop offset=".45" stop-color="#f3caa0"/>
      <stop offset="1" stop-color="#f0c499"/>
    </linearGradient>
    <linearGradient id="linear-gradient-18" x1="-2968.63" y1="224.39" x2="-2995.57" y2="247.42" gradientTransform="translate(-2906.46 -72.79) rotate(178.8) scale(1 -1)" xlink:href="#linear-gradient-4"/>
    <linearGradient id="linear-gradient-19" x1="141.56" y1="135.7" x2="115.61" y2="129.43" xlink:href="#linear-gradient-15"/>
    <linearGradient id="Gradient_96-3" data-name="Gradient 96" x1="144.29" y1="150.85" x2="120.22" y2="129" xlink:href="#Gradient_96"/>
    <linearGradient id="Gradient_96-4" data-name="Gradient 96" x1="17.52" y1="-186.72" x2="16.72" y2="-194.12" gradientTransform="translate(52.09 300.84) rotate(3.42)" xlink:href="#Gradient_96"/>
    <radialGradient id="Gradient_25-2" data-name="Gradient 25" cx="-4309.73" cy="227.4" fx="-4309.73" fy="227.4" r="4.03" gradientTransform="translate(-4236 -28.23) rotate(178.7) scale(1 -1) skewX(.09)" xlink:href="#Gradient_25"/>
    <linearGradient id="linear-gradient-20" x1="-3062.9" y1="228.69" x2="-3042.84" y2="227.73" gradientTransform="translate(-2976.34 -66.37) rotate(178.81) scale(1 -1)" xlink:href="#linear-gradient-16"/>
    <linearGradient id="Gradient_32" data-name="Gradient 32" x1="43.02" y1="-282.76" x2="25.94" y2="-132.04" gradientTransform="translate(52.09 300.84) rotate(3.42)" gradientUnits="userSpaceOnUse">
      <stop offset="0" stop-color="#724831"/>
      <stop offset=".22" stop-color="#67412c"/>
      <stop offset=".63" stop-color="#5a3926"/>
      <stop offset="1" stop-color="#563725"/>
    </linearGradient>
    <linearGradient id="Gradient_32-2" data-name="Gradient 32" x1="-8.27" y1="-244.18" x2="-19.02" y2="-149.35" xlink:href="#Gradient_32"/>
    <linearGradient id="linear-gradient-21" x1="45.38" y1="-216.37" x2="45.06" y2="-220.51" gradientTransform="translate(47.86 370.89) rotate(3.42) scale(1 .93)" xlink:href="#linear-gradient-17"/>
    <linearGradient id="Gradient_27" data-name="Gradient 27" x1="103.3" y1="60.81" x2="115.67" y2="20.11" gradientUnits="userSpaceOnUse">
      <stop offset="0" stop-color="#724831"/>
      <stop offset=".42" stop-color="#7f553b"/>
      <stop offset="1" stop-color="#8e6346"/>
    </linearGradient>
    <linearGradient id="linear-gradient-22" x1="45.69" y1="-214.85" x2="45.32" y2="-219.66" gradientTransform="translate(47.86 370.89) rotate(3.42) scale(1 .93)" xlink:href="#linear-gradient-17"/>
    <linearGradient id="Gradient_115" data-name="Gradient 115" x1="101.89" y1="124.2" x2="95.01" y2="202.1" gradientUnits="userSpaceOnUse">
      <stop offset="0" stop-color="#d6ac88"/>
      <stop offset="1" stop-color="#a18166"/>
    </linearGradient>
    <linearGradient id="Gradient_115-2" data-name="Gradient 115" x1="105.28" y1="123.71" x2="98.4" y2="201.6" xlink:href="#Gradient_115"/>
    <linearGradient id="Gradient_115-3" data-name="Gradient 115" x1="62.35" y1="-151.81" x2="61.4" y2="-155.84" gradientTransform="translate(52.09 300.84) rotate(3.42)" xlink:href="#Gradient_115"/>
    <linearGradient id="Gradient_115-4" data-name="Gradient 115" x1="26.27" y1="-150.86" x2="25.4" y2="-154.55" gradientTransform="translate(52.09 300.84) rotate(3.42)" xlink:href="#Gradient_115"/>
    <linearGradient id="linear-gradient-23" x1="251.98" y1="554.56" x2="252.07" y2="567.89" gradientTransform="translate(-168.3 -419.28) rotate(-1.95)" gradientUnits="userSpaceOnUse">
      <stop offset="0" stop-color="#f7d4ab"/>
      <stop offset=".52" stop-color="#f5d1a8"/>
      <stop offset=".85" stop-color="#f2c99f"/>
      <stop offset="1" stop-color="#f0c499"/>
    </linearGradient>
    <linearGradient id="linear-gradient-24" x1="172.82" y1="252.67" x2="172.99" y2="260.67" gradientTransform="translate(-73.04 -108.99) rotate(-.81)" gradientUnits="userSpaceOnUse">
      <stop offset="0" stop-color="#ffd9b3"/>
      <stop offset="1" stop-color="#f7d4ab"/>
    </linearGradient>
    <linearGradient id="linear-gradient-25" x1="252.35" y1="578.77" x2="252.16" y2="566.79" gradientTransform="translate(-168.3 -419.28) rotate(-1.95)" gradientUnits="userSpaceOnUse">
      <stop offset="0" stop-color="#f0c499"/>
      <stop offset=".52" stop-color="#f1c69b"/>
      <stop offset=".85" stop-color="#f4cea4"/>
      <stop offset="1" stop-color="#f7d4ab"/>
    </linearGradient>
    <linearGradient id="linear-gradient-26" x1="246.09" y1="576.2" x2="257.79" y2="576.2" gradientTransform="translate(-168.3 -419.28) rotate(-1.95)" xlink:href="#linear-gradient-8"/>
    <linearGradient id="linear-gradient-27" x1="253.95" y1="573.1" x2="248.81" y2="554.85" gradientTransform="translate(-168.3 -419.28) rotate(-1.95)" xlink:href="#linear-gradient-8"/>
    <linearGradient id="Gradient_115-5" data-name="Gradient 115" x1="43.33" y1="-194.28" x2="42.71" y2="-202.26" gradientTransform="translate(47.86 370.89) rotate(3.42) scale(1 .93)" xlink:href="#Gradient_115"/>
    <linearGradient id="Gradient_115-6" data-name="Gradient 115" x1="46.05" y1="-222.25" x2="44.94" y2="-226.97" gradientTransform="translate(47.86 370.89) rotate(3.42) scale(1 .93)" xlink:href="#Gradient_115"/>
    <linearGradient id="Gradient_113" data-name="Gradient 113" x1="41.07" y1="-184.67" x2="39.87" y2="-168.36" gradientTransform="translate(52.09 300.84) rotate(3.42)" gradientUnits="userSpaceOnUse">
      <stop offset="0" stop-color="#a18166"/>
      <stop offset="1" stop-color="#d6ac88"/>
    </linearGradient>
    <linearGradient id="Gradient_27-2" data-name="Gradient 27" x1="86.43" y1="55.68" x2="98.8" y2="14.98" xlink:href="#Gradient_27"/>
    <linearGradient id="Gradient_27-3" data-name="Gradient 27" x1="73.2" y1="52" x2="85.86" y2="10.34" xlink:href="#Gradient_27"/>
    <linearGradient id="Gradient_27-4" data-name="Gradient 27" x1="64.52" y1="47.52" x2="76.89" y2="6.82" xlink:href="#Gradient_27"/>
    <linearGradient id="Gradient_27-5" data-name="Gradient 27" x1="118.61" y1="65.46" x2="130.98" y2="24.76" xlink:href="#Gradient_27"/>
    <linearGradient id="Gradient_27-6" data-name="Gradient 27" x1="132.09" y1="69.56" x2="144.46" y2="28.86" xlink:href="#Gradient_27"/>
    <linearGradient id="Gradient_27-7" data-name="Gradient 27" x1="54.84" y1="46.08" x2="67.21" y2="5.38" xlink:href="#Gradient_27"/>
    <linearGradient id="Gradient_27-8" data-name="Gradient 27" x1="-20.86" y1="-234.86" x2="-11.52" y2="-233.63" gradientTransform="translate(52.09 300.84) rotate(3.42)" xlink:href="#Gradient_27"/>
    <linearGradient id="Gradient_27-9" data-name="Gradient 27" x1="144.46" y1="73.51" x2="157.57" y2="30.37" xlink:href="#Gradient_27"/>
    <linearGradient id="Gradient_58-3" data-name="Gradient 58" x1="-3.45" y1="-145.6" x2="89.91" y2="-312.83" gradientTransform="translate(52.09 300.84) rotate(3.42)" xlink:href="#Gradient_58"/>
    <linearGradient id="Gradient_113-2" data-name="Gradient 113" x1="41.23" y1="-184.72" x2="40.03" y2="-168.45" xlink:href="#Gradient_113"/>
    <linearGradient id="linear-gradient-28" x1="205.76" y1="342.18" x2="206.46" y2="366.54" gradientTransform="translate(-118.37 -239.17) rotate(-2.17)" xlink:href="#linear-gradient-23"/>
    <linearGradient id="linear-gradient-29" x1="206.18" y1="969.89" x2="207.69" y2="958.76" gradientTransform="translate(-167.05 -1517.55) rotate(-2.16) scale(1 1.7) skewX(.04)" xlink:href="#linear-gradient-7"/>
    <linearGradient id="linear-gradient-30" x1="100.22" y1="193.89" x2="118.46" y2="193.89" gradientTransform="matrix(1,0,0,1,0,0)" xlink:href="#linear-gradient-7"/>
    <linearGradient id="linear-gradient-31" x1="115.99" y1="364.3" x2="87.65" y2="213.01" xlink:href="#linear-gradient-6"/>
    <linearGradient id="linear-gradient-32" x1="70.46" y1="261.34" x2="71.31" y2="219.9" xlink:href="#linear-gradient-6"/>
    <linearGradient id="linear-gradient-33" x1="71.38" y1="303.15" x2="71.38" y2="179.94" xlink:href="#linear-gradient-6"/>
    <linearGradient id="linear-gradient-34" x1="77.74" y1="207.53" x2="76.71" y2="135.88" xlink:href="#linear-gradient"/>
    <linearGradient id="linear-gradient-35" x1="76.46" y1="341.19" x2="121.77" y2="188.25" xlink:href="#linear-gradient-6"/>
    <linearGradient id="linear-gradient-36" x1="131.36" y1="265.7" x2="132.24" y2="222.53" xlink:href="#linear-gradient-6"/>
    <linearGradient id="linear-gradient-37" x1="132.94" y1="314.48" x2="132.94" y2="177.21" xlink:href="#linear-gradient-6"/>
    <linearGradient id="linear-gradient-38" x1="126.22" y1="207.05" x2="125.34" y2="145.48" xlink:href="#linear-gradient"/>
    <linearGradient id="linear-gradient-39" x1="112.6" y1="225.73" x2="122.89" y2="243.05" xlink:href="#linear-gradient-6"/>
    <linearGradient id="linear-gradient-40" x1="146.29" y1="222.7" x2="157.1" y2="240.88" xlink:href="#linear-gradient-6"/>
  </defs>
  <g id="Layer_1-2" data-name="Layer 1">
    <g style="clip-path: url(#clippath);">
      <g>
        <path d="M70.53,171.28s25.47-18.7,63.1-2.44c0,0,17.81,22.47.85,38.81s-59.9,14.8-66.11,1.41c-6.2-13.39-2.78-34.93,2.16-37.78Z" style="fill: url(#linear-gradient);"/>
        <path d="M134.37,188.62l6.66-8.51s-7.23-2.17-10.07-16.92c-.12.11-.24.22-.36.33-.87,8.81.71,17.24,3.77,25.09Z" style="fill: url(#linear-gradient-2);"/>
        <path d="M130.6,163.53c-11.43,10.5-17.98,20.08-32.69,19.16-5.69,0-15.91-2.49-23.03-7.19,5.96,11.97,17.22,21.08,26.44,29.14,3.8,3.8,5.36,10.31,7.33,16.85l25.73-32.86c-3.06-7.85-4.64-16.28-3.77-25.09Z" style="fill: url(#linear-gradient-3);"/>
        <path d="M84.02,180.72c-.75-.5-10.62-6.24-11.3-6.78-1.21,2.84-2.69,5.81-4.52,8.9l31.5,51.88,8.94-13.23c-1.96-6.54-3.52-13.04-7.33-16.85-9.22-8.06-11.33-11.94-17.29-23.91Z" style="fill: url(#linear-gradient-4);"/>
        <path d="M130.96,163.19c-.53-2.76-.91-5.96-1.06-9.66l-58.14-14.7s3.12,16.83.97,35.1c7.04,5.71,19.74,11.05,26.03,11.05,14.87.93,23.74-3.63,32.21-21.8Z" style="fill: url(#linear-gradient-5);"/>
        <path d="M223.36,222.89c-15.56-5.75-74.21-32.38-74.21-32.38l-47.79,44.91-40.82-44.91s-68.63,27.64-79.27,32.38l28.4,84.45-.06,4.45h186.72l27.03-88.9Z" style="fill: #192b51;"/>
        <path d="M-18.73,222.89s34.61,62.94,44.87,69.91c10.05,6.83,149.97,11.02,163.56-4.36l33.66-65.55-75.82-40.06-25.55,19.4-22.29,32.48-39.06-50.54-79.37,38.72Z" style="fill: url(#linear-gradient-6);"/>
        <g>
          <path d="M58.4,100.15s3.46,47.01,4.77,48.98c1.31,1.97,21.13,21.8,23.68,23.98,2.56,2.18,29.12.84,29.12.84,0,0,22.32-20.01,24.25-23.22,1.93-3.21,5.23-51.32,5.23-51.32,0,0,5.86-37.79-3.18-50.75-9.04-12.96-70.64-17.16-80.85.87-10.22,18.03-3.02,50.64-3.02,50.64Z" style="fill: url(#linear-gradient-7);"/>
          <g>
            <path d="M153.26,95.48c9.63-.7,3.36,14.42,3.36,14.42-3.73,19.58-2.12,22.95-10.69,22.21-6.34-.54.45-36.13,7.33-36.63Z" style="fill: #f0c499;"/>
            <path d="M147.51,123.63s3.05-3.42,2.89-10.76c-.37-17.29,8.73-17.61,5.59-6.13,0,0-.73-5.62-2.02-4.08-1.59,1.89,1.2,3.28-1.1,11.97-1.2,4.51-5.37,9-5.37,9Z" style="fill: url(#linear-gradient-8);"/>
          </g>
          <g>
            <path d="M51.19,95.75c-9.63-.39-3.52,14.53-3.52,14.53,3.52,19.46,2.99,22.36,10.44,21.87,8.37-.55-.05-36.12-6.93-36.4Z" style="fill: #f0c499;"/>
            <path d="M56.63,123.72s-3.01-3.32-2.78-10.66c.56-17.31-8.54-17.33-5.53-5.95,0,0,.79-5.64,2.07-4.15,1.57,1.83-1.24,3.32.96,11.93,1.15,4.48,5.27,8.83,5.27,8.83Z" style="fill: url(#linear-gradient-9);"/>
          </g>
          <path d="M114.81,88.88s-6.51,7.86-6.36,8.73c.14.87,1.25,11.36,1.25,11.36,0,0,25.36-.8,28.67-1.84,3.31-1.04,4.15-7.54,4.15-7.54l-3.54-5.29s-7.6-7.29-8.34-6.8c-.74.49-15.83,1.37-15.83,1.37Z" style="fill: url(#linear-gradient-10);"/>
          <path d="M88.35,88.87s6.42,7.48,6.31,8.35-.45,11.54-.45,11.54c0,0-25.37.15-28.72-.76s-4.43-7.38-4.43-7.38l3.34-5.42s7.32-7.57,8.08-7.1c.76.47,15.87.77,15.87.77Z" style="fill: url(#linear-gradient-11);"/>
          <path d="M127.25,132.07c8.19.5,17.34-.56,18.98-17.22.94-9.49-.12-14.44-4.18-15.16-8.6-1.54-20.91,2.21-26.03,4.86-10.82,5.59-3.28,26.63,11.23,27.52Z" style="fill: url(#radial-gradient);"/>
          <path d="M86.24,103.29c-2.34-.83-20.19-4.74-25.49-3.19-3.03.88-1.73,7.56-1.19,13.9.26,3.04.24,7.92.95,9.83,3.47,9.37,16.55,9.73,24.09,7.07,12.86-4.53,13.54-23.42,1.65-27.62Z" style="fill: url(#radial-gradient-2);"/>
          <path d="M141.21,106.2c-1.48-.81-2.57.38-5.64,1.38-3.01.98-11.23,2.55-7.35,4.59,4.28,2.26,10.24-.89,10.96-1.48.72-.59,3.85-3.49,2.03-4.49Z" style="fill: url(#linear-gradient-12);"/>
          <path d="M68.49,108.5c-3.12-.82-4.28-1.94-5.71-1.05-1.76,1.1,1.54,3.82,2.3,4.36.75.55,6.9,3.34,11.03.83,3.75-2.27-4.55-3.34-7.61-4.14Z" style="fill: url(#linear-gradient-13);"/>
          <path d="M67.57,87.23c2.22-3.48,10.27-2.92,14.21-2.83,2.23.05,5.38.12,7.42.87.24,1.25.27,2.15-.12,3.62.91-.78,1.12-2.21.92-3.21.05.03,1.54,2.23.17,4.76-.66,1.2-4.19.2-12.38-.02-2.23-.06-6.03-.38-9.1.62-1.12.37-3.39,1.55-3.39,1.55-.24-.4,1.23-3.71,2.28-5.37Z" style="fill: url(#Gradient_58);"/>
          <path d="M135.57,86.83c-1.76-2.61-9.5-2.72-13.56-2.52-2.08.1-7.39-.05-9.48.69-.24,1.25-.28,2.14.13,3.62-.94-.79-1.15-2.22-.94-3.22-.06.03-1.58,2.22-.16,4.76.67,1.21,4.29.22,12.69.06,2.28-.04,7.15-.13,9.32.68,1.14.42,5.16,1.77,5.16,1.77.25-.4-1.18-2.9-3.16-5.83Z" style="fill: url(#Gradient_58-2);"/>
          <g>
            <path d="M111.63,104.39c-1.01-1.22.04-3.83.61-5.46,1.79-5.09,5.66-6.78,13.69-6.96,2.63-.06,7.18.5,9.98,3.07,2.15,1.98,3.39,3.95,3.15,5.72-.12.9-4.34,5.95-13.09,6.22-5.72.18-12.23-.05-14.34-2.59Z" style="fill: url(#linear-gradient-14);"/>
            <path d="M134.91,100.7c-.22.59-.54,1.11-.94,1.58-.62.75-1.41,1.35-2.3,1.83-.33.15-.68.25-1.05.33-.05.02-.1.02-.14.03-.59.13-1.14.26-1.66.36-2.77.55-4.91.81-6.73.81-.74,0-1.42-.05-2.07-.13-.32-.03-.63-.1-.93-.18-2.66-.62-4.66-2.36-5.04-3.08,0,0,0-.02.02-.03v-.02c.14-.33,1.17-2.54,2.82-4.3,1.03-1.09,2.31-2.01,3.79-2.17.47-.05.93-.1,1.39-.11,8.3-.34,12.45,4.58,12.83,5.06.02.02.02.03.02.03Z" style="fill: url(#linear-gradient-15);"/>
            <path d="M134.89,100.66s.02.03.02.03c-.23.59-.55,1.12-.94,1.59-.1-.06-.22-.13-.35-.2-.84-.45-2.35-1.06-5.19-1.3-11.72-.97-14.24,1.29-14.37,1.41,0,0,0,0,0,0,.36-1.86,1.42-3.26,2.82-4.31,1.47-1.1,3.33-1.82,5.18-2.28,1.52-.38,3.03-.59,4.32-.69,4.15-.32,8.15,5.23,8.51,5.73Z" style="fill: #ddd;"/>
            <path d="M131.36,102.73c-.06.34-.23,1.27-.44,1.63-.13.08-.58.26-.76.34-.59.13-1.22.32-1.74.42-2.77.55-4.5.51-6.33.51-.74,0-1.42-.05-2.07-.13-.32-.03-.63-.1-.93-.18-.57-.75-1.11-1.84-1.08-3.34.09-3.96,3.42-5.72,7.1-5.43,3.66.31,6.84,2.36,6.26,6.18Z" style="fill: url(#Gradient_96);"/>
            <path d="M118.14,100.79s5.2-1.13,13.26.56c0,0-.15-4.12-5.01-5.01-4.56-.83-7.92,2.1-8.26,4.45Z" style="fill: url(#Gradient_96-2);"/>
            <path d="M125.06,97.1c-2.25-.12-4.32,1.64-4.43,3.9-.11,2.26,1.79,4.16,4.03,4.28,2.25.12,4.16-1.62,4.27-3.88.11-2.26-1.63-4.18-3.87-4.3Z" style="fill: url(#Gradient_25);"/>
            <path d="M124.91,97.1c-2.65-.15-3.89,1.78-4.22,3.39,0,0,4.36-.43,8.24.38,0,0-.21-3.56-4.01-3.77Z"/>
            <path d="M130.49,103.79c.44-.82.09-1.88-.77-2.36-.86-.48-1.92-.2-2.36.63-.44.82-.1,1.88.77,2.36.86.48,1.92.2,2.36-.63Z" style="fill: #fff;"/>
            <path d="M126.38,101.61c.35-.65.08-1.48-.6-1.85-.68-.37-1.52-.16-1.87.49-.35.65-.08,1.48.6,1.85.68.38,1.52.16,1.87-.49Z" style="fill: #fff;"/>
            <path d="M114.05,102.22s-.39-3.11,3.34-5.65c3.92-2.66,10.55-2.59,14.39-.19,2.31,1.44,3.13,4.31,3.13,4.31,0,0-4.88-3.46-10.11-3.22-2.9.13-4,.39-5.31.7-3.41.82-5.44,4.05-5.44,4.05Z" style="fill: url(#linear-gradient-16);"/>
          </g>
          <path d="M70.59,53.66c1.7-.82,26.65,2.71,30.56,1.82,3.91-.89,24.93-4.71,29.01-2.44s6.96,6.81,7.37,9.32c.4,2.51-.25,14.9,0,16.92.24,2.02,3.78,4.53,4.79,16.22s.47,22.79-.14,27.64c-.62,4.86-5.09,20.97-5.09,20.97l8.17-23.55s.82-2.79,1-5.71c.18-2.92,2.35-38.46,2.35-38.46l-11.69-34.6-68.54-3.28-14.83,33.16,3.83,40.04,1.86,5.39,5.8,20.4s-2.22-24.57-2.92-26.04c-.71-1.47-.71-14.74-.47-17.22.66-6.76,4.02-13.34,4.44-15.14.42-1.8-1.69-14.57-1.26-16.37.43-1.8,5.8-9.1,5.8-9.1Z" style="fill: url(#linear-gradient-17);"/>
          <g>
            <path d="M92.81,104.71c1.01-1.22-.04-3.83-.61-5.46-1.77-5.09-5.61-6.78-13.57-6.96-2.61-.06-7.12.5-9.89,3.07-2.13,1.98-3.36,3.95-3.12,5.72.12.9,4.3,5.95,12.97,6.22,5.67.18,12.12-.04,14.21-2.58Z" style="fill: url(#linear-gradient-18);"/>
            <path d="M90.42,102.56c-.36.7-2.23,2.33-4.69,3-.39.11-.8.21-1.22.26-.64.08-1.33.13-2.07.13-1.79,0-3.91-.26-6.66-.82-.34-.07-.69-.15-1.05-.21-.25-.07-.5-.11-.75-.16-.36-.08-.69-.2-1.02-.33-.88-.47-1.66-1.09-2.28-1.84-.39-.46-.71-.99-.93-1.58,0,0,0-.02.02-.03.38-.46,4.49-5.38,12.72-5.05.44.03.91.07,1.38.11,1.46.16,2.71,1.08,3.75,2.17,1.63,1.76,2.65,3.98,2.79,4.3v.02s.02.03.02.03Z" style="fill: url(#linear-gradient-19);"/>
            <path d="M69.76,100.98s-.02.03-.02.03c.23.59.54,1.12.93,1.59.1-.06.22-.13.35-.2.83-.45,2.33-1.06,5.14-1.3,11.61-.97,14.11,1.3,14.24,1.42,0,0,0,0,0,0-.36-1.86-1.4-3.26-2.8-4.31-1.46-1.1-3.3-1.82-5.13-2.28-1.51-.38-3.01-.59-4.28-.69-4.11-.32-8.08,5.23-8.43,5.73Z" style="fill: #ddd;"/>
            <path d="M86.73,102.3c.03,1.45-.47,2.53-1.01,3.26-.39.11-.8.21-1.22.26-.64.08-1.33.13-2.07.13-1.79,0-3.53.13-6.25-.51-.34-.08-1.03-.35-1.39-.42-.33-.11-.59-.13-.79-.26-.21-.38-.46-1.38-.51-1.72-.58-3.82,2.57-5.87,6.2-6.16,3.64-.31,6.94,1.45,7.03,5.41Z" style="fill: url(#Gradient_96-3);"/>
            <path d="M86.59,101.12s-5.15-1.14-13.14.56c0,0,.15-4.12,4.96-5.01,4.52-.83,7.85,2.1,8.18,4.45Z" style="fill: url(#Gradient_96-4);"/>
            <path d="M79.74,97.43c2.23-.12,4.28,1.64,4.39,3.9.11,2.26-1.77,4.15-4,4.28-2.23.11-4.13-1.62-4.23-3.88-.11-2.26,1.61-4.18,3.84-4.3Z" style="fill: url(#Gradient_25-2);"/>
            <path d="M79.89,97.42c2.63-.14,3.85,1.78,4.19,3.39,0,0-4.32-.43-8.16.38,0,0,.21-3.56,3.98-3.77Z"/>
            <path d="M81.69,104.59c-.43-.82-.09-1.88.76-2.36.85-.48,1.9-.2,2.34.63.44.82.09,1.88-.76,2.36-.85.48-1.9.2-2.34-.63Z" style="fill: #fff;"/>
            <path d="M78.85,102.19c-.35-.65-.08-1.48.6-1.85.68-.37,1.5-.16,1.85.49.35.65.08,1.48-.6,1.85-.68.38-1.51.16-1.85-.49Z" style="fill: #fff;"/>
            <path d="M90.41,102.54s.39-3.11-3.31-5.65c-3.88-2.66-10.45-2.59-14.26-.2-2.29,1.44-3.1,4.31-3.1,4.31,0,0,4.84-3.46,10.02-3.22,2.87.13,3.97.39,5.26.7,3.37.82,5.39,4.05,5.39,4.05Z" style="fill: url(#linear-gradient-20);"/>
          </g>
          <path d="M62.58,54.72s6.69-9.73,23.61-7.07c11.26,1.77,11.72,1.64,15.5,2.48,3.78.84,21.89-6.14,29.85-3.02,7.96,3.12,8.74,12.3,8.8,16.83s-.91,15.19.2,15.9,5.09,5.18,4.72,11.38c-.36,6.2.96,23.64.96,23.64,0,0,1.29-18.86,7.69-19.4l.4-12.98s2.56-8.92,2.78-12.6c.41-6.95-1.56-12.87-1.67-14.03-.29-2.99-5.4-8.17-6.28-9.17,0,0,3.24-6.97-5.66-11.83,0,0-1.8-14.58-17.58-17.89-15.78-3.31-29.03-2.41-33.89-.7,0,0-17.4-4.45-25.97,6.94,0,0-10.99,4.36-12.1,15.18-1.12,10.81,2.58,15.21,3.18,15.05l5.46,1.31Z" style="fill: url(#Gradient_32);"/>
          <path d="M64.28,53.41s-5.46,7.01-3.67,21.01c0,0-2.74,7.69-2.74,12.78,0,5.1,1.51,24.77,1.51,24.77,0,0-3.33-16.71-9.62-16.15,0,0-1.22-11.53-1.54-12.27,0,0-4.88-9.14-1.45-19.85,1.98-6.18,10.36-10.29,10.36-10.29h7.15Z" style="fill: url(#Gradient_32-2);"/>
          <path d="M78.97,152.31s12.31,6.95,12.95,6.84c.64-.11,10.34-5.15,10.34-5.15,0,0,10.89,5.48,13.33,5.29,2.45-.19,14.83-8,14.83-8,0,0-12.78,11.85-15.29,13.03-2.5,1.17-27.69-.27-27.69-.27l-8.49-11.74Z" style="fill: url(#linear-gradient-21);"/>
          <path d="M102.16,41.24s-.18-23.24,28.49-22.8c0,0-16.66-10.03-27.24,1.54-10.58,11.57-1.25,21.27-1.25,21.27Z" style="fill: url(#Gradient_27);"/>
          <g>
            <path d="M78.74,149.9s12.48,7.62,13.12,7.51c.64-.11,10.23-5.81,10.23-5.81,0,0,11.55,6.63,14.01,6.44,2.45-.19,14.86-8.05,14.86-8.05,0,0-13.43,13.34-15.95,14.51-2.51,1.18-27.77-.27-27.77-.27l-8.51-14.33Z" style="fill: url(#linear-gradient-22);"/>
            <path d="M146.22,114.86s-2.43,30.53-4.45,35.01c-2.02,4.48-21.73,21.76-25.99,25.29-4.26,3.53-23.21,1.79-26.27,1.25s-25.12-20.46-28.17-25.41c-3.05-4.95-2.08-36.97-2.08-36.97,0,0,4.01,20.65,6.82,24.64,2.81,3.99,22.25,18.84,25.28,20.84,1.28.85,4.74-2.61,6.84-5.47,2-2.72.67-3.96,5.78-3.66,4.1.24,3.25,1.92,6.2,5.36,2.08,2.43,4.45,4.89,5.96,4.59,3.66-.73,20.02-15.67,20.95-17.85.93-2.19,9.13-27.62,9.13-27.62Z" style="fill: url(#Gradient_115);"/>
            <path d="M80.11,135.44c1.14-1.29,13.6-8.2,14.65-7.92,7.47,1.99,14.89-.52,15.83-.83.94-.3,13.57,8.59,14.3,9.54s4.91,12.36,5.32,14.91c.51,3.15-4.2,4.68-4.2,4.68l-3.19-17.86-26.1.62-13.78.47-2.45,16.02s-2.66-.97-4.95-5.36c1.93-5.34,3.43-12.98,4.57-14.27Z" style="fill: url(#Gradient_115-2);"/>
            <path d="M123.98,144.48l-1.21-6.42-5.07-.07s5.37-1.58,5.83-1.34c.43.44.44,7.82.44,7.82Z" style="fill: url(#Gradient_115-3);"/>
            <path d="M82.03,145s.91-5.73,1.32-5.78c1.42-.18,5.67-1.19,5.67-1.19,0,0-5.85.08-7.19-.28-1.34-.36.19,7.25.19,7.25Z" style="fill: url(#Gradient_115-4);"/>
            <g>
              <path d="M94.92,140.83c-3.17-.18-10.9-1.04-11.98-1.79,5.12-.32,8.57-2.06,13.19-2.47,2.85-.25,5.18.6,6.4.54,1.22-.06,6.03-.8,7.03-.61,2.39.46,11.87,2.08,13.27,1.45,0,0-4.57,2.25-9.84,2.67-3.45.28-5.67.34-9.75.4-4.04.07-5.13-.01-8.31-.2Z" style="fill: url(#linear-gradient-23);"/>
              <path d="M92.51,142.96c-.55-1.14,5.06-.79,11.11-.89,5.74-.09,10.04-.58,10.53.05,1,1.29-5.29,3.53-9.55,3.69-4.15.16-10.69.05-12.09-2.85Z" style="fill: url(#linear-gradient-24);"/>
              <path d="M86.75,142.22s9.69,4.2,10.92,4.28c3.15.19,11.09.06,12.11-.2,2.44-.62,7.17-4.11,9.72-5.53,0,0-7.21,7.6-15.82,7.71-7.92.1-13.69-4.12-16.93-6.25Z" style="fill: url(#linear-gradient-25);"/>
              <path d="M97.21,147.56s2.6,1.13,6.77,1.07c2.23-.03,4.93-1.1,4.93-1.1,0,0-3.07.22-11.7.03Z" style="fill: url(#linear-gradient-26);"/>
              <path d="M123.51,136.56c0-.44-.79,1.36-.99,1.42-7.37,2.33-15.96,2.18-19.52,2.22-4.24.04-13.35.29-20.24-1.42,0,0-.55-.47-1.18-1.12-.26-.27.63,1.66,1.24,2.03,1,.6,11.33,1.88,20.46,1.86,10.94-.02,18.57-1.93,19.29-2.72.42-.46.95-1.84.94-2.28Z" style="fill: url(#linear-gradient-27);"/>
            </g>
            <path d="M62.89,153s22.4,19.77,27.33,21.19c2.25.65,21.15,1.07,23.05.43,1.89-.64,25.82-21.17,25.82-21.17,0,0-14.98,16.85-25.99,24-1.82,1.18-22.26.31-23.63-.21-6.06-2.27-25.69-23.14-26.58-24.24Z" style="fill: url(#Gradient_115-5);"/>
            <path d="M96.92,155.65s2.66-4.78,3.67-5.47c1.01-.7,5.9-.78,6.36.38.45,1.16,4.38,6.48,4.38,6.48,0,0-5.04-4.26-5.56-4.6-.52-.34-2.34-1.34-3.67-.85-1.33.49-5.17,4.06-5.17,4.06Z" style="fill: url(#Gradient_115-6);"/>
            <path d="M91.86,128.78s10.8,5.44,11.27,5.33c.47-.11,10.61-5.45,10.61-5.45,0,0-1.29-2.05-3.14-2.16-3.2-.19-7.66,2.05-8.54,2.64-.81.54-5.94-2.04-8.52-2.18-1.85-.1-1.68,1.83-1.68,1.83Z" style="fill: url(#Gradient_113);"/>
          </g>
          <path d="M89.18,38.95s1.28-18.01,18.04-22.11c0,0-5.58-7.15-15.2-.59s-2.84,22.71-2.84,22.71Z" style="fill: url(#Gradient_27-2);"/>
          <path d="M82.18,40.04s-3.52-19.18,9.84-23.8c0,0-10.35-7.21-16.56,3.38-6.21,10.59,6.71,20.42,6.71,20.42Z" style="fill: url(#Gradient_27-3);"/>
          <path d="M69.93,41.24s-12.19-10.99-3.88-19.56c8.32-8.57,15.56-5.47,15.56-5.47,0,0-8.24,5.11-9.77,11.23-1.53,6.12-1.91,13.79-1.91,13.79Z" style="fill: url(#Gradient_27-4);"/>
          <path d="M112.12,38.55s.12-14.93,11.72-17.61,18.33,4.35,19.66,13.9c0,0-2.68-10.99-16.56-6.7-9.4,2.9-14.82,10.41-14.82,10.41Z" style="fill: url(#Gradient_27-5);"/>
          <path d="M129.91,44.23s12.95-6.73,19.23,2.44c0,0,.7-10.1-9.05-10.68-9.75-.58-10.18,8.24-10.18,8.24Z" style="fill: url(#Gradient_27-6);"/>
          <path d="M57.13,53.41s-7.51-5.14-2.87-20.25c2.37-7.7,11.79-9.98,11.79-9.98,0,0-3.78,3.03-8.93,16.1-2.41,6.13,0,14.13,0,14.13Z" style="fill: url(#Gradient_27-7);"/>
          <path d="M57.13,53.41s-7.7.13-11.37,9.62c-2.02,5.22,4.07,17.06,4.07,17.06,0,0-1.32-11.26.63-16.91,2.22-6.41,6.66-9.76,6.66-9.76Z" style="fill: url(#Gradient_27-8);"/>
          <path d="M142.26,48.98s9.47-4.28,13.14,5.24c2.38,6.18,2.62,10.42-2.09,18.53,0,0,.36-12.42-1.89-15.94-2.26-3.52-9.16-7.83-9.16-7.83Z" style="fill: url(#Gradient_27-9);"/>
          <path d="M59.56,114s.22-6.87.04-18.26c-.1-6.63,1-11.34,4.67-16.82,0,0-2.01-15.75-1.13-17.81,1.96-4.57,8.6-10.85,9.83-11.05,1.23-.2,26.61,2.03,29.74,1.68,3.13-.35,23.08-3.69,28.82-.73,2.41,1.24,8.48,6.8,8.64,9.86.16,3.06-.75,18.25-.75,18.25,0,0,4.99,5.77,4.91,14.02-.09,8.25,1.88,21.71,1.88,21.71,0,0,2.13-25.35,1.89-28.21s-1.6-27.15-2.69-29.65c-1.09-2.5-10.16-11.78-15.51-12.77-5.35-1-27.37,1.44-28.35,2.05s-27.19-6.4-31.63-3.54-13.01,12.86-12.97,15.46c.04,2.59-1.56,23.44-1.52,25.43.02.85,4.12,30.38,4.12,30.38Z" style="fill: url(#Gradient_58-3);"/>
          <path d="M92.06,128.71s10.77,5.42,11.24,5.31c.47-.11,10.58-5.44,10.58-5.44,0,0-1.29-2.05-3.13-2.16-3.19-.19-6.52,2.71-8.71,2.17-.94-.23-5.73-1.59-8.3-1.72-1.85-.1-1.68,1.83-1.68,1.83Z" style="fill: url(#Gradient_113-2);"/>
          <g>
            <path d="M106.78,127.94c6.48-5.17,7.1.65,7.1.65-3.58-2.91-7.1-.65-7.1-.65Z" style="fill: #dca57b;"/>
            <path d="M92.06,128.71s.88-1.78,5.62-.37c0,0-7.88-5.09-5.62.37Z" style="fill: #dca57b;"/>
            <path d="M109.16,110.36c.05,2.44,1.34,11.6.65,13.02-1.54,3.16-4.58,4.51-7.46,4.38-2.16.35-6.1-.59-8.34-3.76-.91-1.29.68-10.49.2-13.08,0,0-9.34,16.89-2.14,17.78,0,0-1.18-1.89,1.68-1.83,2.53.06,3.87,4.44,8.86,4.25,5.51-.21,4.54-4.11,7.46-4.61,3.61-.62,2.99,1.74,3.83,2.07,3.6-1.61-1.3-13.91-4.72-18.23Z" style="fill: url(#linear-gradient-28);"/>
            <path d="M97.96,120.19c-.15,2.72.21,5.63,4.22,5.53,4.4-.11,4.48-3.08,4.02-5.56-2.74-14.69-7.7-10.09-8.24.03Z" style="fill: url(#linear-gradient-29);"/>
          </g>
        </g>
        <path d="M100.22,188.42s12.62.17,17.39-2.59c4.77-2.77-11.94,16.15-13.43,16.4-1.49.24-3.95-13.8-3.95-13.8Z" style="fill: url(#linear-gradient-30);"/>
        <g>
          <path d="M86.94,203.66s6.83,6.28,8.09,7.39c1.21,1.06,4.95,18.55,4.95,18.55l-2.15,36.69-19.64-54.48,8.75-8.14Z" style="fill: url(#linear-gradient-31);"/>
          <path d="M56.58,191.76c0,4.09,7.23,33.57,7.7,35.15,0,0,8.93-7.71,14.93-12.5l7.74-10.75s-30.37-15.99-30.37-11.9Z" style="fill: url(#linear-gradient-32);"/>
          <path d="M72.04,170.3s-4.95,6.31-2.42,14.92c2.37,8.05,17.32,18.44,17.32,18.44,0,0-17.89,14.96-21.35,18.33-2.42-8.47-11.57-31.91-9.46-35.24,4.05-6.4,9.85-13.15,15.91-16.46Z" style="fill: url(#linear-gradient-33);"/>
          <path d="M72.04,170.3s-6.34,8.26,1.06,19.17c5.29,7.81,13.85,14.19,13.85,14.19,0,0-11.6-8.15-14.62-11.87-9.34-11.48-.28-21.5-.28-21.5Z" style="fill: url(#linear-gradient-34);"/>
          <path d="M115.48,203.36c-2.29,1.5-5.28,3.58-9,6.48-1.57,1.22-7.59,21.77-7.07,26.47.07.62.11,1.55.12,2.66,5.63-1.64,12.14-2.05,17.9-3.27.69-6.2.88-12.67,1.49-18.46.04-.37.33-5.32.33-5.32.38-3.66.16-3.46.33-5.85-2.01-.16-3.45-1.22-4.1-2.71Z" style="fill: url(#linear-gradient-35);"/>
          <path d="M115.48,203.36l3.77,8.56c4.24,3.31,17.16,11.62,23.79,14.99.81.41,5.84-30.09,7.04-38.56l-34.61,15.01Z" style="fill: url(#linear-gradient-36);"/>
          <path d="M115.48,203.36s24.1,16.27,27.17,19.59c2.69-10.61,7.76-30.97,7.76-37.04,0-3.19-13.63-15.47-16.77-17.07,0,0,1.77,5.23.87,10.31-3.22,18.22-19.03,24.21-19.03,24.21Z" style="fill: url(#linear-gradient-37);"/>
          <path d="M115.48,203.36s23.66-11.19,18.16-34.52c0,0,13.59,22.67-18.16,34.52Z" style="fill: url(#linear-gradient-38);"/>
          <path d="M115.48,203.36s-6.61,4.6-9.72,6.19c-3.11,1.6-5.9,21.93-5.9,21.93,0,0,5.63-17.71,6.65-19.36,1.02-1.65,8.97-8.76,8.97-8.76Z" style="fill: url(#linear-gradient-39);"/>
        </g>
        <path d="M127.92,211.91l14.73,11.03,4.57-18.83s-4.43,12.8-5.5,13.13c-1.07.33-13.8-5.33-13.8-5.33Z" style="fill: url(#linear-gradient-40);"/>
      </g>
    </g>
  </g>
</svg>