<?xml version="1.0" encoding="UTF-8"?>
<svg id="Layer_2" data-name="Layer 2" xmlns="http://www.w3.org/2000/svg" width="172.11" height="172.11" xmlns:xlink="http://www.w3.org/1999/xlink" viewBox="0 0 172.11 172.11">
  <defs>
    <clipPath id="clippath">
      <rect width="172.11" height="172.11" style="fill: none;"/>
    </clipPath>
    <linearGradient id="linear-gradient" x1="174.01" y1="182.49" x2="171.88" y2="298.3" gradientUnits="userSpaceOnUse">
      <stop offset="0" stop-color="#2b416b"/>
      <stop offset=".4" stop-color="#263b64"/>
      <stop offset=".95" stop-color="#1a2c53"/>
      <stop offset="1" stop-color="#192b51"/>
    </linearGradient>
    <linearGradient id="linear-gradient-2" x1="72.68" y1="142.22" x2="59.34" y2="128.88" gradientUnits="userSpaceOnUse">
      <stop offset="0" stop-color="#0b173d"/>
      <stop offset=".5" stop-color="#0c193f"/>
      <stop offset=".82" stop-color="#132248"/>
      <stop offset="1" stop-color="#192b51"/>
    </linearGradient>
    <linearGradient id="linear-gradient-3" x1="83.32" y1="128.54" x2="95.43" y2="150.8" gradientUnits="userSpaceOnUse">
      <stop offset="0" stop-color="#f7d4ab"/>
      <stop offset=".45" stop-color="#f3caa0"/>
      <stop offset="1" stop-color="#f0c499"/>
    </linearGradient>
    <linearGradient id="linear-gradient-4" x1="60.6" y1="115.16" x2="70.61" y2="133.58" xlink:href="#linear-gradient-3"/>
    <linearGradient id="linear-gradient-5" x1="96.7" y1="141.63" x2="90.19" y2="186.14" gradientUnits="userSpaceOnUse">
      <stop offset="0" stop-color="#dba379"/>
      <stop offset=".49" stop-color="#e3b086"/>
      <stop offset="1" stop-color="#f0c499"/>
    </linearGradient>
    <linearGradient id="linear-gradient-6" x1="102.96" y1="83.56" x2="64.41" y2="286.52" gradientUnits="userSpaceOnUse">
      <stop offset="0" stop-color="#2b416b"/>
      <stop offset=".46" stop-color="#293e68"/>
      <stop offset=".75" stop-color="#23375f"/>
      <stop offset="1" stop-color="#192b51"/>
    </linearGradient>
    <linearGradient id="linear-gradient-7" x1="86.95" y1="129.87" x2="83.62" y2="152.65" xlink:href="#linear-gradient-5"/>
    <linearGradient id="linear-gradient-8" x1="211.89" y1="712.96" x2="187.95" y2="585.13" gradientTransform="translate(-154.93 -386.53) rotate(-6.47)" xlink:href="#linear-gradient-6"/>
    <linearGradient id="linear-gradient-9" x1="165.24" y1="630.56" x2="166.09" y2="589.21" gradientTransform="translate(-154.93 -386.53) rotate(-6.47)" xlink:href="#linear-gradient-6"/>
    <linearGradient id="linear-gradient-10" x1="165.2" y1="671.97" x2="165.2" y2="551.11" gradientTransform="translate(-154.93 -386.53) rotate(-6.47)" xlink:href="#linear-gradient-6"/>
    <linearGradient id="linear-gradient-11" x1="112.8" y1="189.64" x2="120.29" y2="165.69" gradientUnits="userSpaceOnUse">
      <stop offset="0" stop-color="#2b416b"/>
      <stop offset="1" stop-color="#192b51"/>
    </linearGradient>
    <linearGradient id="linear-gradient-12" x1="256.64" y1="1199.34" x2="257.06" y2="1178.66" gradientTransform="translate(-438.98 -887.2) rotate(-15.55)" xlink:href="#linear-gradient-6"/>
    <linearGradient id="linear-gradient-13" x1="257.55" y1="1250.89" x2="257.55" y2="1143.82" gradientTransform="translate(-438.98 -887.2) rotate(-15.55)" xlink:href="#linear-gradient-6"/>
    <linearGradient id="linear-gradient-14" x1="178.26" y1="442.16" x2="188.54" y2="459.47" gradientTransform="translate(-91.31 -243.94) rotate(-4.09)" xlink:href="#linear-gradient-6"/>
    <linearGradient id="linear-gradient-15" x1="123.51" y1="182.88" x2="126.35" y2="162.26" xlink:href="#linear-gradient-6"/>
    <linearGradient id="linear-gradient-16" x1="140.94" y1="150.21" x2="137.62" y2="192.05" gradientTransform="translate(-53.97 -104.83) rotate(-1.74) scale(1 .96)" gradientUnits="userSpaceOnUse">
      <stop offset="0" stop-color="#ffd9b3"/>
      <stop offset=".28" stop-color="#fbd6af"/>
      <stop offset="1" stop-color="#f7d4ab"/>
    </linearGradient>
    <linearGradient id="linear-gradient-17" x1="2437.34" y1="75.47" x2="2437.16" y2="85.41" gradientTransform="translate(2429.34 622.39) rotate(-165.45) scale(1 -1)" gradientUnits="userSpaceOnUse">
      <stop offset="0" stop-color="#f0c499"/>
      <stop offset=".15" stop-color="#f2c99f"/>
      <stop offset=".48" stop-color="#f5d1a8"/>
      <stop offset="1" stop-color="#f7d4ab"/>
    </linearGradient>
    <linearGradient id="linear-gradient-18" x1="-43.69" y1="-81.85" x2="-47.16" y2="-67.14" gradientTransform="translate(130.17 155.34) rotate(1.37) scale(1.03 1) skewX(-.6)" gradientUnits="userSpaceOnUse">
      <stop offset="0" stop-color="#f0c499"/>
      <stop offset=".52" stop-color="#f4cfa5"/>
      <stop offset="1" stop-color="#f7d4ab"/>
    </linearGradient>
    <radialGradient id="radial-gradient" cx="124.18" cy="238.11" fx="124.18" fy="238.11" r="18.36" gradientTransform="translate(-55.36 -140.59) rotate(-1.74)" gradientUnits="userSpaceOnUse">
      <stop offset="0" stop-color="#f8c39c"/>
      <stop offset="1" stop-color="#f7d4ab"/>
    </radialGradient>
    <linearGradient id="linear-gradient-19" x1="336.44" y1="64.87" x2="332.78" y2="85.84" gradientTransform="translate(390.19 77.12) rotate(-169.86) scale(1 -1)" xlink:href="#linear-gradient-5"/>
    <linearGradient id="linear-gradient-20" x1="108.16" y1="222.56" x2="200.63" y2="224" gradientTransform="translate(-55.36 -140.59) rotate(-1.74)" gradientUnits="userSpaceOnUse">
      <stop offset="0" stop-color="#f0c499"/>
      <stop offset=".55" stop-color="#f3caa0"/>
      <stop offset="1" stop-color="#f7d4ab"/>
    </linearGradient>
    <linearGradient id="Gradient_128" data-name="Gradient 128" x1="139.58" y1="253.05" x2="140.31" y2="295.77" gradientTransform="translate(-55.36 -140.59) rotate(-1.74)" gradientUnits="userSpaceOnUse">
      <stop offset="0" stop-color="#d6ac88"/>
      <stop offset="1" stop-color="#a18166"/>
    </linearGradient>
    <linearGradient id="linear-gradient-21" x1="151.36" y1="255.74" x2="150.7" y2="263.97" gradientTransform="translate(-55.36 -140.59) rotate(-1.74)" xlink:href="#linear-gradient-16"/>
    <linearGradient id="linear-gradient-22" x1="143.66" y1="277.4" x2="143.09" y2="267.01" gradientTransform="translate(-55.36 -140.59) rotate(-1.74)" gradientUnits="userSpaceOnUse">
      <stop offset="0" stop-color="#f0c499"/>
      <stop offset=".52" stop-color="#f1c69b"/>
      <stop offset=".85" stop-color="#f4cea4"/>
      <stop offset="1" stop-color="#f7d4ab"/>
    </linearGradient>
    <linearGradient id="linear-gradient-23" x1="162.9" y1="276.19" x2="162.38" y2="266.59" xlink:href="#linear-gradient-22"/>
    <linearGradient id="Gradient_32" data-name="Gradient 32" x1="43.05" y1="-154.31" x2="17.78" y2="-9.18" gradientTransform="translate(40.27 166.57) rotate(3.37)" gradientUnits="userSpaceOnUse">
      <stop offset="0" stop-color="#724831"/>
      <stop offset=".22" stop-color="#67412c"/>
      <stop offset=".63" stop-color="#5a3926"/>
      <stop offset="1" stop-color="#563725"/>
    </linearGradient>
    <linearGradient id="Gradient_58" data-name="Gradient 58" x1="1.19" y1="-44.79" x2="89.55" y2="-183.04" gradientTransform="translate(40.27 166.57) rotate(3.37)" gradientUnits="userSpaceOnUse">
      <stop offset="0" stop-color="#2b1b13"/>
      <stop offset=".04" stop-color="#2e1d14"/>
      <stop offset=".38" stop-color="#442b1d"/>
      <stop offset=".71" stop-color="#513423"/>
      <stop offset="1" stop-color="#563725"/>
    </linearGradient>
    <linearGradient id="Gradient_27" data-name="Gradient 27" x1="160.27" y1="189.73" x2="171.09" y2="163.59" gradientTransform="translate(-55.36 -140.59) rotate(-1.74)" gradientUnits="userSpaceOnUse">
      <stop offset="0" stop-color="#724831"/>
      <stop offset=".42" stop-color="#7f553b"/>
      <stop offset="1" stop-color="#8e6346"/>
    </linearGradient>
    <linearGradient id="Gradient_27-2" data-name="Gradient 27" x1="151.61" y1="186.61" x2="162.91" y2="159.33" xlink:href="#Gradient_27"/>
    <linearGradient id="Gradient_27-3" data-name="Gradient 27" x1="138.15" y1="181" x2="149.39" y2="153.86" xlink:href="#Gradient_27"/>
    <linearGradient id="Gradient_27-4" data-name="Gradient 27" x1="123.42" y1="174.9" x2="134.66" y2="147.77" xlink:href="#Gradient_27"/>
    <linearGradient id="Gradient_27-5" data-name="Gradient 27" x1="115.29" y1="170.19" x2="125.8" y2="144.82" xlink:href="#Gradient_27"/>
    <linearGradient id="Gradient_27-6" data-name="Gradient 27" x1="108.59" y1="167.67" x2="121.21" y2="137.2" xlink:href="#Gradient_27"/>
    <linearGradient id="Gradient_27-7" data-name="Gradient 27" x1="102.35" y1="165.13" x2="114.36" y2="136.14" xlink:href="#Gradient_27"/>
    <linearGradient id="Gradient_27-8" data-name="Gradient 27" x1="91.6" y1="203.06" x2="108.34" y2="145.27" xlink:href="#Gradient_27"/>
    <linearGradient id="Gradient_27-9" data-name="Gradient 27" x1="97.19" y1="204.68" x2="113.92" y2="146.89" xlink:href="#Gradient_27"/>
    <linearGradient id="Gradient_27-10" data-name="Gradient 27" x1="87.31" y1="201.82" x2="104.05" y2="144.03" xlink:href="#Gradient_27"/>
    <linearGradient id="Gradient_27-11" data-name="Gradient 27" x1="161.46" y1="214.83" x2="175.65" y2="158.06" xlink:href="#Gradient_27"/>
    <linearGradient id="linear-gradient-24" x1="184.16" y1="293.45" x2="166.98" y2="289.26" gradientTransform="translate(-110 -196.05) rotate(-2)" gradientUnits="userSpaceOnUse">
      <stop offset="0" stop-color="#fbd6af"/>
      <stop offset="1" stop-color="#f7d4ab"/>
    </linearGradient>
    <linearGradient id="Gradient_58-2" data-name="Gradient 58" x1="-3143.43" y1="239.55" x2="-3122.64" y2="239.55" gradientTransform="translate(-3384.09 -67.77) rotate(178.33) scale(1.1 -1)" xlink:href="#Gradient_58"/>
    <linearGradient id="linear-gradient-25" x1="161.91" y1="216.98" x2="168.97" y2="228.32" gradientTransform="translate(-55.36 -140.59) rotate(-1.74)" xlink:href="#linear-gradient-18"/>
    <linearGradient id="Gradient_58-3" data-name="Gradient 58" x1="1802.61" y1="569.66" x2="1824.08" y2="569.66" gradientTransform="translate(-1277.58 -328.23) rotate(-7.01) scale(.74 .99)" xlink:href="#Gradient_58"/>
    <linearGradient id="linear-gradient-26" x1="-3468.35" y1="356.84" x2="-3490.34" y2="375.64" gradientTransform="translate(-3408.96 -106.46) rotate(177.05) scale(1 -1)" gradientUnits="userSpaceOnUse">
      <stop offset="0" stop-color="#f0c499"/>
      <stop offset=".51" stop-color="#e3b086"/>
      <stop offset="1" stop-color="#dba379"/>
    </linearGradient>
    <linearGradient id="linear-gradient-27" x1="147.14" y1="228.74" x2="125.95" y2="223.62" gradientTransform="translate(-55.36 -140.59) rotate(-1.74)" gradientUnits="userSpaceOnUse">
      <stop offset="0" stop-color="#ece7e7"/>
      <stop offset=".23" stop-color="#f5f3f3"/>
      <stop offset=".53" stop-color="#fcfcfc"/>
      <stop offset="1" stop-color="#fff"/>
    </linearGradient>
    <linearGradient id="Gradient_96" data-name="Gradient 96" x1="150.19" y1="240.92" x2="130.82" y2="223.34" gradientTransform="translate(-55.36 -140.59) rotate(-1.74)" gradientUnits="userSpaceOnUse">
      <stop offset="0" stop-color="#a8c3dd"/>
      <stop offset="1" stop-color="#7a90a5"/>
    </linearGradient>
    <linearGradient id="Gradient_96-2" data-name="Gradient 96" x1="82.38" y1="-82.03" x2="81.72" y2="-88.07" gradientTransform="translate(2.03 172.35) rotate(1.67)" xlink:href="#Gradient_96"/>
    <radialGradient id="Gradient_25" data-name="Gradient 25" cx="-4808.68" cy="357.8" fx="-4808.68" fy="357.8" r="3.29" gradientTransform="translate(-4737.09 -20.36) rotate(176.95) scale(1 -1) skewX(.1)" gradientUnits="userSpaceOnUse">
      <stop offset="0" stop-color="#666"/>
      <stop offset="1" stop-color="#1d1d1d"/>
    </radialGradient>
    <linearGradient id="linear-gradient-28" x1="-3558.19" y1="359.27" x2="-3541.82" y2="358.49" gradientTransform="translate(-3478.55 -98.06) rotate(177.07) scale(1 -1)" gradientUnits="userSpaceOnUse">
      <stop offset="0" stop-color="#2b1b13"/>
      <stop offset=".04" stop-color="#2e1d14"/>
      <stop offset=".38" stop-color="#442b1d"/>
      <stop offset=".71" stop-color="#513423"/>
      <stop offset="1" stop-color="#563725"/>
    </linearGradient>
    <linearGradient id="Gradient_126" data-name="Gradient 126" x1="153.73" y1="242" x2="152.88" y2="253.62" gradientTransform="translate(-55.36 -140.59) rotate(-1.74)" gradientUnits="userSpaceOnUse">
      <stop offset="0" stop-color="#a18166"/>
      <stop offset="1" stop-color="#d6ac88"/>
    </linearGradient>
    <radialGradient id="radial-gradient-2" cx="172.21" cy="235.48" fx="172.21" fy="235.48" r="12.68" xlink:href="#radial-gradient"/>
    <linearGradient id="linear-gradient-29" x1="151.42" y1="224.08" x2="152.27" y2="240.82" gradientTransform="translate(-55.36 -140.59) rotate(-1.74)" gradientUnits="userSpaceOnUse">
      <stop offset="0" stop-color="#f7d4ab"/>
      <stop offset=".52" stop-color="#f5d1a8"/>
      <stop offset=".85" stop-color="#f2c99f"/>
      <stop offset="1" stop-color="#f0c499"/>
    </linearGradient>
    <linearGradient id="linear-gradient-30" x1="2418.93" y1="373.5" x2="2422.78" y2="360.92" gradientTransform="translate(2321.51 -196.26) rotate(-177.97) scale(.91 -1)" xlink:href="#linear-gradient-16"/>
    <linearGradient id="linear-gradient-31" x1="832.72" y1="279.91" x2="814.43" y2="295.54" gradientTransform="translate(-589.8 -202.44) rotate(-.54) scale(.86 1) skewX(-.02)" xlink:href="#linear-gradient-26"/>
    <linearGradient id="linear-gradient-32" x1="176.97" y1="227.68" x2="160.98" y2="223.82" xlink:href="#linear-gradient-27"/>
    <linearGradient id="Gradient_96-3" data-name="Gradient 96" x1="181" y1="238.86" x2="163.39" y2="222.87" xlink:href="#Gradient_96"/>
    <linearGradient id="Gradient_96-4" data-name="Gradient 96" x1="114.57" y1="-86.65" x2="113.95" y2="-92.39" gradientTransform="translate(2.03 172.35) rotate(1.67)" xlink:href="#Gradient_96"/>
    <radialGradient id="Gradient_25-2" data-name="Gradient 25" cx="-979.46" cy="293.61" fx="-979.46" fy="293.61" r="2.99" gradientTransform="translate(1130.75 -229.84) rotate(-.44) scale(1.04) skewX(.07)" xlink:href="#Gradient_25"/>
    <linearGradient id="linear-gradient-33" x1="148.25" y1="281.09" x2="161.11" y2="280.48" gradientTransform="translate(-39.75 -201.88) rotate(-.54)" xlink:href="#linear-gradient-28"/>
    <linearGradient id="linear-gradient-34" x1="176.48" y1="230.93" x2="170.83" y2="232.88" gradientTransform="translate(-55.36 -140.59) rotate(-1.74)" xlink:href="#linear-gradient-24"/>
    <linearGradient id="Gradient_128-2" data-name="Gradient 128" x1="154.55" y1="287.93" x2="154.55" y2="281.64" xlink:href="#Gradient_128"/>
    <linearGradient id="Gradient_128-3" data-name="Gradient 128" x1="142.23" y1="305.65" x2="142.23" y2="304.05" xlink:href="#Gradient_128"/>
    <linearGradient id="Gradient_128-4" data-name="Gradient 128" x1="168.93" y1="262.98" x2="168.84" y2="252.21" xlink:href="#Gradient_128"/>
    <linearGradient id="Gradient_128-5" data-name="Gradient 128" x1="133.75" y1="262.06" x2="133.68" y2="252.62" xlink:href="#Gradient_128"/>
    <linearGradient id="linear-gradient-35" x1="243.26" y1="629.48" x2="243.35" y2="642.24" gradientTransform="translate(-183.16 -514.57) rotate(-3.95)" xlink:href="#linear-gradient-29"/>
    <linearGradient id="linear-gradient-36" x1="164.8" y1="255.21" x2="170.55" y2="255.21" gradientTransform="translate(-55.36 -140.59) rotate(-1.74)" xlink:href="#linear-gradient-26"/>
    <linearGradient id="linear-gradient-37" x1="132.01" y1="256.16" x2="138.63" y2="256.16" gradientTransform="translate(-55.36 -140.59) rotate(-1.74)" xlink:href="#linear-gradient-26"/>
    <linearGradient id="linear-gradient-38" x1="487.3" y1="315.97" x2="487.86" y2="329.03" gradientTransform="translate(-359.09 -189.35) rotate(-2.81) scale(.92 1)" gradientUnits="userSpaceOnUse">
      <stop offset="0" stop-color="#e8d9d7"/>
      <stop offset=".4" stop-color="#efe5e3"/>
      <stop offset="1" stop-color="#fff"/>
    </linearGradient>
    <linearGradient id="linear-gradient-39" x1="244.83" y1="647.54" x2="240.46" y2="632.02" gradientTransform="translate(-183.16 -514.57) rotate(-3.95)" xlink:href="#linear-gradient-5"/>
    <linearGradient id="linear-gradient-40" x1="242.91" y1="657.55" x2="242.73" y2="645.9" gradientTransform="translate(-183.16 -514.57) rotate(-3.95)" xlink:href="#linear-gradient-22"/>
    <linearGradient id="linear-gradient-41" x1="153.43" y1="265.35" x2="153.19" y2="268.69" gradientTransform="translate(-55.36 -140.59) rotate(-1.74)" xlink:href="#linear-gradient-26"/>
    <linearGradient id="linear-gradient-42" x1="33.9" y1="112.06" x2="-9.49" y2="260.46" xlink:href="#linear-gradient-6"/>
  </defs>
  <g id="Layer_1-2" data-name="Layer 1">
    <g style="clip-path: url(#clippath);">
      <g>
        <path d="M200.72,333.89c-2.27-25.02-5.55-36.56-12-58.48-5.39-19.43-8.41-38.02-13.05-57.61,0-.01,0-.02-.01-.03-.02-.12-.14-.65-.34-1.54v-.02c-1.64-7.8-3.74-29.1-12.83-38.54,0,0-12.82-4.05-19.24-7.59.15,25.99,1.54,52.02,2.23,79.43,1.11,23.23.04,46.49,4.92,67.28v.02c2.55,9.88,15.22,18.07,18.91,28.24,13.26-3.08,20.07-7.63,32.7.39-.43-3.99-.87-7.88-1.28-11.54Z" style="fill: url(#linear-gradient);"/>
        <path d="M61.24,132.74l14.71-1.77-8.52,20.53s-9.75-10.48-9.78-13.33c-.03-2.85,3.6-5.42,3.6-5.42Z" style="fill: url(#linear-gradient-2);"/>
        <path d="M129.45,164.37s-.51,10.24-3.16,20.81c-1.82,7.24-5.31,13.29-11.95,13.08-2.24-.07-4.92-1.2-7.89-3.08-.57-.35-1.14-.74-1.72-1.16-6.11-4.32-16.07-9.98-22.82-17.58-1.52-3.55-2.75-7.13-3.75-10.75-.12-.39-.23-.8-.33-1.2-.04-.1-.07-.22-.09-.35-.16-.54-.29-1.09-.42-1.65-.12-.46-.23-.94-.33-1.42-.12-.46-.22-.94-.3-1.4-.13-.54-.23-1.09-.33-1.64-.13-.65-.26-1.32-.38-1.97-.04-.25-.09-.49-.13-.72-.19-1.12-.36-2.24-.51-3.36-.29-1.87-.52-3.75-.71-5.63-.16-1.53-.29-3.07-.42-4.61-.06-.8-.1-1.58-.16-2.38-.19-2.66-.32-5.33-.42-8.01-.04-.71-.07-1.43-.09-2.14-.1-2.74-.17-5.49-.25-8.25-.03-1.16-.06-2.32-.1-3.48-.03-.98-.06-1.97-.09-2.95-.03-1.01-.06-2.03-.1-3.06-.06-1.49-.12-2.97-.19-4.46l37.55,26.75h.01l1.62,1.16c1.13,4.33,1.19,10.75,1.52,14.45.12,1.27.26,2.22.49,2.66-.14-.28,20.38,13.89,15.44,12.34Z" style="fill: url(#linear-gradient-3);"/>
        <path d="M81.91,176.43c-9.72-10.95-14.41-21.48-18.91-27.6-1.9-2.58-2.98-4.13-2.98-4.13,1.07-1.26,1.27-7.97,1.23-14.31,0-.59-.06-1.38-.15-2.33h0c-.26-2.91-.87-7.26-1.56-11.86-1.52-9.98-3.49-21.11-3.49-21.11l16.77,11.92c.23,4.66.35,9.31.48,13.95.16,6.18.33,12.32.75,18.41.83,12.66,2.72,25.08,7.86,37.07Z" style="fill: url(#linear-gradient-4);"/>
        <path d="M126.29,185.18l-19.84,9.99-.47.23-4.16.05-41.73-45.18c1-4.03-.09-5.57-.09-5.57.53-1.73.9-3.73,1.22-10,1.54,2.46,4.26,8.12,5.57,9.27,15.82,13.85,21.39,16.04,22.19,16.4l17,9.74s4.89,10.89,5.05,14.6c9.17-16.84,1.93-27.16,1.93-27.16l-.62-17.44,1.67,11.91c5.96,8.2,15.43,12.34,15.43,12.34,0,0-.51,10.24-3.16,20.81Z" style="fill: url(#linear-gradient-5);"/>
        <path d="M164.45,362.07c-.54,10.02-2.2,19.52-2.2,19.52-4.07,2.13-7.91,4.07-12.6,5.75-31.7,11.46-69.64,12.5-118.2-4.27.97-7.33-15.47-31.86-16.03-33.08-1.01-2.14,5.03-36.64,6.69-47.17.26-1.67.42-2.74.42-2.98,0-3.33-6.69-24.91-13.16-49.06t-.01-.01C.73,218.59.94,177.67.94,177.67c2.84-1.42,52.29-30.73,52.29-30.73,1.04,3.27,35.06,17.16,35.06,17.16l23.88,32.41s2.87-28.1,3.1-31.8c1.93.93,8.91-4.79,8.91-4.79,0,0,34.92,17.04,36.34,18.8s2.07,52.67,1.39,64.53c-.19,3.33.68,16.65,1.56,34.52.68,13.83,1.36,30.38,1.56,47.14.14,12.63.03,25.37-.59,37.16Z" style="fill: #192b51;"/>
        <path d="M162.49,177.66s-2.14,50.96-6.82,56.89c-4.66,5.94-25.69,5.24-33.71,5.24-3.2,0-64.55,3.85-74.68.59-3.52-1.13-12.2-17.92-15.73-39.54-3.56-21.82-27.6-26.52-28.02-27.25h0s.07-.06.07-.06l17.73-9.5,31.92-17.1,56.05,50.92,11.4-44.73,41.81,24.55Z" style="fill: url(#linear-gradient-6);"/>
        <path d="M113.52,149.36c-6.14.55-18.16,1.54-19.58.94-1.51-.62-12.9-6.69-19.9-10.95-1.91-1.16-3.5-2.19-4.46-2.94-3.21-2.48-6.73-6.36-8.49-8.36h0c-.26-2.91-.87-7.26-1.56-11.86l13.76,4.75,37.07,12.8h.01l1.62,1.16c1.13,4.33,1.19,10.75,1.52,14.45Z" style="fill: url(#linear-gradient-7);"/>
        <g>
          <path d="M95.38,166.16s6.12,4.47,7.24,5.25c1.08.75,7.17,13.14,7.17,13.14l1.63,32.86-22.39-43.84,6.35-7.41Z" style="fill: url(#linear-gradient-8);"/>
          <path d="M53.88,154.08c.38,3.32,24.72,31.78,25.25,33.02,0,0,6.54-7.08,10.97-11.51l5.29-9.43s-41.88-15.39-41.5-12.07Z" style="fill: url(#linear-gradient-9);"/>
          <path d="M59.55,134.25s-7.11,5.06,18.15,23.36c5.55,4.02,17.68,8.54,17.68,8.54,0,0-13.14,13.78-15.63,16.84-17.93-14.05-29.6-27.98-28.87-33.46.35-2.61,3.17-10.17,8.67-15.28Z" style="fill: url(#linear-gradient-10);"/>
          <path d="M115.28,164.71s-1.59,2.28-3.84,4.81c-.95,1.07-2.21,18.08-1.6,21.88.08.51.16,1.26.23,2.16,3.56-1.6,6.21-.91,9.88-2.16.08-5.08-.06-11.68,0-16.43,0-.3-.09-4.35-.09-4.35.04-3-.1-2.83-.13-4.78-1.31-.04-3.95.04-4.45-1.14Z" style="fill: url(#linear-gradient-11);"/>
          <path d="M115.28,164.71l4.63,7.95s9.02,6.46,10.31,7.36c0,0-1.91-6.74-3.61-13.54l-11.32-1.77Z" style="fill: url(#linear-gradient-12);"/>
          <path d="M115.28,164.71s12.28,11.93,14.93,14.01c-2.62-9.9-4.73-20.55-7.55-24.63-3.23-4.68-9.03-12.04-11.16-13.97l1.75,11.91c4.35,11.2,2.02,12.68,2.02,12.68Z" style="fill: url(#linear-gradient-13);"/>
          <path d="M115.28,164.71s-2.39,3.17-4.32,4.62c-1.93,1.44-1.12,18.88-1.12,18.88,0,0,1.19-15.44,1.76-16.83.56-1.39,3.68-6.67,3.68-6.67Z" style="fill: url(#linear-gradient-14);"/>
          <path d="M119.34,168.62l10.88,10.09s-1.91-7.84-2.94-11.65c0,0,.84,6.96.41,7s-8.35-5.44-8.35-5.44Z" style="fill: url(#linear-gradient-15);"/>
        </g>
        <g>
          <path d="M127.19,88.64c0,1.2-.19,3.74-.39,6.26-.21,2.53-.43,5.03-.41,6.14.01.39,0,.77.02,1.14.13,9.83-1.93,19.67-1.93,19.67l-9.09,20.56-19.75,1.27-31.06-19.96-6.81-12.04-6.12-58.7s1.86-19.01,4.27-22.53c2.41-3.52,53.26-4.24,55.43-3.53,2.17.73,13.38,23.02,13.97,25.39.2.81.18,7.96.75,18.07,0,.2-1.68,9.8-.51,12.27,0,0,1.07,4.56,1.63,5.96Z" style="fill: url(#linear-gradient-16);"/>
          <path d="M57.59,100.81s.88,6-2.08,7.01c-2.96,1.01-8.85-.33-11.67-8.42-.25-.7-6.06-7.76-3.96-16.42.85-3.5,3.7-4.37,6.79-4.58,3.09-.21,8.82,1.57,9.42,11,.01.23,1.51,11.4,1.51,11.4Z" style="fill: url(#linear-gradient-17);"/>
          <path d="M91.82,69.9c-.45-.49,6.5,5.66,6.33,7.63-.06.72,1.12,10.03,1.12,10.03,0,0-23.22,1.52-26.06.87-2.85-.65-3.9-5.9-3.9-5.9l3.09-8.11s5.62-2.79,6.27-2.44c.65.36,13.16-2.08,13.16-2.08Z" style="fill: url(#linear-gradient-18);"/>
          <path d="M89.32,82.81c-1.93-.62-16.59-3.36-20.88-1.97-2.45.79-7.88,4.52-7.28,9.68.28,2.48,2.71,8.29,3.33,9.83,3.07,7.56,18.09,7.4,24.17,5.04,10.39-4.01,10.46-19.45.66-22.58Z" style="fill: url(#radial-gradient);"/>
          <path d="M46.52,81.54c1.93-.1,3.81,1.49,4.41,3.97,1.57,6.47-3.13,7.47-.56,11.71.77,1.28,4.14,3.4.08,3.57-7.3.3-7.59-9.53-.83-12.97-.94-3.97-4.21-4.79-6.99-2.65.23-1.71,2.84-3.57,3.88-3.62Z" style="fill: url(#linear-gradient-19);"/>
          <path d="M66.11,120.72l-4.61-35.19s7.24-21.06,7.68-21.19c.43-.14-6.04-16.84-5.75-17.99.29-1.15,4.89-4.16,4.89-4.16,0,0,28.96,1.77,30.29,1.73,1.32-.04,14.95-2.86,16.13-2.32,1.92.89,10.16,18.46,10.16,18.46l.24-8.9-7.83-15.15-56.75.29-2.55,11.26,2.85,16.59-4.98,11.78,4.48,26.39,5.75,18.4Z" style="fill: url(#linear-gradient-20);"/>
          <path d="M126.42,102.18s.23,7.66-1.39,19.07c-.97,6.74-2.77,10.3-5.25,15.53-1.21,2.53-2.44,4.62-3.66,5.85-.74.76-15.91,2.22-20.47,1.06-1.59-.42-13.07-5.89-22.43-11.36l-2.11-1.25-1.23-.75-.18-.11h-.03c-4.39-2.75-9.26-6.64-10.13-8.33-1.82-3.52-2.71-12.9-2.7-18.26,0-6.46-.59-19.38-.59-19.38l1.92-2.52,3.4,18.46s2.27,8.87,4.25,10.97c1.98,2.1,16.39,10.05,16.39,10.05l.4-12.59s8.46-3.43,13.47-5.31l.66-.25c1.55-.58,2.65-.96,2.91-.99.51-.04,3.31,1.74,6.07,2.23,3.45.6,5.79-2.41,6.02-2.72.01,0,.01-.01.01-.01h.01s2.9,1.36,2.9,1.36h.01s8.98,4.25,8.98,4.25l.16,7.65s1.82-4.84,2.6-12.64Z" style="fill: url(#Gradient_128);"/>
          <path d="M121.67,108.66l-.24,10.56c-.05.47-.76,2.25-1.49,3.74-1.31,2.6-3.1,5.41-3.7,5.57-1.28.33-3.51-1.61-5.02-3.5-.92-1.16-1.24-1.99-1.45-2.04-.54-.11-5.08.28-5.08.28,0,0-.59.59-1.27,1.7-1.3,2.15-3.6,4.97-5.67,5.05-1.23.04-7.12-2.94-9.33-4.69-.49-.39-.8-.71-.84-.93-.2-1.21-2.04-13.72-2.04-13.72,0,0,17.39-2.86,20.17-3.25,2.78-.39,15.96,1.22,15.96,1.22Z" style="fill: url(#linear-gradient-21);"/>
          <path d="M103.93,124.28c-1.3,2.15-4.25,6.06-6.32,6.13-1.23.04-7.45-3.41-9.51-5.37l9.52,2.53,6.31-3.29Z" style="fill: url(#linear-gradient-22);"/>
          <path d="M120.03,122.78c-1.31,2.6-3.34,5.87-3.94,6.03-1.28.33-4.08-2.56-5.58-4.46l5.49,1.13,4.03-2.7Z" style="fill: url(#linear-gradient-23);"/>
          <path d="M56.53,92.85s2.79-18.46,2.86-20.45,5.37-9.75,4.73-11.38c-.64-1.63-5.53-15.85-2.81-21.26,2.72-5.41,37.74,2.01,39.52.96,1.78-1.05,15.99-3.71,16.69-3.18.71.53,6.2,15.86,6.67,16.83s1.9,15.24,1.9,15.24c0,0,4.1-15.49,3.53-17.16s-5.31-20.65-5.23-21.89c.07-1.24-.44-17.04-18.34-18.58-17.9-1.54-42.84-1.23-46.69,1.73-3.86,2.96-13.51,7-14.3,17.56-.32,4.33.09,9.07.09,9.07,0,0-6.83,5.51-8.14,11.08-1.31,5.57.99,16.49,1.18,17.49,0,0-.8,11,1.96,13.18,0,0,2.58-4.72,8.48-2.93,5.66,1.71,7.9,13.7,7.9,13.7Z" style="fill: url(#Gradient_32);"/>
          <path d="M56.53,92.85s3.27-19.09,3.8-20.35c1.24-2.93,6-8.52,6-8.52.03-2.48-5.51-17.88-4.92-19.18.33-.73,5.48-5.25,7-4.96,5.17,1,31.4,1.3,31.4,1.3,0,0,16.07-3.65,17.42-2.39,1.36,1.26,7.66,21.3,7.66,21.3l1.2,9.57s1.01-13.16.71-14.28c-.3-1.12-7.63-20.2-8.11-20.47s-18.91,2.71-20.36,2.5c-.76-.11-21.9-1.7-31.04-1.5-3.28.07-10.03,6.61-10.21,7.46-.49,2.26,3.12,17.29,3.17,17.78.04.49-3.18,10.14-3.58,10.73s-.13,21-.13,21Z" style="fill: url(#Gradient_58);"/>
          <path d="M112.45,33.81c-8.79-7.96,7.38-22.87,12.93-9.43-1.86-.73-4.3-1.11-7.55.1-3.84,1.43-4.68,4.64-5.39,9.33Z" style="fill: url(#Gradient_27);"/>
          <path d="M98.45,33.61c-11.69-9.3,11.1-32.85,24-12.96-1.69-2.6-10.5-3.25-15.15-1.14-4.63,2.82-10.23,7.84-8.85,14.09Z" style="fill: url(#Gradient_27-2);"/>
          <path d="M86.58,31.88c-15.63-12.67,5.33-34.56,23.2-17.11-12.94-3.45-27.7-.59-23.2,17.11Z" style="fill: url(#Gradient_27-3);"/>
          <path d="M75.61,31.6c-14.3-6.74-1.39-27.81,13.04-21.22-8.94,2.58-16.84,10.79-13.04,21.22Z" style="fill: url(#Gradient_27-4);"/>
          <path d="M70.08,31.99c-18.57,1.84-8.94-31.15,7.13-20.47-10.27-.46-14.79,12.62-7.13,20.47Z" style="fill: url(#Gradient_27-5);"/>
          <path d="M60.69,33.43c-11.42.83-10.76-22.7,5.21-21.5-7.15,3.94-8.47,13.79-5.21,21.5Z" style="fill: url(#Gradient_27-6);"/>
          <path d="M50.95,36.59c-10.99-2.19-4.86-19.96,4.95-20.8-2.15,6.7-6.81,12.24-4.95,20.8Z" style="fill: url(#Gradient_27-7);"/>
          <path d="M47.84,43c-4.59,9.12-3.84,14.67-2.49,22.06-8.07-3.35-7.53-20.4,2.49-22.06Z" style="fill: url(#Gradient_27-8);"/>
          <path d="M52.24,44.78c-1.35,4.87-2.16,13.07-1.21,20.11-7.52-3.25-6.76-16.77,1.21-20.11Z" style="fill: url(#Gradient_27-9);"/>
          <path d="M46.89,39.89c-5.09,6.12-9.27,16.76-8.7,29.02-5.76-10.09-3.43-27.39,8.7-29.02Z" style="fill: url(#Gradient_27-10);"/>
          <path d="M119.07,35.1c-5.49-3.59,3.11-10.43,5.32-4.54-3.24-.46-4.38,1.38-5.32,4.54Z" style="fill: url(#Gradient_27-11);"/>
          <path d="M76.65,87.45c-2.57-.59-3.54-1.48-4.69-.71-1.41.94,1.35,3.08,1.98,3.5.63.43,5.71,2.55,9.02.4,3-1.95-3.8-2.61-6.32-3.19Z" style="fill: url(#linear-gradient-24);"/>
          <path d="M74.17,70c1.91-2.9,9.18-2.66,12.74-2.7,2.01-.02,4.85-.05,6.7.51.25,1.01.3,1.74-.02,2.95.8-.66.95-1.83.75-2.65.05.02,1.44,1.78.27,3.88-.56,1-3.77.27-11.16.33-2.01.01-5.44-.14-8.18.76-1,.33-3.01,1.36-3.01,1.36-.23-.32,1.01-3.06,1.92-4.44Z" style="fill: url(#Gradient_58-2);"/>
          <path d="M127.77,86.17c-5.26.87-18.47,0-18.47,0,0,0-.6-7.63-.62-8.35-.02-.77,2.84-7.37,2.84-7.37,0,0,11.15-1.97,11.64-2.39.23-.2,1.58,1.02,2.91,2.35-.12,1.74.32,8.03.32,8.74,0,0,.45,3.75,1.38,7.02Z" style="fill: url(#linear-gradient-25);"/>
          <path d="M124.76,67.15c-1.31-1.97-5.6-1.54-8.28-1.23-1.25.14-4.42.42-5.7.99-.02,1.02.05,1.74.44,2.9-.64-.56-.91-1.7-.88-2.52-.03.02-.72,1.9.38,3.84.52.92,2.65.12,7.65-.63,1.36-.2,4.28-.53,5.66-.04.72.25,2.27,1.17,2.27,1.17.11-.34-.06-2.27-1.53-4.48Z" style="fill: url(#Gradient_58-3);"/>
          <g>
            <path d="M95.26,83.63c.79-1.02-.13-3.13-.63-4.44-1.57-4.11-4.75-5.4-11.24-5.34-2.13.02-5.8.58-8,2.75-1.69,1.67-2.64,3.3-2.41,4.74.12.73,3.65,4.75,10.74,4.75,4.63,0,9.89-.34,11.53-2.46Z" style="fill: url(#linear-gradient-26);"/>
            <path d="M93.26,81.94c-.2.43-1.06,1.28-2.29,1.94-.44.25-.94.46-1.47.62-.32.1-.65.19-.99.25-.52.07-1.08.13-1.69.15-1.46.04-3.19-.12-5.45-.5-.06-.01-.1-.01-.16-.02h-.01c-.22-.05-.45-.09-.68-.12-.22-.05-.42-.09-.63-.11-.29-.06-.57-.14-.83-.25-.74-.35-1.39-.84-1.91-1.45-.33-.35-.6-.79-.79-1.27,0,0,0-.01.01-.03.29-.37,3.53-4.5,10.25-4.43.36,0,.74.02,1.13.05,1.19.09,2.24.82,3.11,1.67,1.38,1.41,2.27,3.19,2.39,3.45h0s.02.04.02.04Z" style="fill: url(#linear-gradient-27);"/>
            <path d="M76.36,81.16s-.02.03-.02.03c.2.47.47.9.8,1.27.08-.05.17-.11.28-.17.67-.39,1.87-.93,4.16-1.19,9.45-1.08,11.55.71,11.66.8,0,0,0,0,0,0-.34-1.51-1.23-2.62-2.39-3.45-1.22-.86-2.74-1.4-4.24-1.74-1.24-.27-2.47-.4-3.51-.45-3.36-.16-6.46,4.46-6.74,4.89Z" style="fill: #ddd;"/>
            <path d="M91.36,81.84c.04.82-.13,1.5-.39,2.04-.44.25-.94.46-1.47.62-.32.1-.65.19-.99.25-.52.07-1.08.13-1.69.15-1.46.04-3.19-.12-5.45-.5-.06-.01-.1-.01-.16-.02h-.01c-.33-.48-.56-1.33-.61-1.6-.57-3.1,1.95-4.86,4.91-5.19,2.96-.34,5.7,1.01,5.87,4.25Z" style="fill: url(#Gradient_96);"/>
            <path d="M91.22,80.88s-4.23-.8-10.71.78c0,0,.02-3.37,3.93-4.21,3.67-.79,6.46,1.52,6.79,3.43Z" style="fill: url(#Gradient_96-2);"/>
            <path d="M86.13,78.02c1.81-.15,3.54,1.23,3.68,3.07.14,1.84-1.34,3.43-3.16,3.59-1.82.15-3.41-1.22-3.55-3.06-.14-1.84,1.21-3.45,3.03-3.6Z" style="fill: url(#Gradient_25);"/>
            <path d="M86.25,78.01c2.14-.18,3.19,1.36,3.5,2.66,0,0-3.54-.25-6.65.51,0,0,.08-2.91,3.15-3.18Z"/>
            <path d="M82.71,83.55c-.37-.66-.12-1.53.57-1.94.69-.41,1.55-.21,1.92.45.38.66.12,1.53-.56,1.94-.68.41-1.55.21-1.92-.45Z" style="fill: #fff;"/>
            <path d="M86.04,81.74c-.3-.52-.1-1.2.44-1.52.54-.32,1.22-.16,1.52.36.3.52.1,1.2-.44,1.52-.54.32-1.23.16-1.52-.36Z" style="fill: #fff;"/>
            <path d="M93.24,81.93s.24-2.55-2.84-4.53c-3.23-2.08-8.59-1.86-11.64.19-1.83,1.23-2.43,3.6-2.43,3.6,0,0,3.86-2.94,8.1-2.87,2.35.04,3.25.22,4.31.44,2.77.58,4.5,3.17,4.5,3.17Z" style="fill: url(#linear-gradient-28);"/>
          </g>
          <path d="M114.67,102.94s-8.76,4.37-9.14,4.47c-.37.1-9.46-4.1-9.46-4.1l.66-.25c1.55-.58,2.65-.96,2.91-.99.51-.04,3.31,1.74,6.07,2.23,3.45.6,5.79-2.41,6.02-2.72,0,0,.01,0,.03,0l2.9,1.35h.01Z" style="fill: url(#Gradient_126);"/>
          <path d="M128.12,87.27c.02.06,0,.12,0,.17-.68,9.44-1.09,11.04-1.71,14.74l-4.74,3.37-9.16-9.56-3.23-9.83,17.09-7.03c.17.26.62,1.81,1.02,3.53.4,1.7.75,3.57.72,4.6Z" style="fill: url(#radial-gradient-2);"/>
          <g>
            <path d="M103.53,102.58s-2.86-2.89-4.72-1.1c-1.1,1.05-2.39.74-2.39.74l9.3,2.01-2.18-1.66Z" style="fill: #dca57b;"/>
            <path d="M109.75,87.82s2.77,10.38,2.07,12.14c-.49,1.23-.11.34-.11.34,0,0-1.02,2-3.77,2.42-1.03.15-3.12.21-4.34-.58-1.03-.67-2.36-1.09-3.54-1.54-1.31-.5-1.62-3.76-1.63-4.74-.04-3.81.2-5.53.21-7.26,0,0-3.82,8.37-3.84,11.57-.03,4.15,2.33,3,3.31,2.38,1.54-.98,2.63-.6,3.76.04,1.47.83,1.37,2.9,5.65,2.56,3-.23,4.56-2.56,4.56-2.56,0,0,2.29-.04,2.21-2.6-.11-3.67-4.54-12.17-4.54-12.17Z" style="fill: url(#linear-gradient-29);"/>
            <path d="M110.7,97.81c.69,4.8-7.24,5.07-7.46.1-.17-3.78.2-8.11,3.53-8.23,2.72-.1,3.63,5.99,3.93,8.14Z" style="fill: url(#linear-gradient-30);"/>
          </g>
          <g>
            <path d="M110.81,82.34c-.6-.94-.51-2.95-.22-4.24.91-4.03,3.09-5.43,7.66-5.72,1.5-.1,4.11.25,5.76,2.21,1.27,1.51,2.02,3.03,1.92,4.42-.05.71-1.14,4.54-7.33,5.13-3.25.31-6.52.15-7.78-1.8Z" style="fill: url(#linear-gradient-31);"/>
            <path d="M124.64,79.07c-.07.41-.22.8-.43,1.14-.26.49-.65.91-1.11,1.28-2.25,1.81-6.41,2.2-9.23,1.09-1.07-.43-1.96-1.05-2.46-1.91h.01s0-.03,0-.03c.24-1.08.61-1.96,1.08-2.67,0-.03.03-.04.04-.07.87-1.37,2.11-2.12,3.45-2.41t.03-.01c3.18-.69,6.99,1.14,8.39,3.23.12.19.2.31.23.37Z" style="fill: url(#linear-gradient-32);"/>
            <path d="M124.64,79.07c-.07.41-.22.8-.43,1.14-.03-.01-.06-.04-.09-.05-.55-.33-1.55-.79-3.39-.91-7.64-.53-9.22,1.3-9.3,1.4.14-1.06.52-1.95,1.08-2.67,0-.03.03-.04.04-.07.18-.24.39-.47.62-.69.8-.79,1.8-1.33,2.83-1.73t.03-.01c.14-.05.3-.11.44-.15.97-.34,1.95-.52,2.79-.63,2.31-.29,4.45,2.88,5.15,4.01.12.19.2.31.23.37Z" style="fill: #ddd;"/>
            <path d="M123.19,80.89c-.01.13-.05.36-.08.6-2.25,1.81-6.41,2.2-9.23,1.09-.28-.53-.46-1.2-.47-2,0-.36.02-.68.07-.99,0-.03,0-.06.01-.08.09-.43.21-.84.4-1.19,0-.01.01-.04.03-.06.26-.58.66-1.05,1.12-1.4.01,0,.03-.01.04-.03.91-.68,2.11-.98,3.39-.9,2.31.15,4.39,1.38,4.71,3.75,0,.01.02.04,0,.08.05.33.05.72,0,1.13Z" style="fill: url(#Gradient_96-3);"/>
            <path d="M113.48,79.63s3.78-1.05,9.71.06c0,0-.21-3.13-3.78-3.7-4.14-.66-5.62,1.59-5.94,3.65Z" style="fill: url(#Gradient_96-4);"/>
            <path d="M118.64,76.59c-1.71-.04-3.25,1.35-3.28,3.07-.03,1.72,1.46,3.12,3.17,3.17,1.72.04,3.13-1.33,3.16-3.05.03-1.72-1.33-3.15-3.05-3.19Z" style="fill: url(#Gradient_25-2);"/>
            <path d="M118.53,76.59c-2.02-.05-2.92,1.45-3.14,2.68,0,0,3.31-.43,6.28.1,0,0-.24-2.71-3.14-2.78Z"/>
            <path d="M117.84,81.28c.31-.63.03-1.43-.64-1.78-.67-.34-1.46-.11-1.78.53-.32.64-.03,1.43.64,1.78.67.35,1.47.11,1.78-.53Z" style="fill: #fff;"/>
            <path d="M120.53,79.79c.25-.5.03-1.13-.5-1.4-.53-.27-1.16-.08-1.41.42-.25.5-.03,1.13.5,1.4.53.27,1.16.08,1.41-.42Z" style="fill: #fff;"/>
            <path d="M111.43,80.65s-.33-2.43,2.03-4.5c2.48-2.16,7.08-2.06,9.63-.26,1.53,1.09,1.55,3.17,1.55,3.17,0,0-1.54-2.37-5.15-2.34-1.88.02-3.78.37-4.62.64-2.19.71-3.44,3.28-3.44,3.28Z" style="fill: url(#linear-gradient-33);"/>
          </g>
          <path d="M128.12,87.27c-1.72.24-4.3.06-5.3-.52-2.2-1.21,2.51-3.13,4.58-4.08.4,1.7.75,3.57.72,4.6Z" style="fill: url(#linear-gradient-34);"/>
          <path d="M101.57,127.55s2.17-3.85,3.22-4.46c1.33-.77,4.23-.95,5.08-.28.84.66,3.38,4.48,3.38,4.48,0,0-3.97-3.43-4.3-3.77-.33-.34-2.98-.24-3.6.28s-3.78,3.75-3.78,3.75Z" style="fill: url(#Gradient_128-2);"/>
          <path d="M120.76,134.39l-.98,2.39c-1.21,2.53-2.44,4.62-3.66,5.85-.74.76-15.91,2.22-20.47,1.06-1.59-.42-13.07-5.89-22.43-11.36l-2.11-1.25-1.23-.75-.18-.11s23.32,10.87,29.14,11.1,13.35-.15,15.88-.93c2.53-.78,6.03-5.99,6.03-5.99Z" style="fill: url(#Gradient_128-3);"/>
          <polygon points="118.95 107.4 123.26 107.26 121.55 113.54 121.77 108.48 118.95 107.4" style="fill: url(#Gradient_128-4);"/>
          <polygon points="88.49 109.44 83.49 108.99 86.31 115.93 85.98 110.63 88.49 109.44" style="fill: url(#Gradient_128-5);"/>
          <g>
            <path d="M97.38,110.58c-3.17-.07-10.87.05-11.97-.62,5.09-.47,9.88-3.01,14.47-3.55,2.83-.33,5.18.41,6.4.31,1.21-.1,5.98-.97,6.99-.81,2.4.36,7.59,2.45,8.96,1.79,0,0-1.62,1.52-6.85,2.1-3.43.38-5.64.51-9.71.71-4.02.2-5.12.15-8.29.08Z" style="fill: url(#linear-gradient-35);"/>
            <g>
              <path d="M121.77,108.49l1.05-.86s-.41,1.6-.76,2.02c-.35.41-4.88,1.53-4.88,1.53l4.6-2.68Z" style="fill: url(#linear-gradient-36);"/>
              <path d="M86.56,111.05l-2.24-1.48s.57,1.85.95,2.23c.39.38,5.78,1.28,5.78,1.28l-4.49-2.03Z" style="fill: url(#linear-gradient-37);"/>
              <path d="M122,108.54c-.77.86-4.59,4.65-4.76,4.75-2.76,1.53-2.68,1.33-5.33,2.19-.23.07-.06-.71-.13-.69-1.06.32-11.41,1.14-13.64.87t0,0c-2.33-.47-3.77.2-6.34-.94-.34-.15-5.21-3.28-6.16-4.2,0,0,1.85-.27,5.61-.02,6.47.43,14.67.65,27.17-1.87,1.17-.23,2.39.21,3.58-.08Z" style="fill: #711e22;"/>
              <path d="M90.79,111.02c.24.9.57,2.85.91,3.7,2.17,1.01,4.33,1.8,5.87,2.02t0,0c2.04.28,11.32-.37,12.31-.57,1.44-.28,4.3-1.15,6.29-2.31.28-.86.36-3.47.46-4.4-4.39,1.12-15.06,3.31-25.85,1.57Z" style="fill: url(#linear-gradient-38);"/>
              <path d="M90.47,110.09c.26,1.03.52,1.72.87,2.73,2.74.36,8.36.57,12.84.38,4.31-.18,9.48-1.13,12.19-1.84.18-.83.27-1.71.35-2.52-3.37.32-11.21,1.21-26.24,1.24Z" style="fill: #f3eceb;"/>
            </g>
            <path d="M122.82,107.63c-7.67,1.25-13.43,1.65-16.98,1.8-4.23.17-15.33.39-21.51.14,0,0,.37.68,1,1.01,1.02.55,4.66.61,20.35-.08,11.53-.51,15.23-1.59,16.33-1.96.58-.19.82-.92.82-.92Z" style="fill: url(#linear-gradient-39);"/>
            <path d="M90.25,116.93s7.08,2.97,8.32,3c3.15.08,12.35.07,13.35-.25.69-.23,3.54-1.68,5.41-3.4,0,0-3.13,5.89-9.98,6.1-7.89.24-13.79-3.51-17.1-5.45Z" style="fill: url(#linear-gradient-40);"/>
            <path d="M99.58,121.34s3.92,1.37,8.07,1.18c2.22-.1,4.8-1.52,4.8-1.52,0,0-4.57.79-12.88.33Z" style="fill: url(#linear-gradient-41);"/>
          </g>
        </g>
        <path d="M31.54,200.84c-.59,5.34-1.77,10.27-3.46,14.83-9.59,25.94-35.57,39.85-62.48,48.73.32-1.4.61-2.64.87-3.61.52-1.94,1.46-5.82,2.79-10.93.12-.46.23-.93.35-1.4,1.87-7.11,4.4-16.29,7.55-25.85.15-.48.3-.94.46-1.4.13-.38.26-.77.38-1.16.03-.07.07-.17.1-.28,1.67-4.92,3.48-9.91,5.46-14.71h0c.45-1.14.91-2.26,1.39-3.36.96-2.22,1.93-4.36,2.94-6.46.23-.46.46-.94.7-1.4,3.74-7.47,7.83-13.9,12.3-18.16.65-.64,1.56-1.35,2.64-2.09.01-.03.04-.04.07-.06l17.73-9.5c.16.49.41,1.29.74,2.35.13.43.27.91.43,1.43.23.72.48,1.54.74,2.4,1.74,5.75,4.3,14.5,6.59,23.5.12.48.25.94.35,1.42.48,1.91.94,3.82,1.38,5.71Z" style="fill: url(#linear-gradient-42);"/>
      </g>
    </g>
  </g>
</svg>