<?xml version="1.0" encoding="UTF-8"?>
<svg id="Layer_2" data-name="Layer 2" xmlns="http://www.w3.org/2000/svg" width="204.89" height="204.89" xmlns:xlink="http://www.w3.org/1999/xlink" viewBox="0 0 204.89 204.89">
  <defs>
    <clipPath id="clippath">
      <rect width="204.89" height="204.89" style="fill: none;"/>
    </clipPath>
    <linearGradient id="linear-gradient" x1="51.93" y1="112.49" x2="145.57" y2="254.38" gradientUnits="userSpaceOnUse">
      <stop offset="0" stop-color="#0b173d"/>
      <stop offset=".5" stop-color="#0c193f"/>
      <stop offset=".82" stop-color="#132248"/>
      <stop offset="1" stop-color="#192b51"/>
    </linearGradient>
    <linearGradient id="linear-gradient-2" x1="128.63" y1="172.65" x2="144.21" y2="177.02" gradientUnits="userSpaceOnUse">
      <stop offset="0" stop-color="#f0c499"/>
      <stop offset=".52" stop-color="#f4cfa5"/>
      <stop offset="1" stop-color="#f7d4ab"/>
    </linearGradient>
    <linearGradient id="linear-gradient-3" x1="78.35" y1="178.8" x2="143.58" y2="197.11" xlink:href="#linear-gradient-2"/>
    <linearGradient id="linear-gradient-4" x1="99.76" y1="216.18" x2="68.66" y2="174.51" gradientUnits="userSpaceOnUse">
      <stop offset="0" stop-color="#f0c499"/>
      <stop offset=".51" stop-color="#e3b086"/>
      <stop offset="1" stop-color="#dba379"/>
    </linearGradient>
    <linearGradient id="linear-gradient-5" x1="142.25" y1="178.4" x2="75.07" y2="153.07" xlink:href="#linear-gradient-4"/>
    <linearGradient id="linear-gradient-6" x1="101.65" y1="182.05" x2="104.18" y2="330.05" gradientUnits="userSpaceOnUse">
      <stop offset="0" stop-color="#2b416b"/>
      <stop offset=".46" stop-color="#293e68"/>
      <stop offset=".75" stop-color="#23375f"/>
      <stop offset="1" stop-color="#192b51"/>
    </linearGradient>
    <linearGradient id="linear-gradient-7" x1="56.05" y1="-283.06" x2="55.09" y2="-232.12" gradientTransform="translate(31.04 323.14) rotate(3.42) scale(1 .96)" gradientUnits="userSpaceOnUse">
      <stop offset="0" stop-color="#ffd9b3"/>
      <stop offset=".28" stop-color="#fbd6af"/>
      <stop offset="1" stop-color="#f7d4ab"/>
    </linearGradient>
    <linearGradient id="linear-gradient-8" x1="-104.91" y1="641.91" x2="-94.75" y2="666.56" gradientTransform="translate(54.69 -634.04) rotate(177.48) scale(.99 -1.14) skewX(3.14)" gradientUnits="userSpaceOnUse">
      <stop offset="0" stop-color="#dba379"/>
      <stop offset=".49" stop-color="#e3b086"/>
      <stop offset="1" stop-color="#f0c499"/>
    </linearGradient>
    <linearGradient id="linear-gradient-9" x1="1026.68" y1="603.86" x2="1036.7" y2="628.16" gradientTransform="translate(-979.89 -630.23) rotate(2) scale(.99 1.14) skewX(3.13)" xlink:href="#linear-gradient-8"/>
    <linearGradient id="linear-gradient-10" x1="68.69" y1="-216.89" x2="85.09" y2="-201.39" gradientTransform="translate(31.85 300.23) rotate(3.42)" xlink:href="#linear-gradient-2"/>
    <linearGradient id="linear-gradient-11" x1="37.24" y1="-214.13" x2="33.39" y2="-197.83" gradientTransform="translate(31.85 300.23) rotate(3.42)" xlink:href="#linear-gradient-2"/>
    <radialGradient id="radial-gradient" cx="-288.08" cy="-107.95" fx="-288.08" fy="-107.95" r="23.04" gradientTransform="translate(-155.33 202.48) rotate(177.65) scale(1.02 -.71) skewX(-1.54)" gradientUnits="userSpaceOnUse">
      <stop offset="0" stop-color="#f8c39c"/>
      <stop offset="1" stop-color="#f7d4ab"/>
    </radialGradient>
    <radialGradient id="radial-gradient-2" cx="137.49" cy="-139.84" fx="137.49" fy="-139.84" r="23.63" gradientTransform="translate(-52.06 218.74) rotate(-3.81) scale(1.02 .69) skewX(2.86)" xlink:href="#radial-gradient"/>
    <linearGradient id="linear-gradient-12" x1="192.97" y1="162.81" x2="178.79" y2="167.69" gradientTransform="translate(-52.09 -56.36) rotate(-.26)" gradientUnits="userSpaceOnUse">
      <stop offset="0" stop-color="#fbd6af"/>
      <stop offset="1" stop-color="#f7d4ab"/>
    </linearGradient>
    <linearGradient id="linear-gradient-13" x1="129.06" y1="167.7" x2="108.02" y2="162.56" xlink:href="#linear-gradient-12"/>
    <linearGradient id="Gradient_58" data-name="Gradient 58" x1="-2984.93" y1="110.9" x2="-2959.45" y2="110.9" gradientTransform="translate(-2897.13 -28.13) rotate(-179.93) scale(1 -1)" gradientUnits="userSpaceOnUse">
      <stop offset="0" stop-color="#2b1b13"/>
      <stop offset=".04" stop-color="#2e1d14"/>
      <stop offset=".38" stop-color="#442b1d"/>
      <stop offset=".71" stop-color="#513423"/>
      <stop offset="1" stop-color="#563725"/>
    </linearGradient>
    <linearGradient id="Gradient_58-2" data-name="Gradient 58" x1="399.19" y1="111.36" x2="427" y2="111.36" gradientTransform="translate(-284.75 -25.53) rotate(.07)" xlink:href="#Gradient_58"/>
    <linearGradient id="linear-gradient-14" x1="200.11" y1="154.99" x2="172.97" y2="178.19" gradientTransform="translate(-58.4 -72.51) rotate(1.21)" xlink:href="#linear-gradient-4"/>
    <linearGradient id="linear-gradient-15" x1="185.38" y1="133.8" x2="160.12" y2="127.7" gradientTransform="translate(-44.6 -30.96)" gradientUnits="userSpaceOnUse">
      <stop offset="0" stop-color="#ece7e7"/>
      <stop offset=".23" stop-color="#f5f3f3"/>
      <stop offset=".53" stop-color="#fcfcfc"/>
      <stop offset="1" stop-color="#fff"/>
    </linearGradient>
    <linearGradient id="Gradient_96" data-name="Gradient 96" x1="188.61" y1="148.39" x2="164.63" y2="126.63" gradientTransform="translate(-44.6 -30.96)" gradientUnits="userSpaceOnUse">
      <stop offset="0" stop-color="#a8c3dd"/>
      <stop offset="1" stop-color="#7a90a5"/>
    </linearGradient>
    <linearGradient id="Gradient_96-2" data-name="Gradient 96" x1="82.07" y1="-194.27" x2="81.27" y2="-201.68" gradientTransform="translate(31.85 300.23) rotate(3.42)" xlink:href="#Gradient_96"/>
    <radialGradient id="Gradient_25" data-name="Gradient 25" cx="-923.87" cy="147.79" fx="-923.87" fy="147.79" r="4.03" gradientTransform="translate(1060.45 -27.76) rotate(1.3) skewX(.07)" gradientUnits="userSpaceOnUse">
      <stop offset="0" stop-color="#666"/>
      <stop offset="1" stop-color="#1d1d1d"/>
    </radialGradient>
    <linearGradient id="linear-gradient-16" x1="105.58" y1="160.32" x2="125.81" y2="159.36" gradientTransform="translate(11.57 -66.08) rotate(1.2)" gradientUnits="userSpaceOnUse">
      <stop offset="0" stop-color="#2b1b13"/>
      <stop offset=".04" stop-color="#2e1d14"/>
      <stop offset=".38" stop-color="#442b1d"/>
      <stop offset=".71" stop-color="#513423"/>
      <stop offset="1" stop-color="#563725"/>
    </linearGradient>
    <linearGradient id="linear-gradient-17" x1="65.63" y1="-99.84" x2="63.24" y2="-130.9" gradientTransform="translate(31.85 300.23) rotate(3.42)" gradientUnits="userSpaceOnUse">
      <stop offset="0" stop-color="#f7d4ab"/>
      <stop offset=".45" stop-color="#f3caa0"/>
      <stop offset="1" stop-color="#f0c499"/>
    </linearGradient>
    <linearGradient id="linear-gradient-18" x1="-2961.55" y1="222.18" x2="-2988.49" y2="245.21" gradientTransform="translate(-2899.35 -72.86) rotate(178.8) scale(1 -1)" xlink:href="#linear-gradient-4"/>
    <linearGradient id="linear-gradient-19" x1="141.58" y1="133.57" x2="115.64" y2="127.31" xlink:href="#linear-gradient-15"/>
    <linearGradient id="Gradient_96-3" data-name="Gradient 96" x1="144.32" y1="148.72" x2="120.25" y2="126.88" xlink:href="#Gradient_96"/>
    <linearGradient id="Gradient_96-4" data-name="Gradient 96" x1="37.62" y1="-189.44" x2="36.82" y2="-196.84" gradientTransform="translate(31.85 300.23) rotate(3.42)" xlink:href="#Gradient_96"/>
    <radialGradient id="Gradient_25-2" data-name="Gradient 25" cx="-4302.63" cy="225.18" fx="-4302.63" fy="225.18" r="4.03" gradientTransform="translate(-4228.85 -28.3) rotate(178.7) scale(1 -1) skewX(.09)" xlink:href="#Gradient_25"/>
    <linearGradient id="linear-gradient-20" x1="-3055.92" y1="226.49" x2="-3035.87" y2="225.53" gradientTransform="translate(-2969.33 -66.44) rotate(178.81) scale(1 -1)" xlink:href="#linear-gradient-16"/>
    <linearGradient id="Gradient_32" data-name="Gradient 32" x1="63.12" y1="-285.48" x2="46.05" y2="-134.76" gradientTransform="translate(31.85 300.23) rotate(3.42)" gradientUnits="userSpaceOnUse">
      <stop offset="0" stop-color="#724831"/>
      <stop offset=".22" stop-color="#67412c"/>
      <stop offset=".63" stop-color="#5a3926"/>
      <stop offset="1" stop-color="#563725"/>
    </linearGradient>
    <linearGradient id="Gradient_32-2" data-name="Gradient 32" x1="11.83" y1="-246.89" x2="1.08" y2="-152.07" xlink:href="#Gradient_32"/>
    <linearGradient id="linear-gradient-21" x1="65.49" y1="-194.16" x2="65.17" y2="-198.29" gradientTransform="translate(29.02 346.93) rotate(3.42) scale(1 .93)" xlink:href="#linear-gradient-17"/>
    <linearGradient id="Gradient_115" data-name="Gradient 115" x1="102.28" y1="117.47" x2="103.02" y2="191.26" gradientUnits="userSpaceOnUse">
      <stop offset="0" stop-color="#d6ac88"/>
      <stop offset="1" stop-color="#a18166"/>
    </linearGradient>
    <linearGradient id="Gradient_115-2" data-name="Gradient 115" x1="101.75" y1="117.48" x2="102.49" y2="191.26" xlink:href="#Gradient_115"/>
    <linearGradient id="Gradient_27" data-name="Gradient 27" x1="103.29" y1="58.68" x2="115.66" y2="17.98" gradientUnits="userSpaceOnUse">
      <stop offset="0" stop-color="#724831"/>
      <stop offset=".42" stop-color="#7f553b"/>
      <stop offset="1" stop-color="#8e6346"/>
    </linearGradient>
    <linearGradient id="Gradient_27-2" data-name="Gradient 27" x1="86.43" y1="53.56" x2="98.8" y2="12.86" xlink:href="#Gradient_27"/>
    <linearGradient id="Gradient_27-3" data-name="Gradient 27" x1="73.2" y1="49.87" x2="85.86" y2="8.22" xlink:href="#Gradient_27"/>
    <linearGradient id="Gradient_27-4" data-name="Gradient 27" x1="64.51" y1="45.39" x2="76.88" y2="4.7" xlink:href="#Gradient_27"/>
    <linearGradient id="Gradient_27-5" data-name="Gradient 27" x1="118.61" y1="63.33" x2="130.98" y2="22.64" xlink:href="#Gradient_27"/>
    <linearGradient id="Gradient_27-6" data-name="Gradient 27" x1="132.09" y1="67.43" x2="144.46" y2="26.73" xlink:href="#Gradient_27"/>
    <linearGradient id="Gradient_27-7" data-name="Gradient 27" x1="54.84" y1="43.96" x2="67.21" y2="3.26" xlink:href="#Gradient_27"/>
    <linearGradient id="Gradient_27-8" data-name="Gradient 27" x1="-.76" y1="-237.58" x2="8.58" y2="-236.34" gradientTransform="translate(31.85 300.23) rotate(3.42)" xlink:href="#Gradient_27"/>
    <linearGradient id="Gradient_27-9" data-name="Gradient 27" x1="144.45" y1="71.38" x2="157.56" y2="28.25" xlink:href="#Gradient_27"/>
    <linearGradient id="Gradient_58-3" data-name="Gradient 58" x1="16.66" y1="-148.31" x2="110.01" y2="-315.55" gradientTransform="translate(31.85 300.23) rotate(3.42)" xlink:href="#Gradient_58"/>
    <linearGradient id="Gradient_115-3" data-name="Gradient 115" x1="64.19" y1="-170.33" x2="63.55" y2="-178.66" gradientTransform="translate(29.02 346.93) rotate(3.42) scale(1 .93)" xlink:href="#Gradient_115"/>
    <linearGradient id="Gradient_115-4" data-name="Gradient 115" x1="67.18" y1="-195.67" x2="65.96" y2="-200.87" gradientTransform="translate(29.02 346.93) rotate(3.42) scale(1 .93)" xlink:href="#Gradient_115"/>
    <linearGradient id="Gradient_115-5" data-name="Gradient 115" x1="40.81" y1="-154.16" x2="39.78" y2="-158.53" gradientTransform="translate(31.85 300.23) rotate(3.42)" xlink:href="#Gradient_115"/>
    <linearGradient id="Gradient_115-6" data-name="Gradient 115" x1="86.28" y1="-156.55" x2="85.27" y2="-160.83" gradientTransform="translate(31.85 300.23) rotate(3.42)" xlink:href="#Gradient_115"/>
    <linearGradient id="Gradient_113" data-name="Gradient 113" x1="61.33" y1="-187.44" x2="60.14" y2="-171.17" gradientTransform="translate(31.85 300.23) rotate(3.42)" gradientUnits="userSpaceOnUse">
      <stop offset="0" stop-color="#a18166"/>
      <stop offset="1" stop-color="#d6ac88"/>
    </linearGradient>
    <linearGradient id="linear-gradient-22" x1="192.97" y1="339.81" x2="193.67" y2="364.17" gradientTransform="translate(-105.5 -239.41) rotate(-2.17)" gradientUnits="userSpaceOnUse">
      <stop offset="0" stop-color="#f7d4ab"/>
      <stop offset=".52" stop-color="#f5d1a8"/>
      <stop offset=".85" stop-color="#f2c99f"/>
      <stop offset="1" stop-color="#f0c499"/>
    </linearGradient>
    <linearGradient id="linear-gradient-23" x1="193.33" y1="828.16" x2="194.84" y2="817.03" gradientTransform="translate(-145.02 -1278.72) rotate(-2.16) scale(1 1.7) skewX(.04)" xlink:href="#linear-gradient-7"/>
    <linearGradient id="linear-gradient-24" x1="176.35" y1="432.99" x2="176.46" y2="448.84" gradientTransform="translate(-83.99 -311.47) rotate(-1.14)" xlink:href="#linear-gradient-22"/>
    <linearGradient id="linear-gradient-25" x1="100.5" y1="127.62" x2="101.19" y2="143.61" gradientUnits="userSpaceOnUse">
      <stop offset="0" stop-color="#e8d9d7"/>
      <stop offset=".4" stop-color="#efe5e3"/>
      <stop offset="1" stop-color="#fff"/>
    </linearGradient>
    <linearGradient id="linear-gradient-26" x1="178.42" y1="455.97" x2="172.66" y2="435.51" gradientTransform="translate(-83.99 -311.47) rotate(-1.14)" xlink:href="#linear-gradient-8"/>
    <linearGradient id="linear-gradient-27" x1="176.05" y1="466.79" x2="175.83" y2="452.53" gradientTransform="translate(-83.99 -311.47) rotate(-1.14)" gradientUnits="userSpaceOnUse">
      <stop offset="0" stop-color="#f0c499"/>
      <stop offset=".52" stop-color="#f1c69b"/>
      <stop offset=".85" stop-color="#f4cea4"/>
      <stop offset="1" stop-color="#f7d4ab"/>
    </linearGradient>
    <linearGradient id="linear-gradient-28" x1="166.95" y1="463.49" x2="183.78" y2="463.49" gradientTransform="translate(-83.99 -311.47) rotate(-1.14)" xlink:href="#linear-gradient-8"/>
    <linearGradient id="linear-gradient-29" x1="100.21" y1="191.77" x2="118.45" y2="191.77" gradientTransform="matrix(1,0,0,1,0,0)" xlink:href="#linear-gradient-7"/>
    <linearGradient id="linear-gradient-30" x1="115.98" y1="362.18" x2="87.64" y2="210.89" xlink:href="#linear-gradient-6"/>
    <linearGradient id="linear-gradient-31" x1="70.46" y1="259.22" x2="71.3" y2="217.78" xlink:href="#linear-gradient-6"/>
    <linearGradient id="linear-gradient-32" x1="71.38" y1="301.02" x2="71.38" y2="177.81" xlink:href="#linear-gradient-6"/>
    <linearGradient id="linear-gradient-33" x1="77.73" y1="205.41" x2="76.7" y2="133.76" xlink:href="#linear-gradient"/>
    <linearGradient id="linear-gradient-34" x1="76.45" y1="339.07" x2="121.77" y2="186.13" xlink:href="#linear-gradient-6"/>
    <linearGradient id="linear-gradient-35" x1="131.35" y1="263.57" x2="132.23" y2="220.41" xlink:href="#linear-gradient-6"/>
    <linearGradient id="linear-gradient-36" x1="132.93" y1="312.35" x2="132.93" y2="175.09" xlink:href="#linear-gradient-6"/>
    <linearGradient id="linear-gradient-37" x1="126.22" y1="204.93" x2="125.33" y2="143.35" xlink:href="#linear-gradient"/>
    <linearGradient id="linear-gradient-38" x1="112.6" y1="223.61" x2="122.89" y2="240.93" xlink:href="#linear-gradient-6"/>
    <linearGradient id="linear-gradient-39" x1="146.29" y1="220.57" x2="157.09" y2="238.76" xlink:href="#linear-gradient-6"/>
  </defs>
  <g id="Layer_1-2" data-name="Layer 1">
    <g style="clip-path: url(#clippath);">
      <g>
        <path d="M70.53,169.15s25.47-18.7,63.1-2.44c0,0,17.81,22.47.85,38.81-16.96,16.34-59.9,14.8-66.11,1.41-6.2-13.39-2.78-34.93,2.16-37.78Z" style="fill: url(#linear-gradient);"/>
        <path d="M134.37,186.49l6.66-8.51s-7.23-2.17-10.07-16.92c-.12.11-.24.22-.36.34-.87,8.81.71,17.24,3.77,25.09Z" style="fill: url(#linear-gradient-2);"/>
        <path d="M130.6,161.41c-11.43,10.5-17.98,20.08-32.69,19.16-5.69,0-15.91-2.49-23.03-7.19,5.96,11.97,17.22,21.08,26.44,29.14,3.8,3.8,5.36,10.31,7.33,16.85l25.73-32.86c-3.06-7.85-4.64-16.28-3.77-25.09Z" style="fill: url(#linear-gradient-3);"/>
        <path d="M84.02,178.59c-.75-.5-10.62-6.24-11.3-6.78-1.21,2.84-2.69,5.81-4.52,8.9l31.5,51.88,8.94-13.23c-1.96-6.54-3.52-13.04-7.33-16.85-9.22-8.06-11.33-11.94-17.29-23.91Z" style="fill: url(#linear-gradient-4);"/>
        <path d="M130.96,161.07c-.53-2.76-.91-5.96-1.06-9.66l-58.14-14.7s3.12,16.83.97,35.1c7.04,5.71,19.74,11.05,26.03,11.05,14.87.93,23.74-3.63,32.21-21.8Z" style="fill: url(#linear-gradient-5);"/>
        <path d="M223.35,220.76c-15.56-5.75-74.21-32.38-74.21-32.38l-47.79,44.91-40.82-44.91s-68.63,27.64-79.27,32.38l28.4,84.45-.06,4.45h186.72l27.03-88.9Z" style="fill: #192b51;"/>
        <path d="M-18.74,220.76s34.61,62.94,44.87,69.91c10.05,6.83,149.97,11.02,163.56-4.36l33.66-65.55-75.82-40.06-25.55,19.4-22.29,32.48-39.06-50.54-79.37,38.72Z" style="fill: url(#linear-gradient-6);"/>
        <g>
          <path d="M58.39,98.02s3.46,47.01,4.77,48.98c1.31,1.97,21.13,21.8,23.68,23.98,2.56,2.18,29.12.84,29.12.84,0,0,22.32-20.01,24.25-23.22,1.93-3.21,5.23-51.32,5.23-51.32,0,0,5.86-37.79-3.18-50.75-9.04-12.96-70.64-17.16-80.85.87-10.22,18.03-3.02,50.64-3.02,50.64Z" style="fill: url(#linear-gradient-7);"/>
          <g>
            <path d="M153.26,93.35c9.63-.7,3.36,14.42,3.36,14.42-3.73,19.58-2.12,22.95-10.69,22.21-6.34-.54.45-36.13,7.33-36.63Z" style="fill: #f0c499;"/>
            <path d="M147.51,121.51s3.05-3.42,2.89-10.76c-.37-17.29,8.73-17.61,5.59-6.13,0,0-.73-5.62-2.02-4.08-1.59,1.89,1.2,3.28-1.1,11.97-1.2,4.51-5.37,9-5.37,9Z" style="fill: url(#linear-gradient-8);"/>
          </g>
          <g>
            <path d="M51.18,93.63c-9.63-.39-3.52,14.53-3.52,14.53,3.52,19.46,2.99,22.36,10.44,21.87,8.37-.55-.05-36.12-6.93-36.4Z" style="fill: #f0c499;"/>
            <path d="M56.62,121.6s-3.01-3.32-2.78-10.66c.56-17.31-8.54-17.33-5.53-5.95,0,0,.79-5.64,2.07-4.15,1.57,1.83-1.24,3.32.96,11.93,1.15,4.48,5.27,8.83,5.27,8.83Z" style="fill: url(#linear-gradient-9);"/>
          </g>
          <path d="M114.8,86.76s-6.51,7.86-6.36,8.73c.14.87,1.25,11.36,1.25,11.36,0,0,25.36-.8,28.67-1.84,3.31-1.04,4.15-7.54,4.15-7.54l-3.54-5.29s-7.6-7.29-8.34-6.8c-.74.49-15.83,1.37-15.83,1.37Z" style="fill: url(#linear-gradient-10);"/>
          <path d="M88.34,86.74s6.42,7.48,6.31,8.35-.45,11.54-.45,11.54c0,0-25.37.15-28.72-.76s-4.43-7.38-4.43-7.38l3.34-5.42s7.32-7.57,8.08-7.1c.76.47,15.87.77,15.87.77Z" style="fill: url(#linear-gradient-11);"/>
          <path d="M127.24,129.95c8.19.5,17.34-.56,18.98-17.22.94-9.49-.12-14.44-4.18-15.16-8.6-1.54-20.91,2.21-26.03,4.86-10.82,5.59-3.28,26.63,11.23,27.52Z" style="fill: url(#radial-gradient);"/>
          <path d="M86.23,101.16c-2.34-.83-20.19-4.74-25.49-3.19-3.03.88-1.73,7.56-1.19,13.9.26,3.04.24,7.92.95,9.83,3.47,9.37,16.55,9.73,24.09,7.07,12.86-4.53,13.54-23.42,1.65-27.62Z" style="fill: url(#radial-gradient-2);"/>
          <path d="M141.21,104.07c-1.48-.81-2.57.38-5.64,1.38-3.01.98-11.23,2.55-7.35,4.59,4.28,2.26,10.24-.89,10.96-1.48.72-.59,3.85-3.49,2.03-4.49Z" style="fill: url(#linear-gradient-12);"/>
          <path d="M68.49,106.38c-3.12-.82-4.28-1.94-5.71-1.05-1.76,1.1,1.54,3.82,2.3,4.36.75.55,6.9,3.34,11.03.83,3.75-2.27-4.55-3.34-7.61-4.14Z" style="fill: url(#linear-gradient-13);"/>
          <path d="M67.57,85.1c2.22-3.48,10.27-2.92,14.21-2.83,2.23.05,5.38.12,7.42.87.24,1.25.27,2.15-.12,3.62.91-.78,1.12-2.21.92-3.21.05.03,1.54,2.23.17,4.76-.66,1.2-4.19.2-12.38-.02-2.23-.06-6.03-.38-9.1.62-1.12.37-3.39,1.55-3.39,1.55-.24-.4,1.23-3.71,2.28-5.37Z" style="fill: url(#Gradient_58);"/>
          <path d="M135.56,84.71c-1.76-2.61-9.5-2.72-13.56-2.52-2.08.1-7.39-.05-9.48.69-.24,1.25-.28,2.14.13,3.62-.94-.79-1.15-2.22-.94-3.22-.06.03-1.58,2.22-.16,4.76.67,1.21,4.29.22,12.69.06,2.28-.04,7.15-.13,9.32.68,1.14.42,5.16,1.77,5.16,1.77.25-.4-1.18-2.9-3.16-5.83Z" style="fill: url(#Gradient_58-2);"/>
          <g>
            <path d="M111.62,102.26c-1.01-1.22.04-3.83.61-5.46,1.79-5.09,5.66-6.78,13.69-6.96,2.63-.06,7.18.5,9.98,3.07,2.15,1.98,3.39,3.95,3.15,5.72-.12.9-4.34,5.95-13.09,6.22-5.72.18-12.23-.05-14.34-2.59Z" style="fill: url(#linear-gradient-14);"/>
            <path d="M134.9,98.57c-.22.59-.54,1.11-.94,1.58-.62.75-1.41,1.35-2.3,1.83-.33.15-.68.25-1.05.33-.05.02-.1.02-.14.03-.59.13-1.14.26-1.66.36-2.77.55-4.91.81-6.73.81-.74,0-1.42-.05-2.07-.13-.32-.03-.63-.1-.93-.18-2.66-.62-4.66-2.36-5.04-3.08,0,0,0-.02.02-.03v-.02c.14-.33,1.17-2.54,2.82-4.3,1.03-1.09,2.31-2.01,3.79-2.17.47-.05.93-.1,1.39-.11,8.3-.34,12.45,4.58,12.83,5.06.02.02.02.03.02.03Z" style="fill: url(#linear-gradient-15);"/>
            <path d="M134.88,98.53s.02.03.02.03c-.23.59-.55,1.12-.94,1.59-.1-.06-.22-.13-.35-.2-.84-.45-2.35-1.06-5.19-1.3-11.72-.97-14.24,1.29-14.37,1.41,0,0,0,0,0,0,.36-1.86,1.42-3.26,2.82-4.31,1.47-1.1,3.33-1.82,5.18-2.28,1.52-.38,3.03-.59,4.32-.69,4.15-.32,8.15,5.23,8.51,5.73Z" style="fill: #ddd;"/>
            <path d="M131.35,100.61c-.06.34-.23,1.27-.44,1.63-.13.08-.58.26-.76.34-.59.13-1.22.32-1.74.42-2.77.55-4.5.51-6.33.51-.74,0-1.42-.05-2.07-.13-.32-.03-.63-.1-.93-.18-.57-.75-1.11-1.84-1.08-3.34.09-3.96,3.42-5.72,7.1-5.43,3.66.31,6.84,2.36,6.26,6.18Z" style="fill: url(#Gradient_96);"/>
            <path d="M118.13,98.67s5.2-1.13,13.26.56c0,0-.15-4.12-5.01-5.01-4.56-.83-7.92,2.1-8.26,4.45Z" style="fill: url(#Gradient_96-2);"/>
            <path d="M125.05,94.98c-2.25-.12-4.32,1.64-4.43,3.9-.11,2.26,1.79,4.16,4.03,4.28,2.25.12,4.16-1.62,4.27-3.88.11-2.26-1.63-4.18-3.87-4.3Z" style="fill: url(#Gradient_25);"/>
            <path d="M124.9,94.97c-2.65-.15-3.89,1.78-4.22,3.39,0,0,4.36-.43,8.24.38,0,0-.21-3.56-4.01-3.77Z"/>
            <path d="M130.48,101.67c.44-.82.09-1.88-.77-2.36-.86-.48-1.92-.2-2.36.63-.44.82-.1,1.88.77,2.36.86.48,1.92.2,2.36-.63Z" style="fill: #fff;"/>
            <path d="M126.38,99.48c.35-.65.08-1.48-.6-1.85-.68-.37-1.52-.16-1.87.49-.35.65-.08,1.48.6,1.85.68.38,1.52.16,1.87-.49Z" style="fill: #fff;"/>
            <path d="M114.05,100.1s-.39-3.11,3.34-5.65c3.92-2.66,10.55-2.59,14.39-.19,2.31,1.44,3.13,4.31,3.13,4.31,0,0-4.88-3.46-10.11-3.22-2.9.13-4,.39-5.31.7-3.41.82-5.44,4.05-5.44,4.05Z" style="fill: url(#linear-gradient-16);"/>
          </g>
          <path d="M70.59,51.53c1.7-.82,26.65,2.71,30.56,1.82,3.91-.89,24.93-4.71,29.01-2.44s6.96,6.81,7.37,9.32c.4,2.51-.25,14.9,0,16.92.24,2.02,3.78,4.53,4.79,16.22,1.01,11.69.47,22.79-.14,27.64-.62,4.86-5.09,20.97-5.09,20.97l8.17-23.55s.82-2.79,1-5.71c.18-2.92,2.35-38.46,2.35-38.46l-11.69-34.6-68.54-3.28-14.83,33.16,3.83,40.04,1.86,5.39,5.8,20.4s-2.22-24.57-2.92-26.04c-.71-1.47-.71-14.74-.47-17.22.66-6.76,4.02-13.34,4.44-15.14.42-1.8-1.69-14.57-1.26-16.37.43-1.8,5.8-9.1,5.8-9.1Z" style="fill: url(#linear-gradient-17);"/>
          <g>
            <path d="M92.81,102.58c1.01-1.22-.04-3.83-.61-5.46-1.77-5.09-5.61-6.78-13.57-6.96-2.61-.06-7.12.5-9.89,3.07-2.13,1.98-3.36,3.95-3.12,5.72.12.9,4.3,5.95,12.97,6.22,5.67.18,12.12-.04,14.21-2.58Z" style="fill: url(#linear-gradient-18);"/>
            <path d="M90.42,100.44c-.36.7-2.23,2.33-4.69,3-.39.11-.8.21-1.22.26-.64.08-1.33.13-2.07.13-1.79,0-3.91-.26-6.66-.82-.34-.07-.69-.15-1.05-.21-.25-.07-.5-.11-.75-.16-.36-.08-.69-.2-1.02-.33-.88-.47-1.66-1.09-2.28-1.84-.39-.46-.71-.99-.93-1.58,0,0,0-.02.02-.03.38-.46,4.49-5.38,12.72-5.05.44.03.91.07,1.38.11,1.46.16,2.71,1.08,3.75,2.17,1.63,1.76,2.65,3.98,2.79,4.3v.02s.02.03.02.03Z" style="fill: url(#linear-gradient-19);"/>
            <path d="M69.76,98.85s-.02.03-.02.03c.23.59.54,1.12.93,1.59.1-.06.22-.13.35-.2.83-.45,2.33-1.06,5.14-1.3,11.61-.97,14.11,1.3,14.24,1.42,0,0,0,0,0,0-.36-1.86-1.4-3.26-2.8-4.31-1.46-1.1-3.3-1.82-5.13-2.28-1.51-.38-3.01-.59-4.28-.69-4.11-.32-8.08,5.23-8.43,5.73Z" style="fill: #ddd;"/>
            <path d="M86.73,100.18c.03,1.45-.47,2.53-1.01,3.26-.39.11-.8.21-1.22.26-.64.08-1.33.13-2.07.13-1.79,0-3.53.13-6.25-.51-.34-.08-1.03-.35-1.39-.42-.33-.11-.59-.13-.79-.26-.21-.38-.46-1.38-.51-1.72-.58-3.82,2.57-5.87,6.2-6.16,3.64-.31,6.94,1.45,7.03,5.41Z" style="fill: url(#Gradient_96-3);"/>
            <path d="M86.59,98.99s-5.15-1.14-13.14.56c0,0,.15-4.12,4.96-5.01,4.52-.83,7.85,2.1,8.18,4.45Z" style="fill: url(#Gradient_96-4);"/>
            <path d="M79.73,95.3c2.23-.12,4.28,1.64,4.39,3.9.11,2.26-1.77,4.15-4,4.28-2.23.11-4.13-1.62-4.23-3.88-.11-2.26,1.61-4.18,3.84-4.3Z" style="fill: url(#Gradient_25-2);"/>
            <path d="M79.88,95.3c2.63-.14,3.85,1.78,4.19,3.39,0,0-4.32-.43-8.16.38,0,0,.21-3.56,3.98-3.77Z"/>
            <path d="M81.69,102.46c-.43-.82-.09-1.88.76-2.36.85-.48,1.9-.2,2.34.63.44.82.09,1.88-.76,2.36-.85.48-1.9.2-2.34-.63Z" style="fill: #fff;"/>
            <path d="M78.84,100.07c-.35-.65-.08-1.48.6-1.85.68-.37,1.5-.16,1.85.49.35.65.08,1.48-.6,1.85-.68.38-1.51.16-1.85-.49Z" style="fill: #fff;"/>
            <path d="M90.4,100.42s.39-3.11-3.31-5.65c-3.88-2.66-10.45-2.59-14.26-.2-2.29,1.44-3.1,4.31-3.1,4.31,0,0,4.84-3.46,10.02-3.22,2.87.13,3.97.39,5.26.7,3.37.82,5.39,4.05,5.39,4.05Z" style="fill: url(#linear-gradient-20);"/>
          </g>
          <path d="M62.58,52.59s6.69-9.73,23.61-7.07c11.26,1.77,11.72,1.64,15.5,2.48,3.78.84,21.89-6.14,29.85-3.02,7.96,3.12,8.74,12.3,8.8,16.83s-.91,15.19.2,15.9,5.09,5.18,4.72,11.38c-.36,6.2.96,23.64.96,23.64,0,0,1.29-18.86,7.69-19.4l.4-12.98s2.56-8.92,2.78-12.6c.41-6.95-1.56-12.87-1.67-14.03-.29-2.99-5.4-8.17-6.28-9.17,0,0,3.24-6.97-5.66-11.83,0,0-1.8-14.58-17.58-17.89-15.78-3.31-29.03-2.41-33.89-.7,0,0-17.4-4.45-25.97,6.94,0,0-10.99,4.36-12.1,15.18-1.12,10.81,2.58,15.21,3.18,15.05l5.46,1.31Z" style="fill: url(#Gradient_32);"/>
          <path d="M64.27,51.29s-5.46,7.01-3.67,21.01c0,0-2.74,7.69-2.74,12.78,0,5.1,1.51,24.77,1.51,24.77,0,0-3.33-16.71-9.62-16.15,0,0-1.22-11.53-1.54-12.27,0,0-4.88-9.14-1.45-19.85,1.98-6.18,10.36-10.29,10.36-10.29h7.15Z" style="fill: url(#Gradient_32-2);"/>
          <path d="M78.96,150.18s12.31,6.95,12.95,6.84c.64-.11,10.34-5.15,10.34-5.15,0,0,10.89,5.48,13.33,5.29,2.45-.19,14.83-8,14.83-8,0,0-12.78,11.85-15.29,13.03-2.5,1.17-27.69-.27-27.69-.27l-8.49-11.74Z" style="fill: url(#linear-gradient-21);"/>
          <path d="M145.23,118.34s-1.44,24.78-3.46,29.24-21.61,22.99-25.86,26.51c-4.25,3.52-23.14,1.79-26.19,1.25-3.05-.54-25.04-21.67-28.09-26.61-3.04-4.93-2.08-36.86-2.08-36.86,0,0,4,20.59,6.8,24.57,2.81,3.98,22.18,21.32,25.2,23.32,1.28.85,4.72-2.6,6.82-5.45,1.99-2.72.66-3.95,5.76-3.65,4.09.24,3.24,1.91,6.18,5.35,2.07,2.43,3.3,3.5,4.81,3.2,3.64-.73,23.19-22.33,24.12-24.51.93-2.18,5.98-16.37,5.98-16.37Z" style="fill: url(#Gradient_115);"/>
          <path d="M73.64,131.9s20.08-6.94,21.3-6.57c7.37,2.25,14.85-.52,15.79-.82.94-.3,13.34,5.29,17.98,7.4,0,0,1.17,14.44,1.58,16.98.51,3.14-4.19,4.67-4.19,4.67l-.05-20.41-29.15,3.23-21.22-3.44,5.04,19.88s-3.52-1.01-5.8-5.38c-.66-5.46-1.27-15.52-1.27-15.52Z" style="fill: url(#Gradient_115-2);"/>
          <path d="M102.16,39.11s-.18-23.24,28.49-22.8c0,0-16.66-10.03-27.24,1.54-10.58,11.57-1.25,21.27-1.25,21.27Z" style="fill: url(#Gradient_27);"/>
          <path d="M89.17,36.82s1.28-18.01,18.04-22.11c0,0-5.58-7.15-15.2-.59-9.62,6.56-2.84,22.71-2.84,22.71Z" style="fill: url(#Gradient_27-2);"/>
          <path d="M82.17,37.92s-3.52-19.18,9.84-23.8c0,0-10.35-7.21-16.56,3.38-6.21,10.59,6.71,20.42,6.71,20.42Z" style="fill: url(#Gradient_27-3);"/>
          <path d="M69.92,39.11s-12.19-10.99-3.88-19.56c8.32-8.57,15.56-5.47,15.56-5.47,0,0-8.24,5.11-9.77,11.23-1.53,6.12-1.91,13.79-1.91,13.79Z" style="fill: url(#Gradient_27-4);"/>
          <path d="M112.11,36.42s.12-14.93,11.72-17.61,18.33,4.35,19.66,13.9c0,0-2.68-10.99-16.56-6.7-9.4,2.9-14.82,10.41-14.82,10.41Z" style="fill: url(#Gradient_27-5);"/>
          <path d="M129.91,42.1s12.95-6.73,19.23,2.44c0,0,.7-10.1-9.05-10.68-9.75-.58-10.18,8.24-10.18,8.24Z" style="fill: url(#Gradient_27-6);"/>
          <path d="M57.12,51.29s-7.51-5.14-2.87-20.25c2.37-7.7,11.79-9.98,11.79-9.98,0,0-3.78,3.03-8.93,16.1-2.41,6.13,0,14.13,0,14.13Z" style="fill: url(#Gradient_27-7);"/>
          <path d="M57.12,51.29s-7.7.13-11.37,9.62c-2.02,5.22,4.07,17.06,4.07,17.06,0,0-1.32-11.26.63-16.91,2.22-6.41,6.66-9.76,6.66-9.76Z" style="fill: url(#Gradient_27-8);"/>
          <path d="M142.25,46.86s9.47-4.28,13.14,5.24c2.38,6.18,2.62,10.42-2.09,18.53,0,0,.36-12.42-1.89-15.94-2.26-3.52-9.16-7.83-9.16-7.83Z" style="fill: url(#Gradient_27-9);"/>
          <path d="M59.55,111.88s.22-6.87.04-18.26c-.1-6.63,1-11.34,4.67-16.82,0,0-2.01-15.75-1.13-17.81,1.96-4.57,8.6-10.85,9.83-11.05,1.23-.2,26.61,2.03,29.74,1.68,3.13-.35,23.08-3.69,28.82-.73,2.41,1.24,8.48,6.8,8.64,9.86.16,3.06-.75,18.25-.75,18.25,0,0,4.99,5.77,4.91,14.02-.09,8.25,1.88,21.71,1.88,21.71,0,0,2.13-25.35,1.89-28.21s-1.6-27.15-2.69-29.65c-1.09-2.5-10.16-11.78-15.51-12.77-5.35-1-27.37,1.44-28.35,2.05s-27.19-6.4-31.63-3.54-13.01,12.86-12.97,15.46c.04,2.59-1.56,23.44-1.52,25.43.02.85,4.12,30.38,4.12,30.38Z" style="fill: url(#Gradient_58-3);"/>
          <path d="M63.16,150.77s24.94,22.04,27.26,22.37c2.31.33,21.09,1.07,22.98.43,1.89-.64,26.63-23.41,26.63-23.41,0,0-14.32,17.57-26.8,26.24-1.78,1.24-22.11-.03-23.56-.21-4.5-.54-25.61-24.31-26.51-25.41Z" style="fill: url(#Gradient_115-3);"/>
          <path d="M97.1,155.92s2.65-4.76,3.66-5.46c1.01-.69,5.89-.78,6.34.38.45,1.16,5.11,7.25,5.11,7.25,0,0-5.77-5.03-6.29-5.37-.52-.34-2.33-1.33-3.66-.84-1.33.49-5.16,4.04-5.16,4.04Z" style="fill: url(#Gradient_115-4);"/>
          <path d="M77.56,140.35l-.73-6.13c2.01.25,6.34-1.84,6.34-1.84,0,0-6.8.12-8.14-.24-1.34-.36,2.53,8.21,2.53,8.21Z" style="fill: url(#Gradient_115-5);"/>
          <path d="M126.07,140.35l-.02-6.43-4.83-1.22s6.48-.8,6.48-.07c-.01,1.23-1.63,7.72-1.63,7.72Z" style="fill: url(#Gradient_115-6);"/>
          <path d="M92.05,126.58s10.77,5.42,11.24,5.31c.47-.11,10.58-5.44,10.58-5.44,0,0-1.29-2.05-3.13-2.16-3.19-.19-6.52,2.71-8.71,2.17-.94-.23-5.73-1.59-8.3-1.72-1.85-.1-1.68,1.83-1.68,1.83Z" style="fill: url(#Gradient_113);"/>
          <g>
            <path d="M106.78,125.81c6.48-5.17,7.1.65,7.1.65-3.58-2.91-7.1-.65-7.1-.65Z" style="fill: #dca57b;"/>
            <path d="M92.05,126.58s.88-1.78,5.62-.37c0,0-7.88-5.09-5.62.37Z" style="fill: #dca57b;"/>
            <path d="M109.15,108.23c.05,2.44,1.34,11.6.65,13.02-1.54,3.16-4.58,4.51-7.46,4.38-2.16.35-6.1-.59-8.34-3.76-.91-1.29.68-10.49.2-13.08,0,0-9.34,16.89-2.14,17.78,0,0-1.18-1.89,1.68-1.83,2.53.06,3.87,4.44,8.86,4.25,5.51-.21,4.54-4.11,7.46-4.61,3.61-.62,2.99,1.74,3.83,2.07,3.6-1.61-1.3-13.91-4.72-18.23Z" style="fill: url(#linear-gradient-22);"/>
            <path d="M97.95,118.06c-.15,2.72.21,5.63,4.22,5.53,4.4-.11,4.48-3.08,4.02-5.56-2.74-14.69-7.7-10.09-8.24.03Z" style="fill: url(#linear-gradient-23);"/>
          </g>
          <g>
            <path d="M91.6,134.94c-3.87-.28-13.3-.59-14.61-1.48,6.25-.27,10.49-3.12,16.14-3.51,3.48-.24,6.32.81,7.81.76,1.49-.05,7.37-.82,8.59-.58,2.92.59,14.46,3.55,16.18,2.82,0,0-5.62,1.7-12.05,2.09-4.22.26-6.93.28-11.92.28s-6.27-.12-10.14-.4Z" style="fill: url(#linear-gradient-24);"/>
            <g>
              <path d="M125.11,133.91l1.33-.99s-.6,1.94-1.06,2.42c-.45.48-6.06,1.58-6.06,1.58l5.78-3.01Z" style="fill: #e1b18c;"/>
              <path d="M78.33,134.86l-2.65-1.94s.58,2.3,1.03,2.79c.45.48,6.99,1.91,6.99,1.91l-5.37-2.76Z" style="fill: #e1b18c;"/>
              <path d="M125.38,133.99c-1,1-7.96,5.28-8.17,5.39-3.47,1.7-4.69.59-7.97,1.5-.09.03-.19.05-.28.08-1.31.33-14.03.71-16.74.25h0c-2.83-.71-4.62.02-7.7-1.53-.41-.2-6.18-4.33-7.28-5.51,0,0,2.28-.22,6.87.31,7.89.92,21.46,1.74,36.9-.6,1.45-.21,2.91.4,4.39.12Z" style="fill: #711e22;"/>
              <path d="M83.54,135.09c.27,1.12.57,3.52.98,4.58,2.82,1.37,5.65,2.46,7.7,2.82h0c2.71.47,15.1.22,16.45.05,1.93-.25,5.83-1.85,8.55-3.16.44-1.04.68-3.52.88-4.65-5.92,1.1-20.28,3.14-34.56.36Z" style="fill: url(#linear-gradient-25);"/>
              <path d="M83.17,133.92c.28,1.27.58,2.13.98,3.39,3.63.6,11.1,1.2,17.08,1.24,5.75.04,12.7-.81,16.36-1.52.29-1,.47-2.07.63-3.06-4.51.18-15.01.81-35.05-.05Z" style="fill: #f3eceb;"/>
            </g>
            <path d="M126.44,132.92c-9.46,1.07-20.08,1.15-24.43,1.12-5.18-.04-18.78-.44-26.33-1.12,0,0,.41.85,1.16,1.3,1.21.73,5.67,1.03,24.9,1.12,14.14.07,22.27-.97,23.65-1.35.72-.2,1.06-1.07,1.06-1.07Z" style="fill: url(#linear-gradient-26);"/>
            <path d="M80.92,141.54s8.49,4.05,10,4.17c3.85.29,17.35.83,18.6.55,2.99-.68,8.29-4.15,11.42-5.79,0,0-8.91,8.81-19.42,8.77-9.67-.04-16.66-5.12-20.59-7.69Z" style="fill: url(#linear-gradient-27);"/>
            <path d="M92.13,147.58s4.66,1.83,9.75,1.85c2.72,0,7.09-1.55,7.09-1.55,0,0-6.3.09-16.84-.3Z" style="fill: url(#linear-gradient-28);"/>
          </g>
        </g>
        <path d="M100.21,186.3s12.62.17,17.39-2.59c4.77-2.77-11.94,16.15-13.43,16.4-1.49.24-3.95-13.8-3.95-13.8Z" style="fill: url(#linear-gradient-29);"/>
        <g>
          <path d="M86.94,201.53s6.83,6.28,8.09,7.39c1.21,1.06,4.95,18.55,4.95,18.55l-2.15,36.69-19.64-54.48,8.75-8.14Z" style="fill: url(#linear-gradient-30);"/>
          <path d="M56.57,189.63c0,4.09,7.23,33.57,7.7,35.15,0,0,8.93-7.71,14.93-12.5l7.74-10.75s-30.37-15.99-30.37-11.9Z" style="fill: url(#linear-gradient-31);"/>
          <path d="M72.03,168.17s-4.95,6.31-2.42,14.92c2.37,8.05,17.32,18.44,17.32,18.44,0,0-17.89,14.96-21.35,18.33-2.42-8.47-11.57-31.91-9.46-35.24,4.05-6.4,9.85-13.15,15.91-16.46Z" style="fill: url(#linear-gradient-32);"/>
          <path d="M72.03,168.17s-6.34,8.26,1.06,19.17c5.29,7.81,13.85,14.19,13.85,14.19,0,0-11.6-8.15-14.62-11.87-9.34-11.48-.28-21.5-.28-21.5Z" style="fill: url(#linear-gradient-33);"/>
          <path d="M115.47,201.23c-2.29,1.5-5.28,3.58-9,6.48-1.57,1.22-7.59,21.77-7.07,26.47.07.62.11,1.55.12,2.66,5.63-1.64,12.14-2.05,17.9-3.27.69-6.2.88-12.67,1.49-18.46.04-.37.33-5.32.33-5.32.38-3.66.16-3.46.33-5.85-2.01-.16-3.45-1.22-4.1-2.71Z" style="fill: url(#linear-gradient-34);"/>
          <path d="M115.47,201.23l3.77,8.56c4.24,3.31,17.16,11.62,23.79,14.99.81.41,5.84-30.09,7.04-38.56l-34.61,15.01Z" style="fill: url(#linear-gradient-35);"/>
          <path d="M115.47,201.23s24.1,16.27,27.17,19.59c2.69-10.61,7.76-30.97,7.76-37.04,0-3.19-13.63-15.47-16.77-17.07,0,0,1.77,5.23.87,10.31-3.22,18.22-19.03,24.21-19.03,24.21Z" style="fill: url(#linear-gradient-36);"/>
          <path d="M115.47,201.23s23.66-11.19,18.16-34.52c0,0,13.59,22.67-18.16,34.52Z" style="fill: url(#linear-gradient-37);"/>
          <path d="M115.47,201.23s-6.61,4.6-9.72,6.19c-3.11,1.6-5.9,21.93-5.9,21.93,0,0,5.63-17.71,6.65-19.36,1.02-1.65,8.97-8.76,8.97-8.76Z" style="fill: url(#linear-gradient-38);"/>
        </g>
        <path d="M127.92,209.79l14.73,11.03,4.57-18.83s-4.43,12.8-5.5,13.13c-1.07.33-13.8-5.33-13.8-5.33Z" style="fill: url(#linear-gradient-39);"/>
      </g>
    </g>
  </g>
</svg>