<?xml version="1.0" encoding="UTF-8"?>
<svg id="Layer_2" data-name="Layer 2" xmlns="http://www.w3.org/2000/svg" width="204.89" height="204.89" xmlns:xlink="http://www.w3.org/1999/xlink" viewBox="0 0 204.89 204.89">
  <defs>
    <clipPath id="clippath">
      <rect width="204.89" height="204.89" style="fill: none;"/>
    </clipPath>
    <linearGradient id="linear-gradient" x1="52.04" y1="112.49" x2="145.68" y2="254.38" gradientUnits="userSpaceOnUse">
      <stop offset="0" stop-color="#0b173d"/>
      <stop offset=".5" stop-color="#0c193f"/>
      <stop offset=".82" stop-color="#132248"/>
      <stop offset="1" stop-color="#192b51"/>
    </linearGradient>
    <linearGradient id="linear-gradient-2" x1="128.75" y1="172.65" x2="144.32" y2="177.02" gradientUnits="userSpaceOnUse">
      <stop offset="0" stop-color="#f0c499"/>
      <stop offset=".52" stop-color="#f4cfa5"/>
      <stop offset="1" stop-color="#f7d4ab"/>
    </linearGradient>
    <linearGradient id="linear-gradient-3" x1="78.47" y1="178.8" x2="143.69" y2="197.11" xlink:href="#linear-gradient-2"/>
    <linearGradient id="linear-gradient-4" x1="100.52" y1="215.69" x2="69.42" y2="174.02" gradientUnits="userSpaceOnUse">
      <stop offset="0" stop-color="#f0c499"/>
      <stop offset=".51" stop-color="#e3b086"/>
      <stop offset="1" stop-color="#dba379"/>
    </linearGradient>
    <linearGradient id="linear-gradient-5" x1="142.63" y1="177.67" x2="75.45" y2="152.34" xlink:href="#linear-gradient-4"/>
    <linearGradient id="linear-gradient-6" x1="55.39" y1="-304.3" x2="54.47" y2="-255.17" gradientTransform="translate(30.45 342.55) rotate(3.42) scale(1 .96)" gradientUnits="userSpaceOnUse">
      <stop offset="0" stop-color="#ffd9b3"/>
      <stop offset=".28" stop-color="#fbd6af"/>
      <stop offset="1" stop-color="#f7d4ab"/>
    </linearGradient>
    <linearGradient id="linear-gradient-7" x1="-758.68" y1="654.3" x2="-748.49" y2="679.02" gradientTransform="translate(-594.04 -619.81) rotate(177.48) scale(.99 -1.14) skewX(3.14)" gradientUnits="userSpaceOnUse">
      <stop offset="0" stop-color="#dba379"/>
      <stop offset=".49" stop-color="#e3b086"/>
      <stop offset="1" stop-color="#f0c499"/>
    </linearGradient>
    <linearGradient id="linear-gradient-8" x1="1028.9" y1="593.79" x2="1038.95" y2="618.16" gradientTransform="translate(-982.21 -618.93) rotate(2) scale(.99 1.14) skewX(3.13)" xlink:href="#linear-gradient-7"/>
    <linearGradient id="linear-gradient-9" x1="69.58" y1="-238.09" x2="85.98" y2="-222.6" gradientTransform="translate(31.27 319.64) rotate(3.42)" xlink:href="#linear-gradient-2"/>
    <linearGradient id="linear-gradient-10" x1="35.87" y1="-233.86" x2="32.01" y2="-217.51" gradientTransform="translate(31.27 319.64) rotate(3.42)" xlink:href="#linear-gradient-2"/>
    <radialGradient id="radial-gradient" cx="-932.22" cy="-89.37" fx="-932.22" fy="-89.37" r="23.12" gradientTransform="translate(-812.62 216.09) rotate(177.65) scale(1.02 -.71) skewX(-1.54)" gradientUnits="userSpaceOnUse">
      <stop offset="0" stop-color="#f8c39c"/>
      <stop offset="1" stop-color="#f7d4ab"/>
    </radialGradient>
    <radialGradient id="radial-gradient-2" cx="129.25" cy="-108.63" fx="129.25" fy="-108.63" r="23.71" gradientTransform="translate(-46.88 196.7) rotate(-3.81) scale(1.02 .69) skewX(2.86)" xlink:href="#radial-gradient"/>
    <linearGradient id="linear-gradient-11" x1="193" y1="164.14" x2="178.78" y2="169.04" gradientTransform="translate(-52.09 -57.83) rotate(-.26)" gradientUnits="userSpaceOnUse">
      <stop offset="0" stop-color="#fbd6af"/>
      <stop offset="1" stop-color="#f7d4ab"/>
    </linearGradient>
    <linearGradient id="linear-gradient-12" x1="128.89" y1="169.05" x2="107.79" y2="163.9" xlink:href="#linear-gradient-11"/>
    <linearGradient id="Gradient_58" data-name="Gradient 58" x1="-3710.49" y1="-229.84" x2="-3684.93" y2="-229.84" gradientTransform="translate(-3555.88 -631.31) rotate(-165.3) scale(1 -1)" gradientUnits="userSpaceOnUse">
      <stop offset="0" stop-color="#2b1b13"/>
      <stop offset=".04" stop-color="#2e1d14"/>
      <stop offset=".38" stop-color="#442b1d"/>
      <stop offset=".71" stop-color="#513423"/>
      <stop offset="1" stop-color="#563725"/>
    </linearGradient>
    <linearGradient id="Gradient_58-2" data-name="Gradient 58" x1="408.57" y1="611.52" x2="436.47" y2="611.52" gradientTransform="translate(-420.11 -420.23) rotate(-12.57)" xlink:href="#Gradient_58"/>
    <linearGradient id="linear-gradient-13" x1="200.05" y1="147.9" x2="172.82" y2="171.17" gradientTransform="translate(-58.47 -65.61) rotate(1.21)" xlink:href="#linear-gradient-4"/>
    <linearGradient id="linear-gradient-14" x1="185.41" y1="133.62" x2="160.08" y2="127.51" gradientTransform="translate(-44.6 -30.93)" gradientUnits="userSpaceOnUse">
      <stop offset="0" stop-color="#ece7e7"/>
      <stop offset=".23" stop-color="#f5f3f3"/>
      <stop offset=".53" stop-color="#fcfcfc"/>
      <stop offset="1" stop-color="#fff"/>
    </linearGradient>
    <linearGradient id="Gradient_96" data-name="Gradient 96" x1="188.66" y1="148.27" x2="164.6" y2="126.44" gradientTransform="translate(-44.6 -30.93)" gradientUnits="userSpaceOnUse">
      <stop offset="0" stop-color="#a8c3dd"/>
      <stop offset="1" stop-color="#7a90a5"/>
    </linearGradient>
    <linearGradient id="Gradient_96-2" data-name="Gradient 96" x1="81.48" y1="-213.79" x2="80.68" y2="-221.22" gradientTransform="translate(31.27 319.64) rotate(3.42)" xlink:href="#Gradient_96"/>
    <radialGradient id="Gradient_25" data-name="Gradient 25" cx="-927.14" cy="140.25" fx="-927.14" fy="140.25" r="4.04" gradientTransform="translate(1063.57 -20.31) rotate(1.3) skewX(.07)" gradientUnits="userSpaceOnUse">
      <stop offset="0" stop-color="#666"/>
      <stop offset="1" stop-color="#1d1d1d"/>
    </radialGradient>
    <linearGradient id="linear-gradient-15" x1="105.45" y1="153.36" x2="125.74" y2="152.39" gradientTransform="translate(11.51 -59.27) rotate(1.2)" gradientUnits="userSpaceOnUse">
      <stop offset="0" stop-color="#2b1b13"/>
      <stop offset=".04" stop-color="#2e1d14"/>
      <stop offset=".38" stop-color="#442b1d"/>
      <stop offset=".71" stop-color="#513423"/>
      <stop offset="1" stop-color="#563725"/>
    </linearGradient>
    <linearGradient id="linear-gradient-16" x1="64.98" y1="-119.06" x2="62.59" y2="-150.22" gradientTransform="translate(31.27 319.64) rotate(3.42)" gradientUnits="userSpaceOnUse">
      <stop offset="0" stop-color="#f7d4ab"/>
      <stop offset=".45" stop-color="#f3caa0"/>
      <stop offset="1" stop-color="#f0c499"/>
    </linearGradient>
    <linearGradient id="linear-gradient-17" x1="-3612.44" y1="228.83" x2="-3639.47" y2="251.93" gradientTransform="translate(-3550.45 -66.02) rotate(178.8) scale(1 -1)" xlink:href="#linear-gradient-4"/>
    <linearGradient id="linear-gradient-18" x1="141.48" y1="133.4" x2="115.46" y2="127.12" xlink:href="#linear-gradient-14"/>
    <linearGradient id="Gradient_96-3" data-name="Gradient 96" x1="144.22" y1="148.6" x2="120.08" y2="126.69" xlink:href="#Gradient_96"/>
    <linearGradient id="Gradient_96-4" data-name="Gradient 96" x1="36.89" y1="-208.94" x2="36.08" y2="-216.37" gradientTransform="translate(31.27 319.64) rotate(3.42)" xlink:href="#Gradient_96"/>
    <radialGradient id="Gradient_25-2" data-name="Gradient 25" cx="-4953.36" cy="232.41" fx="-4953.36" fy="232.41" r="4.04" gradientTransform="translate(-4880.15 -20.91) rotate(178.7) scale(1 -1) skewX(.09)" xlink:href="#Gradient_25"/>
    <linearGradient id="linear-gradient-19" x1="-3706.9" y1="233.06" x2="-3686.78" y2="232.11" gradientTransform="translate(-3620.43 -59.7) rotate(178.81) scale(1 -1)" xlink:href="#linear-gradient-15"/>
    <linearGradient id="Gradient_32" data-name="Gradient 32" x1="62.47" y1="-305.28" x2="45.34" y2="-154.09" gradientTransform="translate(31.27 319.64) rotate(3.42)" gradientUnits="userSpaceOnUse">
      <stop offset="0" stop-color="#724831"/>
      <stop offset=".22" stop-color="#67412c"/>
      <stop offset=".63" stop-color="#5a3926"/>
      <stop offset="1" stop-color="#563725"/>
    </linearGradient>
    <linearGradient id="Gradient_32-2" data-name="Gradient 32" x1="11.01" y1="-266.58" x2=".24" y2="-171.45" xlink:href="#Gradient_32"/>
    <linearGradient id="linear-gradient-20" x1="62.75" y1="-220.53" x2="62.43" y2="-224.67" gradientTransform="translate(28.44 366.33) rotate(3.42) scale(1 .93)" xlink:href="#linear-gradient-16"/>
    <linearGradient id="Gradient_115" data-name="Gradient 115" x1="102" y1="122.9" x2="99.93" y2="175.86" gradientUnits="userSpaceOnUse">
      <stop offset="0" stop-color="#d6ac88"/>
      <stop offset="1" stop-color="#a18166"/>
    </linearGradient>
    <linearGradient id="Gradient_115-2" data-name="Gradient 115" x1="102.99" y1="122.94" x2="100.91" y2="175.9" xlink:href="#Gradient_115"/>
    <linearGradient id="Gradient_27" data-name="Gradient 27" x1="103.21" y1="58.4" x2="115.62" y2="17.57" gradientUnits="userSpaceOnUse">
      <stop offset="0" stop-color="#724831"/>
      <stop offset=".42" stop-color="#7f553b"/>
      <stop offset="1" stop-color="#8e6346"/>
    </linearGradient>
    <linearGradient id="Gradient_27-2" data-name="Gradient 27" x1="86.29" y1="53.26" x2="98.7" y2="12.43" xlink:href="#Gradient_27"/>
    <linearGradient id="Gradient_27-3" data-name="Gradient 27" x1="73.02" y1="49.56" x2="85.72" y2="7.78" xlink:href="#Gradient_27"/>
    <linearGradient id="Gradient_27-4" data-name="Gradient 27" x1="64.31" y1="45.07" x2="76.71" y2="4.24" xlink:href="#Gradient_27"/>
    <linearGradient id="Gradient_27-5" data-name="Gradient 27" x1="118.57" y1="63.07" x2="130.98" y2="22.24" xlink:href="#Gradient_27"/>
    <linearGradient id="Gradient_27-6" data-name="Gradient 27" x1="132.1" y1="67.18" x2="144.5" y2="26.35" xlink:href="#Gradient_27"/>
    <linearGradient id="Gradient_27-7" data-name="Gradient 27" x1="54.6" y1="43.63" x2="67.01" y2="2.8" xlink:href="#Gradient_27"/>
    <linearGradient id="Gradient_27-8" data-name="Gradient 27" x1="-1.61" y1="-257.23" x2="7.75" y2="-256" gradientTransform="translate(31.27 319.64) rotate(3.42)" xlink:href="#Gradient_27"/>
    <linearGradient id="Gradient_27-9" data-name="Gradient 27" x1="144.5" y1="71.14" x2="157.65" y2="27.87" xlink:href="#Gradient_27"/>
    <linearGradient id="Gradient_58-3" data-name="Gradient 58" x1="15.86" y1="-167.69" x2="109.51" y2="-335.45" gradientTransform="translate(31.27 319.64) rotate(3.42)" xlink:href="#Gradient_58"/>
    <linearGradient id="Gradient_115-3" data-name="Gradient 115" x1="63.02" y1="-198.76" x2="62.47" y2="-205.88" gradientTransform="translate(28.44 366.33) rotate(3.42) scale(1 .93)" xlink:href="#Gradient_115"/>
    <linearGradient id="Gradient_115-4" data-name="Gradient 115" x1="43.47" y1="-174.82" x2="42.66" y2="-178.27" gradientTransform="translate(31.27 319.64) rotate(3.42)" xlink:href="#Gradient_115"/>
    <linearGradient id="Gradient_115-5" data-name="Gradient 115" x1="79.85" y1="-177.47" x2="79.03" y2="-180.97" gradientTransform="translate(31.27 319.64) rotate(3.42)" xlink:href="#Gradient_115"/>
    <linearGradient id="Gradient_113" data-name="Gradient 113" x1="60.51" y1="-204.77" x2="59.32" y2="-188.46" gradientTransform="translate(31.27 319.64) rotate(3.42)" gradientUnits="userSpaceOnUse">
      <stop offset="0" stop-color="#a18166"/>
      <stop offset="1" stop-color="#d6ac88"/>
    </linearGradient>
    <linearGradient id="linear-gradient-21" x1="192.64" y1="351.97" x2="193.34" y2="376.41" gradientTransform="translate(-105.73 -251.75) rotate(-2.17)" gradientUnits="userSpaceOnUse">
      <stop offset="0" stop-color="#f7d4ab"/>
      <stop offset=".52" stop-color="#f5d1a8"/>
      <stop offset=".85" stop-color="#f2c99f"/>
      <stop offset="1" stop-color="#f0c499"/>
    </linearGradient>
    <linearGradient id="linear-gradient-22" x1="193.01" y1="835.31" x2="194.52" y2="824.16" gradientTransform="translate(-145.24 -1291) rotate(-2.16) scale(1 1.7) skewX(.04)" xlink:href="#linear-gradient-6"/>
    <linearGradient id="linear-gradient-23" x1="253.95" y1="1038.54" x2="252.68" y2="1031.41" gradientTransform="translate(-161.84 -886.52) rotate(-.51)" xlink:href="#linear-gradient-21"/>
    <linearGradient id="linear-gradient-24" x1="309.94" y1="1100.37" x2="310.15" y2="1093.26" gradientTransform="translate(-268.34 -944.67) rotate(-3.14)" gradientUnits="userSpaceOnUse">
      <stop offset="0" stop-color="#f7d4ab"/>
      <stop offset=".76" stop-color="#f2c89e"/>
      <stop offset="1" stop-color="#f0c499"/>
    </linearGradient>
    <linearGradient id="linear-gradient-25" x1="199.34" y1="914.85" x2="194.5" y2="897.66" gradientTransform="translate(-157.07 -757.6) rotate(-3.86)" xlink:href="#linear-gradient-7"/>
    <linearGradient id="linear-gradient-26" x1="272.43" y1="974.61" x2="272.36" y2="970.08" gradientTransform="translate(-201.48 -822.07) rotate(-1.81)" xlink:href="#linear-gradient-7"/>
    <linearGradient id="linear-gradient-27" x1="61.22" y1="330.89" x2="59.77" y2="325.76" gradientTransform="translate(64.98 -193.83) rotate(4.22)" gradientUnits="userSpaceOnUse">
      <stop offset="0" stop-color="#ffd9b3"/>
      <stop offset="1" stop-color="#f7d4ab"/>
    </linearGradient>
    <linearGradient id="Gradient_115-6" data-name="Gradient 115" x1="63.86" y1="-222.63" x2="62.66" y2="-227.72" gradientTransform="translate(28.44 366.33) rotate(3.42) scale(1 .93)" xlink:href="#Gradient_115"/>
    <linearGradient id="linear-gradient-28" x1="101.76" y1="182.05" x2="104.29" y2="330.05" gradientUnits="userSpaceOnUse">
      <stop offset="0" stop-color="#2b416b"/>
      <stop offset=".46" stop-color="#293e68"/>
      <stop offset=".75" stop-color="#23375f"/>
      <stop offset="1" stop-color="#192b51"/>
    </linearGradient>
    <linearGradient id="linear-gradient-29" x1="99.45" y1="190.28" x2="120" y2="190.28" gradientTransform="matrix(1,0,0,1,0,0)" xlink:href="#linear-gradient-6"/>
    <linearGradient id="linear-gradient-30" x1="116.09" y1="362.18" x2="87.75" y2="210.89" xlink:href="#linear-gradient-28"/>
    <linearGradient id="linear-gradient-31" x1="70.57" y1="259.22" x2="71.41" y2="217.78" xlink:href="#linear-gradient-28"/>
    <linearGradient id="linear-gradient-32" x1="71.49" y1="301.02" x2="71.49" y2="177.81" xlink:href="#linear-gradient-28"/>
    <linearGradient id="linear-gradient-33" x1="77.84" y1="205.41" x2="76.81" y2="133.76" xlink:href="#linear-gradient"/>
    <linearGradient id="linear-gradient-34" x1="76.56" y1="339.07" x2="121.88" y2="186.13" xlink:href="#linear-gradient-28"/>
    <linearGradient id="linear-gradient-35" x1="131.46" y1="263.57" x2="132.34" y2="220.41" xlink:href="#linear-gradient-28"/>
    <linearGradient id="linear-gradient-36" x1="133.05" y1="312.35" x2="133.05" y2="175.09" xlink:href="#linear-gradient-28"/>
    <linearGradient id="linear-gradient-37" x1="126.33" y1="204.93" x2="125.44" y2="143.35" xlink:href="#linear-gradient"/>
    <linearGradient id="linear-gradient-38" x1="112.71" y1="223.61" x2="123" y2="240.93" xlink:href="#linear-gradient-28"/>
    <linearGradient id="linear-gradient-39" x1="146.4" y1="220.57" x2="157.2" y2="238.76" xlink:href="#linear-gradient-28"/>
  </defs>
  <g id="Layer_1-2" data-name="Layer 1">
    <g style="clip-path: url(#clippath);">
      <g>
        <path d="M70.64,169.15s25.47-18.7,63.1-2.44c0,0,17.81,22.47.85,38.81-16.96,16.34-59.9,14.8-66.11,1.41-6.2-13.39-2.78-34.93,2.16-37.78Z" style="fill: url(#linear-gradient);"/>
        <path d="M134.48,186.49l6.66-8.51s-7.23-2.17-10.07-16.92c-.12.11-.24.22-.36.34-.87,8.81.71,17.24,3.77,25.09Z" style="fill: url(#linear-gradient-2);"/>
        <path d="M130.71,161.41c-11.43,10.5-16.96,14.97-31.67,14.05-5.69,0-16.94,2.61-24.05-2.09,5.96,11.97,17.22,21.08,26.44,29.14,3.8,3.8,5.36,10.31,7.33,16.85l25.73-32.86c-3.06-7.85-4.64-16.28-3.77-25.09Z" style="fill: url(#linear-gradient-3);"/>
        <path d="M83.35,174.83s-9.84-2.47-10.52-3.02c-1.21,2.84-2.69,5.81-4.52,8.9l31.5,51.88,8.94-13.23c-1.96-6.54-3.52-13.04-7.33-16.85-9.22-8.06-14.7-16.01-18.07-27.68Z" style="fill: url(#linear-gradient-4);"/>
        <path d="M131.07,161.07c-.53-2.76-.91-5.96-1.06-9.66l-58.14-14.7s3.12,16.83.97,35.1c7.04,5.71,20.98,6.64,27.26,6.64,14.87.93,25.81-7.81,30.97-17.38Z" style="fill: url(#linear-gradient-5);"/>
        <path d="M223.47,220.76c-15.56-5.75-74.21-32.38-74.21-32.38l-47.79,44.91-40.82-44.91S-7.99,216.03-18.62,220.76l28.4,84.45-.06,4.45h186.72l27.03-88.9Z" style="fill: #192b51;"/>
        <g>
          <path d="M58.17,97.86s3.47,47.16,4.78,49.13c1.32,1.97,21.19,16.53,23.76,18.72,2.57,2.19,29.21.84,29.21.84,0,0,22.39-16.52,24.33-19.74,1.94-3.22,5.25-49.7,5.25-49.7,0,0,5.87-37.91-3.19-50.91-9.07-13-70.86-17.21-81.11.87-10.25,18.08-3.03,50.8-3.03,50.8Z" style="fill: url(#linear-gradient-6);"/>
          <g>
            <path d="M153.33,93.18c9.67-.71,3.37,14.46,3.37,14.46-3.75,19.64-2.13,23.02-10.72,22.29-6.36-.54.45-36.24,7.36-36.75Z" style="fill: #f0c499;"/>
            <path d="M147.56,121.43s3.06-3.43,2.9-10.79c-.37-17.35,8.76-17.66,5.61-6.15,0,0-.73-5.64-2.03-4.1-1.59,1.89,1.21,3.29-1.1,12-1.21,4.53-5.38,9.03-5.38,9.03Z" style="fill: url(#linear-gradient-7);"/>
          </g>
          <g>
            <path d="M50.93,93.46c-9.66-.39-3.53,14.57-3.53,14.57,3.53,19.52,3,22.43,10.48,21.94,8.4-.55-.05-36.23-6.95-36.51Z" style="fill: #f0c499;"/>
            <path d="M56.39,121.52s-3.02-3.33-2.78-10.7c.56-17.36-8.56-17.38-5.54-5.97,0,0,.79-5.66,2.07-4.16,1.57,1.84-1.24,3.33.97,11.97,1.16,4.49,5.29,8.86,5.29,8.86Z" style="fill: url(#linear-gradient-8);"/>
          </g>
          <path d="M114.76,86.57s-6.53,7.89-6.38,8.76c.14.87,1.26,11.4,1.26,11.4,0,0,25.44-.8,28.76-1.84,3.32-1.04,5.06-11.27,5.06-11.27l-6.02-9.77s-5.28-2.41-6.03-1.92-16.65,4.63-16.65,4.63Z" style="fill: url(#linear-gradient-9);"/>
          <path d="M88.21,86.55s6.44,7.5,6.33,8.38c-.11.88-.45,11.58-.45,11.58,0,0-25.45.15-28.81-.76-3.36-.91-4.44-7.4-4.44-7.4l.55-6.39s5.44-4.95,6.13-5.51c5.36-4.38,20.69.11,20.69.11Z" style="fill: url(#linear-gradient-10);"/>
          <path d="M127.24,129.89c8.22.5,17.39-.56,19.04-17.27.94-9.52-.12-14.48-4.19-15.21-8.63-1.55-20.97,2.21-26.11,4.87-10.85,5.61-3.29,26.71,11.27,27.61Z" style="fill: url(#radial-gradient);"/>
          <path d="M86.09,101.02c-2.35-.83-20.25-4.75-25.57-3.2-3.03.88-1.73,7.58-1.19,13.95.26,3.05.24,7.94.95,9.86,3.48,9.4,16.6,9.76,24.16,7.1,12.91-4.54,13.58-23.49,1.65-27.71Z" style="fill: url(#radial-gradient-2);"/>
          <path d="M141.24,103.94c-1.49-.81-2.58.38-5.66,1.39-3.02.99-11.26,2.55-7.37,4.6,4.3,2.27,10.27-.89,11-1.48.72-.59,3.87-3.5,2.03-4.51Z" style="fill: url(#linear-gradient-11);"/>
          <path d="M68.29,106.25c-3.13-.83-4.3-1.94-5.73-1.05-1.77,1.11,1.55,3.83,2.3,4.38.76.55,6.92,3.35,11.06.83,3.76-2.28-4.57-3.35-7.64-4.16Z" style="fill: url(#linear-gradient-12);"/>
          <path d="M72.05,81.81c3.03-2.81,10.71-.23,14.51.86,2.15.61,5.19,1.48,6.98,2.72-.08,1.27-.28,2.15-1.04,3.48,1.08-.53,1.65-1.86,1.7-2.89.05.04.93,2.56-1.05,4.66-.94,1-4.12-.87-12.02-3.15-2.15-.62-5.76-1.9-8.99-1.7-1.18.07-3.68.65-3.68.65-.13-.45,2.13-3.29,3.58-4.63Z" style="fill: url(#Gradient_58);"/>
          <path d="M132.25,81.43c-2.3-2.17-9.9-.57-13.83.51-2.01.55-7.25,1.57-9.13,2.75.03,1.27.2,2.16.92,3.51-1.09-.56-1.61-1.92-1.63-2.94-.05.04-1.05,2.52.89,4.69.92,1.04,4.25-.72,12.43-2.72,2.22-.54,6.97-1.69,9.28-1.38,1.2.16,5.44.6,5.44.6.15-.44-1.79-2.58-4.37-5.02Z" style="fill: url(#Gradient_58-2);"/>
          <g>
            <path d="M111.57,102.12c-1.02-1.23.04-3.84.61-5.48,1.79-5.11,5.68-6.8,13.73-6.98,2.64-.06,7.21.5,10.01,3.08,2.16,1.99,3.4,3.96,3.16,5.73-.12.9-4.35,5.97-13.13,6.24-5.74.18-12.27-.05-14.39-2.59Z" style="fill: url(#linear-gradient-13);"/>
            <path d="M134.92,98.42c-.22.59-.54,1.11-.94,1.59-.62.75-1.41,1.36-2.3,1.83-.33.15-.68.25-1.05.33-.05.02-.1.02-.14.03-.59.13-1.15.26-1.67.36-2.78.56-4.93.82-6.75.82-.75,0-1.43-.05-2.08-.13-.32-.03-.63-.1-.94-.18-2.67-.62-4.67-2.37-5.05-3.09,0,0,0-.02.02-.03v-.02c.14-.33,1.18-2.55,2.83-4.32,1.03-1.1,2.32-2.01,3.8-2.18.48-.05.94-.1,1.4-.11,8.33-.34,12.49,4.6,12.87,5.07.02.02.02.03.02.03Z" style="fill: url(#linear-gradient-14);"/>
            <path d="M134.9,98.38s.02.04.02.04c-.23.59-.55,1.12-.94,1.6-.1-.06-.22-.13-.35-.2-.84-.45-2.36-1.07-5.2-1.3-11.75-.97-14.29,1.3-14.42,1.42,0,0,0,0,0,0,.36-1.86,1.42-3.27,2.83-4.32,1.48-1.1,3.34-1.83,5.19-2.29,1.53-.38,3.04-.59,4.34-.69,4.16-.32,8.17,5.24,8.53,5.75Z" style="fill: #ddd;"/>
            <path d="M131.36,100.46c-.06.34-.24,1.27-.44,1.63-.13.08-.59.26-.76.34-.59.13-1.22.32-1.75.42-2.78.56-4.52.51-6.35.51-.75,0-1.43-.05-2.08-.13-.32-.03-.63-.1-.94-.18-.57-.75-1.11-1.85-1.08-3.35.09-3.97,3.43-5.74,7.12-5.45,3.67.31,6.87,2.37,6.28,6.2Z" style="fill: url(#Gradient_96);"/>
            <path d="M118.1,98.52s5.21-1.14,13.31.56c0,0-.15-4.13-5.02-5.02-4.58-.84-7.95,2.1-8.28,4.46Z" style="fill: url(#Gradient_96-2);"/>
            <path d="M125.04,94.81c-2.25-.12-4.34,1.64-4.45,3.91-.11,2.26,1.79,4.17,4.05,4.29,2.26.12,4.18-1.63,4.29-3.89.11-2.26-1.63-4.2-3.89-4.31Z" style="fill: url(#Gradient_25);"/>
            <path d="M124.89,94.81c-2.66-.15-3.9,1.79-4.24,3.4,0,0,4.37-.43,8.26.38,0,0-.21-3.58-4.03-3.78Z"/>
            <path d="M130.49,101.53c.44-.82.09-1.88-.77-2.37-.86-.48-1.92-.2-2.37.63-.44.83-.1,1.88.77,2.37.86.48,1.92.2,2.37-.63Z" style="fill: #fff;"/>
            <path d="M126.37,99.33c.35-.65.08-1.48-.6-1.86-.68-.38-1.52-.16-1.87.5-.35.65-.08,1.48.6,1.86.69.38,1.53.16,1.87-.5Z" style="fill: #fff;"/>
            <path d="M114,99.95s-.39-3.12,3.35-5.67c3.93-2.67,10.58-2.6,14.43-.19,2.32,1.45,3.14,4.33,3.14,4.33,0,0-4.9-3.47-10.14-3.23-2.91.13-4.02.39-5.32.7-3.42.82-5.46,4.06-5.46,4.06Z" style="fill: url(#linear-gradient-15);"/>
          </g>
          <path d="M70.4,51.23c1.71-.82,26.73,2.72,30.65,1.83,3.92-.89,25.01-4.72,29.1-2.44s6.99,6.83,7.39,9.35-.25,14.95,0,16.97c.24,2.02,3.79,4.54,4.8,16.27s.48,22.86-.15,27.73c-.62,4.87-5.11,21.04-5.11,21.04l8.19-23.63s.82-2.8,1-5.73c.18-2.93,2.36-38.58,2.36-38.58l-11.73-34.71-68.76-3.29-14.87,33.27,3.84,40.17,1.86,5.41,5.82,20.47s-2.22-24.65-2.93-26.12c-.71-1.47-.71-14.79-.47-17.28.66-6.78,4.03-13.38,4.46-15.18.42-1.81-1.69-14.61-1.26-16.42.43-1.81,5.81-9.12,5.81-9.12Z" style="fill: url(#linear-gradient-16);"/>
          <g>
            <path d="M92.69,102.44c1.01-1.22-.04-3.84-.61-5.48-1.78-5.11-5.63-6.81-13.61-6.98-2.62-.06-7.14.5-9.92,3.08-2.14,1.99-3.37,3.96-3.13,5.73.12.9,4.31,5.97,13.01,6.24,5.69.18,12.16-.04,14.26-2.59Z" style="fill: url(#linear-gradient-17);"/>
            <path d="M90.29,100.29c-.36.7-2.24,2.34-4.71,3.01-.39.11-.8.21-1.23.26-.64.08-1.34.13-2.08.13-1.8,0-3.92-.26-6.68-.82-.35-.07-.69-.15-1.05-.21-.25-.07-.5-.12-.76-.16-.36-.08-.69-.2-1.02-.33-.88-.47-1.67-1.1-2.28-1.85-.39-.46-.71-1-.93-1.59,0,0,0-.02.02-.03.38-.46,4.51-5.4,12.76-5.07.44.03.91.07,1.39.11,1.46.16,2.72,1.08,3.76,2.18,1.64,1.77,2.66,3.99,2.8,4.32v.02s.02.03.02.03Z" style="fill: url(#linear-gradient-18);"/>
            <path d="M69.57,98.7s-.02.04-.02.04c.23.59.54,1.12.93,1.6.1-.06.22-.13.35-.2.83-.45,2.33-1.07,5.16-1.3,11.65-.97,14.16,1.3,14.29,1.42,0,0,0,0,0,0-.36-1.86-1.41-3.27-2.81-4.32-1.47-1.11-3.31-1.83-5.15-2.29-1.51-.38-3.02-.59-4.3-.69-4.12-.32-8.1,5.24-8.46,5.75Z" style="fill: #ddd;"/>
            <path d="M86.59,100.03c.03,1.46-.47,2.54-1.01,3.27-.39.11-.8.21-1.23.26-.64.08-1.34.13-2.08.13-1.8,0-3.54.13-6.27-.51-.34-.08-1.03-.35-1.39-.42-.33-.12-.59-.13-.79-.26-.21-.38-.46-1.38-.51-1.72-.58-3.83,2.58-5.89,6.22-6.18,3.65-.31,6.96,1.46,7.06,5.43Z" style="fill: url(#Gradient_96-3);"/>
            <path d="M86.45,98.84s-5.17-1.14-13.19.56c0,0,.15-4.13,4.98-5.02,4.54-.83,7.87,2.1,8.21,4.46Z" style="fill: url(#Gradient_96-4);"/>
            <path d="M79.58,95.14c2.23-.12,4.3,1.65,4.41,3.91.11,2.27-1.78,4.17-4.01,4.29-2.24.12-4.14-1.63-4.25-3.89-.11-2.26,1.62-4.2,3.85-4.31Z" style="fill: url(#Gradient_25-2);"/>
            <path d="M79.72,95.13c2.64-.15,3.87,1.79,4.2,3.4,0,0-4.33-.43-8.19.38,0,0,.21-3.58,3.99-3.78Z"/>
            <path d="M81.54,102.32c-.44-.82-.09-1.88.77-2.37.86-.48,1.91-.2,2.34.63.44.83.09,1.88-.76,2.37-.86.48-1.91.2-2.35-.63Z" style="fill: #fff;"/>
            <path d="M78.68,99.92c-.35-.65-.08-1.48.6-1.86.68-.38,1.51-.16,1.86.5.35.65.08,1.48-.6,1.86-.68.38-1.51.16-1.86-.5Z" style="fill: #fff;"/>
            <path d="M90.28,100.27s.39-3.12-3.32-5.67c-3.89-2.67-10.48-2.6-14.3-.2-2.3,1.45-3.11,4.33-3.11,4.33,0,0,4.85-3.47,10.05-3.23,2.88.13,3.98.39,5.28.71,3.39.82,5.41,4.06,5.41,4.06Z" style="fill: url(#linear-gradient-19);"/>
          </g>
          <path d="M62.37,52.29s6.71-9.76,23.69-7.09c11.29,1.77,11.76,1.65,15.55,2.49,3.79.84,21.96-6.16,29.94-3.03,7.98,3.13,8.77,12.34,8.83,16.88.06,4.54-.91,15.24.2,15.95,1.11.71,5.1,5.2,4.74,11.41-.36,6.22.96,23.71.96,23.71,0,0,1.29-18.91,7.72-19.46l.4-13.02s2.57-8.94,2.79-12.64c.41-6.98-1.57-12.91-1.68-14.08-.29-3-5.41-8.2-6.3-9.2,0,0,3.25-7-5.67-11.87,0,0-1.81-14.63-17.63-17.95s-29.12-2.41-34-.7c0,0-17.46-4.47-26.05,6.96,0,0-11.02,4.38-12.14,15.23s2.59,15.26,3.19,15.1l5.47,1.31Z" style="fill: url(#Gradient_32);"/>
          <path d="M64.06,50.98s-5.47,7.03-3.68,21.08c0,0-2.75,7.71-2.75,12.82,0,5.11,1.51,24.84,1.51,24.84,0,0-3.34-16.76-9.65-16.2,0,0-1.23-11.57-1.54-12.31,0,0-4.9-9.17-1.45-19.91,1.99-6.2,10.4-10.33,10.4-10.33h7.17Z" style="fill: url(#Gradient_32-2);"/>
          <path d="M77.03,144.86s12.35,6.97,12.99,6.86c.64-.11,10.38-5.16,10.38-5.16,0,0,10.92,5.5,13.38,5.31,2.45-.19,14.88-8.03,14.88-8.03,0,0-12.82,11.89-15.33,13.07-2.51,1.18-27.78-.27-27.78-.27l-8.51-11.78Z" style="fill: url(#linear-gradient-20);"/>
          <path d="M145.28,118.25s-1.45,23.07-3.47,27.56c-2.02,4.48-21.68,19.51-25.94,23.04s-23.21,1.79-26.27,1.25c-3.06-.54-25.12-19.34-28.17-24.29-3.05-4.95-2.09-34.04-2.09-34.04,0,0,4.01,20.65,6.83,24.64s20.33,14.6,23.36,16.61c1.28.85,4.48-1.02,6.58-3.88,2-2.73,1.07-4.1,6.18-3.79,4.11.24,3.25,1.92,6.2,5.36,2.08,2.43,3.31,3.52,4.83,3.21,3.66-.73,25.04-17.06,25.97-19.25.93-2.19,5.99-16.42,5.99-16.42Z" style="fill: url(#Gradient_115);"/>
          <path d="M78.23,133.87s15.38-8.99,16.61-8.62c7.4,2.25,14.9-.52,15.84-.83.94-.3,8.64,6.5,13.27,9.44,0,0,3.83,12.75,4.24,15.3.51,3.15-4.93,4.87-4.93,4.87,0,0-1.4-15.58-2.24-18.78-5.92-2.79-27.35-1.76-27.35-1.76,0,0-7.73.82-12.4,2.13-.37,4.68-.42,16.72-.42,16.72,0,0-2.84.5-5.13-3.9.55-5.6,2.51-14.58,2.51-14.58Z" style="fill: url(#Gradient_115-2);"/>
          <path d="M102.07,38.77s-.18-23.32,28.58-22.88c0,0-16.71-10.07-27.33,1.54-10.61,11.61-1.26,21.33-1.26,21.33Z" style="fill: url(#Gradient_27);"/>
          <path d="M89.04,36.47s1.28-18.07,18.1-22.18c0,0-5.6-7.17-15.25-.59-9.65,6.58-2.85,22.78-2.85,22.78Z" style="fill: url(#Gradient_27-2);"/>
          <path d="M82.02,37.57s-3.53-19.24,9.88-23.88c0,0-10.38-7.23-16.61,3.39-6.23,10.62,6.73,20.49,6.73,20.49Z" style="fill: url(#Gradient_27-3);"/>
          <path d="M69.74,38.77s-12.23-11.03-3.89-19.62c8.34-8.59,15.6-5.48,15.6-5.48,0,0-8.26,5.13-9.8,11.27-1.54,6.14-1.91,13.83-1.91,13.83Z" style="fill: url(#Gradient_27-4);"/>
          <path d="M112.06,36.07s.12-14.98,11.75-17.67c11.63-2.69,18.38,4.37,19.72,13.94,0,0-2.69-11.02-16.61-6.72-9.43,2.91-14.87,10.44-14.87,10.44Z" style="fill: url(#Gradient_27-5);"/>
          <path d="M129.91,41.77s12.99-6.75,19.29,2.45c0,0,.7-10.13-9.08-10.72-9.78-.58-10.21,8.27-10.21,8.27Z" style="fill: url(#Gradient_27-6);"/>
          <path d="M56.89,50.98s-7.53-5.16-2.88-20.31c2.37-7.72,11.83-10.02,11.83-10.02,0,0-3.8,3.04-8.96,16.15-2.42,6.15,0,14.17,0,14.17Z" style="fill: url(#Gradient_27-7);"/>
          <path d="M56.89,50.98s-7.72.13-11.4,9.65c-2.02,5.23,4.08,17.11,4.08,17.11,0,0-1.33-11.3.64-16.97,2.23-6.43,6.69-9.8,6.69-9.8Z" style="fill: url(#Gradient_27-8);"/>
          <path d="M142.29,46.54s9.5-4.3,13.19,5.26c2.39,6.2,2.63,10.46-2.09,18.59,0,0,.36-12.46-1.9-15.99-2.26-3.53-9.19-7.86-9.19-7.86Z" style="fill: url(#Gradient_27-9);"/>
          <path d="M59.33,111.76s.22-6.89.04-18.31c-.1-6.65,1-11.38,4.69-16.87,0,0-2.01-15.8-1.13-17.86,1.96-4.58,8.63-10.89,9.86-11.09s26.69,2.04,29.83,1.68c3.14-.36,23.16-3.7,28.91-.73,2.42,1.25,8.51,6.82,8.67,9.89.16,3.07-.75,18.31-.75,18.31,0,0,5.01,5.79,4.92,14.06-.09,8.27,1.88,21.78,1.88,21.78,0,0,2.14-25.43,1.9-28.3-.24-2.86-1.61-27.23-2.7-29.74-1.1-2.51-10.19-11.81-15.56-12.81-5.37-1-27.46,1.45-28.44,2.06-.99.61-27.27-6.42-31.73-3.55-4.46,2.87-13.05,12.9-13.01,15.5s-1.57,23.52-1.52,25.51c.02.85,4.13,30.47,4.13,30.47Z" style="fill: url(#Gradient_58-3);"/>
          <path d="M64.82,149.77s23.3,17.25,25.48,18.11c4.33,1.7,18.53,2.43,23.05.43,7.13-3.16,24.96-18.28,24.96-18.28,0,0-13.62,15.69-25.13,21.12-3.13,1.48-19.29,1.18-23.64-.21-4.33-1.39-23.83-20.07-24.72-21.17Z" style="fill: url(#Gradient_115-3);"/>
          <path d="M80.96,141.21l.38-5.6c2.02.25,4.51-2.1,4.51-2.1,0,0-3.07,1.22-5.35,1.58-1.37.22.46,6.11.46,6.11Z" style="fill: url(#Gradient_115-4);"/>
          <path d="M121.76,139.88l-.65-4.76-4.85-1.23s4.68.69,5.88.79c.89.07-.38,5.2-.38,5.2Z" style="fill: url(#Gradient_115-5);"/>
          <path d="M91.94,126.52s10.81,5.44,11.28,5.33c.47-.11,10.61-5.45,10.61-5.45,0,0-1.29-2.05-3.14-2.16-3.2-.19-6.54,2.72-8.74,2.18-.95-.23-5.75-1.59-8.33-1.73-1.85-.1-1.68,1.83-1.68,1.83Z" style="fill: url(#Gradient_113);"/>
          <g>
            <path d="M106.7,125.75c6.5-5.19,7.12.65,7.12.65-3.59-2.92-7.12-.65-7.12-.65Z" style="fill: #dca57b;"/>
            <path d="M91.94,126.52s.89-1.78,5.64-.37c0,0-7.91-5.11-5.64.37Z" style="fill: #dca57b;"/>
            <path d="M109.09,108.11c.05,2.45,1.34,11.64.65,13.07-1.54,3.17-4.6,4.52-7.48,4.4-2.17.35-6.12-.6-8.36-3.77-.92-1.3.69-10.53.2-13.12,0,0-9.37,16.95-2.15,17.84,0,0-1.18-1.9,1.68-1.83,2.54.06,3.88,4.45,8.88,4.26,5.52-.21,4.56-4.12,7.48-4.63,3.62-.63,3,1.75,3.84,2.08,3.61-1.61-1.3-13.96-4.74-18.28Z" style="fill: url(#linear-gradient-21);"/>
            <path d="M97.85,117.97c-.15,2.73.21,5.65,4.24,5.55,4.42-.11,4.49-3.09,4.03-5.58-2.74-14.73-7.72-10.12-8.27.03Z" style="fill: url(#linear-gradient-22);"/>
          </g>
          <g>
            <path d="M90.68,146.4c11.98-2.11,20.1.06,20.1.06-9.17-8.49-20.1-.06-20.1-.06Z" style="fill: url(#linear-gradient-23);"/>
            <path d="M91.35,131.94c6.6.44,9.77,1.45,15.95.76,2.12-.29,3.25-1.65,6.41-.84,1.05.27,4.84,2.7,6.16,3.01-1.97-.25-5.04-1.42-6.72-1.23-.56.06-1.14.15-1.76.27-7.6,2.9-16.25.71-24.28.39-.7,0-3.68.92-4.45,1.12.95-.34,5.02-3.8,8.68-3.47Z" style="fill: url(#linear-gradient-24);"/>
            <path d="M121.01,135.26c-1.56-.71-7.8-2.69-10.32-2.2-2.07.4-6.45,1.64-9.27,1.63-2.98-.01-8.43-1.18-10.43-1.53-2-.35-7.12,1.79-9.73,2.48,2.25.02,5.55-.91,7.67-1.04,2.66.07,7.35,2.88,23.09.16,1.17-.2,1.29-.21,2.03-.34,2.96-.48,5.09.56,6.95.85Z" style="fill: url(#linear-gradient-25);"/>
            <path d="M90.46,140.5s8.35,5.03,22.01-.18c0,0-8.09,3.16-22.01.18Z" style="fill: url(#linear-gradient-26);"/>
            <path d="M97.08,137.61c1.58-.34,8.82-1.27,9.62-.06.81,1.21-3.06,3.24-6.51,3.11-3.45-.13-6.63-2.29-3.11-3.05Z" style="fill: url(#linear-gradient-27);"/>
          </g>
          <path d="M94.62,150.83s3.14-4.81,4-5.75c.83-.9,5.58-.59,6.36.38.81,1,5.07,6.96,5.07,6.96,0,0-5.73-4.74-6.25-5.08s-2.34-1.34-3.67-.85c-1.33.49-5.51,4.33-5.51,4.33Z" style="fill: url(#Gradient_115-6);"/>
        </g>
        <path d="M-18.62,220.76s34.61,62.94,44.87,69.91c10.05,6.83,149.97,11.02,163.56-4.36l33.66-65.55-75.82-40.06-25.55,19.4-22.29,32.48-39.06-50.54-79.37,38.72Z" style="fill: url(#linear-gradient-28);"/>
        <path d="M99.45,183.02s14.38.95,19.77-2.32c4.71-2.85-13.45,19.15-14.94,19.39-1.49.24-4.83-17.08-4.83-17.08Z" style="fill: url(#linear-gradient-29);"/>
        <g>
          <path d="M87.05,201.53s6.83,6.28,8.09,7.39c1.21,1.06,4.95,18.55,4.95,18.55l-2.15,36.69-19.64-54.48,8.75-8.14Z" style="fill: url(#linear-gradient-30);"/>
          <path d="M56.68,189.63c0,4.09,7.23,33.57,7.7,35.15,0,0,8.93-7.71,14.93-12.5l7.74-10.75s-30.37-15.99-30.37-11.9Z" style="fill: url(#linear-gradient-31);"/>
          <path d="M72.14,168.17s-4.95,6.31-2.42,14.92c2.37,8.05,17.32,18.44,17.32,18.44,0,0-17.89,14.96-21.35,18.33-2.42-8.47-11.57-31.91-9.46-35.24,4.05-6.4,9.85-13.15,15.91-16.46Z" style="fill: url(#linear-gradient-32);"/>
          <path d="M72.14,168.17s-6.34,8.26,1.06,19.17c5.29,7.81,13.85,14.19,13.85,14.19,0,0-11.6-8.15-14.62-11.87-9.34-11.48-.28-21.5-.28-21.5Z" style="fill: url(#linear-gradient-33);"/>
          <path d="M115.58,201.23c-2.29,1.5-5.28,3.58-9,6.48-1.57,1.22-7.59,21.77-7.07,26.47.07.62.11,1.55.12,2.66,5.63-1.64,12.14-2.05,17.9-3.27.69-6.2.88-12.67,1.49-18.46.04-.37.33-5.32.33-5.32.38-3.66.16-3.46.33-5.85-2.01-.16-3.45-1.22-4.1-2.71Z" style="fill: url(#linear-gradient-34);"/>
          <path d="M115.58,201.23l3.77,8.56c4.24,3.31,17.16,11.62,23.79,14.99.81.41,5.84-30.09,7.04-38.56l-34.61,15.01Z" style="fill: url(#linear-gradient-35);"/>
          <path d="M115.58,201.23s24.1,16.27,27.17,19.59c2.69-10.61,7.76-30.97,7.76-37.04,0-3.19-13.63-15.47-16.77-17.07,0,0,1.77,5.23.87,10.31-3.22,18.22-19.03,24.21-19.03,24.21Z" style="fill: url(#linear-gradient-36);"/>
          <path d="M115.58,201.23s23.66-11.19,18.16-34.52c0,0,13.59,22.67-18.16,34.52Z" style="fill: url(#linear-gradient-37);"/>
          <path d="M115.58,201.23s-6.61,4.6-9.72,6.19c-3.11,1.6-5.9,21.93-5.9,21.93,0,0,5.63-17.71,6.65-19.36,1.02-1.65,8.97-8.76,8.97-8.76Z" style="fill: url(#linear-gradient-38);"/>
        </g>
        <path d="M128.03,209.79l14.73,11.03,4.57-18.83s-4.43,12.8-5.5,13.13c-1.07.33-13.8-5.33-13.8-5.33Z" style="fill: url(#linear-gradient-39);"/>
      </g>
    </g>
  </g>
</svg>