<?xml version="1.0" encoding="UTF-8"?>
<svg id="Layer_2" data-name="Layer 2" xmlns="http://www.w3.org/2000/svg" xmlns:xlink="http://www.w3.org/1999/xlink" viewBox="0 0 302.32 298.21">
  <defs>
    <style>
      .cls-1 {
        fill: url(#Gradient_58);
      }

      .cls-2 {
        fill: url(#Gradient_32);
      }

      .cls-3 {
        fill: url(#Gradient_96);
      }

      .cls-4 {
        fill: url(#Gradient_27);
      }

      .cls-5 {
        fill: url(#Gradient_25);
      }

      .cls-6 {
        fill: url(#Gradient_113);
      }

      .cls-7 {
        fill: url(#Gradient_115);
      }

      .cls-8 {
        fill: url(#radial-gradient-2);
      }

      .cls-9 {
        fill: #e1b18c;
      }

      .cls-10 {
        fill: url(#linear-gradient-8);
      }

      .cls-11 {
        fill: url(#linear-gradient-7);
      }

      .cls-12 {
        fill: url(#linear-gradient-5);
      }

      .cls-13 {
        fill: url(#linear-gradient-6);
      }

      .cls-14 {
        fill: url(#linear-gradient-9);
      }

      .cls-15 {
        fill: url(#linear-gradient-4);
      }

      .cls-16 {
        fill: url(#linear-gradient-3);
      }

      .cls-17 {
        fill: url(#linear-gradient-2);
      }

      .cls-18 {
        fill: #f3eceb;
      }

      .cls-19 {
        fill: url(#radial-gradient);
      }

      .cls-20 {
        fill: url(#linear-gradient);
      }

      .cls-21 {
        fill: #ddd;
      }

      .cls-22 {
        fill: #192b51;
      }

      .cls-23 {
        fill: #fff;
      }

      .cls-24 {
        fill: #f0c499;
      }

      .cls-25 {
        fill: #711e22;
      }

      .cls-26 {
        fill: url(#Gradient_115-4);
      }

      .cls-27 {
        fill: url(#Gradient_115-5);
      }

      .cls-28 {
        fill: url(#Gradient_115-6);
      }

      .cls-29 {
        fill: url(#Gradient_115-3);
      }

      .cls-30 {
        fill: url(#Gradient_115-2);
      }

      .cls-31 {
        fill: url(#linear-gradient-43);
      }

      .cls-32 {
        fill: url(#linear-gradient-40);
      }

      .cls-33 {
        fill: url(#linear-gradient-41);
      }

      .cls-34 {
        fill: url(#linear-gradient-42);
      }

      .cls-35 {
        fill: url(#linear-gradient-49);
      }

      .cls-36 {
        fill: url(#linear-gradient-48);
      }

      .cls-37 {
        fill: url(#linear-gradient-45);
      }

      .cls-38 {
        fill: url(#linear-gradient-47);
      }

      .cls-39 {
        fill: url(#linear-gradient-44);
      }

      .cls-40 {
        fill: url(#linear-gradient-46);
      }

      .cls-41 {
        fill: url(#linear-gradient-10);
      }

      .cls-42 {
        fill: url(#linear-gradient-11);
      }

      .cls-43 {
        fill: url(#linear-gradient-12);
      }

      .cls-44 {
        fill: url(#linear-gradient-13);
      }

      .cls-45 {
        fill: url(#linear-gradient-19);
      }

      .cls-46 {
        fill: url(#linear-gradient-14);
      }

      .cls-47 {
        fill: url(#linear-gradient-21);
      }

      .cls-48 {
        fill: url(#linear-gradient-20);
      }

      .cls-49 {
        fill: url(#linear-gradient-22);
      }

      .cls-50 {
        fill: url(#linear-gradient-23);
      }

      .cls-51 {
        fill: url(#linear-gradient-28);
      }

      .cls-52 {
        fill: url(#linear-gradient-25);
      }

      .cls-53 {
        fill: url(#linear-gradient-32);
      }

      .cls-54 {
        fill: url(#linear-gradient-31);
      }

      .cls-55 {
        fill: url(#linear-gradient-33);
      }

      .cls-56 {
        fill: url(#linear-gradient-30);
      }

      .cls-57 {
        fill: url(#linear-gradient-15);
      }

      .cls-58 {
        fill: url(#linear-gradient-16);
      }

      .cls-59 {
        fill: url(#linear-gradient-17);
      }

      .cls-60 {
        fill: url(#linear-gradient-18);
      }

      .cls-61 {
        fill: url(#linear-gradient-35);
      }

      .cls-62 {
        fill: url(#linear-gradient-34);
      }

      .cls-63 {
        fill: url(#linear-gradient-36);
      }

      .cls-64 {
        fill: url(#linear-gradient-38);
      }

      .cls-65 {
        fill: url(#linear-gradient-27);
      }

      .cls-66 {
        fill: url(#linear-gradient-24);
      }

      .cls-67 {
        fill: url(#linear-gradient-26);
      }

      .cls-68 {
        fill: url(#linear-gradient-29);
      }

      .cls-69 {
        fill: url(#linear-gradient-37);
      }

      .cls-70 {
        fill: url(#linear-gradient-39);
      }

      .cls-71 {
        fill: url(#linear-gradient-53);
      }

      .cls-72 {
        fill: url(#linear-gradient-54);
      }

      .cls-73 {
        fill: url(#linear-gradient-55);
      }

      .cls-74 {
        fill: url(#linear-gradient-50);
      }

      .cls-75 {
        fill: url(#linear-gradient-51);
      }

      .cls-76 {
        fill: url(#linear-gradient-52);
      }

      .cls-77 {
        fill: url(#Gradient_32-2);
      }

      .cls-78 {
        fill: url(#Gradient_58-3);
      }

      .cls-79 {
        fill: url(#Gradient_58-2);
      }

      .cls-80 {
        fill: url(#Gradient_25-2);
      }

      .cls-81 {
        fill: url(#Gradient_96-2);
      }

      .cls-82 {
        fill: url(#Gradient_27-9);
      }

      .cls-83 {
        fill: url(#Gradient_27-2);
      }

      .cls-84 {
        fill: url(#Gradient_27-4);
      }

      .cls-85 {
        fill: url(#Gradient_27-3);
      }

      .cls-86 {
        fill: url(#Gradient_27-6);
      }

      .cls-87 {
        fill: url(#Gradient_27-5);
      }

      .cls-88 {
        fill: url(#Gradient_27-8);
      }

      .cls-89 {
        fill: url(#Gradient_27-7);
      }

      .cls-90 {
        fill: #dca57b;
      }
    </style>
    <linearGradient id="linear-gradient" x1="100.51" y1="101.04" x2="194.15" y2="242.92" gradientUnits="userSpaceOnUse">
      <stop offset="0" stop-color="#0b173d"/>
      <stop offset=".5" stop-color="#0c193f"/>
      <stop offset=".82" stop-color="#132248"/>
      <stop offset="1" stop-color="#192b51"/>
    </linearGradient>
    <linearGradient id="linear-gradient-2" x1="177.22" y1="161.2" x2="192.79" y2="165.57" gradientUnits="userSpaceOnUse">
      <stop offset="0" stop-color="#f0c499"/>
      <stop offset=".52" stop-color="#f4cfa5"/>
      <stop offset="1" stop-color="#f7d4ab"/>
    </linearGradient>
    <linearGradient id="linear-gradient-3" x1="126.94" y1="167.35" x2="192.16" y2="185.66" xlink:href="#linear-gradient-2"/>
    <linearGradient id="linear-gradient-4" x1="148.34" y1="204.72" x2="117.24" y2="163.06" gradientUnits="userSpaceOnUse">
      <stop offset="0" stop-color="#f0c499"/>
      <stop offset=".51" stop-color="#e3b086"/>
      <stop offset="1" stop-color="#dba379"/>
    </linearGradient>
    <linearGradient id="linear-gradient-5" x1="190.83" y1="166.95" x2="123.65" y2="141.62" xlink:href="#linear-gradient-4"/>
    <linearGradient id="linear-gradient-6" x1="44.72" y1="191.96" x2="35.69" y2="295.17" gradientUnits="userSpaceOnUse">
      <stop offset="0" stop-color="#2b416b"/>
      <stop offset=".46" stop-color="#293e68"/>
      <stop offset=".75" stop-color="#23375f"/>
      <stop offset="1" stop-color="#192b51"/>
    </linearGradient>
    <linearGradient id="linear-gradient-7" x1="273.55" y1="209.83" x2="274.68" y2="347.21" xlink:href="#linear-gradient-6"/>
    <linearGradient id="linear-gradient-8" x1="40.36" y1="-167.2" x2="39.4" y2="-116.29" gradientTransform="translate(106.35 202.96) rotate(1.31) scale(1 .96)" gradientUnits="userSpaceOnUse">
      <stop offset="0" stop-color="#ffd9b3"/>
      <stop offset=".28" stop-color="#fbd6af"/>
      <stop offset="1" stop-color="#f7d4ab"/>
    </linearGradient>
    <linearGradient id="linear-gradient-9" x1="-655.34" y1="815.79" x2="-645.19" y2="840.41" gradientTransform="translate(-475.1 -798.21) rotate(175.38) scale(.99 -1.14) skewX(3.14)" gradientUnits="userSpaceOnUse">
      <stop offset="0" stop-color="#dba379"/>
      <stop offset=".49" stop-color="#e3b086"/>
      <stop offset="1" stop-color="#f0c499"/>
    </linearGradient>
    <linearGradient id="linear-gradient-10" x1="1026.15" y1="758.15" x2="1036.16" y2="782.43" gradientTransform="translate(-965.33 -778.04) rotate(-.1) scale(.99 1.14) skewX(3.14)" xlink:href="#linear-gradient-9"/>
    <linearGradient id="linear-gradient-11" x1="117.61" y1="221.39" x2="123.59" y2="246.13" gradientTransform="translate(44.14 -147.74) rotate(-2.1)" xlink:href="#linear-gradient-2"/>
    <linearGradient id="linear-gradient-12" x1="21.46" y1="-90.35" x2="17.54" y2="-73.76" gradientTransform="translate(106.82 167.37) rotate(1.31)" xlink:href="#linear-gradient-2"/>
    <radialGradient id="radial-gradient" cx="121.74" cy="253.57" fx="121.74" fy="253.57" r="19.81" gradientTransform="translate(44.14 -147.74) rotate(-2.1)" gradientUnits="userSpaceOnUse">
      <stop offset="0" stop-color="#f8c39c"/>
      <stop offset="1" stop-color="#f7d4ab"/>
    </radialGradient>
    <radialGradient id="radial-gradient-2" cx="69.8" cy="253.85" fx="69.8" fy="253.85" r="19.84" xlink:href="#radial-gradient"/>
    <linearGradient id="linear-gradient-13" x1="189.16" y1="303.46" x2="174.99" y2="308.35" gradientTransform="translate(-10.91 -202.86) rotate(-2.36)" gradientUnits="userSpaceOnUse">
      <stop offset="0" stop-color="#fbd6af"/>
      <stop offset="1" stop-color="#f7d4ab"/>
    </linearGradient>
    <linearGradient id="linear-gradient-14" x1="125.3" y1="308.35" x2="104.28" y2="303.22" xlink:href="#linear-gradient-13"/>
    <linearGradient id="Gradient_58" data-name="Gradient 58" x1="-3265.31" y1="842.88" x2="-3237.14" y2="842.88" gradientTransform="translate(-3227.18 -155.17) rotate(169.41) scale(1 -1)" gradientUnits="userSpaceOnUse">
      <stop offset="0" stop-color="#2b1b13"/>
      <stop offset=".04" stop-color="#2e1d14"/>
      <stop offset=".38" stop-color="#442b1d"/>
      <stop offset=".71" stop-color="#513423"/>
      <stop offset="1" stop-color="#563725"/>
    </linearGradient>
    <linearGradient id="Gradient_58-2" data-name="Gradient 58" x1="104.63" y1="869.05" x2="132.39" y2="869.05" gradientTransform="translate(-108.56 -762.71) rotate(-11.06)" xlink:href="#Gradient_58"/>
    <linearGradient id="linear-gradient-15" x1="-8000.8" y1="463.32" x2="-8027.92" y2="486.5" gradientTransform="translate(-7899.32 77.19) rotate(176.68) scale(1 -1)" xlink:href="#linear-gradient-4"/>
    <linearGradient id="linear-gradient-16" x1="-8058.38" y1="243.02" x2="-8083.61" y2="236.93" gradientTransform="translate(-7948.75 145.58) rotate(177.9) scale(1 -1)" gradientUnits="userSpaceOnUse">
      <stop offset="0" stop-color="#ece7e7"/>
      <stop offset=".23" stop-color="#f5f3f3"/>
      <stop offset=".53" stop-color="#fcfcfc"/>
      <stop offset="1" stop-color="#fff"/>
    </linearGradient>
    <linearGradient id="linear-gradient-17" x1="-8080.52" y1="237.55" x2="-8068.29" y2="243.45" gradientTransform="translate(-7948.75 145.58) rotate(177.9) scale(1 -1)" gradientUnits="userSpaceOnUse">
      <stop offset="0" stop-color="#7a90a5"/>
      <stop offset=".25" stop-color="#859db3"/>
      <stop offset="1" stop-color="#a8c3dd"/>
    </linearGradient>
    <linearGradient id="Gradient_96" data-name="Gradient 96" x1="-8075.47" y1="250.23" x2="-8076.2" y2="243.44" gradientTransform="translate(-7948.75 145.58) rotate(177.9) scale(1 -1)" gradientUnits="userSpaceOnUse">
      <stop offset="0" stop-color="#a8c3dd"/>
      <stop offset="1" stop-color="#7a90a5"/>
    </linearGradient>
    <radialGradient id="Gradient_25" data-name="Gradient 25" cx="416.61" cy="1441.69" fx="416.61" fy="1441.69" r="3.38" gradientTransform="translate(503.96 -1153.01) rotate(177.9) scale(1 -.85)" gradientUnits="userSpaceOnUse">
      <stop offset="0" stop-color="#666"/>
      <stop offset="1" stop-color="#1d1d1d"/>
    </radialGradient>
    <linearGradient id="linear-gradient-18" x1="-8095.34" y1="466.55" x2="-8075.12" y2="465.59" gradientTransform="translate(-7968.82 86.01) rotate(176.7) scale(1 -1)" gradientUnits="userSpaceOnUse">
      <stop offset="0" stop-color="#2b1b13"/>
      <stop offset=".04" stop-color="#2e1d14"/>
      <stop offset=".38" stop-color="#442b1d"/>
      <stop offset=".71" stop-color="#513423"/>
      <stop offset="1" stop-color="#563725"/>
    </linearGradient>
    <linearGradient id="linear-gradient-19" x1="49.73" y1="24.23" x2="47.35" y2="-6.8" gradientTransform="translate(106.82 167.37) rotate(1.31)" gradientUnits="userSpaceOnUse">
      <stop offset="0" stop-color="#f7d4ab"/>
      <stop offset=".45" stop-color="#f3caa0"/>
      <stop offset="1" stop-color="#f0c499"/>
    </linearGradient>
    <linearGradient id="linear-gradient-20" x1="4677.54" y1="195.39" x2="4650.62" y2="218.41" gradientTransform="translate(-4493.43 -47.72) rotate(-.9)" xlink:href="#linear-gradient-4"/>
    <linearGradient id="linear-gradient-21" x1="-8102.14" y1="242.79" x2="-8128.07" y2="236.53" xlink:href="#linear-gradient-16"/>
    <linearGradient id="linear-gradient-22" x1="-8127.09" y1="236.95" x2="-8110.44" y2="243.73" gradientTransform="translate(-7948.75 145.58) rotate(177.9) scale(1 -1)" gradientUnits="userSpaceOnUse">
      <stop offset="0" stop-color="#7a90a5"/>
      <stop offset="1" stop-color="#a8c3dd"/>
    </linearGradient>
    <linearGradient id="Gradient_96-2" data-name="Gradient 96" x1="-8119.69" y1="254.96" x2="-8120.56" y2="246.9" xlink:href="#Gradient_96"/>
    <radialGradient id="Gradient_25-2" data-name="Gradient 25" cx="371.53" cy="2658.8" fx="371.53" fy="2658.8" r="3.31" gradientTransform="translate(475.63 -1923.9) rotate(177.9) scale(1 -.75)" xlink:href="#Gradient_25"/>
    <linearGradient id="linear-gradient-23" x1="4583.21" y1="202.24" x2="4603.25" y2="201.29" gradientTransform="translate(-4423.26 -43.87) rotate(-.92)" xlink:href="#linear-gradient-18"/>
    <linearGradient id="Gradient_32" data-name="Gradient 32" x1="47.23" y1="-161.26" x2="30.17" y2="-10.66" gradientTransform="translate(106.82 167.37) rotate(1.31)" gradientUnits="userSpaceOnUse">
      <stop offset="0" stop-color="#724831"/>
      <stop offset=".22" stop-color="#67412c"/>
      <stop offset=".63" stop-color="#5a3926"/>
      <stop offset="1" stop-color="#563725"/>
    </linearGradient>
    <linearGradient id="Gradient_32-2" data-name="Gradient 32" x1="-4.02" y1="-122.71" x2="-14.76" y2="-27.95" xlink:href="#Gradient_32"/>
    <linearGradient id="linear-gradient-24" x1="49.37" y1="-85.03" x2="49.05" y2="-89.16" gradientTransform="translate(105.42 236.62) rotate(1.31) scale(1 .93)" xlink:href="#linear-gradient-19"/>
    <linearGradient id="Gradient_115" data-name="Gradient 115" x1="98.25" y1="257.41" x2="98.99" y2="331.14" gradientTransform="translate(44.14 -147.74) rotate(-2.1)" gradientUnits="userSpaceOnUse">
      <stop offset="0" stop-color="#d6ac88"/>
      <stop offset="1" stop-color="#a18166"/>
    </linearGradient>
    <linearGradient id="Gradient_115-2" data-name="Gradient 115" x1="97.72" y1="257.41" x2="98.46" y2="331.15" xlink:href="#Gradient_115"/>
    <linearGradient id="Gradient_27" data-name="Gradient 27" x1="99.26" y1="198.66" x2="111.62" y2="157.99" gradientTransform="translate(44.14 -147.74) rotate(-2.1)" gradientUnits="userSpaceOnUse">
      <stop offset="0" stop-color="#724831"/>
      <stop offset=".42" stop-color="#7f553b"/>
      <stop offset="1" stop-color="#8e6346"/>
    </linearGradient>
    <linearGradient id="Gradient_27-2" data-name="Gradient 27" x1="82.41" y1="193.54" x2="94.77" y2="152.87" xlink:href="#Gradient_27"/>
    <linearGradient id="Gradient_27-3" data-name="Gradient 27" x1="69.19" y1="189.86" x2="81.83" y2="148.24" xlink:href="#Gradient_27"/>
    <linearGradient id="Gradient_27-4" data-name="Gradient 27" x1="60.51" y1="185.39" x2="72.87" y2="144.72" xlink:href="#Gradient_27"/>
    <linearGradient id="Gradient_27-5" data-name="Gradient 27" x1="114.56" y1="203.31" x2="126.92" y2="162.64" xlink:href="#Gradient_27"/>
    <linearGradient id="Gradient_27-6" data-name="Gradient 27" x1="128.03" y1="207.41" x2="140.39" y2="166.74" xlink:href="#Gradient_27"/>
    <linearGradient id="Gradient_27-7" data-name="Gradient 27" x1="50.84" y1="183.95" x2="63.2" y2="143.28" xlink:href="#Gradient_27"/>
    <linearGradient id="Gradient_27-8" data-name="Gradient 27" x1="-16.6" y1="-113.4" x2="-7.27" y2="-112.17" gradientTransform="translate(106.82 167.37) rotate(1.31)" xlink:href="#Gradient_27"/>
    <linearGradient id="Gradient_27-9" data-name="Gradient 27" x1="140.39" y1="211.36" x2="153.49" y2="168.25" xlink:href="#Gradient_27"/>
    <linearGradient id="Gradient_58-3" data-name="Gradient 58" x1=".8" y1="-24.2" x2="94.09" y2="-191.31" gradientTransform="translate(106.82 167.37) rotate(1.31)" xlink:href="#Gradient_58"/>
    <linearGradient id="Gradient_115-3" data-name="Gradient 115" x1="48.07" y1="-61.21" x2="47.43" y2="-69.54" gradientTransform="translate(105.42 236.62) rotate(1.31) scale(1 .93)" xlink:href="#Gradient_115"/>
    <linearGradient id="Gradient_115-4" data-name="Gradient 115" x1="51.06" y1="-86.54" x2="49.84" y2="-91.74" gradientTransform="translate(105.42 236.62) rotate(1.31) scale(1 .93)" xlink:href="#Gradient_115"/>
    <linearGradient id="Gradient_115-5" data-name="Gradient 115" x1="24.93" y1="-30.04" x2="23.91" y2="-34.41" gradientTransform="translate(106.82 167.37) rotate(1.31)" xlink:href="#Gradient_115"/>
    <linearGradient id="Gradient_115-6" data-name="Gradient 115" x1="70.37" y1="-32.43" x2="69.36" y2="-36.71" gradientTransform="translate(106.82 167.37) rotate(1.31)" xlink:href="#Gradient_115"/>
    <linearGradient id="Gradient_113" data-name="Gradient 113" x1="45.44" y1="-63.3" x2="44.25" y2="-47.04" gradientTransform="translate(106.82 167.37) rotate(1.31)" gradientUnits="userSpaceOnUse">
      <stop offset="0" stop-color="#a18166"/>
      <stop offset="1" stop-color="#d6ac88"/>
    </linearGradient>
    <linearGradient id="linear-gradient-25" x1="195.41" y1="490.76" x2="196.11" y2="515.1" gradientTransform="translate(-82.68 -393.43) rotate(-4.28)" gradientUnits="userSpaceOnUse">
      <stop offset="0" stop-color="#f7d4ab"/>
      <stop offset=".52" stop-color="#f5d1a8"/>
      <stop offset=".85" stop-color="#f2c99f"/>
      <stop offset="1" stop-color="#f0c499"/>
    </linearGradient>
    <linearGradient id="linear-gradient-26" x1="196.28" y1="1051.07" x2="197.78" y2="1039.96" gradientTransform="translate(-177.96 -1659.05) rotate(-4.27) scale(1 1.7) skewX(.03)" xlink:href="#linear-gradient-8"/>
    <linearGradient id="linear-gradient-27" x1="175.54" y1="578.31" x2="175.64" y2="594.15" gradientTransform="translate(-57.55 -461.06) rotate(-3.24)" xlink:href="#linear-gradient-25"/>
    <linearGradient id="linear-gradient-28" x1="96.48" y1="267.55" x2="97.16" y2="283.53" gradientTransform="translate(44.14 -147.74) rotate(-2.1)" gradientUnits="userSpaceOnUse">
      <stop offset="0" stop-color="#e8d9d7"/>
      <stop offset=".4" stop-color="#efe5e3"/>
      <stop offset="1" stop-color="#fff"/>
    </linearGradient>
    <linearGradient id="linear-gradient-29" x1="177.61" y1="601.28" x2="171.85" y2="580.83" gradientTransform="translate(-57.55 -461.06) rotate(-3.24)" xlink:href="#linear-gradient-9"/>
    <linearGradient id="linear-gradient-30" x1="175.23" y1="612.09" x2="175.01" y2="597.84" gradientTransform="translate(-57.55 -461.06) rotate(-3.24)" gradientUnits="userSpaceOnUse">
      <stop offset="0" stop-color="#f0c499"/>
      <stop offset=".52" stop-color="#f1c69b"/>
      <stop offset=".85" stop-color="#f4cea4"/>
      <stop offset="1" stop-color="#f7d4ab"/>
    </linearGradient>
    <linearGradient id="linear-gradient-31" x1="166.14" y1="608.79" x2="182.96" y2="608.79" gradientTransform="translate(-57.55 -461.06) rotate(-3.24)" xlink:href="#linear-gradient-9"/>
    <linearGradient id="linear-gradient-32" x1="249.38" y1="230.93" x2="249.67" y2="424.7" xlink:href="#linear-gradient"/>
    <linearGradient id="linear-gradient-33" x1="150.23" y1="170.6" x2="152.77" y2="318.6" xlink:href="#linear-gradient-6"/>
    <linearGradient id="linear-gradient-34" x1="148.79" y1="180.32" x2="167.03" y2="180.32" gradientTransform="matrix(1,0,0,1,0,0)" xlink:href="#linear-gradient-8"/>
    <linearGradient id="linear-gradient-35" x1="241.46" y1="230.94" x2="241.75" y2="424.71" xlink:href="#linear-gradient"/>
    <linearGradient id="linear-gradient-36" x1="27.47" y1="204.96" x2="28.61" y2="342.15" xlink:href="#linear-gradient-6"/>
    <linearGradient id="linear-gradient-37" x1="51.08" y1="231.23" x2="51.38" y2="425" xlink:href="#linear-gradient"/>
    <linearGradient id="linear-gradient-38" x1="60.68" y1="231.22" x2="60.97" y2="424.98" xlink:href="#linear-gradient"/>
    <linearGradient id="linear-gradient-39" x1="155.42" y1="207.31" x2="155.15" y2="312.48" xlink:href="#linear-gradient-6"/>
    <linearGradient id="linear-gradient-40" x1="164.56" y1="350.73" x2="136.23" y2="199.44" xlink:href="#linear-gradient-6"/>
    <linearGradient id="linear-gradient-41" x1="119.04" y1="247.77" x2="119.88" y2="206.33" xlink:href="#linear-gradient-6"/>
    <linearGradient id="linear-gradient-42" x1="119.96" y1="289.57" x2="119.96" y2="166.36" xlink:href="#linear-gradient-6"/>
    <linearGradient id="linear-gradient-43" x1="126.32" y1="193.96" x2="125.28" y2="122.3" xlink:href="#linear-gradient"/>
    <linearGradient id="linear-gradient-44" x1="125.04" y1="327.62" x2="170.35" y2="174.68" xlink:href="#linear-gradient-6"/>
    <linearGradient id="linear-gradient-45" x1="179.93" y1="252.12" x2="180.81" y2="208.95" xlink:href="#linear-gradient-6"/>
    <linearGradient id="linear-gradient-46" x1="162.01" y1="305.28" x2="169.37" y2="148.91" xlink:href="#linear-gradient"/>
    <linearGradient id="linear-gradient-47" x1="152.6" y1="302.99" x2="138.18" y2="216.24" xlink:href="#linear-gradient"/>
    <linearGradient id="linear-gradient-48" x1="181.52" y1="300.9" x2="181.52" y2="163.63" xlink:href="#linear-gradient-6"/>
    <linearGradient id="linear-gradient-49" x1="174.8" y1="193.48" x2="173.91" y2="131.9" xlink:href="#linear-gradient"/>
    <linearGradient id="linear-gradient-50" x1="134.08" y1="200.76" x2="140.29" y2="210.18" xlink:href="#linear-gradient"/>
    <linearGradient id="linear-gradient-51" x1="161.18" y1="212.15" x2="171.47" y2="229.47" xlink:href="#linear-gradient-6"/>
    <linearGradient id="linear-gradient-52" x1="187.11" y1="193.71" x2="147.08" y2="303.93" gradientUnits="userSpaceOnUse">
      <stop offset="0" stop-color="#2b416b"/>
      <stop offset=".54" stop-color="#1f325a"/>
      <stop offset="1" stop-color="#192b51"/>
    </linearGradient>
    <linearGradient id="linear-gradient-53" x1="172.73" y1="196.17" x2="137.94" y2="291.94" gradientUnits="userSpaceOnUse">
      <stop offset="0" stop-color="#2b416b"/>
      <stop offset=".53" stop-color="#1f335a"/>
      <stop offset="1" stop-color="#192b51"/>
    </linearGradient>
    <linearGradient id="linear-gradient-54" x1="194.87" y1="209.12" x2="205.67" y2="227.31" xlink:href="#linear-gradient-6"/>
    <linearGradient id="linear-gradient-55" x1="122.53" y1="205.12" x2="131.94" y2="220.96" xlink:href="#linear-gradient-6"/>
  </defs>
  <g id="Layer_1-2" data-name="Layer 1">
    <g>
      <path class="cls-20" d="M119.11,157.7s25.47-18.7,63.1-2.44c0,0,17.81,22.47.85,38.81-16.96,16.34-59.9,14.8-66.11,1.41-6.2-13.39-2.78-34.93,2.16-37.78Z"/>
      <path class="cls-17" d="M182.95,175.04l6.66-8.51s-7.23-2.17-10.07-16.92c-.12.11-.24.22-.36.33-.87,8.81.71,17.24,3.77,25.09Z"/>
      <path class="cls-16" d="M179.18,149.95c-11.43,10.5-17.98,20.08-32.69,19.16-5.69,0-15.91-2.49-23.03-7.19,5.96,11.97,17.22,21.08,26.44,29.14,3.8,3.8,5.36,10.31,7.33,16.85l25.73-32.86c-3.06-7.85-4.64-16.28-3.77-25.09Z"/>
      <path class="cls-15" d="M132.6,167.14c-.75-.5-10.62-6.24-11.3-6.78-1.21,2.84-2.69,5.81-4.52,8.9l31.5,51.88,8.94-13.23c-1.96-6.54-3.52-13.04-7.33-16.85-9.22-8.06-11.33-11.94-17.29-23.91Z"/>
      <path class="cls-12" d="M179.54,149.62c-.53-2.76-.91-5.96-1.06-9.66l-58.14-14.7s3.12,16.83.97,35.1c7.04,5.71,19.74,11.05,26.03,11.05,14.87.93,23.74-3.63,32.21-21.8Z"/>
      <path class="cls-22" d="M271.94,209.31c-15.56-5.75-74.21-32.38-74.21-32.38l-47.79,44.91-40.82-44.91s-68.63,27.64-79.27,32.38l28.4,84.45-.06,4.45h186.72l27.03-88.9Z"/>
      <path class="cls-13" d="M58.25,277.44l-28.4-68.13c-12.03,9.93-14.9,49.15-15.13,88.9h43.45c.1-7.31-.56-14.75.08-20.77Z"/>
      <path class="cls-11" d="M297.34,273.6c-11.14-62.84-25.41-64.28-25.41-64.28l-25.9,64.47,5.51,11.59c1.24,4.5,2.9,8.78,4.91,12.84h45.86c-1.76-7.98-3.51-16.33-4.98-24.61Z"/>
      <path class="cls-22" d="M249.11,273.28l-.39,24.93h11.57c-5.01-8.14-8.9-16.65-11.18-24.93Z"/>
      <g>
        <path class="cls-10" d="M107.23,88.07s5.18,46.82,6.56,48.73,21.9,20.99,24.53,23.08c2.64,2.09,29.11-.23,29.11-.23,0,0,21.55-20.8,23.36-24.08,1.81-3.27,3.34-51.44,3.34-51.44,0,0,4.46-37.95-5.04-50.56s-71.16-14.54-80.7,3.83c-9.54,18.37-1.16,50.67-1.16,50.67Z"/>
        <g>
          <path class="cls-24" d="M201.78,79.93c9.59-1.06,3.88,14.27,3.88,14.27-3.01,19.69-1.28,22.99-9.86,22.57-6.35-.31-.88-36.09,5.98-36.85Z"/>
          <path class="cls-14" d="M197.07,108.26s2.92-3.53,2.5-10.85c-1-17.25,8.07-17.9,5.36-6.33,0,0-.93-5.58-2.17-4-1.52,1.94,1.32,3.23-.66,11.99-1.04,4.55-5.03,9.19-5.03,9.19Z"/>
        </g>
        <g>
          <path class="cls-24" d="M99.86,83.95c-9.63-.03-2.98,14.64-2.98,14.64,4.23,19.3,3.81,22.22,11.23,21.45,8.34-.86-1.37-36.07-8.25-36.09Z"/>
          <path class="cls-41" d="M106.32,111.68s-3.13-3.21-3.16-10.54c-.08-17.3-9.16-16.99-5.74-5.74,0,0,.58-5.66,1.91-4.22,1.63,1.77-1.12,3.36,1.4,11.88,1.32,4.43,5.59,8.62,5.59,8.62Z"/>
        </g>
        <path class="cls-42" d="M160.02,70.6s-3.79,7.75-3.62,8.62c.18.86,2.37,15.8,2.37,15.8,0,0,25.29-1.73,28.56-2.89,3.27-1.16,3.86-7.68,3.86-7.68l-.78-6.88s-6.74-11.9-7.45-11.38c-.72.52-22.94,4.41-22.94,4.41Z"/>
        <path class="cls-43" d="M139.02,75.84s4.4,5.8,4.32,6.68c-.08.88-.04,12.85-.04,12.85,0,0-25.33,1.09-28.7.3s-4.69-7.21-4.69-7.21l3.13-5.53s7.03-7.83,7.8-7.39c.77.44,18.17.31,18.17.31Z"/>
        <path class="cls-19" d="M177.15,117.43c8.2.2,17.29-1.2,18.32-17.89.59-9.51-.65-14.41-4.73-14.99-8.65-1.22-20.8,2.97-25.81,5.8-10.6,5.98-2.3,26.71,12.22,27.07Z"/>
        <path class="cls-8" d="M135.14,90.19c-2.37-.74-20.33-3.99-25.57-2.25-2.99.99-1.45,7.61-.68,13.93.37,3.03.53,7.9,1.3,9.78,3.81,9.23,16.88,9.11,24.31,6.18,12.68-4.99,12.66-23.88.63-27.64Z"/>
        <path class="cls-44" d="M190.14,91.08c-1.51-.75-2.56.47-5.58,1.59-2.97,1.09-11.12,2.95-7.17,4.85,4.36,2.1,10.19-1.26,10.89-1.88.7-.61,3.72-3.63,1.86-4.56Z"/>
        <path class="cls-46" d="M117.61,96.05c-3.15-.71-4.35-1.78-5.74-.83-1.72,1.17,1.68,3.75,2.45,4.27.77.52,7.01,3.08,11.04.42,3.66-2.4-4.67-3.17-7.76-3.86Z"/>
        <path class="cls-1" d="M117.52,76.19c2.78-3.16,9.9-4.62,13.79-5.26,2.2-.36,5.3-.88,7.44-.52.47,1.18.67,2.06.55,3.57.75-.94.69-2.38.31-3.32.06.02,1.93,1.91,1.04,4.64-.42,1.3-4.08.97-12.16,2.27-2.2.35-5.51.68-9.03,1.86-1.12.37-5.67,2.31-5.67,2.31.31-.68,2.44-4.09,3.73-5.56Z"/>
        <path class="cls-79" d="M181.04,63.66c-2.65-1.7-9.53-.02-13.47.95-2.02.5-7.26,1.38-9.16,2.5,0,1.27.14,2.16.83,3.52-1.07-.59-1.56-1.95-1.55-2.97-.05.04-1.12,2.48.76,4.7.89,1.06,4.32-.32,12.45-2.38,2.54-.65,6.95-1.78,9.27-1.69,2.24.08,5.41,1.3,5.41,1.3,0,0-1.86-4.2-4.54-5.92Z"/>
        <g>
          <path class="cls-57" d="M141.99,91.04c.97-1.26-.18-3.82-.81-5.43-1.97-5.02-5.9-6.57-13.93-6.44-2.63.04-7.16.76-9.85,3.43-2.08,2.06-3.24,4.06-2.94,5.82.15.89,4.55,5.78,13.3,5.73,5.72-.04,12.21-.5,14.23-3.11Z"/>
          <path class="cls-58" d="M118.61,88.21c.25.58.59,1.1,1,1.54.65.72,1.45,1.29,2.35,1.74.34.13.7.22,1.06.28.05.02.11.01.14.03.59.12,1.16.22,1.68.31.14.03.29.04.43.07,2.05.31,3.76.46,5.23.48.37,0,.75,0,1.1,0,.74-.03,1.42-.09,2.07-.2.32-.05.62-.11.91-.21.47-.14.93-.3,1.37-.49l.02-.02c.58-.25,1.1-.54,1.55-.85v-.02c1.07-.7,1.79-1.47,1.99-1.88,0,0,0-.02-.02-.03v-.02c-.15-.31-1.26-2.49-2.97-4.18-1.07-1.06-2.38-1.92-3.85-2.02-.48-.04-.94-.07-1.4-.07-8.3-.03-12.27,5.04-12.62,5.52-.02.02-.02.04-.02.04Z"/>
          <path class="cls-21" d="M118.63,88.17s-.02.04-.02.04c.25.58.59,1.1,1,1.55.1-.06.21-.14.34-.21.82-.48,2.31-1.15,5.13-1.49,11.66-1.4,14.27.77,14.4.88,0,0,0,0,0,0-.43-1.84-1.54-3.2-2.98-4.2-1.51-1.05-3.39-1.7-5.25-2.09-1.53-.33-3.03.19-4.32.14-4.15-.17-7.96,4.85-8.3,5.37Z"/>
          <path class="cls-59" d="M124.4,89.5c.05.3.06,1.68.86,2.68,2.05.31,3.76.46,5.23.48.37,0,.75,0,1.1,0,.74-.03,1.42-.09,2.07-.2.32-.05.62-.11.91-.21.47-.14.93-.3,1.37-.49l.02-.02c.58-.25,1.1-.54,1.55-.85v-.02c.14-.45.23-.95.25-1.52,0-.41-.01-.82-.08-1.19-.05-.35-.15-.69-.27-1-.04-.11-.08-.19-.12-.28-.45-1.03-1.2-1.8-2.14-2.35-1.18-.67-2.66-.98-4.22-.93-3.17.13-6.06,1.57-6.51,4.46v.05c-.07.43-.07.89-.02,1.38Z"/>
          <path class="cls-3" d="M124.41,88.12h.02c1.62-.26,3.12-.42,4.49-.5.62-1.46,2.05-2.49,3.74-2.5,1.81-.03,3.47,1.17,4.02,2.83.66.12,1,.21,1,.21-.03-.32-.11-.67-.27-1-.04-.11-.08-.19-.12-.28-.42-.85-1.16-1.7-2.14-2.35-1.18-.67-2.66-.98-4.22-.93-3.17.13-6.06,1.57-6.51,4.46-.02.04-.02.05-.02.05Z"/>
          <path d="M128.91,87.62c3.7-.22,6.41.1,7.76.34-.56-1.66-2.22-2.86-4.02-2.83-1.68,0-3.12,1.04-3.74,2.5Z"/>
          <path class="cls-5" d="M128.6,89.22c0,1.45.76,2.72,1.9,3.44.37,0,.75,0,1.1,0,.74-.03,1.42-.09,2.07-.2.32-.05.62-.11.91-.21.47-.14.93-.3,1.37-.49l.02-.02c.58-.7.94-1.58.94-2.54,0-.44-.07-.87-.22-1.25-1.36-.23-4.06-.56-7.76-.34-.19.5-.32,1.04-.31,1.61Z"/>
          <path class="cls-23" d="M128.21,90.89c-.47-.8-.16-1.87.68-2.38.84-.51,1.91-.27,2.38.54.47.81.16,1.87-.68,2.38-.84.51-1.91.27-2.38-.54Z"/>
          <path class="cls-23" d="M132.99,89.39c-.37-.63-.13-1.47.53-1.87.67-.4,1.51-.21,1.88.42.37.63.13,1.47-.53,1.87-.67.4-1.51.21-1.88-.42Z"/>
          <path class="cls-60" d="M139.49,88.97s.18-2.82-3.64-5.22c-4.01-2.51-10.61-2.01-14.36.53-2.26,1.53-2.89,3.93-2.89,3.93,0,0,4.61-2.98,9.84-2.93,2.9.03,4.02.01,5.33.28,3.43.69,5.71,3.41,5.71,3.41Z"/>
        </g>
        <path class="cls-45" d="M117.69,41.21c1.67-.88,26.71,1.73,30.58.7,3.87-1.03,24.72-5.62,28.87-3.5,4.15,2.12,7.2,6.55,7.7,9.03.49,2.49.3,14.89.61,16.89.31,2,3.94,4.39,5.37,16.02,1.44,11.64,1.31,22.73.87,27.61-.44,4.87-4.31,21.13-4.31,21.13l7.29-23.82s.71-2.82.79-5.74c.07-2.92.94-38.49.94-38.49l-12.94-34.12-68.56-.76-13.59,33.66,5.29,39.85,2.05,5.32,6.54,20.16s-3.11-24.45-3.87-25.89c-.76-1.44-1.25-14.69-1.1-17.18.41-6.77,3.53-13.46,3.88-15.28.36-1.81-2.22-14.48-1.86-16.3.37-1.81,5.45-9.3,5.45-9.3Z"/>
        <g>
          <path class="cls-48" d="M160.79,90.67c-1.05-1.18-.1-3.83.4-5.48,1.58-5.15,5.35-6.98,13.29-7.45,2.61-.15,7.13.24,9.99,2.7,2.2,1.9,3.5,3.82,3.33,5.59-.09.9-4.07,6.1-12.73,6.69-5.66.38-12.11.4-14.29-2.06Z"/>
          <path class="cls-47" d="M163.1,88.44c.4.7,2.32,2.26,4.8,2.82.39.11.8.18,1.23.22.34.04.69.05,1.05.05.34.02.67.01,1.03,0,1.17-.04,2.46-.2,3.97-.48.81-.15,1.69-.35,2.64-.58.33-.07.69-.17,1.04-.25.25-.06.51-.13.76-.19.35-.08.68-.22,1-.36.28-.17.54-.34.8-.54.29-.22.59-.47.84-.72.2-.22.39-.42.56-.66.39-.48.67-1.02.88-1.61,0,0,0-.02-.02-.03-.39-.45-4.68-5.2-12.88-4.58-.44.05-.9.1-1.38.16-1.45.23-2.67,1.18-3.66,2.32-1.58,1.81-2.51,4.07-2.64,4.39v.02s-.02.04-.02.04Z"/>
          <path class="cls-21" d="M183.67,86.1s.02.03.02.03c-.2.59-.5,1.14-.87,1.62-.1-.06-.22-.12-.36-.19-.85-.42-2.36-.98-5.18-1.11-11.63-.54-14.04,1.81-14.17,1.94,0,0,0,0,0,0,.29-1.87,1.28-3.31,2.64-4.41,1.42-1.15,3.23-1.94,5.04-2.47,1.49-.44,2.74-.02,4.01-.17,4.09-.47,8.5,4.25,8.87,4.74Z"/>
          <path class="cls-49" d="M169,87.78c-.05,1.42.39,2.97,1.18,3.75.34.02.67.01,1.03,0,1.17-.04,2.46-.2,3.97-.48.81-.15,1.69-.35,2.64-.58.33-.07.69-.17,1.04-.25.25-.06.51-.13.76-.19.35-.08.68-.22,1-.36.28-.17.54-.34.8-.54.29-.22.59-.47.84-.72.42-3.6-2.64-5.6-6.14-5.93-3.65-.36-6.96,1.34-7.11,5.3Z"/>
          <path class="cls-81" d="M169.15,86.6s1.65-.34,4.55-.31c.63-1.57,2.23-2.65,3.97-2.63,2.04.03,3.69,1.58,3.94,3.56.21.03.45.09.66.14,0,0,0-4.5-4.79-5.48-4.5-.9-7.95,2.36-8.32,4.72Z"/>
          <path d="M173.7,86.29c2.06.03,4.75.25,7.91.93-.25-1.98-1.9-3.53-3.94-3.56-1.74-.02-3.33,1.06-3.97,2.63Z"/>
          <path class="cls-80" d="M173.41,87.7c-.02,1.38.7,2.6,1.77,3.34.81-.15,1.69-.35,2.64-.58.33-.07.69-.17,1.04-.25.25-.06.51-.13.76-.19.35-.08.68-.22,1-.36.28-.17.54-.34.8-.54.14-.41.23-.86.24-1.32.01-.2-.01-.39-.04-.58-3.16-.68-5.85-.9-7.91-.93-.18.43-.29.91-.28,1.41Z"/>
          <path class="cls-23" d="M176.81,89.11c.4-.83.02-1.88-.85-2.33-.87-.44-1.9-.13-2.31.71-.4.84-.03,1.88.85,2.33.87.45,1.91.13,2.31-.71Z"/>
          <path class="cls-23" d="M180.45,87.43c.32-.66.02-1.48-.66-1.83-.69-.35-1.51-.1-1.83.56-.32.66-.02,1.48.66,1.83.69.35,1.51.1,1.83-.56Z"/>
          <path class="cls-50" d="M163.11,88.42s-.54-2.51,3.06-5.18c3.78-2.8,10.31-3.07,14.2-.82,2.34,1.36,3.33,3.71,3.33,3.71,0,0-4.93-2.83-10.09-2.4-2.86.24-3.89.51-5.17.87-3.34.94-5.32,3.82-5.32,3.82Z"/>
        </g>
        <path class="cls-2" d="M109.74,42.56s6.32-9.96,23.32-7.93c11.3,1.35,11.77,1.21,15.57,1.91,3.8.7,21.63-6.93,29.69-4.11,8.06,2.82,9.18,11.96,9.41,16.48.23,4.52-.35,15.2.78,15.87,1.13.67,5.27,4.99,5.13,11.19-.13,6.2,1.82,23.57,1.82,23.57,0,0,.59-18.88,6.97-19.65l-.08-12.98s2.23-9,2.31-12.69c.16-6.96-2.03-12.79-2.19-13.95-.4-2.98-5.69-7.96-6.61-8.93,0,0,2.98-7.08-6.08-11.61,0,0-2.34-14.5-18.21-17.22-15.87-2.72-29.07-1.34-33.87.54,0,0-17.54-3.81-25.68,7.88,0,0-10.81,4.76-11.53,15.6s3.13,15.09,3.73,14.91l5.5,1.1Z"/>
        <path class="cls-77" d="M111.38,41.19s-5.19,7.2-2.89,21.12c0,0-2.45,7.77-2.27,12.86.19,5.09,2.41,24.68,2.41,24.68,0,0-3.94-16.56-10.2-15.78,0,0-1.64-11.47-1.99-12.19,0,0-5.21-8.94-2.17-19.77,1.75-6.25,9.97-10.66,9.97-10.66l7.14-.26Z"/>
        <path class="cls-66" d="M129.68,139.41s12.54,6.49,13.18,6.36,10.14-5.52,10.14-5.52c0,0,11.07,5.08,13.51,4.79,2.44-.28,14.52-8.54,14.52-8.54,0,0-12.33,12.31-14.79,13.57-2.46,1.26-27.66.75-27.66.75l-8.91-11.41Z"/>
        <path class="cls-7" d="M194.68,105.18s-.53,24.79-2.38,29.33c-1.85,4.54-20.74,23.75-24.85,27.42-4.12,3.67-23.04,2.63-26.11,2.21s-25.8-20.72-29.02-25.54c-3.22-4.82-3.43-36.73-3.43-36.73,0,0,4.75,20.41,7.7,24.28,2.95,3.87,22.93,20.48,26.02,22.37,1.31.8,4.62-2.77,6.61-5.7,1.89-2.79.52-3.97,5.62-3.85,4.1.09,3.31,1.79,6.37,5.11,2.16,2.35,3.43,3.38,4.92,3.02,3.61-.86,22.34-23.15,23.18-25.36.85-2.21,5.37-16.56,5.37-16.56Z"/>
        <path class="cls-30" d="M123.7,121.34s19.8-7.67,21.03-7.34c7.45,1.97,14.81-1.06,15.73-1.4.93-.34,13.52,4.79,18.23,6.72,0,0,1.69,14.37,2.2,16.9.62,3.12-4.01,4.81-4.01,4.81l-.8-20.38-28.99,4.3-21.32-2.66,5.76,19.66s-3.55-.88-5.99-5.16c-.86-5.43-1.84-15.45-1.84-15.45Z"/>
        <path class="cls-4" d="M148.76,27.65s-1.04-23.2,27.61-23.82c0,0-17-9.41-27.14,2.53-10.14,11.94-.47,21.28-.47,21.28Z"/>
        <path class="cls-83" d="M135.71,25.84s.61-18.03,17.21-22.74c0,0-5.84-6.94-15.2-.03-9.36,6.9-2.01,22.78-2.01,22.78Z"/>
        <path class="cls-85" d="M128.76,27.19s-4.22-19.02,8.96-24.13c0,0-10.6-6.82-16.41,3.98s7.45,20.15,7.45,20.15Z"/>
        <path class="cls-84" d="M116.58,28.83s-12.58-10.53-4.59-19.39c7.99-8.86,15.33-6.03,15.33-6.03,0,0-8.04,5.4-9.34,11.57-1.3,6.17-1.4,13.84-1.4,13.84Z"/>
        <path class="cls-87" d="M158.6,24.59s-.43-14.91,11.05-18.01c11.48-3.1,18.46,3.67,20.14,13.16,0,0-3.08-10.87-16.78-6.08-9.28,3.24-14.41,10.94-14.41,10.94Z"/>
        <path class="cls-86" d="M176.59,29.61s12.69-7.19,19.29,1.73c0,0,.33-10.11-9.43-10.34-9.76-.22-9.86,8.6-9.86,8.6Z"/>
        <path class="cls-89" d="M104.24,41.46s-7.69-4.86-3.61-20.11c2.08-7.77,11.41-10.4,11.41-10.4,0,0-3.67,3.16-8.32,16.41-2.18,6.21.52,14.11.52,14.11Z"/>
        <path class="cls-88" d="M104.24,41.46s-7.68.41-11,10.03c-1.82,5.28,4.69,16.88,4.69,16.88,0,0-1.74-11.2.01-16.91,1.98-6.49,6.3-9.99,6.3-9.99Z"/>
        <path class="cls-82" d="M189.08,33.91s9.3-4.62,13.32,4.75c2.61,6.08,3,10.31-1.41,18.58,0,0-.09-12.42-2.48-15.85-2.38-3.43-9.44-7.49-9.44-7.49Z"/>
        <path class="cls-78" d="M108.89,101.87s-.03-6.87-.63-18.23c-.35-6.61.58-11.36,4.05-16.97,0,0-2.58-15.65-1.78-17.74,1.79-4.63,8.19-11.15,9.41-11.4,1.22-.24,26.64,1.05,29.76.59,3.11-.47,22.92-4.53,28.75-1.78,2.45,1.15,8.72,6.48,8.99,9.53s-.07,18.25-.07,18.25c0,0,5.2,5.58,5.41,13.82.22,8.24,2.67,21.61,2.67,21.61,0,0,1.2-25.39.86-28.24-.34-2.84-2.59-27.05-3.78-29.51-1.18-2.46-10.58-11.39-15.95-12.19-5.38-.8-27.28,2.45-28.24,3.09-.96.64-27.38-5.4-31.72-2.37s-12.52,13.32-12.38,15.91c.14,2.59-.7,23.47-.58,25.45.05.84,5.22,30.18,5.22,30.18Z"/>
        <path class="cls-29" d="M113.92,140.57s25.71,21.09,28.04,21.33c2.32.24,21.1.29,22.96-.42,1.86-.71,25.73-24.36,25.73-24.36,0,0-13.66,18.07-25.79,27.18-1.73,1.3-22.08.78-23.53.66-4.52-.37-26.47-23.34-27.4-24.4Z"/>
        <path class="cls-26" d="M148,144.47s2.47-4.85,3.45-5.58c.98-.73,5.85-.99,6.34.15s5.37,7.05,5.37,7.05c0,0-5.95-4.81-6.48-5.13-.53-.32-2.38-1.25-3.68-.71s-5,4.23-5,4.23Z"/>
        <path class="cls-27" d="M127.92,129.64l-.95-6.1c2.02.17,6.26-2.07,6.26-2.07,0,0-6.79.37-8.14.06-1.35-.31,2.83,8.11,2.83,8.11Z"/>
        <path class="cls-28" d="M176.36,127.86l-.25-6.42-4.87-1.05s6.45-1.04,6.47-.31c.03,1.23-1.34,7.77-1.34,7.77Z"/>
        <path class="cls-6" d="M141.89,115.36s10.96,5.02,11.42,4.89c.46-.12,10.36-5.82,10.36-5.82,0,0-1.36-2-3.2-2.04-3.2-.07-6.41,2.95-8.62,2.49-.95-.2-5.78-1.37-8.35-1.42-1.85-.03-1.61,1.89-1.61,1.89Z"/>
        <g>
          <path class="cls-90" d="M156.56,114.05c6.28-5.4,7.11.38,7.11.38-3.68-2.77-7.11-.38-7.11-.38Z"/>
          <path class="cls-90" d="M141.89,115.36s.82-1.81,5.6-.58c0,0-8.06-4.79-5.6.58Z"/>
          <path class="cls-52" d="M158.28,96.41c.14,2.44,1.76,11.54,1.12,12.98-1.42,3.21-4.41,4.67-7.29,4.65-2.15.42-6.11-.37-8.46-3.45-.96-1.26.3-10.5-.28-13.06,0,0-8.71,17.21-1.49,17.83,0,0-1.25-1.85,1.61-1.89,2.53-.03,4.02,4.29,9,3.92,5.49-.41,4.39-4.27,7.28-4.88,3.58-.76,3.05,1.63,3.9,1.93,3.53-1.74-1.81-13.85-5.39-18.03Z"/>
          <path class="cls-67" d="M147.46,106.64c-.05,2.72.42,5.61,4.42,5.37,4.39-.27,4.36-3.24,3.81-5.7-3.27-14.56-8.06-9.8-8.23.33Z"/>
        </g>
        <g>
          <path class="cls-65" d="M141.74,123.72c-3.88-.14-13.3-.1-14.64-.94,6.24-.5,10.36-3.5,15.98-4.09,3.47-.37,6.34.58,7.82.47,1.49-.1,7.33-1.09,8.56-.89,2.93.48,14.57,3.01,16.26,2.23,0,0-5.55,1.9-11.96,2.53-4.2.41-6.91.54-11.89.72-4.93.18-6.27.11-10.14-.02Z"/>
          <g>
            <path class="cls-9" d="M175.16,121.46l1.29-1.04s-.53,1.96-.97,2.46c-.43.5-5.99,1.8-5.99,1.8l5.67-3.22Z"/>
            <path class="cls-9" d="M128.48,124.13l-2.72-1.84s.66,2.28,1.13,2.74c.47.47,7.05,1.65,7.05,1.65l-5.47-2.56Z"/>
            <path class="cls-25" d="M175.44,121.53c-.96,1.04-7.75,5.56-7.96,5.68-3.41,1.83-4.66.76-7.91,1.79-.09.03-.19.06-.28.09-1.3.38-13.98,1.23-16.7.86t0,0c-2.85-.61-4.62.19-7.74-1.25-.41-.19-6.33-4.09-7.48-5.24,0,0,2.26-.31,6.87.06,7.91.63,21.49.95,36.83-1.95,1.44-.26,2.92.29,4.38-.04Z"/>
            <path class="cls-51" d="M133.69,124.17c.31,1.1.7,3.49,1.14,4.54,2.87,1.26,5.73,2.25,7.79,2.54h0c2.72.36,15.09-.33,16.42-.56,1.92-.32,5.75-2.06,8.42-3.47.4-1.05.55-3.54.71-4.68-5.87,1.32-20.14,3.88-34.49,1.63Z"/>
            <path class="cls-18" d="M133.28,123.02c.33,1.26.65,2.11,1.1,3.35,3.65.47,11.13.79,17.1.61,5.75-.17,12.65-1.28,16.28-2.12.26-1.01.4-2.08.52-3.08-4.5.35-14.96,1.35-35,1.23Z"/>
          </g>
          <path class="cls-68" d="M176.46,120.43c-9.41,1.41-20.01,1.89-24.36,2.01-5.18.15-18.77.25-26.33-.15,0,0,.44.84,1.2,1.25,1.24.68,5.7.82,24.91.2,14.12-.45,22.21-1.79,23.56-2.21.71-.22,1.01-1.11,1.01-1.11Z"/>
          <path class="cls-56" d="M131.32,130.71s8.62,3.74,10.13,3.79c3.85.15,17.35.2,18.59-.14,2.96-.79,8.13-4.45,11.19-6.2,0,0-8.57,9.12-19.07,9.47-9.66.32-16.82-4.5-20.84-6.93Z"/>
          <path class="cls-54" d="M142.73,136.33s4.72,1.66,9.8,1.49c2.72-.09,7.02-1.8,7.02-1.8,0,0-6.28.32-16.82.31Z"/>
        </g>
      </g>
      <path class="cls-53" d="M249.23,283.93c1.34-6.84,9.9-42.75,9.9-42.75l-19.41,43.43,3.66,13.6h10.56c-2.94-7.79-4.87-13.45-4.71-14.28Z"/>
      <path class="cls-55" d="M29.85,209.31s34.61,62.94,44.87,69.91c10.05,6.83,149.97,11.02,163.56-4.36l33.66-65.55-75.82-40.06-25.55,19.4-22.29,32.48-39.06-50.54-79.37,38.72Z"/>
      <path class="cls-62" d="M148.79,174.85s12.62.17,17.39-2.59c4.77-2.77-11.94,16.15-13.43,16.4-1.49.24-3.95-13.8-3.95-13.8Z"/>
      <polygon class="cls-61" points="239.72 284.61 240.32 298.21 243.38 298.21 239.72 284.61"/>
      <path class="cls-63" d="M50.78,285.37l5.51-11.59-25.9-64.47s-14.27,1.44-25.41,64.28c-1.47,8.28-3.21,16.63-4.98,24.61h45.86c2.01-4.06,3.68-8.34,4.91-12.84Z"/>
      <path class="cls-22" d="M53.21,273.28c-2.28,8.28-6.17,16.79-11.18,24.93h11.57l-.39-24.93Z"/>
      <path class="cls-69" d="M62.6,284.61l-22.95-52.23s12.09,44.72,13.43,51.55c.16.83-1.77,6.49-4.71,14.28h10.56l3.66-13.6Z"/>
      <polygon class="cls-64" points="62.6 284.61 58.94 298.21 62 298.21 62.6 284.61"/>
      <path class="cls-70" d="M165.57,218.96c-5.41,2.22-11.92,2.3-17.59,3.77,0,0-1.35,34.1-2.97,75.48h16.49l4.07-79.25Z"/>
      <g>
        <path class="cls-32" d="M135.52,190.08s6.83,6.28,8.09,7.39c1.21,1.06,4.95,18.55,4.95,18.55l-2.15,36.69-19.64-54.48,8.75-8.14Z"/>
        <path class="cls-33" d="M105.15,178.18c0,4.09,7.23,33.57,7.7,35.15,0,0,8.93-7.71,14.93-12.5l7.74-10.75s-30.37-15.99-30.37-11.9Z"/>
        <path class="cls-34" d="M120.62,156.72s-4.95,6.31-2.42,14.92c2.37,8.05,17.32,18.44,17.32,18.44,0,0-17.89,14.96-21.35,18.33-2.42-8.47-11.57-31.91-9.46-35.24,4.05-6.4,9.85-13.15,15.91-16.46Z"/>
        <path class="cls-31" d="M120.62,156.72s-6.34,8.26,1.06,19.17c5.29,7.81,13.85,14.19,13.85,14.19,0,0-11.6-8.15-14.62-11.87-9.34-11.48-.28-21.5-.28-21.5Z"/>
        <path class="cls-39" d="M164.05,189.78c-2.29,1.5-5.28,3.58-9,6.48-1.57,1.22-7.59,21.77-7.07,26.47.07.62.11,1.55.12,2.66,5.63-1.64,12.14-2.05,17.9-3.27.69-6.2.88-12.67,1.49-18.46.04-.37.33-5.32.33-5.32.38-3.66.16-3.46.33-5.85-2.01-.16-3.45-1.22-4.1-2.71Z"/>
        <path class="cls-37" d="M164.05,189.78l3.77,8.56c4.24,3.31,17.16,11.62,23.79,14.99.81.41,5.84-30.09,7.04-38.56l-34.61,15.01Z"/>
        <polygon class="cls-40" points="165.57 257.36 167.83 198.34 163.58 244.18 162.05 279.97 162.05 280.14 161.24 298.21 162.5 298.21 165.57 257.36"/>
        <path class="cls-38" d="M147.98,234.05v-11.33s-.29,2.9-.69,6.98c-.62,6.3-3.35,36.54-4.19,68.5h2.16l2.72-64.16Z"/>
        <path class="cls-36" d="M164.05,189.78s24.1,16.27,27.17,19.59c2.69-10.61,7.76-30.97,7.76-37.04,0-3.19-13.63-15.47-16.77-17.07,0,0,1.77,5.23.87,10.31-3.22,18.22-19.03,24.21-19.03,24.21Z"/>
        <path class="cls-35" d="M164.05,189.78s23.66-11.19,18.16-34.52c0,0,13.59,22.67-18.16,34.52Z"/>
        <ellipse class="cls-74" cx="137.39" cy="205.78" rx="2.36" ry="2.12"/>
        <path class="cls-75" d="M164.05,189.78s-6.61,4.6-9.72,6.19c-3.11,1.6-5.9,21.93-5.9,21.93,0,0,5.63-17.71,6.65-19.36,1.02-1.65,8.97-8.76,8.97-8.76Z"/>
        <path class="cls-76" d="M156.46,284.61c0,1.17-1.06,2.12-2.36,2.12s-2.36-.95-2.36-2.12,1.06-2.12,2.36-2.12,2.36.95,2.36,2.12Z"/>
        <path class="cls-71" d="M157.92,243.44c0,1.2-1.06,2.16-2.36,2.16s-2.36-.97-2.36-2.16,1.06-2.16,2.36-2.16,2.36.97,2.36,2.16Z"/>
      </g>
      <path class="cls-72" d="M176.5,198.34l14.73,11.03,4.57-18.83s-4.43,12.8-5.5,13.13c-1.07.33-13.8-5.33-13.8-5.33Z"/>
      <path class="cls-73" d="M109.42,194.01l4.75,14.41,13.61-11.82s-12.26,8.56-12.72,8.39c-.46-.17-5.63-10.98-5.63-10.98Z"/>
    </g>
  </g>
</svg>