<?xml version="1.0" encoding="UTF-8"?>
<svg id="Layer_2" data-name="Layer 2" xmlns="http://www.w3.org/2000/svg" width="204.89" height="204.89" xmlns:xlink="http://www.w3.org/1999/xlink" viewBox="0 0 204.89 204.89">
  <defs>
    <clipPath id="clippath">
      <rect width="204.89" height="204.89" style="fill: none;"/>
    </clipPath>
    <linearGradient id="linear-gradient" x1="50.68" y1="114.54" x2="144.32" y2="256.42" gradientUnits="userSpaceOnUse">
      <stop offset="0" stop-color="#0b173d"/>
      <stop offset=".5" stop-color="#0c193f"/>
      <stop offset=".82" stop-color="#132248"/>
      <stop offset="1" stop-color="#192b51"/>
    </linearGradient>
    <linearGradient id="linear-gradient-2" x1="127.39" y1="174.7" x2="142.96" y2="179.07" gradientUnits="userSpaceOnUse">
      <stop offset="0" stop-color="#f0c499"/>
      <stop offset=".52" stop-color="#f4cfa5"/>
      <stop offset="1" stop-color="#f7d4ab"/>
    </linearGradient>
    <linearGradient id="linear-gradient-3" x1="77.11" y1="180.84" x2="142.33" y2="199.15" xlink:href="#linear-gradient-2"/>
    <linearGradient id="linear-gradient-4" x1="98.51" y1="218.22" x2="67.41" y2="176.55" gradientUnits="userSpaceOnUse">
      <stop offset="0" stop-color="#f0c499"/>
      <stop offset=".51" stop-color="#e3b086"/>
      <stop offset="1" stop-color="#dba379"/>
    </linearGradient>
    <linearGradient id="linear-gradient-5" x1="141" y1="180.44" x2="73.82" y2="155.11" xlink:href="#linear-gradient-4"/>
    <linearGradient id="linear-gradient-6" x1="-9.47" y1="-153.7" x2="-10.43" y2="-102.8" gradientTransform="translate(106.63 204.61) rotate(1.31) scale(1 .96)" gradientUnits="userSpaceOnUse">
      <stop offset="0" stop-color="#ffd9b3"/>
      <stop offset=".28" stop-color="#fbd6af"/>
      <stop offset="1" stop-color="#f7d4ab"/>
    </linearGradient>
    <linearGradient id="linear-gradient-7" x1="-705.17" y1="829.29" x2="-695.02" y2="853.91" gradientTransform="translate(-574.79 -796.16) rotate(175.38) scale(.99 -1.14) skewX(3.14)" gradientUnits="userSpaceOnUse">
      <stop offset="0" stop-color="#dba379"/>
      <stop offset=".49" stop-color="#e3b086"/>
      <stop offset="1" stop-color="#f0c499"/>
    </linearGradient>
    <linearGradient id="linear-gradient-8" x1="976.32" y1="771.65" x2="986.33" y2="795.92" gradientTransform="translate(-966.41 -780.06) rotate(-.1) scale(.99 1.14) skewX(3.14)" xlink:href="#linear-gradient-7"/>
    <linearGradient id="linear-gradient-9" x1="67.78" y1="234.88" x2="73.76" y2="259.62" gradientTransform="translate(43.61 -149.56) rotate(-2.1)" xlink:href="#linear-gradient-2"/>
    <linearGradient id="linear-gradient-10" x1="-28.37" y1="-76.86" x2="-32.29" y2="-60.26" gradientTransform="translate(107.12 168.51) rotate(1.31)" xlink:href="#linear-gradient-2"/>
    <radialGradient id="radial-gradient" cx="71.91" cy="267.06" fx="71.91" fy="267.06" r="19.81" gradientTransform="translate(43.61 -149.56) rotate(-2.1)" gradientUnits="userSpaceOnUse">
      <stop offset="0" stop-color="#f8c39c"/>
      <stop offset="1" stop-color="#f7d4ab"/>
    </radialGradient>
    <radialGradient id="radial-gradient-2" cx="19.98" cy="267.35" fx="19.98" fy="267.35" r="19.84" xlink:href="#radial-gradient"/>
    <linearGradient id="linear-gradient-11" x1="139.33" y1="316.96" x2="125.16" y2="321.84" gradientTransform="translate(-11.5 -204.91) rotate(-2.36)" gradientUnits="userSpaceOnUse">
      <stop offset="0" stop-color="#fbd6af"/>
      <stop offset="1" stop-color="#f7d4ab"/>
    </linearGradient>
    <linearGradient id="linear-gradient-12" x1="75.47" y1="321.85" x2="54.45" y2="316.72" xlink:href="#linear-gradient-11"/>
    <linearGradient id="Gradient_58" data-name="Gradient 58" x1="-3315.14" y1="856.38" x2="-3286.97" y2="856.38" gradientTransform="translate(-3328.47 -145.79) rotate(169.41) scale(1 -1)" gradientUnits="userSpaceOnUse">
      <stop offset="0" stop-color="#2b1b13"/>
      <stop offset=".04" stop-color="#2e1d14"/>
      <stop offset=".38" stop-color="#442b1d"/>
      <stop offset=".71" stop-color="#513423"/>
      <stop offset="1" stop-color="#563725"/>
    </linearGradient>
    <linearGradient id="Gradient_58-2" data-name="Gradient 58" x1="54.8" y1="882.54" x2="82.56" y2="882.54" gradientTransform="translate(-112.07 -772.01) rotate(-11.06)" xlink:href="#Gradient_58"/>
    <linearGradient id="linear-gradient-13" x1="-8050.63" y1="476.82" x2="-8077.75" y2="500" gradientTransform="translate(-7999.68 80.09) rotate(176.68) scale(1 -1)" xlink:href="#linear-gradient-4"/>
    <linearGradient id="linear-gradient-14" x1="-8108.21" y1="256.52" x2="-8133.44" y2="250.43" gradientTransform="translate(-8048.87 147.42) rotate(177.9) scale(1 -1)" gradientUnits="userSpaceOnUse">
      <stop offset="0" stop-color="#ece7e7"/>
      <stop offset=".23" stop-color="#f5f3f3"/>
      <stop offset=".53" stop-color="#fcfcfc"/>
      <stop offset="1" stop-color="#fff"/>
    </linearGradient>
    <linearGradient id="linear-gradient-15" x1="-8130.35" y1="251.05" x2="-8118.12" y2="256.94" gradientTransform="translate(-8048.87 147.42) rotate(177.9) scale(1 -1)" gradientUnits="userSpaceOnUse">
      <stop offset="0" stop-color="#7a90a5"/>
      <stop offset=".25" stop-color="#859db3"/>
      <stop offset="1" stop-color="#a8c3dd"/>
    </linearGradient>
    <linearGradient id="Gradient_96" data-name="Gradient 96" x1="-8125.29" y1="263.72" x2="-8126.03" y2="256.93" gradientTransform="translate(-8048.87 147.42) rotate(177.9) scale(1 -1)" gradientUnits="userSpaceOnUse">
      <stop offset="0" stop-color="#a8c3dd"/>
      <stop offset="1" stop-color="#7a90a5"/>
    </linearGradient>
    <radialGradient id="Gradient_25" data-name="Gradient 25" cx="366.78" cy="1455.19" fx="366.78" fy="1455.19" r="3.38" gradientTransform="translate(403.91 -1149.17) rotate(177.9) scale(1 -.85)" gradientUnits="userSpaceOnUse">
      <stop offset="0" stop-color="#666"/>
      <stop offset="1" stop-color="#1d1d1d"/>
    </radialGradient>
    <linearGradient id="linear-gradient-16" x1="-8145.17" y1="480.05" x2="-8124.95" y2="479.08" gradientTransform="translate(-8069.18 88.9) rotate(176.7) scale(1 -1)" gradientUnits="userSpaceOnUse">
      <stop offset="0" stop-color="#2b1b13"/>
      <stop offset=".04" stop-color="#2e1d14"/>
      <stop offset=".38" stop-color="#442b1d"/>
      <stop offset=".71" stop-color="#513423"/>
      <stop offset="1" stop-color="#563725"/>
    </linearGradient>
    <linearGradient id="linear-gradient-17" x1="-.1" y1="37.73" x2="-2.48" y2="6.69" gradientTransform="translate(107.12 168.51) rotate(1.31)" gradientUnits="userSpaceOnUse">
      <stop offset="0" stop-color="#f7d4ab"/>
      <stop offset=".45" stop-color="#f3caa0"/>
      <stop offset="1" stop-color="#f0c499"/>
    </linearGradient>
    <linearGradient id="linear-gradient-18" x1="4627.71" y1="208.89" x2="4600.79" y2="231.9" gradientTransform="translate(-4493.64 -48.5) rotate(-.9)" xlink:href="#linear-gradient-4"/>
    <linearGradient id="linear-gradient-19" x1="-8151.97" y1="256.29" x2="-8177.9" y2="250.03" xlink:href="#linear-gradient-14"/>
    <linearGradient id="linear-gradient-20" x1="-8176.92" y1="250.45" x2="-8160.27" y2="257.22" gradientTransform="translate(-8048.87 147.42) rotate(177.9) scale(1 -1)" gradientUnits="userSpaceOnUse">
      <stop offset="0" stop-color="#7a90a5"/>
      <stop offset="1" stop-color="#a8c3dd"/>
    </linearGradient>
    <linearGradient id="Gradient_96-2" data-name="Gradient 96" x1="-8169.52" y1="268.46" x2="-8170.39" y2="260.4" xlink:href="#Gradient_96"/>
    <radialGradient id="Gradient_25-2" data-name="Gradient 25" cx="321.7" cy="2672.3" fx="321.7" fy="2672.3" r="3.31" gradientTransform="translate(375.63 -1918.72) rotate(177.9) scale(1 -.75)" xlink:href="#Gradient_25"/>
    <linearGradient id="linear-gradient-21" x1="4533.38" y1="215.74" x2="4553.42" y2="214.78" gradientTransform="translate(-4423.48 -44.66) rotate(-.92)" xlink:href="#linear-gradient-16"/>
    <linearGradient id="Gradient_32" data-name="Gradient 32" x1="-2.6" y1="-147.77" x2="-19.66" y2="2.84" gradientTransform="translate(107.12 168.51) rotate(1.31)" gradientUnits="userSpaceOnUse">
      <stop offset="0" stop-color="#724831"/>
      <stop offset=".22" stop-color="#67412c"/>
      <stop offset=".63" stop-color="#5a3926"/>
      <stop offset="1" stop-color="#563725"/>
    </linearGradient>
    <linearGradient id="Gradient_32-2" data-name="Gradient 32" x1="-53.85" y1="-109.21" x2="-64.59" y2="-14.46" xlink:href="#Gradient_32"/>
    <linearGradient id="linear-gradient-22" x1="-.46" y1="-71.53" x2="-.78" y2="-75.66" gradientTransform="translate(105.7 238.7) rotate(1.31) scale(1 .93)" xlink:href="#linear-gradient-17"/>
    <linearGradient id="Gradient_115" data-name="Gradient 115" x1="48.42" y1="270.91" x2="49.16" y2="344.64" gradientTransform="translate(43.61 -149.56) rotate(-2.1)" gradientUnits="userSpaceOnUse">
      <stop offset="0" stop-color="#d6ac88"/>
      <stop offset="1" stop-color="#a18166"/>
    </linearGradient>
    <linearGradient id="Gradient_115-2" data-name="Gradient 115" x1="47.9" y1="270.91" x2="48.63" y2="344.64" xlink:href="#Gradient_115"/>
    <linearGradient id="Gradient_27" data-name="Gradient 27" x1="49.43" y1="212.16" x2="61.79" y2="171.49" gradientTransform="translate(43.61 -149.56) rotate(-2.1)" gradientUnits="userSpaceOnUse">
      <stop offset="0" stop-color="#724831"/>
      <stop offset=".42" stop-color="#7f553b"/>
      <stop offset="1" stop-color="#8e6346"/>
    </linearGradient>
    <linearGradient id="Gradient_27-2" data-name="Gradient 27" x1="32.58" y1="207.04" x2="44.94" y2="166.37" xlink:href="#Gradient_27"/>
    <linearGradient id="Gradient_27-3" data-name="Gradient 27" x1="19.36" y1="203.36" x2="32.01" y2="161.73" xlink:href="#Gradient_27"/>
    <linearGradient id="Gradient_27-4" data-name="Gradient 27" x1="10.68" y1="198.88" x2="23.04" y2="158.21" xlink:href="#Gradient_27"/>
    <linearGradient id="Gradient_27-5" data-name="Gradient 27" x1="64.73" y1="216.81" x2="77.09" y2="176.14" xlink:href="#Gradient_27"/>
    <linearGradient id="Gradient_27-6" data-name="Gradient 27" x1="78.2" y1="220.9" x2="90.56" y2="180.23" xlink:href="#Gradient_27"/>
    <linearGradient id="Gradient_27-7" data-name="Gradient 27" x1="1.01" y1="197.45" x2="13.37" y2="156.78" xlink:href="#Gradient_27"/>
    <linearGradient id="Gradient_27-8" data-name="Gradient 27" x1="-66.43" y1="-99.9" x2="-57.1" y2="-98.67" gradientTransform="translate(107.12 168.51) rotate(1.31)" xlink:href="#Gradient_27"/>
    <linearGradient id="Gradient_27-9" data-name="Gradient 27" x1="90.56" y1="224.85" x2="103.66" y2="181.74" xlink:href="#Gradient_27"/>
    <linearGradient id="Gradient_58-3" data-name="Gradient 58" x1="-49.03" y1="-10.71" x2="44.26" y2="-177.81" gradientTransform="translate(107.12 168.51) rotate(1.31)" xlink:href="#Gradient_58"/>
    <linearGradient id="Gradient_115-3" data-name="Gradient 115" x1="-1.76" y1="-47.72" x2="-2.4" y2="-56.04" gradientTransform="translate(105.7 238.7) rotate(1.31) scale(1 .93)" xlink:href="#Gradient_115"/>
    <linearGradient id="Gradient_115-4" data-name="Gradient 115" x1="1.23" y1="-73.05" x2=".01" y2="-78.24" gradientTransform="translate(105.7 238.7) rotate(1.31) scale(1 .93)" xlink:href="#Gradient_115"/>
    <linearGradient id="Gradient_115-5" data-name="Gradient 115" x1="-24.9" y1="-16.55" x2="-25.92" y2="-20.92" gradientTransform="translate(107.12 168.51) rotate(1.31)" xlink:href="#Gradient_115"/>
    <linearGradient id="Gradient_115-6" data-name="Gradient 115" x1="20.54" y1="-18.94" x2="19.53" y2="-23.22" gradientTransform="translate(107.12 168.51) rotate(1.31)" xlink:href="#Gradient_115"/>
    <linearGradient id="Gradient_113" data-name="Gradient 113" x1="-4.39" y1="-49.8" x2="-5.58" y2="-33.55" gradientTransform="translate(107.12 168.51) rotate(1.31)" gradientUnits="userSpaceOnUse">
      <stop offset="0" stop-color="#a18166"/>
      <stop offset="1" stop-color="#d6ac88"/>
    </linearGradient>
    <linearGradient id="linear-gradient-23" x1="145.58" y1="504.26" x2="146.28" y2="528.6" gradientTransform="translate(-83.83 -397.11) rotate(-4.28)" gradientUnits="userSpaceOnUse">
      <stop offset="0" stop-color="#f7d4ab"/>
      <stop offset=".52" stop-color="#f5d1a8"/>
      <stop offset=".85" stop-color="#f2c99f"/>
      <stop offset="1" stop-color="#f0c499"/>
    </linearGradient>
    <linearGradient id="linear-gradient-24" x1="146.45" y1="1064.57" x2="147.95" y2="1053.46" gradientTransform="translate(-179.82 -1672.2) rotate(-4.27) scale(1 1.7) skewX(.03)" xlink:href="#linear-gradient-6"/>
    <linearGradient id="linear-gradient-25" x1="125.71" y1="591.8" x2="125.81" y2="607.64" gradientTransform="translate(-58.39 -463.86) rotate(-3.24)" xlink:href="#linear-gradient-23"/>
    <linearGradient id="linear-gradient-26" x1="46.65" y1="281.04" x2="47.33" y2="297.02" gradientTransform="translate(43.61 -149.56) rotate(-2.1)" gradientUnits="userSpaceOnUse">
      <stop offset="0" stop-color="#e8d9d7"/>
      <stop offset=".4" stop-color="#efe5e3"/>
      <stop offset="1" stop-color="#fff"/>
    </linearGradient>
    <linearGradient id="linear-gradient-27" x1="127.78" y1="614.77" x2="122.02" y2="594.33" gradientTransform="translate(-58.39 -463.86) rotate(-3.24)" xlink:href="#linear-gradient-7"/>
    <linearGradient id="linear-gradient-28" x1="125.4" y1="625.58" x2="125.18" y2="611.34" gradientTransform="translate(-58.39 -463.86) rotate(-3.24)" gradientUnits="userSpaceOnUse">
      <stop offset="0" stop-color="#f0c499"/>
      <stop offset=".52" stop-color="#f1c69b"/>
      <stop offset=".85" stop-color="#f4cea4"/>
      <stop offset="1" stop-color="#f7d4ab"/>
    </linearGradient>
    <linearGradient id="linear-gradient-29" x1="116.32" y1="622.28" x2="133.13" y2="622.28" gradientTransform="translate(-58.39 -463.86) rotate(-3.24)" xlink:href="#linear-gradient-7"/>
    <linearGradient id="linear-gradient-30" x1="100.4" y1="184.1" x2="102.94" y2="332.1" gradientUnits="userSpaceOnUse">
      <stop offset="0" stop-color="#2b416b"/>
      <stop offset=".46" stop-color="#293e68"/>
      <stop offset=".75" stop-color="#23375f"/>
      <stop offset="1" stop-color="#192b51"/>
    </linearGradient>
    <linearGradient id="linear-gradient-31" x1="98.96" y1="193.81" x2="117.21" y2="193.81" gradientTransform="matrix(1,0,0,1,0,0)" xlink:href="#linear-gradient-6"/>
    <linearGradient id="linear-gradient-32" x1="114.73" y1="364.22" x2="86.4" y2="212.93" xlink:href="#linear-gradient-30"/>
    <linearGradient id="linear-gradient-33" x1="69.21" y1="261.26" x2="70.06" y2="219.82" xlink:href="#linear-gradient-30"/>
    <linearGradient id="linear-gradient-34" x1="70.13" y1="303.07" x2="70.13" y2="179.86" xlink:href="#linear-gradient-30"/>
    <linearGradient id="linear-gradient-35" x1="76.49" y1="207.45" x2="75.46" y2="135.8" xlink:href="#linear-gradient"/>
    <linearGradient id="linear-gradient-36" x1="75.21" y1="341.11" x2="120.52" y2="188.17" xlink:href="#linear-gradient-30"/>
    <linearGradient id="linear-gradient-37" x1="130.1" y1="265.62" x2="130.99" y2="222.45" xlink:href="#linear-gradient-30"/>
    <linearGradient id="linear-gradient-38" x1="131.69" y1="314.4" x2="131.69" y2="177.13" xlink:href="#linear-gradient-30"/>
    <linearGradient id="linear-gradient-39" x1="124.97" y1="206.97" x2="124.08" y2="145.4" xlink:href="#linear-gradient"/>
    <linearGradient id="linear-gradient-40" x1="111.35" y1="225.65" x2="121.64" y2="242.97" xlink:href="#linear-gradient-30"/>
    <linearGradient id="linear-gradient-41" x1="145.04" y1="222.62" x2="155.84" y2="240.8" xlink:href="#linear-gradient-30"/>
  </defs>
  <g id="Layer_1-2" data-name="Layer 1">
    <g style="clip-path: url(#clippath);">
      <g>
        <path d="M69.28,171.2s25.47-18.7,63.1-2.44c0,0,17.81,22.47.85,38.81-16.96,16.34-59.9,14.8-66.11,1.41-6.2-13.39-2.78-34.93,2.16-37.78Z" style="fill: url(#linear-gradient);"/>
        <path d="M133.12,188.54l6.66-8.51s-7.23-2.17-10.07-16.92c-.12.11-.24.22-.36.33-.87,8.81.71,17.24,3.77,25.09Z" style="fill: url(#linear-gradient-2);"/>
        <path d="M129.35,163.45c-11.43,10.5-17.98,20.08-32.69,19.16-5.69,0-15.91-2.49-23.03-7.19,5.96,11.97,17.22,21.08,26.44,29.14,3.8,3.8,5.36,10.31,7.33,16.85l25.73-32.86c-3.06-7.85-4.64-16.28-3.77-25.09Z" style="fill: url(#linear-gradient-3);"/>
        <path d="M82.77,180.64c-.75-.5-10.62-6.24-11.3-6.78-1.21,2.84-2.69,5.81-4.52,8.9l31.5,51.88,8.94-13.23c-1.96-6.54-3.52-13.04-7.33-16.85-9.22-8.06-11.33-11.94-17.29-23.91Z" style="fill: url(#linear-gradient-4);"/>
        <path d="M129.71,163.11c-.53-2.76-.91-5.96-1.06-9.66l-58.14-14.7s3.12,16.83.97,35.1c7.04,5.71,19.74,11.05,26.03,11.05,14.87.93,23.74-3.63,32.21-21.8Z" style="fill: url(#linear-gradient-5);"/>
        <path d="M222.11,222.81c-15.56-5.75-74.21-32.38-74.21-32.38l-47.79,44.91-40.82-44.91s-68.63,27.64-79.27,32.38l28.4,84.45-.06,4.45h186.72l27.03-88.9Z" style="fill: #192b51;"/>
        <g>
          <path d="M57.4,101.57s5.18,46.82,6.56,48.73,21.9,20.99,24.53,23.08c2.64,2.09,29.11-.23,29.11-.23,0,0,21.55-20.8,23.36-24.08,1.81-3.27,3.34-51.44,3.34-51.44,0,0,4.46-37.95-5.04-50.56s-71.16-14.54-80.7,3.83c-9.54,18.37-1.16,50.67-1.16,50.67Z" style="fill: url(#linear-gradient-6);"/>
          <g>
            <path d="M151.95,93.43c9.59-1.06,3.88,14.27,3.88,14.27-3.01,19.69-1.28,22.99-9.86,22.57-6.35-.31-.88-36.09,5.98-36.85Z" style="fill: #f0c499;"/>
            <path d="M147.24,121.75s2.92-3.53,2.5-10.85c-1-17.25,8.07-17.9,5.36-6.33,0,0-.93-5.58-2.17-4-1.52,1.94,1.32,3.23-.66,11.99-1.04,4.55-5.03,9.19-5.03,9.19Z" style="fill: url(#linear-gradient-7);"/>
          </g>
          <g>
            <path d="M50.03,97.45c-9.63-.03-2.98,14.64-2.98,14.64,4.23,19.3,3.81,22.22,11.23,21.45,8.34-.86-1.37-36.07-8.25-36.09Z" style="fill: #f0c499;"/>
            <path d="M56.49,125.18s-3.13-3.21-3.16-10.54c-.08-17.3-9.16-16.99-5.74-5.74,0,0,.58-5.66,1.91-4.22,1.63,1.77-1.12,3.36,1.4,11.88,1.32,4.43,5.59,8.62,5.59,8.62Z" style="fill: url(#linear-gradient-8);"/>
          </g>
          <path d="M110.2,84.09s-3.79,7.75-3.62,8.62c.18.86,2.37,15.8,2.37,15.8,0,0,25.29-1.73,28.56-2.89,3.27-1.16,3.86-7.68,3.86-7.68l-.78-6.88s-6.74-11.9-7.45-11.38c-.72.52-22.94,4.41-22.94,4.41Z" style="fill: url(#linear-gradient-9);"/>
          <path d="M89.19,89.33s4.4,5.8,4.32,6.68c-.08.88-.04,12.85-.04,12.85,0,0-25.33,1.09-28.7.3s-4.69-7.21-4.69-7.21l3.13-5.53s7.03-7.83,7.8-7.39c.77.44,18.17.31,18.17.31Z" style="fill: url(#linear-gradient-10);"/>
          <path d="M127.32,130.93c8.2.2,17.29-1.2,18.32-17.89.59-9.51-.65-14.41-4.73-14.99-8.65-1.22-20.8,2.97-25.81,5.8-10.6,5.98-2.3,26.71,12.22,27.07Z" style="fill: url(#radial-gradient);"/>
          <path d="M85.31,103.69c-2.37-.74-20.33-3.99-25.57-2.25-2.99.99-1.45,7.61-.68,13.93.37,3.03.53,7.9,1.3,9.78,3.81,9.23,16.88,9.11,24.31,6.18,12.68-4.99,12.66-23.88.63-27.64Z" style="fill: url(#radial-gradient-2);"/>
          <path d="M140.31,104.57c-1.51-.75-2.56.47-5.58,1.59-2.97,1.09-11.12,2.95-7.17,4.85,4.36,2.1,10.19-1.26,10.89-1.88.7-.61,3.72-3.63,1.86-4.56Z" style="fill: url(#linear-gradient-11);"/>
          <path d="M67.78,109.54c-3.15-.71-4.35-1.78-5.74-.83-1.72,1.17,1.68,3.75,2.45,4.27.77.52,7.01,3.08,11.04.42,3.66-2.4-4.67-3.17-7.76-3.86Z" style="fill: url(#linear-gradient-12);"/>
          <path d="M67.69,89.69c2.78-3.16,9.9-4.62,13.79-5.26,2.2-.36,5.3-.88,7.44-.52.47,1.18.67,2.06.55,3.57.75-.94.69-2.38.31-3.32.06.02,1.93,1.91,1.04,4.64-.42,1.3-4.08.97-12.16,2.27-2.2.35-5.51.68-9.03,1.86-1.12.37-5.67,2.31-5.67,2.31.31-.68,2.44-4.09,3.73-5.56Z" style="fill: url(#Gradient_58);"/>
          <path d="M131.21,77.16c-2.65-1.7-9.53-.02-13.47.95-2.02.5-7.26,1.38-9.16,2.5,0,1.27.14,2.16.83,3.52-1.07-.59-1.56-1.95-1.55-2.97-.05.04-1.12,2.48.76,4.7.89,1.06,4.32-.32,12.45-2.38,2.54-.65,6.95-1.78,9.27-1.69,2.24.08,5.41,1.3,5.41,1.3,0,0-1.86-4.2-4.54-5.92Z" style="fill: url(#Gradient_58-2);"/>
          <g>
            <path d="M92.16,104.53c.97-1.26-.18-3.82-.81-5.43-1.97-5.02-5.9-6.57-13.93-6.44-2.63.04-7.16.76-9.85,3.43-2.08,2.06-3.24,4.06-2.94,5.82.15.89,4.55,5.78,13.3,5.73,5.72-.04,12.21-.5,14.23-3.11Z" style="fill: url(#linear-gradient-13);"/>
            <path d="M68.78,101.7c.25.58.59,1.1,1,1.54.65.72,1.45,1.29,2.35,1.74.34.13.7.22,1.06.28.05.02.11.01.14.03.59.12,1.16.22,1.68.31.14.03.29.04.43.07,2.05.31,3.76.46,5.23.48.37,0,.75,0,1.1,0,.74-.03,1.42-.09,2.07-.2.32-.05.62-.11.91-.21.47-.14.93-.3,1.37-.49l.02-.02c.58-.25,1.1-.54,1.55-.85v-.02c1.07-.7,1.79-1.47,1.99-1.88,0,0,0-.02-.02-.03v-.02c-.15-.31-1.26-2.49-2.97-4.18-1.07-1.06-2.38-1.92-3.85-2.02-.48-.04-.94-.07-1.4-.07-8.3-.03-12.27,5.04-12.62,5.52-.02.02-.02.04-.02.04Z" style="fill: url(#linear-gradient-14);"/>
            <path d="M68.8,101.66s-.02.04-.02.04c.25.58.59,1.1,1,1.55.1-.06.21-.14.34-.21.82-.48,2.31-1.15,5.13-1.49,11.66-1.4,14.27.77,14.4.88,0,0,0,0,0,0-.43-1.84-1.54-3.2-2.98-4.2-1.51-1.05-3.39-1.7-5.25-2.09-1.53-.33-3.03.19-4.32.14-4.15-.17-7.96,4.85-8.3,5.37Z" style="fill: #ddd;"/>
            <path d="M74.57,103c.05.3.06,1.68.86,2.68,2.05.31,3.76.46,5.23.48.37,0,.75,0,1.1,0,.74-.03,1.42-.09,2.07-.2.32-.05.62-.11.91-.21.47-.14.93-.3,1.37-.49l.02-.02c.58-.25,1.1-.54,1.55-.85v-.02c.14-.45.23-.95.25-1.52,0-.41-.01-.82-.08-1.19-.05-.35-.15-.69-.27-1-.04-.11-.08-.19-.12-.28-.45-1.03-1.2-1.8-2.14-2.35-1.18-.67-2.66-.98-4.22-.93-3.17.13-6.06,1.57-6.51,4.46v.05c-.07.43-.07.89-.02,1.38Z" style="fill: url(#linear-gradient-15);"/>
            <path d="M74.58,101.61h.02c1.62-.26,3.12-.42,4.49-.5.62-1.46,2.05-2.49,3.74-2.5,1.81-.03,3.47,1.17,4.02,2.83.66.12,1,.21,1,.21-.03-.32-.11-.67-.27-1-.04-.11-.08-.19-.12-.28-.42-.85-1.16-1.7-2.14-2.35-1.18-.67-2.66-.98-4.22-.93-3.17.13-6.06,1.57-6.51,4.46-.02.04-.02.05-.02.05Z" style="fill: url(#Gradient_96);"/>
            <path d="M79.08,101.11c3.7-.22,6.41.1,7.76.34-.56-1.66-2.22-2.86-4.02-2.83-1.68,0-3.12,1.04-3.74,2.5Z"/>
            <path d="M78.77,102.72c0,1.45.76,2.72,1.9,3.44.37,0,.75,0,1.1,0,.74-.03,1.42-.09,2.07-.2.32-.05.62-.11.91-.21.47-.14.93-.3,1.37-.49l.02-.02c.58-.7.94-1.58.94-2.54,0-.44-.07-.87-.22-1.25-1.36-.23-4.06-.56-7.76-.34-.19.5-.32,1.04-.31,1.61Z" style="fill: url(#Gradient_25);"/>
            <path d="M78.38,104.39c-.47-.8-.16-1.87.68-2.38.84-.51,1.91-.27,2.38.54.47.81.16,1.87-.68,2.38-.84.51-1.91.27-2.38-.54Z" style="fill: #fff;"/>
            <path d="M83.16,102.89c-.37-.63-.13-1.47.53-1.87.67-.4,1.51-.21,1.88.42.37.63.13,1.47-.53,1.87-.67.4-1.51.21-1.88-.42Z" style="fill: #fff;"/>
            <path d="M89.66,102.46s.18-2.82-3.64-5.22c-4.01-2.51-10.61-2.01-14.36.53-2.26,1.53-2.89,3.93-2.89,3.93,0,0,4.61-2.98,9.84-2.93,2.9.03,4.02.01,5.33.28,3.43.69,5.71,3.41,5.71,3.41Z" style="fill: url(#linear-gradient-16);"/>
          </g>
          <path d="M67.87,54.7c1.67-.88,26.71,1.73,30.58.7,3.87-1.03,24.72-5.62,28.87-3.5,4.15,2.12,7.2,6.55,7.7,9.03.49,2.49.3,14.89.61,16.89.31,2,3.94,4.39,5.37,16.02,1.44,11.64,1.31,22.73.87,27.61-.44,4.87-4.31,21.13-4.31,21.13l7.29-23.82s.71-2.82.79-5.74c.07-2.92.94-38.49.94-38.49l-12.94-34.12-68.56-.76-13.59,33.66,5.29,39.85,2.05,5.32,6.54,20.16s-3.11-24.45-3.87-25.89c-.76-1.44-1.25-14.69-1.1-17.18.41-6.77,3.53-13.46,3.88-15.28.36-1.81-2.22-14.48-1.86-16.3.37-1.81,5.45-9.3,5.45-9.3Z" style="fill: url(#linear-gradient-17);"/>
          <g>
            <path d="M110.97,104.16c-1.05-1.18-.1-3.83.4-5.48,1.58-5.15,5.35-6.98,13.29-7.45,2.61-.15,7.13.24,9.99,2.7,2.2,1.9,3.5,3.82,3.33,5.59-.09.9-4.07,6.1-12.73,6.69-5.66.38-12.11.4-14.29-2.06Z" style="fill: url(#linear-gradient-18);"/>
            <path d="M113.27,101.93c.4.7,2.32,2.26,4.8,2.82.39.11.8.18,1.23.22.34.04.69.05,1.05.05.34.02.67.01,1.03,0,1.17-.04,2.46-.2,3.97-.48.81-.15,1.69-.35,2.64-.58.33-.07.69-.17,1.04-.25.25-.06.51-.13.76-.19.35-.08.68-.22,1-.36.28-.17.54-.34.8-.54.29-.22.59-.47.84-.72.2-.22.39-.42.56-.66.39-.48.67-1.02.88-1.61,0,0,0-.02-.02-.03-.39-.45-4.68-5.2-12.88-4.58-.44.05-.9.1-1.38.16-1.45.23-2.67,1.18-3.66,2.32-1.58,1.81-2.51,4.07-2.64,4.39v.02s-.02.04-.02.04Z" style="fill: url(#linear-gradient-19);"/>
            <path d="M133.84,99.59s.02.03.02.03c-.2.59-.5,1.14-.87,1.62-.1-.06-.22-.12-.36-.19-.85-.42-2.36-.98-5.18-1.11-11.63-.54-14.04,1.81-14.17,1.94,0,0,0,0,0,0,.29-1.87,1.28-3.31,2.64-4.41,1.42-1.15,3.23-1.94,5.04-2.47,1.49-.44,2.74-.02,4.01-.17,4.09-.47,8.5,4.25,8.87,4.74Z" style="fill: #ddd;"/>
            <path d="M119.17,101.27c-.05,1.42.39,2.97,1.18,3.75.34.02.67.01,1.03,0,1.17-.04,2.46-.2,3.97-.48.81-.15,1.69-.35,2.64-.58.33-.07.69-.17,1.04-.25.25-.06.51-.13.76-.19.35-.08.68-.22,1-.36.28-.17.54-.34.8-.54.29-.22.59-.47.84-.72.42-3.6-2.64-5.6-6.14-5.93-3.65-.36-6.96,1.34-7.11,5.3Z" style="fill: url(#linear-gradient-20);"/>
            <path d="M119.32,100.09s1.65-.34,4.55-.31c.63-1.57,2.23-2.65,3.97-2.63,2.04.03,3.69,1.58,3.94,3.56.21.03.45.09.66.14,0,0,0-4.5-4.79-5.48-4.5-.9-7.95,2.36-8.32,4.72Z" style="fill: url(#Gradient_96-2);"/>
            <path d="M123.87,99.79c2.06.03,4.75.25,7.91.93-.25-1.98-1.9-3.53-3.94-3.56-1.74-.02-3.33,1.06-3.97,2.63Z"/>
            <path d="M123.58,101.2c-.02,1.38.7,2.6,1.77,3.34.81-.15,1.69-.35,2.64-.58.33-.07.69-.17,1.04-.25.25-.06.51-.13.76-.19.35-.08.68-.22,1-.36.28-.17.54-.34.8-.54.14-.41.23-.86.24-1.32.01-.2-.01-.39-.04-.58-3.16-.68-5.85-.9-7.91-.93-.18.43-.29.91-.28,1.41Z" style="fill: url(#Gradient_25-2);"/>
            <path d="M126.98,102.6c.4-.83.02-1.88-.85-2.33-.87-.44-1.9-.13-2.31.71-.4.84-.03,1.88.85,2.33.87.45,1.91.13,2.31-.71Z" style="fill: #fff;"/>
            <path d="M130.62,100.93c.32-.66.02-1.48-.66-1.83-.69-.35-1.51-.1-1.83.56-.32.66-.02,1.48.66,1.83.69.35,1.51.1,1.83-.56Z" style="fill: #fff;"/>
            <path d="M113.28,101.91s-.54-2.51,3.06-5.18c3.78-2.8,10.31-3.07,14.2-.82,2.34,1.36,3.33,3.71,3.33,3.71,0,0-4.93-2.83-10.09-2.4-2.86.24-3.89.51-5.17.87-3.34.94-5.32,3.82-5.32,3.82Z" style="fill: url(#linear-gradient-21);"/>
          </g>
          <path d="M59.91,56.06s6.32-9.96,23.32-7.93c11.3,1.35,11.77,1.21,15.57,1.91,3.8.7,21.63-6.93,29.69-4.11,8.06,2.82,9.18,11.96,9.41,16.48.23,4.52-.35,15.2.78,15.87,1.13.67,5.27,4.99,5.13,11.19-.13,6.2,1.82,23.57,1.82,23.57,0,0,.59-18.88,6.97-19.65l-.08-12.98s2.23-9,2.31-12.69c.16-6.96-2.03-12.79-2.19-13.95-.4-2.98-5.69-7.96-6.61-8.93,0,0,2.98-7.08-6.08-11.61,0,0-2.34-14.5-18.21-17.22-15.87-2.72-29.07-1.34-33.87.54,0,0-17.54-3.81-25.68,7.88,0,0-10.81,4.76-11.53,15.6s3.13,15.09,3.73,14.91l5.5,1.1Z" style="fill: url(#Gradient_32);"/>
          <path d="M61.55,54.69s-5.19,7.2-2.89,21.12c0,0-2.45,7.77-2.27,12.86.19,5.09,2.41,24.68,2.41,24.68,0,0-3.94-16.56-10.2-15.78,0,0-1.64-11.47-1.99-12.19,0,0-5.21-8.94-2.17-19.77,1.75-6.25,9.97-10.66,9.97-10.66l7.14-.26Z" style="fill: url(#Gradient_32-2);"/>
          <path d="M79.85,152.9s12.54,6.49,13.18,6.36,10.14-5.52,10.14-5.52c0,0,11.07,5.08,13.51,4.79,2.44-.28,14.52-8.54,14.52-8.54,0,0-12.33,12.31-14.79,13.57-2.46,1.26-27.66.75-27.66.75l-8.91-11.41Z" style="fill: url(#linear-gradient-22);"/>
          <path d="M144.85,118.67s-.53,24.79-2.38,29.33c-1.85,4.54-20.74,23.75-24.85,27.42-4.12,3.67-23.04,2.63-26.11,2.21s-25.8-20.72-29.02-25.54c-3.22-4.82-3.43-36.73-3.43-36.73,0,0,4.75,20.41,7.7,24.28,2.95,3.87,22.93,20.48,26.02,22.37,1.31.8,4.62-2.77,6.61-5.7,1.89-2.79.52-3.97,5.62-3.85,4.1.09,3.31,1.79,6.37,5.11,2.16,2.35,3.43,3.38,4.92,3.02,3.61-.86,22.34-23.15,23.18-25.36.85-2.21,5.37-16.56,5.37-16.56Z" style="fill: url(#Gradient_115);"/>
          <path d="M73.87,134.84s19.8-7.67,21.03-7.34c7.45,1.97,14.81-1.06,15.73-1.4.93-.34,13.52,4.79,18.23,6.72,0,0,1.69,14.37,2.2,16.9.62,3.12-4.01,4.81-4.01,4.81l-.8-20.38-28.99,4.3-21.32-2.66,5.76,19.66s-3.55-.88-5.99-5.16c-.86-5.43-1.84-15.45-1.84-15.45Z" style="fill: url(#Gradient_115-2);"/>
          <path d="M98.94,41.14s-1.04-23.2,27.61-23.82c0,0-17-9.41-27.14,2.53-10.14,11.94-.47,21.28-.47,21.28Z" style="fill: url(#Gradient_27);"/>
          <path d="M85.88,39.33s.61-18.03,17.21-22.74c0,0-5.84-6.94-15.2-.03-9.36,6.9-2.01,22.78-2.01,22.78Z" style="fill: url(#Gradient_27-2);"/>
          <path d="M78.93,40.68s-4.22-19.02,8.96-24.13c0,0-10.6-6.82-16.41,3.98s7.45,20.15,7.45,20.15Z" style="fill: url(#Gradient_27-3);"/>
          <path d="M66.75,42.32s-12.58-10.53-4.59-19.39c7.99-8.86,15.33-6.03,15.33-6.03,0,0-8.04,5.4-9.34,11.57-1.3,6.17-1.4,13.84-1.4,13.84Z" style="fill: url(#Gradient_27-4);"/>
          <path d="M108.78,38.09s-.43-14.91,11.05-18.01c11.48-3.1,18.46,3.67,20.14,13.16,0,0-3.08-10.87-16.78-6.08-9.28,3.24-14.41,10.94-14.41,10.94Z" style="fill: url(#Gradient_27-5);"/>
          <path d="M126.76,43.11s12.69-7.19,19.29,1.73c0,0,.33-10.11-9.43-10.34-9.76-.22-9.86,8.6-9.86,8.6Z" style="fill: url(#Gradient_27-6);"/>
          <path d="M54.41,54.95s-7.69-4.86-3.61-20.11c2.08-7.77,11.41-10.4,11.41-10.4,0,0-3.67,3.16-8.32,16.41-2.18,6.21.52,14.11.52,14.11Z" style="fill: url(#Gradient_27-7);"/>
          <path d="M54.41,54.95s-7.68.41-11,10.03c-1.82,5.28,4.69,16.88,4.69,16.88,0,0-1.74-11.2.01-16.91,1.98-6.49,6.3-9.99,6.3-9.99Z" style="fill: url(#Gradient_27-8);"/>
          <path d="M139.25,47.4s9.3-4.62,13.32,4.75c2.61,6.08,3,10.31-1.41,18.58,0,0-.09-12.42-2.48-15.85-2.38-3.43-9.44-7.49-9.44-7.49Z" style="fill: url(#Gradient_27-9);"/>
          <path d="M59.06,115.36s-.03-6.87-.63-18.23c-.35-6.61.58-11.36,4.05-16.97,0,0-2.58-15.65-1.78-17.74,1.79-4.63,8.19-11.15,9.41-11.4,1.22-.24,26.64,1.05,29.76.59,3.11-.47,22.92-4.53,28.75-1.78,2.45,1.15,8.72,6.48,8.99,9.53s-.07,18.25-.07,18.25c0,0,5.2,5.58,5.41,13.82.22,8.24,2.67,21.61,2.67,21.61,0,0,1.2-25.39.86-28.24-.34-2.84-2.59-27.05-3.78-29.51-1.18-2.46-10.58-11.39-15.95-12.19-5.38-.8-27.28,2.45-28.24,3.09-.96.64-27.38-5.4-31.72-2.37s-12.52,13.32-12.38,15.91c.14,2.59-.7,23.47-.58,25.45.05.84,5.22,30.18,5.22,30.18Z" style="fill: url(#Gradient_58-3);"/>
          <path d="M64.09,154.07s25.71,21.09,28.04,21.33c2.32.24,21.1.29,22.96-.42,1.86-.71,25.73-24.36,25.73-24.36,0,0-13.66,18.07-25.79,27.18-1.73,1.3-22.08.78-23.53.66-4.52-.37-26.47-23.34-27.4-24.4Z" style="fill: url(#Gradient_115-3);"/>
          <path d="M98.17,157.97s2.47-4.85,3.45-5.58c.98-.73,5.85-.99,6.34.15s5.37,7.05,5.37,7.05c0,0-5.95-4.81-6.48-5.13-.53-.32-2.38-1.25-3.68-.71s-5,4.23-5,4.23Z" style="fill: url(#Gradient_115-4);"/>
          <path d="M78.09,143.14l-.95-6.1c2.02.17,6.26-2.07,6.26-2.07,0,0-6.79.37-8.14.06-1.35-.31,2.83,8.11,2.83,8.11Z" style="fill: url(#Gradient_115-5);"/>
          <path d="M126.53,141.36l-.25-6.42-4.87-1.05s6.45-1.04,6.47-.31c.03,1.23-1.34,7.77-1.34,7.77Z" style="fill: url(#Gradient_115-6);"/>
          <path d="M92.06,128.85s10.96,5.02,11.42,4.89c.46-.12,10.36-5.82,10.36-5.82,0,0-1.36-2-3.2-2.04-3.2-.07-6.41,2.95-8.62,2.49-.95-.2-5.78-1.37-8.35-1.42-1.85-.03-1.61,1.89-1.61,1.89Z" style="fill: url(#Gradient_113);"/>
          <g>
            <path d="M106.73,127.55c6.28-5.4,7.11.38,7.11.38-3.68-2.77-7.11-.38-7.11-.38Z" style="fill: #dca57b;"/>
            <path d="M92.06,128.85s.82-1.81,5.6-.58c0,0-8.06-4.79-5.6.58Z" style="fill: #dca57b;"/>
            <path d="M108.45,109.91c.14,2.44,1.76,11.54,1.12,12.98-1.42,3.21-4.41,4.67-7.29,4.65-2.15.42-6.11-.37-8.46-3.45-.96-1.26.3-10.5-.28-13.06,0,0-8.71,17.21-1.49,17.83,0,0-1.25-1.85,1.61-1.89,2.53-.03,4.02,4.29,9,3.92,5.49-.41,4.39-4.27,7.28-4.88,3.58-.76,3.05,1.63,3.9,1.93,3.53-1.74-1.81-13.85-5.39-18.03Z" style="fill: url(#linear-gradient-23);"/>
            <path d="M97.63,120.13c-.05,2.72.42,5.61,4.42,5.37,4.39-.27,4.36-3.24,3.81-5.7-3.27-14.56-8.06-9.8-8.23.33Z" style="fill: url(#linear-gradient-24);"/>
          </g>
          <g>
            <path d="M91.91,137.22c-3.88-.14-13.3-.1-14.64-.94,6.24-.5,10.36-3.5,15.98-4.09,3.47-.37,6.34.58,7.82.47,1.49-.1,7.33-1.09,8.56-.89,2.93.48,14.57,3.01,16.26,2.23,0,0-5.55,1.9-11.96,2.53-4.2.41-6.91.54-11.89.72-4.93.18-6.27.11-10.14-.02Z" style="fill: url(#linear-gradient-25);"/>
            <g>
              <path d="M125.33,134.96l1.29-1.04s-.53,1.96-.97,2.46c-.43.5-5.99,1.8-5.99,1.8l5.67-3.22Z" style="fill: #e1b18c;"/>
              <path d="M78.65,137.63l-2.72-1.84s.66,2.28,1.13,2.74c.47.47,7.05,1.65,7.05,1.65l-5.47-2.56Z" style="fill: #e1b18c;"/>
              <path d="M125.61,135.03c-.96,1.04-7.75,5.56-7.96,5.68-3.41,1.83-4.66.76-7.91,1.79-.09.03-.19.06-.28.09-1.3.38-13.98,1.23-16.7.86t0,0c-2.85-.61-4.62.19-7.74-1.25-.41-.19-6.33-4.09-7.48-5.24,0,0,2.26-.31,6.87.06,7.91.63,21.49.95,36.83-1.95,1.44-.26,2.92.29,4.38-.04Z" style="fill: #711e22;"/>
              <path d="M83.87,137.66c.31,1.1.7,3.49,1.14,4.54,2.87,1.26,5.73,2.25,7.79,2.54h0c2.72.36,15.09-.33,16.42-.56,1.92-.32,5.75-2.06,8.42-3.47.4-1.05.55-3.54.71-4.68-5.87,1.32-20.14,3.88-34.49,1.63Z" style="fill: url(#linear-gradient-26);"/>
              <path d="M83.46,136.51c.33,1.26.65,2.11,1.1,3.35,3.65.47,11.13.79,17.1.61,5.75-.17,12.65-1.28,16.28-2.12.26-1.01.4-2.08.52-3.08-4.5.35-14.96,1.35-35,1.23Z" style="fill: #f3eceb;"/>
            </g>
            <path d="M126.63,133.92c-9.41,1.41-20.01,1.89-24.36,2.01-5.18.15-18.77.25-26.33-.15,0,0,.44.84,1.2,1.25,1.24.68,5.7.82,24.91.2,14.12-.45,22.21-1.79,23.56-2.21.71-.22,1.01-1.11,1.01-1.11Z" style="fill: url(#linear-gradient-27);"/>
            <path d="M81.49,144.2s8.62,3.74,10.13,3.79c3.85.15,17.35.2,18.59-.14,2.96-.79,8.13-4.45,11.19-6.2,0,0-8.57,9.12-19.07,9.47-9.66.32-16.82-4.5-20.84-6.93Z" style="fill: url(#linear-gradient-28);"/>
            <path d="M92.9,149.82s4.72,1.66,9.8,1.49c2.72-.09,7.02-1.8,7.02-1.8,0,0-6.28.32-16.82.31Z" style="fill: url(#linear-gradient-29);"/>
          </g>
        </g>
        <path d="M-19.98,222.81s34.61,62.94,44.87,69.91c10.05,6.83,149.97,11.02,163.56-4.36l33.66-65.55-75.82-40.06-25.55,19.4-22.29,32.48-39.06-50.54-79.37,38.72Z" style="fill: url(#linear-gradient-30);"/>
        <path d="M98.96,188.34s12.62.17,17.39-2.59c4.77-2.77-11.94,16.15-13.43,16.4-1.49.24-3.95-13.8-3.95-13.8Z" style="fill: url(#linear-gradient-31);"/>
        <g>
          <path d="M85.69,203.58s6.83,6.28,8.09,7.39c1.21,1.06,4.95,18.55,4.95,18.55l-2.15,36.69-19.64-54.48,8.75-8.14Z" style="fill: url(#linear-gradient-32);"/>
          <path d="M55.32,191.68c0,4.09,7.23,33.57,7.7,35.15,0,0,8.93-7.71,14.93-12.5l7.74-10.75s-30.37-15.99-30.37-11.9Z" style="fill: url(#linear-gradient-33);"/>
          <path d="M70.79,170.22s-4.95,6.31-2.42,14.92c2.37,8.05,17.32,18.44,17.32,18.44,0,0-17.89,14.96-21.35,18.33-2.42-8.47-11.57-31.91-9.46-35.24,4.05-6.4,9.85-13.15,15.91-16.46Z" style="fill: url(#linear-gradient-34);"/>
          <path d="M70.79,170.22s-6.34,8.26,1.06,19.17c5.29,7.81,13.85,14.19,13.85,14.19,0,0-11.6-8.15-14.62-11.87-9.34-11.48-.28-21.5-.28-21.5Z" style="fill: url(#linear-gradient-35);"/>
          <path d="M114.22,203.28c-2.29,1.5-5.28,3.58-9,6.48-1.57,1.22-7.59,21.77-7.07,26.47.07.62.11,1.55.12,2.66,5.63-1.64,12.14-2.05,17.9-3.27.69-6.2.88-12.67,1.49-18.46.04-.37.33-5.32.33-5.32.38-3.66.16-3.46.33-5.85-2.01-.16-3.45-1.22-4.1-2.71Z" style="fill: url(#linear-gradient-36);"/>
          <path d="M114.22,203.28l3.77,8.56c4.24,3.31,17.16,11.62,23.79,14.99.81.41,5.84-30.09,7.04-38.56l-34.61,15.01Z" style="fill: url(#linear-gradient-37);"/>
          <path d="M114.22,203.28s24.1,16.27,27.17,19.59c2.69-10.61,7.76-30.97,7.76-37.04,0-3.19-13.63-15.47-16.77-17.07,0,0,1.77,5.23.87,10.31-3.22,18.22-19.03,24.21-19.03,24.21Z" style="fill: url(#linear-gradient-38);"/>
          <path d="M114.22,203.28s23.66-11.19,18.16-34.52c0,0,13.59,22.67-18.16,34.52Z" style="fill: url(#linear-gradient-39);"/>
          <path d="M114.22,203.28s-6.61,4.6-9.72,6.19c-3.11,1.6-5.9,21.93-5.9,21.93,0,0,5.63-17.71,6.65-19.36,1.02-1.65,8.97-8.76,8.97-8.76Z" style="fill: url(#linear-gradient-40);"/>
        </g>
        <path d="M126.67,211.83l14.73,11.03,4.57-18.83s-4.43,12.8-5.5,13.13c-1.07.33-13.8-5.33-13.8-5.33Z" style="fill: url(#linear-gradient-41);"/>
      </g>
    </g>
  </g>
</svg>