<?xml version="1.0" encoding="UTF-8"?>
<svg id="Layer_2" data-name="Layer 2" xmlns="http://www.w3.org/2000/svg" width="204.89" height="204.89" xmlns:xlink="http://www.w3.org/1999/xlink" viewBox="0 0 204.89 204.89">
  <defs>
    <clipPath id="clippath">
      <rect width="204.89" height="204.89" style="fill: none;"/>
    </clipPath>
    <linearGradient id="linear-gradient" x1="51.42" y1="113.02" x2="145.06" y2="254.9" gradientUnits="userSpaceOnUse">
      <stop offset="0" stop-color="#0b173d"/>
      <stop offset=".5" stop-color="#0c193f"/>
      <stop offset=".82" stop-color="#132248"/>
      <stop offset="1" stop-color="#192b51"/>
    </linearGradient>
    <linearGradient id="linear-gradient-2" x1="128.13" y1="173.18" x2="143.7" y2="177.55" gradientUnits="userSpaceOnUse">
      <stop offset="0" stop-color="#f0c499"/>
      <stop offset=".52" stop-color="#f4cfa5"/>
      <stop offset="1" stop-color="#f7d4ab"/>
    </linearGradient>
    <linearGradient id="linear-gradient-3" x1="77.85" y1="179.32" x2="143.07" y2="197.63" xlink:href="#linear-gradient-2"/>
    <linearGradient id="linear-gradient-4" x1="99.25" y1="216.7" x2="68.15" y2="175.03" gradientUnits="userSpaceOnUse">
      <stop offset="0" stop-color="#f0c499"/>
      <stop offset=".51" stop-color="#e3b086"/>
      <stop offset="1" stop-color="#dba379"/>
    </linearGradient>
    <linearGradient id="linear-gradient-5" x1="141.74" y1="178.92" x2="74.56" y2="153.59" xlink:href="#linear-gradient-4"/>
    <linearGradient id="linear-gradient-6" x1="101.14" y1="182.58" x2="103.68" y2="330.58" gradientUnits="userSpaceOnUse">
      <stop offset="0" stop-color="#2b416b"/>
      <stop offset=".46" stop-color="#293e68"/>
      <stop offset=".75" stop-color="#23375f"/>
      <stop offset="1" stop-color="#192b51"/>
    </linearGradient>
    <linearGradient id="linear-gradient-7" x1="146.11" y1="185.47" x2="73.9" y2="158.24" xlink:href="#linear-gradient-4"/>
    <linearGradient id="linear-gradient-8" x1="115.48" y1="362.7" x2="87.14" y2="211.41" xlink:href="#linear-gradient-6"/>
    <linearGradient id="linear-gradient-9" x1="69.95" y1="259.74" x2="70.8" y2="218.3" xlink:href="#linear-gradient-6"/>
    <linearGradient id="linear-gradient-10" x1="70.87" y1="301.55" x2="70.87" y2="178.34" xlink:href="#linear-gradient-6"/>
    <linearGradient id="linear-gradient-11" x1="77.23" y1="205.93" x2="76.2" y2="134.28" xlink:href="#linear-gradient"/>
    <linearGradient id="linear-gradient-12" x1="75.95" y1="339.59" x2="121.26" y2="186.65" xlink:href="#linear-gradient-6"/>
    <linearGradient id="linear-gradient-13" x1="130.85" y1="264.1" x2="131.73" y2="220.93" xlink:href="#linear-gradient-6"/>
    <linearGradient id="linear-gradient-14" x1="132.43" y1="312.88" x2="132.43" y2="175.61" xlink:href="#linear-gradient-6"/>
    <linearGradient id="linear-gradient-15" x1="125.71" y1="205.45" x2="124.83" y2="143.88" xlink:href="#linear-gradient"/>
    <linearGradient id="linear-gradient-16" x1="112.09" y1="224.13" x2="122.38" y2="241.45" xlink:href="#linear-gradient-6"/>
    <linearGradient id="linear-gradient-17" x1="145.78" y1="221.1" x2="156.58" y2="239.28" xlink:href="#linear-gradient-6"/>
    <linearGradient id="linear-gradient-18" x1="100.07" y1="196.77" x2="118.37" y2="196.77" gradientUnits="userSpaceOnUse">
      <stop offset="0" stop-color="#ffd9b3"/>
      <stop offset=".28" stop-color="#fbd6af"/>
      <stop offset="1" stop-color="#f7d4ab"/>
    </linearGradient>
    <linearGradient id="linear-gradient-19" x1="57.12" y1="-239.8" x2="56.15" y2="-187.98" gradientTransform="translate(32.24 284.37) rotate(3.42) scale(1 .96)" xlink:href="#linear-gradient-18"/>
    <linearGradient id="linear-gradient-20" x1="1202.01" y1="619.19" x2="1212.17" y2="643.86" gradientTransform="translate(1351.58 -662.56) rotate(177.48) scale(.99 -1.14) skewX(3.14)" gradientUnits="userSpaceOnUse">
      <stop offset="0" stop-color="#dba379"/>
      <stop offset=".49" stop-color="#e3b086"/>
      <stop offset="1" stop-color="#f0c499"/>
    </linearGradient>
    <linearGradient id="linear-gradient-21" x1="1021.48" y1="626.08" x2="1031.51" y2="650.4" gradientTransform="translate(-975.28 -652.89) rotate(2) scale(.99 1.14) skewX(3.13)" xlink:href="#linear-gradient-20"/>
    <linearGradient id="linear-gradient-22" x1="67.66" y1="-177.44" x2="85.63" y2="-160.47" gradientTransform="translate(33.06 261.44) rotate(3.42)" xlink:href="#linear-gradient-2"/>
    <linearGradient id="linear-gradient-23" x1="39.69" y1="-174.92" x2="35.39" y2="-156.72" gradientTransform="translate(33.06 261.44) rotate(3.42)" xlink:href="#linear-gradient-2"/>
    <radialGradient id="radial-gradient" cx="999.91" cy="-141.96" fx="999.91" fy="-141.96" r="23.07" gradientTransform="translate(1158.65 175.42) rotate(177.65) scale(1.02 -.71) skewX(-1.54)" gradientUnits="userSpaceOnUse">
      <stop offset="0" stop-color="#f8c39c"/>
      <stop offset="1" stop-color="#f7d4ab"/>
    </radialGradient>
    <radialGradient id="radial-gradient-2" cx="153.16" cy="-199.06" fx="153.16" fy="-199.06" r="23.66" gradientTransform="translate(-62.46 262.97) rotate(-3.81) scale(1.02 .69) skewX(2.86)" xlink:href="#radial-gradient"/>
    <linearGradient id="linear-gradient-24" x1="192.84" y1="162.47" x2="178.65" y2="167.37" gradientTransform="translate(-52.09 -53.44) rotate(-.26)" gradientUnits="userSpaceOnUse">
      <stop offset="0" stop-color="#fbd6af"/>
      <stop offset="1" stop-color="#f7d4ab"/>
    </linearGradient>
    <linearGradient id="linear-gradient-25" x1="128.86" y1="167.37" x2="107.8" y2="162.23" xlink:href="#linear-gradient-24"/>
    <linearGradient id="Gradient_58" data-name="Gradient 58" x1="-2147.74" y1="185.73" x2="-2122.24" y2="185.73" gradientTransform="translate(-2060.38 263.71) rotate(170.32) scale(1 -1)" gradientUnits="userSpaceOnUse">
      <stop offset="0" stop-color="#2b1b13"/>
      <stop offset=".04" stop-color="#2e1d14"/>
      <stop offset=".38" stop-color="#442b1d"/>
      <stop offset=".71" stop-color="#513423"/>
      <stop offset="1" stop-color="#563725"/>
    </linearGradient>
    <linearGradient id="Gradient_58-2" data-name="Gradient 58" x1="-1764.92" y1="120.41" x2="-1739.42" y2="120.41" gradientTransform="translate(1875.91 263.71) rotate(9.68)" xlink:href="#Gradient_58"/>
    <linearGradient id="linear-gradient-26" x1="200.05" y1="171.22" x2="172.87" y2="194.44" gradientTransform="translate(-58.26 -86.31) rotate(1.21)" xlink:href="#linear-gradient-4"/>
    <linearGradient id="linear-gradient-27" x1="185.24" y1="136.46" x2="159.96" y2="130.35" gradientTransform="translate(-44.6 -31.03)" gradientUnits="userSpaceOnUse">
      <stop offset="0" stop-color="#ece7e7"/>
      <stop offset=".23" stop-color="#f5f3f3"/>
      <stop offset=".53" stop-color="#fcfcfc"/>
      <stop offset="1" stop-color="#fff"/>
    </linearGradient>
    <linearGradient id="Gradient_96" data-name="Gradient 96" x1="188.48" y1="151.07" x2="164.48" y2="129.29" gradientTransform="translate(-44.6 -31.03)" gradientUnits="userSpaceOnUse">
      <stop offset="0" stop-color="#a8c3dd"/>
      <stop offset="1" stop-color="#7a90a5"/>
    </linearGradient>
    <linearGradient id="Gradient_96-2" data-name="Gradient 96" x1="83.18" y1="-152.87" x2="82.38" y2="-160.28" gradientTransform="translate(33.06 261.44) rotate(3.42)" xlink:href="#Gradient_96"/>
    <radialGradient id="Gradient_25" data-name="Gradient 25" cx="-917.47" cy="165.14" fx="-917.47" fy="165.14" r="4.03" gradientTransform="translate(1054.21 -42.67) rotate(1.3) skewX(.07)" gradientUnits="userSpaceOnUse">
      <stop offset="0" stop-color="#666"/>
      <stop offset="1" stop-color="#1d1d1d"/>
    </radialGradient>
    <linearGradient id="linear-gradient-28" x1="105.6" y1="176.31" x2="125.85" y2="175.35" gradientTransform="translate(11.72 -79.68) rotate(1.2)" gradientUnits="userSpaceOnUse">
      <stop offset="0" stop-color="#2b1b13"/>
      <stop offset=".04" stop-color="#2e1d14"/>
      <stop offset=".38" stop-color="#442b1d"/>
      <stop offset=".71" stop-color="#513423"/>
      <stop offset="1" stop-color="#563725"/>
    </linearGradient>
    <linearGradient id="linear-gradient-29" x1="66.73" y1="-58.17" x2="64.34" y2="-89.3" gradientTransform="translate(33.06 261.44) rotate(3.42)" gradientUnits="userSpaceOnUse">
      <stop offset="0" stop-color="#f7d4ab"/>
      <stop offset=".45" stop-color="#f3caa0"/>
      <stop offset="1" stop-color="#f0c499"/>
    </linearGradient>
    <linearGradient id="linear-gradient-30" x1="-1659.78" y1="210.96" x2="-1686.75" y2="234.02" gradientTransform="translate(-1597.71 -86.53) rotate(178.8) scale(1 -1)" xlink:href="#linear-gradient-4"/>
    <linearGradient id="linear-gradient-31" x1="141.4" y1="136.23" x2="115.43" y2="129.96" xlink:href="#linear-gradient-27"/>
    <linearGradient id="Gradient_96-3" data-name="Gradient 96" x1="144.14" y1="151.4" x2="120.04" y2="129.53" xlink:href="#Gradient_96"/>
    <linearGradient id="Gradient_96-4" data-name="Gradient 96" x1="38.68" y1="-148.03" x2="37.88" y2="-155.44" gradientTransform="translate(33.06 261.44) rotate(3.42)" xlink:href="#Gradient_96"/>
    <radialGradient id="Gradient_25-2" data-name="Gradient 25" cx="-3001.18" cy="213" fx="-3001.18" fy="213" r="4.03" gradientTransform="translate(-2926.83 -43.08) rotate(178.7) scale(1 -1) skewX(.09)" xlink:href="#Gradient_25"/>
    <linearGradient id="linear-gradient-32" x1="-1754.07" y1="215.4" x2="-1733.99" y2="214.44" gradientTransform="translate(-1667.69 -79.91) rotate(178.81) scale(1 -1)" xlink:href="#linear-gradient-28"/>
    <linearGradient id="Gradient_32" data-name="Gradient 32" x1="64.22" y1="-244.17" x2="47.12" y2="-93.29" gradientTransform="translate(33.06 261.44) rotate(3.42)" gradientUnits="userSpaceOnUse">
      <stop offset="0" stop-color="#724831"/>
      <stop offset=".22" stop-color="#67412c"/>
      <stop offset=".63" stop-color="#5a3926"/>
      <stop offset="1" stop-color="#563725"/>
    </linearGradient>
    <linearGradient id="Gradient_32-2" data-name="Gradient 32" x1="12.87" y1="-205.55" x2="2.11" y2="-110.62" xlink:href="#Gradient_32"/>
    <linearGradient id="linear-gradient-33" x1="65.2" y1="-134.99" x2="64.82" y2="-139.98" gradientTransform="translate(30.22 308.17) rotate(3.42) scale(1 .93)" xlink:href="#linear-gradient-29"/>
    <linearGradient id="Gradient_115" data-name="Gradient 115" x1="102.21" y1="116.98" x2="107.38" y2="208.48" gradientUnits="userSpaceOnUse">
      <stop offset="0" stop-color="#d6ac88"/>
      <stop offset="1" stop-color="#a18166"/>
    </linearGradient>
    <linearGradient id="Gradient_115-2" data-name="Gradient 115" x1="99.51" y1="116.31" x2="105.15" y2="216.24" xlink:href="#Gradient_115"/>
    <linearGradient id="Gradient_27" data-name="Gradient 27" x1="103.12" y1="61.23" x2="115.5" y2="20.49" gradientUnits="userSpaceOnUse">
      <stop offset="0" stop-color="#724831"/>
      <stop offset=".42" stop-color="#7f553b"/>
      <stop offset="1" stop-color="#8e6346"/>
    </linearGradient>
    <linearGradient id="Gradient_27-2" data-name="Gradient 27" x1="86.23" y1="56.1" x2="98.62" y2="15.36" xlink:href="#Gradient_27"/>
    <linearGradient id="Gradient_27-3" data-name="Gradient 27" x1="72.99" y1="52.41" x2="85.66" y2="10.71" xlink:href="#Gradient_27"/>
    <linearGradient id="Gradient_27-4" data-name="Gradient 27" x1="64.29" y1="47.93" x2="76.67" y2="7.19" xlink:href="#Gradient_27"/>
    <linearGradient id="Gradient_27-5" data-name="Gradient 27" x1="118.45" y1="65.89" x2="130.83" y2="25.14" xlink:href="#Gradient_27"/>
    <linearGradient id="Gradient_27-6" data-name="Gradient 27" x1="131.94" y1="69.99" x2="144.32" y2="29.25" xlink:href="#Gradient_27"/>
    <linearGradient id="Gradient_27-7" data-name="Gradient 27" x1="54.61" y1="46.49" x2="66.99" y2="5.74" xlink:href="#Gradient_27"/>
    <linearGradient id="Gradient_27-8" data-name="Gradient 27" x1=".27" y1="-196.22" x2="9.61" y2="-194.98" gradientTransform="translate(33.06 261.44) rotate(3.42)" xlink:href="#Gradient_27"/>
    <linearGradient id="Gradient_27-9" data-name="Gradient 27" x1="144.32" y1="73.95" x2="157.44" y2="30.76" xlink:href="#Gradient_27"/>
    <linearGradient id="Gradient_58-3" data-name="Gradient 58" x1="17.7" y1="-106.86" x2="111.15" y2="-274.27" gradientTransform="translate(33.06 261.44) rotate(3.42)" xlink:href="#Gradient_58"/>
    <linearGradient id="Gradient_115-3" data-name="Gradient 115" x1="65.59" y1="-115.99" x2="64.91" y2="-124.85" gradientTransform="translate(30.22 308.17) rotate(3.42) scale(1 .93)" xlink:href="#Gradient_115"/>
    <linearGradient id="Gradient_113" data-name="Gradient 113" x1="62.42" y1="-146.03" x2="61.23" y2="-129.74" gradientTransform="translate(33.06 261.44) rotate(3.42)" gradientUnits="userSpaceOnUse">
      <stop offset="0" stop-color="#a18166"/>
      <stop offset="1" stop-color="#d6ac88"/>
    </linearGradient>
    <linearGradient id="Gradient_115-4" data-name="Gradient 115" x1="65.07" y1="-142.71" x2="64.25" y2="-146.21" gradientTransform="translate(30.22 308.17) rotate(3.42) scale(1 .93)" xlink:href="#Gradient_115"/>
    <linearGradient id="linear-gradient-34" x1="193.19" y1="317.72" x2="193.89" y2="342.1" gradientTransform="translate(-105.07 -214.74) rotate(-2.17)" gradientUnits="userSpaceOnUse">
      <stop offset="0" stop-color="#f7d4ab"/>
      <stop offset=".52" stop-color="#f5d1a8"/>
      <stop offset=".85" stop-color="#f2c99f"/>
      <stop offset="1" stop-color="#f0c499"/>
    </linearGradient>
    <linearGradient id="linear-gradient-35" x1="193.55" y1="815.51" x2="195.06" y2="804.38" gradientTransform="translate(-144.6 -1254.55) rotate(-2.16) scale(1 1.7) skewX(.04)" xlink:href="#linear-gradient-18"/>
    <linearGradient id="linear-gradient-36" x1="251.95" y1="-114.05" x2="255.19" y2="-27.18" gradientTransform="translate(-155.09 153.98) rotate(4.95)" xlink:href="#linear-gradient-34"/>
    <linearGradient id="linear-gradient-37" x1="83.3" y1="205.23" x2="83.54" y2="198.43" gradientTransform="translate(7.1 -35.28) rotate(-3.31)" xlink:href="#linear-gradient-20"/>
    <linearGradient id="Gradient_75" data-name="Gradient 75" x1="253.72" y1="-42.04" x2="256.17" y2="-15.29" gradientTransform="translate(-155.09 153.98) rotate(4.95)" gradientUnits="userSpaceOnUse">
      <stop offset="0" stop-color="#390a0f"/>
      <stop offset=".69" stop-color="#5e1018"/>
      <stop offset="1" stop-color="#71141d"/>
    </linearGradient>
  </defs>
  <g id="Layer_1-2" data-name="Layer 1">
    <g style="clip-path: url(#clippath);">
      <g>
        <path d="M70.02,169.68s25.47-18.7,63.1-2.44c0,0,17.81,22.47.85,38.81-16.96,16.34-59.9,14.8-66.11,1.41-6.2-13.39-2.78-34.93,2.16-37.78Z" style="fill: url(#linear-gradient);"/>
        <path d="M133.86,187.02l6.66-8.51s-7.23-2.17-10.07-16.92c-.12.11-.24.22-.36.34-.87,8.81.71,17.24,3.77,25.09Z" style="fill: url(#linear-gradient-2);"/>
        <path d="M130.09,161.93c-11.43,10.5-17.98,20.08-32.69,19.16-5.69,0-15.91-2.49-23.03-7.19,5.96,11.97,17.22,21.08,26.44,29.14,3.8,3.8,5.36,10.31,7.33,16.85l25.73-32.86c-3.06-7.85-4.64-16.28-3.77-25.09Z" style="fill: url(#linear-gradient-3);"/>
        <path d="M83.51,179.12c-.75-.5-10.62-6.24-11.3-6.78-1.21,2.84-2.69,5.81-4.52,8.9l31.5,51.88,8.94-13.23c-1.96-6.54-3.52-13.04-7.33-16.85-9.22-8.06-11.33-11.94-17.29-23.91Z" style="fill: url(#linear-gradient-4);"/>
        <path d="M130.45,161.59c-.53-2.76-.91-5.96-1.06-9.66l-58.14-14.7s3.12,16.83.97,35.1c7.04,5.71,19.74,11.05,26.03,11.05,14.87.93,23.74-3.63,32.21-21.8Z" style="fill: url(#linear-gradient-5);"/>
        <path d="M222.85,221.29c-15.56-5.75-74.21-32.38-74.21-32.38l-47.79,44.91-40.82-44.91s-68.63,27.64-79.27,32.38l28.4,84.45-.06,4.45h186.72l27.03-88.9Z" style="fill: #192b51;"/>
        <path d="M-19.24,221.29s34.61,62.94,44.87,69.91c10.05,6.83,149.97,11.02,163.56-4.36l33.66-65.55-75.82-40.06-25.55,19.4-22.29,32.48-39.06-50.54-79.37,38.72Z" style="fill: url(#linear-gradient-6);"/>
        <path d="M132.89,169.73c-1.7-4.48-3.09-13.6-3.23-17.31l-58.2-14.71s4.77,22.94.97,35.14c9.13,15.77,19.99,20.51,26.28,20.51,14.88.93,25.72-5.44,34.19-23.63Z" style="fill: url(#linear-gradient-7);"/>
        <g>
          <path d="M86.43,202.06s6.83,6.28,8.09,7.39c1.21,1.06,4.95,18.55,4.95,18.55l-2.15,36.69-19.64-54.48,8.75-8.14Z" style="fill: url(#linear-gradient-8);"/>
          <path d="M56.07,190.16c0,4.09,7.23,33.57,7.7,35.15,0,0,8.93-7.71,14.93-12.5l7.74-10.75s-30.37-15.99-30.37-11.9Z" style="fill: url(#linear-gradient-9);"/>
          <path d="M71.53,168.7s-4.95,6.31-2.42,14.92c2.37,8.05,17.32,18.44,17.32,18.44,0,0-17.89,14.96-21.35,18.33-2.42-8.47-11.57-31.91-9.46-35.24,4.05-6.4,9.85-13.15,15.91-16.46Z" style="fill: url(#linear-gradient-10);"/>
          <path d="M71.53,168.7s-6.34,8.26,1.06,19.17c5.29,7.81,13.85,14.19,13.85,14.19,0,0-11.6-8.15-14.62-11.87-9.34-11.48-.28-21.5-.28-21.5Z" style="fill: url(#linear-gradient-11);"/>
          <path d="M114.97,201.76c-2.29,1.5-5.28,3.58-9,6.48-1.57,1.22-7.59,21.77-7.07,26.47.07.62.11,1.55.12,2.66,5.63-1.64,12.14-2.05,17.9-3.27.69-6.2.88-12.67,1.49-18.46.04-.37.33-5.32.33-5.32.38-3.66.16-3.46.33-5.85-2.01-.16-3.45-1.22-4.1-2.71Z" style="fill: url(#linear-gradient-12);"/>
          <path d="M114.97,201.76l3.77,8.56c4.24,3.31,17.16,11.62,23.79,14.99.81.41,5.84-30.09,7.04-38.56l-34.61,15.01Z" style="fill: url(#linear-gradient-13);"/>
          <path d="M114.97,201.76s24.1,16.27,27.17,19.59c2.69-10.61,7.76-30.97,7.76-37.04,0-3.19-13.63-15.47-16.77-17.07,0,0,1.77,5.23.87,10.31-3.22,18.22-19.03,24.21-19.03,24.21Z" style="fill: url(#linear-gradient-14);"/>
          <path d="M114.97,201.76s23.66-11.19,18.16-34.52c0,0,13.59,22.67-18.16,34.52Z" style="fill: url(#linear-gradient-15);"/>
          <path d="M114.97,201.76s-6.61,4.6-9.72,6.19c-3.11,1.6-5.9,21.93-5.9,21.93,0,0,5.63-17.71,6.65-19.36,1.02-1.65,8.97-8.76,8.97-8.76Z" style="fill: url(#linear-gradient-16);"/>
        </g>
        <path d="M127.41,210.31l14.73,11.03,4.57-18.83s-4.43,12.8-5.5,13.13c-1.07.33-13.8-5.33-13.8-5.33Z" style="fill: url(#linear-gradient-17);"/>
        <path d="M100.07,195.08s12.64.1,17.41-1.51c4.77-1.61-11.19,6.49-12.68,6.63-1.49.14-4.73-5.12-4.73-5.12Z" style="fill: url(#linear-gradient-18);"/>
        <g>
          <path d="M58.17,100.61s3.46,47.06,4.77,49.03c1.31,1.97,21.15,21.82,23.71,24s29.47,5.15,29.47,5.15c0,0,22.03-24.35,23.96-27.56,1.94-3.21,5.24-51.38,5.24-51.38,0,0,5.86-37.83-3.19-50.81-9.05-12.98-70.71-17.17-80.94.87-10.23,18.04-3.02,50.69-3.02,50.69Z" style="fill: url(#linear-gradient-19);"/>
          <g>
            <path d="M153.13,95.94c9.64-.7,3.36,14.43,3.36,14.43-3.74,19.6-2.13,22.97-10.7,22.24-6.34-.54.45-36.17,7.34-36.67Z" style="fill: #f0c499;"/>
            <path d="M147.38,124.12s3.05-3.43,2.9-10.77c-.37-17.31,8.74-17.63,5.6-6.14,0,0-.73-5.63-2.02-4.09-1.59,1.89,1.2,3.28-1.1,11.98-1.2,4.52-5.37,9.01-5.37,9.01Z" style="fill: url(#linear-gradient-20);"/>
          </g>
          <g>
            <path d="M50.95,96.21c-9.64-.39-3.52,14.54-3.52,14.54,3.52,19.48,3,22.38,10.46,21.89,8.38-.55-.05-36.16-6.94-36.44Z" style="fill: #f0c499;"/>
            <path d="M56.39,124.21s-3.02-3.33-2.78-10.67c.56-17.33-8.55-17.34-5.53-5.95,0,0,.79-5.65,2.07-4.16,1.57,1.84-1.24,3.32.97,11.95,1.15,4.48,5.27,8.84,5.27,8.84Z" style="fill: url(#linear-gradient-21);"/>
          </g>
          <path d="M112.93,87.03s-4.8,10.18-4.66,11.05c.14.87,1.26,11.38,1.26,11.38,0,0,25.38-.8,28.7-1.84,3.31-1.04,2.4-6.99,2.4-6.99l-3.78-7.81s-5.62-5.34-6.36-4.85-17.56-.94-17.56-.94Z" style="fill: url(#linear-gradient-22);"/>
          <path d="M90.48,87.03s4.1,9.77,3.99,10.65c-.11.88-.45,11.55-.45,11.55,0,0-25.4.15-28.75-.76-3.35-.91-2.35-8.44-2.35-8.44l3.79-6.63s4.21-4.34,5.54-4.86c.83-.32,18.21-1.52,18.21-1.52Z" style="fill: url(#linear-gradient-23);"/>
          <path d="M127.09,132.57c8.2.5,17.36-.56,19-17.24.94-9.5-.12-14.45-4.18-15.18-8.61-1.54-20.93,2.21-26.06,4.86-10.83,5.6-3.29,26.65,11.24,27.55Z" style="fill: url(#radial-gradient);"/>
          <path d="M86.04,103.75c-2.35-.83-20.21-4.74-25.51-3.19-3.03.88-1.73,7.57-1.19,13.92.26,3.05.24,7.93.95,9.84,3.48,9.38,16.57,9.74,24.11,7.08,12.88-4.53,13.55-23.44,1.65-27.65Z" style="fill: url(#radial-gradient-2);"/>
          <path d="M141.07,106.67c-1.48-.81-2.58.38-5.64,1.38-3.01.99-11.24,2.55-7.36,4.59,4.29,2.26,10.25-.89,10.97-1.48.72-.59,3.86-3.5,2.03-4.5Z" style="fill: url(#linear-gradient-24);"/>
          <path d="M68.27,108.97c-3.12-.82-4.29-1.94-5.72-1.05-1.76,1.11,1.54,3.82,2.3,4.37.75.55,6.9,3.34,11.04.83,3.75-2.27-4.56-3.34-7.62-4.15Z" style="fill: url(#linear-gradient-25);"/>
          <path d="M68.06,87.73c1.6-3.81,9.64-4.62,13.54-5.2,2.21-.33,5.33-.79,7.46-.4.45,1.19.63,2.07.49,3.59.77-.92.73-2.37.36-3.32.06.02,1.9,1.94.97,4.67-.44,1.3-4.1.9-12.22,2.08-2.21.32-6.01.65-8.87,2.16-1.04.55-3.08,2.11-3.08,2.11-.3-.35.58-3.87,1.34-5.68Z" style="fill: url(#Gradient_58);"/>
          <path d="M135.84,87.73c-1.6-3.81-9.64-4.62-13.54-5.2-2.21-.33-5.33-.79-7.46-.4-.45,1.19-.63,2.07-.49,3.59-.77-.92-.73-2.37-.36-3.32-.06.02-1.9,1.94-.97,4.67.44,1.3,4.1.9,12.22,2.08,2.21.32,6.01.65,8.87,2.16,1.04.55,3.08,2.11,3.08,2.11.3-.35-.58-3.87-1.34-5.68Z" style="fill: url(#Gradient_58-2);"/>
          <g>
            <path d="M111.46,104.85c-.99-1.25.04-3.84.61-5.47,1.79-5.1,5.55-7.42,13.58-7.59,2.64-.06,7.31,1.13,10.11,3.7,2.16,1.98,3.39,3.95,3.15,5.72-.12.9-5,5.5-13.76,5.77-5.73.18-12.13-.15-13.7-2.13Z" style="fill: url(#linear-gradient-26);"/>
            <path d="M134.76,101.16c-.22.59-.54,1.11-.94,1.58-.62.75-1.41,1.35-2.3,1.83-.33.15-.68.25-1.05.33-.05.02-.1.02-.14.03-.59.13-1.14.26-1.67.36-2.78.55-4.92.82-6.74.82-.75,0-1.43-.05-2.08-.13-.32-.03-.63-.1-.94-.18-2.66-.62-4.66-2.37-5.04-3.08,0,0,0-.02.02-.03v-.02c.14-.33,1.17-2.55,2.82-4.31,1.03-1.09,2.32-2.01,3.79-2.17.48-.05.94-.1,1.4-.11,8.31-.34,12.46,4.59,12.84,5.06.02.02.02.03.02.03Z" style="fill: url(#linear-gradient-27);"/>
            <path d="M134.74,101.12s.02.04.02.04c-.23.59-.55,1.12-.94,1.59-.1-.06-.22-.13-.35-.2-.84-.45-2.35-1.06-5.19-1.3-11.73-.97-14.26,1.29-14.39,1.42,0,0,0,0,0,0,.36-1.86,1.42-3.26,2.83-4.31,1.48-1.1,3.33-1.82,5.18-2.28,1.52-.38,3.04-.59,4.33-.69,4.15-.32,8.16,5.23,8.51,5.74Z" style="fill: #ddd;"/>
            <path d="M131.21,103.2c-.06.34-.23,1.27-.44,1.63-.13.08-.58.26-.76.34-.59.13-1.22.32-1.74.42-2.78.55-4.51.51-6.33.51-.75,0-1.43-.05-2.08-.13-.32-.03-.63-.1-.94-.18-.57-.75-1.11-1.84-1.08-3.35.09-3.97,3.42-5.73,7.1-5.43,3.66.31,6.85,2.37,6.26,6.19Z" style="fill: url(#Gradient_96);"/>
            <path d="M117.97,101.26s5.2-1.14,13.28.56c0,0-.15-4.12-5.01-5.01-4.57-.83-7.93,2.1-8.26,4.45Z" style="fill: url(#Gradient_96-2);"/>
            <path d="M124.9,97.57c-2.25-.12-4.33,1.64-4.44,3.9-.11,2.26,1.79,4.16,4.04,4.28,2.25.12,4.17-1.62,4.28-3.88.11-2.26-1.63-4.19-3.88-4.3Z" style="fill: url(#Gradient_25);"/>
            <path d="M124.75,97.56c-2.66-.15-3.89,1.78-4.23,3.39,0,0,4.36-.43,8.25.38,0,0-.21-3.57-4.02-3.78Z"/>
            <path d="M130.34,104.26c.44-.82.09-1.88-.77-2.36-.86-.48-1.92-.2-2.36.63-.44.83-.1,1.88.77,2.36.86.48,1.92.2,2.36-.63Z" style="fill: #fff;"/>
            <path d="M126.22,102.07c.35-.65.08-1.48-.6-1.85-.68-.37-1.52-.16-1.87.49-.35.65-.08,1.48.6,1.85.68.38,1.52.16,1.87-.49Z" style="fill: #fff;"/>
            <path d="M113.88,102.69s-.05-3.49,3.69-6.03c3.92-2.66,10.18-2.69,14.02-.29,2.31,1.44,3.17,4.79,3.17,4.79,0,0-4.59-4.38-9.82-4.14-2.9.13-3.78.55-5.09.87-3.41.82-5.98,4.81-5.98,4.81Z" style="fill: url(#linear-gradient-28);"/>
          </g>
          <path d="M70.37,54.07c1.7-.82,26.68,2.72,30.59,1.83,3.91-.89,24.96-4.71,29.04-2.44,4.08,2.27,6.97,6.82,7.37,9.33s-.25,14.92,0,16.93,3.78,4.54,4.79,16.24c1.01,11.7.47,22.81-.15,27.67-.62,4.86-5.1,20.99-5.1,20.99l3.14.05s5.85-26.42,6.03-29.34c.18-2.92,2.36-38.5,2.36-38.5l-11.7-34.64-68.62-3.29-14.84,33.2,3.83,40.09,1.86,5.4,5.83,26.11s-2.25-30.28-2.95-31.75c-.71-1.47-.71-14.76-.47-17.24.66-6.77,4.03-13.35,4.45-15.15.42-1.8-1.69-14.58-1.26-16.38.43-1.8,5.8-9.11,5.8-9.11Z" style="fill: url(#linear-gradient-29);"/>
          <g>
            <path d="M92.62,105.18c1.04-1.2-.04-3.84-.61-5.47-1.77-5.1-5.45-7.3-13.41-7.47-2.61-.06-7.29,1.01-10.07,3.58-2.14,1.98-3.36,3.95-3.13,5.72.12.9,4.4,5.3,13.09,5.57,5.68.18,12.52-.08,14.13-1.93Z" style="fill: url(#linear-gradient-30);"/>
            <path d="M90.23,103.03c-.36.7-2.23,2.33-4.7,3-.39.11-.8.21-1.23.26-.64.08-1.34.13-2.07.13-1.79,0-3.91-.26-6.66-.82-.35-.07-.69-.15-1.05-.21-.25-.07-.5-.11-.76-.16-.36-.08-.69-.2-1.02-.33-.88-.47-1.67-1.09-2.28-1.84-.39-.46-.71-1-.93-1.58,0,0,0-.02.02-.03.38-.46,4.5-5.38,12.73-5.06.44.03.91.07,1.38.11,1.46.16,2.72,1.08,3.76,2.17,1.63,1.76,2.66,3.98,2.8,4.31v.02s.02.03.02.03Z" style="fill: url(#linear-gradient-31);"/>
            <path d="M69.55,101.44s-.02.03-.02.03c.23.59.54,1.12.93,1.59.1-.06.22-.13.35-.2.83-.45,2.33-1.06,5.15-1.3,11.62-.97,14.13,1.3,14.26,1.42,0,0,0,0,0,0-.36-1.86-1.41-3.26-2.8-4.32-1.46-1.1-3.3-1.82-5.14-2.29-1.51-.38-3.01-.59-4.29-.69-4.11-.32-8.08,5.23-8.44,5.74Z" style="fill: #ddd;"/>
            <path d="M86.53,102.77c.03,1.45-.47,2.53-1.01,3.26-.39.11-.8.21-1.23.26-.64.08-1.34.13-2.07.13-1.79,0-3.53.13-6.25-.51-.34-.08-1.03-.35-1.39-.42-.33-.11-.59-.13-.79-.26-.21-.38-.46-1.38-.51-1.72-.58-3.82,2.58-5.88,6.21-6.17,3.65-.31,6.95,1.45,7.04,5.42Z" style="fill: url(#Gradient_96-3);"/>
            <path d="M86.39,101.58s-5.16-1.14-13.16.56c0,0,.15-4.12,4.97-5.01,4.53-.83,7.86,2.1,8.19,4.45Z" style="fill: url(#Gradient_96-4);"/>
            <path d="M79.53,97.89c2.23-.12,4.29,1.64,4.4,3.9.11,2.26-1.77,4.16-4,4.28-2.23.12-4.13-1.62-4.24-3.88-.11-2.26,1.61-4.19,3.84-4.3Z" style="fill: url(#Gradient_25-2);"/>
            <path d="M79.68,97.88c2.63-.14,3.86,1.78,4.19,3.4,0,0-4.32-.43-8.17.38,0,0,.21-3.57,3.98-3.78Z"/>
            <path d="M81.49,105.06c-.43-.82-.09-1.88.76-2.36.86-.48,1.9-.2,2.34.63.44.83.09,1.88-.76,2.36-.85.48-1.9.2-2.34-.63Z" style="fill: #fff;"/>
            <path d="M78.64,102.66c-.35-.65-.08-1.48.6-1.85.68-.37,1.51-.16,1.85.49.35.65.08,1.48-.6,1.85-.68.38-1.51.16-1.85-.49Z" style="fill: #fff;"/>
            <path d="M90.21,103.01s.33-3.48-3.37-6.03c-3.89-2.66-10.02-2.65-13.83-.25-2.29,1.44-3.49,4.74-3.49,4.74,0,0,5.08-4.17,10.26-3.92,2.87.13,3.74.36,5,.79,3.34,1.13,5.43,4.67,5.43,4.67Z" style="fill: url(#linear-gradient-32);"/>
          </g>
          <path d="M62.36,55.13s6.7-9.74,23.64-7.08c11.27,1.77,11.74,1.64,15.52,2.48,3.78.84,21.91-6.14,29.88-3.02,7.96,3.12,8.75,12.32,8.81,16.85s-.91,15.21.2,15.92,5.09,5.19,4.73,11.39c-.36,6.2.96,23.66.96,23.66,0,0,1.29-18.88,7.7-19.42l.4-13s2.57-8.92,2.78-12.62c.41-6.96-1.56-12.88-1.68-14.05-.29-3-5.4-8.18-6.29-9.18,0,0,3.25-6.98-5.66-11.85,0,0-1.8-14.6-17.6-17.91-15.79-3.31-29.06-2.41-33.93-.7,0,0-17.42-4.46-25.99,6.95,0,0-11,4.37-12.12,15.2-1.12,10.83,2.58,15.22,3.18,15.07l5.46,1.31Z" style="fill: url(#Gradient_32);"/>
          <path d="M64.05,53.83s-5.46,7.02-3.67,21.04c0,0-2.74,7.69-2.75,12.8s1.51,24.79,1.51,24.79c0,0-3.34-16.73-9.63-16.17,0,0-1.22-11.54-1.54-12.28,0,0-4.89-9.15-1.45-19.87,1.99-6.19,10.38-10.3,10.38-10.3h7.16Z" style="fill: url(#Gradient_32-2);"/>
          <path d="M83.93,161.59s4.18,5.71,9.12,9.3c1.65,1.2,9.01-.22,9.01-.22,0,0,5.07,4.84,13.18-2.3,1.84-1.62,5.29-6.78,5.29-6.78,0,0-1.9,14.05-4.4,15.22s-29.56-.46-29.56-.46l-2.63-14.76Z" style="fill: url(#linear-gradient-33);"/>
          <path d="M146.09,115.34s-2.44,30.42-4.45,34.89c-2.02,4.47-23.05,31.63-27.3,35.15-4.26,3.52-20.62,1.04-23.67.5s-26.21-29.56-29.25-34.5c-3.04-4.94-2.08-36.9-2.08-36.9,0,0,5.12,23.62,7.93,27.6,2.81,3.98,18.04,24.43,20.66,27.13,1.07,1.1,6.79,4.85,7.37,4.01,3.4-4.89,4.84-6.87,6.77-6.49,2.98.59,6.16,7.25,6.42,7.31,1.07.27,7.2-3.9,8.81-5.34,5.82-5.23,20.46-26.88,21.44-29.03,2.46-5.41,7.37-24.33,7.37-24.33Z" style="fill: url(#Gradient_115);"/>
          <path d="M87.47,135.47c2.08-4.08,2.82-5.39,4.4-6.27,6.69,2.34,18.96-1.78,19.9-2.08,3.14,2.94,6.08,10.65,7.16,14.63,0,0,4.93,22.28,4.71,24.85-.33,3.89-11.2,13.84-8.67,4.32,3.78-14.25-2.22-26.24-2.22-26.24l-16.03-5.69-5.76,4.34s-5.79,12.72-3.05,25.88c1.48,7.1-4.5,3.24-6.78-1.14-.48-3.95,2.15-19.09,3.44-24.03.78-3,1.95-6.73,2.89-8.57Z" style="fill: url(#Gradient_115-2);"/>
          <path d="M101.98,41.64s-.18-23.27,28.52-22.83c0,0-16.68-10.05-27.27,1.54-10.59,11.58-1.26,21.29-1.26,21.29Z" style="fill: url(#Gradient_27);"/>
          <path d="M88.98,39.35s1.28-18.03,18.06-22.14c0,0-5.59-7.16-15.22-.59-9.63,6.57-2.85,22.73-2.85,22.73Z" style="fill: url(#Gradient_27-2);"/>
          <path d="M81.97,40.45s-3.53-19.2,9.86-23.83c0,0-10.36-7.21-16.58,3.38-6.22,10.6,6.72,20.44,6.72,20.44Z" style="fill: url(#Gradient_27-3);"/>
          <path d="M69.71,41.64s-12.21-11-3.88-19.58c8.33-8.58,15.57-5.47,15.57-5.47,0,0-8.25,5.12-9.78,11.24-1.53,6.13-1.91,13.81-1.91,13.81Z" style="fill: url(#Gradient_27-4);"/>
          <path d="M111.94,38.95s.12-14.95,11.73-17.63c11.61-2.68,18.35,4.36,19.68,13.91,0,0-2.68-11-16.57-6.71-9.41,2.91-14.83,10.42-14.83,10.42Z" style="fill: url(#Gradient_27-5);"/>
          <path d="M129.76,44.63s12.97-6.73,19.25,2.45c0,0,.7-10.11-9.06-10.69-9.76-.58-10.19,8.25-10.19,8.25Z" style="fill: url(#Gradient_27-6);"/>
          <path d="M56.89,53.83s-7.52-5.15-2.87-20.27c2.37-7.71,11.81-9.99,11.81-9.99,0,0-3.79,3.03-8.94,16.12-2.42,6.14,0,14.14,0,14.14Z" style="fill: url(#Gradient_27-7);"/>
          <path d="M56.89,53.83s-7.7.13-11.38,9.63c-2.02,5.22,4.07,17.07,4.07,17.07,0,0-1.33-11.28.63-16.93,2.23-6.42,6.67-9.77,6.67-9.77Z" style="fill: url(#Gradient_27-8);"/>
          <path d="M142.11,49.39s9.48-4.29,13.16,5.25c2.39,6.18,2.63,10.44-2.09,18.55,0,0,.36-12.44-1.9-15.96-2.26-3.52-9.17-7.84-9.17-7.84Z" style="fill: url(#Gradient_27-9);"/>
          <path d="M59.33,114.48s.22-6.88.04-18.28c-.1-6.63,1-11.35,4.68-16.84,0,0-2.01-15.77-1.13-17.83,1.96-4.57,8.61-10.87,9.84-11.06,1.23-.2,26.64,2.04,29.77,1.68,3.14-.35,23.11-3.69,28.85-.73,2.41,1.24,8.49,6.81,8.65,9.87.16,3.06-.75,18.27-.75,18.27,0,0,5,5.78,4.91,14.03s1.88,21.73,1.88,21.73c0,0,2.13-25.38,1.9-28.24s-1.6-27.18-2.7-29.68c-1.1-2.5-10.17-11.79-15.53-12.79-5.36-1-27.4,1.45-28.38,2.05-.98.61-27.22-6.41-31.66-3.54s-13.03,12.88-12.98,15.47c.04,2.59-1.56,23.47-1.52,25.46.02.85,4.12,30.41,4.12,30.41Z" style="fill: url(#Gradient_58-3);"/>
          <path d="M67.69,159.88s20.26,24.28,22.58,24.6,20.57,1.77,22.16.56c7.8-5.89,22.14-24.46,22.14-24.46,0,0-10.57,18.73-21.32,26.61-1.75,1.28-21.25.04-22.7-.13-4.51-.54-21.97-26.08-22.86-27.18Z" style="fill: url(#Gradient_115-3);"/>
          <path d="M91.87,129.2s10.79,5.43,11.25,5.32c.47-.11,10.59-5.44,10.59-5.44,0,0-1.29-2.05-3.13-2.16-3.2-.19-6.52,2.72-8.72,2.18-.94-.23-5.73-1.59-8.31-1.73-1.85-.1-1.68,1.83-1.68,1.83Z" style="fill: url(#Gradient_113);"/>
          <path d="M96.18,171.95s1.47-3.77,2.59-4.64c1.52-1.19,4.52-1.21,6.27.01,1.05.74,2.14,4.63,2.14,4.63,0,0-2.29-3.45-2.82-3.79s-2.9-.64-4.28-.31c-.59.14-3.9,4.11-3.9,4.11Z" style="fill: url(#Gradient_115-4);"/>
          <g>
            <path d="M106.6,128.43c6.49-5.17,7.11.65,7.11.65-3.59-2.91-7.11-.65-7.11-.65Z" style="fill: #dca57b;"/>
            <path d="M91.87,129.2s.89-1.78,5.63-.37c0,0-7.89-5.1-5.63.37Z" style="fill: #dca57b;"/>
            <path d="M108.98,110.83c.05,2.45,1.34,11.62.65,13.04-1.54,3.16-4.59,4.51-7.47,4.39-2.16.35-6.1-.59-8.35-3.77-.92-1.29.69-10.51.2-13.09,0,0-9.35,16.91-2.15,17.8,0,0-1.18-1.9,1.68-1.83,2.53.06,3.87,4.44,8.87,4.25,5.51-.21,4.55-4.11,7.46-4.62,3.61-.62,3,1.74,3.83,2.07,3.6-1.61-1.3-13.93-4.73-18.25Z" style="fill: url(#linear-gradient-34);"/>
            <path d="M97.77,120.68c-.15,2.72.21,5.64,4.23,5.54,4.41-.11,4.48-3.09,4.02-5.57-2.74-14.7-7.71-10.1-8.25.03Z" style="fill: url(#linear-gradient-35);"/>
          </g>
          <g>
            <path d="M101.3,134.9c6.29.09,8.87,2.37,11.68,8.11,1.57,3.2,1.14,22.29-12.58,20.75-11.06-1.23-12.13-18.85-9.84-22.7,3.26-5.49,6.1-6.24,10.74-6.17Z" style="fill: url(#linear-gradient-36);"/>
            <path d="M96.97,162.72s2.21,1.95,4.67,1.97c2.82.03,5.54-2.23,5.54-2.23,0,0-5.31,2.47-10.21.25Z" style="fill: url(#linear-gradient-37);"/>
            <path d="M103.42,160.73c7.55-.66,6.97-12.94,7-15.31.04-3.23-4.35-7.04-7.98-7.35-4.05-.34-9.22,2.4-9.87,5.8-.65,3.4-.66,17.87,10.85,16.86Z" style="fill: url(#Gradient_75);"/>
          </g>
        </g>
      </g>
    </g>
  </g>
</svg>