<?xml version="1.0" encoding="UTF-8"?>
<svg id="Layer_2" data-name="Layer 2" xmlns="http://www.w3.org/2000/svg" width="204.89" height="204.89" xmlns:xlink="http://www.w3.org/1999/xlink" viewBox="0 0 204.89 204.89">
  <defs>
    <clipPath id="clippath">
      <rect width="204.89" height="204.89" style="fill: none;"/>
    </clipPath>
    <linearGradient id="linear-gradient" x1="53.71" y1="114.11" x2="147.35" y2="255.99" gradientUnits="userSpaceOnUse">
      <stop offset="0" stop-color="#0b173d"/>
      <stop offset=".5" stop-color="#0c193f"/>
      <stop offset=".82" stop-color="#132248"/>
      <stop offset="1" stop-color="#192b51"/>
    </linearGradient>
    <linearGradient id="linear-gradient-2" x1="130.42" y1="174.27" x2="145.99" y2="178.64" gradientUnits="userSpaceOnUse">
      <stop offset="0" stop-color="#f0c499"/>
      <stop offset=".52" stop-color="#f4cfa5"/>
      <stop offset="1" stop-color="#f7d4ab"/>
    </linearGradient>
    <linearGradient id="linear-gradient-3" x1="80.14" y1="180.41" x2="145.36" y2="198.72" xlink:href="#linear-gradient-2"/>
    <linearGradient id="linear-gradient-4" x1="102.19" y1="217.31" x2="71.09" y2="175.64" gradientUnits="userSpaceOnUse">
      <stop offset="0" stop-color="#f0c499"/>
      <stop offset=".51" stop-color="#e3b086"/>
      <stop offset="1" stop-color="#dba379"/>
    </linearGradient>
    <linearGradient id="linear-gradient-5" x1="144.3" y1="179.29" x2="77.12" y2="153.96" xlink:href="#linear-gradient-4"/>
    <linearGradient id="linear-gradient-6" x1="10.17" y1="15.85" x2="9.25" y2="65.06" gradientTransform="translate(89.65 40.97) rotate(.33) scale(1 .96)" gradientUnits="userSpaceOnUse">
      <stop offset="0" stop-color="#ffd9b3"/>
      <stop offset=".28" stop-color="#fbd6af"/>
      <stop offset="1" stop-color="#f7d4ab"/>
    </linearGradient>
    <linearGradient id="linear-gradient-7" x1="1286.12" y1="774.56" x2="1296.33" y2="799.32" gradientTransform="translate(1382.12 -914.47) rotate(174.39) scale(.99 -1.14) skewX(3.14)" gradientUnits="userSpaceOnUse">
      <stop offset="0" stop-color="#dba379"/>
      <stop offset=".49" stop-color="#e3b086"/>
      <stop offset="1" stop-color="#f0c499"/>
    </linearGradient>
    <linearGradient id="linear-gradient-8" x1="932.27" y1="787.15" x2="942.34" y2="811.56" gradientTransform="translate(-939.13 -779.35) rotate(-1.08) scale(.99 1.14) skewX(3.14)" xlink:href="#linear-gradient-7"/>
    <linearGradient id="linear-gradient-9" x1="18.75" y1="53.74" x2="38.49" y2="72.39" gradientTransform="translate(89.83 30.88) rotate(.33)" xlink:href="#linear-gradient-2"/>
    <linearGradient id="linear-gradient-10" x1="-8.75" y1="57.01" x2="-13.47" y2="77" gradientTransform="translate(89.83 30.88) rotate(.33)" xlink:href="#linear-gradient-2"/>
    <radialGradient id="radial-gradient" cx="44.91" cy="347.44" fx="44.91" fy="347.44" r="19.93" gradientTransform="translate(62.01 -229.39) rotate(-3.09)" gradientUnits="userSpaceOnUse">
      <stop offset="0" stop-color="#f8c39c"/>
      <stop offset="1" stop-color="#f7d4ab"/>
    </radialGradient>
    <radialGradient id="radial-gradient-2" cx="-7.32" cy="347.73" fx="-7.32" fy="347.73" r="19.96" xlink:href="#radial-gradient"/>
    <linearGradient id="linear-gradient-11" x1="110.17" y1="392.19" x2="95.93" y2="397.1" gradientTransform="translate(8.17 -278.92) rotate(-3.34)" gradientUnits="userSpaceOnUse">
      <stop offset="0" stop-color="#fbd6af"/>
      <stop offset="1" stop-color="#f7d4ab"/>
    </linearGradient>
    <linearGradient id="linear-gradient-12" x1="45.95" y1="397.11" x2="24.81" y2="391.95" xlink:href="#linear-gradient-11"/>
    <linearGradient id="linear-gradient-13" x1="19.13" y1="176.51" x2="16.73" y2="145.3" gradientTransform="translate(89.83 30.88) rotate(.33)" gradientUnits="userSpaceOnUse">
      <stop offset="0" stop-color="#f7d4ab"/>
      <stop offset=".45" stop-color="#f3caa0"/>
      <stop offset="1" stop-color="#f0c499"/>
    </linearGradient>
    <linearGradient id="Gradient_32" data-name="Gradient 32" x1="16.61" y1="-10.02" x2="-.55" y2="141.43" gradientTransform="translate(89.83 30.88) rotate(.33)" gradientUnits="userSpaceOnUse">
      <stop offset="0" stop-color="#724831"/>
      <stop offset=".22" stop-color="#67412c"/>
      <stop offset=".63" stop-color="#5a3926"/>
      <stop offset="1" stop-color="#563725"/>
    </linearGradient>
    <linearGradient id="Gradient_32-2" data-name="Gradient 32" x1="-34.93" y1="28.74" x2="-45.72" y2="124.03" xlink:href="#Gradient_32"/>
    <linearGradient id="linear-gradient-14" x1="15.99" y1="120.78" x2="15.67" y2="116.67" gradientTransform="translate(89.74 53.86) rotate(.33) scale(1 .93)" xlink:href="#linear-gradient-13"/>
    <linearGradient id="Gradient_115" data-name="Gradient 115" x1="21.09" y1="356.87" x2="19" y2="410.13" gradientTransform="translate(62.01 -229.39) rotate(-3.09)" gradientUnits="userSpaceOnUse">
      <stop offset="0" stop-color="#d6ac88"/>
      <stop offset="1" stop-color="#a18166"/>
    </linearGradient>
    <linearGradient id="Gradient_115-2" data-name="Gradient 115" x1="22.11" y1="355.97" x2="19.98" y2="410.61" xlink:href="#Gradient_115"/>
    <linearGradient id="Gradient_27" data-name="Gradient 27" x1="22.31" y1="292.23" x2="34.74" y2="251.33" gradientTransform="translate(62.01 -229.39) rotate(-3.09)" gradientUnits="userSpaceOnUse">
      <stop offset="0" stop-color="#724831"/>
      <stop offset=".42" stop-color="#7f553b"/>
      <stop offset="1" stop-color="#8e6346"/>
    </linearGradient>
    <linearGradient id="Gradient_27-2" data-name="Gradient 27" x1="5.36" y1="287.08" x2="17.79" y2="246.18" xlink:href="#Gradient_27"/>
    <linearGradient id="Gradient_27-3" data-name="Gradient 27" x1="-7.94" y1="283.38" x2="4.78" y2="241.52" xlink:href="#Gradient_27"/>
    <linearGradient id="Gradient_27-4" data-name="Gradient 27" x1="-16.66" y1="278.88" x2="-4.23" y2="237.98" xlink:href="#Gradient_27"/>
    <linearGradient id="Gradient_58" data-name="Gradient 58" x1="-1187.46" y1="777.15" x2="-1159.3" y2="777.15" gradientTransform="translate(-1237.06 -420.79) rotate(167.81) scale(1 -1)" gradientUnits="userSpaceOnUse">
      <stop offset="0" stop-color="#2b1b13"/>
      <stop offset=".04" stop-color="#2e1d14"/>
      <stop offset=".38" stop-color="#442b1d"/>
      <stop offset=".71" stop-color="#513423"/>
      <stop offset="1" stop-color="#563725"/>
    </linearGradient>
    <linearGradient id="Gradient_58-2" data-name="Gradient 58" x1="-118.47" y1="792.49" x2="-90.72" y2="792.49" gradientTransform="translate(52.87 -715.09) rotate(-12.66)" xlink:href="#Gradient_58"/>
    <linearGradient id="linear-gradient-15" x1="-6006.2" y1="537.41" x2="-6033.32" y2="560.59" gradientTransform="translate(-5965.07 72.28) rotate(175.07) scale(1 -1)" xlink:href="#linear-gradient-4"/>
    <linearGradient id="linear-gradient-16" x1="-6079.97" y1="339.58" x2="-6105.2" y2="333.49" gradientTransform="translate(-6025.42 162.54) rotate(176.29) scale(1 -1)" gradientUnits="userSpaceOnUse">
      <stop offset="0" stop-color="#ece7e7"/>
      <stop offset=".23" stop-color="#f5f3f3"/>
      <stop offset=".53" stop-color="#fcfcfc"/>
      <stop offset="1" stop-color="#fff"/>
    </linearGradient>
    <linearGradient id="linear-gradient-17" x1="-6102.1" y1="334.1" x2="-6089.87" y2="340" gradientTransform="translate(-6025.42 162.54) rotate(176.29) scale(1 -1)" gradientUnits="userSpaceOnUse">
      <stop offset="0" stop-color="#7a90a5"/>
      <stop offset=".25" stop-color="#859db3"/>
      <stop offset="1" stop-color="#a8c3dd"/>
    </linearGradient>
    <linearGradient id="Gradient_96" data-name="Gradient 96" x1="-6097.05" y1="346.78" x2="-6097.78" y2="339.99" gradientTransform="translate(-6025.42 162.54) rotate(176.29) scale(1 -1)" gradientUnits="userSpaceOnUse">
      <stop offset="0" stop-color="#a8c3dd"/>
      <stop offset="1" stop-color="#7a90a5"/>
    </linearGradient>
    <radialGradient id="Gradient_25" data-name="Gradient 25" cx="2351.6" cy="1531.86" fx="2351.6" fy="1531.86" r="3.38" gradientTransform="translate(2345.66 -1350.05) rotate(176.29) scale(1 -.85)" gradientUnits="userSpaceOnUse">
      <stop offset="0" stop-color="#666"/>
      <stop offset="1" stop-color="#1d1d1d"/>
    </radialGradient>
    <linearGradient id="linear-gradient-18" x1="-6100.92" y1="541.05" x2="-6080.7" y2="540.09" gradientTransform="translate(-6034.42 83.26) rotate(175.09) scale(1 -1)" gradientUnits="userSpaceOnUse">
      <stop offset="0" stop-color="#2b1b13"/>
      <stop offset=".04" stop-color="#2e1d14"/>
      <stop offset=".38" stop-color="#442b1d"/>
      <stop offset=".71" stop-color="#513423"/>
      <stop offset="1" stop-color="#563725"/>
    </linearGradient>
    <linearGradient id="linear-gradient-19" x1="4576.9" y1="314.23" x2="4549.98" y2="337.25" gradientTransform="translate(-4449.06 -26.41) rotate(-2.5)" xlink:href="#linear-gradient-4"/>
    <linearGradient id="linear-gradient-20" x1="-6123.72" y1="339.34" x2="-6149.65" y2="333.09" xlink:href="#linear-gradient-16"/>
    <linearGradient id="linear-gradient-21" x1="-6148.68" y1="333.5" x2="-6132.03" y2="340.28" gradientTransform="translate(-6025.42 162.54) rotate(176.29) scale(1 -1)" gradientUnits="userSpaceOnUse">
      <stop offset="0" stop-color="#7a90a5"/>
      <stop offset="1" stop-color="#a8c3dd"/>
    </linearGradient>
    <linearGradient id="Gradient_96-2" data-name="Gradient 96" x1="-6141.27" y1="351.52" x2="-6142.14" y2="343.45" xlink:href="#Gradient_96"/>
    <radialGradient id="Gradient_25-2" data-name="Gradient 25" cx="2306.51" cy="2848.71" fx="2306.51" fy="2848.71" r="3.31" gradientTransform="translate(2291.46 -2185.73) rotate(176.29) scale(1 -.75)" xlink:href="#Gradient_25"/>
    <linearGradient id="linear-gradient-22" x1="4482.23" y1="320.7" x2="4502.27" y2="319.74" gradientTransform="translate(-4378.54 -24.19) rotate(-2.52)" xlink:href="#linear-gradient-18"/>
    <linearGradient id="Gradient_115-3" data-name="Gradient 115" x1="36.21" y1="117.6" x2="35.55" y2="114.77" gradientTransform="translate(89.83 30.88) rotate(.33)" xlink:href="#Gradient_115"/>
    <linearGradient id="Gradient_115-4" data-name="Gradient 115" x1="-4.23" y1="117.62" x2="-4.74" y2="115.47" gradientTransform="translate(89.83 30.88) rotate(.33)" xlink:href="#Gradient_115"/>
    <linearGradient id="Gradient_27-5" data-name="Gradient 27" x1="37.7" y1="296.91" x2="50.13" y2="256.01" xlink:href="#Gradient_27"/>
    <linearGradient id="Gradient_27-6" data-name="Gradient 27" x1="51.25" y1="301.02" x2="63.67" y2="260.12" xlink:href="#Gradient_27"/>
    <linearGradient id="Gradient_27-7" data-name="Gradient 27" x1="-26.39" y1="277.43" x2="-13.96" y2="236.53" xlink:href="#Gradient_27"/>
    <linearGradient id="Gradient_27-8" data-name="Gradient 27" x1="-47.58" y1="38.1" x2="-38.19" y2="39.34" gradientTransform="translate(89.83 30.88) rotate(.33)" xlink:href="#Gradient_27"/>
    <linearGradient id="Gradient_27-9" data-name="Gradient 27" x1="63.67" y1="305" x2="76.84" y2="261.64" xlink:href="#Gradient_27"/>
    <linearGradient id="Gradient_58-3" data-name="Gradient 58" x1="-30.08" y1="127.8" x2="63.73" y2="-40.24" gradientTransform="translate(89.83 30.88) rotate(.33)" xlink:href="#Gradient_58"/>
    <linearGradient id="Gradient_115-5" data-name="Gradient 115" x1="16.4" y1="140.01" x2="16" y2="134.81" gradientTransform="translate(89.74 53.86) rotate(.33) scale(1 .93)" xlink:href="#Gradient_115"/>
    <linearGradient id="Gradient_113" data-name="Gradient 113" x1="14.62" y1="91.05" x2="13.53" y2="105.93" gradientTransform="translate(89.83 30.88) rotate(.33)" gradientUnits="userSpaceOnUse">
      <stop offset="0" stop-color="#a18166"/>
      <stop offset="1" stop-color="#d6ac88"/>
    </linearGradient>
    <linearGradient id="linear-gradient-23" x1="90.71" y1="544.85" x2="91.41" y2="569.33" gradientTransform="translate(-41.5 -438.6) rotate(-5.26)" gradientUnits="userSpaceOnUse">
      <stop offset="0" stop-color="#f7d4ab"/>
      <stop offset=".52" stop-color="#f5d1a8"/>
      <stop offset=".85" stop-color="#f2c99f"/>
      <stop offset="1" stop-color="#f0c499"/>
    </linearGradient>
    <linearGradient id="linear-gradient-24" x1="90.96" y1="809.99" x2="92.47" y2="798.81" gradientTransform="translate(-115.18 -1239.06) rotate(-5.25) scale(1 1.7) skewX(.04)" xlink:href="#linear-gradient-6"/>
    <linearGradient id="Gradient_115-6" data-name="Gradient 115" x1="16.42" y1="117.77" x2="15.47" y2="113.74" gradientTransform="translate(89.74 53.86) rotate(.33) scale(1 .93)" xlink:href="#Gradient_115"/>
    <linearGradient id="linear-gradient-25" x1="-17154.73" y1="-1101.21" x2="-17154.28" y2="-1116.65" gradientTransform="translate(17278.88 -555.39) rotate(-6.01)" gradientUnits="userSpaceOnUse">
      <stop offset="0" stop-color="#f7d4ab"/>
      <stop offset=".76" stop-color="#f2c89e"/>
      <stop offset="1" stop-color="#f0c499"/>
    </linearGradient>
    <linearGradient id="linear-gradient-26" x1="-17239.83" y1="-1520.43" x2="-17245.51" y2="-1540.59" gradientTransform="translate(17404.86 -361.74) rotate(-6.73)" xlink:href="#linear-gradient-7"/>
    <linearGradient id="linear-gradient-27" x1="-17229.52" y1="-803.56" x2="-17229.59" y2="-808.38" gradientTransform="translate(17340.85 -457.96) rotate(-4.68)" gradientUnits="userSpaceOnUse">
      <stop offset="0" stop-color="#f0c499"/>
      <stop offset=".52" stop-color="#f1c69b"/>
      <stop offset=".85" stop-color="#f4cea4"/>
      <stop offset="1" stop-color="#f7d4ab"/>
    </linearGradient>
    <linearGradient id="linear-gradient-28" x1="-12517.78" y1="898.12" x2="-12519.5" y2="892" gradientTransform="translate(17409.06 33.64) rotate(2.61) scale(1.38 1)" gradientUnits="userSpaceOnUse">
      <stop offset="0" stop-color="#ffd9b3"/>
      <stop offset="1" stop-color="#f7d4ab"/>
    </linearGradient>
    <linearGradient id="linear-gradient-29" x1="-17492.34" y1="-790.98" x2="-17494.21" y2="-796.13" gradientTransform="translate(17615.18 189.28) rotate(-2.45)" xlink:href="#linear-gradient-7"/>
    <linearGradient id="linear-gradient-30" x1="103.43" y1="183.67" x2="105.96" y2="331.67" gradientUnits="userSpaceOnUse">
      <stop offset="0" stop-color="#2b416b"/>
      <stop offset=".46" stop-color="#293e68"/>
      <stop offset=".75" stop-color="#23375f"/>
      <stop offset="1" stop-color="#192b51"/>
    </linearGradient>
    <linearGradient id="linear-gradient-31" x1="101.12" y1="191.9" x2="121.67" y2="191.9" gradientTransform="matrix(1,0,0,1,0,0)" xlink:href="#linear-gradient-6"/>
    <linearGradient id="linear-gradient-32" x1="117.76" y1="363.79" x2="89.42" y2="212.5" xlink:href="#linear-gradient-30"/>
    <linearGradient id="linear-gradient-33" x1="72.24" y1="260.84" x2="73.08" y2="219.4" xlink:href="#linear-gradient-30"/>
    <linearGradient id="linear-gradient-34" x1="73.16" y1="302.64" x2="73.16" y2="179.43" xlink:href="#linear-gradient-30"/>
    <linearGradient id="linear-gradient-35" x1="79.52" y1="207.03" x2="78.48" y2="135.37" xlink:href="#linear-gradient"/>
    <linearGradient id="linear-gradient-36" x1="78.23" y1="340.68" x2="123.55" y2="187.75" xlink:href="#linear-gradient-30"/>
    <linearGradient id="linear-gradient-37" x1="133.13" y1="265.19" x2="134.01" y2="222.02" xlink:href="#linear-gradient-30"/>
    <linearGradient id="linear-gradient-38" x1="134.72" y1="313.97" x2="134.72" y2="176.7" xlink:href="#linear-gradient-30"/>
    <linearGradient id="linear-gradient-39" x1="128" y1="206.55" x2="127.11" y2="144.97" xlink:href="#linear-gradient"/>
    <linearGradient id="linear-gradient-40" x1="114.38" y1="225.22" x2="124.67" y2="242.54" xlink:href="#linear-gradient-30"/>
    <linearGradient id="linear-gradient-41" x1="148.07" y1="222.19" x2="158.87" y2="240.37" xlink:href="#linear-gradient-30"/>
  </defs>
  <g id="Layer_1-2" data-name="Layer 1">
    <g style="clip-path: url(#clippath);">
      <g>
        <path d="M72.31,170.77s25.47-18.7,63.1-2.44c0,0,17.81,22.47.85,38.81-16.96,16.34-59.9,14.8-66.11,1.41-6.2-13.39-2.78-34.93,2.16-37.78Z" style="fill: url(#linear-gradient);"/>
        <path d="M136.15,188.11l6.66-8.51s-7.23-2.17-10.07-16.92c-.12.11-.24.22-.36.33-.87,8.81.71,17.24,3.77,25.09Z" style="fill: url(#linear-gradient-2);"/>
        <path d="M132.38,163.02c-11.43,10.5-16.96,14.97-31.67,14.05-5.69,0-16.94,2.61-24.05-2.09,5.96,11.97,17.22,21.08,26.44,29.14,3.8,3.8,5.36,10.31,7.33,16.85l25.73-32.86c-3.06-7.85-4.64-16.28-3.77-25.09Z" style="fill: url(#linear-gradient-3);"/>
        <path d="M85.02,176.45s-9.84-2.47-10.52-3.02c-1.21,2.84-2.69,5.81-4.52,8.9l31.5,51.88,8.94-13.23c-1.96-6.54-3.52-13.04-7.33-16.85-9.22-8.06-14.7-16.01-18.07-27.68Z" style="fill: url(#linear-gradient-4);"/>
        <path d="M132.74,162.69c-.53-2.76-.91-5.96-1.06-9.66l-58.14-14.7s3.12,16.83.97,35.1c7.04,5.71,20.98,6.64,27.26,6.64,14.87.93,25.81-7.81,30.97-17.38Z" style="fill: url(#linear-gradient-5);"/>
        <path d="M225.14,222.38c-15.56-5.75-74.21-32.38-74.21-32.38l-47.79,44.91-40.82-44.91S-6.32,217.64-16.95,222.38l28.4,84.45-.06,4.45h186.72l27.03-88.9Z" style="fill: #192b51;"/>
        <g>
          <path d="M57.11,103.1s6.01,46.98,7.43,48.88c1.42,1.9,22.09,15.39,24.78,17.44,2.69,2.05,29.27-.74,29.27-.74,0,0,21.5-17.73,23.27-21.06,1.77-3.32,2.57-50,2.57-50,0,0,3.83-38.23-5.94-50.75-9.77-12.52-71.8-13.39-81.08,5.25-9.28,18.64-.29,50.97-.29,50.97Z" style="fill: url(#linear-gradient-6);"/>
          <g>
            <path d="M152.04,93.28c9.63-1.23,4.15,14.28,4.15,14.28-2.69,19.85-.89,23.14-9.52,22.87-6.39-.2-1.51-36.28,5.37-37.15Z" style="fill: #f0c499;"/>
            <path d="M147.8,121.84s2.88-3.6,2.32-10.95c-1.3-17.33,7.81-18.14,5.28-6.45,0,0-1.03-5.6-2.25-3.99-1.49,1.98,1.39,3.22-.45,12.07-.96,4.59-4.9,9.32-4.9,9.32Z" style="fill: url(#linear-gradient-7);"/>
          </g>
          <g>
            <path d="M49.63,99.08c-9.68.13-2.74,14.77-2.74,14.77,4.58,19.34,4.21,22.27,11.66,21.38,8.37-1.01-2-36.24-8.92-36.15Z" style="fill: #f0c499;"/>
            <path d="M56.61,126.86s-3.2-3.17-3.36-10.55c-.38-17.4-9.5-16.92-5.87-5.67,0,0,.49-5.71,1.85-4.28,1.67,1.76-1.06,3.4,1.61,11.92,1.4,4.43,5.76,8.57,5.76,8.57Z" style="fill: url(#linear-gradient-8);"/>
          </g>
          <path d="M109.83,83.47s-2.99,10.77-2.8,11.64c.19.86,2.03,14.08,2.03,14.08,0,0,25.4-2.18,28.67-3.4,3.27-1.22,4.45-11.55,4.45-11.55l-7.68-8.17s-4.28-3.4-5-2.86c-.71.54-19.67.26-19.67.26Z" style="fill: url(#linear-gradient-9);"/>
          <path d="M89.61,85.24s4.09,10.29,4.02,11.17c-.06.88-.12,13.4-.12,13.4,0,0-25.45,1.53-28.86.79-3.41-.73-4.84-7.16-4.84-7.16l.14-4.32s5.24-7.34,5.9-7.94c5.12-4.67,23.76-5.93,23.76-5.93Z" style="fill: url(#linear-gradient-10);"/>
          <path d="M127.92,131.41c8.24.06,17.37-1.5,18.11-18.3.42-9.57-.91-14.48-5.01-14.99-8.71-1.08-20.86,3.35-25.85,6.28-10.55,6.2-1.85,26.89,12.76,27.01Z" style="fill: url(#radial-gradient);"/>
          <path d="M85.21,104.75c-2.4-.71-20.51-3.66-25.75-1.82-2.99,1.05-1.32,7.68-.44,14.02.42,3.04.67,7.93,1.48,9.81,3.99,9.22,17.13,8.86,24.55,5.8,12.66-5.24,12.31-24.23.16-27.8Z" style="fill: url(#radial-gradient-2);"/>
          <path d="M140.53,104.69c-1.53-.73-2.56.52-5.58,1.69-2.96,1.15-11.13,3.16-7.13,5,4.42,2.04,10.23-1.45,10.92-2.08.69-.63,3.68-3.71,1.79-4.62Z" style="fill: url(#linear-gradient-11);"/>
          <path d="M67.69,110.94c-3.18-.66-4.4-1.71-5.79-.74-1.71,1.2,1.75,3.75,2.54,4.25.79.51,7.1,2.97,11.11.23,3.64-2.48-4.75-3.1-7.86-3.75Z" style="fill: url(#linear-gradient-12);"/>
          <path d="M66.83,55.79c1.66-.91,26.89,1.28,30.76.18,3.87-1.1,24.76-6.07,28.97-4.01s7.36,6.46,7.89,8.95c.54,2.49.56,14.96.91,16.97.35,2.01,4.03,4.34,5.68,16.02s1.71,22.84,1.35,27.75-3.97,21.32-3.97,21.32l6.92-24.07s.67-2.84.69-5.78.28-38.72.28-38.72l-13.6-34.08-68.95.42-13.08,34.08,6.01,39.97,2.15,5.31,6.92,20.16s-3.55-24.53-4.34-25.97-1.51-14.75-1.4-17.26c.3-6.82,3.31-13.6,3.64-15.43.33-1.83-2.48-14.52-2.15-16.35.34-1.83,5.32-9.44,5.32-9.44Z" style="fill: url(#linear-gradient-13);"/>
          <path d="M58.85,57.29s6.19-10.12,23.31-8.37c11.39,1.16,11.85,1.01,15.69,1.65,3.84.63,21.63-7.34,29.78-4.65,8.15,2.7,9.44,11.87,9.75,16.41.31,4.54-.09,15.29,1.06,15.94,1.14.65,5.38,4.92,5.36,11.16-.03,6.24,2.24,23.67,2.24,23.67,0,0,.27-18.99,6.67-19.88l-.3-13.05s2.09-9.08,2.11-12.8c.04-7-2.26-12.83-2.44-13.99-.45-2.99-5.86-7.91-6.8-8.86,0,0,2.88-7.17-6.31-11.57,0,0-2.6-14.54-18.61-17-16.01-2.46-29.26-.84-34.05,1.13,0,0-17.7-3.53-25.68,8.37,0,0-10.79,4.97-11.32,15.89-.54,10.91,3.41,15.12,4,14.93l5.55,1.02Z" style="fill: url(#Gradient_32);"/>
          <path d="M60.48,55.89s-5.09,7.33-2.55,21.28c0,0-2.33,7.86-2.06,12.97.27,5.11,2.85,24.77,2.85,24.77,0,0-4.25-16.59-10.53-15.69,0,0-1.85-11.5-2.21-12.23,0,0-5.39-8.9-2.53-19.84,1.66-6.31,9.84-10.89,9.84-10.89l7.17-.39Z" style="fill: url(#Gradient_32-2);"/>
          <path d="M80.19,148.29s12.93,6.38,13.57,6.24c.64-.14,8.19-5.4,8.19-5.4,0,0,8.78,5.24,11.22,4.91,2.44-.33,13.72-9.92,13.72-9.92,0,0-2.46,11.89-4.91,13.2-2.45,1.31-40.86,1.34-40.86,1.34l-.93-10.39Z" style="fill: url(#linear-gradient-14);"/>
          <path d="M145.34,118.79s-.2,23.16-1.98,27.75c-1.78,4.59-23.23,21.62-27.31,25.38s-20.29,1.64-23.38,1.26c-3.09-.38-26.41-17.51-29.73-22.3-3.32-4.79-3.92-33.94-3.92-33.94,0,0,5.13,20.44,8.16,24.28,3.03,3.84,21.56,13.47,24.69,15.32,1.33.78,4.07.15,6.02-2.82,1.85-2.83.84-4.16,5.98-4.13,4.12.02,3.36,1.74,6.49,5.03,2.21,2.32,4.15,2.15,5.41.93,2.67-2.61,23.65-17.77,24.46-20.01s5.11-16.75,5.11-16.75Z" style="fill: url(#Gradient_115);"/>
          <path d="M79.32,141.95c2.39-3.12,13.78-13.43,15.03-13.12,7.52,1.86,14.99-2.5,15.92-2.85.93-.35,14.1,11.15,15.78,13.26,1.8,2.26,3.31,8.89,3.86,11.41.68,3.13-4.67,5.14-4.67,5.14,0,0,.12-11.94-.09-15.39-6.07-2.47-30.61-3.55-30.61-3.55,0,0-9.3,4.18-13.9,5.74-.87,4.8,2.74,13.14,2.74,13.14,0,0-3.46,1.31-5.98-2.96.25-5.63,1.3-9.99,1.93-10.81Z" style="fill: url(#Gradient_115-2);"/>
          <path d="M97.83,41.62s-1.44-23.31,27.36-24.42c0,0-17.26-9.17-27.25,3.02-9.99,12.18-.11,21.41-.11,21.41Z" style="fill: url(#Gradient_27);"/>
          <path d="M84.68,40.03s.31-18.14,16.91-23.17c0,0-5.99-6.87-15.28.23s-1.62,22.94-1.62,22.94Z" style="fill: url(#Gradient_27-2);"/>
          <path d="M77.71,41.51s-4.57-19.05,8.59-24.42c0,0-10.77-6.67-16.43,4.29-5.66,10.96,7.84,20.13,7.84,20.13Z" style="fill: url(#Gradient_27-3);"/>
          <path d="M65.49,43.37s-12.83-10.37-4.95-19.41c7.88-9.05,15.31-6.33,15.31-6.33,0,0-7.99,5.57-9.19,11.8-1.2,6.22-1.17,13.94-1.17,13.94Z" style="fill: url(#Gradient_27-4);"/>
          <path d="M67.89,91.41c2.69-3.24,9.77-4.9,13.64-5.65,2.19-.42,5.28-1.02,7.43-.72.5,1.17.72,2.04.65,3.56.73-.96.63-2.4.21-3.33.06.01,1.98,1.85,1.17,4.61-.38,1.32-4.05,1.08-12.09,2.61-2.19.42-5.49.84-8.98,2.11-1.1.4-5.6,2.47-5.6,2.47.29-.69,2.32-4.16,3.57-5.67Z" style="fill: url(#Gradient_58);"/>
          <path d="M131.03,77.1c-2.7-1.63-9.52.25-13.43,1.33-2.01.55-7.22,1.58-9.09,2.76.04,1.27.2,2.15.92,3.5-1.09-.56-1.61-1.91-1.63-2.93-.05.04-1.05,2.51.89,4.67.92,1.03,4.31-.44,12.38-2.73,2.52-.72,6.9-1.97,9.22-1.95,2.24.02,5.44,1.15,5.44,1.15,0,0-1.98-4.15-4.7-5.79Z" style="fill: url(#Gradient_58-2);"/>
          <g>
            <path d="M92.76,105.56c.93-1.28-.29-3.82-.96-5.41-2.11-4.96-6.09-6.4-14.1-6.05-2.63.11-7.13.96-9.75,3.71-2.02,2.12-3.12,4.15-2.77,5.9.18.89,4.71,5.65,13.46,5.35,5.72-.2,12.2-.84,14.13-3.51Z" style="fill: url(#linear-gradient-15);"/>
            <path d="M69.31,103.39c.27.57.62,1.08,1.04,1.51.67.7,1.48,1.25,2.4,1.67.35.12.71.2,1.06.25.05.01.11.01.14.03.59.1,1.17.19,1.69.26.14.03.29.03.43.06,2.06.26,3.77.36,5.24.33.37,0,.74-.01,1.1-.04.74-.05,1.41-.13,2.06-.26.32-.06.61-.13.91-.24.47-.15.92-.33,1.35-.53l.02-.02c.57-.27,1.08-.57,1.52-.9v-.02c1.05-.73,1.75-1.52,1.93-1.94,0,0,0-.02-.02-.03v-.02c-.16-.31-1.33-2.45-3.09-4.1-1.1-1.03-2.43-1.85-3.91-1.91-.48-.02-.94-.05-1.4-.03-8.3.2-12.12,5.39-12.46,5.87-.02.02-.02.04-.02.04Z" style="fill: url(#linear-gradient-16);"/>
            <path d="M69.33,103.35s-.02.04-.02.04c.27.57.62,1.08,1.04,1.52.1-.07.21-.14.34-.22.81-.5,2.27-1.21,5.09-1.63,11.62-1.73,14.28.37,14.42.48,0,0,0,0,0,0-.48-1.83-1.62-3.16-3.1-4.12-1.54-1-3.44-1.6-5.31-1.94-1.54-.28-3.03.27-4.32.26-4.15-.05-7.83,5.08-8.15,5.6Z" style="fill: #ddd;"/>
            <path d="M75.14,104.52c.05.3.11,1.68.94,2.66,2.06.26,3.77.36,5.24.33.37,0,.74-.01,1.1-.04.74-.05,1.41-.13,2.06-.26.32-.06.61-.13.91-.24.47-.15.92-.33,1.35-.53l.02-.02c.57-.27,1.08-.57,1.52-.9v-.02c.13-.45.2-.95.2-1.52,0-.41-.04-.81-.11-1.18-.06-.35-.17-.68-.3-.99-.04-.1-.08-.19-.12-.28-.47-1.02-1.25-1.77-2.21-2.29-1.2-.63-2.69-.91-4.24-.81-3.16.22-6.02,1.74-6.38,4.64v.05c-.06.43-.05.89.02,1.38Z" style="fill: url(#linear-gradient-17);"/>
            <path d="M75.1,103.14h.02c1.61-.3,3.11-.5,4.47-.63.58-1.48,1.98-2.54,3.67-2.6,1.81-.08,3.5,1.07,4.1,2.72.66.1,1.01.18,1.01.18-.04-.32-.13-.67-.3-.99-.04-.1-.08-.19-.12-.28-.45-.84-1.21-1.66-2.21-2.29-1.2-.63-2.69-.91-4.24-.81-3.16.22-6.02,1.74-6.38,4.64-.01.04-.01.05-.01.05Z" style="fill: url(#Gradient_96);"/>
            <path d="M79.59,102.51c3.69-.33,6.41-.08,7.77.12-.6-1.65-2.3-2.8-4.1-2.72-1.68.06-3.09,1.12-3.67,2.6Z"/>
            <path d="M79.32,104.13c.04,1.45.83,2.7,2,3.39.37,0,.74-.01,1.1-.04.74-.05,1.41-.13,2.06-.26.32-.06.61-.13.91-.24.47-.15.92-.33,1.35-.53l.02-.02c.56-.71.89-1.6.86-2.56-.01-.44-.09-.86-.26-1.24-1.36-.2-4.08-.45-7.77-.12-.18.51-.29,1.05-.27,1.62Z" style="fill: url(#Gradient_25);"/>
            <path d="M78.98,105.8c-.49-.79-.21-1.87.62-2.4.83-.53,1.9-.32,2.39.47.49.79.22,1.87-.61,2.4-.83.54-1.9.32-2.39-.47Z" style="fill: #fff;"/>
            <path d="M83.72,104.17c-.39-.62-.18-1.47.48-1.88.66-.42,1.5-.25,1.89.37.39.62.18,1.47-.48,1.88-.66.42-1.51.25-1.89-.37Z" style="fill: #fff;"/>
            <path d="M90.21,103.56s.1-2.83-3.79-5.12c-4.08-2.4-10.66-1.71-14.34.93-2.21,1.59-2.78,4.01-2.78,4.01,0,0,4.53-3.11,9.75-3.2,2.9-.05,4.02-.1,5.34.13,3.45.59,5.81,3.25,5.81,3.25Z" style="fill: url(#linear-gradient-18);"/>
          </g>
          <g>
            <path d="M111.55,104.67c-1.08-1.15-.21-3.82.25-5.49,1.44-5.19,5.16-7.13,13.08-7.82,2.6-.23,7.13.04,10.06,2.42,2.26,1.84,3.6,3.72,3.48,5.5-.06.9-3.9,6.21-12.53,7.04-5.64.54-12.09.74-14.34-1.66Z" style="fill: url(#linear-gradient-19);"/>
            <path d="M113.79,102.37c.42.68,2.38,2.19,4.88,2.69.4.1.81.16,1.24.19.34.03.69.03,1.05.02.34.01.67,0,1.03-.03,1.17-.08,2.45-.27,3.96-.59.81-.18,1.68-.39,2.62-.65.33-.07.68-.19,1.03-.28.24-.07.51-.14.75-.21.35-.09.68-.24.99-.38.27-.18.53-.35.78-.57.29-.23.57-.48.82-.75.2-.23.38-.43.54-.67.38-.49.64-1.04.84-1.63,0,0,0-.02-.02-.03-.4-.44-4.82-5.07-13.01-4.22-.44.06-.9.13-1.37.2-1.44.27-2.64,1.25-3.59,2.42-1.53,1.86-2.4,4.13-2.52,4.46v.02s-.01.04-.01.04Z" style="fill: url(#linear-gradient-20);"/>
            <path d="M134.29,99.45s.03.03.03.03c-.19.6-.47,1.15-.83,1.65-.11-.05-.22-.11-.36-.18-.86-.4-2.39-.91-5.21-.96-11.64-.22-13.99,2.2-14.11,2.33,0,0,0,0,0,0,.24-1.88,1.19-3.34,2.51-4.48,1.39-1.19,3.17-2.03,4.97-2.61,1.48-.48,2.74-.1,4-.28,4.08-.59,8.62,4.01,9,4.49Z" style="fill: #ddd;"/>
            <path d="M119.67,101.54c-.01,1.42.48,2.95,1.29,3.72.34.01.67,0,1.03-.03,1.17-.08,2.45-.27,3.96-.59.81-.18,1.68-.39,2.62-.65.33-.07.68-.19,1.03-.28.24-.07.51-.14.75-.21.35-.09.68-.24.99-.38.27-.18.53-.35.78-.57.29-.23.57-.48.82-.75.32-3.61-2.79-5.52-6.31-5.75-3.66-.26-6.92,1.53-6.96,5.5Z" style="fill: url(#linear-gradient-21);"/>
            <path d="M119.79,100.36s1.64-.39,4.54-.44c.59-1.58,2.15-2.71,3.89-2.74,2.04-.03,3.74,1.48,4.04,3.45.21.02.45.08.66.12,0,0-.13-4.5-4.95-5.34-4.53-.77-7.88,2.58-8.19,4.95Z" style="fill: url(#Gradient_96-2);"/>
            <path d="M124.32,99.93c2.06-.03,4.75.12,7.93.71-.31-1.97-2-3.48-4.04-3.45-1.74.02-3.3,1.16-3.89,2.74Z"/>
            <path d="M124.08,101.35c.02,1.38.77,2.58,1.86,3.29.81-.18,1.68-.39,2.62-.65.33-.07.68-.19,1.03-.28.24-.07.51-.14.75-.21.35-.09.68-.24.99-.38.27-.18.53-.35.78-.57.13-.42.21-.87.2-1.33,0-.2-.03-.39-.06-.58-3.18-.59-5.87-.74-7.93-.71-.17.44-.26.92-.25,1.42Z" style="fill: url(#Gradient_25-2);"/>
            <path d="M127.51,102.66c.38-.84-.03-1.88-.91-2.3-.88-.42-1.91-.08-2.29.78-.38.85.03,1.88.91,2.3.88.42,1.91.08,2.29-.78Z" style="fill: #fff;"/>
            <path d="M131.1,100.88c.3-.67-.02-1.48-.71-1.81-.7-.33-1.51-.06-1.81.61-.3.67.02,1.48.71,1.81.7.33,1.51.06,1.81-.61Z" style="fill: #fff;"/>
            <path d="M113.8,102.35s-.61-2.49,2.91-5.26c3.7-2.9,10.22-3.36,14.17-1.21,2.38,1.29,3.43,3.61,3.43,3.61,0,0-5.01-2.69-10.16-2.11-2.85.32-3.88.62-5.15,1.01-3.31,1.03-5.21,3.97-5.21,3.97Z" style="fill: url(#linear-gradient-22);"/>
          </g>
          <path d="M125.23,142.73l-.24-2.3-4.04-2.39s4.61,1.8,4.52,2.44c-.11.81-.23,2.25-.23,2.25Z" style="fill: url(#Gradient_115-3);"/>
          <path d="M80.52,144.93l.54-2.38s5.47-2.15,5.35-3.29c0,0-5.88,2.85-6.27,3.47l.37,2.19Z" style="fill: url(#Gradient_115-4);"/>
          <path d="M107.68,38.39s-.69-14.99,10.8-18.3c11.49-3.31,18.62,3.37,20.48,12.88,0,0-3.28-10.88-16.98-5.83-9.27,3.42-14.31,11.25-14.31,11.25Z" style="fill: url(#Gradient_27-5);"/>
          <path d="M125.84,43.12s12.63-7.45,19.43,1.41c0,0,.15-10.17-9.66-10.23-9.81-.06-9.77,8.82-9.77,8.82Z" style="fill: url(#Gradient_27-6);"/>
          <path d="M53.3,56.28s-7.81-4.75-3.97-20.16c1.96-7.85,11.29-10.66,11.29-10.66,0,0-3.63,3.24-8.09,16.64-2.09,6.29.76,14.18.76,14.18Z" style="fill: url(#Gradient_27-7);"/>
          <path d="M53.3,56.28s-7.72.54-10.89,10.27c-1.74,5.35,5.01,16.89,5.01,16.89,0,0-1.94-11.23-.28-17.01,1.88-6.56,6.16-10.16,6.16-10.16Z" style="fill: url(#Gradient_27-8);"/>
          <path d="M138.48,47.23s9.27-4.81,13.47,4.55c2.73,6.07,3.2,10.32-1.09,18.71,0,0-.31-12.48-2.76-15.89-2.45-3.41-9.62-7.36-9.62-7.36Z" style="fill: url(#Gradient_27-9);"/>
          <path d="M59.02,116.94s-.15-6.9-.94-18.32c-.46-6.64.38-11.44,3.78-17.13,0,0-2.87-15.7-2.09-17.81,1.72-4.69,8.05-11.36,9.27-11.62,1.22-.26,26.81.6,29.93.07s22.96-4.95,28.88-2.29c2.48,1.12,8.88,6.37,9.21,9.43.33,3.06.24,18.35.24,18.35,0,0,5.32,5.52,5.68,13.8.36,8.28,3.06,21.68,3.06,21.68,0,0,.76-25.55.37-28.41-.39-2.85-3.08-27.15-4.31-29.6-1.23-2.45-10.83-11.27-16.25-11.98-5.42-.71-27.39,2.93-28.34,3.59-.95.66-27.63-4.95-31.93-1.84-4.3,3.11-12.36,13.61-12.18,16.21.18,2.6-.3,23.61-.15,25.6.07.85,5.77,30.26,5.77,30.26Z" style="fill: url(#Gradient_58-3);"/>
          <path d="M73.19,160.09s16.21,10.47,19.82,11.11c4.59.82,18.66,1.42,23.08-.82,3.74-1.89,17.55-13.56,17.55-13.56,0,0-12.36,14.37-17.57,16.4-3.23,1.26-19.23,2.22-23.65,1.07-4.41-1.15-18.27-13.15-19.23-14.21Z" style="fill: url(#Gradient_115-5);"/>
          <path d="M92.43,129.94s11.03,4.08,11.49,3.94c.46-.13,10.39-5.25,10.39-5.25,0,0-1.4-1.98-3.26-1.99-3.21-.02-6.39,3.07-8.62,2.65-.96-.18-5.83-1.28-8.42-1.28-1.86,0-1.59,1.92-1.59,1.92Z" style="fill: url(#Gradient_113);"/>
          <g>
            <path d="M107.16,128.37c6.22-5.54,7.16.26,7.16.26-3.75-2.72-7.16-.26-7.16-.26Z" style="fill: #dca57b;"/>
            <path d="M92.43,129.94s.79-1.83,5.62-.68c0,0-8.19-4.68-5.62.68Z" style="fill: #dca57b;"/>
            <path d="M108.59,110.6c.19,2.45,1.97,11.57,1.35,13.03-1.37,3.25-4.35,4.77-7.25,4.8-2.15.46-6.15-.27-8.57-3.32-.99-1.25.12-10.57-.51-13.13,0,0-8.46,17.46-1.19,17.96,0,0-1.29-1.84,1.59-1.92,2.54-.08,4.12,4.24,9.12,3.78,5.51-.51,4.34-4.37,7.23-5.03,3.59-.82,3.1,1.59,3.95,1.87,3.52-1.81-2.05-13.89-5.73-18.03Z" style="fill: url(#linear-gradient-23);"/>
            <path d="M97.89,121.07c0,2.74.52,5.64,4.54,5.32,4.41-.35,4.33-3.34,3.73-5.8-3.54-14.59-8.27-9.71-8.27.48Z" style="fill: url(#linear-gradient-24);"/>
          </g>
          <path d="M96.5,155.49s2.88-4.99,3.69-5.97c.78-.95,5.55-.89,6.38.04.87.96,3.78,5.05,3.78,5.05,0,0-4.33-2.79-4.87-3.11-.54-.31-2.41-1.21-3.72-.65-1.3.56-5.27,4.63-5.27,4.63Z" style="fill: url(#Gradient_115-6);"/>
          <g>
            <path d="M93.87,135.01c3.58-1.7,6.1-.33,8.6-.46,2.45-.13,4.62-1.47,7.54-.92,4.45.84,9.77,3.59,14.71,6.64-2.2-.28-4.69-1.01-8.74-1.95-.65-.15-7.78-1.15-8.51-.97-9.16-.5-9.83.27-19.27,2.83-.81.22-6.23,2.09-7.14,2.37,1.11-.47,8.28-5.4,12.81-7.54Z" style="fill: url(#linear-gradient-25);"/>
            <path d="M125.46,140.47c-7.4-2.03-9.37-3.2-12.8-3.5-3.65-.32-6.54-.46-9.9-.31-3.55.16-5.51.37-9.52,1.52-2.33.67-10.03,3.58-13.1,4.55,2.68-.11,6.02-1.62,8.53-1.91,3.73-1.28,14.09-4.17,26.45-1.8,4.64.89,8.11,1.22,10.34,1.45Z" style="fill: url(#linear-gradient-26);"/>
            <path d="M90.04,144.83s11.98,4.87,27.95-2.16c0,0-9.77,3.4-27.95,2.16Z" style="fill: url(#linear-gradient-27);"/>
            <path d="M95.82,139.87c2.58-.43,14.42-1.63,15.83-.2,1.41,1.44-4.82,3.91-10.51,3.8-5.69-.11-11.06-2.64-5.32-3.6Z" style="fill: url(#linear-gradient-28);"/>
            <path d="M97.42,146.33s3.48.6,6.24.48c2.94-.13,3.37-.41,6.81-1.56,0,0-6.79,1.73-13.05,1.08Z" style="fill: url(#linear-gradient-29);"/>
          </g>
        </g>
        <path d="M-16.95,222.38s34.61,62.94,44.87,69.91c10.05,6.83,149.97,11.02,163.56-4.36l33.66-65.55-75.82-40.06-25.55,19.4-22.29,32.48-39.06-50.54-79.37,38.72Z" style="fill: url(#linear-gradient-30);"/>
        <path d="M101.12,184.64s14.38.95,19.77-2.32c4.71-2.85-13.45,19.15-14.94,19.39-1.49.24-4.83-17.08-4.83-17.08Z" style="fill: url(#linear-gradient-31);"/>
        <g>
          <path d="M88.72,203.15s6.83,6.28,8.09,7.39c1.21,1.06,4.95,18.55,4.95,18.55l-2.15,36.69-19.64-54.48,8.75-8.14Z" style="fill: url(#linear-gradient-32);"/>
          <path d="M58.35,191.25c0,4.09,7.23,33.57,7.7,35.15,0,0,8.93-7.71,14.93-12.5l7.74-10.75s-30.37-15.99-30.37-11.9Z" style="fill: url(#linear-gradient-33);"/>
          <path d="M73.82,169.79s-4.95,6.31-2.42,14.92c2.37,8.05,17.32,18.44,17.32,18.44,0,0-17.89,14.96-21.35,18.33-2.42-8.47-11.57-31.91-9.46-35.24,4.05-6.4,9.85-13.15,15.91-16.46Z" style="fill: url(#linear-gradient-34);"/>
          <path d="M73.82,169.79s-6.34,8.26,1.06,19.17c5.29,7.81,13.85,14.19,13.85,14.19,0,0-11.6-8.15-14.62-11.87-9.34-11.48-.28-21.5-.28-21.5Z" style="fill: url(#linear-gradient-35);"/>
          <path d="M117.25,202.85c-2.29,1.5-5.28,3.58-9,6.48-1.57,1.22-7.59,21.77-7.07,26.47.07.62.11,1.55.12,2.66,5.63-1.64,12.14-2.05,17.9-3.27.69-6.2.88-12.67,1.49-18.46.04-.37.33-5.32.33-5.32.38-3.66.16-3.46.33-5.85-2.01-.16-3.45-1.22-4.1-2.71Z" style="fill: url(#linear-gradient-36);"/>
          <path d="M117.25,202.85l3.77,8.56c4.24,3.31,17.16,11.62,23.79,14.99.81.41,5.84-30.09,7.04-38.56l-34.61,15.01Z" style="fill: url(#linear-gradient-37);"/>
          <path d="M117.25,202.85s24.1,16.27,27.17,19.59c2.69-10.61,7.76-30.97,7.76-37.04,0-3.19-13.63-15.47-16.77-17.07,0,0,1.77,5.23.87,10.31-3.22,18.22-19.03,24.21-19.03,24.21Z" style="fill: url(#linear-gradient-38);"/>
          <path d="M117.25,202.85s23.66-11.19,18.16-34.52c0,0,13.59,22.67-18.16,34.52Z" style="fill: url(#linear-gradient-39);"/>
          <path d="M117.25,202.85s-6.61,4.6-9.72,6.19c-3.11,1.6-5.9,21.93-5.9,21.93,0,0,5.63-17.71,6.65-19.36,1.02-1.65,8.97-8.76,8.97-8.76Z" style="fill: url(#linear-gradient-40);"/>
        </g>
        <path d="M129.7,211.41l14.73,11.03,4.57-18.83s-4.43,12.8-5.5,13.13c-1.07.33-13.8-5.33-13.8-5.33Z" style="fill: url(#linear-gradient-41);"/>
      </g>
    </g>
  </g>
</svg>