<?xml version="1.0" encoding="UTF-8"?>
<svg id="Layer_2" data-name="Layer 2" xmlns="http://www.w3.org/2000/svg" width="172.11" height="172.11" xmlns:xlink="http://www.w3.org/1999/xlink" viewBox="0 0 172.11 172.11">
  <defs>
    <clipPath id="clippath">
      <rect width="172.11" height="172.11" style="fill: none;"/>
    </clipPath>
    <linearGradient id="linear-gradient" x1="72.99" y1="140.99" x2="59.64" y2="127.64" gradientUnits="userSpaceOnUse">
      <stop offset="0" stop-color="#0b173d"/>
      <stop offset=".5" stop-color="#0c193f"/>
      <stop offset=".82" stop-color="#132248"/>
      <stop offset="1" stop-color="#192b51"/>
    </linearGradient>
    <linearGradient id="linear-gradient-2" x1="83.63" y1="127.31" x2="95.73" y2="149.56" gradientUnits="userSpaceOnUse">
      <stop offset="0" stop-color="#f7d4ab"/>
      <stop offset=".45" stop-color="#f3caa0"/>
      <stop offset="1" stop-color="#f0c499"/>
    </linearGradient>
    <linearGradient id="linear-gradient-3" x1="60.9" y1="113.92" x2="70.91" y2="132.34" xlink:href="#linear-gradient-2"/>
    <linearGradient id="linear-gradient-4" x1="97" y1="140.39" x2="90.49" y2="184.91" gradientUnits="userSpaceOnUse">
      <stop offset="0" stop-color="#dba379"/>
      <stop offset=".49" stop-color="#e3b086"/>
      <stop offset="1" stop-color="#f0c499"/>
    </linearGradient>
    <linearGradient id="linear-gradient-5" x1="109.8" y1="83.57" x2="71.25" y2="286.53" gradientUnits="userSpaceOnUse">
      <stop offset="0" stop-color="#2b416b"/>
      <stop offset=".46" stop-color="#293e68"/>
      <stop offset=".75" stop-color="#23375f"/>
      <stop offset="1" stop-color="#192b51"/>
    </linearGradient>
    <linearGradient id="linear-gradient-6" x1="88.36" y1="129.88" x2="84.66" y2="155.2" xlink:href="#linear-gradient-4"/>
    <linearGradient id="linear-gradient-7" x1="215.22" y1="660.48" x2="191.27" y2="532.65" gradientTransform="translate(-152.02 -335.26) rotate(-6.47)" xlink:href="#linear-gradient-5"/>
    <linearGradient id="linear-gradient-8" x1="168.57" y1="578.09" x2="169.41" y2="536.74" gradientTransform="translate(-152.02 -335.26) rotate(-6.47)" xlink:href="#linear-gradient-5"/>
    <linearGradient id="linear-gradient-9" x1="168.53" y1="619.5" x2="168.53" y2="498.64" gradientTransform="translate(-152.02 -335.26) rotate(-6.47)" xlink:href="#linear-gradient-5"/>
    <linearGradient id="linear-gradient-10" x1="113.1" y1="188.41" x2="120.59" y2="164.46" gradientUnits="userSpaceOnUse">
      <stop offset="0" stop-color="#2b416b"/>
      <stop offset="1" stop-color="#192b51"/>
    </linearGradient>
    <linearGradient id="linear-gradient-11" x1="273.9" y1="1076.29" x2="274.32" y2="1055.6" gradientTransform="translate(-422.33 -765.26) rotate(-15.55)" xlink:href="#linear-gradient-5"/>
    <linearGradient id="linear-gradient-12" x1="274.81" y1="1127.84" x2="274.81" y2="1020.77" gradientTransform="translate(-422.33 -765.26) rotate(-15.55)" xlink:href="#linear-gradient-5"/>
    <linearGradient id="linear-gradient-13" x1="179.84" y1="408.47" x2="190.12" y2="425.78" gradientTransform="translate(-90.17 -211.45) rotate(-4.09)" xlink:href="#linear-gradient-5"/>
    <linearGradient id="linear-gradient-14" x1="81.42" y1="181.58" x2="77.62" y2="161.95" xlink:href="#linear-gradient-5"/>
    <linearGradient id="linear-gradient-15" x1="123.81" y1="181.64" x2="126.66" y2="161.02" xlink:href="#linear-gradient-5"/>
    <linearGradient id="linear-gradient-16" x1="136.95" y1="127.58" x2="133.63" y2="169.42" gradientTransform="translate(-46.77 -84.49) rotate(-1.35) scale(1 .96)" gradientUnits="userSpaceOnUse">
      <stop offset="0" stop-color="#ffd9b3"/>
      <stop offset=".28" stop-color="#fbd6af"/>
      <stop offset="1" stop-color="#f7d4ab"/>
    </linearGradient>
    <linearGradient id="linear-gradient-17" x1="3338.94" y1="182.84" x2="3338.75" y2="192.78" gradientTransform="translate(3325.94 766.32) rotate(-165.07) scale(1 -1)" gradientUnits="userSpaceOnUse">
      <stop offset="0" stop-color="#f0c499"/>
      <stop offset=".15" stop-color="#f2c99f"/>
      <stop offset=".48" stop-color="#f5d1a8"/>
      <stop offset="1" stop-color="#f7d4ab"/>
    </linearGradient>
    <linearGradient id="linear-gradient-18" x1="-32.98" y1="-77.9" x2="-36.45" y2="-63.19" gradientTransform="translate(120.23 150.94) rotate(1.76) scale(1.03 1) skewX(-.59)" gradientUnits="userSpaceOnUse">
      <stop offset="0" stop-color="#f0c499"/>
      <stop offset=".52" stop-color="#f4cfa5"/>
      <stop offset="1" stop-color="#f7d4ab"/>
    </linearGradient>
    <radialGradient id="radial-gradient" cx="120.59" cy="216.4" fx="120.59" fy="216.4" r="18.36" gradientTransform="translate(-48.27 -120.32) rotate(-1.35)" gradientUnits="userSpaceOnUse">
      <stop offset="0" stop-color="#f8c39c"/>
      <stop offset="1" stop-color="#f7d4ab"/>
    </radialGradient>
    <linearGradient id="linear-gradient-19" x1="1245" y1="139.45" x2="1241.34" y2="160.42" gradientTransform="translate(1298.49 171.57) rotate(-169.47) scale(1 -1)" xlink:href="#linear-gradient-4"/>
    <linearGradient id="linear-gradient-20" x1="104.57" y1="200.84" x2="197.03" y2="202.28" gradientTransform="translate(-48.27 -120.32) rotate(-1.35)" gradientUnits="userSpaceOnUse">
      <stop offset="0" stop-color="#f0c499"/>
      <stop offset=".55" stop-color="#f3caa0"/>
      <stop offset="1" stop-color="#f7d4ab"/>
    </linearGradient>
    <linearGradient id="Gradient_128" data-name="Gradient 128" x1="136.01" y1="233.15" x2="136.8" y2="278.65" gradientTransform="translate(-48.27 -120.32) rotate(-1.35)" gradientUnits="userSpaceOnUse">
      <stop offset="0" stop-color="#d6ac88"/>
      <stop offset="1" stop-color="#a18166"/>
    </linearGradient>
    <linearGradient id="linear-gradient-21" x1="147.54" y1="235.13" x2="146.78" y2="244.7" gradientTransform="translate(-48.27 -120.32) rotate(-1.35)" xlink:href="#linear-gradient-16"/>
    <linearGradient id="linear-gradient-22" x1="139.63" y1="260.27" x2="138.99" y2="248.44" gradientTransform="translate(-48.27 -120.32) rotate(-1.35)" gradientUnits="userSpaceOnUse">
      <stop offset="0" stop-color="#f0c499"/>
      <stop offset=".52" stop-color="#f1c69b"/>
      <stop offset=".85" stop-color="#f4cea4"/>
      <stop offset="1" stop-color="#f7d4ab"/>
    </linearGradient>
    <linearGradient id="linear-gradient-23" x1="158.78" y1="258.74" x2="158.28" y2="249.58" xlink:href="#linear-gradient-22"/>
    <linearGradient id="Gradient_32" data-name="Gradient 32" x1="39.4" y1="-135.23" x2="14.13" y2="9.9" gradientTransform="translate(46.05 147.06) rotate(3.76)" gradientUnits="userSpaceOnUse">
      <stop offset="0" stop-color="#724831"/>
      <stop offset=".22" stop-color="#67412c"/>
      <stop offset=".63" stop-color="#5a3926"/>
      <stop offset="1" stop-color="#563725"/>
    </linearGradient>
    <linearGradient id="Gradient_58" data-name="Gradient 58" x1="-2.46" y1="-25.71" x2="85.91" y2="-163.95" gradientTransform="translate(46.05 147.06) rotate(3.76)" gradientUnits="userSpaceOnUse">
      <stop offset="0" stop-color="#2b1b13"/>
      <stop offset=".04" stop-color="#2e1d14"/>
      <stop offset=".38" stop-color="#442b1d"/>
      <stop offset=".71" stop-color="#513423"/>
      <stop offset="1" stop-color="#563725"/>
    </linearGradient>
    <linearGradient id="Gradient_27" data-name="Gradient 27" x1="156.67" y1="168.01" x2="167.49" y2="141.88" gradientTransform="translate(-48.27 -120.32) rotate(-1.35)" gradientUnits="userSpaceOnUse">
      <stop offset="0" stop-color="#724831"/>
      <stop offset=".42" stop-color="#7f553b"/>
      <stop offset="1" stop-color="#8e6346"/>
    </linearGradient>
    <linearGradient id="Gradient_27-2" data-name="Gradient 27" x1="148.01" y1="164.89" x2="159.31" y2="137.61" xlink:href="#Gradient_27"/>
    <linearGradient id="Gradient_27-3" data-name="Gradient 27" x1="134.55" y1="159.28" x2="145.79" y2="132.15" xlink:href="#Gradient_27"/>
    <linearGradient id="Gradient_27-4" data-name="Gradient 27" x1="119.83" y1="153.18" x2="131.06" y2="126.05" xlink:href="#Gradient_27"/>
    <linearGradient id="Gradient_27-5" data-name="Gradient 27" x1="111.69" y1="148.48" x2="122.2" y2="123.1" xlink:href="#Gradient_27"/>
    <linearGradient id="Gradient_27-6" data-name="Gradient 27" x1="104.99" y1="145.95" x2="117.61" y2="115.48" xlink:href="#Gradient_27"/>
    <linearGradient id="Gradient_27-7" data-name="Gradient 27" x1="98.76" y1="143.42" x2="110.77" y2="114.43" xlink:href="#Gradient_27"/>
    <linearGradient id="Gradient_27-8" data-name="Gradient 27" x1="88.01" y1="181.34" x2="104.74" y2="123.55" xlink:href="#Gradient_27"/>
    <linearGradient id="Gradient_27-9" data-name="Gradient 27" x1="93.59" y1="182.96" x2="110.33" y2="125.17" xlink:href="#Gradient_27"/>
    <linearGradient id="Gradient_27-10" data-name="Gradient 27" x1="83.71" y1="180.1" x2="100.45" y2="122.31" xlink:href="#Gradient_27"/>
    <linearGradient id="Gradient_27-11" data-name="Gradient 27" x1="157.86" y1="193.11" x2="172.05" y2="136.35" xlink:href="#Gradient_27"/>
    <linearGradient id="linear-gradient-24" x1="180.94" y1="269.92" x2="163.77" y2="265.72" gradientTransform="translate(-102.76 -174.33) rotate(-1.61)" gradientUnits="userSpaceOnUse">
      <stop offset="0" stop-color="#fbd6af"/>
      <stop offset="1" stop-color="#f7d4ab"/>
    </linearGradient>
    <linearGradient id="Gradient_58-2" data-name="Gradient 58" x1="-2273.24" y1="219.46" x2="-2252.44" y2="219.46" gradientTransform="translate(-2420.49 -93.13) rotate(178.72) scale(1.1 -1)" xlink:href="#Gradient_58"/>
    <linearGradient id="linear-gradient-25" x1="158.32" y1="195.27" x2="165.38" y2="206.6" gradientTransform="translate(-48.27 -120.32) rotate(-1.35)" xlink:href="#linear-gradient-18"/>
    <linearGradient id="Gradient_58-3" data-name="Gradient 58" x1="1640.62" y1="506.29" x2="1662.09" y2="506.29" gradientTransform="translate(-1147.32 -289.13) rotate(-6.63) scale(.74 .99)" xlink:href="#Gradient_58"/>
    <linearGradient id="linear-gradient-26" x1="-2555.34" y1="326.21" x2="-2577.34" y2="345.01" gradientTransform="translate(-2492.58 -140.75) rotate(177.44) scale(1 -1)" gradientUnits="userSpaceOnUse">
      <stop offset="0" stop-color="#f0c499"/>
      <stop offset=".51" stop-color="#e3b086"/>
      <stop offset="1" stop-color="#dba379"/>
    </linearGradient>
    <linearGradient id="linear-gradient-27" x1="143.55" y1="207.02" x2="122.36" y2="201.91" gradientTransform="translate(-48.27 -120.32) rotate(-1.35)" gradientUnits="userSpaceOnUse">
      <stop offset="0" stop-color="#ece7e7"/>
      <stop offset=".23" stop-color="#f5f3f3"/>
      <stop offset=".53" stop-color="#fcfcfc"/>
      <stop offset="1" stop-color="#fff"/>
    </linearGradient>
    <linearGradient id="Gradient_96" data-name="Gradient 96" x1="146.59" y1="219.2" x2="127.22" y2="201.62" gradientTransform="translate(-48.27 -120.32) rotate(-1.35)" gradientUnits="userSpaceOnUse">
      <stop offset="0" stop-color="#a8c3dd"/>
      <stop offset="1" stop-color="#7a90a5"/>
    </linearGradient>
    <linearGradient id="Gradient_96-2" data-name="Gradient 96" x1="78.29" y1="-76.42" x2="77.64" y2="-82.46" gradientTransform="translate(7.15 165.92) rotate(2.06)" xlink:href="#Gradient_96"/>
    <radialGradient id="Gradient_25" data-name="Gradient 25" cx="-3895.17" cy="326.27" fx="-3895.17" fy="326.27" r="3.29" gradientTransform="translate(-3820.11 -64.44) rotate(177.34) scale(1 -1) skewX(.09)" gradientUnits="userSpaceOnUse">
      <stop offset="0" stop-color="#666"/>
      <stop offset="1" stop-color="#1d1d1d"/>
    </radialGradient>
    <linearGradient id="linear-gradient-28" x1="-2645.19" y1="328.75" x2="-2628.81" y2="327.97" gradientTransform="translate(-2562.25 -132.67) rotate(177.46) scale(1 -1)" gradientUnits="userSpaceOnUse">
      <stop offset="0" stop-color="#2b1b13"/>
      <stop offset=".04" stop-color="#2e1d14"/>
      <stop offset=".38" stop-color="#442b1d"/>
      <stop offset=".71" stop-color="#513423"/>
      <stop offset="1" stop-color="#563725"/>
    </linearGradient>
    <linearGradient id="Gradient_126" data-name="Gradient 126" x1="150.14" y1="220.28" x2="149.29" y2="231.9" gradientTransform="translate(-48.27 -120.32) rotate(-1.35)" gradientUnits="userSpaceOnUse">
      <stop offset="0" stop-color="#a18166"/>
      <stop offset="1" stop-color="#d6ac88"/>
    </linearGradient>
    <radialGradient id="radial-gradient-2" cx="168.61" cy="213.76" fx="168.61" fy="213.76" r="12.68" xlink:href="#radial-gradient"/>
    <linearGradient id="linear-gradient-29" x1="147.83" y1="202.36" x2="148.67" y2="219.1" gradientTransform="translate(-48.27 -120.32) rotate(-1.35)" gradientUnits="userSpaceOnUse">
      <stop offset="0" stop-color="#f7d4ab"/>
      <stop offset=".52" stop-color="#f5d1a8"/>
      <stop offset=".85" stop-color="#f2c99f"/>
      <stop offset="1" stop-color="#f0c499"/>
    </linearGradient>
    <linearGradient id="linear-gradient-30" x1="3378.23" y1="383.05" x2="3382.09" y2="370.48" gradientTransform="translate(3197.96 -154.02) rotate(-177.58) scale(.91 -1)" xlink:href="#linear-gradient-16"/>
    <linearGradient id="linear-gradient-31" x1="752.1" y1="268.53" x2="733.81" y2="284.16" gradientTransform="translate(-517.33 -196.2) rotate(-.15) scale(.86 1) skewX(-.02)" xlink:href="#linear-gradient-26"/>
    <linearGradient id="linear-gradient-32" x1="173.38" y1="205.96" x2="157.38" y2="202.1" xlink:href="#linear-gradient-27"/>
    <linearGradient id="Gradient_96-3" data-name="Gradient 96" x1="177.41" y1="217.14" x2="159.79" y2="201.16" xlink:href="#Gradient_96"/>
    <linearGradient id="Gradient_96-4" data-name="Gradient 96" x1="110.49" y1="-81.04" x2="109.87" y2="-86.78" gradientTransform="translate(7.15 165.92) rotate(2.06)" xlink:href="#Gradient_96"/>
    <radialGradient id="Gradient_25-2" data-name="Gradient 25" cx="-967.51" cy="281.92" fx="-967.51" fy="281.92" r="2.99" gradientTransform="translate(1122.02 -211.07) rotate(-.05) scale(1.04) skewX(.07)" xlink:href="#Gradient_25"/>
    <linearGradient id="linear-gradient-33" x1="144.8" y1="269.46" x2="157.67" y2="268.85" gradientTransform="translate(-32.88 -191.49) rotate(-.15)" xlink:href="#linear-gradient-28"/>
    <linearGradient id="linear-gradient-34" x1="172.89" y1="209.21" x2="167.23" y2="211.16" gradientTransform="translate(-48.27 -120.32) rotate(-1.35)" xlink:href="#linear-gradient-24"/>
    <linearGradient id="Gradient_128-2" data-name="Gradient 128" x1="150.53" y1="271.98" x2="150.53" y2="265.7" xlink:href="#Gradient_128"/>
    <linearGradient id="Gradient_128-3" data-name="Gradient 128" x1="135.86" y1="292.04" x2="135.86" y2="290.07" gradientTransform="translate(-45.03 -120.64) rotate(-1.35)" xlink:href="#Gradient_128"/>
    <linearGradient id="Gradient_128-4" data-name="Gradient 128" x1="165.34" y1="241.9" x2="165.25" y2="230.43" xlink:href="#Gradient_128"/>
    <linearGradient id="Gradient_128-5" data-name="Gradient 128" x1="130.16" y1="240.93" x2="130.08" y2="230.83" xlink:href="#Gradient_128"/>
    <linearGradient id="linear-gradient-35" x1="161.4" y1="233.36" x2="167.02" y2="233.36" gradientTransform="translate(-48.27 -120.32) rotate(-1.35)" xlink:href="#linear-gradient-26"/>
    <linearGradient id="linear-gradient-36" x1="128.81" y1="234.35" x2="135.23" y2="234.35" gradientTransform="translate(-48.27 -120.32) rotate(-1.35)" xlink:href="#linear-gradient-26"/>
    <linearGradient id="linear-gradient-37" x1="241.5" y1="623.78" x2="241.32" y2="612.71" gradientTransform="translate(-172.56 -477.23) rotate(-3.56)" xlink:href="#linear-gradient-22"/>
    <linearGradient id="linear-gradient-38" x1="5739.73" y1="-19.13" x2="5740.23" y2="-7.45" gradientTransform="translate(5841.79 -93.16) rotate(177.84) scale(1 -1)" gradientUnits="userSpaceOnUse">
      <stop offset="0" stop-color="#e8d9d7"/>
      <stop offset=".4" stop-color="#efe5e3"/>
      <stop offset="1" stop-color="#fff"/>
    </linearGradient>
    <linearGradient id="linear-gradient-39" x1="9609.28" y1="-27.68" x2="9609.94" y2="-25.97" gradientTransform="translate(9718.46 -123.54) rotate(178.37) scale(1 -1)" xlink:href="#linear-gradient-38"/>
    <linearGradient id="linear-gradient-40" x1="9607.21" y1="-27.92" x2="9635.45" y2="-32.31" gradientTransform="translate(9718.46 -123.54) rotate(178.37) scale(1 -1)" gradientUnits="userSpaceOnUse">
      <stop offset="0" stop-color="#e56a81"/>
      <stop offset=".16" stop-color="#d96277"/>
      <stop offset=".44" stop-color="#bc4f5f"/>
      <stop offset=".81" stop-color="#8c3038"/>
      <stop offset="1" stop-color="#711e22"/>
    </linearGradient>
    <linearGradient id="linear-gradient-41" x1="9613.48" y1="-30.78" x2="9613.38" y2="-25.58" gradientTransform="translate(9718.46 -123.54) rotate(178.37) scale(1 -1)" xlink:href="#linear-gradient-38"/>
    <linearGradient id="linear-gradient-42" x1="241.18" y1="593.21" x2="241.25" y2="602.58" gradientTransform="translate(-172.56 -477.23) rotate(-3.56)" xlink:href="#linear-gradient-29"/>
    <linearGradient id="linear-gradient-43" x1="242.44" y1="607.57" x2="238.05" y2="591.98" gradientTransform="translate(-172.56 -477.23) rotate(-3.56)" xlink:href="#linear-gradient-4"/>
    <linearGradient id="linear-gradient-44" x1="150.91" y1="249.8" x2="150.67" y2="253.15" gradientTransform="translate(-48.27 -120.32) rotate(-1.35)" xlink:href="#linear-gradient-26"/>
    <linearGradient id="linear-gradient-45" x1="31.16" y1="155.11" x2="-10.57" y2="264" gradientUnits="userSpaceOnUse">
      <stop offset="0" stop-color="#2b416b"/>
      <stop offset=".4" stop-color="#263b64"/>
      <stop offset=".95" stop-color="#1a2c53"/>
      <stop offset="1" stop-color="#192b51"/>
    </linearGradient>
  </defs>
  <g id="Layer_1-2" data-name="Layer 1">
    <g style="clip-path: url(#clippath);">
      <g>
        <path d="M61.54,131.51l14.71-1.77-8.52,20.53s-9.75-10.48-9.78-13.33c-.03-2.85,3.6-5.42,3.6-5.42Z" style="fill: url(#linear-gradient);"/>
        <path d="M129.75,163.13s-.51,10.24-3.16,20.81c-1.82,7.24-5.31,13.29-11.95,13.08-2.24-.07-4.92-1.2-7.89-3.08-.57-.35-1.14-.74-1.72-1.16-6.11-4.32-16.07-9.98-22.82-17.58-1.52-3.55-2.75-7.13-3.75-10.75-.12-.39-.23-.8-.33-1.2-.04-.1-.07-.22-.09-.35-.16-.54-.29-1.09-.42-1.65-.12-.46-.23-.94-.33-1.42-.12-.46-.22-.94-.3-1.4-.13-.54-.23-1.09-.33-1.64-.13-.65-.26-1.32-.38-1.97-.04-.25-.09-.49-.13-.72-.19-1.12-.36-2.24-.51-3.36-.29-1.87-.52-3.75-.71-5.63-.16-1.54-.29-3.07-.42-4.61-.06-.8-.1-1.58-.16-2.37-.19-2.66-.32-5.33-.42-8.01-.04-.71-.07-1.43-.09-2.14-.1-2.74-.17-5.49-.25-8.25-.03-1.16-.06-2.32-.1-3.48-.03-.98-.06-1.97-.09-2.95-.03-1.01-.06-2.03-.1-3.06-.06-1.49-.12-2.97-.19-4.46l37.55,26.75h.01l1.62,1.16c1.13,4.33,1.19,10.75,1.52,14.45.12,1.27.26,2.22.49,2.66-.14-.28,20.38,13.89,15.44,12.34Z" style="fill: url(#linear-gradient-2);"/>
        <path d="M82.21,175.2c-9.72-10.95-14.41-21.48-18.91-27.6-1.9-2.58-2.98-4.13-2.98-4.13,1.07-1.26,1.27-7.97,1.23-14.31,0-.59-.06-1.38-.15-2.33h0c-.26-2.91-.87-7.26-1.56-11.86-1.52-9.98-3.49-21.11-3.49-21.11l16.77,11.92c.23,4.66.35,9.31.48,13.95.16,6.18.33,12.32.75,18.41.83,12.66,2.72,25.08,7.86,37.07Z" style="fill: url(#linear-gradient-3);"/>
        <path d="M126.59,183.95l-19.84,9.99-.47.23-4.16.05-41.73-45.18c1-4.03-.09-5.57-.09-5.57.53-1.73.9-3.73,1.22-10,1.54,2.46,4.26,8.12,5.57,9.27,15.82,13.85,21.39,16.04,22.19,16.4l17,9.74s4.89,10.89,5.05,14.6c9.17-16.84,1.93-27.16,1.93-27.16l-.62-17.44,1.67,11.91c5.96,8.2,15.43,12.34,15.43,12.34,0,0-.51,10.24-3.16,20.81Z" style="fill: url(#linear-gradient-4);"/>
        <path d="M164.75,360.83c-.54,10.02-2.2,19.52-2.2,19.52-4.07,2.13-7.91,4.07-12.6,5.75-31.7,11.46-69.64,12.5-118.2-4.27.97-7.33-15.47-31.86-16.03-33.08-1.01-2.14,5.03-36.64,6.69-47.17.26-1.67.42-2.74.42-2.98,0-3.33-6.69-24.91-13.16-49.06t-.01-.01c-8.62-32.16,4.12-77.87,4.12-77.87,2.84-1.42,39.77-25.95,39.77-25.95,1.04,3.27,35.06,17.16,35.06,17.16l23.88,32.41s2.87-28.1,3.1-31.8c1.93.93,8.91-4.79,8.91-4.79,0,0,34.16,16.02,35.58,17.78,1.42,1.77,2.82,53.69,2.14,65.55-.19,3.33.68,16.65,1.56,34.53.68,13.83,1.36,30.38,1.56,47.14.14,12.63.03,25.37-.59,37.16Z" style="fill: #192b51;"/>
        <path d="M18.81,166.11s19.98,70.21,28.76,73.03c10.14,3.26,71.49-.6,74.69-.6,8.02,0,26.78-2.25,33.72-5.23,3.14-1.35,6.81-56.9,6.81-56.9l-41.8-24.54-11.39,44.73-56.05-50.91-34.73,20.41Z" style="fill: url(#linear-gradient-5);"/>
        <path d="M115.78,152.38c-6.14.55-19.65.59-21.07,0-1.51-.62-13.71-7.11-20.29-13.25-1.64-1.52-3.57-3.19-4.53-3.95-3.21-2.48-6.73-6.36-8.49-8.36h0c-.26-2.91-.87-7.26-1.56-11.86l13.76,4.75,37.07,12.8h.01l1.62,1.16c1.13,4.33,3.14,15,3.48,18.7Z" style="fill: url(#linear-gradient-6);"/>
        <g>
          <path d="M95.68,164.92s6.12,4.47,7.24,5.25c1.08.75,7.17,13.14,7.17,13.14l1.63,32.86-22.39-43.84,6.35-7.41Z" style="fill: url(#linear-gradient-7);"/>
          <path d="M54.18,152.85c.38,3.32,24.72,31.78,25.25,33.02,0,0,6.54-7.08,10.97-11.51l5.29-9.43s-41.88-15.39-41.5-12.07Z" style="fill: url(#linear-gradient-8);"/>
          <path d="M59.85,133.02s-7.11,5.06,18.15,23.36c5.55,4.02,17.68,8.54,17.68,8.54,0,0-13.14,13.78-15.63,16.84-17.93-14.05-29.6-27.98-28.87-33.46.35-2.61,3.17-10.17,8.67-15.28Z" style="fill: url(#linear-gradient-9);"/>
          <path d="M115.58,163.47s-1.59,2.28-3.84,4.81c-.95,1.07-2.21,18.08-1.6,21.88.08.51.16,1.26.23,2.16,3.56-1.6,6.21-.91,9.88-2.16.08-5.08-.06-11.68,0-16.43,0-.3-.09-4.35-.09-4.35.04-3-.1-2.83-.13-4.78-1.31-.04-3.95.04-4.45-1.14Z" style="fill: url(#linear-gradient-10);"/>
          <path d="M115.58,163.47l4.63,7.95s9.02,6.46,10.31,7.36c0,0-1.91-6.74-3.61-13.54l-11.32-1.77Z" style="fill: url(#linear-gradient-11);"/>
          <path d="M115.58,163.47s12.28,11.93,14.93,14.01c-2.62-9.9-4.73-20.55-7.55-24.63-3.23-4.68-9.03-12.04-11.16-13.97l1.75,11.91c4.35,11.2,2.02,12.68,2.02,12.68Z" style="fill: url(#linear-gradient-12);"/>
          <path d="M115.58,163.47s-2.39,3.17-4.32,4.62c-1.93,1.44-1.12,18.88-1.12,18.88,0,0,1.19-15.44,1.76-16.83.56-1.39,3.68-6.67,3.68-6.67Z" style="fill: url(#linear-gradient-13);"/>
          <path d="M69.27,172.41l10.78,9.35,9.72-10.6s-9.64,6.97-9.95,7.09c-.3.12-10.55-5.84-10.55-5.84Z" style="fill: url(#linear-gradient-14);"/>
          <path d="M119.64,167.39l10.88,10.09s-1.91-7.84-2.94-11.65c0,0,.84,6.96.41,7-.42.04-8.35-5.44-8.35-5.44Z" style="fill: url(#linear-gradient-15);"/>
        </g>
        <g>
          <path d="M128.61,88.52c0,1.2-.22,3.74-.43,6.25-.23,2.53-.46,5.02-.45,6.14,0,.39,0,.77.01,1.14.06,9.83-5.17,26.55-5.17,26.55l-6.12,13.61-19.76,1.13-30.93-20.17-6.73-12.08-5.72-58.74s1.98-18.99,4.42-22.5c2.44-3.51,53.29-3.88,55.45-3.15,2.16.75,13.22,23.11,13.8,25.49.19.81.13,7.96.63,18.08,0,.2-1.75,9.79-.59,12.27,0,0,1.04,4.57,1.59,5.97Z" style="fill: url(#linear-gradient-16);"/>
          <path d="M58.93,100.22s.84,6.01-2.13,7c-2.97.99-8.85-.39-11.62-8.5-.24-.71-6.01-7.8-3.85-16.45.87-3.5,3.73-4.34,6.82-4.54s8.81,1.63,9.35,11.07c.01.23,1.43,11.41,1.43,11.41Z" style="fill: url(#linear-gradient-17);"/>
          <path d="M93.36,69.54c-.45-.49,6.46,5.71,6.27,7.68-.07.72,1.05,10.03,1.05,10.03,0,0-23.23,1.36-26.07.69s-3.86-5.92-3.86-5.92l3.15-8.09s5.64-2.76,6.29-2.39c.65.36,13.17-2,13.17-2Z" style="fill: url(#linear-gradient-18);"/>
          <path d="M90.78,82.44c-1.93-.63-16.57-3.48-20.86-2.11-2.45.78-7.91,4.46-7.35,9.63.27,2.48,2.65,8.3,3.26,9.85,3.02,7.58,18.04,7.52,24.14,5.21,10.41-3.94,10.6-19.37.81-22.57Z" style="fill: url(#radial-gradient);"/>
          <path d="M47.99,80.87c1.93-.09,3.8,1.52,4.39,4,1.53,6.48-3.18,7.45-.64,11.7.76,1.28,4.12,3.43.06,3.57-7.3.25-7.52-9.58-.74-12.98-.92-3.98-4.18-4.82-6.97-2.7.24-1.7,2.86-3.55,3.91-3.6Z" style="fill: url(#linear-gradient-19);"/>
          <path d="M67.31,120.19l-4.37-35.22s7.39-21.01,7.82-21.14c.43-.13-5.93-16.88-5.63-18.03s4.92-4.13,4.92-4.13c0,0,28.95,1.97,30.27,1.93,1.32-.03,14.97-2.76,16.14-2.21,1.91.9,10.03,18.53,10.03,18.53l.3-8.89-7.73-15.2-56.75-.1-2.62,11.24,2.74,16.61-5.05,11.75,4.3,26.42,5.63,18.44Z" style="fill: url(#linear-gradient-20);"/>
          <path d="M127.74,102.05s.2,5.4-1.99,18.42c-1.13,6.71-3.96,18.09-3.96,18.09-1.23,2.52-5.06,6.92-6.29,8.13-.75.76-15.93,2.11-20.48.92-1.59-.43-12.86-10.02-22.24-17.04,0,0-11.19-7.58-12.06-9.26-1.79-3.54-2.62-12.92-2.58-18.28.04-6.46-.46-19.39-.46-19.39l1.94-2.51,3.28,18.48s2.21,8.89,4.17,11c1.96,2.11,15.55,12.1,15.55,12.1l1.25-14.52s8.48-3.37,13.51-5.22l.66-.25c1.55-.57,2.66-.95,2.92-.97.51-.04,3.3,1.76,6.05,2.28,3.45.63,5.81-2.37,6.04-2.68.01,0,.01-.01.01-.01h.01s2.89,1.38,2.89,1.38h.01s8.95,4.31,8.95,4.31l-.32,10.07s2.29-7.24,3.12-15.04Z" style="fill: url(#Gradient_128);"/>
          <path d="M122.95,108.5l-.88,10.97c-.05.47-.53,6.28-1.27,7.76-1.33,2.6-3.03,5.28-3.63,5.44-1.28.32-3.57-.19-5.07-2.09-.91-1.17-1.23-1.99-1.43-2.05-.54-.12-5.08.25-5.08.25,0,0-.6.58-1.28,1.69-1.31,2.15-3.56,3.5-5.63,3.57-1.23.03-9.95-5.15-10.26-6.63-.25-1.2-1.6-17.13-1.6-17.13,0,0,17.33-1.3,20.12-1.67,2.79-.37,16.02-.11,16.02-.11Z" style="fill: url(#linear-gradient-21);"/>
          <path d="M104.81,129.79c-1.31,2.15-4.22,4.58-6.29,4.65-1.23.03-7.56-4.3-9.6-6.28l9.56,4.88,6.33-3.25Z" style="fill: url(#linear-gradient-22);"/>
          <path d="M120.79,127.23c-1.33,2.6-3.17,5.56-3.78,5.72-1.28.32-4.13-1.14-5.63-3.05l5.48,1.17,3.92-3.84Z" style="fill: url(#linear-gradient-23);"/>
          <path d="M57.92,92.26s2.92-18.44,3-20.43,5.43-9.72,4.8-11.35-5.42-15.88-2.66-21.27,37.72,2.27,39.51,1.23c1.79-1.03,16.01-3.6,16.71-3.06.7.54,6.09,15.9,6.55,16.87.46.97,1.8,15.25,1.8,15.25,0,0,4.2-15.46,3.65-17.14-.55-1.67-5.17-20.69-5.09-21.93s-.33-17.04-18.22-18.71c-17.89-1.67-42.83-1.52-46.7,1.41-3.88,2.94-13.56,6.91-14.42,17.47-.35,4.33.03,9.07.03,9.07,0,0-6.87,5.46-8.21,11.02-1.35,5.56.88,16.5,1.06,17.5,0,0-.88,10.99,1.87,13.19,0,0,2.62-4.7,8.5-2.88,5.65,1.75,7.8,13.75,7.8,13.75Z" style="fill: url(#Gradient_32);"/>
          <path d="M57.92,92.26s3.4-19.06,3.94-20.33c1.26-2.92,6.06-8.48,6.06-8.48.05-2.48-5.39-17.92-4.79-19.21.34-.73,5.51-5.21,7.03-4.91,5.16,1.04,31.39,1.51,31.39,1.51,0,0,16.09-3.54,17.44-2.27,1.35,1.27,7.52,21.35,7.52,21.35l1.13,9.57s1.1-13.15.8-14.27c-.29-1.12-7.49-20.25-7.97-20.53-.47-.28-18.92,2.58-20.38,2.36-.76-.11-21.89-1.85-31.03-1.71-3.28.05-10.07,6.54-10.26,7.39-.51,2.26,3.01,17.31,3.05,17.81.04.49-3.25,10.12-3.65,10.71-.4.59-.27,21-.27,21Z" style="fill: url(#Gradient_58);"/>
          <path d="M114.23,33.6c-8.73-8.02,7.53-22.82,13-9.34-1.86-.75-4.3-1.14-7.55.04-3.85,1.4-4.71,4.61-5.45,9.29Z" style="fill: url(#Gradient_27);"/>
          <path d="M100.24,33.3c-11.63-9.38,11.32-32.78,24.09-12.79-1.67-2.61-10.48-3.32-15.14-1.24-4.65,2.79-10.28,7.77-8.95,14.03Z" style="fill: url(#Gradient_27-2);"/>
          <path d="M88.38,31.49c-15.55-12.77,5.57-34.52,23.31-16.95-12.91-3.53-27.69-.78-23.31,16.95Z" style="fill: url(#Gradient_27-3);"/>
          <path d="M77.42,31.14c-14.25-6.84-1.2-27.82,13.18-21.14-8.96,2.52-16.91,10.67-13.18,21.14Z" style="fill: url(#Gradient_27-4);"/>
          <path d="M71.88,31.48c-18.58,1.71-8.73-31.21,7.27-20.42-10.26-.53-14.88,12.52-7.27,20.42Z" style="fill: url(#Gradient_27-5);"/>
          <path d="M62.48,32.86c-11.42.75-10.61-22.77,5.36-21.46-7.18,3.89-8.56,13.73-5.36,21.46Z" style="fill: url(#Gradient_27-6);"/>
          <path d="M52.72,35.96c-10.97-2.26-4.72-20,5.09-20.77-2.2,6.69-6.89,12.19-5.09,20.77Z" style="fill: url(#Gradient_27-7);"/>
          <path d="M49.57,42.35c-4.66,9.09-3.94,14.64-2.64,22.04-8.05-3.41-7.39-20.46,2.64-22.04Z" style="fill: url(#Gradient_27-8);"/>
          <path d="M53.95,44.15c-1.38,4.86-2.25,13.06-1.34,20.11-7.49-3.3-6.64-16.82,1.34-20.11Z" style="fill: url(#Gradient_27-9);"/>
          <path d="M48.64,39.23c-5.13,6.08-9.39,16.7-8.9,28.96-5.69-10.13-3.24-27.41,8.9-28.96Z" style="fill: url(#Gradient_27-10);"/>
          <path d="M120.85,34.93c-5.47-3.62,3.18-10.41,5.35-4.5-3.23-.49-4.39,1.35-5.35,4.5Z" style="fill: url(#Gradient_27-11);"/>
          <path d="M78.07,86.99c-2.56-.61-3.53-1.5-4.68-.74-1.42.94,1.33,3.08,1.96,3.52.63.43,5.69,2.59,9.02.46,3.01-1.93-3.78-2.64-6.3-3.24Z" style="fill: url(#linear-gradient-24);"/>
          <path d="M75.72,69.52c1.93-2.88,9.2-2.6,12.75-2.61,2.01,0,4.85-.02,6.7.55.24,1.01.29,1.75-.04,2.95.81-.66.97-1.83.76-2.64.05.02,1.43,1.79.24,3.88-.57,1-3.77.25-11.16.25-2.01,0-5.44-.18-8.19.7-1,.32-3.02,1.34-3.02,1.34-.22-.32,1.03-3.06,1.95-4.43Z" style="fill: url(#Gradient_58-2);"/>
          <path d="M129.2,86.06c-5.27.83-18.47-.12-18.47-.12,0,0-.55-7.64-.56-8.35-.02-.77,2.89-7.35,2.89-7.35,0,0,11.16-1.9,11.66-2.31.23-.19,1.57,1.03,2.9,2.37-.13,1.74.27,8.03.26,8.74,0,0,.42,3.75,1.33,7.03Z" style="fill: url(#linear-gradient-25);"/>
          <path d="M126.32,67.01c-1.3-1.97-5.59-1.58-8.27-1.28-1.25.14-4.43.39-5.7.95-.03,1.02.04,1.74.42,2.9-.63-.57-.9-1.7-.87-2.52-.03.02-.73,1.9.35,3.84.52.92,2.65.14,7.66-.58,1.36-.2,4.28-.5,5.66,0,.72.26,2.26,1.18,2.26,1.18.11-.34-.04-2.27-1.5-4.49Z" style="fill: url(#Gradient_58-3);"/>
          <g>
            <path d="M96.71,83.3c.8-1.02-.11-3.13-.6-4.45-1.54-4.12-4.71-5.43-11.21-5.42-2.13,0-5.8.54-8.01,2.7-1.7,1.66-2.67,3.29-2.44,4.72.12.73,3.62,4.77,10.71,4.83,4.63.03,9.89-.27,11.55-2.38Z" style="fill: url(#linear-gradient-26);"/>
            <path d="M94.72,81.6c-.21.42-1.07,1.27-2.3,1.92-.44.24-.95.46-1.48.61-.32.09-.65.19-.99.24-.52.07-1.08.13-1.69.14-1.46.03-3.19-.14-5.45-.54-.06-.01-.1-.01-.16-.03h-.01c-.22-.05-.45-.09-.68-.13-.22-.05-.42-.09-.63-.12-.29-.07-.57-.15-.83-.26-.73-.36-1.38-.85-1.9-1.46-.33-.35-.6-.8-.78-1.27,0,0,0-.01.01-.03.3-.37,3.56-4.47,10.28-4.36.36,0,.74.03,1.13.06,1.19.1,2.24.83,3.1,1.69,1.37,1.42,2.25,3.21,2.37,3.46h0s.02.04.02.04Z" style="fill: url(#linear-gradient-27);"/>
            <path d="M77.83,80.7s-.02.03-.02.03c.2.47.46.9.79,1.28.08-.05.17-.11.28-.17.67-.38,1.88-.91,4.17-1.16,9.46-1.01,11.54.78,11.65.88,0,0,0,0,0,0-.33-1.51-1.21-2.63-2.37-3.46-1.21-.87-2.73-1.42-4.23-1.76-1.24-.28-2.47-.42-3.51-.48-3.36-.18-6.49,4.42-6.77,4.84Z" style="fill: #ddd;"/>
            <path d="M92.82,81.48c.03.82-.14,1.5-.4,2.04-.44.24-.95.46-1.48.61-.32.09-.65.19-.99.24-.52.07-1.08.13-1.69.14-1.46.03-3.19-.14-5.45-.54-.06-.01-.1-.01-.16-.03h-.01c-.33-.48-.55-1.33-.6-1.61-.55-3.1,1.99-4.84,4.95-5.16,2.96-.32,5.69,1.05,5.84,4.29Z" style="fill: url(#Gradient_96);"/>
            <path d="M92.69,80.52s-4.23-.83-10.72.71c0,0,.04-3.37,3.96-4.18,3.67-.77,6.45,1.56,6.76,3.47Z" style="fill: url(#Gradient_96-2);"/>
            <path d="M87.62,77.62c1.81-.14,3.53,1.26,3.66,3.1.13,1.84-1.37,3.43-3.18,3.57-1.82.14-3.4-1.24-3.53-3.08-.13-1.84,1.23-3.44,3.05-3.58Z" style="fill: url(#Gradient_25);"/>
            <path d="M87.74,77.62c2.14-.17,3.18,1.38,3.48,2.69,0,0-3.53-.27-6.66.47,0,0,.1-2.91,3.17-3.16Z"/>
            <path d="M84.16,83.13c-.37-.66-.11-1.53.58-1.94.69-.41,1.55-.2,1.92.47.37.66.11,1.53-.58,1.94-.69.41-1.55.2-1.92-.47Z" style="fill: #fff;"/>
            <path d="M87.51,81.35c-.29-.52-.09-1.2.45-1.52.54-.32,1.22-.16,1.52.37.3.52.09,1.2-.45,1.52-.55.32-1.23.16-1.52-.37Z" style="fill: #fff;"/>
            <path d="M94.71,81.58s.26-2.55-2.81-4.55c-3.22-2.1-8.58-1.92-11.64.11-1.84,1.22-2.45,3.58-2.45,3.58,0,0,3.88-2.92,8.11-2.82,2.35.05,3.25.24,4.31.47,2.77.6,4.48,3.2,4.48,3.2Z" style="fill: url(#linear-gradient-28);"/>
          </g>
          <path d="M115.99,102.74s-8.79,4.31-9.17,4.4-9.43-4.17-9.43-4.17l.66-.25c1.55-.57,2.66-.95,2.92-.97.51-.04,3.3,1.76,6.05,2.28,3.45.63,5.81-2.37,6.04-2.68,0,0,.01,0,.03,0l2.89,1.37h.01Z" style="fill: url(#Gradient_126);"/>
          <path d="M129.55,87.16c.02.06,0,.12,0,.17-.75,9.43-1.16,11.03-1.81,14.72l-4.76,3.34-9.09-9.62-3.16-9.85,17.13-6.91c.17.26.61,1.81,1,3.54.39,1.7.72,3.58.69,4.6Z" style="fill: url(#radial-gradient-2);"/>
          <g>
            <path d="M104.86,102.3s-2.84-2.91-4.71-1.13c-1.1,1.05-2.4.73-2.4.73l9.28,2.07-2.17-1.67Z" style="fill: #dca57b;"/>
            <path d="M111.17,87.59s2.7,10.39,1.99,12.16c-.49,1.22-.11.34-.11.34,0,0-1.03,2-3.79,2.39-1.03.15-3.12.19-4.34-.61-1.03-.68-2.35-1.1-3.53-1.56-1.31-.51-1.59-3.77-1.6-4.75-.01-3.81.24-5.53.26-7.26,0,0-3.87,8.34-3.92,11.55-.06,4.15,2.31,3.02,3.29,2.4,1.54-.97,2.64-.58,3.76.06,1.47.84,1.35,2.91,5.64,2.6,3-.21,4.58-2.53,4.58-2.53,0,0,2.29-.03,2.23-2.58-.09-3.67-4.46-12.2-4.46-12.2Z" style="fill: url(#linear-gradient-29);"/>
            <path d="M112.06,97.58c.65,4.81-7.28,5.02-7.46.05-.14-3.78.26-8.11,3.58-8.21,2.72-.08,3.59,6.02,3.88,8.16Z" style="fill: url(#linear-gradient-30);"/>
          </g>
          <g>
            <path d="M112.27,82.11c-.6-.94-.49-2.96-.19-4.24.94-4.02,3.12-5.41,7.7-5.67,1.5-.09,4.11.28,5.74,2.25,1.26,1.52,2,3.04,1.89,4.43-.06.71-1.17,4.53-7.37,5.08-3.26.29-6.53.1-7.77-1.86Z" style="fill: url(#linear-gradient-31);"/>
            <path d="M126.12,78.93c-.08.4-.23.8-.44,1.14-.26.49-.66.91-1.11,1.28-2.26,1.79-6.42,2.15-9.23,1.02-1.07-.43-1.95-1.07-2.45-1.93h.01s0-.03,0-.03c.25-1.08.62-1.96,1.1-2.67,0-.03.03-.04.04-.07.88-1.37,2.12-2.11,3.46-2.39t.03-.01c3.19-.67,6.98,1.18,8.36,3.29.12.19.2.31.23.37Z" style="fill: url(#linear-gradient-32);"/>
            <path d="M126.12,78.93c-.08.4-.23.8-.44,1.14-.03-.01-.06-.04-.09-.05-.54-.33-1.54-.8-3.38-.93-7.63-.58-9.23,1.23-9.31,1.33.15-1.06.53-1.94,1.1-2.67,0-.03.03-.04.04-.07.18-.24.39-.47.62-.68.81-.78,1.81-1.32,2.84-1.71t.03-.01c.14-.05.3-.1.45-.15.98-.33,1.96-.5,2.8-.61,2.31-.28,4.43,2.91,5.12,4.05.12.19.2.31.23.37Z" style="fill: #ddd;"/>
            <path d="M124.66,80.75c-.01.13-.05.36-.09.6-2.26,1.79-6.42,2.15-9.23,1.02-.27-.54-.45-1.2-.45-2,0-.36.03-.68.08-.99,0-.03,0-.06.01-.08.09-.43.21-.84.41-1.19,0-.01.01-.04.03-.06.26-.58.67-1.04,1.13-1.39.01,0,.03-.01.04-.03.91-.67,2.12-.97,3.4-.87,2.31.17,4.38,1.41,4.68,3.78,0,.01.02.04,0,.08.05.33.05.72,0,1.13Z" style="fill: url(#Gradient_96-3);"/>
            <path d="M114.96,79.42s3.79-1.03,9.71.12c0,0-.19-3.13-3.75-3.73-4.14-.69-5.63,1.56-5.96,3.61Z" style="fill: url(#Gradient_96-4);"/>
            <path d="M120.14,76.41c-1.71-.05-3.26,1.33-3.31,3.05-.04,1.72,1.44,3.13,3.15,3.19,1.72.05,3.14-1.31,3.18-3.03.04-1.72-1.31-3.16-3.03-3.21Z" style="fill: url(#Gradient_25-2);"/>
            <path d="M120.03,76.41c-2.02-.06-2.93,1.43-3.16,2.66,0,0,3.31-.41,6.28.14,0,0-.22-2.71-3.13-2.8Z"/>
            <path d="M119.31,81.1c.32-.63.04-1.43-.63-1.78-.67-.35-1.46-.12-1.78.52-.32.64-.04,1.43.63,1.78.66.35,1.46.12,1.79-.52Z" style="fill: #fff;"/>
            <path d="M122,79.63c.25-.5.03-1.13-.49-1.4-.53-.27-1.16-.09-1.41.41-.25.5-.03,1.13.49,1.4.53.27,1.16.09,1.41-.41Z" style="fill: #fff;"/>
            <path d="M112.9,80.43s-.31-2.44,2.06-4.48c2.49-2.15,7.09-2.01,9.63-.19,1.53,1.1,1.53,3.18,1.53,3.18,0,0-1.52-2.38-5.14-2.38-1.88,0-3.79.35-4.63.61-2.2.69-3.46,3.26-3.46,3.26Z" style="fill: url(#linear-gradient-33);"/>
          </g>
          <path d="M129.55,87.16c-1.72.23-4.3.03-5.3-.56-2.19-1.22,2.53-3.12,4.61-4.05.39,1.7.72,3.58.69,4.6Z" style="fill: url(#linear-gradient-34);"/>
          <path d="M102.43,133.04s2.2-3.84,3.25-4.43c1.34-.76,4.24-.92,5.08-.25s3.35,4.51,3.35,4.51c0,0-3.95-3.46-4.28-3.8-.32-.34-2.98-.26-3.6.25s-3.81,3.72-3.81,3.72Z" style="fill: url(#Gradient_128-2);"/>
          <path d="M121.8,138.56l-1,2.38c-1.23,2.52-2.48,4.61-3.71,5.82-.75.76-15.92,1.88-20.54.92-7.67-1.59-23.75-17.12-23.75-17.12,0,0,21.14,14.5,26.98,14.77s13.39-.06,15.93-.83c2.55-.76,6.09-5.95,6.09-5.95Z" style="fill: url(#Gradient_128-3);"/>
          <polygon points="120.24 107.22 124.55 107.12 122.52 113.8 123.05 108.33 120.24 107.22" style="fill: url(#Gradient_128-4);"/>
          <polygon points="89.77 109.06 84.77 108.58 87.3 116.04 87.25 110.23 89.77 109.06" style="fill: url(#Gradient_128-5);"/>
          <g>
            <path d="M120.6,109.16l3.56-1.85s-1.05,1.74-1.41,2.15c-.35.41-4.13,1.42-4.13,1.42l1.97-1.72Z" style="fill: url(#linear-gradient-35);"/>
            <path d="M90.28,110.46l-4.3-1.39s.95,1.67,1.34,2.05c.39.38,5.16,1.5,5.16,1.5l-2.21-2.15Z" style="fill: url(#linear-gradient-36);"/>
            <g>
              <path d="M95.09,122.82s5.98,2.96,7.03,2.99c2.67.08,10.49.07,11.35-.26.59-.23,3.03-1.68,4.64-3.4,0,0-2.74,5.89-8.56,6.1-6.71.24-11.67-3.5-14.46-5.44Z" style="fill: url(#linear-gradient-37);"/>
              <g>
                <path d="M90.03,110.22c.49,2.64,1.55,5.32,2.08,6.39.1.2.19.35.24.43,1.24,1.87,2.74,3.27,4.84,4.21,1.06.48,2.38.95,3.91,1.33,1.76.44,3.81.73,6.06.7,2.35-.03,7.67-1.47,7.73-1.49,3.73-1.33,2.84-4.85,5.7-12.63-10.38,1.97-30.57,1.06-30.57,1.06Z" style="fill: #711e22;"/>
                <path d="M119.06,109.11s-.21,3.21-.88,4.21c-1.45,2.32-21.77,2.21-23.82,1.44-1.02-.38-2.77-5.61-2.77-5.61l27.47-.05Z" style="fill: url(#linear-gradient-38);"/>
                <path d="M113.65,119.89c-3.89.35-3.91,1.13-3.96,1.9-.05.77,2.36.95,2.36.95l3.26-2.3s-.19-.3-1.66-.54Z" style="fill: url(#linear-gradient-39);"/>
                <path d="M92.11,116.6c.1.2.19.35.24.43,1.24,1.87,2.74,3.27,4.84,4.21,1.06.48,2.38.95,3.91,1.33,1.55.25,3.29.4,5.15.38,2.23-.04,6.55-.53,6.28-1.23-.28-1.76-3.31-3.72-6.46-4.06-4.95-.53-12.29-2.34-13.96-1.07Z" style="fill: url(#linear-gradient-40);"/>
                <path d="M113.65,119.89c.33.45.4,1.01-1.28,1.77-2.46,1.11-11.97.73-11.97.73,0,0,8.95,2.96,15.31-.96,0,0,.14-.07.02-1.1-.06-.49-2.08-.44-2.08-.44Z" style="fill: url(#linear-gradient-41);"/>
                <path d="M98.84,110.05c-3.17-.09-10.87-.02-11.97-.71,5.09-.44,8.82-1.63,13.42-2.14,2.83-.31,6.45.23,7.67.14,1.22-.09,6.84-1.18,7.85-1.02,2.4.38,7.11,1.71,8.49,1.05,0,0-2.22,1.47-7.46,2.01-3.43.36-5.64.47-9.71.64-4.02.17-5.12.12-8.29.03Z" style="fill: url(#linear-gradient-42);"/>
                <path d="M124.3,107.27c-7.06,2.07-13.24,2.56-16.79,2.68-4.23.15-15.67-.07-21.72-1,0,0,.37.68.99,1.02,1.01.55,5.02,1.56,20.72.97,11.54-.43,14.87-2.4,15.98-2.76.58-.19.82-.91.82-.91Z" style="fill: url(#linear-gradient-43);"/>
              </g>
              <path d="M102.96,127.23s3.32,1.37,6.84,1.18c1.89-.1,4.1-1.52,4.1-1.52,0,0-3.89.8-10.94.34Z" style="fill: url(#linear-gradient-44);"/>
            </g>
          </g>
        </g>
        <path d="M31.07,231.34c-.29-5.93-.53-12.04-.6-18.02-.22-19.21-11.66-47.21-11.66-47.21-20.45,10.35-29.24,22.38-33.58,32.86-4.34,10.49-7.59,41.19-7.69,48.65-.05,4-1.64,19.14-2.94,33.21,21.64-13.37,45.33-27.43,56.47-49.49Z" style="fill: url(#linear-gradient-45);"/>
      </g>
    </g>
  </g>
</svg>