<?xml version="1.0" encoding="UTF-8"?>
<svg id="Layer_2" data-name="Layer 2" xmlns="http://www.w3.org/2000/svg" width="172.11" height="172.11" xmlns:xlink="http://www.w3.org/1999/xlink" viewBox="0 0 172.11 172.11">
  <defs>
    <clipPath id="clippath">
      <rect width="172.11" height="172.11" style="fill: none;"/>
    </clipPath>
    <linearGradient id="linear-gradient" x1="72.13" y1="140.99" x2="58.79" y2="127.64" gradientUnits="userSpaceOnUse">
      <stop offset="0" stop-color="#0b173d"/>
      <stop offset=".5" stop-color="#0c193f"/>
      <stop offset=".82" stop-color="#132248"/>
      <stop offset="1" stop-color="#192b51"/>
    </linearGradient>
    <linearGradient id="linear-gradient-2" x1="82.77" y1="127.31" x2="94.87" y2="149.56" gradientUnits="userSpaceOnUse">
      <stop offset="0" stop-color="#f7d4ab"/>
      <stop offset=".45" stop-color="#f3caa0"/>
      <stop offset="1" stop-color="#f0c499"/>
    </linearGradient>
    <linearGradient id="linear-gradient-3" x1="60.04" y1="113.92" x2="70.06" y2="132.34" xlink:href="#linear-gradient-2"/>
    <linearGradient id="linear-gradient-4" x1="96.15" y1="140.39" x2="89.63" y2="184.91" gradientUnits="userSpaceOnUse">
      <stop offset="0" stop-color="#dba379"/>
      <stop offset=".49" stop-color="#e3b086"/>
      <stop offset="1" stop-color="#f0c499"/>
    </linearGradient>
    <linearGradient id="linear-gradient-5" x1="99.23" y1="81.72" x2="60.68" y2="284.69" gradientUnits="userSpaceOnUse">
      <stop offset="0" stop-color="#2b416b"/>
      <stop offset=".46" stop-color="#293e68"/>
      <stop offset=".75" stop-color="#23375f"/>
      <stop offset="1" stop-color="#192b51"/>
    </linearGradient>
    <linearGradient id="linear-gradient-6" x1="85.68" y1="122.4" x2="81.3" y2="152.36" xlink:href="#linear-gradient-4"/>
    <linearGradient id="linear-gradient-7" x1="216.99" y1="613.84" x2="193.04" y2="486.01" gradientTransform="translate(-149.38 -288.71) rotate(-6.47)" xlink:href="#linear-gradient-5"/>
    <linearGradient id="linear-gradient-8" x1="170.34" y1="531.44" x2="171.18" y2="490.09" gradientTransform="translate(-149.38 -288.71) rotate(-6.47)" xlink:href="#linear-gradient-5"/>
    <linearGradient id="linear-gradient-9" x1="170.3" y1="572.85" x2="170.3" y2="452" gradientTransform="translate(-149.38 -288.71) rotate(-6.47)" xlink:href="#linear-gradient-5"/>
    <linearGradient id="linear-gradient-10" x1="112.24" y1="188.41" x2="119.74" y2="164.46" gradientUnits="userSpaceOnUse">
      <stop offset="0" stop-color="#2b416b"/>
      <stop offset="1" stop-color="#192b51"/>
    </linearGradient>
    <linearGradient id="linear-gradient-11" x1="288.18" y1="965.37" x2="288.6" y2="944.69" gradientTransform="translate(-407.21 -654.58) rotate(-15.55)" xlink:href="#linear-gradient-5"/>
    <linearGradient id="linear-gradient-12" x1="289.09" y1="1016.92" x2="289.09" y2="909.85" gradientTransform="translate(-407.21 -654.58) rotate(-15.55)" xlink:href="#linear-gradient-5"/>
    <linearGradient id="linear-gradient-13" x1="180.06" y1="378.93" x2="190.34" y2="396.23" gradientTransform="translate(-89.14 -181.97) rotate(-4.09)" xlink:href="#linear-gradient-5"/>
    <linearGradient id="linear-gradient-14" x1="80.56" y1="181.58" x2="76.77" y2="161.95" xlink:href="#linear-gradient-5"/>
    <linearGradient id="linear-gradient-15" x1="122.95" y1="181.64" x2="125.8" y2="161.02" xlink:href="#linear-gradient-5"/>
    <linearGradient id="linear-gradient-16" x1="286.67" y1="268.37" x2="283.4" y2="309.53" gradientTransform="translate(-235.86 -179.57) rotate(-8.52) scale(1 .96)" gradientUnits="userSpaceOnUse">
      <stop offset="0" stop-color="#ffd9b3"/>
      <stop offset=".28" stop-color="#fbd6af"/>
      <stop offset="1" stop-color="#f7d4ab"/>
    </linearGradient>
    <linearGradient id="linear-gradient-17" x1="3966.7" y1="386.54" x2="3966.51" y2="396.57" gradientTransform="translate(4034.03 239.55) rotate(-172.23) scale(1 -1)" gradientUnits="userSpaceOnUse">
      <stop offset="0" stop-color="#f0c499"/>
      <stop offset=".15" stop-color="#f2c99f"/>
      <stop offset=".48" stop-color="#f5d1a8"/>
      <stop offset="1" stop-color="#f7d4ab"/>
    </linearGradient>
    <linearGradient id="linear-gradient-18" x1="134.82" y1="70.82" x2="131.37" y2="85.44" gradientTransform="translate(-57.94 13.86) rotate(-5.4) scale(1.03 1) skewX(-.59)" gradientUnits="userSpaceOnUse">
      <stop offset="0" stop-color="#f0c499"/>
      <stop offset=".52" stop-color="#f4cfa5"/>
      <stop offset="1" stop-color="#f7d4ab"/>
    </linearGradient>
    <radialGradient id="radial-gradient" cx="269.9" cy="351.83" fx="269.9" fy="351.83" r="18.51" gradientTransform="translate(-241.48 -214.22) rotate(-8.52)" gradientUnits="userSpaceOnUse">
      <stop offset="0" stop-color="#f8c39c"/>
      <stop offset="1" stop-color="#f7d4ab"/>
    </radialGradient>
    <linearGradient id="linear-gradient-19" x1="1886.95" y1="325.7" x2="1883.27" y2="346.84" gradientTransform="translate(1950.58 -128.95) rotate(-176.63) scale(1 -1)" xlink:href="#linear-gradient-4"/>
    <linearGradient id="linear-gradient-20" x1="253.75" y1="336.15" x2="346.98" y2="337.6" gradientTransform="translate(-241.48 -214.22) rotate(-8.52)" gradientUnits="userSpaceOnUse">
      <stop offset="0" stop-color="#f0c499"/>
      <stop offset=".55" stop-color="#f3caa0"/>
      <stop offset="1" stop-color="#f7d4ab"/>
    </linearGradient>
    <linearGradient id="Gradient_128" data-name="Gradient 128" x1="285.41" y1="366.28" x2="286.14" y2="408.42" gradientTransform="translate(-241.48 -214.22) rotate(-8.52)" gradientUnits="userSpaceOnUse">
      <stop offset="0" stop-color="#d6ac88"/>
      <stop offset="1" stop-color="#a18166"/>
    </linearGradient>
    <linearGradient id="linear-gradient-21" x1="299.67" y1="370.76" x2="299.09" y2="378.07" gradientTransform="translate(-241.48 -214.22) rotate(-8.52)" xlink:href="#linear-gradient-16"/>
    <linearGradient id="linear-gradient-22" x1="291.07" y1="390.17" x2="290.52" y2="380.18" gradientTransform="translate(-241.48 -214.22) rotate(-8.52)" gradientUnits="userSpaceOnUse">
      <stop offset="0" stop-color="#f0c499"/>
      <stop offset=".52" stop-color="#f1c69b"/>
      <stop offset=".85" stop-color="#f4cea4"/>
      <stop offset="1" stop-color="#f7d4ab"/>
    </linearGradient>
    <linearGradient id="linear-gradient-23" x1="309.24" y1="388.76" x2="308.73" y2="379.36" xlink:href="#linear-gradient-22"/>
    <linearGradient id="Gradient_32" data-name="Gradient 32" x1="203.48" y1="22.98" x2="177.99" y2="169.32" gradientTransform="translate(-119.94 2.31) rotate(-3.41)" gradientUnits="userSpaceOnUse">
      <stop offset="0" stop-color="#724831"/>
      <stop offset=".22" stop-color="#67412c"/>
      <stop offset=".63" stop-color="#5a3926"/>
      <stop offset="1" stop-color="#563725"/>
    </linearGradient>
    <linearGradient id="Gradient_58" data-name="Gradient 58" x1="161.29" y1="133.43" x2="250.4" y2="-5.97" gradientTransform="translate(-119.94 2.31) rotate(-3.41)" gradientUnits="userSpaceOnUse">
      <stop offset="0" stop-color="#2b1b13"/>
      <stop offset=".04" stop-color="#2e1d14"/>
      <stop offset=".38" stop-color="#442b1d"/>
      <stop offset=".71" stop-color="#513423"/>
      <stop offset="1" stop-color="#563725"/>
    </linearGradient>
    <linearGradient id="Gradient_27" data-name="Gradient 27" x1="306.28" y1="303.05" x2="317.2" y2="276.7" gradientTransform="translate(-241.48 -214.22) rotate(-8.52)" gradientUnits="userSpaceOnUse">
      <stop offset="0" stop-color="#724831"/>
      <stop offset=".42" stop-color="#7f553b"/>
      <stop offset="1" stop-color="#8e6346"/>
    </linearGradient>
    <linearGradient id="Gradient_27-2" data-name="Gradient 27" x1="297.56" y1="299.9" x2="308.95" y2="272.4" xlink:href="#Gradient_27"/>
    <linearGradient id="Gradient_27-3" data-name="Gradient 27" x1="283.98" y1="294.24" x2="295.31" y2="266.89" xlink:href="#Gradient_27"/>
    <linearGradient id="Gradient_27-4" data-name="Gradient 27" x1="269.14" y1="288.09" x2="280.47" y2="260.74" xlink:href="#Gradient_27"/>
    <linearGradient id="Gradient_27-5" data-name="Gradient 27" x1="260.93" y1="283.35" x2="271.53" y2="257.77" xlink:href="#Gradient_27"/>
    <linearGradient id="Gradient_27-6" data-name="Gradient 27" x1="254.18" y1="280.81" x2="266.91" y2="250.09" xlink:href="#Gradient_27"/>
    <linearGradient id="Gradient_27-7" data-name="Gradient 27" x1="247.9" y1="278.25" x2="260" y2="249.02" xlink:href="#Gradient_27"/>
    <linearGradient id="Gradient_27-8" data-name="Gradient 27" x1="237.06" y1="316.49" x2="253.93" y2="258.23" xlink:href="#Gradient_27"/>
    <linearGradient id="Gradient_27-9" data-name="Gradient 27" x1="242.69" y1="318.12" x2="259.56" y2="259.86" xlink:href="#Gradient_27"/>
    <linearGradient id="Gradient_27-10" data-name="Gradient 27" x1="232.73" y1="315.24" x2="249.6" y2="256.97" xlink:href="#Gradient_27"/>
    <linearGradient id="Gradient_27-11" data-name="Gradient 27" x1="307.49" y1="328.35" x2="321.79" y2="271.13" xlink:href="#Gradient_27"/>
    <linearGradient id="linear-gradient-24" x1="330.48" y1="404.15" x2="313.17" y2="399.92" gradientTransform="translate(-302.73 -259.07) rotate(-8.77)" gradientUnits="userSpaceOnUse">
      <stop offset="0" stop-color="#fbd6af"/>
      <stop offset="1" stop-color="#f7d4ab"/>
    </linearGradient>
    <linearGradient id="Gradient_58-2" data-name="Gradient 58" x1="-1578.99" y1="274.23" x2="-1558.02" y2="274.23" gradientTransform="translate(-1662.05 -123.87) rotate(177.3) scale(1.1 -1)" xlink:href="#Gradient_58"/>
    <linearGradient id="linear-gradient-25" x1="308.23" y1="330.35" x2="315.35" y2="341.78" gradientTransform="translate(-241.48 -214.22) rotate(-8.52)" xlink:href="#linear-gradient-18"/>
    <linearGradient id="Gradient_58-3" data-name="Gradient 58" x1="1743.26" y1="743.15" x2="1764.59" y2="743.15" gradientTransform="translate(-1353.34 -167) rotate(-20.77) scale(.74 .99)" xlink:href="#Gradient_58"/>
    <linearGradient id="linear-gradient-26" x1="-1875.56" y1="455.79" x2="-1897.74" y2="474.75" gradientTransform="translate(-1853.37 -60.35) rotate(170.28) scale(1 -1)" gradientUnits="userSpaceOnUse">
      <stop offset="0" stop-color="#f0c499"/>
      <stop offset=".51" stop-color="#e3b086"/>
      <stop offset="1" stop-color="#dba379"/>
    </linearGradient>
    <linearGradient id="linear-gradient-27" x1="293.05" y1="342.38" x2="271.69" y2="337.22" gradientTransform="translate(-241.48 -214.22) rotate(-8.52)" gradientUnits="userSpaceOnUse">
      <stop offset="0" stop-color="#ece7e7"/>
      <stop offset=".23" stop-color="#f5f3f3"/>
      <stop offset=".53" stop-color="#fcfcfc"/>
      <stop offset="1" stop-color="#fff"/>
    </linearGradient>
    <linearGradient id="Gradient_96" data-name="Gradient 96" x1="296.12" y1="354.66" x2="276.59" y2="336.94" gradientTransform="translate(-241.48 -214.22) rotate(-8.52)" gradientUnits="userSpaceOnUse">
      <stop offset="0" stop-color="#a8c3dd"/>
      <stop offset="1" stop-color="#7a90a5"/>
    </linearGradient>
    <linearGradient id="Gradient_96-2" data-name="Gradient 96" x1="237.49" y1="75.42" x2="236.83" y2="69.33" gradientTransform="translate(-155.01 37.62) rotate(-5.1)" xlink:href="#Gradient_96"/>
    <radialGradient id="Gradient_25" data-name="Gradient 25" cx="-3216.6" cy="455.82" fx="-3216.6" fy="455.82" r="3.32" gradientTransform="translate(-3161.87 179.84) rotate(170.18) scale(1 -1) skewX(.09)" gradientUnits="userSpaceOnUse">
      <stop offset="0" stop-color="#666"/>
      <stop offset="1" stop-color="#1d1d1d"/>
    </radialGradient>
    <linearGradient id="linear-gradient-28" x1="-1966.07" y1="458.06" x2="-1949.56" y2="457.27" gradientTransform="translate(-1921.98 -43.05) rotate(170.29) scale(1 -1)" gradientUnits="userSpaceOnUse">
      <stop offset="0" stop-color="#2b1b13"/>
      <stop offset=".04" stop-color="#2e1d14"/>
      <stop offset=".38" stop-color="#442b1d"/>
      <stop offset=".71" stop-color="#513423"/>
      <stop offset="1" stop-color="#563725"/>
    </linearGradient>
    <linearGradient id="Gradient_126" data-name="Gradient 126" x1="298.73" y1="355.26" x2="297.8" y2="367.99" gradientTransform="translate(-241.48 -214.22) rotate(-8.52)" gradientUnits="userSpaceOnUse">
      <stop offset="0" stop-color="#a18166"/>
      <stop offset="1" stop-color="#d6ac88"/>
    </linearGradient>
    <radialGradient id="radial-gradient-2" cx="318.32" cy="349.17" fx="318.32" fy="349.17" r="12.78" xlink:href="#radial-gradient"/>
    <linearGradient id="linear-gradient-29" x1="297.37" y1="337.68" x2="298.22" y2="354.55" gradientTransform="translate(-241.48 -214.22) rotate(-8.52)" gradientUnits="userSpaceOnUse">
      <stop offset="0" stop-color="#f7d4ab"/>
      <stop offset=".52" stop-color="#f5d1a8"/>
      <stop offset=".85" stop-color="#f2c99f"/>
      <stop offset="1" stop-color="#f0c499"/>
    </linearGradient>
    <linearGradient id="linear-gradient-30" x1="4069.31" y1="534.63" x2="4073.2" y2="521.95" gradientTransform="translate(3757.77 -743.91) rotate(175.26) scale(.91 -1)" xlink:href="#linear-gradient-16"/>
    <linearGradient id="linear-gradient-31" x1="860.88" y1="409.31" x2="842.44" y2="425.07" gradientTransform="translate(-658.5 -247.21) rotate(-7.31) scale(.86 1) skewX(-.01)" xlink:href="#linear-gradient-26"/>
    <linearGradient id="linear-gradient-32" x1="323.13" y1="341.31" x2="307" y2="337.42" xlink:href="#linear-gradient-27"/>
    <linearGradient id="Gradient_96-3" data-name="Gradient 96" x1="327.19" y1="352.59" x2="309.43" y2="336.47" xlink:href="#Gradient_96"/>
    <linearGradient id="Gradient_96-4" data-name="Gradient 96" x1="269.94" y1="70.76" x2="269.32" y2="64.97" gradientTransform="translate(-155.01 37.62) rotate(-5.1)" xlink:href="#Gradient_96"/>
    <radialGradient id="Gradient_25-2" data-name="Gradient 25" cx="-804.79" cy="420.23" fx="-804.79" fy="420.23" r="3.02" gradientTransform="translate(891.12 -458.28) rotate(-7.22) scale(1.04) skewX(.07)" xlink:href="#Gradient_25"/>
    <linearGradient id="linear-gradient-33" x1="297.33" y1="410.27" x2="310.3" y2="409.65" gradientTransform="translate(-236.31 -295.33) rotate(-7.32)" xlink:href="#linear-gradient-28"/>
    <linearGradient id="linear-gradient-34" x1="322.63" y1="344.59" x2="316.93" y2="346.56" gradientTransform="translate(-241.48 -214.22) rotate(-8.52)" xlink:href="#linear-gradient-24"/>
    <linearGradient id="Gradient_128-2" data-name="Gradient 128" x1="300.88" y1="400.64" x2="300.88" y2="394.3" xlink:href="#Gradient_128"/>
    <linearGradient id="Gradient_128-3" data-name="Gradient 128" x1="287.88" y1="418.3" x2="287.88" y2="416.71" xlink:href="#Gradient_128"/>
    <linearGradient id="linear-gradient-35" x1="699.25" y1="-321.13" x2="699.39" y2="-299.26" gradientTransform="translate(-481.12 589.97) rotate(-15.9)" xlink:href="#linear-gradient-29"/>
    <linearGradient id="linear-gradient-36" x1="596.19" y1="-980.42" x2="596.35" y2="-973.11" gradientTransform="translate(-258 1066.4) rotate(-14.93) scale(1 .85) skewX(-.32)" gradientUnits="userSpaceOnUse">
      <stop offset="0" stop-color="#ffd9b3"/>
      <stop offset="1" stop-color="#f7d4ab"/>
    </linearGradient>
    <linearGradient id="linear-gradient-37" x1="700.38" y1="-295.39" x2="700.33" y2="-298.67" gradientTransform="translate(-481.12 589.97) rotate(-15.9)" xlink:href="#linear-gradient-22"/>
    <linearGradient id="linear-gradient-38" x1="158.09" y1="-4.89" x2="159.21" y2="-.61" gradientTransform="translate(-48.07 114.25) rotate(.17)" xlink:href="#linear-gradient-4"/>
    <linearGradient id="linear-gradient-39" x1="700.2" y1="-294.31" x2="696.23" y2="-308.41" gradientTransform="translate(-481.12 589.97) rotate(-15.9)" xlink:href="#linear-gradient-4"/>
    <linearGradient id="linear-gradient-40" x1="320.4" y1="-332.82" x2="323.02" y2="-320.09" gradientTransform="translate(-177.66 462.27) rotate(-6.18)" gradientUnits="userSpaceOnUse">
      <stop offset="0" stop-color="#f7d4ab"/>
      <stop offset=".32" stop-color="#f5d1a8"/>
      <stop offset=".53" stop-color="#f2c99f"/>
      <stop offset=".62" stop-color="#f0c499"/>
    </linearGradient>
    <linearGradient id="linear-gradient-41" x1="149.48" y1="145.81" x2="98.77" y2="171.07" gradientTransform="matrix(1,0,0,1,0,0)" xlink:href="#linear-gradient-36"/>
    <linearGradient id="linear-gradient-42" x1="-23.41" y1="460.33" x2="-21.14" y2="509.82" gradientTransform="translate(166.09 -300.3) rotate(6)" xlink:href="#linear-gradient-36"/>
    <linearGradient id="linear-gradient-43" x1="-29.21" y1="431.84" x2="-28.68" y2="443.45" gradientTransform="translate(166.09 -300.3) rotate(6)" xlink:href="#linear-gradient-36"/>
    <linearGradient id="linear-gradient-44" x1="-8.05" y1="442.55" x2="-52.95" y2="429.51" gradientTransform="translate(166.09 -300.3) rotate(6)" xlink:href="#linear-gradient-22"/>
    <linearGradient id="linear-gradient-45" x1="128.77" y1="137.98" x2="134.29" y2="133.43" gradientTransform="matrix(1,0,0,1,0,0)" xlink:href="#linear-gradient-22"/>
    <linearGradient id="linear-gradient-46" x1="136.29" y1="147.04" x2="139.4" y2="142.5" gradientTransform="matrix(1,0,0,1,0,0)" xlink:href="#linear-gradient-22"/>
    <linearGradient id="linear-gradient-47" x1="15.33" y1="500.56" x2="-7.64" y2="493.89" gradientTransform="translate(166.09 -300.3) rotate(6)" xlink:href="#linear-gradient-22"/>
  </defs>
  <g id="Layer_1-2" data-name="Layer 1">
    <g style="clip-path: url(#clippath);">
      <g>
        <path d="M60.69,131.51l14.71-1.77-8.52,20.53s-9.75-10.48-9.78-13.33c-.03-2.85,3.6-5.42,3.6-5.42Z" style="fill: url(#linear-gradient);"/>
        <path d="M128.9,163.13s-.51,10.24-3.16,20.81c-1.82,7.24-5.31,13.29-11.95,13.08-2.24-.07-4.92-1.2-7.89-3.08-.56-.35-1.14-.74-1.72-1.16-6.11-4.32-16.08-9.98-22.82-17.58-1.52-3.55-2.75-7.13-3.75-10.75-.12-.39-.23-.8-.33-1.2-.04-.1-.07-.22-.09-.35-.16-.54-.29-1.09-.42-1.65-.12-.46-.23-.94-.33-1.42-.12-.46-.22-.94-.3-1.4-.13-.54-.23-1.09-.33-1.64-.13-.65-.26-1.32-.38-1.97-.04-.25-.09-.49-.13-.72-.19-1.12-.36-2.24-.51-3.36-.29-1.87-.52-3.75-.71-5.63-.16-1.54-.29-3.07-.42-4.61-.06-.8-.1-1.58-.16-2.37-.19-2.66-.32-5.33-.42-8.01-.04-.71-.07-1.43-.09-2.14-.1-2.74-.17-5.49-.25-8.25-.03-1.16-.06-2.32-.1-3.48-.03-.98-.06-1.97-.09-2.95-.03-1.01-.06-2.03-.1-3.06-.06-1.49-.12-2.97-.19-4.46l37.55,26.75h.01l1.62,1.16c1.13,4.33,1.19,10.75,1.52,14.45.12,1.27.26,2.22.49,2.66-.15-.28,20.38,13.89,15.44,12.34Z" style="fill: url(#linear-gradient-2);"/>
        <path d="M81.35,175.2c-9.72-10.95-14.41-21.48-18.91-27.6-1.9-2.58-2.98-4.13-2.98-4.13,1.07-1.26,1.27-7.97,1.23-14.31,0-.59-.06-1.38-.14-2.33h0c-.26-2.91-.87-7.26-1.56-11.86-1.52-9.98-3.49-21.11-3.49-21.11l16.77,11.92c.23,4.66.35,9.31.48,13.95.16,6.18.33,12.32.75,18.41.83,12.66,2.72,25.08,7.86,37.07Z" style="fill: url(#linear-gradient-3);"/>
        <path d="M125.74,183.95l-19.84,9.99-.47.23-4.16.05-41.73-45.18c1-4.03-.09-5.57-.09-5.57.53-1.73.9-3.73,1.22-10,1.54,2.46,4.26,8.12,5.57,9.27,15.82,13.85,21.39,16.04,22.19,16.4l17,9.74s4.89,10.89,5.05,14.6c9.17-16.84,1.93-27.16,1.93-27.16l-.62-17.44,1.67,11.91c5.96,8.2,15.43,12.34,15.43,12.34,0,0-.51,10.24-3.16,20.81Z" style="fill: url(#linear-gradient-4);"/>
        <path d="M163.9,360.83c-.54,10.02-2.2,19.52-2.2,19.52-4.07,2.13-7.91,4.07-12.6,5.75-31.7,11.46-69.64,12.5-118.2-4.27.97-7.33-15.47-31.86-16.03-33.08-1.01-2.14,5.03-36.64,6.69-47.17.26-1.67.42-2.74.42-2.98,0-3.33-6.69-24.91-13.16-49.06t-.01-.01C.18,217.36.39,176.43.39,176.43c2.84-1.42,52.29-30.73,52.29-30.73,1.04,3.27,35.06,17.16,35.06,17.16l23.88,32.41s2.87-28.1,3.1-31.8c1.93.93,8.91-4.79,8.91-4.79,0,0,36.87,17.44,38.29,19.2,1.42,1.77.12,52.27-.57,64.13-.19,3.33.68,16.65,1.56,34.53.68,13.83,1.36,30.38,1.56,47.14.14,12.63.03,25.37-.59,37.16Z" style="fill: #192b51;"/>
        <path d="M.4,176.43s37.53,59.89,46.31,62.71c10.14,3.26,71.49-.6,74.69-.6,8.02,0,25.89.52,28.96-6.38,3.01-6.75,11.56-55.75,11.56-55.75l-41.8-24.54-11.39,44.73-56.05-50.91L.4,176.43Z" style="fill: url(#linear-gradient-5);"/>
        <path d="M112.97,148.13c-6.14.55-18.16,1.54-19.58.94-1.51-.62-12.9-6.69-19.9-10.95-1.91-1.16-3.5-2.19-4.46-2.94-3.22-2.48-6.73-6.36-8.49-8.36h0c-.26-2.91-2.28-16.21-3.45-21.31l15.64,14.2,37.07,12.8h.01l1.62,1.16c1.13,4.33,1.19,10.75,1.52,14.45Z" style="fill: url(#linear-gradient-6);"/>
        <g>
          <path d="M94.83,164.92s6.12,4.47,7.24,5.25c1.08.75,7.17,13.14,7.17,13.14l1.63,32.86-22.39-43.84,6.35-7.41Z" style="fill: url(#linear-gradient-7);"/>
          <path d="M53.33,152.85c.38,3.32,24.72,31.78,25.25,33.02,0,0,6.54-7.08,10.97-11.51l5.29-9.43s-41.88-15.39-41.5-12.07Z" style="fill: url(#linear-gradient-8);"/>
          <path d="M59,133.02s-7.11,5.06,18.15,23.36c5.55,4.02,17.68,8.54,17.68,8.54,0,0-13.14,13.78-15.63,16.84-17.93-14.05-29.6-27.98-28.87-33.46.35-2.61,3.17-10.17,8.67-15.28Z" style="fill: url(#linear-gradient-9);"/>
          <path d="M114.73,163.47s-1.59,2.28-3.84,4.81c-.95,1.07-2.21,18.08-1.6,21.88.08.51.16,1.26.24,2.16,3.56-1.6,6.21-.91,9.88-2.16.08-5.08-.06-11.68,0-16.43,0-.3-.09-4.35-.09-4.35.04-3-.1-2.83-.13-4.78-1.31-.04-3.95.04-4.45-1.14Z" style="fill: url(#linear-gradient-10);"/>
          <path d="M114.73,163.47l4.63,7.95s9.02,6.46,10.31,7.36c0,0-1.91-6.74-3.61-13.54l-11.32-1.77Z" style="fill: url(#linear-gradient-11);"/>
          <path d="M114.73,163.47s12.28,11.93,14.93,14.01c-2.62-9.9-4.73-20.55-7.55-24.63-3.23-4.68-9.03-12.04-11.16-13.97l1.75,11.91c4.35,11.2,2.02,12.68,2.02,12.68Z" style="fill: url(#linear-gradient-12);"/>
          <path d="M114.73,163.47s-2.39,3.17-4.32,4.62c-1.93,1.44-1.12,18.88-1.12,18.88,0,0,1.19-15.44,1.76-16.83s3.68-6.67,3.68-6.67Z" style="fill: url(#linear-gradient-13);"/>
          <path d="M68.42,172.41l10.78,9.35,9.72-10.6s-9.64,6.97-9.95,7.09-10.55-5.84-10.55-5.84Z" style="fill: url(#linear-gradient-14);"/>
          <path d="M118.79,167.39l10.88,10.09s-1.91-7.84-2.94-11.65c0,0,.84,6.96.41,7-.42.04-8.34-5.44-8.34-5.44Z" style="fill: url(#linear-gradient-15);"/>
        </g>
        <g>
          <path d="M128.22,82.69c.15,1.2.25,3.77.35,6.31.09,2.56.17,5.08.32,6.2.06.39.1.77.16,1.14,1.3,9.83.41,19.93.41,19.93l-6.36,18.76-19.63,3.62-33.77-13.39-8.25-11.24-13.11-58.04s-.4-19.25,1.6-23.06c2-3.81,52.82-10.58,55.08-10.12,2.26.47,16.13,21.46,17.01,23.76.29.78,1.13,7.95,2.9,18.01.03.2-.52,10.02.95,12.35,0,0,1.61,4.44,2.34,5.78Z" style="fill: url(#linear-gradient-16);"/>
          <path d="M59.98,103.15s1.59,5.9-1.25,7.27c-2.85,1.37-8.9.73-12.69-7.04-.33-.68-6.99-7.04-5.92-15.97.43-3.61,3.19-4.81,6.25-5.39,3.07-.58,9.02.53,10.74,9.9.04.23,2.86,11.24,2.86,11.24Z" style="fill: url(#linear-gradient-17);"/>
          <path d="M90.02,68.71s3.39.09,3.43.11c.83.53,4.31,4.41,4.37,6.21.02.73,2.31,9.91,2.31,9.91,0,0-23.06,4.28-25.99,3.97-2.93-.31-4.61-5.44-4.61-5.44l2.81-11.15s4.67-3.78,5.36-3.5c.67.27,11.5.15,12.32-.11Z" style="fill: url(#linear-gradient-18);"/>
          <path d="M89.61,81.36c-2.01-.39-17.01-1.39-21.14.51-2.36,1.09-7.35,5.46-6.14,10.56.58,2.45,3.69,7.97,4.5,9.44,3.97,7.21,18.99,5.25,24.8,2.17,9.92-5.25,8.16-20.71-2.03-22.68Z" style="fill: url(#radial-gradient);"/>
          <path d="M46.61,85.17c1.92-.33,3.99,1.04,4.89,3.45,2.34,6.29-2.24,7.85.83,11.79.92,1.19,4.55,2.92.51,3.56-7.28,1.17-8.73-8.64-2.37-12.89-1.42-3.87-4.78-4.3-7.31-1.82.03-1.74,2.42-3.91,3.46-4.09Z" style="fill: url(#linear-gradient-19);"/>
          <path d="M70.88,122.07l-8.8-34.68s4.75-21.94,5.16-22.13c.42-.19-8.05-16.14-7.9-17.33s4.4-4.75,4.4-4.75c0,0,29.21-1.67,30.53-1.87,1.32-.2,14.62-4.64,15.87-4.24,2.03.66,12.37,17.27,12.37,17.27l-.81-8.94-9.64-14.23-56.78,7.04-1.21,11.57,4.83,16.27-3.58,12.39,7.63,25.89,7.95,17.74Z" style="fill: url(#linear-gradient-20);"/>
          <path d="M129.05,96.33s1.14,7.64.88,19.25c-.17,6.86-1.4,9.19-3.26,14.72-.91,2.68-1.89,4.92-2.97,6.29-.65.85-15.67,4.12-20.37,3.49-1.64-.23-13.94-2.89-23.95-7.25l-2.26-1-1.32-.6-.19-.09h-.03c-4.72-2.23-10.06-5.55-11.14-7.13-2.24-3.31-4.25-12.59-4.88-17.96-.78-6.47-2.9-19.34-2.9-19.34l1.62-2.75,5.6,18.07s3.33,8.61,5.56,10.48c2.23,1.87,22.21,9.74,22.21,9.74,0,0,1.64-8.33,2.19-10.1,1.34-4.33,5.09-11.35,5.09-11.35l.51-.07c1.48-.77,2.54-1.28,2.8-1.33.5-.1,3.52,1.35,6.34,1.52,3.53.19,4.68-2.63,4.87-2.97.01,0,.84-.48.84-.48h0l2.11,1.67s0,0,0,0c0,0,5.65,5.05,7.37,6.73s3.28,6.39,3.28,6.39c0,0,2.14-8.02,1.99-15.92Z" style="fill: url(#Gradient_128);"/>
          <path d="M123.95,108.84s1.44,5.46,1.22,7.62h0c-1,2.76-2.46,5.79-3.04,6.02,0,0-1.02.52-3.13-.88-1.24-.82-3.71-4.06-3.92-4.09-.55-.05-4.77,1.21-4.77,1.21,0,0-2.17,3.49-2.97,4.52-1.99,2.56-2.99,3.04-3.54,2.92-1.21-.26-5.2-1.08-7.62-2.56-.54-.33-.23-8.28-.23-8.28,0,0,5.47-6.85,12.8-9.47,8.81-3.15,15.2,2.99,15.2,2.99Z" style="fill: url(#linear-gradient-21);"/>
          <path d="M109.31,119.69c-1.04,2.31-4.06,7.16-4.84,7.03-1.22-.21-6-1.39-8.29-3.11l7.2.13,5.93-4.05Z" style="fill: url(#linear-gradient-22);"/>
          <path d="M125.17,116.45c-1.52,4.52-2.56,6.09-3.15,6.32-1.24.48-4.39-2.08-6.12-3.8,0,0,5.08,2.88,5.71,2.67.63-.21,3.56-5.19,3.56-5.19Z" style="fill: url(#linear-gradient-23);"/>
          <path d="M57.97,95.31s.6-18.82.43-20.81c-.17-2,4.21-10.4,3.38-11.96s-7.42-15.21-5.34-20.95c2.08-5.74,38.02-2.48,39.68-3.73,1.66-1.26,15.56-5.61,16.33-5.16s8.1,15.14,8.68,16.06c.58.91,3.7,15.2,3.7,15.2,0,0,2.28-16.17,1.52-17.78-.76-1.6-7.77-20.05-7.84-21.3-.07-1.25-2.47-17.01-20.57-16.42-18.1.58-43.04,3.86-46.54,7.29-3.51,3.43-12.7,8.61-12.23,19.29.19,4.37,1.17,9.07,1.17,9.07,0,0-6.18,6.33-6.83,12.06-.65,5.73,2.96,16.39,3.26,17.37,0,0,.5,11.11,3.53,12.96,0,0,2.03-5.03,8.14-3.95,5.87,1.04,9.53,12.78,9.53,12.78Z" style="fill: url(#Gradient_32);"/>
          <path d="M57.97,95.31s1-19.5,1.38-20.83c.89-3.08,5-9.25,5-9.25-.26-2.49-7.64-17.25-7.21-18.61.25-.77,4.86-5.91,6.41-5.79,5.29.39,31.59-2.43,31.59-2.43,0,0,15.65-5.56,17.16-4.46,1.51,1.1,10.2,20.41,10.2,20.41l2.31,9.61s-.53-13.47-.97-14.56c-.44-1.09-10.04-19.31-10.55-19.53-.51-.22-18.61,4.96-20.09,4.92-.77-.02-22.13.9-31.26,2.19-3.28.46-9.25,7.81-9.34,8.68-.22,2.32,5.19,16.94,5.29,17.43s-1.98,10.53-2.31,11.17c-.33.64,2.37,21.05,2.37,21.05Z" style="fill: url(#Gradient_58);"/>
          <path d="M106.93,29.55c-9.74-6.92,4.66-23.78,11.83-10.98-1.95-.51-4.44-.6-7.54.99-3.67,1.89-4.13,5.2-4.29,9.98Z" style="fill: url(#Gradient_27);"/>
          <path d="M92.9,31.01c-12.81-7.92,7.21-34.21,22.49-15.83-2-2.4-10.9-2.01-15.3.66-4.3,3.38-9.31,9.06-7.19,15.16Z" style="fill: url(#Gradient_27-2);"/>
          <path d="M80.8,30.69c-17.16-10.82,1.23-35.23,21.19-19.89-13.36-1.91-27.8,2.7-21.19,19.89Z" style="fill: url(#Gradient_27-3);"/>
          <path d="M69.79,31.72c-15.11-5.05-4.7-27.67,10.53-22.8-8.64,3.65-15.58,12.8-10.53,22.8Z" style="fill: url(#Gradient_27-4);"/>
          <path d="M64.3,32.76c-18.37,4.05-12.66-30.12,4.7-21.34-10.33.76-13.31,14.39-4.7,21.34Z" style="fill: url(#Gradient_27-5);"/>
          <path d="M55.06,35.32c-11.33,2.19-13.47-21.44,2.66-22.14-6.69,4.79-6.84,14.81-2.66,22.14Z" style="fill: url(#Gradient_27-6);"/>
          <path d="M45.69,39.65c-11.26-.89-7.24-19.41,2.48-21.42-1.36,6.97-5.36,13.06-2.48,21.42Z" style="fill: url(#Gradient_27-7);"/>
          <path d="M43.35,46.43c-3.51,9.68-2.1,15.14.13,22.38-8.48-2.4-9.97-19.53-.13-22.38Z" style="fill: url(#Gradient_27-8);"/>
          <path d="M47.96,47.69c-.77,5.04-.61,13.34,1.19,20.28-7.91-2.36-8.76-15.99-1.19-20.28Z" style="fill: url(#Gradient_27-9);"/>
          <path d="M42.02,43.43c-4.37,6.73-7.29,17.88-5.26,30.09-6.96-9.42-6.69-27.01,5.26-30.09Z" style="fill: url(#Gradient_27-10);"/>
          <path d="M113.72,30.05c-5.92-2.94,1.88-10.82,4.79-5.17-3.3-.08-4.22,1.9-4.79,5.17Z" style="fill: url(#Gradient_27-11);"/>
          <path d="M77.47,87.51c-2.64-.29-3.72-1.06-4.78-.15-1.3,1.11,1.72,2.92,2.4,3.27.68.35,6.02,1.87,9.08-.67,2.77-2.3-4.11-2.16-6.7-2.44Z" style="fill: url(#linear-gradient-24);"/>
          <path d="M74.2,67.8c1.87-2.96,9.21-2.85,12.79-2.95,2.03-.06,4.89-.14,6.77.39.27,1.02.33,1.75.03,2.98.8-.68.93-1.87.7-2.68.05.02,1.49,1.77.34,3.91-.55,1.02-3.8.34-11.24.53-2.02.05-5.49-.05-8.24.91-1,.35-3.01,1.43-3.01,1.43-.23-.32.97-3.11,1.86-4.51Z" style="fill: url(#Gradient_58-2);"/>
          <path d="M128.5,80.15c-5.16,1.5-18.5,2.2-18.5,2.2,0,0-1.51-7.57-1.61-8.28-.11-.77,1.97-7.72,1.97-7.72,0,0,10.93-3.3,11.37-3.78.2-.22,1.65-.26,3.14.9.09,1.76,1.33,9.1,1.41,9.82,0,0,.89,3.7,2.22,6.87Z" style="fill: url(#linear-gradient-25);"/>
          <path d="M122.91,59.84c-1.76-1.61-5.85-.16-8.4.78-1.19.44-4.23,1.47-5.34,2.34.22,1,.46,1.7,1.12,2.73-.76-.4-1.3-1.44-1.47-2.25-.02.03-.25,2.04,1.29,3.67.73.78,2.63-.51,7.34-2.45,1.28-.53,4.06-1.54,5.53-1.4.77.08,2.14.58,2.14.58.02-.36-.24-2.19-2.21-4Z" style="fill: url(#Gradient_58-3);"/>
          <g>
            <path d="M95.65,81.47c.67-1.12-.5-3.11-1.16-4.37-2.06-3.93-5.4-4.84-11.89-4.01-2.13.27-5.74,1.27-7.68,3.7-1.5,1.87-2.25,3.62-1.85,5.03.21.72,4.22,4.32,11.32,3.48,4.64-.55,9.86-1.51,11.26-3.84Z" style="fill: url(#linear-gradient-26);"/>
            <path d="M93.45,80.02c-.15.45-.91,1.41-2.06,2.21-.41.3-.89.58-1.4.8-.3.13-.62.27-.96.37-.51.14-1.07.26-1.67.35-1.46.22-3.21.26-5.51.15-.06,0-.1,0-.16,0h-.02c-.22-.02-.46-.03-.7-.04-.23-.03-.43-.04-.64-.04-.3-.03-.59-.07-.86-.15-.78-.27-1.49-.68-2.09-1.22-.37-.31-.7-.72-.94-1.17,0,0,0-.01.01-.03.25-.41,3-4.92,9.74-5.65.36-.04.74-.07,1.14-.08,1.2-.05,2.34.55,3.31,1.31,1.54,1.25,2.65,2.92,2.81,3.17h0s.02.04.02.04Z" style="fill: url(#linear-gradient-27);"/>
            <path d="M76.43,81.24s-.01.03-.01.03c.26.45.58.84.95,1.18.08-.06.16-.13.26-.21.62-.47,1.76-1.15,4.03-1.68,9.33-2.2,11.65-.67,11.77-.58,0,0,0,0,0,0-.52-1.47-1.54-2.48-2.8-3.17-1.32-.72-2.91-1.08-4.45-1.23-1.27-.13-2.52-.11-3.57-.04-3.38.24-5.94,5.24-6.16,5.69Z" style="fill: #ddd;"/>
            <path d="M91.53,80.15c.14.82.05,1.51-.14,2.09-.41.3-.89.58-1.4.8-.3.13-.62.27-.96.37-.51.14-1.07.26-1.67.35-1.46.22-3.21.26-5.51.15-.06,0-.1,0-.16,0h-.02c-.39-.44-.72-1.26-.8-1.53-.94-3.03,1.38-5.09,4.3-5.78,2.92-.69,5.82.34,6.38,3.56Z" style="fill: url(#Gradient_96);"/>
            <path d="M91.28,79.19s-4.33-.3-10.63,2.06c0,0-.38-3.37,3.43-4.68,3.58-1.23,6.65.75,7.2,2.62Z" style="fill: url(#Gradient_96-2);"/>
            <path d="M85.84,76.94c1.8-.37,3.69.81,4.05,2.64.36,1.82-.94,3.6-2.73,3.97-1.8.37-3.56-.82-3.92-2.64-.36-1.82.8-3.6,2.6-3.97Z" style="fill: url(#Gradient_25);"/>
            <path d="M85.96,76.92c2.12-.44,3.36.98,3.82,2.25,0,0-3.57.17-6.6,1.3,0,0-.27-2.93,2.78-3.56Z"/>
            <path d="M83.08,82.89c-.45-.61-.3-1.52.33-2.01.64-.49,1.52-.39,1.98.22.46.62.31,1.52-.33,2.01-.64.5-1.52.39-1.98-.22Z" style="fill: #fff;"/>
            <path d="M86.2,80.68c-.36-.49-.24-1.19.26-1.58.5-.39,1.21-.31,1.57.18.36.48.24,1.19-.26,1.58-.51.39-1.21.31-1.57-.18Z" style="fill: #fff;"/>
            <path d="M93.43,80s-.06-2.58-3.38-4.2c-3.48-1.69-8.82-.84-11.63,1.58-1.69,1.45-2,3.89-2,3.89,0,0,3.52-3.41,7.76-3.84,2.35-.24,3.28-.17,4.37-.07,2.85.25,4.88,2.64,4.88,2.64Z" style="fill: url(#linear-gradient-28);"/>
          </g>
          <path d="M115.31,98.14s-4.76,6.19-5.12,6.34c-.36.14-11.34-3.55-11.34-3.55l.56-.19c1.48-.77,2.54-1.28,2.8-1.33.5-.1,3.52,1.35,6.34,1.52,3.53.19,5.52-3.1,5.7-3.44,0,0,.01,0,.03,0l1.03.66Z" style="fill: url(#Gradient_126);"/>
          <path d="M128.99,81.21c.02.06.02.12.03.17.44,9.53.23,11.18.04,14.96l-4.34,3.94-10.31-8.48-4.4-9.45,16.27-9.07c.2.24.84,1.74,1.44,3.42.6,1.65,1.17,3.49,1.27,4.52Z" style="fill: url(#radial-gradient-2);"/>
          <g>
            <path d="M106.19,99.46s-3.2-2.55-4.86-.54c-.97,1.19-2.31,1.03-2.31,1.03l9.55.91-2.38-1.4Z" style="fill: #dca57b;"/>
            <path d="M110.65,83.94s4,10.06,3.51,11.91c-.34,1.28-.07.36-.07.36,0,0-.78,2.13-3.49,2.87-1.01.28-3.1.58-4.42-.07-1.11-.55-2.49-.81-3.72-1.12-1.37-.35-2.07-3.57-2.2-4.55-.49-3.81-.46-5.56-.66-7.29,0,0-2.82,8.83-2.47,12.04.46,4.16,2.69,2.73,3.6,1.99,1.42-1.17,2.57-.91,3.77-.41,1.57.65,1.71,2.74,5.97,1.89,2.98-.59,4.27-3.11,4.27-3.11,0,0,2.29-.32,1.9-2.86-.55-3.66-6-11.64-6-11.64Z" style="fill: url(#linear-gradient-29);"/>
            <path d="M112.8,93.83c1.26,4.73-6.65,5.94-7.46.99-.62-3.77-.76-8.15,2.55-8.66,2.71-.42,4.34,5.57,4.9,7.68Z" style="fill: url(#linear-gradient-30);"/>
          </g>
          <g>
            <path d="M111.07,78.33c-.72-.87-.86-2.9-.73-4.22.43-4.14,2.44-5.8,6.99-6.64,1.49-.28,4.14-.24,6.03,1.53,1.45,1.36,2.38,2.79,2.45,4.2.03.71-.6,4.68-6.73,6.01-3.22.7-6.51.92-8-.88Z" style="fill: url(#linear-gradient-31);"/>
            <path d="M124.53,73.41c-.03.41-.13.83-.29,1.19-.2.53-.55.99-.95,1.42-2.04,2.08-6.16,2.96-9.11,2.19-1.12-.3-2.09-.82-2.69-1.62v-.02s.01-.01.01-.01c.11-1.11.37-2.04.76-2.81,0-.03.02-.05.03-.08.71-1.48,1.86-2.37,3.16-2.83t.03-.02c3.1-1.07,7.13.31,8.78,2.24.14.18.24.29.27.34Z" style="fill: url(#linear-gradient-32);"/>
            <path d="M124.53,73.41c-.03.41-.13.83-.29,1.19-.03,0-.06-.03-.1-.04-.59-.27-1.64-.6-3.5-.51-7.71.38-9.08,2.39-9.15,2.5.02-1.08.29-2.01.76-2.81,0-.03.02-.05.03-.08.15-.26.34-.52.54-.76.71-.89,1.64-1.55,2.63-2.07t.03-.02c.14-.06.29-.14.43-.21.94-.45,1.9-.75,2.72-.96,2.28-.57,4.8,2.36,5.63,3.41.14.18.24.29.27.34Z" style="fill: #ddd;"/>
            <path d="M123.29,75.41c0,.13,0,.37-.01.61-2.04,2.08-6.16,2.96-9.11,2.19-.34-.5-.6-1.14-.71-1.95-.04-.36-.06-.69-.05-1,0-.03,0-.06,0-.09.04-.44.11-.87.26-1.24,0-.01,0-.04.02-.06.19-.61.54-1.13.95-1.53.01,0,.03-.02.04-.03.83-.79,2-1.23,3.29-1.3,2.33-.12,4.56.86,5.16,3.19,0,.01.02.04.01.08.09.33.14.72.14,1.13Z" style="fill: url(#Gradient_96-3);"/>
            <path d="M113.42,75.3s3.66-1.5,9.73-1.1c0,0-.58-3.11-4.22-3.26-4.23-.17-5.44,2.27-5.51,4.36Z" style="fill: url(#Gradient_96-4);"/>
            <path d="M118.23,71.64c-1.72.16-3.1,1.74-2.92,3.47.17,1.73,1.83,2.96,3.55,2.79,1.72-.17,2.98-1.71,2.8-3.43-.17-1.73-1.71-2.99-3.43-2.83Z" style="fill: url(#Gradient_25-2);"/>
            <path d="M118.11,71.65c-2.03.19-2.75,1.8-2.82,3.06,0,0,3.26-.82,6.3-.65,0,0-.56-2.69-3.48-2.41Z"/>
            <path d="M117.98,76.44c.24-.67-.14-1.44-.85-1.71-.71-.26-1.48.07-1.72.74-.24.68.14,1.44.85,1.71.71.27,1.48-.07,1.72-.74Z" style="fill: #fff;"/>
            <path d="M120.49,74.62c.19-.53-.11-1.13-.67-1.34-.56-.21-1.17.05-1.36.59-.19.53.11,1.13.67,1.34.56.21,1.17-.05,1.36-.59Z" style="fill: #fff;"/>
            <path d="M111.49,76.57s-.62-2.4,1.5-4.74c2.23-2.46,6.84-2.91,9.61-1.4,1.67.9,1.93,2.99,1.93,2.99,0,0-1.82-2.19-5.44-1.73-1.88.24-3.75.82-4.55,1.2-2.11.97-3.05,3.69-3.05,3.69Z" style="fill: url(#linear-gradient-33);"/>
          </g>
          <path d="M128.99,81.21c-1.69.44-4.3.57-5.37.11-2.34-.95,2.14-3.44,4.1-4.63.6,1.65,1.17,3.49,1.27,4.52Z" style="fill: url(#linear-gradient-34);"/>
          <path d="M107.34,123.24s1.72-4.11,2.69-4.84c1.24-.93,4.13-1.45,5.05-.89.92.56,3.92,4.09,3.92,4.09,0,0-4.39-2.96-4.75-3.26-.37-.3-3.01.12-3.57.71-.56.59-3.34,4.2-3.34,4.2Z" style="fill: url(#Gradient_128-2);"/>
          <path d="M127.81,127l-1.15,3.32c-.91,2.68-1.89,4.92-2.97,6.29-.66.85-15.7,4.31-20.37,3.49-20.23-3.53-29.23-9.8-29.23-9.8,0,0,11.93,5.44,32.15,7.05,5.86.46,13.34-1.74,15.79-2.82,2.44-1.08,5.77-7.53,5.77-7.53Z" style="fill: url(#Gradient_128-3);"/>
          <g>
            <g>
              <path d="M95.95,115.32c3.17-3.87,4.7-7.58,7.86-8.69,1.95-.68,3.91-1.31,4.75-1.56.85-.25,4.12-1.13,4.86-1.14,1.78-.04,9.1,3.28,10.53,4.91,0,0-7.38-2.69-14.05-1.21-8.31,1.84-10.57,5.2-13.95,7.69Z" style="fill: url(#linear-gradient-35);"/>
              <path d="M101.45,112.97c-.77-.4,3.83-3.84,8.07-4.95,4.01-1.06,8.23-.04,8.68.31.93.7-4.39,1.21-7.36,2.06-2.89.83-7.86,3.39-9.39,2.58Z" style="fill: url(#linear-gradient-36);"/>
              <path d="M104.21,115.68s4.68-5.39,14.1-5.05c0,0-2.61.29-7.61,1.95-2.02.67-3.29,1.12-6.48,3.1Z" style="fill: url(#linear-gradient-37);"/>
              <path d="M106.41,114.38s1.93-1.68,4.39-2.39c2.38-.68,3.64-.64,4.41-.76,0,0-2.66.79-8.8,3.14Z" style="fill: url(#linear-gradient-38);"/>
              <path d="M108.68,105.4c-2.98.74-7.33,1.99-12.73,9.92,5.17-5.61,7.18-5.67,13.57-7.31,6.33-1.62,11.59-.75,13.5-.05-5.83-4.7-11.84-3.19-14.35-2.56Z" style="fill: url(#linear-gradient-39);"/>
            </g>
            <path d="M123.95,108.84s-6.25-6.45-10.94-5.52c-2.37.47-6.64,1.08-7.45,1.38-6.43,2.35-9.61,10.63-9.61,10.63,0,0,4.67-7.3,13.85-9.09,8.02-1.56,14.15,2.6,14.15,2.6Z" style="fill: url(#linear-gradient-40);"/>
          </g>
        </g>
        <g>
          <path d="M88.4,125.12s1.83,10.1,1.77,10.68c-.06.58,1.73,14.24,1.81,14.99s7.06,19.5,7.39,20.71c.33,1.22-9.44,21.11-9.81,21.81s32.02,7.43,32.02,7.43c0,0,3.64-11.44,4.3-11.96.66-.52,13.13-10.96,13.89-12.36.76-1.4,7.85-15.41,8.07-16.11.91-2.9-.58-7.26-4.02-8.81-2.08-.94,2.99-6.71-6.1-10.1-1.82-.68,4.51-9.58-5.83-9.78,0,0,3.77-5.43,3.81-6.36.1-2.36-.46-3.79-3.45-5.73-1.02-.66-3.27-.79-4.48.56-.53.6-9.79,11.98-9.79,11.98,0,0-9.85,11.34-13.33,13.75-3.48,2.41-3.62-14.79-4.57-17.25-.96-2.47-5.23-8.24-7.56-7.74-2.34.49-4.52,1.97-4.11,4.3Z" style="fill: #f7d4ab;"/>
          <path d="M103.28,161.11s12.33-26.04,15.68-25.98c3.34.06,7.15,7.33,7.6,7.38.45.05,5.69-2.65,7.32-1.52,1.63,1.13,1.63,6.97,1.63,6.97,0,0,4.56,1.51,4.89,2.73.33,1.22,1.57,6.82,1.57,6.82l1.06,6.33-19.06,20.67-20.69-23.4Z" style="fill: url(#linear-gradient-41);"/>
          <path d="M90.18,136.08s1.2,12.92,1.42,14.42c.22,1.5,7.77,20.99,7.77,20.99,0,0-2.32-21.38-2.65-21.86s-6.54-13.56-6.54-13.56Z" style="fill: url(#linear-gradient-42);"/>
          <path d="M88.64,123.98s1.04,5.17,2.05,5.83c.45.29,4.37-1.69,4.48-2.04.35-1.1-1.25-5.34-1.47-5.55-1.11-1.04-3.7-.31-5.06,1.76Z" style="fill: url(#linear-gradient-43);"/>
          <path d="M94.63,121.54s5.18,3.07,6.19,8.64c.8,4.4,2.1,12.02,2.28,12.41.19.39,1.95,1.43,1.95,1.43l17.23-17.24s-10.89,14.35-11.98,15.27c-1.09.92-8.01,9.58-9.39,8.92-1.38-.66-2.54-11.35-2.45-12.9.09-1.54-.44-9.15-.58-10-.34-2.06-3.25-6.54-3.25-6.54Z" style="fill: url(#linear-gradient-44);"/>
          <path d="M131.89,131.61s-5.45,5.48-4.29,6.05c1.16.57,5.82.58,6.59-.35.76-.91,1.53-2.93,1.53-2.93l-3.82-2.76Z" style="fill: url(#linear-gradient-45);"/>
          <path d="M137.54,141.26l-.5,6.55s2.22-.8,2.44-1.52c.23-.72.25-2.34.25-2.34l-2.19-2.7Z" style="fill: url(#linear-gradient-46);"/>
        </g>
        <path d="M146.63,162.83s-5.95,13.21-8,15.36c-2.05,2.15-12.81,11.16-12.81,11.16l-15,45.8,8.2-41.93s2.22-5.98,3.23-6.46c1.01-.49,11.78-9.55,13-10.68,1.23-1.13,11.39-13.25,11.39-13.25Z" style="fill: url(#linear-gradient-47);"/>
      </g>
    </g>
  </g>
</svg>