<?xml version="1.0" encoding="UTF-8"?>
<svg id="Layer_2" data-name="Layer 2" xmlns="http://www.w3.org/2000/svg" width="204.89" height="204.89" xmlns:xlink="http://www.w3.org/1999/xlink" viewBox="0 0 204.89 204.89">
  <defs>
    <clipPath id="clippath">
      <rect width="204.89" height="204.89" style="fill: none;"/>
    </clipPath>
    <linearGradient id="linear-gradient" x1="52.12" y1="113.13" x2="145.76" y2="255.01" gradientUnits="userSpaceOnUse">
      <stop offset="0" stop-color="#0b173d"/>
      <stop offset=".5" stop-color="#0c193f"/>
      <stop offset=".82" stop-color="#132248"/>
      <stop offset="1" stop-color="#192b51"/>
    </linearGradient>
    <linearGradient id="linear-gradient-2" x1="128.82" y1="173.29" x2="144.4" y2="177.66" gradientUnits="userSpaceOnUse">
      <stop offset="0" stop-color="#f0c499"/>
      <stop offset=".52" stop-color="#f4cfa5"/>
      <stop offset="1" stop-color="#f7d4ab"/>
    </linearGradient>
    <linearGradient id="linear-gradient-3" x1="78.55" y1="179.43" x2="143.77" y2="197.74" xlink:href="#linear-gradient-2"/>
    <linearGradient id="linear-gradient-4" x1="99.95" y1="216.81" x2="68.85" y2="175.14" gradientUnits="userSpaceOnUse">
      <stop offset="0" stop-color="#f0c499"/>
      <stop offset=".51" stop-color="#e3b086"/>
      <stop offset="1" stop-color="#dba379"/>
    </linearGradient>
    <linearGradient id="linear-gradient-5" x1="142.44" y1="179.03" x2="75.26" y2="153.7" xlink:href="#linear-gradient-4"/>
    <linearGradient id="linear-gradient-6" x1="101.84" y1="182.69" x2="104.37" y2="330.68" gradientUnits="userSpaceOnUse">
      <stop offset="0" stop-color="#2b416b"/>
      <stop offset=".46" stop-color="#293e68"/>
      <stop offset=".75" stop-color="#23375f"/>
      <stop offset="1" stop-color="#192b51"/>
    </linearGradient>
    <linearGradient id="linear-gradient-7" x1="146.81" y1="185.58" x2="74.6" y2="158.35" xlink:href="#linear-gradient-4"/>
    <linearGradient id="linear-gradient-8" x1="116.17" y1="362.81" x2="87.83" y2="211.52" xlink:href="#linear-gradient-6"/>
    <linearGradient id="linear-gradient-9" x1="70.65" y1="259.85" x2="71.49" y2="218.41" xlink:href="#linear-gradient-6"/>
    <linearGradient id="linear-gradient-10" x1="71.57" y1="301.66" x2="71.57" y2="178.45" xlink:href="#linear-gradient-6"/>
    <linearGradient id="linear-gradient-11" x1="77.92" y1="206.04" x2="76.89" y2="134.39" xlink:href="#linear-gradient"/>
    <linearGradient id="linear-gradient-12" x1="76.64" y1="339.7" x2="121.96" y2="186.76" xlink:href="#linear-gradient-6"/>
    <linearGradient id="linear-gradient-13" x1="131.54" y1="264.21" x2="132.42" y2="221.04" xlink:href="#linear-gradient-6"/>
    <linearGradient id="linear-gradient-14" x1="133.13" y1="312.99" x2="133.13" y2="175.72" xlink:href="#linear-gradient-6"/>
    <linearGradient id="linear-gradient-15" x1="126.41" y1="205.56" x2="125.52" y2="143.99" xlink:href="#linear-gradient"/>
    <linearGradient id="linear-gradient-16" x1="112.79" y1="224.24" x2="123.08" y2="241.56" xlink:href="#linear-gradient-6"/>
    <linearGradient id="linear-gradient-17" x1="146.48" y1="221.21" x2="157.28" y2="239.39" xlink:href="#linear-gradient-6"/>
    <linearGradient id="linear-gradient-18" x1="100.77" y1="196.88" x2="119.06" y2="196.88" gradientUnits="userSpaceOnUse">
      <stop offset="0" stop-color="#ffd9b3"/>
      <stop offset=".28" stop-color="#fbd6af"/>
      <stop offset="1" stop-color="#f7d4ab"/>
    </linearGradient>
    <linearGradient id="linear-gradient-19" x1="37.17" y1="-272.38" x2="36.19" y2="-220.56" gradientTransform="translate(50.99 316.97) rotate(3.42) scale(1 .96)" xlink:href="#linear-gradient-18"/>
    <linearGradient id="linear-gradient-20" x1="550.04" y1="674.43" x2="560.21" y2="699.1" gradientTransform="translate(705.44 -697.18) rotate(177.48) scale(.99 -1.14) skewX(3.14)" gradientUnits="userSpaceOnUse">
      <stop offset="0" stop-color="#dba379"/>
      <stop offset=".49" stop-color="#e3b086"/>
      <stop offset="1" stop-color="#f0c499"/>
    </linearGradient>
    <linearGradient id="linear-gradient-21" x1="1028.93" y1="658.73" x2="1038.95" y2="683.05" gradientTransform="translate(-982.45 -690.41) rotate(2) scale(.99 1.14) skewX(3.13)" xlink:href="#linear-gradient-20"/>
    <linearGradient id="linear-gradient-22" x1="47.67" y1="-196.15" x2="65.65" y2="-179.18" gradientTransform="translate(52.59 281.42) rotate(3.42)" xlink:href="#linear-gradient-2"/>
    <linearGradient id="linear-gradient-23" x1="19.71" y1="-193.63" x2="15.41" y2="-175.43" gradientTransform="translate(52.59 281.42) rotate(3.42)" xlink:href="#linear-gradient-2"/>
    <radialGradient id="radial-gradient" cx="329.99" cy="-258.76" fx="329.99" fy="-258.76" r="23.07" gradientTransform="translate(483.44 286.57) rotate(177.65) scale(1.02 -.71) skewX(-1.54)" gradientUnits="userSpaceOnUse">
      <stop offset="0" stop-color="#f8c39c"/>
      <stop offset="1" stop-color="#f7d4ab"/>
    </radialGradient>
    <radialGradient id="radial-gradient-2" cx="192.21" cy="-318.11" fx="192.21" fy="-318.11" r="23.66" gradientTransform="translate(-89.93 347.27) rotate(-3.81) scale(1.02 .69) skewX(2.86)" xlink:href="#radial-gradient"/>
    <linearGradient id="linear-gradient-24" x1="195.05" y1="164.05" x2="180.86" y2="168.95" gradientTransform="translate(-53.61 -54.9) rotate(-.26)" gradientUnits="userSpaceOnUse">
      <stop offset="0" stop-color="#fbd6af"/>
      <stop offset="1" stop-color="#f7d4ab"/>
    </linearGradient>
    <linearGradient id="linear-gradient-25" x1="131.07" y1="168.95" x2="110.01" y2="163.81" xlink:href="#linear-gradient-24"/>
    <linearGradient id="Gradient_58" data-name="Gradient 58" x1="-2850.52" y1="245.43" x2="-2825.02" y2="245.43" gradientTransform="translate(-2762.53 323.17) rotate(170.32) scale(1 -1)" gradientUnits="userSpaceOnUse">
      <stop offset="0" stop-color="#2b1b13"/>
      <stop offset=".04" stop-color="#2e1d14"/>
      <stop offset=".38" stop-color="#442b1d"/>
      <stop offset=".71" stop-color="#513423"/>
      <stop offset="1" stop-color="#563725"/>
    </linearGradient>
    <linearGradient id="Gradient_58-2" data-name="Gradient 58" x1="-1825.61" y1="70.56" x2="-1800.12" y2="70.56" gradientTransform="translate(1928.05 323.17) rotate(9.68)" xlink:href="#Gradient_58"/>
    <linearGradient id="linear-gradient-26" x1="193.51" y1="164.51" x2="166.34" y2="187.73" gradientTransform="translate(-51.17 -79.35) rotate(1.21)" xlink:href="#linear-gradient-4"/>
    <linearGradient id="linear-gradient-27" x1="185.9" y1="136.53" x2="160.62" y2="130.43" gradientTransform="translate(-44.57 -31)" gradientUnits="userSpaceOnUse">
      <stop offset="0" stop-color="#ece7e7"/>
      <stop offset=".23" stop-color="#f5f3f3"/>
      <stop offset=".53" stop-color="#fcfcfc"/>
      <stop offset="1" stop-color="#fff"/>
    </linearGradient>
    <linearGradient id="Gradient_96" data-name="Gradient 96" x1="189.14" y1="151.14" x2="165.14" y2="129.36" gradientTransform="translate(-44.57 -31)" gradientUnits="userSpaceOnUse">
      <stop offset="0" stop-color="#a8c3dd"/>
      <stop offset="1" stop-color="#7a90a5"/>
    </linearGradient>
    <linearGradient id="Gradient_96-2" data-name="Gradient 96" x1="63.2" y1="-171.58" x2="62.4" y2="-178.99" gradientTransform="translate(52.59 281.42) rotate(3.42)" xlink:href="#Gradient_96"/>
    <radialGradient id="Gradient_25" data-name="Gradient 25" cx="-927.21" cy="157.96" fx="-927.21" fy="157.96" r="4.03" gradientTransform="translate(1064.59 -35.16) rotate(1.3) skewX(.07)" gradientUnits="userSpaceOnUse">
      <stop offset="0" stop-color="#666"/>
      <stop offset="1" stop-color="#1d1d1d"/>
    </radialGradient>
    <linearGradient id="linear-gradient-28" x1="99.17" y1="169.69" x2="119.42" y2="168.73" gradientTransform="translate(18.7 -72.82) rotate(1.2)" gradientUnits="userSpaceOnUse">
      <stop offset="0" stop-color="#2b1b13"/>
      <stop offset=".04" stop-color="#2e1d14"/>
      <stop offset=".38" stop-color="#442b1d"/>
      <stop offset=".71" stop-color="#513423"/>
      <stop offset="1" stop-color="#563725"/>
    </linearGradient>
    <linearGradient id="linear-gradient-29" x1="46.75" y1="-76.89" x2="44.36" y2="-108.01" gradientTransform="translate(52.59 281.42) rotate(3.42)" gradientUnits="userSpaceOnUse">
      <stop offset="0" stop-color="#f7d4ab"/>
      <stop offset=".45" stop-color="#f3caa0"/>
      <stop offset="1" stop-color="#f0c499"/>
    </linearGradient>
    <linearGradient id="linear-gradient-30" x1="-2317.48" y1="217.99" x2="-2344.45" y2="241.05" gradientTransform="translate(-2254.73 -79.64) rotate(178.8) scale(1 -1)" xlink:href="#linear-gradient-4"/>
    <linearGradient id="linear-gradient-31" x1="142.06" y1="136.31" x2="116.09" y2="130.04" xlink:href="#linear-gradient-27"/>
    <linearGradient id="Gradient_96-3" data-name="Gradient 96" x1="144.8" y1="151.47" x2="120.71" y2="129.61" xlink:href="#Gradient_96"/>
    <linearGradient id="Gradient_96-4" data-name="Gradient 96" x1="18.7" y1="-166.74" x2="17.9" y2="-174.15" gradientTransform="translate(52.59 281.42) rotate(3.42)" xlink:href="#Gradient_96"/>
    <radialGradient id="Gradient_25-2" data-name="Gradient 25" cx="-3658.7" cy="220.59" fx="-3658.7" fy="220.59" r="4.03" gradientTransform="translate(-3584.08 -35.63) rotate(178.7) scale(1 -1) skewX(.09)" xlink:href="#Gradient_25"/>
    <linearGradient id="linear-gradient-32" x1="-2411.67" y1="222.33" x2="-2391.6" y2="221.37" gradientTransform="translate(-2324.61 -73.12) rotate(178.81) scale(1 -1)" xlink:href="#linear-gradient-28"/>
    <linearGradient id="Gradient_32" data-name="Gradient 32" x1="44.23" y1="-262.88" x2="27.14" y2="-112" gradientTransform="translate(52.59 281.42) rotate(3.42)" gradientUnits="userSpaceOnUse">
      <stop offset="0" stop-color="#724831"/>
      <stop offset=".22" stop-color="#67412c"/>
      <stop offset=".63" stop-color="#5a3926"/>
      <stop offset="1" stop-color="#563725"/>
    </linearGradient>
    <linearGradient id="Gradient_32-2" data-name="Gradient 32" x1="-7.12" y1="-224.26" x2="-17.87" y2="-129.33" xlink:href="#Gradient_32"/>
    <linearGradient id="linear-gradient-33" x1="45.08" y1="-177.39" x2="44.67" y2="-182.65" gradientTransform="translate(48.37 351.36) rotate(3.42) scale(1 .93)" xlink:href="#linear-gradient-29"/>
    <linearGradient id="linear-gradient-34" x1="153.37" y1="102.14" x2="124.12" y2="105.87" gradientTransform="translate(-51.15 38) rotate(-.38)" gradientUnits="userSpaceOnUse">
      <stop offset="0" stop-color="#f7d4ab"/>
      <stop offset=".52" stop-color="#f5d1a8"/>
      <stop offset=".85" stop-color="#f2c99f"/>
      <stop offset="1" stop-color="#f0c499"/>
    </linearGradient>
    <linearGradient id="linear-gradient-35" x1="155.12" y1="99.31" x2="176.3" y2="107.06" xlink:href="#linear-gradient-34"/>
    <linearGradient id="Gradient_115" data-name="Gradient 115" x1="102.92" y1="117.24" x2="108.24" y2="211.63" gradientUnits="userSpaceOnUse">
      <stop offset="0" stop-color="#d6ac88"/>
      <stop offset="1" stop-color="#a18166"/>
    </linearGradient>
    <linearGradient id="Gradient_115-2" data-name="Gradient 115" x1="99.57" y1="116.75" x2="105.07" y2="214.15" xlink:href="#Gradient_115"/>
    <linearGradient id="Gradient_27" data-name="Gradient 27" x1="103.81" y1="61.34" x2="116.19" y2="20.59" gradientUnits="userSpaceOnUse">
      <stop offset="0" stop-color="#724831"/>
      <stop offset=".42" stop-color="#7f553b"/>
      <stop offset="1" stop-color="#8e6346"/>
    </linearGradient>
    <linearGradient id="Gradient_27-2" data-name="Gradient 27" x1="86.93" y1="56.21" x2="99.31" y2="15.46" xlink:href="#Gradient_27"/>
    <linearGradient id="Gradient_27-3" data-name="Gradient 27" x1="73.68" y1="52.52" x2="86.36" y2="10.82" xlink:href="#Gradient_27"/>
    <linearGradient id="Gradient_27-4" data-name="Gradient 27" x1="64.99" y1="48.04" x2="77.37" y2="7.29" xlink:href="#Gradient_27"/>
    <linearGradient id="Gradient_27-5" data-name="Gradient 27" x1="119.14" y1="66" x2="131.52" y2="25.25" xlink:href="#Gradient_27"/>
    <linearGradient id="Gradient_27-6" data-name="Gradient 27" x1="132.64" y1="70.1" x2="145.02" y2="29.35" xlink:href="#Gradient_27"/>
    <linearGradient id="Gradient_27-7" data-name="Gradient 27" x1="55.31" y1="46.6" x2="67.69" y2="5.85" xlink:href="#Gradient_27"/>
    <linearGradient id="Gradient_27-8" data-name="Gradient 27" x1="-19.72" y1="-214.93" x2="-10.37" y2="-213.7" gradientTransform="translate(52.59 281.42) rotate(3.42)" xlink:href="#Gradient_27"/>
    <linearGradient id="Gradient_27-9" data-name="Gradient 27" x1="145.02" y1="74.05" x2="158.14" y2="30.87" xlink:href="#Gradient_27"/>
    <linearGradient id="Gradient_58-3" data-name="Gradient 58" x1="-2.28" y1="-125.57" x2="91.17" y2="-292.98" gradientTransform="translate(52.59 281.42) rotate(3.42)" xlink:href="#Gradient_58"/>
    <linearGradient id="Gradient_115-3" data-name="Gradient 115" x1="47.85" y1="-155.35" x2="47.02" y2="-166.1" gradientTransform="translate(48.37 351.36) rotate(3.42) scale(1 .93)" xlink:href="#Gradient_115"/>
    <linearGradient id="Gradient_115-4" data-name="Gradient 115" x1="27.4" y1="-126.12" x2="26.19" y2="-131.27" gradientTransform="translate(52.59 281.42) rotate(3.42)" xlink:href="#Gradient_115"/>
    <linearGradient id="Gradient_115-5" data-name="Gradient 115" x1="64.31" y1="-123.74" x2="62.83" y2="-130.01" gradientTransform="translate(52.59 281.42) rotate(3.42)" xlink:href="#Gradient_115"/>
    <linearGradient id="Gradient_113" data-name="Gradient 113" x1="42.44" y1="-164.74" x2="41.24" y2="-148.46" gradientTransform="translate(52.59 281.42) rotate(3.42)" gradientUnits="userSpaceOnUse">
      <stop offset="0" stop-color="#a18166"/>
      <stop offset="1" stop-color="#d6ac88"/>
    </linearGradient>
    <linearGradient id="linear-gradient-36" x1="150.24" y1="55.33" x2="152.03" y2="103.57" xlink:href="#linear-gradient-34"/>
    <linearGradient id="linear-gradient-37" x1="231.32" y1="395.36" x2="231.17" y2="385.93" gradientTransform="translate(-115.03 -228.8) rotate(2)" gradientUnits="userSpaceOnUse">
      <stop offset="0" stop-color="#f0c499"/>
      <stop offset=".52" stop-color="#f1c69b"/>
      <stop offset=".85" stop-color="#f4cea4"/>
      <stop offset="1" stop-color="#f7d4ab"/>
    </linearGradient>
    <linearGradient id="linear-gradient-38" x1="148.38" y1="166.82" x2="148.61" y2="160.11" gradientTransform="translate(-50.49 11.02) rotate(-1.58)" xlink:href="#linear-gradient-20"/>
    <linearGradient id="linear-gradient-39" x1="240.76" y1="459.92" x2="229.62" y2="420.36" gradientTransform="translate(-144.72 -290.29) rotate(-1.51)" xlink:href="#linear-gradient-20"/>
    <linearGradient id="linear-gradient-40" x1="151.77" y1="99.97" x2="152.67" y2="108.52" gradientTransform="translate(-51.15 38) rotate(-.38)" gradientUnits="userSpaceOnUse">
      <stop offset="0" stop-color="#e8d8d7"/>
      <stop offset=".57" stop-color="#f4eceb"/>
      <stop offset="1" stop-color="#fff"/>
    </linearGradient>
    <linearGradient id="linear-gradient-41" x1="152.12" y1="100.14" x2="152.32" y2="115.64" xlink:href="#linear-gradient-40"/>
    <linearGradient id="Gradient_15" data-name="Gradient 15" x1="125.88" y1="79.72" x2="125.53" y2="58.54" gradientTransform="translate(-23.55 85.85) rotate(.04) scale(1 .98) skewX(-.29)" gradientUnits="userSpaceOnUse">
      <stop offset="0" stop-color="#e56a81"/>
      <stop offset=".34" stop-color="#e2687f"/>
      <stop offset=".51" stop-color="#db6378"/>
      <stop offset=".65" stop-color="#cd5a6e"/>
      <stop offset=".76" stop-color="#bb4e5e"/>
      <stop offset=".86" stop-color="#a33e4a"/>
      <stop offset=".95" stop-color="#852b32"/>
      <stop offset="1" stop-color="#711e22"/>
    </linearGradient>
    <linearGradient id="Gradient_15-2" data-name="Gradient 15" x1="126.68" y1="76.15" x2="126.42" y2="59.87" gradientTransform="translate(-24.35 87.59) rotate(.19)" xlink:href="#Gradient_15"/>
    <linearGradient id="linear-gradient-42" x1="154.21" y1="137.51" x2="152.5" y2="119.48" xlink:href="#linear-gradient-40"/>
    <linearGradient id="linear-gradient-43" x1="152.68" y1="121.95" x2="152.82" y2="130.93" xlink:href="#linear-gradient-40"/>
    <linearGradient id="Gradient_115-6" data-name="Gradient 115" x1="44.67" y1="-185.89" x2="44.11" y2="-188.27" gradientTransform="translate(48.37 351.36) rotate(3.42) scale(1 .93)" xlink:href="#Gradient_115"/>
    <linearGradient id="linear-gradient-44" x1="206.43" y1="330.42" x2="207.13" y2="354.81" gradientTransform="translate(-118.08 -226.82) rotate(-2.17)" xlink:href="#linear-gradient-34"/>
    <linearGradient id="linear-gradient-45" x1="206.85" y1="962.43" x2="208.36" y2="951.29" gradientTransform="translate(-166.72 -1504.22) rotate(-2.16) scale(1 1.7) skewX(.04)" xlink:href="#linear-gradient-18"/>
  </defs>
  <g id="Layer_1-2" data-name="Layer 1">
    <g style="clip-path: url(#clippath);">
      <g>
        <path d="M70.72,169.78s25.47-18.7,63.1-2.44c0,0,17.81,22.47.85,38.81-16.96,16.34-59.9,14.8-66.11,1.41-6.2-13.39-2.78-34.93,2.16-37.78Z" style="fill: url(#linear-gradient);"/>
        <path d="M134.56,187.13l6.66-8.51s-7.23-2.17-10.07-16.92c-.12.11-.24.22-.36.33-.87,8.81.71,17.24,3.77,25.09Z" style="fill: url(#linear-gradient-2);"/>
        <path d="M130.79,162.04c-11.43,10.5-17.98,20.08-32.69,19.16-5.69,0-15.91-2.49-23.03-7.19,5.96,11.97,17.22,21.08,26.44,29.14,3.8,3.8,5.36,10.31,7.33,16.85l25.73-32.86c-3.06-7.85-4.64-16.28-3.77-25.09Z" style="fill: url(#linear-gradient-3);"/>
        <path d="M84.21,179.23c-.75-.5-10.62-6.24-11.3-6.78-1.21,2.84-2.69,5.81-4.52,8.9l31.5,51.88,8.94-13.23c-1.96-6.54-3.52-13.04-7.33-16.85-9.22-8.06-11.33-11.94-17.29-23.91Z" style="fill: url(#linear-gradient-4);"/>
        <path d="M131.15,161.7c-.53-2.76-.91-5.96-1.06-9.66l-58.14-14.7s3.12,16.83.97,35.1c7.04,5.71,19.74,11.05,26.03,11.05,14.87.93,23.74-3.63,32.21-21.8Z" style="fill: url(#linear-gradient-5);"/>
        <path d="M223.55,221.4c-15.56-5.75-74.21-32.38-74.21-32.38l-47.79,44.91-40.82-44.91S-7.91,216.66-18.54,221.4l28.4,84.45-.06,4.45h186.72l27.03-88.9Z" style="fill: #192b51;"/>
        <path d="M-18.54,221.4s34.61,62.94,44.87,69.91c10.05,6.83,149.97,11.02,163.56-4.36l33.66-65.55-75.82-40.06-25.55,19.4-22.29,32.48-39.06-50.54-79.37,38.72Z" style="fill: url(#linear-gradient-6);"/>
        <path d="M133.59,169.83c-1.7-4.48-3.09-13.6-3.23-17.31l-58.2-14.71s4.77,22.94.97,35.14c9.13,15.77,19.99,20.51,26.28,20.51,14.88.93,25.72-5.44,34.19-23.63Z" style="fill: url(#linear-gradient-7);"/>
        <g>
          <path d="M87.13,202.17s6.83,6.28,8.09,7.39c1.21,1.06,4.95,18.55,4.95,18.55l-2.15,36.69-19.64-54.48,8.75-8.14Z" style="fill: url(#linear-gradient-8);"/>
          <path d="M56.76,190.27c0,4.09,7.23,33.57,7.7,35.15,0,0,8.93-7.71,14.93-12.5l7.74-10.75s-30.37-15.99-30.37-11.9Z" style="fill: url(#linear-gradient-9);"/>
          <path d="M72.22,168.81s-4.95,6.31-2.42,14.92c2.37,8.05,17.32,18.44,17.32,18.44,0,0-17.89,14.96-21.35,18.33-2.42-8.47-11.57-31.91-9.46-35.24,4.05-6.4,9.85-13.15,15.91-16.46Z" style="fill: url(#linear-gradient-10);"/>
          <path d="M72.22,168.81s-6.34,8.26,1.06,19.17c5.29,7.81,13.85,14.19,13.85,14.19,0,0-11.6-8.15-14.62-11.87-9.34-11.48-.28-21.5-.28-21.5Z" style="fill: url(#linear-gradient-11);"/>
          <path d="M115.66,201.87c-2.29,1.5-5.28,3.58-9,6.48-1.57,1.22-7.59,21.77-7.07,26.47.07.62.11,1.55.12,2.66,5.63-1.64,12.14-2.05,17.9-3.27.69-6.2.88-12.67,1.49-18.46.04-.37.33-5.32.33-5.32.38-3.66.16-3.46.33-5.85-2.01-.16-3.45-1.22-4.1-2.71Z" style="fill: url(#linear-gradient-12);"/>
          <path d="M115.66,201.87l3.77,8.56c4.24,3.31,17.16,11.62,23.79,14.99.81.41,5.84-30.09,7.04-38.56l-34.61,15.01Z" style="fill: url(#linear-gradient-13);"/>
          <path d="M115.66,201.87s24.1,16.27,27.17,19.59c2.69-10.61,7.76-30.97,7.76-37.04,0-3.19-13.63-15.47-16.77-17.07,0,0,1.77,5.23.87,10.31-3.22,18.22-19.03,24.21-19.03,24.21Z" style="fill: url(#linear-gradient-14);"/>
          <path d="M115.66,201.87s23.66-11.19,18.16-34.52c0,0,13.59,22.67-18.16,34.52Z" style="fill: url(#linear-gradient-15);"/>
          <path d="M115.66,201.87s-6.61,4.6-9.72,6.19c-3.11,1.6-5.9,21.93-5.9,21.93,0,0,5.63-17.71,6.65-19.36,1.02-1.65,8.97-8.76,8.97-8.76Z" style="fill: url(#linear-gradient-16);"/>
        </g>
        <path d="M128.11,210.42l14.73,11.03,4.57-18.83s-4.43,12.8-5.5,13.13c-1.07.33-13.8-5.33-13.8-5.33Z" style="fill: url(#linear-gradient-17);"/>
        <path d="M100.77,195.18s12.64.1,17.41-1.51c4.77-1.61-11.19,6.49-12.68,6.63-1.49.14-4.73-5.12-4.73-5.12Z" style="fill: url(#linear-gradient-18);"/>
        <g>
          <path d="M58.87,100.72s3.46,47.06,4.77,49.03c1.31,1.97,21.15,21.82,23.71,24s29.47,5.15,29.47,5.15c0,0,22.03-24.35,23.96-27.56,1.94-3.21,5.24-51.38,5.24-51.38,0,0,5.86-37.83-3.19-50.81-9.05-12.98-70.71-17.17-80.94.87-10.23,18.04-3.02,50.69-3.02,50.69Z" style="fill: url(#linear-gradient-19);"/>
          <g>
            <path d="M153.83,96.05c9.64-.7,3.36,14.43,3.36,14.43-3.74,19.6-2.13,22.97-10.7,22.24-6.34-.54.45-36.17,7.34-36.67Z" style="fill: #f0c499;"/>
            <path d="M148.07,124.23s3.05-3.43,2.9-10.77c-.37-17.31,8.74-17.63,5.6-6.14,0,0-.73-5.63-2.02-4.09-1.59,1.89,1.2,3.28-1.1,11.98-1.2,4.52-5.37,9.01-5.37,9.01Z" style="fill: url(#linear-gradient-20);"/>
          </g>
          <g>
            <path d="M51.65,96.32c-9.64-.39-3.52,14.54-3.52,14.54,3.52,19.48,3,22.38,10.46,21.89,8.38-.55-.05-36.16-6.94-36.44Z" style="fill: #f0c499;"/>
            <path d="M57.09,124.32s-3.02-3.33-2.78-10.67c.56-17.33-8.55-17.34-5.53-5.95,0,0,.79-5.65,2.07-4.16,1.57,1.84-1.24,3.32.97,11.95,1.15,4.48,5.27,8.84,5.27,8.84Z" style="fill: url(#linear-gradient-21);"/>
          </g>
          <path d="M113.62,87.14s-4.8,10.18-4.66,11.05c.14.87,1.26,11.38,1.26,11.38,0,0,25.38-.8,28.7-1.84,3.31-1.04,2.4-6.99,2.4-6.99l-3.78-7.81s-5.62-5.34-6.36-4.85c-.74.49-17.56-.94-17.56-.94Z" style="fill: url(#linear-gradient-22);"/>
          <path d="M91.17,87.14s4.1,9.77,3.99,10.65c-.11.88-.45,11.55-.45,11.55,0,0-25.4.15-28.75-.76-3.35-.91-2.34-8.44-2.34-8.44l3.79-6.63s4.21-4.34,5.54-4.86c.83-.32,18.21-1.52,18.21-1.52Z" style="fill: url(#linear-gradient-23);"/>
          <path d="M127.79,132.68c8.2.5,17.36-.56,19-17.24.94-9.5-.12-14.45-4.18-15.18-8.61-1.54-20.93,2.21-26.06,4.86-10.83,5.6-3.29,26.65,11.24,27.55Z" style="fill: url(#radial-gradient);"/>
          <path d="M86.73,103.86c-2.35-.83-20.21-4.74-25.51-3.19-3.03.88-1.73,7.57-1.19,13.92.26,3.05.24,7.93.95,9.84,3.48,9.38,16.57,9.74,24.11,7.08,12.88-4.53,13.55-23.44,1.65-27.65Z" style="fill: url(#radial-gradient-2);"/>
          <path d="M141.77,106.78c-1.48-.81-2.58.38-5.64,1.38-3.01.99-11.24,2.55-7.36,4.59,4.29,2.26,10.25-.89,10.97-1.48.72-.59,3.86-3.5,2.03-4.5Z" style="fill: url(#linear-gradient-24);"/>
          <path d="M68.97,109.08c-3.12-.82-4.29-1.94-5.72-1.05-1.76,1.11,1.54,3.82,2.3,4.37.75.55,6.9,3.34,11.04.83,3.75-2.27-4.56-3.34-7.62-4.15Z" style="fill: url(#linear-gradient-25);"/>
          <path d="M68.76,87.84c1.6-3.81,9.64-4.62,13.54-5.2,2.21-.33,5.33-.79,7.46-.4.45,1.19.63,2.07.49,3.59.77-.92.73-2.37.36-3.32.06.02,1.9,1.94.97,4.67-.44,1.3-4.1.9-12.22,2.08-2.21.32-6.01.65-8.87,2.16-1.04.55-3.08,2.11-3.08,2.11-.3-.36.58-3.87,1.34-5.68Z" style="fill: url(#Gradient_58);"/>
          <path d="M136.54,87.84c-1.6-3.81-9.64-4.62-13.54-5.2-2.21-.33-5.33-.79-7.46-.4-.45,1.19-.63,2.07-.49,3.59-.77-.92-.73-2.37-.36-3.32-.06.02-1.9,1.94-.97,4.67.44,1.3,4.1.9,12.22,2.08,2.21.32,6.01.65,8.87,2.16,1.04.55,3.08,2.11,3.08,2.11.3-.36-.58-3.87-1.34-5.68Z" style="fill: url(#Gradient_58-2);"/>
          <g>
            <path d="M112.15,104.96c-.99-1.25.04-3.84.61-5.47,1.79-5.1,5.55-7.42,13.58-7.59,2.64-.06,7.31,1.13,10.11,3.7,2.16,1.98,3.39,3.95,3.15,5.72-.12.9-5,5.5-13.76,5.77-5.73.18-12.13-.15-13.7-2.13Z" style="fill: url(#linear-gradient-26);"/>
            <path d="M135.46,101.27c-.22.59-.54,1.11-.94,1.58-.62.75-1.41,1.35-2.3,1.83-.33.15-.68.25-1.05.33-.05.02-.1.02-.14.03-.59.13-1.14.26-1.67.36-2.78.55-4.92.82-6.74.82-.74,0-1.43-.05-2.08-.13-.32-.03-.63-.1-.94-.18-2.66-.62-4.66-2.37-5.04-3.08,0,0,0-.02.02-.03v-.02c.14-.33,1.17-2.55,2.82-4.31,1.03-1.09,2.32-2.01,3.79-2.17.48-.05.94-.1,1.4-.11,8.31-.34,12.47,4.59,12.84,5.06.02.02.02.03.02.03Z" style="fill: url(#linear-gradient-27);"/>
            <path d="M135.43,101.23s.02.03.02.03c-.23.59-.55,1.12-.94,1.59-.1-.06-.22-.13-.35-.2-.84-.45-2.35-1.06-5.19-1.3-11.73-.97-14.26,1.29-14.39,1.42,0,0,0,0,0,0,.36-1.86,1.42-3.26,2.83-4.31,1.48-1.1,3.33-1.82,5.18-2.28,1.52-.38,3.04-.59,4.33-.69,4.15-.32,8.16,5.23,8.51,5.74Z" style="fill: #ddd;"/>
            <path d="M131.9,103.31c-.06.34-.23,1.27-.44,1.63-.13.08-.58.26-.76.34-.59.13-1.22.32-1.74.42-2.78.55-4.51.51-6.33.51-.74,0-1.43-.05-2.08-.13-.32-.03-.63-.1-.94-.18-.57-.75-1.11-1.84-1.08-3.35.09-3.97,3.42-5.73,7.1-5.43,3.66.31,6.85,2.37,6.26,6.19Z" style="fill: url(#Gradient_96);"/>
            <path d="M118.67,101.37s5.2-1.14,13.28.56c0,0-.15-4.12-5.01-5.01-4.57-.83-7.93,2.1-8.26,4.45Z" style="fill: url(#Gradient_96-2);"/>
            <path d="M125.6,97.67c-2.25-.12-4.33,1.64-4.44,3.9-.11,2.26,1.79,4.16,4.04,4.28,2.25.12,4.17-1.62,4.28-3.88.11-2.26-1.63-4.19-3.88-4.3Z" style="fill: url(#Gradient_25);"/>
            <path d="M125.45,97.67c-2.66-.15-3.89,1.78-4.23,3.39,0,0,4.36-.43,8.25.38,0,0-.21-3.57-4.02-3.78Z"/>
            <path d="M131.03,104.37c.44-.82.09-1.88-.77-2.36-.86-.48-1.92-.2-2.36.63-.44.83-.1,1.88.77,2.36.86.48,1.92.2,2.36-.63Z" style="fill: #fff;"/>
            <path d="M126.92,102.18c.35-.65.08-1.48-.6-1.85-.68-.37-1.52-.16-1.87.49-.35.65-.08,1.48.6,1.85.68.38,1.52.16,1.87-.49Z" style="fill: #fff;"/>
            <path d="M114.58,102.8s-.05-3.49,3.69-6.03c3.92-2.66,10.18-2.69,14.02-.29,2.31,1.44,3.17,4.79,3.17,4.79,0,0-4.59-4.38-9.82-4.14-2.9.13-3.78.55-5.09.87-3.41.82-5.98,4.81-5.98,4.81Z" style="fill: url(#linear-gradient-28);"/>
          </g>
          <path d="M71.07,54.18c1.7-.82,26.68,2.72,30.59,1.83,3.91-.89,24.96-4.71,29.04-2.44,4.08,2.27,6.97,6.82,7.37,9.33.4,2.51-.25,14.92,0,16.93.24,2.02,3.78,4.54,4.79,16.24,1.01,11.7.47,22.81-.15,27.67s-5.1,20.99-5.1,20.99l3.14.05s5.85-26.42,6.03-29.34c.18-2.92,2.36-38.5,2.36-38.5l-11.7-34.64-68.62-3.29-14.84,33.2,3.83,40.09,1.86,5.4,5.83,26.11s-2.25-30.28-2.95-31.75c-.71-1.47-.71-14.76-.47-17.24.66-6.77,4.02-13.35,4.45-15.15s-1.69-14.58-1.26-16.38c.43-1.8,5.8-9.11,5.8-9.11Z" style="fill: url(#linear-gradient-29);"/>
          <g>
            <path d="M93.31,105.29c1.04-1.2-.04-3.84-.61-5.47-1.77-5.1-5.45-7.3-13.41-7.47-2.61-.06-7.29,1.01-10.07,3.58-2.14,1.98-3.36,3.95-3.13,5.72.12.9,4.4,5.3,13.09,5.57,5.68.18,12.52-.08,14.13-1.93Z" style="fill: url(#linear-gradient-30);"/>
            <path d="M90.92,103.14c-.36.7-2.23,2.33-4.7,3-.39.11-.8.21-1.23.26-.64.08-1.34.13-2.07.13-1.79,0-3.91-.26-6.66-.82-.35-.07-.69-.15-1.05-.21-.25-.07-.5-.11-.76-.16-.36-.08-.69-.2-1.02-.33-.88-.47-1.67-1.09-2.28-1.84-.39-.46-.71-1-.93-1.58,0,0,0-.02.02-.03.38-.46,4.5-5.39,12.73-5.06.44.03.91.07,1.38.11,1.46.16,2.72,1.08,3.76,2.17,1.63,1.76,2.66,3.98,2.8,4.31v.02s.02.03.02.03Z" style="fill: url(#linear-gradient-31);"/>
            <path d="M70.24,101.55s-.02.04-.02.04c.23.59.54,1.12.93,1.59.1-.06.22-.13.35-.2.83-.45,2.33-1.06,5.15-1.3,11.62-.97,14.13,1.3,14.26,1.42,0,0,0,0,0,0-.36-1.86-1.41-3.26-2.8-4.32-1.46-1.1-3.3-1.82-5.14-2.29-1.51-.38-3.01-.59-4.29-.69-4.11-.32-8.08,5.23-8.44,5.74Z" style="fill: #ddd;"/>
            <path d="M87.23,102.88c.03,1.45-.47,2.53-1.01,3.26-.39.11-.8.21-1.23.26-.64.08-1.34.13-2.07.13-1.79,0-3.53.13-6.25-.51-.34-.08-1.03-.35-1.39-.42-.33-.11-.59-.13-.79-.26-.21-.38-.46-1.38-.51-1.72-.58-3.82,2.58-5.88,6.21-6.17,3.65-.31,6.95,1.45,7.04,5.42Z" style="fill: url(#Gradient_96-3);"/>
            <path d="M87.09,101.69s-5.16-1.14-13.16.56c0,0,.15-4.12,4.97-5.01,4.53-.83,7.86,2.1,8.19,4.45Z" style="fill: url(#Gradient_96-4);"/>
            <path d="M80.23,98c2.23-.12,4.29,1.64,4.4,3.9.11,2.26-1.77,4.16-4,4.28-2.23.12-4.13-1.62-4.24-3.88-.11-2.26,1.61-4.19,3.84-4.3Z" style="fill: url(#Gradient_25-2);"/>
            <path d="M80.37,97.99c2.63-.14,3.86,1.78,4.19,3.4,0,0-4.32-.43-8.17.38,0,0,.21-3.57,3.98-3.78Z"/>
            <path d="M82.18,105.16c-.43-.82-.09-1.88.76-2.36.86-.48,1.9-.2,2.34.63.44.83.09,1.88-.76,2.36-.85.48-1.9.2-2.34-.63Z" style="fill: #fff;"/>
            <path d="M79.34,102.77c-.35-.65-.08-1.48.6-1.85.68-.37,1.51-.16,1.85.49.35.65.08,1.48-.6,1.85-.68.38-1.51.16-1.85-.49Z" style="fill: #fff;"/>
            <path d="M90.91,103.12s.33-3.48-3.37-6.03c-3.89-2.66-10.02-2.65-13.83-.25-2.29,1.44-3.49,4.74-3.49,4.74,0,0,5.08-4.17,10.26-3.92,2.87.13,3.74.36,5,.79,3.34,1.13,5.43,4.67,5.43,4.67Z" style="fill: url(#linear-gradient-32);"/>
          </g>
          <path d="M63.05,55.24s6.7-9.74,23.64-7.08c11.27,1.77,11.74,1.64,15.52,2.48,3.78.84,21.91-6.14,29.88-3.02,7.96,3.12,8.75,12.32,8.81,16.85.06,4.53-.91,15.21.2,15.92,1.1.71,5.09,5.19,4.73,11.39-.36,6.2.96,23.66.96,23.66,0,0,1.29-18.88,7.7-19.42l.4-13s2.57-8.92,2.78-12.62c.41-6.96-1.56-12.88-1.68-14.05-.29-3-5.4-8.18-6.29-9.18,0,0,3.25-6.98-5.66-11.85,0,0-1.8-14.6-17.6-17.91-15.79-3.31-29.06-2.41-33.93-.7,0,0-17.42-4.46-26,6.95,0,0-11,4.37-12.12,15.2-1.12,10.83,2.58,15.22,3.18,15.07l5.46,1.31Z" style="fill: url(#Gradient_32);"/>
          <path d="M64.75,53.94s-5.46,7.02-3.67,21.04c0,0-2.74,7.69-2.75,12.8,0,5.1,1.51,24.79,1.51,24.79,0,0-3.34-16.73-9.63-16.17,0,0-1.22-11.54-1.54-12.28,0,0-4.89-9.15-1.45-19.87,1.99-6.19,10.38-10.3,10.38-10.3h7.16Z" style="fill: url(#Gradient_32-2);"/>
          <path d="M81.04,162.84s5.29,8.8,11.72,10.99c1.93.66,10-1.08,10-1.08,0,0,8.94,3.86,14.51,1.12,2.2-1.08,7.03-6.02,7.03-6.02,0,0-4.98,9.88-7.48,11.05-2.51,1.17-29.56-.46-29.56-.46l-6.22-15.6Z" style="fill: url(#linear-gradient-33);"/>
          <path d="M82.09,151.24s-5.52-9.25-5.15-11.24c.41-2.18,8.09-7.8,8.09-7.8,0,0-4.72,7.25-4.87,8.81-.15,1.55,1.93,10.23,1.93,10.23Z" style="fill: url(#linear-gradient-34);"/>
          <path d="M121.96,151.78s5.66-9.24,4.41-12.1c-.52-1.19-7.25-7.48-7.25-7.48,0,0,4.01,7.02,4.18,8.57.17,1.55-1.34,11.01-1.34,11.01Z" style="fill: url(#linear-gradient-35);"/>
          <path d="M146.78,115.44s-2.44,30.42-4.45,34.89c-2.02,4.47-23.67,34.32-27.93,37.85-4.26,3.52-21.17-.43-24.23-.97s-25.03-30.78-28.07-35.72-2.08-36.9-2.08-36.9c0,0,4,24.16,6.81,28.14,2.81,3.98,21.06,30.26,24.08,32.27,1.28.85,3.3,2.24,6.09.06,2.05-1.6,3.79-2.51,5.75-2.31,1.87.2,2.78.35,5.95,3.01,2.45,2.05,7.17.82,8.93-.76,5.82-5.23,21.62-32.87,22.6-35.03,2.46-5.41,6.55-24.52,6.55-24.52Z" style="fill: url(#Gradient_115);"/>
          <path d="M78.59,140.15s11.74-9.58,13.97-10.84c6.69,2.34,18.96-1.78,19.9-2.08,3.14,2.94,9.8,11,12.23,13.63,0,0,2.61,20.36,2.39,22.93-.33,3.89-6.23,9.79-6.23,9.79l.67-31.78-24.11-2.69-15.78,2.77,2.44,28.78s-4.53-4.17-6.82-8.56c-.66-5.47,1.33-21.94,1.33-21.94Z" style="fill: url(#Gradient_115-2);"/>
          <path d="M102.68,41.75s-.18-23.27,28.52-22.83c0,0-16.68-10.05-27.27,1.54s-1.26,21.29-1.26,21.29Z" style="fill: url(#Gradient_27);"/>
          <path d="M89.68,39.46s1.28-18.03,18.06-22.14c0,0-5.59-7.16-15.22-.59-9.63,6.57-2.85,22.73-2.85,22.73Z" style="fill: url(#Gradient_27-2);"/>
          <path d="M82.67,40.55s-3.53-19.2,9.86-23.83c0,0-10.36-7.21-16.58,3.38-6.22,10.6,6.72,20.44,6.72,20.44Z" style="fill: url(#Gradient_27-3);"/>
          <path d="M70.41,41.75s-12.21-11-3.88-19.58,15.57-5.47,15.57-5.47c0,0-8.25,5.12-9.78,11.24-1.53,6.13-1.91,13.81-1.91,13.81Z" style="fill: url(#Gradient_27-4);"/>
          <path d="M112.64,39.05s.12-14.95,11.73-17.63c11.61-2.68,18.35,4.36,19.68,13.91,0,0-2.68-11-16.57-6.71-9.41,2.91-14.83,10.42-14.83,10.42Z" style="fill: url(#Gradient_27-5);"/>
          <path d="M130.46,44.74s12.97-6.73,19.25,2.45c0,0,.7-10.11-9.06-10.69-9.76-.58-10.19,8.25-10.19,8.25Z" style="fill: url(#Gradient_27-6);"/>
          <path d="M57.59,53.94s-7.52-5.15-2.87-20.27c2.37-7.71,11.81-9.99,11.81-9.99,0,0-3.79,3.03-8.94,16.12-2.42,6.14,0,14.14,0,14.14Z" style="fill: url(#Gradient_27-7);"/>
          <path d="M57.59,53.94s-7.7.13-11.38,9.63c-2.02,5.22,4.07,17.07,4.07,17.07,0,0-1.33-11.28.64-16.93,2.23-6.42,6.67-9.77,6.67-9.77Z" style="fill: url(#Gradient_27-8);"/>
          <path d="M142.81,49.5s9.48-4.29,13.16,5.25c2.39,6.18,2.63,10.44-2.09,18.55,0,0,.36-12.44-1.9-15.96s-9.17-7.84-9.17-7.84Z" style="fill: url(#Gradient_27-9);"/>
          <path d="M60.03,114.59s.22-6.88.04-18.28c-.1-6.63,1-11.35,4.68-16.84,0,0-2.01-15.77-1.13-17.83,1.96-4.57,8.61-10.87,9.84-11.06,1.23-.2,26.64,2.04,29.77,1.68s23.11-3.69,28.85-.73c2.41,1.24,8.49,6.81,8.65,9.87.16,3.06-.75,18.27-.75,18.27,0,0,5,5.78,4.91,14.03-.09,8.25,1.88,21.73,1.88,21.73,0,0,2.13-25.38,1.9-28.24-.24-2.86-1.6-27.18-2.7-29.68-1.1-2.5-10.17-11.79-15.53-12.79-5.36-1-27.4,1.45-28.38,2.05-.98.61-27.22-6.41-31.66-3.54-4.45,2.87-13.03,12.88-12.98,15.47.04,2.59-1.56,23.47-1.52,25.46.02.85,4.12,30.41,4.12,30.41Z" style="fill: url(#Gradient_58-3);"/>
          <path d="M67.7,159.56s20.91,26.68,23.23,27c2.32.33,20.27,1.21,22.16.56,1.89-.64,26.33-32.09,26.33-32.09,0,0-13.02,25.57-25.51,34.24-1.78,1.24-21.25.04-22.7-.13-4.51-.54-22.62-28.48-23.51-29.58Z" style="fill: url(#Gradient_115-3);"/>
          <path d="M82.09,147.29l-.4-5.27c2.05-.01,6.67-6.03,6.67-6.03,0,0-7.12,4.15-8.21,5.02-.32.25,1.94,6.29,1.94,6.29Z" style="fill: url(#Gradient_115-4);"/>
          <path d="M121.37,149.09l.21-7.15-3.94-4.63s5.26,4.14,5.36,4.52c.11.45-1.62,7.26-1.62,7.26Z" style="fill: url(#Gradient_115-5);"/>
          <path d="M92.56,129.31s10.79,5.43,11.25,5.32c.47-.11,10.59-5.44,10.59-5.44,0,0-1.29-2.05-3.13-2.16-3.2-.19-6.52,2.72-8.72,2.18-.94-.23-5.73-1.59-8.31-1.73-1.85-.1-1.68,1.83-1.68,1.83Z" style="fill: url(#Gradient_113);"/>
          <g>
            <path d="M81.68,142.02c2.09-3,7.31-7.26,12.15-8.53,3.31-.87,6.88-.46,8.33-.52,1.45-.06,5.83-.27,7.01,0,6.82,1.57,11.59,6.99,12.4,8.97,0,0-11.01,5.96-20.36,6.92-3.81.39-13.96-5.04-19.53-6.84Z" style="fill: url(#linear-gradient-36);"/>
            <path d="M89.48,161.06c1.44.58,9.64,4.33,13.51,4.34,3.66,0,9.7-3.9,12.41-4.64,1.23-.33.26,7.86-12.38,8.88-12.59,1.01-16.96-9.96-13.54-8.57Z" style="fill: #fed8b3;"/>
            <path d="M91.4,167.55s11.13,6.89,22.16-.15c0,0-3.55,5.3-10.81,5.35-3.44.02-6.14-.1-11.36-5.21Z" style="fill: url(#linear-gradient-37);"/>
            <path d="M96.54,171.53s2.46,1.82,4.86,2.03c2.63.23,6.96-2.01,6.96-2.01,0,0-5.96,1.77-11.82-.01Z" style="fill: url(#linear-gradient-38);"/>
            <path d="M102.38,135.59c-12.86-.22-20.9,4.5-20.7,6.43.35,3.31,5.18,21.88,19.33,21.77,18.45-.14,20.36-17.82,20.74-21.52.21-1.96-8.2-6.49-19.38-6.68Z" style="fill: url(#linear-gradient-39);"/>
            <path d="M82.87,141.92s3.01,22.44,20.27,22.32c11.84-.08,16.66-14.1,17.7-22.1,0,0-8.5-5.18-19.51-4.96-12.61.25-18.46,4.73-18.46,4.73Z" style="fill: #711e22;"/>
            <path d="M86.14,140.15s5.35-3.25,15.85-2.96c9.55.27,15.17,3.29,15.17,3.29,0,0,.33,1.73-.35,2.34-.68.6-8.31.58-13.89.6-6.1.02-14.35-.31-15.41-.41-1.05-.1-1.38-2.86-1.38-2.86Z" style="fill: url(#linear-gradient-40);"/>
            <path d="M87.06,142.77s-.67-.52-.92-2.62c0,0,5.06-3.2,15.7-3.03,8.52.14,12.58,1.61,15.38,3.24,0,0,.26,1.9-.4,2.45-.48-.21-4.46-2.31-14.62-2.46-10.16-.16-15.14,2.42-15.14,2.42Z" style="fill: url(#linear-gradient-41);"/>
            <path d="M86.62,152.7s-1.57-4.33,5.02-7.19c4.47-1.94,15.45-1.53,20.65-.03,4.59,1.33,5.41,7.19,4.13,8.78-1.28,1.59-4.11,9.48-13.68,9.52-6.24.03-10.2-1.45-16.12-11.08Z" style="fill: url(#Gradient_15);"/>
            <path d="M115.88,148.31s1.23,1.99,1.75,4.92c-1.47,3.9-4.45,7.01-6.04,7.99-1.59.98-11.58,5.11-17.85.49-5.41-3.99-7.47-9.12-7.47-9.12,0,0-.35-2.03,1.08-3.84,0,0,5.65,9.75,14.38,9.65,8.9-.11,11.66-5.44,14.16-10.07Z" style="fill: url(#Gradient_15-2);"/>
            <path d="M91.29,159.63s8.61,1.14,11.42,1.18c3.11.05,10.91-1.32,10.91-1.32,0,0-3.34,5.12-11.09,5.19-7.48.06-11.23-5.05-11.23-5.05Z" style="fill: url(#linear-gradient-42);"/>
            <path d="M93.09,161.43s4.37,1.54,9.64,1.52c2.56,0,4.79-.3,8.96-1.43,0,0-2.78,3.06-9.02,3.24-4.59.13-7.74-1.74-9.58-3.33Z" style="fill: url(#linear-gradient-43);"/>
          </g>
          <path d="M95.76,175.83s2.53-1.64,3.64-2.51c1.52-1.19,4.52-1.21,6.27.01,1.05.74,3.03,2.42,3.03,2.42,0,0-3.18-1.25-3.71-1.59s-2.95-.8-4.28-.31c-1.33.49-4.96,1.97-4.96,1.97Z" style="fill: url(#Gradient_115-6);"/>
          <g>
            <path d="M107.3,128.54c6.49-5.17,7.11.65,7.11.65-3.59-2.91-7.11-.65-7.11-.65Z" style="fill: #dca57b;"/>
            <path d="M92.56,129.31s.89-1.78,5.63-.37c0,0-7.89-5.1-5.63.37Z" style="fill: #dca57b;"/>
            <path d="M109.68,110.94c.05,2.45,1.34,11.62.65,13.04-1.54,3.16-4.59,4.51-7.47,4.39-2.16.35-6.1-.59-8.35-3.77-.92-1.29.69-10.51.2-13.09,0,0-9.35,16.91-2.15,17.8,0,0-1.18-1.9,1.68-1.83,2.53.06,3.87,4.44,8.87,4.25,5.51-.21,4.55-4.11,7.46-4.62,3.61-.62,3,1.74,3.83,2.07,3.6-1.61-1.3-13.93-4.73-18.25Z" style="fill: url(#linear-gradient-44);"/>
            <path d="M98.46,120.78c-.15,2.72.21,5.64,4.23,5.54,4.41-.11,4.48-3.09,4.02-5.57-2.74-14.7-7.71-10.1-8.25.03Z" style="fill: url(#linear-gradient-45);"/>
          </g>
        </g>
      </g>
    </g>
  </g>
</svg>