<svg xmlns="http://www.w3.org/2000/svg" viewBox="0 0 2036.39 1912.1"><defs><style>.cls-1{fill:#fff;}</style></defs><g id="Layer_2" data-name="Layer 2"><g id="Layer_1-2" data-name="Layer 1"><polygon class="cls-1" points="2029.9 226.06 2029.9 892.12 1017.46 1905.62 1024.82 316.72 1324.68 12.16 1804.52 6.49 2029.9 226.06"/><path d="M1017.46,1912.1a6.49,6.49,0,0,1-6.49-6.51l7.36-1588.9a6.5,6.5,0,0,1,1.87-4.52L1320.06,7.61a6.48,6.48,0,0,1,4.54-1.94L1804.44,0h.08A6.49,6.49,0,0,1,1809,1.84l225.39,219.58a6.5,6.5,0,0,1,2,4.64V892.12a6.49,6.49,0,0,1-1.9,4.59L1022.05,1910.2A6.51,6.51,0,0,1,1017.46,1912.1Zm13.83-1592.71L1024,1889.88l999.4-1000.44V228.8L1801.91,13l-474.48,5.61Z"/><polygon class="cls-1" points="6.48 878.3 1017.46 1905.62 1030.2 316.72 724.75 6.49 250.5 6.49 6.48 244.21 6.48 878.3"/><path d="M1017.46,1912.1a6.44,6.44,0,0,1-4.62-1.94L1.86,882.85A6.52,6.52,0,0,1,0,878.3V244.21a6.48,6.48,0,0,1,2-4.64L246,1.84A6.49,6.49,0,0,1,250.5,0H724.75a6.49,6.49,0,0,1,4.62,1.94l305.45,310.23a6.49,6.49,0,0,1,1.86,4.6l-12.74,1588.9a6.47,6.47,0,0,1-6.48,6.43ZM13,875.64,1011.1,1889.91l12.59-1570.55L722,13H253.13L13,247Z"/></g></g></svg>