<?xml version="1.0" encoding="utf-8"?>
<!-- Generator: Adobe Illustrator 26.5.0, SVG Export Plug-In . SVG Version: 6.00 Build 0)  -->
<svg version="1.1" id="Layer_1" xmlns="http://www.w3.org/2000/svg" xmlns:xlink="http://www.w3.org/1999/xlink" x="0px" y="0px"
	 viewBox="0 0 1244.1 1244.1" style="enable-background:new 0 0 1244.1 1244.1;" xml:space="preserve">
<style type="text/css">
	.st0{fill:#FFFFFF;}
	.st1{stroke:#000000;stroke-miterlimit:10;}
</style>
<g id="Layer_2_00000085961862996242495930000004335734031531000245_">
	<g id="Layer_1-2">
		
			<rect x="184.3" y="184.4" transform="matrix(0.7071 -0.7071 0.7071 0.7071 -257.6596 622.0417)" class="st0" width="875.5" height="875.3"/>
		<path class="st1" d="M622,1244.1c-0.8,0-1.6-0.3-2.2-0.9L0.9,624.3c-1.2-1.2-1.2-3.1,0-4.3l619-619c1.2-1.2,3.1-1.2,4.3,0
			l618.9,618.9c1.2,1.2,1.2,3.1,0,4.3l-619,619C623.6,1243.8,622.8,1244.1,622,1244.1z M7.4,622.1L622,1236.7L1236.7,622L622.1,7.4
			L7.4,622.1z"/>
		<path d="M622,1226.2L622,1226.2c-0.8,0-1.5-0.7-1.5-1.5l0.1-1205.3c0-0.8,0.7-1.5,1.5-1.5l0,0l0,0c0.8,0,1.5,0.7,1.5,1.5
			l-0.1,1205.3C623.5,1225.6,622.8,1226.2,622,1226.2z"/>
		<path d="M19.4,623.6c-0.8,0-1.5-0.7-1.5-1.5c0-0.8,0.7-1.5,1.5-1.5l1205.3-0.1c0.8,0.1,1.5,0.8,1.4,1.7c-0.1,0.8-0.7,1.4-1.4,1.4
			L19.4,623.6z"/>
		<path d="M891.5,329.4h-38.3c-1.1,0-1.9-0.9-1.9-1.9s0.9-1.9,1.9-1.9h38.3c1.1,0,1.9,0.9,1.9,1.9S892.6,329.4,891.5,329.4
			L891.5,329.4z M799.6,329.4h-38.3c-1.1,0-1.9-0.9-1.9-1.9s0.9-1.9,1.9-1.9h38.3c1.1,0,1.9,0.9,1.9,1.9S800.7,329.4,799.6,329.4
			L799.6,329.4z M707.7,329.4h-38.3c-1.1,0-1.9-0.9-1.9-1.9s0.9-1.9,1.9-1.9h38.3c1.1,0,1.9,0.9,1.9,1.9S708.8,329.4,707.7,329.4z
			 M615.8,329.4h-38.3c-1.1,0-1.9-0.9-1.9-1.9s0.9-1.9,1.9-1.9h38.3c1.1,0,1.9,0.9,1.9,1.9S616.9,329.4,615.8,329.4z M523.9,329.4
			h-38.3c-1.1,0-1.9-0.9-1.9-1.9s0.9-1.9,1.9-1.9h38.3c1.1,0,1.9,0.9,1.9,1.9S525,329.4,523.9,329.4L523.9,329.4z M432,329.4h-38.3
			c-1.1,0-1.9-0.9-1.9-1.9s0.9-1.9,1.9-1.9H432c1.1,0,1.9,0.9,1.9,1.9S433.1,329.4,432,329.4L432,329.4z M340.1,329.4h-38.3
			c-1.1,0-1.9-0.9-1.9-1.9s0.9-1.9,1.9-1.9h38.3c1.1,0,1.9,0.9,1.9,1.9S341.2,329.4,340.1,329.4L340.1,329.4L340.1,329.4z"/>
		<path class="st1" d="M631.5,506.2c-0.6,0-1.1-0.2-1.6-0.5c-1.4-0.9-1.9-2.8-1-4.2c15.4-25.3,25-72.5,25-123.1s-9.6-97.8-25-123.1
			c-0.9-1.4-0.4-3.3,1-4.2c1.4-0.9,3.3-0.4,4.2,1c16,26.2,25.9,74.6,25.9,126.3s-9.9,100.1-25.9,126.3
			C633.6,505.7,632.6,506.2,631.5,506.2z"/>
		<polygon points="625.4,472.4 656,490.2 622.1,513.3 		"/>
	</g>
</g>
</svg>
