<?xml version="1.0" encoding="utf-8"?>
<!-- Generator: Adobe Illustrator 26.5.0, SVG Export Plug-In . SVG Version: 6.00 Build 0)  -->
<svg version="1.1" id="Layer_1" xmlns="http://www.w3.org/2000/svg" xmlns:xlink="http://www.w3.org/1999/xlink" x="0px" y="0px"
	 viewBox="0 0 1260.5 1260.5" style="enable-background:new 0 0 1260.5 1260.5;" xml:space="preserve">
<style type="text/css">
	.st0{fill:#FFFFFF;}
</style>
<g id="Layer_2_00000080884914808157490560000006782999037018494372_">
	<g id="Layer_1-2">
		<polygon class="st0" points="919.1,302.9 919.1,493.7 629,784.1 631.1,328.9 717.1,241.6 854.6,240 		"/>
		<path d="M629,786c-1,0-1.9-0.8-1.9-1.9c0,0,0,0,0,0l2.1-455.3c0-0.5,0.2-0.9,0.5-1.3l85.9-87.3c0.3-0.3,0.8-0.5,1.3-0.6l137.5-1.6
			h0c0.5,0,0.9,0.2,1.3,0.5l64.6,62.9c0.4,0.3,0.6,0.8,0.6,1.3v190.9c0,0.5-0.2,1-0.5,1.3L630.4,785.5C630,785.8,629.5,786,629,786z
			 M633,329.6l-2.1,450L917.3,493V303.7l-63.5-61.8l-136,1.6L633,329.6z"/>
		<polygon class="st0" points="339.4,489.8 629,784.1 632.7,328.9 545.2,240 409.3,240 339.4,308.1 		"/>
		<path d="M629,786c-0.5,0-1-0.2-1.3-0.6L338,491.1c-0.3-0.3-0.5-0.8-0.5-1.3V308.1c0-0.5,0.2-1,0.6-1.3l69.9-68.1
			c0.3-0.3,0.8-0.5,1.3-0.5h135.9c0.5,0,1,0.2,1.3,0.6l87.5,88.9c0.3,0.4,0.5,0.8,0.5,1.3l-3.7,455.3C630.9,785.2,630.1,786,629,786
			L629,786z M341.2,489l286,290.6l3.6-450l-86.4-87.8H410l-68.8,67V489z"/>
	</g>
</g>
</svg>
