<?xml version="1.0" encoding="utf-8"?>
<!-- Generator: Adobe Illustrator 26.5.0, SVG Export Plug-In . SVG Version: 6.00 Build 0)  -->
<svg version="1.1" id="Layer_1" xmlns="http://www.w3.org/2000/svg" xmlns:xlink="http://www.w3.org/1999/xlink" x="0px" y="0px"
	 viewBox="0 0 1260.5 1260.5" style="enable-background:new 0 0 1260.5 1260.5;" xml:space="preserve">
<style type="text/css">
	.st0{fill:#FFFFFF;}
	.st1{stroke:#000000;stroke-width:3;stroke-miterlimit:10;}
</style>
<g id="Layer_2_00000069398347612346417140000001219643764450877626_">
	<g id="Layer_1-2">
		<polygon class="st0" points="1015.6,395.7 633.1,784.4 629.4,327.3 784.1,170.2 		"/>
		<path class="st1" d="M633.1,786.8c-1.3,0-2.4-1-2.5-2.4l0,0l-3.6-457c0-0.7,0.2-1.3,0.7-1.7l154.7-157.1c1-1,2.5-1,3.5,0
			L1017.3,394c1,0.9,1,2.5,0.1,3.5l0,0L634.9,786.1C634.4,786.6,633.8,786.8,633.1,786.8z M631.9,328.3l3.6,450.1l376.6-382.6
			l-228-222.1L631.9,328.3z"/>
		<polygon class="st0" points="244.9,395.7 627.3,784.4 631,327.3 476.3,170.2 		"/>
		<path class="st1" d="M627.3,786.8c-0.7,0-1.3-0.3-1.8-0.7L243.1,397.5c-1-1-0.9-2.5,0-3.5l0,0l231.5-225.5c1-1,2.5-1,3.5,0
			l154.6,157.1c0.5,0.5,0.7,1.1,0.7,1.7l-3.7,457.1c0,1-0.6,1.9-1.5,2.3C628,786.8,627.6,786.8,627.3,786.8z M248.4,395.8
			l376.5,382.6l3.6-450.1L476.3,173.7L248.4,395.8z"/>
		<path class="st1" d="M824.7,480c-1.4,0.1-2.5-1-2.6-2.3c-0.1-1.1,0.7-2.2,1.8-2.5c50-16.6,84.7-41.4,105.1-59.2
			c22.1-19.4,32.5-35,32.6-35.1l0.1-0.1c34.6-47,26.8-80,19.1-95.5c-10.7-21.3-33.6-34.7-59.9-34.9c-16.7,0-33.4,2.1-49.6,6.5
			c-1.3,0.3-2.6-0.6-2.9-1.9c-0.3-1.2,0.5-2.5,1.7-2.9c16.6-4.4,33.7-6.7,50.9-6.6c28.2,0.2,52.8,14.7,64.3,37.6
			c6.6,13.1,8.6,28.6,6,44.9c-3,18-11.5,36.7-25.4,55.7c-0.8,1.2-11.2,16.6-33.2,35.9C912,437.8,876.6,463,825.8,480
			C825.2,479.9,824.9,480,824.7,480z"/>
		<path class="st1" d="M789.9,291.9c-0.8,0-1.5-0.7-1.6-1.5c0-0.6,0.3-1.1,0.8-1.4c4.5-2.7,9.9-5.9,16.1-9.2
			c0.7-0.4,1.7-0.1,2.1,0.6s0.1,1.7-0.6,2.1c-6.1,3.4-11.5,6.5-16,9.2C790.5,291.8,790.2,291.9,789.9,291.9z M830.7,270.3
			c-0.8,0-1.5-0.7-1.6-1.5c0-0.6,0.4-1.2,0.9-1.4c5.8-2.6,11.5-5,17.2-7.1c0.8-0.3,1.7,0.1,2,0.9s-0.1,1.7-0.9,2l0,0
			c-5.6,2.1-11.3,4.4-17,7C831.1,270.2,830.9,270.3,830.7,270.3L830.7,270.3z"/>
		<path class="st1" d="M751.9,316.2c-0.9,0-1.5-0.7-1.5-1.5c0-0.3,0.1-0.6,0.3-0.9l23.9-34.9c0.5-0.7,1.4-0.9,2.1-0.4
			c0.2,0.1,0.4,0.3,0.5,0.6l16.6,32c0.4,0.8,0.1,1.7-0.6,2.1c-0.2,0.1-0.4,0.2-0.6,0.2l-40.5,3L751.9,316.2z M775.6,282.7
			l-20.7,30.2l35-2.5L775.6,282.7z"/>
		<path d="M918.6,478.8c-0.8,0-1.5-0.7-1.5-1.5v-24.6c0.1-0.8,0.8-1.5,1.7-1.4c0.8,0.1,1.4,0.7,1.4,1.4v24.6
			C920.1,478.2,919.4,478.8,918.6,478.8L918.6,478.8z M918.6,417.3c-0.8,0-1.5-0.7-1.5-1.5v-24.6c0.1-0.8,0.8-1.5,1.7-1.4
			c0.8,0.1,1.4,0.7,1.4,1.4v24.6C920.1,416.6,919.4,417.3,918.6,417.3L918.6,417.3z M918.6,355.8c-0.8,0-1.5-0.7-1.5-1.5v-24.6
			c0.1-0.8,0.8-1.5,1.7-1.4c0.8,0.1,1.4,0.7,1.4,1.4v24.6C920.1,355.1,919.5,355.8,918.6,355.8L918.6,355.8L918.6,355.8z"/>
		<path class="st1" d="M430.4,480c-0.3,0-0.5,0-0.8-0.1c-50.8-16.9-86.2-42.2-106.9-60.4c-22.1-19.4-32.4-34.7-33.2-35.9
			c-13.9-18.9-22.5-37.6-25.4-55.7c-2.7-16.2-0.6-31.7,6-44.9c11.5-23,36.2-37.4,64.3-37.6c17.2,0,34.3,2.2,50.9,6.6
			c1.3,0.3,2.1,1.7,1.8,3c-0.3,1.3-1.7,2.1-3,1.8l0,0c-16.2-4.3-32.8-6.5-49.6-6.5c-26.3,0.2-49.3,13.6-59.9,34.9
			c-7.8,15.5-15.6,48.4,19,95.5l0.1,0.1c0.1,0.2,10.5,15.8,32.6,35.1c20.4,17.8,55.1,42.6,105.1,59.2c1.3,0.4,2.1,1.7,1.7,3
			C432.6,479.3,431.5,480.1,430.4,480L430.4,480z"/>
		<path class="st1" d="M465.2,291.9c-0.3,0-0.6-0.1-0.8-0.2c-4.5-2.7-9.9-5.8-16-9.2c-0.7-0.4-1-1.3-0.6-2.1s1.3-1,2.1-0.6
			c6.1,3.4,11.6,6.6,16.1,9.2c0.7,0.4,1,1.4,0.5,2.1l0,0C466.2,291.6,465.7,291.9,465.2,291.9z M424.4,270.3c-0.2,0-0.4,0-0.6-0.1
			c-5.7-2.6-11.4-4.9-17-7c-0.8-0.3-1.1-1.3-0.8-2c0.3-0.7,1.1-1.1,1.9-0.8c5.6,2.1,11.4,4.5,17.2,7.1c0.8,0.3,1.1,1.2,0.8,2
			C425.6,269.9,425,270.3,424.4,270.3L424.4,270.3z"/>
		<path class="st1" d="M503.2,316.2h-0.1l-40.5-2.9c-0.8-0.1-1.5-0.8-1.4-1.6c0-0.2,0.1-0.4,0.2-0.6l16.6-32
			c0.4-0.8,1.3-1.1,2.1-0.7c0.2,0.1,0.4,0.3,0.6,0.5l23.9,34.9c0.3,0.5,0.3,1.1,0.1,1.6C504.3,315.9,503.8,316.2,503.2,316.2z
			 M465.1,310.3l35,2.5l-20.7-30.2L465.1,310.3z"/>
		<path d="M336.5,478.8c-0.8,0-1.5-0.7-1.5-1.5v-24.6c0.1-0.8,0.8-1.5,1.7-1.4c0.8,0.1,1.4,0.7,1.4,1.4v24.6
			C338.1,478.2,337.4,478.8,336.5,478.8z M336.5,417.3c-0.8,0-1.5-0.7-1.5-1.5v-24.6c0.1-0.8,0.8-1.5,1.7-1.4
			c0.8,0.1,1.4,0.7,1.4,1.4v24.6C338,416.6,337.4,417.3,336.5,417.3L336.5,417.3z M336.5,355.8c-0.8,0-1.5-0.7-1.5-1.5v-24.6
			c0.1-0.8,0.8-1.5,1.7-1.4c0.8,0.1,1.4,0.7,1.4,1.4v24.6C338.1,355.1,337.4,355.8,336.5,355.8C336.6,355.8,336.5,355.8,336.5,355.8
			L336.5,355.8z"/>
	</g>
</g>
</svg>
