<?xml version="1.0" encoding="utf-8"?>
<!-- Generator: Adobe Illustrator 26.5.0, SVG Export Plug-In . SVG Version: 6.00 Build 0)  -->
<svg version="1.1" id="Layer_1" xmlns="http://www.w3.org/2000/svg" xmlns:xlink="http://www.w3.org/1999/xlink" x="0px" y="0px"
	 viewBox="0 0 1260.5 1260.5" style="enable-background:new 0 0 1260.5 1260.5;" xml:space="preserve">
<style type="text/css">
	.st0{fill:#FFFFFF;}
</style>
<g id="Layer_2_00000028312223826674648430000013552212335569360824_">
	<g id="Layer_1-2_00000071540020181112217950000015233275213620631728_">
		<polygon class="st0" points="1247.8,628.7 1090.4,786.2 167.1,786.2 9.9,628.9 327.5,313.8 931.9,312.8 		"/>
		<path d="M167.1,789.3c-0.8,0-1.6-0.3-2.2-0.9L7.7,631c-0.6-0.6-0.9-1.4-0.9-2.2c0-0.8,0.3-1.6,0.9-2.1l317.6-315
			c0.6-0.6,1.3-1,2.2-1l604.4-1l0,0c0.8,0,1.6,0.3,2.2,0.9L1250,626.6c1.2,1.2,1.2,3.1,0,4.3l-157.4,157.4c-0.6,0.6-1.3,0.9-2.2,0.9
			L167.1,789.3z M14.2,628.9l154.2,154.3h920.7l154.4-154.4L930.6,315.9l-601.9,1L14.2,628.9z"/>
		<path d="M26.2,630.4c-0.8,0-1.5-0.7-1.5-1.5c0-0.8,0.7-1.5,1.5-1.5l1205.3-0.1c0.8,0,1.5,0.7,1.5,1.5c0,0.8-0.7,1.5-1.5,1.5
			L26.2,630.4z"/>
		<polygon class="st0" points="327.5,313.8 930.9,313.8 628.9,619.2 		"/>
		<path d="M628.9,622.3L628.9,622.3c-0.8,0-1.6-0.3-2.2-0.9L325.3,316c-1.2-1.2-1.2-3.1-0.1-4.3c0.6-0.6,1.4-0.9,2.2-0.9h603.4
			c1.7,0,3.1,1.4,3.1,3.1c0,0.8-0.3,1.6-0.9,2.1L631.1,621.4C630.5,622,629.8,622.3,628.9,622.3z M334.8,316.9l294.2,298l294.6-298
			L334.8,316.9z"/>
		<polygon class="st0" points="167.1,786.2 1090.4,786.2 628.4,318.9 		"/>
		<path d="M1090.4,789.3H167.1c-1.7,0-3.1-1.4-3.1-3.1c0-0.8,0.3-1.6,0.9-2.1l461.3-467.3c0.6-0.6,1.4-0.9,2.2-0.9
			c0.8,0,1.6,0.3,2.2,0.9l462,467.3c1.2,1.2,1.2,3.2,0,4.3C1092,788.9,1091.2,789.2,1090.4,789.3L1090.4,789.3z M174.4,783.1h908.6
			L628.4,323.3L174.4,783.1z"/>
		<path d="M973.8,561.8c-1.4,0-2.7-1-3-2.3c-7-28.8-33.5-68.9-69.3-104.7c-35.8-35.8-75.9-62.4-104.7-69.3c-1.7-0.4-2.7-2.1-2.3-3.7
			c0.4-1.7,2.1-2.7,3.7-2.3l0,0c29.8,7.2,71.1,34.4,107.6,71s63.7,77.8,71,107.6c0.4,1.6-0.6,3.3-2.2,3.7
			C974.3,561.8,974.1,561.8,973.8,561.8z"/>
		<polygon points="814.9,408.5 823.9,374.3 783.6,382 		"/>
		<path d="M285.6,561.8c-0.2,0-0.5,0-0.7-0.1c-1.6-0.4-2.6-2.1-2.3-3.7c7.2-29.8,34.4-71.1,71-107.6s77.8-63.7,107.6-71
			c1.7-0.4,3.3,0.6,3.7,2.3s-0.6,3.3-2.3,3.7l0,0c-28.8,7-68.9,33.5-104.7,69.3s-62.4,75.9-69.3,104.7
			C288.3,560.8,287.1,561.8,285.6,561.8z"/>
		<polygon points="444.6,408.5 435.5,374.3 475.8,382 		"/>
		<path d="M628.3,787.7c-0.5,0-1-0.2-1.3-0.6L599.9,760c-0.7-0.7-0.8-2,0-2.7c0.7-0.7,2-0.8,2.7,0l0,0l27.1,27.1
			c0.7,0.7,0.8,2,0,2.7c0,0,0,0,0,0C629.3,787.4,628.8,787.6,628.3,787.7z M666.2,750.7c-1.1,0-1.9-0.9-1.9-1.9c0-0.5,0.2-1,0.6-1.3
			l27.1-27.1c0.8-0.7,2-0.6,2.7,0.2c0.6,0.7,0.6,1.8,0,2.5l-27.1,27.1C667.2,750.5,666.7,750.7,666.2,750.7L666.2,750.7z
			 M563.3,722.7c-0.5,0-1-0.2-1.3-0.6L534.9,695c-0.7-0.7-0.8-2,0-2.7c0.7-0.7,2-0.8,2.7,0l27.1,27.1c0.7,0.7,0.8,2,0,2.7
			c0,0,0,0,0,0C564.3,722.5,563.9,722.7,563.3,722.7L563.3,722.7z M731.2,685.7c-1.1,0-1.9-0.9-1.9-1.9c0-0.5,0.2-1,0.6-1.3
			l27.1-27.1c0.8-0.7,2-0.6,2.7,0.2c0.6,0.7,0.6,1.8,0,2.5l-27.1,27.1C732.2,685.5,731.7,685.7,731.2,685.7z M498.4,657.7
			c-0.5,0-1-0.2-1.4-0.6l-27.1-27.1c-0.7-0.7-0.8-2,0-2.7c0.7-0.7,2-0.8,2.7,0l27.1,27.1c0.7,0.7,0.8,2,0,2.7c0,0,0,0,0,0
			C499.4,657.5,498.9,657.7,498.4,657.7z M796.2,620.7c-0.5,0-1-0.2-1.3-0.6c-0.7-0.7-0.8-2,0-2.7c0,0,0,0,0,0l27.1-27.1
			c0.8-0.7,2-0.6,2.7,0.2c0.6,0.7,0.6,1.8,0,2.5l-27.1,27.1C797.2,620.5,796.7,620.7,796.2,620.7z M433.4,592.7
			c-0.5,0-1-0.2-1.4-0.6L405,565.1c-0.7-0.7-0.8-2,0-2.7c0.7-0.7,2-0.8,2.7,0l27.1,27.1c0.7,0.7,0.8,2,0,2.7c0,0,0,0,0,0
			C434.4,592.5,433.9,592.7,433.4,592.7z M861.2,555.7c-1.1,0-1.9-0.9-1.9-1.9c0-0.5,0.2-1,0.6-1.3l27.1-27.1c0.8-0.7,2-0.6,2.7,0.2
			c0.6,0.7,0.6,1.8,0,2.5l-27.1,27.1C862.2,555.5,861.7,555.7,861.2,555.7z M368.4,527.7c-0.5,0-1-0.2-1.4-0.6L340,500.1
			c-0.7-0.7-0.8-2,0-2.7c0.7-0.7,2-0.8,2.7,0l27.1,27.1c0.7,0.7,0.8,2,0,2.7c0,0,0,0,0,0C369.4,527.5,368.9,527.7,368.4,527.7z
			 M926.2,490.7c-1.1,0-1.9-0.9-1.9-1.9c0-0.5,0.2-1,0.6-1.3l27.1-27.1c0.7-0.8,1.9-0.9,2.7-0.2c0.8,0.7,0.9,1.9,0.2,2.7
			c-0.1,0.1-0.1,0.1-0.2,0.2l-27.1,27.1C927.1,490.5,926.7,490.7,926.2,490.7L926.2,490.7z M303.4,462.7c-0.5,0-1-0.2-1.4-0.6
			L275,435.1c-0.7-0.7-0.8-2,0-2.7c0.7-0.7,2-0.8,2.7,0l0,0l27.1,27.1c0.7,0.7,0.8,2,0,2.7c0,0,0,0,0,0
			C304.4,462.5,303.9,462.7,303.4,462.7z M991.1,425.7c-1.1,0-1.9-0.9-1.9-1.9c0-0.5,0.2-1,0.6-1.3l27-27c0.8-0.7,2-0.6,2.7,0.2
			c0.6,0.7,0.6,1.8,0,2.5l-27.1,27.1C992.1,425.5,991.6,425.7,991.1,425.7z"/>
	</g>
</g>
</svg>
