<?xml version="1.0" encoding="utf-8"?>
<!-- Generator: Adobe Illustrator 26.5.0, SVG Export Plug-In . SVG Version: 6.00 Build 0)  -->
<svg version="1.1" id="Layer_1" xmlns="http://www.w3.org/2000/svg" xmlns:xlink="http://www.w3.org/1999/xlink" x="0px" y="0px"
	 viewBox="0 0 1260.5 1260.5" style="enable-background:new 0 0 1260.5 1260.5;" xml:space="preserve">
<style type="text/css">
	.st0{fill:#FFFFFF;stroke:#000000;stroke-miterlimit:10;}
	.st1{stroke:#000000;stroke-miterlimit:10;}
</style>
<g id="Layer_2_00000048478262018438581090000013525549243326669185_">
	<g id="Layer_1-2">
		
			<rect x="186.8" y="186.8" transform="matrix(0.7071 -0.7071 0.7071 0.7071 -261.0528 630.2428)" class="st0" width="887" height="887"/>
		<path class="st1" d="M630.2,1260.5c-0.8,0-1.6-0.3-2.2-0.9L0.9,632.4c-1.2-1.2-1.2-3.1,0-4.3c0,0,0,0,0,0L628.1,0.9
			c1.2-1.2,3.1-1.2,4.3,0c0,0,0,0,0,0l627.2,627.2c1.2,1.2,1.2,3.1,0,4.3c0,0,0,0,0,0l-627.2,627.2
			C631.8,1260.2,631,1260.5,630.2,1260.5z M7.4,630.2l622.8,622.8l622.8-622.8L630.2,7.4L7.4,630.2z"/>
		<path class="st1" d="M630.2,1242.8c-1.1,0-1.9-0.9-1.9-1.9l0,0v-19.1c-0.1-1.1,0.7-2,1.8-2.1c1.1-0.1,2,0.7,2.1,1.8
			c0,0.1,0,0.2,0,0.3v19.1C632.2,1241.9,631.3,1242.8,630.2,1242.8z"/>
		<path class="st1" d="M630.2,1168.8c-1.1,0-1.9-0.9-1.9-1.9v-39.2c0.1-1.1,1-1.9,2.1-1.8c1,0.1,1.7,0.8,1.8,1.8v39.2
			C632.1,1168,631.3,1168.8,630.2,1168.8z M630.2,1074.8c-1.1,0-1.9-0.9-1.9-1.9l0,0v-39.2c0.1-1.1,1-1.9,2.1-1.8
			c1,0.1,1.7,0.8,1.8,1.8v39.2C632.1,1073.9,631.3,1074.8,630.2,1074.8L630.2,1074.8z M630.2,980.8c-1.1,0-1.9-0.8-1.9-1.9
			c0,0,0,0,0,0v-39.2c-0.1-1.1,0.7-2,1.8-2.1c1.1-0.1,2,0.7,2.1,1.8c0,0.1,0,0.2,0,0.3v39.2C632.2,979.9,631.3,980.8,630.2,980.8
			L630.2,980.8L630.2,980.8z M630.2,886.8c-1.1,0-1.9-0.9-1.9-1.9v-39.2c0.1-1.1,1-1.9,2.1-1.8c1,0.1,1.7,0.8,1.8,1.8v39.2
			C632.1,885.9,631.3,886.8,630.2,886.8L630.2,886.8z M630.2,792.8c-1.1,0-1.9-0.9-1.9-1.9v-39.2c0.1-1.1,1-1.9,2.1-1.8
			c1,0.1,1.7,0.8,1.8,1.8v39.2C632.2,791.9,631.3,792.8,630.2,792.8L630.2,792.8z M630.2,698.8c-1.1,0-1.9-0.8-1.9-1.9c0,0,0,0,0,0
			v-39.2c-0.1-1.1,0.7-2,1.8-2.1c1.1-0.1,2,0.7,2.1,1.8c0,0.1,0,0.2,0,0.3v39.2C632.2,697.9,631.3,698.7,630.2,698.8L630.2,698.8
			L630.2,698.8z M630.2,604.8c-1.1,0-1.9-0.9-1.9-1.9v-39.3c0.1-1.1,1-1.9,2.1-1.8c1,0.1,1.7,0.8,1.8,1.8v39.2
			C632.1,603.9,631.3,604.7,630.2,604.8L630.2,604.8z M630.2,510.8c-1.1,0-1.9-0.9-1.9-1.9v-39.3c0.1-1.1,1-1.9,2.1-1.8
			c1,0.1,1.7,0.8,1.8,1.8v39.2C632.2,509.9,631.3,510.7,630.2,510.8L630.2,510.8z M630.2,416.8c-1.1,0-1.9-0.8-1.9-1.9c0,0,0,0,0,0
			v-39.3c-0.1-1.1,0.7-2,1.8-2.1c1.1-0.1,2,0.7,2.1,1.8c0,0.1,0,0.2,0,0.3v39.2c0,1.1-0.9,1.9-1.9,1.9h0V416.8z M630.2,322.8
			c-1.1,0-1.9-0.9-1.9-1.9v-39.3c0.1-1.1,1-1.9,2.1-1.8c1,0.1,1.7,0.8,1.8,1.8v39.2c0,1.1-0.9,1.9-1.9,1.9V322.8z M630.2,228.8
			c-1.1,0-1.9-0.9-1.9-1.9v-39.3c0.1-1.1,1-1.9,2.1-1.8c1,0.1,1.7,0.8,1.8,1.8v39.2c0,1.1-0.9,1.9-1.9,1.9V228.8z M630.2,134.8
			c-1.1,0-1.9-0.8-1.9-1.9c0,0,0,0,0,0V93.6c-0.1-1.1,0.7-2,1.8-2.1c1.1-0.1,2,0.7,2.1,1.8c0,0.1,0,0.2,0,0.3v39.2
			c0,1.1-0.9,1.9-1.9,1.9c0,0,0,0,0,0V134.8z"/>
		<path class="st1" d="M630.2,40.7c-1.1,0-1.9-0.9-1.9-1.9V19.6c0.1-1.1,1-1.9,2.1-1.8c1,0.1,1.7,0.8,1.8,1.8v19.1
			C632.2,39.8,631.3,40.6,630.2,40.7z"/>
		<path class="st1" d="M1240.9,632.2h-19.1c-1.1,0.1-2-0.7-2.1-1.8c-0.1-1.1,0.7-2,1.8-2.1c0.1,0,0.2,0,0.3,0h19.1
			c1.1-0.1,2,0.7,2.1,1.8c0.1,1.1-0.7,2-1.8,2.1C1241.1,632.2,1241,632.2,1240.9,632.2z"/>
		<path class="st1" d="M1166.9,632.2h-39.2c-1.1-0.1-1.9-1-1.8-2.1c0.1-1,0.8-1.7,1.8-1.8h39.2c1.1,0.1,1.9,1,1.8,2.1
			C1168.6,631.3,1167.9,632.1,1166.9,632.2z M1072.9,632.2h-39.2c-1.1-0.1-1.9-1-1.8-2.1c0.1-1,0.8-1.7,1.8-1.8h39.2
			c1.1-0.1,2,0.7,2.1,1.8c0.1,1.1-0.7,2-1.8,2.1C1073.1,632.2,1073,632.2,1072.9,632.2z M978.9,632.2h-39.2c-1.1,0.1-2-0.7-2.1-1.8
			c-0.1-1.1,0.7-2,1.8-2.1c0.1,0,0.2,0,0.3,0h39.2c1.1,0.1,1.9,1,1.8,2.1C980.6,631.3,979.8,632.1,978.9,632.2L978.9,632.2z
			 M884.9,632.2h-39.2c-1.1-0.1-1.9-1-1.8-2.1c0.1-1,0.8-1.7,1.8-1.8h39.2c1.1,0.1,1.9,1,1.8,2.1
			C886.6,631.3,885.8,632.1,884.9,632.2L884.9,632.2z M790.9,632.2h-39.2c-1.1-0.1-1.9-1-1.8-2.1c0.1-1,0.8-1.7,1.8-1.8h39.2
			c1.1-0.1,2,0.7,2.1,1.8c0.1,1.1-0.7,2-1.8,2.1C791,632.2,790.9,632.2,790.9,632.2L790.9,632.2z M696.9,632.2h-39.2
			c-1.1,0.1-2-0.7-2.1-1.8c-0.1-1.1,0.7-2,1.8-2.1c0.1,0,0.2,0,0.3,0h39.2c1.1,0.1,1.9,1,1.8,2.1
			C698.5,631.3,697.8,632.1,696.9,632.2L696.9,632.2z M602.9,632.2h-39.3c-1.1-0.1-1.9-1-1.8-2.1c0.1-1,0.8-1.7,1.8-1.8h39.2
			c1.1,0.1,1.9,1,1.8,2.1C604.5,631.3,603.8,632.1,602.9,632.2L602.9,632.2z M508.9,632.2h-39.3c-1.1-0.1-1.9-1-1.8-2.1
			c0.1-1,0.8-1.7,1.8-1.8h39.2c1.1-0.1,2,0.7,2.1,1.8c0.1,1.1-0.7,2-1.8,2.1c-0.1,0-0.2,0-0.3,0H508.9z M414.9,632.2h-39.3
			c-1.1,0.1-2-0.7-2.1-1.8c-0.1-1.1,0.7-2,1.8-2.1c0.1,0,0.2,0,0.3,0h39.2c1.1,0.1,1.9,1,1.8,2.1c-0.1,1-0.8,1.7-1.8,1.8H414.9z
			 M320.9,632.2h-39.3c-1.1-0.1-1.9-1-1.8-2.1c0.1-1,0.8-1.7,1.8-1.8h39.2c1.1,0.1,1.9,1,1.8,2.1c-0.1,1-0.8,1.7-1.8,1.8H320.9z
			 M226.9,632.2h-39.3c-1.1-0.1-1.9-1-1.8-2.1c0.1-1,0.8-1.7,1.8-1.8h39.2c1.1-0.1,2,0.7,2.1,1.8c0.1,1.1-0.7,2-1.8,2.1
			c-0.1,0-0.2,0-0.3,0H226.9z M132.9,632.2H93.6c-1.1,0.1-2-0.7-2.1-1.8c-0.1-1.1,0.7-2,1.8-2.1c0.1,0,0.2,0,0.3,0h39.2
			c1.1,0.1,1.9,1,1.8,2.1c-0.1,1-0.8,1.7-1.8,1.8H132.9z"/>
		<path class="st1" d="M38.7,632.2H19.6c-1.1-0.1-1.9-1-1.8-2.1c0.1-1,0.8-1.7,1.8-1.8h19.1c1.1-0.1,2,0.7,2.1,1.8
			c0.1,1.1-0.7,2-1.8,2.1C38.9,632.2,38.8,632.2,38.7,632.2z"/>
		<path class="st1" d="M656.4,848.2c-0.5,0-1-0.1-1.5-0.4c-1.5-0.8-2-2.6-1.3-4c0,0,0-0.1,0.1-0.1c25.1-45.7,48.4-137.6,44.4-224.7
			c-3.2-70-15-113-32.6-147.3c1,3.6,2.1,7.4,3,11.4c5.8,23.7,10.4,58.9-0.2,92.6c-0.6,1.6-2.4,2.4-3.9,1.8c-1.5-0.5-2.3-2.1-1.9-3.7
			c19.5-61.9-14.3-131-14.6-131.7l5.3-3.1c27.6,40.9,46.9,87.1,51.1,179.7c4,88.3-19.7,181.5-45.2,228
			C658.5,847.7,657.5,848.3,656.4,848.2z"/>
		<polygon class="st1" points="650.8,809 689.1,829 649.1,859 		"/>
		<path class="st1" d="M439,599.8l-3.5-5c39.7-29.3,85-50.6,177.3-58.8c88-7.8,182.2,11.8,229.7,35.3c1.5,0.7,2.1,2.6,1.4,4.1
			c-0.7,1.5-2.6,2.1-4.1,1.4c-46.7-23.1-139.5-42.4-226.5-34.7c-63.7,5.7-104.6,17.6-136.7,34.1c8.4-2.7,16.9-5,25.6-6.8
			c24.9-5.2,50.5-6.8,75.8-4.8c32.3,2.5,65.2,10.6,97.8,24.1c1.6,0.6,2.3,2.4,1.7,4c-0.6,1.6-2.4,2.3-4,1.7l0,0
			c-72.4-30-132.2-27-169.7-19.1C463.1,583.9,439.2,599.7,439,599.8z"/>
		<polygon class="st1" points="805.2,581.2 823.5,542.1 855.2,580.8 		"/>
	</g>
</g>
</svg>
