<svg xmlns="http://www.w3.org/2000/svg" viewBox="0 0 1244.08 479.53"><defs><style>.cls-1{fill:#fff;}</style></defs><g id="Layer_2" data-name="Layer 2"><g id="Layer_1-2" data-name="Layer 1"><polygon class="cls-1" points="1241.02 318.99 1083.59 476.42 160.32 476.46 3.06 319.13 320.65 4.1 925.09 3.06 1241.02 318.99"/><path d="M160.32,479.53a3.07,3.07,0,0,1-2.16-.9L.9,321.29a3,3,0,0,1-.9-2.17A3.08,3.08,0,0,1,.91,317l317.58-315A3.11,3.11,0,0,1,320.65,1L925.09,0h0a3.07,3.07,0,0,1,2.17.9l315.93,315.93a3.07,3.07,0,0,1,0,4.33L1085.75,478.59a3.07,3.07,0,0,1-2.16.9ZM7.4,319.14,161.59,473.4l920.73,0L1236.69,319,923.82,6.13l-601.91,1Z"/><path d="M19.37,320.66a1.53,1.53,0,0,1,0-3.06l1205.34-.14a1.53,1.53,0,0,1,0,3.06Z"/><polygon class="cls-1" points="320.65 4.1 924.06 4.1 622.12 309.48 320.65 4.1"/><path d="M622.12,312.54h0a3,3,0,0,1-2.18-.91L318.47,6.25A3.06,3.06,0,0,1,320.65,1H924.06a3.06,3.06,0,0,1,2.17,5.21L624.3,311.63A3,3,0,0,1,622.12,312.54ZM328,7.16l294.15,298,294.59-298Z"/><polygon class="cls-1" points="160.32 476.46 1083.63 476.46 621.62 9.18 160.32 476.46"/><path d="M1083.63,479.53H160.32a3.07,3.07,0,0,1-2.18-5.22L619.44,7a3.08,3.08,0,0,1,2.18-.91A3,3,0,0,1,623.8,7l462,467.28a3.07,3.07,0,0,1-2.17,5.22Zm-916-6.13h908.64L621.63,13.54Z"/><path d="M967,252.06a3.06,3.06,0,0,1-3-2.34c-7-28.8-33.54-68.93-69.33-104.72S818.74,82.64,789.94,75.67a3.07,3.07,0,0,1,1.45-6c29.83,7.22,71.06,34.41,107.61,71s63.73,77.78,71,107.61a3.07,3.07,0,0,1-2.25,3.7A3.71,3.71,0,0,1,967,252.06Z"/><polygon points="808.06 98.8 817.12 64.58 776.78 72.22 808.06 98.8"/><path d="M278.83,252.06a3.61,3.61,0,0,1-.72-.08,3.08,3.08,0,0,1-2.26-3.7c7.22-29.83,34.41-71.07,71-107.61s77.78-63.74,107.61-71a3.07,3.07,0,0,1,1.44,6c-28.8,7-68.93,33.53-104.72,69.33s-62.36,75.92-69.33,104.72A3.06,3.06,0,0,1,278.83,252.06Z"/><polygon points="437.74 98.8 428.69 64.58 469.02 72.22 437.74 98.8"/><path d="M621.51,477.92a1.91,1.91,0,0,1-1.35-.56l-27.07-27.08a1.91,1.91,0,0,1,2.7-2.71l27.08,27.08a1.91,1.91,0,0,1,0,2.71A2,2,0,0,1,621.51,477.92Zm37.91-37a1.92,1.92,0,0,1-1.35-3.27l27.07-27.07a1.92,1.92,0,0,1,2.71,2.71l-27.08,27.07A1.91,1.91,0,0,1,659.42,440.93Zm-102.89-28a1.91,1.91,0,0,1-1.35-.56L528.11,385.3a1.91,1.91,0,0,1,2.7-2.71l27.08,27.08a1.91,1.91,0,0,1,0,2.71A2,2,0,0,1,556.53,412.94ZM724.4,376a1.92,1.92,0,0,1-1.35-3.27l27.07-27.07a1.92,1.92,0,0,1,2.71,2.71l-27.08,27.07A1.91,1.91,0,0,1,724.4,376ZM491.55,348a1.91,1.91,0,0,1-1.35-.56l-27.07-27.08a1.91,1.91,0,0,1,2.7-2.71l27.08,27.08a1.91,1.91,0,0,1,0,2.71A2,2,0,0,1,491.55,348Zm297.83-37a1.87,1.87,0,0,1-1.35-.56,1.91,1.91,0,0,1,0-2.71l27.07-27.07a1.92,1.92,0,0,1,2.71,2.71l-27.08,27.07A1.87,1.87,0,0,1,789.38,311ZM426.57,283a1.91,1.91,0,0,1-1.35-.56l-27.07-27.08a1.91,1.91,0,0,1,2.7-2.71l27.08,27.08a1.91,1.91,0,0,1,0,2.71A2,2,0,0,1,426.57,283Zm427.79-37a1.92,1.92,0,0,1-1.35-3.27l27.07-27.07a1.92,1.92,0,0,1,2.71,2.71l-27.08,27.07A1.91,1.91,0,0,1,854.36,246ZM361.59,218a1.91,1.91,0,0,1-1.35-.56l-27.07-27.08a1.91,1.91,0,1,1,2.7-2.71L363,214.73a1.91,1.91,0,0,1,0,2.71A2,2,0,0,1,361.59,218Zm557.75-37a1.92,1.92,0,0,1-1.35-3.27l27.07-27.07a1.92,1.92,0,1,1,2.71,2.71l-27.08,27.07A1.91,1.91,0,0,1,919.34,181ZM296.61,153a1.91,1.91,0,0,1-1.35-.56l-27.07-27.08a1.91,1.91,0,1,1,2.7-2.71L298,149.75a1.91,1.91,0,0,1,0,2.71A2,2,0,0,1,296.61,153Zm687.71-37a1.92,1.92,0,0,1-1.35-3.27L1010,85.69a1.92,1.92,0,0,1,2.71,2.71l-27.08,27.07A1.91,1.91,0,0,1,984.32,116Z"/></g></g></svg>