<svg xmlns="http://www.w3.org/2000/svg" viewBox="0 0 730.46 770.38"><defs><style>.cls-1{fill:#fff;}</style></defs><g id="Layer_2" data-name="Layer 2"><g id="Layer_1-2" data-name="Layer 1"><polygon class="cls-1" points="727.39 166.09 727.39 404.52 364.96 767.32 367.6 198.54 560.06 3.06 727.39 166.09"/><path d="M365,770.38a3,3,0,0,1-1.17-.23,3.07,3.07,0,0,1-1.89-2.84l2.64-568.79a3,3,0,0,1,.88-2.13L557.87.91a3.06,3.06,0,0,1,4.32,0l167.34,163a3.09,3.09,0,0,1,.93,2.2V404.52a3.07,3.07,0,0,1-.9,2.16L367.13,769.49A3.07,3.07,0,0,1,365,770.38Zm5.7-570.58-2.6,560.08L724.33,403.25V167.38L560.1,7.38Z"/><polygon class="cls-1" points="3.06 399.57 364.96 767.32 369.52 198.54 177.07 3.06 3.06 172.58 3.06 399.57"/><path d="M365,770.38a3.06,3.06,0,0,1-2.19-.91L.88,401.72A3.1,3.1,0,0,1,0,399.57v-227a3,3,0,0,1,.93-2.19L174.93.87a3.06,3.06,0,0,1,4.32,0L371.71,196.39a3.09,3.09,0,0,1,.88,2.17L368,767.34a3.08,3.08,0,0,1-1.92,2.82A3,3,0,0,1,365,770.38ZM6.13,398.31,362,759.9l4.49-560.12L177,7.38,6.13,173.87Z"/><path d="M248.09,91.43H217.46a1.92,1.92,0,1,1,0-3.83h30.63a1.92,1.92,0,0,1,0,3.83Zm-76.58,0H140.88a1.92,1.92,0,1,1,0-3.83h30.63a1.92,1.92,0,0,1,0,3.83Zm-76.58,0H78a1.92,1.92,0,0,1,0-3.83h17a1.92,1.92,0,0,1,0,3.83Z"/><path d="M252,184.67a1.86,1.86,0,0,1-.73-.14,1.93,1.93,0,0,1-1-2.51c2.85-6.86,5.73-14,8.57-21.3a1.92,1.92,0,0,1,3.57,1.39c-2.85,7.3-5.74,14.49-8.6,21.38A1.92,1.92,0,0,1,252,184.67ZM272.59,131a1.87,1.87,0,0,1-.62-.1,1.93,1.93,0,0,1-1.19-2.44c3-8.72,5.34-16.06,6.9-21.8a1.91,1.91,0,1,1,3.69,1c-1.58,5.83-3.92,13.25-7,22.05A1.9,1.9,0,0,1,272.59,131Z"/><path d="M173.85,133.28a3.06,3.06,0,0,1-3-2.66c-6.31-47.57,5.63-89.45,31.16-109.3C216.34,10.16,233.12,7.57,249.23,14c35.16,14.09,46.35,45.69,33.25,93.9a3.06,3.06,0,0,1-5.91-1.6C288.89,61,279.2,32.64,247,19.72c-14-5.62-28.64-3.33-41.21,6.44-18.67,14.51-36.05,49.36-28.85,103.65a3.06,3.06,0,0,1-2.63,3.44Z"/><path d="M224,252.94a1.94,1.94,0,0,1-.63-.11,1.91,1.91,0,0,1-1.27-1.6l-5.8-52.34a1.91,1.91,0,0,1,2.61-2l41.61,16.64a1.91,1.91,0,0,1,.64,3.14l-35.81,35.7A1.92,1.92,0,0,1,224,252.94Zm-3.54-51.3,5,45.22L256.42,216Z"/><path d="M649.59,91.43h-17a1.92,1.92,0,0,1,0-3.83h17a1.92,1.92,0,1,1,0,3.83Zm-62.93,0H556a1.92,1.92,0,0,1,0-3.83h30.63a1.92,1.92,0,1,1,0,3.83Zm-76.58,0H479.45a1.92,1.92,0,0,1,0-3.83h30.63a1.92,1.92,0,1,1,0,3.83Z"/><path d="M482.11,184.67a1.9,1.9,0,0,1-1.77-1.18c-2.86-6.88-5.75-14.07-8.6-21.38a1.92,1.92,0,0,1,3.57-1.39c2.84,7.28,5.72,14.45,8.56,21.3a1.92,1.92,0,0,1-1,2.51A1.89,1.89,0,0,1,482.11,184.67ZM461.55,131a1.92,1.92,0,0,1-1.81-1.29c-3-8.8-5.39-16.22-7-22.05a1.92,1.92,0,1,1,3.7-1c1.56,5.75,3.88,13.08,6.89,21.8a1.92,1.92,0,0,1-1.18,2.44A2,2,0,0,1,461.55,131Z"/><path d="M560.3,133.28a2.83,2.83,0,0,1-.41,0,3.05,3.05,0,0,1-2.63-3.44c7.2-54.29-10.18-89.14-28.85-103.65-12.57-9.77-27.21-12.06-41.21-6.44C455,32.64,445.26,61,457.57,106.33a3.06,3.06,0,0,1-5.91,1.6c-13.09-48.21-1.9-79.81,33.26-93.9,16.11-6.46,32.89-3.87,47.25,7.29,25.53,19.85,37.47,61.73,31.16,109.3A3.07,3.07,0,0,1,560.3,133.28Z"/><path d="M510.12,252.94a2,2,0,0,1-1.35-.56L473,216.68a1.93,1.93,0,0,1,.64-3.14l41.61-16.64a1.92,1.92,0,0,1,2.62,2L512,251.23a1.92,1.92,0,0,1-1.27,1.6A2,2,0,0,1,510.12,252.94ZM477.73,216l30.93,30.84,5-45.22Z"/></g></g></svg>