<svg xmlns="http://www.w3.org/2000/svg" viewBox="0 0 965.21 770.38"><defs><style>.cls-1{fill:#fff;}</style></defs><g id="Layer_2" data-name="Layer 2"><g id="Layer_1-2" data-name="Layer 1"><polygon class="cls-1" points="962.14 283.68 486.2 767.32 481.64 198.54 674.1 3.06 962.14 283.68"/><path d="M486.2,770.38a3,3,0,0,1-3.06-3l-4.56-568.78a3,3,0,0,1,.88-2.17L671.92.91a3.06,3.06,0,0,1,4.32,0l288,280.62a3.05,3.05,0,0,1,.05,4.34L488.38,769.47A3,3,0,0,1,486.2,770.38Zm-1.49-570.6L489.2,759.9,957.8,283.73,674.14,7.38Z"/><polygon class="cls-1" points="3.06 283.68 479 767.32 483.57 198.54 291.11 3.06 3.06 283.68"/><path d="M479,770.38a3.06,3.06,0,0,1-2.19-.91L.88,285.83a3.05,3.05,0,0,1,.05-4.34L289,.87a3.06,3.06,0,0,1,4.32,0L485.75,196.39a3,3,0,0,1,.88,2.17l-4.56,568.78a3.08,3.08,0,0,1-1.92,2.82A3,3,0,0,1,479,770.38ZM7.41,283.73,476,759.9l4.49-560.12L291.06,7.38Z"/><path d="M724.57,388.53a3.06,3.06,0,0,1-1-6c62.16-20.7,105.41-51.51,130.75-73.72,27.48-24.08,40.41-43.51,40.54-43.71L895,265c43.08-58.53,33.37-99.55,23.74-118.79-13.27-26.52-41.85-43.17-74.59-43.44a234.81,234.81,0,0,0-61.68,8.06,3.07,3.07,0,0,1-1.56-5.93,243.31,243.31,0,0,1,63.29-8.26c35.05.29,65.71,18.24,80,46.83,8.17,16.34,10.74,35.65,7.41,55.84C927.92,221.73,917.27,245,900,268.57c-1,1.52-13.91,20.6-41.37,44.7-25.79,22.64-69.81,54-133.06,75.11A3.2,3.2,0,0,1,724.57,388.53Z"/><path d="M681.34,154.48a1.91,1.91,0,0,1-1-3.56c5.6-3.32,12.34-7.28,20-11.48a1.91,1.91,0,1,1,1.84,3.35c-7.58,4.18-14.3,8.12-19.86,11.42A2,2,0,0,1,681.34,154.48Zm50.72-26.92a1.91,1.91,0,0,1-.79-3.66c7.16-3.22,14.34-6.18,21.36-8.8a1.91,1.91,0,0,1,1.33,3.59c-6.93,2.58-14,5.51-21.12,8.7A1.8,1.8,0,0,1,732.06,127.56Z"/><path d="M634,184.67a1.92,1.92,0,0,1-1.58-3l29.77-43.44a1.91,1.91,0,0,1,3.27.2l20.67,39.76a1.91,1.91,0,0,1-1.56,2.79l-50.43,3.68ZM663.53,143l-25.72,37.52,43.57-3.17Z"/><path d="M841.43,387.11a1.92,1.92,0,0,1-1.91-1.92V354.56a1.92,1.92,0,0,1,3.83,0v30.63A1.92,1.92,0,0,1,841.43,387.11Zm0-76.58a1.92,1.92,0,0,1-1.91-1.92V278a1.92,1.92,0,0,1,3.83,0v30.63A1.92,1.92,0,0,1,841.43,310.53Zm0-76.58a1.92,1.92,0,0,1-1.91-1.92V201.4a1.92,1.92,0,0,1,3.83,0V232A1.92,1.92,0,0,1,841.43,234Z"/><path d="M234,388.53a3.27,3.27,0,0,1-1-.15c-63.24-21.07-107.26-52.47-133-75.11-27.46-24.1-40.36-43.18-41.37-44.7-17.32-23.54-28-46.84-31.66-69.26-3.32-20.19-.75-39.5,7.42-55.84,14.31-28.59,45-46.54,80-46.83a242.72,242.72,0,0,1,63.29,8.26,3.06,3.06,0,0,1-1.55,5.93,235.29,235.29,0,0,0-61.68-8.06c-32.74.27-61.32,16.92-74.59,43.44C30.19,165.45,20.47,206.47,63.56,265l.09.13c.13.2,13.06,19.63,40.53,43.71,25.34,22.21,68.6,53,130.76,73.72a3.06,3.06,0,0,1-1,6Z"/><path d="M277.2,154.48a1.93,1.93,0,0,1-1-.27c-5.57-3.3-12.28-7.24-19.87-11.42a1.91,1.91,0,1,1,1.85-3.35c7.63,4.2,14.38,8.16,20,11.48a1.91,1.91,0,0,1,.67,2.62A1.88,1.88,0,0,1,277.2,154.48Zm-50.72-26.92a1.8,1.8,0,0,1-.78-.17c-7.09-3.19-14.19-6.12-21.13-8.7a1.92,1.92,0,0,1,1.34-3.59c7,2.62,14.2,5.58,21.36,8.8a1.91,1.91,0,0,1-.79,3.66Z"/><path d="M324.55,184.67h-.14L274,181a1.9,1.9,0,0,1-1.56-2.79l20.66-39.76a1.91,1.91,0,0,1,3.28-.2l29.77,43.44a1.91,1.91,0,0,1,.08,2A1.93,1.93,0,0,1,324.55,184.67Zm-47.39-7.29,43.56,3.17L295,143Z"/><path d="M117.1,387.11a1.92,1.92,0,0,1-1.91-1.92V354.56a1.92,1.92,0,0,1,3.83,0v30.63A1.92,1.92,0,0,1,117.1,387.11Zm0-76.58a1.92,1.92,0,0,1-1.91-1.92V278a1.92,1.92,0,0,1,3.83,0v30.63A1.92,1.92,0,0,1,117.1,310.53Zm0-76.58a1.92,1.92,0,0,1-1.91-1.92V201.4a1.92,1.92,0,0,1,3.83,0V232A1.92,1.92,0,0,1,117.1,234Z"/></g></g></svg>