<svg xmlns="http://www.w3.org/2000/svg" viewBox="0 0 1260.47 1260.47"><defs><style>.cls-1{fill:#fff;}</style></defs><g id="Layer_2" data-name="Layer 2"><g id="Layer_1-2" data-name="Layer 1"><rect class="cls-1" x="186.76" y="186.76" width="886.96" height="886.96" transform="translate(-261.05 630.24) rotate(-45)"/><path d="M630.24,1260.47a3.06,3.06,0,0,1-2.17-.89L.9,632.4a3.05,3.05,0,0,1,0-4.33L628.07.9a3.05,3.05,0,0,1,4.33,0l627.17,627.17a3.05,3.05,0,0,1,0,4.33L632.4,1259.58A3.06,3.06,0,0,1,630.24,1260.47ZM7.4,630.24l622.84,622.84,622.84-622.84L630.24,7.4Z"/></g></g></svg>