<svg xmlns="http://www.w3.org/2000/svg" viewBox="0 0 1244.08 1244.08"><defs><style>.cls-1{fill:#fff;}</style></defs><g id="Layer_2" data-name="Layer 2"><g id="Layer_1-2" data-name="Layer 1"><rect class="cls-1" x="184.31" y="184.41" width="875.46" height="875.27" transform="translate(-257.66 622.04) rotate(-45)"/><path d="M622,1244.08a3.06,3.06,0,0,1-2.16-.89L.9,624.28a3.07,3.07,0,0,1,0-4.34l619-619a3.07,3.07,0,0,1,4.34,0l618.91,618.91a3.07,3.07,0,0,1,0,4.33L624.14,1243.19A3.08,3.08,0,0,1,622,1244.08ZM7.4,622.11,622,1236.69,1236.69,622,622.11,7.4Z"/><path d="M622,1226.24h0a1.54,1.54,0,0,1-1.53-1.53l.14-1205.34a1.53,1.53,0,0,1,1.53-1.53h0a1.54,1.54,0,0,1,1.53,1.53l-.13,1205.34A1.54,1.54,0,0,1,622,1226.24Z"/><path d="M19.37,623.64a1.53,1.53,0,0,1,0-3.06l1205.34-.14a1.54,1.54,0,0,1,0,3.07Z"/><path d="M891.52,329.38H853.23a1.91,1.91,0,1,1,0-3.82h38.29a1.91,1.91,0,1,1,0,3.82Zm-91.9,0H761.33a1.91,1.91,0,0,1,0-3.82h38.29a1.91,1.91,0,1,1,0,3.82Zm-91.89,0H669.44a1.91,1.91,0,1,1,0-3.82h38.29a1.91,1.91,0,0,1,0,3.82Zm-91.9,0H577.54a1.91,1.91,0,1,1,0-3.82h38.29a1.91,1.91,0,1,1,0,3.82Zm-91.89,0H485.65a1.91,1.91,0,1,1,0-3.82h38.29a1.91,1.91,0,0,1,0,3.82Zm-91.9,0H393.75a1.91,1.91,0,0,1,0-3.82H432a1.91,1.91,0,1,1,0,3.82Zm-91.89,0H301.86a1.91,1.91,0,1,1,0-3.82h38.29a1.91,1.91,0,0,1,0,3.82Z"/><path d="M631.54,506.21a3,3,0,0,1-1.59-.45,3.06,3.06,0,0,1-1-4.21c15.44-25.29,25-72.45,25-123.07s-9.58-97.78-25-123.08a3.06,3.06,0,1,1,5.23-3.19c16,26.2,25.92,74.58,25.92,126.27s-9.93,100.06-25.92,126.26A3.06,3.06,0,0,1,631.54,506.21Z"/><polygon points="625.38 472.38 655.98 490.18 622.06 513.29 625.38 472.38"/></g></g></svg>