<svg xmlns="http://www.w3.org/2000/svg" viewBox="0 0 1244.08 941.1"><defs><style>.cls-1{fill:#fff;}</style></defs><g id="Layer_2" data-name="Layer 2"><g id="Layer_1-2" data-name="Layer 1"><polygon class="cls-1" points="1241.02 318.99 621.97 938.04 3.06 319.13 320.65 4.1 925.09 3.06 1241.02 318.99"/><path d="M622,941.1a3,3,0,0,1-2.16-.9L.9,321.3a3.07,3.07,0,0,1,0-4.35l317.58-315A3.11,3.11,0,0,1,320.65,1L925.09,0h0a3.07,3.07,0,0,1,2.17.9l315.93,315.93a3.07,3.07,0,0,1,0,4.33l-619.05,619A3.05,3.05,0,0,1,622,941.1ZM7.4,319.14,622,933.71,1236.69,319,923.82,6.13l-601.91,1Z"/><path d="M622,923.26h0a1.54,1.54,0,0,1-1.53-1.53l.14-773.86a1.53,1.53,0,0,1,1.53-1.54h0a1.54,1.54,0,0,1,1.53,1.54l-.13,773.86A1.54,1.54,0,0,1,622,923.26Z"/><path d="M19.37,320.66a1.53,1.53,0,0,1,0-3.06l1205.34-.14a1.53,1.53,0,0,1,0,3.06Z"/><polygon class="cls-1" points="320.65 4.1 924.06 4.1 622.12 309.48 320.65 4.1"/><path d="M622.12,312.54h0a3,3,0,0,1-2.18-.91L318.47,6.25A3.06,3.06,0,0,1,320.65,1H924.06a3.06,3.06,0,0,1,2.17,5.21L624.3,311.64A3.05,3.05,0,0,1,622.12,312.54ZM328,7.16l294.15,298,294.59-298Z"/><path d="M532.59,500a3.09,3.09,0,0,1-1.59-.45,3.06,3.06,0,0,1-1-4.21c15.43-25.29,25-72.45,25-123.08s-9.59-97.78-25-123.07a3.06,3.06,0,0,1,5.23-3.19c16,26.2,25.92,74.58,25.92,126.26s-9.93,100.07-25.92,126.27A3.06,3.06,0,0,1,532.59,500Z"/><polygon points="526.43 278.31 557.03 260.51 523.11 237.4 526.43 278.31"/><path d="M1096.12,461h-29.34a1.92,1.92,0,0,1,0-3.83h29.34a1.92,1.92,0,1,1,0,3.83Zm-82.94,0H974.89a1.92,1.92,0,1,1,0-3.83h38.29a1.92,1.92,0,0,1,0,3.83Zm-91.9,0H883a1.92,1.92,0,0,1,0-3.83h38.29a1.92,1.92,0,0,1,0,3.83Zm-91.9,0H791.09a1.92,1.92,0,0,1,0-3.83h38.29a1.92,1.92,0,1,1,0,3.83Zm-91.89,0H699.2a1.92,1.92,0,1,1,0-3.83h38.29a1.92,1.92,0,0,1,0,3.83Zm-91.9,0H607.3a1.92,1.92,0,0,1,0-3.83h38.29a1.92,1.92,0,1,1,0,3.83Zm-91.89,0H515.41a1.92,1.92,0,1,1,0-3.83H553.7a1.92,1.92,0,0,1,0,3.83Zm-91.9,0H423.51a1.92,1.92,0,0,1,0-3.83H461.8a1.92,1.92,0,1,1,0,3.83Zm-91.89,0H331.62a1.92,1.92,0,1,1,0-3.83h38.29a1.92,1.92,0,0,1,0,3.83ZM278,461H239.72a1.92,1.92,0,0,1,0-3.83H278a1.92,1.92,0,0,1,0,3.83Zm-91.9,0H147.82a1.92,1.92,0,0,1,0-3.83h38.29a1.92,1.92,0,1,1,0,3.83Z"/></g></g></svg>