<?xml version="1.0" encoding="utf-8"?>
<!-- Generator: Adobe Illustrator 26.5.0, SVG Export Plug-In . SVG Version: 6.00 Build 0)  -->
<svg version="1.1" id="Layer_1" xmlns="http://www.w3.org/2000/svg" xmlns:xlink="http://www.w3.org/1999/xlink" x="0px" y="0px"
	 viewBox="0 0 1260.5 1260.5" style="enable-background:new 0 0 1260.5 1260.5;" xml:space="preserve">
<style type="text/css">
	.st0{fill:#FFFFFF;}
	.st1{stroke:#000000;stroke-miterlimit:10;}
</style>
<g id="Layer_2_00000042722188723571890530000001027797280114013574_">
	<g id="Layer_1-2">
		<polygon class="st0" points="1248,630.9 628.9,1250 10,631.1 327.6,316 932.1,315 		"/>
		<path class="st1" d="M629,1253c-0.8,0-1.6-0.3-2.2-0.9L7.9,633.2c-1.2-1.2-1.2-3.1,0-4.3l0,0l317.6-315c0.6-0.6,1.3-0.9,2.2-0.9
			l604.4-1l0,0c0.8,0,1.6,0.3,2.2,0.9l315.9,315.9c1.2,1.2,1.2,3.1,0,4.3l-619,619C630.5,1252.7,629.8,1253,629,1253z M14.4,631.1
			L629,1245.7L1243.7,631L930.8,318.1l-601.9,1L14.4,631.1z"/>
		<path d="M629,1235.2L629,1235.2c-0.8,0-1.5-0.7-1.5-1.5l0.1-773.9c0-0.8,0.7-1.5,1.5-1.5l0,0l0,0c0.8,0,1.5,0.7,1.5,1.5
			l-0.1,773.9C630.5,1234.5,629.8,1235.2,629,1235.2z"/>
		<path d="M26.3,632.6c-0.8,0-1.5-0.7-1.5-1.5s0.7-1.5,1.5-1.5l1205.3-0.1c0.8,0,1.5,0.7,1.5,1.5s-0.7,1.5-1.5,1.5L26.3,632.6z"/>
		<polygon class="st0" points="327.6,316 931,316 629.1,621.4 		"/>
		<path class="st1" d="M629.1,624.5L629.1,624.5c-0.8,0-1.6-0.3-2.2-0.9L325.4,318.2c-1.2-1.2-1.2-3.1-0.1-4.3
			c0.6-0.6,1.4-0.9,2.2-0.9H931c1.7,0,3.1,1.4,3.1,3.1c0,0.8-0.3,1.6-0.9,2.1L631.3,623.6C630.7,624.2,629.9,624.5,629.1,624.5z
			 M335,319.1l294.1,298l294.6-298L335,319.1L335,319.1z"/>
		<path class="st1" d="M539.6,811.9c-0.6,0-1.1-0.2-1.6-0.4c-1.4-0.9-1.9-2.8-1-4.2c15.4-25.3,25-72.5,25-123.1s-9.6-97.8-25-123.1
			c-0.9-1.4-0.4-3.3,1-4.2s3.3-0.4,4.2,1c16,26.2,25.9,74.6,25.9,126.3s-9.9,100.1-25.9,126.3C541.6,811.4,540.6,812,539.6,811.9z"
			/>
		<polygon points="533.4,590.3 564,572.5 530.1,549.3 		"/>
		<path d="M1103.1,772.9h-29.3c-1.1-0.1-1.9-1-1.8-2.1c0.1-1,0.8-1.7,1.8-1.8h29.3c1.1-0.1,2,0.7,2.1,1.8s-0.7,2-1.8,2.1
			C1103.3,773,1103.2,773,1103.1,772.9z M1020.1,772.9h-38.3c-1.1,0.1-2-0.7-2.1-1.8s0.7-2,1.8-2.1c0.1,0,0.2,0,0.3,0h38.3
			c1.1,0.1,1.9,1,1.8,2.1C1021.8,772.1,1021.1,772.9,1020.1,772.9z M928.2,772.9H890c-1.1-0.1-1.9-1-1.8-2.1c0.1-1,0.8-1.7,1.8-1.8
			h38.3c1.1,0.1,1.9,1,1.8,2.1C930,772.1,929.2,772.9,928.2,772.9L928.2,772.9z M836.3,772.9H798c-1.1-0.1-1.9-1-1.8-2.1
			c0.1-1,0.8-1.7,1.8-1.8h38.3c1.1-0.1,2,0.7,2.1,1.8s-0.7,2-1.8,2.1C836.5,773,836.4,773,836.3,772.9L836.3,772.9z M744.5,772.9
			h-38.3c-1.1,0.1-2-0.7-2.1-1.8s0.7-2,1.8-2.1c0.1,0,0.2,0,0.3,0h38.3c1.1,0.1,1.9,1,1.8,2.1C746.2,772.1,745.4,772.9,744.5,772.9
			L744.5,772.9z M652.6,772.9h-38.3c-1.1-0.1-1.9-1-1.8-2.1c0.1-1,0.8-1.7,1.8-1.8h38.3c1.1-0.1,2,0.7,2.1,1.8s-0.7,2-1.8,2.1
			C652.7,773,652.6,773,652.6,772.9L652.6,772.9z M560.7,772.9h-38.3c-1.1,0.1-2-0.7-2.1-1.8s0.7-2,1.8-2.1c0.1,0,0.2,0,0.3,0h38.3
			c1.1,0.1,1.9,1,1.8,2.1C562.4,772.1,561.6,772.9,560.7,772.9L560.7,772.9z M468.8,772.9h-38.3c-1.1-0.1-1.9-1-1.8-2.1
			c0.1-1,0.8-1.7,1.8-1.8h38.3c1.1-0.1,2,0.7,2.1,1.8s-0.7,2-1.8,2.1C468.9,773,468.9,773,468.8,772.9L468.8,772.9z M376.9,772.9
			h-38.3c-1.1,0.1-2-0.7-2.1-1.8s0.7-2,1.8-2.1c0.1,0,0.2,0,0.3,0h38.3c1.1,0.1,1.9,1,1.8,2.1C378.6,772.1,377.8,772.9,376.9,772.9
			L376.9,772.9z M285,772.9h-38.3c-1.1-0.1-1.9-1-1.8-2.1c0.1-1,0.8-1.7,1.8-1.8H285c1.1,0.1,1.9,1,1.8,2.1
			C286.7,772.1,285.9,772.9,285,772.9z M193.1,772.9h-38.3c-1.1-0.1-1.9-1-1.8-2.1c0.1-1,0.8-1.7,1.8-1.8h38.3
			c1.1-0.1,2,0.7,2.1,1.8s-0.7,2-1.8,2.1C193.3,773,193.2,773,193.1,772.9L193.1,772.9z"/>
	</g>
</g>
</svg>
