<?xml version="1.0" encoding="utf-8"?>
<!-- Generator: Adobe Illustrator 26.5.0, SVG Export Plug-In . SVG Version: 6.00 Build 0)  -->
<svg version="1.1" id="Layer_1" xmlns="http://www.w3.org/2000/svg" xmlns:xlink="http://www.w3.org/1999/xlink" x="0px" y="0px"
	 viewBox="0 0 1260.5 1260.5" style="enable-background:new 0 0 1260.5 1260.5;" xml:space="preserve">
<style type="text/css">
	.st0{fill:#FFFFFF;}
	.st1{stroke:#000000;stroke-width:3;stroke-miterlimit:10;}
</style>
<g id="Layer_2_00000034782270426162395130000018078943912573266319_">
	<g id="Layer_1-2_00000108284577829410169470000008455805226442424240_">
		<polygon class="st0" points="920.1,301.4 920.1,493 628.9,784.4 631.1,327.5 785.7,170.5 		"/>
		<path class="st1" d="M629,786.8c-0.3,0-0.6-0.1-0.9-0.2c-0.9-0.4-1.5-1.3-1.5-2.3l2.1-456.9c0-0.6,0.3-1.3,0.7-1.7l154.6-157
			c1-1,2.5-1,3.5,0l134.4,130.9c0.5,0.5,0.7,1.1,0.7,1.8V493c0,0.7-0.3,1.3-0.7,1.7L630.7,786.1C630.2,786.6,629.6,786.8,629,786.8z
			 M633.5,328.5l-2.1,449.9l286.2-286.5V302.5L785.7,173.9L633.5,328.5z"/>
		<polygon class="st0" points="338.2,489 628.9,784.4 632.6,327.5 478,170.5 338.2,306.6 		"/>
		<path class="st1" d="M629,786.8c-0.7,0-1.3-0.3-1.8-0.7L336.5,490.7c-0.5-0.5-0.7-1.1-0.7-1.7V306.6c0-0.7,0.3-1.3,0.7-1.8
			l139.8-136.2c1-1,2.5-1,3.5,0l154.6,157.1c0.5,0.5,0.7,1.1,0.7,1.7l-3.7,456.9c0,1-0.6,1.9-1.5,2.3
			C629.6,786.8,629.3,786.8,629,786.8z M340.7,488l285.9,290.5l3.6-449.9L478,173.9L340.7,307.7V488z"/>
		<path d="M535.1,241.5h-24.6c-0.8,0.1-1.6-0.6-1.6-1.4c-0.1-0.8,0.6-1.6,1.4-1.6c0.1,0,0.1,0,0.2,0h24.6c0.8,0.1,1.5,0.8,1.4,1.6
			C536.4,240.8,535.8,241.4,535.1,241.5L535.1,241.5z M473.5,241.5h-24.6c-0.8,0.1-1.6-0.6-1.6-1.4c-0.1-0.8,0.6-1.6,1.4-1.6
			c0.1,0,0.1,0,0.2,0h24.6c0.8,0.1,1.5,0.8,1.4,1.6C474.9,240.8,474.3,241.4,473.5,241.5L473.5,241.5z M412,241.5h-13.6
			c-0.8-0.1-1.5-0.8-1.4-1.6s0.7-1.4,1.4-1.4h13.7c0.8,0.1,1.5,0.8,1.4,1.6C413.5,240.8,412.8,241.4,412,241.5L412,241.5z"/>
		<path class="st1" d="M538.2,316.4c-0.2,0-0.4,0-0.6-0.1c-0.8-0.3-1.1-1.2-0.8-2c2.3-5.5,4.6-11.2,6.9-17.1
			c0.4-0.8,1.3-1.1,2.1-0.7c0.7,0.3,1,1.1,0.8,1.9c-2.3,5.9-4.6,11.6-6.9,17.2C539.4,316,538.8,316.4,538.2,316.4z M554.7,273.2
			c-0.2,0-0.3,0-0.5-0.1c-0.8-0.3-1.2-1.2-1-2c2.4-7,4.3-12.9,5.5-17.5c0.2-0.8,1.1-1.3,1.9-1.1c0.8,0.2,1.3,1.1,1.1,1.9
			c-1.3,4.7-3.1,10.6-5.6,17.7C556,272.8,555.4,273.2,554.7,273.2z"/>
		<path class="st1" d="M475.4,275.1c-1.2,0-2.3-0.9-2.4-2.1c-5.1-38.2,4.5-71.9,25-87.8c11.5-9,25-11,37.9-5.9
			c28.2,11.3,37.2,36.7,26.7,75.4c-0.4,1.3-1.7,2.1-3,1.7s-2.1-1.7-1.7-3l0,0c9.9-36.4,2.1-59.2-23.8-69.5
			c-11.2-4.5-23-2.7-33.1,5.2c-15,11.7-29,39.6-23.2,83.3c0.2,1.3-0.8,2.6-2.1,2.8l0,0L475.4,275.1z"/>
		<path class="st1" d="M515.7,371.2c-0.2,0-0.3,0-0.5-0.1c-0.6-0.2-1-0.7-1-1.3l-4.7-42c-0.1-0.8,0.5-1.6,1.3-1.7
			c0.3,0,0.5,0,0.8,0.1l33.4,13.4c0.8,0.3,1.2,1.2,0.9,2c-0.1,0.2-0.2,0.4-0.4,0.5l-28.8,28.7C516.5,371,516.1,371.2,515.7,371.2z
			 M512.9,330l4,36.3l24.9-24.8L512.9,330z"/>
		<path d="M857.6,241.5h-13.7c-0.8-0.1-1.5-0.8-1.4-1.6s0.7-1.4,1.4-1.4h13.7c0.8-0.1,1.6,0.6,1.6,1.4c0.1,0.8-0.6,1.6-1.4,1.6
			C857.7,241.5,857.6,241.5,857.6,241.5z M807,241.5h-24.6c-0.8-0.1-1.5-0.8-1.4-1.6s0.7-1.4,1.4-1.4H807c0.8-0.1,1.6,0.6,1.6,1.4
			c0.1,0.8-0.6,1.6-1.4,1.6C807.1,241.5,807.1,241.5,807,241.5L807,241.5z M745.5,241.5h-24.6c-0.8-0.1-1.5-0.8-1.4-1.6
			s0.7-1.4,1.4-1.4h24.6c0.8-0.1,1.6,0.6,1.6,1.4c0.1,0.8-0.6,1.6-1.4,1.6C745.7,241.5,745.6,241.5,745.5,241.5z"/>
		<path class="st1" d="M723,316.4c-0.6,0-1.2-0.4-1.4-0.9c-2.3-5.5-4.6-11.3-6.9-17.2c-0.3-0.8,0.2-1.7,1-1.9
			c0.7-0.2,1.5,0.1,1.9,0.8c2.3,5.8,4.6,11.6,6.9,17.1c0.3,0.8,0,1.7-0.8,2C723.5,316.3,723.3,316.4,723,316.4z M706.5,273.2
			c-0.7,0-1.2-0.4-1.5-1c-2.4-7.1-4.3-13-5.6-17.7c-0.3-0.8,0.2-1.7,1-2s1.7,0.2,2,1c0,0.1,0,0.1,0,0.2c1.3,4.6,3.1,10.5,5.5,17.5
			c0.3,0.8-0.1,1.7-0.9,2C706.9,273.2,706.7,273.2,706.5,273.2z"/>
		<path class="st1" d="M785.8,275.1c-0.1,0-0.2,0-0.3,0c-1.3-0.2-2.3-1.4-2.1-2.7l0,0c5.8-43.6-8.2-71.6-23.2-83.3
			c-10.1-7.8-21.9-9.7-33.1-5.2c-25.9,10.4-33.7,33.1-23.8,69.5c0.4,1.3-0.4,2.7-1.7,3c-1.3,0.4-2.7-0.4-3-1.7l0,0
			c-10.5-38.7-1.5-64.1,26.7-75.4c12.9-5.2,26.4-3.1,38,5.9c20.5,15.9,30.1,49.6,25,87.8C788.1,274.2,787.1,275.1,785.8,275.1z"/>
		<path class="st1" d="M745.5,371.2c-0.4,0-0.8-0.2-1.1-0.4l-28.7-28.7c-0.6-0.6-0.6-1.6,0-2.2c0.1-0.1,0.3-0.3,0.5-0.3l33.4-13.4
			c0.8-0.3,1.7,0.1,2,0.9c0.1,0.2,0.1,0.5,0.1,0.7l-4.7,42c-0.1,0.6-0.5,1.1-1,1.3C745.9,371.2,745.7,371.2,745.5,371.2z
			 M719.5,341.5l24.8,24.8l4-36.3L719.5,341.5z"/>
	</g>
</g>
</svg>
