<svg xmlns="http://www.w3.org/2000/svg" viewBox="0 0 1260.47 1260.47"><defs><style>.cls-1{fill:#fff;}</style></defs><g id="Layer_2" data-name="Layer 2"><g id="Layer_1-2" data-name="Layer 1"><rect class="cls-1" x="186.76" y="186.76" width="886.96" height="886.96" transform="translate(-261.05 630.24) rotate(-45)"/><path d="M630.24,1260.47a3.06,3.06,0,0,1-2.17-.89L.9,632.4a3.05,3.05,0,0,1,0-4.33L628.07.9a3.05,3.05,0,0,1,4.33,0l627.17,627.17a3.05,3.05,0,0,1,0,4.33L632.4,1259.58A3.06,3.06,0,0,1,630.24,1260.47ZM7.4,630.24l622.84,622.84,622.84-622.84L630.24,7.4Z"/><path d="M630.24,1242.8a1.92,1.92,0,0,1-1.92-1.92v-19.14a1.92,1.92,0,1,1,3.83,0v19.14A1.92,1.92,0,0,1,630.24,1242.8Z"/><path d="M630.24,1168.81a1.92,1.92,0,0,1-1.92-1.91v-39.18a1.92,1.92,0,0,1,3.83,0v39.18A1.92,1.92,0,0,1,630.24,1168.81Zm0-94a1.92,1.92,0,0,1-1.92-1.92v-39.17a1.92,1.92,0,0,1,3.83,0v39.17A1.92,1.92,0,0,1,630.24,1074.8Zm0-94a1.91,1.91,0,0,1-1.92-1.91V939.7a1.92,1.92,0,1,1,3.83,0v39.17A1.91,1.91,0,0,1,630.24,980.78Zm0-94a1.92,1.92,0,0,1-1.92-1.91V845.68a1.92,1.92,0,0,1,3.83,0v39.18A1.92,1.92,0,0,1,630.24,886.77Zm0-94a1.92,1.92,0,0,1-1.92-1.92V751.67a1.92,1.92,0,0,1,3.83,0v39.17A1.92,1.92,0,0,1,630.24,792.76Zm0-94a1.91,1.91,0,0,1-1.92-1.91V657.66a1.92,1.92,0,1,1,3.83,0v39.17A1.91,1.91,0,0,1,630.24,698.74Zm0-94a1.92,1.92,0,0,1-1.92-1.91V563.64a1.92,1.92,0,0,1,3.83,0v39.18A1.92,1.92,0,0,1,630.24,604.73Zm0-94a1.92,1.92,0,0,1-1.92-1.92V469.63a1.92,1.92,0,0,1,3.83,0V508.8A1.92,1.92,0,0,1,630.24,510.72Zm0-94a1.91,1.91,0,0,1-1.92-1.91V375.62a1.92,1.92,0,1,1,3.83,0v39.17A1.91,1.91,0,0,1,630.24,416.7Zm0-94a1.92,1.92,0,0,1-1.92-1.91V281.6a1.92,1.92,0,0,1,3.83,0v39.18A1.92,1.92,0,0,1,630.24,322.69Zm0-94a1.92,1.92,0,0,1-1.92-1.92V187.59a1.92,1.92,0,0,1,3.83,0v39.17A1.92,1.92,0,0,1,630.24,228.68Zm0-94a1.91,1.91,0,0,1-1.92-1.91V93.58a1.92,1.92,0,1,1,3.83,0v39.17A1.91,1.91,0,0,1,630.24,134.66Z"/><path d="M630.24,40.65a1.92,1.92,0,0,1-1.92-1.92V19.59a1.92,1.92,0,0,1,3.83,0V38.73A1.92,1.92,0,0,1,630.24,40.65Z"/><path d="M1240.88,632.15h-19.14a1.92,1.92,0,1,1,0-3.83h19.14a1.92,1.92,0,1,1,0,3.83Z"/><path d="M1166.9,632.15h-39.18a1.92,1.92,0,0,1,0-3.83h39.18a1.92,1.92,0,0,1,0,3.83Zm-94,0h-39.17a1.92,1.92,0,0,1,0-3.83h39.17a1.92,1.92,0,1,1,0,3.83Zm-94,0H939.7a1.92,1.92,0,1,1,0-3.83h39.17a1.92,1.92,0,0,1,0,3.83Zm-94,0H845.68a1.92,1.92,0,0,1,0-3.83h39.18a1.92,1.92,0,0,1,0,3.83Zm-94,0H751.67a1.92,1.92,0,0,1,0-3.83h39.17a1.92,1.92,0,1,1,0,3.83Zm-94,0H657.66a1.92,1.92,0,1,1,0-3.83h39.17a1.92,1.92,0,0,1,0,3.83Zm-94,0H563.64a1.92,1.92,0,0,1,0-3.83h39.18a1.92,1.92,0,0,1,0,3.83Zm-94,0H469.63a1.92,1.92,0,0,1,0-3.83H508.8a1.92,1.92,0,1,1,0,3.83Zm-94,0H375.62a1.92,1.92,0,1,1,0-3.83h39.17a1.92,1.92,0,0,1,0,3.83Zm-94,0H281.6a1.92,1.92,0,0,1,0-3.83h39.18a1.92,1.92,0,0,1,0,3.83Zm-94,0H187.59a1.92,1.92,0,0,1,0-3.83h39.17a1.92,1.92,0,1,1,0,3.83Zm-94,0H93.58a1.92,1.92,0,1,1,0-3.83h39.17a1.92,1.92,0,0,1,0,3.83Z"/><path d="M38.73,632.15H19.59a1.92,1.92,0,0,1,0-3.83H38.73a1.92,1.92,0,1,1,0,3.83Z"/><path d="M656.39,848.25a3,3,0,0,1-1.47-.38,3,3,0,0,1-1.21-4.15C678.81,798,702.14,706.14,698.16,619c-3.19-70-15-113-32.62-147.28,1.05,3.57,2.08,7.36,3.05,11.35,5.77,23.66,10.42,58.92-.2,92.56a3.07,3.07,0,0,1-5.85-1.84c19.55-61.92-14.28-131-14.62-131.68L653.2,439c27.61,40.92,46.86,87.13,51.08,179.68,4,88.3-19.69,181.53-45.2,228A3.06,3.06,0,0,1,656.39,848.25Z"/><polygon points="650.84 809.01 689.07 828.98 649.06 859 650.84 809.01"/><path d="M439,599.85l-3.53-5c39.69-29.35,85-50.59,177.31-58.82,88-7.84,182.2,11.81,229.71,35.29a3.06,3.06,0,0,1-2.71,5.49c-46.74-23.1-139.54-42.43-226.46-34.67-63.68,5.68-104.59,17.59-136.74,34.11a244.89,244.89,0,0,1,25.59-6.82A267.55,267.55,0,0,1,578,564.66c32.28,2.49,65.2,10.61,97.84,24.14a3.06,3.06,0,1,1-2.35,5.66c-72.37-30-132.24-27-169.73-19.1C463.06,583.87,439.21,599.69,439,599.85Z"/><polygon points="805.21 581.18 823.5 542.12 855.23 580.79 805.21 581.18"/></g></g></svg>