<?xml version="1.0" encoding="UTF-8"?><svg id="Layer_2" xmlns="http://www.w3.org/2000/svg" viewBox="0 0 1142 193.39"><defs><style>.cls-1{letter-spacing:0em;}.cls-2{letter-spacing:0em;}.cls-3{letter-spacing:0em;}.cls-4{letter-spacing:.02em;}.cls-5{fill:gray;}.cls-5,.cls-6,.cls-7,.cls-8{font-family:MyriadPro-Regular, 'Myriad Pro';}.cls-5,.cls-7{font-size:24px;}.cls-9{letter-spacing:0em;}.cls-10{fill:#999;}.cls-6{fill:#333;}.cls-6,.cls-8{font-size:30px;}.cls-11{stroke:#333;}.cls-11,.cls-12,.cls-13{fill:none;stroke-width:2px;}.cls-12,.cls-13{stroke:#999;}.cls-14{letter-spacing:-.01em;}.cls-15{letter-spacing:0em;}.cls-16{letter-spacing:0em;}.cls-17{letter-spacing:0em;}.cls-18{letter-spacing:-.08em;}.cls-19{letter-spacing:-.01em;}.cls-13{stroke-dasharray:0 0 4 4;}.cls-20{letter-spacing:.01em;}</style></defs><g id="Layer_1-2"><path class="cls-10" d="M1138.02,78.83c-5.11-14.03-15.23-25.16-27.09-29.77-10.43-4.07-22.32-4.34-30.45-3.85-5.63,.34-11.43,1.16-16.77,2.38-13.31,3.03-23.62,10.95-30.64,23.53-3.86,6.91-5.44,14.46-4.44,21.27,.95,6.46,.91,11.38-2.22,15.93l-.56,.81c-8.1,11.75-8.13,11.94-8.17,12.26-.42,2.92,3.99,5.22,7.21,6.89,.93,.48,1.74,.9,2.06,1.14,1.95,1.72,1.24,2.94-.3,5.14-.93,1.32-1.98,2.82-1.91,4.56,.06,1.65,1.4,2.36,2.28,2.82,.27,.14,.67,.35,.73,.37,0,0-.04,.18-.43,.59l-.14,.14c-1.03,1.05-2.19,2.23-.55,4.04,.08,.08,.17,.15,.27,.2,1.62,.7,1.59,4.29,1.19,6.12-.02,.7-.08,1.4-.14,2.09-.29,3.37-.62,7.18,4.56,9.25,3.46,1.39,6.98,1.01,10.39,.65,1.88-.2,3.83-.41,5.7-.3,.03,0,.06,0,.09,0,2.19,.14,4.04,.54,5.93,2.04,2.29,1.82,4.4,7.03,5.12,11.02,.07,.39,.14,1.16,.22,2.12,.58,6.57,1.18,9.7,3.01,9.73l57.72,1.07h.01c.26,0,.51-.13,.66-.34,.15-.22,.19-.5,.09-.75-3.62-9.29-7.23-22.49-3.88-32.62,2-6.03,5.79-11.37,9.46-16.53,3.83-5.38,7.78-10.94,9.87-17.44,3.93-12.22,6.28-30.35,1.11-44.58h0Z"/><g><text class="cls-7" transform="translate(1031.62 22.02)"><tspan class="cls-14" x="0" y="0">A</tspan><tspan class="cls-1" x="14.4" y="0">udien</tspan><tspan class="cls-15" x="72.12" y="0">c</tspan><tspan x="82.73" y="0">e</tspan></text><text class="cls-5" transform="translate(1031.62 22.02)"><tspan class="cls-14" x="0" y="0">A</tspan><tspan class="cls-1" x="14.4" y="0">udien</tspan><tspan class="cls-15" x="72.12" y="0">c</tspan><tspan x="82.73" y="0">e</tspan></text></g><path class="cls-10" d="M12.87,78.88c-5.17,14.23-2.82,32.36,1.11,44.58,2.09,6.49,6.04,12.06,9.87,17.44,3.67,5.16,7.47,10.5,9.46,16.53,3.34,10.14-.27,23.34-3.88,32.62-.1,.25-.06,.53,.09,.75,.15,.22,.4,.34,.66,.34h.01l57.72-1.07c1.83-.03,2.43-3.17,3.01-9.73,.09-.96,.15-1.73,.22-2.12,.72-3.99,2.82-9.2,5.12-11.02,1.88-1.5,3.73-1.9,5.93-2.04,.03,0,.06,0,.09,0,1.87-.11,3.82,.1,5.7,.3,3.4,.37,6.92,.74,10.39-.65,5.18-2.07,4.85-5.89,4.56-9.25-.06-.69-.12-1.39-.14-2.09-.39-1.83-.42-5.42,1.19-6.12,.1-.05,.2-.11,.27-.2,1.64-1.8,.48-2.99-.55-4.04l-.14-.14c-.4-.41-.43-.58-.43-.59,.06-.02,.46-.23,.73-.37,.88-.46,2.21-1.17,2.28-2.82,.07-1.74-.98-3.24-1.91-4.56-1.54-2.2-2.25-3.42-.3-5.14,.33-.24,1.13-.66,2.06-1.14,3.22-1.68,7.63-3.97,7.21-6.89-.04-.32-.07-.52-8.17-12.26l-.56-.81c-3.13-4.54-3.17-9.46-2.22-15.93,1-6.81-.58-14.36-4.44-21.27-7.02-12.58-17.33-20.49-30.64-23.53-5.33-1.22-11.13-2.04-16.77-2.38-8.13-.49-20.01-.22-30.45,3.85-11.85,4.61-21.98,15.74-27.09,29.77h0Z"/><g><text class="cls-7" transform="translate(44.22 22.02)"><tspan class="cls-18" x="0" y="0">Y</tspan><tspan x="11.16" y="0">ou</tspan></text><text class="cls-5" transform="translate(44.22 22.02)"><tspan class="cls-18" x="0" y="0">Y</tspan><tspan x="11.16" y="0">ou</tspan></text></g></g><g id="Artifact"><g><text class="cls-8" transform="translate(528.64 123.97)"><tspan class="cls-3" x="0" y="0">A</tspan><tspan class="cls-4" x="18.27" y="0">r</tspan><tspan x="28.8" y="0">tifa</tspan><tspan class="cls-20" x="68.97" y="0">c</tspan><tspan x="82.8" y="0">t</tspan></text><text class="cls-6" transform="translate(528.64 123.97)"><tspan class="cls-3" x="0" y="0">A</tspan><tspan class="cls-4" x="18.27" y="0">r</tspan><tspan x="28.8" y="0">tifa</tspan><tspan class="cls-20" x="68.97" y="0">c</tspan><tspan x="82.8" y="0">t</tspan></text><rect class="cls-11" x="458.37" y="88.86" width="233.27" height="52.61"/></g><g><line class="cls-12" x1="701" y1="117.36" x2="703" y2="117.36"/><line class="cls-13" x1="707" y1="117.36" x2="936.93" y2="117.36"/><line class="cls-12" x1="938.93" y1="117.36" x2="940.93" y2="117.36"/><path class="cls-10" d="M953,117.36c-5.68,2.11-12.73,5.7-17.09,9.51l3.44-9.51-3.44-9.51c4.37,3.81,11.42,7.4,17.09,9.51Z"/></g><g><line class="cls-12" x1="197" y1="117.36" x2="199" y2="117.36"/><line class="cls-13" x1="203" y1="117.36" x2="432.93" y2="117.36"/><line class="cls-12" x1="434.93" y1="117.36" x2="436.93" y2="117.36"/><path class="cls-10" d="M449,117.36c-5.68,2.11-12.73,5.7-17.09,9.51l3.44-9.51-3.44-9.51c4.37,3.81,11.42,7.4,17.09,9.51Z"/></g><g><text class="cls-7" transform="translate(772.19 187.39)"><tspan class="cls-19" x="0" y="0">P</tspan><tspan x="12.41" y="0">ublish</tspan></text><text class="cls-5" transform="translate(772.19 187.39)"><tspan class="cls-19" x="0" y="0">P</tspan><tspan x="12.41" y="0">ublish</tspan></text></g><g><text class="cls-7" transform="translate(281.5 187.39)"><tspan class="cls-2" x="0" y="0">C</tspan><tspan class="cls-17" x="13.85" y="0">r</tspan><tspan x="21.46" y="0">e</tspan><tspan class="cls-16" x="33.48" y="0">a</tspan><tspan class="cls-9" x="44.95" y="0">t</tspan><tspan class="cls-1" x="52.75" y="0">e</tspan></text><text class="cls-5" transform="translate(281.5 187.39)"><tspan class="cls-2" x="0" y="0">C</tspan><tspan class="cls-17" x="13.85" y="0">r</tspan><tspan x="21.46" y="0">e</tspan><tspan class="cls-16" x="33.48" y="0">a</tspan><tspan class="cls-9" x="44.95" y="0">t</tspan><tspan class="cls-1" x="52.75" y="0">e</tspan></text></g></g></svg>