<?xml version="1.0" encoding="UTF-8"?><svg id="Layer_2" xmlns="http://www.w3.org/2000/svg" viewBox="0 0 1134 193.39"><defs><style>.cls-1{letter-spacing:0em;}.cls-2{letter-spacing:0em;}.cls-3{letter-spacing:0em;}.cls-4{letter-spacing:.02em;}.cls-5,.cls-6{fill:gray;}.cls-5,.cls-7,.cls-8,.cls-9{font-family:MyriadPro-Regular, 'Myriad Pro';}.cls-5,.cls-8{font-size:24px;}.cls-10{letter-spacing:0em;}.cls-11{fill:#999;}.cls-7{fill:#333;}.cls-7,.cls-9{font-size:30px;}.cls-12{stroke:#333;}.cls-12,.cls-13,.cls-14{fill:none;stroke-width:2px;}.cls-13,.cls-14{stroke:#999;}.cls-15{letter-spacing:-.01em;}.cls-16{letter-spacing:0em;}.cls-17{letter-spacing:0em;}.cls-18{letter-spacing:0em;}.cls-19{letter-spacing:-.08em;}.cls-20{letter-spacing:-.01em;}.cls-14{stroke-dasharray:0 0 4 4;}.cls-21{letter-spacing:.01em;}</style></defs><g id="Layer_1-2"><path class="cls-6" d="M14.25,188.57H80.87c-1.76-10.78-2.21-19.26,.62-29.54,6.26-.21,20.27,3.29,29.02,1.54,1.75-5.25,3.5-12.25,3.5-17.5v-3.5l3.5-1.75c.44-7,.22-8.02,0-14,1.75,0,7,0,8.75-1.75-1.75-7-8.53-17.06-14-24.5,5.47-41.56-19.25-59.5-59.5-59.5C21.25,38.07,.25,62.56,.25,88.82s12.25,38.5,24.28,50.97c-.32,19.38-3.69,32.98-10.28,48.78h0Z"/><path class="cls-6" d="M1119.75,188.57c-6.59-15.8-9.96-29.4-10.28-48.78,12.03-12.47,24.28-24.72,24.28-50.97,0-26.25-21-50.75-52.5-50.75-40.25,0-64.97,17.94-59.5,59.5-5.47,7.44-12.25,17.5-14,24.5,1.75,1.75,7,1.75,8.75,1.75-.22,5.98-.44,7,0,14l3.5,1.75v3.5c0,5.25,1.75,12.25,3.5,17.5,8.75,1.75,22.75-1.75,29.02-1.54,2.83,10.29,2.38,18.77,.62,29.54h66.62s0,0,0,0Z"/><g><text class="cls-8" transform="translate(1023.62 22.02)"><tspan class="cls-15" x="0" y="0">A</tspan><tspan class="cls-1" x="14.4" y="0">udien</tspan><tspan class="cls-16" x="72.12" y="0">c</tspan><tspan x="82.73" y="0">e</tspan></text><text class="cls-5" transform="translate(1023.62 22.02)"><tspan class="cls-15" x="0" y="0">A</tspan><tspan class="cls-1" x="14.4" y="0">udien</tspan><tspan class="cls-16" x="72.12" y="0">c</tspan><tspan x="82.73" y="0">e</tspan></text></g><g><text class="cls-8" transform="translate(44.22 22.02)"><tspan class="cls-19" x="0" y="0">Y</tspan><tspan x="11.16" y="0">ou</tspan></text><text class="cls-5" transform="translate(44.22 22.02)"><tspan class="cls-19" x="0" y="0">Y</tspan><tspan x="11.16" y="0">ou</tspan></text></g></g><g id="Artifact"><g><text class="cls-9" transform="translate(520.64 123.97)"><tspan class="cls-3" x="0" y="0">A</tspan><tspan class="cls-4" x="18.27" y="0">r</tspan><tspan x="28.8" y="0">tifa</tspan><tspan class="cls-21" x="68.97" y="0">c</tspan><tspan x="82.8" y="0">t</tspan></text><text class="cls-7" transform="translate(520.64 123.97)"><tspan class="cls-3" x="0" y="0">A</tspan><tspan class="cls-4" x="18.27" y="0">r</tspan><tspan x="28.8" y="0">tifa</tspan><tspan class="cls-21" x="68.97" y="0">c</tspan><tspan x="82.8" y="0">t</tspan></text><rect class="cls-12" x="450.37" y="88.86" width="233.27" height="52.61"/></g><g><line class="cls-13" x1="693" y1="117.36" x2="695" y2="117.36"/><line class="cls-14" x1="699" y1="117.36" x2="928.93" y2="117.36"/><line class="cls-13" x1="930.93" y1="117.36" x2="932.93" y2="117.36"/><path class="cls-11" d="M945,117.36c-5.68,2.11-12.73,5.7-17.09,9.51l3.44-9.51-3.44-9.51c4.37,3.81,11.42,7.4,17.09,9.51Z"/></g><g><line class="cls-13" x1="189" y1="117.36" x2="191" y2="117.36"/><line class="cls-14" x1="195" y1="117.36" x2="424.93" y2="117.36"/><line class="cls-13" x1="426.93" y1="117.36" x2="428.93" y2="117.36"/><path class="cls-11" d="M441,117.36c-5.68,2.11-12.73,5.7-17.09,9.51l3.44-9.51-3.44-9.51c4.37,3.81,11.42,7.4,17.09,9.51Z"/></g><g><text class="cls-8" transform="translate(764.19 187.39)"><tspan class="cls-20" x="0" y="0">P</tspan><tspan x="12.41" y="0">ublish</tspan></text><text class="cls-5" transform="translate(764.19 187.39)"><tspan class="cls-20" x="0" y="0">P</tspan><tspan x="12.41" y="0">ublish</tspan></text></g><g><text class="cls-8" transform="translate(273.5 187.39)"><tspan class="cls-2" x="0" y="0">C</tspan><tspan class="cls-18" x="13.85" y="0">r</tspan><tspan x="21.46" y="0">e</tspan><tspan class="cls-17" x="33.48" y="0">a</tspan><tspan class="cls-10" x="44.95" y="0">t</tspan><tspan class="cls-1" x="52.75" y="0">e</tspan></text><text class="cls-5" transform="translate(273.5 187.39)"><tspan class="cls-2" x="0" y="0">C</tspan><tspan class="cls-18" x="13.85" y="0">r</tspan><tspan x="21.46" y="0">e</tspan><tspan class="cls-17" x="33.48" y="0">a</tspan><tspan class="cls-10" x="44.95" y="0">t</tspan><tspan class="cls-1" x="52.75" y="0">e</tspan></text></g></g></svg>