<?xml version="1.0" encoding="UTF-8"?><svg id="Layer" xmlns="http://www.w3.org/2000/svg" viewBox="0 0 557.94 566.19"><defs><style>.cls-1,.cls-2,.cls-3,.cls-4{stroke-width:0px;}.cls-2{fill:gray;}.cls-3{fill:#999;}.cls-4{fill:#fff;}</style></defs><circle class="cls-4" cx="279.11" cy="467.91" r="97.78" transform="translate(-240.41 632.05) rotate(-76.72)"/><path class="cls-3" d="M279.11,370.64c53.64,0,97.28,43.64,97.28,97.28s-43.64,97.28-97.28,97.28-97.28-43.64-97.28-97.28,43.64-97.28,97.28-97.28M279.11,369.64c-54.28,0-98.28,44-98.28,98.28s44,98.28,98.28,98.28,98.28-44,98.28-98.28-44-98.28-98.28-98.28h0Z"/><path class="cls-1" d="M254.03,432.34c0,2.36-.59,4.18-1.76,5.45s-2.85,1.9-5.04,1.9-3.87-.63-5.04-1.9-1.76-3.09-1.76-5.47.59-4.19,1.76-5.44,2.86-1.88,5.05-1.88,3.87.63,5.03,1.89,1.74,3.08,1.74,5.45ZM243.61,432.34c0,1.59.3,2.8.91,3.6s1.51,1.21,2.71,1.21c2.42,0,3.62-1.6,3.62-4.81s-1.2-4.82-3.6-4.82c-1.2,0-2.11.41-2.72,1.22s-.92,2.01-.92,3.61Z"/><path class="cls-1" d="M262.85,428.37c.4,0,.74.03,1.01.09l-.22,2.79c-.24-.07-.53-.1-.88-.1-.95,0-1.69.24-2.22.73s-.8,1.17-.8,2.05v5.56h-2.98v-10.92h2.26l.44,1.84h.15c.34-.61.8-1.11,1.37-1.48s1.2-.56,1.88-.56Z"/><path class="cls-1" d="M265.71,425.76c0-.97.54-1.46,1.62-1.46s1.62.49,1.62,1.46c0,.46-.13.82-.41,1.08s-.68.39-1.22.39c-1.08,0-1.62-.49-1.62-1.46ZM268.82,439.5h-2.98v-10.92h2.98v10.92Z"/><path class="cls-1" d="M281.45,428.58v1.51l-1.71.44c.31.49.47,1.04.47,1.64,0,1.17-.41,2.08-1.23,2.74s-1.95.98-3.4.98l-.54-.03-.44-.05c-.31.23-.46.5-.46.78,0,.43.55.64,1.64.64h1.86c1.2,0,2.11.26,2.74.77s.94,1.27.94,2.27c0,1.28-.53,2.27-1.6,2.97s-2.59,1.05-4.58,1.05c-1.52,0-2.69-.27-3.49-.8s-1.21-1.27-1.21-2.23c0-.66.21-1.21.62-1.65s1.01-.76,1.81-.95c-.31-.13-.57-.34-.8-.64s-.34-.61-.34-.94c0-.42.12-.76.36-1.04s.59-.55,1.04-.82c-.57-.25-1.03-.64-1.36-1.19s-.5-1.19-.5-1.93c0-1.19.39-2.11,1.16-2.76s1.88-.98,3.32-.98c.31,0,.67.03,1.09.08s.69.1.81.12h3.81ZM273.02,441.04c0,.41.2.73.59.97s.95.35,1.66.35c1.07,0,1.9-.15,2.51-.44s.91-.69.91-1.2c0-.41-.18-.69-.54-.85s-.91-.23-1.66-.23h-1.54c-.55,0-1,.13-1.37.39s-.55.6-.55,1.02ZM274.1,432.15c0,.59.13,1.06.41,1.41s.68.52,1.24.52.97-.17,1.23-.52.39-.81.39-1.41c0-1.32-.54-1.97-1.62-1.97s-1.64.66-1.64,1.97Z"/><path class="cls-1" d="M290.18,439.5l-.58-1.48h-.08c-.5.63-1.02,1.07-1.55,1.31s-1.22.37-2.08.37c-1.05,0-1.87-.3-2.48-.9s-.9-1.45-.9-2.56.41-2.01,1.22-2.56,2.03-.85,3.67-.91l1.89-.06v-.48c0-1.11-.57-1.66-1.7-1.66-.87,0-1.9.26-3.08.79l-.99-2.01c1.26-.66,2.65-.99,4.18-.99s2.59.32,3.37.96,1.17,1.61,1.17,2.91v7.28h-2.08ZM289.3,434.44l-1.15.04c-.87.03-1.51.18-1.93.47s-.63.72-.63,1.31c0,.84.48,1.26,1.45,1.26.69,0,1.24-.2,1.66-.6s.62-.92.62-1.58v-.9Z"/><path class="cls-1" d="M305.1,439.5h-2.98v-6.38c0-.79-.13-1.38-.4-1.77s-.68-.59-1.25-.59c-.76,0-1.32.28-1.66.84s-.52,1.48-.52,2.76v5.14h-2.98v-10.92h2.28l.4,1.4h.17c.29-.5.72-.89,1.27-1.18s1.19-.42,1.9-.42c1.63,0,2.74.53,3.32,1.6h.26c.29-.51.72-.9,1.29-1.18s1.21-.42,1.93-.42c1.24,0,2.17.32,2.81.95s.95,1.65.95,3.05v7.12h-2.99v-6.38c0-.79-.13-1.38-.4-1.77s-.68-.59-1.25-.59c-.73,0-1.27.26-1.64.78s-.54,1.35-.54,2.48v5.48Z"/><path class="cls-1" d="M314.84,425.76c0-.97.54-1.46,1.62-1.46s1.62.49,1.62,1.46c0,.46-.13.82-.41,1.08s-.68.39-1.22.39c-1.08,0-1.62-.49-1.62-1.46ZM317.94,439.5h-2.98v-10.92h2.98v10.92Z"/><path class="cls-1" d="M234.85,461.32c.52,0,1.15-.11,1.88-.34v2.22c-.74.33-1.65.5-2.73.5-1.19,0-2.06-.3-2.6-.9s-.82-1.51-.82-2.71v-5.26h-1.43v-1.26l1.64-1,.86-2.3h1.9v2.32h3.06v2.24h-3.06v5.26c0,.42.12.74.36.94s.55.3.94.3Z"/><path class="cls-1" d="M243.87,463.69c-1.76,0-3.13-.49-4.12-1.46s-1.48-2.34-1.48-4.12.46-3.24,1.37-4.24,2.18-1.5,3.79-1.5,2.74.44,3.6,1.32,1.29,2.09,1.29,3.64v1.45h-7.04c.03.85.28,1.51.75,1.98s1.13.71,1.97.71c.66,0,1.28-.07,1.87-.21s1.2-.35,1.84-.65v2.3c-.52.26-1.08.45-1.67.58s-1.32.19-2.17.19ZM243.45,454.49c-.63,0-1.13.2-1.48.6s-.56.97-.62,1.7h4.18c-.01-.74-.21-1.3-.58-1.7s-.87-.6-1.5-.6Z"/><path class="cls-1" d="M260.52,463.5h-2.98v-6.38c0-.79-.13-1.38-.4-1.77s-.68-.59-1.25-.59c-.76,0-1.32.28-1.66.84s-.52,1.48-.52,2.76v5.14h-2.98v-10.92h2.28l.4,1.4h.17c.29-.5.72-.89,1.27-1.18s1.19-.42,1.9-.42c1.63,0,2.74.53,3.32,1.6h.26c.29-.51.72-.9,1.29-1.18s1.21-.42,1.93-.42c1.24,0,2.17.32,2.81.95s.95,1.65.95,3.05v7.12h-2.99v-6.38c0-.79-.13-1.38-.4-1.77s-.68-.59-1.25-.59c-.73,0-1.27.26-1.64.78s-.54,1.35-.54,2.48v5.48Z"/><path class="cls-1" d="M276.38,463.69c-1.28,0-2.29-.47-3.02-1.4h-.16c.1.91.16,1.44.16,1.58v4.42h-2.98v-15.72h2.42l.42,1.42h.14c.7-1.08,1.73-1.62,3.1-1.62,1.29,0,2.3.5,3.03,1.49s1.09,2.38,1.09,4.15c0,1.17-.17,2.18-.51,3.04s-.83,1.51-1.46,1.96-1.37.67-2.23.67ZM275.5,454.76c-.74,0-1.27.23-1.61.68s-.51,1.2-.53,2.24v.32c0,1.17.17,2.01.52,2.52s.9.76,1.66.76c1.33,0,2-1.1,2-3.3,0-1.07-.16-1.88-.49-2.42s-.84-.81-1.55-.81Z"/><path class="cls-1" d="M286.02,463.5h-2.98v-15.2h2.98v15.2Z"/><path class="cls-1" d="M296.08,463.5l-.58-1.48h-.08c-.5.63-1.02,1.07-1.55,1.31s-1.22.37-2.08.37c-1.05,0-1.87-.3-2.48-.9s-.9-1.45-.9-2.56.41-2.01,1.22-2.56,2.03-.85,3.67-.91l1.89-.06v-.48c0-1.11-.57-1.66-1.7-1.66-.87,0-1.9.26-3.08.79l-.99-2.01c1.26-.66,2.65-.99,4.18-.99s2.59.32,3.37.96,1.17,1.61,1.17,2.91v7.28h-2.08ZM295.2,458.44l-1.15.04c-.87.03-1.51.18-1.93.47s-.63.72-.63,1.31c0,.84.48,1.26,1.45,1.26.69,0,1.24-.2,1.66-.6s.62-.92.62-1.58v-.9Z"/><path class="cls-1" d="M305.82,461.32c.52,0,1.15-.11,1.88-.34v2.22c-.74.33-1.65.5-2.73.5-1.19,0-2.06-.3-2.6-.9s-.82-1.51-.82-2.71v-5.26h-1.43v-1.26l1.64-1,.86-2.3h1.9v2.32h3.06v2.24h-3.06v5.26c0,.42.12.74.36.94s.55.3.94.3Z"/><path class="cls-1" d="M314.85,463.69c-1.76,0-3.13-.49-4.12-1.46s-1.48-2.34-1.48-4.12.46-3.24,1.37-4.24,2.18-1.5,3.79-1.5,2.74.44,3.6,1.32,1.29,2.09,1.29,3.64v1.45h-7.04c.03.85.28,1.51.75,1.98s1.13.71,1.97.71c.66,0,1.28-.07,1.87-.21s1.2-.35,1.84-.65v2.3c-.52.26-1.08.45-1.67.58s-1.32.19-2.17.19ZM314.43,454.49c-.63,0-1.13.2-1.48.6s-.56.97-.62,1.7h4.18c-.01-.74-.21-1.3-.58-1.7s-.87-.6-1.5-.6Z"/><path class="cls-1" d="M329.34,460.26c0,1.12-.39,1.97-1.17,2.56s-1.94.88-3.49.88c-.79,0-1.47-.05-2.03-.16s-1.08-.27-1.57-.47v-2.46c.55.26,1.18.48,1.87.65s1.3.26,1.83.26c1.08,0,1.62-.31,1.62-.94,0-.23-.07-.42-.21-.57s-.39-.31-.74-.5-.82-.4-1.41-.65c-.84-.35-1.46-.68-1.85-.98s-.68-.64-.86-1.03-.27-.86-.27-1.43c0-.97.38-1.72,1.13-2.25s1.82-.8,3.2-.8,2.59.29,3.84.86l-.9,2.15c-.55-.23-1.06-.43-1.53-.58s-.96-.22-1.46-.22c-.88,0-1.32.24-1.32.71,0,.27.14.5.42.69s.9.49,1.86.87c.85.34,1.48.67,1.88.97s.69.64.88,1.04.28.86.28,1.4Z"/><path class="cls-1" d="M236.26,511.5h-1.66v-6.72h-7.52v6.72h-1.66v-14.28h1.66v6.07h7.52v-6.07h1.66v14.28Z"/><path class="cls-1" d="M244.57,511.5h-1.66v-12.8h-4.52v-1.47h10.7v1.47h-4.52v12.8Z"/><path class="cls-1" d="M257.56,511.5l-4.84-12.66h-.08c.09,1,.14,2.19.14,3.57v9.08h-1.53v-14.28h2.5l4.52,11.78h.08l4.56-11.78h2.48v14.28h-1.66v-9.2c0-1.05.05-2.2.14-3.44h-.08l-4.88,12.64h-1.34Z"/><path class="cls-1" d="M269.29,511.5v-14.28h1.66v12.77h6.3v1.5h-7.96Z"/><path class="cls-1" d="M289.51,500.6c.48,0,.9.04,1.28.12l-.22,1.5c-.44-.1-.83-.15-1.17-.15-.87,0-1.61.35-2.22,1.05s-.92,1.58-.92,2.63v5.74h-1.62v-10.7h1.34l.19,1.98h.08c.4-.7.88-1.23,1.44-1.61s1.17-.57,1.85-.57Z"/><path class="cls-1" d="M297.31,511.69c-1.58,0-2.83-.48-3.75-1.45s-1.37-2.3-1.37-4.01.42-3.1,1.27-4.11,1.99-1.52,3.42-1.52c1.34,0,2.4.44,3.18,1.32s1.17,2.05,1.17,3.49v1.03h-7.37c.03,1.26.35,2.21.95,2.86s1.45.98,2.54.98c1.15,0,2.29-.24,3.42-.72v1.45c-.57.25-1.12.42-1.63.53s-1.13.16-1.85.16ZM296.87,501.96c-.86,0-1.54.28-2.06.84s-.81,1.33-.9,2.32h5.6c0-1.02-.23-1.8-.68-2.35s-1.11-.82-1.95-.82Z"/><path class="cls-1" d="M305.53,500.79v6.94c0,.87.2,1.52.6,1.95s1.02.64,1.87.64c1.12,0,1.94-.31,2.46-.92s.78-1.61.78-3v-5.62h1.62v10.7h-1.34l-.23-1.44h-.09c-.33.53-.79.93-1.38,1.21s-1.26.42-2.02.42c-1.3,0-2.28-.31-2.92-.93s-.97-1.61-.97-2.97v-7h1.64Z"/><path class="cls-1" d="M323.19,508.58c0,1-.37,1.76-1.11,2.3s-1.78.81-3.12.81c-1.42,0-2.53-.22-3.32-.67v-1.5c.51.26,1.07.47,1.66.62s1.16.22,1.7.22c.85,0,1.5-.13,1.95-.41s.68-.68.68-1.24c0-.42-.18-.77-.54-1.07s-1.07-.65-2.11-1.05c-1-.37-1.7-.7-2.12-.97s-.73-.59-.94-.94-.31-.77-.31-1.26c0-.87.35-1.56,1.06-2.07s1.68-.76,2.92-.76c1.15,0,2.28.23,3.38.7l-.58,1.32c-1.07-.44-2.05-.66-2.92-.66-.77,0-1.35.12-1.74.36s-.59.57-.59,1c0,.29.07.53.22.73s.38.39.71.58.95.45,1.88.79c1.27.46,2.13.93,2.57,1.4s.67,1.06.67,1.77Z"/><path class="cls-1" d="M330.35,511.69c-1.58,0-2.83-.48-3.75-1.45s-1.37-2.3-1.37-4.01.42-3.1,1.27-4.11,1.99-1.52,3.42-1.52c1.34,0,2.4.44,3.18,1.32s1.17,2.05,1.17,3.49v1.03h-7.37c.03,1.26.35,2.21.95,2.86s1.45.98,2.54.98c1.15,0,2.29-.24,3.42-.72v1.45c-.57.25-1.12.42-1.63.53s-1.13.16-1.85.16ZM329.91,501.96c-.86,0-1.54.28-2.06.84s-.81,1.33-.9,2.32h5.6c0-1.02-.23-1.8-.68-2.35s-1.11-.82-1.95-.82Z"/><circle class="cls-4" cx="458" cy="386.07" r="97.78" transform="translate(-44.22 712.54) rotate(-73.15)"/><path class="cls-3" d="M458,288.79c53.64,0,97.28,43.64,97.28,97.28s-43.64,97.28-97.28,97.28-97.28-43.64-97.28-97.28,43.64-97.28,97.28-97.28M458,287.79c-54.28,0-98.28,44-98.28,98.28s44,98.28,98.28,98.28,98.28-44,98.28-98.28-44-98.28-98.28-98.28h0Z"/><path class="cls-1" d="M405.38,341.44c0,1.29-.46,2.3-1.39,3.05s-2.22,1.11-3.87,1.11c-1.52,0-2.87-.29-4.04-.86v-2.81c.96.43,1.78.73,2.45.91s1.28.26,1.83.26c.66,0,1.17-.13,1.53-.38s.53-.63.53-1.13c0-.28-.08-.53-.23-.75s-.39-.43-.69-.63-.92-.52-1.85-.97c-.87-.41-1.53-.8-1.96-1.18s-.78-.82-1.04-1.32-.39-1.09-.39-1.76c0-1.26.43-2.26,1.28-2.98s2.04-1.08,3.55-1.08c.74,0,1.45.09,2.12.26s1.38.42,2.11.74l-.98,2.35c-.76-.31-1.39-.53-1.89-.65s-.99-.19-1.47-.19c-.57,0-1.01.13-1.32.4s-.46.62-.46,1.04c0,.27.06.5.19.7s.32.39.59.58.91.52,1.92,1c1.33.64,2.25,1.28,2.74,1.92s.74,1.43.74,2.36Z"/><path class="cls-1" d="M412.34,343.22c.52,0,1.15-.11,1.88-.34v2.22c-.74.33-1.65.5-2.73.5-1.19,0-2.06-.3-2.6-.9s-.82-1.51-.82-2.71v-5.26h-1.43v-1.26l1.64-1,.86-2.3h1.9v2.32h3.06v2.24h-3.06v5.26c0,.42.12.74.36.94s.55.3.94.3Z"/><path class="cls-1" d="M423.35,345.4l-.58-1.48h-.08c-.5.63-1.02,1.07-1.55,1.31s-1.22.37-2.08.37c-1.05,0-1.87-.3-2.48-.9s-.9-1.45-.9-2.56.41-2.01,1.22-2.56,2.03-.85,3.67-.91l1.89-.06v-.48c0-1.11-.57-1.66-1.7-1.66-.87,0-1.9.26-3.08.79l-.99-2.01c1.26-.66,2.65-.99,4.18-.99s2.59.32,3.37.96,1.17,1.61,1.17,2.91v7.28h-2.08ZM422.47,340.34l-1.15.04c-.87.03-1.51.18-1.93.47s-.63.72-.63,1.31c0,.84.48,1.26,1.45,1.26.69,0,1.24-.2,1.66-.6s.62-.92.62-1.58v-.9Z"/><path class="cls-1" d="M433.1,343.22c.52,0,1.15-.11,1.88-.34v2.22c-.74.33-1.65.5-2.73.5-1.19,0-2.06-.3-2.6-.9s-.82-1.51-.82-2.71v-5.26h-1.43v-1.26l1.64-1,.86-2.3h1.9v2.32h3.06v2.24h-3.06v5.26c0,.42.12.74.36.94s.55.3.94.3Z"/><path class="cls-1" d="M437.05,331.66c0-.97.54-1.46,1.62-1.46s1.62.49,1.62,1.46c0,.46-.13.82-.41,1.08s-.68.39-1.22.39c-1.08,0-1.62-.49-1.62-1.46ZM440.16,345.4h-2.98v-10.92h2.98v10.92Z"/><path class="cls-1" d="M447.72,345.6c-3.4,0-5.1-1.87-5.1-5.6,0-1.86.46-3.27,1.39-4.25s2.25-1.47,3.97-1.47c1.26,0,2.4.25,3.4.74l-.88,2.3c-.47-.19-.91-.34-1.31-.46s-.81-.18-1.21-.18c-1.55,0-2.32,1.1-2.32,3.3s.77,3.2,2.32,3.2c.57,0,1.1-.08,1.59-.23s.98-.39,1.46-.72v2.55c-.48.31-.97.52-1.46.63s-1.11.18-1.86.18Z"/><path class="cls-1" d="M466.38,342.16c0,1.12-.39,1.97-1.17,2.56s-1.94.88-3.49.88c-.79,0-1.47-.05-2.03-.16s-1.08-.27-1.57-.47v-2.46c.55.26,1.18.48,1.87.65s1.3.26,1.83.26c1.08,0,1.62-.31,1.62-.94,0-.23-.07-.42-.21-.57s-.39-.31-.74-.5-.82-.4-1.41-.65c-.84-.35-1.46-.68-1.85-.98s-.68-.64-.86-1.03-.27-.86-.27-1.43c0-.97.38-1.72,1.13-2.25s1.82-.8,3.2-.8,2.59.29,3.84.86l-.9,2.15c-.55-.23-1.06-.43-1.53-.58s-.96-.22-1.46-.22c-.88,0-1.32.24-1.32.71,0,.27.14.5.42.69s.9.49,1.86.87c.85.34,1.48.67,1.88.97s.69.64.88,1.04.28.86.28,1.4Z"/><path class="cls-1" d="M473.65,345.6c-1.76,0-3.13-.49-4.12-1.46s-1.48-2.34-1.48-4.12.46-3.24,1.37-4.24,2.18-1.5,3.79-1.5,2.74.44,3.6,1.32,1.29,2.09,1.29,3.64v1.45h-7.04c.03.85.28,1.51.75,1.98s1.13.71,1.97.71c.66,0,1.28-.07,1.87-.21s1.2-.35,1.84-.65v2.3c-.52.26-1.08.45-1.67.58s-1.32.19-2.17.19ZM473.23,336.4c-.63,0-1.13.2-1.48.6s-.56.97-.62,1.7h4.18c-.01-.74-.21-1.3-.58-1.7s-.87-.6-1.5-.6Z"/><path class="cls-1" d="M486.61,334.28c.4,0,.74.03,1.01.09l-.22,2.79c-.24-.07-.53-.1-.88-.1-.95,0-1.69.24-2.22.73s-.8,1.17-.8,2.05v5.56h-2.98v-10.92h2.26l.44,1.84h.15c.34-.61.8-1.11,1.37-1.48s1.2-.56,1.88-.56Z"/><path class="cls-1" d="M492.2,345.4l-4.16-10.92h3.12l2.11,6.22c.23.79.38,1.53.44,2.24h.06c.03-.62.18-1.37.44-2.24l2.1-6.22h3.12l-4.16,10.92h-3.06Z"/><path class="cls-1" d="M505.92,345.6c-1.76,0-3.13-.49-4.12-1.46s-1.48-2.34-1.48-4.12.46-3.24,1.37-4.24,2.18-1.5,3.79-1.5,2.74.44,3.6,1.32,1.29,2.09,1.29,3.64v1.45h-7.04c.03.85.28,1.51.75,1.98s1.13.71,1.97.71c.66,0,1.28-.07,1.87-.21s1.2-.35,1.84-.65v2.3c-.52.26-1.08.45-1.67.58s-1.32.19-2.17.19ZM505.5,336.4c-.63,0-1.13.2-1.48.6s-.56.97-.62,1.7h4.18c-.01-.74-.21-1.3-.58-1.7s-.87-.6-1.5-.6Z"/><path class="cls-1" d="M518.89,334.28c.4,0,.74.03,1.01.09l-.22,2.79c-.24-.07-.53-.1-.88-.1-.95,0-1.69.24-2.22.73s-.8,1.17-.8,2.05v5.56h-2.98v-10.92h2.26l.44,1.84h.15c.34-.61.8-1.11,1.37-1.48s1.2-.56,1.88-.56Z"/><path class="cls-1" d="M398.23,362.24c0,2.36-.59,4.18-1.76,5.45s-2.85,1.9-5.04,1.9-3.87-.63-5.04-1.9-1.76-3.09-1.76-5.47.59-4.19,1.76-5.44,2.86-1.88,5.05-1.88,3.87.63,5.03,1.89,1.74,3.08,1.74,5.45ZM387.81,362.24c0,1.59.3,2.8.91,3.6s1.51,1.21,2.71,1.21c2.42,0,3.62-1.6,3.62-4.81s-1.2-4.82-3.6-4.82c-1.2,0-2.11.41-2.72,1.22s-.92,2.01-.92,3.61Z"/><path class="cls-1" d="M407.04,358.28c.4,0,.74.03,1.01.09l-.22,2.79c-.24-.07-.53-.1-.88-.1-.95,0-1.69.24-2.22.73s-.8,1.17-.8,2.05v5.56h-2.98v-10.92h2.26l.44,1.84h.15c.34-.61.8-1.11,1.37-1.48s1.2-.56,1.88-.56Z"/><path class="cls-1" d="M409.9,355.66c0-.97.54-1.46,1.62-1.46s1.62.49,1.62,1.46c0,.46-.13.82-.41,1.08s-.68.39-1.22.39c-1.08,0-1.62-.49-1.62-1.46ZM413.01,369.4h-2.98v-10.92h2.98v10.92Z"/><path class="cls-1" d="M425.64,358.48v1.51l-1.71.44c.31.49.47,1.04.47,1.64,0,1.17-.41,2.08-1.23,2.74s-1.95.98-3.4.98l-.54-.03-.44-.05c-.31.23-.46.5-.46.78,0,.43.55.64,1.64.64h1.86c1.2,0,2.11.26,2.74.77s.94,1.27.94,2.27c0,1.28-.53,2.27-1.6,2.97s-2.59,1.05-4.58,1.05c-1.52,0-2.69-.27-3.49-.8s-1.21-1.27-1.21-2.23c0-.66.21-1.21.62-1.65s1.01-.76,1.81-.95c-.31-.13-.57-.34-.8-.64s-.34-.61-.34-.94c0-.42.12-.76.36-1.04s.59-.55,1.04-.82c-.57-.25-1.03-.64-1.36-1.19s-.5-1.19-.5-1.93c0-1.19.39-2.11,1.16-2.76s1.88-.98,3.32-.98c.31,0,.67.03,1.09.08s.69.1.81.12h3.81ZM417.21,370.95c0,.41.2.73.59.97s.95.35,1.66.35c1.07,0,1.9-.15,2.51-.44s.91-.69.91-1.2c0-.41-.18-.69-.54-.85s-.91-.23-1.66-.23h-1.54c-.55,0-1,.13-1.37.39s-.55.6-.55,1.02ZM418.29,362.06c0,.59.13,1.06.41,1.41s.68.52,1.24.52.97-.17,1.23-.52.39-.81.39-1.41c0-1.32-.54-1.97-1.62-1.97s-1.64.66-1.64,1.97Z"/><path class="cls-1" d="M434.37,369.4l-.58-1.48h-.08c-.5.63-1.02,1.07-1.55,1.31s-1.22.37-2.08.37c-1.05,0-1.87-.3-2.48-.9s-.9-1.45-.9-2.56.41-2.01,1.22-2.56,2.03-.85,3.67-.91l1.89-.06v-.48c0-1.11-.57-1.66-1.7-1.66-.87,0-1.9.26-3.08.79l-.99-2.01c1.26-.66,2.65-.99,4.18-.99s2.59.32,3.37.96,1.17,1.61,1.17,2.91v7.28h-2.08ZM433.49,364.34l-1.15.04c-.87.03-1.51.18-1.93.47s-.63.72-.63,1.31c0,.84.48,1.26,1.45,1.26.69,0,1.24-.2,1.66-.6s.62-.92.62-1.58v-.9Z"/><path class="cls-1" d="M449.29,369.4h-2.98v-6.38c0-.79-.13-1.38-.4-1.77s-.68-.59-1.25-.59c-.76,0-1.32.28-1.66.84s-.52,1.48-.52,2.76v5.14h-2.98v-10.92h2.28l.4,1.4h.17c.29-.5.72-.89,1.27-1.18s1.19-.42,1.9-.42c1.63,0,2.74.53,3.32,1.6h.26c.29-.51.72-.9,1.29-1.18s1.21-.42,1.93-.42c1.24,0,2.17.32,2.81.95s.95,1.65.95,3.05v7.12h-2.99v-6.38c0-.79-.13-1.38-.4-1.77s-.68-.59-1.25-.59c-.73,0-1.27.26-1.64.78s-.54,1.35-.54,2.48v5.48Z"/><path class="cls-1" d="M459.03,355.66c0-.97.54-1.46,1.62-1.46s1.62.49,1.62,1.46c0,.46-.13.82-.41,1.08s-.68.39-1.22.39c-1.08,0-1.62-.49-1.62-1.46ZM462.13,369.4h-2.98v-10.92h2.98v10.92Z"/><path class="cls-1" d="M478.07,366.16c0,1.12-.39,1.97-1.17,2.56s-1.94.88-3.49.88c-.79,0-1.47-.05-2.03-.16s-1.08-.27-1.57-.47v-2.46c.55.26,1.18.48,1.87.65s1.3.26,1.83.26c1.08,0,1.62-.31,1.62-.94,0-.23-.07-.42-.21-.57s-.39-.31-.74-.5-.82-.4-1.41-.65c-.84-.35-1.46-.68-1.85-.98s-.68-.64-.86-1.03-.27-.86-.27-1.43c0-.97.38-1.72,1.13-2.25s1.82-.8,3.2-.8,2.59.29,3.84.86l-.9,2.15c-.55-.23-1.06-.43-1.53-.58s-.96-.22-1.46-.22c-.88,0-1.32.24-1.32.71,0,.27.14.5.42.69s.9.49,1.86.87c.85.34,1.48.67,1.88.97s.69.64.88,1.04.28.86.28,1.4Z"/><path class="cls-1" d="M485.33,369.6c-1.76,0-3.13-.49-4.12-1.46s-1.48-2.34-1.48-4.12.46-3.24,1.37-4.24,2.18-1.5,3.79-1.5,2.74.44,3.6,1.32,1.29,2.09,1.29,3.64v1.45h-7.04c.03.85.28,1.51.75,1.98s1.13.71,1.97.71c.66,0,1.28-.07,1.87-.21s1.2-.35,1.84-.65v2.3c-.52.26-1.08.45-1.67.58s-1.32.19-2.17.19ZM484.91,360.4c-.63,0-1.13.2-1.48.6s-.56.97-.62,1.7h4.18c-.01-.74-.21-1.3-.58-1.7s-.87-.6-1.5-.6Z"/><path class="cls-1" d="M498.3,358.28c.4,0,.74.03,1.01.09l-.22,2.79c-.24-.07-.53-.1-.88-.1-.95,0-1.69.24-2.22.73s-.8,1.17-.8,2.05v5.56h-2.98v-10.92h2.26l.44,1.84h.15c.34-.61.8-1.11,1.37-1.48s1.2-.56,1.88-.56Z"/><path class="cls-1" d="M503.89,369.4l-4.16-10.92h3.12l2.11,6.22c.23.79.38,1.53.44,2.24h.06c.03-.62.18-1.37.44-2.24l2.1-6.22h3.12l-4.16,10.92h-3.06Z"/><path class="cls-1" d="M517.61,369.6c-1.76,0-3.13-.49-4.12-1.46s-1.48-2.34-1.48-4.12.46-3.24,1.37-4.24,2.18-1.5,3.79-1.5,2.74.44,3.6,1.32,1.29,2.09,1.29,3.64v1.45h-7.04c.03.85.28,1.51.75,1.98s1.13.71,1.97.71c.66,0,1.28-.07,1.87-.21s1.2-.35,1.84-.65v2.3c-.52.26-1.08.45-1.67.58s-1.32.19-2.17.19ZM517.19,360.4c-.63,0-1.13.2-1.48.6s-.56.97-.62,1.7h4.18c-.01-.74-.21-1.3-.58-1.7s-.87-.6-1.5-.6Z"/><path class="cls-1" d="M530.58,358.28c.4,0,.74.03,1.01.09l-.22,2.79c-.24-.07-.53-.1-.88-.1-.95,0-1.69.24-2.22.73s-.8,1.17-.8,2.05v5.56h-2.98v-10.92h2.26l.44,1.84h.15c.34-.61.8-1.11,1.37-1.48s1.2-.56,1.88-.56Z"/><path class="cls-1" d="M395.5,393.4h-8.22v-14.28h8.22v2.48h-5.2v3.13h4.83v2.48h-4.83v3.68h5.2v2.5Z"/><path class="cls-1" d="M400.48,387.83l-3.52-5.34h3.38l2.12,3.48,2.14-3.48h3.38l-3.55,5.34,3.72,5.58h-3.39l-2.29-3.74-2.3,3.74h-3.38l3.7-5.58Z"/><path class="cls-1" d="M415.8,393.6c-1.28,0-2.29-.47-3.02-1.4h-.16c.1.91.16,1.44.16,1.58v4.42h-2.98v-15.72h2.42l.42,1.42h.14c.7-1.08,1.73-1.62,3.1-1.62,1.29,0,2.3.5,3.03,1.49s1.09,2.38,1.09,4.15c0,1.17-.17,2.18-.51,3.04s-.83,1.51-1.46,1.96-1.37.67-2.23.67ZM414.92,384.66c-.74,0-1.27.23-1.61.68s-.51,1.2-.53,2.24v.32c0,1.17.17,2.01.52,2.52s.9.76,1.66.76c1.33,0,2-1.1,2-3.3,0-1.07-.16-1.88-.49-2.42s-.84-.81-1.55-.81Z"/><path class="cls-1" d="M428.56,382.28c.4,0,.74.03,1.01.09l-.22,2.79c-.24-.07-.53-.1-.88-.1-.95,0-1.69.24-2.22.73s-.8,1.17-.8,2.05v5.56h-2.98v-10.92h2.26l.44,1.84h.15c.34-.61.8-1.11,1.37-1.48s1.2-.56,1.88-.56Z"/><path class="cls-1" d="M436.49,393.6c-1.76,0-3.13-.49-4.12-1.46s-1.48-2.34-1.48-4.12.46-3.24,1.37-4.24,2.18-1.5,3.79-1.5,2.74.44,3.6,1.32,1.29,2.09,1.29,3.64v1.45h-7.04c.03.85.28,1.51.75,1.98s1.13.71,1.97.71c.66,0,1.28-.07,1.87-.21s1.2-.35,1.84-.65v2.3c-.52.26-1.08.45-1.67.58s-1.32.19-2.17.19ZM436.07,384.4c-.63,0-1.13.2-1.48.6s-.56.97-.62,1.7h4.18c-.01-.74-.21-1.3-.58-1.7s-.87-.6-1.5-.6Z"/><path class="cls-1" d="M450.98,390.16c0,1.12-.39,1.97-1.17,2.56s-1.94.88-3.49.88c-.79,0-1.47-.05-2.03-.16s-1.08-.27-1.57-.47v-2.46c.55.26,1.18.48,1.87.65s1.3.26,1.83.26c1.08,0,1.62-.31,1.62-.94,0-.23-.07-.42-.21-.57s-.39-.31-.74-.5-.82-.4-1.41-.65c-.84-.35-1.46-.68-1.85-.98s-.68-.64-.86-1.03-.27-.86-.27-1.43c0-.97.38-1.72,1.13-2.25s1.82-.8,3.2-.8,2.59.29,3.84.86l-.9,2.15c-.55-.23-1.06-.43-1.53-.58s-.96-.22-1.46-.22c-.88,0-1.32.24-1.32.71,0,.27.14.5.42.69s.9.49,1.86.87c.85.34,1.48.67,1.88.97s.69.64.88,1.04.28.86.28,1.4Z"/><path class="cls-1" d="M460.92,390.16c0,1.12-.39,1.97-1.17,2.56s-1.94.88-3.49.88c-.79,0-1.47-.05-2.03-.16s-1.08-.27-1.57-.47v-2.46c.55.26,1.18.48,1.87.65s1.3.26,1.83.26c1.08,0,1.62-.31,1.62-.94,0-.23-.07-.42-.21-.57s-.39-.31-.74-.5-.82-.4-1.41-.65c-.84-.35-1.46-.68-1.85-.98s-.68-.64-.86-1.03-.27-.86-.27-1.43c0-.97.38-1.72,1.13-2.25s1.82-.8,3.2-.8,2.59.29,3.84.86l-.9,2.15c-.55-.23-1.06-.43-1.53-.58s-.96-.22-1.46-.22c-.88,0-1.32.24-1.32.71,0,.27.14.5.42.69s.9.49,1.86.87c.85.34,1.48.67,1.88.97s.69.64.88,1.04.28.86.28,1.4Z"/><path class="cls-1" d="M476.06,390.16c0,1.12-.39,1.97-1.17,2.56s-1.94.88-3.49.88c-.79,0-1.47-.05-2.03-.16s-1.08-.27-1.57-.47v-2.46c.55.26,1.18.48,1.87.65s1.3.26,1.83.26c1.08,0,1.62-.31,1.62-.94,0-.23-.07-.42-.21-.57s-.39-.31-.74-.5-.82-.4-1.41-.65c-.84-.35-1.46-.68-1.85-.98s-.68-.64-.86-1.03-.27-.86-.27-1.43c0-.97.38-1.72,1.13-2.25s1.82-.8,3.2-.8,2.59.29,3.84.86l-.9,2.15c-.55-.23-1.06-.43-1.53-.58s-.96-.22-1.46-.22c-.88,0-1.32.24-1.32.71,0,.27.14.5.42.69s.9.49,1.86.87c.85.34,1.48.67,1.88.97s.69.64.88,1.04.28.86.28,1.4Z"/><path class="cls-1" d="M483.32,393.6c-1.76,0-3.13-.49-4.12-1.46s-1.48-2.34-1.48-4.12.46-3.24,1.37-4.24,2.18-1.5,3.79-1.5,2.74.44,3.6,1.32,1.29,2.09,1.29,3.64v1.45h-7.04c.03.85.28,1.51.75,1.98s1.13.71,1.97.71c.66,0,1.28-.07,1.87-.21s1.2-.35,1.84-.65v2.3c-.52.26-1.08.45-1.67.58s-1.32.19-2.17.19ZM482.9,384.4c-.63,0-1.13.2-1.48.6s-.56.97-.62,1.7h4.18c-.01-.74-.21-1.3-.58-1.7s-.87-.6-1.5-.6Z"/><path class="cls-1" d="M496.29,382.28c.4,0,.74.03,1.01.09l-.22,2.79c-.24-.07-.53-.1-.88-.1-.95,0-1.69.24-2.22.73s-.8,1.17-.8,2.05v5.56h-2.98v-10.92h2.26l.44,1.84h.15c.34-.61.8-1.11,1.37-1.48s1.2-.56,1.88-.56Z"/><path class="cls-1" d="M501.88,393.4l-4.16-10.92h3.12l2.11,6.22c.23.79.38,1.53.44,2.24h.06c.03-.62.18-1.37.44-2.24l2.1-6.22h3.12l-4.16,10.92h-3.06Z"/><path class="cls-1" d="M515.6,393.6c-1.76,0-3.13-.49-4.12-1.46s-1.48-2.34-1.48-4.12.46-3.24,1.37-4.24,2.18-1.5,3.79-1.5,2.74.44,3.6,1.32,1.29,2.09,1.29,3.64v1.45h-7.04c.03.85.28,1.51.75,1.98s1.13.71,1.97.71c.66,0,1.28-.07,1.87-.21s1.2-.35,1.84-.65v2.3c-.52.26-1.08.45-1.67.58s-1.32.19-2.17.19ZM515.18,384.4c-.63,0-1.13.2-1.48.6s-.56.97-.62,1.7h4.18c-.01-.74-.21-1.3-.58-1.7s-.87-.6-1.5-.6Z"/><path class="cls-1" d="M528.57,382.28c.4,0,.74.03,1.01.09l-.22,2.79c-.24-.07-.53-.1-.88-.1-.95,0-1.69.24-2.22.73s-.8,1.17-.8,2.05v5.56h-2.98v-10.92h2.26l.44,1.84h.15c.34-.61.8-1.11,1.37-1.48s1.2-.56,1.88-.56Z"/><path class="cls-1" d="M422.92,437.6c0,1.26-.46,2.24-1.37,2.94s-2.15,1.05-3.71,1.05c-1.69,0-3-.22-3.91-.65v-1.6c.59.25,1.22.44,1.91.59s1.37.21,2.05.21c1.11,0,1.94-.21,2.5-.63s.84-1,.84-1.75c0-.5-.1-.9-.3-1.22s-.53-.61-1-.87-1.17-.57-2.12-.91c-1.33-.48-2.28-1.04-2.85-1.69s-.85-1.5-.85-2.55c0-1.1.41-1.98,1.24-2.63s1.92-.98,3.28-.98,2.72.26,3.92.78l-.52,1.45c-1.18-.5-2.32-.74-3.44-.74-.88,0-1.57.19-2.06.57s-.74.9-.74,1.57c0,.5.09.9.27,1.22s.49.61.92.87,1.1.55,1.99.87c1.5.53,2.53,1.11,3.09,1.72s.84,1.41.84,2.38Z"/><path class="cls-1" d="M430.12,441.6c-1.58,0-2.83-.48-3.75-1.45s-1.37-2.3-1.37-4.01.42-3.1,1.27-4.11,1.99-1.52,3.42-1.52c1.34,0,2.4.44,3.18,1.32s1.17,2.05,1.17,3.49v1.03h-7.37c.03,1.26.35,2.21.95,2.86s1.45.98,2.54.98c1.15,0,2.29-.24,3.42-.72v1.45c-.57.25-1.12.42-1.63.53s-1.13.16-1.85.16ZM429.68,431.86c-.86,0-1.54.28-2.06.84s-.81,1.33-.9,2.32h5.6c0-1.02-.23-1.8-.68-2.35s-1.11-.82-1.95-.82Z"/><path class="cls-1" d="M441.7,430.5c.48,0,.9.04,1.28.12l-.22,1.5c-.44-.1-.83-.15-1.17-.15-.87,0-1.61.35-2.22,1.05s-.92,1.58-.92,2.63v5.74h-1.62v-10.7h1.34l.19,1.98h.08c.4-.7.88-1.23,1.44-1.61s1.17-.57,1.85-.57Z"/><path class="cls-1" d="M447.32,441.4l-4.06-10.7h1.74l2.3,6.35c.52,1.48.83,2.45.92,2.89h.08c.07-.34.3-1.06.68-2.14s1.24-3.45,2.56-7.09h1.74l-4.06,10.7h-1.89Z"/><path class="cls-1" d="M459.52,441.6c-1.58,0-2.83-.48-3.75-1.45s-1.37-2.3-1.37-4.01.42-3.1,1.27-4.11,1.99-1.52,3.42-1.52c1.34,0,2.4.44,3.18,1.32s1.17,2.05,1.17,3.49v1.03h-7.37c.03,1.26.35,2.21.95,2.86s1.45.98,2.54.98c1.15,0,2.29-.24,3.42-.72v1.45c-.57.25-1.12.42-1.63.53s-1.13.16-1.85.16ZM459.08,431.86c-.86,0-1.54.28-2.06.84s-.81,1.33-.9,2.32h5.6c0-1.02-.23-1.8-.68-2.35s-1.11-.82-1.95-.82Z"/><path class="cls-1" d="M478.32,438.48c0,1-.37,1.76-1.11,2.3s-1.78.81-3.12.81c-1.42,0-2.53-.22-3.32-.67v-1.5c.51.26,1.07.47,1.66.62s1.16.22,1.7.22c.85,0,1.5-.13,1.95-.41s.68-.68.68-1.24c0-.42-.18-.77-.54-1.07s-1.07-.65-2.11-1.05c-1-.37-1.7-.7-2.12-.97s-.73-.59-.94-.94-.31-.77-.31-1.26c0-.87.35-1.56,1.06-2.07s1.68-.76,2.92-.76c1.15,0,2.28.23,3.38.7l-.58,1.32c-1.07-.44-2.05-.66-2.92-.66-.77,0-1.35.12-1.74.36s-.59.57-.59,1c0,.29.07.53.22.73s.38.39.71.58.95.45,1.88.79c1.27.46,2.13.93,2.57,1.4s.67,1.06.67,1.77Z"/><path class="cls-1" d="M480.82,427.8c0-.37.09-.64.27-.82s.41-.26.68-.26.49.09.67.26.28.45.28.81-.09.64-.28.82-.41.27-.67.27-.5-.09-.68-.27-.27-.45-.27-.82ZM482.58,441.4h-1.62v-10.7h1.62v10.7Z"/><path class="cls-1" d="M489.47,440.26c.29,0,.56-.02.83-.06s.48-.09.63-.13v1.24c-.18.08-.43.15-.78.21s-.65.08-.92.08c-2.07,0-3.11-1.09-3.11-3.27v-6.37h-1.53v-.78l1.53-.67.68-2.29h.94v2.48h3.11v1.26h-3.11v6.3c0,.64.15,1.14.46,1.48s.73.52,1.26.52Z"/><path class="cls-1" d="M497.6,441.6c-1.58,0-2.83-.48-3.75-1.45s-1.37-2.3-1.37-4.01.42-3.1,1.27-4.11,1.99-1.52,3.42-1.52c1.34,0,2.4.44,3.18,1.32s1.17,2.05,1.17,3.49v1.03h-7.37c.03,1.26.35,2.21.95,2.86s1.45.98,2.54.98c1.15,0,2.29-.24,3.42-.72v1.45c-.57.25-1.12.42-1.63.53s-1.13.16-1.85.16ZM497.16,431.86c-.86,0-1.54.28-2.06.84s-.81,1.33-.9,2.32h5.6c0-1.02-.23-1.8-.68-2.35s-1.11-.82-1.95-.82Z"/><circle class="cls-4" cx="101.17" cy="386.07" r="97.78" transform="translate(-297.65 371.01) rotate(-73.15)"/><path class="cls-3" d="M101.17,288.79c53.64,0,97.28,43.64,97.28,97.28s-43.64,97.28-97.28,97.28S3.89,439.7,3.89,386.07s43.64-97.28,97.28-97.28M101.17,287.79c-54.28,0-98.28,44-98.28,98.28s44,98.28,98.28,98.28,98.28-44,98.28-98.28-44-98.28-98.28-98.28h0Z"/><path class="cls-1" d="M73.1,350.24c0,2.36-.59,4.18-1.76,5.45s-2.85,1.9-5.04,1.9-3.87-.63-5.04-1.9-1.76-3.09-1.76-5.47.59-4.19,1.76-5.44,2.86-1.88,5.05-1.88,3.87.63,5.03,1.89,1.74,3.08,1.74,5.45ZM62.68,350.24c0,1.59.3,2.8.91,3.6s1.51,1.21,2.71,1.21c2.42,0,3.62-1.6,3.62-4.81s-1.2-4.82-3.6-4.82c-1.2,0-2.11.41-2.72,1.22s-.92,2.01-.92,3.61Z"/><path class="cls-1" d="M81.92,346.28c.4,0,.74.03,1.01.09l-.22,2.79c-.24-.07-.53-.1-.88-.1-.95,0-1.69.24-2.22.73s-.8,1.17-.8,2.05v5.56h-2.98v-10.92h2.26l.44,1.84h.15c.34-.61.8-1.11,1.37-1.48s1.2-.56,1.88-.56Z"/><path class="cls-1" d="M84.78,343.66c0-.97.54-1.46,1.62-1.46s1.62.49,1.62,1.46c0,.46-.13.82-.41,1.08s-.68.39-1.22.39c-1.08,0-1.62-.49-1.62-1.46ZM87.88,357.4h-2.98v-10.92h2.98v10.92Z"/><path class="cls-1" d="M100.51,346.48v1.51l-1.71.44c.31.49.47,1.04.47,1.64,0,1.17-.41,2.08-1.23,2.74s-1.95.98-3.4.98l-.54-.03-.44-.05c-.31.23-.46.5-.46.78,0,.43.55.64,1.64.64h1.86c1.2,0,2.11.26,2.74.77s.94,1.27.94,2.27c0,1.28-.53,2.27-1.6,2.97s-2.59,1.05-4.58,1.05c-1.52,0-2.69-.27-3.49-.8s-1.21-1.27-1.21-2.23c0-.66.21-1.21.62-1.65s1.01-.76,1.81-.95c-.31-.13-.57-.34-.8-.64s-.34-.61-.34-.94c0-.42.12-.76.36-1.04s.59-.55,1.04-.82c-.57-.25-1.03-.64-1.36-1.19s-.5-1.19-.5-1.93c0-1.19.39-2.11,1.16-2.76s1.88-.98,3.32-.98c.31,0,.67.03,1.09.08s.69.1.81.12h3.81ZM92.08,358.95c0,.41.2.73.59.97s.95.35,1.66.35c1.07,0,1.9-.15,2.51-.44s.91-.69.91-1.2c0-.41-.18-.69-.54-.85s-.91-.23-1.66-.23h-1.54c-.55,0-1,.13-1.37.39s-.55.6-.55,1.02ZM93.17,350.06c0,.59.13,1.06.41,1.41s.68.52,1.24.52.97-.17,1.23-.52.39-.81.39-1.41c0-1.32-.54-1.97-1.62-1.97s-1.64.66-1.64,1.97Z"/><path class="cls-1" d="M109.24,357.4l-.58-1.48h-.08c-.5.63-1.02,1.07-1.55,1.31s-1.22.37-2.08.37c-1.05,0-1.87-.3-2.48-.9s-.9-1.45-.9-2.56.41-2.01,1.22-2.56,2.03-.85,3.67-.91l1.89-.06v-.48c0-1.11-.57-1.66-1.7-1.66-.87,0-1.9.26-3.08.79l-.99-2.01c1.26-.66,2.65-.99,4.18-.99s2.59.32,3.37.96,1.17,1.61,1.17,2.91v7.28h-2.08ZM108.36,352.34l-1.15.04c-.87.03-1.51.18-1.93.47s-.63.72-.63,1.31c0,.84.48,1.26,1.45,1.26.69,0,1.24-.2,1.66-.6s.62-.92.62-1.58v-.9Z"/><path class="cls-1" d="M124.16,357.4h-2.98v-6.38c0-.79-.13-1.38-.4-1.77s-.68-.59-1.25-.59c-.76,0-1.32.28-1.66.84s-.52,1.48-.52,2.76v5.14h-2.98v-10.92h2.28l.4,1.4h.17c.29-.5.72-.89,1.27-1.18s1.19-.42,1.9-.42c1.63,0,2.74.53,3.32,1.6h.26c.29-.51.72-.9,1.29-1.18s1.21-.42,1.93-.42c1.24,0,2.17.32,2.81.95s.95,1.65.95,3.05v7.12h-2.99v-6.38c0-.79-.13-1.38-.4-1.77s-.68-.59-1.25-.59c-.73,0-1.27.26-1.64.78s-.54,1.35-.54,2.48v5.48Z"/><path class="cls-1" d="M133.9,343.66c0-.97.54-1.46,1.62-1.46s1.62.49,1.62,1.46c0,.46-.13.82-.41,1.08s-.68.39-1.22.39c-1.08,0-1.62-.49-1.62-1.46ZM137,357.4h-2.98v-10.92h2.98v10.92Z"/><path class="cls-1" d="M37.83,378.16c0,1.12-.39,1.97-1.17,2.56s-1.94.88-3.49.88c-.79,0-1.47-.05-2.03-.16s-1.08-.27-1.57-.47v-2.46c.55.26,1.18.48,1.87.65s1.3.26,1.83.26c1.08,0,1.62-.31,1.62-.94,0-.23-.07-.42-.21-.57s-.39-.31-.74-.5-.82-.4-1.41-.65c-.84-.35-1.46-.68-1.85-.98s-.68-.64-.86-1.03-.27-.86-.27-1.43c0-.97.38-1.72,1.13-2.25s1.82-.8,3.2-.8,2.59.29,3.84.86l-.9,2.15c-.55-.23-1.06-.43-1.53-.58s-.96-.22-1.46-.22c-.88,0-1.32.24-1.32.71,0,.27.14.5.42.69s.9.49,1.86.87c.85.34,1.48.67,1.88.97s.69.64.88,1.04.28.86.28,1.4Z"/><path class="cls-1" d="M40.03,367.66c0-.97.54-1.46,1.62-1.46s1.62.49,1.62,1.46c0,.46-.13.82-.41,1.08s-.68.39-1.22.39c-1.08,0-1.62-.49-1.62-1.46ZM43.13,381.4h-2.98v-10.92h2.98v10.92Z"/><path class="cls-1" d="M50.86,379.22c.52,0,1.15-.11,1.88-.34v2.22c-.74.33-1.65.5-2.73.5-1.19,0-2.06-.3-2.6-.9s-.82-1.51-.82-2.71v-5.26h-1.43v-1.26l1.64-1,.86-2.3h1.9v2.32h3.06v2.24h-3.06v5.26c0,.42.12.74.36.94s.55.3.94.3Z"/><path class="cls-1" d="M59.88,381.6c-1.76,0-3.13-.49-4.12-1.46s-1.48-2.34-1.48-4.12.46-3.24,1.37-4.24,2.18-1.5,3.79-1.5,2.74.44,3.6,1.32,1.29,2.09,1.29,3.64v1.45h-7.04c.03.85.28,1.51.75,1.98s1.13.71,1.97.71c.66,0,1.28-.07,1.87-.21s1.2-.35,1.84-.65v2.3c-.52.26-1.08.45-1.67.58s-1.32.19-2.17.19ZM59.46,372.4c-.63,0-1.13.2-1.48.6s-.56.97-.62,1.7h4.18c-.01-.74-.21-1.3-.58-1.7s-.87-.6-1.5-.6Z"/><path class="cls-1" d="M75.41,381.6c-1.28,0-2.29-.5-3.02-1.49s-1.1-2.38-1.1-4.14.37-3.19,1.12-4.18,1.77-1.5,3.08-1.5c1.37,0,2.42.53,3.14,1.6h.1c-.15-.81-.22-1.54-.22-2.18v-3.5h2.99v15.2h-2.29l-.58-1.42h-.13c-.68,1.07-1.71,1.61-3.1,1.61ZM76.45,379.22c.76,0,1.32-.22,1.67-.66s.55-1.19.58-2.26v-.32c0-1.17-.18-2.01-.54-2.52s-.95-.76-1.76-.76c-.66,0-1.18.28-1.55.84s-.55,1.38-.55,2.46.19,1.88.56,2.42.9.81,1.59.81Z"/><path class="cls-1" d="M89.55,381.6c-1.76,0-3.13-.49-4.12-1.46s-1.48-2.34-1.48-4.12.46-3.24,1.37-4.24,2.18-1.5,3.79-1.5,2.74.44,3.6,1.32,1.29,2.09,1.29,3.64v1.45h-7.04c.03.85.28,1.51.75,1.98s1.13.71,1.97.71c.66,0,1.28-.07,1.87-.21s1.2-.35,1.84-.65v2.3c-.52.26-1.08.45-1.67.58s-1.32.19-2.17.19ZM89.13,372.4c-.63,0-1.13.2-1.48.6s-.56.97-.62,1.7h4.18c-.01-.74-.21-1.3-.58-1.7s-.87-.6-1.5-.6Z"/><path class="cls-1" d="M102.46,372.72h-2.58v8.68h-2.98v-8.68h-1.64v-1.44l1.64-.8v-.8c0-1.24.31-2.15.92-2.72s1.59-.86,2.94-.86c1.03,0,1.94.15,2.74.46l-.76,2.19c-.6-.19-1.15-.28-1.66-.28-.42,0-.73.12-.92.38s-.28.57-.28.96v.68h2.58v2.24ZM104.04,367.66c0-.97.54-1.46,1.62-1.46s1.62.49,1.62,1.46c0,.46-.13.82-.41,1.08s-.68.39-1.22.39c-1.08,0-1.62-.49-1.62-1.46ZM107.15,381.4h-2.98v-10.92h2.98v10.92Z"/><path class="cls-1" d="M120.34,381.4h-2.98v-6.38c0-.79-.14-1.38-.42-1.77s-.73-.59-1.34-.59c-.83,0-1.44.28-1.81.83s-.56,1.48-.56,2.77v5.14h-2.98v-10.92h2.28l.4,1.4h.17c.33-.53.79-.93,1.37-1.2s1.25-.41,1.99-.41c1.27,0,2.23.34,2.89,1.03s.99,1.68.99,2.97v7.12Z"/><path class="cls-1" d="M123.28,367.66c0-.97.54-1.46,1.62-1.46s1.62.49,1.62,1.46c0,.46-.13.82-.41,1.08s-.68.39-1.22.39c-1.08,0-1.62-.49-1.62-1.46ZM126.38,381.4h-2.98v-10.92h2.98v10.92Z"/><path class="cls-1" d="M134.11,379.22c.52,0,1.15-.11,1.88-.34v2.22c-.74.33-1.65.5-2.73.5-1.19,0-2.06-.3-2.6-.9s-.82-1.51-.82-2.71v-5.26h-1.43v-1.26l1.64-1,.86-2.3h1.9v2.32h3.06v2.24h-3.06v5.26c0,.42.12.74.36.94s.55.3.94.3Z"/><path class="cls-1" d="M138.06,367.66c0-.97.54-1.46,1.62-1.46s1.62.49,1.62,1.46c0,.46-.13.82-.41,1.08s-.68.39-1.22.39c-1.08,0-1.62-.49-1.62-1.46ZM141.17,381.4h-2.98v-10.92h2.98v10.92Z"/><path class="cls-1" d="M154.22,375.92c0,1.78-.47,3.17-1.41,4.17s-2.24,1.5-3.92,1.5c-1.05,0-1.97-.23-2.77-.69s-1.42-1.12-1.85-1.98-.64-1.86-.64-3.01c0-1.78.47-3.17,1.4-4.16s2.24-1.48,3.93-1.48c1.05,0,1.97.23,2.77.68s1.42,1.11,1.85,1.96.64,1.85.64,3ZM146.67,375.92c0,1.08.18,1.9.53,2.45s.93.83,1.73.83,1.37-.28,1.71-.83.52-1.37.52-2.46-.18-1.89-.53-2.43-.93-.81-1.73-.81-1.37.27-1.72.81-.53,1.35-.53,2.44Z"/><path class="cls-1" d="M166.76,381.4h-2.98v-6.38c0-.79-.14-1.38-.42-1.77s-.73-.59-1.34-.59c-.83,0-1.44.28-1.81.83s-.56,1.48-.56,2.77v5.14h-2.98v-10.92h2.28l.4,1.4h.17c.33-.53.79-.93,1.37-1.2s1.25-.41,1.99-.41c1.27,0,2.23.34,2.89,1.03s.99,1.68.99,2.97v7.12Z"/><path class="cls-1" d="M46.08,425.6c0,1.26-.46,2.24-1.37,2.94s-2.15,1.05-3.71,1.05c-1.69,0-3-.22-3.91-.65v-1.6c.59.25,1.22.44,1.91.59s1.37.21,2.05.21c1.11,0,1.94-.21,2.5-.63s.84-1,.84-1.75c0-.5-.1-.9-.3-1.22s-.53-.61-1-.87-1.17-.57-2.12-.91c-1.33-.48-2.28-1.04-2.85-1.69s-.85-1.5-.85-2.55c0-1.1.41-1.98,1.24-2.63s1.92-.98,3.28-.98,2.72.26,3.92.78l-.52,1.45c-1.18-.5-2.32-.74-3.44-.74-.88,0-1.57.19-2.06.57s-.74.9-.74,1.57c0,.5.09.9.27,1.22s.49.61.92.87,1.1.55,1.99.87c1.5.53,2.53,1.11,3.09,1.72s.84,1.41.84,2.38Z"/><path class="cls-1" d="M48.62,415.8c0-.37.09-.64.27-.82s.41-.26.68-.26.49.09.67.26.28.45.28.81-.09.64-.28.82-.41.27-.67.27-.5-.09-.68-.27-.27-.45-.27-.82ZM50.37,429.4h-1.62v-10.7h1.62v10.7Z"/><path class="cls-1" d="M57.27,428.26c.29,0,.56-.02.83-.06s.48-.09.63-.13v1.24c-.18.08-.43.15-.78.21s-.65.08-.92.08c-2.07,0-3.11-1.09-3.11-3.27v-6.37h-1.53v-.78l1.53-.67.68-2.29h.94v2.48h3.11v1.26h-3.11v6.3c0,.64.15,1.14.46,1.48s.73.52,1.26.52Z"/><path class="cls-1" d="M65.39,429.6c-1.58,0-2.83-.48-3.75-1.45s-1.37-2.3-1.37-4.01.42-3.1,1.27-4.11,1.99-1.52,3.42-1.52c1.34,0,2.4.44,3.18,1.32s1.17,2.05,1.17,3.49v1.03h-7.37c.03,1.26.35,2.21.95,2.86s1.45.98,2.54.98c1.15,0,2.29-.24,3.42-.72v1.45c-.57.25-1.12.42-1.63.53s-1.13.16-1.85.16ZM64.95,419.86c-.86,0-1.54.28-2.06.84s-.81,1.33-.9,2.32h5.6c0-1.02-.23-1.8-.68-2.35s-1.11-.82-1.95-.82Z"/><path class="cls-1" d="M84.19,426.48c0,1-.37,1.76-1.11,2.3s-1.78.81-3.12.81c-1.42,0-2.53-.22-3.32-.67v-1.5c.51.26,1.07.47,1.66.62s1.16.22,1.7.22c.85,0,1.5-.13,1.95-.41s.68-.68.68-1.24c0-.42-.18-.77-.54-1.07s-1.07-.65-2.11-1.05c-1-.37-1.7-.7-2.12-.97s-.73-.59-.94-.94-.31-.77-.31-1.26c0-.87.35-1.56,1.06-2.07s1.68-.76,2.92-.76c1.15,0,2.28.23,3.38.7l-.58,1.32c-1.07-.44-2.05-.66-2.92-.66-.77,0-1.35.12-1.74.36s-.59.57-.59,1c0,.29.07.53.22.73s.38.39.71.58.95.45,1.88.79c1.27.46,2.13.93,2.57,1.4s.67,1.06.67,1.77Z"/><path class="cls-1" d="M90.29,428.26c.29,0,.56-.02.83-.06s.48-.09.63-.13v1.24c-.18.08-.43.15-.78.21s-.65.08-.92.08c-2.07,0-3.11-1.09-3.11-3.27v-6.37h-1.53v-.78l1.53-.67.68-2.29h.94v2.48h3.11v1.26h-3.11v6.3c0,.64.15,1.14.46,1.48s.73.52,1.26.52Z"/><path class="cls-1" d="M98.77,418.5c.48,0,.9.04,1.28.12l-.22,1.5c-.44-.1-.83-.15-1.17-.15-.87,0-1.61.35-2.22,1.05s-.92,1.58-.92,2.63v5.74h-1.62v-10.7h1.34l.19,1.98h.08c.4-.7.88-1.23,1.44-1.61s1.17-.57,1.85-.57Z"/><path class="cls-1" d="M103.58,418.7v6.94c0,.87.2,1.52.6,1.95s1.02.64,1.87.64c1.12,0,1.94-.31,2.46-.92s.78-1.61.78-3v-5.62h1.62v10.7h-1.34l-.23-1.44h-.09c-.33.53-.79.93-1.38,1.21s-1.26.42-2.02.42c-1.3,0-2.28-.31-2.92-.93s-.97-1.61-.97-2.97v-7h1.64Z"/><path class="cls-1" d="M118.61,429.6c-1.55,0-2.75-.48-3.6-1.43s-1.27-2.3-1.27-4.05.43-3.17,1.29-4.15,2.09-1.46,3.69-1.46c.51,0,1.03.06,1.54.17s.92.24,1.21.39l-.5,1.38c-.36-.14-.75-.26-1.17-.36s-.8-.14-1.12-.14c-2.17,0-3.26,1.39-3.26,4.16,0,1.32.27,2.32.8,3.03s1.32,1.05,2.36,1.05c.89,0,1.81-.19,2.74-.58v1.44c-.72.37-1.62.56-2.71.56Z"/><path class="cls-1" d="M127.31,428.26c.29,0,.56-.02.83-.06s.48-.09.63-.13v1.24c-.18.08-.43.15-.78.21s-.65.08-.92.08c-2.07,0-3.11-1.09-3.11-3.27v-6.37h-1.53v-.78l1.53-.67.68-2.29h.94v2.48h3.11v1.26h-3.11v6.3c0,.64.15,1.14.46,1.48s.73.52,1.26.52Z"/><path class="cls-1" d="M132.43,418.7v6.94c0,.87.2,1.52.6,1.95s1.02.64,1.87.64c1.12,0,1.94-.31,2.46-.92s.78-1.61.78-3v-5.62h1.62v10.7h-1.34l-.23-1.44h-.09c-.33.53-.79.93-1.38,1.21s-1.26.42-2.02.42c-1.3,0-2.28-.31-2.92-.93s-.97-1.61-.97-2.97v-7h1.64Z"/><path class="cls-1" d="M148.07,418.5c.48,0,.9.04,1.28.12l-.22,1.5c-.44-.1-.83-.15-1.17-.15-.87,0-1.61.35-2.22,1.05s-.92,1.58-.92,2.63v5.74h-1.62v-10.7h1.34l.19,1.98h.08c.4-.7.88-1.23,1.44-1.61s1.17-.57,1.85-.57Z"/><path class="cls-1" d="M155.87,429.6c-1.58,0-2.83-.48-3.75-1.45s-1.37-2.3-1.37-4.01.42-3.1,1.27-4.11,1.99-1.52,3.42-1.52c1.34,0,2.4.44,3.18,1.32s1.17,2.05,1.17,3.49v1.03h-7.37c.03,1.26.35,2.21.95,2.86s1.45.98,2.54.98c1.15,0,2.29-.24,3.42-.72v1.45c-.57.25-1.12.42-1.63.53s-1.13.16-1.85.16ZM155.43,419.86c-.86,0-1.54.28-2.06.84s-.81,1.33-.9,2.32h5.6c0-1.02-.23-1.8-.68-2.35s-1.11-.82-1.95-.82Z"/><circle class="cls-2" cx="458.14" cy="188.2" r="99.81"/><path class="cls-4" d="M397.97,177.55c-.82,0-1.54-.09-2.14-.26v-3.02c.62.16,1.2.23,1.71.23.8,0,1.37-.25,1.71-.74s.52-1.27.52-2.33v-16.05h3.63v16.03c0,2-.46,3.52-1.37,4.57s-2.27,1.57-4.05,1.57Z"/><path class="cls-4" d="M415.75,172.51l-.69-1.78h-.09c-.6.76-1.22,1.28-1.86,1.58s-1.47.44-2.49.44c-1.26,0-2.25-.36-2.97-1.08s-1.08-1.74-1.08-3.07.49-2.42,1.46-3.08,2.44-1.03,4.4-1.1l2.27-.07v-.57c0-1.33-.68-1.99-2.04-1.99-1.05,0-2.28.32-3.69.95l-1.18-2.41c1.51-.79,3.18-1.18,5.02-1.18s3.11.38,4.04,1.15,1.41,1.93,1.41,3.49v8.73h-2.5ZM414.7,166.44l-1.38.05c-1.04.03-1.81.22-2.32.56s-.76.87-.76,1.57c0,1.01.58,1.51,1.73,1.51.83,0,1.49-.24,1.99-.71s.74-1.11.74-1.9v-1.08Z"/><path class="cls-4" d="M425.04,172.51l-4.99-13.1h3.74l2.53,7.46c.28.95.46,1.84.53,2.68h.07c.04-.75.21-1.64.53-2.68l2.52-7.46h3.74l-4.99,13.1h-3.67Z"/><path class="cls-4" d="M443.9,172.51l-.69-1.78h-.09c-.6.76-1.22,1.28-1.86,1.58s-1.47.44-2.49.44c-1.26,0-2.25-.36-2.97-1.08s-1.08-1.74-1.08-3.07.49-2.42,1.46-3.08,2.44-1.03,4.4-1.1l2.27-.07v-.57c0-1.33-.68-1.99-2.04-1.99-1.05,0-2.28.32-3.69.95l-1.18-2.41c1.51-.79,3.18-1.18,5.02-1.18s3.11.38,4.04,1.15,1.41,1.93,1.41,3.49v8.73h-2.5ZM442.85,166.44l-1.38.05c-1.04.03-1.81.22-2.32.56s-.76.87-.76,1.57c0,1.01.58,1.51,1.73,1.51.83,0,1.49-.24,1.99-.71s.74-1.11.74-1.9v-1.08Z"/><path class="cls-4" d="M460.47,167.75c0,1.55-.56,2.77-1.67,3.66s-2.66,1.34-4.65,1.34c-1.83,0-3.45-.34-4.85-1.03v-3.38c1.16.52,2.13.88,2.94,1.09s1.53.32,2.2.32c.8,0,1.41-.15,1.83-.46s.64-.76.64-1.36c0-.34-.09-.63-.28-.9s-.46-.51-.83-.76-1.1-.63-2.22-1.16c-1.05-.49-1.83-.96-2.36-1.42s-.94-.98-1.25-1.58-.47-1.3-.47-2.11c0-1.52.51-2.71,1.54-3.57s2.45-1.3,4.26-1.3c.89,0,1.74.11,2.55.32s1.65.51,2.54.89l-1.17,2.82c-.91-.38-1.67-.64-2.27-.79s-1.19-.22-1.76-.22c-.69,0-1.21.16-1.58.48s-.55.74-.55,1.25c0,.32.07.6.22.84s.38.47.71.69,1.09.62,2.3,1.2c1.6.77,2.7,1.53,3.29,2.3s.89,1.71.89,2.83Z"/><path class="cls-4" d="M468.61,172.75c-4.08,0-6.12-2.24-6.12-6.71,0-2.23.55-3.93,1.66-5.1s2.7-1.76,4.77-1.76c1.52,0,2.88.3,4.08.89l-1.05,2.77c-.56-.23-1.09-.41-1.57-.56s-.97-.22-1.45-.22c-1.86,0-2.79,1.32-2.79,3.96s.93,3.84,2.79,3.84c.69,0,1.32-.09,1.91-.28s1.17-.47,1.76-.86v3.06c-.58.37-1.16.62-1.75.76s-1.33.21-2.23.21Z"/><path class="cls-4" d="M482.95,159.16c.48,0,.89.04,1.21.11l-.27,3.35c-.29-.08-.64-.12-1.05-.12-1.14,0-2.03.29-2.67.88s-.96,1.41-.96,2.46v6.67h-3.57v-13.1h2.71l.53,2.2h.18c.41-.73.96-1.33,1.65-1.78s1.44-.67,2.26-.67Z"/><path class="cls-4" d="M486.38,156.02c0-1.16.65-1.75,1.95-1.75s1.95.58,1.95,1.75c0,.55-.16.99-.49,1.29s-.81.46-1.46.46c-1.3,0-1.95-.59-1.95-1.76ZM490.11,172.51h-3.57v-13.1h3.57v13.1Z"/><path class="cls-4" d="M501.05,172.75c-1.54,0-2.75-.56-3.62-1.68h-.19c.12,1.09.19,1.73.19,1.9v5.31h-3.57v-18.87h2.91l.5,1.7h.16c.84-1.3,2.07-1.95,3.71-1.95,1.55,0,2.76.6,3.63,1.79s1.31,2.86,1.31,4.98c0,1.4-.21,2.61-.62,3.64s-.99,1.82-1.75,2.36-1.65.81-2.67.81ZM500,162.02c-.88,0-1.53.27-1.93.81s-.62,1.44-.63,2.69v.39c0,1.41.21,2.41.63,3.02s1.08.91,1.99.91c1.6,0,2.4-1.32,2.4-3.96,0-1.29-.2-2.26-.59-2.9s-1.01-.97-1.86-.97Z"/><path class="cls-4" d="M514.56,169.9c.62,0,1.38-.14,2.25-.41v2.66c-.89.4-1.98.6-3.28.6-1.43,0-2.47-.36-3.12-1.08s-.98-1.81-.98-3.25v-6.32h-1.71v-1.51l1.97-1.2,1.03-2.77h2.29v2.79h3.67v2.68h-3.67v6.32c0,.51.14.88.43,1.12s.66.36,1.13.36Z"/><path class="cls-4" d="M418.11,206.24h4.03c1.89,0,3.27.28,4.11.85.85.57,1.27,1.46,1.27,2.69,0,.85-.24,1.54-.71,2.09-.47.55-1.16.91-2.07,1.07v.1c2.17.37,3.25,1.51,3.25,3.42,0,1.28-.43,2.27-1.29,2.99-.86.72-2.07,1.07-3.62,1.07h-4.98v-14.28ZM419.77,212.35h2.73c1.17,0,2.02-.18,2.53-.55.51-.37.77-.99.77-1.86,0-.8-.29-1.38-.86-1.73-.57-.35-1.48-.53-2.73-.53h-2.44v4.68ZM419.77,213.75v5.34h2.98c1.15,0,2.02-.22,2.6-.67.58-.45.87-1.14.87-2.09,0-.89-.3-1.54-.89-1.95s-1.5-.62-2.72-.62h-2.84Z"/><path class="cls-4" d="M435.35,220.71c-1.58,0-2.83-.48-3.75-1.45-.91-.96-1.37-2.3-1.37-4.01s.42-3.1,1.27-4.11,1.99-1.52,3.42-1.52c1.34,0,2.4.44,3.18,1.32s1.17,2.05,1.17,3.49v1.03h-7.37c.03,1.26.35,2.21.95,2.86.6.65,1.45.98,2.54.98,1.15,0,2.29-.24,3.42-.72v1.45c-.57.25-1.11.42-1.63.53-.51.11-1.13.16-1.85.16ZM434.91,210.97c-.86,0-1.54.28-2.06.84-.51.56-.81,1.33-.9,2.32h5.6c0-1.02-.23-1.8-.68-2.35-.46-.54-1.11-.82-1.95-.82Z"/><path class="cls-4" d="M449.37,220.51v-6.92c0-.87-.2-1.52-.6-1.95-.4-.43-1.02-.64-1.87-.64-1.13,0-1.95.31-2.47.92s-.78,1.61-.78,3.01v5.6h-1.62v-15.2h1.62v4.6c0,.55-.03,1.01-.08,1.38h.1c.32-.51.77-.92,1.36-1.22.59-.3,1.26-.44,2.02-.44,1.31,0,2.29.31,2.94.93s.98,1.61.98,2.96v6.98h-1.62Z"/><path class="cls-4" d="M460.9,220.51l-.32-1.52h-.08c-.53.67-1.07,1.12-1.6,1.36-.53.24-1.19.36-1.99.36-1.06,0-1.89-.27-2.5-.82-.6-.55-.9-1.33-.9-2.33,0-2.16,1.73-3.29,5.19-3.4l1.82-.06v-.66c0-.84-.18-1.46-.54-1.86s-.94-.6-1.73-.6c-.89,0-1.9.27-3.03.82l-.5-1.24c.53-.29,1.11-.51,1.73-.67.63-.16,1.26-.24,1.89-.24,1.28,0,2.22.28,2.84.85s.92,1.47.92,2.72v7.3h-1.2ZM457.24,219.37c1.01,0,1.8-.28,2.38-.83s.86-1.33.86-2.32v-.97l-1.62.07c-1.29.05-2.22.25-2.79.6-.57.35-.85.91-.85,1.66,0,.59.18,1.03.53,1.34.36.31.85.46,1.49.46Z"/><path class="cls-4" d="M467.79,220.51l-4.06-10.7h1.74l2.3,6.35c.52,1.48.83,2.45.92,2.89h.08c.07-.34.3-1.06.68-2.14s1.24-3.45,2.56-7.09h1.74l-4.06,10.7h-1.89Z"/><path class="cls-4" d="M475.33,206.91c0-.37.09-.64.27-.82.18-.17.41-.26.68-.26s.49.09.67.26c.19.18.28.45.28.81s-.09.64-.28.82c-.19.18-.41.27-.67.27s-.5-.09-.68-.27c-.18-.18-.27-.45-.27-.82ZM477.09,220.51h-1.62v-10.7h1.62v10.7Z"/><path class="cls-4" d="M489.76,215.15c0,1.75-.44,3.11-1.32,4.09s-2.09,1.47-3.64,1.47c-.96,0-1.81-.22-2.55-.67s-1.31-1.09-1.72-1.93c-.4-.84-.61-1.82-.61-2.95,0-1.75.44-3.1,1.31-4.08.87-.97,2.08-1.46,3.63-1.46s2.69.5,3.57,1.49c.88,1,1.32,2.34,1.32,4.04ZM481.61,215.15c0,1.37.27,2.41.82,3.12s1.35,1.07,2.41,1.07,1.87-.36,2.42-1.07c.55-.71.83-1.76.83-3.13s-.27-2.39-.83-3.1c-.55-.71-1.36-1.06-2.44-1.06s-1.86.35-2.4,1.04c-.54.7-.81,1.74-.81,3.12Z"/><path class="cls-4" d="M497.49,209.61c.48,0,.9.04,1.28.12l-.22,1.5c-.44-.1-.83-.15-1.17-.15-.87,0-1.61.35-2.22,1.05s-.92,1.58-.92,2.63v5.74h-1.62v-10.7h1.34l.19,1.98h.08c.4-.7.88-1.23,1.44-1.61.56-.38,1.18-.57,1.85-.57Z"/><circle class="cls-2" cx="100.08" cy="188.06" r="99.81"/><path class="cls-4" d="M88.11,159.1c-1.37,0-2.43.51-3.18,1.54s-1.12,2.46-1.12,4.29c0,3.82,1.43,5.73,4.3,5.73,1.2,0,2.66-.3,4.37-.9v3.05c-1.41.59-2.98.88-4.71.88-2.49,0-4.4-.76-5.72-2.27s-1.98-3.68-1.98-6.51c0-1.78.32-3.34.97-4.68s1.58-2.37,2.79-3.08,2.64-1.07,4.27-1.07,3.34.4,5.02,1.21l-1.17,2.95c-.64-.3-1.29-.57-1.93-.8s-1.29-.34-1.91-.34Z"/><path class="cls-4" d="M106.24,168.69c0,1.55-.56,2.77-1.67,3.66s-2.66,1.34-4.65,1.34c-1.83,0-3.45-.34-4.85-1.03v-3.38c1.16.52,2.13.88,2.94,1.09s1.53.32,2.2.32c.8,0,1.41-.15,1.83-.46s.64-.76.64-1.36c0-.34-.09-.63-.28-.9s-.46-.51-.83-.76-1.1-.63-2.22-1.16c-1.05-.49-1.83-.96-2.36-1.42s-.94-.98-1.25-1.58-.47-1.3-.47-2.11c0-1.52.51-2.71,1.54-3.57s2.45-1.3,4.26-1.3c.89,0,1.74.11,2.55.32s1.65.51,2.54.89l-1.17,2.82c-.91-.38-1.67-.64-2.27-.79s-1.19-.22-1.76-.22c-.69,0-1.21.16-1.58.48s-.55.74-.55,1.25c0,.32.07.6.22.84s.38.47.71.69,1.09.62,2.3,1.2c1.6.77,2.7,1.53,3.29,2.3s.89,1.71.89,2.83Z"/><path class="cls-4" d="M119.46,168.69c0,1.55-.56,2.77-1.67,3.66s-2.66,1.34-4.65,1.34c-1.83,0-3.45-.34-4.85-1.03v-3.38c1.16.52,2.13.88,2.94,1.09s1.53.32,2.2.32c.8,0,1.41-.15,1.83-.46s.64-.76.64-1.36c0-.34-.09-.63-.28-.9s-.46-.51-.83-.76-1.1-.63-2.22-1.16c-1.05-.49-1.83-.96-2.36-1.42s-.94-.98-1.25-1.58-.47-1.3-.47-2.11c0-1.52.51-2.71,1.54-3.57s2.45-1.3,4.26-1.3c.89,0,1.74.11,2.55.32s1.65.51,2.54.89l-1.17,2.82c-.91-.38-1.67-.64-2.27-.79s-1.19-.22-1.76-.22c-.69,0-1.21.16-1.58.48s-.55.74-.55,1.25c0,.32.07.6.22.84s.38.47.71.69,1.09.62,2.3,1.2c1.6.77,2.7,1.53,3.29,2.3s.89,1.71.89,2.83Z"/><path class="cls-4" d="M50.99,211.33c0,1.45-.49,2.56-1.48,3.33s-2.4,1.17-4.23,1.17h-1.68v5.62h-1.66v-14.28h3.7c3.57,0,5.35,1.39,5.35,4.16ZM43.6,214.41h1.49c1.47,0,2.54-.24,3.19-.71.66-.48.99-1.24.99-2.29,0-.94-.31-1.65-.93-2.11-.62-.46-1.58-.69-2.89-.69h-1.86v5.8Z"/><path class="cls-4" d="M58.62,210.55c.47,0,.9.04,1.28.12l-.22,1.5c-.44-.1-.83-.15-1.17-.15-.87,0-1.61.35-2.22,1.05s-.92,1.58-.92,2.63v5.74h-1.62v-10.7h1.34l.19,1.98h.08c.4-.7.88-1.23,1.44-1.61.56-.38,1.17-.57,1.85-.57Z"/><path class="cls-4" d="M66.42,221.65c-1.58,0-2.83-.48-3.75-1.45-.92-.96-1.37-2.3-1.37-4.01s.42-3.1,1.27-4.11,1.99-1.52,3.42-1.52c1.34,0,2.4.44,3.18,1.32s1.17,2.05,1.17,3.49v1.03h-7.37c.03,1.26.35,2.21.95,2.86.6.65,1.45.98,2.54.98,1.15,0,2.29-.24,3.42-.72v1.45c-.57.25-1.12.42-1.63.53-.51.11-1.13.16-1.85.16ZM65.98,211.91c-.86,0-1.54.28-2.06.84-.51.56-.81,1.33-.9,2.32h5.6c0-1.02-.23-1.8-.68-2.35-.46-.54-1.11-.82-1.95-.82Z"/><path class="cls-4" d="M80.03,218.53c0,1-.37,1.76-1.11,2.3s-1.78.81-3.12.81c-1.42,0-2.53-.22-3.32-.67v-1.5c.51.26,1.07.47,1.66.62.59.15,1.16.22,1.7.22.85,0,1.5-.13,1.95-.41.46-.27.68-.68.68-1.24,0-.42-.18-.77-.54-1.07s-1.07-.65-2.11-1.05c-1-.37-1.7-.7-2.12-.97s-.73-.59-.94-.94-.31-.77-.31-1.26c0-.87.35-1.56,1.06-2.07.71-.5,1.68-.76,2.92-.76,1.15,0,2.28.23,3.38.7l-.58,1.32c-1.07-.44-2.05-.66-2.92-.66-.77,0-1.35.12-1.74.36s-.59.57-.59,1c0,.29.07.53.22.73s.38.39.71.58c.33.18.95.45,1.88.79,1.27.46,2.13.93,2.57,1.4.45.47.67,1.06.67,1.77Z"/><path class="cls-4" d="M87.19,221.65c-1.58,0-2.83-.48-3.75-1.45-.92-.96-1.37-2.3-1.37-4.01s.42-3.1,1.27-4.11,1.99-1.52,3.42-1.52c1.34,0,2.4.44,3.18,1.32s1.17,2.05,1.17,3.49v1.03h-7.37c.03,1.26.35,2.21.95,2.86.6.65,1.45.98,2.54.98,1.15,0,2.29-.24,3.42-.72v1.45c-.57.25-1.12.42-1.63.53-.51.11-1.13.16-1.85.16ZM86.75,211.91c-.86,0-1.54.28-2.06.84-.51.56-.81,1.33-.9,2.32h5.6c0-1.02-.23-1.8-.68-2.35-.46-.54-1.11-.82-1.95-.82Z"/><path class="cls-4" d="M101.21,221.45v-6.92c0-.87-.2-1.52-.6-1.95-.4-.43-1.02-.64-1.87-.64-1.12,0-1.94.3-2.46.91-.52.61-.78,1.6-.78,3v5.62h-1.62v-10.7h1.32l.26,1.46h.08c.33-.53.8-.94,1.4-1.23.6-.29,1.27-.43,2-.43,1.29,0,2.26.31,2.91.93.65.62.98,1.62.98,2.98v6.98h-1.62Z"/><path class="cls-4" d="M109.62,220.31c.29,0,.56-.02.83-.06.27-.04.48-.09.63-.13v1.24c-.18.08-.43.15-.78.21s-.65.08-.92.08c-2.07,0-3.11-1.09-3.11-3.27v-6.37h-1.53v-.78l1.53-.67.68-2.29h.94v2.48h3.11v1.26h-3.11v6.3c0,.64.15,1.14.46,1.48.31.34.73.52,1.26.52Z"/><path class="cls-4" d="M119.8,221.45l-.32-1.52h-.08c-.53.67-1.07,1.12-1.6,1.36-.53.24-1.19.36-1.99.36-1.06,0-1.89-.27-2.5-.82-.6-.55-.9-1.33-.9-2.33,0-2.16,1.73-3.29,5.19-3.4l1.82-.06v-.66c0-.84-.18-1.46-.54-1.86s-.94-.6-1.73-.6c-.89,0-1.9.27-3.03.82l-.5-1.24c.53-.29,1.1-.51,1.73-.67.63-.16,1.26-.24,1.89-.24,1.28,0,2.22.28,2.84.85s.92,1.47.92,2.72v7.3h-1.2ZM116.14,220.31c1.01,0,1.8-.28,2.38-.83s.86-1.33.86-2.32v-.97l-1.62.07c-1.29.05-2.22.25-2.79.6-.57.35-.85.91-.85,1.66,0,.59.18,1.03.53,1.34.35.31.85.46,1.49.46Z"/><path class="cls-4" d="M127.8,220.31c.29,0,.56-.02.83-.06.27-.04.48-.09.63-.13v1.24c-.18.08-.43.15-.78.21s-.65.08-.92.08c-2.07,0-3.11-1.09-3.11-3.27v-6.37h-1.53v-.78l1.53-.67.68-2.29h.94v2.48h3.11v1.26h-3.11v6.3c0,.64.15,1.14.46,1.48.31.34.73.52,1.26.52Z"/><path class="cls-4" d="M131.27,207.85c0-.37.09-.64.27-.82.18-.17.41-.26.68-.26s.48.09.67.26c.19.18.28.45.28.81s-.09.64-.28.82c-.19.18-.41.27-.67.27-.27,0-.5-.09-.68-.27-.18-.18-.27-.45-.27-.82ZM133.03,221.45h-1.62v-10.7h1.62v10.7Z"/><path class="cls-4" d="M145.7,216.09c0,1.75-.44,3.11-1.32,4.09s-2.09,1.47-3.64,1.47c-.96,0-1.81-.22-2.55-.67s-1.32-1.09-1.72-1.93c-.4-.84-.61-1.82-.61-2.95,0-1.75.44-3.1,1.31-4.08.87-.97,2.08-1.46,3.63-1.46s2.69.5,3.57,1.49c.88,1,1.32,2.34,1.32,4.04ZM137.55,216.09c0,1.37.27,2.41.82,3.12s1.35,1.07,2.41,1.07,1.87-.36,2.42-1.07c.55-.71.83-1.76.83-3.13s-.28-2.39-.83-3.1c-.55-.71-1.36-1.06-2.44-1.06s-1.86.35-2.4,1.04c-.54.7-.81,1.74-.81,3.12Z"/><path class="cls-4" d="M155.87,221.45v-6.92c0-.87-.2-1.52-.6-1.95-.4-.43-1.02-.64-1.87-.64-1.12,0-1.94.3-2.46.91-.52.61-.78,1.6-.78,3v5.62h-1.62v-10.7h1.32l.26,1.46h.08c.33-.53.8-.94,1.4-1.23.6-.29,1.27-.43,2-.43,1.29,0,2.26.31,2.91.93.65.62.98,1.62.98,2.98v6.98h-1.62Z"/><circle class="cls-2" cx="279.11" cy="99.81" r="99.81"/><path class="cls-4" d="M260.81,72.66h-3.62v-7.39h-6.79v7.39h-3.63v-17.13h3.63v6.71h6.79v-6.71h3.62v17.13Z"/><path class="cls-4" d="M271.74,72.66h-3.63v-14.11h-4.65v-3.02h12.94v3.02h-4.65v14.11Z"/><path class="cls-4" d="M286.29,72.66l-4.12-13.44h-.11c.15,2.73.22,4.56.22,5.47v7.97h-3.25v-17.13h4.95l4.05,13.1h.07l4.3-13.1h4.95v17.13h-3.39v-8.11c0-.38,0-.82.02-1.32s.06-1.83.16-3.98h-.11l-4.42,13.42h-3.33Z"/><path class="cls-4" d="M301.66,72.66v-17.13h3.63v14.13h6.95v3h-10.58Z"/><path class="cls-4" d="M221.94,110.54c0,1.45-.49,2.56-1.48,3.33s-2.4,1.17-4.23,1.17h-1.68v5.62h-1.66v-14.28h3.7c3.57,0,5.35,1.39,5.35,4.16ZM214.55,113.62h1.49c1.47,0,2.54-.24,3.19-.71.66-.48.99-1.24.99-2.29,0-.94-.31-1.65-.93-2.11-.62-.46-1.58-.69-2.89-.69h-1.86v5.8Z"/><path class="cls-4" d="M231.27,120.66l-.32-1.52h-.08c-.53.67-1.07,1.12-1.6,1.36-.53.24-1.19.36-1.99.36-1.06,0-1.89-.27-2.5-.82-.6-.55-.9-1.32-.9-2.33,0-2.16,1.73-3.29,5.19-3.4l1.82-.06v-.66c0-.84-.18-1.46-.54-1.86s-.94-.6-1.73-.6c-.89,0-1.9.27-3.03.82l-.5-1.24c.53-.29,1.11-.51,1.73-.67.63-.16,1.26-.24,1.89-.24,1.28,0,2.22.28,2.84.85s.92,1.47.92,2.72v7.3h-1.2ZM227.61,119.52c1.01,0,1.8-.28,2.38-.83s.86-1.33.86-2.32v-.97l-1.62.07c-1.29.05-2.22.25-2.79.6-.57.35-.85.91-.85,1.66,0,.59.18,1.03.53,1.34.36.31.85.46,1.49.46Z"/><path class="cls-4" d="M244.57,109.96v1.03l-1.98.23c.18.23.35.53.49.89.14.37.21.78.21,1.25,0,1.05-.36,1.88-1.07,2.51-.72.62-1.7.94-2.95.94-.32,0-.62-.03-.9-.08-.69.36-1.04.82-1.04,1.38,0,.29.12.51.36.65.24.14.65.21,1.24.21h1.89c1.16,0,2.05.24,2.67.73.62.49.93,1.2.93,2.13,0,1.19-.47,2.09-1.43,2.71-.95.62-2.34.93-4.16.93-1.4,0-2.48-.26-3.24-.78-.76-.52-1.14-1.26-1.14-2.21,0-.65.21-1.21.62-1.69.42-.48,1-.8,1.76-.97-.27-.12-.5-.32-.69-.58s-.28-.56-.28-.91c0-.39.1-.73.31-1.03.21-.29.54-.58.99-.85-.55-.23-1-.62-1.35-1.16-.35-.55-.52-1.17-.52-1.88,0-1.17.35-2.08,1.05-2.71s1.7-.95,2.99-.95c.56,0,1.06.06,1.51.2h3.7ZM236.04,122.46c0,.58.24,1.02.73,1.32s1.19.45,2.1.45c1.36,0,2.37-.2,3.02-.61s.98-.96.98-1.66c0-.58-.18-.98-.54-1.21-.36-.22-1.03-.34-2.02-.34h-1.94c-.74,0-1.31.18-1.72.53s-.62.86-.62,1.51ZM236.91,113.38c0,.75.21,1.31.63,1.7.42.38,1.01.58,1.77.58,1.58,0,2.37-.77,2.37-2.3s-.8-2.41-2.4-2.41c-.76,0-1.35.21-1.76.62s-.62,1.02-.62,1.83Z"/><path class="cls-4" d="M251.29,120.85c-1.58,0-2.83-.48-3.75-1.45-.91-.96-1.37-2.3-1.37-4.01s.42-3.1,1.27-4.11,1.99-1.52,3.42-1.52c1.34,0,2.4.44,3.18,1.32s1.17,2.05,1.17,3.49v1.03h-7.37c.03,1.26.35,2.21.95,2.86.6.65,1.45.98,2.54.98,1.15,0,2.29-.24,3.42-.72v1.45c-.57.25-1.11.42-1.63.53-.51.11-1.13.16-1.85.16ZM250.85,111.12c-.86,0-1.54.28-2.06.84-.51.56-.81,1.33-.9,2.32h5.6c0-1.02-.23-1.81-.68-2.35-.46-.54-1.11-.82-1.95-.82Z"/><path class="cls-4" d="M270.09,117.74c0,1-.37,1.76-1.11,2.3s-1.78.81-3.12.81c-1.42,0-2.53-.22-3.32-.67v-1.5c.51.26,1.07.47,1.66.62.59.15,1.16.22,1.7.22.85,0,1.5-.14,1.95-.41.46-.27.68-.68.68-1.24,0-.42-.18-.77-.54-1.07s-1.07-.65-2.11-1.05c-1-.37-1.7-.69-2.12-.97s-.73-.59-.94-.94-.31-.77-.31-1.26c0-.87.36-1.56,1.06-2.07.71-.5,1.68-.76,2.92-.76,1.15,0,2.28.23,3.38.7l-.58,1.32c-1.07-.44-2.05-.66-2.92-.66-.77,0-1.35.12-1.74.36s-.59.57-.59,1c0,.29.07.53.22.73s.38.39.71.58c.33.18.95.45,1.88.79,1.27.46,2.13.93,2.57,1.4.45.47.67,1.06.67,1.77Z"/><path class="cls-4" d="M276.18,119.52c.29,0,.56-.02.83-.06.27-.04.48-.09.63-.13v1.24c-.18.08-.43.15-.78.21s-.65.08-.92.08c-2.07,0-3.11-1.09-3.11-3.27v-6.37h-1.53v-.78l1.53-.67.68-2.29h.94v2.48h3.11v1.26h-3.11v6.3c0,.64.15,1.14.46,1.48.31.35.73.52,1.26.52Z"/><path class="cls-4" d="M284.67,109.76c.48,0,.9.04,1.28.12l-.22,1.5c-.44-.1-.83-.15-1.17-.15-.87,0-1.61.35-2.22,1.05s-.92,1.58-.92,2.63v5.74h-1.62v-10.7h1.34l.19,1.98h.08c.4-.7.88-1.23,1.44-1.61.56-.38,1.18-.57,1.85-.57Z"/><path class="cls-4" d="M289.47,109.96v6.94c0,.87.2,1.52.6,1.95.4.43,1.02.64,1.87.64,1.12,0,1.94-.31,2.46-.92s.78-1.61.78-3v-5.62h1.62v10.7h-1.34l-.23-1.44h-.09c-.33.53-.79.93-1.38,1.21-.59.28-1.26.42-2.02.42-1.3,0-2.28-.31-2.92-.93-.65-.62-.97-1.61-.97-2.97v-7h1.64Z"/><path class="cls-4" d="M304.5,120.85c-1.55,0-2.75-.48-3.6-1.43s-1.27-2.3-1.27-4.05.43-3.17,1.29-4.15c.86-.98,2.09-1.46,3.69-1.46.51,0,1.03.06,1.54.17.51.11.92.24,1.21.39l-.5,1.38c-.36-.14-.75-.26-1.17-.36-.42-.09-.8-.14-1.12-.14-2.17,0-3.26,1.39-3.26,4.16,0,1.31.27,2.32.8,3.03.53.7,1.32,1.05,2.36,1.05.89,0,1.81-.19,2.74-.58v1.44c-.72.37-1.62.56-2.71.56Z"/><path class="cls-4" d="M313.2,119.52c.29,0,.56-.02.83-.06.27-.04.48-.09.63-.13v1.24c-.18.08-.43.15-.78.21s-.65.08-.92.08c-2.07,0-3.11-1.09-3.11-3.27v-6.37h-1.53v-.78l1.53-.67.68-2.29h.94v2.48h3.11v1.26h-3.11v6.3c0,.64.15,1.14.46,1.48.31.35.73.52,1.26.52Z"/><path class="cls-4" d="M318.33,109.96v6.94c0,.87.2,1.52.6,1.95.4.43,1.02.64,1.87.64,1.12,0,1.94-.31,2.46-.92s.78-1.61.78-3v-5.62h1.62v10.7h-1.34l-.23-1.44h-.09c-.33.53-.79.93-1.38,1.21-.59.28-1.26.42-2.02.42-1.3,0-2.28-.31-2.92-.93-.65-.62-.97-1.61-.97-2.97v-7h1.64Z"/><path class="cls-4" d="M333.97,109.76c.48,0,.9.04,1.28.12l-.22,1.5c-.44-.1-.83-.15-1.17-.15-.87,0-1.61.35-2.22,1.05s-.92,1.58-.92,2.63v5.74h-1.62v-10.7h1.34l.19,1.98h.08c.4-.7.88-1.23,1.44-1.61.56-.38,1.18-.57,1.85-.57Z"/><path class="cls-4" d="M341.77,120.85c-1.58,0-2.83-.48-3.75-1.45-.91-.96-1.37-2.3-1.37-4.01s.42-3.1,1.27-4.11,1.99-1.52,3.42-1.52c1.34,0,2.4.44,3.18,1.32s1.17,2.05,1.17,3.49v1.03h-7.37c.03,1.26.35,2.21.95,2.86.6.65,1.45.98,2.54.98,1.15,0,2.29-.24,3.42-.72v1.45c-.57.25-1.11.42-1.63.53-.51.11-1.13.16-1.85.16ZM341.33,111.12c-.86,0-1.54.28-2.06.84-.51.56-.81,1.33-.9,2.32h5.6c0-1.02-.23-1.81-.68-2.35-.46-.54-1.11-.82-1.95-.82Z"/><path class="cls-4" d="M230.97,144.66l-.32-1.52h-.08c-.53.67-1.07,1.12-1.6,1.36-.53.24-1.19.36-1.99.36-1.06,0-1.89-.27-2.5-.82-.6-.55-.9-1.32-.9-2.33,0-2.16,1.73-3.29,5.19-3.4l1.82-.06v-.66c0-.84-.18-1.46-.54-1.86s-.94-.6-1.73-.6c-.89,0-1.9.27-3.03.82l-.5-1.24c.53-.29,1.11-.51,1.73-.67.63-.16,1.26-.24,1.89-.24,1.28,0,2.22.28,2.84.85s.92,1.47.92,2.72v7.3h-1.2ZM227.31,143.52c1.01,0,1.8-.28,2.38-.83s.86-1.33.86-2.32v-.97l-1.62.07c-1.29.05-2.22.25-2.79.6-.57.35-.85.91-.85,1.66,0,.59.18,1.03.53,1.34.36.31.85.46,1.49.46Z"/><path class="cls-4" d="M242.83,144.66v-6.92c0-.87-.2-1.52-.6-1.95-.4-.43-1.02-.64-1.87-.64-1.12,0-1.94.3-2.46.91-.52.61-.78,1.6-.78,3v5.62h-1.62v-10.7h1.32l.26,1.46h.08c.33-.53.8-.94,1.4-1.23.6-.29,1.27-.43,2-.43,1.29,0,2.26.31,2.91.93.65.62.98,1.62.98,2.98v6.98h-1.62Z"/><path class="cls-4" d="M255.07,143.22h-.09c-.75,1.09-1.87,1.63-3.36,1.63-1.4,0-2.49-.48-3.27-1.44-.78-.96-1.17-2.32-1.17-4.08s.39-3.13,1.17-4.11,1.87-1.46,3.26-1.46,2.57.53,3.34,1.58h.13l-.07-.77-.04-.75v-4.36h1.62v15.2h-1.32l-.21-1.44ZM251.83,143.5c1.11,0,1.91-.3,2.41-.9s.75-1.57.75-2.92v-.34c0-1.52-.25-2.6-.76-3.25-.5-.65-1.31-.97-2.42-.97-.95,0-1.68.37-2.18,1.11-.5.74-.76,1.78-.76,3.13s.25,2.4.75,3.1c.5.7,1.24,1.04,2.21,1.04Z"/><path class="cls-4" d="M269.51,144.85c-1.55,0-2.75-.48-3.6-1.43s-1.27-2.3-1.27-4.05.43-3.17,1.29-4.15c.86-.98,2.09-1.46,3.69-1.46.51,0,1.03.06,1.54.17.51.11.92.24,1.21.39l-.5,1.38c-.36-.14-.75-.26-1.17-.36-.42-.09-.8-.14-1.12-.14-2.17,0-3.26,1.39-3.26,4.16,0,1.31.27,2.32.8,3.03.53.7,1.32,1.05,2.36,1.05.89,0,1.81-.19,2.74-.58v1.44c-.72.37-1.62.56-2.71.56Z"/><path class="cls-4" d="M283.99,139.3c0,1.74-.44,3.11-1.32,4.09s-2.09,1.47-3.64,1.47c-.96,0-1.81-.22-2.55-.67s-1.31-1.09-1.72-1.93c-.4-.84-.61-1.82-.61-2.95,0-1.74.44-3.1,1.31-4.08.87-.97,2.08-1.46,3.63-1.46s2.69.5,3.57,1.49c.88,1,1.32,2.34,1.32,4.04ZM275.84,139.3c0,1.37.27,2.41.82,3.12s1.35,1.07,2.41,1.07,1.87-.36,2.42-1.07c.55-.71.83-1.76.83-3.13s-.27-2.39-.83-3.1c-.55-.71-1.36-1.06-2.44-1.06s-1.86.35-2.4,1.04c-.54.7-.81,1.73-.81,3.12Z"/><path class="cls-4" d="M294.16,144.66v-6.92c0-.87-.2-1.52-.6-1.95-.4-.43-1.02-.64-1.87-.64-1.12,0-1.94.3-2.46.91-.52.61-.78,1.6-.78,3v5.62h-1.62v-10.7h1.32l.26,1.46h.08c.33-.53.8-.94,1.4-1.23.6-.29,1.27-.43,2-.43,1.29,0,2.26.31,2.91.93.65.62.98,1.62.98,2.98v6.98h-1.62Z"/><path class="cls-4" d="M302.57,143.52c.29,0,.56-.02.83-.06.27-.04.48-.09.63-.13v1.24c-.18.08-.43.15-.78.21s-.65.08-.92.08c-2.07,0-3.11-1.09-3.11-3.27v-6.37h-1.53v-.78l1.53-.67.68-2.29h.94v2.48h3.11v1.26h-3.11v6.3c0,.64.15,1.14.46,1.48.31.35.73.52,1.26.52Z"/><path class="cls-4" d="M310.69,144.85c-1.58,0-2.83-.48-3.75-1.45-.91-.96-1.37-2.3-1.37-4.01s.42-3.1,1.27-4.11,1.99-1.52,3.42-1.52c1.34,0,2.4.44,3.18,1.32s1.17,2.05,1.17,3.49v1.03h-7.37c.03,1.26.35,2.21.95,2.86.6.65,1.45.98,2.54.98,1.15,0,2.29-.24,3.42-.72v1.45c-.57.25-1.11.42-1.63.53-.51.11-1.13.16-1.85.16ZM310.25,135.12c-.86,0-1.54.28-2.06.84-.51.56-.81,1.33-.9,2.32h5.6c0-1.02-.23-1.81-.68-2.35-.46-.54-1.11-.82-1.95-.82Z"/><path class="cls-4" d="M324.72,144.66v-6.92c0-.87-.2-1.52-.6-1.95-.4-.43-1.02-.64-1.87-.64-1.12,0-1.94.3-2.46.91-.52.61-.78,1.6-.78,3v5.62h-1.62v-10.7h1.32l.26,1.46h.08c.33-.53.8-.94,1.4-1.23.6-.29,1.27-.43,2-.43,1.29,0,2.26.31,2.91.93.65.62.98,1.62.98,2.98v6.98h-1.62Z"/><path class="cls-4" d="M333.13,143.52c.29,0,.56-.02.83-.06.27-.04.48-.09.63-.13v1.24c-.18.08-.43.15-.78.21s-.65.08-.92.08c-2.07,0-3.11-1.09-3.11-3.27v-6.37h-1.53v-.78l1.53-.67.68-2.29h.94v2.48h3.11v1.26h-3.11v6.3c0,.64.15,1.14.46,1.48.31.35.73.52,1.26.52Z"/></svg>