<?xml version="1.0" encoding="UTF-8"?><svg id="Layer" xmlns="http://www.w3.org/2000/svg" viewBox="0 0 543.37 592.34"><defs><style>.cls-1,.cls-2,.cls-3,.cls-4{stroke-width:0px;}.cls-2{fill:gray;}.cls-3{fill:#999;}.cls-4{fill:#fff;}</style></defs><circle class="cls-4" cx="442.41" cy="396.92" r="97.78" transform="translate(-20.25 770.05) rotate(-80.78)"/><path class="cls-3" d="M442.41,299.65c53.64,0,97.28,43.64,97.28,97.28s-43.64,97.28-97.28,97.28-97.28-43.64-97.28-97.28,43.64-97.28,97.28-97.28M442.41,298.65c-54.28,0-98.28,44-98.28,98.28s44,98.28,98.28,98.28,98.28-44,98.28-98.28-44-98.28-98.28-98.28h0Z"/><path class="cls-1" d="M419.88,354.11c0,2.13-.53,3.76-1.58,4.9s-2.57,1.71-4.54,1.71-3.48-.57-4.54-1.71-1.58-2.78-1.58-4.92.53-3.77,1.59-4.9c1.06-1.13,2.57-1.69,4.55-1.69s3.49.57,4.53,1.71c1.05,1.14,1.57,2.77,1.57,4.9ZM410.5,354.11c0,1.44.27,2.52.82,3.24s1.36,1.09,2.44,1.09c2.17,0,3.26-1.44,3.26-4.33s-1.08-4.34-3.24-4.34c-1.08,0-1.9.36-2.45,1.09-.55.73-.83,1.81-.83,3.25Z"/><path class="cls-1" d="M427.81,350.54c.36,0,.67.03.91.08l-.2,2.51c-.22-.06-.48-.09-.79-.09-.86,0-1.52.22-2,.66s-.72,1.05-.72,1.85v5h-2.68v-9.83h2.03l.4,1.65h.13c.3-.55.72-.99,1.24-1.33.52-.34,1.08-.5,1.69-.5Z"/><path class="cls-1" d="M430.39,348.18c0-.87.49-1.31,1.46-1.31s1.46.44,1.46,1.31c0,.42-.12.74-.36.97-.24.23-.61.35-1.09.35-.97,0-1.46-.44-1.46-1.32ZM433.18,360.55h-2.68v-9.83h2.68v9.83Z"/><path class="cls-1" d="M444.55,350.72v1.36l-1.54.4c.28.44.42.93.42,1.48,0,1.05-.37,1.88-1.1,2.46-.74.59-1.76.88-3.06.88l-.48-.03-.4-.04c-.28.21-.41.45-.41.7,0,.39.49.58,1.48.58h1.67c1.08,0,1.9.23,2.47.69.56.46.85,1.14.85,2.04,0,1.15-.48,2.04-1.44,2.67-.96.63-2.33.95-4.13.95-1.37,0-2.42-.24-3.14-.72-.72-.48-1.09-1.15-1.09-2.01,0-.59.18-1.09.55-1.49s.91-.68,1.63-.85c-.28-.12-.52-.31-.72-.58-.21-.27-.31-.55-.31-.85,0-.38.11-.69.33-.94s.53-.49.94-.73c-.52-.22-.92-.58-1.23-1.07-.3-.49-.45-1.07-.45-1.74,0-1.07.35-1.9,1.05-2.49s1.69-.88,2.99-.88c.28,0,.6.03.98.08.38.05.62.09.73.11h3.43ZM436.96,361.94c0,.37.18.66.53.87s.85.32,1.49.32c.96,0,1.71-.13,2.26-.4s.82-.62.82-1.08c0-.37-.16-.62-.48-.76s-.82-.21-1.49-.21h-1.39c-.49,0-.9.12-1.24.35-.33.23-.5.54-.5.92ZM437.94,353.94c0,.53.12.96.36,1.27s.61.47,1.11.47.87-.16,1.11-.47.35-.73.35-1.27c0-1.18-.49-1.78-1.46-1.78s-1.48.59-1.48,1.78Z"/><path class="cls-1" d="M452.41,360.55l-.52-1.34h-.07c-.45.57-.92.96-1.39,1.18-.48.22-1.1.33-1.87.33-.94,0-1.69-.27-2.23-.81s-.81-1.31-.81-2.3.37-1.81,1.09-2.31c.73-.5,1.83-.77,3.3-.82l1.71-.05v-.43c0-1-.51-1.49-1.53-1.49-.79,0-1.71.24-2.77.71l-.89-1.81c1.13-.59,2.38-.89,3.76-.89s2.33.29,3.03.86,1.05,1.45,1.05,2.62v6.55h-1.87ZM451.62,356l-1.04.04c-.78.02-1.36.16-1.74.42s-.57.65-.57,1.18c0,.76.43,1.13,1.3,1.13.62,0,1.12-.18,1.49-.54s.56-.83.56-1.42v-.81Z"/><path class="cls-1" d="M465.84,360.55h-2.68v-5.74c0-.71-.12-1.24-.36-1.59-.24-.35-.61-.53-1.12-.53-.69,0-1.18.25-1.49.76s-.47,1.33-.47,2.49v4.62h-2.68v-9.83h2.05l.36,1.26h.15c.26-.45.64-.8,1.14-1.06.5-.25,1.07-.38,1.71-.38,1.47,0,2.47.48,2.99,1.44h.24c.26-.46.65-.81,1.17-1.06.51-.25,1.09-.38,1.74-.38,1.11,0,1.96.29,2.53.86s.86,1.49.86,2.75v6.41h-2.69v-5.74c0-.71-.12-1.24-.36-1.59-.24-.35-.61-.53-1.12-.53-.66,0-1.15.23-1.47.7-.32.47-.49,1.21-.49,2.23v4.93Z"/><path class="cls-1" d="M474.6,348.18c0-.87.49-1.31,1.46-1.31s1.46.44,1.46,1.31c0,.42-.12.74-.36.97-.24.23-.61.35-1.09.35-.97,0-1.46-.44-1.46-1.32ZM477.39,360.55h-2.68v-9.83h2.68v9.83Z"/><path class="cls-1" d="M402.61,380.19c.47,0,1.03-.1,1.69-.31v2c-.67.3-1.49.45-2.46.45-1.07,0-1.85-.27-2.34-.81s-.73-1.36-.73-2.44v-4.74h-1.28v-1.13l1.48-.9.77-2.07h1.71v2.09h2.75v2.01h-2.75v4.74c0,.38.11.66.32.84s.5.27.85.27Z"/><path class="cls-1" d="M410.73,382.32c-1.58,0-2.82-.44-3.71-1.31s-1.34-2.11-1.34-3.71.41-2.92,1.23-3.82c.82-.9,1.96-1.35,3.42-1.35s2.47.4,3.24,1.19,1.16,1.88,1.16,3.28v1.3h-6.34c.03.76.25,1.36.68,1.78s1.01.64,1.78.64c.59,0,1.15-.06,1.68-.18s1.08-.32,1.65-.59v2.07c-.47.23-.97.41-1.5.52-.53.12-1.18.17-1.95.17ZM410.35,374.05c-.57,0-1.01.18-1.34.54-.32.36-.51.87-.55,1.53h3.76c-.01-.66-.18-1.17-.52-1.53-.33-.36-.79-.54-1.35-.54Z"/><path class="cls-1" d="M425.71,382.15h-2.68v-5.74c0-.71-.12-1.24-.36-1.59-.24-.35-.61-.53-1.12-.53-.69,0-1.18.25-1.49.76s-.47,1.33-.47,2.49v4.62h-2.68v-9.83h2.05l.36,1.26h.15c.26-.45.64-.8,1.14-1.06.5-.25,1.07-.38,1.71-.38,1.47,0,2.47.48,2.99,1.44h.24c.26-.46.65-.81,1.17-1.06.51-.25,1.09-.38,1.74-.38,1.11,0,1.96.29,2.53.86s.86,1.49.86,2.75v6.41h-2.69v-5.74c0-.71-.12-1.24-.36-1.59-.24-.35-.61-.53-1.12-.53-.66,0-1.15.23-1.47.7-.32.47-.49,1.21-.49,2.23v4.93Z"/><path class="cls-1" d="M439.99,382.32c-1.15,0-2.06-.42-2.72-1.26h-.14c.09.82.14,1.29.14,1.42v3.98h-2.68v-14.15h2.18l.38,1.27h.12c.63-.97,1.56-1.46,2.79-1.46,1.16,0,2.07.45,2.72,1.34s.98,2.14.98,3.74c0,1.05-.15,1.96-.46,2.73-.31.77-.75,1.36-1.31,1.77s-1.24.61-2,.61ZM439.2,374.28c-.66,0-1.15.2-1.45.61-.3.41-.46,1.08-.47,2.02v.29c0,1.05.16,1.81.47,2.27s.81.69,1.49.69c1.2,0,1.8-.99,1.8-2.97,0-.97-.15-1.69-.44-2.17-.3-.48-.76-.73-1.39-.73Z"/><path class="cls-1" d="M448.66,382.15h-2.68v-13.68h2.68v13.68Z"/><path class="cls-1" d="M457.71,382.15l-.52-1.34h-.07c-.45.57-.92.96-1.39,1.18-.48.22-1.1.33-1.87.33-.94,0-1.69-.27-2.23-.81s-.81-1.31-.81-2.3.37-1.81,1.09-2.31c.73-.5,1.83-.77,3.3-.82l1.71-.05v-.43c0-1-.51-1.49-1.53-1.49-.79,0-1.71.24-2.77.71l-.89-1.81c1.13-.59,2.38-.89,3.76-.89s2.33.29,3.03.86,1.05,1.45,1.05,2.62v6.55h-1.87ZM456.92,377.6l-1.04.04c-.78.02-1.36.16-1.74.42s-.57.65-.57,1.18c0,.76.43,1.13,1.3,1.13.62,0,1.12-.18,1.49-.54s.56-.83.56-1.42v-.81Z"/><path class="cls-1" d="M466.49,380.19c.47,0,1.03-.1,1.69-.31v2c-.67.3-1.49.45-2.46.45-1.07,0-1.85-.27-2.34-.81s-.73-1.36-.73-2.44v-4.74h-1.28v-1.13l1.48-.9.77-2.07h1.71v2.09h2.75v2.01h-2.75v4.74c0,.38.11.66.32.84s.5.27.85.27Z"/><path class="cls-1" d="M474.61,382.32c-1.58,0-2.82-.44-3.71-1.31s-1.34-2.11-1.34-3.71.41-2.92,1.23-3.82c.82-.9,1.96-1.35,3.42-1.35s2.47.4,3.24,1.19,1.16,1.88,1.16,3.28v1.3h-6.34c.03.76.25,1.36.68,1.78s1.01.64,1.78.64c.59,0,1.15-.06,1.68-.18s1.08-.32,1.65-.59v2.07c-.47.23-.97.41-1.5.52-.53.12-1.18.17-1.95.17ZM474.23,374.05c-.57,0-1.01.18-1.34.54-.32.36-.51.87-.55,1.53h3.76c-.01-.66-.18-1.17-.52-1.53-.33-.36-.79-.54-1.35-.54Z"/><path class="cls-1" d="M487.65,379.23c0,1.01-.35,1.78-1.05,2.3s-1.75.79-3.14.79c-.71,0-1.32-.05-1.83-.14-.5-.1-.98-.24-1.42-.43v-2.21c.5.23,1.06.43,1.68.59.62.16,1.17.24,1.65.24.97,0,1.46-.28,1.46-.84,0-.21-.06-.38-.19-.51-.13-.13-.35-.28-.67-.45-.32-.17-.74-.36-1.27-.58-.76-.32-1.31-.61-1.67-.88-.36-.27-.61-.58-.77-.93-.16-.35-.24-.78-.24-1.29,0-.87.34-1.55,1.02-2.03.68-.48,1.64-.72,2.88-.72s2.33.26,3.45.77l-.81,1.93c-.49-.21-.95-.38-1.38-.52s-.86-.2-1.31-.2c-.79,0-1.19.21-1.19.64,0,.24.13.45.38.62.26.18.81.44,1.67.78.77.31,1.33.6,1.69.87s.62.58.79.93.25.77.25,1.26Z"/><path class="cls-1" d="M392.65,418.62h4.37v6.25c-.68.22-1.37.38-2.07.49s-1.52.17-2.44.17c-1.95,0-3.46-.58-4.54-1.74-1.08-1.16-1.63-2.78-1.63-4.86,0-1.34.27-2.51.8-3.51.54-1,1.31-1.77,2.32-2.3s2.19-.8,3.54-.8,2.65.25,3.83.76l-.58,1.32c-1.16-.49-2.28-.74-3.35-.74-1.56,0-2.79.47-3.67,1.4s-1.32,2.22-1.32,3.88c0,1.73.42,3.05,1.27,3.95.85.9,2.09,1.34,3.73,1.34.89,0,1.76-.1,2.61-.31v-3.96h-2.87v-1.34Z"/><path class="cls-1" d="M403.96,425.52c-1.42,0-2.55-.43-3.37-1.3-.82-.87-1.24-2.07-1.24-3.61s.38-2.79,1.15-3.7c.76-.91,1.79-1.37,3.08-1.37,1.21,0,2.16.4,2.87,1.19s1.05,1.84,1.05,3.14v.92h-6.64c.03,1.13.31,1.99.86,2.58s1.31.88,2.29.88c1.04,0,2.06-.22,3.08-.65v1.3c-.52.22-1,.38-1.46.48-.46.1-1.01.14-1.67.14ZM403.56,416.76c-.77,0-1.39.25-1.85.76-.46.5-.73,1.2-.81,2.09h5.04c0-.92-.21-1.62-.62-2.11-.41-.49-1-.73-1.76-.73Z"/><path class="cls-1" d="M416.58,425.35v-6.23c0-.79-.18-1.37-.54-1.76s-.92-.58-1.68-.58c-1.01,0-1.75.27-2.21.82s-.7,1.44-.7,2.7v5.05h-1.46v-9.63h1.19l.24,1.32h.07c.3-.47.72-.84,1.26-1.1.54-.26,1.14-.39,1.8-.39,1.16,0,2.03.28,2.62.84s.88,1.45.88,2.68v6.28h-1.46Z"/><path class="cls-1" d="M425.1,425.52c-1.42,0-2.55-.43-3.37-1.3-.82-.87-1.24-2.07-1.24-3.61s.38-2.79,1.15-3.7c.76-.91,1.79-1.37,3.08-1.37,1.21,0,2.16.4,2.87,1.19s1.05,1.84,1.05,3.14v.92h-6.64c.03,1.13.31,1.99.86,2.58s1.31.88,2.29.88c1.04,0,2.06-.22,3.08-.65v1.3c-.52.22-1,.38-1.46.48-.46.1-1.01.14-1.67.14ZM424.71,416.76c-.77,0-1.39.25-1.85.76-.46.5-.73,1.2-.81,2.09h5.04c0-.92-.21-1.62-.62-2.11-.41-.49-1-.73-1.76-.73Z"/><path class="cls-1" d="M435.53,415.54c.43,0,.81.04,1.15.11l-.2,1.35c-.4-.09-.75-.13-1.05-.13-.78,0-1.45.32-2,.95-.55.63-.83,1.42-.83,2.36v5.17h-1.46v-9.63h1.2l.17,1.78h.07c.36-.63.79-1.11,1.29-1.45s1.06-.51,1.66-.51Z"/><path class="cls-1" d="M444.4,425.35l-.29-1.37h-.07c-.48.6-.96,1.01-1.44,1.23-.48.21-1.07.32-1.79.32-.96,0-1.7-.25-2.25-.74s-.81-1.19-.81-2.1c0-1.95,1.56-2.96,4.67-3.06l1.63-.05v-.6c0-.76-.16-1.31-.49-1.67-.33-.36-.85-.54-1.56-.54-.8,0-1.71.25-2.72.74l-.45-1.12c.47-.26.99-.46,1.56-.61s1.13-.22,1.7-.22c1.15,0,2,.25,2.55.76.55.51.83,1.33.83,2.45v6.57h-1.08ZM441.11,424.32c.91,0,1.62-.25,2.14-.75.52-.5.78-1.2.78-2.09v-.87l-1.46.06c-1.16.04-2,.22-2.51.54-.51.32-.77.82-.77,1.49,0,.53.16.93.48,1.2s.77.41,1.34.41Z"/><path class="cls-1" d="M451.6,424.32c.26,0,.51-.02.75-.06.24-.04.43-.08.57-.12v1.12c-.16.08-.39.14-.7.19-.31.05-.58.07-.83.07-1.86,0-2.79-.98-2.79-2.94v-5.73h-1.38v-.7l1.38-.61.62-2.06h.84v2.23h2.79v1.13h-2.79v5.67c0,.58.14,1.03.41,1.34s.65.47,1.13.47Z"/><path class="cls-1" d="M458.91,425.52c-1.42,0-2.55-.43-3.37-1.3-.82-.87-1.24-2.07-1.24-3.61s.38-2.79,1.15-3.7c.76-.91,1.79-1.37,3.08-1.37,1.21,0,2.16.4,2.87,1.19s1.05,1.84,1.05,3.14v.92h-6.64c.03,1.13.31,1.99.86,2.58s1.31.88,2.29.88c1.04,0,2.06-.22,3.08-.65v1.3c-.52.22-1,.38-1.46.48-.46.1-1.01.14-1.67.14ZM458.52,416.76c-.77,0-1.39.25-1.85.76-.46.5-.73,1.2-.81,2.09h5.04c0-.92-.21-1.62-.62-2.11-.41-.49-1-.73-1.76-.73Z"/><path class="cls-1" d="M475.54,425.35l-.29-1.37h-.07c-.48.6-.96,1.01-1.44,1.23-.48.21-1.07.32-1.79.32-.96,0-1.7-.25-2.25-.74s-.81-1.19-.81-2.1c0-1.95,1.56-2.96,4.67-3.06l1.63-.05v-.6c0-.76-.16-1.31-.49-1.67-.33-.36-.85-.54-1.56-.54-.8,0-1.71.25-2.72.74l-.45-1.12c.47-.26.99-.46,1.56-.61s1.13-.22,1.7-.22c1.15,0,2,.25,2.55.76.55.51.83,1.33.83,2.45v6.57h-1.08ZM472.25,424.32c.91,0,1.62-.25,2.14-.75.52-.5.78-1.2.78-2.09v-.87l-1.46.06c-1.16.04-2,.22-2.51.54-.51.32-.77.82-.77,1.49,0,.53.16.93.48,1.2s.77.41,1.34.41Z"/><path class="cls-1" d="M486.22,425.35v-6.23c0-.79-.18-1.37-.54-1.76s-.92-.58-1.68-.58c-1.01,0-1.75.27-2.21.82s-.7,1.44-.7,2.7v5.05h-1.46v-9.63h1.19l.24,1.32h.07c.3-.47.72-.84,1.26-1.1.54-.26,1.14-.39,1.8-.39,1.16,0,2.03.28,2.62.84s.88,1.45.88,2.68v6.28h-1.46Z"/><path class="cls-1" d="M497.23,424.06h-.08c-.67.98-1.68,1.47-3.02,1.47-1.26,0-2.24-.43-2.94-1.29s-1.05-2.09-1.05-3.67.35-2.82,1.05-3.7,1.68-1.32,2.94-1.32,2.31.47,3.01,1.42h.11l-.06-.69-.04-.68v-3.92h1.46v13.68h-1.19l-.19-1.29ZM494.32,424.3c1,0,1.72-.27,2.17-.81.45-.54.67-1.42.67-2.62v-.31c0-1.37-.23-2.34-.68-2.92-.46-.58-1.18-.87-2.18-.87-.86,0-1.51.33-1.96,1-.45.67-.68,1.6-.68,2.82s.23,2.16.68,2.79,1.11.94,1.99.94Z"/><path class="cls-1" d="M398.3,437.14c.43,0,.81.04,1.15.11l-.2,1.35c-.4-.09-.75-.13-1.05-.13-.78,0-1.45.32-2,.95-.55.63-.83,1.42-.83,2.36v5.17h-1.46v-9.63h1.2l.17,1.78h.07c.36-.63.79-1.11,1.29-1.45s1.06-.51,1.66-.51Z"/><path class="cls-1" d="M405.32,447.13c-1.42,0-2.55-.43-3.37-1.3-.82-.87-1.24-2.07-1.24-3.61s.38-2.79,1.15-3.7c.76-.91,1.79-1.37,3.08-1.37,1.21,0,2.16.4,2.87,1.19s1.05,1.84,1.05,3.14v.92h-6.64c.03,1.13.31,1.99.86,2.58s1.31.88,2.29.88c1.04,0,2.06-.22,3.08-.65v1.3c-.52.22-1,.38-1.46.48-.46.1-1.01.14-1.67.14ZM404.92,438.36c-.77,0-1.39.25-1.85.76-.46.5-.73,1.2-.81,2.09h5.04c0-.92-.21-1.62-.62-2.11-.41-.49-1-.73-1.76-.73Z"/><path class="cls-1" d="M412.72,437.32v6.25c0,.79.18,1.37.54,1.76s.92.58,1.68.58c1.01,0,1.74-.28,2.21-.83.46-.55.7-1.45.7-2.7v-5.06h1.46v9.63h-1.2l-.21-1.29h-.08c-.3.47-.71.84-1.24,1.09-.53.25-1.14.38-1.82.38-1.17,0-2.05-.28-2.63-.83-.58-.56-.88-1.45-.88-2.67v-6.3h1.48Z"/><path class="cls-1" d="M428.61,444.32c0,.9-.33,1.59-1,2.07s-1.61.73-2.81.73c-1.28,0-2.27-.2-2.99-.61v-1.35c.46.23.96.42,1.49.55s1.04.2,1.53.2c.76,0,1.35-.12,1.76-.36s.62-.61.62-1.11c0-.38-.16-.7-.49-.96-.33-.27-.96-.58-1.9-.95-.9-.33-1.53-.62-1.91-.88-.38-.25-.66-.53-.84-.85-.19-.32-.28-.69-.28-1.13,0-.79.32-1.4.96-1.86s1.51-.68,2.63-.68c1.04,0,2.05.21,3.04.63l-.52,1.19c-.97-.4-1.84-.6-2.63-.6-.69,0-1.21.11-1.56.33s-.53.52-.53.9c0,.26.07.48.2.66.13.18.34.35.64.52s.86.4,1.69.71c1.14.42,1.91.83,2.32,1.26s.6.95.6,1.59Z"/><path class="cls-1" d="M435.05,447.13c-1.42,0-2.55-.43-3.37-1.3-.82-.87-1.24-2.07-1.24-3.61s.38-2.79,1.15-3.7c.76-.91,1.79-1.37,3.08-1.37,1.21,0,2.16.4,2.87,1.19s1.05,1.84,1.05,3.14v.92h-6.64c.03,1.13.31,1.99.86,2.58s1.31.88,2.29.88c1.04,0,2.06-.22,3.08-.65v1.3c-.52.22-1,.38-1.46.48-.46.1-1.01.14-1.67.14ZM434.66,438.36c-.77,0-1.39.25-1.85.76-.46.5-.73,1.2-.81,2.09h5.04c0-.92-.21-1.62-.62-2.11-.41-.49-1-.73-1.76-.73Z"/><path class="cls-1" d="M455.73,446.95h-1.49v-6.05h-6.77v6.05h-1.49v-12.85h1.49v5.47h6.77v-5.47h1.49v12.85Z"/><path class="cls-1" d="M463.21,446.95h-1.49v-11.52h-4.07v-1.33h9.63v1.33h-4.07v11.52Z"/><path class="cls-1" d="M474.9,446.95l-4.36-11.39h-.07c.08.9.12,1.97.12,3.22v8.17h-1.38v-12.85h2.25l4.07,10.6h.07l4.1-10.6h2.23v12.85h-1.49v-8.28c0-.95.04-1.98.12-3.09h-.07l-4.39,11.37h-1.2Z"/><path class="cls-1" d="M485.47,446.95v-12.85h1.49v11.5h5.67v1.35h-7.16Z"/><circle class="cls-4" cx="272.63" cy="494.07" r="97.78" transform="translate(-258.73 684.04) rotate(-80.78)"/><path class="cls-3" d="M272.63,396.79c53.64,0,97.28,43.64,97.28,97.28s-43.64,97.28-97.28,97.28-97.28-43.64-97.28-97.28,43.64-97.28,97.28-97.28M272.63,395.79c-54.28,0-98.28,44-98.28,98.28s44,98.28,98.28,98.28,98.28-44,98.28-98.28-44-98.28-98.28-98.28h0Z"/><path class="cls-1" d="M204.47,458.78c0,2.14-.53,3.78-1.59,4.93-1.06,1.15-2.57,1.72-4.55,1.72s-3.49-.57-4.55-1.72c-1.06-1.15-1.59-2.8-1.59-4.95s.53-3.79,1.59-4.93c1.06-1.13,2.58-1.7,4.56-1.7s3.49.57,4.54,1.71c1.05,1.14,1.57,2.79,1.57,4.93ZM195.07,458.78c0,1.44.27,2.53.82,3.26.55.73,1.36,1.1,2.45,1.1,2.18,0,3.27-1.45,3.27-4.36s-1.08-4.37-3.25-4.37c-1.09,0-1.91.37-2.46,1.1-.55.73-.83,1.82-.83,3.26Z"/><path class="cls-1" d="M212.43,455.19c.36,0,.67.03.91.08l-.2,2.53c-.22-.06-.48-.09-.79-.09-.86,0-1.53.22-2,.66-.48.44-.72,1.06-.72,1.86v5.03h-2.69v-9.88h2.04l.4,1.66h.13c.31-.55.72-1,1.24-1.34.52-.34,1.08-.51,1.7-.51Z"/><path class="cls-1" d="M215.01,452.82c0-.88.49-1.32,1.46-1.32s1.46.44,1.46,1.32c0,.42-.12.74-.37.98-.24.23-.61.35-1.1.35-.98,0-1.46-.44-1.46-1.33ZM217.81,465.26h-2.69v-9.88h2.69v9.88Z"/><path class="cls-1" d="M229.21,455.38v1.37l-1.54.4c.28.44.42.94.42,1.49,0,1.06-.37,1.89-1.11,2.48-.74.59-1.76.89-3.07.89l-.48-.03-.4-.04c-.28.21-.41.45-.41.71,0,.39.49.58,1.48.58h1.67c1.08,0,1.91.23,2.47.7.57.46.85,1.15.85,2.05,0,1.15-.48,2.05-1.44,2.69-.96.64-2.34.95-4.14.95-1.38,0-2.42-.24-3.15-.72-.73-.48-1.09-1.15-1.09-2.02,0-.6.19-1.09.56-1.49.37-.4.91-.69,1.63-.86-.28-.12-.52-.31-.72-.58-.21-.27-.31-.55-.31-.85,0-.38.11-.69.33-.94.22-.25.53-.5.94-.74-.52-.22-.93-.58-1.23-1.08s-.45-1.08-.45-1.75c0-1.08.35-1.91,1.05-2.5.7-.59,1.7-.88,3-.88.28,0,.6.02.98.08.38.05.62.09.73.11h3.44ZM221.6,466.65c0,.37.18.66.53.88.35.21.85.32,1.49.32.96,0,1.72-.13,2.26-.4.55-.26.82-.63.82-1.09,0-.37-.16-.63-.49-.77s-.82-.21-1.5-.21h-1.39c-.49,0-.91.12-1.24.35s-.5.54-.5.92ZM222.58,458.61c0,.54.12.96.37,1.27.24.31.62.47,1.11.47s.88-.16,1.11-.47c.24-.31.35-.74.35-1.27,0-1.19-.49-1.78-1.46-1.78s-1.48.59-1.48,1.78Z"/><path class="cls-1" d="M237.09,465.26l-.52-1.34h-.07c-.45.57-.92.97-1.4,1.19-.48.22-1.1.33-1.87.33-.95,0-1.69-.27-2.23-.81-.54-.54-.82-1.31-.82-2.31s.37-1.82,1.1-2.32c.73-.5,1.83-.77,3.31-.83l1.71-.05v-.43c0-1-.51-1.5-1.53-1.5-.79,0-1.71.24-2.78.72l-.89-1.82c1.13-.59,2.39-.89,3.77-.89s2.33.29,3.04.87c.71.58,1.06,1.46,1.06,2.63v6.58h-1.88ZM236.29,460.68l-1.04.04c-.78.02-1.36.17-1.75.42-.38.26-.57.65-.57,1.18,0,.76.43,1.14,1.3,1.14.62,0,1.12-.18,1.49-.54s.56-.84.56-1.43v-.81Z"/><path class="cls-1" d="M250.55,465.26h-2.69v-5.77c0-.71-.12-1.25-.36-1.6-.24-.36-.61-.54-1.12-.54-.69,0-1.19.25-1.5.76-.31.51-.47,1.34-.47,2.5v4.65h-2.69v-9.88h2.05l.36,1.26h.15c.26-.45.65-.81,1.15-1.07.5-.26,1.07-.38,1.72-.38,1.47,0,2.47.48,3,1.45h.24c.26-.46.65-.82,1.17-1.07.51-.25,1.09-.38,1.74-.38,1.12,0,1.96.29,2.53.86.57.57.86,1.5.86,2.76v6.44h-2.7v-5.77c0-.71-.12-1.25-.36-1.6-.24-.36-.61-.54-1.12-.54-.66,0-1.15.24-1.48.71-.33.47-.49,1.22-.49,2.25v4.96Z"/><path class="cls-1" d="M259.34,452.82c0-.88.49-1.32,1.46-1.32s1.46.44,1.46,1.32c0,.42-.12.74-.37.98-.24.23-.61.35-1.1.35-.98,0-1.46-.44-1.46-1.33ZM262.14,465.26h-2.69v-9.88h2.69v9.88Z"/><path class="cls-1" d="M275.1,457.4h-2.33v7.86h-2.69v-7.86h-1.48v-1.3l1.48-.72v-.72c0-1.13.28-1.95.83-2.47.55-.52,1.44-.78,2.65-.78.93,0,1.75.14,2.48.42l-.69,1.98c-.54-.17-1.04-.26-1.5-.26-.38,0-.66.11-.83.34-.17.23-.26.52-.26.87v.62h2.33v2.02Z"/><path class="cls-1" d="M283.62,465.26l-.36-1.26h-.14c-.29.46-.7.81-1.23,1.06-.53.25-1.13.38-1.81.38-1.16,0-2.03-.31-2.62-.93-.59-.62-.88-1.52-.88-2.68v-6.44h2.69v5.77c0,.71.13,1.25.38,1.6s.66.53,1.21.53c.75,0,1.29-.25,1.63-.76.33-.5.5-1.34.5-2.5v-4.65h2.69v9.88h-2.06Z"/><path class="cls-1" d="M297.6,465.26h-2.69v-5.77c0-.71-.13-1.25-.38-1.6-.25-.36-.65-.54-1.21-.54-.75,0-1.29.25-1.63.76s-.5,1.34-.5,2.5v4.65h-2.69v-9.88h2.05l.36,1.26h.15c.3-.48.71-.84,1.24-1.08.53-.24,1.12-.37,1.79-.37,1.15,0,2.02.31,2.61.93.59.62.89,1.52.89,2.69v6.44Z"/><path class="cls-1" d="M304.36,465.43c-3.07,0-4.6-1.69-4.6-5.06,0-1.68.42-2.96,1.25-3.85.83-.89,2.03-1.33,3.59-1.33,1.14,0,2.16.22,3.07.67l-.79,2.09c-.42-.17-.82-.31-1.18-.42-.37-.11-.73-.16-1.09-.16-1.4,0-2.1,1-2.1,2.99s.7,2.9,2.1,2.9c.52,0,1-.07,1.44-.21.44-.14.88-.35,1.32-.65v2.31c-.43.28-.87.47-1.32.57-.44.11-1,.16-1.68.16Z"/><path class="cls-1" d="M313.79,463.29c.47,0,1.03-.1,1.69-.31v2.01c-.67.3-1.49.45-2.47.45-1.08,0-1.86-.27-2.35-.82s-.74-1.36-.74-2.45v-4.76h-1.29v-1.14l1.48-.9.78-2.09h1.72v2.1h2.76v2.02h-2.76v4.76c0,.38.11.67.32.85.21.18.5.27.85.27Z"/><path class="cls-1" d="M317.36,452.82c0-.88.49-1.32,1.46-1.32s1.46.44,1.46,1.32c0,.42-.12.74-.37.98-.24.23-.61.35-1.1.35-.98,0-1.46-.44-1.46-1.33ZM320.17,465.26h-2.69v-9.88h2.69v9.88Z"/><path class="cls-1" d="M331.94,460.3c0,1.61-.42,2.87-1.27,3.77-.85.91-2.02,1.36-3.53,1.36-.95,0-1.78-.21-2.5-.62s-1.28-1.01-1.67-1.79c-.39-.78-.58-1.68-.58-2.72,0-1.61.42-2.87,1.26-3.76.84-.9,2.02-1.34,3.54-1.34.95,0,1.78.21,2.5.62s1.28,1,1.67,1.78.58,1.68.58,2.71ZM325.13,460.3c0,.98.16,1.72.48,2.22.32.5.84.75,1.56.75s1.23-.25,1.55-.75c.31-.5.47-1.24.47-2.22s-.16-1.71-.48-2.2c-.32-.49-.84-.73-1.56-.73s-1.23.24-1.55.73-.48,1.22-.48,2.21Z"/><path class="cls-1" d="M343.26,465.26h-2.69v-5.77c0-.71-.13-1.25-.38-1.6-.25-.36-.65-.54-1.21-.54-.75,0-1.29.25-1.63.76s-.5,1.34-.5,2.5v4.65h-2.69v-9.88h2.05l.36,1.26h.15c.3-.48.71-.84,1.24-1.08.53-.24,1.12-.37,1.79-.37,1.15,0,2.02.31,2.61.93.59.62.89,1.52.89,2.69v6.44Z"/><path class="cls-1" d="M352.9,462.32c0,1.01-.35,1.79-1.05,2.32s-1.75.79-3.15.79c-.72,0-1.33-.05-1.83-.15-.5-.1-.98-.24-1.42-.43v-2.23c.5.24,1.06.43,1.69.59.63.16,1.18.24,1.65.24.98,0,1.46-.28,1.46-.85,0-.21-.07-.38-.19-.52s-.35-.28-.67-.45-.74-.36-1.27-.59c-.76-.32-1.32-.61-1.67-.88-.36-.27-.61-.58-.78-.93-.16-.35-.24-.78-.24-1.29,0-.88.34-1.56,1.02-2.04.68-.48,1.64-.72,2.89-.72s2.34.26,3.46.78l-.81,1.94c-.49-.21-.95-.39-1.38-.52-.43-.14-.87-.2-1.31-.2-.79,0-1.19.21-1.19.64,0,.24.13.45.38.63s.82.44,1.68.79c.77.31,1.33.6,1.69.88.36.27.62.58.79.94.17.35.26.77.26,1.26Z"/><path class="cls-1" d="M211.63,486.97l-.52-1.34h-.07c-.45.57-.92.97-1.4,1.19-.48.22-1.1.33-1.87.33-.95,0-1.69-.27-2.23-.81-.54-.54-.82-1.31-.82-2.31s.37-1.82,1.1-2.32c.73-.5,1.83-.77,3.31-.83l1.71-.05v-.43c0-1-.51-1.5-1.53-1.5-.79,0-1.71.24-2.78.72l-.89-1.82c1.13-.59,2.39-.89,3.77-.89s2.33.29,3.04.87c.71.58,1.06,1.46,1.06,2.63v6.58h-1.88ZM210.83,482.4l-1.04.04c-.78.02-1.36.17-1.75.42-.38.26-.57.65-.57,1.18,0,.76.43,1.14,1.3,1.14.62,0,1.12-.18,1.49-.54s.56-.84.56-1.43v-.81Z"/><path class="cls-1" d="M225.37,486.97h-2.69v-5.77c0-.71-.13-1.25-.38-1.6-.25-.36-.65-.54-1.21-.54-.75,0-1.29.25-1.63.76s-.5,1.34-.5,2.5v4.65h-2.69v-9.88h2.05l.36,1.26h.15c.3-.48.71-.84,1.24-1.08.53-.24,1.12-.37,1.79-.37,1.15,0,2.02.31,2.61.93.59.62.89,1.52.89,2.69v6.44Z"/><path class="cls-1" d="M231.25,487.15c-1.16,0-2.07-.45-2.73-1.35-.66-.9-.99-2.15-.99-3.75s.34-2.88,1.01-3.79c.67-.9,1.6-1.36,2.78-1.36s2.19.48,2.84,1.45h.09c-.14-.74-.2-1.39-.2-1.97v-3.16h2.7v13.75h-2.06l-.52-1.28h-.11c-.61.97-1.54,1.46-2.79,1.46ZM232.2,485c.69,0,1.19-.2,1.51-.6s.49-1.08.52-2.04v-.29c0-1.06-.16-1.82-.49-2.28-.33-.46-.86-.69-1.59-.69-.6,0-1.07.25-1.4.76-.33.51-.5,1.25-.5,2.22s.17,1.7.5,2.19c.33.49.81.73,1.44.73Z"/><path class="cls-1" d="M248.7,487.15c-1.59,0-2.83-.44-3.72-1.32-.89-.88-1.34-2.12-1.34-3.73s.41-2.93,1.24-3.84,1.97-1.36,3.42-1.36,2.48.4,3.25,1.19c.78.8,1.16,1.89,1.16,3.3v1.31h-6.35c.03.77.25,1.36.68,1.79.42.43,1.02.65,1.78.65.59,0,1.16-.06,1.68-.19.53-.12,1.08-.32,1.66-.59v2.08c-.47.24-.97.41-1.51.53-.54.11-1.19.17-1.96.17ZM248.32,478.83c-.57,0-1.02.18-1.34.54s-.51.88-.55,1.54h3.77c-.01-.67-.18-1.18-.52-1.54s-.79-.54-1.36-.54Z"/><path class="cls-1" d="M256.92,481.93l-3.17-4.83h3.05l1.91,3.15,1.93-3.15h3.05l-3.21,4.83,3.36,5.05h-3.06l-2.07-3.38-2.08,3.38h-3.05l3.34-5.05Z"/><path class="cls-1" d="M269.49,485c.47,0,1.03-.1,1.69-.31v2.01c-.67.3-1.49.45-2.47.45-1.08,0-1.86-.27-2.35-.82s-.74-1.36-.74-2.45v-4.76h-1.29v-1.14l1.48-.9.78-2.09h1.72v2.1h2.76v2.02h-2.76v4.76c0,.38.11.67.32.85.21.18.5.27.85.27Z"/><path class="cls-1" d="M277.63,487.15c-1.59,0-2.83-.44-3.72-1.32-.89-.88-1.34-2.12-1.34-3.73s.41-2.93,1.24-3.84,1.97-1.36,3.42-1.36,2.48.4,3.25,1.19c.78.8,1.16,1.89,1.16,3.3v1.31h-6.35c.03.77.25,1.36.68,1.79.42.43,1.02.65,1.78.65.59,0,1.16-.06,1.68-.19.53-.12,1.08-.32,1.66-.59v2.08c-.47.24-.97.41-1.51.53-.54.11-1.19.17-1.96.17ZM277.25,478.83c-.57,0-1.02.18-1.34.54s-.51.88-.55,1.54h3.77c-.01-.67-.18-1.18-.52-1.54s-.79-.54-1.36-.54Z"/><path class="cls-1" d="M292.93,486.97h-2.69v-5.77c0-.71-.13-1.25-.38-1.6-.25-.36-.65-.54-1.21-.54-.75,0-1.29.25-1.63.76s-.5,1.34-.5,2.5v4.65h-2.69v-9.88h2.05l.36,1.26h.15c.3-.48.71-.84,1.24-1.08.53-.24,1.12-.37,1.79-.37,1.15,0,2.02.31,2.61.93.59.62.89,1.52.89,2.69v6.44Z"/><path class="cls-1" d="M302.57,484.04c0,1.01-.35,1.79-1.05,2.32s-1.75.79-3.15.79c-.72,0-1.33-.05-1.83-.15-.5-.1-.98-.24-1.42-.43v-2.23c.5.24,1.06.43,1.69.59.63.16,1.18.24,1.65.24.98,0,1.46-.28,1.46-.85,0-.21-.07-.38-.19-.52s-.35-.28-.67-.45-.74-.36-1.27-.59c-.76-.32-1.32-.61-1.67-.88-.36-.27-.61-.58-.78-.93-.16-.35-.24-.78-.24-1.29,0-.88.34-1.56,1.02-2.04.68-.48,1.64-.72,2.89-.72s2.34.26,3.46.78l-.81,1.94c-.49-.21-.95-.39-1.38-.52-.43-.14-.87-.2-1.31-.2-.79,0-1.19.21-1.19.64,0,.24.13.45.38.63s.82.44,1.68.79c.77.31,1.33.6,1.69.88.36.27.62.58.79.94.17.35.26.77.26,1.26Z"/><path class="cls-1" d="M304.56,474.54c0-.88.49-1.32,1.46-1.32s1.46.44,1.46,1.32c0,.42-.12.74-.37.98-.24.23-.61.35-1.1.35-.98,0-1.46-.44-1.46-1.33ZM307.36,486.97h-2.69v-9.88h2.69v9.88Z"/><path class="cls-1" d="M319.13,482.02c0,1.61-.42,2.87-1.27,3.77-.85.91-2.02,1.36-3.53,1.36-.95,0-1.78-.21-2.5-.62s-1.28-1.01-1.67-1.79c-.39-.78-.58-1.68-.58-2.72,0-1.61.42-2.87,1.26-3.76.84-.9,2.02-1.34,3.54-1.34.95,0,1.78.21,2.5.62s1.28,1,1.67,1.78.58,1.68.58,2.71ZM312.32,482.02c0,.98.16,1.72.48,2.22.32.5.84.75,1.56.75s1.23-.25,1.55-.75c.31-.5.47-1.24.47-2.22s-.16-1.71-.48-2.2c-.32-.49-.84-.73-1.56-.73s-1.23.24-1.55.73-.48,1.22-.48,2.21Z"/><path class="cls-1" d="M330.45,486.97h-2.69v-5.77c0-.71-.13-1.25-.38-1.6-.25-.36-.65-.54-1.21-.54-.75,0-1.29.25-1.63.76s-.5,1.34-.5,2.5v4.65h-2.69v-9.88h2.05l.36,1.26h.15c.3-.48.71-.84,1.24-1.08.53-.24,1.12-.37,1.79-.37,1.15,0,2.02.31,2.61.93.59.62.89,1.52.89,2.69v6.44Z"/><path class="cls-1" d="M340.09,484.04c0,1.01-.35,1.79-1.05,2.32s-1.75.79-3.15.79c-.72,0-1.33-.05-1.83-.15-.5-.1-.98-.24-1.42-.43v-2.23c.5.24,1.06.43,1.69.59.63.16,1.18.24,1.65.24.98,0,1.46-.28,1.46-.85,0-.21-.07-.38-.19-.52s-.35-.28-.67-.45-.74-.36-1.27-.59c-.76-.32-1.32-.61-1.67-.88-.36-.27-.61-.58-.78-.93-.16-.35-.24-.78-.24-1.29,0-.88.34-1.56,1.02-2.04.68-.48,1.64-.72,2.89-.72s2.34.26,3.46.78l-.81,1.94c-.49-.21-.95-.39-1.38-.52-.43-.14-.87-.2-1.31-.2-.79,0-1.19.21-1.19.64,0,.24.13.45.38.63s.82.44,1.68.79c.77.31,1.33.6,1.69.88.36.27.62.58.79.94.17.35.26.77.26,1.26Z"/><path class="cls-1" d="M210.24,521.25c0,1.31-.44,2.31-1.33,3.02-.89.7-2.16,1.06-3.82,1.06h-1.52v5.08h-1.5v-12.92h3.34c3.22,0,4.83,1.25,4.83,3.76ZM203.57,524.04h1.35c1.33,0,2.29-.21,2.88-.65.59-.43.89-1.12.89-2.07,0-.85-.28-1.49-.84-1.91-.56-.42-1.43-.63-2.61-.63h-1.67v5.25Z"/><path class="cls-1" d="M217.13,520.55c.43,0,.81.04,1.16.11l-.2,1.36c-.4-.09-.75-.13-1.06-.13-.78,0-1.45.32-2,.95-.55.64-.83,1.43-.83,2.38v5.2h-1.46v-9.68h1.21l.17,1.79h.07c.36-.63.79-1.12,1.3-1.46.5-.34,1.06-.51,1.67-.51Z"/><path class="cls-1" d="M228.42,525.55c0,1.58-.4,2.81-1.19,3.7s-1.89,1.33-3.29,1.33c-.86,0-1.63-.2-2.3-.61-.67-.41-1.19-.99-1.55-1.75s-.55-1.65-.55-2.67c0-1.58.39-2.81,1.18-3.69.79-.88,1.88-1.32,3.28-1.32s2.42.45,3.22,1.35c.8.9,1.19,2.12,1.19,3.66ZM221.06,525.55c0,1.24.25,2.18.74,2.83s1.22.97,2.18.97,1.68-.32,2.18-.97c.5-.64.75-1.59.75-2.83s-.25-2.17-.75-2.81c-.5-.64-1.23-.96-2.2-.96s-1.68.31-2.17.95c-.49.63-.73,1.57-.73,2.82Z"/><path class="cls-1" d="M234.85,530.58c-1.4,0-2.48-.43-3.25-1.29-.77-.86-1.15-2.08-1.15-3.66s.39-2.87,1.17-3.76c.78-.88,1.89-1.33,3.33-1.33.46,0,.93.05,1.39.15.46.1.83.22,1.09.35l-.45,1.25c-.32-.13-.68-.24-1.06-.32-.38-.08-.72-.13-1.01-.13-1.96,0-2.94,1.25-2.94,3.76,0,1.19.24,2.1.72,2.74.48.64,1.19.95,2.13.95.8,0,1.63-.17,2.48-.52v1.3c-.65.34-1.46.5-2.44.5Z"/><path class="cls-1" d="M243.66,530.58c-1.43,0-2.55-.44-3.38-1.31-.83-.87-1.24-2.08-1.24-3.63s.38-2.8,1.15-3.72c.77-.92,1.8-1.38,3.09-1.38,1.21,0,2.17.4,2.87,1.2.71.8,1.06,1.85,1.06,3.16v.93h-6.65c.03,1.14.32,2,.86,2.59.54.59,1.31.88,2.3.88,1.04,0,2.07-.22,3.08-.65v1.31c-.52.22-1.01.38-1.47.48-.46.1-1.02.15-1.67.15ZM243.26,521.77c-.78,0-1.39.25-1.85.76-.46.51-.73,1.21-.82,2.1h5.05c0-.92-.21-1.63-.62-2.12s-1-.74-1.76-.74Z"/><path class="cls-1" d="M255.94,527.76c0,.9-.33,1.6-1,2.09-.67.49-1.61.73-2.82.73-1.28,0-2.28-.2-3-.61v-1.36c.46.24.96.42,1.49.56.53.14,1.04.2,1.54.2.76,0,1.35-.12,1.76-.37s.62-.62.62-1.12c0-.38-.16-.7-.49-.97-.33-.27-.96-.58-1.91-.95-.9-.34-1.54-.63-1.92-.88-.38-.25-.66-.53-.85-.85-.19-.32-.28-.7-.28-1.14,0-.79.32-1.41.96-1.87.64-.46,1.52-.68,2.63-.68,1.04,0,2.06.21,3.05.64l-.52,1.19c-.97-.4-1.85-.6-2.63-.6-.69,0-1.22.11-1.57.33-.35.22-.53.52-.53.9,0,.26.07.48.2.66.13.18.35.36.64.52.29.17.86.4,1.69.72,1.15.42,1.92.84,2.32,1.26.4.42.6.96.6,1.6Z"/><path class="cls-1" d="M264.55,527.76c0,.9-.33,1.6-1,2.09-.67.49-1.61.73-2.82.73-1.28,0-2.28-.2-3-.61v-1.36c.46.24.96.42,1.49.56.53.14,1.04.2,1.54.2.76,0,1.35-.12,1.76-.37s.62-.62.62-1.12c0-.38-.16-.7-.49-.97-.33-.27-.96-.58-1.91-.95-.9-.34-1.54-.63-1.92-.88-.38-.25-.66-.53-.85-.85-.19-.32-.28-.7-.28-1.14,0-.79.32-1.41.96-1.87.64-.46,1.52-.68,2.63-.68,1.04,0,2.06.21,3.05.64l-.52,1.19c-.97-.4-1.85-.6-2.63-.6-.69,0-1.22.11-1.57.33-.35.22-.53.52-.53.9,0,.26.07.48.2.66.13.18.35.36.64.52.29.17.86.4,1.69.72,1.15.42,1.92.84,2.32,1.26.4.42.6.96.6,1.6Z"/><path class="cls-1" d="M278.19,529.11h-.08c-.68.98-1.69,1.48-3.03,1.48-1.26,0-2.25-.43-2.95-1.3s-1.05-2.1-1.05-3.69.35-2.84,1.06-3.72,1.69-1.33,2.94-1.33,2.31.48,3.01,1.43h.11l-.06-.7-.04-.68v-3.94h1.46v13.75h-1.19l-.19-1.3ZM275.26,529.35c1,0,1.72-.27,2.17-.82s.67-1.42.67-2.64v-.31c0-1.37-.23-2.35-.68-2.94-.46-.59-1.18-.88-2.18-.88-.86,0-1.51.33-1.97,1-.46.67-.68,1.61-.68,2.83s.23,2.17.68,2.8c.45.63,1.12.95,1.99.95Z"/><path class="cls-1" d="M288.62,530.41l-.29-1.38h-.07c-.48.61-.96,1.02-1.44,1.23s-1.08.32-1.79.32c-.96,0-1.71-.25-2.25-.74-.54-.5-.82-1.2-.82-2.11,0-1.96,1.56-2.98,4.68-3.08l1.64-.05v-.6c0-.76-.16-1.32-.49-1.68s-.85-.54-1.56-.54c-.8,0-1.72.25-2.73.74l-.45-1.12c.48-.26,1-.46,1.56-.61s1.14-.22,1.71-.22c1.15,0,2,.26,2.56.77.55.51.83,1.33.83,2.47v6.61h-1.08ZM285.31,529.37c.91,0,1.62-.25,2.15-.75.52-.5.78-1.2.78-2.1v-.88l-1.46.06c-1.16.04-2,.22-2.52.54-.51.32-.77.82-.77,1.5,0,.53.16.93.48,1.21.32.28.77.42,1.34.42Z"/><path class="cls-1" d="M295.83,529.37c.26,0,.51-.02.75-.06.24-.04.43-.08.57-.12v1.12c-.16.08-.39.14-.7.19s-.59.08-.83.08c-1.87,0-2.8-.99-2.8-2.96v-5.76h-1.38v-.71l1.38-.61.62-2.07h.85v2.25h2.8v1.14h-2.8v5.7c0,.58.14,1.03.41,1.34.28.31.65.47,1.14.47Z"/><path class="cls-1" d="M305.03,530.41l-.29-1.38h-.07c-.48.61-.96,1.02-1.44,1.23s-1.08.32-1.79.32c-.96,0-1.71-.25-2.25-.74-.54-.5-.82-1.2-.82-2.11,0-1.96,1.56-2.98,4.68-3.08l1.64-.05v-.6c0-.76-.16-1.32-.49-1.68s-.85-.54-1.56-.54c-.8,0-1.72.25-2.73.74l-.45-1.12c.48-.26,1-.46,1.56-.61s1.14-.22,1.71-.22c1.15,0,2,.26,2.56.77.55.51.83,1.33.83,2.47v6.61h-1.08ZM301.72,529.37c.91,0,1.62-.25,2.15-.75.52-.5.78-1.2.78-2.1v-.88l-1.46.06c-1.16.04-2,.22-2.52.54-.51.32-.77.82-.77,1.5,0,.53.16.93.48,1.21.32.28.77.42,1.34.42Z"/><path class="cls-1" d="M319.75,530.41l-.29-1.38h-.07c-.48.61-.96,1.02-1.44,1.23s-1.08.32-1.79.32c-.96,0-1.71-.25-2.25-.74-.54-.5-.82-1.2-.82-2.11,0-1.96,1.56-2.98,4.68-3.08l1.64-.05v-.6c0-.76-.16-1.32-.49-1.68s-.85-.54-1.56-.54c-.8,0-1.72.25-2.73.74l-.45-1.12c.48-.26,1-.46,1.56-.61s1.14-.22,1.71-.22c1.15,0,2,.26,2.56.77.55.51.83,1.33.83,2.47v6.61h-1.08ZM316.45,529.37c.91,0,1.62-.25,2.15-.75.52-.5.78-1.2.78-2.1v-.88l-1.46.06c-1.16.04-2,.22-2.52.54-.51.32-.77.82-.77,1.5,0,.53.16.93.48,1.21.32.28.77.42,1.34.42Z"/><path class="cls-1" d="M330.46,530.41v-6.26c0-.79-.18-1.38-.54-1.77s-.92-.58-1.68-.58c-1.01,0-1.75.27-2.22.82s-.71,1.45-.71,2.71v5.08h-1.46v-9.68h1.19l.24,1.33h.07c.3-.48.72-.85,1.26-1.11.54-.26,1.14-.39,1.81-.39,1.16,0,2.04.28,2.63.84s.88,1.46.88,2.7v6.32h-1.46Z"/><path class="cls-1" d="M341.5,529.11h-.08c-.68.98-1.69,1.48-3.03,1.48-1.26,0-2.25-.43-2.95-1.3s-1.05-2.1-1.05-3.69.35-2.84,1.06-3.72,1.69-1.33,2.94-1.33,2.31.48,3.01,1.43h.11l-.06-.7-.04-.68v-3.94h1.46v13.75h-1.19l-.19-1.3ZM338.58,529.35c1,0,1.72-.27,2.17-.82s.67-1.42.67-2.64v-.31c0-1.37-.23-2.35-.68-2.94-.46-.59-1.18-.88-2.18-.88-.86,0-1.51.33-1.97,1-.46.67-.68,1.61-.68,2.83s.23,2.17.68,2.8c.45.63,1.12.95,1.99.95Z"/><path class="cls-1" d="M245.52,552.3c-1.4,0-2.48-.43-3.25-1.29-.77-.86-1.15-2.08-1.15-3.66s.39-2.87,1.17-3.76c.78-.88,1.89-1.33,3.33-1.33.46,0,.93.05,1.39.15.46.1.83.22,1.09.35l-.45,1.25c-.32-.13-.68-.24-1.06-.32-.38-.08-.72-.13-1.01-.13-1.96,0-2.94,1.25-2.94,3.76,0,1.19.24,2.1.72,2.74.48.64,1.19.95,2.13.95.8,0,1.63-.17,2.48-.52v1.3c-.65.34-1.46.5-2.44.5Z"/><path class="cls-1" d="M258.59,547.27c0,1.58-.4,2.81-1.19,3.7s-1.89,1.33-3.29,1.33c-.86,0-1.63-.2-2.3-.61-.67-.41-1.19-.99-1.55-1.75s-.55-1.65-.55-2.67c0-1.58.39-2.81,1.18-3.69.79-.88,1.88-1.32,3.28-1.32s2.42.45,3.22,1.35c.8.9,1.19,2.12,1.19,3.66ZM251.23,547.27c0,1.24.25,2.18.74,2.83s1.22.97,2.18.97,1.68-.32,2.18-.97c.5-.64.75-1.59.75-2.83s-.25-2.17-.75-2.81c-.5-.64-1.23-.96-2.2-.96s-1.68.31-2.17.95c-.49.63-.73,1.57-.73,2.82Z"/><path class="cls-1" d="M267.76,552.12v-6.26c0-.79-.18-1.38-.54-1.77s-.92-.58-1.68-.58c-1.01,0-1.75.27-2.22.82s-.71,1.45-.71,2.71v5.08h-1.46v-9.68h1.19l.24,1.33h.07c.3-.48.72-.85,1.26-1.11.54-.26,1.14-.39,1.81-.39,1.16,0,2.04.28,2.63.84s.88,1.46.88,2.7v6.32h-1.46Z"/><path class="cls-1" d="M275.35,551.09c.26,0,.51-.02.75-.06.24-.04.43-.08.57-.12v1.12c-.16.08-.39.14-.7.19s-.59.08-.83.08c-1.87,0-2.8-.99-2.8-2.96v-5.76h-1.38v-.71l1.38-.61.62-2.07h.85v2.25h2.8v1.14h-2.8v5.7c0,.58.14,1.03.41,1.34.28.31.65.47,1.14.47Z"/><path class="cls-1" d="M282.68,552.3c-1.43,0-2.55-.44-3.38-1.31-.83-.87-1.24-2.08-1.24-3.63s.38-2.8,1.15-3.72c.77-.92,1.8-1.38,3.09-1.38,1.21,0,2.17.4,2.87,1.2.71.8,1.06,1.85,1.06,3.16v.93h-6.65c.03,1.14.32,2,.86,2.59.54.59,1.31.88,2.3.88,1.04,0,2.07-.22,3.08-.65v1.31c-.52.22-1.01.38-1.47.48-.46.1-1.02.15-1.67.15ZM282.29,543.49c-.78,0-1.39.25-1.85.76-.46.51-.73,1.21-.82,2.1h5.05c0-.92-.21-1.63-.62-2.12s-1-.74-1.76-.74Z"/><path class="cls-1" d="M295.34,552.12v-6.26c0-.79-.18-1.38-.54-1.77s-.92-.58-1.68-.58c-1.01,0-1.75.27-2.22.82s-.71,1.45-.71,2.71v5.08h-1.46v-9.68h1.19l.24,1.33h.07c.3-.48.72-.85,1.26-1.11.54-.26,1.14-.39,1.81-.39,1.16,0,2.04.28,2.63.84s.88,1.46.88,2.7v6.32h-1.46Z"/><path class="cls-1" d="M302.93,551.09c.26,0,.51-.02.75-.06.24-.04.43-.08.57-.12v1.12c-.16.08-.39.14-.7.19s-.59.08-.83.08c-1.87,0-2.8-.99-2.8-2.96v-5.76h-1.38v-.71l1.38-.61.62-2.07h.85v2.25h2.8v1.14h-2.8v5.7c0,.58.14,1.03.41,1.34.28.31.65.47,1.14.47Z"/><circle class="cls-4" cx="102.16" cy="397.06" r="97.78"/><path class="cls-3" d="M102.16,299.78c53.64,0,97.28,43.64,97.28,97.28s-43.64,97.28-97.28,97.28S4.89,450.69,4.89,397.06s43.64-97.28,97.28-97.28M102.16,298.78c-54.28,0-98.28,44-98.28,98.28s44,98.28,98.28,98.28,98.28-44,98.28-98.28-44-98.28-98.28-98.28h0Z"/><path class="cls-1" d="M76.57,364.62c0,2.14-.53,3.78-1.59,4.93-1.06,1.15-2.57,1.72-4.55,1.72s-3.49-.57-4.55-1.72c-1.06-1.15-1.59-2.8-1.59-4.95s.53-3.79,1.59-4.93c1.06-1.13,2.58-1.7,4.56-1.7s3.49.57,4.54,1.71c1.05,1.14,1.57,2.79,1.57,4.93ZM67.17,364.62c0,1.44.27,2.53.82,3.26.55.73,1.36,1.1,2.45,1.1,2.18,0,3.27-1.45,3.27-4.36s-1.08-4.37-3.25-4.37c-1.09,0-1.91.37-2.46,1.1-.55.73-.83,1.82-.83,3.27Z"/><path class="cls-1" d="M84.53,361.03c.36,0,.67.03.91.08l-.2,2.53c-.22-.06-.48-.09-.79-.09-.86,0-1.53.22-2,.66-.48.44-.72,1.06-.72,1.86v5.03h-2.69v-9.88h2.04l.4,1.66h.13c.31-.55.72-1,1.24-1.34.52-.34,1.08-.51,1.7-.51Z"/><path class="cls-1" d="M87.11,358.66c0-.88.49-1.32,1.46-1.32s1.46.44,1.46,1.32c0,.42-.12.74-.37.98s-.61.35-1.1.35c-.98,0-1.46-.44-1.46-1.33ZM89.91,371.09h-2.69v-9.88h2.69v9.88Z"/><path class="cls-1" d="M101.31,361.21v1.37l-1.54.4c.28.44.42.94.42,1.48,0,1.06-.37,1.89-1.11,2.48-.74.59-1.76.89-3.07.89l-.48-.03-.4-.04c-.28.21-.41.45-.41.71,0,.39.49.58,1.48.58h1.67c1.08,0,1.91.23,2.47.7.57.46.85,1.15.85,2.05,0,1.15-.48,2.05-1.44,2.69-.96.64-2.34.95-4.14.95-1.38,0-2.42-.24-3.15-.72-.73-.48-1.09-1.15-1.09-2.02,0-.6.19-1.09.56-1.49.37-.4.91-.69,1.63-.86-.28-.12-.52-.31-.72-.58-.21-.27-.31-.55-.31-.85,0-.38.11-.69.33-.94.22-.25.53-.5.94-.74-.52-.22-.93-.58-1.23-1.08-.3-.5-.45-1.08-.45-1.75,0-1.08.35-1.91,1.05-2.5s1.7-.88,3-.88c.28,0,.6.03.98.08.38.05.62.09.73.11h3.44ZM93.7,372.49c0,.37.18.66.53.88.35.21.85.32,1.49.32.96,0,1.72-.13,2.26-.4.55-.26.82-.63.82-1.09,0-.37-.16-.63-.49-.77s-.82-.21-1.5-.21h-1.39c-.49,0-.91.12-1.24.35s-.5.54-.5.92ZM94.68,364.45c0,.54.12.96.37,1.27.24.31.62.47,1.11.47s.88-.16,1.11-.47c.24-.31.35-.74.35-1.27,0-1.19-.49-1.79-1.46-1.79s-1.48.6-1.48,1.79Z"/><path class="cls-1" d="M109.19,371.09l-.52-1.34h-.07c-.45.57-.92.97-1.4,1.19-.48.22-1.1.33-1.87.33-.95,0-1.69-.27-2.23-.81-.54-.54-.82-1.31-.82-2.31s.37-1.82,1.1-2.32c.73-.5,1.83-.77,3.31-.83l1.71-.05v-.43c0-1-.51-1.5-1.53-1.5-.79,0-1.71.24-2.78.72l-.89-1.82c1.13-.6,2.39-.89,3.77-.89s2.33.29,3.04.87c.71.58,1.06,1.46,1.06,2.63v6.58h-1.88ZM108.39,366.52l-1.04.04c-.78.02-1.36.17-1.75.42s-.57.65-.57,1.18c0,.76.43,1.14,1.3,1.14.62,0,1.12-.18,1.49-.54s.56-.84.56-1.43v-.81Z"/><path class="cls-1" d="M122.65,371.09h-2.69v-5.77c0-.71-.12-1.25-.36-1.6-.24-.36-.61-.53-1.12-.53-.69,0-1.19.25-1.5.76-.31.51-.47,1.34-.47,2.5v4.65h-2.69v-9.88h2.05l.36,1.26h.15c.26-.45.65-.81,1.15-1.06.5-.26,1.07-.38,1.72-.38,1.47,0,2.47.48,3,1.45h.24c.26-.46.65-.82,1.17-1.07.51-.25,1.09-.38,1.74-.38,1.12,0,1.96.29,2.53.86.57.57.86,1.49.86,2.76v6.44h-2.7v-5.77c0-.71-.12-1.25-.36-1.6-.24-.36-.61-.53-1.12-.53-.66,0-1.15.24-1.48.71s-.49,1.22-.49,2.24v4.96Z"/><path class="cls-1" d="M131.44,358.66c0-.88.49-1.32,1.46-1.32s1.46.44,1.46,1.32c0,.42-.12.74-.37.98s-.61.35-1.1.35c-.98,0-1.46-.44-1.46-1.33ZM134.24,371.09h-2.69v-9.88h2.69v9.88Z"/><path class="cls-1" d="M44.74,389.88c0,1.01-.35,1.79-1.05,2.32s-1.75.79-3.15.79c-.72,0-1.33-.05-1.83-.15-.5-.1-.98-.24-1.42-.43v-2.23c.5.24,1.06.43,1.69.59.63.16,1.18.24,1.65.24.98,0,1.46-.28,1.46-.85,0-.21-.07-.38-.19-.52s-.35-.28-.67-.45-.74-.36-1.27-.59c-.76-.32-1.32-.61-1.67-.88-.36-.27-.61-.58-.78-.93-.16-.35-.24-.78-.24-1.29,0-.88.34-1.56,1.02-2.04.68-.48,1.64-.72,2.89-.72s2.34.26,3.46.78l-.81,1.94c-.49-.21-.95-.39-1.38-.52-.43-.14-.87-.2-1.31-.2-.79,0-1.19.21-1.19.64,0,.24.13.45.38.63s.82.44,1.68.79c.77.31,1.33.6,1.69.88.36.27.62.58.79.94.17.35.26.77.26,1.26Z"/><path class="cls-1" d="M46.73,380.38c0-.88.49-1.32,1.46-1.32s1.46.44,1.46,1.32c0,.42-.12.74-.37.98-.24.23-.61.35-1.1.35-.98,0-1.46-.44-1.46-1.33ZM49.53,392.81h-2.69v-9.88h2.69v9.88Z"/><path class="cls-1" d="M56.5,390.84c.47,0,1.03-.1,1.69-.31v2.01c-.67.3-1.49.45-2.47.45-1.08,0-1.86-.27-2.35-.82s-.74-1.36-.74-2.45v-4.76h-1.29v-1.14l1.48-.9.78-2.09h1.72v2.1h2.76v2.02h-2.76v4.76c0,.38.11.67.32.85.21.18.5.27.85.27Z"/><path class="cls-1" d="M64.64,392.99c-1.59,0-2.83-.44-3.72-1.32-.89-.88-1.34-2.12-1.34-3.73s.41-2.93,1.24-3.84,1.97-1.36,3.42-1.36,2.48.4,3.25,1.19c.78.8,1.16,1.89,1.16,3.3v1.31h-6.35c.03.77.25,1.36.68,1.79.42.43,1.02.65,1.78.65.59,0,1.16-.06,1.68-.19.53-.12,1.08-.32,1.66-.59v2.08c-.47.24-.97.41-1.51.53-.54.11-1.19.17-1.96.17ZM64.26,384.66c-.57,0-1.02.18-1.34.54s-.51.88-.55,1.54h3.77c-.01-.67-.18-1.18-.52-1.54s-.79-.54-1.36-.54Z"/><path class="cls-1" d="M78.65,392.99c-1.16,0-2.07-.45-2.73-1.35-.66-.9-.99-2.15-.99-3.75s.34-2.88,1.01-3.79c.67-.9,1.6-1.36,2.78-1.36s2.19.48,2.84,1.45h.09c-.14-.74-.2-1.39-.2-1.97v-3.16h2.7v13.75h-2.06l-.52-1.28h-.11c-.61.97-1.54,1.46-2.79,1.46ZM79.6,390.84c.69,0,1.19-.2,1.51-.6s.49-1.08.52-2.04v-.29c0-1.06-.16-1.82-.49-2.28-.33-.46-.86-.69-1.59-.69-.6,0-1.07.25-1.4.76-.33.51-.5,1.25-.5,2.22s.17,1.7.5,2.19c.33.49.81.73,1.44.73Z"/><path class="cls-1" d="M91.42,392.99c-1.59,0-2.83-.44-3.72-1.32-.89-.88-1.34-2.12-1.34-3.73s.41-2.93,1.24-3.84,1.97-1.36,3.42-1.36,2.48.4,3.25,1.19c.78.8,1.16,1.89,1.16,3.3v1.31h-6.35c.03.77.25,1.36.68,1.79.42.43,1.02.65,1.78.65.59,0,1.16-.06,1.68-.19.53-.12,1.08-.32,1.66-.59v2.08c-.47.24-.97.41-1.51.53-.54.11-1.19.17-1.96.17ZM91.04,384.66c-.57,0-1.02.18-1.34.54s-.51.88-.55,1.54h3.77c-.01-.67-.18-1.18-.52-1.54s-.79-.54-1.36-.54Z"/><path class="cls-1" d="M103.07,384.95h-2.33v7.86h-2.69v-7.86h-1.48v-1.3l1.48-.72v-.72c0-1.13.28-1.95.83-2.47.55-.52,1.44-.78,2.65-.78.93,0,1.75.14,2.48.42l-.69,1.98c-.54-.17-1.04-.26-1.5-.26-.38,0-.66.11-.83.34-.17.23-.26.52-.26.87v.62h2.33v2.02ZM104.49,380.38c0-.88.49-1.32,1.46-1.32s1.46.44,1.46,1.32c0,.42-.12.74-.37.98-.24.23-.61.35-1.1.35-.98,0-1.46-.44-1.46-1.33ZM107.3,392.81h-2.69v-9.88h2.69v9.88Z"/><path class="cls-1" d="M119.2,392.81h-2.69v-5.77c0-.71-.13-1.25-.38-1.6-.25-.36-.65-.54-1.21-.54-.75,0-1.29.25-1.63.76s-.5,1.34-.5,2.5v4.65h-2.69v-9.88h2.05l.36,1.26h.15c.3-.48.71-.84,1.24-1.08.53-.24,1.12-.37,1.79-.37,1.15,0,2.02.31,2.61.93.59.62.89,1.52.89,2.69v6.44Z"/><path class="cls-1" d="M121.85,380.38c0-.88.49-1.32,1.46-1.32s1.46.44,1.46,1.32c0,.42-.12.74-.37.98-.24.23-.61.35-1.1.35-.98,0-1.46-.44-1.46-1.33ZM124.66,392.81h-2.69v-9.88h2.69v9.88Z"/><path class="cls-1" d="M131.63,390.84c.47,0,1.03-.1,1.69-.31v2.01c-.67.3-1.49.45-2.47.45-1.08,0-1.86-.27-2.35-.82s-.74-1.36-.74-2.45v-4.76h-1.29v-1.14l1.48-.9.78-2.09h1.72v2.1h2.76v2.02h-2.76v4.76c0,.38.11.67.32.85.21.18.5.27.85.27Z"/><path class="cls-1" d="M135.2,380.38c0-.88.49-1.32,1.46-1.32s1.46.44,1.46,1.32c0,.42-.12.74-.37.98-.24.23-.61.35-1.1.35-.98,0-1.46-.44-1.46-1.33ZM138,392.81h-2.69v-9.88h2.69v9.88Z"/><path class="cls-1" d="M149.77,387.85c0,1.61-.42,2.87-1.27,3.77-.85.91-2.02,1.36-3.53,1.36-.95,0-1.78-.21-2.5-.62s-1.28-1.01-1.67-1.79c-.39-.78-.58-1.68-.58-2.72,0-1.61.42-2.87,1.26-3.76.84-.9,2.02-1.34,3.54-1.34.95,0,1.78.21,2.5.62s1.28,1,1.67,1.78.58,1.68.58,2.71ZM142.96,387.85c0,.98.16,1.72.48,2.22.32.5.84.75,1.56.75s1.23-.25,1.55-.75c.31-.5.47-1.24.47-2.22s-.16-1.71-.48-2.2c-.32-.49-.84-.73-1.56-.73s-1.23.24-1.55.73-.48,1.22-.48,2.21Z"/><path class="cls-1" d="M161.09,392.81h-2.69v-5.77c0-.71-.13-1.25-.38-1.6-.25-.36-.65-.54-1.21-.54-.75,0-1.29.25-1.63.76s-.5,1.34-.5,2.5v4.65h-2.69v-9.88h2.05l.36,1.26h.15c.3-.48.71-.84,1.24-1.08.53-.24,1.12-.37,1.79-.37,1.15,0,2.02.31,2.61.93.59.62.89,1.52.89,2.69v6.44Z"/><path class="cls-1" d="M52.19,432.81c0,1.14-.41,2.02-1.23,2.66-.82.64-1.94.95-3.35.95-1.53,0-2.7-.2-3.52-.59v-1.45c.53.22,1.1.4,1.73.53.62.13,1.24.19,1.85.19,1,0,1.75-.19,2.26-.57.5-.38.76-.91.76-1.59,0-.45-.09-.81-.27-1.1-.18-.29-.48-.55-.9-.79-.42-.24-1.06-.51-1.92-.82-1.2-.43-2.05-.94-2.57-1.53-.51-.59-.77-1.36-.77-2.31,0-1,.37-1.79,1.12-2.38s1.73-.88,2.96-.88,2.46.24,3.53.71l-.47,1.31c-1.06-.45-2.1-.67-3.1-.67-.79,0-1.41.17-1.86.51s-.67.82-.67,1.42c0,.45.08.81.25,1.1.16.29.44.55.83.79.39.24.99.5,1.79.79,1.35.48,2.28,1,2.79,1.55.51.55.76,1.27.76,2.16Z"/><path class="cls-1" d="M54.48,423.93c0-.34.08-.58.25-.74.16-.16.37-.23.62-.23s.44.08.61.24c.17.16.26.4.26.73s-.09.58-.26.74c-.17.16-.37.24-.61.24s-.45-.08-.62-.24c-.17-.16-.25-.41-.25-.74ZM56.06,436.24h-1.46v-9.68h1.46v9.68Z"/><path class="cls-1" d="M62.29,435.21c.26,0,.51-.02.75-.06.24-.04.43-.08.57-.12v1.12c-.16.08-.39.14-.7.19s-.59.08-.83.08c-1.87,0-2.8-.99-2.8-2.96v-5.76h-1.38v-.71l1.38-.61.62-2.07h.85v2.25h2.8v1.14h-2.8v5.7c0,.58.14,1.03.41,1.34.28.31.65.47,1.14.47Z"/><path class="cls-1" d="M69.62,436.42c-1.43,0-2.55-.44-3.38-1.31-.83-.87-1.24-2.08-1.24-3.63s.38-2.8,1.15-3.72c.77-.92,1.8-1.38,3.09-1.38,1.21,0,2.17.4,2.87,1.2.71.8,1.06,1.85,1.06,3.16v.93h-6.65c.03,1.14.32,2,.86,2.59.54.59,1.31.88,2.3.88,1.04,0,2.07-.22,3.08-.65v1.31c-.52.22-1.01.38-1.47.48-.46.1-1.02.15-1.67.15ZM69.22,427.61c-.78,0-1.39.25-1.85.76-.46.51-.73,1.21-.82,2.1h5.05c0-.92-.21-1.63-.62-2.12s-1-.74-1.76-.74Z"/><path class="cls-1" d="M86.58,433.6c0,.9-.33,1.6-1,2.09-.67.49-1.61.73-2.82.73-1.28,0-2.28-.2-3-.61v-1.36c.46.24.96.42,1.49.56.53.14,1.04.2,1.54.2.76,0,1.35-.12,1.76-.37s.62-.62.62-1.12c0-.38-.16-.7-.49-.97-.33-.27-.96-.58-1.91-.95-.9-.34-1.54-.63-1.92-.88-.38-.25-.66-.53-.85-.85-.19-.32-.28-.7-.28-1.14,0-.79.32-1.41.96-1.87.64-.46,1.52-.68,2.63-.68,1.04,0,2.06.21,3.05.64l-.52,1.19c-.97-.4-1.85-.6-2.63-.6-.69,0-1.22.11-1.57.33-.35.22-.53.52-.53.9,0,.26.07.48.2.66.13.18.35.36.64.52.29.17.86.4,1.69.72,1.15.42,1.92.84,2.32,1.26.4.42.6.96.6,1.6Z"/><path class="cls-1" d="M92.08,435.21c.26,0,.51-.02.75-.06.24-.04.43-.08.57-.12v1.12c-.16.08-.39.14-.7.19s-.59.08-.83.08c-1.87,0-2.8-.99-2.8-2.96v-5.76h-1.38v-.71l1.38-.61.62-2.07h.85v2.25h2.8v1.14h-2.8v5.7c0,.58.14,1.03.41,1.34.28.31.65.47,1.14.47Z"/><path class="cls-1" d="M99.74,426.38c.43,0,.81.04,1.16.11l-.2,1.36c-.4-.09-.75-.13-1.06-.13-.78,0-1.45.32-2,.95-.55.64-.83,1.43-.83,2.38v5.2h-1.46v-9.68h1.21l.17,1.79h.07c.36-.63.79-1.12,1.3-1.46.5-.34,1.06-.51,1.67-.51Z"/><path class="cls-1" d="M104.08,426.56v6.28c0,.79.18,1.38.54,1.77.36.39.92.58,1.68.58,1.01,0,1.75-.28,2.22-.83.47-.55.7-1.46.7-2.71v-5.09h1.46v9.68h-1.21l-.21-1.3h-.08c-.3.48-.71.84-1.25,1.1-.53.25-1.14.38-1.82.38-1.18,0-2.06-.28-2.64-.84-.58-.56-.88-1.46-.88-2.69v-6.34h1.48Z"/><path class="cls-1" d="M117.64,436.42c-1.4,0-2.48-.43-3.25-1.29-.77-.86-1.15-2.08-1.15-3.66s.39-2.87,1.17-3.76c.78-.88,1.89-1.33,3.33-1.33.46,0,.93.05,1.39.15.46.1.83.22,1.09.35l-.45,1.25c-.32-.13-.68-.24-1.06-.32-.38-.08-.72-.13-1.01-.13-1.96,0-2.94,1.25-2.94,3.76,0,1.19.24,2.1.72,2.74.48.64,1.19.95,2.13.95.8,0,1.63-.17,2.48-.52v1.3c-.65.34-1.46.5-2.44.5Z"/><path class="cls-1" d="M125.49,435.21c.26,0,.51-.02.75-.06.24-.04.43-.08.57-.12v1.12c-.16.08-.39.14-.7.19s-.59.08-.83.08c-1.87,0-2.8-.99-2.8-2.96v-5.76h-1.38v-.71l1.38-.61.62-2.07h.85v2.25h2.8v1.14h-2.8v5.7c0,.58.14,1.03.41,1.34.28.31.65.47,1.14.47Z"/><path class="cls-1" d="M130.12,426.56v6.28c0,.79.18,1.38.54,1.77.36.39.92.58,1.68.58,1.01,0,1.75-.28,2.22-.83.47-.55.7-1.46.7-2.71v-5.09h1.46v9.68h-1.21l-.21-1.3h-.08c-.3.48-.71.84-1.25,1.1-.53.25-1.14.38-1.82.38-1.18,0-2.06-.28-2.64-.84-.58-.56-.88-1.46-.88-2.69v-6.34h1.48Z"/><path class="cls-1" d="M144.23,426.38c.43,0,.81.04,1.16.11l-.2,1.36c-.4-.09-.75-.13-1.06-.13-.78,0-1.45.32-2,.95-.55.64-.83,1.43-.83,2.38v5.2h-1.46v-9.68h1.21l.17,1.79h.07c.36-.63.79-1.12,1.3-1.46.5-.34,1.06-.51,1.67-.51Z"/><path class="cls-1" d="M151.27,436.42c-1.43,0-2.55-.44-3.38-1.31-.83-.87-1.24-2.08-1.24-3.63s.38-2.8,1.15-3.72c.77-.92,1.8-1.38,3.09-1.38,1.21,0,2.17.4,2.87,1.2.71.8,1.06,1.85,1.06,3.16v.93h-6.65c.03,1.14.32,2,.86,2.59.54.59,1.31.88,2.3.88,1.04,0,2.07-.22,3.08-.65v1.31c-.52.22-1.01.38-1.47.48-.46.1-1.02.15-1.67.15ZM150.87,427.61c-.78,0-1.39.25-1.85.76-.46.51-.73,1.21-.82,2.1h5.05c0-.92-.21-1.63-.62-2.12s-1-.74-1.76-.74Z"/><circle class="cls-4" cx="272.5" cy="297.53" r="97.78" transform="translate(-123.86 372.91) rotate(-58.28)"/><path class="cls-3" d="M272.5,200.25c53.64,0,97.28,43.64,97.28,97.28s-43.64,97.28-97.28,97.28-97.28-43.64-97.28-97.28,43.64-97.28,97.28-97.28M272.5,199.25c-54.28,0-98.28,44-98.28,98.28s44,98.28,98.28,98.28,98.28-44,98.28-98.28-44-98.28-98.28-98.28h0Z"/><path class="cls-1" d="M225.12,257.34c0,1.16-.42,2.07-1.25,2.74-.83.67-2,1-3.48,1-1.37,0-2.58-.26-3.64-.77v-2.53c.87.39,1.6.66,2.2.82s1.15.24,1.65.24c.6,0,1.06-.11,1.38-.34s.48-.57.48-1.02c0-.25-.07-.48-.21-.67-.14-.2-.35-.38-.62-.57-.27-.18-.83-.47-1.67-.87-.79-.37-1.37-.72-1.77-1.06s-.71-.74-.94-1.19-.35-.98-.35-1.58c0-1.14.38-2.03,1.16-2.68s1.84-.98,3.2-.98c.67,0,1.3.08,1.91.24.61.16,1.24.38,1.9.67l-.88,2.12c-.69-.28-1.25-.48-1.7-.59-.45-.11-.89-.17-1.32-.17-.52,0-.91.12-1.19.36s-.41.55-.41.94c0,.24.06.45.17.63.11.18.29.35.53.52.24.17.82.47,1.73.9,1.2.57,2.02,1.15,2.47,1.73.45.58.67,1.29.67,2.12Z"/><path class="cls-1" d="M231.38,258.95c.47,0,1.03-.1,1.69-.31v2c-.67.3-1.49.45-2.46.45-1.07,0-1.85-.27-2.34-.81s-.73-1.36-.73-2.44v-4.74h-1.28v-1.13l1.48-.9.77-2.07h1.71v2.09h2.75v2.01h-2.75v4.74c0,.38.11.66.32.84s.5.27.85.27Z"/><path class="cls-1" d="M241.29,260.91l-.52-1.34h-.07c-.45.57-.92.96-1.39,1.18-.48.22-1.1.33-1.87.33-.94,0-1.69-.27-2.23-.81s-.81-1.31-.81-2.3.37-1.81,1.09-2.31c.73-.5,1.83-.77,3.3-.82l1.71-.05v-.43c0-1-.51-1.49-1.53-1.49-.79,0-1.71.24-2.77.71l-.89-1.81c1.13-.59,2.38-.89,3.76-.89s2.33.29,3.03.86,1.05,1.45,1.05,2.62v6.55h-1.87ZM240.5,256.35l-1.04.04c-.78.02-1.36.16-1.74.42s-.57.65-.57,1.18c0,.76.43,1.13,1.3,1.13.62,0,1.12-.18,1.49-.54s.56-.83.56-1.42v-.81Z"/><path class="cls-1" d="M250.06,258.95c.47,0,1.03-.1,1.69-.31v2c-.67.3-1.49.45-2.46.45-1.07,0-1.85-.27-2.34-.81s-.73-1.36-.73-2.44v-4.74h-1.28v-1.13l1.48-.9.77-2.07h1.71v2.09h2.75v2.01h-2.75v4.74c0,.38.11.66.32.84s.5.27.85.27Z"/><path class="cls-1" d="M253.62,248.54c0-.87.49-1.31,1.46-1.31s1.46.44,1.46,1.31c0,.42-.12.74-.36.97-.24.23-.61.35-1.09.35-.97,0-1.46-.44-1.46-1.32ZM256.42,260.91h-2.68v-9.83h2.68v9.83Z"/><path class="cls-1" d="M263.22,261.08c-3.06,0-4.59-1.68-4.59-5.04,0-1.67.42-2.95,1.25-3.83s2.02-1.32,3.58-1.32c1.14,0,2.16.22,3.06.67l-.79,2.07c-.42-.17-.81-.31-1.18-.42s-.73-.16-1.09-.16c-1.39,0-2.09.99-2.09,2.97s.7,2.88,2.09,2.88c.52,0,.99-.07,1.43-.21s.88-.35,1.32-.65v2.29c-.43.28-.87.47-1.31.57s-1,.16-1.67.16Z"/><path class="cls-1" d="M280.01,257.99c0,1.01-.35,1.78-1.05,2.3s-1.75.79-3.14.79c-.71,0-1.32-.05-1.83-.14-.5-.1-.98-.24-1.42-.43v-2.21c.5.23,1.06.43,1.68.59.62.16,1.17.24,1.65.24.97,0,1.46-.28,1.46-.84,0-.21-.06-.38-.19-.51-.13-.13-.35-.28-.67-.45-.32-.17-.74-.36-1.27-.58-.76-.32-1.31-.61-1.67-.88-.36-.27-.61-.58-.77-.93-.16-.35-.24-.78-.24-1.29,0-.87.34-1.55,1.02-2.03.68-.48,1.64-.72,2.88-.72s2.33.26,3.45.77l-.81,1.93c-.49-.21-.95-.38-1.38-.52s-.86-.2-1.31-.2c-.79,0-1.19.21-1.19.64,0,.24.13.45.38.62.26.18.81.44,1.67.78.77.31,1.33.6,1.69.87s.62.58.79.93.25.77.25,1.26Z"/><path class="cls-1" d="M286.55,261.08c-1.58,0-2.82-.44-3.71-1.31s-1.34-2.11-1.34-3.71.41-2.92,1.23-3.82c.82-.9,1.96-1.35,3.42-1.35s2.47.4,3.24,1.19,1.16,1.88,1.16,3.28v1.3h-6.34c.03.76.25,1.36.68,1.78s1.01.64,1.78.64c.59,0,1.15-.06,1.68-.18s1.08-.32,1.65-.59v2.07c-.47.23-.97.41-1.5.52-.53.12-1.18.17-1.95.17ZM286.17,252.8c-.57,0-1.01.18-1.34.54-.32.36-.51.87-.55,1.53h3.76c-.01-.66-.18-1.17-.52-1.53-.33-.36-.79-.54-1.35-.54Z"/><path class="cls-1" d="M298.22,250.9c.36,0,.67.03.91.08l-.2,2.51c-.22-.06-.48-.09-.79-.09-.86,0-1.52.22-2,.66s-.72,1.05-.72,1.85v5h-2.68v-9.83h2.03l.4,1.65h.13c.3-.55.72-.99,1.24-1.33.52-.34,1.08-.5,1.69-.5Z"/><path class="cls-1" d="M303.25,260.91l-3.74-9.83h2.8l1.9,5.6c.21.71.34,1.38.4,2.01h.05c.03-.56.16-1.23.4-2.01l1.89-5.6h2.8l-3.74,9.83h-2.75Z"/><path class="cls-1" d="M315.6,261.08c-1.58,0-2.82-.44-3.71-1.31s-1.34-2.11-1.34-3.71.41-2.92,1.23-3.82c.82-.9,1.96-1.35,3.42-1.35s2.47.4,3.24,1.19,1.16,1.88,1.16,3.28v1.3h-6.34c.03.76.25,1.36.68,1.78s1.01.64,1.78.64c.59,0,1.15-.06,1.68-.18s1.08-.32,1.65-.59v2.07c-.47.23-.97.41-1.5.52-.53.12-1.18.17-1.95.17ZM315.22,252.8c-.57,0-1.01.18-1.34.54-.32.36-.51.87-.55,1.53h3.76c-.01-.66-.18-1.17-.52-1.53-.33-.36-.79-.54-1.35-.54Z"/><path class="cls-1" d="M327.27,250.9c.36,0,.67.03.91.08l-.2,2.51c-.22-.06-.48-.09-.79-.09-.86,0-1.52.22-2,.66s-.72,1.05-.72,1.85v5h-2.68v-9.83h2.03l.4,1.65h.13c.3-.55.72-.99,1.24-1.33.52-.34,1.08-.5,1.69-.5Z"/><path class="cls-1" d="M218.68,276.06c0,2.13-.53,3.76-1.58,4.9s-2.57,1.71-4.54,1.71-3.48-.57-4.54-1.71-1.58-2.78-1.58-4.92.53-3.77,1.59-4.9c1.06-1.13,2.57-1.69,4.55-1.69s3.49.57,4.53,1.71c1.05,1.14,1.57,2.77,1.57,4.9ZM209.3,276.06c0,1.44.27,2.52.82,3.24s1.36,1.09,2.44,1.09c2.17,0,3.26-1.44,3.26-4.33s-1.08-4.34-3.24-4.34c-1.08,0-1.9.36-2.45,1.09-.55.73-.83,1.81-.83,3.25Z"/><path class="cls-1" d="M226.61,272.5c.36,0,.67.03.91.08l-.2,2.51c-.22-.06-.48-.09-.79-.09-.86,0-1.52.22-2,.66s-.72,1.05-.72,1.85v5h-2.68v-9.83h2.03l.4,1.65h.13c.3-.55.72-.99,1.24-1.33.52-.34,1.08-.5,1.69-.5Z"/><path class="cls-1" d="M229.19,270.14c0-.87.49-1.31,1.46-1.31s1.46.44,1.46,1.31c0,.42-.12.74-.36.97-.24.23-.61.35-1.09.35-.97,0-1.46-.44-1.46-1.32ZM231.98,282.51h-2.68v-9.83h2.68v9.83Z"/><path class="cls-1" d="M243.35,272.68v1.36l-1.54.4c.28.44.42.93.42,1.48,0,1.05-.37,1.88-1.1,2.46-.74.59-1.76.88-3.06.88l-.48-.03-.4-.04c-.28.21-.41.45-.41.7,0,.39.49.58,1.48.58h1.67c1.08,0,1.9.23,2.47.69.56.46.85,1.14.85,2.04,0,1.15-.48,2.04-1.44,2.67-.96.63-2.33.95-4.13.95-1.37,0-2.42-.24-3.14-.72-.72-.48-1.09-1.15-1.09-2.01,0-.59.18-1.09.55-1.49s.91-.68,1.63-.85c-.28-.12-.52-.31-.72-.58-.21-.27-.31-.55-.31-.85,0-.38.11-.69.33-.94s.53-.49.94-.73c-.52-.22-.92-.58-1.23-1.07-.3-.49-.45-1.07-.45-1.74,0-1.07.35-1.9,1.05-2.49s1.69-.88,2.99-.88c.28,0,.6.03.98.08.38.05.62.09.73.11h3.43ZM235.76,283.89c0,.37.18.66.53.87s.85.32,1.49.32c.96,0,1.71-.13,2.26-.4s.82-.62.82-1.08c0-.37-.16-.62-.48-.76s-.82-.21-1.49-.21h-1.39c-.49,0-.9.12-1.24.35-.33.23-.5.54-.5.92ZM236.74,275.9c0,.53.12.96.36,1.27s.61.47,1.11.47.87-.16,1.11-.47.35-.73.35-1.27c0-1.18-.49-1.78-1.46-1.78s-1.48.59-1.48,1.78Z"/><path class="cls-1" d="M251.2,282.51l-.52-1.34h-.07c-.45.57-.92.96-1.39,1.18-.48.22-1.1.33-1.87.33-.94,0-1.69-.27-2.23-.81s-.81-1.31-.81-2.3.37-1.81,1.09-2.31c.73-.5,1.83-.77,3.3-.82l1.71-.05v-.43c0-1-.51-1.49-1.53-1.49-.79,0-1.71.24-2.77.71l-.89-1.81c1.13-.59,2.38-.89,3.76-.89s2.33.29,3.03.86,1.05,1.45,1.05,2.62v6.55h-1.87ZM250.41,277.95l-1.04.04c-.78.02-1.36.16-1.74.42s-.57.65-.57,1.18c0,.76.43,1.13,1.3,1.13.62,0,1.12-.18,1.49-.54s.56-.83.56-1.42v-.81Z"/><path class="cls-1" d="M264.63,282.51h-2.68v-5.74c0-.71-.12-1.24-.36-1.59-.24-.35-.61-.53-1.12-.53-.69,0-1.18.25-1.49.76s-.47,1.33-.47,2.49v4.62h-2.68v-9.83h2.05l.36,1.26h.15c.26-.45.64-.8,1.14-1.06.5-.25,1.07-.38,1.71-.38,1.47,0,2.47.48,2.99,1.44h.24c.26-.46.65-.81,1.17-1.06.51-.25,1.09-.38,1.74-.38,1.11,0,1.96.29,2.53.86s.86,1.49.86,2.75v6.41h-2.69v-5.74c0-.71-.12-1.24-.36-1.59-.24-.35-.61-.53-1.12-.53-.66,0-1.15.23-1.47.7-.32.47-.49,1.21-.49,2.23v4.93Z"/><path class="cls-1" d="M273.4,270.14c0-.87.49-1.31,1.46-1.31s1.46.44,1.46,1.31c0,.42-.12.74-.36.97-.24.23-.61.35-1.09.35-.97,0-1.46-.44-1.46-1.32ZM276.19,282.51h-2.68v-9.83h2.68v9.83Z"/><path class="cls-1" d="M290.54,279.59c0,1.01-.35,1.78-1.05,2.3s-1.75.79-3.14.79c-.71,0-1.32-.05-1.83-.14-.5-.1-.98-.24-1.42-.43v-2.21c.5.23,1.06.43,1.68.59.62.16,1.17.24,1.65.24.97,0,1.46-.28,1.46-.84,0-.21-.06-.38-.19-.51-.13-.13-.35-.28-.67-.45-.32-.17-.74-.36-1.27-.58-.76-.32-1.31-.61-1.67-.88-.36-.27-.61-.58-.77-.93-.16-.35-.24-.78-.24-1.29,0-.87.34-1.55,1.02-2.03.68-.48,1.64-.72,2.88-.72s2.33.26,3.45.77l-.81,1.93c-.49-.21-.95-.38-1.38-.52s-.86-.2-1.31-.2c-.79,0-1.19.21-1.19.64,0,.24.13.45.38.62.26.18.81.44,1.67.78.77.31,1.33.6,1.69.87s.62.58.79.93.25.77.25,1.26Z"/><path class="cls-1" d="M297.07,282.68c-1.58,0-2.82-.44-3.71-1.31s-1.34-2.11-1.34-3.71.41-2.92,1.23-3.82c.82-.9,1.96-1.35,3.42-1.35s2.47.4,3.24,1.19,1.16,1.88,1.16,3.28v1.3h-6.34c.03.76.25,1.36.68,1.78s1.01.64,1.78.64c.59,0,1.15-.06,1.68-.18s1.08-.32,1.65-.59v2.07c-.47.23-.97.41-1.5.52-.53.12-1.18.17-1.95.17ZM296.7,274.4c-.57,0-1.01.18-1.34.54-.32.36-.51.87-.55,1.53h3.76c-.01-.66-.18-1.17-.52-1.53-.33-.36-.79-.54-1.35-.54Z"/><path class="cls-1" d="M308.75,272.5c.36,0,.67.03.91.08l-.2,2.51c-.22-.06-.48-.09-.79-.09-.86,0-1.52.22-2,.66s-.72,1.05-.72,1.85v5h-2.68v-9.83h2.03l.4,1.65h.13c.3-.55.72-.99,1.24-1.33.52-.34,1.08-.5,1.69-.5Z"/><path class="cls-1" d="M313.77,282.51l-3.74-9.83h2.8l1.9,5.6c.21.71.34,1.38.4,2.01h.05c.03-.56.16-1.23.4-2.01l1.89-5.6h2.8l-3.74,9.83h-2.75Z"/><path class="cls-1" d="M326.12,282.68c-1.58,0-2.82-.44-3.71-1.31s-1.34-2.11-1.34-3.71.41-2.92,1.23-3.82c.82-.9,1.96-1.35,3.42-1.35s2.47.4,3.24,1.19,1.16,1.88,1.16,3.28v1.3h-6.34c.03.76.25,1.36.68,1.78s1.01.64,1.78.64c.59,0,1.15-.06,1.68-.18s1.08-.32,1.65-.59v2.07c-.47.23-.97.41-1.5.52-.53.12-1.18.17-1.95.17ZM325.74,274.4c-.57,0-1.01.18-1.34.54-.32.36-.51.87-.55,1.53h3.76c-.01-.66-.18-1.17-.52-1.53-.33-.36-.79-.54-1.35-.54Z"/><path class="cls-1" d="M337.79,272.5c.36,0,.67.03.91.08l-.2,2.51c-.22-.06-.48-.09-.79-.09-.86,0-1.52.22-2,.66s-.72,1.05-.72,1.85v5h-2.68v-9.83h2.03l.4,1.65h.13c.3-.55.72-.99,1.24-1.33.52-.34,1.08-.5,1.69-.5Z"/><path class="cls-1" d="M216.22,304.11h-7.4v-12.85h7.4v2.23h-4.68v2.82h4.35v2.23h-4.35v3.31h4.68v2.25Z"/><path class="cls-1" d="M220.71,299.09l-3.16-4.81h3.04l1.91,3.13,1.92-3.13h3.04l-3.2,4.81,3.35,5.02h-3.05l-2.07-3.37-2.07,3.37h-3.04l3.33-5.02Z"/><path class="cls-1" d="M234.5,304.28c-1.15,0-2.06-.42-2.72-1.26h-.14c.09.82.14,1.29.14,1.42v3.98h-2.68v-14.15h2.18l.38,1.27h.12c.63-.97,1.56-1.46,2.79-1.46,1.16,0,2.07.45,2.72,1.34s.98,2.14.98,3.74c0,1.05-.15,1.96-.46,2.73-.31.77-.75,1.36-1.31,1.77s-1.24.61-2,.61ZM233.71,296.24c-.66,0-1.15.2-1.45.61-.3.41-.46,1.08-.47,2.02v.29c0,1.05.16,1.81.47,2.27s.81.69,1.49.69c1.2,0,1.8-.99,1.8-2.97,0-.97-.15-1.69-.44-2.17-.3-.48-.76-.73-1.39-.73Z"/><path class="cls-1" d="M245.97,294.1c.36,0,.67.03.91.08l-.2,2.51c-.22-.06-.48-.09-.79-.09-.86,0-1.52.22-2,.66s-.72,1.05-.72,1.85v5h-2.68v-9.83h2.03l.4,1.65h.13c.3-.55.72-.99,1.24-1.33.52-.34,1.08-.5,1.69-.5Z"/><path class="cls-1" d="M253.11,304.28c-1.58,0-2.82-.44-3.71-1.31s-1.34-2.11-1.34-3.71.41-2.92,1.23-3.82c.82-.9,1.96-1.35,3.42-1.35s2.47.4,3.24,1.19,1.16,1.88,1.16,3.28v1.3h-6.34c.03.76.25,1.36.68,1.78s1.01.64,1.78.64c.59,0,1.15-.06,1.68-.18s1.08-.32,1.65-.59v2.07c-.47.23-.97.41-1.5.52-.53.12-1.18.17-1.95.17ZM252.73,296c-.57,0-1.01.18-1.34.54-.32.36-.51.87-.55,1.53h3.76c-.01-.66-.18-1.17-.52-1.53-.33-.36-.79-.54-1.35-.54Z"/><path class="cls-1" d="M266.15,301.19c0,1.01-.35,1.78-1.05,2.3s-1.75.79-3.14.79c-.71,0-1.32-.05-1.83-.14-.5-.1-.98-.24-1.42-.43v-2.21c.5.23,1.06.43,1.68.59.62.16,1.17.24,1.65.24.97,0,1.46-.28,1.46-.84,0-.21-.06-.38-.19-.51-.13-.13-.35-.28-.67-.45-.32-.17-.74-.36-1.27-.58-.76-.32-1.31-.61-1.67-.88-.36-.27-.61-.58-.77-.93-.16-.35-.24-.78-.24-1.29,0-.87.34-1.55,1.02-2.03.68-.48,1.64-.72,2.88-.72s2.33.26,3.45.77l-.81,1.93c-.49-.21-.95-.38-1.38-.52s-.86-.2-1.31-.2c-.79,0-1.19.21-1.19.64,0,.24.13.45.38.62.26.18.81.44,1.67.78.77.31,1.33.6,1.69.87s.62.58.79.93.25.77.25,1.26Z"/><path class="cls-1" d="M275.1,301.19c0,1.01-.35,1.78-1.05,2.3s-1.75.79-3.14.79c-.71,0-1.32-.05-1.83-.14-.5-.1-.98-.24-1.42-.43v-2.21c.5.23,1.06.43,1.68.59.62.16,1.17.24,1.65.24.97,0,1.46-.28,1.46-.84,0-.21-.06-.38-.19-.51-.13-.13-.35-.28-.67-.45-.32-.17-.74-.36-1.27-.58-.76-.32-1.31-.61-1.67-.88-.36-.27-.61-.58-.77-.93-.16-.35-.24-.78-.24-1.29,0-.87.34-1.55,1.02-2.03.68-.48,1.64-.72,2.88-.72s2.33.26,3.45.77l-.81,1.93c-.49-.21-.95-.38-1.38-.52s-.86-.2-1.31-.2c-.79,0-1.19.21-1.19.64,0,.24.13.45.38.62.26.18.81.44,1.67.78.77.31,1.33.6,1.69.87s.62.58.79.93.25.77.25,1.26Z"/><path class="cls-1" d="M288.72,301.19c0,1.01-.35,1.78-1.05,2.3s-1.75.79-3.14.79c-.71,0-1.32-.05-1.83-.14-.5-.1-.98-.24-1.42-.43v-2.21c.5.23,1.06.43,1.68.59.62.16,1.17.24,1.65.24.97,0,1.46-.28,1.46-.84,0-.21-.06-.38-.19-.51-.13-.13-.35-.28-.67-.45-.32-.17-.74-.36-1.27-.58-.76-.32-1.31-.61-1.67-.88-.36-.27-.61-.58-.77-.93-.16-.35-.24-.78-.24-1.29,0-.87.34-1.55,1.02-2.03.68-.48,1.64-.72,2.88-.72s2.33.26,3.45.77l-.81,1.93c-.49-.21-.95-.38-1.38-.52s-.86-.2-1.31-.2c-.79,0-1.19.21-1.19.64,0,.24.13.45.38.62.26.18.81.44,1.67.78.77.31,1.33.6,1.69.87s.62.58.79.93.25.77.25,1.26Z"/><path class="cls-1" d="M295.26,304.28c-1.58,0-2.82-.44-3.71-1.31s-1.34-2.11-1.34-3.71.41-2.92,1.23-3.82c.82-.9,1.96-1.35,3.42-1.35s2.47.4,3.24,1.19,1.16,1.88,1.16,3.28v1.3h-6.34c.03.76.25,1.36.68,1.78s1.01.64,1.78.64c.59,0,1.15-.06,1.68-.18s1.08-.32,1.65-.59v2.07c-.47.23-.97.41-1.5.52-.53.12-1.18.17-1.95.17ZM294.89,296c-.57,0-1.01.18-1.34.54-.32.36-.51.87-.55,1.53h3.76c-.01-.66-.18-1.17-.52-1.53-.33-.36-.79-.54-1.35-.54Z"/><path class="cls-1" d="M306.94,294.1c.36,0,.67.03.91.08l-.2,2.51c-.22-.06-.48-.09-.79-.09-.86,0-1.52.22-2,.66s-.72,1.05-.72,1.85v5h-2.68v-9.83h2.03l.4,1.65h.13c.3-.55.72-.99,1.24-1.33.52-.34,1.08-.5,1.69-.5Z"/><path class="cls-1" d="M311.96,304.11l-3.74-9.83h2.8l1.9,5.6c.21.71.34,1.38.4,2.01h.05c.03-.56.16-1.23.4-2.01l1.89-5.6h2.8l-3.74,9.83h-2.75Z"/><path class="cls-1" d="M324.31,304.28c-1.58,0-2.82-.44-3.71-1.31s-1.34-2.11-1.34-3.71.41-2.92,1.23-3.82c.82-.9,1.96-1.35,3.42-1.35s2.47.4,3.24,1.19,1.16,1.88,1.16,3.28v1.3h-6.34c.03.76.25,1.36.68,1.78s1.01.64,1.78.64c.59,0,1.15-.06,1.68-.18s1.08-.32,1.65-.59v2.07c-.47.23-.97.41-1.5.52-.53.12-1.18.17-1.95.17ZM323.93,296c-.57,0-1.01.18-1.34.54-.32.36-.51.87-.55,1.53h3.76c-.01-.66-.18-1.17-.52-1.53-.33-.36-.79-.54-1.35-.54Z"/><path class="cls-1" d="M335.98,294.1c.36,0,.67.03.91.08l-.2,2.51c-.22-.06-.48-.09-.79-.09-.86,0-1.52.22-2,.66s-.72,1.05-.72,1.85v5h-2.68v-9.83h2.03l.4,1.65h.13c.3-.55.72-.99,1.24-1.33.52-.34,1.08-.5,1.69-.5Z"/><path class="cls-1" d="M240.9,343.89c0,1.13-.41,2.01-1.23,2.65s-1.93.95-3.34.95c-1.52,0-2.7-.2-3.52-.59v-1.44c.53.22,1.1.4,1.72.53s1.24.19,1.85.19c1,0,1.75-.19,2.25-.57.5-.38.76-.9.76-1.58,0-.45-.09-.81-.27-1.09-.18-.28-.48-.55-.9-.79-.42-.24-1.06-.51-1.91-.82-1.2-.43-2.05-.93-2.56-1.52s-.77-1.35-.77-2.29c0-.99.37-1.78,1.12-2.36s1.73-.88,2.95-.88,2.45.23,3.52.7l-.47,1.3c-1.06-.45-2.09-.67-3.09-.67-.79,0-1.41.17-1.85.51s-.67.81-.67,1.42c0,.45.08.81.25,1.09.16.29.44.54.83.78.39.24.99.5,1.79.79,1.35.48,2.27,1,2.78,1.55.51.55.76,1.27.76,2.14Z"/><path class="cls-1" d="M247.38,347.48c-1.42,0-2.55-.43-3.37-1.3-.82-.87-1.24-2.07-1.24-3.61s.38-2.79,1.15-3.7c.76-.91,1.79-1.37,3.08-1.37,1.21,0,2.16.4,2.87,1.19s1.05,1.84,1.05,3.14v.92h-6.64c.03,1.13.31,1.99.86,2.58s1.31.88,2.29.88c1.04,0,2.06-.22,3.08-.65v1.3c-.52.22-1,.38-1.46.48-.46.1-1.01.14-1.67.14ZM246.98,338.72c-.77,0-1.39.25-1.85.76-.46.5-.73,1.2-.81,2.09h5.04c0-.92-.21-1.62-.62-2.11-.41-.49-1-.73-1.76-.73Z"/><path class="cls-1" d="M257.8,337.5c.43,0,.81.04,1.15.11l-.2,1.35c-.4-.09-.75-.13-1.05-.13-.78,0-1.45.32-2,.95-.55.63-.83,1.42-.83,2.36v5.17h-1.46v-9.63h1.2l.17,1.78h.07c.36-.63.79-1.11,1.29-1.45s1.06-.51,1.66-.51Z"/><path class="cls-1" d="M262.86,347.31l-3.66-9.63h1.56l2.07,5.71c.47,1.34.74,2.2.83,2.6h.07c.06-.31.27-.95.61-1.93.34-.97,1.11-3.1,2.31-6.38h1.56l-3.66,9.63h-1.71Z"/><path class="cls-1" d="M273.84,347.48c-1.42,0-2.55-.43-3.37-1.3-.82-.87-1.24-2.07-1.24-3.61s.38-2.79,1.15-3.7c.76-.91,1.79-1.37,3.08-1.37,1.21,0,2.16.4,2.87,1.19s1.05,1.84,1.05,3.14v.92h-6.64c.03,1.13.31,1.99.86,2.58s1.31.88,2.29.88c1.04,0,2.06-.22,3.08-.65v1.3c-.52.22-1,.38-1.46.48-.46.1-1.01.14-1.67.14ZM273.44,338.72c-.77,0-1.39.25-1.85.76-.46.5-.73,1.2-.81,2.09h5.04c0-.92-.21-1.62-.62-2.11-.41-.49-1-.73-1.76-.73Z"/><path class="cls-1" d="M290.76,344.68c0,.9-.33,1.59-1,2.07s-1.61.73-2.81.73c-1.28,0-2.27-.2-2.99-.61v-1.35c.46.23.96.42,1.49.55s1.04.2,1.53.2c.76,0,1.35-.12,1.76-.36s.62-.61.62-1.11c0-.38-.16-.7-.49-.96-.33-.27-.96-.58-1.9-.95-.9-.33-1.53-.62-1.91-.88-.38-.25-.66-.53-.84-.85-.19-.32-.28-.69-.28-1.13,0-.79.32-1.4.96-1.86s1.51-.68,2.63-.68c1.04,0,2.05.21,3.04.63l-.52,1.19c-.97-.4-1.84-.6-2.63-.6-.69,0-1.21.11-1.56.33s-.53.52-.53.9c0,.26.07.48.2.66.13.18.34.35.64.52s.86.4,1.69.71c1.14.42,1.91.83,2.32,1.26s.6.95.6,1.59Z"/><path class="cls-1" d="M293.01,335.06c0-.33.08-.58.25-.73s.37-.23.62-.23.44.08.61.24.25.4.25.73-.08.57-.25.73c-.17.16-.37.24-.61.24-.25,0-.45-.08-.62-.24-.16-.16-.25-.41-.25-.73ZM294.59,347.31h-1.46v-9.63h1.46v9.63Z"/><path class="cls-1" d="M300.8,346.28c.26,0,.51-.02.75-.06.24-.04.43-.08.57-.12v1.12c-.16.08-.39.14-.7.19-.31.05-.58.07-.83.07-1.86,0-2.79-.98-2.79-2.94v-5.73h-1.38v-.7l1.38-.61.62-2.06h.84v2.23h2.79v1.13h-2.79v5.67c0,.58.14,1.03.41,1.34s.65.47,1.13.47Z"/><path class="cls-1" d="M308.11,347.48c-1.42,0-2.55-.43-3.37-1.3-.82-.87-1.24-2.07-1.24-3.61s.38-2.79,1.15-3.7c.76-.91,1.79-1.37,3.08-1.37,1.21,0,2.16.4,2.87,1.19s1.05,1.84,1.05,3.14v.92h-6.64c.03,1.13.31,1.99.86,2.58s1.31.88,2.29.88c1.04,0,2.06-.22,3.08-.65v1.3c-.52.22-1,.38-1.46.48-.46.1-1.01.14-1.67.14ZM307.71,338.72c-.77,0-1.39.25-1.85.76-.46.5-.73,1.2-.81,2.09h5.04c0-.92-.21-1.62-.62-2.11-.41-.49-1-.73-1.76-.73Z"/><circle class="cls-2" cx="443.56" cy="199.7" r="99.81"/><path class="cls-4" d="M388.37,190.27c-.75,0-1.41-.08-1.97-.24v-2.77c.57.14,1.1.21,1.57.21.73,0,1.25-.23,1.57-.68.32-.46.47-1.17.47-2.13v-14.72h3.33v14.7c0,1.83-.42,3.23-1.26,4.19-.84.96-2.08,1.44-3.72,1.44Z"/><path class="cls-4" d="M404.66,185.65l-.63-1.63h-.09c-.55.69-1.12,1.18-1.7,1.44-.58.27-1.34.4-2.28.4-1.15,0-2.06-.33-2.72-.99-.66-.66-.99-1.6-.99-2.81s.45-2.21,1.34-2.82c.89-.6,2.24-.94,4.03-1l2.08-.06v-.53c0-1.22-.62-1.83-1.87-1.83-.96,0-2.09.29-3.38.87l-1.08-2.21c1.38-.72,2.92-1.08,4.6-1.08s2.85.35,3.71,1.05c.86.7,1.29,1.77,1.29,3.2v8h-2.29ZM403.69,180.09l-1.27.04c-.95.03-1.66.2-2.13.52-.47.32-.7.79-.7,1.44,0,.92.53,1.39,1.59,1.39.76,0,1.37-.22,1.82-.66.45-.44.68-1.02.68-1.74v-.99Z"/><path class="cls-4" d="M413.18,185.65l-4.58-12.01h3.43l2.32,6.84c.26.87.42,1.69.48,2.46h.06c.04-.69.2-1.51.48-2.46l2.31-6.84h3.43l-4.58,12.01h-3.36Z"/><path class="cls-4" d="M430.46,185.65l-.63-1.63h-.09c-.55.69-1.12,1.18-1.7,1.44-.58.27-1.34.4-2.28.4-1.15,0-2.06-.33-2.72-.99-.66-.66-.99-1.6-.99-2.81s.45-2.21,1.34-2.82c.89-.6,2.24-.94,4.03-1l2.08-.06v-.53c0-1.22-.62-1.83-1.87-1.83-.96,0-2.09.29-3.38.87l-1.08-2.21c1.38-.72,2.92-1.08,4.6-1.08s2.85.35,3.71,1.05c.86.7,1.29,1.77,1.29,3.2v8h-2.29ZM429.5,180.09l-1.27.04c-.95.03-1.66.2-2.13.52-.47.32-.7.79-.7,1.44,0,.92.53,1.39,1.59,1.39.76,0,1.37-.22,1.82-.66.45-.44.68-1.02.68-1.74v-.99Z"/><path class="cls-4" d="M445.65,181.29c0,1.42-.51,2.54-1.53,3.35s-2.44,1.22-4.26,1.22c-1.68,0-3.16-.31-4.45-.95v-3.09c1.06.47,1.96.81,2.69,1,.73.19,1.41.29,2.01.29.73,0,1.29-.14,1.68-.42.39-.28.58-.69.58-1.25,0-.31-.09-.58-.26-.82-.17-.24-.42-.47-.76-.69-.33-.22-1.01-.58-2.04-1.06-.96-.45-1.68-.88-2.16-1.3-.48-.42-.86-.9-1.15-1.45-.29-.55-.43-1.2-.43-1.93,0-1.39.47-2.48,1.41-3.28.94-.79,2.24-1.19,3.9-1.19.82,0,1.6.1,2.34.29s1.52.47,2.33.82l-1.07,2.59c-.84-.34-1.53-.58-2.08-.72-.55-.14-1.09-.2-1.62-.2-.63,0-1.11.15-1.45.44-.34.29-.5.68-.5,1.15,0,.29.07.55.2.77.14.22.35.43.65.63.3.2,1,.57,2.11,1.1,1.47.7,2.47,1.41,3.02,2.11.54.71.82,1.57.82,2.59Z"/><path class="cls-4" d="M453.12,185.87c-3.74,0-5.61-2.05-5.61-6.16,0-2.04.51-3.6,1.53-4.68,1.02-1.08,2.47-1.62,4.37-1.62,1.39,0,2.64.27,3.74.82l-.97,2.54c-.52-.21-1-.38-1.44-.51-.44-.13-.89-.2-1.33-.2-1.7,0-2.56,1.21-2.56,3.63s.85,3.52,2.56,3.52c.63,0,1.21-.08,1.75-.25.54-.17,1.07-.43,1.61-.79v2.8c-.53.34-1.07.57-1.61.7-.54.13-1.22.19-2.05.19Z"/><path class="cls-4" d="M466.26,173.42c.44,0,.81.03,1.11.1l-.25,3.07c-.26-.07-.59-.11-.97-.11-1.05,0-1.86.27-2.44.81-.58.54-.88,1.29-.88,2.26v6.11h-3.28v-12.01h2.48l.48,2.02h.16c.37-.67.88-1.22,1.51-1.63.63-.41,1.32-.62,2.07-.62Z"/><path class="cls-4" d="M469.4,170.54c0-1.07.59-1.6,1.78-1.6s1.78.53,1.78,1.6c0,.51-.15.9-.45,1.19-.3.28-.74.42-1.34.42-1.19,0-1.78-.54-1.78-1.61ZM472.82,185.65h-3.28v-12.01h3.28v12.01Z"/><path class="cls-4" d="M482.85,185.87c-1.41,0-2.52-.51-3.32-1.54h-.17c.11,1,.17,1.58.17,1.74v4.87h-3.28v-17.29h2.66l.46,1.56h.15c.77-1.19,1.9-1.78,3.41-1.78,1.42,0,2.53.55,3.33,1.64s1.2,2.62,1.2,4.57c0,1.28-.19,2.4-.56,3.34s-.91,1.67-1.61,2.16-1.51.74-2.45.74ZM481.89,176.04c-.81,0-1.4.25-1.77.75-.37.5-.57,1.32-.58,2.47v.35c0,1.29.19,2.21.58,2.77.38.56.99.84,1.82.84,1.47,0,2.2-1.21,2.2-3.63,0-1.18-.18-2.07-.54-2.66-.36-.59-.93-.89-1.7-.89Z"/><path class="cls-4" d="M495.24,183.26c.57,0,1.26-.12,2.06-.38v2.44c-.82.37-1.82.55-3.01.55-1.31,0-2.26-.33-2.86-.99-.6-.66-.9-1.66-.9-2.98v-5.79h-1.57v-1.39l1.8-1.1.95-2.54h2.09v2.56h3.36v2.46h-3.36v5.79c0,.47.13.81.39,1.03.26.22.61.33,1.04.33Z"/><path class="cls-4" d="M407.48,216h3.63c1.71,0,2.94.25,3.7.76s1.14,1.32,1.14,2.42c0,.76-.21,1.39-.64,1.88-.42.5-1.04.82-1.86.96v.09c1.95.33,2.93,1.36,2.93,3.08,0,1.15-.39,2.04-1.16,2.69s-1.86.97-3.26.97h-4.48v-12.85ZM408.98,221.5h2.46c1.05,0,1.81-.17,2.28-.5s.69-.89.69-1.67c0-.72-.26-1.24-.77-1.56s-1.34-.48-2.46-.48h-2.2v4.21ZM408.98,222.77v4.81h2.68c1.04,0,1.82-.2,2.34-.6.52-.4.79-1.03.79-1.88,0-.8-.27-1.38-.8-1.76s-1.35-.56-2.45-.56h-2.56Z"/><path class="cls-4" d="M423,229.03c-1.42,0-2.55-.43-3.37-1.3s-1.24-2.07-1.24-3.61.38-2.79,1.15-3.7,1.79-1.37,3.08-1.37c1.21,0,2.16.4,2.87,1.19s1.05,1.84,1.05,3.14v.92h-6.64c.03,1.13.32,1.99.86,2.58s1.3.88,2.29.88c1.04,0,2.06-.22,3.08-.65v1.3c-.52.22-1,.38-1.46.48-.46.1-1.02.14-1.67.14ZM422.6,220.27c-.77,0-1.39.25-1.85.76s-.73,1.2-.81,2.09h5.04c0-.92-.21-1.62-.62-2.11-.41-.49-1-.73-1.76-.73Z"/><path class="cls-4" d="M435.62,228.85v-6.23c0-.79-.18-1.37-.54-1.76s-.92-.58-1.68-.58c-1.01,0-1.75.28-2.22.83s-.7,1.45-.7,2.71v5.04h-1.46v-13.68h1.46v4.14c0,.5-.02.91-.07,1.24h.09c.29-.46.7-.83,1.23-1.09s1.13-.4,1.81-.4c1.18,0,2.06.28,2.65.84s.88,1.45.88,2.67v6.28h-1.46Z"/><path class="cls-4" d="M446,228.85l-.29-1.37h-.07c-.48.6-.96,1.01-1.44,1.23-.48.21-1.07.32-1.79.32-.96,0-1.7-.25-2.25-.74s-.81-1.19-.81-2.1c0-1.95,1.56-2.96,4.67-3.06l1.63-.05v-.6c0-.76-.16-1.31-.49-1.67-.33-.36-.85-.54-1.56-.54-.8,0-1.71.25-2.72.74l-.45-1.12c.47-.26,1-.46,1.56-.61s1.13-.22,1.7-.22c1.15,0,2,.25,2.55.76s.83,1.33.83,2.45v6.57h-1.08ZM442.7,227.82c.91,0,1.62-.25,2.14-.75s.78-1.2.78-2.09v-.87l-1.46.06c-1.16.04-2,.22-2.51.54s-.77.82-.77,1.49c0,.53.16.93.48,1.2s.77.41,1.34.41Z"/><path class="cls-4" d="M452.19,228.85l-3.66-9.63h1.56l2.07,5.71c.47,1.34.74,2.2.83,2.6h.07c.06-.31.27-.95.61-1.93.34-.97,1.11-3.1,2.31-6.38h1.56l-3.66,9.63h-1.71Z"/><path class="cls-4" d="M458.98,216.61c0-.33.08-.58.25-.73s.37-.23.62-.23.44.08.61.24.25.4.25.73-.08.57-.25.73c-.17.16-.37.24-.61.24-.25,0-.45-.08-.62-.24-.16-.16-.25-.41-.25-.73ZM460.56,228.85h-1.46v-9.63h1.46v9.63Z"/><path class="cls-4" d="M471.97,224.03c0,1.57-.4,2.8-1.19,3.68s-1.88,1.32-3.28,1.32c-.86,0-1.63-.2-2.29-.61s-1.18-.98-1.55-1.74-.54-1.64-.54-2.65c0-1.57.39-2.79,1.18-3.67s1.88-1.31,3.27-1.31,2.42.45,3.21,1.34,1.19,2.11,1.19,3.64ZM464.63,224.03c0,1.23.25,2.17.74,2.81s1.22.97,2.17.97,1.68-.32,2.18-.96c.5-.64.74-1.58.74-2.82s-.25-2.15-.74-2.79-1.23-.95-2.19-.95-1.68.31-2.16.94-.73,1.56-.73,2.8Z"/><path class="cls-4" d="M478.92,219.04c.43,0,.81.04,1.15.11l-.2,1.35c-.4-.09-.75-.13-1.05-.13-.78,0-1.45.32-2,.95s-.83,1.42-.83,2.36v5.17h-1.46v-9.63h1.2l.17,1.78h.07c.36-.63.79-1.11,1.29-1.45s1.06-.51,1.66-.51Z"/><circle class="cls-2" cx="99.81" cy="199.56" r="99.81"/><path class="cls-4" d="M88.93,173.7c-1.24,0-2.2.47-2.88,1.4-.68.93-1.02,2.23-1.02,3.9,0,3.47,1.3,5.2,3.89,5.2,1.09,0,2.41-.27,3.96-.82v2.77c-1.27.53-2.69.8-4.26.8-2.26,0-3.98-.69-5.18-2.06-1.2-1.37-1.79-3.34-1.79-5.91,0-1.62.29-3.03.88-4.25s1.43-2.15,2.53-2.8c1.1-.65,2.39-.97,3.87-.97s3.02.37,4.54,1.1l-1.06,2.68c-.58-.28-1.16-.52-1.75-.72s-1.16-.31-1.73-.31Z"/><path class="cls-4" d="M105.33,182.41c0,1.4-.5,2.51-1.51,3.32-1.01.81-2.41,1.21-4.21,1.21-1.65,0-3.12-.31-4.39-.94v-3.06c1.05.47,1.93.8,2.66.99s1.39.29,1.99.29c.72,0,1.27-.14,1.66-.41.39-.28.58-.69.58-1.23,0-.3-.08-.58-.25-.81-.17-.24-.42-.47-.75-.69-.33-.22-1-.57-2.01-1.05-.95-.45-1.66-.88-2.13-1.29s-.85-.89-1.13-1.44c-.28-.55-.42-1.18-.42-1.91,0-1.38.46-2.46,1.39-3.24.93-.79,2.21-1.18,3.85-1.18.81,0,1.58.1,2.31.29.73.19,1.5.46,2.3.81l-1.06,2.56c-.83-.34-1.51-.58-2.05-.71s-1.07-.2-1.6-.2c-.62,0-1.1.15-1.43.44-.33.29-.5.67-.5,1.14,0,.29.07.54.2.76.13.22.35.43.64.63.29.2.99.57,2.08,1.09,1.45.69,2.44,1.39,2.98,2.09.54.7.81,1.55.81,2.57Z"/><path class="cls-4" d="M117.3,182.41c0,1.4-.5,2.51-1.51,3.32-1.01.81-2.41,1.21-4.21,1.21-1.65,0-3.12-.31-4.39-.94v-3.06c1.05.47,1.93.8,2.66.99s1.39.29,1.99.29c.72,0,1.27-.14,1.66-.41.39-.28.58-.69.58-1.23,0-.3-.08-.58-.25-.81-.17-.24-.42-.47-.75-.69-.33-.22-1-.57-2.01-1.05-.95-.45-1.66-.88-2.13-1.29s-.85-.89-1.13-1.44c-.28-.55-.42-1.18-.42-1.91,0-1.38.46-2.46,1.39-3.24.93-.79,2.21-1.18,3.85-1.18.81,0,1.58.1,2.31.29.73.19,1.5.46,2.3.81l-1.06,2.56c-.83-.34-1.51-.58-2.05-.71s-1.07-.2-1.6-.2c-.62,0-1.1.15-1.43.44-.33.29-.5.67-.5,1.14,0,.29.07.54.2.76.13.22.35.43.64.63.29.2.99.57,2.08,1.09,1.45.69,2.44,1.39,2.98,2.09.54.7.81,1.55.81,2.57Z"/><path class="cls-4" d="M56.14,220.48c0,1.29-.44,2.28-1.31,2.97-.88.69-2.13,1.04-3.76,1.04h-1.49v5h-1.48v-12.72h3.29c3.17,0,4.75,1.24,4.75,3.71ZM49.57,223.22h1.33c1.31,0,2.25-.21,2.84-.64.58-.42.88-1.1.88-2.04,0-.84-.27-1.47-.82-1.88-.55-.41-1.41-.62-2.57-.62h-1.65v5.17Z"/><path class="cls-4" d="M62.91,219.78c.42,0,.8.04,1.14.1l-.2,1.34c-.39-.09-.74-.13-1.04-.13-.77,0-1.43.31-1.97.94-.55.63-.82,1.41-.82,2.34v5.12h-1.44v-9.54h1.19l.17,1.77h.07c.35-.62.78-1.1,1.28-1.44.5-.34,1.04-.5,1.64-.5Z"/><path class="cls-4" d="M69.85,229.66c-1.41,0-2.51-.43-3.33-1.29-.81-.86-1.22-2.05-1.22-3.58s.38-2.76,1.13-3.66c.76-.9,1.77-1.36,3.04-1.36,1.19,0,2.13.39,2.83,1.18s1.04,1.82,1.04,3.11v.91h-6.55c.03,1.12.31,1.97.85,2.55.53.58,1.29.87,2.26.87,1.02,0,2.04-.21,3.04-.64v1.29c-.51.22-.99.38-1.44.47s-1,.14-1.64.14ZM69.46,220.99c-.76,0-1.37.25-1.83.75s-.72,1.19-.8,2.07h4.97c0-.91-.2-1.61-.61-2.09-.4-.48-.98-.73-1.74-.73Z"/><path class="cls-4" d="M81.93,226.89c0,.89-.33,1.57-.99,2.05-.66.48-1.58.72-2.78.72-1.26,0-2.25-.2-2.95-.6v-1.34c.46.23.95.41,1.47.55.52.13,1.03.2,1.51.2.75,0,1.33-.12,1.74-.36.41-.24.61-.61.61-1.1,0-.37-.16-.69-.48-.95-.32-.26-.95-.58-1.88-.94-.88-.33-1.51-.62-1.89-.87-.37-.25-.65-.53-.83-.84-.18-.31-.27-.69-.27-1.12,0-.78.32-1.39.95-1.84.63-.45,1.5-.67,2.59-.67,1.02,0,2.03.21,3,.63l-.51,1.17c-.96-.39-1.82-.59-2.59-.59-.68,0-1.2.11-1.54.32-.35.21-.52.51-.52.89,0,.26.06.47.2.65.13.18.34.35.63.51.29.16.84.4,1.67.7,1.13.41,1.89.83,2.29,1.24.4.42.59.94.59,1.57Z"/><path class="cls-4" d="M88.3,229.66c-1.41,0-2.51-.43-3.33-1.29-.81-.86-1.22-2.05-1.22-3.58s.38-2.76,1.13-3.66c.76-.9,1.77-1.36,3.04-1.36,1.19,0,2.13.39,2.83,1.18s1.04,1.82,1.04,3.11v.91h-6.55c.03,1.12.31,1.97.85,2.55.53.58,1.29.87,2.26.87,1.02,0,2.04-.21,3.04-.64v1.29c-.51.22-.99.38-1.44.47s-1,.14-1.64.14ZM87.9,220.99c-.76,0-1.37.25-1.83.75s-.72,1.19-.8,2.07h4.97c0-.91-.2-1.61-.61-2.09-.4-.48-.98-.73-1.74-.73Z"/><path class="cls-4" d="M100.76,229.49v-6.17c0-.78-.18-1.36-.53-1.74s-.91-.57-1.66-.57c-1,0-1.72.27-2.19.81s-.69,1.43-.69,2.67v5h-1.44v-9.54h1.17l.23,1.31h.07c.3-.47.71-.83,1.24-1.09.53-.26,1.12-.39,1.78-.39,1.15,0,2.01.28,2.59.83.58.55.87,1.44.87,2.66v6.22h-1.44Z"/><path class="cls-4" d="M108.23,228.47c.25,0,.5-.02.74-.06.24-.04.42-.08.56-.12v1.1c-.16.08-.39.14-.69.19s-.58.07-.82.07c-1.84,0-2.76-.97-2.76-2.91v-5.67h-1.36v-.7l1.36-.6.61-2.04h.83v2.21h2.76v1.12h-2.76v5.61c0,.57.14,1.02.41,1.32.27.31.65.46,1.12.46Z"/><path class="cls-4" d="M117.28,229.49l-.29-1.36h-.07c-.47.6-.95,1-1.42,1.21-.47.21-1.06.32-1.77.32-.94,0-1.68-.24-2.22-.73-.54-.49-.8-1.18-.8-2.08,0-1.93,1.54-2.94,4.61-3.03l1.61-.05v-.59c0-.75-.16-1.3-.48-1.66-.32-.36-.83-.54-1.54-.54-.79,0-1.69.24-2.69.73l-.44-1.1c.47-.26.98-.46,1.54-.6.56-.14,1.12-.22,1.68-.22,1.13,0,1.97.25,2.52.76.55.5.82,1.31.82,2.43v6.51h-1.07ZM114.02,228.47c.9,0,1.6-.25,2.11-.74.51-.49.77-1.18.77-2.07v-.86l-1.44.06c-1.15.04-1.97.22-2.48.54-.51.32-.76.81-.76,1.47,0,.52.16.92.47,1.19.31.27.76.41,1.32.41Z"/><path class="cls-4" d="M124.38,228.47c.25,0,.5-.02.74-.06.24-.04.42-.08.56-.12v1.1c-.16.08-.39.14-.69.19s-.58.07-.82.07c-1.84,0-2.76-.97-2.76-2.91v-5.67h-1.36v-.7l1.36-.6.61-2.04h.83v2.21h2.76v1.12h-2.76v5.61c0,.57.14,1.02.41,1.32.27.31.65.46,1.12.46Z"/><path class="cls-4" d="M127.46,217.37c0-.33.08-.57.24-.73.16-.15.37-.23.61-.23s.43.08.6.23c.17.16.25.4.25.72s-.08.57-.25.73c-.17.16-.37.24-.6.24s-.45-.08-.61-.24c-.16-.16-.24-.4-.24-.73ZM129.03,229.49h-1.44v-9.54h1.44v9.54Z"/><path class="cls-4" d="M140.29,224.71c0,1.55-.39,2.77-1.17,3.64-.78.87-1.86,1.31-3.24,1.31-.85,0-1.61-.2-2.26-.6-.66-.4-1.17-.97-1.53-1.72-.36-.75-.54-1.62-.54-2.63,0-1.55.39-2.77,1.16-3.63.77-.87,1.85-1.3,3.23-1.3s2.39.44,3.17,1.33c.78.89,1.18,2.09,1.18,3.6ZM133.04,224.71c0,1.22.24,2.15.73,2.78.49.64,1.2.96,2.14.96s1.66-.32,2.15-.95c.49-.64.73-1.56.73-2.79s-.25-2.13-.73-2.76c-.49-.63-1.21-.94-2.17-.94s-1.66.31-2.13.93c-.48.62-.72,1.55-.72,2.78Z"/><path class="cls-4" d="M149.32,229.49v-6.17c0-.78-.18-1.36-.53-1.74s-.91-.57-1.66-.57c-1,0-1.72.27-2.19.81s-.69,1.43-.69,2.67v5h-1.44v-9.54h1.17l.23,1.31h.07c.3-.47.71-.83,1.24-1.09.53-.26,1.12-.39,1.78-.39,1.15,0,2.01.28,2.59.83.58.55.87,1.44.87,2.66v6.22h-1.44Z"/><circle class="cls-2" cx="272.5" cy="99.81" r="99.81"/><path class="cls-4" d="M255.92,75.74h-3.28v-6.71h-6.14v6.71h-3.29v-15.55h3.29v6.09h6.14v-6.09h3.28v15.55Z"/><path class="cls-4" d="M265.81,75.74h-3.29v-12.8h-4.21v-2.74h11.71v2.74h-4.21v12.8Z"/><path class="cls-4" d="M278.97,75.74l-3.73-12.2h-.1c.13,2.48.2,4.14.2,4.97v7.23h-2.94v-15.55h4.48l3.67,11.89h.06l3.89-11.89h4.48v15.55h-3.07v-7.36c0-.35,0-.75.02-1.2.01-.45.06-1.66.14-3.62h-.09l-4,12.18h-3.01Z"/><path class="cls-4" d="M292.89,75.74v-15.55h3.29v12.83h6.29v2.72h-9.58Z"/><path class="cls-4" d="M221.68,109.49c0,1.29-.44,2.28-1.31,2.97-.88.69-2.13,1.04-3.76,1.04h-1.49v5h-1.48v-12.72h3.29c3.17,0,4.75,1.24,4.75,3.71ZM215.11,112.23h1.33c1.31,0,2.25-.21,2.84-.64.58-.42.88-1.1.88-2.04,0-.84-.27-1.47-.82-1.88-.55-.41-1.41-.62-2.57-.62h-1.65v5.17Z"/><path class="cls-4" d="M229.96,118.51l-.29-1.36h-.07c-.47.6-.95,1-1.42,1.21-.47.21-1.06.32-1.77.32-.94,0-1.68-.24-2.22-.73-.54-.49-.8-1.18-.8-2.08,0-1.93,1.54-2.94,4.61-3.03l1.61-.05v-.59c0-.75-.16-1.3-.48-1.66-.32-.36-.83-.54-1.54-.54-.79,0-1.69.24-2.69.73l-.44-1.1c.47-.26.98-.46,1.54-.6.56-.14,1.12-.22,1.68-.22,1.13,0,1.97.25,2.52.76.55.5.82,1.31.82,2.43v6.51h-1.07ZM226.71,117.49c.9,0,1.6-.25,2.11-.74.51-.49.77-1.18.77-2.07v-.86l-1.44.06c-1.15.04-1.97.22-2.48.54-.51.32-.76.81-.76,1.47,0,.52.16.92.47,1.19.31.27.76.41,1.32.41Z"/><path class="cls-4" d="M241.78,108.97v.91l-1.76.21c.16.2.31.47.43.8s.19.7.19,1.11c0,.93-.32,1.68-.95,2.24-.64.56-1.51.83-2.62.83-.28,0-.55-.02-.8-.07-.61.32-.92.73-.92,1.23,0,.26.11.45.32.58.21.12.58.19,1.1.19h1.68c1.03,0,1.82.22,2.37.65.55.44.83,1.07.83,1.9,0,1.06-.42,1.86-1.27,2.41-.84.55-2.08.83-3.7.83-1.24,0-2.2-.23-2.88-.7-.67-.46-1.01-1.12-1.01-1.97,0-.58.18-1.08.55-1.5s.89-.71,1.56-.86c-.24-.11-.45-.28-.61-.51s-.25-.5-.25-.81c0-.35.09-.65.28-.91.19-.26.48-.51.88-.76-.49-.2-.89-.55-1.2-1.04s-.46-1.04-.46-1.67c0-1.04.31-1.85.94-2.41.62-.57,1.51-.85,2.66-.85.5,0,.95.06,1.35.17h3.29ZM234.2,120.11c0,.52.22.91.65,1.17.43.27,1.06.4,1.87.4,1.21,0,2.1-.18,2.69-.54.58-.36.87-.85.87-1.47,0-.52-.16-.87-.48-1.07-.32-.2-.92-.3-1.8-.3h-1.73c-.65,0-1.16.16-1.53.47-.36.31-.55.76-.55,1.35ZM234.98,112.02c0,.67.19,1.17.56,1.51.38.34.9.51,1.57.51,1.41,0,2.11-.68,2.11-2.05s-.71-2.15-2.13-2.15c-.68,0-1.2.18-1.56.55-.36.37-.55.91-.55,1.63Z"/><path class="cls-4" d="M247.75,118.68c-1.41,0-2.51-.43-3.33-1.29-.81-.86-1.22-2.05-1.22-3.58s.38-2.76,1.13-3.66c.76-.9,1.77-1.36,3.04-1.36,1.19,0,2.13.39,2.83,1.18s1.04,1.82,1.04,3.11v.91h-6.55c.03,1.12.31,1.97.85,2.55.53.58,1.29.87,2.26.87,1.02,0,2.04-.21,3.04-.64v1.29c-.51.22-.99.38-1.44.47s-1,.14-1.64.14ZM247.36,110.01c-.76,0-1.37.25-1.83.75s-.72,1.19-.8,2.07h4.97c0-.91-.2-1.61-.61-2.09-.4-.48-.98-.73-1.74-.73Z"/><path class="cls-4" d="M264.46,115.91c0,.89-.33,1.57-.99,2.05-.66.48-1.58.72-2.78.72-1.26,0-2.25-.2-2.95-.6v-1.34c.46.23.95.41,1.47.55.52.13,1.03.2,1.51.2.75,0,1.33-.12,1.74-.36.41-.24.61-.61.61-1.1,0-.37-.16-.69-.48-.95-.32-.26-.95-.58-1.88-.94-.88-.33-1.51-.62-1.89-.87-.37-.25-.65-.53-.83-.84-.18-.31-.27-.69-.27-1.12,0-.78.32-1.39.95-1.84.63-.45,1.5-.67,2.59-.67,1.02,0,2.03.21,3,.63l-.51,1.17c-.96-.39-1.82-.59-2.59-.59-.68,0-1.2.11-1.54.32-.35.21-.52.51-.52.89,0,.26.06.47.2.65.13.18.34.35.63.51.29.16.84.4,1.67.7,1.13.41,1.89.83,2.29,1.24.4.42.59.94.59,1.57Z"/><path class="cls-4" d="M269.87,117.49c.25,0,.5-.02.74-.06.24-.04.42-.08.56-.12v1.1c-.16.08-.39.14-.69.19s-.58.07-.82.07c-1.84,0-2.76-.97-2.76-2.91v-5.67h-1.36v-.7l1.36-.6.61-2.04h.83v2.21h2.76v1.12h-2.76v5.61c0,.57.14,1.02.41,1.32.27.31.65.46,1.12.46Z"/><path class="cls-4" d="M277.41,108.8c.42,0,.8.04,1.14.1l-.2,1.34c-.39-.09-.74-.13-1.04-.13-.77,0-1.43.31-1.97.94-.55.63-.82,1.41-.82,2.34v5.12h-1.44v-9.54h1.19l.17,1.77h.07c.35-.62.78-1.1,1.28-1.44.5-.34,1.04-.5,1.64-.5Z"/><path class="cls-4" d="M281.68,108.97v6.19c0,.78.18,1.36.53,1.74s.91.57,1.66.57c1,0,1.72-.27,2.18-.82.46-.54.69-1.44.69-2.67v-5.01h1.44v9.54h-1.19l-.21-1.28h-.08c-.29.47-.7.83-1.23,1.08-.52.25-1.12.37-1.79.37-1.16,0-2.02-.28-2.6-.83-.58-.55-.86-1.43-.86-2.65v-6.24h1.46Z"/><path class="cls-4" d="M295.04,118.68c-1.38,0-2.44-.42-3.2-1.27-.75-.85-1.13-2.05-1.13-3.61s.38-2.83,1.15-3.7,1.86-1.31,3.28-1.31c.46,0,.91.05,1.37.15.46.1.82.21,1.08.35l-.44,1.23c-.32-.13-.67-.23-1.04-.32-.38-.08-.71-.13-1-.13-1.93,0-2.9,1.24-2.9,3.71,0,1.17.24,2.07.71,2.7.47.63,1.17.94,2.1.94.79,0,1.61-.17,2.44-.51v1.28c-.64.33-1.44.5-2.4.5Z"/><path class="cls-4" d="M302.77,117.49c.25,0,.5-.02.74-.06.24-.04.42-.08.56-.12v1.1c-.16.08-.39.14-.69.19s-.58.07-.82.07c-1.84,0-2.76-.97-2.76-2.91v-5.67h-1.36v-.7l1.36-.6.61-2.04h.83v2.21h2.76v1.12h-2.76v5.61c0,.57.14,1.02.41,1.32.27.31.65.46,1.12.46Z"/><path class="cls-4" d="M307.32,108.97v6.19c0,.78.18,1.36.53,1.74s.91.57,1.66.57c1,0,1.72-.27,2.18-.82.46-.54.69-1.44.69-2.67v-5.01h1.44v9.54h-1.19l-.21-1.28h-.08c-.29.47-.7.83-1.23,1.08-.52.25-1.12.37-1.79.37-1.16,0-2.02-.28-2.6-.83-.58-.55-.86-1.43-.86-2.65v-6.24h1.46Z"/><path class="cls-4" d="M321.22,108.8c.42,0,.8.04,1.14.1l-.2,1.34c-.39-.09-.74-.13-1.04-.13-.77,0-1.43.31-1.97.94-.55.63-.82,1.41-.82,2.34v5.12h-1.44v-9.54h1.19l.17,1.77h.07c.35-.62.78-1.1,1.28-1.44.5-.34,1.04-.5,1.64-.5Z"/><path class="cls-4" d="M328.15,118.68c-1.41,0-2.51-.43-3.33-1.29-.81-.86-1.22-2.05-1.22-3.58s.38-2.76,1.13-3.66c.76-.9,1.77-1.36,3.04-1.36,1.19,0,2.13.39,2.83,1.18s1.04,1.82,1.04,3.11v.91h-6.55c.03,1.12.31,1.97.85,2.55.53.58,1.29.87,2.26.87,1.02,0,2.04-.21,3.04-.64v1.29c-.51.22-.99.38-1.44.47s-1,.14-1.64.14ZM327.76,110.01c-.76,0-1.37.25-1.83.75s-.72,1.19-.8,2.07h4.97c0-.91-.2-1.61-.61-2.09-.4-.48-.98-.73-1.74-.73Z"/><path class="cls-4" d="M229.69,139.89l-.29-1.36h-.07c-.47.6-.95,1-1.42,1.21-.47.21-1.06.32-1.77.32-.94,0-1.68-.24-2.22-.73-.54-.49-.8-1.18-.8-2.08,0-1.93,1.54-2.94,4.61-3.03l1.61-.05v-.59c0-.75-.16-1.3-.48-1.66-.32-.36-.83-.54-1.54-.54-.79,0-1.69.24-2.69.73l-.44-1.1c.47-.26.98-.46,1.54-.6.56-.14,1.12-.22,1.68-.22,1.13,0,1.97.25,2.52.76.55.5.82,1.31.82,2.43v6.51h-1.07ZM226.44,138.87c.9,0,1.6-.25,2.11-.74.51-.49.77-1.18.77-2.07v-.86l-1.44.06c-1.15.04-1.97.22-2.48.54-.51.32-.76.81-.76,1.47,0,.52.16.92.47,1.19.31.27.76.41,1.32.41Z"/><path class="cls-4" d="M240.24,139.89v-6.17c0-.78-.18-1.36-.53-1.74s-.91-.57-1.66-.57c-1,0-1.72.27-2.19.81s-.69,1.43-.69,2.67v5h-1.44v-9.54h1.17l.23,1.31h.07c.3-.47.71-.83,1.24-1.09.53-.26,1.12-.39,1.78-.39,1.15,0,2.01.28,2.59.83.58.55.87,1.44.87,2.66v6.22h-1.44Z"/><path class="cls-4" d="M251.11,138.61h-.08c-.67.97-1.66,1.45-2.99,1.45-1.24,0-2.21-.43-2.9-1.28s-1.04-2.06-1.04-3.64.35-2.79,1.04-3.66,1.66-1.31,2.9-1.31,2.28.47,2.97,1.41h.11l-.06-.69-.03-.67v-3.88h1.44v13.54h-1.17l-.19-1.28ZM248.23,138.85c.98,0,1.7-.27,2.14-.8s.66-1.4.66-2.6v-.3c0-1.35-.22-2.32-.67-2.89s-1.16-.87-2.15-.87c-.84,0-1.49.33-1.94.99s-.67,1.59-.67,2.79.22,2.14.67,2.76c.45.62,1.1.93,1.96.93Z"/><path class="cls-4" d="M263.94,140.06c-1.38,0-2.44-.42-3.2-1.27-.75-.85-1.13-2.05-1.13-3.61s.38-2.83,1.15-3.7,1.86-1.31,3.28-1.31c.46,0,.91.05,1.37.15.46.1.82.21,1.08.35l-.44,1.23c-.32-.13-.67-.23-1.04-.32-.38-.08-.71-.13-1-.13-1.93,0-2.9,1.24-2.9,3.71,0,1.17.24,2.07.71,2.7.47.63,1.17.94,2.1.94.79,0,1.61-.17,2.44-.51v1.28c-.64.33-1.44.5-2.4.5Z"/><path class="cls-4" d="M276.81,135.11c0,1.55-.39,2.77-1.17,3.64-.78.87-1.86,1.31-3.24,1.31-.85,0-1.61-.2-2.26-.6-.66-.4-1.17-.97-1.53-1.72-.36-.75-.54-1.62-.54-2.63,0-1.55.39-2.77,1.16-3.63.77-.87,1.85-1.3,3.23-1.3s2.39.44,3.17,1.33c.78.89,1.18,2.09,1.18,3.6ZM269.57,135.11c0,1.22.24,2.15.73,2.78.49.64,1.2.96,2.14.96s1.66-.32,2.15-.95c.49-.64.73-1.56.73-2.79s-.25-2.13-.73-2.76c-.49-.63-1.21-.94-2.17-.94s-1.66.31-2.13.93c-.48.62-.72,1.55-.72,2.78Z"/><path class="cls-4" d="M285.85,139.89v-6.17c0-.78-.18-1.36-.53-1.74s-.91-.57-1.66-.57c-1,0-1.72.27-2.19.81s-.69,1.43-.69,2.67v5h-1.44v-9.54h1.17l.23,1.31h.07c.3-.47.71-.83,1.24-1.09.53-.26,1.12-.39,1.78-.39,1.15,0,2.01.28,2.59.83.58.55.87,1.44.87,2.66v6.22h-1.44Z"/><path class="cls-4" d="M293.32,138.87c.25,0,.5-.02.74-.06.24-.04.42-.08.56-.12v1.1c-.16.08-.39.14-.69.19s-.58.07-.82.07c-1.84,0-2.76-.97-2.76-2.91v-5.67h-1.36v-.7l1.36-.6.61-2.04h.83v2.21h2.76v1.12h-2.76v5.61c0,.57.14,1.02.41,1.32.27.31.65.46,1.12.46Z"/><path class="cls-4" d="M300.54,140.06c-1.41,0-2.51-.43-3.33-1.29-.81-.86-1.22-2.05-1.22-3.58s.38-2.76,1.13-3.66c.76-.9,1.77-1.36,3.04-1.36,1.19,0,2.13.39,2.83,1.18s1.04,1.82,1.04,3.11v.91h-6.55c.03,1.12.31,1.97.85,2.55.53.58,1.29.87,2.26.87,1.02,0,2.04-.21,3.04-.64v1.29c-.51.22-.99.38-1.44.47s-1,.14-1.64.14ZM300.15,131.39c-.76,0-1.37.25-1.83.75s-.72,1.19-.8,2.07h4.97c0-.91-.2-1.61-.61-2.09-.4-.48-.98-.73-1.74-.73Z"/><path class="cls-4" d="M313,139.89v-6.17c0-.78-.18-1.36-.53-1.74s-.91-.57-1.66-.57c-1,0-1.72.27-2.19.81s-.69,1.43-.69,2.67v5h-1.44v-9.54h1.17l.23,1.31h.07c.3-.47.71-.83,1.24-1.09.53-.26,1.12-.39,1.78-.39,1.15,0,2.01.28,2.59.83.58.55.87,1.44.87,2.66v6.22h-1.44Z"/><path class="cls-4" d="M320.47,138.87c.25,0,.5-.02.74-.06.24-.04.42-.08.56-.12v1.1c-.16.08-.39.14-.69.19s-.58.07-.82.07c-1.84,0-2.76-.97-2.76-2.91v-5.67h-1.36v-.7l1.36-.6.61-2.04h.83v2.21h2.76v1.12h-2.76v5.61c0,.57.14,1.02.41,1.32.27.31.65.46,1.12.46Z"/></svg>