<?xml version="1.0" encoding="UTF-8"?><svg id="Layer_1" xmlns="http://www.w3.org/2000/svg" viewBox="0 0 1190.64 605.38"><defs><style>.cls-1{stroke-width:0px;}</style></defs><path class="cls-1" d="M283.93,234.21c-2.21,0-3.65-1.34-4.61-2.88-.14-.24-.19-.43-.19-.67,0-.62.53-1.25,1.73-1.25.14,0,.29.05.48.05,1.97.24,3.26.77,4.75,1.87.43.29.58.67.58,1.06,0,.77-.77,1.54-1.58,1.68-.43.1-.82.14-1.15.14ZM284.36,256.68c-1.58-1.73-2.5-3.55-2.59-5.47-.1-2.06-.1-3.65-.1-5.28v-1.73c0-1.06-.05-2.21-.05-3.5v-.05c0-.82.53-1.15,1.15-1.15,1.15,0,2.78,1.06,2.74,2.4v.1c-.05,2.35-.62,4.22-.62,6.1,0,1.15.19,2.26.77,3.55.72,1.58,1.49,2.3,2.59,3.6.19.24.29.48.29.67,0,.77-1.34,1.25-2.59,1.25-.67,0-1.3-.14-1.58-.48Z"/><path class="cls-1" d="M306.88,259.41c-4.03-1.82-2.16-8.3-3.6-10.8-.58-1.06-1.06-1.49-1.44-1.49-.29,0-.58.24-.86.62-1.78,2.26-1.58,5.04-3.74,6.48-.62.43-1.2.58-1.63.58-1.73,0-2.4-2.3-2.4-3.26v-.82c0-3.46-.91-6.62-2.3-8.59-.1-.14-.14-.34-.14-.58,0-1.1,1.39-2.83,2.93-2.83.29,0,.62.05.96.24,1.44.77.96,4.56,1.73,7.63.19.86.58,1.25,1.01,1.25.34,0,.77-.29,1.15-.67,1.63-1.63,1.73-2.59,2.74-5.18.19-.43.53-.62,1.01-.62.91,0,2.21.77,2.74,1.63,2.11,3.41,1.87,12.67,3.89,13.54.86.38,1.25.96,1.25,1.49,0,.86-.86,1.68-2.02,1.68-.38,0-.82-.1-1.25-.29Z"/><path class="cls-1" d="M336.4,256.44c-.82,0-1.54-.29-2.11-.86-1.82-1.82-1.92-3.55-3.07-5.86-.19-.38-.82-.82-1.44-.82-.38,0-.77.19-1.06.62-2.21,3.46-3.89,5.62-7.58,7.3-1.63.77-3.02,1.06-4.22,1.06-3.02,0-4.61-1.92-4.61-3.89,0-.77.24-1.54.77-2.16,3.98-5.04,9.6-7.78,14.11-10.37.58-.34,1.25-.72,1.25-1.39v-.05c-.1-2.78-.48-5.38-1.06-8.35v-.19c0-.62.53-1.15,1.25-1.15.34,0,.77.14,1.15.48,1.63,1.39,3.12,3.7,3.17,6.53.1,4.22.34,14.59,5.28,16.8.58.29.82.58.82.86,0,.48-.58.91-1.2,1.15-.48.19-1.01.29-1.44.29ZM326.8,244.91c-3.02,1.73-7.58,4.18-10.46,7.49-.24.29-.34.62-.34.96,0,.77.48,1.49,1.63,1.49.38,0,.91-.1,1.49-.34,4.37-1.73,6.48-5.38,8.83-8.16.29-.34.38-.62.38-.86,0-.48-.43-.72-.91-.72-.19,0-.43.05-.62.14Z"/><path class="cls-1" d="M355.88,259.56c-1.92,0-3.79-.24-5.18-.72-4.13-1.34-8.45-3.46-8.45-7.63,0-.38,0-.77.1-1.2.86-4.61,3.41-6.67,7.1-9.02,2.45-1.54,4.9-2.59,7.34-2.59,1.34,0,2.69.34,4.08,1.06,1.39.72,2.06,1.97,2.06,3.26,0,1.06-.43,2.16-1.39,3.07-2.88,2.83-5.57,2.45-9.12,4.03-1.44.62-2.59.91-3.5.91-1.01,0-1.73-.34-2.06-.82-.1-.14-.34-.34-.53-.34-.43,0-.48.82-.48,1.2,0,3.12,3.89,4.42,6.86,5.18,1.73.43,3.12.62,4.56.62,1.68,0,3.31-.24,5.42-.62.1,0,.19-.05.29-.05.72,0,1.06.58,1.06,1.1,0,.34-.14.62-.38.77-1.92,1.25-4.94,1.78-7.78,1.78ZM346.86,246.64c-.29.29-.43.67-.43.91,0,.29.14.48.43.48.14,0,.34-.05.58-.14,2.59-1.06,7.49-.96,11.33-3.84.43-.29.58-.67.58-1.06,0-.72-.67-1.44-1.44-1.44-3.7.19-8.45,2.3-11.04,5.09Z"/><path class="cls-1" d="M378.87,245.44c-.53.48-.86.91-.86,1.34,0,.48.29.96,1.01,1.54,2.45,2.06,4.32,2.4,6.77,4.46.48.38.67.86.67,1.25,0,.82-.86,1.49-1.97,1.49-.43,0-.86-.1-1.3-.29-2.59-1.15-4.18-2.45-6.62-4.32-.58-.43-.91-.67-1.25-.67s-.62.29-1.2.82c-2.45,2.4-2.88,5.09-5.33,7.78-.29.34-.67.53-.96.53-.53,0-.96-.48-.96-1.34,0-1.06.67-3.12,1.49-4.51.86-1.49,2.02-2.83,3.31-4.61.38-.53.62-.86.62-1.2,0-.38-.34-.72-1.06-1.25-.77-.58-1.44-1.01-2.06-1.44-.53-.38-1.06-.77-1.44-1.3-.38-.43-.91-1.44-.91-1.92,0-.96.96-1.97,2.16-1.97.34,0,.72.1,1.1.29,1.63.86,2.16,2.16,3.6,3.31.48.38.91.58,1.34.58.53,0,1.01-.34,1.54-.72,2.35-1.78,4.61-3.55,7.06-3.55.86,0,1.73.19,2.59.67.77.38,1.1.77,1.1,1.1,0,.58-.96,1.01-2.54,1.2-1.82.24-4.03,1.06-5.9,2.74Z"/><path class="cls-1" d="M392.6,259.12c-1.58.05-2.88-2.02-2.88-3.5,0-.43.1-.82.34-1.1.82-.96,1.87-1.39,2.93-1.39.72,0,1.39.19,2.06.53.86.48,1.2,1.15,1.2,1.87,0,1.68-1.82,3.55-3.6,3.6h-.05Z"/><path class="cls-1" d="M418.57,257.83c-.48-3.02-1.06-4.56-2.3-6.91-1.01-1.92-.62-3.02-1.58-5.33-.19-.43-.62-.77-1.1-.77-.34,0-.67.14-.91.62-.77,1.49-1.97,3.41-3.74,5.33-1.73,1.87-1.58,3.74-3.46,5.62-.43.43-1.15.67-1.78.67-.72,0-1.34-.29-1.39-.96-.29-5.86-1.78-15.84-1.78-23.67,0-1.44.05-2.83.19-4.13.05-.72.62-1.01,1.34-1.01,1.2,0,2.74.91,2.74,2.02,0,.14,0,.29-.05.43-.38,1.1-.53,4.61-.53,8.45,0,3.55.14,7.34.38,9.84.1,1.1.58,1.92,1.06,1.92.14,0,.24-.05.38-.19,2.59-2.93,3.79-5.95,6.77-9.36.62-.72,1.25-1.1,1.82-1.1.62,0,1.15.48,1.63,1.39,1.34,2.69,2.69,9.26,5.62,14.69.19.38.29.72.29,1.01,0,1.34-1.49,2.11-2.54,2.11-.53,0-.96-.19-1.06-.67Z"/><path class="cls-1" d="M435.99,246.98c-1.15,0-2.26-.1-3.07-.1h-.05c-.72,0-1.44.48-1.39,1.2v.1c.24,6.77,1.87,6.77,2.16,8.78v.19c0,.91-.96,1.73-2.02,1.73-.58,0-1.2-.24-1.73-.91-1.82-2.35-.86-7.82-1.73-9.79-.34-.77-.29-1.54-1.01-1.87-.91-.43-1.58-.62-2.74-1.44-.38-.29-.58-.77-.58-1.3,0-.86.43-1.73,1.15-1.87.34-.05.62-.05.91-.05.34,0,.67.05,1.1.05.62,0,1.39-.43,1.3-1.01-.67-4.08-1.44-5.42-1.44-8.93,0-.91.67-1.3,1.49-1.3,1.39,0,3.31,1.1,3.31,2.59,0,.14,0,.29-.05.43-.38,1.49-.53,2.64-.53,3.84,0,1.34.19,2.69.38,4.37.1.82.67,1.25,1.44,1.3,1.54.05,2.74.1,3.74.1,4.13,0,4.18-.48,5.18-1.1.29-.19.53-.24.77-.24.62,0,1.01.67,1.01,1.39,0,.58-.19,1.15-.62,1.58-1.87,1.92-4.61,2.26-7.01,2.26Z"/><path class="cls-1" d="M472.62,257.83c-3.41-2.21-3.07-5.71-4.18-9.65-.19-.72-.62-1.01-1.1-1.01s-1.01.34-1.34.72c-1.01,1.25-2.35,2.11-3.46,3.89-.38.58-.96.91-1.58.91-.67,0-1.44-.38-2.02-1.2-.67-.96-1.15-1.49-1.58-2.59-.24-.67-.43-.96-.67-.96-.19,0-.48.29-.91.82-2.4,2.78-2.83,5.28-5.76,7.49-.48.34-1.25.58-1.92.58-.77,0-1.44-.29-1.54-1.01-.34-3.31-.86-5.18-1.58-8.35-.29-1.25-.43-2.3-.43-3.31,0-1.34.24-2.64.86-4.18.19-.43.53-.62,1.01-.62,1.15,0,2.78,1.2,2.74,2.5v.14c-.05,1.49-.29,2.69-.29,3.89,0,.91.1,1.87.43,3.02.29,1.1.67,1.54,1.01,1.54.14,0,.29-.1.43-.24,2.5-3.07,4.32-5.81,5.04-8.78.14-.62.96-.91,1.73-.91.72,0,1.49.24,1.58.77.48,2.06.96,3.26,1.44,5.33.19.72.48,1.01.82,1.01.58,0,1.3-.62,1.78-1.01,2.26-1.68,2.35-3.98,3.89-6.34.24-.38.67-.53,1.15-.53,1.01,0,2.26.72,2.45,1.68.96,4.75,1.87,9.36,4.61,14.69.1.19.14.38.14.58,0,.82-.96,1.39-1.87,1.39-.29,0-.62-.1-.86-.24Z"/><path class="cls-1" d="M480.2,256.63c-.82,0-1.82-.48-2.02-1.39-.38-1.73-.53-3.31-.53-4.8,0-2.59.38-4.94.38-7.58,0-1.39-.1-2.83-.43-4.46-.58-2.78-1.3-6.1-2.59-9.79-.05-.19-.1-.34-.1-.48,0-1.2,1.58-1.87,2.93-1.87,1.06,0,2.02.38,2.06,1.34.1,2.21,1.39,7.58,1.73,12.53.14,1.78.19,3.31.19,4.75,0,3.6-.29,6.58-.48,10.94,0,.58-.53.82-1.15.82Z"/><path class="cls-1" d="M503.24,245.68c-.24,2.06-.53,4.22-.53,6.29,0,3.5.91,6.53,4.66,7.63.53.14.86.82.86,1.44s-.38,1.3-1.25,1.25c-4.99-.29-7.2-6.29-7.2-11.71,0-.96.05-1.87.19-2.78,1.15-8.54,4.51-15.22,10.56-18.63.24-.14.53-.19.82-.19.48,0,.96.19.96.62,0,.34-.29.82-1.01,1.39-3.6,2.98-7.3,8.06-8.06,14.69Z"/><path class="cls-1" d="M529.3,260.37c-.38-4.51-1.06-7.54-1.06-11.38v-1.25c0-.53-.24-1.2-.58-1.54-.19-.19-.38-.24-.67-.14-2.93.96-6.1,1.44-8.35,1.82-.67.1-1.15.62-1.15,1.3,0,.29.05.67.1.91.34,2.3.86,4.37.86,6.53v.58c-.05.48-.48.67-1.06.67-.86,0-1.92-.48-2.02-1.15-1.2-9.65-1.2-15.36-2.69-24.58-.05-.38-.19-.96-.19-1.39,0-1.01,1.01-1.58,2.02-1.58.72,0,1.39.34,1.54,1.06.67,3.74,1.15,6.24,1.15,9.5,0,.86-.05,1.78-.1,2.78v.1c-.05.62.58,1.15,1.2,1.15h.05c3.02-.1,4.75-.53,7.78-.96.96-.14,1.68-.05,1.73-1.15v-.86c0-3.74-1.06-6.24-1.06-10.03v-.82c.05-1.15,1.06-1.73,2.02-1.73s1.92.58,1.92,1.68v1.49c0,3.98.34,6.58.96,10.94.96,6.91.58,10.9.96,17.67.05,1.01-1.54,1.1-1.82,1.1-.77,0-1.49-.24-1.54-.72Z"/><path class="cls-1" d="M544.52,257.92c-2.21,0-4.32-1.01-5.95-2.83-1.3-1.44-2.02-3.26-2.02-4.85,0-3.7,1.92-5.95,4.9-7.82,1.78-1.1,2.78-1.58,4.18-3.02.82-.86,1.68-1.2,2.45-1.2,1.06,0,1.97.67,2.3,1.63.91,2.59,2.64,4.99,2.64,7.92,0,1.39-.38,2.74-.82,3.79-1.39,3.55-4.08,6.38-7.68,6.38ZM548.84,244.53c-.43,0-.86.96-1.73.96-.38,0-.72-.14-1.1-.43-.38-.29-.67-.62-1.2-.62-.38,0-.96.24-1.92.86-1.54,1.06-2.45,2.21-2.45,4.22,0,1.78.34,2.98,1.39,3.84.82.72,2.21,1.06,3.22,1.06,1.97,0,3.36-1.1,4.46-2.93.58-.91.77-1.92.77-2.93,0-1.39-.43-2.74-1.06-3.7-.14-.24-.29-.34-.38-.34Z"/><path class="cls-1" d="M583.88,257.83c-3.41-2.21-3.07-5.71-4.18-9.65-.19-.72-.62-1.01-1.1-1.01s-1.01.34-1.34.72c-1.01,1.25-2.35,2.11-3.46,3.89-.38.58-.96.91-1.58.91-.67,0-1.44-.38-2.02-1.2-.67-.96-1.15-1.49-1.58-2.59-.24-.67-.43-.96-.67-.96-.19,0-.48.29-.91.82-2.4,2.78-2.83,5.28-5.76,7.49-.48.34-1.25.58-1.92.58-.77,0-1.44-.29-1.54-1.01-.34-3.31-.86-5.18-1.58-8.35-.29-1.25-.43-2.3-.43-3.31,0-1.34.24-2.64.86-4.18.19-.43.53-.62,1.01-.62,1.15,0,2.78,1.2,2.74,2.5v.14c-.05,1.49-.29,2.69-.29,3.89,0,.91.1,1.87.43,3.02.29,1.1.67,1.54,1.01,1.54.14,0,.29-.1.43-.24,2.5-3.07,4.32-5.81,5.04-8.78.14-.62.96-.91,1.73-.91.72,0,1.49.24,1.58.77.48,2.06.96,3.26,1.44,5.33.19.72.48,1.01.82,1.01.58,0,1.3-.62,1.78-1.01,2.26-1.68,2.35-3.98,3.89-6.34.24-.38.67-.53,1.15-.53,1.01,0,2.26.72,2.45,1.68.96,4.75,1.87,9.36,4.61,14.69.1.19.14.38.14.58,0,.82-.96,1.39-1.87,1.39-.29,0-.62-.1-.86-.24Z"/><path class="cls-1" d="M601.49,259.56c-1.92,0-3.79-.24-5.18-.72-4.13-1.34-8.45-3.46-8.45-7.63,0-.38,0-.77.1-1.2.86-4.61,3.41-6.67,7.11-9.02,2.45-1.54,4.9-2.59,7.34-2.59,1.34,0,2.69.34,4.08,1.06,1.39.72,2.06,1.97,2.06,3.26,0,1.06-.43,2.16-1.39,3.07-2.88,2.83-5.57,2.45-9.12,4.03-1.44.62-2.59.91-3.5.91-1.01,0-1.73-.34-2.06-.82-.1-.14-.34-.34-.53-.34-.43,0-.48.82-.48,1.2,0,3.12,3.89,4.42,6.86,5.18,1.73.43,3.12.62,4.56.62,1.68,0,3.31-.24,5.42-.62.1,0,.19-.05.29-.05.72,0,1.06.58,1.06,1.1,0,.34-.14.62-.38.77-1.92,1.25-4.94,1.78-7.78,1.78ZM592.47,246.64c-.29.29-.43.67-.43.91,0,.29.14.48.43.48.14,0,.34-.05.58-.14,2.59-1.06,7.49-.96,11.33-3.84.43-.29.58-.67.58-1.06,0-.72-.67-1.44-1.44-1.44-3.7.19-8.45,2.3-11.04,5.09Z"/><path class="cls-1" d="M630.67,254.23c-.14.62-.19,1.25-.19,1.78,0,2.3.82,4.22.82,6.34,0,.86-.14,1.73-.48,2.69-.38,1.01-.86,1.73-1.44,1.73-.48,0-1.06-.53-1.73-1.87-1.39-2.83-1.73-5.38-1.73-7.92s.29-4.8.29-7.34c0-1.97-.19-4.08-.86-6.34-.05-.14-.05-.34-.05-.48,0-1.87,3.17-3.79,5.81-4.13.29-.05.58-.05.86-.05,3.74,0,7.15,3.12,7.2,6.96s-4.08,6.91-6.77,7.2c-.86.1-1.54.43-1.73,1.44ZM636,245.73c-.14-1.87-1.92-2.69-3.74-3.02-.19-.05-.38-.05-.58-.05-1.54,0-1.87,1.39-1.87,2.69v.53c.19,2.74.05,3.65,1.15,3.65.29,0,.67-.1,1.15-.19,1.92-.43,3.89-1.44,3.89-3.36v-.24Z"/><path class="cls-1" d="M666.58,258.6c-2.93-2.5-3.84-4.94-4.8-8.64-.29-1.15-.86-1.58-1.39-1.58s-1.06.34-1.39.72c-2.78,3.02-4.75,4.99-8.45,7.1-1.3.72-2.45,1.06-3.46,1.06-2.93,0-4.7-2.59-4.7-5.14,0-.91.24-1.87.77-2.64,2.93-4.37,6.77-6.43,10.66-8.26,1.06-.48,2.11-.86,3.12-.86.72,0,1.44.19,2.06.77.53.48.96.82,1.39.82.38,0,.77-.24,1.3-.91.29-.34.62-.53,1.01-.53.86,0,1.78.77,2.16,1.58,1.54,3.46-.48,11.66,4.03,12.96.38.1.53.43.53.86,0,1.1-1.1,2.93-2.21,2.93-.19,0-.43-.05-.62-.24ZM654.2,244.96c-3.31,1.78-5.18,3.07-7.58,5.95-.24.29-.34.62-.34,1.01,0,.82.58,1.68,1.92,1.68h.05c2.26-.05,4.13-3.36,7.49-4.42.29-.1.53-.96.53-1.92,0-1.2-.38-2.54-1.34-2.54-.19,0-.43.1-.72.24Z"/><path class="cls-1" d="M677.76,271.22c-1.78,0-3.6-.77-5.23-2.16-1.63-1.39-3.12-4.61-3.12-6.62,0-1.01.38-1.73,1.39-1.73h.29c2.21.29-.58,5.86,3.89,6.91.58.14,1.15.19,1.68.19,5.71,0,8.74-7.25,8.74-11.9,0-.29-.05-.58-.05-.82-.19-2.3.05-2.11-.43-5.9-.05-.43-.24-1.1-.72-1.1-.19,0-.43.14-.72.38-1.01.86-3.65,5.76-6.91,5.76-.29,0-.58-.05-.86-.14-2.45-.67-4.27-2.54-4.27-4.94,0-1.97,1.2-4.37,4.08-6.82,2.02-1.73,5.14-3.41,7.73-3.41,1.44,0,2.74.53,3.55,1.92.96,1.63,1.2,2.78,1.2,3.94,0,1.01-.24,2.02-.24,3.31,0,.24.05.53.05.82.14,1.97.29,3.89.29,5.76,0,4.51-.77,8.79-4.03,12.96-1.92,2.45-4.13,3.6-6.29,3.6ZM681.79,242.8c-.96,0-2.74,1.15-4.51,2.06-1.49.72-2.45,2.59-2.45,4.03,0,.58.14,1.06.43,1.44.34.43.82.62,1.3.62,1.2,0,2.59-1.06,3.31-2.21,1.44-2.26,2.74-3.98,2.74-5.04,0-.29-.1-.53-.29-.72-.14-.1-.29-.19-.53-.19Z"/><path class="cls-1" d="M706.03,259.56c-1.92,0-3.79-.24-5.18-.72-4.13-1.34-8.45-3.46-8.45-7.63,0-.38,0-.77.1-1.2.86-4.61,3.41-6.67,7.11-9.02,2.45-1.54,4.9-2.59,7.34-2.59,1.34,0,2.69.34,4.08,1.06,1.39.72,2.06,1.97,2.06,3.26,0,1.06-.43,2.16-1.39,3.07-2.88,2.83-5.57,2.45-9.12,4.03-1.44.62-2.59.91-3.5.91-1.01,0-1.73-.34-2.06-.82-.1-.14-.34-.34-.53-.34-.43,0-.48.82-.48,1.2,0,3.12,3.89,4.42,6.86,5.18,1.73.43,3.12.62,4.56.62,1.68,0,3.31-.24,5.42-.62.1,0,.19-.05.29-.05.72,0,1.06.58,1.06,1.1,0,.34-.14.62-.38.77-1.92,1.25-4.94,1.78-7.78,1.78ZM697.01,246.64c-.29.29-.43.67-.43.91,0,.29.14.48.43.48.14,0,.34-.05.58-.14,2.59-1.06,7.49-.96,11.33-3.84.43-.29.58-.67.58-1.06,0-.72-.67-1.44-1.44-1.44-3.7.19-8.45,2.3-11.04,5.09Z"/><path class="cls-1" d="M733.49,256.63c-.82,0-1.82-.48-2.02-1.39-.38-1.73-.53-3.31-.53-4.8,0-2.59.38-4.94.38-7.58,0-1.39-.1-2.83-.43-4.46-.58-2.78-1.3-6.1-2.59-9.79-.05-.19-.1-.34-.1-.48,0-1.2,1.58-1.87,2.93-1.87,1.06,0,2.02.38,2.06,1.34.1,2.21,1.39,7.58,1.73,12.53.14,1.78.19,3.31.19,4.75,0,3.6-.29,6.58-.48,10.94,0,.58-.53.82-1.15.82Z"/><path class="cls-1" d="M742.8,234.21c-2.21,0-3.65-1.34-4.61-2.88-.14-.24-.19-.43-.19-.67,0-.62.53-1.25,1.73-1.25.14,0,.29.05.48.05,1.97.24,3.26.77,4.75,1.87.43.29.58.67.58,1.06,0,.77-.77,1.54-1.58,1.68-.43.1-.82.14-1.15.14ZM743.23,256.68c-1.58-1.73-2.5-3.55-2.59-5.47-.1-2.06-.1-3.65-.1-5.28v-1.73c0-1.06-.05-2.21-.05-3.5v-.05c0-.82.53-1.15,1.15-1.15,1.15,0,2.78,1.06,2.74,2.4v.1c-.05,2.35-.62,4.22-.62,6.1,0,1.15.19,2.26.77,3.55.72,1.58,1.49,2.3,2.59,3.6.19.24.29.48.29.67,0,.77-1.34,1.25-2.59,1.25-.67,0-1.3-.14-1.58-.48Z"/><path class="cls-1" d="M761.23,243.67c-.34,0-.58-.1-.58-.43v-.1c0-.14.05-.29.05-.43,0-.86-.53-1.3-1.1-1.3-.14,0-.34.05-.53.14-1.1.53-1.97,1.2-3.46,1.73-.29.1-.43.43-.43.77,0,.29.1.62.29.82,2.88,2.78,4.51,4.18,6.91,7.2.58.77.86,1.54.86,2.35,0,.96-.38,1.82-1.15,2.54-1.39,1.3-5.81,3.17-8.69,3.17-.72,0-1.39-.14-1.82-.43-1.01-.62-1.39-1.39-1.39-2.02,0-.82.67-1.49,1.63-1.49.29,0,.58.05.91.19.53.24,1.1.34,1.63.34,1.2,0,2.45-.48,3.7-1.2.58-.34.82-.72.82-1.15,0-.62-.43-1.3-.96-2.02-3.36-4.61-6.62-4.66-7.49-7.2-.19-.53-.29-1.06-.29-1.58,0-1.2.58-2.21,1.73-2.74,2.4-1.06,6.24-3.36,8.35-3.36.24,0,.43,0,.58.05,2.4.67,3.17,1.78,3.17,3.26,0,.38-.05.77-.14,1.2-.19.82-1.73,1.68-2.59,1.68Z"/><path class="cls-1" d="M777.89,246.98c-1.15,0-2.26-.1-3.07-.1h-.05c-.72,0-1.44.48-1.39,1.2v.1c.24,6.77,1.87,6.77,2.16,8.78v.19c0,.91-.96,1.73-2.02,1.73-.58,0-1.2-.24-1.73-.91-1.82-2.35-.86-7.82-1.73-9.79-.34-.77-.29-1.54-1.01-1.87-.91-.43-1.58-.62-2.74-1.44-.38-.29-.58-.77-.58-1.3,0-.86.43-1.73,1.15-1.87.34-.05.62-.05.91-.05.34,0,.67.05,1.1.05.62,0,1.39-.43,1.3-1.01-.67-4.08-1.44-5.42-1.44-8.93,0-.91.67-1.3,1.49-1.3,1.39,0,3.31,1.1,3.31,2.59,0,.14,0,.29-.05.43-.38,1.49-.53,2.64-.53,3.84,0,1.34.19,2.69.38,4.37.1.82.67,1.25,1.44,1.3,1.54.05,2.74.1,3.74.1,4.13,0,4.18-.48,5.18-1.1.29-.19.53-.24.77-.24.62,0,1.01.67,1.01,1.39,0,.58-.19,1.15-.62,1.58-1.87,1.92-4.61,2.26-7.01,2.26Z"/><path class="cls-1" d="M789.5,234.21c-2.21,0-3.65-1.34-4.61-2.88-.14-.24-.19-.43-.19-.67,0-.62.53-1.25,1.73-1.25.14,0,.29.05.48.05,1.97.24,3.26.77,4.75,1.87.43.29.58.67.58,1.06,0,.77-.77,1.54-1.58,1.68-.43.1-.82.14-1.15.14ZM789.94,256.68c-1.58-1.73-2.5-3.55-2.59-5.47-.1-2.06-.1-3.65-.1-5.28v-1.73c0-1.06-.05-2.21-.05-3.5v-.05c0-.82.53-1.15,1.15-1.15,1.15,0,2.78,1.06,2.74,2.4v.1c-.05,2.35-.62,4.22-.62,6.1,0,1.15.19,2.26.77,3.55.72,1.58,1.49,2.3,2.59,3.6.19.24.29.48.29.67,0,.77-1.34,1.25-2.59,1.25-.67,0-1.3-.14-1.58-.48Z"/><path class="cls-1" d="M812.45,259.41c-4.03-1.82-2.16-8.3-3.6-10.8-.58-1.06-1.06-1.49-1.44-1.49-.29,0-.58.24-.86.62-1.78,2.26-1.58,5.04-3.74,6.48-.62.43-1.2.58-1.63.58-1.73,0-2.4-2.3-2.4-3.26v-.82c0-3.46-.91-6.62-2.3-8.59-.1-.14-.14-.34-.14-.58,0-1.1,1.39-2.83,2.93-2.83.29,0,.62.05.96.24,1.44.77.96,4.56,1.73,7.63.19.86.58,1.25,1.01,1.25.34,0,.77-.29,1.15-.67,1.63-1.63,1.73-2.59,2.74-5.18.19-.43.53-.62,1.01-.62.91,0,2.21.77,2.74,1.63,2.11,3.41,1.87,12.67,3.89,13.54.86.38,1.25.96,1.25,1.49,0,.86-.86,1.68-2.02,1.68-.38,0-.82-.1-1.25-.29Z"/><path class="cls-1" d="M824.83,271.22c-1.78,0-3.6-.77-5.23-2.16-1.63-1.39-3.12-4.61-3.12-6.62,0-1.01.38-1.73,1.39-1.73h.29c2.21.29-.58,5.86,3.89,6.91.58.14,1.15.19,1.68.19,5.71,0,8.74-7.25,8.74-11.9,0-.29-.05-.58-.05-.82-.19-2.3.05-2.11-.43-5.9-.05-.43-.24-1.1-.72-1.1-.19,0-.43.14-.72.38-1.01.86-3.65,5.76-6.91,5.76-.29,0-.58-.05-.86-.14-2.45-.67-4.27-2.54-4.27-4.94,0-1.97,1.2-4.37,4.08-6.82,2.02-1.73,5.14-3.41,7.73-3.41,1.44,0,2.74.53,3.55,1.92.96,1.63,1.2,2.78,1.2,3.94,0,1.01-.24,2.02-.24,3.31,0,.24.05.53.05.82.14,1.97.29,3.89.29,5.76,0,4.51-.77,8.79-4.03,12.96-1.92,2.45-4.13,3.6-6.29,3.6ZM828.86,242.8c-.96,0-2.74,1.15-4.51,2.06-1.49.72-2.45,2.59-2.45,4.03,0,.58.14,1.06.43,1.44.34.43.82.62,1.3.62,1.2,0,2.59-1.06,3.31-2.21,1.44-2.26,2.74-3.98,2.74-5.04,0-.29-.1-.53-.29-.72-.14-.1-.29-.19-.53-.19Z"/><path class="cls-1" d="M875.81,258.6c-2.93-2.5-3.84-4.94-4.8-8.64-.29-1.15-.86-1.58-1.39-1.58s-1.06.34-1.39.72c-2.78,3.02-4.75,4.99-8.45,7.1-1.3.72-2.45,1.06-3.46,1.06-2.93,0-4.7-2.59-4.7-5.14,0-.91.24-1.87.77-2.64,2.93-4.37,6.77-6.43,10.66-8.26,1.06-.48,2.11-.86,3.12-.86.72,0,1.44.19,2.06.77.53.48.96.82,1.39.82.38,0,.77-.24,1.3-.91.29-.34.62-.53,1.01-.53.86,0,1.78.77,2.16,1.58,1.54,3.46-.48,11.66,4.03,12.96.38.1.53.43.53.86,0,1.1-1.1,2.93-2.21,2.93-.19,0-.43-.05-.62-.24ZM863.42,244.96c-3.31,1.78-5.18,3.07-7.58,5.95-.24.29-.34.62-.34,1.01,0,.82.58,1.68,1.92,1.68h.05c2.26-.05,4.13-3.36,7.49-4.42.29-.1.53-.96.53-1.92,0-1.2-.38-2.54-1.34-2.54-.19,0-.43.1-.72.24Z"/><path class="cls-1" d="M884.06,256.63c-.82,0-1.82-.48-2.02-1.39-.38-1.73-.53-3.31-.53-4.8,0-2.59.38-4.94.38-7.58,0-1.39-.1-2.83-.43-4.46-.58-2.78-1.3-6.1-2.59-9.79-.05-.19-.1-.34-.1-.48,0-1.2,1.58-1.87,2.93-1.87,1.06,0,2.02.38,2.06,1.34.1,2.21,1.39,7.58,1.73,12.53.14,1.78.19,3.31.19,4.75,0,3.6-.29,6.58-.48,10.94,0,.58-.53.82-1.15.82Z"/><path class="cls-1" d="M894.19,256.63c-.82,0-1.82-.48-2.02-1.39-.38-1.73-.53-3.31-.53-4.8,0-2.59.38-4.94.38-7.58,0-1.39-.1-2.83-.43-4.46-.58-2.78-1.3-6.1-2.59-9.79-.05-.19-.1-.34-.1-.48,0-1.2,1.58-1.87,2.93-1.87,1.06,0,2.02.38,2.06,1.34.1,2.21,1.39,7.58,1.73,12.53.14,1.78.19,3.31.19,4.75,0,3.6-.29,6.58-.48,10.94,0,.58-.53.82-1.15.82Z"/><path class="cls-1" d="M918.48,254.23c-.14.62-.19,1.25-.19,1.78,0,2.3.82,4.22.82,6.34,0,.86-.14,1.73-.48,2.69-.38,1.01-.86,1.73-1.44,1.73-.48,0-1.06-.53-1.73-1.87-1.39-2.83-1.73-5.38-1.73-7.92s.29-4.8.29-7.34c0-1.97-.19-4.08-.86-6.34-.05-.14-.05-.34-.05-.48,0-1.87,3.17-3.79,5.81-4.13.29-.05.58-.05.86-.05,3.74,0,7.15,3.12,7.2,6.96s-4.08,6.91-6.77,7.2c-.86.1-1.54.43-1.73,1.44ZM923.81,245.73c-.14-1.87-1.92-2.69-3.74-3.02-.19-.05-.38-.05-.58-.05-1.54,0-1.87,1.39-1.87,2.69v.53c.19,2.74.05,3.65,1.15,3.65.29,0,.67-.1,1.15-.19,1.92-.43,3.89-1.44,3.89-3.36v-.24Z"/><path class="cls-1" d="M942.81,245.15c-.48-.19-.96-.34-1.39-.34-.53,0-1.01.19-1.49.91-2.11,3.17-1.3,5.86-2.74,9.36-.34.77-1.06,1.15-1.78,1.15s-1.44-.43-1.68-1.3c-.58-2.3-1.01-3.5-1.73-5.76-.82-2.5-2.69-4.37-2.69-6.34,0-.24.05-.48.1-.72.19-.67.91-1.06,1.63-1.06.38,0,.82.1,1.1.34,2.54,1.92,2.02,2.54,2.59,5.33.1.38.43.72.86.72.29,0,.62-.19.86-.72,1.06-2.3.19-4.94,3.31-5.62.48-.1.96-.14,1.39-.14,1.2,0,2.26.34,3.07,1.15.29.29.43.77.43,1.3,0,.91-.43,1.82-1.34,1.82-.14,0-.34,0-.53-.1Z"/><path class="cls-1" d="M955.15,257.92c-2.21,0-4.32-1.01-5.95-2.83-1.3-1.44-2.02-3.26-2.02-4.85,0-3.7,1.92-5.95,4.9-7.82,1.78-1.1,2.78-1.58,4.18-3.02.82-.86,1.68-1.2,2.45-1.2,1.06,0,1.97.67,2.3,1.63.91,2.59,2.64,4.99,2.64,7.92,0,1.39-.38,2.74-.82,3.79-1.39,3.55-4.08,6.38-7.68,6.38ZM959.47,244.53c-.43,0-.86.96-1.73.96-.38,0-.72-.14-1.1-.43-.38-.29-.67-.62-1.2-.62-.38,0-.96.24-1.92.86-1.54,1.06-2.45,2.21-2.45,4.22,0,1.78.34,2.98,1.39,3.84.82.72,2.21,1.06,3.22,1.06,1.97,0,3.36-1.1,4.46-2.93.58-.91.77-1.92.77-2.93,0-1.39-.43-2.74-1.06-3.7-.14-.24-.29-.34-.38-.34Z"/><path class="cls-1" d="M990.38,256.44c-.82,0-1.54-.29-2.11-.86-1.82-1.82-1.92-3.55-3.07-5.86-.19-.38-.82-.82-1.44-.82-.38,0-.77.19-1.06.62-2.21,3.46-3.89,5.62-7.58,7.3-1.63.77-3.02,1.06-4.22,1.06-3.02,0-4.61-1.92-4.61-3.89,0-.77.24-1.54.77-2.16,3.98-5.04,9.6-7.78,14.11-10.37.58-.34,1.25-.72,1.25-1.39v-.05c-.1-2.78-.48-5.38-1.06-8.35v-.19c0-.62.53-1.15,1.25-1.15.34,0,.77.14,1.15.48,1.63,1.39,3.12,3.7,3.17,6.53.1,4.22.34,14.59,5.28,16.8.58.29.82.58.82.86,0,.48-.58.91-1.2,1.15-.48.19-1.01.29-1.44.29ZM980.78,244.91c-3.02,1.73-7.58,4.18-10.46,7.49-.24.29-.34.62-.34.96,0,.77.48,1.49,1.63,1.49.38,0,.91-.1,1.49-.34,4.37-1.73,6.48-5.38,8.83-8.16.29-.34.38-.62.38-.86,0-.48-.43-.72-.91-.72-.19,0-.43.05-.62.14Z"/><path class="cls-1" d="M1015.25,259.12c-1.58-1.25-2.11-4.22-3.31-6.91-.43-1.01-.82-1.63-1.2-1.63-.29,0-.58.34-.96,1.06-1.68,3.26-3.31,5.52-6.29,5.52-1.2,0-2.4-.34-3.41-1.15-2.11-1.73-2.83-5.18-2.83-9.02,0-2.78.38-5.76.86-8.3.1-.53.72-.77,1.44-.77,1.06,0,2.21.53,2.21,1.58,0,.1,0,.19-.05.34-.34,1.49-.72,3.55-.72,5.76,0,1.97.29,4.13,1.15,6.19.43,1.1,1.06,1.49,1.63,1.49.82,0,1.58-.67,2.11-1.34,1.68-2.16,3.07-4.51,3.07-7.58,0-.34-.05-.72-.05-1.15-.05-.77,1.15-1.44,2.21-1.44.86,0,1.68.38,1.97,1.39,1.39,4.94,2.83,10.95,4.75,12.39.62.48.86,1.01.86,1.49,0,1.25-1.54,2.35-2.69,2.35-.29,0-.58-.1-.77-.24Z"/><path class="cls-1" d="M1042.17,243.76c-.62,0-1.3-.43-1.54-1.3-.14-.58-.86-.77-1.87-.77-1.97,0-5.18.91-7.44,1.92-3.36,1.49-6.34,2.5-7.1,6.05-.05.14-.05.29-.05.43,0,2.4,3.89,4.99,7.15,5.71.82.19,1.54.24,2.11.24,2.11,0,3.07-.91,5.38-1.2h.24c.77,0,1.34.43,1.34.96,0,.48-.38.96-1.3,1.34-1.82.77-4.08,1.82-6.62,1.82-.67,0-1.39-.1-2.11-.29-5.42-1.39-9.5-4.08-9.5-8.98v-.53c.29-5.04,5.42-6.77,9.84-8.45,3.55-1.34,3.98-1.2,9.55-2.02.19-.05.43-.05.62-.05,1.44,0,2.83.77,2.83,2.64,0,.34-.05.77-.19,1.25-.24.82-.77,1.2-1.34,1.2Z"/><path class="cls-1" d="M1056.38,246.98c-1.15,0-2.26-.1-3.07-.1h-.05c-.72,0-1.44.48-1.39,1.2v.1c.24,6.77,1.87,6.77,2.16,8.78v.19c0,.91-.96,1.73-2.02,1.73-.58,0-1.2-.24-1.73-.91-1.82-2.35-.86-7.82-1.73-9.79-.34-.77-.29-1.54-1.01-1.87-.91-.43-1.58-.62-2.74-1.44-.38-.29-.58-.77-.58-1.3,0-.86.43-1.73,1.15-1.87.34-.05.62-.05.91-.05.34,0,.67.05,1.1.05.62,0,1.39-.43,1.3-1.01-.67-4.08-1.44-5.42-1.44-8.93,0-.91.67-1.3,1.49-1.3,1.39,0,3.31,1.1,3.31,2.59,0,.14,0,.29-.05.43-.38,1.49-.53,2.64-.53,3.84,0,1.34.19,2.69.38,4.37.1.82.67,1.25,1.44,1.3,1.54.05,2.74.1,3.74.1,4.13,0,4.18-.48,5.18-1.1.29-.19.53-.24.77-.24.62,0,1.01.67,1.01,1.39,0,.58-.19,1.15-.62,1.58-1.87,1.92-4.61,2.26-7.01,2.26Z"/><path class="cls-1" d="M1076.11,243.67c-.34,0-.58-.1-.58-.43v-.1c0-.14.05-.29.05-.43,0-.86-.53-1.3-1.1-1.3-.14,0-.34.05-.53.14-1.1.53-1.97,1.2-3.46,1.73-.29.1-.43.43-.43.77,0,.29.1.62.29.82,2.88,2.78,4.51,4.18,6.91,7.2.58.77.86,1.54.86,2.35,0,.96-.38,1.82-1.15,2.54-1.39,1.3-5.81,3.17-8.69,3.17-.72,0-1.39-.14-1.82-.43-1.01-.62-1.39-1.39-1.39-2.02,0-.82.67-1.49,1.63-1.49.29,0,.58.05.91.19.53.24,1.1.34,1.63.34,1.2,0,2.45-.48,3.7-1.2.58-.34.82-.72.82-1.15,0-.62-.43-1.3-.96-2.02-3.36-4.61-6.62-4.66-7.49-7.2-.19-.53-.29-1.06-.29-1.58,0-1.2.58-2.21,1.73-2.74,2.4-1.06,6.24-3.36,8.35-3.36.24,0,.43,0,.58.05,2.4.67,3.17,1.78,3.17,3.26,0,.38-.05.77-.14,1.2-.19.82-1.73,1.68-2.59,1.68Z"/><path class="cls-1" d="M1078.22,265.6c-.34,0-.62-.19-.62-.53,0-.19.14-.48.38-.77,5.38-6.19,9.07-11.57,9.07-18.96,0-1.1-.05-2.26-.24-3.5-.86-5.9-2.69-9.31-6.82-13.63-.19-.19-.29-.43-.29-.62,0-.53.58-1.01,1.15-1.01.19,0,.38.05.58.19,4.8,3.94,7.06,8.16,7.78,14.5.14,1.2.19,2.4.19,3.5,0,8.3-3.65,14.55-10.37,20.5-.29.24-.58.34-.82.34Z"/><path class="cls-1" d="M290.33,482.9c-.14.62-.19,1.25-.19,1.78,0,2.3.82,4.22.82,6.34,0,.86-.14,1.73-.48,2.69-.38,1.01-.86,1.73-1.44,1.73-.48,0-1.06-.53-1.73-1.87-1.39-2.83-1.73-5.38-1.73-7.92s.29-4.8.29-7.34c0-1.97-.19-4.08-.86-6.34-.05-.14-.05-.34-.05-.48,0-1.87,3.17-3.79,5.81-4.13.29-.05.58-.05.86-.05,3.74,0,7.15,3.12,7.2,6.96.05,3.84-4.08,6.91-6.77,7.2-.86.1-1.54.43-1.73,1.44ZM295.66,474.4c-.14-1.87-1.92-2.69-3.74-3.02-.19-.05-.38-.05-.58-.05-1.54,0-1.87,1.39-1.87,2.69v.53c.19,2.74.05,3.65,1.15,3.65.29,0,.67-.1,1.15-.19,1.92-.43,3.89-1.44,3.89-3.36v-.24Z"/><path class="cls-1" d="M314.67,473.83c-.48-.19-.96-.34-1.39-.34-.53,0-1.01.19-1.49.91-2.11,3.17-1.3,5.86-2.74,9.36-.34.77-1.06,1.15-1.78,1.15s-1.44-.43-1.68-1.3c-.58-2.3-1.01-3.5-1.73-5.76-.82-2.5-2.69-4.37-2.69-6.34,0-.24.05-.48.1-.72.19-.67.91-1.06,1.63-1.06.38,0,.82.1,1.1.34,2.54,1.92,2.02,2.54,2.59,5.33.1.38.43.72.86.72.29,0,.62-.19.86-.72,1.06-2.3.19-4.94,3.31-5.62.48-.1.96-.14,1.39-.14,1.2,0,2.26.34,3.07,1.15.29.29.43.77.43,1.3,0,.91-.43,1.82-1.34,1.82-.14,0-.34,0-.53-.1Z"/><path class="cls-1" d="M327,486.59c-2.21,0-4.32-1.01-5.95-2.83-1.3-1.44-2.02-3.26-2.02-4.85,0-3.7,1.92-5.95,4.9-7.82,1.78-1.1,2.78-1.58,4.18-3.02.82-.86,1.68-1.2,2.45-1.2,1.06,0,1.97.67,2.3,1.63.91,2.59,2.64,4.99,2.64,7.92,0,1.39-.38,2.74-.82,3.79-1.39,3.55-4.08,6.38-7.68,6.38ZM331.32,473.2c-.43,0-.86.96-1.73.96-.38,0-.72-.14-1.1-.43-.38-.29-.67-.62-1.2-.62-.38,0-.96.24-1.92.86-1.54,1.06-2.45,2.21-2.45,4.22,0,1.78.34,2.98,1.39,3.84.82.72,2.21,1.06,3.22,1.06,1.97,0,3.36-1.1,4.46-2.93.58-.91.77-1.92.77-2.93,0-1.39-.43-2.74-1.06-3.7-.14-.24-.29-.34-.38-.34Z"/><path class="cls-1" d="M362.24,485.11c-.82,0-1.54-.29-2.11-.86-1.82-1.82-1.92-3.55-3.07-5.86-.19-.38-.82-.82-1.44-.82-.38,0-.77.19-1.06.62-2.21,3.46-3.89,5.62-7.58,7.3-1.63.77-3.02,1.06-4.22,1.06-3.02,0-4.61-1.92-4.61-3.89,0-.77.24-1.54.77-2.16,3.98-5.04,9.6-7.78,14.11-10.37.58-.34,1.25-.72,1.25-1.39v-.05c-.1-2.78-.48-5.38-1.06-8.35v-.19c0-.62.53-1.15,1.25-1.15.34,0,.77.14,1.15.48,1.63,1.39,3.12,3.7,3.17,6.53.1,4.22.34,14.59,5.28,16.8.58.29.82.58.82.86,0,.48-.58.91-1.2,1.15-.48.19-1.01.29-1.44.29ZM352.64,473.59c-3.02,1.73-7.58,4.18-10.46,7.49-.24.29-.34.62-.34.96,0,.77.48,1.49,1.63,1.49.38,0,.91-.1,1.49-.34,4.37-1.73,6.48-5.38,8.83-8.16.29-.34.38-.62.38-.86,0-.48-.43-.72-.91-.72-.19,0-.43.05-.62.14Z"/><path class="cls-1" d="M387.1,487.79c-1.58-1.25-2.11-4.22-3.31-6.91-.43-1.01-.82-1.63-1.2-1.63-.29,0-.58.34-.96,1.06-1.68,3.26-3.31,5.52-6.29,5.52-1.2,0-2.4-.34-3.41-1.15-2.11-1.73-2.83-5.18-2.83-9.03,0-2.78.38-5.76.86-8.3.1-.53.72-.77,1.44-.77,1.06,0,2.21.53,2.21,1.58,0,.1,0,.19-.05.34-.34,1.49-.72,3.55-.72,5.76,0,1.97.29,4.13,1.15,6.19.43,1.1,1.06,1.49,1.63,1.49.82,0,1.58-.67,2.11-1.34,1.68-2.16,3.07-4.51,3.07-7.58,0-.34-.05-.72-.05-1.15-.05-.77,1.15-1.44,2.21-1.44.86,0,1.68.38,1.97,1.39,1.39,4.94,2.83,10.95,4.75,12.38.62.48.86,1.01.86,1.49,0,1.25-1.54,2.35-2.69,2.35-.29,0-.58-.1-.77-.24Z"/><path class="cls-1" d="M414.03,472.43c-.62,0-1.3-.43-1.54-1.3-.14-.58-.86-.77-1.87-.77-1.97,0-5.18.91-7.44,1.92-3.36,1.49-6.34,2.5-7.1,6.05-.05.14-.05.29-.05.43,0,2.4,3.89,4.99,7.15,5.71.82.19,1.54.24,2.11.24,2.11,0,3.07-.91,5.38-1.2h.24c.77,0,1.34.43,1.34.96,0,.48-.38.96-1.3,1.34-1.82.77-4.08,1.82-6.62,1.82-.67,0-1.39-.1-2.11-.29-5.42-1.39-9.5-4.08-9.5-8.98v-.53c.29-5.04,5.42-6.77,9.84-8.45,3.55-1.34,3.98-1.2,9.55-2.02.19-.05.43-.05.62-.05,1.44,0,2.83.77,2.83,2.64,0,.34-.05.77-.19,1.25-.24.82-.77,1.2-1.34,1.2Z"/><path class="cls-1" d="M428.23,475.65c-1.15,0-2.26-.1-3.07-.1h-.05c-.72,0-1.44.48-1.39,1.2v.1c.24,6.77,1.87,6.77,2.16,8.79v.19c0,.91-.96,1.73-2.02,1.73-.58,0-1.2-.24-1.73-.91-1.82-2.35-.86-7.82-1.73-9.79-.34-.77-.29-1.54-1.01-1.87-.91-.43-1.58-.62-2.74-1.44-.38-.29-.58-.77-.58-1.3,0-.86.43-1.73,1.15-1.87.34-.05.62-.05.91-.05.34,0,.67.05,1.1.05.62,0,1.39-.43,1.3-1.01-.67-4.08-1.44-5.42-1.44-8.93,0-.91.67-1.3,1.49-1.3,1.39,0,3.31,1.1,3.31,2.59,0,.14,0,.29-.05.43-.38,1.49-.53,2.64-.53,3.84,0,1.34.19,2.69.38,4.37.1.82.67,1.25,1.44,1.3,1.54.05,2.74.1,3.74.1,4.13,0,4.18-.48,5.18-1.1.29-.19.53-.24.77-.24.62,0,1.01.67,1.01,1.39,0,.58-.19,1.15-.62,1.58-1.87,1.92-4.61,2.26-7.01,2.26Z"/><path class="cls-1" d="M447.96,472.34c-.34,0-.58-.1-.58-.43v-.1c0-.14.05-.29.05-.43,0-.86-.53-1.3-1.1-1.3-.14,0-.34.05-.53.14-1.1.53-1.97,1.2-3.46,1.73-.29.1-.43.43-.43.77,0,.29.1.62.29.82,2.88,2.78,4.51,4.18,6.91,7.2.58.77.86,1.54.86,2.35,0,.96-.38,1.82-1.15,2.54-1.39,1.3-5.81,3.17-8.69,3.17-.72,0-1.39-.14-1.82-.43-1.01-.62-1.39-1.39-1.39-2.02,0-.82.67-1.49,1.63-1.49.29,0,.58.05.91.19.53.24,1.1.34,1.63.34,1.2,0,2.45-.48,3.7-1.2.58-.34.82-.72.82-1.15,0-.62-.43-1.3-.96-2.02-3.36-4.61-6.62-4.66-7.49-7.2-.19-.53-.29-1.06-.29-1.58,0-1.2.58-2.21,1.73-2.74,2.4-1.06,6.24-3.36,8.35-3.36.24,0,.43,0,.58.05,2.4.67,3.17,1.78,3.17,3.26,0,.38-.05.77-.14,1.2-.19.82-1.73,1.68-2.59,1.68Z"/><path class="cls-1" d="M489.91,487.27c-2.93-2.5-3.84-4.94-4.8-8.64-.29-1.15-.86-1.58-1.39-1.58s-1.06.34-1.39.72c-2.78,3.02-4.75,4.99-8.45,7.1-1.3.72-2.45,1.06-3.46,1.06-2.93,0-4.7-2.59-4.7-5.14,0-.91.24-1.87.77-2.64,2.93-4.37,6.77-6.43,10.66-8.26,1.06-.48,2.11-.86,3.12-.86.72,0,1.44.19,2.06.77.53.48.96.82,1.39.82.38,0,.77-.24,1.3-.91.29-.34.62-.53,1.01-.53.86,0,1.78.77,2.16,1.58,1.54,3.46-.48,11.67,4.03,12.96.38.1.53.43.53.86,0,1.1-1.1,2.93-2.21,2.93-.19,0-.43-.05-.62-.24ZM477.53,473.63c-3.31,1.78-5.18,3.07-7.58,5.95-.24.29-.34.62-.34,1.01,0,.82.58,1.68,1.92,1.68h.05c2.26-.05,4.13-3.36,7.49-4.42.29-.1.53-.96.53-1.92,0-1.2-.38-2.54-1.34-2.54-.19,0-.43.1-.72.24Z"/><path class="cls-1" d="M506.9,473.83c-.48-.19-.96-.34-1.39-.34-.53,0-1.01.19-1.49.91-2.11,3.17-1.3,5.86-2.74,9.36-.34.77-1.06,1.15-1.78,1.15s-1.44-.43-1.68-1.3c-.58-2.3-1.01-3.5-1.73-5.76-.82-2.5-2.69-4.37-2.69-6.34,0-.24.05-.48.1-.72.19-.67.91-1.06,1.63-1.06.38,0,.82.1,1.1.34,2.54,1.92,2.02,2.54,2.59,5.33.1.38.43.72.86.72.29,0,.62-.19.86-.72,1.06-2.3.19-4.94,3.31-5.62.48-.1.96-.14,1.39-.14,1.2,0,2.26.34,3.07,1.15.29.29.43.77.43,1.3,0,.91-.43,1.82-1.34,1.82-.14,0-.34,0-.53-.1Z"/><path class="cls-1" d="M525.05,488.23c-1.92,0-3.79-.24-5.18-.72-4.13-1.34-8.45-3.46-8.45-7.63,0-.38,0-.77.1-1.2.86-4.61,3.41-6.67,7.1-9.02,2.45-1.54,4.9-2.59,7.34-2.59,1.34,0,2.69.34,4.08,1.06,1.39.72,2.06,1.97,2.06,3.26,0,1.06-.43,2.16-1.39,3.07-2.88,2.83-5.57,2.45-9.12,4.03-1.44.62-2.59.91-3.5.91-1.01,0-1.73-.34-2.06-.82-.1-.14-.34-.34-.53-.34-.43,0-.48.82-.48,1.2,0,3.12,3.89,4.42,6.86,5.18,1.73.43,3.12.62,4.56.62,1.68,0,3.31-.24,5.42-.62.1,0,.19-.05.29-.05.72,0,1.06.58,1.06,1.1,0,.34-.14.62-.38.77-1.92,1.25-4.94,1.78-7.78,1.78ZM516.02,475.31c-.29.29-.43.67-.43.91,0,.29.14.48.43.48.14,0,.34-.05.58-.14,2.59-1.06,7.49-.96,11.33-3.84.43-.29.58-.67.58-1.06,0-.72-.67-1.44-1.44-1.44-3.7.19-8.45,2.3-11.04,5.09Z"/><path class="cls-1" d="M560.38,487.27c-2.93-2.5-3.84-4.94-4.8-8.64-.29-1.15-.86-1.58-1.39-1.58s-1.06.34-1.39.72c-2.78,3.02-4.75,4.99-8.45,7.1-1.3.72-2.45,1.06-3.46,1.06-2.93,0-4.7-2.59-4.7-5.14,0-.91.24-1.87.77-2.64,2.93-4.37,6.77-6.43,10.66-8.26,1.06-.48,2.11-.86,3.12-.86.72,0,1.44.19,2.06.77.53.48.96.82,1.39.82.38,0,.77-.24,1.3-.91.29-.34.62-.53,1.01-.53.86,0,1.78.77,2.16,1.58,1.54,3.46-.48,11.67,4.03,12.96.38.1.53.43.53.86,0,1.1-1.1,2.93-2.21,2.93-.19,0-.43-.05-.62-.24ZM547.99,473.63c-3.31,1.78-5.18,3.07-7.58,5.95-.24.29-.34.62-.34,1.01,0,.82.58,1.68,1.92,1.68h.05c2.26-.05,4.13-3.36,7.49-4.42.29-.1.53-.96.53-1.92,0-1.2-.38-2.54-1.34-2.54-.19,0-.43.1-.72.24Z"/><path class="cls-1" d="M304.91,41.42c-2.93-2.5-3.84-4.94-4.8-8.64-.29-1.15-.86-1.58-1.39-1.58s-1.06.34-1.39.72c-2.78,3.02-4.75,4.99-8.45,7.1-1.3.72-2.45,1.06-3.46,1.06-2.93,0-4.7-2.59-4.7-5.14,0-.91.24-1.87.77-2.64,2.93-4.37,6.77-6.43,10.66-8.26,1.06-.48,2.11-.86,3.12-.86.72,0,1.44.19,2.06.77.53.48.96.82,1.39.82.38,0,.77-.24,1.3-.91.29-.34.62-.53,1.01-.53.86,0,1.78.77,2.16,1.58,1.54,3.46-.48,11.67,4.03,12.96.38.1.53.43.53.86,0,1.1-1.1,2.93-2.21,2.93-.19,0-.43-.05-.62-.24ZM292.52,27.79c-3.31,1.78-5.18,3.07-7.58,5.95-.24.29-.34.62-.34,1.01,0,.82.58,1.68,1.92,1.68h.05c2.26-.05,4.13-3.36,7.49-4.42.29-.1.53-.96.53-1.92,0-1.2-.38-2.54-1.34-2.54-.19,0-.43.1-.72.24Z"/><path class="cls-1" d="M320.46,26.49c-.34,0-.58-.1-.58-.43v-.1c0-.14.05-.29.05-.43,0-.86-.53-1.3-1.1-1.3-.14,0-.34.05-.53.14-1.1.53-1.97,1.2-3.46,1.73-.29.1-.43.43-.43.77,0,.29.1.62.29.82,2.88,2.78,4.51,4.18,6.91,7.2.58.77.86,1.54.86,2.35,0,.96-.38,1.82-1.15,2.54-1.39,1.3-5.81,3.17-8.69,3.17-.72,0-1.39-.14-1.82-.43-1.01-.62-1.39-1.39-1.39-2.02,0-.82.67-1.49,1.63-1.49.29,0,.58.05.91.19.53.24,1.1.34,1.63.34,1.2,0,2.45-.48,3.7-1.2.58-.34.82-.72.82-1.15,0-.62-.43-1.3-.96-2.02-3.36-4.61-6.62-4.66-7.49-7.2-.19-.53-.29-1.06-.29-1.58,0-1.2.58-2.21,1.73-2.74,2.4-1.06,6.24-3.36,8.35-3.36.24,0,.43,0,.58.05,2.4.67,3.17,1.78,3.17,3.26,0,.38-.05.77-.14,1.2-.19.82-1.73,1.68-2.59,1.68Z"/><path class="cls-1" d="M336.97,26.49c-.34,0-.58-.1-.58-.43v-.1c0-.14.05-.29.05-.43,0-.86-.53-1.3-1.1-1.3-.14,0-.34.05-.53.14-1.1.53-1.97,1.2-3.46,1.73-.29.1-.43.43-.43.77,0,.29.1.62.29.82,2.88,2.78,4.51,4.18,6.91,7.2.58.77.86,1.54.86,2.35,0,.96-.38,1.82-1.15,2.54-1.39,1.3-5.81,3.17-8.69,3.17-.72,0-1.39-.14-1.82-.43-1.01-.62-1.39-1.39-1.39-2.02,0-.82.67-1.49,1.63-1.49.29,0,.58.05.91.19.53.24,1.1.34,1.63.34,1.2,0,2.45-.48,3.7-1.2.58-.34.82-.72.82-1.15,0-.62-.43-1.3-.96-2.02-3.36-4.61-6.62-4.66-7.49-7.2-.19-.53-.29-1.06-.29-1.58,0-1.2.58-2.21,1.73-2.74,2.4-1.06,6.24-3.36,8.35-3.36.24,0,.43,0,.58.05,2.4.67,3.17,1.78,3.17,3.26,0,.38-.05.77-.14,1.2-.19.82-1.73,1.68-2.59,1.68Z"/><path class="cls-1" d="M356.22,42.38c-1.92,0-3.79-.24-5.18-.72-4.13-1.34-8.45-3.46-8.45-7.63,0-.38,0-.77.1-1.2.86-4.61,3.41-6.67,7.1-9.02,2.45-1.54,4.9-2.59,7.34-2.59,1.34,0,2.69.34,4.08,1.06,1.39.72,2.06,1.97,2.06,3.26,0,1.06-.43,2.16-1.39,3.07-2.88,2.83-5.57,2.45-9.12,4.03-1.44.62-2.59.91-3.5.91-1.01,0-1.73-.34-2.06-.82-.1-.14-.34-.34-.53-.34-.43,0-.48.82-.48,1.2,0,3.12,3.89,4.42,6.86,5.18,1.73.43,3.12.62,4.56.62,1.68,0,3.31-.24,5.42-.62.1,0,.19-.05.29-.05.72,0,1.06.58,1.06,1.1,0,.34-.14.62-.38.77-1.92,1.25-4.94,1.78-7.78,1.78ZM347.19,29.47c-.29.29-.43.67-.43.91,0,.29.14.48.43.48.14,0,.34-.05.58-.14,2.59-1.06,7.49-.96,11.33-3.84.43-.29.58-.67.58-1.06,0-.72-.67-1.44-1.44-1.44-3.7.19-8.45,2.3-11.04,5.09Z"/><path class="cls-1" d="M378.68,29.81c-1.15,0-2.26-.1-3.07-.1h-.05c-.72,0-1.44.48-1.39,1.2v.1c.24,6.77,1.87,6.77,2.16,8.79v.19c0,.91-.96,1.73-2.02,1.73-.58,0-1.2-.24-1.73-.91-1.82-2.35-.86-7.82-1.73-9.79-.34-.77-.29-1.54-1.01-1.87-.91-.43-1.58-.62-2.74-1.44-.38-.29-.58-.77-.58-1.3,0-.86.43-1.73,1.15-1.87.34-.05.62-.05.91-.05.34,0,.67.05,1.1.05.62,0,1.39-.43,1.3-1.01-.67-4.08-1.44-5.42-1.44-8.93,0-.91.67-1.3,1.49-1.3,1.39,0,3.31,1.1,3.31,2.59,0,.14,0,.29-.05.43-.38,1.49-.53,2.64-.53,3.84,0,1.34.19,2.69.38,4.37.1.82.67,1.25,1.44,1.3,1.54.05,2.74.1,3.74.1,4.13,0,4.18-.48,5.18-1.1.29-.19.53-.24.77-.24.62,0,1.01.67,1.01,1.39,0,.58-.19,1.15-.62,1.58-1.87,1.92-4.61,2.26-7.01,2.26Z"/><path class="cls-1" d="M398.41,26.49c-.34,0-.58-.1-.58-.43v-.1c0-.14.05-.29.05-.43,0-.86-.53-1.3-1.1-1.3-.14,0-.34.05-.53.14-1.1.53-1.97,1.2-3.46,1.73-.29.1-.43.43-.43.77,0,.29.1.62.29.82,2.88,2.78,4.51,4.18,6.91,7.2.58.77.86,1.54.86,2.35,0,.96-.38,1.82-1.15,2.54-1.39,1.3-5.81,3.17-8.69,3.17-.72,0-1.39-.14-1.82-.43-1.01-.62-1.39-1.39-1.39-2.02,0-.82.67-1.49,1.63-1.49.29,0,.58.05.91.19.53.24,1.1.34,1.63.34,1.2,0,2.45-.48,3.7-1.2.58-.34.82-.72.82-1.15,0-.62-.43-1.3-.96-2.02-3.36-4.61-6.62-4.66-7.49-7.2-.19-.53-.29-1.06-.29-1.58,0-1.2.58-2.21,1.73-2.74,2.4-1.06,6.24-3.36,8.35-3.36.24,0,.43,0,.58.05,2.4.67,3.17,1.78,3.17,3.26,0,.38-.05.77-.14,1.2-.19.82-1.73,1.68-2.59,1.68Z"/><path class="cls-1" d="M420.54,28.51c-.24,2.06-.53,4.22-.53,6.29,0,3.5.91,6.53,4.66,7.63.53.14.86.82.86,1.44s-.38,1.3-1.25,1.25c-4.99-.29-7.2-6.29-7.2-11.71,0-.96.05-1.87.19-2.78,1.15-8.54,4.51-15.22,10.56-18.63.24-.14.53-.19.82-.19.48,0,.96.19.96.62,0,.34-.29.82-1.01,1.39-3.6,2.98-7.3,8.06-8.06,14.69Z"/><path class="cls-1" d="M440.98,26.49c-.34,0-.58-.1-.58-.43v-.1c0-.14.05-.29.05-.43,0-.86-.53-1.3-1.1-1.3-.14,0-.34.05-.53.14-1.1.53-1.97,1.2-3.46,1.73-.29.1-.43.43-.43.77,0,.29.1.62.29.82,2.88,2.78,4.51,4.18,6.91,7.2.58.77.86,1.54.86,2.35,0,.96-.38,1.82-1.15,2.54-1.39,1.3-5.81,3.17-8.69,3.17-.72,0-1.39-.14-1.82-.43-1.01-.62-1.39-1.39-1.39-2.02,0-.82.67-1.49,1.63-1.49.29,0,.58.05.91.19.53.24,1.1.34,1.63.34,1.2,0,2.45-.48,3.7-1.2.58-.34.82-.72.82-1.15,0-.62-.43-1.3-.96-2.02-3.36-4.61-6.62-4.66-7.49-7.2-.19-.53-.29-1.06-.29-1.58,0-1.2.58-2.21,1.73-2.74,2.4-1.06,6.24-3.36,8.35-3.36.24,0,.43,0,.58.05,2.4.67,3.17,1.78,3.17,3.26,0,.38-.05.77-.14,1.2-.19.82-1.73,1.68-2.59,1.68Z"/><path class="cls-1" d="M457.64,29.81c-1.15,0-2.26-.1-3.07-.1h-.05c-.72,0-1.44.48-1.39,1.2v.1c.24,6.77,1.87,6.77,2.16,8.79v.19c0,.91-.96,1.73-2.02,1.73-.58,0-1.2-.24-1.73-.91-1.82-2.35-.86-7.82-1.73-9.79-.34-.77-.29-1.54-1.01-1.87-.91-.43-1.58-.62-2.74-1.44-.38-.29-.58-.77-.58-1.3,0-.86.43-1.73,1.15-1.87.34-.05.62-.05.91-.05.34,0,.67.05,1.1.05.62,0,1.39-.43,1.3-1.01-.67-4.08-1.44-5.42-1.44-8.93,0-.91.67-1.3,1.49-1.3,1.39,0,3.31,1.1,3.31,2.59,0,.14,0,.29-.05.43-.38,1.49-.53,2.64-.53,3.84,0,1.34.19,2.69.38,4.37.1.82.67,1.25,1.44,1.3,1.54.05,2.74.1,3.74.1,4.13,0,4.18-.48,5.18-1.1.29-.19.53-.24.77-.24.62,0,1.01.67,1.01,1.39,0,.58-.19,1.15-.62,1.58-1.87,1.92-4.61,2.26-7.01,2.26Z"/><path class="cls-1" d="M472.95,50.59c-.29.72-1.2,1.15-1.87,1.15-.53,0-.91-.24-.91-.77,0-.14,0-.24.05-.38,1.34-5.33,3.31-7.92,6.05-12.67.38-.62.53-1.01.53-1.3,0-.38-.38-.53-1.1-1.01-4.42-2.88-8.45-6.38-10.51-11.23-.05-.14-.1-.29-.1-.38,0-.91,1.06-2.06,2.06-2.06.43,0,.86.24,1.2.72,2.74,3.89,5.33,6.96,8.93,9.79.58.43.91.72,1.25.72.29,0,.53-.24.91-.72,1.92-2.54,2.3-4.46,3.46-7.49.29-.72.72-.96,1.2-.96.96,0,2.06,1.01,2.06,1.97,0,.14-.05.29-.1.43-4.27,9.36-8.88,14.35-13.11,24.19Z"/><path class="cls-1" d="M492.39,39.46c-.82,0-1.82-.48-2.02-1.39-.38-1.73-.53-3.31-.53-4.8,0-2.59.38-4.94.38-7.58,0-1.39-.1-2.83-.43-4.46-.58-2.78-1.3-6.1-2.59-9.79-.05-.19-.1-.34-.1-.48,0-1.2,1.58-1.87,2.93-1.87,1.06,0,2.02.38,2.06,1.34.1,2.21,1.39,7.58,1.73,12.53.14,1.78.19,3.31.19,4.75,0,3.6-.29,6.58-.48,10.95,0,.58-.53.82-1.15.82Z"/><path class="cls-1" d="M512.55,42.38c-1.92,0-3.79-.24-5.18-.72-4.13-1.34-8.45-3.46-8.45-7.63,0-.38,0-.77.1-1.2.86-4.61,3.41-6.67,7.1-9.02,2.45-1.54,4.9-2.59,7.34-2.59,1.34,0,2.69.34,4.08,1.06,1.39.72,2.06,1.97,2.06,3.26,0,1.06-.43,2.16-1.39,3.07-2.88,2.83-5.57,2.45-9.12,4.03-1.44.62-2.59.91-3.5.91-1.01,0-1.73-.34-2.06-.82-.1-.14-.34-.34-.53-.34-.43,0-.48.82-.48,1.2,0,3.12,3.89,4.42,6.86,5.18,1.73.43,3.12.62,4.56.62,1.68,0,3.31-.24,5.42-.62.1,0,.19-.05.29-.05.72,0,1.06.58,1.06,1.1,0,.34-.14.62-.38.77-1.92,1.25-4.94,1.78-7.78,1.78ZM503.53,29.47c-.29.29-.43.67-.43.91,0,.29.14.48.43.48.14,0,.34-.05.58-.14,2.59-1.06,7.49-.96,11.33-3.84.43-.29.58-.67.58-1.06,0-.72-.67-1.44-1.44-1.44-3.7.19-8.45,2.3-11.04,5.09Z"/><path class="cls-1" d="M534.87,26.49c-.34,0-.58-.1-.58-.43v-.1c0-.14.05-.29.05-.43,0-.86-.53-1.3-1.1-1.3-.14,0-.34.05-.53.14-1.1.53-1.97,1.2-3.46,1.73-.29.1-.43.43-.43.77,0,.29.1.62.29.82,2.88,2.78,4.51,4.18,6.91,7.2.58.77.86,1.54.86,2.35,0,.96-.38,1.82-1.15,2.54-1.39,1.3-5.81,3.17-8.69,3.17-.72,0-1.39-.14-1.82-.43-1.01-.62-1.39-1.39-1.39-2.02,0-.82.67-1.49,1.63-1.49.29,0,.58.05.91.19.53.24,1.1.34,1.63.34,1.2,0,2.45-.48,3.7-1.2.58-.34.82-.72.82-1.15,0-.62-.43-1.3-.96-2.02-3.36-4.61-6.62-4.66-7.49-7.2-.19-.53-.29-1.06-.29-1.58,0-1.2.58-2.21,1.73-2.74,2.4-1.06,6.24-3.36,8.35-3.36.24,0,.43,0,.58.05,2.4.67,3.17,1.78,3.17,3.26,0,.38-.05.77-.14,1.2-.19.82-1.73,1.68-2.59,1.68Z"/><path class="cls-1" d="M559.06,40.66c-.48-3.02-1.06-4.56-2.3-6.91-1.01-1.92-.62-3.02-1.58-5.33-.19-.43-.62-.77-1.1-.77-.34,0-.67.14-.91.62-.77,1.49-1.97,3.41-3.74,5.33-1.73,1.87-1.58,3.74-3.46,5.62-.43.43-1.15.67-1.78.67-.72,0-1.34-.29-1.39-.96-.29-5.86-1.78-15.84-1.78-23.67,0-1.44.05-2.83.19-4.13.05-.72.62-1.01,1.34-1.01,1.2,0,2.74.91,2.74,2.02,0,.14,0,.29-.05.43-.38,1.1-.53,4.61-.53,8.45,0,3.55.14,7.34.38,9.84.1,1.1.58,1.92,1.06,1.92.14,0,.24-.05.38-.19,2.59-2.93,3.79-5.95,6.77-9.36.62-.72,1.25-1.1,1.82-1.1.62,0,1.15.48,1.63,1.39,1.34,2.69,2.69,9.26,5.62,14.69.19.38.29.72.29,1.01,0,1.34-1.49,2.11-2.54,2.11-.53,0-.96-.19-1.06-.67Z"/><path class="cls-1" d="M579.08,42.38c-1.92,0-3.79-.24-5.18-.72-4.13-1.34-8.45-3.46-8.45-7.63,0-.38,0-.77.1-1.2.86-4.61,3.41-6.67,7.11-9.02,2.45-1.54,4.9-2.59,7.34-2.59,1.34,0,2.69.34,4.08,1.06,1.39.72,2.06,1.97,2.06,3.26,0,1.06-.43,2.16-1.39,3.07-2.88,2.83-5.57,2.45-9.12,4.03-1.44.62-2.59.91-3.5.91-1.01,0-1.73-.34-2.06-.82-.1-.14-.34-.34-.53-.34-.43,0-.48.82-.48,1.2,0,3.12,3.89,4.42,6.86,5.18,1.73.43,3.12.62,4.56.62,1.68,0,3.31-.24,5.42-.62.1,0,.19-.05.29-.05.72,0,1.06.58,1.06,1.1,0,.34-.14.62-.38.77-1.92,1.25-4.94,1.78-7.78,1.78ZM570.05,29.47c-.29.29-.43.67-.43.91,0,.29.14.48.43.48.14,0,.34-.05.58-.14,2.59-1.06,7.49-.96,11.33-3.84.43-.29.58-.67.58-1.06,0-.72-.67-1.44-1.44-1.44-3.7.19-8.45,2.3-11.04,5.09Z"/><path class="cls-1" d="M604.13,42.38c-1.92,0-3.79-.24-5.18-.72-4.13-1.34-8.45-3.46-8.45-7.63,0-.38,0-.77.1-1.2.86-4.61,3.41-6.67,7.11-9.02,2.45-1.54,4.9-2.59,7.34-2.59,1.34,0,2.69.34,4.08,1.06,1.39.72,2.06,1.97,2.06,3.26,0,1.06-.43,2.16-1.39,3.07-2.88,2.83-5.57,2.45-9.12,4.03-1.44.62-2.59.91-3.5.91-1.01,0-1.73-.34-2.06-.82-.1-.14-.34-.34-.53-.34-.43,0-.48.82-.48,1.2,0,3.12,3.89,4.42,6.86,5.18,1.73.43,3.12.62,4.56.62,1.68,0,3.31-.24,5.42-.62.1,0,.19-.05.29-.05.72,0,1.06.58,1.06,1.1,0,.34-.14.62-.38.77-1.92,1.25-4.94,1.78-7.78,1.78ZM595.11,29.47c-.29.29-.43.67-.43.91,0,.29.14.48.43.48.14,0,.34-.05.58-.14,2.59-1.06,7.49-.96,11.33-3.84.43-.29.58-.67.58-1.06,0-.72-.67-1.44-1.44-1.44-3.7.19-8.45,2.3-11.04,5.09Z"/><path class="cls-1" d="M626.6,29.81c-1.15,0-2.26-.1-3.07-.1h-.05c-.72,0-1.44.48-1.39,1.2v.1c.24,6.77,1.87,6.77,2.16,8.79v.19c0,.91-.96,1.73-2.02,1.73-.58,0-1.2-.24-1.73-.91-1.82-2.35-.86-7.82-1.73-9.79-.34-.77-.29-1.54-1.01-1.87-.91-.43-1.58-.62-2.74-1.44-.38-.29-.58-.77-.58-1.3,0-.86.43-1.73,1.15-1.87.34-.05.62-.05.91-.05.34,0,.67.05,1.1.05.62,0,1.39-.43,1.3-1.01-.67-4.08-1.44-5.42-1.44-8.93,0-.91.67-1.3,1.49-1.3,1.39,0,3.31,1.1,3.31,2.59,0,.14,0,.29-.05.43-.38,1.49-.53,2.64-.53,3.84,0,1.34.19,2.69.38,4.37.1.82.67,1.25,1.44,1.3,1.54.05,2.74.1,3.74.1,4.13,0,4.18-.48,5.18-1.1.29-.19.53-.24.77-.24.62,0,1.01.67,1.01,1.39,0,.58-.19,1.15-.62,1.58-1.87,1.92-4.61,2.26-7.01,2.26Z"/><path class="cls-1" d="M646.32,26.49c-.34,0-.58-.1-.58-.43v-.1c0-.14.05-.29.05-.43,0-.86-.53-1.3-1.1-1.3-.14,0-.34.05-.53.14-1.1.53-1.97,1.2-3.46,1.73-.29.1-.43.43-.43.77,0,.29.1.62.29.82,2.88,2.78,4.51,4.18,6.91,7.2.58.77.86,1.54.86,2.35,0,.96-.38,1.82-1.15,2.54-1.39,1.3-5.81,3.17-8.69,3.17-.72,0-1.39-.14-1.82-.43-1.01-.62-1.39-1.39-1.39-2.02,0-.82.67-1.49,1.63-1.49.29,0,.58.05.91.19.53.24,1.1.34,1.63.34,1.2,0,2.45-.48,3.7-1.2.58-.34.82-.72.82-1.15,0-.62-.43-1.3-.96-2.02-3.36-4.61-6.62-4.66-7.49-7.2-.19-.53-.29-1.06-.29-1.58,0-1.2.58-2.21,1.73-2.74,2.4-1.06,6.24-3.36,8.35-3.36.24,0,.43,0,.58.05,2.4.67,3.17,1.78,3.17,3.26,0,.38-.05.77-.14,1.2-.19.82-1.73,1.68-2.59,1.68Z"/><path class="cls-1" d="M652.56,47.71c-.24.38-.77.58-1.2.58-.67,0-1.3-.38-1.3-1.25,0-.24.05-.58.19-.91,1.58-4.03,2.78-6.19,4.61-10.08.29-.58.82-.82,1.39-.82,1.01,0,2.06.67,2.06,1.58,0,.24-.1.53-.29.82-2.54,3.65-2.93,6.38-5.47,10.08Z"/><path class="cls-1" d="M686.07,42.38c-1.92,0-3.79-.24-5.18-.72-4.13-1.34-8.45-3.46-8.45-7.63,0-.38,0-.77.1-1.2.86-4.61,3.41-6.67,7.11-9.02,2.45-1.54,4.9-2.59,7.34-2.59,1.34,0,2.69.34,4.08,1.06,1.39.72,2.06,1.97,2.06,3.26,0,1.06-.43,2.16-1.39,3.07-2.88,2.83-5.57,2.45-9.12,4.03-1.44.62-2.59.91-3.5.91-1.01,0-1.73-.34-2.06-.82-.1-.14-.34-.34-.53-.34-.43,0-.48.82-.48,1.2,0,3.12,3.89,4.42,6.86,5.18,1.73.43,3.12.62,4.56.62,1.68,0,3.31-.24,5.42-.62.1,0,.19-.05.29-.05.72,0,1.06.58,1.06,1.1,0,.34-.14.62-.38.77-1.92,1.25-4.94,1.78-7.78,1.78ZM677.04,29.47c-.29.29-.43.67-.43.91,0,.29.14.48.43.48.14,0,.34-.05.58-.14,2.59-1.06,7.49-.96,11.33-3.84.43-.29.58-.67.58-1.06,0-.72-.67-1.44-1.44-1.44-3.7.19-8.45,2.3-11.04,5.09Z"/><path class="cls-1" d="M708.53,29.81c-1.15,0-2.26-.1-3.07-.1h-.05c-.72,0-1.44.48-1.39,1.2v.1c.24,6.77,1.87,6.77,2.16,8.79v.19c0,.91-.96,1.73-2.02,1.73-.58,0-1.2-.24-1.73-.91-1.82-2.35-.86-7.82-1.73-9.79-.34-.77-.29-1.54-1.01-1.87-.91-.43-1.58-.62-2.74-1.44-.38-.29-.58-.77-.58-1.3,0-.86.43-1.73,1.15-1.87.34-.05.62-.05.91-.05.34,0,.67.05,1.1.05.62,0,1.39-.43,1.3-1.01-.67-4.08-1.44-5.42-1.44-8.93,0-.91.67-1.3,1.49-1.3,1.39,0,3.31,1.1,3.31,2.59,0,.14,0,.29-.05.43-.38,1.49-.53,2.64-.53,3.84,0,1.34.19,2.69.38,4.37.1.82.67,1.25,1.44,1.3,1.54.05,2.74.1,3.74.1,4.13,0,4.18-.48,5.18-1.1.29-.19.53-.24.77-.24.62,0,1.01.67,1.01,1.39,0,.58-.19,1.15-.62,1.58-1.87,1.92-4.61,2.26-7.01,2.26Z"/><path class="cls-1" d="M738.92,26.59c-.62,0-1.3-.43-1.54-1.3-.14-.58-.86-.77-1.87-.77-1.97,0-5.18.91-7.44,1.92-3.36,1.49-6.34,2.5-7.1,6.05-.05.14-.05.29-.05.43,0,2.4,3.89,4.99,7.15,5.71.82.19,1.54.24,2.11.24,2.11,0,3.07-.91,5.38-1.2h.24c.77,0,1.34.43,1.34.96,0,.48-.38.96-1.3,1.34-1.82.77-4.08,1.82-6.62,1.82-.67,0-1.39-.1-2.11-.29-5.42-1.39-9.5-4.08-9.5-8.98v-.53c.29-5.04,5.42-6.77,9.84-8.45,3.55-1.34,3.98-1.2,9.55-2.02.19-.05.43-.05.62-.05,1.44,0,2.83.77,2.83,2.64,0,.34-.05.77-.19,1.25-.24.82-.77,1.2-1.34,1.2Z"/><path class="cls-1" d="M738.58,48.43c-.34,0-.62-.19-.62-.53,0-.19.14-.48.38-.77,5.38-6.19,9.07-11.57,9.07-18.96,0-1.1-.05-2.26-.24-3.5-.86-5.9-2.69-9.31-6.82-13.63-.19-.19-.29-.43-.29-.62,0-.53.58-1.01,1.15-1.01.19,0,.38.05.58.19,4.8,3.94,7.06,8.16,7.78,14.5.14,1.2.19,2.4.19,3.5,0,8.3-3.65,14.54-10.37,20.5-.29.24-.58.34-.82.34Z"/><path class="cls-1" d="M24.19,257.68c-2.45-3.12-2.54-8.54-4.13-14.11-.14-.58-.38-1.49-.82-1.49-.19,0-.48.24-.82.91-1.3,2.5-1.87,4.03-3.94,5.95-.77.72-1.54,1.3-2.4,1.3-.62,0-1.3-.34-2.02-1.2-1.01-1.25-1.49-2.16-2.59-3.36-.29-.34-.53-.53-.72-.53-.24,0-.38.34-.43,1.2-.05.53-.05,1.06-.05,1.58,0,2.06.19,4.08.19,5.76,0,1.06-.1,1.97-.34,2.64-.29.77-1.3,1.49-2.06,1.49-.58,0-1.01-.34-1.01-1.3,0-3.22.1-5.9.1-8.45,0-4.32-.24-8.21-1.34-13.44-.05-.14-.05-.24-.05-.34,0-.86.72-1.3,1.49-1.3.58,0,1.15.24,1.44.86,2.06,4.61,3.55,7.54,6.91,10.94.43.43.91.77,1.39.77.43,0,.86-.29,1.3-.96,1.92-3.12,2.21-5.33,4.32-8.35.38-.53.91-.77,1.44-.77.77,0,1.49.48,1.82,1.44,2.45,7.34,2.69,11.95,5.28,19.11.05.14.1.38.1.58,0,.96-.53,2.16-1.44,2.16-.43,0-1.01-.29-1.63-1.1Z"/><path class="cls-1" d="M36.58,267.76c-.29.72-1.2,1.15-1.87,1.15-.53,0-.91-.24-.91-.77,0-.14,0-.24.05-.38,1.34-5.33,3.31-7.92,6.05-12.67.38-.62.53-1.01.53-1.3,0-.38-.38-.53-1.1-1.01-4.42-2.88-8.45-6.38-10.51-11.23-.05-.14-.1-.29-.1-.38,0-.91,1.06-2.06,2.06-2.06.43,0,.86.24,1.2.72,2.74,3.89,5.33,6.96,8.93,9.79.58.43.91.72,1.25.72.29,0,.53-.24.91-.72,1.92-2.54,2.3-4.46,3.46-7.49.29-.72.72-.96,1.2-.96.96,0,2.06,1.01,2.06,1.97,0,.14-.05.29-.1.43-4.27,9.36-8.88,14.35-13.11,24.19Z"/><path class="cls-1" d="M81.02,258.64c-3.55,0-7.82-2.16-11.71-4.66-.82-.53-1.15-.96-1.15-1.3,0-.48.62-.77,1.34-.77.43,0,.91.14,1.34.34,3.55,1.78,6.05,3.07,9.6,3.07.53,0,1.1-.05,1.73-.1,1.25-.14,1.82-1.15,1.82-2.21,0-.58-.14-1.1-.48-1.54-3.31-4.27-13.78-4.37-17.57-7.1-1.92-1.39-2.64-2.64-2.64-3.7,0-1.44,1.25-2.54,2.64-3.22,4.7-2.35,12.58-5.62,16.9-5.62,1.54,0,2.59.43,2.98,1.39.14.43.29,1.01.29,1.54,0,.86-.29,1.63-1.25,1.63-.29,0-.67-.1-1.15-.29-.53-.19-1.58-.38-2.78-.38-.96,0-2.02.1-2.98.38-3.26.96-5.47,1.68-8.83,3.07-1.01.43-1.49.72-1.49,1.1,0,.34.43.77,1.1,1.39,1.78,1.58,13.78,3.22,17.57,8.35.86,1.2,1.25,2.35,1.25,3.36,0,2.26-1.78,3.98-3.94,4.8-.82.29-1.68.43-2.59.43Z"/><path class="cls-1" d="M93.98,234.21c-2.21,0-3.65-1.34-4.61-2.88-.14-.24-.19-.43-.19-.67,0-.62.53-1.25,1.73-1.25.14,0,.29.05.48.05,1.97.24,3.26.77,4.75,1.87.43.29.58.67.58,1.06,0,.77-.77,1.54-1.58,1.68-.43.1-.82.14-1.15.14ZM94.42,256.68c-1.58-1.73-2.5-3.55-2.59-5.47-.1-2.06-.1-3.65-.1-5.28v-1.73c0-1.06-.05-2.21-.05-3.5v-.05c0-.82.53-1.15,1.15-1.15,1.15,0,2.78,1.06,2.74,2.4v.1c-.05,2.35-.62,4.22-.62,6.1,0,1.15.19,2.26.77,3.55.72,1.58,1.49,2.3,2.59,3.6.19.24.29.48.29.67,0,.77-1.34,1.25-2.59,1.25-.67,0-1.3-.14-1.58-.48Z"/><path class="cls-1" d="M112.56,246.98c-1.15,0-2.26-.1-3.07-.1h-.05c-.72,0-1.44.48-1.39,1.2v.1c.24,6.77,1.87,6.77,2.16,8.79v.19c0,.91-.96,1.73-2.02,1.73-.58,0-1.2-.24-1.73-.91-1.82-2.35-.86-7.82-1.73-9.79-.34-.77-.29-1.54-1.01-1.87-.91-.43-1.58-.62-2.74-1.44-.38-.29-.58-.77-.58-1.3,0-.86.43-1.73,1.15-1.87.34-.05.62-.05.91-.05.34,0,.67.05,1.1.05.62,0,1.39-.43,1.3-1.01-.67-4.08-1.44-5.42-1.44-8.93,0-.91.67-1.3,1.49-1.3,1.39,0,3.31,1.1,3.31,2.59,0,.14,0,.29-.05.43-.38,1.49-.53,2.64-.53,3.84,0,1.34.19,2.69.38,4.37.1.82.67,1.25,1.44,1.3,1.54.05,2.74.1,3.74.1,4.13,0,4.18-.48,5.18-1.1.29-.19.53-.24.77-.24.62,0,1.01.67,1.01,1.39,0,.58-.19,1.15-.62,1.58-1.87,1.92-4.61,2.26-7.01,2.26Z"/><path class="cls-1" d="M135.02,259.56c-1.92,0-3.79-.24-5.18-.72-4.13-1.34-8.45-3.46-8.45-7.63,0-.38,0-.77.1-1.2.86-4.61,3.41-6.67,7.1-9.02,2.45-1.54,4.9-2.59,7.34-2.59,1.34,0,2.69.34,4.08,1.06,1.39.72,2.06,1.97,2.06,3.26,0,1.06-.43,2.16-1.39,3.07-2.88,2.83-5.57,2.45-9.12,4.03-1.44.62-2.59.91-3.5.91-1.01,0-1.73-.34-2.06-.82-.1-.14-.34-.34-.53-.34-.43,0-.48.82-.48,1.2,0,3.12,3.89,4.42,6.86,5.18,1.73.43,3.12.62,4.56.62,1.68,0,3.31-.24,5.42-.62.1,0,.19-.05.29-.05.72,0,1.06.58,1.06,1.1,0,.34-.14.62-.38.77-1.92,1.25-4.94,1.78-7.78,1.78ZM126,246.64c-.29.29-.43.67-.43.91,0,.29.14.48.43.48.14,0,.34-.05.58-.14,2.59-1.06,7.49-.96,11.33-3.84.43-.29.58-.67.58-1.06,0-.72-.67-1.44-1.44-1.44-3.7.19-8.45,2.3-11.04,5.09Z"/><path class="cls-1" d="M755.91,474.35c-.24,2.06-.53,4.22-.53,6.29,0,3.5.91,6.53,4.66,7.63.53.14.86.82.86,1.44s-.38,1.3-1.25,1.25c-4.99-.29-7.2-6.29-7.2-11.71,0-.96.05-1.87.19-2.78,1.15-8.54,4.51-15.22,10.56-18.62.24-.14.53-.19.82-.19.48,0,.96.19.96.62,0,.34-.29.82-1.01,1.39-3.6,2.98-7.3,8.07-8.06,14.69Z"/><path class="cls-1" d="M777.42,486.4c-.29,0-.62-.05-.96-.05-7.54-.53-11.38-6.24-11.38-10.66,0-.82.14-1.58.43-2.3,2.16-5.52,7.25-9.02,13.83-9.89.48-.05.96-.1,1.44-.1,6.05,0,9.6,5.18,9.6,10.42,0,.96-.14,1.92-.38,2.83-1.54,5.86-6.53,9.74-12.58,9.74ZM784.66,470.23c-.72,0-1.54.53-2.06.53-.24,0-.43-.14-.48-.43-.62-2.78-1.01-3.36-3.26-3.46h-.43c-5.23,0-9.46,4.13-9.94,9.41v.48c0,4.27,5.18,6.29,9.5,6.62.24,0,.43.05.67.05,4.37,0,8.02-3.26,8.54-7.63.1-.77.19-1.54.19-2.26,0-1.58-.48-2.98-2.5-3.31h-.24Z"/><path class="cls-1" d="M809.33,488.08c-4.03-1.82-2.16-8.3-3.6-10.8-.58-1.06-1.06-1.49-1.44-1.49-.29,0-.58.24-.86.62-1.78,2.26-1.58,5.04-3.74,6.48-.62.43-1.2.58-1.63.58-1.73,0-2.4-2.3-2.4-3.26v-.82c0-3.46-.91-6.62-2.3-8.59-.1-.14-.14-.34-.14-.58,0-1.1,1.39-2.83,2.93-2.83.29,0,.62.05.96.24,1.44.77.96,4.56,1.73,7.63.19.86.58,1.25,1.01,1.25.34,0,.77-.29,1.15-.67,1.63-1.63,1.73-2.59,2.74-5.18.19-.43.53-.62,1.01-.62.91,0,2.21.77,2.74,1.63,2.11,3.41,1.87,12.67,3.89,13.54.86.38,1.25.96,1.25,1.49,0,.86-.86,1.68-2.02,1.68-.38,0-.82-.1-1.25-.29Z"/><path class="cls-1" d="M828.82,488.23c-1.92,0-3.79-.24-5.18-.72-4.13-1.34-8.45-3.46-8.45-7.63,0-.38,0-.77.1-1.2.86-4.61,3.41-6.67,7.1-9.02,2.45-1.54,4.9-2.59,7.34-2.59,1.34,0,2.69.34,4.08,1.06,1.39.72,2.06,1.97,2.06,3.26,0,1.06-.43,2.16-1.39,3.07-2.88,2.83-5.57,2.45-9.12,4.03-1.44.62-2.59.91-3.5.91-1.01,0-1.73-.34-2.06-.82-.1-.14-.34-.34-.53-.34-.43,0-.48.82-.48,1.2,0,3.12,3.89,4.42,6.86,5.18,1.73.43,3.12.62,4.56.62,1.68,0,3.31-.24,5.42-.62.1,0,.19-.05.29-.05.72,0,1.06.58,1.06,1.1,0,.34-.14.62-.38.77-1.92,1.25-4.95,1.78-7.78,1.78ZM819.8,475.31c-.29.29-.43.67-.43.91,0,.29.14.48.43.48.14,0,.34-.05.58-.14,2.59-1.06,7.49-.96,11.33-3.84.43-.29.58-.67.58-1.06,0-.72-.67-1.44-1.44-1.44-3.7.19-8.45,2.3-11.04,5.09Z"/><path class="cls-1" d="M858,482.9c-.14.62-.19,1.25-.19,1.78,0,2.3.82,4.22.82,6.34,0,.86-.14,1.73-.48,2.69-.38,1.01-.86,1.73-1.44,1.73-.48,0-1.06-.53-1.73-1.87-1.39-2.83-1.73-5.38-1.73-7.92s.29-4.8.29-7.34c0-1.97-.19-4.08-.86-6.34-.05-.14-.05-.34-.05-.48,0-1.87,3.17-3.79,5.81-4.13.29-.05.58-.05.86-.05,3.74,0,7.15,3.12,7.2,6.96.05,3.84-4.08,6.91-6.77,7.2-.86.1-1.54.43-1.73,1.44ZM863.33,474.4c-.14-1.87-1.92-2.69-3.74-3.02-.19-.05-.38-.05-.58-.05-1.54,0-1.87,1.39-1.87,2.69v.53c.19,2.74.05,3.65,1.15,3.65.29,0,.67-.1,1.15-.19,1.92-.43,3.89-1.44,3.89-3.36v-.24Z"/><path class="cls-1" d="M893.91,487.27c-2.93-2.5-3.84-4.94-4.8-8.64-.29-1.15-.86-1.58-1.39-1.58s-1.06.34-1.39.72c-2.78,3.02-4.75,4.99-8.45,7.1-1.3.72-2.45,1.06-3.46,1.06-2.93,0-4.7-2.59-4.7-5.14,0-.91.24-1.87.77-2.64,2.93-4.37,6.77-6.43,10.66-8.26,1.06-.48,2.11-.86,3.12-.86.72,0,1.44.19,2.06.77.53.48.96.82,1.39.82.38,0,.77-.24,1.3-.91.29-.34.62-.53,1.01-.53.86,0,1.78.77,2.16,1.58,1.54,3.46-.48,11.67,4.03,12.96.38.1.53.43.53.86,0,1.1-1.1,2.93-2.21,2.93-.19,0-.43-.05-.62-.24ZM881.52,473.63c-3.31,1.78-5.18,3.07-7.58,5.95-.24.29-.34.62-.34,1.01,0,.82.58,1.68,1.92,1.68h.05c2.26-.05,4.13-3.36,7.49-4.42.29-.1.53-.96.53-1.92,0-1.2-.38-2.54-1.34-2.54-.19,0-.43.1-.72.24Z"/><path class="cls-1" d="M905.09,499.89c-1.78,0-3.6-.77-5.23-2.16-1.63-1.39-3.12-4.61-3.12-6.62,0-1.01.38-1.73,1.39-1.73h.29c2.21.29-.58,5.86,3.89,6.91.58.14,1.15.19,1.68.19,5.71,0,8.74-7.25,8.74-11.9,0-.29-.05-.58-.05-.82-.19-2.3.05-2.11-.43-5.9-.05-.43-.24-1.1-.72-1.1-.19,0-.43.14-.72.38-1.01.86-3.65,5.76-6.91,5.76-.29,0-.58-.05-.86-.14-2.45-.67-4.27-2.54-4.27-4.94,0-1.97,1.2-4.37,4.08-6.82,2.02-1.73,5.14-3.41,7.73-3.41,1.44,0,2.74.53,3.55,1.92.96,1.63,1.2,2.79,1.2,3.94,0,1.01-.24,2.02-.24,3.31,0,.24.05.53.05.82.14,1.97.29,3.89.29,5.76,0,4.51-.77,8.79-4.03,12.96-1.92,2.45-4.13,3.6-6.29,3.6ZM909.12,471.47c-.96,0-2.74,1.15-4.51,2.06-1.49.72-2.45,2.59-2.45,4.03,0,.58.14,1.06.43,1.44.34.43.82.62,1.3.62,1.2,0,2.59-1.06,3.31-2.21,1.44-2.26,2.74-3.98,2.74-5.04,0-.29-.1-.53-.29-.72-.14-.1-.29-.19-.53-.19Z"/><path class="cls-1" d="M933.36,488.23c-1.92,0-3.79-.24-5.18-.72-4.13-1.34-8.45-3.46-8.45-7.63,0-.38,0-.77.1-1.2.86-4.61,3.41-6.67,7.1-9.02,2.45-1.54,4.9-2.59,7.34-2.59,1.34,0,2.69.34,4.08,1.06s2.06,1.97,2.06,3.26c0,1.06-.43,2.16-1.39,3.07-2.88,2.83-5.57,2.45-9.12,4.03-1.44.62-2.59.91-3.5.91-1.01,0-1.73-.34-2.06-.82-.1-.14-.34-.34-.53-.34-.43,0-.48.82-.48,1.2,0,3.12,3.89,4.42,6.86,5.18,1.73.43,3.12.62,4.56.62,1.68,0,3.31-.24,5.42-.62.1,0,.19-.05.29-.05.72,0,1.06.58,1.06,1.1,0,.34-.14.62-.38.77-1.92,1.25-4.94,1.78-7.78,1.78ZM924.34,475.31c-.29.29-.43.67-.43.91,0,.29.14.48.43.48.14,0,.34-.05.58-.14,2.59-1.06,7.49-.96,11.33-3.84.43-.29.58-.67.58-1.06,0-.72-.67-1.44-1.44-1.44-3.7.19-8.45,2.3-11.04,5.09Z"/><path class="cls-1" d="M962.55,482.9c-.14.62-.19,1.25-.19,1.78,0,2.3.82,4.22.82,6.34,0,.86-.14,1.73-.48,2.69-.38,1.01-.86,1.73-1.44,1.73-.48,0-1.06-.53-1.73-1.87-1.39-2.83-1.73-5.38-1.73-7.92s.29-4.8.29-7.34c0-1.97-.19-4.08-.86-6.34-.05-.14-.05-.34-.05-.48,0-1.87,3.17-3.79,5.81-4.13.29-.05.58-.05.86-.05,3.75,0,7.15,3.12,7.2,6.96.05,3.84-4.08,6.91-6.77,7.2-.86.1-1.54.43-1.73,1.44ZM967.88,474.4c-.14-1.87-1.92-2.69-3.75-3.02-.19-.05-.38-.05-.58-.05-1.54,0-1.87,1.39-1.87,2.69v.53c.19,2.74.05,3.65,1.15,3.65.29,0,.67-.1,1.15-.19,1.92-.43,3.89-1.44,3.89-3.36v-.24Z"/><path class="cls-1" d="M988.18,488.23c-1.92,0-3.79-.24-5.18-.72-4.13-1.34-8.45-3.46-8.45-7.63,0-.38,0-.77.1-1.2.86-4.61,3.41-6.67,7.1-9.02,2.45-1.54,4.9-2.59,7.34-2.59,1.34,0,2.69.34,4.08,1.06s2.06,1.97,2.06,3.26c0,1.06-.43,2.16-1.39,3.07-2.88,2.83-5.57,2.45-9.12,4.03-1.44.62-2.59.91-3.5.91-1.01,0-1.73-.34-2.06-.82-.1-.14-.34-.34-.53-.34-.43,0-.48.82-.48,1.2,0,3.12,3.89,4.42,6.86,5.18,1.73.43,3.12.62,4.56.62,1.68,0,3.31-.24,5.42-.62.1,0,.19-.05.29-.05.72,0,1.06.58,1.06,1.1,0,.34-.14.62-.38.77-1.92,1.25-4.94,1.78-7.78,1.78ZM979.15,475.31c-.29.29-.43.67-.43.91,0,.29.14.48.43.48.14,0,.34-.05.58-.14,2.59-1.06,7.49-.96,11.33-3.84.43-.29.58-.67.58-1.06,0-.72-.67-1.44-1.44-1.44-3.7.19-8.45,2.3-11.04,5.09Z"/><path class="cls-1" d="M1011.94,473.83c-.48-.19-.96-.34-1.39-.34-.53,0-1.01.19-1.49.91-2.11,3.17-1.3,5.86-2.74,9.36-.34.77-1.06,1.15-1.78,1.15s-1.44-.43-1.68-1.3c-.58-2.3-1.01-3.5-1.73-5.76-.82-2.5-2.69-4.37-2.69-6.34,0-.24.05-.48.1-.72.19-.67.91-1.06,1.63-1.06.38,0,.82.1,1.1.34,2.54,1.92,2.02,2.54,2.59,5.33.1.38.43.72.86.72.29,0,.62-.19.86-.72,1.06-2.3.19-4.94,3.31-5.62.48-.1.96-.14,1.39-.14,1.2,0,2.26.34,3.07,1.15.29.29.43.77.43,1.3,0,.91-.43,1.82-1.34,1.82-.14,0-.34,0-.53-.1Z"/><path class="cls-1" d="M1034.21,482.9c-.14.62-.19,1.25-.19,1.78,0,2.3.82,4.22.82,6.34,0,.86-.14,1.73-.48,2.69-.38,1.01-.86,1.73-1.44,1.73-.48,0-1.06-.53-1.73-1.87-1.39-2.83-1.73-5.38-1.73-7.92s.29-4.8.29-7.34c0-1.97-.19-4.08-.86-6.34-.05-.14-.05-.34-.05-.48,0-1.87,3.17-3.79,5.81-4.13.29-.05.58-.05.86-.05,3.74,0,7.15,3.12,7.2,6.96.05,3.84-4.08,6.91-6.77,7.2-.86.1-1.54.43-1.73,1.44ZM1039.54,474.4c-.14-1.87-1.92-2.69-3.74-3.02-.19-.05-.38-.05-.58-.05-1.54,0-1.87,1.39-1.87,2.69v.53c.19,2.74.05,3.65,1.15,3.65.29,0,.67-.1,1.15-.19,1.92-.43,3.89-1.44,3.89-3.36v-.24Z"/><path class="cls-1" d="M1058.54,473.83c-.48-.19-.96-.34-1.39-.34-.53,0-1.01.19-1.49.91-2.11,3.17-1.3,5.86-2.74,9.36-.34.77-1.06,1.15-1.78,1.15s-1.44-.43-1.68-1.3c-.58-2.3-1.01-3.5-1.73-5.76-.82-2.5-2.69-4.37-2.69-6.34,0-.24.05-.48.1-.72.19-.67.91-1.06,1.63-1.06.38,0,.82.1,1.1.34,2.54,1.92,2.02,2.54,2.59,5.33.1.38.43.72.86.72.29,0,.62-.19.86-.72,1.06-2.3.19-4.94,3.31-5.62.48-.1.96-.14,1.39-.14,1.2,0,2.26.34,3.07,1.15.29.29.43.77.43,1.3,0,.91-.43,1.82-1.34,1.82-.14,0-.34,0-.53-.1Z"/><path class="cls-1" d="M1070.88,486.59c-2.21,0-4.32-1.01-5.95-2.83-1.3-1.44-2.02-3.26-2.02-4.85,0-3.7,1.92-5.95,4.9-7.82,1.78-1.1,2.78-1.58,4.18-3.02.82-.86,1.68-1.2,2.45-1.2,1.06,0,1.97.67,2.3,1.63.91,2.59,2.64,4.99,2.64,7.92,0,1.39-.38,2.74-.82,3.79-1.39,3.55-4.08,6.38-7.68,6.38ZM1075.2,473.2c-.43,0-.86.96-1.73.96-.38,0-.72-.14-1.1-.43-.38-.29-.67-.62-1.2-.62-.38,0-.96.24-1.92.86-1.54,1.06-2.45,2.21-2.45,4.22,0,1.78.34,2.98,1.39,3.84.82.72,2.21,1.06,3.22,1.06,1.97,0,3.36-1.1,4.46-2.93.58-.91.77-1.92.77-2.93,0-1.39-.43-2.74-1.06-3.7-.14-.24-.29-.34-.38-.34Z"/><path class="cls-1" d="M1106.11,485.11c-.82,0-1.54-.29-2.11-.86-1.82-1.82-1.92-3.55-3.07-5.86-.19-.38-.82-.82-1.44-.82-.38,0-.77.19-1.06.62-2.21,3.46-3.89,5.62-7.58,7.3-1.63.77-3.02,1.06-4.22,1.06-3.02,0-4.61-1.92-4.61-3.89,0-.77.24-1.54.77-2.16,3.98-5.04,9.6-7.78,14.11-10.37.58-.34,1.25-.72,1.25-1.39v-.05c-.1-2.78-.48-5.38-1.06-8.35v-.19c0-.62.53-1.15,1.25-1.15.34,0,.77.14,1.15.48,1.63,1.39,3.12,3.7,3.17,6.53.1,4.22.34,14.59,5.28,16.8.58.29.82.58.82.86,0,.48-.58.91-1.2,1.15-.48.19-1.01.29-1.44.29ZM1096.51,473.59c-3.02,1.73-7.58,4.18-10.46,7.49-.24.29-.34.62-.34.96,0,.77.48,1.49,1.63,1.49.38,0,.91-.1,1.49-.34,4.37-1.73,6.48-5.38,8.83-8.16.29-.34.38-.62.38-.86,0-.48-.43-.72-.91-.72-.19,0-.43.05-.62.14Z"/><path class="cls-1" d="M1130.98,487.79c-1.58-1.25-2.11-4.22-3.31-6.91-.43-1.01-.82-1.63-1.2-1.63-.29,0-.58.34-.96,1.06-1.68,3.26-3.31,5.52-6.29,5.52-1.2,0-2.4-.34-3.41-1.15-2.11-1.73-2.83-5.18-2.83-9.03,0-2.78.38-5.76.86-8.3.1-.53.72-.77,1.44-.77,1.06,0,2.21.53,2.21,1.58,0,.1,0,.19-.05.34-.34,1.49-.72,3.55-.72,5.76,0,1.97.29,4.13,1.15,6.19.43,1.1,1.06,1.49,1.63,1.49.82,0,1.58-.67,2.11-1.34,1.68-2.16,3.07-4.51,3.07-7.58,0-.34-.05-.72-.05-1.15-.05-.77,1.15-1.44,2.21-1.44.86,0,1.68.38,1.97,1.39,1.39,4.94,2.83,10.95,4.75,12.38.62.48.86,1.01.86,1.49,0,1.25-1.54,2.35-2.69,2.35-.29,0-.58-.1-.77-.24Z"/><path class="cls-1" d="M1157.9,472.43c-.62,0-1.3-.43-1.54-1.3-.14-.58-.86-.77-1.87-.77-1.97,0-5.18.91-7.44,1.92-3.36,1.49-6.34,2.5-7.1,6.05-.05.14-.05.29-.05.43,0,2.4,3.89,4.99,7.15,5.71.82.19,1.54.24,2.11.24,2.11,0,3.07-.91,5.38-1.2h.24c.77,0,1.34.43,1.34.96,0,.48-.38.96-1.3,1.34-1.82.77-4.08,1.82-6.62,1.82-.67,0-1.39-.1-2.11-.29-5.42-1.39-9.5-4.08-9.5-8.98v-.53c.29-5.04,5.42-6.77,9.84-8.45,3.55-1.34,3.98-1.2,9.55-2.02.19-.05.43-.05.62-.05,1.44,0,2.83.77,2.83,2.64,0,.34-.05.77-.19,1.25-.24.82-.77,1.2-1.34,1.2Z"/><path class="cls-1" d="M1172.11,475.65c-1.15,0-2.26-.1-3.07-.1h-.05c-.72,0-1.44.48-1.39,1.2v.1c.24,6.77,1.87,6.77,2.16,8.79v.19c0,.91-.96,1.73-2.02,1.73-.58,0-1.2-.24-1.73-.91-1.82-2.35-.86-7.82-1.73-9.79-.34-.77-.29-1.54-1.01-1.87-.91-.43-1.58-.62-2.74-1.44-.38-.29-.58-.77-.58-1.3,0-.86.43-1.73,1.15-1.87.34-.05.62-.05.91-.05.34,0,.67.05,1.1.05.62,0,1.39-.43,1.3-1.01-.67-4.08-1.44-5.42-1.44-8.93,0-.91.67-1.3,1.49-1.3,1.39,0,3.31,1.1,3.31,2.59,0,.14,0,.29-.05.43-.38,1.49-.53,2.64-.53,3.84,0,1.34.19,2.69.38,4.37.1.82.67,1.25,1.44,1.3,1.54.05,2.74.1,3.74.1,4.13,0,4.18-.48,5.18-1.1.29-.19.53-.24.77-.24.62,0,1.01.67,1.01,1.39,0,.58-.19,1.15-.62,1.58-1.87,1.92-4.61,2.26-7.01,2.26Z"/><path class="cls-1" d="M1177.44,494.28c-.34,0-.62-.19-.62-.53,0-.19.14-.48.38-.77,5.38-6.19,9.07-11.57,9.07-18.96,0-1.1-.05-2.26-.24-3.5-.86-5.9-2.69-9.31-6.82-13.63-.19-.19-.29-.43-.29-.62,0-.53.58-1.01,1.15-1.01.19,0,.38.05.58.19,4.8,3.94,7.06,8.16,7.78,14.5.14,1.2.19,2.4.19,3.5,0,8.3-3.65,14.55-10.37,20.5-.29.24-.58.34-.82.34Z"/><path class="cls-1" d="M147.45,207.89c7.95-23.62,18.45-46.34,31.22-67.74s27.61-41.22,44.47-59.39c9.49-10.23,19.6-19.89,30.24-28.92,1.47-1.25-.66-3.36-2.12-2.12-19.1,16.2-36.4,34.45-51.66,54.3-15.26,19.85-28.43,41.32-39.19,63.93-6.05,12.72-11.35,25.8-15.84,39.15-.62,1.83,2.28,2.62,2.89.8h0Z"/><path class="cls-1" d="M137.8,292.8c2.63,14.38,6.54,28.51,11.66,42.21,5.12,13.7,11.39,26.96,18.73,39.6s15.75,24.68,25.08,35.94c9.32,11.26,19.59,21.74,30.67,31.27,11.08,9.53,22.98,18.12,35.55,25.57,1.58.94,3.17,1.85,4.77,2.76,1.68.95,3.2-1.64,1.51-2.59-12.62-7.11-24.61-15.34-35.79-24.56-11.18-9.22-21.56-19.4-31.04-30.37-9.44-10.92-17.95-22.64-25.45-34.97-7.52-12.38-14.04-25.38-19.37-38.85s-9.51-27.4-12.42-41.59c-.36-1.74-.69-3.48-1.01-5.22-.35-1.9-3.24-1.09-2.89.8h0Z"/><path class="cls-1" d="M170.96,248.32c21.27-1.22,42.54-2.43,63.81-3.65,6.04-.35,12.08-.69,18.12-1.04,1.92-.11,1.93-3.11,0-3-21.27,1.22-42.54,2.43-63.81,3.65-6.04.35-12.08.69-18.12,1.04-1.92.11-1.93,3.11,0,3h0Z"/><path class="cls-1" d="M597.67,435.3c14.49-15.96,29.19-31.83,45.62-45.83,15.69-13.38,33.08-25.04,52.24-32.82,10.6-4.3,21.73-7.43,33.08-8.91.81-.11,1.49-.61,1.5-1.5,0-.73-.7-1.6-1.5-1.5-20.56,2.67-40.09,10.37-57.8,21.02-18.46,11.1-34.82,25.32-49.98,40.53-8.68,8.72-17.01,17.78-25.28,26.89-1.29,1.43.82,3.55,2.12,2.12h0Z"/><path class="cls-1" d="M600.46,469.12c15.31-7.02,31.06-13.08,47.11-18.19,16.18-5.15,32.66-9.35,49.32-12.58,9.52-1.85,19.09-3.39,28.71-4.6,1.89-.24,1.91-3.24,0-3-17.23,2.18-34.32,5.32-51.18,9.49-16.61,4.1-32.99,9.18-49,15.24-8.95,3.38-17.78,7.08-26.48,11.06-1.75.8-.23,3.39,1.51,2.59h0Z"/><path class="cls-1" d="M595.4,503.63c15.23,9.57,31.68,17.17,48.81,22.67,17.13,5.49,34.95,8.85,52.9,9.98,10.1.64,20.24.55,30.33-.26,1.91-.15,1.93-3.15,0-3-17.74,1.42-35.65.61-53.19-2.43s-34.72-8.21-50.97-15.47c-9.11-4.07-17.93-8.78-26.38-14.08-1.64-1.03-3.15,1.56-1.51,2.59h0Z"/><path class="cls-1" d="M597.16,540.64c3.47,9.25,9.63,17.12,16.74,23.87,7.24,6.87,15.38,12.87,23.9,18.04,17.11,10.4,36.28,17.46,56.04,20.72,11.11,1.83,22.39,2.49,33.64,1.89,1.92-.1,1.93-3.1,0-3-19.53,1.05-39.15-1.72-57.67-8-18.39-6.23-35.77-15.93-50.42-28.72-8.1-7.07-15.52-15.41-19.34-25.6-.67-1.79-3.57-1.02-2.89.8h0Z"/></svg>