<?xml version="1.0" encoding="UTF-8"?><svg id="Layer_2" xmlns="http://www.w3.org/2000/svg" viewBox="0 0 1134 193.39"><defs><style>.cls-1{letter-spacing:0em;}.cls-2{letter-spacing:0em;}.cls-3,.cls-4,.cls-5{fill:gray;}.cls-3,.cls-5,.cls-6,.cls-7,.cls-8{font-family:MyriadPro-Regular, 'Myriad Pro';}.cls-3,.cls-7{font-size:24px;}.cls-9{letter-spacing:0em;}.cls-10{letter-spacing:0em;}.cls-11{fill:#999;}.cls-5,.cls-6,.cls-8{font-size:30px;}.cls-6{fill:#333;}.cls-12{stroke:#333;}.cls-12,.cls-13,.cls-14,.cls-15,.cls-16,.cls-17{fill:none;stroke-width:2px;}.cls-13,.cls-14,.cls-15,.cls-16,.cls-17{stroke:#999;}.cls-18{letter-spacing:.02em;}.cls-19{letter-spacing:-.01em;}.cls-20{letter-spacing:0em;}.cls-21{letter-spacing:0em;}.cls-22{letter-spacing:0em;}.cls-14{stroke-dasharray:0 0 4.1 4.1;}.cls-23{letter-spacing:0em;}.cls-24{letter-spacing:0em;}.cls-15{stroke-dasharray:0 0 4.21 4.21;}.cls-25{letter-spacing:-.05em;}.cls-26{letter-spacing:0em;}.cls-27{letter-spacing:-.08em;}.cls-28{letter-spacing:-.01em;}.cls-16{stroke-dasharray:0 0 3.74 3.74;}.cls-29{letter-spacing:0em;}.cls-30{letter-spacing:0em;}.cls-17{stroke-dasharray:0 0 3.95 3.95;}.cls-31{letter-spacing:-.01em;}</style></defs><g id="Layer_1-2"><path class="cls-4" d="M14.25,188.57H80.87c-1.76-10.78-2.21-19.26,.62-29.54,6.26-.21,20.27,3.29,29.02,1.54,1.75-5.25,3.5-12.25,3.5-17.5v-3.5l3.5-1.75c.44-7,.22-8.02,0-14,1.75,0,7,0,8.75-1.75-1.75-7-8.53-17.06-14-24.5,5.47-41.56-19.25-59.5-59.5-59.5C21.25,38.07,.25,62.56,.25,88.82s12.25,38.5,24.28,50.97c-.32,19.38-3.69,32.98-10.28,48.78h0Z"/><path class="cls-4" d="M1119.75,188.57c-6.59-15.8-9.96-29.4-10.28-48.78,12.03-12.47,24.28-24.72,24.28-50.97,0-26.25-21-50.75-52.5-50.75-40.25,0-64.97,17.94-59.5,59.5-5.47,7.44-12.25,17.5-14,24.5,1.75,1.75,7,1.75,8.75,1.75-.22,5.98-.44,7,0,14l3.5,1.75v3.5c0,5.25,1.75,12.25,3.5,17.5,8.75,1.75,22.75-1.75,29.02-1.54,2.83,10.29,2.38,18.77,.62,29.54h66.62s0,0,0,0Z"/><g><text class="cls-7" transform="translate(1023.62 22.02)"><tspan class="cls-19" x="0" y="0">A</tspan><tspan class="cls-1" x="14.4" y="0">udien</tspan><tspan class="cls-20" x="72.12" y="0">c</tspan><tspan x="82.73" y="0">e</tspan></text><text class="cls-3" transform="translate(1023.62 22.02)"><tspan class="cls-19" x="0" y="0">A</tspan><tspan class="cls-1" x="14.4" y="0">udien</tspan><tspan class="cls-20" x="72.12" y="0">c</tspan><tspan x="82.73" y="0">e</tspan></text></g><g><text class="cls-7" transform="translate(44.22 22.02)"><tspan class="cls-27" x="0" y="0">Y</tspan><tspan x="11.16" y="0">ou</tspan></text><text class="cls-3" transform="translate(44.22 22.02)"><tspan class="cls-27" x="0" y="0">Y</tspan><tspan x="11.16" y="0">ou</tspan></text></g></g><g id="Transformation"><g><text class="cls-8" transform="translate(272.24 123.97)"><tspan class="cls-22" x="0" y="0">S</tspan><tspan x="14.97" y="0">ou</tspan><tspan class="cls-29" x="47.97" y="0">r</tspan><tspan class="cls-21" x="57.48" y="0">c</tspan><tspan x="70.74" y="0">e</tspan></text><text class="cls-6" transform="translate(272.24 123.97)"><tspan class="cls-22" x="0" y="0">S</tspan><tspan x="14.97" y="0">ou</tspan><tspan class="cls-29" x="47.97" y="0">r</tspan><tspan class="cls-21" x="57.48" y="0">c</tspan><tspan x="70.74" y="0">e</tspan></text><rect class="cls-12" x="249.57" y="88.86" width="131.1" height="52.61"/></g><g><text class="cls-8" transform="translate(780.52 123.97)"><tspan class="cls-10" x="0" y="0">R</tspan><tspan x="16.26" y="0">esult</tspan></text><text class="cls-5" transform="translate(780.52 123.97)"><tspan class="cls-10" x="0" y="0">R</tspan><tspan x="16.26" y="0">esult</tspan></text><g><polyline class="cls-13" points="753.32 139.47 753.32 141.47 755.32 141.47"/><line class="cls-14" x1="759.42" y1="141.47" x2="880.38" y2="141.47"/><polyline class="cls-13" points="882.43 141.47 884.43 141.47 884.43 139.47"/><line class="cls-16" x1="884.43" y1="135.73" x2="884.43" y2="92.73"/><polyline class="cls-13" points="884.43 90.86 884.43 88.86 882.43 88.86"/><line class="cls-14" x1="878.33" y1="88.86" x2="757.37" y2="88.86"/><polyline class="cls-13" points="755.32 88.86 753.32 88.86 753.32 90.86"/><line class="cls-16" x1="753.32" y1="94.6" x2="753.32" y2="137.6"/></g></g><g><text class="cls-8" transform="translate(471.5 123.97)"><tspan class="cls-25" x="0" y="0">T</tspan><tspan class="cls-30" x="13.56" y="0">r</tspan><tspan x="23.22" y="0">ans</tspan><tspan class="cls-31" x="66.21" y="0">f</tspan><tspan x="74.58" y="0">o</tspan><tspan class="cls-10" x="91.05" y="0">r</tspan><tspan x="100.98" y="0">m</tspan><tspan class="cls-23" x="126" y="0">a</tspan><tspan x="140.34" y="0">t</tspan><tspan class="cls-18" x="150.27" y="0">i</tspan><tspan x="157.89" y="0">on</tspan></text><text class="cls-6" transform="translate(471.5 123.97)"><tspan class="cls-25" x="0" y="0">T</tspan><tspan class="cls-30" x="13.56" y="0">r</tspan><tspan x="23.22" y="0">ans</tspan><tspan class="cls-31" x="66.21" y="0">f</tspan><tspan x="74.58" y="0">o</tspan><tspan class="cls-10" x="91.05" y="0">r</tspan><tspan x="100.98" y="0">m</tspan><tspan class="cls-23" x="126" y="0">a</tspan><tspan x="140.34" y="0">t</tspan><tspan class="cls-18" x="150.27" y="0">i</tspan><tspan x="157.89" y="0">on</tspan></text><rect class="cls-12" x="450.37" y="88.86" width="233.27" height="52.61"/></g><g><line class="cls-13" x1="387" y1="117.36" x2="389" y2="117.36"/><line class="cls-15" x1="393.21" y1="117.36" x2="424.82" y2="117.36"/><line class="cls-13" x1="426.93" y1="117.36" x2="428.93" y2="117.36"/><path class="cls-11" d="M441,117.36c-5.68,2.11-12.73,5.7-17.09,9.51l3.44-9.51-3.44-9.51c4.37,3.81,11.42,7.4,17.09,9.51Z"/></g><g><line class="cls-13" x1="693" y1="117.36" x2="695" y2="117.36"/><line class="cls-15" x1="699.21" y1="117.36" x2="730.82" y2="117.36"/><line class="cls-13" x1="732.93" y1="117.36" x2="734.93" y2="117.36"/><path class="cls-11" d="M747,117.36c-5.68,2.11-12.73,5.7-17.09,9.51l3.44-9.51-3.44-9.51c4.37,3.81,11.42,7.4,17.09,9.51Z"/></g><g><line class="cls-13" x1="144" y1="117.36" x2="146" y2="117.36"/><line class="cls-17" x1="149.95" y1="117.36" x2="226.96" y2="117.36"/><line class="cls-13" x1="228.93" y1="117.36" x2="230.93" y2="117.36"/><path class="cls-11" d="M243,117.36c-5.68,2.11-12.73,5.7-17.09,9.51l3.44-9.51-3.44-9.51c4.37,3.81,11.42,7.4,17.09,9.51Z"/></g><g><line class="cls-13" x1="891" y1="117.36" x2="893" y2="117.36"/><line class="cls-17" x1="896.95" y1="117.36" x2="973.96" y2="117.36"/><line class="cls-13" x1="975.93" y1="117.36" x2="977.93" y2="117.36"/><path class="cls-11" d="M990,117.36c-5.68,2.11-12.73,5.7-17.09,9.51l3.44-9.51-3.44-9.51c4.37,3.81,11.42,7.4,17.09,9.51Z"/></g><g><text class="cls-7" transform="translate(899.3 187.37)"><tspan class="cls-28" x="0" y="0">P</tspan><tspan x="12.41" y="0">ublish</tspan></text><text class="cls-3" transform="translate(899.3 187.37)"><tspan class="cls-28" x="0" y="0">P</tspan><tspan x="12.41" y="0">ublish</tspan></text></g><g><text class="cls-7" transform="translate(162.11 187.39)"><tspan class="cls-2" x="0" y="0">C</tspan><tspan class="cls-26" x="13.85" y="0">r</tspan><tspan x="21.46" y="0">e</tspan><tspan class="cls-24" x="33.48" y="0">a</tspan><tspan class="cls-9" x="44.95" y="0">t</tspan><tspan class="cls-1" x="52.75" y="0">e</tspan></text><text class="cls-3" transform="translate(162.11 187.39)"><tspan class="cls-2" x="0" y="0">C</tspan><tspan class="cls-26" x="13.85" y="0">r</tspan><tspan x="21.46" y="0">e</tspan><tspan class="cls-24" x="33.48" y="0">a</tspan><tspan class="cls-9" x="44.95" y="0">t</tspan><tspan class="cls-1" x="52.75" y="0">e</tspan></text></g></g></svg>