<?xml version="1.0" encoding="UTF-8"?>
<svg id="Layer_2" data-name="Layer 2" xmlns="http://www.w3.org/2000/svg" width="234" height="234" xmlns:xlink="http://www.w3.org/1999/xlink" viewBox="0 0 234 234">
  <defs>
    <clipPath id="clippath">
      <rect width="234" height="234" style="fill: none;"/>
    </clipPath>
    <linearGradient id="_ÂÁ_Ï_ÌÌ_È_ËÂÌÚ_8" data-name="¡ÂÁ˚ÏˇÌÌ˚È „‡‰ËÂÌÚ 8" x1="325.95" y1="160.93" x2="305.67" y2="90.42" gradientTransform="translate(-34.69 15.06) rotate(22.64)" gradientUnits="userSpaceOnUse">
      <stop offset="0" stop-color="#3b2621"/>
      <stop offset=".39" stop-color="#3e2822"/>
      <stop offset=".71" stop-color="#482e29"/>
      <stop offset="1" stop-color="#593a33"/>
    </linearGradient>
    <linearGradient id="_ÂÁ_Ï_ÌÌ_È_ËÂÌÚ_8-2" data-name="¡ÂÁ˚ÏˇÌÌ˚È „‡‰ËÂÌÚ 8" x1="-561.25" y1="506.83" x2="-581.53" y2="436.33" gradientTransform="translate(-673.29 -4.06) rotate(160.79) scale(1 -1)" xlink:href="#_ÂÁ_Ï_ÌÌ_È_ËÂÌÚ_8"/>
    <linearGradient id="_ÂÁ_Ï_ÌÌ_È_ËÂÌÚ_8-3" data-name="¡ÂÁ˚ÏˇÌÌ˚È „‡‰ËÂÌÚ 8" x1="9.32" y1="446.69" x2="90.61" y2="-24.79" gradientTransform="translate(88.01 -121.5) rotate(1.71)" xlink:href="#_ÂÁ_Ï_ÌÌ_È_ËÂÌÚ_8"/>
    <linearGradient id="linear-gradient" x1="69.56" y1="190.62" x2="155.74" y2="216.83" gradientUnits="userSpaceOnUse">
      <stop offset="0" stop-color="#f0c499"/>
      <stop offset=".52" stop-color="#f1c69b"/>
      <stop offset=".85" stop-color="#f4cea4"/>
      <stop offset="1" stop-color="#f7d4ab"/>
    </linearGradient>
    <linearGradient id="linear-gradient-2" x1="17.4" y1="338.31" x2="123.95" y2="403.05" gradientTransform="translate(-93.94 -109.91) rotate(-16.11)" xlink:href="#linear-gradient"/>
    <linearGradient id="linear-gradient-3" x1="329.75" y1="618.1" x2="212.73" y2="650.98" gradientTransform="translate(61.87 -453.96) rotate(13.36)" xlink:href="#linear-gradient"/>
    <linearGradient id="linear-gradient-4" x1="84.35" y1="250.05" x2="221.14" y2="212.77" xlink:href="#linear-gradient"/>
    <linearGradient id="_ÂÁ_Ï_ÌÌ_È_ËÂÌÚ_29" data-name="¡ÂÁ˚ÏˇÌÌ˚È „‡‰ËÂÌÚ 29" x1="124.55" y1="252.35" x2="121" y2="218.04" gradientUnits="userSpaceOnUse">
      <stop offset="0" stop-color="#d6b01f"/>
      <stop offset=".42" stop-color="#e0bc26"/>
      <stop offset="1" stop-color="#f5d534"/>
    </linearGradient>
    <linearGradient id="linear-gradient-5" x1="116.03" y1="165.29" x2="125.37" y2="204.87" gradientUnits="userSpaceOnUse">
      <stop offset="0" stop-color="#dba379"/>
      <stop offset=".49" stop-color="#e3b086"/>
      <stop offset="1" stop-color="#f0c499"/>
    </linearGradient>
    <linearGradient id="_ÂÁ_Ï_ÌÌ_È_ËÂÌÚ_30" data-name="¡ÂÁ˚ÏˇÌÌ˚È „‡‰ËÂÌÚ 30" x1="262.42" y1="390.64" x2="242.47" y2="210.35" gradientUnits="userSpaceOnUse">
      <stop offset="0" stop-color="#f5d534"/>
      <stop offset=".47" stop-color="#f7d942"/>
      <stop offset="1" stop-color="#f9de4f"/>
    </linearGradient>
    <linearGradient id="_ÂÁ_Ï_ÌÌ_È_ËÂÌÚ_14" data-name="¡ÂÁ˚ÏˇÌÌ˚È „‡‰ËÂÌÚ 14" x1="130.49" y1="21.51" x2="130.4" y2="21.25" gradientTransform="translate(-12.26 2.24) rotate(-.19)" gradientUnits="userSpaceOnUse">
      <stop offset="0" stop-color="#cb8076"/>
      <stop offset=".31" stop-color="#b76f65"/>
      <stop offset=".95" stop-color="#86443a"/>
      <stop offset="1" stop-color="#824137"/>
    </linearGradient>
    <linearGradient id="_ÂÁ_Ï_ÌÌ_È_ËÂÌÚ_18" data-name="¡ÂÁ˚ÏˇÌÌ˚È „‡‰ËÂÌÚ 18" x1="54.77" y1="145.05" x2="53.41" y2="97.07" gradientUnits="userSpaceOnUse">
      <stop offset="0" stop-color="#dba379"/>
      <stop offset=".49" stop-color="#e3b086"/>
      <stop offset="1" stop-color="#f0c499"/>
    </linearGradient>
    <linearGradient id="linear-gradient-6" x1="-2950.21" y1="297.12" x2="-2948.58" y2="354.35" gradientTransform="translate(3005.69 -7.78) rotate(-.19)" xlink:href="#linear-gradient-5"/>
    <linearGradient id="_ÂÁ_Ï_ÌÌ_È_ËÂÌÚ_18-2" data-name="¡ÂÁ˚ÏˇÌÌ˚È „‡‰ËÂÌÚ 18" x1="184.35" y1="141.37" x2="182.99" y2="93.4" xlink:href="#_ÂÁ_Ï_ÌÌ_È_ËÂÌÚ_18"/>
    <linearGradient id="linear-gradient-7" x1="-2119.75" y1="297.34" x2="-2118.11" y2="354.57" gradientTransform="translate(-1938.87 8.32) rotate(179.81) scale(1 -1)" xlink:href="#linear-gradient-5"/>
    <linearGradient id="_ÂÁ_Ï_ÌÌ_È_ËÂÌÚ_384" data-name="¡ÂÁ˚ÏˇÌÌ˚È „‡‰ËÂÌÚ 384" x1="129.86" y1="38.82" x2="129.63" y2="193.79" gradientTransform="translate(-12.26 2.24) rotate(-.19)" gradientUnits="userSpaceOnUse">
      <stop offset="0" stop-color="#ffd9b3"/>
      <stop offset=".32" stop-color="#f9d5ad"/>
      <stop offset="1" stop-color="#f7d4ab"/>
    </linearGradient>
    <linearGradient id="linear-gradient-8" x1="101.79" y1="136.78" x2="94.73" y2="93.11" gradientTransform="translate(-12.26 2.24) rotate(-.19)" gradientUnits="userSpaceOnUse">
      <stop offset="0" stop-color="#f7d4ab"/>
      <stop offset=".52" stop-color="#f5d1a8"/>
      <stop offset=".85" stop-color="#f2c99f"/>
      <stop offset="1" stop-color="#f0c499"/>
    </linearGradient>
    <radialGradient id="_ÂÁ_Ï_ÌÌ_È_ËÂÌÚ_2" data-name="¡ÂÁ˚ÏˇÌÌ˚È „‡‰ËÂÌÚ 2" cx="-40.64" cy="142.34" fx="-40.64" fy="142.34" r="29.46" gradientTransform="translate(112.79 1.94) rotate(-.19) scale(.79 1)" gradientUnits="userSpaceOnUse">
      <stop offset="0" stop-color="#f9b38e"/>
      <stop offset=".61" stop-color="#f7c59e"/>
      <stop offset="1" stop-color="#f7d4ab"/>
    </radialGradient>
    <linearGradient id="linear-gradient-9" x1="115.25" y1="172.63" x2="141.34" y2="172.63" gradientTransform="translate(-12.26 2.24) rotate(-.19)" gradientUnits="userSpaceOnUse">
      <stop offset="0" stop-color="#ffd9b3"/>
      <stop offset=".68" stop-color="#fcd7b0"/>
      <stop offset="1" stop-color="#f7d4ab"/>
    </linearGradient>
    <linearGradient id="_ÂÁ_Ï_ÌÌ_È_ËÂÌÚ_18-3" data-name="¡ÂÁ˚ÏˇÌÌ˚È „‡‰ËÂÌÚ 18" x1="176.58" y1="51.04" x2="88.4" y2="123.16" gradientTransform="translate(-12.26 2.24) rotate(-.19)" xlink:href="#_ÂÁ_Ï_ÌÌ_È_ËÂÌÚ_18"/>
    <linearGradient id="_ÂÁ_Ï_ÌÌ_È_ËÂÌÚ_72" data-name="¡ÂÁ˚ÏˇÌÌ˚È „‡‰ËÂÌÚ 72" x1="79.11" y1="161.74" x2="74.63" y2="86.28" gradientTransform="translate(-12.26 2.24) rotate(-.19)" gradientUnits="userSpaceOnUse">
      <stop offset="0" stop-color="#f9b38e"/>
      <stop offset=".5" stop-color="#f7b690"/>
      <stop offset=".9" stop-color="#f2c096"/>
      <stop offset="1" stop-color="#f0c499"/>
    </linearGradient>
    <linearGradient id="linear-gradient-10" x1="162.48" y1="130.62" x2="156.61" y2="98.11" xlink:href="#linear-gradient-8"/>
    <linearGradient id="_ÂÁ_Ï_ÌÌ_È_ËÂÌÚ_18-4" data-name="¡ÂÁ˚ÏˇÌÌ˚È „‡‰ËÂÌÚ 18" x1="68.05" y1="141.42" x2="99.46" y2="141.42" gradientTransform="translate(-12.26 2.24) rotate(-.19)" xlink:href="#_ÂÁ_Ï_ÌÌ_È_ËÂÌÚ_18"/>
    <radialGradient id="radial-gradient" cx="1101.12" cy="138.77" fx="1101.12" fy="138.77" r="32.04" gradientTransform="translate(1030.42 -1.65) rotate(179.81) scale(.79 -1)" gradientUnits="userSpaceOnUse">
      <stop offset="0" stop-color="#f9b38e"/>
      <stop offset=".61" stop-color="#f7c59e"/>
      <stop offset="1" stop-color="#f7d4ab"/>
    </radialGradient>
    <linearGradient id="_ÂÁ_Ï_ÌÌ_È_ËÂÌÚ_72-2" data-name="¡ÂÁ˚ÏˇÌÌ˚È „‡‰ËÂÌÚ 72" x1="-1214.22" y1="158.28" x2="-1218.37" y2="88.26" gradientTransform="translate(-1045.91 5.36) rotate(179.81) scale(1 -1)" xlink:href="#_ÂÁ_Ï_ÌÌ_È_ËÂÌÚ_72"/>
    <linearGradient id="linear-gradient-11" x1="131.36" y1="152.16" x2="129.17" y2="141.2" xlink:href="#linear-gradient-8"/>
    <linearGradient id="linear-gradient-12" x1="129.63" y1="140.32" x2="129.57" y2="148.93" gradientTransform="translate(-12.26 2.24) rotate(-.19)" xlink:href="#linear-gradient-5"/>
    <linearGradient id="_ÂÁ_Ï_ÌÌ_È_ËÂÌÚ_23" data-name="¡ÂÁ˚ÏˇÌÌ˚È „‡‰ËÂÌÚ 23" x1="129.11" y1="128.61" x2="129.23" y2="137.44" gradientTransform="translate(-12.26 2.24) rotate(-.19)" gradientUnits="userSpaceOnUse">
      <stop offset="0" stop-color="#f7d4ab"/>
      <stop offset="1" stop-color="#ffd9b3"/>
    </linearGradient>
    <linearGradient id="_ÂÁ_Ï_ÌÌ_È_ËÂÌÚ_23-2" data-name="¡ÂÁ˚ÏˇÌÌ˚È „‡‰ËÂÌÚ 23" x1="161.69" y1="141.37" x2="193.12" y2="141.37" xlink:href="#_ÂÁ_Ï_ÌÌ_È_ËÂÌÚ_23"/>
    <linearGradient id="_ÂÁ_Ï_ÌÌ_È_ËÂÌÚ_18-5" data-name="¡ÂÁ˚ÏˇÌÌ˚È „‡‰ËÂÌÚ 18" x1="131.1" y1="177.5" x2="129.06" y2="207.16" gradientTransform="translate(-12.26 2.24) rotate(-.19)" xlink:href="#_ÂÁ_Ï_ÌÌ_È_ËÂÌÚ_18"/>
    <linearGradient id="_ÂÁ_Ï_ÌÌ_È_ËÂÌÚ_126" data-name="¡ÂÁ˚ÏˇÌÌ˚È „‡‰ËÂÌÚ 126" x1="-729.52" y1="389.67" x2="-728.74" y2="389.67" gradientTransform="translate(9355.27 5197.73) rotate(.53) scale(12.79 -12.79)" gradientUnits="userSpaceOnUse">
      <stop offset="0" stop-color="#ffd9b3"/>
      <stop offset=".52" stop-color="#fccfa9"/>
      <stop offset="1" stop-color="#f8c39c"/>
    </linearGradient>
    <linearGradient id="_ÂÁ_Ï_ÌÌ_È_ËÂÌÚ_126-2" data-name="¡ÂÁ˚ÏˇÌÌ˚È „‡‰ËÂÌÚ 126" x1="-800.63" y1="388.73" x2="-799.85" y2="388.73" gradientTransform="translate(-9995.76 5261.4) rotate(179.09) scale(12.79)" xlink:href="#_ÂÁ_Ï_ÌÌ_È_ËÂÌÚ_126"/>
    <linearGradient id="linear-gradient-13" x1="174.42" y1="132.48" x2="203.59" y2="132.48" gradientTransform="translate(-32.3 -35.81) rotate(.54)" xlink:href="#linear-gradient-9"/>
    <linearGradient id="_ÂÁ_Ï_ÌÌ_È_ËÂÌÚ_11" data-name="¡ÂÁ˚ÏˇÌÌ˚È „‡‰ËÂÌÚ 11" x1="-336.98" y1="687.43" x2="-292.63" y2="686.39" gradientTransform="translate(571.15 -490.94) rotate(14.86)" gradientUnits="userSpaceOnUse">
      <stop offset="0" stop-color="#3b2621"/>
      <stop offset=".41" stop-color="#3c2722"/>
      <stop offset=".56" stop-color="#432c25"/>
      <stop offset=".66" stop-color="#4f362c"/>
      <stop offset=".75" stop-color="#604335"/>
      <stop offset=".82" stop-color="#765441"/>
      <stop offset=".88" stop-color="#916950"/>
      <stop offset=".94" stop-color="#b18262"/>
      <stop offset=".99" stop-color="#d69f76"/>
      <stop offset="1" stop-color="#dba379"/>
    </linearGradient>
    <linearGradient id="_ÂÁ_Ï_ÌÌ_È_ËÂÌÚ_11-2" data-name="¡ÂÁ˚ÏˇÌÌ˚È „‡‰ËÂÌÚ 11" x1="-1772.41" y1="-317.18" x2="-1728.06" y2="-318.22" gradientTransform="translate(-1483.72 812.72) rotate(166.41) scale(1 -1)" xlink:href="#_ÂÁ_Ï_ÌÌ_È_ËÂÌÚ_11"/>
    <linearGradient id="_ÂÁ_Ï_ÌÌ_È_ËÂÌÚ_8-4" data-name="¡ÂÁ˚ÏˇÌÌ˚È „‡‰ËÂÌÚ 8" x1="127.86" y1="125.03" x2="214.55" y2="232.09" gradientTransform="translate(-12.26 2.24) rotate(-.19)" xlink:href="#_ÂÁ_Ï_ÌÌ_È_ËÂÌÚ_8"/>
    <linearGradient id="_ÂÁ_Ï_ÌÌ_È_ËÂÌÚ_8-5" data-name="¡ÂÁ˚ÏˇÌÌ˚È „‡‰ËÂÌÚ 8" x1="226.13" y1="263.36" x2="215.5" y2="226.4" gradientTransform="translate(-12.26 2.24) rotate(-.19)" xlink:href="#_ÂÁ_Ï_ÌÌ_È_ËÂÌÚ_8"/>
    <linearGradient id="_ÂÁ_Ï_ÌÌ_È_ËÂÌÚ_8-6" data-name="¡ÂÁ˚ÏˇÌÌ˚È „‡‰ËÂÌÚ 8" x1="-914.07" y1="260.43" x2="-924.7" y2="223.47" gradientTransform="translate(-889.58 4.84) rotate(179.81) scale(1 -1)" xlink:href="#_ÂÁ_Ï_ÌÌ_È_ËÂÌÚ_8"/>
    <linearGradient id="_ÂÁ_Ï_ÌÌ_È_ËÂÌÚ_8-7" data-name="¡ÂÁ˚ÏˇÌÌ˚È „‡‰ËÂÌÚ 8" x1="87.66" y1="144.78" x2="78.93" y2="227.75" gradientTransform="translate(-12.26 2.24) rotate(-.19)" xlink:href="#_ÂÁ_Ï_ÌÌ_È_ËÂÌÚ_8"/>
    <linearGradient id="_ÂÁ_Ï_ÌÌ_È_ËÂÌÚ_46" data-name="¡ÂÁ˚ÏˇÌÌ˚È „‡‰ËÂÌÚ 46" x1="194.66" y1="256.41" x2="178.22" y2="119.69" gradientTransform="translate(-12.26 2.24) rotate(-.19)" gradientUnits="userSpaceOnUse">
      <stop offset="0" stop-color="#593a33"/>
      <stop offset=".29" stop-color="#482e29"/>
      <stop offset=".61" stop-color="#3e2822"/>
      <stop offset="1" stop-color="#3b2621"/>
    </linearGradient>
    <linearGradient id="_ÂÁ_Ï_ÌÌ_È_ËÂÌÚ_8-8" data-name="¡ÂÁ˚ÏˇÌÌ˚È „‡‰ËÂÌÚ 8" x1="180.53" y1="165.8" x2="162.43" y2="15.32" gradientTransform="translate(-12.26 2.24) rotate(-.19)" xlink:href="#_ÂÁ_Ï_ÌÌ_È_ËÂÌÚ_8"/>
    <linearGradient id="_ÂÁ_Ï_ÌÌ_È_ËÂÌÚ_8-9" data-name="¡ÂÁ˚ÏˇÌÌ˚È „‡‰ËÂÌÚ 8" x1="93.56" y1="163.42" x2="76.72" y2="23.34" gradientTransform="translate(-12.26 2.24) rotate(-.19)" xlink:href="#_ÂÁ_Ï_ÌÌ_È_ËÂÌÚ_8"/>
    <linearGradient id="_ÂÁ_Ï_ÌÌ_È_ËÂÌÚ_55" data-name="¡ÂÁ˚ÏˇÌÌ˚È „‡‰ËÂÌÚ 55" x1="58.89" y1="250.64" x2="57.16" y2="99.72" gradientTransform="translate(-12.26 2.24) rotate(-.19)" gradientUnits="userSpaceOnUse">
      <stop offset="0" stop-color="#593a33"/>
      <stop offset=".19" stop-color="#52352f"/>
      <stop offset="1" stop-color="#3b2621"/>
    </linearGradient>
    <linearGradient id="linear-gradient-14" x1="163.3" y1="240.63" x2="176.68" y2="43.67" gradientTransform="translate(-12.26 2.24) rotate(-.19)" gradientUnits="userSpaceOnUse">
      <stop offset="0" stop-color="#593a33"/>
      <stop offset=".4" stop-color="#5d3d36"/>
      <stop offset=".85" stop-color="#6a4741"/>
      <stop offset="1" stop-color="#714c46"/>
    </linearGradient>
    <linearGradient id="_ÂÁ_Ï_ÌÌ_È_ËÂÌÚ_8-10" data-name="¡ÂÁ˚ÏˇÌÌ˚È „‡‰ËÂÌÚ 8" x1="106.83" y1="206.73" x2="88.53" y2="72.04" gradientTransform="translate(-12.26 2.24) rotate(-.19)" xlink:href="#_ÂÁ_Ï_ÌÌ_È_ËÂÌÚ_8"/>
    <linearGradient id="_ÂÁ_Ï_ÌÌ_È_ËÂÌÚ_8-11" data-name="¡ÂÁ˚ÏˇÌÌ˚È „‡‰ËÂÌÚ 8" x1="185.23" y1="195.48" x2="166.93" y2="60.79" gradientTransform="translate(-12.26 2.24) rotate(-.19)" xlink:href="#_ÂÁ_Ï_ÌÌ_È_ËÂÌÚ_8"/>
    <linearGradient id="_ÂÁ_Ï_ÌÌ_È_ËÂÌÚ_10" data-name="¡ÂÁ˚ÏˇÌÌ˚È „‡‰ËÂÌÚ 10" x1="65.59" y1="301.4" x2="37.96" y2="174.31" gradientTransform="translate(-12.26 2.24) rotate(-.19)" gradientUnits="userSpaceOnUse">
      <stop offset="0" stop-color="#3b2621"/>
      <stop offset=".77" stop-color="#51342e"/>
      <stop offset="1" stop-color="#593a33"/>
    </linearGradient>
    <linearGradient id="linear-gradient-15" x1="73.27" y1="119.78" x2="71.89" y2="230.64" xlink:href="#linear-gradient-14"/>
    <linearGradient id="linear-gradient-16" x1="171.62" y1="253.03" x2="176.83" y2="176.43" xlink:href="#linear-gradient-14"/>
    <linearGradient id="linear-gradient-17" x1="167.14" y1="231.69" x2="171.63" y2="165.64" xlink:href="#linear-gradient-14"/>
    <linearGradient id="linear-gradient-18" x1="89.06" y1="244.04" x2="94.09" y2="170.08" xlink:href="#linear-gradient-14"/>
    <linearGradient id="linear-gradient-19" x1="56.29" y1="249.13" x2="59.08" y2="208.11" xlink:href="#linear-gradient-14"/>
    <linearGradient id="linear-gradient-20" x1="186.57" y1="251.1" x2="189.13" y2="213.41" xlink:href="#linear-gradient-14"/>
    <linearGradient id="linear-gradient-21" x1="131.87" y1="40.91" x2="125.71" y2="2.53" xlink:href="#linear-gradient-14"/>
    <linearGradient id="_ÂÁ_Ï_ÌÌ_È_ËÂÌÚ_8-12" data-name="¡ÂÁ˚ÏˇÌÌ˚È „‡‰ËÂÌÚ 8" x1="149.23" y1="66.45" x2="159.43" y2="45.13" gradientTransform="translate(-12.26 2.24) rotate(-.19)" xlink:href="#_ÂÁ_Ï_ÌÌ_È_ËÂÌÚ_8"/>
    <linearGradient id="_ÂÁ_Ï_ÌÌ_È_ËÂÌÚ_8-13" data-name="¡ÂÁ˚ÏˇÌÌ˚È „‡‰ËÂÌÚ 8" x1="94.42" y1="78.07" x2="113.71" y2="37.77" gradientTransform="translate(-12.26 2.24) rotate(-.19)" xlink:href="#_ÂÁ_Ï_ÌÌ_È_ËÂÌÚ_8"/>
    <linearGradient id="_ÂÁ_Ï_ÌÌ_È_ËÂÌÚ_8-14" data-name="¡ÂÁ˚ÏˇÌÌ˚È „‡‰ËÂÌÚ 8" x1="202.97" y1="106.47" x2="142.19" y2="6.32" gradientTransform="translate(-12.26 2.24) rotate(-.19)" xlink:href="#_ÂÁ_Ï_ÌÌ_È_ËÂÌÚ_8"/>
    <linearGradient id="_ÂÁ_Ï_ÌÌ_È_ËÂÌÚ_8-15" data-name="¡ÂÁ˚ÏˇÌÌ˚È „‡‰ËÂÌÚ 8" x1="100.61" y1="76.61" x2="74.41" y2="33.45" gradientTransform="translate(-12.26 2.24) rotate(-.19)" xlink:href="#_ÂÁ_Ï_ÌÌ_È_ËÂÌÚ_8"/>
    <linearGradient id="_ÂÁ_Ï_ÌÌ_È_ËÂÌÚ_8-16" data-name="¡ÂÁ˚ÏˇÌÌ˚È „‡‰ËÂÌÚ 8" x1="214.7" y1="164.92" x2="197.78" y2="50.26" gradientTransform="translate(-12.26 2.24) rotate(-.19)" xlink:href="#_ÂÁ_Ï_ÌÌ_È_ËÂÌÚ_8"/>
    <linearGradient id="_ÂÁ_Ï_ÌÌ_È_ËÂÌÚ_8-17" data-name="¡ÂÁ˚ÏˇÌÌ˚È „‡‰ËÂÌÚ 8" x1="58.43" y1="144.61" x2="47.1" y2="67.85" gradientTransform="translate(-12.26 2.24) rotate(-.19)" xlink:href="#_ÂÁ_Ï_ÌÌ_È_ËÂÌÚ_8"/>
    <linearGradient id="_ÂÁ_Ï_ÌÌ_È_ËÂÌÚ_7" data-name="¡ÂÁ˚ÏˇÌÌ˚È „‡‰ËÂÌÚ 7" x1="232.44" y1="263.51" x2="202.39" y2="125.02" gradientTransform="translate(-12.26 2.24) rotate(-.19)" gradientUnits="userSpaceOnUse">
      <stop offset="0" stop-color="#3b2621"/>
      <stop offset=".38" stop-color="#472e28"/>
      <stop offset="1" stop-color="#593a33"/>
    </linearGradient>
    <linearGradient id="linear-gradient-22" x1="71.47" y1="187.61" x2="81.7" y2="37.14" xlink:href="#linear-gradient-14"/>
    <linearGradient id="_ÂÁ_Ï_ÌÌ_È_ËÂÌÚ_46-2" data-name="¡ÂÁ˚ÏˇÌÌ˚È „‡‰ËÂÌÚ 46" x1="100.44" y1="238.73" x2="57.71" y2="168.33" xlink:href="#_ÂÁ_Ï_ÌÌ_È_ËÂÌÚ_46"/>
    <linearGradient id="_ÂÁ_Ï_ÌÌ_È_ËÂÌÚ_45" data-name="¡ÂÁ˚ÏˇÌÌ˚È „‡‰ËÂÌÚ 45" x1="102.81" y1="155.77" x2="135.14" y2="155.77" gradientUnits="userSpaceOnUse">
      <stop offset="0" stop-color="#f8d4ac"/>
      <stop offset=".52" stop-color="#ffd9b3"/>
      <stop offset="1" stop-color="#f7d4ab"/>
    </linearGradient>
    <linearGradient id="linear-gradient-23" x1="130.15" y1="161.85" x2="144.22" y2="161.85" xlink:href="#linear-gradient-5"/>
    <linearGradient id="_ÂÁ_Ï_ÌÌ_È_ËÂÌÚ_17" data-name="¡ÂÁ˚ÏˇÌÌ˚È „‡‰ËÂÌÚ 17" x1="93.13" y1="161.49" x2="104.74" y2="161.49" gradientUnits="userSpaceOnUse">
      <stop offset="0" stop-color="#f0c499"/>
      <stop offset=".51" stop-color="#e3b086"/>
      <stop offset="1" stop-color="#dba379"/>
    </linearGradient>
    <linearGradient id="linear-gradient-24" x1="118.47" y1="155.48" x2="118.68" y2="171.9" xlink:href="#linear-gradient-5"/>
    <linearGradient id="linear-gradient-25" x1="101.91" y1="162.66" x2="131.12" y2="162.24" gradientUnits="userSpaceOnUse">
      <stop offset="0" stop-color="#f96e7e"/>
      <stop offset=".03" stop-color="#f9707f"/>
      <stop offset=".25" stop-color="#fd7985"/>
      <stop offset=".53" stop-color="#ff7d88"/>
      <stop offset=".76" stop-color="#fd7985"/>
      <stop offset="1" stop-color="#f86d7d"/>
      <stop offset="1" stop-color="#f86d7d"/>
    </linearGradient>
    <linearGradient id="linear-gradient-26" x1="107.45" y1="156.6" x2="129.18" y2="156.41" xlink:href="#linear-gradient-25"/>
    <linearGradient id="_ÂÁ_Ï_ÌÌ_È_ËÂÌÚ_18-6" data-name="¡ÂÁ˚ÏˇÌÌ˚È „‡‰ËÂÌÚ 18" x1="-2768.75" y1="130.39" x2="-2801.21" y2="143" gradientTransform="translate(2932.41 -15.87) rotate(.15)" xlink:href="#_ÂÁ_Ï_ÌÌ_È_ËÂÌÚ_18"/>
    <linearGradient id="_ÂÁ_Ï_ÌÌ_È_ËÂÌÚ_131" data-name="¡ÂÁ˚ÏˇÌÌ˚È „‡‰ËÂÌÚ 131" x1="-2800.45" y1="137.95" x2="-2790.49" y2="137.95" gradientTransform="translate(2932.41 -15.87) rotate(.15)" gradientUnits="userSpaceOnUse">
      <stop offset="0" stop-color="#fff"/>
      <stop offset=".41" stop-color="#fcfcfc"/>
      <stop offset=".69" stop-color="#f3f3f3"/>
      <stop offset=".92" stop-color="#e4e4e4"/>
      <stop offset="1" stop-color="#ddd"/>
    </linearGradient>
    <linearGradient id="_ÂÁ_Ï_ÌÌ_È_ËÂÌÚ_133" data-name="¡ÂÁ˚ÏˇÌÌ˚È „‡‰ËÂÌÚ 133" x1="2307.39" y1="141.07" x2="2310.47" y2="143.28" gradientTransform="translate(2443.14 -17.66) rotate(-179.85) scale(1 -1)" gradientUnits="userSpaceOnUse">
      <stop offset="0" stop-color="#fff"/>
      <stop offset=".46" stop-color="#f2f2f2"/>
      <stop offset="1" stop-color="#ddd"/>
    </linearGradient>
    <linearGradient id="_ÂÁ_Ï_ÌÌ_È_ËÂÌÚ_131-2" data-name="¡ÂÁ˚ÏˇÌÌ˚È „‡‰ËÂÌÚ 131" x1="-2778.41" y1="137.66" x2="-2770.49" y2="137.66" xlink:href="#_ÂÁ_Ï_ÌÌ_È_ËÂÌÚ_131"/>
    <linearGradient id="_ÂÁ_Ï_ÌÌ_È_ËÂÌÚ_1050" data-name="¡ÂÁ˚ÏˇÌÌ˚È „‡‰ËÂÌÚ 1050" x1="228.48" y1="146.81" x2="208.31" y2="134.6" gradientTransform="translate(-68.22 -23.57) rotate(.15)" gradientUnits="userSpaceOnUse">
      <stop offset="0" stop-color="#b89c8c"/>
      <stop offset="1" stop-color="#715241"/>
    </linearGradient>
    <linearGradient id="_ÂÁ_Ï_ÌÌ_È_ËÂÌÚ_1050-2" data-name="¡ÂÁ˚ÏˇÌÌ˚È „‡‰ËÂÌÚ 1050" x1="2289.33" y1="138.44" x2="2305.78" y2="138.44" gradientTransform="translate(2443.14 -17.66) rotate(-179.85) scale(1 -1)" xlink:href="#_ÂÁ_Ï_ÌÌ_È_ËÂÌÚ_1050"/>
    <linearGradient id="_ÂÁ_Ï_ÌÌ_È_ËÂÌÚ_387" data-name="¡ÂÁ˚ÏˇÌÌ˚È „‡‰ËÂÌÚ 387" x1="2296.54" y1="143.27" x2="2298.69" y2="159.41" gradientTransform="translate(2443.14 -17.66) rotate(-179.85) scale(1 -1)" gradientUnits="userSpaceOnUse">
      <stop offset="0" stop-color="#715241"/>
      <stop offset="1" stop-color="#b89c8c"/>
    </linearGradient>
    <radialGradient id="_ÂÁ_Ï_ÌÌ_È_ËÂÌÚ_128" data-name="¡ÂÁ˚ÏˇÌÌ˚È „‡‰ËÂÌÚ 128" cx="2295.62" cy="137.71" fx="2295.62" fy="137.71" r="5.88" gradientTransform="translate(2443.14 -17.66) rotate(-179.85) scale(1 -1)" gradientUnits="userSpaceOnUse">
      <stop offset="0" stop-color="#666"/>
      <stop offset="1" stop-color="#1d1d1d"/>
    </radialGradient>
    <linearGradient id="_ÂÁ_Ï_ÌÌ_È_ËÂÌÚ_1655" data-name="¡ÂÁ˚ÏˇÌÌ˚È „‡‰ËÂÌÚ 1655" x1="-2800.43" y1="136.96" x2="-2763.85" y2="136.96" gradientTransform="translate(2932.41 -15.87) rotate(.15)" gradientUnits="userSpaceOnUse">
      <stop offset="0" stop-color="#4d322e"/>
      <stop offset=".06" stop-color="#4a302c"/>
      <stop offset=".55" stop-color="#3d2622"/>
      <stop offset="1" stop-color="#39231f"/>
    </linearGradient>
    <linearGradient id="_ÂÁ_Ï_ÌÌ_È_ËÂÌÚ_18-7" data-name="¡ÂÁ˚ÏˇÌÌ˚È „‡‰ËÂÌÚ 18" x1="-2784.56" y1="126.81" x2="-2808.76" y2="157.62" gradientTransform="translate(2932.41 -15.87) rotate(.15)" xlink:href="#_ÂÁ_Ï_ÌÌ_È_ËÂÌÚ_18"/>
    <linearGradient id="_ÂÁ_Ï_ÌÌ_È_ËÂÌÚ_44" data-name="¡ÂÁ˚ÏˇÌÌ˚È „‡‰ËÂÌÚ 44" x1="2299.81" y1="156.81" x2="2297.26" y2="145.51" gradientTransform="translate(2443.14 -17.66) rotate(-179.85) scale(1 -1)" gradientUnits="userSpaceOnUse">
      <stop offset="0" stop-color="#38221e"/>
      <stop offset=".77" stop-color="#291915"/>
    </linearGradient>
    <linearGradient id="_ÂÁ_Ï_ÌÌ_È_ËÂÌÚ_18-8" data-name="¡ÂÁ˚ÏˇÌÌ˚È „‡‰ËÂÌÚ 18" x1="-630.93" y1="130.98" x2="-663.39" y2="143.59" gradientTransform="translate(-557.49 -25.37) rotate(-179.85) scale(1 -1)" xlink:href="#_ÂÁ_Ï_ÌÌ_È_ËÂÌÚ_18"/>
    <linearGradient id="_ÂÁ_Ï_ÌÌ_È_ËÂÌÚ_131-3" data-name="¡ÂÁ˚ÏˇÌÌ˚È „‡‰ËÂÌÚ 131" x1="-662.64" y1="138.55" x2="-652.68" y2="138.55" gradientTransform="translate(-557.49 -25.37) rotate(-179.85) scale(1 -1)" xlink:href="#_ÂÁ_Ï_ÌÌ_È_ËÂÌÚ_131"/>
    <linearGradient id="_ÂÁ_Ï_ÌÌ_È_ËÂÌÚ_133-2" data-name="¡ÂÁ˚ÏˇÌÌ˚È „‡‰ËÂÌÚ 133" x1="169.58" y1="140.61" x2="172.65" y2="142.82" gradientTransform="translate(-68.22 -23.57) rotate(.15)" xlink:href="#_ÂÁ_Ï_ÌÌ_È_ËÂÌÚ_133"/>
    <linearGradient id="_ÂÁ_Ï_ÌÌ_È_ËÂÌÚ_131-4" data-name="¡ÂÁ˚ÏˇÌÌ˚È „‡‰ËÂÌÚ 131" x1="-640.6" y1="138.26" x2="-632.67" y2="138.26" gradientTransform="translate(-557.49 -25.37) rotate(-179.85) scale(1 -1)" xlink:href="#_ÂÁ_Ï_ÌÌ_È_ËÂÌÚ_131"/>
    <linearGradient id="_ÂÁ_Ï_ÌÌ_È_ËÂÌÚ_387-2" data-name="¡ÂÁ˚ÏˇÌÌ˚È „‡‰ËÂÌÚ 387" x1="153.58" y1="135.02" x2="173.67" y2="156.98" gradientTransform="translate(-68.22 -23.57) rotate(.15)" xlink:href="#_ÂÁ_Ï_ÌÌ_È_ËÂÌÚ_387"/>
    <linearGradient id="_ÂÁ_Ï_ÌÌ_È_ËÂÌÚ_387-3" data-name="¡ÂÁ˚ÏˇÌÌ˚È „‡‰ËÂÌÚ 387" x1="149.59" y1="137.98" x2="166.04" y2="137.98" gradientTransform="translate(-68.22 -23.57) rotate(.15)" xlink:href="#_ÂÁ_Ï_ÌÌ_È_ËÂÌÚ_387"/>
    <linearGradient id="_ÂÁ_Ï_ÌÌ_È_ËÂÌÚ_1050-3" data-name="¡ÂÁ˚ÏˇÌÌ˚È „‡‰ËÂÌÚ 1050" x1="170.27" y1="153.9" x2="159.09" y2="137.85" xlink:href="#_ÂÁ_Ï_ÌÌ_È_ËÂÌÚ_1050"/>
    <radialGradient id="_ÂÁ_Ï_ÌÌ_È_ËÂÌÚ_128-2" data-name="¡ÂÁ˚ÏˇÌÌ˚È „‡‰ËÂÌÚ 128" cx="157.8" cy="137.25" fx="157.8" fy="137.25" r="5.88" gradientTransform="translate(-68.22 -23.57) rotate(.15)" xlink:href="#_ÂÁ_Ï_ÌÌ_È_ËÂÌÚ_128"/>
    <linearGradient id="_ÂÁ_Ï_ÌÌ_È_ËÂÌÚ_1655-2" data-name="¡ÂÁ˚ÏˇÌÌ˚È „‡‰ËÂÌÚ 1655" x1="-662.62" y1="137.55" x2="-626.03" y2="137.55" gradientTransform="translate(-557.49 -25.37) rotate(-179.85) scale(1 -1)" xlink:href="#_ÂÁ_Ï_ÌÌ_È_ËÂÌÚ_1655"/>
    <linearGradient id="_ÂÁ_Ï_ÌÌ_È_ËÂÌÚ_18-9" data-name="¡ÂÁ˚ÏˇÌÌ˚È „‡‰ËÂÌÚ 18" x1="-646.74" y1="127.4" x2="-670.95" y2="158.21" gradientTransform="translate(-557.49 -25.37) rotate(-179.85) scale(1 -1)" xlink:href="#_ÂÁ_Ï_ÌÌ_È_ËÂÌÚ_18"/>
    <linearGradient id="_ÂÁ_Ï_ÌÌ_È_ËÂÌÚ_44-2" data-name="¡ÂÁ˚ÏˇÌÌ˚È „‡‰ËÂÌÚ 44" x1="162" y1="156.35" x2="159.44" y2="145.05" gradientTransform="translate(-68.22 -23.57) rotate(.15)" xlink:href="#_ÂÁ_Ï_ÌÌ_È_ËÂÌÚ_44"/>
  </defs>
  <g id="Layer_1-2" data-name="Layer 1">
    <g style="clip-path: url(#clippath);">
      <g>
        <g>
          <path d="M209.53,203.28s13,26.47-.73,54.78l.73-54.78Z" style="fill: url(#_ÂÁ_Ï_ÌÌ_È_ËÂÌÚ_8);"/>
          <path d="M23.28,203.87s-14.56,25.65-2.54,54.72l2.54-54.72Z" style="fill: url(#_ÂÁ_Ï_ÌÌ_È_ËÂÌÚ_8-2);"/>
          <path d="M118.35,23.87s43.95-1.37,58.52,34.18c14.57,35.55,15.98,93.32,18.02,109.39,2.04,16.07-8.03,65.75-8.03,65.75l-140.2,3.43s-5.39-114.05-1.2-135.72c4.19-21.67,72.9-77.03,72.9-77.03Z" style="fill: url(#_ÂÁ_Ï_ÌÌ_È_ËÂÌÚ_8-3);"/>
        </g>
        <path d="M146.26,151s2.56,63.85,8.5,68.3c7.53,5.65,81.88,22.12,86.62,27.53,11.81,13.47,13.3,6.94,16.27,35.16,2.97,28.22-263.41,3.66-263.41,3.66,0,0,7.04-38.03,14.97-41.9,23.11-11.3,63.27-17.65,73.9-21.53,14.89-5.44,12.65-62.3,12.65-62.3l50.5-8.91Z" style="fill: #f7d4ab;"/>
        <path d="M154.8,217.48c-4.02-3.82-4.56-48.38-4.56-48.38,0,0-58.57,3.22-59.48,2.19.05,4.12.4,33.65,0,36.78-.47,3.57.16,14.26-40.03,22.88,0,0,13.7-.69,38.97-6.27,4.53-1,10.31-6.84,10.31-11.04,0,0,26.92,1.67,40.53-11.43,1.41,10.37,2.72,33.74,6.05,35.9,3.33,2.16,33.21,5.48,33.21,5.48l3.95-14c-8.56-2.07-24.92-8.29-28.94-12.11Z" style="fill: url(#linear-gradient);"/>
        <path d="M111.44,228.09s-5-6.58-9.27-6.42c-4.27.16-42.52,10.34-47.98,10.83,0,0,14.58-.31,26.31-2.26,11.72-1.96,20.05-6.5,30.94-2.15Z" style="fill: url(#linear-gradient-2);"/>
        <path d="M127.25,226.76s4.16-5.09,9.52-5.58c5.37-.49,42.82,8.92,49.5,11.21,0,0-47.98-9.31-59.02-5.63Z" style="fill: url(#linear-gradient-3);"/>
        <path d="M62.81,228.06s-2.95,43.89,53.2,41.12c56.15-2.77,63.75-41.35,63.75-41.35l-18.75-6.53s-4.16,7.7-34.44,7.78c-44.03.13-44.72-8.73-44.72-8.73l-19.04,7.71Z" style="fill: url(#linear-gradient-4);"/>
        <path d="M225.23,337.47c.73-17.64,33.06-81.23,20.35-91.09-4.13-3.21-17.19-9.09-31.56-13.03-19.94-5.48-41.44-10.22-41.44-10.22,0,0-10.08,14.16-52.71,12.66-49.01-1.73-49.17-12.66-49.17-12.66l-39.03,11.45-25.46,9.01c0,1.71,12.06,75.13,16.98,104.95h200.71c.42-5.89.9-10.97,1.32-11.06Z" style="fill: #f5d534;"/>
        <path d="M70.71,223.13s-5.16,18.38,56.39,16.28c45.63-1.56,45.48-16.28,45.48-16.28l-6.84-2.21s-.82,11.87-39.78,12.74c-50.25,1.11-48.34-12.74-48.34-12.74l-6.91,2.21Z" style="fill: url(#_ÂÁ_Ï_ÌÌ_È_ËÂÌÚ_29);"/>
        <path d="M90.91,202.32s-.96-33.75-1.91-41.06l61.44,6.34.3,18.43s-20.39,28.56-59.83,16.29Z" style="fill: url(#linear-gradient-5);"/>
        <path d="M270.11,287.27c-8.62-29.04-16.62-35.63-22.1-40.96-5.44-5.29-32.22-12.48-32.22-12.48,0,0,25.77,18.07,28.55,22.24,4.91,7.36,17.5,41.61,28.53,92.46h14.18c-4.02-15.21-11.1-41.63-16.93-61.27Z" style="fill: url(#_ÂÁ_Ï_ÌÌ_È_ËÂÌÚ_30);"/>
        <g>
          <path d="M118.3,23.14c-.11-.07-.16-.09-.16-.09.06.03.11.06.16.09Z" style="fill: url(#_ÂÁ_Ï_ÌÌ_È_ËÂÌÚ_14);"/>
          <g>
            <path d="M59.29,111.43c2.72,20.19,5,35.55,5,35.55-8.64.03-11.83-8.62-15.23-16.24-5.2-11.65-8.28-24.14,3.46-24.85,2.29-.14,6.77,5.55,6.77,5.55Z" style="fill: url(#_ÂÁ_Ï_ÌÌ_È_ËÂÌÚ_18);"/>
            <path d="M56.63,140.21s-4.24-4.46-2.96-13.26c3.02-20.78-11.06-22.15-7.82-7.99,0,0,1.92-6.69,3.71-4.7,2.2,2.45-2.34,3.82.02,14.53,1.22,5.56,7.05,11.42,7.05,11.42Z" style="fill: url(#linear-gradient-6);"/>
          </g>
          <g>
            <path d="M178.98,111.03c-2.59,20.2-4.77,35.58-4.77,35.58,8.64-.03,11.78-8.7,15.12-16.34,5.12-11.68,8.12-24.2-3.62-24.83-2.29-.12-6.74,5.59-6.74,5.59Z" style="fill: url(#_ÂÁ_Ï_ÌÌ_È_ËÂÌÚ_18-2);"/>
            <path d="M180.64,139.8s4.21-4.49,2.87-13.28c-3.16-20.75,10.91-22.22,7.76-8.04,0,0-1.97-6.68-3.74-4.67-2.18,2.46,2.36,3.8.08,14.53-1.19,5.57-6.97,11.47-6.97,11.47Z" style="fill: url(#linear-gradient-7);"/>
          </g>
          <path d="M171.67,47.07c-7.58-17.17-19.22-27.8-45.37-29.37,0,0-59.71,7.99-67.17,25.22-8.13,18.76-5.7,45.07-3.3,62.28,2.4,17.21,7.18,45.1,11.5,52.99,4.32,7.89,26.1,26.28,30.8,29.78,4.39,3.27,11.69,8.78,20.89,8.78,9.66,0,24.12-12.05,28.38-15.41,4.6-3.63,18.57-16.39,22.83-24.31,4.27-7.92,8.94-35.02,11.23-52.24,2.28-17.22-1.51-39-9.77-57.71Z" style="fill: url(#_ÂÁ_Ï_ÌÌ_È_ËÂÌÚ_384);"/>
          <path d="M98.94,98.93c-7.56-4.07-24.88-9.7-29.21-6.43-10.09,7.6-8.32,30.63-8.32,30.63,0,0,19.83,21.41,53.35,8.1-2.73-14.05-9.87-29.1-15.82-32.3Z" style="fill: url(#linear-gradient-8);"/>
          <path d="M93.86,120.32c-7.71-2.28-35.79-8.45-34.33,1.45,3.22,21.9,4.36,29.25,8.19,36.06,4.01,7.13,15.78,18.34,20.85,19.18,7.84,1.31,16.06-27.58,16.21-37.46.22-13.84-3.21-16.95-10.92-19.23Z" style="fill: url(#_ÂÁ_Ï_ÌÌ_È_ËÂÌÚ_2);"/>
          <path d="M119.68,170.48c-5.5.28-9.91,2.27-9.87,4.45.04,2.18,4.51,3.74,9.99,3.46,5.48-.28,9.89-2.26,9.86-4.45-.04-2.18-4.52-3.73-9.99-3.45Z" style="fill: url(#linear-gradient-9);"/>
          <path d="M173.41,133.02s6.44-19.86,7.13-23.39c4.03-20.51,8.16-91.35-67.48-86.44-77.79,5.05-52.38,109.17-52.38,109.17,0,0,23.82-91.47,56.98-92.4,0,0,39.59,1.25,55.75,93.07Z" style="fill: url(#_ÂÁ_Ï_ÌÌ_È_ËÂÌÚ_18-3);"/>
          <polygon points="60.68 132.36 67.32 158.19 66.71 77.29 58.66 85.53 60.68 132.36" style="fill: url(#_ÂÁ_Ï_ÌÌ_È_ËÂÌÚ_72);"/>
          <path d="M163.56,93.94c-4.38-3.12-21.39,2.45-29.59,4.99-6.91,2.14-8.79,16.96-11.3,31.21,33.7,12.11,53.21-10.21,53.21-10.21,0,0-2.12-18.73-12.32-25.99Z" style="fill: url(#linear-gradient-10);"/>
          <path d="M56.13,107.38s5.63,39.84,10.77,50.91c1.67,3.6,11.5,12.99,20.87,21.09,0,0-17.01-20.05-18.84-25.07-4.01-11.01-12.8-46.92-12.8-46.92Z" style="fill: url(#_ÂÁ_Ï_ÌÌ_È_ËÂÌÚ_18-4);"/>
          <path d="M143.52,112.46c7.69-2.33,37.51-8.7,36.12,1.21-3.07,21.92-5.89,36.99-9.67,43.83-3.96,7.16-15.66,18.44-20.72,19.32-7.83,1.36-16.24-27.47-16.46-37.36-.31-13.84,3.05-24.67,10.74-27Z" style="fill: url(#radial-gradient);"/>
          <polygon points="175.52 135.32 169.59 154.54 168 79.39 177.9 84.4 175.52 135.32" style="fill: url(#_ÂÁ_Ï_ÌÌ_È_ËÂÌÚ_72-2);"/>
          <g>
            <polygon points="106.36 144.99 118.13 153.02 129.12 144.68 127.55 143.36 117.5 143.53 107.48 143.56 106.36 144.99" style="fill: url(#linear-gradient-11);"/>
            <path d="M106.71,144.78s4.44-1.4,8.35.24l4.78-.02s4.73-1.84,9.28-.32l.19-2.16-3.81-.76-8.01,2.05-7.33-1.99-3.82.46.36,2.51Z" style="fill: url(#linear-gradient-12);"/>
            <path d="M105.15,135.48s-2.06,1.16-2.36,4.31c-.34,3.6,3.39,5.55,3.96,5.18.57-.37-.49-3.09,2.95-2.62s3.27,2.2,3.83,2.79c.56.59,6.61.71,7.63.07,1.02-.64.73-3,3.98-2.91,3.25.09,3.35,2.31,3.82,2.6.47.28,2.39-1.45,2.93-4.76.55-3.3-2.94-4.73-2.94-4.73,0,0,1.77,2.93,1.03,4.8-.74,1.88-5.75.28-7.79,1.56-3.76,2.38-6.05,1.8-9.81.03-2.47-1.16-5.92.32-7.31-1.71-.48-.7-.61-3.21.08-4.62Z" style="fill: #f0c499;"/>
            <path d="M109.72,133.83c-.06,2.3.22,3.27,1.2,4.77,1.5,2.28,12,4.11,13.78-1.14.35-1.05.34-2.68.14-4.74-.22-2.35-15.07-1.18-15.12,1.11Z" style="fill: url(#_ÂÁ_Ï_ÌÌ_È_ËÂÌÚ_23);"/>
          </g>
          <path d="M181.2,106.96s-5.37,39.88-10.44,50.98c-1.65,3.61-10.34,12.13-20.76,21.13,0,0,15.25-17.69,18.29-25.76,4.13-10.96,12.9-46.35,12.9-46.35Z" style="fill: url(#_ÂÁ_Ï_ÌÌ_È_ËÂÌÚ_23-2);"/>
          <path d="M87.78,179.37s14.59,9.13,16.2,10.03c3.21,1.8,6.5,2.97,14.81,3.22,8.1.24,13.04-1.96,15.31-3.49,2.39-1.61,15.88-9.87,17.03-10.98,0,0-10.99,9.4-14.67,12.46-6.01,4.99-13.09,6.45-17.52,6.47-5.58.02-10.17-2.21-14.96-4.89-5.22-2.92-16.21-12.8-16.21-12.8Z" style="fill: url(#_ÂÁ_Ï_ÌÌ_È_ËÂÌÚ_18-5);"/>
          <path d="M75.49,123.25c-2.73-.59-5.18.25-5.47,1.89-.3,1.65,1.68,3.46,4.4,4.06,2.73.59,5.18-.25,5.48-1.89.29-1.65-1.68-3.46-4.41-4.06Z" style="fill: url(#_ÂÁ_Ï_ÌÌ_È_ËÂÌÚ_126);"/>
          <path d="M159.89,122.97c2.72-.61,5.18.22,5.48,1.86.31,1.64-1.65,3.47-4.37,4.09-2.73.61-5.18-.22-5.49-1.85-.3-1.64,1.66-3.47,4.38-4.09Z" style="fill: url(#_ÂÁ_Ï_ÌÌ_È_ËÂÌÚ_126-2);"/>
          <path d="M140.91,94.42s11.7-7.05,25.13-1.71c1.39.55,3.92,13.62,3.92,13.62-3.92-4.08-4.81-13.38-29.05-11.91Z" style="fill: url(#linear-gradient-13);"/>
          <path d="M104.28,93.13c.58,1.27.2,4.69-.93,6.23.76-2.8.44-6.24-1.25-7.41-.16-.08-.35-.18-.54-.28.95,1.5,1.22,3.43.5,5.48-.16-1.71-.54-4.75-2.19-6.21-5.31-2.31-13.32-5.68-17.25-5.95-5.59-.4-15.09,6.91-15.09,6.91,2.14-.85,9.38-1.35,14.36-.38,3.21.63,18.05,7.87,22,9.49.52.21,3.07-4.91.38-7.88Z" style="fill: url(#_ÂÁ_Ï_ÌÌ_È_ËÂÌÚ_11);"/>
          <path d="M129.29,93.12c-.61,1.25-.31,4.69.79,6.25-.7-2.82-.3-6.25,1.42-7.38.16-.08.35-.17.54-.27-.98,1.47-1.29,3.41-.62,5.47.2-1.7.65-4.74,2.32-6.16,5.36-2.2,13.44-5.38,17.38-5.57,5.6-.28,14.93,7.24,14.93,7.24-2.12-.89-9.34-1.56-14.34-.69-3.22.56-18.22,7.47-22.21,9.01-.53.2-2.96-4.98-.21-7.89Z" style="fill: url(#_ÂÁ_Ï_ÌÌ_È_ËÂÌÚ_11-2);"/>
          <path d="M177.06,141.23s-12.46,37.48-18.03,49.89c-5.58,12.41-.12,54.39-.12,54.39,0,0,31-59.49,27.39-86.47-3.61-26.98-9.23-17.81-9.23-17.81Z" style="fill: url(#_ÂÁ_Ï_ÌÌ_È_ËÂÌÚ_8-4);"/>
          <path d="M201.63,221.8s4.11,16.72,14.49,25.54c0,0-12.76-2.4-15.78-9.9-3.02-7.49,1.29-15.64,1.29-15.64Z" style="fill: url(#_ÂÁ_Ï_ÌÌ_È_ËÂÌÚ_8-5);"/>
          <path d="M38.16,219.11s-4,16.75-14.32,25.63c0,0,12.74-2.49,15.71-10,2.97-7.51-1.39-15.63-1.39-15.63Z" style="fill: url(#_ÂÁ_Ï_ÌÌ_È_ËÂÌÚ_8-6);"/>
          <path d="M88.83,217.8c-2.09-25.72-13.81-44.52-19.54-51.91-9.38-12.12-10.32-39.61-10.32-39.61,0,0-5.54,44.5-7.77,60.44-3.44,24.6,7.28,57.91,18.46,65.14,7.29-12.84,8.15-27.62,5.57-45.95,9.89,19.49,2.14,38.03.17,49.91,7.5-8.42,14.33-27.07,13.44-38.03Z" style="fill: url(#_ÂÁ_Ï_ÌÌ_È_ËÂÌÚ_8-7);"/>
          <path d="M177.51,115.17c2.39,12.74,3.72,26.31,3.77,40.14.13,34.77-17.07,98.07-34.83,101.03,5.57-.77,20.67-1.97,32.57-18.91.78,6.21-6.52,10.77-12.09,15.49,11.27-6.1,16.54-11.51,16.54-11.51-2.81,5.12-4.62,9.18-13.89,16.05,5.72-.93,22.77-11.97,30.75-22.87,4.92-11.5,9.57-22.73,12.14-35.89-2.03-19.52-8.03-38.07-18.54-56.6-5.48-8.71-11.62-17.42-16.43-26.94Z" style="fill: url(#_ÂÁ_Ï_ÌÌ_È_ËÂÌÚ_46);"/>
          <path d="M204.39,151.88c-.54-5.11-14.01-86.2-20.62-99.82C158.01-1.05,118.26,17.04,118.26,17.04l-2.99,20.62c29.55-5.63,53.35,30.17,62.24,77.52,4.81,9.51,10.95,18.22,16.43,26.94,10.5,18.53,12.51,25.42,10.45,9.77Z" style="fill: url(#_ÂÁ_Ï_ÌÌ_È_ËÂÌÚ_8-8);"/>
          <path d="M65.14,24.19c-19.21,16.95-24.65,36.28-26.87,49.36-1.31,7.74-8.11,55.8-11.56,88.71,8.06-17.22,17.7-22.2,30.11-35.94.55-.83,1.04-1.67,1.51-2.51,1.26-28.54,6.47-52.39,22.95-68.59,20.73-20.37,34-17.57,34-17.57l2.99-20.62c-10-8.02-41.59-3.02-53.12,7.15Z" style="fill: url(#_ÂÁ_Ï_ÌÌ_È_ËÂÌÚ_8-9);"/>
          <path d="M26.71,162.27c-13.14,27.42-7.65,55.83-.22,65.75,6.18,7.2,17.11,18.57,25.34,23.81-3.24-4.14-8.61-13.99-7.93-20.01,5.56,18.38,28.65,23.2,31.5,24.02-21.29-17.45-24.27-32.03-24.99-58.86-.51-18.75,7.21-56.89,7.93-73.15-.47.85-.96,1.69-1.51,2.51-12.4,13.74-22.05,18.72-30.11,35.94Z" style="fill: url(#_ÂÁ_Ï_ÌÌ_È_ËÂÌÚ_55);"/>
          <path d="M115.77,37.61s25.93-12.01,42.48,9c16.55,21,16.31,65.79,25.8,89.89,9.5,24.1,24.04,59.03,17.99,78.72s-23.19,35.38-23.19,35.38c0,0,19.93-25.29,16.56-49.16-3.37-23.86-19.14-47.54-22.92-73.47-3.78-25.93-8.26-63.4-26.13-80.07-17.87-16.67-30.58-10.29-30.58-10.29Z" style="fill: url(#linear-gradient-14);"/>
          <path d="M118.14,23.04s-38.22-6.54-53.64,27.23-29.74,73.84-29.74,73.84c0,0,20.65-76.42,23.76-83.39,4.53-10.16,28.93-38.57,59.62-17.68Z" style="fill: url(#_ÂÁ_Ï_ÌÌ_È_ËÂÌÚ_8-10);"/>
          <path d="M120.42,20.9s22.05-6.34,45.99,18.79c13.13,13.78,18.86,87.65,18.86,87.65,0,0,1.58-58.82-4.26-78.51-5.84-19.69-36.56-48.45-60.59-27.93Z" style="fill: url(#_ÂÁ_Ï_ÌÌ_È_ËÂÌÚ_8-11);"/>
          <path d="M50.21,140.73s-18.77,33-21,54.75c-2.23,21.75-10,40.76-21.04,43.05,0,0,14.73-2.98,21.14-11.46,6.42-8.48,11.29-66.49,20.9-86.34Z" style="fill: url(#_ÂÁ_Ï_ÌÌ_È_ËÂÌÚ_10);"/>
          <path d="M68.39,85.05s-9.84,28.54-15.15,63.94c-4.32,28.79-9.26,41.12-7.33,59.5,2.13,20.21,8.73,41.05,29.47,47.34,0,0-16.19-7.98-21.43-47.37-1.83-13.75,2.36-36.76,5.7-59.5,4.78-32.52,8.73-63.92,8.73-63.92Z" style="fill: url(#linear-gradient-15);"/>
          <path d="M177.07,175.3s7.36,75.15-30.62,81.05c0,0,23.44-9.81,30.62-81.05Z" style="fill: url(#linear-gradient-16);"/>
          <path d="M166.83,164.7s-7.33,15.36-13.51,28.23c-6.19,12.87.14,42.49.14,42.49,0,0-.67-21.2,4.53-34.19,5.2-12.99,8.84-36.53,8.84-36.53Z" style="fill: url(#linear-gradient-17);"/>
          <path d="M71.25,167.85s12.25,14.47,17.84,33.43c5.59,18.96-3.99,47.63-3.99,47.63,0,0,3.4-34.22-.17-50.04-3.57-15.82-13.69-31.03-13.69-31.03Z" style="fill: url(#linear-gradient-18);"/>
          <path d="M42.02,207.89s-2.95,30.11,12.17,45.25c0,0-28.66-8.05-12.17-45.25Z" style="fill: url(#linear-gradient-19);"/>
          <path d="M185.58,213.79s6.06,28.14-19.61,39.59c0,0,21.16-18.41,19.61-39.59Z" style="fill: url(#linear-gradient-20);"/>
          <path d="M118.27,22.43s17.27-8.34,48.65,4.73c0,0-20.4-22.56-46.15-14.15,0,0-26.93-15.8-54,9.89,0,0,7.77-6.18,21.28-7.86,11.26-1.4,28.45.87,30.23,7.4Z" style="fill: url(#linear-gradient-21);"/>
          <path d="M165.17,84.92s.26-25.31-12.88-37.72c-13.14-12.41-25.48-12.77-36.52-9.59,0,0,14.45-2.84,26.94,8.44,12.49,11.27,16.08,18.17,22.46,38.87Z" style="fill: url(#_ÂÁ_Ï_ÌÌ_È_ËÂÌÚ_8-12);"/>
          <path d="M115.77,37.61s-10.24-1.62-17.57.78c-14.2,4.65-21.12,20.78-24.8,43.84,0,0,4.17-26.34,23.85-37.73,10.62-6.15,18.53-6.9,18.53-6.9Z" style="fill: url(#_ÂÁ_Ï_ÌÌ_È_ËÂÌÚ_8-13);"/>
          <path d="M120.43,23.13s34.65-16.73,51.62,24.93c12.39,30.43,10.39,61.37,10.39,61.37,0,0-2.06-50.8-29.03-76.96-15.32-14.86-32.98-9.33-32.98-9.33Z" style="fill: url(#_ÂÁ_Ï_ÌÌ_È_ËÂÌÚ_8-14);"/>
          <path d="M118.14,23.04s-12.21-5.27-27.94.19c-12.26,4.26-21.97,15.93-27.41,29.33-3.56,8.78-11.9,32.83-21.13,52.97,0,0,20.17-27.27,27.26-50.34,5.13-16.71,24.39-36.08,49.21-32.15Z" style="fill: url(#_ÂÁ_Ï_ÌÌ_È_ËÂÌÚ_8-15);"/>
          <path d="M186.3,75.53s-1.56,48.98,23.65,101.95l-23.65-101.95Z" style="fill: url(#_ÂÁ_Ï_ÌÌ_È_ËÂÌÚ_8-16);"/>
          <path d="M58.65,82.29l-32.05,75.48s30.61-25.28,32.05-75.48Z" style="fill: url(#_ÂÁ_Ï_ÌÌ_È_ËÂÌÚ_8-17);"/>
          <path d="M188.39,128.37s15.65,22,22.84,42.78c7.89,22.79,5.7,40.89-8.71,62.09,0,0,8.84-25.29-.22-65.82-3.63-16.26-13.91-39.05-13.91-39.05Z" style="fill: url(#_ÂÁ_Ï_ÌÌ_È_ËÂÌÚ_7);"/>
          <path d="M115.77,37.61s-22.37-12.64-38.58,11.31c-13.57,20.05-13.86,53.23-34.22,83.52-8.44,12.55-28.93,33.17-29.31,59.16,0,0,2.39-12.75,23.02-36.59,20.63-23.84,32.44-52.5,37.81-78.25,7.51-36.01,25.39-41.34,41.28-39.16Z" style="fill: url(#linear-gradient-22);"/>
          <path d="M65.35,165.03s20.45,50.58,5.94,83.67c0,0-3.17-67.28-5.94-83.67Z" style="fill: url(#_ÂÁ_Ï_ÌÌ_È_ËÂÌÚ_46-2);"/>
          <g>
            <path d="M102.81,159.38s8.3-6.16,10.87-6.77,7.53-.55,8.99,0c1.45.55,12.47,6.77,12.47,6.77,0,0-14.65-3.43-17.52-3.44s-14.81,3.44-14.81,3.44Z" style="fill: url(#_ÂÁ_Ï_ÌÌ_È_ËÂÌÚ_45);"/>
            <g>
              <path d="M134.74,159.79c3.42,0,9.83,1.67,9.47,3.34-.37,1.67-9.88-2.59-14.06.76.84-.84,4.59-4.1,4.59-4.1Z" style="fill: url(#linear-gradient-23);"/>
              <path d="M102.84,159.71c-3.24.58-9.55,1.81-9.71,3.07-.16,1.26,8.16-.23,11.61-.71-.79-1.13-1.89-2.35-1.89-2.35Z" style="fill: url(#_ÂÁ_Ï_ÌÌ_È_ËÂÌÚ_17);"/>
              <path d="M104.46,162.91c3.67,3.34,7.21,5,14,5,7.14,0,12.51-3.18,14.19-5.69-2.51,0-8.16-.57-8.99-.56-2.78.09-5.88.18-8.77.27-1.44.04-10.43.98-10.43.98Z" style="fill: url(#linear-gradient-24);"/>
              <g>
                <path d="M142.69,162.22c-.34.84-9.33-1.45-14.87-1.99-1.23.13-17.97.09-19.02.07-4.95.28-13.01,3.2-13.78,1.92-.39-.64,2.4-.83,5.78-1.86,3.37-1.04,7.36-2.44,11.79-3.38.61-.13,7.26-.02,10.72.18,1.16.08,11.68,2.39,14.73,3.41.88.27,4.99.82,4.65,1.66Z" style="fill: #961b27;"/>
                <path d="M99.82,160.64c3.46-1.15,9.97-4.93,10.69-5.24,4.59-2,11.5-1.53,14.51-.44,2.88,1.05,9.07,4.11,13.02,5.61-4.2-1.01-7.06-1.69-10.85-1.66-.46-.03-3.02-.15-4.68-.34s-4.23-.47-5-.47c-.65,0-2.84.39-4.29.63-.72.12-2.15.09-2.92.18-2.74-.02-9.75,1.49-10.48,1.74Z" style="fill: #f86d78;"/>
                <path d="M99.46,162.04c3.88-1.4,9.53-2.47,11.72-2.79,2.18-.31,6.21-.31,6.97-.31.6,0,4.07-.03,6.44.22,2.37.25,8.44.97,13.45,2.74-4.65-.23-6.71,1.72-11.97,3.11-3.52.93-10.85,1.15-13.79.44-3.23-.78-7.23-2.38-10.78-3.21-1.08-.28-2.03-.19-2.03-.19Z" style="fill: #f86d78;"/>
                <path d="M105.57,161.34c.93-1.21,26.39-2.51,26.7.18.12.99-6.13,2.69-9.82,3.15-2.89.36-8.63.19-10.77-.29-.71-.16-7.34-1.98-6.11-3.05Z" style="fill: url(#linear-gradient-25);"/>
                <path d="M128.18,161.76c-.07.47-1.53,1.61-3.09,2.01-1.38.31-2.02.39-2.93.39-.84,0-2.29,0-2.23-.49.06-.48,3.68-1.04,4.74-1.36,1.07-.32,3.58-1.01,3.51-.55Z" style="fill: #ff9aa2;"/>
                <path d="M107.89,157.79c.28-.91,4-2.75,5.68-3.03,4.8-.8,8.71-.07,10.25.2.89.16,6.79,2.41,5.47,3.32-1.36.94-8.89-.91-11.17-.91s-10.67,1.89-10.23.42Z" style="fill: url(#linear-gradient-26);"/>
              </g>
            </g>
          </g>
          <g>
            <path d="M150.66,101.43c-17.61-.05-19.27,10.71-19.65,18.48,1.33.3,2.73.56,5.35,1.37,3.53,1.1,7.67,2.86,13.64,2.82,4.7-.03,14.83-2.13,15.01-12.24.14-8-10.09-10.07-14.34-10.44Z" style="fill: url(#_ÂÁ_Ï_ÌÌ_È_ËÂÌÚ_18-6);"/>
            <path d="M131.81,119.31c3.84.56,6.41,1.88,9.07,2.61-2.07-1.92-3.27-3.66-3.11-6.82.15-2.73,2.24-5.71,4.02-7.36-6.24,3.67-9.99,11.56-9.99,11.56Z" style="fill: url(#_ÂÁ_Ï_ÌÌ_È_ËÂÌÚ_131);"/>
            <path d="M134.25,115.73s-1.34,1.69.94,4.32c0,0-1.56-.48-3.38-.74,0,0,1.61-2.8,2.44-3.58Z" style="fill: url(#_ÂÁ_Ï_ÌÌ_È_ËÂÌÚ_133);"/>
            <path d="M131.81,119.31c1.11-1.07,3.07-3.26,6.13-5.08.39-2.13,1.6-4.02,3.34-5.34-5.71,2.76-9.47,10.42-9.47,10.42Z" style="fill: #ddd;"/>
            <path d="M155.39,116.04c-.18,3.28-1.91,5.34-4.32,6.92,10.29-1.31,13.23-9.46,13.23-9.46-6.34-5.29-10.9-6.95-15.24-7.35,3.87,1.31,6.57,5.33,6.33,9.88Z" style="fill: url(#_ÂÁ_Ï_ÌÌ_È_ËÂÌÚ_131-2);"/>
            <path d="M137.92,114.01c-.07.39-.11.68-.14,1.1-.24,3.06.94,4.97,3.11,6.82.73.35,7.17,1.68,11.11,1.04,2.52-1.55,4.35-3.52,4.54-6.7.1-1.66-.23-3.25-.91-4.65-4.99-1.74-11.58-1.72-17.71,2.4Z" style="fill: url(#_ÂÁ_Ï_ÌÌ_È_ËÂÌÚ_1050);"/>
            <path d="M138.92,115.07c-.01,4.29,3.66,7.15,8.21,7.17,4.55.01,8.23-2.74,8.24-7.03.01-4.29-3.65-7.81-8.2-7.82s-8.24,3.39-8.25,7.68Z" style="fill: url(#_ÂÁ_Ï_ÌÌ_È_ËÂÌÚ_1050-2);"/>
            <path d="M152.01,108.12c1.97,1.1,3.47,2.87,4.14,4.98,3.6,1.51,5.96,3.47,5.96,3.47l1.75-3.5c-2.5-3.18-7.28-4.09-11.85-4.95Z" style="fill: #ddd;"/>
            <path d="M152.01,108.12c-2.76-.52-5.63-.56-8.28-.06-.85.16-1.67.45-2.45.83-1.73,1.32-3.05,3.18-3.4,5.34,2.26-1.34,5.18-2.47,8.75-2.8,3.56-.32,6.93.57,9.58,1.69-.62-2.16-2.22-3.9-4.2-5.01Z" style="fill: url(#_ÂÁ_Ï_ÌÌ_È_ËÂÌÚ_387);"/>
            <path d="M147.45,108.67c-3.26-.26-6.09,2.09-6.33,5.24-.25,3.14,2.2,5.89,5.45,6.15,3.26.25,6.09-2.1,6.34-5.24.24-3.14-2.2-5.9-5.46-6.15Z" style="fill: url(#_ÂÁ_Ï_ÌÌ_È_ËÂÌÚ_128);"/>
            <path d="M146.15,112.03c.78-.45,1.79-.15,2.26.64.47.79.23,1.8-.55,2.24-.77.44-1.78.15-2.26-.64-.48-.79-.23-1.79.54-2.24Z" style="fill: #fff;"/>
            <path d="M150.67,114.41c1.06-.62,2.41-.28,3.02.77.61,1.05.24,2.41-.82,3.03-1.06.63-2.41.28-3.01-.77-.61-1.05-.24-2.41.82-3.03Z" style="fill: #fff;"/>
            <path d="M168.25,105.7s-1.73,3.6-10.31.49c-16.53-5.39-25.78,4.23-26.14,13.12,0,0,5-9.76,14.39-10.66,5.72-.55,10.66,1.82,15.59,4.51.05,3.96-5.25,8.8-10.95,9.94,4.88.05,15.74-4.94,16.54-9.07-.3.51-1.34.87-2.66.38,0,0,4.66-1.85,3.53-8.71Z" style="fill: url(#_ÂÁ_Ï_ÌÌ_È_ËÂÌÚ_1655);"/>
            <path d="M142.21,102.24c-5.74,1.95-8.24,6.09-8.24,6.09,0,0,2.6-3.39,8.76-5.22,6.4-1.89,15.23-.01,15.23-.01-3.88-1.84-10-2.81-15.74-.86Z" style="fill: url(#_ÂÁ_Ï_ÌÌ_È_ËÂÌÚ_18-7);"/>
            <path d="M141.39,112.59s3.94-2.28,10.92-.73c0,0-1.4-3.56-6.11-3.21-3.85.28-4.81,3.94-4.81,3.94Z" style="fill: #0f0f0f;"/>
            <path d="M145.51,107.78c-10.76,1.78-13.7,11.52-13.7,11.52,0,0,4.16-8.36,13.93-10.07,5.56-.98,11.83,1.77,16.05,3.93,0,0-6.59-6.98-16.28-5.38Z" style="fill: url(#_ÂÁ_Ï_ÌÌ_È_ËÂÌÚ_44);"/>
          </g>
          <g>
            <path d="M85.8,101.42c17.61.05,19.21,10.81,19.55,18.58-1.33.29-2.73.55-5.35,1.35-3.54,1.08-7.68,2.82-13.66,2.75-4.7-.05-14.82-2.2-14.94-12.32-.1-8,10.14-10.02,14.4-10.36Z" style="fill: url(#_ÂÁ_Ï_ÌÌ_È_ËÂÌÚ_18-8);"/>
            <path d="M104.55,119.4c-3.85.54-6.42,1.85-9.09,2.56,2.08-1.91,3.29-3.64,3.14-6.8-.13-2.73-2.21-5.72-3.98-7.38,6.22,3.7,9.93,11.61,9.93,11.61Z" style="fill: url(#_ÂÁ_Ï_ÌÌ_È_ËÂÌÚ_131-3);"/>
            <path d="M102.13,115.81s1.33,1.7-.96,4.31c0,0,1.56-.48,3.38-.72,0,0-1.6-2.81-2.42-3.59Z" style="fill: url(#_ÂÁ_Ï_ÌÌ_È_ËÂÌÚ_133-2);"/>
            <path d="M104.55,119.4c-1.1-1.08-3.05-3.28-6.11-5.11-.38-2.14-1.58-4.02-3.31-5.36,5.69,2.79,9.41,10.46,9.41,10.46Z" style="fill: #ddd;"/>
            <path d="M80.98,116.02c.16,3.29,1.88,5.35,4.29,6.95-10.28-1.36-13.18-9.53-13.18-9.53,6.37-5.26,10.94-6.89,15.28-7.27-3.87,1.29-6.6,5.3-6.39,9.85Z" style="fill: url(#_ÂÁ_Ï_ÌÌ_È_ËÂÌÚ_131-4);"/>
            <path d="M98.47,114.07c.07.39.1.68.14,1.1.22,3.06-.97,4.96-3.14,6.8-.73.35-7.18,1.65-11.12.98-2.52-1.56-4.33-3.54-4.51-6.73-.09-1.66.25-3.24.93-4.64,5-1.71,11.59-1.66,17.7,2.49Z" style="fill: url(#_ÂÁ_Ï_ÌÌ_È_ËÂÌÚ_387-2);"/>
            <path d="M97.46,115.12c-.01,4.29-3.69,7.13-8.25,7.12s-8.22-2.78-8.2-7.07c.01-4.29,3.69-7.79,8.24-7.78,4.55.01,8.22,3.43,8.21,7.72Z" style="fill: url(#_ÂÁ_Ï_ÌÌ_È_ËÂÌÚ_387-3);"/>
            <path d="M84.41,108.1c-1.98,1.09-3.48,2.85-4.17,4.96-3.61,1.49-5.98,3.43-5.98,3.43l-1.73-3.5c2.51-3.17,7.3-4.05,11.87-4.89Z" style="fill: #ddd;"/>
            <path d="M84.41,108.1c2.76-.5,5.63-.53,8.28-.01.85.17,1.67.46,2.45.84,1.73,1.33,3.03,3.19,3.37,5.36-2.26-1.35-5.16-2.5-8.73-2.84-3.56-.34-6.93.54-9.59,1.64.63-2.16,2.24-3.89,4.22-4.98Z" style="fill: url(#_ÂÁ_Ï_ÌÌ_È_ËÂÌÚ_1050-3);"/>
            <path d="M88.97,108.68c3.26-.24,6.08,2.12,6.3,5.27.24,3.15-2.23,5.88-5.48,6.12-3.26.23-6.08-2.13-6.31-5.27-.23-3.15,2.23-5.89,5.49-6.12Z" style="fill: url(#_ÂÁ_Ï_ÌÌ_È_ËÂÌÚ_128-2);"/>
            <path d="M90.25,112.05c-.77-.45-1.79-.16-2.26.63-.48.79-.24,1.8.53,2.24.77.44,1.78.16,2.26-.62.48-.79.24-1.79-.53-2.24Z" style="fill: #fff;"/>
            <path d="M95.55,114.43c-1.06-.63-2.41-.29-3.02.76-.61,1.05-.25,2.41.8,3.03,1.06.63,2.41.29,3.02-.75.61-1.05.25-2.4-.8-3.04Z" style="fill: #fff;"/>
            <path d="M68.18,105.6s1.71,3.61,10.3.54c16.55-5.3,25.76,4.36,26.07,13.26,0,0-4.95-9.79-14.33-10.73-5.71-.58-10.67,1.77-15.61,4.43-.07,3.96,5.2,8.83,10.9,9.99-4.88.03-15.72-5.02-16.5-9.15.3.51,1.34.87,2.66.39,0,0-4.65-1.87-3.48-8.73Z" style="fill: url(#_ÂÁ_Ï_ÌÌ_È_ËÂÌÚ_1655-2);"/>
            <path d="M94.24,102.28c5.73,1.98,8.21,6.14,8.21,6.14,0,0-2.58-3.41-8.73-5.26-6.39-1.93-15.23-.09-15.23-.09,3.89-1.82,10.01-2.76,15.75-.78Z" style="fill: url(#_ÂÁ_Ï_ÌÌ_È_ËÂÌÚ_18-9);"/>
            <path d="M95.02,112.63s-3.93-2.33-10.91-.82c0,0,1.36-3.52,6.07-3.15,3.85.3,4.85,3.97,4.85,3.97Z" style="fill: #0f0f0f;"/>
            <path d="M90.91,107.81c10.75,1.84,13.64,11.59,13.64,11.59,0,0-4.12-8.38-13.88-10.15-5.55-1.01-11.84,1.71-16.07,3.84,0,0,6.63-6.95,16.31-5.29Z" style="fill: url(#_ÂÁ_Ï_ÌÌ_È_ËÂÌÚ_44-2);"/>
          </g>
        </g>
      </g>
    </g>
  </g>
</svg>