<?xml version="1.0" encoding="UTF-8"?>
<svg id="Layer_2" data-name="Layer 2" xmlns="http://www.w3.org/2000/svg" width="234" height="234" xmlns:xlink="http://www.w3.org/1999/xlink" viewBox="0 0 234 234">
  <defs>
    <clipPath id="clippath">
      <rect width="234" height="234" style="fill: none;"/>
    </clipPath>
    <linearGradient id="_ÂÁ_Ï_ÌÌ_È_ËÂÌÚ_8" data-name="¡ÂÁ˚ÏˇÌÌ˚È „‡‰ËÂÌÚ 8" x1="351.79" y1="293.7" x2="331.51" y2="223.2" gradientTransform="translate(-7.82 -115.7) rotate(22.64)" gradientUnits="userSpaceOnUse">
      <stop offset="0" stop-color="#3b2621"/>
      <stop offset=".39" stop-color="#3e2822"/>
      <stop offset=".71" stop-color="#482e29"/>
      <stop offset="1" stop-color="#593a33"/>
    </linearGradient>
    <linearGradient id="_ÂÁ_Ï_ÌÌ_È_ËÂÌÚ_8-2" data-name="¡ÂÁ˚ÏˇÌÌ˚È „‡‰ËÂÌÚ 8" x1="100.17" y1="396.53" x2="79.89" y2="326.03" gradientTransform="translate(-12.81 -115.85) rotate(160.79) scale(1 -1)" xlink:href="#_ÂÁ_Ï_ÌÌ_È_ËÂÌÚ_8"/>
    <linearGradient id="_ÂÁ_Ï_ÌÌ_È_ËÂÌÚ_8-3" data-name="¡ÂÁ˚ÏˇÌÌ˚È „‡‰ËÂÌÚ 8" x1="9.09" y1="458.59" x2="90.38" y2="-12.89" gradientTransform="translate(88.19 -131.67) rotate(1.71)" xlink:href="#_ÂÁ_Ï_ÌÌ_È_ËÂÌÚ_8"/>
    <linearGradient id="linear-gradient" x1="69.16" y1="192.34" x2="155.35" y2="218.55" gradientUnits="userSpaceOnUse">
      <stop offset="0" stop-color="#f0c499"/>
      <stop offset=".52" stop-color="#f1c69b"/>
      <stop offset=".85" stop-color="#f4cea4"/>
      <stop offset="1" stop-color="#f7d4ab"/>
    </linearGradient>
    <linearGradient id="linear-gradient-2" x1="30.34" y1="245.6" x2="136.9" y2="310.34" gradientTransform="translate(-81.05 -15.53) rotate(-16.11)" xlink:href="#linear-gradient"/>
    <linearGradient id="linear-gradient-3" x1="338.56" y1="698.49" x2="221.53" y2="731.36" gradientTransform="translate(71.48 -532.48) rotate(13.36)" xlink:href="#linear-gradient"/>
    <linearGradient id="linear-gradient-4" x1="83.96" y1="251.77" x2="220.74" y2="214.49" xlink:href="#linear-gradient"/>
    <linearGradient id="_ÂÁ_Ï_ÌÌ_È_ËÂÌÚ_29" data-name="¡ÂÁ˚ÏˇÌÌ˚È „‡‰ËÂÌÚ 29" x1="124.16" y1="254.07" x2="120.6" y2="219.76" gradientUnits="userSpaceOnUse">
      <stop offset="0" stop-color="#d6b01f"/>
      <stop offset=".42" stop-color="#e0bc26"/>
      <stop offset="1" stop-color="#f5d534"/>
    </linearGradient>
    <linearGradient id="linear-gradient-5" x1="115.63" y1="167.01" x2="124.97" y2="206.59" gradientUnits="userSpaceOnUse">
      <stop offset="0" stop-color="#dba379"/>
      <stop offset=".49" stop-color="#e3b086"/>
      <stop offset="1" stop-color="#f0c499"/>
    </linearGradient>
    <linearGradient id="_ÂÁ_Ï_ÌÌ_È_ËÂÌÚ_14" data-name="¡ÂÁ˚ÏˇÌÌ˚È „‡‰ËÂÌÚ 14" x1="130.1" y1="22.11" x2="130" y2="21.84" gradientTransform="translate(-12.27 3.36) rotate(-.19)" gradientUnits="userSpaceOnUse">
      <stop offset="0" stop-color="#cb8076"/>
      <stop offset=".31" stop-color="#b76f65"/>
      <stop offset=".95" stop-color="#86443a"/>
      <stop offset="1" stop-color="#824137"/>
    </linearGradient>
    <linearGradient id="linear-gradient-6" x1="54.34" y1="153.32" x2="51.62" y2="94.79" xlink:href="#linear-gradient-5"/>
    <linearGradient id="linear-gradient-7" x1="-2950.61" y1="297.72" x2="-2948.97" y2="354.95" gradientTransform="translate(3005.69 -6.66) rotate(-.19)" xlink:href="#linear-gradient-5"/>
    <linearGradient id="linear-gradient-8" x1="184.35" y1="147.27" x2="181.63" y2="88.74" xlink:href="#linear-gradient-5"/>
    <linearGradient id="linear-gradient-9" x1="-1439.37" y1="297.94" x2="-1437.73" y2="355.17" gradientTransform="translate(-1258.89 7.2) rotate(179.81) scale(1 -1)" xlink:href="#linear-gradient-5"/>
    <linearGradient id="_ÂÁ_Ï_ÌÌ_È_ËÂÌÚ_384" data-name="¡ÂÁ˚ÏˇÌÌ˚È „‡‰ËÂÌÚ 384" x1="129.47" y1="39.41" x2="129.24" y2="194.39" gradientTransform="translate(-12.27 3.36) rotate(-.19)" gradientUnits="userSpaceOnUse">
      <stop offset="0" stop-color="#ffd9b3"/>
      <stop offset=".32" stop-color="#f9d5ad"/>
      <stop offset="1" stop-color="#f7d4ab"/>
    </linearGradient>
    <linearGradient id="linear-gradient-10" x1="101.07" y1="137.44" x2="93.97" y2="93.53" gradientTransform="translate(-12.27 3.36) rotate(-.19)" gradientUnits="userSpaceOnUse">
      <stop offset="0" stop-color="#f7d4ab"/>
      <stop offset=".52" stop-color="#f5d1a8"/>
      <stop offset=".85" stop-color="#f2c99f"/>
      <stop offset="1" stop-color="#f0c499"/>
    </linearGradient>
    <radialGradient id="radial-gradient" cx="-130.94" cy="138.8" fx="-130.94" fy="138.8" r="32.04" gradientTransform="translate(183.09 2.82) rotate(-.19) scale(.79 1)" gradientUnits="userSpaceOnUse">
      <stop offset="0" stop-color="#f9b38e"/>
      <stop offset=".61" stop-color="#f7c59e"/>
      <stop offset="1" stop-color="#f7d4ab"/>
    </radialGradient>
    <linearGradient id="linear-gradient-11" x1="114.86" y1="173.23" x2="140.95" y2="173.23" gradientTransform="translate(-12.27 3.36) rotate(-.19)" gradientUnits="userSpaceOnUse">
      <stop offset="0" stop-color="#ffd9b3"/>
      <stop offset=".68" stop-color="#fcd7b0"/>
      <stop offset="1" stop-color="#f7d4ab"/>
    </linearGradient>
    <linearGradient id="_ÂÁ_Ï_ÌÌ_È_ËÂÌÚ_18" data-name="¡ÂÁ˚ÏˇÌÌ˚È „‡‰ËÂÌÚ 18" x1="176.19" y1="51.64" x2="88.01" y2="123.75" gradientTransform="translate(-12.27 3.36) rotate(-.19)" gradientUnits="userSpaceOnUse">
      <stop offset="0" stop-color="#dba379"/>
      <stop offset=".49" stop-color="#e3b086"/>
      <stop offset="1" stop-color="#f0c499"/>
    </linearGradient>
    <linearGradient id="_ÂÁ_Ï_ÌÌ_È_ËÂÌÚ_72" data-name="¡ÂÁ˚ÏˇÌÌ˚È „‡‰ËÂÌÚ 72" x1="78.72" y1="162.33" x2="74.24" y2="86.87" gradientTransform="translate(-12.27 3.36) rotate(-.19)" gradientUnits="userSpaceOnUse">
      <stop offset="0" stop-color="#f9b38e"/>
      <stop offset=".5" stop-color="#f7b690"/>
      <stop offset=".9" stop-color="#f2c096"/>
      <stop offset="1" stop-color="#f0c499"/>
    </linearGradient>
    <linearGradient id="linear-gradient-12" x1="163.4" y1="130.86" x2="156.53" y2="92.8" xlink:href="#linear-gradient-10"/>
    <linearGradient id="_ÂÁ_Ï_ÌÌ_È_ËÂÌÚ_18-2" data-name="¡ÂÁ˚ÏˇÌÌ˚È „‡‰ËÂÌÚ 18" x1="67.65" y1="142.01" x2="99.06" y2="142.01" xlink:href="#_ÂÁ_Ï_ÌÌ_È_ËÂÌÚ_18"/>
    <linearGradient id="linear-gradient-13" x1="152.04" y1="96.46" x2="184.6" y2="96.46" xlink:href="#linear-gradient-11"/>
    <radialGradient id="radial-gradient-2" cx="1870.24" cy="139.37" fx="1870.24" fy="139.37" r="32.04" gradientTransform="translate(1640.09 -2.53) rotate(179.81) scale(.79 -1)" xlink:href="#radial-gradient"/>
    <linearGradient id="_ÂÁ_Ï_ÌÌ_È_ËÂÌÚ_72-2" data-name="¡ÂÁ˚ÏˇÌÌ˚È „‡‰ËÂÌÚ 72" x1="-533.84" y1="158.87" x2="-538" y2="88.86" gradientTransform="translate(-365.93 4.23) rotate(179.81) scale(1 -1)" xlink:href="#_ÂÁ_Ï_ÌÌ_È_ËÂÌÚ_72"/>
    <linearGradient id="linear-gradient-14" x1="130.96" y1="155.12" x2="128.77" y2="144.16" xlink:href="#linear-gradient-10"/>
    <linearGradient id="linear-gradient-15" x1="129.23" y1="143.29" x2="129.17" y2="151.9" gradientTransform="translate(-12.27 3.36) rotate(-.19)" xlink:href="#linear-gradient-5"/>
    <linearGradient id="_ÂÁ_Ï_ÌÌ_È_ËÂÌÚ_23" data-name="¡ÂÁ˚ÏˇÌÌ˚È „‡‰ËÂÌÚ 23" x1="128.71" y1="131.58" x2="128.83" y2="140.41" gradientTransform="translate(-12.27 3.36) rotate(-.19)" gradientUnits="userSpaceOnUse">
      <stop offset="0" stop-color="#f7d4ab"/>
      <stop offset="1" stop-color="#ffd9b3"/>
    </linearGradient>
    <linearGradient id="linear-gradient-16" x1="-482.18" y1="407.44" x2="-480.99" y2="407.44" gradientTransform="translate(-17203.71 -4301.59) rotate(154.05) scale(28.38 -28.38)" xlink:href="#linear-gradient-5"/>
    <linearGradient id="linear-gradient-17" x1="-447.77" y1="297.93" x2="-446.5" y2="297.93" gradientTransform="translate(3198.03 1573.46) rotate(-8.08) scale(6.27 -6.27)" gradientUnits="userSpaceOnUse">
      <stop offset="0" stop-color="#fff"/>
      <stop offset=".47" stop-color="#fcfcfc"/>
      <stop offset=".77" stop-color="#f5f3f3"/>
      <stop offset="1" stop-color="#ece7e7"/>
    </linearGradient>
    <linearGradient id="_ÂÁ_Ï_ÌÌ_È_ËÂÌÚ_35" data-name="¡ÂÁ˚ÏˇÌÌ˚È „‡‰ËÂÌÚ 35" x1="-496.04" y1="444.04" x2="-494.78" y2="444.04" gradientTransform="translate(-5756.68 -2991.78) rotate(165.95) scale(10.02 -10.02)" gradientUnits="userSpaceOnUse">
      <stop offset="0" stop-color="#ece7e7"/>
      <stop offset=".23" stop-color="#f5f3f3"/>
      <stop offset=".53" stop-color="#fcfcfc"/>
      <stop offset="1" stop-color="#fff"/>
    </linearGradient>
    <linearGradient id="_ÂÁ_Ï_ÌÌ_È_ËÂÌÚ_1050" data-name="¡ÂÁ˚ÏˇÌÌ˚È „‡‰ËÂÌÚ 1050" x1="132.41" y1="121.12" x2="154.72" y2="119.76" gradientUnits="userSpaceOnUse">
      <stop offset="0" stop-color="#b89c8c"/>
      <stop offset="1" stop-color="#715241"/>
    </linearGradient>
    <linearGradient id="_ÂÁ_Ï_ÌÌ_È_ËÂÌÚ_387" data-name="¡ÂÁ˚ÏˇÌÌ˚È „‡‰ËÂÌÚ 387" x1="3036" y1="118.55" x2="3052.24" y2="118.55" gradientTransform="translate(3191.42) rotate(-180) scale(1 -1)" gradientUnits="userSpaceOnUse">
      <stop offset="0" stop-color="#715241"/>
      <stop offset="1" stop-color="#b89c8c"/>
    </linearGradient>
    <linearGradient id="_ÂÁ_Ï_ÌÌ_È_ËÂÌÚ_133" data-name="¡ÂÁ˚ÏˇÌÌ˚È „‡‰ËÂÌÚ 133" x1="-730.73" y1="120.15" x2="-727.64" y2="122.38" gradientTransform="translate(-595.1) rotate(-180) scale(1 -1)" gradientUnits="userSpaceOnUse">
      <stop offset="0" stop-color="#fff"/>
      <stop offset=".46" stop-color="#f2f2f2"/>
      <stop offset="1" stop-color="#ddd"/>
    </linearGradient>
    <linearGradient id="_ÂÁ_Ï_ÌÌ_È_ËÂÌÚ_1050-2" data-name="¡ÂÁ˚ÏˇÌÌ˚È „‡‰ËÂÌÚ 1050" x1="146.61" y1="147.84" x2="147.04" y2="124.8" xlink:href="#_ÂÁ_Ï_ÌÌ_È_ËÂÌÚ_1050"/>
    <linearGradient id="_ÂÁ_Ï_ÌÌ_È_ËÂÌÚ_1655" data-name="¡ÂÁ˚ÏˇÌÌ˚È „‡‰ËÂÌÚ 1655" x1="-466.87" y1="407.14" x2="-465.7" y2="407.14" gradientTransform="translate(13106.63 -12536.65) rotate(-5.27) scale(30.74 28.03) skewX(1.23)" gradientUnits="userSpaceOnUse">
      <stop offset="0" stop-color="#4d322e"/>
      <stop offset=".06" stop-color="#4a302c"/>
      <stop offset=".55" stop-color="#3d2622"/>
      <stop offset="1" stop-color="#39231f"/>
    </linearGradient>
    <radialGradient id="_ÂÁ_Ï_ÌÌ_È_ËÂÌÚ_128" data-name="¡ÂÁ˚ÏˇÌÌ˚È „‡‰ËÂÌÚ 128" cx="80" cy="121.3" fx="80" fy="121.3" r="5.25" gradientTransform="translate(70.33) scale(.97 1)" gradientUnits="userSpaceOnUse">
      <stop offset="0" stop-color="#666"/>
      <stop offset="1" stop-color="#1d1d1d"/>
    </radialGradient>
    <linearGradient id="linear-gradient-18" x1="-507.9" y1="419.94" x2="-506.73" y2="419.94" gradientTransform="translate(18253.8 -4287.59) rotate(25.99) scale(28.38)" xlink:href="#linear-gradient-5"/>
    <linearGradient id="linear-gradient-19" x1="-319.8" y1="280.09" x2="-318.52" y2="280.09" gradientTransform="translate(-2152.97 1573.58) rotate(-171.88) scale(6.27)" xlink:href="#linear-gradient-17"/>
    <linearGradient id="_ÂÁ_Ï_ÌÌ_È_ËÂÌÚ_35-2" data-name="¡ÂÁ˚ÏˇÌÌ˚È „‡‰ËÂÌÚ 35" x1="-574.64" y1="463.43" x2="-573.38" y2="463.43" gradientTransform="translate(6805.9 -2984.35) rotate(14.09) scale(10.02)" xlink:href="#_ÂÁ_Ï_ÌÌ_È_ËÂÌÚ_35"/>
    <linearGradient id="_ÂÁ_Ï_ÌÌ_È_ËÂÌÚ_387-2" data-name="¡ÂÁ˚ÏˇÌÌ˚È „‡‰ËÂÌÚ 387" x1="95.52" y1="119.85" x2="75.55" y2="119.85" gradientTransform="matrix(1,0,0,1,0,0)" xlink:href="#_ÂÁ_Ï_ÌÌ_È_ËÂÌÚ_387"/>
    <linearGradient id="_ÂÁ_Ï_ÌÌ_È_ËÂÌÚ_1050-3" data-name="¡ÂÁ˚ÏˇÌÌ˚È „‡‰ËÂÌÚ 1050" x1="80.22" y1="118.03" x2="96.57" y2="118.03" xlink:href="#_ÂÁ_Ï_ÌÌ_È_ËÂÌÚ_1050"/>
    <linearGradient id="_ÂÁ_Ï_ÌÌ_È_ËÂÌÚ_133-2" data-name="¡ÂÁ˚ÏˇÌÌ˚È „‡‰ËÂÌÚ 133" x1="100.07" y1="119.87" x2="103.16" y2="122.09" gradientTransform="matrix(1,0,0,1,0,0)" xlink:href="#_ÂÁ_Ï_ÌÌ_È_ËÂÌÚ_133"/>
    <linearGradient id="_ÂÁ_Ï_ÌÌ_È_ËÂÌÚ_1050-4" data-name="¡ÂÁ˚ÏˇÌÌ˚È „‡‰ËÂÌÚ 1050" x1="87.93" y1="146.8" x2="88.35" y2="123.72" xlink:href="#_ÂÁ_Ï_ÌÌ_È_ËÂÌÚ_1050"/>
    <radialGradient id="_ÂÁ_Ï_ÌÌ_È_ËÂÌÚ_128-2" data-name="¡ÂÁ˚ÏˇÌÌ˚È „‡‰ËÂÌÚ 128" cx="33.28" cy="121.07" fx="33.28" fy="121.07" r="6.1" gradientTransform="translate(56.73) scale(.97 1)" xlink:href="#_ÂÁ_Ï_ÌÌ_È_ËÂÌÚ_128"/>
    <linearGradient id="_ÂÁ_Ï_ÌÌ_È_ËÂÌÚ_1655-2" data-name="¡ÂÁ˚ÏˇÌÌ˚È „‡‰ËÂÌÚ 1655" x1="-447.77" y1="409.07" x2="-446.59" y2="409.07" gradientTransform="translate(-12279.98 -12536.65) rotate(-174.73) scale(30.74 -28.03) skewX(1.23)" xlink:href="#_ÂÁ_Ï_ÌÌ_È_ËÂÌÚ_1655"/>
    <linearGradient id="_ÂÁ_Ï_ÌÌ_È_ËÂÌÚ_44" data-name="¡ÂÁ˚ÏˇÌÌ˚È „‡‰ËÂÌÚ 44" x1="74.09" y1="117.68" x2="103.65" y2="117.68" gradientUnits="userSpaceOnUse">
      <stop offset="0" stop-color="#38221e"/>
      <stop offset=".77" stop-color="#291915"/>
    </linearGradient>
    <linearGradient id="_ÂÁ_Ï_ÌÌ_È_ËÂÌÚ_44-2" data-name="¡ÂÁ˚ÏˇÌÌ˚È „‡‰ËÂÌÚ 44" x1="132.04" y1="117.93" x2="161.49" y2="117.93" xlink:href="#_ÂÁ_Ï_ÌÌ_È_ËÂÌÚ_44"/>
    <linearGradient id="_ÂÁ_Ï_ÌÌ_È_ËÂÌÚ_45" data-name="¡ÂÁ˚ÏˇÌÌ˚È „‡‰ËÂÌÚ 45" x1="101.83" y1="157.87" x2="135" y2="157.87" gradientUnits="userSpaceOnUse">
      <stop offset="0" stop-color="#f8d4ac"/>
      <stop offset=".52" stop-color="#ffd9b3"/>
      <stop offset="1" stop-color="#f7d4ab"/>
    </linearGradient>
    <linearGradient id="linear-gradient-20" x1="129.8" y1="163.2" x2="143.84" y2="163.2" xlink:href="#linear-gradient-5"/>
    <linearGradient id="_ÂÁ_Ï_ÌÌ_È_ËÂÌÚ_17" data-name="¡ÂÁ˚ÏˇÌÌ˚È „‡‰ËÂÌÚ 17" x1="92.56" y1="163.31" x2="105.64" y2="163.31" gradientUnits="userSpaceOnUse">
      <stop offset="0" stop-color="#f0c499"/>
      <stop offset=".51" stop-color="#e3b086"/>
      <stop offset="1" stop-color="#dba379"/>
    </linearGradient>
    <linearGradient id="linear-gradient-21" x1="104.39" y1="167.07" x2="132.7" y2="167.07" xlink:href="#linear-gradient-5"/>
    <linearGradient id="linear-gradient-22" x1="101.85" y1="164.96" x2="129.6" y2="164.55" gradientUnits="userSpaceOnUse">
      <stop offset="0" stop-color="#f96e7e"/>
      <stop offset=".03" stop-color="#f9707f"/>
      <stop offset=".25" stop-color="#fd7985"/>
      <stop offset=".53" stop-color="#ff7d88"/>
      <stop offset=".76" stop-color="#fd7985"/>
      <stop offset="1" stop-color="#f86d7d"/>
      <stop offset="1" stop-color="#f86d7d"/>
    </linearGradient>
    <linearGradient id="linear-gradient-23" x1="105.96" y1="158.93" x2="129.55" y2="158.73" xlink:href="#linear-gradient-22"/>
    <linearGradient id="_ÂÁ_Ï_ÌÌ_È_ËÂÌÚ_23-2" data-name="¡ÂÁ˚ÏˇÌÌ˚È „‡‰ËÂÌÚ 23" x1="161.29" y1="141.96" x2="192.72" y2="141.96" xlink:href="#_ÂÁ_Ï_ÌÌ_È_ËÂÌÚ_23"/>
    <linearGradient id="_ÂÁ_Ï_ÌÌ_È_ËÂÌÚ_18-3" data-name="¡ÂÁ˚ÏˇÌÌ˚È „‡‰ËÂÌÚ 18" x1="130.7" y1="178.1" x2="128.66" y2="207.75" xlink:href="#_ÂÁ_Ï_ÌÌ_È_ËÂÌÚ_18"/>
    <linearGradient id="_ÂÁ_Ï_ÌÌ_È_ËÂÌÚ_11" data-name="¡ÂÁ˚ÏˇÌÌ˚È „‡‰ËÂÌÚ 11" x1="-715.43" y1="650.28" x2="-669.27" y2="649.2" gradientTransform="translate(-405.52 -679.81) rotate(-168.85) scale(1 -1)" gradientUnits="userSpaceOnUse">
      <stop offset="0" stop-color="#3b2621"/>
      <stop offset=".41" stop-color="#3c2722"/>
      <stop offset=".56" stop-color="#432c25"/>
      <stop offset=".66" stop-color="#4f362c"/>
      <stop offset=".75" stop-color="#604335"/>
      <stop offset=".82" stop-color="#765441"/>
      <stop offset=".88" stop-color="#916950"/>
      <stop offset=".94" stop-color="#b18262"/>
      <stop offset=".99" stop-color="#d69f76"/>
      <stop offset="1" stop-color="#dba379"/>
    </linearGradient>
    <linearGradient id="_ÂÁ_Ï_ÌÌ_È_ËÂÌÚ_11-2" data-name="¡ÂÁ˚ÏˇÌÌ˚È „‡‰ËÂÌÚ 11" x1="-6507.75" y1="-490.94" x2="-6461.59" y2="-492.03" gradientTransform="translate(6543.09 -679.81) rotate(-11.15)" xlink:href="#_ÂÁ_Ï_ÌÌ_È_ËÂÌÚ_11"/>
    <linearGradient id="_ÂÁ_Ï_ÌÌ_È_ËÂÌÚ_126" data-name="¡ÂÁ˚ÏˇÌÌ˚È „‡‰ËÂÌÚ 126" x1="-416.14" y1="391.14" x2="-415.36" y2="391.14" gradientTransform="translate(5346.04 5180.85) rotate(.53) scale(12.79 -12.79)" gradientUnits="userSpaceOnUse">
      <stop offset="0" stop-color="#ffd9b3"/>
      <stop offset=".52" stop-color="#fccfa9"/>
      <stop offset="1" stop-color="#f8c39c"/>
    </linearGradient>
    <linearGradient id="_ÂÁ_Ï_ÌÌ_È_ËÂÌÚ_126-2" data-name="¡ÂÁ˚ÏˇÌÌ˚È „‡‰ËÂÌÚ 126" x1="-434.03" y1="390.88" x2="-433.25" y2="390.88" gradientTransform="translate(-5306.78 5215.68) rotate(179.09) scale(12.79)" xlink:href="#_ÂÁ_Ï_ÌÌ_È_ËÂÌÚ_126"/>
    <linearGradient id="_ÂÁ_Ï_ÌÌ_È_ËÂÌÚ_8-4" data-name="¡ÂÁ˚ÏˇÌÌ˚È „‡‰ËÂÌÚ 8" x1="127.46" y1="125.62" x2="214.15" y2="232.69" gradientTransform="translate(-12.27 3.36) rotate(-.19)" xlink:href="#_ÂÁ_Ï_ÌÌ_È_ËÂÌÚ_8"/>
    <linearGradient id="_ÂÁ_Ï_ÌÌ_È_ËÂÌÚ_8-5" data-name="¡ÂÁ˚ÏˇÌÌ˚È „‡‰ËÂÌÚ 8" x1="225.73" y1="263.96" x2="215.1" y2="227" gradientTransform="translate(-12.27 3.36) rotate(-.19)" xlink:href="#_ÂÁ_Ï_ÌÌ_È_ËÂÌÚ_8"/>
    <linearGradient id="_ÂÁ_Ï_ÌÌ_È_ËÂÌÚ_8-6" data-name="¡ÂÁ˚ÏˇÌÌ˚È „‡‰ËÂÌÚ 8" x1="-233.69" y1="261.03" x2="-244.32" y2="224.07" gradientTransform="translate(-209.6 3.71) rotate(179.81) scale(1 -1)" xlink:href="#_ÂÁ_Ï_ÌÌ_È_ËÂÌÚ_8"/>
    <linearGradient id="_ÂÁ_Ï_ÌÌ_È_ËÂÌÚ_8-7" data-name="¡ÂÁ˚ÏˇÌÌ˚È „‡‰ËÂÌÚ 8" x1="87.27" y1="145.38" x2="78.54" y2="228.34" gradientTransform="translate(-12.27 3.36) rotate(-.19)" xlink:href="#_ÂÁ_Ï_ÌÌ_È_ËÂÌÚ_8"/>
    <linearGradient id="_ÂÁ_Ï_ÌÌ_È_ËÂÌÚ_46" data-name="¡ÂÁ˚ÏˇÌÌ˚È „‡‰ËÂÌÚ 46" x1="194.26" y1="257" x2="177.83" y2="120.29" gradientTransform="translate(-12.27 3.36) rotate(-.19)" gradientUnits="userSpaceOnUse">
      <stop offset="0" stop-color="#593a33"/>
      <stop offset=".29" stop-color="#482e29"/>
      <stop offset=".61" stop-color="#3e2822"/>
      <stop offset="1" stop-color="#3b2621"/>
    </linearGradient>
    <linearGradient id="_ÂÁ_Ï_ÌÌ_È_ËÂÌÚ_8-8" data-name="¡ÂÁ˚ÏˇÌÌ˚È „‡‰ËÂÌÚ 8" x1="180.13" y1="166.4" x2="162.04" y2="15.91" gradientTransform="translate(-12.27 3.36) rotate(-.19)" xlink:href="#_ÂÁ_Ï_ÌÌ_È_ËÂÌÚ_8"/>
    <linearGradient id="_ÂÁ_Ï_ÌÌ_È_ËÂÌÚ_8-9" data-name="¡ÂÁ˚ÏˇÌÌ˚È „‡‰ËÂÌÚ 8" x1="93.16" y1="164.02" x2="76.32" y2="23.93" gradientTransform="translate(-12.27 3.36) rotate(-.19)" xlink:href="#_ÂÁ_Ï_ÌÌ_È_ËÂÌÚ_8"/>
    <linearGradient id="_ÂÁ_Ï_ÌÌ_È_ËÂÌÚ_55" data-name="¡ÂÁ˚ÏˇÌÌ˚È „‡‰ËÂÌÚ 55" x1="58.5" y1="251.23" x2="56.77" y2="100.31" gradientTransform="translate(-12.27 3.36) rotate(-.19)" gradientUnits="userSpaceOnUse">
      <stop offset="0" stop-color="#593a33"/>
      <stop offset=".19" stop-color="#52352f"/>
      <stop offset="1" stop-color="#3b2621"/>
    </linearGradient>
    <linearGradient id="linear-gradient-24" x1="162.9" y1="241.22" x2="176.29" y2="44.26" gradientTransform="translate(-12.27 3.36) rotate(-.19)" gradientUnits="userSpaceOnUse">
      <stop offset="0" stop-color="#593a33"/>
      <stop offset=".4" stop-color="#5d3d36"/>
      <stop offset=".85" stop-color="#6a4741"/>
      <stop offset="1" stop-color="#714c46"/>
    </linearGradient>
    <linearGradient id="_ÂÁ_Ï_ÌÌ_È_ËÂÌÚ_8-10" data-name="¡ÂÁ˚ÏˇÌÌ˚È „‡‰ËÂÌÚ 8" x1="106.44" y1="207.33" x2="88.14" y2="72.63" gradientTransform="translate(-12.27 3.36) rotate(-.19)" xlink:href="#_ÂÁ_Ï_ÌÌ_È_ËÂÌÚ_8"/>
    <linearGradient id="_ÂÁ_Ï_ÌÌ_È_ËÂÌÚ_8-11" data-name="¡ÂÁ˚ÏˇÌÌ˚È „‡‰ËÂÌÚ 8" x1="184.84" y1="196.08" x2="166.53" y2="61.39" gradientTransform="translate(-12.27 3.36) rotate(-.19)" xlink:href="#_ÂÁ_Ï_ÌÌ_È_ËÂÌÚ_8"/>
    <linearGradient id="_ÂÁ_Ï_ÌÌ_È_ËÂÌÚ_10" data-name="¡ÂÁ˚ÏˇÌÌ˚È „‡‰ËÂÌÚ 10" x1="65.19" y1="302" x2="37.56" y2="174.91" gradientTransform="translate(-12.27 3.36) rotate(-.19)" gradientUnits="userSpaceOnUse">
      <stop offset="0" stop-color="#3b2621"/>
      <stop offset=".77" stop-color="#51342e"/>
      <stop offset="1" stop-color="#593a33"/>
    </linearGradient>
    <linearGradient id="linear-gradient-25" x1="72.88" y1="120.38" x2="71.5" y2="231.24" xlink:href="#linear-gradient-24"/>
    <linearGradient id="linear-gradient-26" x1="171.23" y1="253.62" x2="176.43" y2="177.02" xlink:href="#linear-gradient-24"/>
    <linearGradient id="linear-gradient-27" x1="166.74" y1="232.28" x2="171.23" y2="166.24" xlink:href="#linear-gradient-24"/>
    <linearGradient id="linear-gradient-28" x1="88.67" y1="244.63" x2="93.69" y2="170.67" xlink:href="#linear-gradient-24"/>
    <linearGradient id="linear-gradient-29" x1="55.9" y1="249.73" x2="58.69" y2="208.7" xlink:href="#linear-gradient-24"/>
    <linearGradient id="linear-gradient-30" x1="186.17" y1="251.7" x2="188.73" y2="214.01" xlink:href="#linear-gradient-24"/>
    <linearGradient id="linear-gradient-31" x1="131.47" y1="41.5" x2="125.32" y2="3.13" xlink:href="#linear-gradient-24"/>
    <linearGradient id="_ÂÁ_Ï_ÌÌ_È_ËÂÌÚ_8-12" data-name="¡ÂÁ˚ÏˇÌÌ˚È „‡‰ËÂÌÚ 8" x1="148.62" y1="68.93" x2="159.67" y2="45.83" gradientTransform="translate(-12.27 3.36) rotate(-.19)" xlink:href="#_ÂÁ_Ï_ÌÌ_È_ËÂÌÚ_8"/>
    <linearGradient id="_ÂÁ_Ï_ÌÌ_È_ËÂÌÚ_8-13" data-name="¡ÂÁ˚ÏˇÌÌ˚È „‡‰ËÂÌÚ 8" x1="93.98" y1="78.65" x2="113.27" y2="38.35" gradientTransform="translate(-12.27 3.36) rotate(-.19)" xlink:href="#_ÂÁ_Ï_ÌÌ_È_ËÂÌÚ_8"/>
    <linearGradient id="_ÂÁ_Ï_ÌÌ_È_ËÂÌÚ_8-14" data-name="¡ÂÁ˚ÏˇÌÌ˚È „‡‰ËÂÌÚ 8" x1="202.58" y1="107.07" x2="141.8" y2="6.91" gradientTransform="translate(-12.27 3.36) rotate(-.19)" xlink:href="#_ÂÁ_Ï_ÌÌ_È_ËÂÌÚ_8"/>
    <linearGradient id="_ÂÁ_Ï_ÌÌ_È_ËÂÌÚ_8-15" data-name="¡ÂÁ˚ÏˇÌÌ˚È „‡‰ËÂÌÚ 8" x1="100.21" y1="77.21" x2="74.02" y2="34.04" gradientTransform="translate(-12.27 3.36) rotate(-.19)" xlink:href="#_ÂÁ_Ï_ÌÌ_È_ËÂÌÚ_8"/>
    <linearGradient id="_ÂÁ_Ï_ÌÌ_È_ËÂÌÚ_8-16" data-name="¡ÂÁ˚ÏˇÌÌ˚È „‡‰ËÂÌÚ 8" x1="214.31" y1="165.51" x2="197.39" y2="50.85" gradientTransform="translate(-12.27 3.36) rotate(-.19)" xlink:href="#_ÂÁ_Ï_ÌÌ_È_ËÂÌÚ_8"/>
    <linearGradient id="_ÂÁ_Ï_ÌÌ_È_ËÂÌÚ_8-17" data-name="¡ÂÁ˚ÏˇÌÌ˚È „‡‰ËÂÌÚ 8" x1="58.04" y1="145.21" x2="46.71" y2="68.44" gradientTransform="translate(-12.27 3.36) rotate(-.19)" xlink:href="#_ÂÁ_Ï_ÌÌ_È_ËÂÌÚ_8"/>
    <linearGradient id="_ÂÁ_Ï_ÌÌ_È_ËÂÌÚ_7" data-name="¡ÂÁ˚ÏˇÌÌ˚È „‡‰ËÂÌÚ 7" x1="232.04" y1="264.11" x2="202" y2="125.62" gradientTransform="translate(-12.27 3.36) rotate(-.19)" gradientUnits="userSpaceOnUse">
      <stop offset="0" stop-color="#3b2621"/>
      <stop offset=".38" stop-color="#472e28"/>
      <stop offset="1" stop-color="#593a33"/>
    </linearGradient>
    <linearGradient id="linear-gradient-32" x1="71.08" y1="188.2" x2="81.31" y2="37.74" xlink:href="#linear-gradient-24"/>
    <linearGradient id="_ÂÁ_Ï_ÌÌ_È_ËÂÌÚ_46-2" data-name="¡ÂÁ˚ÏˇÌÌ˚È „‡‰ËÂÌÚ 46" x1="100.04" y1="239.32" x2="57.32" y2="168.93" xlink:href="#_ÂÁ_Ï_ÌÌ_È_ËÂÌÚ_46"/>
  </defs>
  <g id="Layer_1-2" data-name="Layer 1">
    <g style="clip-path: url(#clippath);">
      <g>
        <g>
          <path d="M209.13,205s13,26.47-.73,54.78l.73-54.78Z" style="fill: url(#_ÂÁ_Ï_ÌÌ_È_ËÂÌÚ_8);"/>
          <path d="M22.89,205.59s-14.56,25.65-2.54,54.72l2.54-54.72Z" style="fill: url(#_ÂÁ_Ï_ÌÌ_È_ËÂÌÚ_8-2);"/>
          <path d="M117.95,25.59s43.95-1.37,58.52,34.18c14.57,35.55,15.98,93.32,18.02,109.39,2.04,16.07-8.03,65.75-8.03,65.75l-140.2,3.43s-5.39-114.05-1.2-135.72c4.19-21.67,72.9-77.03,72.9-77.03Z" style="fill: url(#_ÂÁ_Ï_ÌÌ_È_ËÂÌÚ_8-3);"/>
        </g>
        <path d="M145.86,152.72s2.56,63.85,8.5,68.3c7.53,5.65,81.88,22.12,86.62,27.53,11.81,13.47,13.3,6.94,16.27,35.16,2.97,28.22-263.41,3.66-263.41,3.66,0,0,7.04-38.03,14.97-41.9,23.11-11.3,63.27-17.65,73.9-21.53,14.89-5.44,12.65-62.3,12.65-62.3l50.5-8.91Z" style="fill: #f7d4ab;"/>
        <path d="M154.4,219.2c-4.02-3.82-4.56-48.38-4.56-48.38,0,0-58.57,3.22-59.48,2.19.05,4.12.4,33.65,0,36.78-.47,3.57.15,14.26-40.03,22.88,0,0,13.7-.69,38.97-6.27,4.53-1,10.31-6.84,10.31-11.04,0,0,26.92,1.67,40.53-11.43,1.41,10.37,2.72,33.74,6.05,35.9s33.21,5.48,33.21,5.48l3.95-14c-8.56-2.07-24.92-8.29-28.94-12.11Z" style="fill: url(#linear-gradient);"/>
        <path d="M111.05,229.81s-5-6.58-9.27-6.42c-4.27.16-42.52,10.34-47.98,10.83,0,0,14.58-.31,26.31-2.26,11.72-1.96,20.05-6.5,30.94-2.15Z" style="fill: url(#linear-gradient-2);"/>
        <path d="M126.85,228.48s4.16-5.09,9.52-5.58c5.37-.49,42.82,8.92,49.5,11.21,0,0-47.98-9.31-59.02-5.63Z" style="fill: url(#linear-gradient-3);"/>
        <path d="M62.41,229.78s-2.95,43.89,53.2,41.12c56.15-2.77,63.75-41.35,63.75-41.35l-18.75-6.53s-4.16,7.7-34.44,7.78c-44.03.13-44.72-8.73-44.72-8.73l-19.04,7.71Z" style="fill: url(#linear-gradient-4);"/>
        <path d="M224.83,339.19c.73-17.64,33.06-81.23,20.35-91.09-4.13-3.21-17.19-9.09-31.56-13.03-19.94-5.48-41.44-10.22-41.44-10.22,0,0-10.08,14.16-52.71,12.66-49.01-1.73-49.17-12.66-49.17-12.66l-39.03,11.45-25.46,9.01c0,1.71,12.06,75.13,16.98,104.95h200.71c.42-5.89.9-10.97,1.32-11.06Z" style="fill: #f5d534;"/>
        <path d="M70.31,224.85s-5.16,18.38,56.39,16.28c45.63-1.56,45.48-16.28,45.48-16.28l-6.84-2.21s-.82,11.87-39.78,12.74c-50.25,1.11-48.34-12.74-48.34-12.74l-6.91,2.21Z" style="fill: url(#_ÂÁ_Ï_ÌÌ_È_ËÂÌÚ_29);"/>
        <path d="M90.51,204.03s-.96-33.75-1.91-41.06l61.44,6.34.3,18.43s-20.39,28.56-59.83,16.29Z" style="fill: url(#linear-gradient-5);"/>
        <g>
          <path d="M117.9,24.86c-.11-.07-.16-.09-.16-.09.06.03.11.06.16.09Z" style="fill: url(#_ÂÁ_Ï_ÌÌ_È_ËÂÌÚ_14);"/>
          <g>
            <g>
              <path d="M57.71,113.15c2.72,20.19,6.19,35.55,6.19,35.55-8.64.03-13.02-8.62-16.42-16.24-5.2-11.65-8.28-24.14,3.46-24.85,2.29-.14,6.77,5.55,6.77,5.55Z" style="fill: url(#linear-gradient-6);"/>
              <path d="M56.24,141.93s-4.24-4.46-2.96-13.26c3.02-20.78-11.06-22.15-7.82-7.99,0,0,1.92-6.69,3.71-4.7,2.2,2.45-2.34,3.82.02,14.53,1.22,5.56,7.05,11.42,7.05,11.42Z" style="fill: url(#linear-gradient-7);"/>
            </g>
            <g>
              <path d="M178.58,112.75c-2.59,20.2-4.77,35.58-4.77,35.58,8.64-.03,11.78-8.7,15.12-16.34,5.12-11.68,8.12-24.2-3.62-24.83-2.29-.12-6.74,5.59-6.74,5.59Z" style="fill: url(#linear-gradient-8);"/>
              <path d="M180.24,141.51s4.21-4.49,2.87-13.28c-3.16-20.75,10.91-22.22,7.76-8.04,0,0-1.97-6.68-3.74-4.67-2.18,2.46,2.36,3.8.08,14.53-1.19,5.57-6.97,11.47-6.97,11.47Z" style="fill: url(#linear-gradient-9);"/>
            </g>
            <path d="M171.28,48.79c-7.58-17.17-19.22-27.8-45.37-29.37,0,0-59.71,7.99-67.17,25.22-8.13,18.76-5.7,45.07-3.3,62.28,2.4,17.21,7.18,45.1,11.5,52.99,4.32,7.89,26.1,26.28,30.8,29.78,4.39,3.27,11.69,8.78,20.89,8.78,9.66,0,24.12-12.05,28.38-15.41,4.6-3.63,18.57-16.39,22.83-24.31,4.27-7.92,8.94-35.02,11.23-52.24,2.28-17.22-1.51-39-9.77-57.71Z" style="fill: url(#_ÂÁ_Ï_ÌÌ_È_ËÂÌÚ_384);"/>
            <path d="M102.09,92.68c-7.56-4.07-34.14.05-38.47,3.31-10.09,7.6-2.6,28.86-2.6,28.86,0,0,19.83,21.41,53.35,8.1-2.73-14.05-6.32-37.08-12.27-40.28Z" style="fill: url(#linear-gradient-10);"/>
            <path d="M93.46,114.34c-7.71-2.28-37.56-8.45-36.11,1.45,3.22,21.9,6.13,36.95,9.96,43.76,4.01,7.13,15.78,18.34,20.85,19.18,7.84,1.31,16.06-27.58,16.21-37.46.22-13.84-3.21-24.65-10.92-26.92Z" style="fill: url(#radial-gradient);"/>
            <path d="M119.28,172.2c-5.5.28-9.91,2.27-9.87,4.45.04,2.18,4.51,3.74,9.99,3.46,5.48-.28,9.89-2.26,9.86-4.45-.04-2.18-4.52-3.73-9.99-3.45Z" style="fill: url(#linear-gradient-11);"/>
            <path d="M173.01,134.74s6.44-19.86,7.13-23.39c4.03-20.51,8.16-91.35-67.48-86.44-77.79,5.05-52.38,109.17-52.38,109.17,0,0,23.82-91.47,56.98-92.4,0,0,39.59,1.25,55.75,93.07Z" style="fill: url(#_ÂÁ_Ï_ÌÌ_È_ËÂÌÚ_18);"/>
            <polygon points="60.28 134.07 66.92 159.9 66.31 79.01 58.27 87.25 60.28 134.07" style="fill: url(#_ÂÁ_Ï_ÌÌ_È_ËÂÌÚ_72);"/>
            <path d="M169.56,97.9c-4.38-3.12-29.31-7.76-37.52-5.22-6.91,2.14-7.26,24.93-9.77,39.18,33.7,12.11,53.21-10.21,53.21-10.21,0,0,4.28-16.49-5.92-23.75Z" style="fill: url(#linear-gradient-12);"/>
            <path d="M55.74,109.1s5.63,39.84,10.77,50.91c1.67,3.6,11.5,12.99,20.87,21.09,0,0-17.01-20.05-18.84-25.07-4.01-11.01-12.8-46.92-12.8-46.92Z" style="fill: url(#_ÂÁ_Ï_ÌÌ_È_ËÂÌÚ_18-2);"/>
            <path d="M140.07,93.18s17.31-2.96,29.49,4.72l2.99,6.65c.8,4.75-1.58-4.16-32.48-11.37Z" style="fill: url(#linear-gradient-13);"/>
            <path d="M143.12,114.18c7.69-2.33,37.51-8.7,36.12,1.21-3.07,21.92-5.89,36.99-9.67,43.83-3.96,7.16-15.66,18.44-20.72,19.32-7.83,1.36-16.24-27.47-16.46-37.36-.31-13.84,3.05-24.67,10.74-27Z" style="fill: url(#radial-gradient-2);"/>
            <polygon points="175.12 137.04 169.19 156.26 167.6 81.11 177.5 86.12 175.12 137.04" style="fill: url(#_ÂÁ_Ï_ÌÌ_È_ËÂÌÚ_72-2);"/>
            <g>
              <g>
                <polygon points="105.96 149.07 117.73 157.11 128.72 148.77 127.15 147.45 117.1 147.61 107.09 147.65 105.96 149.07" style="fill: url(#linear-gradient-14);"/>
                <path d="M106.31,148.86s4.44-1.4,8.35.24l4.78-.02s4.73-1.84,9.28-.32l.19-2.16-3.81-.76-8.01,2.05-7.33-1.99-3.82.46.36,2.51Z" style="fill: url(#linear-gradient-15);"/>
                <path d="M104.75,139.57s-2.06,1.16-2.36,4.31c-.34,3.6,3.39,5.55,3.96,5.18.57-.37-.49-3.09,2.95-2.62,3.44.47,3.27,2.2,3.83,2.79s6.61.71,7.63.07c1.02-.64.73-3,3.98-2.91,3.25.09,3.35,2.31,3.82,2.6.47.28,2.39-1.45,2.93-4.76s-2.94-4.73-2.94-4.73c0,0,1.77,2.93,1.03,4.8-.74,1.88-5.75.28-7.79,1.56-3.76,2.38-6.05,1.8-9.81.03-2.47-1.16-5.92.32-7.31-1.71-.48-.7-.61-3.21.08-4.62Z" style="fill: #f0c499;"/>
                <path d="M109.32,137.92c-.06,2.3.22,3.27,1.2,4.77,1.5,2.28,12,4.11,13.78-1.14.35-1.05.34-2.68.14-4.74-.22-2.35-15.07-1.18-15.12,1.11Z" style="fill: url(#_ÂÁ_Ï_ÌÌ_È_ËÂÌÚ_23);"/>
              </g>
              <g>
                <path d="M147.24,104.14c-14.07-.59-16.5,11.4-16.82,18.88,1.32.29,2.71.53,5.29,1.3,3.5,1.04,7.6,2.72,13.51,2.65,4.65-.05,16.72-2.79,14.74-12.3-1.73-8.33-12.51-10.19-16.72-10.52Z" style="fill: url(#linear-gradient-16);"/>
                <path d="M155.34,118.59c.21-4.65-2.97-5.87-6.8-7.19,4.29.38,9.98-.25,16.28,5.12,0,0-3.55,7.77-13.71,9.18,2.37-1.64,4.08-3.75,4.23-7.11Z" style="fill: url(#linear-gradient-17);"/>
                <path d="M142.5,112.12c-1.75,1.7-3.82,3.04-3.95,5.83-.14,3.23.65,5.09,2.71,7.04-2.64-.73-5.42-2.35-9.22-2.9,0,0,4.31-6.17,10.46-9.96Z" style="fill: url(#_ÂÁ_Ï_ÌÌ_È_ËÂÌÚ_35);"/>
                <path d="M138.29,117.57c-.07.37-.15,1.09-.16,1.48-.06,2.37.96,4.21,3.06,5.91.65.21,4.36,1.55,9.68.86,2.74-.52,5.12-3.27,5.28-6.25.08-1.55-.25-3.04-.91-4.34-4.8-1.6-11.11-1.55-16.96,2.33Z" style="fill: url(#_ÂÁ_Ï_ÌÌ_È_ËÂÌÚ_1050);"/>
                <path d="M139.17,118.84c0,4.38,3.63,7.29,8.12,7.29s8.12-2.81,8.12-7.19-3.62-7.96-8.12-7.96-8.12,3.48-8.12,7.86Z" style="fill: url(#_ÂÁ_Ï_ÌÌ_È_ËÂÌÚ_387);"/>
                <path d="M134.46,118.42s-1.28,1.79.97,4.46c0,0-1.6-.55-3.39-.8,0,0,1.6-2.86,2.42-3.66Z" style="fill: url(#_ÂÁ_Ï_ÌÌ_È_ËÂÌÚ_133);"/>
                <path d="M151.62,112.75c4.52.85,8.75,3.04,11.24,6.28l-1.2,2.29s-1.94-1.19-5.5-2.72c-.69-2.16-2.58-4.74-4.53-5.85Z" style="fill: #ddd;"/>
                <path d="M138.14,119.05c-1.85.75-5.01,1.93-6.09,3.03,0,0,4.15-7.35,9.78-10.2-1.71,1.37-3.31,4.99-3.68,7.17Z" style="fill: #ddd;"/>
                <path d="M147.26,116.99c-5.69.45-8.2,1.62-9.12,2.06-.02-1.33.99-4.97,3.17-6.15.76-.41,1.8-.08,2.65-.25,2.62-.53,6.21-.21,8.94.3,1.96,1.11,2.92,3.02,3.25,5.66-1.29-.79-4.18-1.7-8.9-1.61Z" style="fill: url(#_ÂÁ_Ï_ÌÌ_È_ËÂÌÚ_1050-2);"/>
                <path d="M165.03,118.88h0c3.74-2.02,1.97-7.51,2.01-7.7-.1.04-2.41,2.29-8.11.71-17.65-4.9-26.24,4.3-26.89,10.19,0,0,4.46-6.55,14.43-7.34,5.65-.44,11.33,1.79,15.02,3.89-2.64,3.4-4.72,5.24-10.59,7.19,4.32-.12,8.2-1.82,10.99-3.01,1.3-.55,4.7-2.27,5.45-4.77-.62,1.26-2,1-2.31.85Z" style="fill: url(#_ÂÁ_Ï_ÌÌ_È_ËÂÌÚ_1655);"/>
                <path d="M141.41,119.11c-.22,3.09,2.13,5.78,5.22,6.01,3.1.23,5.78-2.1,6-5.19.21-3.09-2.13-5.79-5.23-6.01-3.09-.23-5.78,2.1-5.99,5.19Z" style="fill: url(#_ÂÁ_Ï_ÌÌ_È_ËÂÌÚ_128);"/>
                <path d="M148.23,121.75c.28.9-.19,1.84-1.04,2.1-.85.25-1.75-.28-2.02-1.18-.27-.9.2-1.84,1.04-2.09.84-.25,1.76.27,2.02,1.17Z" style="fill: #fff;"/>
                <path d="M132.1,113.8s2.28-12.17,18.12-9.27c0,0-13.04-1.12-18.12,9.27Z" style="fill: #dba379;"/>
                <path d="M87.05,103.46c12.94-.18,17.08,11.71,17.39,19.18-1.33.28-2.72.53-5.33,1.29-3.52,1.04-7.66,2.71-13.6,2.64-4.68-.05-15.92-2.31-14.19-11.88,1.53-8.47,11.49-10.9,15.72-11.23Z" style="fill: url(#linear-gradient-18);"/>
                <path d="M80.2,118.3c-.21-4.66,2.99-5.87,6.85-7.19-4.32.37-10.04-.25-16.39,5.1,0,0,3.56,7.77,13.79,9.19-2.39-1.64-4.1-3.75-4.25-7.11Z" style="fill: url(#linear-gradient-19);"/>
                <path d="M93.12,111.83c1.76,1.7,3.85,3.04,3.97,5.83.14,3.23-.66,5.09-2.73,7.03,2.66-.73,5.46-2.35,9.28-2.89,0,0-4.34-6.17-10.52-9.97Z" style="fill: url(#_ÂÁ_Ï_ÌÌ_È_ËÂÌÚ_35-2);"/>
                <path d="M97.36,117.29c.07.37.15,1.09.16,1.48.06,2.37-.97,4.21-3.08,5.91-.65.21-4.39,1.55-9.75.86-2.76-.53-5.15-3.28-5.31-6.25-.08-1.55.25-3.04.92-4.34,4.83-1.6,11.18-1.54,17.07,2.34Z" style="fill: url(#_ÂÁ_Ï_ÌÌ_È_ËÂÌÚ_387-2);"/>
                <path d="M96.57,118.31c0,4.38-3.65,7.29-8.18,7.29s-8.17-2.81-8.17-7.19,3.65-7.96,8.17-7.96,8.18,3.48,8.18,7.86Z" style="fill: url(#_ÂÁ_Ï_ÌÌ_È_ËÂÌÚ_1050-3);"/>
                <path d="M101.23,118.15s1.33,1.77-.94,4.44c0,0,1.55-.52,3.36-.78,0,0-1.59-2.86-2.42-3.66Z" style="fill: url(#_ÂÁ_Ï_ÌÌ_È_ËÂÌÚ_133-2);"/>
                <path d="M83.95,112.46c-4.55.85-8.81,3.03-11.32,6.27l1.21,2.29s1.95-1.19,5.54-2.72c.69-2.16,2.6-4.74,4.57-5.85Z" style="fill: #ddd;"/>
                <path d="M97.51,118.77c1.86.75,5.04,1.94,6.13,3.04,0,0-4.17-7.35-9.83-10.21,1.72,1.37,3.33,4.99,3.7,7.17Z" style="fill: #ddd;"/>
                <path d="M88.34,116.7c5.73.45,8.25,1.63,9.18,2.06.02-1.33-.99-4.97-3.19-6.15-.76-.41-1.82-.08-2.67-.25-2.64-.53-6.25-.22-9,.29-1.97,1.11-3.02,2.96-3.28,5.66,1.3-.79,4.21-1.7,8.96-1.61Z" style="fill: url(#_ÂÁ_Ï_ÌÌ_È_ËÂÌÚ_1050-4);"/>
                <path d="M94.23,118.88c.22,3.09-2.15,5.78-5.26,6.01-3.12.22-5.82-2.11-6.03-5.2-.21-3.1,2.15-5.79,5.27-6.01,3.11-.23,5.82,2.1,6.02,5.2Z" style="fill: url(#_ÂÁ_Ï_ÌÌ_È_ËÂÌÚ_128-2);"/>
                <path d="M89.21,121.43c.3.89-.14,1.84-.99,2.13-.85.28-1.77-.23-2.07-1.12-.29-.89.15-1.85.99-2.12.84-.28,1.77.22,2.07,1.11Z" style="fill: #fff;"/>
                <path d="M83.42,117.02s4.87-2,10.6.66c0,0-.7-4.06-5.43-4.01-4.08.04-5.17,3.35-5.17,3.35Z" style="fill: #0f0f0f;"/>
                <path d="M70.52,118.58h0c-3.77-2.02-1.98-7.51-2.02-7.7.1.04,2.43,2.29,8.16.71,17.76-4.9,26.34,4.33,26.99,10.21,0,0-4.34-6.78-14.44-7.36-5.7-.33-11.4,1.79-15.12,3.89,2.65,3.4,4.69,5.26,10.6,7.2-4.35-.12-8.2-1.84-11.01-3.03-1.31-.55-4.73-2.27-5.48-4.77.63,1.26,2.02,1,2.33.85Z" style="fill: url(#_ÂÁ_Ï_ÌÌ_È_ËÂÌÚ_1655-2);"/>
                <path d="M74.09,118.34s18.15-10.45,29.56,3.47c0,0-10.44-15.97-29.56-3.47Z" style="fill: url(#_ÂÁ_Ï_ÌÌ_È_ËÂÌÚ_44);"/>
                <path d="M141.64,117.83s.83-3.64,5.06-3.82c4.23-.18,5.22,2.87,5.52,3.43,0,0-4.87-1.72-10.59.4Z" style="fill: #0f0f0f;"/>
                <path d="M84.39,103.85s13.55-3.56,18.04,9.88c0,0-3.93-9.82-18.04-9.88Z" style="fill: #dba379;"/>
                <path d="M161.49,118.64s-18.11-10.48-29.45,3.44c0,0,10.62-16.09,29.45-3.44Z" style="fill: url(#_ÂÁ_Ï_ÌÌ_È_ËÂÌÚ_44-2);"/>
                <path d="M95.31,118.2c.37,1.18-.26,2.46-1.43,2.86-1.16.39-2.4-.24-2.77-1.42-.37-1.18.27-2.46,1.42-2.85,1.17-.4,2.41.23,2.78,1.41Z" style="fill: #fff;"/>
                <path d="M154.37,118.69c.33,1.19-.33,2.45-1.49,2.82-1.17.35-2.38-.31-2.72-1.5-.34-1.19.33-2.45,1.49-2.81,1.17-.37,2.38.3,2.72,1.49Z" style="fill: #fff;"/>
              </g>
              <g>
                <path d="M101.83,160.81s8.56-4.81,11.21-5.44,7.77-.57,9.27,0c1.5.57,12.69,5.05,12.69,5.05,0,0-14.93-1.61-17.9-1.61-2.97,0-15.27,2-15.27,2Z" style="fill: url(#_ÂÁ_Ï_ÌÌ_È_ËÂÌÚ_45);"/>
                <g>
                  <path d="M135,160.43s8.39.67,8.81,2.24c.59,2.22-7.65-1-14.01,3.3l5.2-5.54Z" style="fill: url(#linear-gradient-20);"/>
                  <path d="M102.19,160.84s-9.62.96-9.63,2.56c0,2.37,9.77-.47,13.08,2.37l-3.46-4.94Z" style="fill: url(#_ÂÁ_Ï_ÌÌ_È_ËÂÌÚ_17);"/>
                  <path d="M104.39,164.87s4.39,5.56,13.64,5.28c8.99-.27,14.66-6.15,14.66-6.15l-28.3.87Z" style="fill: url(#linear-gradient-21);"/>
                  <g>
                    <path d="M139.34,161.33s2.87.28,2.96,1.1c.05.46-.66.2-2.25,0-1.16-.15-2.55-.17-2.55-.17,0,0-7.03,1.14-7.82.88-.78-.26-8.71.87-11.58.87s-13.32-.57-14.9-.78c-1.49-.2-2.95-.27-4.25-.26-.75,0-1.48.18-2.1.23-.61.05-2.76.56-3.04-.07-.15-.34,0-.32,2.08-.82,7.63-1.84,19.13-2.03,20.7-2.55,1.57-.52,18.61.76,22.75,1.59Z" style="fill: #961b27;"/>
                    <path d="M98.67,161.72c2.73-.6,10.48-3.42,11.94-3.94,4.19-1.48,11.04-1.08,13.98-.11,1.95.65,6.6,2.07,13.43,3.43-5.8-.6-7.88.39-10.79.39-.9,0-4.48-.77-9.61-.77-4.11,0-5.86,1.02-9.75.84-2.54-.12-5.97-.36-9.21.15Z" style="fill: #f86d78;"/>
                    <path d="M98.99,162.95l7.7-.78s8.57-.58,11.58-.6c2.37-.02,10.78.48,11.71.34,3.4-.52,7.56.34,7.56.34,0,0-2.73.74-5.44,2.62-3.37,2.34-7.16,3.32-13.27,3.34-8.04.03-10.42-.45-13.75-2.6-2.52-1.62-6.09-2.65-6.09-2.65Z" style="fill: #f86d78;"/>
                    <path d="M105.73,163.52c2.54-1.81,11.85-1.21,12.58-1.21s13.74.03,12.28,2.21c-1.46,2.18-6.65,2.54-10.09,2.7-10.42.48-17.36-1.85-14.77-3.69Z" style="fill: url(#linear-gradient-22);"/>
                    <path d="M106.53,160.3c-.89-.31,3.87-2.13,5.82-2.63,3.09-.79,7.71-1,11.13,0,.86.25,7.25,1.95,6.3,2.57-1.76,1.16-9.42-1.07-13.94-.62-2.26.22-6.5,1.65-9.31.68Z" style="fill: url(#linear-gradient-23);"/>
                    <path d="M128.37,163.57c.19.41-.76,1.9-2.98,2.75-2.85,1.1-5.25.41-5.44,0-.19-.41,3.67-.99,4.76-1.49,1.09-.51,3.47-1.67,3.65-1.26Z" style="fill: #ff9aa2;"/>
                  </g>
                </g>
              </g>
            </g>
            <path d="M180.8,108.68s-5.37,39.88-10.44,50.98c-1.65,3.61-10.34,12.13-20.76,21.13,0,0,15.25-17.69,18.29-25.76,4.13-10.96,12.9-46.35,12.9-46.35Z" style="fill: url(#_ÂÁ_Ï_ÌÌ_È_ËÂÌÚ_23-2);"/>
            <path d="M87.38,181.09s14.59,9.13,16.2,10.03c3.21,1.8,6.5,2.97,14.81,3.22,8.1.24,13.04-1.96,15.31-3.49,2.39-1.61,15.88-9.87,17.03-10.98,0,0-10.99,9.4-14.67,12.46-6.01,4.99-13.09,6.45-17.52,6.47-5.58.02-10.17-2.21-14.96-4.89-5.22-2.92-16.21-12.8-16.21-12.8Z" style="fill: url(#_ÂÁ_Ï_ÌÌ_È_ËÂÌÚ_18-3);"/>
            <path d="M135.14,85.45c-1.07.88-2.23,4.11-1.89,5.98.54-2.85,2.34-5.78,4.36-6.09.18,0,.39-.01.6-.01-1.5.93-2.59,2.54-2.85,4.69.89-1.46,2.56-4.02,4.67-4.6,5.77.25,14.41,2.94,18.06,4.41,5.19,2.08,12.7,8.37,12.7,8.37,0,0-9.05-2.14-13.94-3.45-3.15-.83-20.57-1.79-24.82-2.07-.56-.04-.6-5.74,3.1-7.23Z" style="fill: url(#_ÂÁ_Ï_ÌÌ_È_ËÂÌÚ_11);"/>
            <path d="M98.99,85.45c1.07.88,2.23,4.11,1.89,5.98-.54-2.85-2.34-5.78-4.36-6.09-.18,0-.39-.01-.6-.01,1.5.93,2.59,2.54,2.85,4.69-.89-1.46-2.56-4.02-4.67-4.6-5.77.25-14.41,2.94-18.06,4.41-5.19,2.08-12.7,8.37-12.7,8.37,0,0,9.05-2.14,13.94-3.45,3.15-.83,20.57-1.79,24.82-2.07.56-.04.6-5.74-3.1-7.23Z" style="fill: url(#_ÂÁ_Ï_ÌÌ_È_ËÂÌÚ_11-2);"/>
            <path d="M75.09,124.97c-2.73-.59-5.18.25-5.47,1.89-.3,1.65,1.68,3.46,4.4,4.06,2.73.59,5.18-.25,5.48-1.89.29-1.65-1.68-3.46-4.41-4.06Z" style="fill: url(#_ÂÁ_Ï_ÌÌ_È_ËÂÌÚ_126);"/>
            <path d="M159.49,124.69c2.72-.61,5.18.22,5.48,1.86.31,1.64-1.65,3.47-4.37,4.09-2.73.61-5.18-.22-5.49-1.85-.3-1.64,1.66-3.47,4.38-4.09Z" style="fill: url(#_ÂÁ_Ï_ÌÌ_È_ËÂÌÚ_126-2);"/>
          </g>
          <path d="M176.66,142.95s-12.46,37.48-18.03,49.89c-5.58,12.41-.12,54.39-.12,54.39,0,0,31-59.49,27.39-86.47-3.61-26.98-9.23-17.81-9.23-17.81Z" style="fill: url(#_ÂÁ_Ï_ÌÌ_È_ËÂÌÚ_8-4);"/>
          <path d="M201.23,223.52s4.11,16.72,14.49,25.54c0,0-12.76-2.4-15.78-9.9-3.02-7.49,1.29-15.64,1.29-15.64Z" style="fill: url(#_ÂÁ_Ï_ÌÌ_È_ËÂÌÚ_8-5);"/>
          <path d="M37.77,220.83s-4,16.75-14.32,25.63c0,0,12.74-2.49,15.71-10,2.97-7.51-1.39-15.63-1.39-15.63Z" style="fill: url(#_ÂÁ_Ï_ÌÌ_È_ËÂÌÚ_8-6);"/>
          <path d="M88.43,219.52c-2.09-25.72-13.81-44.52-19.54-51.91-9.38-12.12-10.32-39.61-10.32-39.61,0,0-5.54,44.5-7.77,60.44-3.44,24.6,7.28,57.91,18.46,65.14,7.29-12.84,8.15-27.62,5.57-45.95,9.89,19.49,2.14,38.03.17,49.91,7.5-8.42,14.33-27.07,13.44-38.03Z" style="fill: url(#_ÂÁ_Ï_ÌÌ_È_ËÂÌÚ_8-7);"/>
          <path d="M177.11,116.89c2.39,12.74,3.72,26.31,3.77,40.14.13,34.77-17.07,98.07-34.83,101.03,5.57-.77,20.67-1.97,32.57-18.91.78,6.21-6.52,10.77-12.09,15.49,11.27-6.1,16.54-11.51,16.54-11.51-2.81,5.12-4.62,9.18-13.89,16.05,5.72-.93,22.77-11.97,30.75-22.87,4.92-11.5,9.57-22.73,12.14-35.89-2.03-19.52-8.03-38.07-18.54-56.6-5.48-8.71-11.62-17.42-16.43-26.94Z" style="fill: url(#_ÂÁ_Ï_ÌÌ_È_ËÂÌÚ_46);"/>
          <path d="M203.99,153.6c-.54-5.11-14.01-86.2-20.62-99.82C157.61.66,117.86,18.76,117.86,18.76l-2.99,20.62c29.55-5.63,53.35,30.17,62.24,77.52,4.81,9.51,10.95,18.22,16.43,26.94,10.5,18.53,12.51,25.42,10.45,9.77Z" style="fill: url(#_ÂÁ_Ï_ÌÌ_È_ËÂÌÚ_8-8);"/>
          <path d="M64.74,25.91c-19.21,16.95-24.65,36.28-26.87,49.36-1.31,7.74-8.11,55.8-11.56,88.71,8.06-17.22,17.7-22.2,30.11-35.94.55-.83,1.04-1.67,1.51-2.51,1.26-28.54,6.47-52.39,22.95-68.59,20.73-20.37,34-17.57,34-17.57l2.99-20.62c-10-8.02-41.59-3.02-53.12,7.15Z" style="fill: url(#_ÂÁ_Ï_ÌÌ_È_ËÂÌÚ_8-9);"/>
          <path d="M26.31,163.99c-13.14,27.42-7.65,55.83-.22,65.75,6.18,7.2,17.11,18.57,25.34,23.81-3.24-4.14-8.61-13.99-7.93-20.01,5.56,18.38,28.65,23.2,31.5,24.02-21.29-17.45-24.27-32.03-24.99-58.86-.51-18.75,7.21-56.89,7.93-73.15-.47.85-.96,1.69-1.51,2.51-12.4,13.74-22.05,18.72-30.11,35.94Z" style="fill: url(#_ÂÁ_Ï_ÌÌ_È_ËÂÌÚ_55);"/>
          <path d="M115.37,39.33s25.93-12.01,42.48,9c16.55,21,16.31,65.79,25.8,89.89s24.04,59.03,17.99,78.72c-6.05,19.69-23.19,35.38-23.19,35.38,0,0,19.93-25.29,16.56-49.16-3.37-23.86-19.14-47.54-22.92-73.47-3.78-25.93-8.26-63.4-26.13-80.07-17.87-16.67-30.58-10.29-30.58-10.29Z" style="fill: url(#linear-gradient-24);"/>
          <path d="M117.74,24.76s-38.22-6.54-53.64,27.23c-15.42,33.77-29.74,73.84-29.74,73.84,0,0,20.65-76.42,23.76-83.39,4.53-10.16,28.93-38.57,59.62-17.68Z" style="fill: url(#_ÂÁ_Ï_ÌÌ_È_ËÂÌÚ_8-10);"/>
          <path d="M120.02,22.62s22.04-6.34,45.99,18.79c13.13,13.78,18.86,87.65,18.86,87.65,0,0,1.58-58.82-4.26-78.51-5.84-19.69-36.56-48.45-60.59-27.93Z" style="fill: url(#_ÂÁ_Ï_ÌÌ_È_ËÂÌÚ_8-11);"/>
          <path d="M49.81,142.45s-18.77,33-21,54.75c-2.23,21.75-10,40.76-21.04,43.05,0,0,14.73-2.98,21.14-11.46,6.42-8.48,11.29-66.49,20.9-86.34Z" style="fill: url(#_ÂÁ_Ï_ÌÌ_È_ËÂÌÚ_10);"/>
          <path d="M67.99,86.77s-9.84,28.54-15.15,63.94c-4.32,28.79-9.26,41.12-7.33,59.5,2.13,20.21,8.73,41.05,29.47,47.34,0,0-16.19-7.98-21.43-47.37-1.83-13.75,2.36-36.76,5.7-59.5,4.78-32.52,8.73-63.92,8.73-63.92Z" style="fill: url(#linear-gradient-25);"/>
          <path d="M176.67,177.02s7.36,75.15-30.62,81.05c0,0,23.44-9.81,30.62-81.05Z" style="fill: url(#linear-gradient-26);"/>
          <path d="M166.43,166.42s-7.33,15.36-13.51,28.23c-6.19,12.87.14,42.49.14,42.49,0,0-.67-21.2,4.53-34.19,5.2-12.99,8.84-36.53,8.84-36.53Z" style="fill: url(#linear-gradient-27);"/>
          <path d="M70.85,169.57s12.25,14.47,17.84,33.43c5.59,18.96-3.99,47.63-3.99,47.63,0,0,3.4-34.22-.17-50.04-3.57-15.82-13.69-31.03-13.69-31.03Z" style="fill: url(#linear-gradient-28);"/>
          <path d="M41.63,209.61s-2.95,30.11,12.17,45.25c0,0-28.66-8.05-12.17-45.25Z" style="fill: url(#linear-gradient-29);"/>
          <path d="M185.19,215.51s6.06,28.14-19.61,39.59c0,0,21.16-18.41,19.61-39.59Z" style="fill: url(#linear-gradient-30);"/>
          <path d="M117.88,24.15s17.27-8.34,48.65,4.73c0,0-20.4-22.56-46.15-14.15,0,0-26.93-15.8-54,9.89,0,0,7.77-6.18,21.28-7.86,11.26-1.4,28.45.87,30.23,7.4Z" style="fill: url(#linear-gradient-31);"/>
          <path d="M165.01,89.03s-3.01-29.12-13.13-40.11c-12.24-13.3-25.48-12.77-36.52-9.59,0,0,15.88-2.83,28.38,8.45,12.49,11.27,12.87,18.77,21.27,41.25Z" style="fill: url(#_ÂÁ_Ï_ÌÌ_È_ËÂÌÚ_8-12);"/>
          <path d="M115.37,39.33s-10.11-2.41-17.45,0c-14.2,4.65-21.24,21.57-24.93,44.63,0,0,4.17-26.34,23.85-37.73,10.62-6.15,18.53-6.9,18.53-6.9Z" style="fill: url(#_ÂÁ_Ï_ÌÌ_È_ËÂÌÚ_8-13);"/>
          <path d="M120.03,24.85s34.65-16.73,51.62,24.93c12.39,30.43,10.39,61.37,10.39,61.37,0,0-2.06-50.8-29.03-76.96-15.32-14.86-32.98-9.33-32.98-9.33Z" style="fill: url(#_ÂÁ_Ï_ÌÌ_È_ËÂÌÚ_8-14);"/>
          <path d="M117.74,24.76s-12.21-5.27-27.94.19c-12.26,4.26-21.97,15.93-27.41,29.33-3.56,8.78-11.9,32.83-21.13,52.97,0,0,20.17-27.27,27.26-50.34,5.13-16.71,24.39-36.08,49.21-32.15Z" style="fill: url(#_ÂÁ_Ï_ÌÌ_È_ËÂÌÚ_8-15);"/>
          <path d="M185.9,77.25s-1.56,48.98,23.65,101.95l-23.65-101.95Z" style="fill: url(#_ÂÁ_Ï_ÌÌ_È_ËÂÌÚ_8-16);"/>
          <path d="M58.25,84l-32.05,75.48s30.61-25.28,32.05-75.48Z" style="fill: url(#_ÂÁ_Ï_ÌÌ_È_ËÂÌÚ_8-17);"/>
          <path d="M187.99,130.09s15.65,22,22.84,42.78c7.89,22.79,5.7,40.89-8.71,62.09,0,0,8.84-25.29-.22-65.82-3.63-16.26-13.91-39.05-13.91-39.05Z" style="fill: url(#_ÂÁ_Ï_ÌÌ_È_ËÂÌÚ_7);"/>
          <path d="M115.37,39.33s-22.37-12.64-38.58,11.31c-13.57,20.05-13.86,53.23-34.22,83.52-8.44,12.55-28.93,33.17-29.31,59.16,0,0,2.39-12.75,23.02-36.59,20.63-23.84,32.44-52.5,37.81-78.25,7.51-36.01,25.39-41.34,41.28-39.16Z" style="fill: url(#linear-gradient-32);"/>
          <path d="M64.95,166.75s20.45,50.58,5.94,83.67c0,0-3.17-67.28-5.94-83.67Z" style="fill: url(#_ÂÁ_Ï_ÌÌ_È_ËÂÌÚ_46-2);"/>
        </g>
      </g>
    </g>
  </g>
</svg>