<?xml version="1.0" encoding="UTF-8"?>
<svg id="Layer_2" data-name="Layer 2" xmlns="http://www.w3.org/2000/svg" width="234" height="234" xmlns:xlink="http://www.w3.org/1999/xlink" viewBox="0 0 234 234">
  <defs>
    <clipPath id="clippath">
      <rect width="234" height="234" style="fill: none;"/>
    </clipPath>
    <linearGradient id="_ÂÁ_Ï_ÌÌ_È_ËÂÌÚ_8" data-name="¡ÂÁ˚ÏˇÌÌ˚È „‡‰ËÂÌÚ 8" x1="748.55" y1="593.74" x2="728.16" y2="522.85" gradientTransform="translate(-256.32 -542.4) rotate(22.66)" gradientUnits="userSpaceOnUse">
      <stop offset="0" stop-color="#3b2621"/>
      <stop offset=".39" stop-color="#3e2822"/>
      <stop offset=".71" stop-color="#482e29"/>
      <stop offset="1" stop-color="#593a33"/>
    </linearGradient>
    <linearGradient id="_ÂÁ_Ï_ÌÌ_È_ËÂÌÚ_8-2" data-name="¡ÂÁ˚ÏˇÌÌ˚È „‡‰ËÂÌÚ 8" x1="-846.73" y1="1209.82" x2="-867.12" y2="1138.93" gradientTransform="translate(-1173.49 -569.49) rotate(160.8) scale(1 -1)" xlink:href="#_ÂÁ_Ï_ÌÌ_È_ËÂÌÚ_8"/>
    <linearGradient id="_ÂÁ_Ï_ÌÌ_È_ËÂÌÚ_8-3" data-name="¡ÂÁ˚ÏˇÌÌ˚È „‡‰ËÂÌÚ 8" x1="388.66" y1="1028.74" x2="470.39" y2="554.67" gradientTransform="translate(-272.63 -709.7) rotate(1.72)" xlink:href="#_ÂÁ_Ï_ÌÌ_È_ËÂÌÚ_8"/>
    <linearGradient id="linear-gradient" x1="69.56" y1="195.27" x2="155.74" y2="221.48" gradientUnits="userSpaceOnUse">
      <stop offset="0" stop-color="#f0c499"/>
      <stop offset=".52" stop-color="#f1c69b"/>
      <stop offset=".85" stop-color="#f4cea4"/>
      <stop offset="1" stop-color="#f7d4ab"/>
    </linearGradient>
    <linearGradient id="linear-gradient-2" x1="124.3" y1="358.07" x2="230.86" y2="422.81" gradientTransform="translate(-202.12 -94.58) rotate(-16.11)" xlink:href="#linear-gradient"/>
    <linearGradient id="linear-gradient-3" x1="240.69" y1="633.18" x2="123.67" y2="666.05" gradientTransform="translate(152 -443.39) rotate(13.36)" xlink:href="#linear-gradient"/>
    <linearGradient id="linear-gradient-4" x1="84.35" y1="254.7" x2="221.14" y2="217.43" xlink:href="#linear-gradient"/>
    <linearGradient id="_ÂÁ_Ï_ÌÌ_È_ËÂÌÚ_29" data-name="¡ÂÁ˚ÏˇÌÌ˚È „‡‰ËÂÌÚ 29" x1="124.55" y1="257" x2="121" y2="222.69" gradientUnits="userSpaceOnUse">
      <stop offset="0" stop-color="#d6b01f"/>
      <stop offset=".42" stop-color="#e0bc26"/>
      <stop offset="1" stop-color="#f5d534"/>
    </linearGradient>
    <linearGradient id="linear-gradient-5" x1="116.24" y1="170.85" x2="126.44" y2="214.06" gradientUnits="userSpaceOnUse">
      <stop offset="0" stop-color="#dba379"/>
      <stop offset=".49" stop-color="#e3b086"/>
      <stop offset="1" stop-color="#f0c499"/>
    </linearGradient>
    <linearGradient id="_ÂÁ_Ï_ÌÌ_È_ËÂÌÚ_14" data-name="¡ÂÁ˚ÏˇÌÌ˚È „‡‰ËÂÌÚ 14" x1="384.42" y1="727.33" x2="384.32" y2="727.07" gradientTransform="translate(-274.01 -696.35) rotate(-.52)" gradientUnits="userSpaceOnUse">
      <stop offset="0" stop-color="#cb8076"/>
      <stop offset=".31" stop-color="#b76f65"/>
      <stop offset=".95" stop-color="#86443a"/>
      <stop offset="1" stop-color="#824137"/>
    </linearGradient>
    <linearGradient id="_ÂÁ_Ï_ÌÌ_È_ËÂÌÚ_18" data-name="¡ÂÁ˚ÏˇÌÌ˚È „‡‰ËÂÌÚ 18" x1="328.78" y1="840.02" x2="320.7" y2="814.85" gradientTransform="translate(-266.57 -691.69) rotate(.21)" gradientUnits="userSpaceOnUse">
      <stop offset="0" stop-color="#dba379"/>
      <stop offset=".49" stop-color="#e3b086"/>
      <stop offset="1" stop-color="#f0c499"/>
    </linearGradient>
    <linearGradient id="linear-gradient-6" x1="-2696.41" y1="1003.91" x2="-2694.77" y2="1061.35" gradientTransform="translate(2743.84 -723.81) rotate(-.52)" xlink:href="#linear-gradient-5"/>
    <linearGradient id="_ÂÁ_Ï_ÌÌ_È_ËÂÌÚ_18-2" data-name="¡ÂÁ˚ÏˇÌÌ˚È „‡‰ËÂÌÚ 18" x1="443.46" y1="820.29" x2="462.86" y2="820.29" xlink:href="#_ÂÁ_Ï_ÌÌ_È_ËÂÌÚ_18"/>
    <linearGradient id="linear-gradient-7" x1="-2374.44" y1="1003.89" x2="-2372.8" y2="1061.33" gradientTransform="translate(-2201.15 -678.79) rotate(179.48) scale(1 -1)" xlink:href="#linear-gradient-5"/>
    <linearGradient id="_ÂÁ_Ï_ÌÌ_È_ËÂÌÚ_384" data-name="¡ÂÁ˚ÏˇÌÌ˚È „‡‰ËÂÌÚ 384" x1="383.78" y1="745.53" x2="383.55" y2="906.67" gradientTransform="translate(-274.01 -696.35) rotate(-.52)" gradientUnits="userSpaceOnUse">
      <stop offset="0" stop-color="#ffd9b3"/>
      <stop offset=".32" stop-color="#f9d5ad"/>
      <stop offset="1" stop-color="#f7d4ab"/>
    </linearGradient>
    <linearGradient id="linear-gradient-8" x1="355.35" y1="843.06" x2="348.28" y2="799.35" gradientTransform="translate(-274.01 -696.35) rotate(-.52)" gradientUnits="userSpaceOnUse">
      <stop offset="0" stop-color="#f7d4ab"/>
      <stop offset=".52" stop-color="#f5d1a8"/>
      <stop offset=".85" stop-color="#f2c99f"/>
      <stop offset="1" stop-color="#f0c499"/>
    </linearGradient>
    <radialGradient id="radial-gradient" cx="278.23" cy="844.4" fx="278.23" fy="844.4" r="32.15" gradientTransform="translate(-149.03 -697.33) rotate(-.52) scale(.79 1)" gradientUnits="userSpaceOnUse">
      <stop offset="0" stop-color="#f9b38e"/>
      <stop offset=".61" stop-color="#f7c59e"/>
      <stop offset="1" stop-color="#f7d4ab"/>
    </radialGradient>
    <linearGradient id="_ÂÁ_Ï_ÌÌ_È_ËÂÌÚ_18-3" data-name="¡ÂÁ˚ÏˇÌÌ˚È „‡‰ËÂÌÚ 18" x1="430.68" y1="756.97" x2="342.17" y2="829.36" gradientTransform="translate(-274.01 -696.35) rotate(-.52)" xlink:href="#_ÂÁ_Ï_ÌÌ_È_ËÂÌÚ_18"/>
    <linearGradient id="_ÂÁ_Ï_ÌÌ_È_ËÂÌÚ_72" data-name="¡ÂÁ˚ÏˇÌÌ˚È „‡‰ËÂÌÚ 72" x1="332.85" y1="868.08" x2="328.35" y2="792.34" gradientTransform="translate(-274.01 -696.35) rotate(-.52)" gradientUnits="userSpaceOnUse">
      <stop offset="0" stop-color="#f9b38e"/>
      <stop offset=".5" stop-color="#f7b690"/>
      <stop offset=".9" stop-color="#f2c096"/>
      <stop offset="1" stop-color="#f0c499"/>
    </linearGradient>
    <linearGradient id="linear-gradient-9" x1="417.74" y1="836.52" x2="410.95" y2="798.86" xlink:href="#linear-gradient-8"/>
    <linearGradient id="_ÂÁ_Ï_ÌÌ_È_ËÂÌÚ_18-4" data-name="¡ÂÁ˚ÏˇÌÌ˚È „‡‰ËÂÌÚ 18" x1="321.74" y1="849.16" x2="354.6" y2="849.16" gradientTransform="translate(-274.01 -696.35) rotate(-.52)" xlink:href="#_ÂÁ_Ï_ÌÌ_È_ËÂÌÚ_18"/>
    <linearGradient id="linear-gradient-10" x1="404.2" y1="808.74" x2="436.95" y2="808.74" gradientTransform="translate(-274.01 -696.35) rotate(-.52)" gradientUnits="userSpaceOnUse">
      <stop offset="0" stop-color="#ffd9b3"/>
      <stop offset=".68" stop-color="#fcd7b0"/>
      <stop offset="1" stop-color="#f7d4ab"/>
    </linearGradient>
    <radialGradient id="radial-gradient-2" cx="780.08" cy="844.7" fx="780.08" fy="844.7" r="32.15" gradientTransform="translate(768.09 -705.96) rotate(179.48) scale(.79 -1)" xlink:href="#radial-gradient"/>
    <linearGradient id="_ÂÁ_Ï_ÌÌ_È_ËÂÌÚ_72-2" data-name="¡ÂÁ˚ÏˇÌÌ˚È „‡‰ËÂÌÚ 72" x1="-1468.9" y1="864.29" x2="-1473.07" y2="794.01" gradientTransform="translate(-1308.23 -686.91) rotate(179.48) scale(1 -1)" xlink:href="#_ÂÁ_Ï_ÌÌ_È_ËÂÌÚ_72"/>
    <linearGradient id="linear-gradient-11" x1="385.28" y1="860.84" x2="383.08" y2="849.84" xlink:href="#linear-gradient-8"/>
    <linearGradient id="linear-gradient-12" x1="383.55" y1="848.96" x2="383.49" y2="857.6" gradientTransform="translate(-274.01 -696.35) rotate(-.52)" xlink:href="#linear-gradient-5"/>
    <linearGradient id="_ÂÁ_Ï_ÌÌ_È_ËÂÌÚ_23" data-name="¡ÂÁ˚ÏˇÌÌ˚È „‡‰ËÂÌÚ 23" x1="383.02" y1="837.21" x2="383.14" y2="846.07" gradientTransform="translate(-274.01 -696.35) rotate(-.52)" gradientUnits="userSpaceOnUse">
      <stop offset="0" stop-color="#f7d4ab"/>
      <stop offset="1" stop-color="#ffd9b3"/>
    </linearGradient>
    <linearGradient id="_ÂÁ_Ï_ÌÌ_È_ËÂÌÚ_23-2" data-name="¡ÂÁ˚ÏˇÌÌ˚È „‡‰ËÂÌÚ 23" x1="415.73" y1="847.63" x2="447.28" y2="847.63" xlink:href="#_ÂÁ_Ï_ÌÌ_È_ËÂÌÚ_23"/>
    <linearGradient id="_ÂÁ_Ï_ÌÌ_È_ËÂÌÚ_11" data-name="¡ÂÁ˚ÏˇÌÌ˚È „‡‰ËÂÌÚ 11" x1="720.15" y1="879.05" x2="764.52" y2="878.01" gradientTransform="translate(-799.34 -639.13) rotate(-10.07)" gradientUnits="userSpaceOnUse">
      <stop offset="0" stop-color="#3b2621"/>
      <stop offset=".41" stop-color="#3c2722"/>
      <stop offset=".56" stop-color="#432c25"/>
      <stop offset=".66" stop-color="#4f362c"/>
      <stop offset=".75" stop-color="#604335"/>
      <stop offset=".82" stop-color="#765441"/>
      <stop offset=".88" stop-color="#916950"/>
      <stop offset=".94" stop-color="#b18262"/>
      <stop offset=".99" stop-color="#d69f76"/>
      <stop offset="1" stop-color="#dba379"/>
    </linearGradient>
    <linearGradient id="_ÂÁ_Ï_ÌÌ_È_ËÂÌÚ_11-2" data-name="¡ÂÁ˚ÏˇÌÌ˚È „‡‰ËÂÌÚ 11" x1="-977.41" y1="794.88" x2="-933.03" y2="793.84" gradientTransform="translate(-640.86 -864.95) rotate(-169.12) scale(1 -1)" xlink:href="#_ÂÁ_Ï_ÌÌ_È_ËÂÌÚ_11"/>
    <linearGradient id="_ÂÁ_Ï_ÌÌ_È_ËÂÌÚ_126" data-name="¡ÂÁ˚ÏˇÌÌ˚È „‡‰ËÂÌÚ 126" x1="-709.24" y1="755.2" x2="-708.46" y2="755.2" gradientTransform="translate(9107.55 9823.7) rotate(.2) scale(12.79 -12.79)" gradientUnits="userSpaceOnUse">
      <stop offset="0" stop-color="#ffd9b3"/>
      <stop offset=".52" stop-color="#fccfa9"/>
      <stop offset="1" stop-color="#f8c39c"/>
    </linearGradient>
    <linearGradient id="_ÂÁ_Ï_ÌÌ_È_ËÂÌÚ_126-2" data-name="¡ÂÁ˚ÏˇÌÌ˚È „‡‰ËÂÌÚ 126" x1="-820.27" y1="753.8" x2="-819.49" y2="753.8" gradientTransform="translate(-10115.99 9998.73) rotate(178.75) scale(12.79)" xlink:href="#_ÂÁ_Ï_ÌÌ_È_ËÂÌÚ_126"/>
    <linearGradient id="linear-gradient-13" x1="104.28" y1="190.92" x2="129.42" y2="190.92" gradientTransform="matrix(1,0,0,1,0,0)" xlink:href="#linear-gradient-10"/>
    <linearGradient id="_ÂÁ_Ï_ÌÌ_È_ËÂÌÚ_18-5" data-name="¡ÂÁ˚ÏˇÌÌ˚È „‡‰ËÂÌÚ 18" x1="-863.95" y1="793.61" x2="-863.09" y2="793.61" gradientTransform="translate(-37835.59 -22836.42) rotate(168.56) scale(37.84 -37.84)" xlink:href="#_ÂÁ_Ï_ÌÌ_È_ËÂÌÚ_18"/>
    <linearGradient id="_ÂÁ_Ï_ÌÌ_È_ËÂÌÚ_1655" data-name="¡ÂÁ˚ÏˇÌÌ˚È „‡‰ËÂÌÚ 1655" x1="-781.54" y1="764.93" x2="-780.71" y2="764.93" gradientTransform="translate(35319.99 32060.72) rotate(-2.16) scale(43.46 -43.46)" gradientUnits="userSpaceOnUse">
      <stop offset="0" stop-color="#4d322e"/>
      <stop offset=".06" stop-color="#4a302c"/>
      <stop offset=".55" stop-color="#3d2622"/>
      <stop offset="1" stop-color="#39231f"/>
    </linearGradient>
    <linearGradient id="_ÂÁ_Ï_ÌÌ_È_ËÂÌÚ_18-6" data-name="¡ÂÁ˚ÏˇÌÌ˚È „‡‰ËÂÌÚ 18" x1="122.78" y1="79.82" x2="121.82" y2="100.46" gradientTransform="translate(28.99 28.12) rotate(3.26)" xlink:href="#_ÂÁ_Ï_ÌÌ_È_ËÂÌÚ_18"/>
    <linearGradient id="_ÂÁ_Ï_ÌÌ_È_ËÂÌÚ_18-7" data-name="¡ÂÁ˚ÏˇÌÌ˚È „‡‰ËÂÌÚ 18" x1="-832.52" y1="787.66" x2="-831.67" y2="787.66" gradientTransform="translate(36471.93 -23463.07) rotate(10.48) scale(37.84)" xlink:href="#_ÂÁ_Ï_ÌÌ_È_ËÂÌÚ_18"/>
    <linearGradient id="_ÂÁ_Ï_ÌÌ_È_ËÂÌÚ_1655-2" data-name="¡ÂÁ˚ÏˇÌÌ˚È „‡‰ËÂÌÚ 1655" x1="-809.4" y1="765.63" x2="-808.57" y2="765.63" gradientTransform="translate(-35756.03 32649.42) rotate(-178.8) scale(43.46)" xlink:href="#_ÂÁ_Ï_ÌÌ_È_ËÂÌÚ_1655"/>
    <linearGradient id="_ÂÁ_Ï_ÌÌ_È_ËÂÌÚ_18-8" data-name="¡ÂÁ˚ÏˇÌÌ˚È „‡‰ËÂÌÚ 18" x1="-1084.93" y1="163.03" x2="-1085.89" y2="183.67" gradientTransform="translate(-1005.3 31.91) rotate(175.78) scale(1 -1)" xlink:href="#_ÂÁ_Ï_ÌÌ_È_ËÂÌÚ_18"/>
    <linearGradient id="_ÂÁ_Ï_ÌÌ_È_ËÂÌÚ_18-9" data-name="¡ÂÁ˚ÏˇÌÌ˚È „‡‰ËÂÌÚ 18" x1="119.65" y1="197.52" x2="117.17" y2="233.49" gradientTransform="matrix(1,0,0,1,0,0)" xlink:href="#_ÂÁ_Ï_ÌÌ_È_ËÂÌÚ_18"/>
    <linearGradient id="_ÂÁ_Ï_ÌÌ_È_ËÂÌÚ_45" data-name="¡ÂÁ˚ÏˇÌÌ˚È „‡‰ËÂÌÚ 45" x1="93.36" y1="160.02" x2="145.78" y2="160.02" gradientUnits="userSpaceOnUse">
      <stop offset="0" stop-color="#f8d4ac"/>
      <stop offset=".52" stop-color="#ffd9b3"/>
      <stop offset="1" stop-color="#f7d4ab"/>
    </linearGradient>
    <linearGradient id="_ÂÁ_Ï_ÌÌ_È_ËÂÌÚ_54" data-name="¡ÂÁ˚ÏˇÌÌ˚È „‡‰ËÂÌÚ 54" x1="4947.07" y1="7.52" x2="4935.04" y2="1.44" gradientTransform="translate(5072.76 -162.61) rotate(176.29) scale(1 -1)" gradientUnits="userSpaceOnUse">
      <stop offset="0" stop-color="#f0c498"/>
      <stop offset=".52" stop-color="#e3af85"/>
      <stop offset="1" stop-color="#daa279"/>
    </linearGradient>
    <linearGradient id="_ÂÁ_Ï_ÌÌ_È_ËÂÌÚ_54-2" data-name="¡ÂÁ˚ÏˇÌÌ˚È „‡‰ËÂÌÚ 54" x1="98.12" y1="166.26" x2="90.55" y2="159.98" gradientTransform="matrix(1,0,0,1,0,0)" xlink:href="#_ÂÁ_Ï_ÌÌ_È_ËÂÌÚ_54"/>
    <linearGradient id="_ÂÁ_Ï_ÌÌ_È_ËÂÌÚ_4" data-name="¡ÂÁ˚ÏˇÌÌ˚È „‡‰ËÂÌÚ 4" x1="118.3" y1="177.28" x2="119.64" y2="192.23" gradientUnits="userSpaceOnUse">
      <stop offset="0" stop-color="#daa279"/>
      <stop offset=".48" stop-color="#e3af85"/>
      <stop offset="1" stop-color="#f0c498"/>
    </linearGradient>
    <linearGradient id="linear-gradient-14" x1="-812.52" y1="765.22" x2="-811.6" y2="765.22" gradientTransform="translate(47610.23 42778.53) rotate(.05) scale(59.3 -55.63) skewX(.79)" gradientUnits="userSpaceOnUse">
      <stop offset="0" stop-color="#e7d7d6"/>
      <stop offset=".05" stop-color="#eadddc"/>
      <stop offset=".21" stop-color="#f6f0ef"/>
      <stop offset=".39" stop-color="#fcfbfb"/>
      <stop offset=".57" stop-color="#fff"/>
      <stop offset=".69" stop-color="#fbf7f7"/>
      <stop offset=".87" stop-color="#f0e3e3"/>
      <stop offset="1" stop-color="#e7d1d0"/>
    </linearGradient>
    <linearGradient id="linear-gradient-15" x1="100.34" y1="192.5" x2="142.83" y2="192.61" gradientTransform="translate(-.76 -31.06) rotate(.7)" gradientUnits="userSpaceOnUse">
      <stop offset="0" stop-color="#e7d7d6"/>
      <stop offset=".05" stop-color="#e9dbda"/>
      <stop offset=".31" stop-color="#f5eeed"/>
      <stop offset=".48" stop-color="#faf5f5"/>
      <stop offset="1" stop-color="#e7d1d0"/>
    </linearGradient>
    <linearGradient id="linear-gradient-16" x1="175.53" y1="198.8" x2="175.39" y2="190.29" gradientTransform="translate(-53.98 -24.59) rotate(.83)" gradientUnits="userSpaceOnUse">
      <stop offset="0" stop-color="#e46980"/>
      <stop offset=".37" stop-color="#e2677d"/>
      <stop offset=".55" stop-color="#db6076"/>
      <stop offset=".69" stop-color="#cf5568"/>
      <stop offset=".81" stop-color="#be4456"/>
      <stop offset=".92" stop-color="#a9303e"/>
      <stop offset="1" stop-color="#951c27"/>
    </linearGradient>
    <linearGradient id="linear-gradient-17" x1="175.67" y1="198.83" x2="175.56" y2="191.97" xlink:href="#linear-gradient-16"/>
    <linearGradient id="linear-gradient-18" x1="-806.84" y1="756.11" x2="-806.22" y2="756.11" gradientTransform="translate(36534.82 26230.01) rotate(-6.23) scale(41.4 -39.48) skewX(.03)" gradientUnits="userSpaceOnUse">
      <stop offset="0" stop-color="#f96e7e"/>
      <stop offset=".03" stop-color="#f9707f"/>
      <stop offset=".25" stop-color="#fd7985"/>
      <stop offset=".53" stop-color="#ff7d88"/>
      <stop offset=".76" stop-color="#fd7985"/>
      <stop offset="1" stop-color="#f86d7d"/>
      <stop offset="1" stop-color="#f86d7d"/>
    </linearGradient>
    <linearGradient id="linear-gradient-19" x1="-807.32" y1="748" x2="-806.39" y2="748" gradientTransform="translate(25679.19 14027.26) rotate(-4.7) scale(30.01 -21.27) skewX(-.31)" xlink:href="#linear-gradient-18"/>
    <linearGradient id="_ÂÁ_Ï_ÌÌ_È_ËÂÌÚ_8-4" data-name="¡ÂÁ˚ÏˇÌÌ˚È „‡‰ËÂÌÚ 8" x1="381.77" y1="831.23" x2="468.78" y2="938.69" gradientTransform="translate(-274.01 -696.35) rotate(-.52)" xlink:href="#_ÂÁ_Ï_ÌÌ_È_ËÂÌÚ_8"/>
    <linearGradient id="_ÂÁ_Ï_ÌÌ_È_ËÂÌÚ_8-5" data-name="¡ÂÁ˚ÏˇÌÌ˚È „‡‰ËÂÌÚ 8" x1="480.41" y1="970.08" x2="469.74" y2="932.99" gradientTransform="translate(-274.01 -696.35) rotate(-.52)" xlink:href="#_ÂÁ_Ï_ÌÌ_È_ËÂÌÚ_8"/>
    <linearGradient id="_ÂÁ_Ï_ÌÌ_È_ËÂÌÚ_8-6" data-name="¡ÂÁ˚ÏˇÌÌ˚È „‡‰ËÂÌÚ 8" x1="-1168.21" y1="966.82" x2="-1178.88" y2="929.72" gradientTransform="translate(-1151.9 -688.34) rotate(179.48) scale(1 -1)" xlink:href="#_ÂÁ_Ï_ÌÌ_È_ËÂÌÚ_8"/>
    <linearGradient id="_ÂÁ_Ï_ÌÌ_È_ËÂÌÚ_8-7" data-name="¡ÂÁ˚ÏˇÌÌ˚È „‡‰ËÂÌÚ 8" x1="341.43" y1="851.06" x2="332.66" y2="934.33" gradientTransform="translate(-274.01 -696.35) rotate(-.52)" xlink:href="#_ÂÁ_Ï_ÌÌ_È_ËÂÌÚ_8"/>
    <linearGradient id="_ÂÁ_Ï_ÌÌ_È_ËÂÌÚ_46" data-name="¡ÂÁ˚ÏˇÌÌ˚È „‡‰ËÂÌÚ 46" x1="448.83" y1="963.16" x2="431.85" y2="821.99" gradientTransform="translate(-274.01 -696.35) rotate(-.52)" gradientUnits="userSpaceOnUse">
      <stop offset="0" stop-color="#593a33"/>
      <stop offset=".29" stop-color="#482e29"/>
      <stop offset=".61" stop-color="#3e2822"/>
      <stop offset="1" stop-color="#3b2621"/>
    </linearGradient>
    <linearGradient id="_ÂÁ_Ï_ÌÌ_È_ËÂÌÚ_8-8" data-name="¡ÂÁ˚ÏˇÌÌ˚È „‡‰ËÂÌÚ 8" x1="434.88" y1="872.13" x2="416.72" y2="721.09" gradientTransform="translate(-274.01 -696.35) rotate(-.52)" xlink:href="#_ÂÁ_Ï_ÌÌ_È_ËÂÌÚ_8"/>
    <linearGradient id="_ÂÁ_Ï_ÌÌ_È_ËÂÌÚ_8-9" data-name="¡ÂÁ˚ÏˇÌÌ˚È „‡‰ËÂÌÚ 8" x1="347.35" y1="869.77" x2="330.44" y2="729.16" gradientTransform="translate(-274.01 -696.35) rotate(-.52)" xlink:href="#_ÂÁ_Ï_ÌÌ_È_ËÂÌÚ_8"/>
    <linearGradient id="_ÂÁ_Ï_ÌÌ_È_ËÂÌÚ_55" data-name="¡ÂÁ˚ÏˇÌÌ˚È „‡‰ËÂÌÚ 55" x1="312.55" y1="957.31" x2="310.81" y2="805.82" gradientTransform="translate(-274.01 -696.35) rotate(-.52)" gradientUnits="userSpaceOnUse">
      <stop offset="0" stop-color="#593a33"/>
      <stop offset=".19" stop-color="#52352f"/>
      <stop offset="1" stop-color="#3b2621"/>
    </linearGradient>
    <linearGradient id="linear-gradient-20" x1="417.34" y1="947.26" x2="430.78" y2="749.57" gradientTransform="translate(-274.01 -696.35) rotate(-.52)" gradientUnits="userSpaceOnUse">
      <stop offset="0" stop-color="#593a33"/>
      <stop offset=".4" stop-color="#5d3d36"/>
      <stop offset=".85" stop-color="#6a4741"/>
      <stop offset="1" stop-color="#714c46"/>
    </linearGradient>
    <linearGradient id="_ÂÁ_Ï_ÌÌ_È_ËÂÌÚ_8-10" data-name="¡ÂÁ˚ÏˇÌÌ˚È „‡‰ËÂÌÚ 8" x1="360.67" y1="913.24" x2="342.3" y2="778.04" gradientTransform="translate(-274.01 -696.35) rotate(-.52)" xlink:href="#_ÂÁ_Ï_ÌÌ_È_ËÂÌÚ_8"/>
    <linearGradient id="_ÂÁ_Ï_ÌÌ_È_ËÂÌÚ_8-11" data-name="¡ÂÁ˚ÏˇÌÌ˚È „‡‰ËÂÌÚ 8" x1="439.36" y1="902.54" x2="420.99" y2="767.35" gradientTransform="translate(-274.01 -696.35) rotate(-.52)" xlink:href="#_ÂÁ_Ï_ÌÌ_È_ËÂÌÚ_8"/>
    <linearGradient id="_ÂÁ_Ï_ÌÌ_È_ËÂÌÚ_10" data-name="¡ÂÁ˚ÏˇÌÌ˚È „‡‰ËÂÌÚ 10" x1="319.27" y1="1008.26" x2="291.54" y2="880.69" gradientTransform="translate(-274.01 -696.35) rotate(-.52)" gradientUnits="userSpaceOnUse">
      <stop offset="0" stop-color="#3b2621"/>
      <stop offset=".77" stop-color="#51342e"/>
      <stop offset="1" stop-color="#593a33"/>
    </linearGradient>
    <linearGradient id="linear-gradient-21" x1="326.99" y1="825.96" x2="325.6" y2="937.24" xlink:href="#linear-gradient-20"/>
    <linearGradient id="linear-gradient-22" x1="425.7" y1="959.71" x2="430.92" y2="882.82" xlink:href="#linear-gradient-20"/>
    <linearGradient id="linear-gradient-23" x1="421.2" y1="938.29" x2="425.7" y2="872" xlink:href="#linear-gradient-20"/>
    <linearGradient id="linear-gradient-24" x1="342.83" y1="950.68" x2="347.88" y2="876.45" xlink:href="#linear-gradient-20"/>
    <linearGradient id="linear-gradient-25" x1="309.59" y1="956.6" x2="312.44" y2="914.63" xlink:href="#linear-gradient-20"/>
    <linearGradient id="linear-gradient-26" x1="440.7" y1="957.78" x2="443.27" y2="919.94" xlink:href="#linear-gradient-20"/>
    <linearGradient id="linear-gradient-27" x1="385.51" y1="746.93" x2="379.31" y2="708.33" xlink:href="#linear-gradient-20"/>
    <linearGradient id="_ÂÁ_Ï_ÌÌ_È_ËÂÌÚ_8-12" data-name="¡ÂÁ˚ÏˇÌÌ˚È „‡‰ËÂÌÚ 8" x1="403.08" y1="772.82" x2="413.48" y2="751.08" gradientTransform="translate(-274.01 -696.35) rotate(-.52)" xlink:href="#_ÂÁ_Ï_ÌÌ_È_ËÂÌÚ_8"/>
    <linearGradient id="_ÂÁ_Ï_ÌÌ_È_ËÂÌÚ_8-13" data-name="¡ÂÁ˚ÏˇÌÌ˚È „‡‰ËÂÌÚ 8" x1="347.72" y1="785.11" x2="367.49" y2="743.8" gradientTransform="translate(-274.01 -696.35) rotate(-.52)" xlink:href="#_ÂÁ_Ï_ÌÌ_È_ËÂÌÚ_8"/>
    <linearGradient id="_ÂÁ_Ï_ÌÌ_È_ËÂÌÚ_8-14" data-name="¡ÂÁ˚ÏˇÌÌ˚È „‡‰ËÂÌÚ 8" x1="457.17" y1="812.61" x2="396.16" y2="712.08" gradientTransform="translate(-274.01 -696.35) rotate(-.52)" xlink:href="#_ÂÁ_Ï_ÌÌ_È_ËÂÌÚ_8"/>
    <linearGradient id="_ÂÁ_Ï_ÌÌ_È_ËÂÌÚ_8-15" data-name="¡ÂÁ˚ÏˇÌÌ˚È „‡‰ËÂÌÚ 8" x1="354.42" y1="782.63" x2="328.13" y2="739.31" gradientTransform="translate(-274.01 -696.35) rotate(-.52)" xlink:href="#_ÂÁ_Ï_ÌÌ_È_ËÂÌÚ_8"/>
    <linearGradient id="_ÂÁ_Ï_ÌÌ_È_ËÂÌÚ_8-16" data-name="¡ÂÁ˚ÏˇÌÌ˚È „‡‰ËÂÌÚ 8" x1="468.94" y1="871.27" x2="451.96" y2="756.19" gradientTransform="translate(-274.01 -696.35) rotate(-.52)" xlink:href="#_ÂÁ_Ï_ÌÌ_È_ËÂÌÚ_8"/>
    <linearGradient id="_ÂÁ_Ï_ÌÌ_È_ËÂÌÚ_8-17" data-name="¡ÂÁ˚ÏˇÌÌ˚È „‡‰ËÂÌÚ 8" x1="312.09" y1="850.89" x2="300.72" y2="773.84" gradientTransform="translate(-274.01 -696.35) rotate(-.52)" xlink:href="#_ÂÁ_Ï_ÌÌ_È_ËÂÌÚ_8"/>
    <linearGradient id="_ÂÁ_Ï_ÌÌ_È_ËÂÌÚ_7" data-name="¡ÂÁ˚ÏˇÌÌ˚È „‡‰ËÂÌÚ 7" x1="487.29" y1="971.68" x2="456.81" y2="831.16" gradientTransform="translate(-274.01 -696.35) rotate(-.52)" gradientUnits="userSpaceOnUse">
      <stop offset="0" stop-color="#3b2621"/>
      <stop offset=".38" stop-color="#472e28"/>
      <stop offset="1" stop-color="#593a33"/>
    </linearGradient>
    <linearGradient id="linear-gradient-28" x1="325.18" y1="894.04" x2="335.44" y2="743.02" xlink:href="#linear-gradient-20"/>
    <linearGradient id="_ÂÁ_Ï_ÌÌ_È_ËÂÌÚ_46-2" data-name="¡ÂÁ˚ÏˇÌÌ˚È „‡‰ËÂÌÚ 46" x1="354.25" y1="945.35" x2="311.37" y2="874.69" xlink:href="#_ÂÁ_Ï_ÌÌ_È_ËÂÌÚ_46"/>
  </defs>
  <g id="Layer_1-2" data-name="Layer 1">
    <g style="clip-path: url(#clippath);">
      <g>
        <g>
          <path d="M211.13,207.58s13.06,26.62-.75,55.07l.75-55.07Z" style="fill: url(#_ÂÁ_Ï_ÌÌ_È_ËÂÌÚ_8);"/>
          <path d="M23.88,208.14s-14.64,25.78-2.57,55.02l2.57-55.02Z" style="fill: url(#_ÂÁ_Ï_ÌÌ_È_ËÂÌÚ_8-2);"/>
          <path d="M119.5,27.18s44.19-1.36,58.83,34.38c14.64,35.75,16.04,93.83,18.09,109.99,2.05,16.16-8.09,66.1-8.09,66.1l-140.96,3.42s-5.4-114.67-1.18-136.45c4.22-21.79,73.31-77.43,73.31-77.43Z" style="fill: url(#_ÂÁ_Ï_ÌÌ_È_ËÂÌÚ_8-3);"/>
        </g>
        <path d="M146.26,155.65s2.56,63.85,8.5,68.3c7.53,5.65,81.88,22.12,86.62,27.53,11.81,13.47,13.3,6.94,16.27,35.16,2.97,28.22-263.41,3.66-263.41,3.66,0,0,7.04-38.03,14.97-41.9,23.11-11.3,63.27-17.65,73.9-21.53,14.89-5.44,12.65-62.3,12.65-62.3l50.5-8.91Z" style="fill: #f7d4ab;"/>
        <path d="M154.8,222.13c-4.02-3.82-4.56-48.38-4.56-48.38,0,0-58.57,3.22-59.48,2.19.05,4.12.4,33.65,0,36.78-.47,3.57.16,14.26-40.03,22.88,0,0,13.7-.69,38.97-6.27,4.53-1,10.31-5.06,10.31-9.26,0,0,26.92,1.67,40.53-11.43,1.41,10.37,2.72,31.97,6.05,34.12,3.33,2.16,33.21,5.48,33.21,5.48l3.95-14c-8.56-2.07-24.92-8.29-28.94-12.11Z" style="fill: url(#linear-gradient);"/>
        <path d="M111.44,232.74s-5-6.58-9.27-6.42c-4.27.16-42.52,10.34-47.98,10.83,0,0,14.58-.31,26.31-2.26,11.72-1.96,20.05-6.5,30.94-2.15Z" style="fill: url(#linear-gradient-2);"/>
        <path d="M127.25,231.41s4.16-5.09,9.52-5.58c5.37-.49,42.82,8.92,49.5,11.21,0,0-47.98-9.31-59.02-5.63Z" style="fill: url(#linear-gradient-3);"/>
        <path d="M62.81,232.71s-2.95,43.89,53.2,41.12c56.15-2.77,63.75-41.35,63.75-41.35l-18.75-6.53s-4.16,7.7-34.44,7.78c-44.03.13-44.72-8.73-44.72-8.73l-19.04,7.71Z" style="fill: url(#linear-gradient-4);"/>
        <path d="M225.23,342.12c.73-17.64,33.06-81.23,20.35-91.09-4.13-3.21-17.19-9.09-31.56-13.03-19.94-5.48-41.44-10.22-41.44-10.22,0,0-10.08,14.16-52.71,12.66-49.01-1.72-49.17-12.66-49.17-12.66l-39.03,11.45-25.46,9.01c0,1.71,12.06,75.13,16.98,104.95h200.71c.42-5.89.9-10.97,1.32-11.06Z" style="fill: #f5d534;"/>
        <path d="M70.71,227.78s-5.16,18.37,56.39,16.28c45.63-1.56,45.48-16.28,45.48-16.28l-6.84-2.21s-.82,11.87-39.78,12.74c-50.25,1.11-48.34-12.74-48.34-12.74l-6.91,2.21Z" style="fill: url(#_ÂÁ_Ï_ÌÌ_È_ËÂÌÚ_29);"/>
        <path d="M90.91,206.97s-.96-33.75-1.91-41.06l61.44,6.34.3,18.43s-20.28,39-59.83,16.29Z" style="fill: url(#linear-gradient-5);"/>
        <g>
          <path d="M117.03,27.3c-.11-.07-.16-.09-.16-.09.06.03.11.06.16.09Z" style="fill: url(#_ÂÁ_Ï_ÌÌ_È_ËÂÌÚ_14);"/>
          <g>
            <g>
              <path d="M57.12,116.27c2.85,20.25,5.99,35.94,5.99,35.94-8.67.08-12.69-8.87-16.14-16.5-5.28-11.66-8.45-24.19,3.33-24.97,2.3-.15,6.83,5.53,6.83,5.53Z" style="fill: url(#_ÂÁ_Ï_ÌÌ_È_ËÂÌÚ_18);"/>
              <path d="M55.81,145.17s-4.28-4.45-3.05-13.29c2.91-20.87-11.23-22.17-7.89-7.97,0,0,1.89-6.73,3.7-4.74,2.22,2.44-2.32,3.84.1,14.58,1.26,5.58,7.14,11.42,7.14,11.42Z" style="fill: url(#linear-gradient-6);"/>
            </g>
            <g>
              <path d="M178.44,115.17c-2.48,20.29-4.58,35.74-4.58,35.74,8.67-.08,11.77-8.8,15.09-16.49,5.07-11.75,8.01-24.34-3.78-24.9-2.3-.11-6.73,5.65-6.73,5.65Z" style="fill: url(#_ÂÁ_Ï_ÌÌ_È_ËÂÌÚ_18-2);"/>
              <path d="M180.28,144.03s4.2-4.53,2.81-13.35c-3.29-20.81,10.82-22.37,7.74-8.12,0,0-2.01-6.69-3.78-4.67-2.17,2.48,2.39,3.8.16,14.58-1.16,5.6-6.93,11.55-6.93,11.55Z" style="fill: url(#linear-gradient-7);"/>
            </g>
            <path d="M170.74,51.02c-7.71-17.2-19.46-27.79-45.71-29.21,0,0-59.88,8.37-67.28,25.7-8.06,18.88-5.46,45.27-2.95,62.53,2.51,17.26,7.46,45.23,11.85,53.12,4.38,7.89,26.73,28.19,31.68,33.85,3.62,4.14,10.35,11.1,21.26,10.99,9.7-.09,17.06-8.35,21.31-11.75,4.59-3.67,24.79-26.89,29.03-34.86,4.24-7.97,8.77-35.2,10.97-52.5,2.19-17.3-1.74-39.14-10.14-57.87Z" style="fill: url(#_ÂÁ_Ï_ÌÌ_È_ËÂÌÚ_384);"/>
            <path d="M90.58,95.71c-8.61-.35-23.3,0-27.63,3.31-10.08,7.68-2.45,28.98-2.45,28.98,0,0,20.03,21.38,53.6,7.83-2.82-14.09-2.65-39.26-23.52-40.12Z" style="fill: url(#linear-gradient-8);"/>
            <path d="M93.01,117.26c-7.75-2.24-37.75-8.27-36.23,1.67,3.36,21.96,6.37,37.05,10.25,43.87,4.07,7.13,15.95,18.32,21.04,19.13,7.88,1.27,15.96-27.77,16.06-37.7.14-13.89-3.37-24.72-11.12-26.96Z" style="fill: url(#radial-gradient);"/>
            <path d="M172.98,137.28s6.35-19.97,7.02-23.52c3.92-20.61,7.66-91.74-68.24-86.37-78.05,5.52-51.94,109.88-51.94,109.88,0,0,23.38-91.95,56.66-93.08,0,0,39.75,1.03,56.5,93.09Z" style="fill: url(#_ÂÁ_Ï_ÌÌ_È_ËÂÌÚ_18-3);"/>
            <polygon points="59.82 137.26 66.64 163.15 65.56 81.96 57.53 90.28 59.82 137.26" style="fill: url(#_ÂÁ_Ï_ÌÌ_È_ËÂÌÚ_72);"/>
            <path d="M168.95,100.2c-4.41-3.1-15.18-7.17-23.79-6.66-23.13,1.37-20.69,26.83-23.13,41.15,33.9,11.96,53.35-10.56,53.35-10.56,0,0,3.85-16.7-6.43-23.93Z" style="fill: url(#linear-gradient-9);"/>
            <path d="M55.12,112.22s5.89,39.96,11.11,51.03c1.7,3.6,12.99,15.93,22.44,24,0,0-18.56-22.98-20.42-28.01-4.09-11.02-13.12-47.02-13.12-47.02Z" style="fill: url(#_ÂÁ_Ï_ÌÌ_È_ËÂÌÚ_18-4);"/>
            <path d="M137.44,96.85s13.81-4.81,26.09,2.83c6.54,4.07,6.84,21.51,6.84,21.51.83,4.76-8.71-26.26-32.93-24.34Z" style="fill: url(#linear-gradient-10);"/>
            <path d="M142.86,116.81c7.71-2.38,37.6-8.95,36.26,1.01-2.96,22.02-5.7,37.16-9.46,44.05-3.94,7.21-15.61,18.6-20.69,19.51-7.86,1.41-16.46-27.48-16.74-37.4-.39-13.89,2.92-24.78,10.62-27.16Z" style="fill: url(#radial-gradient-2);"/>
            <polygon points="175.11 139.58 169.27 158.9 167.24 83.47 177.2 88.45 175.11 139.58" style="fill: url(#_ÂÁ_Ï_ÌÌ_È_ËÂÌÚ_72-2);"/>
            <g>
              <polygon points="105.76 152.05 117.62 160.05 128.61 151.61 127.02 150.3 116.93 150.52 106.88 150.61 105.76 152.05" style="fill: url(#linear-gradient-11);"/>
              <path d="M106.11,151.84s4.45-1.43,8.38.19l4.79-.04s4.74-1.88,9.32-.38l.18-2.17-3.82-.74-8.03,2.1-7.37-1.96-3.83.48.38,2.52Z" style="fill: url(#linear-gradient-12);"/>
              <path d="M104.49,142.52s-2.06,1.18-2.35,4.34c-.32,3.62,3.43,5.55,4,5.17s-.5-3.1,2.95-2.64c3.45.45,3.29,2.19,3.86,2.78.56.59,6.64.67,7.66.02,1.02-.65.72-3.02,3.98-2.94,3.26.07,3.38,2.3,3.85,2.58.47.28,2.39-1.47,2.92-4.79.53-3.32-2.97-4.73-2.97-4.73,0,0,1.79,2.93,1.06,4.82-.73,1.89-5.77.31-7.81,1.62-3.76,2.41-6.06,1.84-9.84.09-2.48-1.15-5.94.35-7.35-1.67-.49-.7-.63-3.22.05-4.63Z" style="fill: #f0c499;"/>
              <path d="M109.07,140.84c-.04,2.31.24,3.28,1.23,4.78,1.52,2.28,12.07,4.06,13.82-1.22.35-1.05.32-2.69.12-4.76-.23-2.36-15.13-1.1-15.17,1.21Z" style="fill: url(#_ÂÁ_Ï_ÌÌ_È_ËÂÌÚ_23);"/>
            </g>
            <path d="M180.65,111.08s-5.16,40.06-10.18,51.23c-1.63,3.64-10.31,12.24-20.71,21.33,0,0,15.2-17.84,18.21-25.96,4.08-11.03,12.68-46.6,12.68-46.6Z" style="fill: url(#_ÂÁ_Ï_ÌÌ_È_ËÂÌÚ_23-2);"/>
            <path d="M97.86,91.07c1.06.9,2.16,4.17,1.78,6.04-.49-2.87-2.24-5.85-4.26-6.2-.18-.01-.39-.02-.6-.03,1.49.96,2.55,2.6,2.77,4.76-.86-1.48-2.49-4.08-4.6-4.71-5.8.14-14.47.47-18.16,1.87-5.24,1.99-10.77,12.63-10.77,12.63,1.58-1.67,7.94-5.18,12.86-6.4,3.18-.78,19.69-.47,23.96-.67.56-.03.71-5.75-2.98-7.31Z" style="fill: url(#_ÂÁ_Ï_ÌÌ_È_ËÂÌÚ_11);"/>
            <path d="M134.7,90.22c-1.07.89-2.22,4.14-1.87,6.02.53-2.86,2.32-5.81,4.35-6.13.18,0,.39-.01.6-.02-1.51.94-2.59,2.57-2.83,4.72.88-1.47,2.55-4.05,4.67-4.64,5.79.22,14.47.67,18.13,2.13,5.22,2.07,10.59,12.78,10.59,12.78-1.56-1.69-7.86-5.29-12.77-6.58-3.16-.82-19.68-.75-23.95-1-.56-.03-.63-5.76,3.08-7.27Z" style="fill: url(#_ÂÁ_Ï_ÌÌ_È_ËÂÌÚ_11-2);"/>
            <path d="M74.63,128.04c-2.74-.58-5.2.28-5.48,1.93-.29,1.65,1.7,3.46,4.44,4.05,2.74.58,5.2-.28,5.49-1.93.28-1.65-1.71-3.47-4.45-4.05Z" style="fill: url(#_ÂÁ_Ï_ÌÌ_È_ËÂÌÚ_126);"/>
            <path d="M159.35,127.27c2.73-.63,5.2.19,5.51,1.83.32,1.65-1.64,3.49-4.37,4.13-2.73.63-5.2-.19-5.52-1.83-.31-1.65,1.64-3.5,4.37-4.13Z" style="fill: url(#_ÂÁ_Ï_ÌÌ_È_ËÂÌÚ_126-2);"/>
            <path d="M119.82,187.11c-5.3.25-9.55,2.16-9.52,4.25.03,2.1,4.33,3.61,9.61,3.37,5.28-.25,9.54-2.15,9.52-4.26-.03-2.1-4.34-3.61-9.61-3.36Z" style="fill: url(#linear-gradient-13);"/>
            <g>
              <g>
                <path d="M151.97,110.84c-19.41-1.63-21.54,15.81-21.54,15.81,0,0,8.83-4.41,18.43-3.15,4.38.58,11.51,3.76,13.73.28,4.26-6.69-3.14-12.32-10.62-12.94Z" style="fill: url(#_ÂÁ_Ï_ÌÌ_È_ËÂÌÚ_18-5);"/>
                <path d="M162.86,122.13c4.42-1.24,4.04-7.22,4.1-7.44-.1.04-4.06,5.02-9.4,2.51-11.92-5.61-22.2,1.54-26.31,8.44,0,0,11.13-8.57,24.38-2.45,7.46,3.45,10.1-.76,10.06-.75-1.46.46-2.84-.23-2.82-.31Z" style="fill: url(#_ÂÁ_Ï_ÌÌ_È_ËÂÌÚ_1655);"/>
                <path d="M133.83,118.26s2.93-4.79,8.68-6.72c5.01-1.68,11.94-2.18,17.48,2.08,0,0-7.03-4.33-16.98-1.43-4.03,1.18-9.18,6.07-9.18,6.07Z" style="fill: url(#_ÂÁ_Ï_ÌÌ_È_ËÂÌÚ_18-6);"/>
              </g>
              <g>
                <path d="M83.69,110.89c19.38-1.95,21.81,15.45,21.81,15.45,0,0-8.9-4.27-18.48-2.84-4.37.66-11.45,3.95-13.72.51-4.38-6.62,2.93-12.37,10.4-13.12Z" style="fill: url(#_ÂÁ_Ï_ÌÌ_È_ËÂÌÚ_18-7);"/>
                <path d="M72.99,122.36c-4.44-1.17-4.16-7.15-4.22-7.37.1.04,4.14,4.95,9.44,2.35,11.82-5.8,22.22,1.17,26.45,8,0,0-11.27-8.39-24.42-2.04-7.4,3.57-10.11-.59-10.07-.58,1.46.44,2.84-.27,2.82-.36Z" style="fill: url(#_ÂÁ_Ï_ÌÌ_È_ËÂÌÚ_1655-2);"/>
                <path d="M101.95,118.01s-3.01-4.74-8.79-6.57c-5.04-1.59-11.98-1.98-17.44,2.38,0,0,6.96-4.45,16.95-1.72,4.05,1.11,9.28,5.91,9.28,5.91Z" style="fill: url(#_ÂÁ_Ï_ÌÌ_È_ËÂÌÚ_18-8);"/>
              </g>
            </g>
            <g>
              <path d="M89.8,188.37s13.91,11.92,15.31,12.94c3.21,2.34,6.07,3.32,13.86,3.58,7.59.25,12.15-2.05,14.28-3.47,2.24-1.5,16.6-14.62,17.68-15.66,0,0-11.94,14.52-15.39,17.37-5.64,4.65-12.28,5.93-16.44,5.93-5.23,0-9.29-.91-14-4.55-4.47-3.45-15.31-16.13-15.31-16.13Z" style="fill: url(#_ÂÁ_Ï_ÌÌ_È_ËÂÌÚ_18-9);"/>
              <path d="M93.36,159.02s24.95-.96,26.56-.94c1.61.02,25.86,1.08,25.86,1.08,0,0-24.21,2.61-25.86,2.78-2.19.23-26.56-2.93-26.56-2.93Z" style="fill: url(#_ÂÁ_Ï_ÌÌ_È_ËÂÌÚ_45);"/>
              <g>
                <path d="M145.53,160.69c1.46-.62,2.98-2.16,2.29-3.31-.61-1.03-6.59,3.1-8.8,7.8,3.1-2.73,5.06-3.86,6.51-4.48Z" style="fill: url(#_ÂÁ_Ï_ÌÌ_È_ËÂÌÚ_54);"/>
                <path d="M89.59,160.47c-1.48-.54-3.42-2.17-2.79-3.36.56-1.07,7.96,3.25,9.18,7.31-3.24-2.56-4.91-3.41-6.39-3.95Z" style="fill: url(#_ÂÁ_Ï_ÌÌ_È_ËÂÌÚ_54-2);"/>
                <path d="M103.89,176.01c3.05,4.76,16.72,17.52,28.66.73,0,0-21.38,2.5-28.66-.73Z" style="fill: url(#_ÂÁ_Ï_ÌÌ_È_ËÂÌÚ_4);"/>
                <path d="M116.55,160.72c-2.75-.04-5.27-.15-7.59-.32-.77-.06-12.75.76-18.41-1.24,4.34,3.91,13.88,12.33,14.9,13.14,3.07,2.43,7.15,4.32,12.57,4.34,6.29.02,10.67-1.22,13.83-4.25.79-.76,9.28-12.14,13.67-13.21-5.67,1.3-10.46.82-15.89,1.07-1.21.1-2.5.21-3.86.29-2.74.16-5.8.24-9.22.19Z" style="fill: #951c27;"/>
                <path d="M137.95,159.59s-2.95,1.44-11.21,2.24c-8.33.8-11.83.27-19.31-.16-3.43-.2-5.52-.73-9.81-1.79,0,0,.79,1,1.28,2.16.64,1.52,3.84,6.66,19.29,6.62,11.62-.03,17.79-4.12,18.64-6.62.51-1.51,1.02-1.93,1.12-2.44Z" style="fill: url(#linear-gradient-14);"/>
                <path d="M97.96,160.25l.98,1.85s6.65,3.67,20.37,3.75c9.9.06,17.44-3.62,17.44-3.62l.82-1.85-19.44.83-20.17-.96Z" style="fill: url(#linear-gradient-15);"/>
                <path d="M103.87,172.33s-1.34-2.45,5.09-3.6c2.3-.41,6.17.02,10.23.09,3.64.06,7.47-.29,9.85.02,4.46.58,5.21,3.01,3.95,3.66-1.26.65-7.01,3.87-13.07,4.04-6.05.16-11.88-.26-16.05-4.21Z" style="fill: url(#linear-gradient-16);"/>
                <path d="M132.68,170.17s.99.71,1.19,1.76c.15.77-5.63,3.45-7.19,3.84-1.56.39-14.13,1.66-16.9.17-2.77-1.49-5.78-3.48-5.78-3.48,0,0-1.04-.99.76-2.27,0,0,5.09,3.22,13.57,3.22,8.65,0,11.87-1.37,14.35-3.24Z" style="fill: url(#linear-gradient-17);"/>
                <path d="M121.31,176.46c-5.98.27-11.05-.64-15.05-3.85-2.18-1.75-10.94-10.24-14.7-12.56,3.91,3.77,6.82,8.91,9.86,12.97,3.04,4.06,8.04,10.12,17.47,10.12,10.56,0,14.64-7.33,16.98-10.8,3.17-4.72,4.93-9.59,7.25-11.91-3.23,1.95-9.56,9.75-10.25,10.58-.81.78-6.25,5.44-11.55,5.45Z" style="fill: #f86d78;"/>
                <path d="M106.79,173.04c-2.14-1.58.55,8.25,11.27,8.39,13.66.18,15.38-10.69,12.77-8.76-2.61,1.93-6.29,3.66-11.66,3.66-6.65,0-9.31-1.33-12.37-3.29Z" style="fill: url(#linear-gradient-18);"/>
                <path d="M130.42,174.66c.27.51-.95,2.48-3.9,3.78-3.79,1.67-7.06,1.04-7.32.53-.27-.5,4.91-1.61,6.35-2.36,1.45-.75,4.6-2.46,4.87-1.96Z" style="fill: #ff9aa2;"/>
                <path d="M125.92,159.85c-2.47.15-13.04.28-15.02.15-.99-.07-14.6-.4-20.26-1.08,5.65,2.66,10.48,3.03,14.52,3.69,4.05.66,9.61,1.42,13.1,1.34,3.32.02,9.52-.73,13.62-1.55,4.7-.94,7.98-1.31,13.02-3.28-5.52.49-18.16.67-18.98.72Z" style="fill: #f86d78;"/>
                <path d="M118.71,160.36c-1.42-.05-4.34-.13-8.06-.01-2.23.07-4.86.06-6.36.67-2.27.91,11.28,1.88,14.57,1.85,3.24-.03,15.68-1.11,12.96-2.11-2.54-.93-11.69-.34-13.11-.4Z" style="fill: url(#linear-gradient-19);"/>
                <path d="M89.7,159.83c.88.43,1.56-.27,5.06,1.1,0,0-5.94-3.32-6.33-3.13-.28.13-.02,1.4,1.28,2.03Z" style="fill: #951c27;"/>
                <path d="M145.38,160.14c-.88.43-1.85-.25-4.92,1.15,0,0,5.71-3.54,6.19-3.19.25.18.03,1.4-1.28,2.04Z" style="fill: #951c27;"/>
              </g>
            </g>
          </g>
          <path d="M176.69,145.5s-12.29,37.69-17.81,50.18c-5.53,12.49.2,54.6.2,54.6,0,0,30.77-59.9,26.99-86.96-3.78-27.06-9.37-17.83-9.37-17.83Z" style="fill: url(#_ÂÁ_Ï_ÌÌ_È_ËÂÌÚ_8-4);"/>
          <path d="M201.82,226.22s4.22,16.76,14.69,25.55c0,0-12.82-2.34-15.89-9.84-3.07-7.5,1.2-15.71,1.2-15.71Z" style="fill: url(#_ÂÁ_Ï_ÌÌ_È_ËÂÌÚ_8-5);"/>
          <path d="M37.73,224.48s-3.92,16.83-14.22,25.81c0,0,12.78-2.57,15.71-10.13s-1.49-15.68-1.49-15.68Z" style="fill: url(#_ÂÁ_Ï_ÌÌ_È_ËÂÌÚ_8-6);"/>
          <path d="M88.57,222.86c-2.25-25.81-14.12-44.6-19.91-51.99-9.49-12.11-10.59-39.7-10.59-39.7,0,0-5.3,44.7-7.45,60.71-3.31,24.71,7.65,58.08,18.9,65.28,7.25-12.93,8.02-27.77,5.32-46.15,10.04,19.5,2.37,38.16.46,50.1,7.48-8.5,14.23-27.26,13.27-38.25Z" style="fill: url(#_ÂÁ_Ï_ÌÌ_È_ËÂÌÚ_8-7);"/>
          <path d="M176.18,115.36c2.48,12.77,4.69,30.36,4.82,44.24.33,34.9-16.56,98.54-34.37,101.61,5.59-.8,20.74-2.1,32.58-19.17.82,6.23-6.48,10.85-12.05,15.62,11.28-6.19,16.53-11.65,16.53-11.65-2.79,5.16-4.59,9.24-13.85,16.19,5.74-.97,22.79-12.15,30.74-23.14,4.87-11.57,9.47-22.87,11.98-36.09-2.15-19.58-8.28-38.16-18.93-56.7-5.56-8.71-12.57-21.4-17.46-30.92Z" style="fill: url(#_ÂÁ_Ï_ÌÌ_È_ËÂÌÚ_46);"/>
          <path d="M204.18,156.03c-.57-5.13-14.56-86.44-21.27-100.08C156.75,2.79,116.95,21.18,116.95,21.18l-2.41,20.66c29.63-5.82,53.25,30.02,62.45,77.5,4.88,9.52,11.09,18.23,16.65,26.94,10.65,18.54,12.7,25.45,10.55,9.75Z" style="fill: url(#_ÂÁ_Ï_ÌÌ_È_ËÂÌÚ_8-8);"/>
          <path d="M63.67,28.67c-19.18,17.13-24.54,36.56-26.69,49.7-1.27,7.77-7.82,56.06-11.08,89.11,7.99-17.33,17.64-22.39,30.01-36.24.54-.83,1.03-1.68,1.5-2.53,1.09-28.65,6.19-52.63,22.64-68.98,20.68-20.57,34.5-17.88,34.5-17.88l2.41-20.66c-10.08-7.99-41.77-2.79-53.28,7.49Z" style="fill: url(#_ÂÁ_Ï_ÌÌ_È_ËÂÌÚ_8-9);"/>
          <path d="M25.9,167.48c-13.03,27.6-7.36,56.08.16,66,6.24,7.19,17.28,18.54,25.57,23.75-3.27-4.13-8.73-13.99-8.08-20.04,5.68,18.42,28.89,23.12,31.76,23.93-19.07-11.21-24.55-32.01-25.43-58.94-.62-18.82,6.91-57.15,7.53-73.47-.46.85-.95,1.7-1.5,2.53-12.37,13.86-22.02,18.91-30.01,36.24Z" style="fill: url(#_ÂÁ_Ï_ÌÌ_È_ËÂÌÚ_55);"/>
          <path d="M114.57,41.85s25.96-12.2,42.69,8.78c16.73,20.98,16.75,65.94,26.42,90.07,9.67,24.13,24.47,59.12,18.51,78.91-5.96,19.8-23.07,35.64-23.07,35.64,0,0,19.86-25.5,16.33-49.44-3.53-23.93-19.49-47.61-23.44-73.61-3.95-26-8.42-63.85-26.7-80.22-16.22-14.52-30.75-10.15-30.75-10.15Z" style="fill: url(#linear-gradient-20);"/>
          <path d="M116.86,27.21s-38.4-6.34-53.69,27.64c-15.29,33.99-29.42,74.29-29.42,74.29,0,0,20.28-76.82,23.36-83.84,4.48-10.22,28.82-38.88,59.74-18.09Z" style="fill: url(#_ÂÁ_Ï_ÌÌ_È_ËÂÌÚ_8-10);"/>
          <path d="M119.15,25.63s22.09-6.49,46.27,18.59c13.26,13.75,19.44,87.87,19.44,87.87,0,0,1.24-59.05-4.73-78.78-5.98-19.73-36.97-48.42-60.98-27.68Z" style="fill: url(#_ÂÁ_Ï_ÌÌ_È_ËÂÌÚ_8-11);"/>
          <path d="M49.36,145.73s-18.65,33.23-20.76,55.08c-2.11,21.85-9.8,40.97-20.87,43.33,0,0,14.76-3.08,21.16-11.63,6.39-8.55,10.95-66.81,20.47-86.78Z" style="fill: url(#_ÂÁ_Ï_ÌÌ_È_ËÂÌÚ_10);"/>
          <path d="M67.29,89.73s-9.71,28.7-14.83,64.27c-4.16,28.92-9.06,41.33-7.01,59.77,2.26,20.27,9,41.15,29.86,47.35,0,0-16.29-7.91-21.79-47.42-1.92-13.79,2.16-36.91,5.38-59.75,4.6-32.67,8.39-64.21,8.39-64.21Z" style="fill: url(#linear-gradient-21);"/>
          <path d="M176.89,179.69s7.83,75.39-30.26,81.53c0,0,23.47-9.98,30.26-81.53Z" style="fill: url(#linear-gradient-22);"/>
          <path d="M166.56,169.11s-7.26,15.46-13.4,28.41c-6.14,12.95.39,42.65.39,42.65,0,0-.8-21.28,4.35-34.34,5.15-13.07,8.66-36.72,8.66-36.72Z" style="fill: url(#linear-gradient-23);"/>
          <path d="M70.64,172.83s12.38,14.45,18.1,33.45c5.72,19-3.72,47.83-3.72,47.83,0,0,3.22-34.36-.46-50.22-3.68-15.86-13.92-31.06-13.92-31.06Z" style="fill: url(#linear-gradient-24);"/>
          <path d="M41.54,213.19s-3.37,31.06,11.89,46.17c0,0-28.22-8.73-11.89-46.17Z" style="fill: url(#linear-gradient-25);"/>
          <path d="M185.67,218.28s6.25,28.21-19.46,39.85c0,0,21.14-18.6,19.46-39.85Z" style="fill: url(#linear-gradient-26);"/>
          <path d="M117,26.6s17.65-12.18,48.26,4.63c0,0-19.13-21.64-45.81-14.11,0,0-27.12-15.7-54.15,10.24,0,0,7.76-6.25,21.31-8.01,11.29-1.47,28.56.71,30.39,7.25Z" style="fill: url(#linear-gradient-27);"/>
          <path d="M164.3,89.49s.24-25.85-13.02-38.23c-13.26-12.38-25.85-12.96-36.71-9.41,0,0,15.34-2.66,24.59,6.03,12.32,11.55,18.62,20.88,25.14,41.62Z" style="fill: url(#_ÂÁ_Ï_ÌÌ_È_ËÂÌÚ_8-12);"/>
          <path d="M114.57,41.85s-9.82-2.52-17.17-.06c-14.23,4.75-22.13,23.04-25.69,46.21,0,0,4.62-27.57,24.3-39.11,10.62-6.23,18.56-7.03,18.56-7.03Z" style="fill: url(#_ÂÁ_Ï_ÌÌ_È_ËÂÌÚ_8-13);"/>
          <path d="M119.16,27.28s34.68-16.99,51.95,24.72c12.62,30.48,10.78,61.54,10.78,61.54,0,0-2.36-50.98-29.58-77.08-15.46-14.82-33.16-9.18-33.16-9.18Z" style="fill: url(#_ÂÁ_Ï_ÌÌ_È_ËÂÌÚ_8-14);"/>
          <path d="M116.86,27.21s-12.28-5.22-28.04.35c-12.28,4.35-21.96,16.12-27.34,29.6-3.53,8.83-13.59,32.5-20.9,53.29,0,0,20.09-27.49,27.07-50.69,5.06-16.8,24.27-36.36,49.21-32.56Z" style="fill: url(#_ÂÁ_Ï_ÌÌ_È_ËÂÌÚ_8-15);"/>
          <path d="M185.58,79.49s-1.29,49.18,24.33,102.19l-24.33-102.19Z" style="fill: url(#_ÂÁ_Ï_ÌÌ_È_ËÂÌÚ_8-16);"/>
          <path d="M57.5,87.02l-31.73,75.95s30.58-25.55,31.73-75.95Z" style="fill: url(#_ÂÁ_Ï_ÌÌ_È_ËÂÌÚ_8-17);"/>
          <path d="M187.98,132.52s15.84,22,23.18,42.8c8.05,22.83,6.64,42.03-7.7,63.39,0,0,8.04-26.46-1.28-67.09-3.74-16.3-14.19-39.11-14.19-39.11Z" style="fill: url(#_ÂÁ_Ï_ÌÌ_È_ËÂÌÚ_7);"/>
          <path d="M114.57,41.85s-22.52-12.56-38.66,11.58c-13.5,20.2-13.6,53.51-33.87,84.03-8.39,12.64-28.84,33.46-29.08,59.55,0,0,2.32-12.81,22.9-36.86,20.57-24.04,32.26-52.89,37.5-78.76,7.33-36.19,25.25-41.64,41.21-39.54Z" style="fill: url(#linear-gradient-28);"/>
          <path d="M64.7,170.04s20.82,50.66,6.45,83.95c0,0-3.57-67.51-6.45-83.95Z" style="fill: url(#_ÂÁ_Ï_ÌÌ_È_ËÂÌÚ_46-2);"/>
        </g>
      </g>
    </g>
  </g>
</svg>