<?xml version="1.0" encoding="UTF-8"?>
<svg id="Layer_2" data-name="Layer 2" xmlns="http://www.w3.org/2000/svg" xmlns:xlink="http://www.w3.org/1999/xlink" viewBox="0 0 326.58 340.78">
  <defs>
    <style>
      .cls-1 {
        fill: url(#_ÂÁ_Ï_ÌÌ_È_ËÂÌÚ_1655-2);
      }

      .cls-2 {
        fill: #f5d534;
      }

      .cls-3 {
        fill: url(#_ÂÁ_Ï_ÌÌ_È_ËÂÌÚ_384);
      }

      .cls-4 {
        fill: url(#_ÂÁ_Ï_ÌÌ_È_ËÂÌÚ_126);
      }

      .cls-5 {
        fill: url(#_ÂÁ_Ï_ÌÌ_È_ËÂÌÚ_8-9);
      }

      .cls-6 {
        fill: url(#_ÂÁ_Ï_ÌÌ_È_ËÂÌÚ_8-8);
      }

      .cls-7 {
        fill: url(#_ÂÁ_Ï_ÌÌ_È_ËÂÌÚ_8-7);
      }

      .cls-8 {
        fill: url(#_ÂÁ_Ï_ÌÌ_È_ËÂÌÚ_8-6);
      }

      .cls-9 {
        fill: url(#_ÂÁ_Ï_ÌÌ_È_ËÂÌÚ_8-5);
      }

      .cls-10 {
        fill: url(#_ÂÁ_Ï_ÌÌ_È_ËÂÌÚ_8-4);
      }

      .cls-11 {
        fill: url(#_ÂÁ_Ï_ÌÌ_È_ËÂÌÚ_8-3);
      }

      .cls-12 {
        fill: url(#_ÂÁ_Ï_ÌÌ_È_ËÂÌÚ_8-2);
      }

      .cls-13 {
        fill: url(#radial-gradient-2);
      }

      .cls-14 {
        fill: url(#linear-gradient-8);
      }

      .cls-15 {
        fill: url(#linear-gradient-7);
      }

      .cls-16 {
        fill: url(#linear-gradient-5);
      }

      .cls-17 {
        fill: url(#linear-gradient-6);
      }

      .cls-18 {
        fill: url(#linear-gradient-9);
      }

      .cls-19 {
        fill: url(#linear-gradient-4);
      }

      .cls-20 {
        fill: url(#linear-gradient-3);
      }

      .cls-21 {
        fill: url(#linear-gradient-2);
      }

      .cls-22 {
        fill: url(#radial-gradient);
      }

      .cls-23 {
        fill: url(#_ÂÁ_Ï_ÌÌ_È_ËÂÌÚ_126-2);
      }

      .cls-24 {
        fill: url(#linear-gradient);
      }

      .cls-25 {
        fill: url(#_ÂÁ_Ï_ÌÌ_È_ËÂÌÚ_7);
      }

      .cls-26 {
        fill: url(#_ÂÁ_Ï_ÌÌ_È_ËÂÌÚ_8);
      }

      .cls-27 {
        fill: url(#_ÂÁ_Ï_ÌÌ_È_ËÂÌÚ_4);
      }

      .cls-28 {
        fill: #f0c499;
      }

      .cls-29 {
        fill: #951c27;
      }

      .cls-30 {
        fill: #ff9aa2;
      }

      .cls-31 {
        fill: #f86d78;
      }

      .cls-32 {
        fill: url(#linear-gradient-10);
      }

      .cls-33 {
        fill: url(#linear-gradient-11);
      }

      .cls-34 {
        fill: url(#linear-gradient-12);
      }

      .cls-35 {
        fill: url(#linear-gradient-13);
      }

      .cls-36 {
        fill: url(#linear-gradient-19);
      }

      .cls-37 {
        fill: url(#linear-gradient-14);
      }

      .cls-38 {
        fill: url(#linear-gradient-21);
      }

      .cls-39 {
        fill: url(#linear-gradient-20);
      }

      .cls-40 {
        fill: url(#linear-gradient-22);
      }

      .cls-41 {
        fill: url(#linear-gradient-23);
      }

      .cls-42 {
        fill: url(#linear-gradient-28);
      }

      .cls-43 {
        fill: url(#linear-gradient-25);
      }

      .cls-44 {
        fill: url(#linear-gradient-15);
      }

      .cls-45 {
        fill: url(#linear-gradient-16);
      }

      .cls-46 {
        fill: url(#linear-gradient-17);
      }

      .cls-47 {
        fill: url(#linear-gradient-18);
      }

      .cls-48 {
        fill: url(#linear-gradient-27);
      }

      .cls-49 {
        fill: url(#linear-gradient-24);
      }

      .cls-50 {
        fill: url(#linear-gradient-26);
      }

      .cls-51 {
        fill: url(#linear-gradient-29);
      }

      .cls-52 {
        fill: #f7d4ab;
      }

      .cls-53 {
        fill: url(#_ÂÁ_Ï_ÌÌ_È_ËÂÌÚ_23-2);
      }

      .cls-54 {
        fill: url(#_ÂÁ_Ï_ÌÌ_È_ËÂÌÚ_54-2);
      }

      .cls-55 {
        fill: url(#_ÂÁ_Ï_ÌÌ_È_ËÂÌÚ_46-2);
      }

      .cls-56 {
        fill: url(#_ÂÁ_Ï_ÌÌ_È_ËÂÌÚ_11-2);
      }

      .cls-57 {
        fill: url(#_ÂÁ_Ï_ÌÌ_È_ËÂÌÚ_1655);
      }

      .cls-58 {
        fill: url(#_ÂÁ_Ï_ÌÌ_È_ËÂÌÚ_18-7);
      }

      .cls-59 {
        fill: url(#_ÂÁ_Ï_ÌÌ_È_ËÂÌÚ_18-6);
      }

      .cls-60 {
        fill: url(#_ÂÁ_Ï_ÌÌ_È_ËÂÌÚ_18-9);
      }

      .cls-61 {
        fill: url(#_ÂÁ_Ï_ÌÌ_È_ËÂÌÚ_18-8);
      }

      .cls-62 {
        fill: url(#_ÂÁ_Ï_ÌÌ_È_ËÂÌÚ_18-3);
      }

      .cls-63 {
        fill: url(#_ÂÁ_Ï_ÌÌ_È_ËÂÌÚ_18-2);
      }

      .cls-64 {
        fill: url(#_ÂÁ_Ï_ÌÌ_È_ËÂÌÚ_18-5);
      }

      .cls-65 {
        fill: url(#_ÂÁ_Ï_ÌÌ_È_ËÂÌÚ_18-4);
      }

      .cls-66 {
        fill: url(#_ÂÁ_Ï_ÌÌ_È_ËÂÌÚ_8-10);
      }

      .cls-67 {
        fill: url(#_ÂÁ_Ï_ÌÌ_È_ËÂÌÚ_8-11);
      }

      .cls-68 {
        fill: url(#_ÂÁ_Ï_ÌÌ_È_ËÂÌÚ_8-15);
      }

      .cls-69 {
        fill: url(#_ÂÁ_Ï_ÌÌ_È_ËÂÌÚ_8-14);
      }

      .cls-70 {
        fill: url(#_ÂÁ_Ï_ÌÌ_È_ËÂÌÚ_8-17);
      }

      .cls-71 {
        fill: url(#_ÂÁ_Ï_ÌÌ_È_ËÂÌÚ_8-16);
      }

      .cls-72 {
        fill: url(#_ÂÁ_Ï_ÌÌ_È_ËÂÌÚ_8-13);
      }

      .cls-73 {
        fill: url(#_ÂÁ_Ï_ÌÌ_È_ËÂÌÚ_8-12);
      }

      .cls-74 {
        fill: url(#_ÂÁ_Ï_ÌÌ_È_ËÂÌÚ_72-2);
      }

      .cls-75 {
        fill: url(#_ÂÁ_Ï_ÌÌ_È_ËÂÌÚ_30-2);
      }

      .cls-76 {
        fill: url(#_ÂÁ_Ï_ÌÌ_È_ËÂÌÚ_30-3);
      }

      .cls-77 {
        fill: url(#_ÂÁ_Ï_ÌÌ_È_ËÂÌÚ_29-4);
      }

      .cls-78 {
        fill: url(#_ÂÁ_Ï_ÌÌ_È_ËÂÌÚ_29-6);
      }

      .cls-79 {
        fill: url(#_ÂÁ_Ï_ÌÌ_È_ËÂÌÚ_29-5);
      }

      .cls-80 {
        fill: url(#_ÂÁ_Ï_ÌÌ_È_ËÂÌÚ_29-3);
      }

      .cls-81 {
        fill: url(#_ÂÁ_Ï_ÌÌ_È_ËÂÌÚ_29-2);
      }

      .cls-82 {
        fill: url(#_ÂÁ_Ï_ÌÌ_È_ËÂÌÚ_72);
      }

      .cls-83 {
        fill: url(#_ÂÁ_Ï_ÌÌ_È_ËÂÌÚ_30);
      }

      .cls-84 {
        fill: url(#_ÂÁ_Ï_ÌÌ_È_ËÂÌÚ_14);
      }

      .cls-85 {
        fill: url(#_ÂÁ_Ï_ÌÌ_È_ËÂÌÚ_11);
      }

      .cls-86 {
        fill: url(#_ÂÁ_Ï_ÌÌ_È_ËÂÌÚ_10);
      }

      .cls-87 {
        fill: url(#_ÂÁ_Ï_ÌÌ_È_ËÂÌÚ_18);
      }

      .cls-88 {
        fill: url(#_ÂÁ_Ï_ÌÌ_È_ËÂÌÚ_23);
      }

      .cls-89 {
        fill: url(#_ÂÁ_Ï_ÌÌ_È_ËÂÌÚ_55);
      }

      .cls-90 {
        fill: url(#_ÂÁ_Ï_ÌÌ_È_ËÂÌÚ_54);
      }

      .cls-91 {
        fill: url(#_ÂÁ_Ï_ÌÌ_È_ËÂÌÚ_46);
      }

      .cls-92 {
        fill: url(#_ÂÁ_Ï_ÌÌ_È_ËÂÌÚ_45);
      }

      .cls-93 {
        fill: url(#_ÂÁ_Ï_ÌÌ_È_ËÂÌÚ_29);
      }
    </style>
    <linearGradient id="_ÂÁ_Ï_ÌÌ_È_ËÂÌÚ_8" data-name="¡ÂÁ˚ÏˇÌÌ˚È „‡‰ËÂÌÚ 8" x1="788.08" y1="581.33" x2="767.69" y2="510.44" gradientTransform="translate(-258.05 -558.59) rotate(22.66)" gradientUnits="userSpaceOnUse">
      <stop offset="0" stop-color="#3b2621"/>
      <stop offset=".39" stop-color="#3e2822"/>
      <stop offset=".71" stop-color="#482e29"/>
      <stop offset="1" stop-color="#593a33"/>
    </linearGradient>
    <linearGradient id="_ÂÁ_Ï_ÌÌ_È_ËÂÌÚ_8-2" data-name="¡ÂÁ˚ÏˇÌÌ˚È „‡‰ËÂÌÚ 8" x1="-807.19" y1="1197.4" x2="-827.58" y2="1126.52" gradientTransform="translate(-1092.53 -583.19) rotate(160.8) scale(1 -1)" xlink:href="#_ÂÁ_Ï_ÌÌ_È_ËÂÌÚ_8"/>
    <linearGradient id="_ÂÁ_Ï_ÌÌ_È_ËÂÌÚ_8-3" data-name="¡ÂÁ˚ÏˇÌÌ˚È „‡‰ËÂÌÚ 8" x1="428.19" y1="1016.33" x2="509.93" y2="542.25" gradientTransform="translate(-272.99 -710.9) rotate(1.72)" xlink:href="#_ÂÁ_Ï_ÌÌ_È_ËÂÌÚ_8"/>
    <linearGradient id="linear-gradient" x1="198.27" y1="224.31" x2="147.78" y2="231.75" gradientUnits="userSpaceOnUse">
      <stop offset="0" stop-color="#f0c499"/>
      <stop offset=".52" stop-color="#f1c69b"/>
      <stop offset=".85" stop-color="#f4cea4"/>
      <stop offset="1" stop-color="#f7d4ab"/>
    </linearGradient>
    <linearGradient id="linear-gradient-2" x1="109.09" y1="182.86" x2="195.28" y2="209.07" xlink:href="#linear-gradient"/>
    <linearGradient id="linear-gradient-3" x1="163.84" y1="345.66" x2="270.39" y2="410.4" gradientTransform="translate(-197.13 -84.11) rotate(-16.11)" xlink:href="#linear-gradient"/>
    <linearGradient id="linear-gradient-4" x1="280.23" y1="620.76" x2="163.2" y2="653.64" gradientTransform="translate(150.2 -452.86) rotate(13.36)" xlink:href="#linear-gradient"/>
    <linearGradient id="linear-gradient-5" x1="123.89" y1="242.29" x2="260.68" y2="205.01" xlink:href="#linear-gradient"/>
    <linearGradient id="_ÂÁ_Ï_ÌÌ_È_ËÂÌÚ_29" data-name="¡ÂÁ˚ÏˇÌÌ˚È „‡‰ËÂÌÚ 29" x1="164.09" y1="244.59" x2="160.53" y2="210.28" gradientUnits="userSpaceOnUse">
      <stop offset="0" stop-color="#d6b01f"/>
      <stop offset=".42" stop-color="#e0bc26"/>
      <stop offset="1" stop-color="#f5d534"/>
    </linearGradient>
    <linearGradient id="linear-gradient-6" x1="155.78" y1="158.44" x2="165.98" y2="201.65" gradientUnits="userSpaceOnUse">
      <stop offset="0" stop-color="#dba379"/>
      <stop offset=".49" stop-color="#e3b086"/>
      <stop offset="1" stop-color="#f0c499"/>
    </linearGradient>
    <linearGradient id="_ÂÁ_Ï_ÌÌ_È_ËÂÌÚ_30" data-name="¡ÂÁ˚ÏˇÌÌ˚È „‡‰ËÂÌÚ 30" x1="164.59" y1="224.41" x2="153.73" y2="358.15" gradientUnits="userSpaceOnUse">
      <stop offset="0" stop-color="#f5d534"/>
      <stop offset=".47" stop-color="#f7d942"/>
      <stop offset="1" stop-color="#f9de4f"/>
    </linearGradient>
    <linearGradient id="_ÂÁ_Ï_ÌÌ_È_ËÂÌÚ_30-2" data-name="¡ÂÁ˚ÏˇÌÌ˚È „‡‰ËÂÌÚ 30" x1="44.6" y1="371.99" x2="27.11" y2="213.98" xlink:href="#_ÂÁ_Ï_ÌÌ_È_ËÂÌÚ_30"/>
    <linearGradient id="_ÂÁ_Ï_ÌÌ_È_ËÂÌÚ_29-2" data-name="¡ÂÁ˚ÏˇÌÌ˚È „‡‰ËÂÌÚ 29" x1="30.92" y1="341.09" x2="68.13" y2="317.98" xlink:href="#_ÂÁ_Ï_ÌÌ_È_ËÂÌÚ_29"/>
    <linearGradient id="_ÂÁ_Ï_ÌÌ_È_ËÂÌÚ_29-3" data-name="¡ÂÁ˚ÏˇÌÌ˚È „‡‰ËÂÌÚ 29" x1="4.54" y1="341.33" x2="-.15" y2="340.22" xlink:href="#_ÂÁ_Ï_ÌÌ_È_ËÂÌÚ_29"/>
    <linearGradient id="_ÂÁ_Ï_ÌÌ_È_ËÂÌÚ_29-4" data-name="¡ÂÁ˚ÏˇÌÌ˚È „‡‰ËÂÌÚ 29" x1="60.75" y1="341.75" x2="59.39" y2="245.78" xlink:href="#_ÂÁ_Ï_ÌÌ_È_ËÂÌÚ_29"/>
    <linearGradient id="_ÂÁ_Ï_ÌÌ_È_ËÂÌÚ_29-5" data-name="¡ÂÁ˚ÏˇÌÌ˚È „‡‰ËÂÌÚ 29" x1="249.15" y1="337.31" x2="281.42" y2="317.27" xlink:href="#_ÂÁ_Ï_ÌÌ_È_ËÂÌÚ_29"/>
    <linearGradient id="_ÂÁ_Ï_ÌÌ_È_ËÂÌÚ_29-6" data-name="¡ÂÁ˚ÏˇÌÌ˚È „‡‰ËÂÌÚ 29" x1="267.91" y1="341.6" x2="266.56" y2="246.36" xlink:href="#_ÂÁ_Ï_ÌÌ_È_ËÂÌÚ_29"/>
    <linearGradient id="_ÂÁ_Ï_ÌÌ_È_ËÂÌÚ_30-3" data-name="¡ÂÁ˚ÏˇÌÌ˚È „‡‰ËÂÌÚ 30" x1="301.96" y1="382.88" x2="282.01" y2="202.59" xlink:href="#_ÂÁ_Ï_ÌÌ_È_ËÂÌÚ_30"/>
    <linearGradient id="_ÂÁ_Ï_ÌÌ_È_ËÂÌÚ_14" data-name="¡ÂÁ˚ÏˇÌÌ˚È „‡‰ËÂÌÚ 14" x1="423.96" y1="714.92" x2="423.86" y2="714.65" gradientTransform="translate(-273.9 -695.99) rotate(-.52)" gradientUnits="userSpaceOnUse">
      <stop offset="0" stop-color="#cb8076"/>
      <stop offset=".31" stop-color="#b76f65"/>
      <stop offset=".95" stop-color="#86443a"/>
      <stop offset="1" stop-color="#824137"/>
    </linearGradient>
    <linearGradient id="_ÂÁ_Ï_ÌÌ_È_ËÂÌÚ_18" data-name="¡ÂÁ˚ÏˇÌÌ˚È „‡‰ËÂÌÚ 18" x1="368.32" y1="827.61" x2="360.24" y2="802.43" gradientTransform="translate(-266.61 -691.83) rotate(.21)" gradientUnits="userSpaceOnUse">
      <stop offset="0" stop-color="#dba379"/>
      <stop offset=".49" stop-color="#e3b086"/>
      <stop offset="1" stop-color="#f0c499"/>
    </linearGradient>
    <linearGradient id="linear-gradient-7" x1="-2656.88" y1="991.49" x2="-2655.23" y2="1048.94" gradientTransform="translate(2743.95 -723.45) rotate(-.52)" xlink:href="#linear-gradient-6"/>
    <linearGradient id="_ÂÁ_Ï_ÌÌ_È_ËÂÌÚ_18-2" data-name="¡ÂÁ˚ÏˇÌÌ˚È „‡‰ËÂÌÚ 18" x1="482.99" y1="807.88" x2="502.4" y2="807.88" xlink:href="#_ÂÁ_Ï_ÌÌ_È_ËÂÌÚ_18"/>
    <linearGradient id="linear-gradient-8" x1="-2334.91" y1="991.47" x2="-2333.26" y2="1048.92" gradientTransform="translate(-2121.97 -679.15) rotate(179.48) scale(1 -1)" xlink:href="#linear-gradient-6"/>
    <linearGradient id="_ÂÁ_Ï_ÌÌ_È_ËÂÌÚ_384" data-name="¡ÂÁ˚ÏˇÌÌ˚È „‡‰ËÂÌÚ 384" x1="423.32" y1="733.11" x2="423.08" y2="894.26" gradientTransform="translate(-273.9 -695.99) rotate(-.52)" gradientUnits="userSpaceOnUse">
      <stop offset="0" stop-color="#ffd9b3"/>
      <stop offset=".32" stop-color="#f9d5ad"/>
      <stop offset="1" stop-color="#f7d4ab"/>
    </linearGradient>
    <linearGradient id="linear-gradient-9" x1="394.88" y1="830.65" x2="387.82" y2="786.93" gradientTransform="translate(-273.9 -695.99) rotate(-.52)" gradientUnits="userSpaceOnUse">
      <stop offset="0" stop-color="#f7d4ab"/>
      <stop offset=".52" stop-color="#f5d1a8"/>
      <stop offset=".85" stop-color="#f2c99f"/>
      <stop offset="1" stop-color="#f0c499"/>
    </linearGradient>
    <radialGradient id="radial-gradient" cx="317.77" cy="831.99" fx="317.77" fy="831.99" r="32.15" gradientTransform="translate(-140.74 -697.05) rotate(-.52) scale(.79 1)" gradientUnits="userSpaceOnUse">
      <stop offset="0" stop-color="#f9b38e"/>
      <stop offset=".61" stop-color="#f7c59e"/>
      <stop offset="1" stop-color="#f7d4ab"/>
    </radialGradient>
    <linearGradient id="_ÂÁ_Ï_ÌÌ_È_ËÂÌÚ_18-3" data-name="¡ÂÁ˚ÏˇÌÌ˚È „‡‰ËÂÌÚ 18" x1="470.21" y1="744.56" x2="381.71" y2="816.94" gradientTransform="translate(-273.9 -695.99) rotate(-.52)" xlink:href="#_ÂÁ_Ï_ÌÌ_È_ËÂÌÚ_18"/>
    <linearGradient id="_ÂÁ_Ï_ÌÌ_È_ËÂÌÚ_72" data-name="¡ÂÁ˚ÏˇÌÌ˚È „‡‰ËÂÌÚ 72" x1="372.38" y1="855.66" x2="367.89" y2="779.92" gradientTransform="translate(-273.9 -695.99) rotate(-.52)" gradientUnits="userSpaceOnUse">
      <stop offset="0" stop-color="#f9b38e"/>
      <stop offset=".5" stop-color="#f7b690"/>
      <stop offset=".9" stop-color="#f2c096"/>
      <stop offset="1" stop-color="#f0c499"/>
    </linearGradient>
    <linearGradient id="linear-gradient-10" x1="457.28" y1="824.1" x2="450.48" y2="786.45" xlink:href="#linear-gradient-9"/>
    <linearGradient id="_ÂÁ_Ï_ÌÌ_È_ËÂÌÚ_18-4" data-name="¡ÂÁ˚ÏˇÌÌ˚È „‡‰ËÂÌÚ 18" x1="361.28" y1="836.75" x2="394.14" y2="836.75" gradientTransform="translate(-273.9 -695.99) rotate(-.52)" xlink:href="#_ÂÁ_Ï_ÌÌ_È_ËÂÌÚ_18"/>
    <linearGradient id="linear-gradient-11" x1="443.73" y1="796.33" x2="476.48" y2="796.33" gradientTransform="translate(-273.9 -695.99) rotate(-.52)" gradientUnits="userSpaceOnUse">
      <stop offset="0" stop-color="#ffd9b3"/>
      <stop offset=".68" stop-color="#fcd7b0"/>
      <stop offset="1" stop-color="#f7d4ab"/>
    </linearGradient>
    <radialGradient id="radial-gradient-2" cx="819.61" cy="832.29" fx="819.61" fy="832.29" r="32.15" gradientTransform="translate(839.1 -706.24) rotate(179.48) scale(.79 -1)" xlink:href="#radial-gradient"/>
    <linearGradient id="_ÂÁ_Ï_ÌÌ_È_ËÂÌÚ_72-2" data-name="¡ÂÁ˚ÏˇÌÌ˚È „‡‰ËÂÌÚ 72" x1="-1429.36" y1="851.87" x2="-1433.53" y2="781.6" gradientTransform="translate(-1229.04 -687.27) rotate(179.48) scale(1 -1)" xlink:href="#_ÂÁ_Ï_ÌÌ_È_ËÂÌÚ_72"/>
    <linearGradient id="linear-gradient-12" x1="424.82" y1="848.43" x2="422.61" y2="837.42" xlink:href="#linear-gradient-9"/>
    <linearGradient id="linear-gradient-13" x1="423.08" y1="836.55" x2="423.02" y2="845.19" gradientTransform="translate(-273.9 -695.99) rotate(-.52)" xlink:href="#linear-gradient-6"/>
    <linearGradient id="_ÂÁ_Ï_ÌÌ_È_ËÂÌÚ_23" data-name="¡ÂÁ˚ÏˇÌÌ˚È „‡‰ËÂÌÚ 23" x1="422.56" y1="824.8" x2="422.68" y2="833.66" gradientTransform="translate(-273.9 -695.99) rotate(-.52)" gradientUnits="userSpaceOnUse">
      <stop offset="0" stop-color="#f7d4ab"/>
      <stop offset="1" stop-color="#ffd9b3"/>
    </linearGradient>
    <linearGradient id="_ÂÁ_Ï_ÌÌ_È_ËÂÌÚ_23-2" data-name="¡ÂÁ˚ÏˇÌÌ˚È „‡‰ËÂÌÚ 23" x1="455.26" y1="835.22" x2="486.81" y2="835.22" xlink:href="#_ÂÁ_Ï_ÌÌ_È_ËÂÌÚ_23"/>
    <linearGradient id="_ÂÁ_Ï_ÌÌ_È_ËÂÌÚ_11" data-name="¡ÂÁ˚ÏˇÌÌ˚È „‡‰ËÂÌÚ 11" x1="759.68" y1="866.64" x2="804.06" y2="865.6" gradientTransform="translate(-796.56 -632.41) rotate(-10.07)" gradientUnits="userSpaceOnUse">
      <stop offset="0" stop-color="#3b2621"/>
      <stop offset=".41" stop-color="#3c2722"/>
      <stop offset=".56" stop-color="#432c25"/>
      <stop offset=".66" stop-color="#4f362c"/>
      <stop offset=".75" stop-color="#604335"/>
      <stop offset=".82" stop-color="#765441"/>
      <stop offset=".88" stop-color="#916950"/>
      <stop offset=".94" stop-color="#b18262"/>
      <stop offset=".99" stop-color="#d69f76"/>
      <stop offset="1" stop-color="#dba379"/>
    </linearGradient>
    <linearGradient id="_ÂÁ_Ï_ÌÌ_È_ËÂÌÚ_11-2" data-name="¡ÂÁ˚ÏˇÌÌ˚È „‡‰ËÂÌÚ 11" x1="-937.87" y1="782.47" x2="-893.49" y2="781.43" gradientTransform="translate(-564.84 -857.71) rotate(-169.12) scale(1 -1)" xlink:href="#_ÂÁ_Ï_ÌÌ_È_ËÂÌÚ_11"/>
    <linearGradient id="_ÂÁ_Ï_ÌÌ_È_ËÂÌÚ_126" data-name="¡ÂÁ˚ÏˇÌÌ˚È „‡‰ËÂÌÚ 126" x1="-669.71" y1="742.79" x2="-668.92" y2="742.79" gradientTransform="translate(8641.91 9650.71) rotate(.2) scale(12.79 -12.79)" gradientUnits="userSpaceOnUse">
      <stop offset="0" stop-color="#ffd9b3"/>
      <stop offset=".52" stop-color="#fccfa9"/>
      <stop offset="1" stop-color="#f8c39c"/>
    </linearGradient>
    <linearGradient id="_ÂÁ_Ï_ÌÌ_È_ËÂÌÚ_126-2" data-name="¡ÂÁ˚ÏˇÌÌ˚È „‡‰ËÂÌÚ 126" x1="-780.74" y1="741.39" x2="-779.95" y2="741.39" gradientTransform="translate(-9574.28 9816.57) rotate(178.75) scale(12.79)" xlink:href="#_ÂÁ_Ï_ÌÌ_È_ËÂÌÚ_126"/>
    <linearGradient id="linear-gradient-14" x1="143.82" y1="178.51" x2="168.95" y2="178.51" gradientTransform="matrix(1,0,0,1,0,0)" xlink:href="#linear-gradient-11"/>
    <linearGradient id="_ÂÁ_Ï_ÌÌ_È_ËÂÌÚ_18-5" data-name="¡ÂÁ˚ÏˇÌÌ˚È „‡‰ËÂÌÚ 18" x1="-824.41" y1="781.2" x2="-823.56" y2="781.2" gradientTransform="translate(-36236.48 -22685.13) rotate(168.56) scale(37.84 -37.84)" xlink:href="#_ÂÁ_Ï_ÌÌ_È_ËÂÌÚ_18"/>
    <linearGradient id="_ÂÁ_Ï_ÌÌ_È_ËÂÌÚ_1655" data-name="¡ÂÁ˚ÏˇÌÌ˚È „‡‰ËÂÌÚ 1655" x1="-742.01" y1="752.51" x2="-741.18" y2="752.51" gradientTransform="translate(33622.38 31573.89) rotate(-2.16) scale(43.46 -43.46)" gradientUnits="userSpaceOnUse">
      <stop offset="0" stop-color="#4d322e"/>
      <stop offset=".06" stop-color="#4a302c"/>
      <stop offset=".55" stop-color="#3d2622"/>
      <stop offset="1" stop-color="#39231f"/>
    </linearGradient>
    <linearGradient id="_ÂÁ_Ï_ÌÌ_È_ËÂÌÚ_18-6" data-name="¡ÂÁ˚ÏˇÌÌ˚È „‡‰ËÂÌÚ 18" x1="162.31" y1="67.41" x2="161.35" y2="88.05" gradientTransform="translate(28.35 25.86) rotate(3.26)" xlink:href="#_ÂÁ_Ï_ÌÌ_È_ËÂÌÚ_18"/>
    <linearGradient id="_ÂÁ_Ï_ÌÌ_È_ËÂÌÚ_18-7" data-name="¡ÂÁ˚ÏˇÌÌ˚È „‡‰ËÂÌÚ 18" x1="-792.99" y1="775.24" x2="-792.13" y2="775.24" gradientTransform="translate(34954.85 -23285.73) rotate(10.48) scale(37.84)" xlink:href="#_ÂÁ_Ï_ÌÌ_È_ËÂÌÚ_18"/>
    <linearGradient id="_ÂÁ_Ï_ÌÌ_È_ËÂÌÚ_1655-2" data-name="¡ÂÁ˚ÏˇÌÌ˚È „‡‰ËÂÌÚ 1655" x1="-769.86" y1="753.21" x2="-769.03" y2="753.21" gradientTransform="translate(-33987.52 32133.6) rotate(-178.8) scale(43.46)" xlink:href="#_ÂÁ_Ï_ÌÌ_È_ËÂÌÚ_1655"/>
    <linearGradient id="_ÂÁ_Ï_ÌÌ_È_ËÂÌÚ_18-8" data-name="¡ÂÁ˚ÏˇÌÌ˚È „‡‰ËÂÌÚ 18" x1="-1045.4" y1="150.62" x2="-1046.36" y2="171.25" gradientTransform="translate(-925.42 28.97) rotate(175.78) scale(1 -1)" xlink:href="#_ÂÁ_Ï_ÌÌ_È_ËÂÌÚ_18"/>
    <linearGradient id="_ÂÁ_Ï_ÌÌ_È_ËÂÌÚ_18-9" data-name="¡ÂÁ˚ÏˇÌÌ˚È „‡‰ËÂÌÚ 18" x1="159.18" y1="185.11" x2="156.71" y2="221.08" gradientTransform="matrix(1,0,0,1,0,0)" xlink:href="#_ÂÁ_Ï_ÌÌ_È_ËÂÌÚ_18"/>
    <linearGradient id="_ÂÁ_Ï_ÌÌ_È_ËÂÌÚ_45" data-name="¡ÂÁ˚ÏˇÌÌ˚È „‡‰ËÂÌÚ 45" x1="132.9" y1="147.6" x2="185.32" y2="147.6" gradientUnits="userSpaceOnUse">
      <stop offset="0" stop-color="#f8d4ac"/>
      <stop offset=".52" stop-color="#ffd9b3"/>
      <stop offset="1" stop-color="#f7d4ab"/>
    </linearGradient>
    <linearGradient id="_ÂÁ_Ï_ÌÌ_È_ËÂÌÚ_54" data-name="¡ÂÁ˚ÏˇÌÌ˚È „‡‰ËÂÌÚ 54" x1="4986.61" y1="-4.89" x2="4974.57" y2="-10.98" gradientTransform="translate(5152.55 -165.2) rotate(176.29) scale(1 -1)" gradientUnits="userSpaceOnUse">
      <stop offset="0" stop-color="#f0c498"/>
      <stop offset=".52" stop-color="#e3af85"/>
      <stop offset="1" stop-color="#daa279"/>
    </linearGradient>
    <linearGradient id="_ÂÁ_Ï_ÌÌ_È_ËÂÌÚ_54-2" data-name="¡ÂÁ˚ÏˇÌÌ˚È „‡‰ËÂÌÚ 54" x1="137.66" y1="153.85" x2="130.08" y2="147.57" gradientTransform="matrix(1,0,0,1,0,0)" xlink:href="#_ÂÁ_Ï_ÌÌ_È_ËÂÌÚ_54"/>
    <linearGradient id="_ÂÁ_Ï_ÌÌ_È_ËÂÌÚ_4" data-name="¡ÂÁ˚ÏˇÌÌ˚È „‡‰ËÂÌÚ 4" x1="157.84" y1="164.87" x2="159.18" y2="179.82" gradientUnits="userSpaceOnUse">
      <stop offset="0" stop-color="#daa279"/>
      <stop offset=".48" stop-color="#e3af85"/>
      <stop offset="1" stop-color="#f0c498"/>
    </linearGradient>
    <linearGradient id="linear-gradient-15" x1="-772.98" y1="752.81" x2="-772.07" y2="752.81" gradientTransform="translate(45316.07 42073.5) rotate(.05) scale(59.3 -55.63) skewX(.79)" gradientUnits="userSpaceOnUse">
      <stop offset="0" stop-color="#e7d7d6"/>
      <stop offset=".05" stop-color="#eadddc"/>
      <stop offset=".21" stop-color="#f6f0ef"/>
      <stop offset=".39" stop-color="#fcfbfb"/>
      <stop offset=".57" stop-color="#fff"/>
      <stop offset=".69" stop-color="#fbf7f7"/>
      <stop offset=".87" stop-color="#f0e3e3"/>
      <stop offset="1" stop-color="#e7d1d0"/>
    </linearGradient>
    <linearGradient id="linear-gradient-16" x1="139.87" y1="180.08" x2="182.36" y2="180.2" gradientTransform="translate(-.91 -31.55) rotate(.7)" gradientUnits="userSpaceOnUse">
      <stop offset="0" stop-color="#e7d7d6"/>
      <stop offset=".05" stop-color="#e9dbda"/>
      <stop offset=".31" stop-color="#f5eeed"/>
      <stop offset=".48" stop-color="#faf5f5"/>
      <stop offset="1" stop-color="#e7d1d0"/>
    </linearGradient>
    <linearGradient id="linear-gradient-17" x1="215.06" y1="186.39" x2="214.93" y2="177.88" gradientTransform="translate(-54.15 -25.17) rotate(.83)" gradientUnits="userSpaceOnUse">
      <stop offset="0" stop-color="#e46980"/>
      <stop offset=".37" stop-color="#e2677d"/>
      <stop offset=".55" stop-color="#db6076"/>
      <stop offset=".69" stop-color="#cf5568"/>
      <stop offset=".81" stop-color="#be4456"/>
      <stop offset=".92" stop-color="#a9303e"/>
      <stop offset="1" stop-color="#951c27"/>
    </linearGradient>
    <linearGradient id="linear-gradient-18" x1="215.21" y1="186.42" x2="215.1" y2="179.56" xlink:href="#linear-gradient-17"/>
    <linearGradient id="linear-gradient-19" x1="-767.31" y1="743.7" x2="-766.69" y2="743.7" gradientTransform="translate(34894.43 25907.99) rotate(-6.23) scale(41.4 -39.48) skewX(.03)" gradientUnits="userSpaceOnUse">
      <stop offset="0" stop-color="#f96e7e"/>
      <stop offset=".03" stop-color="#f9707f"/>
      <stop offset=".25" stop-color="#fd7985"/>
      <stop offset=".53" stop-color="#ff7d88"/>
      <stop offset=".76" stop-color="#fd7985"/>
      <stop offset="1" stop-color="#f86d7d"/>
      <stop offset="1" stop-color="#f86d7d"/>
    </linearGradient>
    <linearGradient id="linear-gradient-20" x1="-767.79" y1="735.59" x2="-766.85" y2="735.59" gradientTransform="translate(24512.43 13849.04) rotate(-4.7) scale(30.01 -21.27) skewX(-.31)" xlink:href="#linear-gradient-19"/>
    <linearGradient id="_ÂÁ_Ï_ÌÌ_È_ËÂÌÚ_8-4" data-name="¡ÂÁ˚ÏˇÌÌ˚È „‡‰ËÂÌÚ 8" x1="421.31" y1="818.82" x2="508.32" y2="926.28" gradientTransform="translate(-273.9 -695.99) rotate(-.52)" xlink:href="#_ÂÁ_Ï_ÌÌ_È_ËÂÌÚ_8"/>
    <linearGradient id="_ÂÁ_Ï_ÌÌ_È_ËÂÌÚ_8-5" data-name="¡ÂÁ˚ÏˇÌÌ˚È „‡‰ËÂÌÚ 8" x1="519.94" y1="957.67" x2="509.27" y2="920.57" gradientTransform="translate(-273.9 -695.99) rotate(-.52)" xlink:href="#_ÂÁ_Ï_ÌÌ_È_ËÂÌÚ_8"/>
    <linearGradient id="_ÂÁ_Ï_ÌÌ_È_ËÂÌÚ_8-6" data-name="¡ÂÁ˚ÏˇÌÌ˚È „‡‰ËÂÌÚ 8" x1="-1128.68" y1="954.4" x2="-1139.35" y2="917.31" gradientTransform="translate(-1072.72 -688.7) rotate(179.48) scale(1 -1)" xlink:href="#_ÂÁ_Ï_ÌÌ_È_ËÂÌÚ_8"/>
    <linearGradient id="_ÂÁ_Ï_ÌÌ_È_ËÂÌÚ_8-7" data-name="¡ÂÁ˚ÏˇÌÌ˚È „‡‰ËÂÌÚ 8" x1="380.96" y1="838.64" x2="372.2" y2="921.92" gradientTransform="translate(-273.9 -695.99) rotate(-.52)" xlink:href="#_ÂÁ_Ï_ÌÌ_È_ËÂÌÚ_8"/>
    <linearGradient id="_ÂÁ_Ï_ÌÌ_È_ËÂÌÚ_46" data-name="¡ÂÁ˚ÏˇÌÌ˚È „‡‰ËÂÌÚ 46" x1="488.36" y1="950.75" x2="471.39" y2="809.58" gradientTransform="translate(-273.9 -695.99) rotate(-.52)" gradientUnits="userSpaceOnUse">
      <stop offset="0" stop-color="#593a33"/>
      <stop offset=".29" stop-color="#482e29"/>
      <stop offset=".61" stop-color="#3e2822"/>
      <stop offset="1" stop-color="#3b2621"/>
    </linearGradient>
    <linearGradient id="_ÂÁ_Ï_ÌÌ_È_ËÂÌÚ_8-8" data-name="¡ÂÁ˚ÏˇÌÌ˚È „‡‰ËÂÌÚ 8" x1="474.41" y1="859.72" x2="456.25" y2="708.67" gradientTransform="translate(-273.9 -695.99) rotate(-.52)" xlink:href="#_ÂÁ_Ï_ÌÌ_È_ËÂÌÚ_8"/>
    <linearGradient id="_ÂÁ_Ï_ÌÌ_È_ËÂÌÚ_8-9" data-name="¡ÂÁ˚ÏˇÌÌ˚È „‡‰ËÂÌÚ 8" x1="386.88" y1="857.35" x2="369.98" y2="716.75" gradientTransform="translate(-273.9 -695.99) rotate(-.52)" xlink:href="#_ÂÁ_Ï_ÌÌ_È_ËÂÌÚ_8"/>
    <linearGradient id="_ÂÁ_Ï_ÌÌ_È_ËÂÌÚ_55" data-name="¡ÂÁ˚ÏˇÌÌ˚È „‡‰ËÂÌÚ 55" x1="352.08" y1="944.89" x2="350.35" y2="793.41" gradientTransform="translate(-273.9 -695.99) rotate(-.52)" gradientUnits="userSpaceOnUse">
      <stop offset="0" stop-color="#593a33"/>
      <stop offset=".19" stop-color="#52352f"/>
      <stop offset="1" stop-color="#3b2621"/>
    </linearGradient>
    <linearGradient id="linear-gradient-21" x1="456.88" y1="934.85" x2="470.31" y2="737.16" gradientTransform="translate(-273.9 -695.99) rotate(-.52)" gradientUnits="userSpaceOnUse">
      <stop offset="0" stop-color="#593a33"/>
      <stop offset=".4" stop-color="#5d3d36"/>
      <stop offset=".85" stop-color="#6a4741"/>
      <stop offset="1" stop-color="#714c46"/>
    </linearGradient>
    <linearGradient id="_ÂÁ_Ï_ÌÌ_È_ËÂÌÚ_8-10" data-name="¡ÂÁ˚ÏˇÌÌ˚È „‡‰ËÂÌÚ 8" x1="400.21" y1="900.82" x2="381.84" y2="765.63" gradientTransform="translate(-273.9 -695.99) rotate(-.52)" xlink:href="#_ÂÁ_Ï_ÌÌ_È_ËÂÌÚ_8"/>
    <linearGradient id="_ÂÁ_Ï_ÌÌ_È_ËÂÌÚ_8-11" data-name="¡ÂÁ˚ÏˇÌÌ˚È „‡‰ËÂÌÚ 8" x1="478.9" y1="890.13" x2="460.52" y2="754.94" gradientTransform="translate(-273.9 -695.99) rotate(-.52)" xlink:href="#_ÂÁ_Ï_ÌÌ_È_ËÂÌÚ_8"/>
    <linearGradient id="_ÂÁ_Ï_ÌÌ_È_ËÂÌÚ_10" data-name="¡ÂÁ˚ÏˇÌÌ˚È „‡‰ËÂÌÚ 10" x1="358.8" y1="995.85" x2="331.07" y2="868.28" gradientTransform="translate(-273.9 -695.99) rotate(-.52)" gradientUnits="userSpaceOnUse">
      <stop offset="0" stop-color="#3b2621"/>
      <stop offset=".77" stop-color="#51342e"/>
      <stop offset="1" stop-color="#593a33"/>
    </linearGradient>
    <linearGradient id="linear-gradient-22" x1="366.52" y1="813.55" x2="365.13" y2="924.82" xlink:href="#linear-gradient-21"/>
    <linearGradient id="linear-gradient-23" x1="465.23" y1="947.29" x2="470.46" y2="870.41" xlink:href="#linear-gradient-21"/>
    <linearGradient id="linear-gradient-24" x1="460.73" y1="925.87" x2="465.24" y2="859.59" xlink:href="#linear-gradient-21"/>
    <linearGradient id="linear-gradient-25" x1="382.37" y1="938.27" x2="387.41" y2="864.03" xlink:href="#linear-gradient-21"/>
    <linearGradient id="linear-gradient-26" x1="349.12" y1="944.19" x2="351.97" y2="902.22" xlink:href="#linear-gradient-21"/>
    <linearGradient id="linear-gradient-27" x1="480.23" y1="945.36" x2="482.8" y2="907.53" xlink:href="#linear-gradient-21"/>
    <linearGradient id="linear-gradient-28" x1="425.05" y1="734.52" x2="418.85" y2="695.91" xlink:href="#linear-gradient-21"/>
    <linearGradient id="_ÂÁ_Ï_ÌÌ_È_ËÂÌÚ_8-12" data-name="¡ÂÁ˚ÏˇÌÌ˚È „‡‰ËÂÌÚ 8" x1="442.62" y1="760.41" x2="453.02" y2="738.67" gradientTransform="translate(-273.9 -695.99) rotate(-.52)" xlink:href="#_ÂÁ_Ï_ÌÌ_È_ËÂÌÚ_8"/>
    <linearGradient id="_ÂÁ_Ï_ÌÌ_È_ËÂÌÚ_8-13" data-name="¡ÂÁ˚ÏˇÌÌ˚È „‡‰ËÂÌÚ 8" x1="387.25" y1="772.7" x2="407.03" y2="731.38" gradientTransform="translate(-273.9 -695.99) rotate(-.52)" xlink:href="#_ÂÁ_Ï_ÌÌ_È_ËÂÌÚ_8"/>
    <linearGradient id="_ÂÁ_Ï_ÌÌ_È_ËÂÌÚ_8-14" data-name="¡ÂÁ˚ÏˇÌÌ˚È „‡‰ËÂÌÚ 8" x1="496.71" y1="800.19" x2="435.7" y2="699.67" gradientTransform="translate(-273.9 -695.99) rotate(-.52)" xlink:href="#_ÂÁ_Ï_ÌÌ_È_ËÂÌÚ_8"/>
    <linearGradient id="_ÂÁ_Ï_ÌÌ_È_ËÂÌÚ_8-15" data-name="¡ÂÁ˚ÏˇÌÌ˚È „‡‰ËÂÌÚ 8" x1="393.96" y1="770.22" x2="367.66" y2="726.9" gradientTransform="translate(-273.9 -695.99) rotate(-.52)" xlink:href="#_ÂÁ_Ï_ÌÌ_È_ËÂÌÚ_8"/>
    <linearGradient id="_ÂÁ_Ï_ÌÌ_È_ËÂÌÚ_8-16" data-name="¡ÂÁ˚ÏˇÌÌ˚È „‡‰ËÂÌÚ 8" x1="508.48" y1="858.86" x2="491.49" y2="743.77" gradientTransform="translate(-273.9 -695.99) rotate(-.52)" xlink:href="#_ÂÁ_Ï_ÌÌ_È_ËÂÌÚ_8"/>
    <linearGradient id="_ÂÁ_Ï_ÌÌ_È_ËÂÌÚ_8-17" data-name="¡ÂÁ˚ÏˇÌÌ˚È „‡‰ËÂÌÚ 8" x1="351.63" y1="838.47" x2="340.26" y2="761.42" gradientTransform="translate(-273.9 -695.99) rotate(-.52)" xlink:href="#_ÂÁ_Ï_ÌÌ_È_ËÂÌÚ_8"/>
    <linearGradient id="_ÂÁ_Ï_ÌÌ_È_ËÂÌÚ_7" data-name="¡ÂÁ˚ÏˇÌÌ˚È „‡‰ËÂÌÚ 7" x1="526.83" y1="959.26" x2="496.34" y2="818.75" gradientTransform="translate(-273.9 -695.99) rotate(-.52)" gradientUnits="userSpaceOnUse">
      <stop offset="0" stop-color="#3b2621"/>
      <stop offset=".38" stop-color="#472e28"/>
      <stop offset="1" stop-color="#593a33"/>
    </linearGradient>
    <linearGradient id="linear-gradient-29" x1="364.72" y1="881.63" x2="374.98" y2="730.6" xlink:href="#linear-gradient-21"/>
    <linearGradient id="_ÂÁ_Ï_ÌÌ_È_ËÂÌÚ_46-2" data-name="¡ÂÁ˚ÏˇÌÌ˚È „‡‰ËÂÌÚ 46" x1="393.78" y1="932.94" x2="350.9" y2="862.28" xlink:href="#_ÂÁ_Ï_ÌÌ_È_ËÂÌÚ_46"/>
  </defs>
  <g id="Layer_1-2" data-name="Layer 1">
    <g>
      <g>
        <path class="cls-26" d="M250.66,195.17s13.06,26.62-.75,55.07l.75-55.07Z"/>
        <path class="cls-12" d="M63.41,195.73s-14.64,25.78-2.57,55.02l2.57-55.02Z"/>
        <path class="cls-11" d="M159.04,14.77s44.19-1.36,58.83,34.38c14.64,35.75,16.04,93.83,18.09,109.99,2.05,16.16-8.09,66.1-8.09,66.1l-140.96,3.42s-5.4-114.67-1.18-136.45c4.22-21.79,73.31-77.43,73.31-77.43Z"/>
      </g>
      <path class="cls-52" d="M185.79,143.24s2.56,63.85,8.5,68.3c7.53,5.65,81.88,22.12,86.62,27.53,11.81,13.47,13.3,6.94,16.27,35.16,2.97,28.22-263.41,3.66-263.41,3.66,0,0,7.04-38.03,14.97-41.9,23.11-11.3,63.27-17.65,73.9-21.53,14.89-5.44,12.65-62.3,12.65-62.3l50.5-8.91Z"/>
      <path class="cls-24" d="M151.47,232.75s3.56-6.26,15.53-3.83c0,0-12.3,1.39-15.53,3.83Z"/>
      <path class="cls-21" d="M194.34,209.72c-4.02-3.82-4.56-48.38-4.56-48.38,0,0-58.57,3.22-59.48,2.19.05,4.12.4,33.65,0,36.78-.47,3.57.16,14.26-40.03,22.88,0,0,13.7-.69,38.97-6.27,4.53-1,10.31-5.06,10.31-9.26,0,0,26.92,1.67,40.53-11.43,1.41,10.37,2.72,31.97,6.05,34.12,3.33,2.16,33.21,5.48,33.21,5.48l3.95-14c-8.56-2.07-24.92-8.29-28.94-12.11Z"/>
      <path class="cls-20" d="M150.98,220.33s-5-6.58-9.27-6.42c-4.27.16-42.52,10.34-47.98,10.83,0,0,14.58-.31,26.31-2.26,11.72-1.96,20.05-6.5,30.94-2.15Z"/>
      <path class="cls-19" d="M166.78,219s4.16-5.09,9.52-5.58c5.37-.49,42.82,8.92,49.5,11.21,0,0-47.98-9.31-59.02-5.63Z"/>
      <path class="cls-16" d="M102.35,220.3s-2.95,43.89,53.2,41.12c56.15-2.77,63.75-41.35,63.75-41.35l-18.75-6.53s-4.16,7.7-34.44,7.78c-44.03.13-44.72-8.73-44.72-8.73l-19.04,7.71Z"/>
      <path class="cls-2" d="M264.76,329.71c.73-17.64,33.06-81.23,20.35-91.09-4.13-3.21-17.19-9.09-31.56-13.03-19.94-5.48-41.44-10.22-41.44-10.22,0,0-10.08,14.16-52.71,12.66-49.01-1.72-49.17-12.66-49.17-12.66l-39.03,11.45-25.46,9.01c0,1.71,12.06,75.13,16.98,104.95h200.71c.42-5.89.9-10.97,1.32-11.06Z"/>
      <path class="cls-93" d="M110.25,215.37s-5.16,18.37,56.39,16.28c45.63-1.56,45.48-16.28,45.48-16.28l-6.84-2.21s-.82,11.87-39.78,12.74c-50.25,1.11-48.34-12.74-48.34-12.74l-6.91,2.21Z"/>
      <path class="cls-17" d="M130.44,194.55s-.96-33.75-1.91-41.06l61.44,6.34.3,18.43s-20.28,39-59.83,16.29Z"/>
      <path class="cls-83" d="M264.67,256.77l-205.42.23s25.36,78.34,36.56,83.78h138.51c8.41-5.95,30.36-84.01,30.36-84.01Z"/>
      <path class="cls-2" d="M68.5,326.16l-21.06-90.12s-3.14,1.54-9.64,9.63c-5.19,6.46-25.57,69.82-33.58,95.11h62.17l2.11-14.62Z"/>
      <path class="cls-75" d="M43.25,248.32c2.78-4.17,26.46-21.06,26.46-21.06,0,0-24.31,6-29.75,11.29-5.48,5.33-14.09,16.46-22.71,45.5C10.92,305.4,3.53,329.4.01,340.78h14.81c11.18-53.15,23.37-84.86,28.43-92.46Z"/>
      <path class="cls-81" d="M56.13,307.24s-3.57,18.48-6.51,33.53h11.09l-4.58-33.53Z"/>
      <path class="cls-80" d="M.31,339.82l-.31.96h3.28c-1.89-.61-2.97-.96-2.97-.96Z"/>
      <path class="cls-77" d="M47.43,274.31c1.03,7.5,5.24,35.32,9.98,66.46h15.69c-8.26-23.36-25.67-66.46-25.67-66.46Z"/>
      <path class="cls-2" d="M289.89,245.66c-6.5-8.1-9.64-9.63-9.64-9.63l-21.06,90.12,2.3,14.62h61.4c-7.48-24.14-27.74-88.55-33.01-95.11Z"/>
      <path class="cls-79" d="M268.89,306.36l-2.33,34.42h7.1c-2.31-15.99-4.77-34.42-4.77-34.42Z"/>
      <path class="cls-78" d="M280.26,274.31s-17.41,43.11-25.67,66.46h15.55c4.82-31.15,9.09-58.97,10.12-66.46Z"/>
      <path class="cls-76" d="M309.65,279.51c-8.62-29.04-16.62-35.63-22.1-40.96-5.44-5.29-32.22-12.48-32.22-12.48,0,0,25.77,18.07,28.55,22.24,4.91,7.36,17.5,41.61,28.53,92.46h14.18c-4.02-15.21-11.1-41.63-16.93-61.27Z"/>
      <g>
        <path class="cls-84" d="M156.56,14.89c-.11-.07-.16-.09-.16-.09.06.03.11.06.16.09Z"/>
        <g>
          <g>
            <path class="cls-87" d="M96.66,103.86c2.85,20.25,5.99,35.94,5.99,35.94-8.67.08-12.69-8.87-16.14-16.5-5.28-11.66-8.45-24.19,3.33-24.97,2.3-.15,6.83,5.53,6.83,5.53Z"/>
            <path class="cls-15" d="M95.34,132.75s-4.28-4.45-3.05-13.29c2.91-20.87-11.23-22.17-7.89-7.97,0,0,1.89-6.73,3.7-4.74,2.22,2.44-2.32,3.84.1,14.58,1.26,5.58,7.14,11.42,7.14,11.42Z"/>
          </g>
          <g>
            <path class="cls-63" d="M217.97,102.76c-2.48,20.29-4.58,35.74-4.58,35.74,8.67-.08,11.77-8.8,15.09-16.49,5.07-11.75,8.01-24.34-3.78-24.9-2.3-.11-6.73,5.65-6.73,5.65Z"/>
            <path class="cls-14" d="M219.81,131.62s4.2-4.53,2.81-13.35c-3.29-20.81,10.82-22.37,7.74-8.12,0,0-2.01-6.69-3.78-4.67-2.17,2.48,2.39,3.8.16,14.58-1.16,5.6-6.93,11.55-6.93,11.55Z"/>
          </g>
          <path class="cls-3" d="M210.27,38.6c-7.71-17.2-19.46-27.79-45.71-29.21,0,0-59.88,8.37-67.28,25.7-8.06,18.88-5.46,45.27-2.95,62.53,2.51,17.26,7.46,45.23,11.85,53.12,4.38,7.89,26.73,28.19,31.68,33.85,3.62,4.14,10.35,11.1,21.26,10.99,9.7-.09,17.06-8.35,21.31-11.75,4.59-3.67,24.79-26.89,29.03-34.86,4.24-7.97,8.77-35.2,10.97-52.5,2.19-17.3-1.74-39.14-10.14-57.87Z"/>
          <path class="cls-18" d="M130.11,83.3c-8.61-.35-23.3,0-27.63,3.31-10.08,7.68-2.45,28.98-2.45,28.98,0,0,20.03,21.38,53.6,7.83-2.82-14.09-2.65-39.26-23.52-40.12Z"/>
          <path class="cls-22" d="M132.54,104.85c-7.75-2.24-37.75-8.27-36.23,1.67,3.36,21.96,6.37,37.05,10.25,43.87,4.07,7.13,15.95,18.32,21.04,19.13,7.88,1.27,15.96-27.77,16.06-37.7.14-13.89-3.37-24.72-11.12-26.96Z"/>
          <path class="cls-62" d="M212.51,124.86s6.35-19.97,7.02-23.52c3.92-20.61,7.66-91.74-68.24-86.37-78.05,5.52-51.94,109.88-51.94,109.88,0,0,23.38-91.95,56.66-93.08,0,0,39.75,1.03,56.5,93.09Z"/>
          <polygon class="cls-82" points="99.36 124.85 106.17 150.74 105.09 69.54 97.06 77.86 99.36 124.85"/>
          <path class="cls-32" d="M208.49,87.79c-4.41-3.1-15.18-7.17-23.79-6.66-23.13,1.37-20.69,26.83-23.13,41.15,33.9,11.96,53.35-10.56,53.35-10.56,0,0,3.85-16.7-6.43-23.93Z"/>
          <path class="cls-65" d="M94.65,99.81s5.89,39.96,11.11,51.03c1.7,3.6,12.99,15.93,22.44,24,0,0-18.56-22.98-20.42-28.01-4.09-11.02-13.12-47.02-13.12-47.02Z"/>
          <path class="cls-33" d="M176.97,84.43s13.81-4.81,26.09,2.83c6.54,4.07,6.84,21.51,6.84,21.51.83,4.76-8.71-26.26-32.93-24.34Z"/>
          <path class="cls-13" d="M182.39,104.4c7.71-2.38,37.6-8.95,36.26,1.01-2.96,22.02-5.7,37.16-9.46,44.05-3.94,7.21-15.61,18.6-20.69,19.51-7.86,1.41-16.46-27.48-16.74-37.4-.39-13.89,2.92-24.78,10.62-27.16Z"/>
          <polygon class="cls-74" points="214.64 127.16 208.8 146.48 206.78 71.06 216.74 76.03 214.64 127.16"/>
          <g>
            <polygon class="cls-34" points="145.3 139.64 157.16 147.64 168.14 139.2 166.55 137.89 156.47 138.11 146.42 138.2 145.3 139.64"/>
            <path class="cls-35" d="M145.65,139.43s4.45-1.43,8.38.19l4.79-.04s4.74-1.88,9.32-.38l.18-2.17-3.82-.74-8.03,2.1-7.37-1.96-3.83.48.38,2.52Z"/>
            <path class="cls-28" d="M144.03,130.1s-2.06,1.18-2.35,4.34c-.32,3.62,3.43,5.55,4,5.17s-.5-3.1,2.95-2.64c3.45.45,3.29,2.19,3.86,2.78.56.59,6.64.67,7.66.02,1.02-.65.72-3.02,3.98-2.94,3.26.07,3.38,2.3,3.85,2.58.47.28,2.39-1.47,2.92-4.79.53-3.32-2.97-4.73-2.97-4.73,0,0,1.79,2.93,1.06,4.82-.73,1.89-5.77.31-7.81,1.62-3.76,2.41-6.06,1.84-9.84.09-2.48-1.15-5.94.35-7.35-1.67-.49-.7-.63-3.22.05-4.63Z"/>
            <path class="cls-88" d="M148.6,128.43c-.04,2.31.24,3.28,1.23,4.78,1.52,2.28,12.07,4.06,13.82-1.22.35-1.05.32-2.69.12-4.76-.23-2.36-15.13-1.1-15.17,1.21Z"/>
          </g>
          <path class="cls-53" d="M220.19,98.66s-5.16,40.06-10.18,51.23c-1.63,3.64-10.31,12.24-20.71,21.33,0,0,15.2-17.84,18.21-25.96,4.08-11.03,12.68-46.6,12.68-46.6Z"/>
          <path class="cls-85" d="M137.39,78.66c1.06.9,2.16,4.17,1.78,6.04-.49-2.87-2.24-5.85-4.26-6.2-.18-.01-.39-.02-.6-.03,1.49.96,2.55,2.6,2.77,4.76-.86-1.48-2.49-4.08-4.6-4.71-5.8.14-14.47.47-18.16,1.87-5.24,1.99-10.77,12.63-10.77,12.63,1.58-1.67,7.94-5.18,12.86-6.4,3.18-.78,19.69-.47,23.96-.67.56-.03.71-5.75-2.98-7.31Z"/>
          <path class="cls-56" d="M174.24,77.81c-1.07.89-2.22,4.14-1.87,6.02.53-2.86,2.32-5.81,4.35-6.13.18,0,.39-.01.6-.02-1.51.94-2.59,2.57-2.83,4.72.88-1.47,2.55-4.05,4.67-4.64,5.79.22,14.47.67,18.13,2.13,5.22,2.07,10.59,12.78,10.59,12.78-1.56-1.69-7.86-5.29-12.77-6.58-3.16-.82-19.68-.75-23.95-1-.56-.03-.63-5.76,3.08-7.27Z"/>
          <path class="cls-4" d="M114.17,115.63c-2.74-.58-5.2.28-5.48,1.93-.29,1.65,1.7,3.46,4.44,4.05,2.74.58,5.2-.28,5.49-1.93.28-1.65-1.71-3.47-4.45-4.05Z"/>
          <path class="cls-23" d="M198.89,114.86c2.73-.63,5.2.19,5.51,1.83.32,1.65-1.64,3.49-4.37,4.13-2.73.63-5.2-.19-5.52-1.83-.31-1.65,1.64-3.5,4.37-4.13Z"/>
          <path class="cls-37" d="M159.36,174.7c-5.3.25-9.55,2.16-9.52,4.25.03,2.1,4.33,3.61,9.61,3.37,5.28-.25,9.54-2.15,9.52-4.26-.03-2.1-4.34-3.61-9.61-3.36Z"/>
          <g>
            <g>
              <path class="cls-64" d="M191.5,98.43c-19.41-1.63-21.54,15.81-21.54,15.81,0,0,8.83-4.41,18.43-3.15,4.38.58,11.51,3.76,13.73.28,4.26-6.69-3.14-12.32-10.62-12.94Z"/>
              <path class="cls-57" d="M202.39,109.72c4.42-1.24,4.04-7.22,4.1-7.44-.1.04-4.06,5.02-9.4,2.51-11.92-5.61-22.2,1.54-26.31,8.44,0,0,11.13-8.57,24.38-2.45,7.46,3.45,10.1-.76,10.06-.75-1.46.46-2.84-.23-2.82-.31Z"/>
              <path class="cls-59" d="M173.37,105.85s2.93-4.79,8.68-6.72c5.01-1.68,11.94-2.18,17.48,2.08,0,0-7.03-4.33-16.98-1.43-4.03,1.18-9.18,6.07-9.18,6.07Z"/>
            </g>
            <g>
              <path class="cls-58" d="M123.23,98.48c19.38-1.95,21.81,15.45,21.81,15.45,0,0-8.9-4.27-18.48-2.84-4.37.66-11.45,3.95-13.72.51-4.38-6.62,2.93-12.37,10.4-13.12Z"/>
              <path class="cls-1" d="M112.53,109.95c-4.44-1.17-4.16-7.15-4.22-7.37.1.04,4.14,4.95,9.44,2.35,11.82-5.8,22.22,1.17,26.45,8,0,0-11.27-8.39-24.42-2.04-7.4,3.57-10.11-.59-10.07-.58,1.46.44,2.84-.27,2.82-.36Z"/>
              <path class="cls-61" d="M141.48,105.6s-3.01-4.74-8.79-6.57c-5.04-1.59-11.98-1.98-17.44,2.38,0,0,6.96-4.45,16.95-1.72,4.05,1.11,9.28,5.91,9.28,5.91Z"/>
            </g>
          </g>
          <g>
            <path class="cls-60" d="M129.33,175.96s13.91,11.92,15.31,12.94c3.21,2.34,6.07,3.32,13.86,3.58,7.59.25,12.15-2.05,14.28-3.47,2.24-1.5,16.6-14.62,17.68-15.66,0,0-11.94,14.52-15.39,17.37-5.64,4.65-12.28,5.93-16.44,5.93-5.23,0-9.29-.91-14-4.55-4.47-3.45-15.31-16.13-15.31-16.13Z"/>
            <path class="cls-92" d="M132.9,146.6s24.95-.96,26.56-.94c1.61.02,25.86,1.08,25.86,1.08,0,0-24.21,2.61-25.86,2.78-2.19.23-26.56-2.93-26.56-2.93Z"/>
            <g>
              <path class="cls-90" d="M185.06,148.28c1.46-.62,2.98-2.16,2.29-3.31-.61-1.03-6.59,3.1-8.8,7.8,3.1-2.73,5.06-3.86,6.51-4.48Z"/>
              <path class="cls-54" d="M129.12,148.06c-1.48-.54-3.42-2.17-2.79-3.36.56-1.07,7.96,3.25,9.18,7.31-3.24-2.56-4.91-3.41-6.39-3.95Z"/>
              <path class="cls-27" d="M143.43,163.6c3.05,4.76,16.72,17.52,28.66.73,0,0-21.38,2.5-28.66-.73Z"/>
              <path class="cls-29" d="M156.09,148.31c-2.75-.04-5.27-.15-7.59-.32-.77-.06-12.75.76-18.41-1.24,4.34,3.91,13.88,12.33,14.9,13.14,3.07,2.43,7.15,4.32,12.57,4.34,6.29.02,10.67-1.22,13.83-4.25.79-.76,9.28-12.14,13.67-13.21-5.67,1.3-10.46.82-15.89,1.07-1.21.1-2.5.21-3.86.29-2.74.16-5.8.24-9.22.19Z"/>
              <path class="cls-44" d="M177.49,147.17s-2.95,1.44-11.21,2.24c-8.33.8-11.83.27-19.31-.16-3.43-.2-5.52-.73-9.81-1.79,0,0,.79,1,1.28,2.16.64,1.52,3.84,6.66,19.29,6.62,11.62-.03,17.79-4.12,18.64-6.62.51-1.51,1.02-1.93,1.12-2.44Z"/>
              <path class="cls-45" d="M137.49,147.84l.98,1.85s6.65,3.67,20.37,3.75c9.9.06,17.44-3.62,17.44-3.62l.82-1.85-19.44.83-20.17-.96Z"/>
              <path class="cls-46" d="M143.4,159.92s-1.34-2.45,5.09-3.6c2.3-.41,6.17.02,10.23.09,3.64.06,7.47-.29,9.85.02,4.46.58,5.21,3.01,3.95,3.66-1.26.65-7.01,3.87-13.07,4.04-6.05.16-11.88-.26-16.05-4.21Z"/>
              <path class="cls-47" d="M172.22,157.75s.99.71,1.19,1.76c.15.77-5.63,3.45-7.19,3.84-1.56.39-14.13,1.66-16.9.17-2.77-1.49-5.78-3.48-5.78-3.48,0,0-1.04-.99.76-2.27,0,0,5.09,3.22,13.57,3.22,8.65,0,11.87-1.37,14.35-3.24Z"/>
              <path class="cls-31" d="M160.84,164.04c-5.98.27-11.05-.64-15.05-3.85-2.18-1.75-10.94-10.24-14.7-12.56,3.91,3.77,6.82,8.91,9.86,12.97,3.04,4.06,8.04,10.12,17.47,10.12,10.56,0,14.64-7.33,16.98-10.8,3.17-4.72,4.93-9.59,7.25-11.91-3.23,1.95-9.56,9.75-10.25,10.58-.81.78-6.25,5.44-11.55,5.45Z"/>
              <path class="cls-36" d="M146.32,160.63c-2.14-1.58.55,8.25,11.27,8.39,13.66.18,15.38-10.69,12.77-8.76-2.61,1.93-6.29,3.66-11.66,3.66-6.65,0-9.31-1.33-12.37-3.29Z"/>
              <path class="cls-30" d="M169.95,162.24c.27.51-.95,2.48-3.9,3.78-3.79,1.67-7.06,1.04-7.32.53-.27-.5,4.91-1.61,6.35-2.36,1.45-.75,4.6-2.46,4.87-1.96Z"/>
              <path class="cls-31" d="M165.46,147.44c-2.47.15-13.04.28-15.02.15-.99-.07-14.6-.4-20.26-1.08,5.65,2.66,10.48,3.03,14.52,3.69,4.05.66,9.61,1.42,13.1,1.34,3.32.02,9.52-.73,13.62-1.55,4.7-.94,7.98-1.31,13.02-3.28-5.52.49-18.16.67-18.98.72Z"/>
              <path class="cls-39" d="M158.24,147.95c-1.42-.05-4.34-.13-8.06-.01-2.23.07-4.86.06-6.36.67-2.27.91,11.28,1.88,14.57,1.85,3.24-.03,15.68-1.11,12.96-2.11-2.54-.93-11.69-.34-13.11-.4Z"/>
              <path class="cls-29" d="M129.23,147.42c.88.43,1.56-.27,5.06,1.1,0,0-5.94-3.32-6.33-3.13-.28.13-.02,1.4,1.28,2.03Z"/>
              <path class="cls-29" d="M184.92,147.72c-.88.43-1.85-.25-4.92,1.15,0,0,5.71-3.54,6.19-3.19.25.18.03,1.4-1.28,2.04Z"/>
            </g>
          </g>
        </g>
        <path class="cls-10" d="M216.23,133.08s-12.29,37.69-17.81,50.18c-5.53,12.49.2,54.6.2,54.6,0,0,30.77-59.9,26.99-86.96-3.78-27.06-9.37-17.83-9.37-17.83Z"/>
        <path class="cls-9" d="M241.36,213.81s4.22,16.76,14.69,25.55c0,0-12.82-2.34-15.89-9.84-3.07-7.5,1.2-15.71,1.2-15.71Z"/>
        <path class="cls-8" d="M77.26,212.06s-3.92,16.83-14.22,25.81c0,0,12.78-2.57,15.71-10.13s-1.49-15.68-1.49-15.68Z"/>
        <path class="cls-7" d="M128.11,210.45c-2.25-25.81-14.12-44.6-19.91-51.99-9.49-12.11-10.59-39.7-10.59-39.7,0,0-5.3,44.7-7.45,60.71-3.31,24.71,7.65,58.08,18.9,65.28,7.25-12.93,8.02-27.77,5.32-46.15,10.04,19.5,2.37,38.16.46,50.1,7.48-8.5,14.23-27.26,13.27-38.25Z"/>
        <path class="cls-91" d="M215.71,102.95c2.48,12.77,4.69,30.36,4.82,44.24.33,34.9-16.56,98.54-34.37,101.61,5.59-.8,20.74-2.1,32.58-19.17.82,6.23-6.48,10.85-12.05,15.62,11.28-6.19,16.53-11.65,16.53-11.65-2.79,5.16-4.59,9.24-13.85,16.19,5.74-.97,22.79-12.15,30.74-23.14,4.87-11.57,9.47-22.87,11.98-36.09-2.15-19.58-8.28-38.16-18.93-56.7-5.56-8.71-12.57-21.4-17.46-30.92Z"/>
        <path class="cls-6" d="M243.72,143.61c-.57-5.13-14.56-86.44-21.27-100.08C196.28-9.62,156.48,8.77,156.48,8.77l-2.41,20.66c29.63-5.82,53.25,30.02,62.45,77.5,4.88,9.52,11.09,18.23,16.65,26.94,10.65,18.54,12.7,25.45,10.55,9.75Z"/>
        <path class="cls-5" d="M103.2,16.26c-19.18,17.13-24.54,36.56-26.69,49.7-1.27,7.77-7.82,56.06-11.08,89.11,7.99-17.33,17.64-22.39,30.01-36.24.54-.83,1.03-1.68,1.5-2.53,1.09-28.65,6.19-52.63,22.64-68.98,20.68-20.57,34.5-17.88,34.5-17.88l2.41-20.66c-10.08-7.99-41.77-2.79-53.28,7.49Z"/>
        <path class="cls-89" d="M65.43,155.07c-13.03,27.6-7.36,56.08.16,66,6.24,7.19,17.28,18.54,25.57,23.75-3.27-4.13-8.73-13.99-8.08-20.04,5.68,18.42,28.89,23.12,31.76,23.93-19.07-11.21-24.55-32.01-25.43-58.94-.62-18.82,6.91-57.15,7.53-73.47-.46.85-.95,1.7-1.5,2.53-12.37,13.86-22.02,18.91-30.01,36.24Z"/>
        <path class="cls-38" d="M154.1,29.43s25.96-12.2,42.69,8.78c16.73,20.98,16.75,65.94,26.42,90.07,9.67,24.13,24.47,59.12,18.51,78.91-5.96,19.8-23.07,35.64-23.07,35.64,0,0,19.86-25.5,16.33-49.44-3.53-23.93-19.49-47.61-23.44-73.61-3.95-26-8.42-63.85-26.7-80.22-16.22-14.52-30.75-10.15-30.75-10.15Z"/>
        <path class="cls-66" d="M156.4,14.8s-38.4-6.34-53.69,27.64c-15.29,33.99-29.42,74.29-29.42,74.29,0,0,20.28-76.82,23.36-83.84,4.48-10.22,28.82-38.88,59.74-18.09Z"/>
        <path class="cls-67" d="M158.68,13.22s22.09-6.49,46.27,18.59c13.26,13.75,19.44,87.87,19.44,87.87,0,0,1.24-59.05-4.73-78.78-5.98-19.73-36.97-48.42-60.98-27.68Z"/>
        <path class="cls-86" d="M88.9,133.32s-18.65,33.23-20.76,55.08c-2.11,21.85-9.8,40.97-20.87,43.33,0,0,14.76-3.08,21.16-11.63,6.39-8.55,10.95-66.81,20.47-86.78Z"/>
        <path class="cls-40" d="M106.82,77.32s-9.71,28.7-14.83,64.27c-4.16,28.92-9.06,41.33-7.01,59.77,2.26,20.27,9,41.15,29.86,47.35,0,0-16.29-7.91-21.79-47.42-1.92-13.79,2.16-36.91,5.38-59.75,4.6-32.67,8.39-64.21,8.39-64.21Z"/>
        <path class="cls-41" d="M216.43,167.28s7.83,75.39-30.26,81.53c0,0,23.47-9.98,30.26-81.53Z"/>
        <path class="cls-49" d="M206.09,156.7s-7.26,15.46-13.4,28.41c-6.14,12.95.39,42.65.39,42.65,0,0-.8-21.28,4.35-34.34,5.15-13.07,8.66-36.72,8.66-36.72Z"/>
        <path class="cls-43" d="M110.17,160.42s12.38,14.45,18.1,33.45c5.72,19-3.72,47.83-3.72,47.83,0,0,3.22-34.36-.46-50.22-3.68-15.86-13.92-31.06-13.92-31.06Z"/>
        <path class="cls-50" d="M81.07,200.77s-3.37,31.06,11.89,46.17c0,0-28.22-8.73-11.89-46.17Z"/>
        <path class="cls-48" d="M225.2,205.87s6.25,28.21-19.46,39.85c0,0,21.14-18.6,19.46-39.85Z"/>
        <path class="cls-42" d="M156.53,14.18s17.65-12.18,48.26,4.63c0,0-19.13-21.64-45.81-14.11,0,0-27.12-15.7-54.15,10.24,0,0,7.76-6.25,21.31-8.01,11.29-1.47,28.56.71,30.39,7.25Z"/>
        <path class="cls-73" d="M203.84,77.08s.24-25.85-13.02-38.23c-13.26-12.38-25.85-12.96-36.71-9.41,0,0,15.34-2.66,24.59,6.03,12.32,11.55,18.62,20.88,25.14,41.62Z"/>
        <path class="cls-72" d="M154.1,29.43s-9.82-2.52-17.17-.06c-14.23,4.75-22.13,23.04-25.69,46.21,0,0,4.62-27.57,24.3-39.11,10.62-6.23,18.56-7.03,18.56-7.03Z"/>
        <path class="cls-69" d="M158.7,14.87s34.68-16.99,51.95,24.72c12.62,30.48,10.78,61.54,10.78,61.54,0,0-2.36-50.98-29.58-77.08-15.46-14.82-33.16-9.18-33.16-9.18Z"/>
        <path class="cls-68" d="M156.4,14.8s-12.28-5.22-28.04.35c-12.28,4.35-21.96,16.12-27.34,29.6-3.53,8.83-13.59,32.5-20.9,53.29,0,0,20.09-27.49,27.07-50.69,5.06-16.8,24.27-36.36,49.21-32.56Z"/>
        <path class="cls-71" d="M225.11,67.08s-1.29,49.18,24.33,102.19l-24.33-102.19Z"/>
        <path class="cls-70" d="M97.03,74.6l-31.73,75.95s30.58-25.55,31.73-75.95Z"/>
        <path class="cls-25" d="M227.52,120.11s15.84,22,23.18,42.8c8.05,22.83,6.64,42.03-7.7,63.39,0,0,8.04-26.46-1.28-67.09-3.74-16.3-14.19-39.11-14.19-39.11Z"/>
        <path class="cls-51" d="M154.1,29.43s-22.52-12.56-38.66,11.58c-13.5,20.2-13.6,53.51-33.87,84.03-8.39,12.64-28.84,33.46-29.08,59.55,0,0,2.32-12.81,22.9-36.86,20.57-24.04,32.26-52.89,37.5-78.76,7.33-36.19,25.25-41.64,41.21-39.54Z"/>
        <path class="cls-55" d="M104.24,157.62s20.82,50.66,6.45,83.95c0,0-3.57-67.51-6.45-83.95Z"/>
      </g>
    </g>
  </g>
</svg>