<?xml version="1.0" encoding="UTF-8"?>
<svg id="Layer_2" data-name="Layer 2" xmlns="http://www.w3.org/2000/svg" width="234" height="234" xmlns:xlink="http://www.w3.org/1999/xlink" viewBox="0 0 234 234">
  <defs>
    <clipPath id="clippath">
      <rect width="234" height="234" style="fill: none;"/>
    </clipPath>
    <linearGradient id="_ÂÁ_Ï_ÌÌ_È_ËÂÌÚ_8" data-name="¡ÂÁ˚ÏˇÌÌ˚È „‡‰ËÂÌÚ 8" x1="948.49" y1="826.51" x2="928.09" y2="755.62" gradientTransform="translate(-352.08 -833.42) rotate(22.66)" gradientUnits="userSpaceOnUse">
      <stop offset="0" stop-color="#3b2621"/>
      <stop offset=".39" stop-color="#3e2822"/>
      <stop offset=".71" stop-color="#482e29"/>
      <stop offset="1" stop-color="#593a33"/>
    </linearGradient>
    <linearGradient id="_ÂÁ_Ï_ÌÌ_È_ËÂÌÚ_8-2" data-name="¡ÂÁ˚ÏˇÌÌ˚È „‡‰ËÂÌÚ 8" x1="599.95" y1="965.75" x2="579.56" y2="894.86" gradientTransform="translate(272.12 -814.01) rotate(160.8) scale(1 -1)" xlink:href="#_ÂÁ_Ï_ÌÌ_È_ËÂÌÚ_8"/>
    <linearGradient id="_ÂÁ_Ï_ÌÌ_È_ËÂÌÚ_8-3" data-name="¡ÂÁ˚ÏˇÌÌ˚È „‡‰ËÂÌÚ 8" x1="399.62" y1="1049.83" x2="481.36" y2="575.76" gradientTransform="translate(-283.87 -730.31) rotate(1.72)" xlink:href="#_ÂÁ_Ï_ÌÌ_È_ËÂÌÚ_8"/>
    <linearGradient id="linear-gradient" x1="68.64" y1="196.07" x2="154.83" y2="222.28" gradientUnits="userSpaceOnUse">
      <stop offset="0" stop-color="#f0c499"/>
      <stop offset=".52" stop-color="#f1c69b"/>
      <stop offset=".85" stop-color="#f4cea4"/>
      <stop offset="1" stop-color="#f7d4ab"/>
    </linearGradient>
    <linearGradient id="linear-gradient-2" x1="43.11" y1="155.29" x2="149.67" y2="220.03" gradientTransform="translate(-68.79 78.5) rotate(-16.11)" xlink:href="#linear-gradient"/>
    <linearGradient id="linear-gradient-3" x1="347.21" y1="780.56" x2="230.18" y2="813.43" gradientTransform="translate(81.52 -610.59) rotate(13.36)" xlink:href="#linear-gradient"/>
    <linearGradient id="linear-gradient-4" x1="83.44" y1="255.5" x2="220.23" y2="218.22" xlink:href="#linear-gradient"/>
    <linearGradient id="_ÂÁ_Ï_ÌÌ_È_ËÂÌÚ_29" data-name="¡ÂÁ˚ÏˇÌÌ˚È „‡‰ËÂÌÚ 29" x1="123.64" y1="257.8" x2="120.08" y2="223.49" gradientUnits="userSpaceOnUse">
      <stop offset="0" stop-color="#d6b01f"/>
      <stop offset=".42" stop-color="#e0bc26"/>
      <stop offset="1" stop-color="#f5d534"/>
    </linearGradient>
    <linearGradient id="linear-gradient-5" x1="115.12" y1="170.74" x2="124.46" y2="210.32" gradientUnits="userSpaceOnUse">
      <stop offset="0" stop-color="#dba379"/>
      <stop offset=".49" stop-color="#e3b086"/>
      <stop offset="1" stop-color="#f0c499"/>
    </linearGradient>
    <linearGradient id="_ÂÁ_Ï_ÌÌ_È_ËÂÌÚ_14" data-name="¡ÂÁ˚ÏˇÌÌ˚È „‡‰ËÂÌÚ 14" x1="380.06" y1="721.91" x2="379.96" y2="721.65" gradientTransform="translate(-270.51 -690.18) rotate(-.52)" gradientUnits="userSpaceOnUse">
      <stop offset="0" stop-color="#cb8076"/>
      <stop offset=".31" stop-color="#b76f65"/>
      <stop offset=".95" stop-color="#86443a"/>
      <stop offset="1" stop-color="#824137"/>
    </linearGradient>
    <linearGradient id="_ÂÁ_Ï_ÌÌ_È_ËÂÌÚ_18" data-name="¡ÂÁ˚ÏˇÌÌ˚È „‡‰ËÂÌÚ 18" x1="329.27" y1="843.26" x2="321.19" y2="818.09" gradientTransform="translate(-267.95 -694.13) rotate(.21)" gradientUnits="userSpaceOnUse">
      <stop offset="0" stop-color="#dba379"/>
      <stop offset=".49" stop-color="#e3b086"/>
      <stop offset="1" stop-color="#f0c499"/>
    </linearGradient>
    <linearGradient id="linear-gradient-6" x1="-2700.77" y1="998.49" x2="-2699.13" y2="1055.93" gradientTransform="translate(2747.34 -717.63) rotate(-.52)" xlink:href="#linear-gradient-5"/>
    <linearGradient id="_ÂÁ_Ï_ÌÌ_È_ËÂÌÚ_18-2" data-name="¡ÂÁ˚ÏˇÌÌ˚È „‡‰ËÂÌÚ 18" x1="443.94" y1="823.53" x2="463.35" y2="823.53" xlink:href="#_ÂÁ_Ï_ÌÌ_È_ËÂÌÚ_18"/>
    <linearGradient id="linear-gradient-7" x1="-1013.23" y1="998.47" x2="-1011.59" y2="1055.91" gradientTransform="translate(-840.81 -684.96) rotate(179.48) scale(1 -1)" xlink:href="#linear-gradient-5"/>
    <linearGradient id="_ÂÁ_Ï_ÌÌ_È_ËÂÌÚ_384" data-name="¡ÂÁ˚ÏˇÌÌ˚È „‡‰ËÂÌÚ 384" x1="379.42" y1="739.28" x2="379.19" y2="894.84" gradientTransform="translate(-270.51 -690.18) rotate(-.52)" gradientUnits="userSpaceOnUse">
      <stop offset="0" stop-color="#ffd9b3"/>
      <stop offset=".32" stop-color="#f9d5ad"/>
      <stop offset="1" stop-color="#f7d4ab"/>
    </linearGradient>
    <linearGradient id="linear-gradient-8" x1="350.98" y1="837.65" x2="343.92" y2="793.93" gradientTransform="translate(-270.51 -690.18) rotate(-.52)" gradientUnits="userSpaceOnUse">
      <stop offset="0" stop-color="#f7d4ab"/>
      <stop offset=".52" stop-color="#f5d1a8"/>
      <stop offset=".85" stop-color="#f2c99f"/>
      <stop offset="1" stop-color="#f0c499"/>
    </linearGradient>
    <radialGradient id="radial-gradient" cx="95.85" cy="839" fx="95.85" fy="839" r="32.15" gradientTransform="translate(-5.23 -692.45) rotate(-.52) scale(.79 1)" gradientUnits="userSpaceOnUse">
      <stop offset="0" stop-color="#f9b38e"/>
      <stop offset=".61" stop-color="#f7c59e"/>
      <stop offset="1" stop-color="#f7d4ab"/>
    </radialGradient>
    <linearGradient id="linear-gradient-9" x1="364.73" y1="880.24" x2="390.92" y2="880.24" gradientTransform="translate(-270.51 -690.18) rotate(-.52)" gradientUnits="userSpaceOnUse">
      <stop offset="0" stop-color="#ffd9b3"/>
      <stop offset=".68" stop-color="#fcd7b0"/>
      <stop offset="1" stop-color="#f7d4ab"/>
    </linearGradient>
    <linearGradient id="_ÂÁ_Ï_ÌÌ_È_ËÂÌÚ_18-3" data-name="¡ÂÁ˚ÏˇÌÌ˚È „‡‰ËÂÌÚ 18" x1="426.32" y1="751.55" x2="337.81" y2="823.94" gradientTransform="translate(-270.51 -690.18) rotate(-.52)" xlink:href="#_ÂÁ_Ï_ÌÌ_È_ËÂÌÚ_18"/>
    <linearGradient id="_ÂÁ_Ï_ÌÌ_È_ËÂÌÚ_72" data-name="¡ÂÁ˚ÏˇÌÌ˚È „‡‰ËÂÌÚ 72" x1="328.48" y1="862.66" x2="323.99" y2="786.92" gradientTransform="translate(-270.51 -690.18) rotate(-.52)" gradientUnits="userSpaceOnUse">
      <stop offset="0" stop-color="#f9b38e"/>
      <stop offset=".5" stop-color="#f7b690"/>
      <stop offset=".9" stop-color="#f2c096"/>
      <stop offset="1" stop-color="#f0c499"/>
    </linearGradient>
    <linearGradient id="linear-gradient-10" x1="413.38" y1="831.1" x2="406.58" y2="793.45" xlink:href="#linear-gradient-8"/>
    <linearGradient id="_ÂÁ_Ï_ÌÌ_È_ËÂÌÚ_18-4" data-name="¡ÂÁ˚ÏˇÌÌ˚È „‡‰ËÂÌÚ 18" x1="317.38" y1="842.26" x2="348.9" y2="842.26" gradientTransform="translate(-270.51 -690.18) rotate(-.52)" xlink:href="#_ÂÁ_Ï_ÌÌ_È_ËÂÌÚ_18"/>
    <linearGradient id="linear-gradient-11" x1="399.83" y1="803.32" x2="432.58" y2="803.32" xlink:href="#linear-gradient-9"/>
    <radialGradient id="radial-gradient-2" cx="2319.3" cy="839.3" fx="2319.3" fy="839.3" r="32.15" gradientTransform="translate(1988.14 -710.84) rotate(179.48) scale(.79 -1)" xlink:href="#radial-gradient"/>
    <linearGradient id="_ÂÁ_Ï_ÌÌ_È_ËÂÌÚ_72-2" data-name="¡ÂÁ˚ÏˇÌÌ˚È „‡‰ËÂÌÚ 72" x1="-107.69" y1="858.87" x2="-111.86" y2="788.6" gradientTransform="translate(52.12 -693.09) rotate(179.48) scale(1 -1)" xlink:href="#_ÂÁ_Ï_ÌÌ_È_ËÂÌÚ_72"/>
    <linearGradient id="linear-gradient-12" x1="380.92" y1="855.42" x2="378.72" y2="844.42" xlink:href="#linear-gradient-8"/>
    <linearGradient id="linear-gradient-13" x1="379.18" y1="843.54" x2="379.12" y2="852.18" gradientTransform="translate(-270.51 -690.18) rotate(-.52)" xlink:href="#linear-gradient-5"/>
    <linearGradient id="_ÂÁ_Ï_ÌÌ_È_ËÂÌÚ_23" data-name="¡ÂÁ˚ÏˇÌÌ˚È „‡‰ËÂÌÚ 23" x1="378.66" y1="831.79" x2="378.78" y2="840.65" gradientTransform="translate(-270.51 -690.18) rotate(-.52)" gradientUnits="userSpaceOnUse">
      <stop offset="0" stop-color="#f7d4ab"/>
      <stop offset="1" stop-color="#ffd9b3"/>
    </linearGradient>
    <linearGradient id="_ÂÁ_Ï_ÌÌ_È_ËÂÌÚ_23-2" data-name="¡ÂÁ˚ÏˇÌÌ˚È „‡‰ËÂÌÚ 23" x1="411.36" y1="842.22" x2="442.91" y2="842.22" xlink:href="#_ÂÁ_Ï_ÌÌ_È_ËÂÌÚ_23"/>
    <linearGradient id="_ÂÁ_Ï_ÌÌ_È_ËÂÌÚ_18-5" data-name="¡ÂÁ˚ÏˇÌÌ˚È „‡‰ËÂÌÚ 18" x1="380.03" y1="879.82" x2="377.76" y2="912.93" gradientTransform="translate(-270.51 -690.18) rotate(-.52)" xlink:href="#_ÂÁ_Ï_ÌÌ_È_ËÂÌÚ_18"/>
    <linearGradient id="_ÂÁ_Ï_ÌÌ_È_ËÂÌÚ_11" data-name="¡ÂÁ˚ÏˇÌÌ˚È „‡‰ËÂÌÚ 11" x1="662.32" y1="755.09" x2="706.69" y2="754.05" gradientTransform="translate(-721.63 -526.4) rotate(-10.07)" gradientUnits="userSpaceOnUse">
      <stop offset="0" stop-color="#3b2621"/>
      <stop offset=".41" stop-color="#3c2722"/>
      <stop offset=".56" stop-color="#432c25"/>
      <stop offset=".66" stop-color="#4f362c"/>
      <stop offset=".75" stop-color="#604335"/>
      <stop offset=".82" stop-color="#765441"/>
      <stop offset=".88" stop-color="#916950"/>
      <stop offset=".94" stop-color="#b18262"/>
      <stop offset=".99" stop-color="#d69f76"/>
      <stop offset="1" stop-color="#dba379"/>
    </linearGradient>
    <linearGradient id="_ÂÁ_Ï_ÌÌ_È_ËÂÌÚ_11-2" data-name="¡ÂÁ˚ÏˇÌÌ˚È „‡‰ËÂÌÚ 11" x1="295.45" y1="916.97" x2="339.83" y2="915.93" gradientTransform="translate(631.21 -743.85) rotate(-169.12) scale(1 -1)" xlink:href="#_ÂÁ_Ï_ÌÌ_È_ËÂÌÚ_11"/>
    <linearGradient id="_ÂÁ_Ï_ÌÌ_È_ËÂÌÚ_126" data-name="¡ÂÁ˚ÏˇÌÌ˚È „‡‰ËÂÌÚ 126" x1="-83.82" y1="340.34" x2="-83.04" y2="340.34" gradientTransform="translate(1125.11 4489.22) rotate(.2) scale(12.79 -12.79)" gradientUnits="userSpaceOnUse">
      <stop offset="0" stop-color="#ffd9b3"/>
      <stop offset=".52" stop-color="#fccfa9"/>
      <stop offset="1" stop-color="#f8c39c"/>
    </linearGradient>
    <linearGradient id="_ÂÁ_Ï_ÌÌ_È_ËÂÌÚ_126-2" data-name="¡ÂÁ˚ÏˇÌÌ˚È „‡‰ËÂÌÚ 126" x1="-88.1" y1="340.29" x2="-87.32" y2="340.29" gradientTransform="translate(-868.19 4507.43) rotate(178.75) scale(12.79)" xlink:href="#_ÂÁ_Ï_ÌÌ_È_ËÂÌÚ_126"/>
    <linearGradient id="_ÂÁ_Ï_ÌÌ_È_ËÂÌÚ_18-6" data-name="¡ÂÁ˚ÏˇÌÌ˚È „‡‰ËÂÌÚ 18" x1="-165.91" y1="415.48" x2="-165.05" y2="415.48" gradientTransform="translate(-9107.89 -14049.01) rotate(168.56) scale(37.84 -37.84)" xlink:href="#_ÂÁ_Ï_ÌÌ_È_ËÂÌÚ_18"/>
    <linearGradient id="_ÂÁ_Ï_ÌÌ_È_ËÂÌÚ_1655" data-name="¡ÂÁ˚ÏˇÌÌ˚È „‡‰ËÂÌÚ 1655" x1="-119.08" y1="372.1" x2="-118.25" y2="372.1" gradientTransform="translate(5909.24 16085.64) rotate(-2.16) scale(43.46 -43.46)" gradientUnits="userSpaceOnUse">
      <stop offset="0" stop-color="#4d322e"/>
      <stop offset=".06" stop-color="#4a302c"/>
      <stop offset=".55" stop-color="#3d2622"/>
      <stop offset="1" stop-color="#39231f"/>
    </linearGradient>
    <linearGradient id="_ÂÁ_Ï_ÌÌ_È_ËÂÌÚ_18-7" data-name="¡ÂÁ˚ÏˇÌÌ˚È „‡‰ËÂÌÚ 18" x1="144.86" y1="118.58" x2="143.9" y2="139.21" gradientTransform="translate(8.23 -11.03) rotate(3.26)" xlink:href="#_ÂÁ_Ï_ÌÌ_È_ËÂÌÚ_18"/>
    <linearGradient id="_ÂÁ_Ï_ÌÌ_È_ËÂÌÚ_18-8" data-name="¡ÂÁ˚ÏˇÌÌ˚È „‡‰ËÂÌÚ 18" x1="-169.9" y1="416.39" x2="-169.05" y2="416.39" gradientTransform="translate(9258.39 -14207.9) rotate(10.48) scale(37.84)" xlink:href="#_ÂÁ_Ï_ÌÌ_È_ËÂÌÚ_18"/>
    <linearGradient id="_ÂÁ_Ï_ÌÌ_È_ËÂÌÚ_1655-2" data-name="¡ÂÁ˚ÏˇÌÌ˚È „‡‰ËÂÌÚ 1655" x1="-115.53" y1="371.88" x2="-114.7" y2="371.88" gradientTransform="translate(-5253.28 16173.4) rotate(-178.8) scale(43.46)" xlink:href="#_ÂÁ_Ï_ÌÌ_È_ËÂÌÚ_1655"/>
    <linearGradient id="_ÂÁ_Ï_ÌÌ_È_ËÂÌÚ_18-9" data-name="¡ÂÁ˚ÏˇÌÌ˚È „‡‰ËÂÌÚ 18" x1="299.31" y1="112.85" x2="298.35" y2="133.49" gradientTransform="translate(377.98 -18.99) rotate(175.78) scale(1 -1)" xlink:href="#_ÂÁ_Ï_ÌÌ_È_ËÂÌÚ_18"/>
    <linearGradient id="_ÂÁ_Ï_ÌÌ_È_ËÂÌÚ_17" data-name="¡ÂÁ˚ÏˇÌÌ˚È „‡‰ËÂÌÚ 17" x1="95.37" y1="166.36" x2="105.89" y2="166.36" gradientUnits="userSpaceOnUse">
      <stop offset="0" stop-color="#f0c499"/>
      <stop offset=".51" stop-color="#e3b086"/>
      <stop offset="1" stop-color="#dba379"/>
    </linearGradient>
    <linearGradient id="_ÂÁ_Ï_ÌÌ_È_ËÂÌÚ_18-10" data-name="¡ÂÁ˚ÏˇÌÌ˚È „‡‰ËÂÌÚ 18" x1="128.87" y1="166.36" x2="139.01" y2="166.36" gradientTransform="matrix(1,0,0,1,0,0)" xlink:href="#_ÂÁ_Ï_ÌÌ_È_ËÂÌÚ_18"/>
    <linearGradient id="linear-gradient-14" x1="117.19" y1="173.12" x2="118.15" y2="183.54" xlink:href="#linear-gradient-5"/>
    <linearGradient id="_ÂÁ_Ï_ÌÌ_È_ËÂÌÚ_45" data-name="¡ÂÁ˚ÏˇÌÌ˚È „‡‰ËÂÌÚ 45" x1="100.21" y1="160.77" x2="133.62" y2="160.77" gradientUnits="userSpaceOnUse">
      <stop offset="0" stop-color="#f8d4ac"/>
      <stop offset=".52" stop-color="#ffd9b3"/>
      <stop offset="1" stop-color="#f7d4ab"/>
    </linearGradient>
    <linearGradient id="linear-gradient-15" x1="-324.18" y1="278.76" x2="-294.55" y2="278.76" gradientTransform="translate(313.54 -77.36) rotate(-1.96) scale(.66 .83) skewX(.04)" gradientUnits="userSpaceOnUse">
      <stop offset="0" stop-color="#f96e7e"/>
      <stop offset=".03" stop-color="#f9707f"/>
      <stop offset=".25" stop-color="#fd7985"/>
      <stop offset=".53" stop-color="#ff7d88"/>
      <stop offset=".76" stop-color="#fd7985"/>
      <stop offset="1" stop-color="#f86d7d"/>
      <stop offset="1" stop-color="#f86d7d"/>
    </linearGradient>
    <linearGradient id="linear-gradient-16" x1="-86.66" y1="202.57" x2="-56.32" y2="202.57" gradientTransform="translate(165.1 -31.96) rotate(-1.97) scale(.77 1) skewX(.04)" xlink:href="#linear-gradient-15"/>
    <linearGradient id="_ÂÁ_Ï_ÌÌ_È_ËÂÌÚ_8-4" data-name="¡ÂÁ˚ÏˇÌÌ˚È „‡‰ËÂÌÚ 8" x1="377.41" y1="825.82" x2="464.42" y2="933.28" gradientTransform="translate(-270.51 -690.18) rotate(-.52)" xlink:href="#_ÂÁ_Ï_ÌÌ_È_ËÂÌÚ_8"/>
    <linearGradient id="_ÂÁ_Ï_ÌÌ_È_ËÂÌÚ_8-5" data-name="¡ÂÁ˚ÏˇÌÌ˚È „‡‰ËÂÌÚ 8" x1="476.04" y1="964.66" x2="465.37" y2="927.57" gradientTransform="translate(-270.51 -690.18) rotate(-.52)" xlink:href="#_ÂÁ_Ï_ÌÌ_È_ËÂÌÚ_8"/>
    <linearGradient id="_ÂÁ_Ï_ÌÌ_È_ËÂÌÚ_8-6" data-name="¡ÂÁ˚ÏˇÌÌ˚È „‡‰ËÂÌÚ 8" x1="193" y1="961.4" x2="182.33" y2="924.3" gradientTransform="translate(208.45 -694.51) rotate(179.48) scale(1 -1)" xlink:href="#_ÂÁ_Ï_ÌÌ_È_ËÂÌÚ_8"/>
    <linearGradient id="_ÂÁ_Ï_ÌÌ_È_ËÂÌÚ_8-7" data-name="¡ÂÁ˚ÏˇÌÌ˚È „‡‰ËÂÌÚ 8" x1="337.06" y1="845.64" x2="328.3" y2="928.92" gradientTransform="translate(-270.51 -690.18) rotate(-.52)" xlink:href="#_ÂÁ_Ï_ÌÌ_È_ËÂÌÚ_8"/>
    <linearGradient id="_ÂÁ_Ï_ÌÌ_È_ËÂÌÚ_46" data-name="¡ÂÁ˚ÏˇÌÌ˚È „‡‰ËÂÌÚ 46" x1="444.46" y1="957.75" x2="427.49" y2="816.58" gradientTransform="translate(-270.51 -690.18) rotate(-.52)" gradientUnits="userSpaceOnUse">
      <stop offset="0" stop-color="#593a33"/>
      <stop offset=".29" stop-color="#482e29"/>
      <stop offset=".61" stop-color="#3e2822"/>
      <stop offset="1" stop-color="#3b2621"/>
    </linearGradient>
    <linearGradient id="_ÂÁ_Ï_ÌÌ_È_ËÂÌÚ_8-8" data-name="¡ÂÁ˚ÏˇÌÌ˚È „‡‰ËÂÌÚ 8" x1="430.51" y1="866.71" x2="412.35" y2="715.67" gradientTransform="translate(-270.51 -690.18) rotate(-.52)" xlink:href="#_ÂÁ_Ï_ÌÌ_È_ËÂÌÚ_8"/>
    <linearGradient id="_ÂÁ_Ï_ÌÌ_È_ËÂÌÚ_8-9" data-name="¡ÂÁ˚ÏˇÌÌ˚È „‡‰ËÂÌÚ 8" x1="342.98" y1="864.35" x2="326.08" y2="723.74" gradientTransform="translate(-270.51 -690.18) rotate(-.52)" xlink:href="#_ÂÁ_Ï_ÌÌ_È_ËÂÌÚ_8"/>
    <linearGradient id="_ÂÁ_Ï_ÌÌ_È_ËÂÌÚ_55" data-name="¡ÂÁ˚ÏˇÌÌ˚È „‡‰ËÂÌÚ 55" x1="308.18" y1="951.89" x2="306.45" y2="800.41" gradientTransform="translate(-270.51 -690.18) rotate(-.52)" gradientUnits="userSpaceOnUse">
      <stop offset="0" stop-color="#593a33"/>
      <stop offset=".19" stop-color="#52352f"/>
      <stop offset="1" stop-color="#3b2621"/>
    </linearGradient>
    <linearGradient id="linear-gradient-17" x1="412.98" y1="941.84" x2="426.42" y2="744.15" gradientTransform="translate(-270.51 -690.18) rotate(-.52)" gradientUnits="userSpaceOnUse">
      <stop offset="0" stop-color="#593a33"/>
      <stop offset=".4" stop-color="#5d3d36"/>
      <stop offset=".85" stop-color="#6a4741"/>
      <stop offset="1" stop-color="#714c46"/>
    </linearGradient>
    <linearGradient id="_ÂÁ_Ï_ÌÌ_È_ËÂÌÚ_8-10" data-name="¡ÂÁ˚ÏˇÌÌ˚È „‡‰ËÂÌÚ 8" x1="356.31" y1="907.82" x2="337.94" y2="772.63" gradientTransform="translate(-270.51 -690.18) rotate(-.52)" xlink:href="#_ÂÁ_Ï_ÌÌ_È_ËÂÌÚ_8"/>
    <linearGradient id="_ÂÁ_Ï_ÌÌ_È_ËÂÌÚ_8-11" data-name="¡ÂÁ˚ÏˇÌÌ˚È „‡‰ËÂÌÚ 8" x1="435" y1="897.13" x2="416.62" y2="761.93" gradientTransform="translate(-270.51 -690.18) rotate(-.52)" xlink:href="#_ÂÁ_Ï_ÌÌ_È_ËÂÌÚ_8"/>
    <linearGradient id="_ÂÁ_Ï_ÌÌ_È_ËÂÌÚ_10" data-name="¡ÂÁ˚ÏˇÌÌ˚È „‡‰ËÂÌÚ 10" x1="314.9" y1="1002.84" x2="287.17" y2="875.28" gradientTransform="translate(-270.51 -690.18) rotate(-.52)" gradientUnits="userSpaceOnUse">
      <stop offset="0" stop-color="#3b2621"/>
      <stop offset=".77" stop-color="#51342e"/>
      <stop offset="1" stop-color="#593a33"/>
    </linearGradient>
    <linearGradient id="linear-gradient-18" x1="322.62" y1="820.55" x2="321.24" y2="931.82" xlink:href="#linear-gradient-17"/>
    <linearGradient id="linear-gradient-19" x1="421.33" y1="954.29" x2="426.56" y2="877.41" xlink:href="#linear-gradient-17"/>
    <linearGradient id="linear-gradient-20" x1="416.83" y1="932.87" x2="421.34" y2="866.58" xlink:href="#linear-gradient-17"/>
    <linearGradient id="linear-gradient-21" x1="338.47" y1="945.27" x2="343.51" y2="871.03" xlink:href="#linear-gradient-17"/>
    <linearGradient id="linear-gradient-22" x1="305.22" y1="951.18" x2="308.08" y2="909.22" xlink:href="#linear-gradient-17"/>
    <linearGradient id="linear-gradient-23" x1="436.33" y1="952.36" x2="438.91" y2="914.53" xlink:href="#linear-gradient-17"/>
    <linearGradient id="linear-gradient-24" x1="381.15" y1="741.51" x2="374.95" y2="702.91" xlink:href="#linear-gradient-17"/>
    <linearGradient id="_ÂÁ_Ï_ÌÌ_È_ËÂÌÚ_8-12" data-name="¡ÂÁ˚ÏˇÌÌ˚È „‡‰ËÂÌÚ 8" x1="398.72" y1="767.4" x2="409.12" y2="745.66" gradientTransform="translate(-270.51 -690.18) rotate(-.52)" xlink:href="#_ÂÁ_Ï_ÌÌ_È_ËÂÌÚ_8"/>
    <linearGradient id="_ÂÁ_Ï_ÌÌ_È_ËÂÌÚ_8-13" data-name="¡ÂÁ˚ÏˇÌÌ˚È „‡‰ËÂÌÚ 8" x1="343.36" y1="779.69" x2="363.13" y2="738.38" gradientTransform="translate(-270.51 -690.18) rotate(-.52)" xlink:href="#_ÂÁ_Ï_ÌÌ_È_ËÂÌÚ_8"/>
    <linearGradient id="_ÂÁ_Ï_ÌÌ_È_ËÂÌÚ_8-14" data-name="¡ÂÁ˚ÏˇÌÌ˚È „‡‰ËÂÌÚ 8" x1="452.81" y1="807.19" x2="391.8" y2="706.66" gradientTransform="translate(-270.51 -690.18) rotate(-.52)" xlink:href="#_ÂÁ_Ï_ÌÌ_È_ËÂÌÚ_8"/>
    <linearGradient id="_ÂÁ_Ï_ÌÌ_È_ËÂÌÚ_8-15" data-name="¡ÂÁ˚ÏˇÌÌ˚È „‡‰ËÂÌÚ 8" x1="350.06" y1="777.22" x2="323.77" y2="733.89" gradientTransform="translate(-270.51 -690.18) rotate(-.52)" xlink:href="#_ÂÁ_Ï_ÌÌ_È_ËÂÌÚ_8"/>
    <linearGradient id="_ÂÁ_Ï_ÌÌ_È_ËÂÌÚ_8-16" data-name="¡ÂÁ˚ÏˇÌÌ˚È „‡‰ËÂÌÚ 8" x1="464.58" y1="865.86" x2="447.59" y2="750.77" gradientTransform="translate(-270.51 -690.18) rotate(-.52)" xlink:href="#_ÂÁ_Ï_ÌÌ_È_ËÂÌÚ_8"/>
    <linearGradient id="_ÂÁ_Ï_ÌÌ_È_ËÂÌÚ_8-17" data-name="¡ÂÁ˚ÏˇÌÌ˚È „‡‰ËÂÌÚ 8" x1="307.73" y1="845.47" x2="296.36" y2="768.42" gradientTransform="translate(-270.51 -690.18) rotate(-.52)" xlink:href="#_ÂÁ_Ï_ÌÌ_È_ËÂÌÚ_8"/>
    <linearGradient id="_ÂÁ_Ï_ÌÌ_È_ËÂÌÚ_7" data-name="¡ÂÁ˚ÏˇÌÌ˚È „‡‰ËÂÌÚ 7" x1="482.93" y1="966.26" x2="452.45" y2="825.75" gradientTransform="translate(-270.51 -690.18) rotate(-.52)" gradientUnits="userSpaceOnUse">
      <stop offset="0" stop-color="#3b2621"/>
      <stop offset=".38" stop-color="#472e28"/>
      <stop offset="1" stop-color="#593a33"/>
    </linearGradient>
    <linearGradient id="linear-gradient-25" x1="320.82" y1="888.63" x2="331.08" y2="737.6" xlink:href="#linear-gradient-17"/>
    <linearGradient id="_ÂÁ_Ï_ÌÌ_È_ËÂÌÚ_46-2" data-name="¡ÂÁ˚ÏˇÌÌ˚È „‡‰ËÂÌÚ 46" x1="349.89" y1="939.94" x2="307" y2="869.28" xlink:href="#_ÂÁ_Ï_ÌÌ_È_ËÂÌÚ_46"/>
  </defs>
  <g id="Layer_1-2" data-name="Layer 1">
    <g style="clip-path: url(#clippath);">
      <g>
        <g>
          <path d="M210.21,208.38s13.06,26.62-.75,55.07l.75-55.07Z" style="fill: url(#_ÂÁ_Ï_ÌÌ_È_ËÂÌÚ_8);"/>
          <path d="M22.96,208.94s-14.64,25.78-2.57,55.02l2.57-55.02Z" style="fill: url(#_ÂÁ_Ï_ÌÌ_È_ËÂÌÚ_8-2);"/>
          <path d="M118.59,27.98s44.19-1.36,58.83,34.38c14.64,35.75,16.04,93.83,18.09,109.99s-8.09,66.1-8.09,66.1l-140.96,3.42s-5.4-114.67-1.18-136.45c4.22-21.79,73.31-77.43,73.31-77.43Z" style="fill: url(#_ÂÁ_Ï_ÌÌ_È_ËÂÌÚ_8-3);"/>
        </g>
        <path d="M145.34,156.45s2.56,63.85,8.5,68.3c7.53,5.65,81.88,22.12,86.62,27.53,11.81,13.47,13.3,6.94,16.27,35.16,2.97,28.22-263.41,3.66-263.41,3.66,0,0,7.04-38.03,14.97-41.9,23.11-11.3,63.27-17.65,73.9-21.53,14.89-5.44,12.65-62.3,12.65-62.3l50.5-8.91Z" style="fill: #f7d4ab;"/>
        <path d="M153.89,222.93c-4.02-3.82-4.56-48.38-4.56-48.38,0,0-58.57,3.22-59.48,2.19.05,4.12.4,33.65,0,36.78-.47,3.57.15,14.26-40.03,22.88,0,0,13.7-.69,38.97-6.27,4.53-1,10.31-6.84,10.31-11.04,0,0,26.92,1.67,40.53-11.43,1.41,10.37,2.72,33.74,6.05,35.9,3.33,2.16,33.21,5.48,33.21,5.48l3.95-14c-8.56-2.07-24.92-8.29-28.94-12.11Z" style="fill: url(#linear-gradient);"/>
        <path d="M110.53,233.54s-5-6.58-9.27-6.42c-4.27.16-42.52,10.34-47.98,10.83,0,0,14.58-.31,26.31-2.26,11.72-1.96,20.05-6.5,30.94-2.15Z" style="fill: url(#linear-gradient-2);"/>
        <path d="M126.33,232.21s4.16-5.09,9.52-5.58c5.37-.49,42.82,8.92,49.5,11.21,0,0-47.98-9.31-59.02-5.63Z" style="fill: url(#linear-gradient-3);"/>
        <path d="M61.9,233.51s-2.95,43.89,53.2,41.12c56.15-2.77,63.75-41.35,63.75-41.35l-18.75-6.53s-4.16,7.7-34.44,7.78c-44.03.13-44.72-8.73-44.72-8.73l-19.04,7.71Z" style="fill: url(#linear-gradient-4);"/>
        <path d="M224.31,342.92c.73-17.64,33.06-81.23,20.35-91.09-4.13-3.21-17.19-9.09-31.56-13.03-19.94-5.48-41.44-10.22-41.44-10.22,0,0-10.08,14.16-52.71,12.66-49.01-1.73-49.17-12.66-49.17-12.66l-39.03,11.45-25.46,9.01c0,1.71,12.06,75.13,16.98,104.95h200.71c.42-5.89.9-10.97,1.32-11.06Z" style="fill: #f5d534;"/>
        <path d="M69.8,228.58s-5.16,18.38,56.39,16.28c45.63-1.56,45.48-16.28,45.48-16.28l-6.84-2.21s-.82,11.87-39.78,12.74c-50.25,1.11-48.34-12.74-48.34-12.74l-6.91,2.21Z" style="fill: url(#_ÂÁ_Ï_ÌÌ_È_ËÂÌÚ_29);"/>
        <path d="M89.99,207.76s-.96-33.75-1.91-41.06l61.44,6.34.3,18.43s-20.39,28.56-59.83,16.29Z" style="fill: url(#linear-gradient-5);"/>
        <g>
          <path d="M116.11,28.1c-.11-.07-.16-.09-.16-.09.06.03.11.06.16.09Z" style="fill: url(#_ÂÁ_Ï_ÌÌ_È_ËÂÌÚ_14);"/>
          <g>
            <g>
              <path d="M56.21,117.07c2.85,20.25,5.99,35.94,5.99,35.94-8.67.08-12.69-8.87-16.14-16.5-5.28-11.66-8.45-24.19,3.33-24.97,2.3-.15,6.83,5.53,6.83,5.53Z" style="fill: url(#_ÂÁ_Ï_ÌÌ_È_ËÂÌÚ_18);"/>
              <path d="M54.9,145.96s-4.28-4.45-3.05-13.29c2.91-20.87-11.23-22.17-7.89-7.97,0,0,1.89-6.73,3.7-4.74,2.22,2.44-2.32,3.84.1,14.58,1.26,5.58,7.14,11.42,7.14,11.42Z" style="fill: url(#linear-gradient-6);"/>
            </g>
            <g>
              <path d="M177.53,115.97c-2.48,20.29-4.58,35.74-4.58,35.74,8.67-.08,11.77-8.8,15.09-16.49,5.07-11.75,8.01-24.34-3.78-24.9-2.3-.11-6.73,5.65-6.73,5.65Z" style="fill: url(#_ÂÁ_Ï_ÌÌ_È_ËÂÌÚ_18-2);"/>
              <path d="M179.36,144.83s4.2-4.53,2.81-13.35c-3.29-20.81,10.82-22.37,7.74-8.12,0,0-2.01-6.69-3.78-4.67-2.17,2.48,2.39,3.8.16,14.58-1.16,5.6-6.93,11.55-6.93,11.55Z" style="fill: url(#linear-gradient-7);"/>
            </g>
            <path d="M169.82,51.81c-7.71-17.2-19.46-27.79-45.71-29.21,0,0-59.88,8.37-67.28,25.7-8.06,18.88-5.46,45.27-2.95,62.53,2.51,17.26,7.46,45.23,11.85,53.12,4.38,7.89,26.35,26.23,31.09,29.71,4.43,3.26,10.11,8.79,21.02,8.69,9.7-.09,17.3-6.05,21.55-9.45,4.59-3.67,25.38-22.75,29.62-30.72,4.24-7.97,8.77-35.2,10.97-52.5,2.19-17.3-1.74-39.14-10.14-57.87Z" style="fill: url(#_ÂÁ_Ï_ÌÌ_È_ËÂÌÚ_384);"/>
            <path d="M89.66,96.51c-8.61-.35-23.3,0-27.63,3.31-10.08,7.68-2.45,28.98-2.45,28.98,0,0,20.03,21.38,53.6,7.83-2.82-14.09-2.65-39.26-23.52-40.12Z" style="fill: url(#linear-gradient-8);"/>
            <path d="M92.1,118.06c-7.75-2.24-37.75-8.27-36.23,1.67,3.36,21.96,6.37,37.05,10.25,43.87,4.07,7.13,15.95,18.32,21.04,19.13,7.88,1.27,15.96-27.77,16.06-37.7.14-13.89-3.37-24.72-11.12-26.96Z" style="fill: url(#radial-gradient);"/>
            <path d="M118.39,182.63c-5.52.31-9.93,2.34-9.88,4.52.05,2.19,4.54,3.73,10.05,3.42,5.5-.31,9.92-2.33,9.88-4.53-.05-2.19-4.56-3.72-10.04-3.41Z" style="fill: url(#linear-gradient-9);"/>
            <path d="M172.06,138.07s6.35-19.97,7.02-23.52c3.92-20.61,7.66-91.74-68.24-86.37-78.05,5.52-51.94,109.88-51.94,109.88,0,0,23.38-91.95,56.66-93.08,0,0,39.75,1.03,56.5,93.09Z" style="fill: url(#_ÂÁ_Ï_ÌÌ_È_ËÂÌÚ_18-3);"/>
            <polygon points="58.91 138.06 65.72 163.95 64.64 82.75 56.61 91.07 58.91 138.06" style="fill: url(#_ÂÁ_Ï_ÌÌ_È_ËÂÌÚ_72);"/>
            <path d="M168.04,101c-4.41-3.1-15.18-7.17-23.79-6.66-23.13,1.37-20.69,26.83-23.13,41.15,33.9,11.96,53.35-10.56,53.35-10.56,0,0,3.85-16.7-6.43-23.93Z" style="fill: url(#linear-gradient-10);"/>
            <path d="M54.2,113.02s5.89,39.96,11.11,51.03c1.7,3.6,11.62,12.97,21.07,21.04,0,0-17.19-20.03-19.06-25.06-4.09-11.02-13.12-47.02-13.12-47.02Z" style="fill: url(#_ÂÁ_Ï_ÌÌ_È_ËÂÌÚ_18-4);"/>
            <path d="M136.53,97.64s13.81-4.81,26.09,2.83c6.54,4.07,6.84,21.51,6.84,21.51.83,4.76-8.71-26.26-32.93-24.34Z" style="fill: url(#linear-gradient-11);"/>
            <path d="M141.94,117.61c7.71-2.38,37.6-8.95,36.26,1.01-2.96,22.02-5.7,37.16-9.46,44.05-3.94,7.21-15.61,18.6-20.69,19.51-7.86,1.41-16.46-27.48-16.74-37.4-.39-13.89,2.92-24.78,10.62-27.16Z" style="fill: url(#radial-gradient-2);"/>
            <polygon points="174.19 140.37 168.35 159.69 166.33 84.27 176.29 89.24 174.19 140.37" style="fill: url(#_ÂÁ_Ï_ÌÌ_È_ËÂÌÚ_72-2);"/>
            <g>
              <polygon points="104.85 152.85 116.71 160.85 127.69 152.41 126.11 151.1 116.02 151.32 105.97 151.41 104.85 152.85" style="fill: url(#linear-gradient-12);"/>
              <path d="M105.2,152.64s4.45-1.43,8.38.19l4.79-.04s4.74-1.88,9.32-.38l.18-2.17-3.82-.74-8.03,2.1-7.37-1.96-3.83.48.38,2.52Z" style="fill: url(#linear-gradient-13);"/>
              <path d="M103.58,143.31s-2.06,1.18-2.35,4.34c-.32,3.62,3.43,5.55,4,5.17s-.5-3.1,2.95-2.64c3.45.45,3.29,2.19,3.86,2.78.56.59,6.64.67,7.66.02,1.02-.65.72-3.02,3.98-2.94,3.26.07,3.38,2.3,3.85,2.58s2.39-1.47,2.92-4.79-2.97-4.73-2.97-4.73c0,0,1.79,2.93,1.06,4.82-.73,1.89-5.77.31-7.81,1.62-3.76,2.41-6.06,1.84-9.84.09-2.48-1.15-5.94.35-7.35-1.67-.49-.7-.63-3.22.05-4.63Z" style="fill: #f0c499;"/>
              <path d="M108.16,141.64c-.04,2.31.24,3.28,1.23,4.78,1.52,2.28,12.07,4.06,13.82-1.22.35-1.05.32-2.69.12-4.76-.23-2.36-15.13-1.1-15.17,1.21Z" style="fill: url(#_ÂÁ_Ï_ÌÌ_È_ËÂÌÚ_23);"/>
            </g>
            <path d="M179.74,111.87s-5.16,40.06-10.18,51.23c-1.63,3.64-10.31,12.24-20.71,21.33,0,0,15.2-17.84,18.21-25.96,4.08-11.03,12.68-46.6,12.68-46.6Z" style="fill: url(#_ÂÁ_Ï_ÌÌ_È_ËÂÌÚ_23-2);"/>
            <path d="M86.38,185.1s14.71,11.29,16.33,12.19c3.23,1.79,6.55,4.13,14.89,4.33,8.13.2,13.07-3.23,15.34-4.78,2.39-1.63,14.74-11.27,15.89-12.4,0,0-9.83,10.77-13.51,13.86-6,5.04-13.09,7.74-17.54,7.78-5.6.05-10.23-3.35-15.05-6.01-5.26-2.9-16.36-14.97-16.36-14.97Z" style="fill: url(#_ÂÁ_Ï_ÌÌ_È_ËÂÌÚ_18-5);"/>
            <path d="M96.94,91.87c1.06.9,2.16,4.17,1.78,6.04-.49-2.87-2.24-5.85-4.26-6.2-.18-.01-.39-.02-.6-.03,1.49.96,2.55,2.6,2.77,4.76-.86-1.48-2.49-4.08-4.6-4.71-5.8.14-14.47.47-18.16,1.87-5.24,1.99-10.77,12.63-10.77,12.63,1.58-1.67,7.94-5.18,12.86-6.4,3.18-.78,19.69-.47,23.96-.67.56-.03.71-5.75-2.98-7.31Z" style="fill: url(#_ÂÁ_Ï_ÌÌ_È_ËÂÌÚ_11);"/>
            <path d="M133.79,91.02c-1.07.89-2.22,4.14-1.87,6.02.53-2.86,2.32-5.81,4.35-6.13.18,0,.39-.01.6-.02-1.51.94-2.59,2.57-2.83,4.72.88-1.47,2.55-4.05,4.67-4.64,5.79.22,14.47.67,18.13,2.13,5.22,2.07,10.59,12.78,10.59,12.78-1.56-1.69-7.86-5.29-12.77-6.58-3.16-.82-19.68-.75-23.95-1-.56-.03-.63-5.76,3.08-7.27Z" style="fill: url(#_ÂÁ_Ï_ÌÌ_È_ËÂÌÚ_11-2);"/>
            <path d="M73.72,128.84c-2.74-.58-5.2.28-5.48,1.93-.29,1.65,1.7,3.46,4.44,4.05,2.74.58,5.2-.28,5.49-1.93.28-1.65-1.71-3.47-4.45-4.05Z" style="fill: url(#_ÂÁ_Ï_ÌÌ_È_ËÂÌÚ_126);"/>
            <path d="M158.44,128.07c2.73-.63,5.2.19,5.51,1.83.32,1.65-1.64,3.49-4.37,4.13-2.73.63-5.2-.19-5.52-1.83-.31-1.65,1.64-3.5,4.37-4.13Z" style="fill: url(#_ÂÁ_Ï_ÌÌ_È_ËÂÌÚ_126-2);"/>
            <g>
              <g>
                <g>
                  <path d="M151.06,111.64c-19.41-1.63-21.54,15.81-21.54,15.81,0,0,8.83-4.41,18.43-3.15,4.38.58,11.51,3.76,13.73.28,4.26-6.69-3.14-12.32-10.62-12.94Z" style="fill: url(#_ÂÁ_Ï_ÌÌ_È_ËÂÌÚ_18-6);"/>
                  <path d="M161.94,122.93c4.42-1.24,4.04-7.22,4.1-7.44-.1.04-4.06,5.02-9.4,2.51-11.92-5.61-22.2,1.54-26.31,8.44,0,0,11.13-8.57,24.38-2.45,7.46,3.45,10.1-.76,10.06-.75-1.46.46-2.84-.23-2.82-.31Z" style="fill: url(#_ÂÁ_Ï_ÌÌ_È_ËÂÌÚ_1655);"/>
                  <path d="M132.92,119.06s2.93-4.79,8.68-6.72c5.01-1.68,11.94-2.18,17.48,2.08,0,0-7.03-4.33-16.98-1.43-4.03,1.18-9.18,6.07-9.18,6.07Z" style="fill: url(#_ÂÁ_Ï_ÌÌ_È_ËÂÌÚ_18-7);"/>
                </g>
                <g>
                  <path d="M82.78,111.69c19.38-1.95,21.81,15.45,21.81,15.45,0,0-8.9-4.27-18.48-2.84-4.37.66-11.45,3.95-13.72.51-4.38-6.62,2.93-12.37,10.4-13.12Z" style="fill: url(#_ÂÁ_Ï_ÌÌ_È_ËÂÌÚ_18-8);"/>
                  <path d="M72.08,123.16c-4.44-1.17-4.16-7.15-4.22-7.37.1.04,4.14,4.95,9.44,2.35,11.82-5.8,22.22,1.17,26.45,8,0,0-11.27-8.39-24.42-2.04-7.4,3.57-10.11-.59-10.07-.58,1.46.44,2.84-.27,2.82-.36Z" style="fill: url(#_ÂÁ_Ï_ÌÌ_È_ËÂÌÚ_1655-2);"/>
                  <path d="M101.03,118.81s-3.01-4.74-8.79-6.57c-5.04-1.59-11.98-1.98-17.44,2.38,0,0,6.96-4.45,16.95-1.72,4.05,1.11,9.28,5.91,9.28,5.91Z" style="fill: url(#_ÂÁ_Ï_ÌÌ_È_ËÂÌÚ_18-9);"/>
                </g>
              </g>
              <g>
                <path d="M97.49,165.77c-1.67-.54-2.58-1.79-1.87-2.98.63-1.06,7.61,3.63,10.28,7.29-3.64-2.55-6.73-3.77-8.4-4.31Z" style="fill: url(#_ÂÁ_Ï_ÌÌ_È_ËÂÌÚ_17);"/>
                <path d="M135.7,165.6c1.64-.62,2.48-1.91,1.7-3.06-.69-1.03-7.39,4-9.85,7.77,3.49-2.73,6.51-4.09,8.14-4.71Z" style="fill: url(#_ÂÁ_Ï_ÌÌ_È_ËÂÌÚ_18-10);"/>
                <path d="M105.36,172.71c3.87,7.94,15.16,14.14,23.57-.3,0,0-8.51,7.86-23.57.3Z" style="fill: url(#linear-gradient-14);"/>
                <path d="M100.21,164.48s7.82-6.39,11.7-6.94c3.88-.55,9.12-.69,11.05.02,1.93.72,10.66,6.45,10.66,6.45l-33.41.47Z" style="fill: url(#_ÂÁ_Ï_ÌÌ_È_ËÂÌÚ_45);"/>
                <g>
                  <path d="M136.38,163.23c-.26-.25-.93.32-2.29,1-6.15,1.34-29.99,1.96-33.3,1.07-2.05-.89-3.39-2.21-3.66-1.94-.37.37.05,2.06,2.38,2.24,2.06.91,3.88,3.64,7.58,4.31,1.08.26,16.52.1,17.38-.01,5.21.17,5.37-2.56,9.37-4.6,2.51.14,2.98-1.63,2.54-2.05Z" style="fill: #951c27;"/>
                  <path d="M99.71,164.76c3.1-1.7,8.01-5.03,10.97-5.78,1.89-.48,4.62-.44,6-.45,1.73-.01,2.15,0,3.94,0,3.64-.02,9.26,3.44,13.47,5.69-2.16,1.36-3.36,2.39-7.84,3.18-4.75.83-6.14-1.34-9.37-1.34-2.54,0-2.7,2.28-10.98,1.14-2.83-.39-4.11-1.19-6.19-2.44Z" style="fill: #f86d78;"/>
                  <path d="M107.1,163.09c.11-.59.7-2.03,1.73-2.7,1.02-.68,2.89-1.3,3.62-1.24,4.32.38,7.93-.33,9.18.07.36.11,2.38.5,3.57,1.14,1.19.47,1.85,2.39,1.33,3.32-.44.78-1.37.75-2.65.76-.64-.03-1.34-.11-2.04-.22-2.11-.33-4.3-.91-5.22-.92-.93-.01-3.39.51-5.58.8-.73.09-1.43.15-2.02.12-1.2-.09-2.02-.49-1.91-1.13Z" style="fill: url(#linear-gradient-15);"/>
                  <path d="M99.51,165.59c2.99.66,2.09.6,5.85,1.4,2.36.5,10.43,2.08,11.98,2.18,1.45.1,9.18-1.87,10.06-2.12,3.83-1.08,2.01-.79,6.44-1.77-3.68,3.58-5.07,14.26-16.33,14.26-12.87,0-13.9-11.19-18-13.95Z" style="fill: #f86d78;"/>
                  <path d="M105.98,168.1c.21-.17,11.18,1.63,11.51,1.64.33,0,11.22-3.35,11.25.16-.27,1.51-1.16,2.75-1.92,3.52-1.16,1.15-3,2.81-7.43,3.45-3.48.5-7.27-.34-8.91-1.49-.41-.28-1.04-.7-1.73-1.21-.69-.51-1.42-1.14-2.03-1.85-1.23-1.55-1.96-3.3-.75-4.24Z" style="fill: url(#linear-gradient-16);"/>
                  <path d="M127.73,169.21c.11.35-.13,1.18-.75,2.09-.61.9-1.6,1.88-2.97,2.59-3.53,1.83-6.48.65-6.71-.06-.23-.71,4.55-1.64,5.89-2.48.68-.42,1.75-1.12,2.69-1.62.93-.51,1.73-.87,1.85-.52Z" style="fill: #ff9aa2;"/>
                </g>
              </g>
            </g>
          </g>
          <path d="M175.78,146.29s-12.29,37.69-17.81,50.18c-5.53,12.49.2,54.6.2,54.6,0,0,30.77-59.9,26.99-86.96-3.78-27.06-9.37-17.83-9.37-17.83Z" style="fill: url(#_ÂÁ_Ï_ÌÌ_È_ËÂÌÚ_8-4);"/>
          <path d="M200.91,227.02s4.22,16.76,14.69,25.55c0,0-12.82-2.34-15.89-9.84-3.07-7.5,1.2-15.71,1.2-15.71Z" style="fill: url(#_ÂÁ_Ï_ÌÌ_È_ËÂÌÚ_8-5);"/>
          <path d="M36.81,225.27s-3.92,16.83-14.22,25.81c0,0,12.78-2.57,15.71-10.13,2.94-7.56-1.49-15.68-1.49-15.68Z" style="fill: url(#_ÂÁ_Ï_ÌÌ_È_ËÂÌÚ_8-6);"/>
          <path d="M87.66,223.66c-2.25-25.81-14.12-44.6-19.91-51.99-9.49-12.11-10.59-39.7-10.59-39.7,0,0-5.3,44.7-7.45,60.71-3.31,24.71,7.65,58.08,18.9,65.28,7.25-12.93,8.02-27.77,5.32-46.15,10.04,19.5,2.37,38.16.46,50.1,7.48-8.5,14.23-27.26,13.27-38.25Z" style="fill: url(#_ÂÁ_Ï_ÌÌ_È_ËÂÌÚ_8-7);"/>
          <path d="M175.26,116.16c2.48,12.77,4.69,30.36,4.82,44.24.33,34.9-16.56,98.54-34.37,101.61,5.59-.8,20.74-2.1,32.58-19.17.82,6.23-6.48,10.85-12.05,15.62,11.28-6.19,16.53-11.65,16.53-11.65-2.79,5.16-4.59,9.24-13.85,16.19,5.74-.97,22.79-12.15,30.74-23.14,4.87-11.57,9.47-22.87,11.98-36.09-2.15-19.58-8.28-38.16-18.93-56.7-5.56-8.71-12.57-21.4-17.46-30.92Z" style="fill: url(#_ÂÁ_Ï_ÌÌ_È_ËÂÌÚ_46);"/>
          <path d="M203.27,156.82c-.57-5.13-14.56-86.44-21.27-100.08C155.83,3.59,116.03,21.98,116.03,21.98l-2.41,20.66c29.63-5.82,53.25,30.02,62.45,77.5,4.88,9.52,11.09,18.23,16.65,26.94,10.65,18.54,12.7,25.45,10.55,9.75Z" style="fill: url(#_ÂÁ_Ï_ÌÌ_È_ËÂÌÚ_8-8);"/>
          <path d="M62.76,29.47c-19.18,17.13-24.54,36.56-26.69,49.7-1.27,7.77-7.82,56.06-11.09,89.11,7.99-17.33,17.64-22.39,30.01-36.24.54-.83,1.03-1.68,1.5-2.53,1.09-28.65,6.19-52.63,22.64-68.98,20.68-20.57,34.5-17.88,34.5-17.88l2.41-20.66c-10.08-7.99-41.77-2.79-53.28,7.49Z" style="fill: url(#_ÂÁ_Ï_ÌÌ_È_ËÂÌÚ_8-9);"/>
          <path d="M24.98,168.28c-13.03,27.6-7.36,56.08.16,66,6.24,7.19,17.28,18.54,25.57,23.75-3.27-4.13-8.73-13.99-8.08-20.04,5.68,18.42,28.89,23.12,31.76,23.93-19.06-11.21-24.55-32.01-25.43-58.94-.62-18.82,6.91-57.15,7.53-73.47-.46.85-.95,1.7-1.5,2.53-12.37,13.86-22.02,18.91-30.01,36.24Z" style="fill: url(#_ÂÁ_Ï_ÌÌ_È_ËÂÌÚ_55);"/>
          <path d="M113.65,42.64s25.96-12.2,42.69,8.78c16.73,20.98,16.75,65.94,26.42,90.07,9.67,24.13,24.47,59.12,18.51,78.91-5.96,19.8-23.07,35.64-23.07,35.64,0,0,19.86-25.5,16.33-49.44-3.53-23.93-19.49-47.61-23.44-73.61-3.95-26-8.42-63.85-26.7-80.22-16.22-14.52-30.75-10.15-30.75-10.15Z" style="fill: url(#linear-gradient-17);"/>
          <path d="M115.95,28.01s-38.4-6.34-53.69,27.64c-15.29,33.99-29.42,74.29-29.42,74.29,0,0,20.28-76.82,23.36-83.84,4.48-10.22,28.82-38.88,59.74-18.09Z" style="fill: url(#_ÂÁ_Ï_ÌÌ_È_ËÂÌÚ_8-10);"/>
          <path d="M118.23,26.43s22.09-6.49,46.27,18.59c13.26,13.75,19.44,87.87,19.44,87.87,0,0,1.24-59.05-4.73-78.78-5.98-19.73-36.97-48.42-60.98-27.68Z" style="fill: url(#_ÂÁ_Ï_ÌÌ_È_ËÂÌÚ_8-11);"/>
          <path d="M48.45,146.53s-18.65,33.23-20.76,55.08c-2.11,21.85-9.8,40.97-20.87,43.33,0,0,14.76-3.08,21.16-11.63,6.39-8.55,10.95-66.81,20.47-86.78Z" style="fill: url(#_ÂÁ_Ï_ÌÌ_È_ËÂÌÚ_10);"/>
          <path d="M66.37,90.53s-9.71,28.7-14.83,64.27c-4.16,28.92-9.06,41.33-7.01,59.77,2.26,20.27,9,41.15,29.86,47.35,0,0-16.29-7.91-21.79-47.42-1.92-13.79,2.16-36.91,5.38-59.75,4.6-32.67,8.39-64.21,8.39-64.21Z" style="fill: url(#linear-gradient-18);"/>
          <path d="M175.98,180.49s7.83,75.39-30.26,81.53c0,0,23.47-9.98,30.26-81.53Z" style="fill: url(#linear-gradient-19);"/>
          <path d="M165.64,169.91s-7.26,15.46-13.4,28.41c-6.14,12.95.39,42.65.39,42.65,0,0-.8-21.28,4.35-34.34,5.15-13.07,8.66-36.72,8.66-36.72Z" style="fill: url(#linear-gradient-20);"/>
          <path d="M69.72,173.63s12.38,14.45,18.1,33.45c5.72,19-3.72,47.83-3.72,47.83,0,0,3.22-34.36-.46-50.22-3.68-15.86-13.92-31.06-13.92-31.06Z" style="fill: url(#linear-gradient-21);"/>
          <path d="M40.62,213.98s-3.37,31.06,11.89,46.17c0,0-28.22-8.73-11.89-46.17Z" style="fill: url(#linear-gradient-22);"/>
          <path d="M184.75,219.08s6.25,28.21-19.46,39.85c0,0,21.14-18.6,19.46-39.85Z" style="fill: url(#linear-gradient-23);"/>
          <path d="M116.08,27.39s17.65-12.18,48.26,4.63c0,0-19.13-21.64-45.81-14.11,0,0-27.12-15.7-54.15,10.24,0,0,7.76-6.25,21.31-8.01,11.29-1.47,28.56.71,30.39,7.25Z" style="fill: url(#linear-gradient-24);"/>
          <path d="M163.39,90.29s.24-25.85-13.02-38.23c-13.26-12.38-25.85-12.96-36.71-9.41,0,0,15.34-2.66,24.59,6.03,12.32,11.55,18.62,20.88,25.14,41.62Z" style="fill: url(#_ÂÁ_Ï_ÌÌ_È_ËÂÌÚ_8-12);"/>
          <path d="M113.65,42.64s-9.82-2.52-17.17-.06c-14.23,4.75-22.13,23.04-25.69,46.21,0,0,4.62-27.57,24.3-39.11,10.62-6.23,18.56-7.03,18.56-7.03Z" style="fill: url(#_ÂÁ_Ï_ÌÌ_È_ËÂÌÚ_8-13);"/>
          <path d="M118.25,28.08s34.68-16.99,51.95,24.72c12.62,30.48,10.78,61.54,10.78,61.54,0,0-2.36-50.98-29.58-77.08-15.46-14.82-33.16-9.18-33.16-9.18Z" style="fill: url(#_ÂÁ_Ï_ÌÌ_È_ËÂÌÚ_8-14);"/>
          <path d="M115.95,28.01s-12.28-5.22-28.04.35c-12.28,4.35-21.96,16.12-27.34,29.6-3.53,8.83-13.59,32.5-20.9,53.29,0,0,20.09-27.49,27.07-50.69,5.06-16.8,24.27-36.36,49.21-32.56Z" style="fill: url(#_ÂÁ_Ï_ÌÌ_È_ËÂÌÚ_8-15);"/>
          <path d="M184.67,80.29s-1.29,49.18,24.33,102.19l-24.33-102.19Z" style="fill: url(#_ÂÁ_Ï_ÌÌ_È_ËÂÌÚ_8-16);"/>
          <path d="M56.59,87.81l-31.73,75.95s30.58-25.55,31.73-75.95Z" style="fill: url(#_ÂÁ_Ï_ÌÌ_È_ËÂÌÚ_8-17);"/>
          <path d="M187.07,133.32s15.84,22,23.18,42.8c8.05,22.83,6.64,42.03-7.7,63.39,0,0,8.04-26.46-1.28-67.09-3.74-16.3-14.19-39.11-14.19-39.11Z" style="fill: url(#_ÂÁ_Ï_ÌÌ_È_ËÂÌÚ_7);"/>
          <path d="M113.65,42.64s-22.52-12.56-38.66,11.58c-13.5,20.2-13.6,53.51-33.87,84.03-8.39,12.64-28.84,33.46-29.08,59.55,0,0,2.32-12.81,22.9-36.86,20.57-24.04,32.26-52.89,37.5-78.76,7.33-36.19,25.25-41.64,41.21-39.54Z" style="fill: url(#linear-gradient-25);"/>
          <path d="M63.79,170.83s20.82,50.66,6.45,83.95c0,0-3.57-67.51-6.45-83.95Z" style="fill: url(#_ÂÁ_Ï_ÌÌ_È_ËÂÌÚ_46-2);"/>
        </g>
      </g>
    </g>
  </g>
</svg>