<?xml version="1.0" encoding="UTF-8"?>
<svg id="Layer_2" data-name="Layer 2" xmlns="http://www.w3.org/2000/svg" width="71.6" height="71.6" xmlns:xlink="http://www.w3.org/1999/xlink" viewBox="0 0 71.6 71.6">
  <defs>
    <clipPath id="clippath">
      <rect width="71.6" height="71.6" style="fill: none;"/>
    </clipPath>
    <linearGradient id="_ÂÁ_Ï_ÌÌ_È_ËÂÌÚ_33" data-name="¡ÂÁ˚ÏˇÌÌ˚È „‡‰ËÂÌÚ 33" x1="519.46" y1="-171.28" x2="523.62" y2="-232.41" gradientTransform="translate(-292.9 470.84) rotate(-29.25)" gradientUnits="userSpaceOnUse">
      <stop offset="0" stop-color="#3b2621"/>
      <stop offset=".39" stop-color="#3e2822"/>
      <stop offset=".71" stop-color="#482e29"/>
      <stop offset="1" stop-color="#593a33"/>
    </linearGradient>
    <linearGradient id="_ÂÁ_Ï_ÌÌ_È_ËÂÌÚ_33-2" data-name="¡ÂÁ˚ÏˇÌÌ˚È „‡‰ËÂÌÚ 33" x1="408.51" y1="-194.78" x2="412.66" y2="-255.9" gradientTransform="translate(-213.29 422.38) rotate(-25.05)" xlink:href="#_ÂÁ_Ï_ÌÌ_È_ËÂÌÚ_33"/>
    <linearGradient id="_ÂÁ_Ï_ÌÌ_È_ËÂÌÚ_33-3" data-name="¡ÂÁ˚ÏˇÌÌ˚È „‡‰ËÂÌÚ 33" x1="596.44" y1="-128.84" x2="600.59" y2="-189.97" gradientTransform="translate(599.07 250.89) rotate(-175.69) scale(1 -1)" xlink:href="#_ÂÁ_Ï_ÌÌ_È_ËÂÌÚ_33"/>
    <linearGradient id="_ÂÁ_Ï_ÌÌ_È_ËÂÌÚ_33-4" data-name="¡ÂÁ˚ÏˇÌÌ˚È „‡‰ËÂÌÚ 33" x1="472.36" y1="-162.58" x2="476.52" y2="-223.7" gradientTransform="translate(491.76 234.13) rotate(179.56) scale(1 -1)" xlink:href="#_ÂÁ_Ï_ÌÌ_È_ËÂÌÚ_33"/>
    <linearGradient id="_ÂÁ_Ï_ÌÌ_È_ËÂÌÚ_33-5" data-name="¡ÂÁ˚ÏˇÌÌ˚È „‡‰ËÂÌÚ 33" x1="-26.47" y1="-114.62" x2="-32.77" y2="-136.55" gradientTransform="translate(74.69 201.4) rotate(11.7)" xlink:href="#_ÂÁ_Ï_ÌÌ_È_ËÂÌÚ_33"/>
    <linearGradient id="_ÂÁ_Ï_ÌÌ_È_ËÂÌÚ_33-6" data-name="¡ÂÁ˚ÏˇÌÌ˚È „‡‰ËÂÌÚ 33" x1="-297.82" y1="-9.11" x2="-304.12" y2="-31.04" gradientTransform="translate(-236.04 252.16) rotate(149.85) scale(1 -1)" xlink:href="#_ÂÁ_Ï_ÌÌ_È_ËÂÌÚ_33"/>
    <linearGradient id="_ÂÁ_Ï_ÌÌ_È_ËÂÌÚ_33-7" data-name="¡ÂÁ˚ÏˇÌÌ˚È „‡‰ËÂÌÚ 33" x1="11.13" y1="-52.05" x2="36.4" y2="-198.67" gradientTransform="translate(34.82 155.11) rotate(-9.22)" xlink:href="#_ÂÁ_Ï_ÌÌ_È_ËÂÌÚ_33"/>
    <linearGradient id="linear-gradient" x1="348.61" y1="-44.2" x2="374.45" y2="-36.35" gradientTransform="translate(-306.22 178.85) rotate(-12.53)" gradientUnits="userSpaceOnUse">
      <stop offset="0" stop-color="#f0c499"/>
      <stop offset=".52" stop-color="#f1c69b"/>
      <stop offset=".85" stop-color="#f4cea4"/>
      <stop offset="1" stop-color="#f7d4ab"/>
    </linearGradient>
    <linearGradient id="linear-gradient-2" x1="363.77" y1="-48.63" x2="366.78" y2="-35.86" gradientTransform="translate(-306.22 178.85) rotate(-12.53)" gradientUnits="userSpaceOnUse">
      <stop offset="0" stop-color="#dba379"/>
      <stop offset=".49" stop-color="#e3b086"/>
      <stop offset="1" stop-color="#f0c499"/>
    </linearGradient>
    <linearGradient id="_ÂÁ_Ï_ÌÌ_È_ËÂÌÚ_115" data-name="¡ÂÁ˚ÏˇÌÌ˚È „‡‰ËÂÌÚ 115" x1="-58.81" y1="48.73" x2="8" y2="48.73" gradientUnits="userSpaceOnUse">
      <stop offset="0" stop-color="#f7d4ab"/>
      <stop offset=".15" stop-color="#f4cea4"/>
      <stop offset=".48" stop-color="#f1c69b"/>
      <stop offset="1" stop-color="#f0c499"/>
    </linearGradient>
    <linearGradient id="linear-gradient-3" x1="12791.1" y1="17.97" x2="12787.62" y2="-5.96" gradientTransform="translate(12616.22 -2008.9) rotate(170.68) scale(1 -1)" xlink:href="#linear-gradient"/>
    <linearGradient id="linear-gradient-4" x1="440.97" y1="9.85" x2="486.93" y2="-2.68" gradientTransform="translate(-394.89 185.85) rotate(-15.48)" xlink:href="#linear-gradient"/>
    <linearGradient id="_ÂÁ_Ï_ÌÌ_È_ËÂÌÚ_147" data-name="¡ÂÁ˚ÏˇÌÌ˚È „‡‰ËÂÌÚ 147" x1="381.11" y1="9.88" x2="379.85" y2="-2.27" gradientTransform="translate(-293.93 148.49) rotate(-13.96) scale(.92 1)" gradientUnits="userSpaceOnUse">
      <stop offset="0" stop-color="#d6b01f"/>
      <stop offset=".42" stop-color="#e0bc26"/>
      <stop offset="1" stop-color="#f5d534"/>
    </linearGradient>
    <linearGradient id="_ÂÁ_Ï_ÌÌ_È_ËÂÌÚ_111" data-name="¡ÂÁ˚ÏˇÌÌ˚È „‡‰ËÂÌÚ 111" x1="7.92" y1="66.23" x2="-53.02" y2="107.03" gradientUnits="userSpaceOnUse">
      <stop offset="0" stop-color="#f5d534"/>
      <stop offset=".58" stop-color="#e0bc26"/>
      <stop offset="1" stop-color="#d6b01f"/>
    </linearGradient>
    <linearGradient id="_ÂÁ_Ï_ÌÌ_È_ËÂÌÚ_14" data-name="¡ÂÁ˚ÏˇÌÌ˚È „‡‰ËÂÌÚ 14" x1="22.29" y1="-299.16" x2="22.26" y2="-299.24" gradientTransform="translate(67.01 305.61) rotate(-11.18)" gradientUnits="userSpaceOnUse">
      <stop offset="0" stop-color="#cb8076"/>
      <stop offset=".31" stop-color="#b76f65"/>
      <stop offset=".95" stop-color="#86443a"/>
      <stop offset="1" stop-color="#824137"/>
    </linearGradient>
    <linearGradient id="_ÂÁ_Ï_ÌÌ_È_ËÂÌÚ_1259" data-name="¡ÂÁ˚ÏˇÌÌ˚È „‡‰ËÂÌÚ 1259" x1="-6.5" y1="-262.88" x2="-9" y2="-270.67" gradientTransform="translate(74.35 305.55) rotate(-10.45)" gradientUnits="userSpaceOnUse">
      <stop offset="0" stop-color="#dba379"/>
      <stop offset=".49" stop-color="#e3b086"/>
      <stop offset="1" stop-color="#f0c499"/>
    </linearGradient>
    <linearGradient id="linear-gradient-5" x1="-3015.23" y1="-213.7" x2="-3014.72" y2="-195.93" gradientTransform="translate(3027.73 -279.5) rotate(-11.18)" xlink:href="#linear-gradient-2"/>
    <linearGradient id="_ÂÁ_Ï_ÌÌ_È_ËÂÌÚ_1259-2" data-name="¡ÂÁ˚ÏˇÌÌ˚È „‡‰ËÂÌÚ 1259" x1="28.97" y1="-268.99" x2="34.97" y2="-268.99" xlink:href="#_ÂÁ_Ï_ÌÌ_È_ËÂÌÚ_1259"/>
    <linearGradient id="linear-gradient-6" x1="-1344.25" y1="-214.06" x2="-1343.74" y2="-196.29" gradientTransform="translate(-1210.66 558.6) rotate(168.82) scale(1 -1)" xlink:href="#linear-gradient-2"/>
    <linearGradient id="_ÂÁ_Ï_ÌÌ_È_ËÂÌÚ_384" data-name="¡ÂÁ˚ÏˇÌÌ˚È „‡‰ËÂÌÚ 384" x1="22.09" y1="-293.7" x2="22.02" y2="-245.02" gradientTransform="translate(67.01 305.61) rotate(-11.18)" gradientUnits="userSpaceOnUse">
      <stop offset="0" stop-color="#ffd9b3"/>
      <stop offset=".32" stop-color="#f9d5ad"/>
      <stop offset="1" stop-color="#f7d4ab"/>
    </linearGradient>
    <linearGradient id="linear-gradient-7" x1="13.18" y1="-263.81" x2="10.98" y2="-277.45" gradientTransform="translate(67.01 305.61) rotate(-11.18)" gradientUnits="userSpaceOnUse">
      <stop offset="0" stop-color="#f7d4ab"/>
      <stop offset=".52" stop-color="#f5d1a8"/>
      <stop offset=".85" stop-color="#f2c99f"/>
      <stop offset="1" stop-color="#f0c499"/>
    </linearGradient>
    <radialGradient id="radial-gradient" cx="-225.49" cy="-262.59" fx="-225.49" fy="-262.59" r="9.24" gradientTransform="translate(252.78 268.91) rotate(-11.18) scale(.79 1)" gradientUnits="userSpaceOnUse">
      <stop offset="0" stop-color="#f9b38e"/>
      <stop offset=".61" stop-color="#f7c59e"/>
      <stop offset="1" stop-color="#f7d4ab"/>
    </radialGradient>
    <linearGradient id="linear-gradient-8" x1="17.82" y1="-250.45" x2="25.92" y2="-250.45" gradientTransform="translate(67.01 305.61) rotate(-11.18)" gradientUnits="userSpaceOnUse">
      <stop offset="0" stop-color="#ffd9b3"/>
      <stop offset=".68" stop-color="#fcd7b0"/>
      <stop offset="1" stop-color="#f7d4ab"/>
    </linearGradient>
    <linearGradient id="linear-gradient-9" x1="32.5" y1="-265.84" x2="30.42" y2="-277.39" xlink:href="#linear-gradient-7"/>
    <linearGradient id="linear-gradient-10" x1="30.21" y1="-275.26" x2="39.26" y2="-275.26" xlink:href="#linear-gradient-8"/>
    <radialGradient id="radial-gradient-2" cx="1977.65" cy="-263.65" fx="1977.65" fy="-263.65" r="9.46" gradientTransform="translate(1639.22 -4.62) rotate(168.82) scale(.79 -1)" xlink:href="#radial-gradient"/>
    <linearGradient id="_ÂÁ_Ï_ÌÌ_È_ËÂÌÚ_1259-3" data-name="¡ÂÁ˚ÏˇÌÌ˚È „‡‰ËÂÌÚ 1259" x1="22.28" y1="-250.34" x2="21.6" y2="-240.39" gradientTransform="translate(67.01 305.61) rotate(-11.18)" xlink:href="#_ÂÁ_Ï_ÌÌ_È_ËÂÌÚ_1259"/>
    <linearGradient id="_ÂÁ_Ï_ÌÌ_È_ËÂÌÚ_126" data-name="¡ÂÁ˚ÏˇÌÌ˚È „‡‰ËÂÌÚ 126" x1="-448.56" y1="808.81" x2="-448.32" y2="808.81" gradientTransform="translate(7542.51 9174.03) rotate(-10.45) scale(12.79 -12.79)" gradientUnits="userSpaceOnUse">
      <stop offset="0" stop-color="#ffd9b3"/>
      <stop offset=".52" stop-color="#fccfa9"/>
      <stop offset="1" stop-color="#f8c39c"/>
    </linearGradient>
    <linearGradient id="_ÂÁ_Ï_ÌÌ_È_ËÂÌÚ_126-2" data-name="¡ÂÁ˚ÏˇÌÌ˚È „‡‰ËÂÌÚ 126" x1="-454.23" y1="808.8" x2="-453.99" y2="808.8" gradientTransform="translate(-3500.36 11356.89) rotate(168.1) scale(12.79)" xlink:href="#_ÂÁ_Ï_ÌÌ_È_ËÂÌÚ_126"/>
    <linearGradient id="_ÂÁ_Ï_ÌÌ_È_ËÂÌÚ_1259-4" data-name="¡ÂÁ˚ÏˇÌÌ˚È „‡‰ËÂÌÚ 1259" x1="39.8" y1="48.72" x2="29.77" y2="2.52" gradientTransform="matrix(1,0,0,1,0,0)" xlink:href="#_ÂÁ_Ï_ÌÌ_È_ËÂÌÚ_1259"/>
    <linearGradient id="_ÂÁ_Ï_ÌÌ_È_ËÂÌÚ_1259-5" data-name="¡ÂÁ˚ÏˇÌÌ˚È „‡‰ËÂÌÚ 1259" x1="2.9" y1="-261.93" x2="12.65" y2="-261.93" gradientTransform="translate(67.01 305.61) rotate(-11.18)" xlink:href="#_ÂÁ_Ï_ÌÌ_È_ËÂÌÚ_1259"/>
    <linearGradient id="_ÂÁ_Ï_ÌÌ_È_ËÂÌÚ_25" data-name="¡ÂÁ˚ÏˇÌÌ˚È „‡‰ËÂÌÚ 25" x1="31.97" y1="-261.94" x2="41.73" y2="-261.94" gradientTransform="translate(67.01 305.61) rotate(-11.18)" gradientUnits="userSpaceOnUse">
      <stop offset="0" stop-color="#f7d4ab"/>
      <stop offset="1" stop-color="#ffd9b3"/>
    </linearGradient>
    <linearGradient id="_ÂÁ_Ï_ÌÌ_È_ËÂÌÚ_41" data-name="¡ÂÁ˚ÏˇÌÌ˚È „‡‰ËÂÌÚ 41" x1="5.46" y1="-278.84" x2="19.19" y2="-279.16" gradientTransform="translate(67.01 305.61) rotate(-11.18)" gradientUnits="userSpaceOnUse">
      <stop offset="0" stop-color="#3b2621"/>
      <stop offset=".41" stop-color="#3c2722"/>
      <stop offset=".56" stop-color="#432c25"/>
      <stop offset=".66" stop-color="#4f362c"/>
      <stop offset=".75" stop-color="#604335"/>
      <stop offset=".82" stop-color="#765441"/>
      <stop offset=".88" stop-color="#916950"/>
      <stop offset=".94" stop-color="#b18262"/>
      <stop offset=".99" stop-color="#d69f76"/>
      <stop offset="1" stop-color="#dba379"/>
    </linearGradient>
    <linearGradient id="_ÂÁ_Ï_ÌÌ_È_ËÂÌÚ_41-2" data-name="¡ÂÁ˚ÏˇÌÌ˚È „‡‰ËÂÌÚ 41" x1="-429.41" y1="-279.31" x2="-415.69" y2="-279.64" gradientTransform="translate(-316.55 381.91) rotate(168.82) scale(1 -1)" xlink:href="#_ÂÁ_Ï_ÌÌ_È_ËÂÌÚ_41"/>
    <linearGradient id="linear-gradient-11" x1="22.53" y1="-260.08" x2="21.85" y2="-263.49" xlink:href="#linear-gradient-7"/>
    <linearGradient id="linear-gradient-12" x1="21.99" y1="-263.76" x2="21.98" y2="-261.09" gradientTransform="translate(67.01 305.61) rotate(-11.18)" xlink:href="#linear-gradient-2"/>
    <linearGradient id="_ÂÁ_Ï_ÌÌ_È_ËÂÌÚ_25-2" data-name="¡ÂÁ˚ÏˇÌÌ˚È „‡‰ËÂÌÚ 25" x1="21.83" y1="-267.39" x2="21.87" y2="-264.65" xlink:href="#_ÂÁ_Ï_ÌÌ_È_ËÂÌÚ_25"/>
    <linearGradient id="_ÂÁ_Ï_ÌÌ_È_ËÂÌÚ_101" data-name="¡ÂÁ˚ÏˇÌÌ˚È „‡‰ËÂÌÚ 101" x1="20.54" y1="-224.52" x2="38.01" y2="-224.52" gradientTransform="translate(54.04 271.77) rotate(-11.44)" gradientUnits="userSpaceOnUse">
      <stop offset="0" stop-color="#f8d4ac"/>
      <stop offset=".52" stop-color="#ffd9b3"/>
      <stop offset="1" stop-color="#f7d4ab"/>
    </linearGradient>
    <linearGradient id="_ÂÁ_Ï_ÌÌ_È_ËÂÌÚ_3" data-name="¡ÂÁ˚ÏˇÌÌ˚È „‡‰ËÂÌÚ 3" x1="5648.23" y1="-406.96" x2="5644.23" y2="-408.98" gradientTransform="translate(5602.74 -1037.39) rotate(164.85) scale(1 -1)" gradientUnits="userSpaceOnUse">
      <stop offset="0" stop-color="#f0c498"/>
      <stop offset=".52" stop-color="#e3af85"/>
      <stop offset="1" stop-color="#daa279"/>
    </linearGradient>
    <linearGradient id="_ÂÁ_Ï_ÌÌ_È_ËÂÌÚ_3-2" data-name="¡ÂÁ˚ÏˇÌÌ˚È „‡‰ËÂÌÚ 3" x1="22.81" y1="-222.45" x2="20.29" y2="-224.53" gradientTransform="translate(54.04 271.77) rotate(-11.44)" xlink:href="#_ÂÁ_Ï_ÌÌ_È_ËÂÌÚ_3"/>
    <linearGradient id="_ÂÁ_Ï_ÌÌ_È_ËÂÌÚ_17" data-name="¡ÂÁ˚ÏˇÌÌ˚È „‡‰ËÂÌÚ 17" x1="29.51" y1="-218.79" x2="29.96" y2="-213.82" gradientTransform="translate(54.04 271.77) rotate(-11.44)" gradientUnits="userSpaceOnUse">
      <stop offset="0" stop-color="#daa279"/>
      <stop offset=".48" stop-color="#e3af85"/>
      <stop offset="1" stop-color="#f0c498"/>
    </linearGradient>
    <linearGradient id="linear-gradient-13" x1="81.73" y1="-191.7" x2="81.68" y2="-194.52" gradientTransform="translate(-5.4 254.74) rotate(-10.61)" gradientUnits="userSpaceOnUse">
      <stop offset="0" stop-color="#e46980"/>
      <stop offset=".37" stop-color="#e2677d"/>
      <stop offset=".55" stop-color="#db6076"/>
      <stop offset=".69" stop-color="#cf5568"/>
      <stop offset=".81" stop-color="#be4456"/>
      <stop offset=".92" stop-color="#a9303e"/>
      <stop offset="1" stop-color="#951c27"/>
    </linearGradient>
    <linearGradient id="linear-gradient-14" x1="81.78" y1="-191.5" x2="81.74" y2="-193.97" xlink:href="#linear-gradient-13"/>
    <linearGradient id="linear-gradient-15" x1="-503.47" y1="737.05" x2="-503.25" y2="737.05" gradientTransform="translate(28713.68 21455.38) rotate(-17.67) scale(41.4 -39.48) skewX(.03)" gradientUnits="userSpaceOnUse">
      <stop offset="0" stop-color="#f96e7e"/>
      <stop offset=".03" stop-color="#f9707f"/>
      <stop offset=".25" stop-color="#fd7985"/>
      <stop offset=".53" stop-color="#ff7d88"/>
      <stop offset=".76" stop-color="#fd7985"/>
      <stop offset="1" stop-color="#f86d7d"/>
      <stop offset="1" stop-color="#f86d7d"/>
    </linearGradient>
    <linearGradient id="linear-gradient-16" x1="-507.18" y1="742.25" x2="-506.87" y2="742.25" gradientTransform="translate(37076.08 34709.26) rotate(-11.39) scale(59.3 -55.63) skewX(.79)" gradientUnits="userSpaceOnUse">
      <stop offset="0" stop-color="#e7d7d6"/>
      <stop offset=".05" stop-color="#eadddc"/>
      <stop offset=".21" stop-color="#f6f0ef"/>
      <stop offset=".39" stop-color="#fcfbfb"/>
      <stop offset=".57" stop-color="#fff"/>
      <stop offset=".69" stop-color="#fbf7f7"/>
      <stop offset=".87" stop-color="#f0e3e3"/>
      <stop offset="1" stop-color="#e7d1d0"/>
    </linearGradient>
    <linearGradient id="linear-gradient-17" x1="21.12" y1="-189.73" x2="35.24" y2="-189.69" gradientTransform="translate(46.32 238.45) rotate(-10.74)" gradientUnits="userSpaceOnUse">
      <stop offset="0" stop-color="#e7d7d6"/>
      <stop offset=".05" stop-color="#e9dbda"/>
      <stop offset=".31" stop-color="#f5eeed"/>
      <stop offset=".48" stop-color="#faf5f5"/>
      <stop offset="1" stop-color="#e7d1d0"/>
    </linearGradient>
    <linearGradient id="_ÂÁ_Ï_ÌÌ_È_ËÂÌÚ_1259-6" data-name="¡ÂÁ˚ÏˇÌÌ˚È „‡‰ËÂÌÚ 1259" x1="-542.52" y1="753.48" x2="-542.26" y2="753.48" gradientTransform="translate(-29974.97 -18218.34) rotate(157.05) scale(37.84 -37.84)" xlink:href="#_ÂÁ_Ï_ÌÌ_È_ËÂÌÚ_1259"/>
    <linearGradient id="_ÂÁ_Ï_ÌÌ_È_ËÂÌÚ_1655" data-name="¡ÂÁ˚ÏˇÌÌ˚È „‡‰ËÂÌÚ 1655" x1="-478.88" y1="743.44" x2="-478.62" y2="743.44" gradientTransform="translate(27896.68 26506.92) rotate(-13.67) scale(43.46 -43.46)" gradientUnits="userSpaceOnUse">
      <stop offset="0" stop-color="#4d322e"/>
      <stop offset=".06" stop-color="#4a302c"/>
      <stop offset=".55" stop-color="#3d2622"/>
      <stop offset="1" stop-color="#39231f"/>
    </linearGradient>
    <linearGradient id="_ÂÁ_Ï_ÌÌ_È_ËÂÌÚ_1259-7" data-name="¡ÂÁ˚ÏˇÌÌ˚È „‡‰ËÂÌÚ 1259" x1="-6.15" y1="-249.6" x2="-6.45" y2="-243.11" gradientTransform="translate(86.54 277.16) rotate(-8.26)" xlink:href="#_ÂÁ_Ï_ÌÌ_È_ËÂÌÚ_1259"/>
    <linearGradient id="_ÂÁ_Ï_ÌÌ_È_ËÂÌÚ_1259-8" data-name="¡ÂÁ˚ÏˇÌÌ˚È „‡‰ËÂÌÚ 1259" x1="-531.89" y1="751.57" x2="-531.62" y2="751.57" gradientTransform="translate(19631.39 -28764.34) rotate(-1.04) scale(37.84)" xlink:href="#_ÂÁ_Ï_ÌÌ_È_ËÂÌÚ_1259"/>
    <linearGradient id="_ÂÁ_Ï_ÌÌ_È_ËÂÌÚ_1655-2" data-name="¡ÂÁ˚ÏˇÌÌ˚È „‡‰ËÂÌÚ 1655" x1="-488.31" y1="743.58" x2="-488.05" y2="743.58" gradientTransform="translate(-15056.88 35627.34) rotate(169.68) scale(43.46)" xlink:href="#_ÂÁ_Ï_ÌÌ_È_ËÂÌÚ_1655"/>
    <linearGradient id="_ÂÁ_Ï_ÌÌ_È_ËÂÌÚ_1259-9" data-name="¡ÂÁ˚ÏˇÌÌ˚È „‡‰ËÂÌÚ 1259" x1="-414.29" y1="-218.09" x2="-414.59" y2="-211.61" gradientTransform="translate(-313.37 357.17) rotate(164.27) scale(1 -1)" xlink:href="#_ÂÁ_Ï_ÌÌ_È_ËÂÌÚ_1259"/>
    <linearGradient id="_ÂÁ_Ï_ÌÌ_È_ËÂÌÚ_33-8" data-name="¡ÂÁ˚ÏˇÌÌ˚È „‡‰ËÂÌÚ 33" x1="115.76" y1="-268.15" x2="142.67" y2="-234.91" gradientTransform="translate(-6.49 327.83) rotate(-14.65)" xlink:href="#_ÂÁ_Ï_ÌÌ_È_ËÂÌÚ_33"/>
    <linearGradient id="_ÂÁ_Ï_ÌÌ_È_ËÂÌÚ_33-9" data-name="¡ÂÁ˚ÏˇÌÌ˚È „‡‰ËÂÌÚ 33" x1="-145.9" y1="-220.59" x2="-149.2" y2="-232.06" gradientTransform="translate(-103.62 322.71) rotate(172.54) scale(1 -1)" xlink:href="#_ÂÁ_Ï_ÌÌ_È_ËÂÌÚ_33"/>
    <linearGradient id="_ÂÁ_Ï_ÌÌ_È_ËÂÌÚ_33-10" data-name="¡ÂÁ˚ÏˇÌÌ˚È „‡‰ËÂÌÚ 33" x1="-91.18" y1="-255.77" x2="-93.89" y2="-230.01" gradientTransform="translate(147.04 289.25) rotate(-7.46)" xlink:href="#_ÂÁ_Ï_ÌÌ_È_ËÂÌÚ_33"/>
    <linearGradient id="_ÂÁ_Ï_ÌÌ_È_ËÂÌÚ_46" data-name="¡ÂÁ˚ÏˇÌÌ˚È „‡‰ËÂÌÚ 46" x1="137.77" y1="-228.12" x2="132.59" y2="-271.19" gradientTransform="translate(-6.49 327.83) rotate(-14.65)" gradientUnits="userSpaceOnUse">
      <stop offset="0" stop-color="#593a33"/>
      <stop offset=".29" stop-color="#482e29"/>
      <stop offset=".61" stop-color="#3e2822"/>
      <stop offset="1" stop-color="#3b2621"/>
    </linearGradient>
    <linearGradient id="_ÂÁ_Ï_ÌÌ_È_ËÂÌÚ_33-11" data-name="¡ÂÁ˚ÏˇÌÌ˚È „‡‰ËÂÌÚ 33" x1="40.36" y1="-254.77" x2="34.75" y2="-301.39" gradientTransform="translate(67.01 305.61) rotate(-11.18)" xlink:href="#_ÂÁ_Ï_ÌÌ_È_ËÂÌÚ_33"/>
    <linearGradient id="_ÂÁ_Ï_ÌÌ_È_ËÂÌÚ_33-12" data-name="¡ÂÁ˚ÏˇÌÌ˚È „‡‰ËÂÌÚ 33" x1="9.55" y1="-256.44" x2="4.52" y2="-298.31" gradientTransform="translate(67.01 305.61) rotate(-11.18)" xlink:href="#_ÂÁ_Ï_ÌÌ_È_ËÂÌÚ_33"/>
    <linearGradient id="_ÂÁ_Ï_ÌÌ_È_ËÂÌÚ_55" data-name="¡ÂÁ˚ÏˇÌÌ˚È „‡‰ËÂÌÚ 55" x1="-100.62" y1="-222.89" x2="-101.15" y2="-269.75" gradientTransform="translate(147.04 289.25) rotate(-7.46)" gradientUnits="userSpaceOnUse">
      <stop offset="0" stop-color="#593a33"/>
      <stop offset=".19" stop-color="#52352f"/>
      <stop offset="1" stop-color="#3b2621"/>
    </linearGradient>
    <linearGradient id="linear-gradient-18" x1="128.33" y1="-233.83" x2="132.37" y2="-293.36" gradientTransform="translate(-6.49 327.83) rotate(-14.65)" gradientUnits="userSpaceOnUse">
      <stop offset="0" stop-color="#593a33"/>
      <stop offset=".4" stop-color="#5d3d36"/>
      <stop offset=".85" stop-color="#6a4741"/>
      <stop offset="1" stop-color="#714c46"/>
    </linearGradient>
    <linearGradient id="_ÂÁ_Ï_ÌÌ_È_ËÂÌÚ_33-13" data-name="¡ÂÁ˚ÏˇÌÌ˚È „‡‰ËÂÌÚ 33" x1="-122.01" y1="-234.51" x2="-127.37" y2="-273.95" gradientTransform="translate(174.38 285) rotate(-6.06)" xlink:href="#_ÂÁ_Ï_ÌÌ_È_ËÂÌÚ_33"/>
    <linearGradient id="_ÂÁ_Ï_ÌÌ_È_ËÂÌÚ_33-14" data-name="¡ÂÁ˚ÏˇÌÌ˚È „‡‰ËÂÌÚ 33" x1="307.01" y1="-228.35" x2="301.13" y2="-271.6" gradientTransform="translate(-135.76 380.83) rotate(-21.25)" xlink:href="#_ÂÁ_Ï_ÌÌ_È_ËÂÌÚ_33"/>
    <linearGradient id="_ÂÁ_Ï_ÌÌ_È_ËÂÌÚ_48" data-name="¡ÂÁ˚ÏˇÌÌ˚È „‡‰ËÂÌÚ 48" x1="-321.72" y1="-172.05" x2="-330.29" y2="-211.51" gradientTransform="translate(334.73 275.14) rotate(1.01)" gradientUnits="userSpaceOnUse">
      <stop offset="0" stop-color="#3b2621"/>
      <stop offset=".77" stop-color="#51342e"/>
      <stop offset="1" stop-color="#593a33"/>
    </linearGradient>
    <linearGradient id="linear-gradient-19" x1="-95.65" y1="-263.53" x2="-96.08" y2="-229.11" gradientTransform="translate(147.04 289.25) rotate(-7.46)" xlink:href="#linear-gradient-18"/>
    <linearGradient id="linear-gradient-20" x1="129.34" y1="-228.41" x2="130.96" y2="-252.19" xlink:href="#linear-gradient-18"/>
    <linearGradient id="linear-gradient-21" x1="128.11" y1="-236.66" x2="129.51" y2="-257.16" xlink:href="#linear-gradient-18"/>
    <linearGradient id="linear-gradient-22" x1="-90.18" y1="-225.53" x2="-88.66" y2="-247.9" gradientTransform="translate(147.04 289.25) rotate(-7.46)" xlink:href="#linear-gradient-18"/>
    <linearGradient id="linear-gradient-23" x1="-101.03" y1="-223.12" x2="-100.15" y2="-236.1" gradientTransform="translate(147.04 289.25) rotate(-7.46)" xlink:href="#linear-gradient-18"/>
    <linearGradient id="linear-gradient-24" x1="133.98" y1="-229.01" x2="134.78" y2="-240.71" xlink:href="#linear-gradient-18"/>
    <linearGradient id="linear-gradient-25" x1="25.32" y1="-286.58" x2="22.43" y2="-304.59" gradientTransform="translate(67.01 305.61) rotate(-11.18)" xlink:href="#linear-gradient-18"/>
    <linearGradient id="_ÂÁ_Ï_ÌÌ_È_ËÂÌÚ_33-15" data-name="¡ÂÁ˚ÏˇÌÌ˚È „‡‰ËÂÌÚ 33" x1="122.54" y1="-286.13" x2="125.76" y2="-292.86" gradientTransform="translate(-6.49 327.83) rotate(-14.65)" xlink:href="#_ÂÁ_Ï_ÌÌ_È_ËÂÌÚ_33"/>
    <linearGradient id="_ÂÁ_Ï_ÌÌ_È_ËÂÌÚ_33-16" data-name="¡ÂÁ˚ÏˇÌÌ˚È „‡‰ËÂÌÚ 33" x1="-39.61" y1="-277.35" x2="-32.46" y2="-292.29" gradientTransform="translate(105.29 297.11) rotate(-9.31)" xlink:href="#_ÂÁ_Ï_ÌÌ_È_ËÂÌÚ_33"/>
    <linearGradient id="_ÂÁ_Ï_ÌÌ_È_ËÂÌÚ_33-17" data-name="¡ÂÁ˚ÏˇÌÌ˚È „‡‰ËÂÌÚ 33" x1="313.4" y1="-256.11" x2="293.2" y2="-289.4" gradientTransform="translate(-135.76 380.83) rotate(-21.25)" xlink:href="#_ÂÁ_Ï_ÌÌ_È_ËÂÌÚ_33"/>
    <linearGradient id="_ÂÁ_Ï_ÌÌ_È_ËÂÌÚ_33-18" data-name="¡ÂÁ˚ÏˇÌÌ˚È „‡‰ËÂÌÚ 33" x1="-124.04" y1="-268.84" x2="-133.37" y2="-284.21" gradientTransform="translate(174.38 285) rotate(-6.06)" xlink:href="#_ÂÁ_Ï_ÌÌ_È_ËÂÌÚ_33"/>
    <linearGradient id="_ÂÁ_Ï_ÌÌ_È_ËÂÌÚ_33-19" data-name="¡ÂÁ˚ÏˇÌÌ˚È „‡‰ËÂÌÚ 33" x1="323.08" y1="-240.91" x2="317.82" y2="-276.5" gradientTransform="translate(-144.67 388.34) rotate(-21.57)" xlink:href="#_ÂÁ_Ï_ÌÌ_È_ËÂÌÚ_33"/>
    <linearGradient id="_ÂÁ_Ï_ÌÌ_È_ËÂÌÚ_33-20" data-name="¡ÂÁ˚ÏˇÌÌ˚È „‡‰ËÂÌÚ 33" x1="14.16" y1="38.3" x2="7.24" y2="7.81" gradientTransform="matrix(1,0,0,1,0,0)" xlink:href="#_ÂÁ_Ï_ÌÌ_È_ËÂÌÚ_33"/>
    <linearGradient id="_ÂÁ_Ï_ÌÌ_È_ËÂÌÚ_45" data-name="¡ÂÁ˚ÏˇÌÌ˚È „‡‰ËÂÌÚ 45" x1="661.09" y1="-126.93" x2="651.66" y2="-170.4" gradientTransform="translate(-385.53 540.91) rotate(-34.18)" gradientUnits="userSpaceOnUse">
      <stop offset="0" stop-color="#3b2621"/>
      <stop offset=".38" stop-color="#472e28"/>
      <stop offset="1" stop-color="#593a33"/>
    </linearGradient>
    <linearGradient id="linear-gradient-26" x1="-96.45" y1="-239.67" x2="-93.09" y2="-289.17" gradientTransform="translate(147.04 289.25) rotate(-7.46)" xlink:href="#linear-gradient-18"/>
    <linearGradient id="_ÂÁ_Ï_ÌÌ_È_ËÂÌÚ_46-2" data-name="¡ÂÁ˚ÏˇÌÌ˚È „‡‰ËÂÌÚ 46" x1="-87.22" y1="-226.6" x2="-100.48" y2="-248.45" gradientTransform="translate(147.04 289.25) rotate(-7.46)" xlink:href="#_ÂÁ_Ï_ÌÌ_È_ËÂÌÚ_46"/>
  </defs>
  <g id="Layer_1-2" data-name="Layer 1">
    <g style="clip-path: url(#clippath);">
      <g>
        <path d="M36.14,17.46s4.96-7.11,12.62-3.91c7.66,3.2,14.35,15.4,20.56,20.5,6.21,5.11,15.43,12.4,16.75,18.65,1.33,6.26-.96,13.1-.96,13.1,0,0,2.7-11.23-1.81-17.19-4.51-5.97-13.47-8.66-18.4-15.13s-11.8-16.48-19.19-18.21c-6.56-1.53-9.56,2.18-9.56,2.18Z" style="fill: url(#_ÂÁ_Ï_ÌÌ_È_ËÂÌÚ_33);"/>
        <path d="M37.62,20s5.47-6.73,12.87-2.97c7.4,3.76,13.18,16.4,19,21.95,5.82,5.55,14.48,13.49,15.34,19.83.86,6.34-1.92,12.99-1.92,12.99,0,0,3.51-11-.55-17.28s-12.8-9.62-17.25-16.43c-4.45-6.81-10.56-17.3-17.81-19.56-6.43-2-9.69,1.47-9.69,1.47Z" style="fill: url(#_ÂÁ_Ï_ÌÌ_È_ËÂÌÚ_33-2);"/>
        <path d="M29.6,15.03s-7.5-4.36-13.09,1.78c-5.59,6.13-6.52,20.01-10,27.26S-2.25,61.81-.82,68.04c1.44,6.23,6.39,11.47,6.39,11.47,0,0-6.19-9.92-4.61-17.23,1.58-7.31,7.57-12.65,9.32-20.6,1.75-7.94,3.75-19.92,9.73-24.6,5.3-4.15,9.59-2.05,9.59-2.05Z" style="fill: url(#_ÂÁ_Ï_ÌÌ_È_ËÂÌÚ_33-3);"/>
        <path d="M28.51,11.58s-7.83-3.72-12.9,2.86c-5.06,6.58-4.84,20.48-7.7,27.99-2.87,7.51-7.26,18.41-5.31,24.5,1.95,6.09,7.32,10.9,7.32,10.9,0,0-6.99-9.37-6.03-16.79.97-7.42,6.5-13.24,7.58-21.3,1.09-8.06,2.09-20.17,7.65-25.32,4.94-4.58,9.38-2.84,9.38-2.84Z" style="fill: url(#_ÂÁ_Ï_ÌÌ_È_ËÂÌÚ_33-4);"/>
        <g>
          <path d="M68.59,57.28s5.53,7.32,3.01,16.77l-3.01-16.77Z" style="fill: url(#_ÂÁ_Ï_ÌÌ_È_ËÂÌÚ_33-5);"/>
          <path d="M11.77,68.45s-2.93,8.69,2.45,16.86l-2.45-16.86Z" style="fill: url(#_ÂÁ_Ï_ÌÌ_È_ËÂÌÚ_33-6);"/>
          <path d="M30.17,7.89s13.34-3.01,19.88,6.98c6.55,9.99,10.38,27.55,11.96,32.33,1.57,4.79,1.43,20.55,1.43,20.55l-42.6,9.32s-8.38-34.5-8.38-41.36c0-6.86,17.71-27.82,17.71-27.82Z" style="fill: url(#_ÂÁ_Ï_ÌÌ_È_ËÂÌÚ_33-7);"/>
        </g>
        <path d="M107.41,10.15c-1.73,2.88-11.14,14.64-15.34,20.12-8.78,11.45-15.44,19.36-16.18,19.84-.66.42-4.47,2.62-8.27,7.27,2.55,6.38,5.19,12.74,8.15,19.32,1.44,2.7,1.04,8.78,1.04,8.78,0,0,3.95-9.75,4.19-10.86.4-1.82,16.17-24.39,17.04-25.48.87-1.08,14.22-26.12,15.16-26.93.17-.15.87-1.11,1.89-2.58-2.5-3.33-5.31-6.37-7.41-9.9-.09.14-.18.29-.26.43Z" style="fill: #f7d4ab;"/>
        <path d="M47.5,46.66s3.39,15.27,5.49,16.22c2.66,1.2,13.9-11.43,15.7-10.11,4.48,3.28,15.42,15.52,18.22,23.85,1.83,5.47-75.36,20.82-76.32,20.97,0,0,1.58-21.05,4.06-22.2,5.18-2.42,16.88-5.69,19.83-7.58,4.14-2.64-1.64-15.06-1.64-15.06l14.67-6.09Z" style="fill: #f7d4ab;"/>
        <path d="M52.07,60.4c-1.46-.88-3.73-10.3-3.73-10.3,0,0-17.4,4.88-17.74,4.63.29,1.23,2.03,8.35,2.12,9.32.1,1.11.52,2.35-10.99,7.63,0,0,4.2-.64,12.24-2.35,1.4-.3,2.59-.28,2.29-2.39,0,0,6.16-.61,11.41-5.73,1.12,3.02,1.87,4.21,3.01,4.63,1.15.43,9.92-2.54,9.92-2.54l-.72-4.06c-2.84.29-6.35,2.04-7.81,1.16Z" style="fill: url(#linear-gradient);"/>
        <path d="M32.58,63.24s-1.75-8.32-2.78-10.26l18.75-2.09,1.86,6.33s-5,11.65-17.83,6.03Z" style="fill: url(#linear-gradient-2);"/>
        <g>
          <g>
            <path d="M15.15,87.5c.19-7.21.16-14.09.05-20.96-5.3-2.82-9.67-3.37-10.44-3.51-.87-.15-10.07-4.87-22.59-12.04-5.15-2.95-15.63-8.69-20.2-11.5-2.09,3.23-4.12,6.54-6.25,9.86,2.12,1.36,3.58,2.27,3.85,2.36,1.18.39,23.16,18.32,24.39,18.99,1.22.66,24.49,15.39,25.56,16.91.65.93,7.84,8.44,7.84,8.44,0,0-2.5-5.5-2.21-8.55Z" style="fill: #f7d4ab;"/>
            <path d="M-2.19,77.69c-16.34-8.93-32.57-24.57-33.85-25.28-.41-.23-3.2-1.75-7.08-3.99-4.42-8.6-10.68-21.66-12.08-29.24-.37-2.02-3.61-7.42-3.61-7.42,0,0,.66,1.89,3.81,13.29,2.14,7.74,9.81,24.3,10.85,24.95,1.03.65,4.5,2.45,4.99,2.94,1.73,1.73,21.95,16.92,23.13,17.77,1.18.84,11.11,7.45,11.9,7.98.56.37,6.43,4.27,10.25,7.04.63-1.19,1.42-2.36,1.9-3.74-3.24-1.06-6.85-2.45-10.19-4.28Z" style="fill: url(#_ÂÁ_Ï_ÌÌ_È_ËÂÌÚ_115);"/>
          </g>
          <path d="M-3.7,58.76l-3.02-1.56s.52,10.11,1.06,19.34L.06,79.4l-3.77-20.64Z" style="fill: url(#linear-gradient-3);"/>
        </g>
        <path d="M22.61,71.46s6.58,15.43,23.11,9.96c16.53-5.47,14.17-22.4,14.17-22.4l-3.52,1.12s-1.91,4.28-10.95,6.61c-8.59,2.21-13.83.35-13.83.35l-8.99,4.36Z" style="fill: url(#linear-gradient-4);"/>
        <path d="M77.59,114.22c-.71-6.23.58-24.84.58-24.84,0,0,4.19-8.84,12.69-14.72-2.58-1.27-8.14-10.02-4.97-36.49-15.82,18.13-28.14,21.46-28.14,21.46,0,0-1.23,8.25-17.54,9.33-11.24.74-13.82-.75-13.82-.75,0,0-12.82,1.07-32.69-11.21,8.24,25.42.84,33.08-.71,33.08,11.01,2.75,20.24,12.27,20.24,12.27,0,0,1.07,5.88,2.71,11.88,12.15-1.29,24.11-4,36.85-3.91,9.35,0,15.78,4.49,24.81,3.91Z" style="fill: #f5d534;"/>
        <path d="M25.85,68.13s4.71,5.57,20.87,1.11c13-3.59,13.92-10.95,13.92-10.95l-2.88,1.33s-2.78,5.49-11.02,7.6c-12.34,3.15-16.75.19-16.75.19l-4.13.72Z" style="fill: url(#_ÂÁ_Ï_ÌÌ_È_ËÂÌÚ_147);"/>
        <path d="M-6.3,57s2.53,1.44,3.49,2.07c0,0,7.34,17.63.5,32.76,0,0-3.57-1.41-4.7-1.76,0,0,3.74-2.48,3.66-13.85-.07-10.32-2.95-19.22-2.95-19.22Z" style="fill: url(#_ÂÁ_Ï_ÌÌ_È_ËÂÌÚ_111);"/>
        <g>
          <path d="M30.86,7.76s-.05-.02-.05-.02c.02,0,.04.01.05.02Z" style="fill: url(#_ÂÁ_Ï_ÌÌ_È_ËÂÌÚ_14);"/>
          <g>
            <g>
              <path d="M17.74,38.23c2.02,5.99,3.88,10.58,3.88,10.58-2.63.52-4.36-1.97-5.85-4.09-2.27-3.24-3.95-6.87-.42-7.78.69-.18,2.39,1.29,2.39,1.29Z" style="fill: url(#_ÂÁ_Ï_ÌÌ_È_ËÂÌÚ_1259);"/>
              <path d="M19,47.08s-1.56-1.11-1.69-3.87c-.31-6.51-4.68-6.1-2.85-1.97,0,0,.19-2.15.85-1.65.81.62-.49,1.3.87,4.43.7,1.62,2.82,3.06,2.82,3.06Z" style="fill: url(#linear-gradient-5);"/>
            </g>
            <g>
              <path d="M54.56,30.95c.41,6.31.65,11.13.65,11.13,2.63-.52,3.07-3.35,3.64-5.87.87-3.86,1.04-7.86-2.57-7.35-.7.1-1.72,2.1-1.72,2.1Z" style="fill: url(#_ÂÁ_Ï_ÌÌ_È_ËÂÌÚ_1259-2);"/>
              <path d="M56.77,39.62s1.02-1.62.09-4.22c-2.19-6.14,2.01-7.42,1.89-2.91,0,0-.99-1.92-1.42-1.2-.52.88.94,1.02.88,4.42-.03,1.77-1.45,3.91-1.45,3.91Z" style="fill: url(#linear-gradient-6);"/>
            </g>
            <path d="M48.55,11.89c-3.33-4.79-7.5-7.33-15.57-6.27,0,0-17.72,5.97-18.98,11.66-1.37,6.2.93,14.07,2.68,19.18,1.75,5.1,4.86,13.32,6.64,15.47,1.78,2.15,9.51,6.46,11.15,7.25,1.53.74,3.93,2.69,7.24,2.03,2.94-.58,4.56-3.42,5.66-4.7,1.19-1.38,6.41-8.37,7.25-11.03.83-2.67.65-11.2.33-16.59-.32-5.38-2.77-11.8-6.39-17.01Z" style="fill: url(#_ÂÁ_Ï_ÌÌ_È_ËÂÌÚ_384);"/>
            <path d="M26.06,29.37c-2.63.42-6.58,1.6-7.71,2.85-2.62,2.91.91,8.95.91,8.95,0,0,7.31,5.35,16.74-.69-1.66-4.12-3.65-12.1-9.94-11.11Z" style="fill: url(#linear-gradient-7);"/>
            <path d="M29.34,36.6c-2.48-.24-11.56,2.03-10.53,4.96,2.28,6.48,2.76,7.73,4.33,9.58,1.64,1.94,5.9,4.66,7.49,4.61,2.47-.07,3.26-9.35,2.72-12.38-.75-4.23-1.52-6.54-4.01-6.78Z" style="fill: url(#radial-gradient);"/>
            <path d="M40.61,54.28c-1.66.41-2.89,1.28-2.75,1.94.14.66,1.59.87,3.25.46,1.65-.41,2.88-1.28,2.74-1.94-.14-.66-1.6-.87-3.25-.46Z" style="fill: url(#linear-gradient-8);"/>
            <path d="M50.64,26.51c-1.52-.69-4.91-1.07-7.53-.54-6.42,1.32-4.84,9.21-4.76,13.7,10.99,1.7,15.61-6.26,15.61-6.26,0,0,.22-5.3-3.32-6.91Z" style="fill: url(#linear-gradient-9);"/>
            <path d="M42.76,27.12s3.42-3.08,7.59-1.46c2.22.86,2.3,5.81,2.3,5.81.31.83-.65-2.26-3.04-3.93-1.62-1.13-3.92-1.23-6.85-.43Z" style="fill: url(#linear-gradient-10);"/>
            <path d="M43.36,33.67c2.21-1.17,11.03-4.22,11.2-1.12.36,6.86.32,9.81-.43,12.11-.78,2.42-3.68,6.55-5.17,7.11-2.31.88-6.58-7.41-7.23-10.41-.91-4.2-.57-6.53,1.64-7.7Z" style="fill: url(#radial-gradient-2);"/>
            <path d="M30.81,57.18s5.29,2.5,5.84,2.68c1.08.36,2.12,1.12,4.66.7,2.48-.41,4.13-2.12,4.74-2.72.63-.63,3.43-4.02,3.71-4.43,0,0-2.27,4.26-3.21,5.41-1.54,1.88-3.21,2.41-4.56,2.68-1.7.34-3.32.13-5.11-.6-1.72-.71-6.07-3.71-6.07-3.71Z" style="fill: url(#_ÂÁ_Ï_ÌÌ_È_ËÂÌÚ_1259-3);"/>
            <path d="M23.88,39.45c-.87-.02-1.56.38-1.55.9,0,.52.72.95,1.58.98.87.02,1.56-.38,1.56-.9,0-.52-.72-.96-1.58-.98Z" style="fill: url(#_ÂÁ_Ï_ÌÌ_È_ËÂÌÚ_126);"/>
            <path d="M49.27,34.13c.79-.35,1.59-.24,1.78.24.19.48-.3,1.15-1.09,1.51-.79.35-1.59.24-1.78-.24-.19-.48.3-1.16,1.09-1.51Z" style="fill: url(#_ÂÁ_Ï_ÌÌ_È_ËÂÌÚ_126-2);"/>
            <path d="M54.7,37.35s.25-5.8.25-6.92c.01-6.49-2.92-28.32-25.68-22.35-23.41,6.14-8.8,37.77-8.8,37.77,0,0-2.3-29.12,11.19-32.93,0,0,12.68-2.59,23.04,24.43Z" style="fill: url(#_ÂÁ_Ï_ÌÌ_È_ËÂÌÚ_1259-4);"/>
            <path d="M16.9,37.11s4.07,11.81,6.3,14.88c.72,1,4.27,3.28,7.61,5.19,0,0-6.37-5.1-7.23-6.53-1.87-3.12-6.68-13.54-6.68-13.54Z" style="fill: url(#_ÂÁ_Ï_ÌÌ_È_ËÂÌÚ_1259-5);"/>
            <path d="M55,29.58s.72,12.47-.16,16.15c-.29,1.2-2.43,4.31-5.08,7.67,0,0,3.6-6.29,4.05-8.93.61-3.59,1.19-14.89,1.19-14.89Z" style="fill: url(#_ÂÁ_Ï_ÌÌ_È_ËÂÌÚ_25);"/>
            <path d="M28.88,27.91c.33.27.69,1.28.59,1.86-.17-.88-.73-1.79-1.36-1.89-.06,0-.12,0-.19,0,.47.29.8.79.88,1.46-.28-.45-.8-1.25-1.45-1.43-1.79.08-4.47.23-5.61.69-1.61.65-3.26,3.97-3.26,3.97.48-.53,2.42-1.65,3.94-2.05.98-.26,6.09-.26,7.41-.35.17-.01.19-1.78-.96-2.24Z" style="fill: url(#_ÂÁ_Ï_ÌÌ_È_ËÂÌÚ_41);"/>
            <path d="M39.58,25.79c-.2.38-.16,1.44.16,1.94-.18-.88-.01-1.94.53-2.26.05-.02.11-.05.17-.08-.32.44-.44,1.04-.26,1.68.08-.52.26-1.46.8-1.87,1.69-.61,4.22-1.49,5.45-1.5,1.74-.01,4.52,2.43,4.52,2.43-.64-.3-2.87-.6-4.43-.4-1,.13-5.73,2.07-6.98,2.49-.17.06-.85-1.58.04-2.44Z" style="fill: url(#_ÂÁ_Ï_ÌÌ_È_ËÂÌÚ_41-2);"/>
            <g>
              <g>
                <polygon points="34.12 44.14 38.18 45.9 41.04 42.7 40.48 42.39 37.43 43.04 34.38 43.64 34.12 44.14" style="fill: url(#linear-gradient-11);"/>
                <path d="M34.22,44.06s1.27-.69,2.56-.42l1.45-.29s1.33-.84,2.81-.65l-.07-.67h-1.2s-2.32,1.09-2.32,1.09l-2.35-.17-1.14.37.26.74Z" style="fill: url(#linear-gradient-12);"/>
                <path d="M33.19,41.32s-.56.48-.47,1.45c.11,1.12,1.36,1.49,1.51,1.34.15-.15-.33-.91.75-.97s1.13.48,1.33.62c.21.15,2.06-.17,2.33-.43.27-.26.05-.96,1.04-1.12,1-.16,1.16.51,1.32.57.16.06.64-.58.61-1.62s-1.17-1.27-1.17-1.27c0,0,.71.79.6,1.4-.11.62-1.74.42-2.28.94-1.01.95-1.74.91-2.99.59-.82-.21-1.79.45-2.33-.09-.19-.19-.38-.94-.25-1.41Z" style="fill: #f0c499;"/>
                <path d="M34.48,40.55c.12.7.26.98.65,1.38.59.61,3.9.54,4.13-1.16.05-.34-.06-.84-.24-1.45-.21-.7-4.66.53-4.54,1.23Z" style="fill: url(#_ÂÁ_Ï_ÌÌ_È_ËÂÌÚ_25-2);"/>
              </g>
              <g>
                <path d="M29.56,47.3s8.73-2.08,9.26-2.18c.53-.1,7.87-1.21,7.87-1.21,0,0-7.09,2.3-7.62,2.47-.7.22-9.51.93-9.51.93Z" style="fill: url(#_ÂÁ_Ï_ÌÌ_È_ËÂÌÚ_101);"/>
                <g>
                  <path d="M47.33,44.28c.43-.3.83-.9.53-1.23-.27-.3-1.94,1.44-2.35,3.12.83-1.09,1.39-1.59,1.83-1.89Z" style="fill: url(#_ÂÁ_Ï_ÌÌ_È_ËÂÌÚ_3);"/>
                  <path d="M29.1,47.9c-.52-.08-1.26-.48-1.13-.91.11-.38,2.81.53,3.47,1.77-1.22-.62-1.82-.79-2.34-.86Z" style="fill: url(#_ÂÁ_Ï_ÌÌ_È_ËÂÌÚ_3-2);"/>
                  <path d="M34.78,52.01c1.31,1.35,6.6,4.6,9.38-1.65,0,0-6.8,2.22-9.38,1.65Z" style="fill: url(#_ÂÁ_Ï_ÌÌ_È_ËÂÌÚ_17);"/>
                  <path d="M37.9,46.2c-.9.17-1.73.3-2.49.4-.26.03-4.1,1.09-6.08.81,1.67.99,5.24,3.55,5.63,3.74,1.16.59,3.19.72,4.96.37,2.05-.41,3.26-1.12,4.09-2.32.21-.3,1.88-4.78,3.23-5.42-1.76.8-3.35.96-5.1,1.39-.39.11-.8.23-1.24.35-.88.23-1.87.46-2.99.67Z" style="fill: #951c27;"/>
                  <path d="M34.53,50.82s-.6-.71,1.42-1.51c.72-.28,2.01-.4,3.34-.65,1.19-.22,2.41-.59,3.21-.64,1.49-.11,1.89.64,1.53.93s-2.03,1.72-3.99,2.18c-1.96.45-3.89.7-5.51-.31Z" style="fill: url(#linear-gradient-13);"/>
                  <path d="M43.77,48.21s.37.17.5.49c.1.24-1.59,1.88-2.07,2.11-.48.23-4.51,1.09-5.51.78s-2.11-.75-2.11-.75c0,0-.4-.25.1-.79,0,0,1.87.71,4.63.15,2.82-.57,3.78-1.23,4.46-2Z" style="fill: url(#linear-gradient-14);"/>
                  <path d="M40.51,51.2c-1.93.48-3.67.58-5.18-.2-.82-.43-4.25-2.85-5.63-3.36,1.52.97,2.82,2.45,4.08,3.57,1.26,1.12,3.29,2.76,6.35,2.14,3.44-.7,4.29-3.35,4.82-4.64.72-1.75,1.03-3.47,1.63-4.38-.92.85-2.43,4-2.6,4.32-.21.31-1.74,2.19-3.47,2.54Z" style="fill: #f86d78;"/>
                  <path d="M35.46,50.99c-.8-.37,1.01,2.61,4.51,1.95,4.46-.84,4.38-4.65,3.65-3.85-.72.8-2.12,1.79-3.87,2.15-2.17.44-3.17.19-4.29-.25Z" style="fill: url(#linear-gradient-15);"/>
                  <path d="M43.66,49.86c.12.15-.15.87-1.02,1.49-1.13.79-2.23.8-2.35.66-.12-.15,1.49-.85,1.91-1.19.42-.34,1.34-1.11,1.46-.96Z" style="fill: #ff9aa2;"/>
                  <path d="M44.79,44.42s-.87.66-3.5,1.47c-2.66.81-3.83.87-6.3,1.22-1.13.16-1.85.13-3.31.06,0,0,.32.27.56.62.31.45,2.01,2.12,7.04,1.09,3.78-.78,5.2-2.71,5.31-3.59.07-.52.21-.7.2-.87Z" style="fill: url(#linear-gradient-16);"/>
                  <path d="M31.81,47.27l.44.54s2.41.76,6.88-.12c3.23-.63,5.44-2.33,5.44-2.33l.14-.66-6.28,1.55-6.63,1.02Z" style="fill: url(#linear-gradient-17);"/>
                  <path d="M40.89,45.3c-.8.21-4.23.95-4.88,1.04-.33.04-4.78.83-6.67.98,2.02.49,3.61.3,4.97.25,1.36-.05,3.22-.17,4.35-.43,1.08-.21,3.05-.86,4.34-1.4,1.47-.62,2.51-.95,4.02-1.92-1.77.52-5.87,1.42-6.14,1.49Z" style="fill: #f86d78;"/>
                  <path d="M29.09,47.68c.31.08.49-.19,1.72.03,0,0-2.15-.69-2.27-.6-.08.06.08.46.55.58Z" style="fill: #951c27;"/>
                  <path d="M47.25,44.11c-.26.2-.62.04-1.53.7,0,0,1.63-1.53,1.81-1.45.09.04.1.45-.28.75Z" style="fill: #951c27;"/>
                </g>
              </g>
              <g>
                <g>
                  <path d="M45.86,29.52c-6.08.72-5.64,6.22-5.64,6.22,0,0,2.44-1.91,5.48-2.13,1.39-.1,3.78.44,4.25-.78.89-2.33-1.74-3.6-4.08-3.32Z" style="fill: url(#_ÂÁ_Ï_ÌÌ_È_ËÂÌÚ_1259-6);"/>
                  <path d="M49.92,32.31c1.28-.66.79-2.48.8-2.55-.03.02-.93,1.8-2.74,1.36-4.02-.98-6.74,1.87-7.58,4.25,0,0,2.89-3.34,7.36-2.28,2.52.59,3.06-.87,3.05-.86-.42.23-.89.11-.89.08Z" style="fill: url(#_ÂÁ_Ï_ÌÌ_È_ËÂÌÚ_1655);"/>
                  <path d="M40.74,32.94s.6-1.66,2.25-2.61c1.44-.83,3.54-1.42,5.52-.45,0,0-2.44-.89-5.32.62-1.17.61-2.45,2.44-2.45,2.44Z" style="fill: url(#_ÂÁ_Ï_ÌÌ_È_ËÂÌÚ_1259-7);"/>
                </g>
                <g>
                  <path d="M24.48,34.06c5.85-1.82,7.69,3.39,7.69,3.39,0,0-3.01-.76-5.87.29-1.31.48-3.28,1.94-4.19,1.02-1.76-1.76.13-3.99,2.38-4.69Z" style="fill: url(#_ÂÁ_Ï_ÌÌ_È_ËÂÌÚ_1259-8);"/>
                  <path d="M21.9,38.26c-1.44-.08-1.73-1.94-1.76-2,.03,0,1.59,1.26,3.06.13,3.28-2.53,6.92-1.04,8.65.8,0,0-4-1.88-7.65.9-2.06,1.57-3.15.45-3.14.45.48.04.86-.26.84-.29Z" style="fill: url(#_ÂÁ_Ï_ÌÌ_È_ËÂÌÚ_1655-2);"/>
                  <path d="M30.55,35.1s-1.22-1.27-3.12-1.47c-1.65-.17-3.81.14-5.22,1.83,0,0,1.86-1.81,5.11-1.59,1.32.09,3.23,1.24,3.23,1.24Z" style="fill: url(#_ÂÁ_Ï_ÌÌ_È_ËÂÌÚ_1259-9);"/>
                </g>
              </g>
            </g>
          </g>
          <path d="M57.13,38.7s-.84,12.23-1.55,16.4c-.71,4.16,4.18,16.36,4.18,16.36,0,0,4.71-20.29,1.53-28.12-3.18-7.83-4.16-4.64-4.16-4.64Z" style="fill: url(#_ÂÁ_Ï_ÌÌ_È_ËÂÌÚ_33-8);"/>
          <path d="M14.66,71.27s-.57,5.31-3.4,8.46c0,0,3.83-1.27,4.45-3.7.62-2.43-1.04-4.76-1.04-4.76Z" style="fill: url(#_ÂÁ_Ï_ÌÌ_È_ËÂÌÚ_33-9);"/>
          <path d="M30.21,68.88c-1.66-7.84-6-13.17-8.05-15.22-3.37-3.36-4.73-11.79-4.73-11.79,0,0,.04,13.92-.02,18.92-.09,7.71,4.52,17.55,8.24,19.34,1.74-4.24,1.43-8.83-.09-14.37,3.81,5.61,2.15,11.63,2.01,15.36,1.98-2.89,3.35-8.9,2.65-12.24Z" style="fill: url(#_ÂÁ_Ï_ÌÌ_È_ËÂÌÚ_33-10);"/>
          <path d="M54.7,29.7c1.71,3.64,3.7,8.75,4.79,12.91,2.74,10.44,2.47,30.81-2.63,33.07,1.62-.66,6.06-2.19,8.32-8.21.72,1.81-1.13,3.74-2.43,5.6,2.91-2.71,4.08-4.74,4.08-4.74-.45,1.76.05,2.17-2.2,4.95,1.65-.72,7.09-3.29,9.68-7.61s1.52-10.71,0-14.59c-2.12-5.71-5.93-9.39-12.03-13.41-2.32-2.19-5.39-5.47-7.57-7.95Z" style="fill: url(#_ÂÁ_Ï_ÌÌ_È_ËÂÌÚ_46);"/>
          <path d="M69.13,40.61c-4.7-4.96-13.78-24.16-16.6-27.92C41.54-1.97,30.49,5.9,30.49,5.9l.45,6.42c8.67-3.47,17.9,6.08,23.42,19.98,2.03,2.61,4.41,4.91,6.6,7.24,4.3,5.03,11.55,4.63,8.17,1.08Z" style="fill: url(#_ÂÁ_Ï_ÌÌ_È_ËÂÌÚ_33-11);"/>
          <path d="M15.22,11.66c-4.85,6.3-4.22,14.41-4.12,18.53.06,2.44-2.44,15.11-2.44,24.77,1.44-5.72,6.6-7.19,9.57-12.11.12-.28.22-.57.31-.85-1.31-8.77-1.13-16.35,2.93-22.26,5.11-7.44,9.46-7.41,9.46-7.41l-.45-6.42c-3.52-1.85-12.36,1.98-15.27,5.76Z" style="fill: url(#_ÂÁ_Ï_ÌÌ_È_ËÂÌÚ_33-12);"/>
          <path d="M8.9,54.21c-2.97,8.96-2.31,15.68.37,18.44,2.19,1.97,8.14,6.86,10.88,8.15-1.16-1.15-3.2-3.97-3.23-5.85,2.43,5.44,9.73,6.02,10.64,6.16-6.27-2.73-8.73-8.91-10.01-17.15-.89-5.76-.01-17.8-.43-22.84-.11.28-.23.56-.37.83-3.28,4.72-6.06,6.63-7.86,12.25Z" style="fill: url(#_ÂÁ_Ï_ÌÌ_È_ËÂÌÚ_55);"/>
          <path d="M30.94,12.32s6.6-5.63,13.2-.6c6.6,5.03,10,18.51,14.73,25.02,4.72,6.51,13.33,13.31,13.95,19.68.89,9.24-4.44,12.85-4.44,12.85,0,0,4.85-5.95,1.2-14.31-2.99-6.86-11.7-12.38-14.84-19.88-3.15-7.5-7.27-18.93-13.99-22.45-5.96-3.13-9.8-.3-9.8-.3Z" style="fill: url(#linear-gradient-18);"/>
          <path d="M30.27,9.88s-12.01-.78-15.7,9.74c-3.69,10.52-7.22,22.45-7.22,22.45,0,0,4.33-22.94,5.07-25.11,1.08-3.16,7.71-12.36,17.85-7.09Z" style="fill: url(#_ÂÁ_Ï_ÌÌ_È_ËÂÌÚ_33-13);"/>
          <path d="M31.5,9.92s5.68-4.14,15.42.3c5.34,2.44,17.96,23.27,17.96,23.27,0,0-9.73-18.02-13.62-22.89-3.89-4.87-15.09-9-19.77-.68Z" style="fill: url(#_ÂÁ_Ï_ÌÌ_È_ËÂÌÚ_33-14);"/>
          <path d="M15.91,46.9s-6.04,10.12-6.88,16.86c-.83,6.74-3.37,12.59-6.81,13.22,0,0,4.59-.83,6.64-3.42s3.94-20.57,7.05-26.66Z" style="fill: url(#_ÂÁ_Ï_ÌÌ_È_ËÂÌÚ_48);"/>
          <path d="M18.7,28.8s-1.91,9.18-2.15,20.29c-.2,9.04-1.24,13.03.08,18.61,1.45,6.14,4.3,12.3,10.94,13.42,0,0-5.3-1.82-8.46-13.75-1.1-4.16-.72-11.41-.58-18.55.19-10.2.18-20.03.18-20.03Z" style="fill: url(#linear-gradient-19);"/>
          <path d="M59.77,48.94s8.04,22.02-2.92,26.74c0,0,6.29-4.77,2.92-26.74Z" style="fill: url(#linear-gradient-20);"/>
          <path d="M55.87,44.89s-1.01,5.18-1.87,9.53c-1.49,7.52,3.34,12.76,3.34,12.76,0,0-2.39-5.38-1.29-10.63.89-4.25-.17-11.67-.17-11.67Z" style="fill: url(#linear-gradient-21);"/>
          <path d="M22.84,54.18s5.44,4.07,7.97,9.66c2.66,5.86-.41,14.12-.41,14.12,0,0,.25-9.08-1.47-13.81-1.72-4.73-6.09-9.96-6.09-9.96Z" style="fill: url(#linear-gradient-22);"/>
          <path d="M15.41,67.66s.12,9.66,5.37,13.73c0,0-8.99-1.63-5.37-13.73Z" style="fill: url(#linear-gradient-23);"/>
          <path d="M65.32,59.85s4,7.99-2.83,13.42c0,0,4.93-7.18,2.83-13.42Z" style="fill: url(#linear-gradient-24);"/>
          <path d="M30.89,8.47s8.29-4.98,20.1,1.8c0,0-9.29-10.41-19.89-4.81,0,0-9.14-3.22-15.87,6.21,0,0,2-2.34,6.02-3.65,3.35-1.09,8.72-1.42,9.65.47Z" style="fill: url(#linear-gradient-25);"/>
          <path d="M49.34,22.87s-2.04-7.8-6.95-10.51-8.46-1.92-11.45-.04c0,0,4.13-1.97,7.56-.06,4.57,2.53,7.32,4.88,10.84,10.61Z" style="fill: url(#_ÂÁ_Ï_ÌÌ_È_ËÂÌÚ_33-15);"/>
          <path d="M30.94,12.32s-2.85-.13-4.98.97c-4.12,2.12-8.56,7.11-7.26,18.05,0,0,1.91-11.93,7.38-16.39,2.95-2.41,4.86-2.62,4.86-2.62Z" style="fill: url(#_ÂÁ_Ï_ÌÌ_È_ËÂÌÚ_33-16);"/>
          <path d="M31.69,10.38s8.17-8.4,17.74,1.41c6.99,7.17,12.52,17.02,12.52,17.02,0,0-10.81-16.08-19.65-19.37-6.18-2.3-10.6.94-10.6.94Z" style="fill: url(#_ÂÁ_Ï_ÌÌ_È_ËÂÌÚ_33-17);"/>
          <path d="M30.27,9.88s-3.94-1.2-8.62.91c-3.65,1.64-6.28,5.41-7.53,9.57-.82,2.72-4.99,14.94-6.62,21.32,0,0,7.14-13.64,8.6-20.72,1.06-5.13,6.39-11.49,14.18-11.07Z" style="fill: url(#_ÂÁ_Ï_ÌÌ_È_ËÂÌÚ_33-18);"/>
          <path d="M52.12,21.13s5.09,14.34,18.37,26.8l-18.37-26.8Z" style="fill: url(#_ÂÁ_Ï_ÌÌ_È_ËÂÌÚ_33-19);"/>
          <path d="M18.45,23.52l-9.64,24.95s12.17-9.57,9.64-24.95Z" style="fill: url(#_ÂÁ_Ï_ÌÌ_È_ËÂÌÚ_33-20);"/>
          <path d="M57.5,34.74s7.85,2.95,13.31,7.05c5.99,4.5,8.92,9.68,8.88,17.64,0,0-2.47-8.19-11.83-17.05-3.76-3.55-10.36-7.64-10.36-7.64Z" style="fill: url(#_ÂÁ_Ï_ÌÌ_È_ËÂÌÚ_45);"/>
          <path d="M30.94,12.32s-7.22-3.17-11.27,4.84c-3.39,6.71-1.99,14.97-7.07,25.1-2.11,4.2-9.77,11.59-4.91,24.31,0,0-1.35-9.95,4.07-18.1s7.27-14.57,7.92-22.71c.9-11.38,6.66-13.3,11.27-13.44Z" style="fill: url(#linear-gradient-26);"/>
          <path d="M20.91,53.55s8.28,14.78,5.11,25.54c0,0-3.62-20.6-5.11-25.54Z" style="fill: url(#_ÂÁ_Ï_ÌÌ_È_ËÂÌÚ_46-2);"/>
        </g>
      </g>
    </g>
  </g>
</svg>