<?xml version="1.0" encoding="UTF-8"?>
<svg id="Layer_2" data-name="Layer 2" xmlns="http://www.w3.org/2000/svg" width="234" height="234" xmlns:xlink="http://www.w3.org/1999/xlink" viewBox="0 0 234 234">
  <defs>
    <clipPath id="clippath">
      <rect width="234" height="234" style="fill: none;"/>
    </clipPath>
    <linearGradient id="_ÂÁ_Ï_ÌÌ_È_ËÂÌÚ_8" data-name="¡ÂÁ˚ÏˇÌÌ˚È „‡‰ËÂÌÚ 8" x1="418.81" y1="304.68" x2="398.68" y2="234.68" gradientTransform="translate(-89.76 -147.1) rotate(18.76)" gradientUnits="userSpaceOnUse">
      <stop offset="0" stop-color="#3b2621"/>
      <stop offset=".39" stop-color="#3e2822"/>
      <stop offset=".71" stop-color="#482e29"/>
      <stop offset="1" stop-color="#593a33"/>
    </linearGradient>
    <linearGradient id="_ÂÁ_Ï_ÌÌ_È_ËÂÌÚ_8-2" data-name="¡ÂÁ˚ÏˇÌÌ˚È „‡‰ËÂÌÚ 8" x1="1243.13" y1="-3.45" x2="1222.99" y2="-73.46" gradientTransform="translate(1174.69 -195.51) rotate(156.9) scale(1 -1)" xlink:href="#_ÂÁ_Ï_ÌÌ_È_ËÂÌÚ_8"/>
    <linearGradient id="_ÂÁ_Ï_ÌÌ_È_ËÂÌÚ_8-3" data-name="¡ÂÁ˚ÏˇÌÌ˚È „‡‰ËÂÌÚ 8" x1="114.72" y1="249.7" x2="195.43" y2="-218.42" gradientTransform="translate(-31.91 74.86) rotate(-2.17)" xlink:href="#_ÂÁ_Ï_ÌÌ_È_ËÂÌÚ_8"/>
    <linearGradient id="linear-gradient" x1="69.54" y1="192.13" x2="155.73" y2="218.33" gradientUnits="userSpaceOnUse">
      <stop offset="0" stop-color="#f0c499"/>
      <stop offset=".52" stop-color="#f1c69b"/>
      <stop offset=".85" stop-color="#f4cea4"/>
      <stop offset="1" stop-color="#f7d4ab"/>
    </linearGradient>
    <linearGradient id="linear-gradient-2" x1="57.37" y1="56.83" x2="163.92" y2="121.57" gradientTransform="translate(-54.27 173.1) rotate(-16.11)" xlink:href="#linear-gradient"/>
    <linearGradient id="linear-gradient-3" x1="357.32" y1="855.35" x2="240.3" y2="888.22" gradientTransform="translate(89.86 -689.64) rotate(13.36)" xlink:href="#linear-gradient"/>
    <linearGradient id="linear-gradient-4" x1="84.34" y1="251.55" x2="221.13" y2="214.28" xlink:href="#linear-gradient"/>
    <linearGradient id="_ÂÁ_Ï_ÌÌ_È_ËÂÌÚ_29" data-name="¡ÂÁ˚ÏˇÌÌ˚È „‡‰ËÂÌÚ 29" x1="124.54" y1="253.85" x2="120.98" y2="219.54" gradientUnits="userSpaceOnUse">
      <stop offset="0" stop-color="#d6b01f"/>
      <stop offset=".42" stop-color="#e0bc26"/>
      <stop offset="1" stop-color="#f5d534"/>
    </linearGradient>
    <linearGradient id="linear-gradient-5" x1="116.02" y1="166.8" x2="125.36" y2="206.38" gradientUnits="userSpaceOnUse">
      <stop offset="0" stop-color="#dba379"/>
      <stop offset=".49" stop-color="#e3b086"/>
      <stop offset="1" stop-color="#f0c499"/>
    </linearGradient>
    <linearGradient id="_ÂÁ_Ï_ÌÌ_È_ËÂÌÚ_14" data-name="¡ÂÁ˚ÏˇÌÌ˚È „‡‰ËÂÌÚ 14" x1="187.12" y1="50.25" x2="187.02" y2="49.99" gradientTransform="translate(-68.22 -26.22) rotate(.15)" gradientUnits="userSpaceOnUse">
      <stop offset="0" stop-color="#cb8076"/>
      <stop offset=".31" stop-color="#b76f65"/>
      <stop offset=".95" stop-color="#86443a"/>
      <stop offset="1" stop-color="#824137"/>
    </linearGradient>
    <linearGradient id="_ÂÁ_Ï_ÌÌ_È_ËÂÌÚ_18" data-name="¡ÂÁ˚ÏˇÌÌ˚È „‡‰ËÂÌÚ 18" x1="127.6" y1="177.82" x2="119.54" y2="152.68" gradientTransform="translate(-65.27 -34.08) rotate(.88)" gradientUnits="userSpaceOnUse">
      <stop offset="0" stop-color="#dba379"/>
      <stop offset=".49" stop-color="#e3b086"/>
      <stop offset="1" stop-color="#f0c499"/>
    </linearGradient>
    <linearGradient id="linear-gradient-6" x1="-2893.73" y1="326.51" x2="-2892.09" y2="383.86" gradientTransform="translate(2949.74 -18.47) rotate(.15)" xlink:href="#linear-gradient-5"/>
    <linearGradient id="_ÂÁ_Ï_ÌÌ_È_ËÂÌÚ_18-2" data-name="¡ÂÁ˚ÏˇÌÌ˚È „‡‰ËÂÌÚ 18" x1="242.1" y1="158.11" x2="261.47" y2="158.11" xlink:href="#_ÂÁ_Ï_ÌÌ_È_ËÂÌÚ_18"/>
    <linearGradient id="linear-gradient-7" x1="-136.47" y1="326.89" x2="-134.83" y2="384.24" gradientTransform="translate(45.22 -26.41) rotate(-179.85) scale(1 -1)" xlink:href="#linear-gradient-5"/>
    <linearGradient id="_ÂÁ_Ï_ÌÌ_È_ËÂÌÚ_384" data-name="¡ÂÁ˚ÏˇÌÌ˚È „‡‰ËÂÌÚ 384" x1="186.49" y1="67.86" x2="186.25" y2="224.99" gradientTransform="translate(-68.22 -26.22) rotate(.15)" gradientUnits="userSpaceOnUse">
      <stop offset="0" stop-color="#ffd9b3"/>
      <stop offset=".32" stop-color="#f9d5ad"/>
      <stop offset="1" stop-color="#f7d4ab"/>
    </linearGradient>
    <linearGradient id="linear-gradient-8" x1="158.21" y1="165.83" x2="150.98" y2="121.1" gradientTransform="translate(-68.22 -26.22) rotate(.15)" gradientUnits="userSpaceOnUse">
      <stop offset="0" stop-color="#f7d4ab"/>
      <stop offset=".52" stop-color="#f5d1a8"/>
      <stop offset=".85" stop-color="#f2c99f"/>
      <stop offset="1" stop-color="#f0c499"/>
    </linearGradient>
    <radialGradient id="radial-gradient" cx="-236.45" cy="167.81" fx="-236.45" fy="167.81" r="32.11" gradientTransform="translate(267.77 -25.87) rotate(.14) scale(.79 1)" gradientUnits="userSpaceOnUse">
      <stop offset="0" stop-color="#f9b38e"/>
      <stop offset=".61" stop-color="#f7c59e"/>
      <stop offset="1" stop-color="#f7d4ab"/>
    </radialGradient>
    <linearGradient id="linear-gradient-9" x1="170.55" y1="208.76" x2="196.7" y2="208.76" gradientTransform="translate(-68.22 -26.22) rotate(.15)" gradientUnits="userSpaceOnUse">
      <stop offset="0" stop-color="#ffd9b3"/>
      <stop offset=".68" stop-color="#fcd7b0"/>
      <stop offset="1" stop-color="#f7d4ab"/>
    </linearGradient>
    <linearGradient id="_ÂÁ_Ï_ÌÌ_È_ËÂÌÚ_18-3" data-name="¡ÂÁ˚ÏˇÌÌ˚È „‡‰ËÂÌÚ 18" x1="233.31" y1="79.85" x2="144.93" y2="152.12" gradientTransform="translate(-68.22 -26.22) rotate(.15)" xlink:href="#_ÂÁ_Ï_ÌÌ_È_ËÂÌÚ_18"/>
    <linearGradient id="_ÂÁ_Ï_ÌÌ_È_ËÂÌÚ_72" data-name="¡ÂÁ˚ÏˇÌÌ˚È „‡‰ËÂÌÚ 72" x1="135.63" y1="190.78" x2="131.14" y2="115.16" gradientTransform="translate(-68.22 -26.22) rotate(.15)" gradientUnits="userSpaceOnUse">
      <stop offset="0" stop-color="#f9b38e"/>
      <stop offset=".5" stop-color="#f7b690"/>
      <stop offset=".9" stop-color="#f2c096"/>
      <stop offset="1" stop-color="#f0c499"/>
    </linearGradient>
    <linearGradient id="linear-gradient-10" x1="220.12" y1="159.3" x2="213.15" y2="120.69" xlink:href="#linear-gradient-8"/>
    <linearGradient id="_ÂÁ_Ï_ÌÌ_È_ËÂÌÚ_18-4" data-name="¡ÂÁ˚ÏˇÌÌ˚È „‡‰ËÂÌÚ 18" x1="124.54" y1="170.42" x2="156.02" y2="170.42" gradientTransform="translate(-68.22 -26.22) rotate(.15)" xlink:href="#_ÂÁ_Ï_ÌÌ_È_ËÂÌÚ_18"/>
    <linearGradient id="linear-gradient-11" x1="211.55" y1="129.91" x2="241.31" y2="129.91" xlink:href="#linear-gradient-9"/>
    <radialGradient id="radial-gradient-2" cx="3335.61" cy="167.15" fx="3335.61" fy="167.15" r="32.1" gradientTransform="translate(2803.57 -18.81) rotate(-179.86) scale(.79 -1)" xlink:href="#radial-gradient"/>
    <linearGradient id="_ÂÁ_Ï_ÌÌ_È_ËÂÌÚ_72-2" data-name="¡ÂÁ˚ÏˇÌÌ˚È „‡‰ËÂÌÚ 72" x1="769.09" y1="187.53" x2="764.92" y2="117.36" gradientTransform="translate(938.18 -24.11) rotate(-179.85) scale(1 -1)" xlink:href="#_ÂÁ_Ï_ÌÌ_È_ËÂÌÚ_72"/>
    <linearGradient id="_ÂÁ_Ï_ÌÌ_È_ËÂÌÚ_18-5" data-name="¡ÂÁ˚ÏˇÌÌ˚È „‡‰ËÂÌÚ 18" x1="1367.38" y1="108.88" x2="1335.35" y2="121.32" gradientTransform="translate(-1205.14)" xlink:href="#_ÂÁ_Ï_ÌÌ_È_ËÂÌÚ_18"/>
    <linearGradient id="_ÂÁ_Ï_ÌÌ_È_ËÂÌÚ_35" data-name="¡ÂÁ˚ÏˇÌÌ˚È „‡‰ËÂÌÚ 35" x1="655.95" y1="112.1" x2="624.27" y2="119.89" gradientTransform="translate(-492.73)" gradientUnits="userSpaceOnUse">
      <stop offset="0" stop-color="#ece7e7"/>
      <stop offset=".23" stop-color="#f5f3f3"/>
      <stop offset=".53" stop-color="#fcfcfc"/>
      <stop offset="1" stop-color="#fff"/>
    </linearGradient>
    <linearGradient id="_ÂÁ_Ï_ÌÌ_È_ËÂÌÚ_133" data-name="¡ÂÁ˚ÏˇÌÌ˚È „‡‰ËÂÌÚ 133" x1="-681.53" y1="118.87" x2="-678.33" y2="121.17" gradientTransform="translate(-546.79) rotate(-180) scale(1 -1)" gradientUnits="userSpaceOnUse">
      <stop offset="0" stop-color="#fff"/>
      <stop offset=".46" stop-color="#f2f2f2"/>
      <stop offset="1" stop-color="#ddd"/>
    </linearGradient>
    <linearGradient id="_ÂÁ_Ï_ÌÌ_È_ËÂÌÚ_12" data-name="¡ÂÁ˚ÏˇÌÌ˚È „‡‰ËÂÌÚ 12" x1="753.71" y1="-26.92" x2="772.11" y2="-26.92" gradientTransform="translate(-615.75 103) rotate(2.88)" gradientUnits="userSpaceOnUse">
      <stop offset="0" stop-color="#715241"/>
      <stop offset="1" stop-color="#b89c8c"/>
    </linearGradient>
    <linearGradient id="_ÂÁ_Ï_ÌÌ_È_ËÂÌÚ_12-2" data-name="¡ÂÁ˚ÏˇÌÌ˚È „‡‰ËÂÌÚ 12" x1="134.47" y1="111" x2="152.32" y2="113.27" gradientTransform="matrix(1,0,0,1,0,0)" xlink:href="#_ÂÁ_Ï_ÌÌ_È_ËÂÌÚ_12"/>
    <linearGradient id="_ÂÁ_Ï_ÌÌ_È_ËÂÌÚ_6" data-name="¡ÂÁ˚ÏˇÌÌ˚È „‡‰ËÂÌÚ 6" x1="159.05" y1="124.82" x2="148.95" y2="115.58" gradientUnits="userSpaceOnUse">
      <stop offset="0" stop-color="#b89c8c"/>
      <stop offset="1" stop-color="#715241"/>
    </linearGradient>
    <radialGradient id="_ÂÁ_Ï_ÌÌ_È_ËÂÌÚ_128" data-name="¡ÂÁ˚ÏˇÌÌ˚È „‡‰ËÂÌÚ 128" cx="636.37" cy="112.34" fx="636.37" fy="112.34" r="6.38" gradientTransform="translate(-492.73)" gradientUnits="userSpaceOnUse">
      <stop offset="0" stop-color="#666"/>
      <stop offset="1" stop-color="#1d1d1d"/>
    </radialGradient>
    <linearGradient id="_ÂÁ_Ï_ÌÌ_È_ËÂÌÚ_1655" data-name="¡ÂÁ˚ÏˇÌÌ˚È „‡‰ËÂÌÚ 1655" x1="1335.99" y1="114.54" x2="1372.21" y2="114.54" gradientTransform="translate(-1205.14)" gradientUnits="userSpaceOnUse">
      <stop offset="0" stop-color="#4d322e"/>
      <stop offset=".06" stop-color="#4a302c"/>
      <stop offset=".55" stop-color="#3d2622"/>
      <stop offset="1" stop-color="#39231f"/>
    </linearGradient>
    <linearGradient id="_ÂÁ_Ï_ÌÌ_È_ËÂÌÚ_18-6" data-name="¡ÂÁ˚ÏˇÌÌ˚È „‡‰ËÂÌÚ 18" x1="1351.78" y1="105.35" x2="1327.9" y2="135.75" gradientTransform="translate(-1205.14)" xlink:href="#_ÂÁ_Ï_ÌÌ_È_ËÂÌÚ_18"/>
    <linearGradient id="_ÂÁ_Ï_ÌÌ_È_ËÂÌÚ_44" data-name="¡ÂÁ˚ÏˇÌÌ˚È „‡‰ËÂÌÚ 44" x1="131.05" y1="114.54" x2="160.74" y2="114.54" gradientUnits="userSpaceOnUse">
      <stop offset="0" stop-color="#38221e"/>
      <stop offset=".77" stop-color="#291915"/>
    </linearGradient>
    <linearGradient id="_ÂÁ_Ï_ÌÌ_È_ËÂÌÚ_18-7" data-name="¡ÂÁ˚ÏˇÌÌ˚È „‡‰ËÂÌÚ 18" x1="1478.19" y1="108.92" x2="1446.16" y2="121.36" gradientTransform="translate(1550.8) rotate(-180) scale(1 -1)" xlink:href="#_ÂÁ_Ï_ÌÌ_È_ËÂÌÚ_18"/>
    <linearGradient id="_ÂÁ_Ï_ÌÌ_È_ËÂÌÚ_35-2" data-name="¡ÂÁ˚ÏˇÌÌ˚È „‡‰ËÂÌÚ 35" x1="766.75" y1="112.13" x2="735.08" y2="119.93" gradientTransform="translate(838.38) rotate(-180) scale(1 -1)" xlink:href="#_ÂÁ_Ï_ÌÌ_È_ËÂÌÚ_35"/>
    <linearGradient id="_ÂÁ_Ï_ÌÌ_È_ËÂÌÚ_133-2" data-name="¡ÂÁ˚ÏˇÌÌ˚È „‡‰ËÂÌÚ 133" x1="100.21" y1="118.91" x2="103.34" y2="121.16" gradientTransform="matrix(1,0,0,1,0,0)" xlink:href="#_ÂÁ_Ï_ÌÌ_È_ËÂÌÚ_133"/>
    <linearGradient id="_ÂÁ_Ï_ÌÌ_È_ËÂÌÚ_6-2" data-name="¡ÂÁ˚ÏˇÌÌ˚È „‡‰ËÂÌÚ 6" x1="110" y1="115.44" x2="82.02" y2="114.38" xlink:href="#_ÂÁ_Ï_ÌÌ_È_ËÂÌÚ_6"/>
    <linearGradient id="_ÂÁ_Ï_ÌÌ_È_ËÂÌÚ_12-3" data-name="¡ÂÁ˚ÏˇÌÌ˚È „‡‰ËÂÌÚ 12" x1="81.39" y1="113.01" x2="97.77" y2="113.01" gradientTransform="matrix(1,0,0,1,0,0)" xlink:href="#_ÂÁ_Ï_ÌÌ_È_ËÂÌÚ_12"/>
    <linearGradient id="_ÂÁ_Ï_ÌÌ_È_ËÂÌÚ_12-4" data-name="¡ÂÁ˚ÏˇÌÌ˚È „‡‰ËÂÌÚ 12" x1="90.6" y1="118.42" x2="93.32" y2="130.07" gradientTransform="matrix(1,0,0,1,0,0)" xlink:href="#_ÂÁ_Ï_ÌÌ_È_ËÂÌÚ_12"/>
    <radialGradient id="_ÂÁ_Ï_ÌÌ_È_ËÂÌÚ_128-2" data-name="¡ÂÁ˚ÏˇÌÌ˚È „‡‰ËÂÌÚ 128" cx="747.18" cy="112.38" fx="747.18" fy="112.38" r="6.38" gradientTransform="translate(838.38) rotate(-180) scale(1 -1)" xlink:href="#_ÂÁ_Ï_ÌÌ_È_ËÂÌÚ_128"/>
    <linearGradient id="_ÂÁ_Ï_ÌÌ_È_ËÂÌÚ_1655-2" data-name="¡ÂÁ˚ÏˇÌÌ˚È „‡‰ËÂÌÚ 1655" x1="1446.79" y1="114.58" x2="1483.02" y2="114.58" gradientTransform="translate(1550.8) rotate(-180) scale(1 -1)" xlink:href="#_ÂÁ_Ï_ÌÌ_È_ËÂÌÚ_1655"/>
    <linearGradient id="_ÂÁ_Ï_ÌÌ_È_ËÂÌÚ_18-8" data-name="¡ÂÁ˚ÏˇÌÌ˚È „‡‰ËÂÌÚ 18" x1="1462.59" y1="105.38" x2="1438.71" y2="135.78" gradientTransform="translate(1550.8) rotate(-180) scale(1 -1)" xlink:href="#_ÂÁ_Ï_ÌÌ_È_ËÂÌÚ_18"/>
    <linearGradient id="_ÂÁ_Ï_ÌÌ_È_ËÂÌÚ_44-2" data-name="¡ÂÁ˚ÏˇÌÌ˚È „‡‰ËÂÌÚ 44" x1="74.11" y1="114.57" x2="103.8" y2="114.57" xlink:href="#_ÂÁ_Ï_ÌÌ_È_ËÂÌÚ_44"/>
    <linearGradient id="linear-gradient-12" x1="187.52" y1="182.2" x2="185.33" y2="171.21" xlink:href="#linear-gradient-8"/>
    <linearGradient id="linear-gradient-13" x1="185.79" y1="170.34" x2="185.73" y2="178.97" gradientTransform="translate(-68.22 -26.22) rotate(.15)" xlink:href="#linear-gradient-5"/>
    <linearGradient id="_ÂÁ_Ï_ÌÌ_È_ËÂÌÚ_23" data-name="¡ÂÁ˚ÏˇÌÌ˚È „‡‰ËÂÌÚ 23" x1="185.27" y1="158.6" x2="185.39" y2="167.45" gradientTransform="translate(-68.22 -26.22) rotate(.15)" gradientUnits="userSpaceOnUse">
      <stop offset="0" stop-color="#f7d4ab"/>
      <stop offset="1" stop-color="#ffd9b3"/>
    </linearGradient>
    <linearGradient id="linear-gradient-14" x1="172.69" y1="159.62" x2="172.53" y2="148.91" gradientTransform="translate(-55.72 -2.04) rotate(-.02)" gradientUnits="userSpaceOnUse">
      <stop offset="0" stop-color="#ffd9b3"/>
      <stop offset="1" stop-color="#f7d4ab"/>
    </linearGradient>
    <linearGradient id="linear-gradient-15" x1="156.39" y1="199.7" x2="167.04" y2="199.7" gradientTransform="translate(-67.32 -47.41) rotate(1.03)" xlink:href="#linear-gradient-5"/>
    <linearGradient id="_ÂÁ_Ï_ÌÌ_È_ËÂÌÚ_17" data-name="¡ÂÁ˚ÏˇÌÌ˚È „‡‰ËÂÌÚ 17" x1="210.46" y1="199.15" x2="220.51" y2="199.15" gradientTransform="translate(-67.32 -47.41) rotate(1.03)" gradientUnits="userSpaceOnUse">
      <stop offset="0" stop-color="#f0c499"/>
      <stop offset=".51" stop-color="#e3b086"/>
      <stop offset="1" stop-color="#dba379"/>
    </linearGradient>
    <linearGradient id="linear-gradient-16" x1="173.26" y1="215.42" x2="204.82" y2="215.42" gradientTransform="translate(-67.32 -47.41) rotate(1.03)" xlink:href="#linear-gradient-5"/>
    <linearGradient id="linear-gradient-17" x1="214.24" y1="416.7" x2="215.3" y2="416.7" gradientTransform="translate(6705.04 -13884.35) rotate(177.91) scale(33.05 -33.11) skewX(-.01)" gradientUnits="userSpaceOnUse">
      <stop offset="0" stop-color="#e8d8d7"/>
      <stop offset=".14" stop-color="#efe4e4"/>
      <stop offset=".39" stop-color="#faf8f7"/>
      <stop offset=".57" stop-color="#fff"/>
      <stop offset="1" stop-color="#e8d2d1"/>
    </linearGradient>
    <linearGradient id="linear-gradient-18" x1="191.29" y1="368.87" x2="192.21" y2="368.87" gradientTransform="translate(-11617.57 20644.93) rotate(.18) scale(59.3 -55.63) skewX(.79)" gradientUnits="userSpaceOnUse">
      <stop offset="0" stop-color="#e8d8d7"/>
      <stop offset=".04" stop-color="#ebdddc"/>
      <stop offset=".21" stop-color="#f6f0ef"/>
      <stop offset=".38" stop-color="#fcfbfb"/>
      <stop offset=".57" stop-color="#fff"/>
      <stop offset=".69" stop-color="#fbf7f7"/>
      <stop offset=".87" stop-color="#f1e3e3"/>
      <stop offset="1" stop-color="#e8d2d1"/>
    </linearGradient>
    <linearGradient id="linear-gradient-19" x1="184.61" y1="361.92" x2="185.63" y2="361.92" gradientTransform="translate(-5762.86 15096.06) rotate(-5.59) scale(39.48 -39.48)" gradientUnits="userSpaceOnUse">
      <stop offset="0" stop-color="#f96e7e"/>
      <stop offset=".03" stop-color="#f9707f"/>
      <stop offset=".25" stop-color="#fd7985"/>
      <stop offset=".53" stop-color="#ff7d88"/>
      <stop offset=".76" stop-color="#fd7985"/>
      <stop offset="1" stop-color="#f86d7d"/>
      <stop offset="1" stop-color="#f86d7d"/>
    </linearGradient>
    <linearGradient id="linear-gradient-20" x1="157.15" y1="251.75" x2="199.78" y2="251.87" gradientTransform="translate(-56.69 -96.17) rotate(.83)" gradientUnits="userSpaceOnUse">
      <stop offset="0" stop-color="#e8d8d7"/>
      <stop offset=".05" stop-color="#eadcdb"/>
      <stop offset=".31" stop-color="#f6efee"/>
      <stop offset=".48" stop-color="#fbf6f6"/>
      <stop offset="1" stop-color="#e8d2d1"/>
    </linearGradient>
    <linearGradient id="linear-gradient-21" x1="154.8" y1="209.07" x2="185.3" y2="209.07" gradientTransform="translate(-51.55 -52.74) rotate(.13)" xlink:href="#linear-gradient-19"/>
    <linearGradient id="_ÂÁ_Ï_ÌÌ_È_ËÂÌÚ_23-2" data-name="¡ÂÁ˚ÏˇÌÌ˚È „‡‰ËÂÌÚ 23" x1="218.38" y1="170.37" x2="249.88" y2="170.37" xlink:href="#_ÂÁ_Ï_ÌÌ_È_ËÂÌÚ_23"/>
    <linearGradient id="_ÂÁ_Ï_ÌÌ_È_ËÂÌÚ_18-9" data-name="¡ÂÁ˚ÏˇÌÌ˚È „‡‰ËÂÌÚ 18" x1="187.09" y1="208.13" x2="184.68" y2="243.13" gradientTransform="translate(-68.22 -26.22) rotate(.15)" xlink:href="#_ÂÁ_Ï_ÌÌ_È_ËÂÌÚ_18"/>
    <linearGradient id="_ÂÁ_Ï_ÌÌ_È_ËÂÌÚ_11" data-name="¡ÂÁ˚ÏˇÌÌ˚È „‡‰ËÂÌÚ 11" x1="345.31" y1="110.77" x2="389.61" y2="109.73" gradientTransform="translate(-290.61 19.92) rotate(-5.93)" gradientUnits="userSpaceOnUse">
      <stop offset="0" stop-color="#3b2621"/>
      <stop offset=".41" stop-color="#3c2722"/>
      <stop offset=".56" stop-color="#432c25"/>
      <stop offset=".66" stop-color="#4f362c"/>
      <stop offset=".75" stop-color="#604335"/>
      <stop offset=".82" stop-color="#765441"/>
      <stop offset=".88" stop-color="#916950"/>
      <stop offset=".94" stop-color="#b18262"/>
      <stop offset=".99" stop-color="#d69f76"/>
      <stop offset="1" stop-color="#dba379"/>
    </linearGradient>
    <linearGradient id="_ÂÁ_Ï_ÌÌ_È_ËÂÌÚ_11-2" data-name="¡ÂÁ˚ÏˇÌÌ˚È „‡‰ËÂÌÚ 11" x1="993.73" y1="154.12" x2="1038.04" y2="153.08" gradientTransform="translate(1174.56 47.97) rotate(-173.85) scale(1 -1)" xlink:href="#_ÂÁ_Ï_ÌÌ_È_ËÂÌÚ_11"/>
    <linearGradient id="_ÂÁ_Ï_ÌÌ_È_ËÂÌÚ_126" data-name="¡ÂÁ˚ÏˇÌÌ˚È „‡‰ËÂÌÚ 126" x1="215.3" y1="388.07" x2="216.08" y2="388.07" gradientTransform="translate(-2759.37 5048.99) rotate(.87) scale(12.79 -12.79)" gradientUnits="userSpaceOnUse">
      <stop offset="0" stop-color="#ffd9b3"/>
      <stop offset=".52" stop-color="#fccfa9"/>
      <stop offset="1" stop-color="#f8c39c"/>
    </linearGradient>
    <linearGradient id="_ÂÁ_Ï_ÌÌ_È_ËÂÌÚ_126-2" data-name="¡ÂÁ˚ÏˇÌÌ˚È „‡‰ËÂÌÚ 126" x1="294.63" y1="389.08" x2="295.41" y2="389.08" gradientTransform="translate(3984.19 5066.39) rotate(179.42) scale(12.79)" xlink:href="#_ÂÁ_Ï_ÌÌ_È_ËÂÌÚ_126"/>
    <linearGradient id="_ÂÁ_Ï_ÌÌ_È_ËÂÌÚ_8-4" data-name="¡ÂÁ˚ÏˇÌÌ˚È „‡‰ËÂÌÚ 8" x1="184.48" y1="153.99" x2="271.36" y2="261.29" gradientTransform="translate(-68.22 -26.22) rotate(.15)" xlink:href="#_ÂÁ_Ï_ÌÌ_È_ËÂÌÚ_8"/>
    <linearGradient id="_ÂÁ_Ï_ÌÌ_È_ËÂÌÚ_8-5" data-name="¡ÂÁ˚ÏˇÌÌ˚È „‡‰ËÂÌÚ 8" x1="282.96" y1="292.63" x2="272.31" y2="255.59" gradientTransform="translate(-68.22 -26.22) rotate(.15)" xlink:href="#_ÂÁ_Ï_ÌÌ_È_ËÂÌÚ_8"/>
    <linearGradient id="_ÂÁ_Ï_ÌÌ_È_ËÂÌÚ_8-6" data-name="¡ÂÁ˚ÏˇÌÌ˚È „‡‰ËÂÌÚ 8" x1="1069.55" y1="289.91" x2="1058.9" y2="252.87" gradientTransform="translate(1094.51 -23.71) rotate(-179.85) scale(1 -1)" xlink:href="#_ÂÁ_Ï_ÌÌ_È_ËÂÌÚ_8"/>
    <linearGradient id="_ÂÁ_Ï_ÌÌ_È_ËÂÌÚ_8-7" data-name="¡ÂÁ˚ÏˇÌÌ˚È „‡‰ËÂÌÚ 8" x1="144.2" y1="173.79" x2="135.44" y2="256.94" gradientTransform="translate(-68.22 -26.22) rotate(.15)" xlink:href="#_ÂÁ_Ï_ÌÌ_È_ËÂÌÚ_8"/>
    <linearGradient id="_ÂÁ_Ï_ÌÌ_È_ËÂÌÚ_46" data-name="¡ÂÁ˚ÏˇÌÌ˚È „‡‰ËÂÌÚ 46" x1="251.43" y1="285.72" x2="234.49" y2="144.77" gradientTransform="translate(-68.22 -26.22) rotate(.15)" gradientUnits="userSpaceOnUse">
      <stop offset="0" stop-color="#593a33"/>
      <stop offset=".29" stop-color="#482e29"/>
      <stop offset=".61" stop-color="#3e2822"/>
      <stop offset="1" stop-color="#3b2621"/>
    </linearGradient>
    <linearGradient id="_ÂÁ_Ï_ÌÌ_È_ËÂÌÚ_8-8" data-name="¡ÂÁ˚ÏˇÌÌ˚È „‡‰ËÂÌÚ 8" x1="237.5" y1="194.83" x2="219.37" y2="44.02" gradientTransform="translate(-68.22 -26.22) rotate(.15)" xlink:href="#_ÂÁ_Ï_ÌÌ_È_ËÂÌÚ_8"/>
    <linearGradient id="_ÂÁ_Ï_ÌÌ_È_ËÂÌÚ_8-9" data-name="¡ÂÁ˚ÏˇÌÌ˚È „‡‰ËÂÌÚ 8" x1="150.1" y1="192.47" x2="133.22" y2="52.08" gradientTransform="translate(-68.22 -26.22) rotate(.15)" xlink:href="#_ÂÁ_Ï_ÌÌ_È_ËÂÌÚ_8"/>
    <linearGradient id="_ÂÁ_Ï_ÌÌ_È_ËÂÌÚ_55" data-name="¡ÂÁ˚ÏˇÌÌ˚È „‡‰ËÂÌÚ 55" x1="115.36" y1="279.88" x2="113.63" y2="128.63" gradientTransform="translate(-68.22 -26.22) rotate(.15)" gradientUnits="userSpaceOnUse">
      <stop offset="0" stop-color="#593a33"/>
      <stop offset=".19" stop-color="#52352f"/>
      <stop offset="1" stop-color="#3b2621"/>
    </linearGradient>
    <linearGradient id="linear-gradient-22" x1="219.99" y1="269.84" x2="233.41" y2="72.46" gradientTransform="translate(-68.22 -26.22) rotate(.15)" gradientUnits="userSpaceOnUse">
      <stop offset="0" stop-color="#593a33"/>
      <stop offset=".4" stop-color="#5d3d36"/>
      <stop offset=".85" stop-color="#6a4741"/>
      <stop offset="1" stop-color="#714c46"/>
    </linearGradient>
    <linearGradient id="_ÂÁ_Ï_ÌÌ_È_ËÂÌÚ_8-10" data-name="¡ÂÁ˚ÏˇÌÌ˚È „‡‰ËÂÌÚ 8" x1="163.41" y1="235.88" x2="145.06" y2="100.89" gradientTransform="translate(-68.22 -26.22) rotate(.15)" xlink:href="#_ÂÁ_Ï_ÌÌ_È_ËÂÌÚ_8"/>
    <linearGradient id="_ÂÁ_Ï_ÌÌ_È_ËÂÌÚ_8-11" data-name="¡ÂÁ˚ÏˇÌÌ˚È „‡‰ËÂÌÚ 8" x1="241.97" y1="225.19" x2="223.63" y2="90.21" gradientTransform="translate(-68.22 -26.22) rotate(.15)" xlink:href="#_ÂÁ_Ï_ÌÌ_È_ËÂÌÚ_8"/>
    <linearGradient id="_ÂÁ_Ï_ÌÌ_È_ËÂÌÚ_10" data-name="¡ÂÁ˚ÏˇÌÌ˚È „‡‰ËÂÌÚ 10" x1="122.07" y1="330.76" x2="94.38" y2="203.38" gradientTransform="translate(-68.22 -26.22) rotate(.15)" gradientUnits="userSpaceOnUse">
      <stop offset="0" stop-color="#3b2621"/>
      <stop offset=".77" stop-color="#51342e"/>
      <stop offset="1" stop-color="#593a33"/>
    </linearGradient>
    <linearGradient id="linear-gradient-23" x1="129.78" y1="148.73" x2="128.39" y2="259.84" xlink:href="#linear-gradient-22"/>
    <linearGradient id="linear-gradient-24" x1="228.34" y1="282.27" x2="233.56" y2="205.5" xlink:href="#linear-gradient-22"/>
    <linearGradient id="linear-gradient-25" x1="223.84" y1="260.88" x2="228.34" y2="194.7" xlink:href="#linear-gradient-22"/>
    <linearGradient id="linear-gradient-26" x1="145.6" y1="273.26" x2="150.64" y2="199.14" xlink:href="#linear-gradient-22"/>
    <linearGradient id="linear-gradient-27" x1="112.41" y1="279.17" x2="115.25" y2="237.27" xlink:href="#linear-gradient-22"/>
    <linearGradient id="linear-gradient-28" x1="243.32" y1="280.34" x2="245.88" y2="242.57" xlink:href="#linear-gradient-22"/>
    <linearGradient id="linear-gradient-29" x1="188.2" y1="69.82" x2="182.02" y2="31.28" xlink:href="#linear-gradient-22"/>
    <linearGradient id="_ÂÁ_Ï_ÌÌ_È_ËÂÌÚ_8-12" data-name="¡ÂÁ˚ÏˇÌÌ˚È „‡‰ËÂÌÚ 8" x1="205.75" y1="95.67" x2="216.14" y2="73.96" gradientTransform="translate(-68.22 -26.22) rotate(.15)" xlink:href="#_ÂÁ_Ï_ÌÌ_È_ËÂÌÚ_8"/>
    <linearGradient id="_ÂÁ_Ï_ÌÌ_È_ËÂÌÚ_8-13" data-name="¡ÂÁ˚ÏˇÌÌ˚È „‡‰ËÂÌÚ 8" x1="150.47" y1="107.94" x2="170.22" y2="66.69" gradientTransform="translate(-68.22 -26.22) rotate(.15)" xlink:href="#_ÂÁ_Ï_ÌÌ_È_ËÂÌÚ_8"/>
    <linearGradient id="_ÂÁ_Ï_ÌÌ_È_ËÂÌÚ_8-14" data-name="¡ÂÁ˚ÏˇÌÌ˚È „‡‰ËÂÌÚ 8" x1="259.76" y1="135.4" x2="198.84" y2="35.02" gradientTransform="translate(-68.22 -26.22) rotate(.15)" xlink:href="#_ÂÁ_Ï_ÌÌ_È_ËÂÌÚ_8"/>
    <linearGradient id="_ÂÁ_Ï_ÌÌ_È_ËÂÌÚ_8-15" data-name="¡ÂÁ˚ÏˇÌÌ˚È „‡‰ËÂÌÚ 8" x1="157.17" y1="105.47" x2="130.91" y2="62.21" gradientTransform="translate(-68.22 -26.22) rotate(.15)" xlink:href="#_ÂÁ_Ï_ÌÌ_È_ËÂÌÚ_8"/>
    <linearGradient id="_ÂÁ_Ï_ÌÌ_È_ËÂÌÚ_8-16" data-name="¡ÂÁ˚ÏˇÌÌ˚È „‡‰ËÂÌÚ 8" x1="271.51" y1="193.97" x2="254.55" y2="79.06" gradientTransform="translate(-68.22 -26.22) rotate(.15)" xlink:href="#_ÂÁ_Ï_ÌÌ_È_ËÂÌÚ_8"/>
    <linearGradient id="_ÂÁ_Ï_ÌÌ_È_ËÂÌÚ_8-17" data-name="¡ÂÁ˚ÏˇÌÌ˚È „‡‰ËÂÌÚ 8" x1="114.9" y1="173.62" x2="103.55" y2="96.69" gradientTransform="translate(-68.22 -26.22) rotate(.15)" xlink:href="#_ÂÁ_Ï_ÌÌ_È_ËÂÌÚ_8"/>
    <linearGradient id="_ÂÁ_Ï_ÌÌ_È_ËÂÌÚ_7" data-name="¡ÂÁ˚ÏˇÌÌ˚È „‡‰ËÂÌÚ 7" x1="289.84" y1="294.22" x2="259.4" y2="153.92" gradientTransform="translate(-68.22 -26.22) rotate(.15)" gradientUnits="userSpaceOnUse">
      <stop offset="0" stop-color="#3b2621"/>
      <stop offset=".38" stop-color="#472e28"/>
      <stop offset="1" stop-color="#593a33"/>
    </linearGradient>
    <linearGradient id="linear-gradient-30" x1="127.97" y1="216.71" x2="138.22" y2="65.91" xlink:href="#linear-gradient-22"/>
    <linearGradient id="_ÂÁ_Ï_ÌÌ_È_ËÂÌÚ_46-2" data-name="¡ÂÁ˚ÏˇÌÌ˚È „‡‰ËÂÌÚ 46" x1="157" y1="267.94" x2="114.18" y2="197.39" xlink:href="#_ÂÁ_Ï_ÌÌ_È_ËÂÌÚ_46"/>
  </defs>
  <g id="Layer_1-2" data-name="Layer 1">
    <g style="clip-path: url(#clippath);">
      <g>
        <g>
          <path d="M208.35,190.74s14.66,25.35,2.96,54.31l-2.96-54.31Z" style="fill: url(#_ÂÁ_Ï_ÌÌ_È_ËÂÌÚ_8);"/>
          <path d="M23.91,203.86s-12.7,26.39,1.16,54.38l-1.16-54.38Z" style="fill: url(#_ÂÁ_Ï_ÌÌ_È_ËÂÌÚ_8-2);"/>
          <path d="M105.98,19.16s43.44-4.31,60.26,29.93c16.82,34.24,22.1,91.36,25.2,107.15,3.1,15.79-3.54,65.67-3.54,65.67l-138.65,12.83s-13.01-112.61-10.31-134.36c2.7-21.75,67.03-81.21,67.03-81.21Z" style="fill: url(#_ÂÁ_Ï_ÌÌ_È_ËÂÌÚ_8-3);"/>
        </g>
        <path d="M146.24,152.5s2.56,63.85,8.5,68.3c7.53,5.65,81.88,22.12,86.62,27.53,11.81,13.47,13.3,6.94,16.27,35.16,2.97,28.22-263.41,3.66-263.41,3.66,0,0,7.04-38.03,14.97-41.9,23.11-11.3,63.27-17.65,73.9-21.53,14.89-5.44,12.65-62.3,12.65-62.3l50.5-8.91Z" style="fill: #f7d4ab;"/>
        <path d="M154.79,218.98c-4.02-3.82-4.56-48.38-4.56-48.38,0,0-58.57,3.22-59.48,2.19.05,4.12.4,33.65,0,36.78-.47,3.57.16,14.26-40.03,22.88,0,0,13.7-.69,38.97-6.27,4.53-1,10.31-6.84,10.31-11.04,0,0,26.92,1.67,40.53-11.43,1.41,10.37,2.72,33.74,6.05,35.9,3.33,2.16,33.21,5.48,33.21,5.48l3.95-14c-8.56-2.07-24.92-8.29-28.94-12.11Z" style="fill: url(#linear-gradient);"/>
        <path d="M111.43,229.59s-5-6.58-9.27-6.42c-4.27.16-42.52,10.34-47.98,10.83,0,0,14.58-.31,26.31-2.26,11.72-1.96,20.05-6.5,30.94-2.15Z" style="fill: url(#linear-gradient-2);"/>
        <path d="M127.23,228.26s4.16-5.09,9.52-5.58c5.37-.49,42.82,8.92,49.5,11.21,0,0-47.98-9.31-59.02-5.63Z" style="fill: url(#linear-gradient-3);"/>
        <path d="M62.8,229.56s-2.95,43.89,53.2,41.12c56.15-2.77,63.75-41.35,63.75-41.35l-18.75-6.53s-4.16,7.7-34.44,7.78c-44.03.13-44.72-8.73-44.72-8.73l-19.04,7.71Z" style="fill: url(#linear-gradient-4);"/>
        <path d="M225.21,338.98c.73-17.64,33.06-81.23,20.35-91.09-4.13-3.21-17.19-9.09-31.56-13.03-19.94-5.48-41.44-10.22-41.44-10.22,0,0-10.08,14.16-52.71,12.66-49.01-1.73-49.17-12.66-49.17-12.66l-39.03,11.45-25.46,9.01c0,1.71,12.06,75.13,16.98,104.95h200.71c.42-5.89.9-10.97,1.32-11.06Z" style="fill: #f5d534;"/>
        <path d="M70.7,224.63s-5.16,18.38,56.39,16.28c45.63-1.56,45.48-16.28,45.48-16.28l-6.84-2.21s-.82,11.87-39.78,12.74c-50.25,1.11-48.34-12.74-48.34-12.74l-6.91,2.21Z" style="fill: url(#_ÂÁ_Ï_ÌÌ_È_ËÂÌÚ_29);"/>
        <path d="M90.89,203.82s-.96-33.75-1.91-41.06l61.44,6.34.3,18.43s-20.39,28.56-59.83,16.29Z" style="fill: url(#linear-gradient-5);"/>
        <g>
          <path d="M118.77,24.34c-.11-.07-.16-.1-.16-.1.06.03.11.06.16.1Z" style="fill: url(#_ÂÁ_Ï_ÌÌ_È_ËÂÌÚ_14);"/>
          <g>
            <g>
              <path d="M57.92,112.46c2.61,20.25,5.56,35.95,5.56,35.95-8.65-.02-12.56-9-15.93-16.66-5.14-11.7-8.16-24.25,3.61-24.89,2.29-.12,6.76,5.6,6.76,5.6Z" style="fill: url(#_ÂÁ_Ï_ÌÌ_È_ËÂÌÚ_18);"/>
              <path d="M56.28,141.29s-4.23-4.49-2.89-13.31c3.15-20.8-10.95-22.26-7.79-8.05,0,0,1.97-6.69,3.75-4.69,2.19,2.47-2.36,3.81-.07,14.56,1.19,5.58,7,11.49,7,11.49Z" style="fill: url(#linear-gradient-6);"/>
            </g>
            <g>
              <path d="M179.06,112.78c-2.71,20.23-4.99,35.63-4.99,35.63,8.65.02,11.85-8.65,15.25-16.28,5.2-11.68,8.28-24.2-3.48-24.91-2.29-.14-6.79,5.56-6.79,5.56Z" style="fill: url(#_ÂÁ_Ï_ÌÌ_È_ËÂÌÚ_18-2);"/>
              <path d="M180.55,141.61s4.25-4.47,2.96-13.29c-3.04-20.82,11.07-22.21,7.83-8.01,0,0-1.93-6.7-3.72-4.71-2.2,2.46,2.34,3.82,0,14.56-1.22,5.58-7.05,11.45-7.05,11.45Z" style="fill: url(#linear-gradient-7);"/>
            </g>
            <path d="M172.11,48.64c-7.5-17.26-19.1-27.97-45.3-29.7,0,0-59.88,7.66-67.47,24.87-8.26,18.75-5.98,45.13-3.68,62.39,2.3,17.26,6.92,45.24,11.21,53.17,4.28,7.93,26,26.49,30.69,30.02,4.38,3.3,10.73,10.99,21.62,11.02,9.68.02,16.6-7.93,20.89-11.28,4.63-3.61,25.6-22.41,29.93-30.32,4.32-7.91,9.17-35.04,11.56-52.29,2.39-17.25-1.28-39.09-9.45-57.89Z" style="fill: url(#_ÂÁ_Ï_ÌÌ_È_ËÂÌÚ_384);"/>
            <path d="M86.58,90.46c-8.58-.55-18.27,1.6-22.63,4.84-10.15,7.55-2.78,28.91-2.78,28.91,0,0,19.75,21.58,53.42,8.44-2.65-14.1-.51-40.45-28-42.19Z" style="fill: url(#linear-gradient-8);"/>
            <path d="M93.74,113.87c-7.71-2.33-37.6-8.69-36.19,1.24,3.1,21.97,5.93,37.07,9.73,43.91,3.98,7.17,15.71,18.47,20.78,19.34,7.85,1.36,16.26-27.54,16.47-37.45.3-13.87-3.07-24.72-10.78-27.05Z" style="fill: url(#radial-gradient);"/>
            <path d="M117.96,179.06c-5.51.25-9.94,2.22-9.92,4.4.02,2.19,4.49,3.77,9.99,3.53,5.5-.25,9.93-2.21,9.91-4.4-.03-2.19-4.51-3.77-9.99-3.52Z" style="fill: url(#linear-gradient-9);"/>
            <path d="M173.35,134.78s6.57-19.87,7.29-23.4c4.16-20.53,8.72-91.5-67.12-87.02-77.98,4.6-53.14,109.1-53.14,109.1,0,0,24.41-91.53,57.65-92.27,0,0,39.67,1.49,55.32,93.6Z" style="fill: url(#_ÂÁ_Ï_ÌÌ_È_ËÂÌÚ_18-3);"/>
            <polygon points="60.38 133.45 66.88 159.37 66.75 78.3 58.63 86.51 60.38 133.45" style="fill: url(#_ÂÁ_Ï_ÌÌ_È_ËÂÌÚ_72);"/>
            <path d="M169.3,99.99c-4.37-3.15-11.57-11.82-20.14-11.04-27.49,2.49-24.05,28.39-26.65,42.65,33.7,12.33,53.39-9.92,53.39-9.92,0,0,3.58-14.35-6.6-21.69Z" style="fill: url(#linear-gradient-10);"/>
            <path d="M55.97,108.39s5.41,39.96,10.5,51.08c1.66,3.62,11.45,13.09,20.79,21.26,0,0-16.93-20.2-18.73-25.24-3.95-11.05-12.56-47.1-12.56-47.1Z" style="fill: url(#_ÂÁ_Ï_ÌÌ_È_ËÂÌÚ_18-4);"/>
            <path d="M143.02,93.87s12.88-4.46,25.04,3.32c6.48,4.14,4.33,18.23,4.33,18.23.78,4.77-5.17-23.18-29.37-21.54Z" style="fill: url(#linear-gradient-11);"/>
            <path d="M143.51,114c7.72-2.29,37.64-8.5,36.19,1.43-3.21,21.95-6.12,37.04-9.95,43.86-4.02,7.15-15.81,18.39-20.88,19.24-7.86,1.31-16.11-27.62-16.28-37.53-.23-13.87,3.2-24.71,10.92-26.99Z" style="fill: url(#radial-gradient-2);"/>
            <polygon points="175.45 137.1 169.39 156.32 168.24 81 178.13 86.08 175.45 137.1" style="fill: url(#_ÂÁ_Ï_ÌÌ_È_ËÂÌÚ_72-2);"/>
            <g>
              <g>
                <path d="M149.73,103.1c-17.37,0-18.98,10.62-19.34,18.28,1.31.29,2.7.55,5.28,1.34,3.49,1.08,7.57,2.8,13.47,2.75,4.64-.04,14.63-2.14,14.77-12.11.11-7.89-9.98-9.91-14.18-10.26Z" style="fill: url(#_ÂÁ_Ï_ÌÌ_È_ËÂÌÚ_18-5);"/>
                <path d="M163.37,115.71c-6.19-5.14-8.44-7.35-15.55-7.67-7.1-.32-12.42,6.12-12.49,6.33-2.74,3.26-4.28,6.52-4.28,6.52,3.6.22,7.01,1.16,8.42,1.58,7.76,2.34,10.76,1.06,11.31,1.01,8.43-1.66,12.6-7.76,12.6-7.76Z" style="fill: url(#_ÂÁ_Ï_ÌÌ_È_ËÂÌÚ_35);"/>
                <path d="M133.67,117.27s-.9,2.44.94,4.05c0,0-1.87-.28-3.56-.43,0,0,1.8-2.84,2.62-3.61Z" style="fill: url(#_ÂÁ_Ï_ÌÌ_È_ËÂÌÚ_133);"/>
                <path d="M136.77,115.38c-2.98,1.78-4.64,4.46-5.72,5.51,0,0,2.53-7.06,9.2-10.17-1.68,1.29-3.11,2.59-3.48,4.67Z" style="fill: #ddd;"/>
                <path d="M150.7,109.94c4.45.83,8.61,2.35,11.05,5.45l-.49,2.69s-4.06-3.15-7.57-4.61c-.67-2.06-1.06-2.45-2.99-3.52Z" style="fill: #ddd;"/>
                <path d="M136.39,112.06c-.55,2.26.47,4.25,3.04,6.63,1.09,1.01,4.91,3.32,9.75,1.34,2.67-1.09,5.31-3.8,5.49-6.9.09-1.62-.23-3.16-.9-4.53-4.87-1.68-17.29,3.05-17.39,3.45Z" style="fill: url(#_ÂÁ_Ï_ÌÌ_È_ËÂÌÚ_12);"/>
                <path d="M150.64,106.17c-4.66-.71-9.44.09-12.9,3.47-.28.77-.44,1.6-.44,2.47,0,4.27,3.66,7.11,8.19,7.11s8.19-2.74,8.19-7.02c0-2.43-1.18-4.61-3.04-6.03Z" style="fill: url(#_ÂÁ_Ï_ÌÌ_È_ËÂÌÚ_12-2);"/>
                <path d="M136.77,115.38s3.83-2.89,7.98-3.69c4.15-.8,9.84,2.17,9.84,2.17,0,0,.51-2.62-.23-4.23-.29-.62-4.77-2.65-8.54-2.07-3.76.58-9.09,4.33-9.09,4.33,0,0-1.15,1.09.03,3.5Z" style="fill: url(#_ÂÁ_Ï_ÌÌ_È_ËÂÌÚ_6);"/>
                <path d="M149.1,106.96c-2.72-.3-5.85.7-8.58.93-.57.79-.93,1.73-1.01,2.75-.24,3.06,2.16,5.74,5.32,5.98,3.17.24,5.93-2.06,6.16-5.12.13-1.78-.62-3.43-1.9-4.54Z" style="fill: url(#_ÂÁ_Ï_ÌÌ_È_ËÂÌÚ_128);"/>
                <path d="M140.03,113.4s5.15-2.44,10.84-1.06c0,0,1.66-5.98-5.21-6.41-7.56-.47-6.53,5.6-5.63,7.47Z" style="fill: #0f0f0f;"/>
                <path d="M144.03,112.73c.52.73,1.51.9,2.21.39.7-.52.83-1.54.31-2.27-.52-.73-1.52-.9-2.21-.38-.69.52-.83,1.53-.31,2.26Z" style="fill: #fff;"/>
                <path d="M147.48,115.81c.7.95,2.06,1.15,3.03.45.97-.71,1.19-2.04.48-2.99-.7-.95-2.06-1.15-3.02-.45-.97.7-1.19,2.04-.49,2.99Z" style="fill: #fff;"/>
                <path d="M167.1,107.27s-1.69,2.69-10.17-.36c-16.32-5.27-25.65,3.63-25.88,13.99,0,0,4.95-10.68,14.21-11.6,5.64-.55,11.48,2.12,15.48,5.35.06,3.91-5.72,7.97-11.34,9.1,4.81.04,16.09-4.19,16.87-8.26-.3.51-1.32.86-2.62.38,0,0,4.59-1.83,3.46-8.6Z" style="fill: url(#_ÂÁ_Ï_ÌÌ_È_ËÂÌÚ_1655);"/>
                <path d="M141.4,103.92c-5.66,1.94-8.12,6.03-8.12,6.03,0,0,2.55-3.35,8.63-5.17,6.31-1.89,15.02-.05,15.02-.05-3.83-1.8-9.87-2.75-15.53-.81Z" style="fill: url(#_ÂÁ_Ï_ÌÌ_È_ËÂÌÚ_18-6);"/>
                <path d="M144.5,108.37c-10.65,1.52-13.45,12.52-13.45,12.52,0,0,4.07-9.23,13.71-10.95,5.48-.98,12.36,2.24,15.98,4.71,0,0-5.98-7.74-16.23-6.28Z" style="fill: url(#_ÂÁ_Ï_ÌÌ_È_ËÂÌÚ_44);"/>
                <path d="M85.12,103.13c17.37,0,18.98,10.62,19.34,18.28-1.31.29-2.7.55-5.28,1.34-3.49,1.08-7.57,2.8-13.47,2.75-4.64-.04-14.63-2.14-14.77-12.11-.11-7.89,9.98-9.91,14.18-10.26Z" style="fill: url(#_ÂÁ_Ï_ÌÌ_È_ËÂÌÚ_18-7);"/>
                <path d="M71.48,115.75c6.19-5.14,8.44-7.35,15.55-7.67s12.42,6.12,12.49,6.33c2.74,3.26,4.28,6.52,4.28,6.52-3.6.22-7.01,1.16-8.42,1.58-7.76,2.34-10.76,1.06-11.31,1.01-8.43-1.66-12.6-7.76-12.6-7.76Z" style="fill: url(#_ÂÁ_Ï_ÌÌ_È_ËÂÌÚ_35-2);"/>
                <path d="M101.28,117.34s.9,2.39-.94,4c0,0,1.78-.26,3.47-.42,0,0-1.7-2.81-2.53-3.58Z" style="fill: url(#_ÂÁ_Ï_ÌÌ_È_ËÂÌÚ_133-2);"/>
                <path d="M98.09,115.42c2.98,1.78,4.64,4.46,5.72,5.51,0,0-3.64-7.47-9.2-10.17,1.68,1.29,3.11,2.59,3.48,4.67Z" style="fill: #ddd;"/>
                <path d="M84.15,109.97c-4.45.83-8.61,2.35-11.05,5.45l.49,2.69s4.06-3.15,7.57-4.61c.67-2.06,1.06-2.45,2.99-3.52Z" style="fill: #ddd;"/>
                <path d="M98.46,112.09c.55,2.26-.47,4.25-3.04,6.63-1.09,1.01-4.91,3.32-9.75,1.34-2.67-1.09-5.31-3.8-5.49-6.9-.09-1.62.23-3.16.9-4.53,4.87-1.68,17.29,3.05,17.39,3.45Z" style="fill: url(#_ÂÁ_Ï_ÌÌ_È_ËÂÌÚ_6-2);"/>
                <path d="M82.65,108.08c-.79,1.2-1.26,2.61-1.26,4.12,0,4.27,3.65,7.02,8.19,7.02s8.19-2.84,8.19-7.11c0-.91-.18-1.78-.48-2.59-4.4-2.86-10.14-3.63-14.64-1.44Z" style="fill: url(#_ÂÁ_Ï_ÌÌ_È_ËÂÌÚ_12-3);"/>
                <path d="M98.09,115.42s-3.83-2.89-7.98-3.69c-4.15-.8-9.84,2.17-9.84,2.17,0,0-.51-2.62.23-4.23.29-.62,4.77-2.65,8.54-2.07,3.76.58,9.09,4.33,9.09,4.33,0,0,1.15,1.09-.03,3.5Z" style="fill: url(#_ÂÁ_Ï_ÌÌ_È_ËÂÌÚ_12-4);"/>
                <path d="M85.75,106.99c2.72-.3,5.85.7,8.58.93.57.79.93,1.73,1.01,2.75.24,3.06-2.16,5.74-5.32,5.98-3.17.24-5.93-2.06-6.16-5.12-.13-1.78.62-3.43,1.9-4.54Z" style="fill: url(#_ÂÁ_Ï_ÌÌ_È_ËÂÌÚ_128-2);"/>
                <path d="M83.98,112.34s5.58-2.37,10.88,1.11c0,0,2.92-5.96-3.72-7.68-6.26-1.62-8.01,3.55-7.16,6.57Z" style="fill: #0f0f0f;"/>
                <path d="M90.82,112.76c-.52.73-1.51.9-2.21.39-.7-.52-.83-1.54-.31-2.27.52-.73,1.52-.9,2.21-.38.69.52.83,1.53.31,2.26Z" style="fill: #fff;"/>
                <path d="M94.72,115.84c-.7.95-2.06,1.15-3.03.45-.97-.71-1.19-2.04-.48-2.99.7-.95,2.06-1.15,3.02-.45.97.7,1.19,2.04.49,2.99Z" style="fill: #fff;"/>
                <path d="M67.76,107.3s1.69,2.69,10.17-.36c16.32-5.27,25.65,3.63,25.88,13.99,0,0-4.95-10.68-14.21-11.6-5.64-.56-11.48,2.12-15.48,5.35-.06,3.91,5.72,7.97,11.34,9.1-4.81.04-16.09-4.19-16.87-8.26.3.51,1.32.86,2.62.38,0,0-4.59-1.83-3.46-8.6Z" style="fill: url(#_ÂÁ_Ï_ÌÌ_È_ËÂÌÚ_1655-2);"/>
                <path d="M93.45,103.95c5.66,1.94,8.12,6.03,8.12,6.03,0,0-2.55-3.35-8.63-5.17-6.31-1.89-15.02-.05-15.02-.05,3.83-1.8,9.87-2.75,15.53-.81Z" style="fill: url(#_ÂÁ_Ï_ÌÌ_È_ËÂÌÚ_18-8);"/>
                <path d="M90.35,108.4c10.65,1.52,13.45,12.52,13.45,12.52,0,0-4.07-9.23-13.71-10.95-5.48-.98-12.36,2.24-15.98,4.71,0,0,5.98-7.74,16.23-6.28Z" style="fill: url(#_ÂÁ_Ï_ÌÌ_È_ËÂÌÚ_44-2);"/>
              </g>
              <g>
                <polygon points="105.62 147.39 117.36 155.51 128.43 147.22 126.86 145.89 116.79 146 106.75 145.97 105.62 147.39" style="fill: url(#linear-gradient-12);"/>
                <path d="M105.97,147.18s4.46-1.37,8.37.29h4.79s4.75-1.81,9.31-.26l.2-2.17-3.81-.78-8.04,2-7.33-2.04-3.83.44.35,2.52Z" style="fill: url(#linear-gradient-13);"/>
                <path d="M104.46,137.86s-2.07,1.15-2.39,4.3c-.37,3.61,3.36,5.58,3.94,5.21.57-.37-.47-3.1,2.97-2.61,3.44.49,3.26,2.23,3.82,2.82s6.62.75,7.64.11c1.03-.64.75-3,4.01-2.89,3.26.11,3.34,2.34,3.81,2.62.46.29,2.4-1.44,2.97-4.75.57-3.31-2.91-4.76-2.91-4.76,0,0,1.76,2.94,1.01,4.82-.75,1.88-5.76.24-7.82,1.52-3.79,2.36-6.08,1.77-9.83-.03-2.47-1.18-5.94.28-7.32-1.75-.48-.71-.59-3.22.11-4.63Z" style="fill: #f0c499;"/>
                <path d="M109.05,136.24c-.07,2.3.2,3.28,1.18,4.78,1.49,2.29,12,4.19,13.81-1.06.36-1.05.35-2.68.17-4.75-.21-2.36-15.09-1.27-15.16,1.03Z" style="fill: url(#_ÂÁ_Ï_ÌÌ_È_ËÂÌÚ_23);"/>
              </g>
              <path d="M91.9,153.91s20.17,2.83,27.03,2.96c6.85.13,23.09-3.05,23.09-3.05,0,0-16.29-1.92-25.13-1.77-8.84.16-24.99,1.85-24.99,1.85Z" style="fill: url(#linear-gradient-14);"/>
              <g>
                <path d="M88.07,155.55c-1.57-.54-3.07-3.1-2.4-4.27.59-1.05,7.84,4.29,10.35,7.91-3.44-2.54-6.38-3.1-7.96-3.64Z" style="fill: url(#linear-gradient-15);"/>
                <path d="M147.13,155.8c1.55-.61,3.03-3.19,2.29-4.33-.65-1.02-7.67,4.59-10,8.32,3.3-2.7,6.15-3.39,7.7-4Z" style="fill: url(#_ÂÁ_Ï_ÌÌ_È_ËÂÌÚ_17);"/>
                <path d="M102.1,167.19c2.91,6.27,19.24,15.15,31.56.24,0,0-17.32,7.29-31.56-.24Z" style="fill: url(#linear-gradient-16);"/>
                <path d="M116.11,156.71c-15.48-.38-24.47-2.76-28.12-3.55v.03c.11.15.17.23.26.38,1.92.87,4.16,1.45,6.98,3.48,1.94,1.4,3.75,10.71,23,10.73,10.51.01,16.91-3.41,23.2-10.35,1.96-2.16,3.83-2.82,5.36-3.67.04-.17.12-.25.17-.42-4.23,1.12-12.72,3.79-30.85,3.37Z" style="fill: #961b27;"/>
                <path d="M133.43,158.58c-10.83,2.24-25.52,1.77-30.83.76-3.08-1.37-2.82,2.46-2.82,2.46,6.69,6.85,12.14,5.64,17.58,5.84,5.37.2,13.41-1.81,18.22-5.89.48-1.24-.64-3.48-2.15-3.17Z" style="fill: url(#linear-gradient-17);"/>
                <path d="M138.26,154.73s-3.54,1.63-11.83,2.38c-8.36.76-11.87.23-19.36-.21-3.45-.2-5.54-.72-9.84-1.77,0,0,.79.97,1.28,2.11.64,1.48,3.84,6.51,19.34,6.51,11.66,0,17.85-3.97,18.71-6.42.52-1.47,1.61-2.11,1.71-2.61Z" style="fill: url(#linear-gradient-18);"/>
                <path d="M119.27,167.12c-23.67-.31-15.33-9.64-31.03-13.54.11.03,3.6,1.91,7.69,6.64,4.52,5.21,8.36,13.38,21.63,13.43,11.97.03,18.66-8.38,22.54-13.01,4.44-5.28,6.64-6.85,6.74-6.88-12.89,3.27-8.75,13-27.57,13.35Z" style="fill: #f86d78;"/>
                <path d="M105.29,164.82c-3.62-1.86-6.82-5.77-7.5-6.27.84,1.14,5.83,13.43,19.16,13.31,15.42-.14,18.32-10.2,21.1-13.16-1.32,1.32-4.62,4.88-8.66,6.19-2.65.86-7.14,1.87-12.11,2.02-3.18.1-8.48-.6-11.99-2.08Z" style="fill: url(#linear-gradient-19);"/>
                <path d="M128.91,166.38c.19.53-1.31,2.26-4.45,3.08-4.05,1.06-7.24-.04-7.44-.57-.2-.53,5.16-.83,6.73-1.34,1.56-.51,4.98-1.7,5.17-1.17Z" style="fill: #ff9aa2;"/>
                <path d="M88.49,154.47c.93.43,1.66-.26,5.36,1.1,0,0-6.29-3.29-6.71-3.11-.29.12-.03,1.38,1.35,2.01Z" style="fill: #961b27;"/>
                <path d="M146.84,154.68c-.93.42-1.96-.25-5.22,1.13,0,0,6.06-3.48,6.58-3.13.26.18.02,1.38-1.36,2Z" style="fill: #961b27;"/>
                <path d="M97.56,155.5l.99,1.81s6.67,3.59,20.43,3.72c9.94.09,17.52-3.51,17.52-3.51l.8-1.78-39.74-.23Z" style="fill: url(#linear-gradient-20);"/>
                <path d="M118.25,155.03c-3.84-.1-21.48-.14-28.99-1.75,0,0,2.78,1.71,16.62,4.49,4.12.82,7.77,1.64,12.02,1.6,5.08.09,9.3-.9,13.25-1.5,6.68-1.02,14.61-4.16,14.64-4.3-3.57.94-24.42,1.55-27.54,1.47Z" style="fill: #f86d78;"/>
                <path d="M102.8,155.57c.14-.47,7.01-.07,8.14-.05,1.13.01,11.75.33,12.91.31,1.65-.02,9.53-.32,9.44.25-.09.57-12.26,1.85-13.7,1.96-1.43.11-17.2-1.07-16.8-2.46Z" style="fill: url(#linear-gradient-21);"/>
              </g>
            </g>
            <path d="M181.31,108.71s-5.62,39.93-10.76,51.03c-1.67,3.61-10.43,12.1-20.93,21.06,0,0,15.39-17.63,18.48-25.71,4.2-10.96,13.2-46.37,13.2-46.37Z" style="fill: url(#_ÂÁ_Ï_ÌÌ_È_ËÂÌÚ_23-2);"/>
            <path d="M87.26,180.73s14.9,12.62,16.5,13.54c3.21,1.83,6.2,4.41,14.53,4.71,8.12.29,13.09-3.08,15.37-4.6,2.4-1.6,14.79-12.48,15.96-13.58,0,0-9.89,12.03-13.59,15.07-6.05,4.96-13.16,7.58-17.6,7.57-5.59-.01-10.17-3.46-14.96-6.18-5.22-2.96-16.21-16.53-16.21-16.53Z" style="fill: url(#_ÂÁ_Ï_ÌÌ_È_ËÂÌÚ_18-9);"/>
            <path d="M99.19,87.58c.99.98,1.85,4.31,1.34,6.14-.28-2.89-1.81-5.98-3.8-6.48-.18-.02-.39-.05-.6-.07,1.42,1.06,2.35,2.77,2.41,4.94-.75-1.54-2.19-4.24-4.24-5.02-5.78-.28-14.45-.58-18.22.56-5.37,1.61-11.64,11.8-11.64,11.8,1.7-1.55,8.28-4.58,13.27-5.44,3.22-.55,19.64.95,23.91,1.07.56.01,1.12-5.68-2.44-7.5Z" style="fill: url(#_ÂÁ_Ï_ÌÌ_È_ËÂÌÚ_11);"/>
            <path d="M135.17,87.69c-.99.97-1.87,4.3-1.36,6.14.29-2.89,1.83-5.98,3.82-6.46.18-.02.39-.04.6-.07-1.42,1.06-2.36,2.77-2.43,4.93.76-1.54,2.21-4.23,4.26-5,5.78-.26,14.45-.52,18.22.63,5.36,1.63,11.59,11.84,11.59,11.84-1.69-1.56-8.26-4.62-13.25-5.49-3.22-.56-19.65.88-23.91.97-.56.01-1.1-5.68,2.46-7.49Z" style="fill: url(#_ÂÁ_Ï_ÌÌ_È_ËÂÌÚ_11-2);"/>
            <path d="M75.27,124.42c-2.73-.61-5.19.22-5.49,1.86-.31,1.65,1.66,3.47,4.39,4.1,2.73.61,5.19-.22,5.5-1.86.3-1.65-1.66-3.48-4.39-4.1Z" style="fill: url(#_ÂÁ_Ï_ÌÌ_È_ËÂÌÚ_126);"/>
            <path d="M159.86,124.63c2.73-.6,5.19.25,5.48,1.89.3,1.65-1.68,3.46-4.41,4.07-2.74.6-5.19-.25-5.49-1.89-.29-1.65,1.68-3.47,4.42-4.08Z" style="fill: url(#_ÂÁ_Ï_ÌÌ_È_ËÂÌÚ_126-2);"/>
          </g>
          <path d="M176.96,143.03s-12.7,37.49-18.37,49.89c-5.66,12.41-.44,54.51-.44,54.51,0,0,31.42-59.44,27.96-86.5-3.46-27.06-9.15-17.91-9.15-17.91Z" style="fill: url(#_ÂÁ_Ï_ÌÌ_È_ËÂÌÚ_8-4);"/>
          <path d="M201.1,223.92s4.02,16.78,14.37,25.68c0,0-12.77-2.49-15.75-10.01s1.39-15.67,1.39-15.67Z" style="fill: url(#_ÂÁ_Ï_ÌÌ_È_ËÂÌÚ_8-5);"/>
          <path d="M37.3,220.26s-4.11,16.76-14.5,25.6c0,0,12.79-2.42,15.8-9.93s-1.31-15.67-1.31-15.67Z" style="fill: url(#_ÂÁ_Ï_ÌÌ_È_ËÂÌÚ_8-6);"/>
          <path d="M88.08,219.24c-1.95-25.79-13.58-44.69-19.27-52.13-9.33-12.2-10.11-39.75-10.11-39.75,0,0-5.82,44.56-8.15,60.53-3.6,24.63,6.96,58.07,18.11,65.39,7.39-12.83,8.33-27.63,5.85-46.01,9.79,19.59,1.92,38.13-.13,50.02,7.57-8.4,14.52-27.05,13.69-38.04Z" style="fill: url(#_ÂÁ_Ï_ÌÌ_È_ËÂÌÚ_8-7);"/>
          <path d="M176.8,112.94c2.32,12.78,4.33,30.36,4.3,44.23-.07,34.85-17.69,98.18-35.5,101.04,5.59-.74,20.73-1.85,32.75-18.76.74,6.23-6.6,10.76-12.21,15.46,11.33-6.05,16.64-11.44,16.64-11.44-2.84,5.12-4.69,9.17-14.02,16,5.74-.9,22.89-11.86,30.96-22.74,5-11.49,9.72-22.72,12.38-35.89-1.92-19.57-7.83-38.2-18.24-56.83-5.44-8.76-12.3-21.51-17.07-31.07Z" style="fill: url(#_ÂÁ_Ï_ÌÌ_È_ËÂÌÚ_46);"/>
          <path d="M204.28,153.86c-.51-5.13-13.53-86.47-20.07-100.16C158.71.33,118.76,18.23,118.76,18.23l-2.65,20.6c29.65-5.47,52.82,30.6,61.45,78.1,4.76,9.56,10.86,18.33,16.31,27.09,10.42,18.63,12.39,25.55,10.42,9.85Z" style="fill: url(#_ÂÁ_Ï_ÌÌ_È_ËÂÌÚ_8-8);"/>
          <path d="M65.48,25.08c-19.35,16.88-24.92,36.21-27.22,49.31-1.36,7.74-8.46,55.88-12.1,88.83,8.18-17.21,17.87-22.14,30.38-35.84.55-.82,1.05-1.66,1.52-2.51,1.43-28.59,6.79-52.47,23.4-68.61,20.89-20.29,34.65-17.45,34.65-17.45l2.65-20.6c-9.97-8.09-41.66-3.27-53.28,6.85Z" style="fill: url(#_ÂÁ_Ï_ÌÌ_È_ËÂÌÚ_8-9);"/>
          <path d="M26.15,163.23c-13.33,27.4-8,55.9-.61,65.89,6.15,7.25,17.03,18.71,25.25,24.01-3.22-4.17-8.55-14.07-7.83-20.1,5.46,18.45,28.57,23.42,31.43,24.26-18.9-11.41-24.13-32.25-24.7-59.14-.4-18.8,7.56-56.97,8.37-73.26-.47.84-.97,1.68-1.52,2.51-12.51,13.69-22.21,18.63-30.38,35.84Z" style="fill: url(#_ÂÁ_Ï_ÌÌ_È_ËÂÌÚ_55);"/>
          <path d="M116.14,38.83s26.06-11.88,42.52,9.27c16.46,21.14,15.96,66.03,25.33,90.23,9.37,24.21,23.74,59.3,17.56,79-6.18,19.69-23.45,35.32-23.45,35.32,0,0,20.12-25.23,16.88-49.16-3.24-23.94-18.9-47.76-22.54-73.76-3.64-26-7.66-63.85-25.72-80.4-16.03-14.69-30.58-10.49-30.58-10.49Z" style="fill: url(#linear-gradient-22);"/>
          <path d="M118.61,24.24s-38.26-6.78-53.92,26.97c-15.66,33.75-30.24,73.83-30.24,73.83,0,0,21.14-76.46,24.3-83.43,4.6-10.15,29.22-38.48,59.86-17.37Z" style="fill: url(#_ÂÁ_Ï_ÌÌ_È_ËÂÌÚ_8-10);"/>
          <path d="M120.9,22.7s22.13-6.22,45.98,19.1c13.08,13.89,18.38,87.95,18.38,87.95,0,0,1.93-58.93-3.81-78.7-5.74-19.77-36.35-48.77-60.56-28.35Z" style="fill: url(#_ÂÁ_Ï_ÌÌ_È_ËÂÌÚ_8-11);"/>
          <path d="M49.83,141.78s-19.01,32.96-21.37,54.75c-2.36,21.79-10.26,40.79-21.34,43.02,0,0,14.78-2.9,21.26-11.36,6.48-8.46,11.71-66.57,21.45-86.4Z" style="fill: url(#_ÂÁ_Ï_ÌÌ_È_ËÂÌÚ_10);"/>
          <path d="M68.38,86.09s-10.03,28.54-15.56,63.99c-4.49,28.83-9.53,41.16-7.69,59.59,2.02,20.26,8.51,41.19,29.26,47.62,0,0-16.17-8.09-21.2-47.6-1.75-13.79,2.58-36.82,6.06-59.59,4.98-32.56,9.13-64,9.13-64Z" style="fill: url(#linear-gradient-23);"/>
          <path d="M176.76,177.17s6.94,75.36-31.16,81.04c0,0,23.55-9.69,31.16-81.04Z" style="fill: url(#linear-gradient-24);"/>
          <path d="M166.56,166.49s-7.43,15.35-13.71,28.21c-6.28,12.86-.11,42.59-.11,42.59,0,0-.55-21.25,4.74-34.24,5.29-12.99,9.08-36.56,9.08-36.56Z" style="fill: url(#linear-gradient-25);"/>
          <path d="M70.76,169.08s12.19,14.57,17.68,33.61c5.49,19.03-4.28,47.71-4.28,47.71,0,0,3.61-34.27.13-50.14-3.48-15.87-13.53-31.17-13.53-31.17Z" style="fill: url(#linear-gradient-26);"/>
          <path d="M41.24,209.04s-3.73,30.97,11.33,46.23c0,0-28.07-9.05-11.33-46.23Z" style="fill: url(#linear-gradient-27);"/>
          <path d="M185.07,215.8s5.91,28.24-19.89,39.56c0,0,21.32-18.33,19.89-39.56Z" style="fill: url(#linear-gradient-28);"/>
          <path d="M118.74,23.63s17.77-11.95,48.13,5.19c0,0-18.85-21.82-45.57-14.62,0,0-26.9-15.99-54.18,9.59,0,0,7.82-6.15,21.37-7.75,11.29-1.34,28.5,1.04,30.25,7.59Z" style="fill: url(#linear-gradient-29);"/>
          <path d="M165.24,86.97s.54-25.81-12.56-38.32c-13.1-12.51-25.66-13.24-36.54-9.83,0,0,15.34-2.47,24.48,6.3,12.16,11.68,18.34,21.06,24.61,41.84Z" style="fill: url(#_ÂÁ_Ï_ÌÌ_È_ËÂÌÚ_8-12);"/>
          <path d="M116.14,38.83s-9.77-2.63-17.14-.26c-14.26,4.57-22.36,22.74-26.19,45.83,0,0,4.93-27.47,24.72-38.77,10.68-6.1,18.61-6.8,18.61-6.8Z" style="fill: url(#_ÂÁ_Ï_ÌÌ_È_ËÂÌÚ_8-13);"/>
          <path d="M120.9,24.34s34.82-16.56,51.58,25.29c12.24,30.57,10.05,61.56,10.05,61.56,0,0-1.77-50.93-28.64-77.3-15.26-14.98-32.99-9.55-32.99-9.55Z" style="fill: url(#_ÂÁ_Ï_ÌÌ_È_ËÂÌÚ_8-14);"/>
          <path d="M118.61,24.24s-12.2-5.36-28,.02c-12.31,4.2-22.11,15.84-27.64,29.24-3.62,8.78-13.94,32.29-21.49,52.96,0,0,20.38-27.21,27.62-50.29,5.24-16.71,24.66-36.01,49.51-31.93Z" style="fill: url(#_ÂÁ_Ï_ÌÌ_È_ËÂÌÚ_8-15);"/>
          <path d="M186.6,77.24s-1.86,49.08,23.1,102.31l-23.1-102.31Z" style="fill: url(#_ÂÁ_Ï_ÌÌ_È_ËÂÌÚ_8-16);"/>
          <path d="M58.64,83.26l-32.56,75.46s30.82-25.16,32.56-75.46Z" style="fill: url(#_ÂÁ_Ï_ÌÌ_È_ËÂÌÚ_8-17);"/>
          <path d="M188.38,130.21s15.56,22.14,22.64,43c7.77,22.88,6.14,42.04-8.43,63.2,0,0,8.34-26.33-.5-66.99-3.54-16.31-13.71-39.21-13.71-39.21Z" style="fill: url(#_ÂÁ_Ï_ÌÌ_È_ËÂÌÚ_7);"/>
          <path d="M116.14,38.83s-22.34-12.8-38.73,11.11c-13.71,20.01-14.2,53.26-34.79,83.5-8.53,12.53-29.19,33.07-29.72,59.11,0,0,2.47-12.76,23.29-36.53,20.82-23.77,32.82-52.43,38.35-78.2,7.74-36.04,25.69-41.28,41.6-39Z" style="fill: url(#linear-gradient-30);"/>
          <path d="M64.87,166.23s20.2,50.81,5.46,83.89c0,0-2.78-67.44-5.46-83.89Z" style="fill: url(#_ÂÁ_Ï_ÌÌ_È_ËÂÌÚ_46-2);"/>
        </g>
      </g>
    </g>
  </g>
</svg>