<?xml version="1.0" encoding="UTF-8"?>
<svg id="Layer_2" data-name="Layer 2" xmlns="http://www.w3.org/2000/svg" width="71.6" height="71.6" xmlns:xlink="http://www.w3.org/1999/xlink" viewBox="0 0 71.6 71.6">
  <defs>
    <clipPath id="clippath">
      <rect width="71.6" height="71.6" style="fill: none;"/>
    </clipPath>
    <linearGradient id="_ÂÁ_Ï_ÌÌ_È_ËÂÌÚ_33" data-name="¡ÂÁ˚ÏˇÌÌ˚È „‡‰ËÂÌÚ 33" x1="192.58" y1="-21.51" x2="186.31" y2="-43.29" gradientTransform="translate(-123.8 34.57) rotate(22.64)" gradientUnits="userSpaceOnUse">
      <stop offset="0" stop-color="#3b2621"/>
      <stop offset=".39" stop-color="#3e2822"/>
      <stop offset=".71" stop-color="#482e29"/>
      <stop offset="1" stop-color="#593a33"/>
    </linearGradient>
    <linearGradient id="_ÂÁ_Ï_ÌÌ_È_ËÂÌÚ_33-2" data-name="¡ÂÁ˚ÏˇÌÌ˚È „‡‰ËÂÌÚ 33" x1="-722.52" y1="330.49" x2="-728.78" y2="308.71" gradientTransform="translate(-784.64 14.79) rotate(160.79) scale(1 -1)" xlink:href="#_ÂÁ_Ï_ÌÌ_È_ËÂÌÚ_33"/>
    <linearGradient id="_ÂÁ_Ï_ÌÌ_È_ËÂÌÚ_33-3" data-name="¡ÂÁ˚ÏˇÌÌ˚È „‡‰ËÂÌÚ 33" x1="-49.96" y1="220.43" x2="-24.85" y2="74.78" gradientTransform="translate(81.61 -118.8) rotate(1.71)" xlink:href="#_ÂÁ_Ï_ÌÌ_È_ËÂÌÚ_33"/>
    <linearGradient id="linear-gradient" x1="48" y1="69.72" x2="32.46" y2="72.01" gradientUnits="userSpaceOnUse">
      <stop offset="0" stop-color="#f0c499"/>
      <stop offset=".52" stop-color="#f1c69b"/>
      <stop offset=".85" stop-color="#f4cea4"/>
      <stop offset="1" stop-color="#f7d4ab"/>
    </linearGradient>
    <linearGradient id="linear-gradient-2" x1="20.55" y1="56.96" x2="47.08" y2="65.03" xlink:href="#linear-gradient"/>
    <linearGradient id="linear-gradient-3" x1="-16.32" y1="210.92" x2="16.49" y2="230.86" gradientTransform="translate(-38.58 -144.15) rotate(-16.11)" xlink:href="#linear-gradient"/>
    <linearGradient id="linear-gradient-4" x1="177.88" y1="477.1" x2="141.85" y2="487.22" gradientTransform="translate(10.17 -438.17) rotate(13.36)" xlink:href="#linear-gradient"/>
    <linearGradient id="linear-gradient-5" x1="25.11" y1="75.26" x2="67.22" y2="63.78" xlink:href="#linear-gradient"/>
    <linearGradient id="_ÂÁ_Ï_ÌÌ_È_ËÂÌÚ_147" data-name="¡ÂÁ˚ÏˇÌÌ˚È „‡‰ËÂÌÚ 147" x1="37.48" y1="75.96" x2="36.39" y2="65.4" gradientUnits="userSpaceOnUse">
      <stop offset="0" stop-color="#d6b01f"/>
      <stop offset=".42" stop-color="#e0bc26"/>
      <stop offset="1" stop-color="#f5d534"/>
    </linearGradient>
    <linearGradient id="linear-gradient-6" x1="34.84" y1="50.82" x2="37.71" y2="62.97" gradientUnits="userSpaceOnUse">
      <stop offset="0" stop-color="#dba379"/>
      <stop offset=".49" stop-color="#e3b086"/>
      <stop offset="1" stop-color="#f0c499"/>
    </linearGradient>
    <linearGradient id="_ÂÁ_Ï_ÌÌ_È_ËÂÌÚ_30" data-name="¡ÂÁ˚ÏˇÌÌ˚È „‡‰ËÂÌÚ 30" x1="4728.24" y1="121.13" x2="4721.82" y2="63.12" gradientTransform="translate(4722.08) rotate(-180) scale(1 -1)" gradientUnits="userSpaceOnUse">
      <stop offset="0" stop-color="#f5d534"/>
      <stop offset=".47" stop-color="#f7d942"/>
      <stop offset="1" stop-color="#f9de4f"/>
    </linearGradient>
    <linearGradient id="_ÂÁ_Ï_ÌÌ_È_ËÂÌÚ_30-2" data-name="¡ÂÁ˚ÏˇÌÌ˚È „‡‰ËÂÌÚ 30" x1="80.76" y1="123.55" x2="73.99" y2="62.36" gradientTransform="matrix(1,0,0,1,0,0)" xlink:href="#_ÂÁ_Ï_ÌÌ_È_ËÂÌÚ_30"/>
    <linearGradient id="_ÂÁ_Ï_ÌÌ_È_ËÂÌÚ_14" data-name="¡ÂÁ˚ÏˇÌÌ˚È „‡‰ËÂÌÚ 14" x1="70.67" y1="41.2" x2="70.64" y2="41.12" gradientTransform="translate(-34.3 -34.94) rotate(.54)" gradientUnits="userSpaceOnUse">
      <stop offset="0" stop-color="#cb8076"/>
      <stop offset=".31" stop-color="#b76f65"/>
      <stop offset=".95" stop-color="#86443a"/>
      <stop offset="1" stop-color="#824137"/>
    </linearGradient>
    <linearGradient id="_ÂÁ_Ï_ÌÌ_È_ËÂÌÚ_1259" data-name="¡ÂÁ˚ÏˇÌÌ˚È „‡‰ËÂÌÚ 1259" x1="54.28" y1="70.88" x2="51.79" y2="63.13" gradientTransform="translate(-35.2 -27.92) rotate(1.27)" gradientUnits="userSpaceOnUse">
      <stop offset="0" stop-color="#dba379"/>
      <stop offset=".49" stop-color="#e3b086"/>
      <stop offset="1" stop-color="#f0c499"/>
    </linearGradient>
    <linearGradient id="linear-gradient-7" x1="-2966.55" y1="126.22" x2="-2966.05" y2="143.9" gradientTransform="translate(2983.54 -6.47) rotate(.54)" xlink:href="#linear-gradient-6"/>
    <linearGradient id="_ÂÁ_Ï_ÌÌ_È_ËÂÌÚ_1259-2" data-name="¡ÂÁ˚ÏˇÌÌ˚È „‡‰ËÂÌÚ 1259" x1="89.57" y1="64.8" x2="95.54" y2="64.8" xlink:href="#_ÂÁ_Ï_ÌÌ_È_ËÂÌÚ_1259"/>
    <linearGradient id="linear-gradient-8" x1="-2203.78" y1="125.85" x2="-2203.27" y2="143.53" gradientTransform="translate(-2148.06 -54.33) rotate(-179.46) scale(1 -1)" xlink:href="#linear-gradient-6"/>
    <linearGradient id="_ÂÁ_Ï_ÌÌ_È_ËÂÌÚ_384" data-name="¡ÂÁ˚ÏˇÌÌ˚È „‡‰ËÂÌÚ 384" x1="70.48" y1="46.63" x2="70.41" y2="95.06" gradientTransform="translate(-34.3 -34.94) rotate(.54)" gradientUnits="userSpaceOnUse">
      <stop offset="0" stop-color="#ffd9b3"/>
      <stop offset=".32" stop-color="#f9d5ad"/>
      <stop offset="1" stop-color="#f7d4ab"/>
    </linearGradient>
    <linearGradient id="linear-gradient-9" x1="61.71" y1="76.84" x2="59.46" y2="62.96" gradientTransform="translate(-34.3 -34.94) rotate(.54)" gradientUnits="userSpaceOnUse">
      <stop offset="0" stop-color="#f7d4ab"/>
      <stop offset=".52" stop-color="#f5d1a8"/>
      <stop offset=".85" stop-color="#f2c99f"/>
      <stop offset="1" stop-color="#f0c499"/>
    </linearGradient>
    <radialGradient id="radial-gradient" cx="-59.18" cy="76.85" fx="-59.18" fy="76.85" r="9.9" gradientTransform="translate(71.38 -33.51) rotate(.54) scale(.79 1)" gradientUnits="userSpaceOnUse">
      <stop offset="0" stop-color="#f9b38e"/>
      <stop offset=".61" stop-color="#f7c59e"/>
      <stop offset="1" stop-color="#f7d4ab"/>
    </radialGradient>
    <linearGradient id="linear-gradient-10" x1="65.56" y1="90.05" x2="73.62" y2="90.05" gradientTransform="translate(-34.3 -34.94) rotate(.54)" gradientUnits="userSpaceOnUse">
      <stop offset="0" stop-color="#ffd9b3"/>
      <stop offset=".68" stop-color="#fcd7b0"/>
      <stop offset="1" stop-color="#f7d4ab"/>
    </linearGradient>
    <linearGradient id="_ÂÁ_Ï_ÌÌ_È_ËÂÌÚ_1259-3" data-name="¡ÂÁ˚ÏˇÌÌ˚È „‡‰ËÂÌÚ 1259" x1="84.91" y1="50.32" x2="57.67" y2="72.6" gradientTransform="translate(-34.3 -34.94) rotate(.54)" xlink:href="#_ÂÁ_Ï_ÌÌ_È_ËÂÌÚ_1259"/>
    <linearGradient id="_ÂÁ_Ï_ÌÌ_È_ËÂÌÚ_13" data-name="¡ÂÁ˚ÏˇÌÌ˚È „‡‰ËÂÌÚ 13" x1="54.8" y1="84.51" x2="53.42" y2="61.2" gradientTransform="translate(-34.3 -34.94) rotate(.54)" gradientUnits="userSpaceOnUse">
      <stop offset="0" stop-color="#f9b38e"/>
      <stop offset=".5" stop-color="#f7b690"/>
      <stop offset=".9" stop-color="#f2c096"/>
      <stop offset="1" stop-color="#f0c499"/>
    </linearGradient>
    <linearGradient id="linear-gradient-11" x1="80.93" y1="74.8" x2="78.84" y2="63.25" xlink:href="#linear-gradient-9"/>
    <linearGradient id="_ÂÁ_Ï_ÌÌ_È_ËÂÌÚ_1259-4" data-name="¡ÂÁ˚ÏˇÌÌ˚È „‡‰ËÂÌÚ 1259" x1="51.38" y1="78.24" x2="61.08" y2="78.24" gradientTransform="translate(-34.3 -34.94) rotate(.54)" xlink:href="#_ÂÁ_Ï_ÌÌ_È_ËÂÌÚ_1259"/>
    <linearGradient id="linear-gradient-12" x1="78.64" y1="65.62" x2="87.55" y2="65.62" xlink:href="#linear-gradient-10"/>
    <radialGradient id="radial-gradient-2" cx="998.64" cy="77.19" fx="998.64" fy="77.19" r="9.9" gradientTransform="translate(840.47 -26.58) rotate(-179.46) scale(.79 -1)" xlink:href="#radial-gradient"/>
    <linearGradient id="_ÂÁ_Ï_ÌÌ_È_ËÂÌÚ_13-2" data-name="¡ÂÁ˚ÏˇÌÌ˚È „‡‰ËÂÌÚ 13" x1="-1306.97" y1="82.86" x2="-1308.25" y2="61.23" gradientTransform="translate(-1255.14 -45.91) rotate(-179.46) scale(1 -1)" xlink:href="#_ÂÁ_Ï_ÌÌ_È_ËÂÌÚ_13"/>
    <linearGradient id="linear-gradient-13" x1="-923.5" y1="202.27" x2="-923.12" y2="202.27" gradientTransform="translate(-26031.09 6338.01) rotate(154.05) scale(28.38 -28.38)" xlink:href="#linear-gradient-6"/>
    <linearGradient id="linear-gradient-14" x1="-832.59" y1="55.31" x2="-832.19" y2="55.31" gradientTransform="translate(5266.65 -355.39) rotate(-8.08) scale(6.27 -6.27)" gradientUnits="userSpaceOnUse">
      <stop offset="0" stop-color="#fff"/>
      <stop offset=".47" stop-color="#fcfcfc"/>
      <stop offset=".77" stop-color="#f5f3f3"/>
      <stop offset="1" stop-color="#ece7e7"/>
    </linearGradient>
    <linearGradient id="_ÂÁ_Ï_ÌÌ_È_ËÂÌÚ_35" data-name="¡ÂÁ˚ÏˇÌÌ˚È „‡‰ËÂÌÚ 35" x1="-958.29" y1="250.38" x2="-957.89" y2="250.38" gradientTransform="translate(-9879.71 -67.77) rotate(165.95) scale(10.02 -10.02)" gradientUnits="userSpaceOnUse">
      <stop offset="0" stop-color="#ece7e7"/>
      <stop offset=".23" stop-color="#f5f3f3"/>
      <stop offset=".53" stop-color="#fcfcfc"/>
      <stop offset="1" stop-color="#fff"/>
    </linearGradient>
    <linearGradient id="_ÂÁ_Ï_ÌÌ_È_ËÂÌÚ_31" data-name="¡ÂÁ˚ÏˇÌÌ˚È „‡‰ËÂÌÚ 31" x1="46.83" y1="34.57" x2="40.45" y2="38.72" gradientUnits="userSpaceOnUse">
      <stop offset="0" stop-color="#715241"/>
      <stop offset="1" stop-color="#b89c8c"/>
    </linearGradient>
    <linearGradient id="_ÂÁ_Ï_ÌÌ_È_ËÂÌÚ_31-2" data-name="¡ÂÁ˚ÏˇÌÌ˚È „‡‰ËÂÌÚ 31" x1="48.27" y1="33.29" x2="41.16" y2="37.71" xlink:href="#_ÂÁ_Ï_ÌÌ_È_ËÂÌÚ_31"/>
    <linearGradient id="_ÂÁ_Ï_ÌÌ_È_ËÂÌÚ_133" data-name="¡ÂÁ˚ÏˇÌÌ˚È „‡‰ËÂÌÚ 133" x1="-1502.4" y1="36.12" x2="-1501.44" y2="36.81" gradientTransform="translate(-1461.65) rotate(-180) scale(1 -1)" gradientUnits="userSpaceOnUse">
      <stop offset="0" stop-color="#fff"/>
      <stop offset=".46" stop-color="#f2f2f2"/>
      <stop offset="1" stop-color="#ddd"/>
    </linearGradient>
    <linearGradient id="_ÂÁ_Ï_ÌÌ_È_ËÂÌÚ_1050" data-name="¡ÂÁ˚ÏˇÌÌ˚È „‡‰ËÂÌÚ 1050" x1="45.16" y1="42.48" x2="44.34" y2="34.95" gradientUnits="userSpaceOnUse">
      <stop offset="0" stop-color="#b89c8c"/>
      <stop offset="1" stop-color="#715241"/>
    </linearGradient>
    <linearGradient id="_ÂÁ_Ï_ÌÌ_È_ËÂÌÚ_1655" data-name="¡ÂÁ˚ÏˇÌÌ˚È „‡‰ËÂÌÚ 1655" x1="-889.61" y1="198.41" x2="-889.24" y2="198.41" gradientTransform="translate(26627.16 -7999.4) rotate(-5.27) scale(30.74 28.03) skewX(1.23)" gradientUnits="userSpaceOnUse">
      <stop offset="0" stop-color="#4d322e"/>
      <stop offset=".06" stop-color="#4a302c"/>
      <stop offset=".55" stop-color="#3d2622"/>
      <stop offset="1" stop-color="#39231f"/>
    </linearGradient>
    <radialGradient id="_ÂÁ_Ï_ÌÌ_È_ËÂÌÚ_128" data-name="¡ÂÁ˚ÏˇÌÌ˚È „‡‰ËÂÌÚ 128" cx="44.59" cy="36.46" fx="44.59" fy="36.46" r="1.61" gradientUnits="userSpaceOnUse">
      <stop offset="0" stop-color="#666"/>
      <stop offset="1" stop-color="#1d1d1d"/>
    </radialGradient>
    <linearGradient id="linear-gradient-15" x1="-926.98" y1="203.94" x2="-926.61" y2="203.94" gradientTransform="translate(26206.51 6358.25) rotate(25.99) scale(28.38)" xlink:href="#linear-gradient-6"/>
    <linearGradient id="linear-gradient-16" x1="-815.4" y1="53.19" x2="-814.99" y2="53.19" gradientTransform="translate(-5086.86 -357.11) rotate(-171.88) scale(6.27)" xlink:href="#linear-gradient-14"/>
    <linearGradient id="_ÂÁ_Ï_ÌÌ_È_ËÂÌÚ_35-2" data-name="¡ÂÁ˚ÏˇÌÌ˚È „‡‰ËÂÌÚ 35" x1="-968.94" y1="252.77" x2="-968.55" y2="252.77" gradientTransform="translate(10060.07 -57.54) rotate(14.09) scale(10.02)" xlink:href="#_ÂÁ_Ï_ÌÌ_È_ËÂÌÚ_35"/>
    <linearGradient id="_ÂÁ_Ï_ÌÌ_È_ËÂÌÚ_1050-2" data-name="¡ÂÁ˚ÏˇÌÌ˚È „‡‰ËÂÌÚ 1050" x1="29.95" y1="38.04" x2="23.93" y2="35.07" xlink:href="#_ÂÁ_Ï_ÌÌ_È_ËÂÌÚ_1050"/>
    <linearGradient id="_ÂÁ_Ï_ÌÌ_È_ËÂÌÚ_31-3" data-name="¡ÂÁ˚ÏˇÌÌ˚È „‡‰ËÂÌÚ 31" x1="21.7" y1="35.29" x2="29.36" y2="35.84" xlink:href="#_ÂÁ_Ï_ÌÌ_È_ËÂÌÚ_31"/>
    <linearGradient id="_ÂÁ_Ï_ÌÌ_È_ËÂÌÚ_133-2" data-name="¡ÂÁ˚ÏˇÌÌ˚È „‡‰ËÂÌÚ 133" x1="30.04" y1="36.19" x2="31.01" y2="36.88" gradientTransform="matrix(1,0,0,1,0,0)" xlink:href="#_ÂÁ_Ï_ÌÌ_È_ËÂÌÚ_133"/>
    <linearGradient id="_ÂÁ_Ï_ÌÌ_È_ËÂÌÚ_1050-3" data-name="¡ÂÁ˚ÏˇÌÌ˚È „‡‰ËÂÌÚ 1050" x1="27.15" y1="42.88" x2="26.32" y2="35.36" xlink:href="#_ÂÁ_Ï_ÌÌ_È_ËÂÌÚ_1050"/>
    <radialGradient id="_ÂÁ_Ï_ÌÌ_È_ËÂÌÚ_128-2" data-name="¡ÂÁ˚ÏˇÌÌ˚È „‡‰ËÂÌÚ 128" cx="26.58" cy="36.56" fx="26.58" fy="36.56" r="1.87" xlink:href="#_ÂÁ_Ï_ÌÌ_È_ËÂÌÚ_128"/>
    <linearGradient id="_ÂÁ_Ï_ÌÌ_È_ËÂÌÚ_1655-2" data-name="¡ÂÁ˚ÏˇÌÌ˚È „‡‰ËÂÌÚ 1655" x1="-893.19" y1="198.05" x2="-892.82" y2="198.05" gradientTransform="translate(-26667.07 -7999.4) rotate(-174.73) scale(30.74 -28.03) skewX(1.23)" xlink:href="#_ÂÁ_Ï_ÌÌ_È_ËÂÌÚ_1655"/>
    <linearGradient id="_ÂÁ_Ï_ÌÌ_È_ËÂÌÚ_44" data-name="¡ÂÁ˚ÏˇÌÌ˚È „‡‰ËÂÌÚ 44" x1="21.83" y1="35.51" x2="31.17" y2="35.51" gradientUnits="userSpaceOnUse">
      <stop offset="0" stop-color="#38221e"/>
      <stop offset=".77" stop-color="#291915"/>
    </linearGradient>
    <linearGradient id="_ÂÁ_Ï_ÌÌ_È_ËÂÌÚ_44-2" data-name="¡ÂÁ˚ÏˇÌÌ˚È „‡‰ËÂÌÚ 44" x1="39.62" y1="35.43" x2="48.98" y2="35.43" xlink:href="#_ÂÁ_Ï_ÌÌ_È_ËÂÌÚ_44"/>
    <linearGradient id="linear-gradient-17" x1="70.8" y1="81.87" x2="70.12" y2="78.48" xlink:href="#linear-gradient-9"/>
    <linearGradient id="linear-gradient-18" x1="70.26" y1="78.21" x2="70.24" y2="80.87" gradientTransform="translate(-34.3 -34.94) rotate(.54)" xlink:href="#linear-gradient-6"/>
    <linearGradient id="_ÂÁ_Ï_ÌÌ_È_ËÂÌÚ_25" data-name="¡ÂÁ˚ÏˇÌÌ˚È „‡‰ËÂÌÚ 25" x1="70.1" y1="74.6" x2="70.14" y2="77.32" gradientTransform="translate(-34.3 -34.94) rotate(.54)" gradientUnits="userSpaceOnUse">
      <stop offset="0" stop-color="#f7d4ab"/>
      <stop offset="1" stop-color="#ffd9b3"/>
    </linearGradient>
    <linearGradient id="linear-gradient-19" x1="57.05" y1="61.62" x2="57" y2="58.32" gradientTransform="translate(-21.49 -14.07) rotate(.37)" gradientUnits="userSpaceOnUse">
      <stop offset="0" stop-color="#ffd9b3"/>
      <stop offset="1" stop-color="#f7d4ab"/>
    </linearGradient>
    <linearGradient id="linear-gradient-20" x1="64.42" y1="84.5" x2="67.7" y2="84.5" gradientTransform="translate(-36.86 -38.97) rotate(1.42)" xlink:href="#linear-gradient-6"/>
    <linearGradient id="_ÂÁ_Ï_ÌÌ_È_ËÂÌÚ_1253" data-name="¡ÂÁ˚ÏˇÌÌ˚È „‡‰ËÂÌÚ 1253" x1="81.08" y1="84.33" x2="84.18" y2="84.33" gradientTransform="translate(-36.86 -38.97) rotate(1.42)" gradientUnits="userSpaceOnUse">
      <stop offset="0" stop-color="#f0c499"/>
      <stop offset=".51" stop-color="#e3b086"/>
      <stop offset="1" stop-color="#dba379"/>
    </linearGradient>
    <linearGradient id="linear-gradient-21" x1="69.61" y1="89.35" x2="79.34" y2="89.35" gradientTransform="translate(-36.86 -38.97) rotate(1.42)" xlink:href="#linear-gradient-6"/>
    <linearGradient id="linear-gradient-22" x1="-928.72" y1="206.88" x2="-928.39" y2="206.88" gradientTransform="translate(-30848.82 -5886.45) rotate(178.3) scale(33.05 -33.11) skewX(-.01)" gradientUnits="userSpaceOnUse">
      <stop offset="0" stop-color="#e8d8d7"/>
      <stop offset=".14" stop-color="#efe4e4"/>
      <stop offset=".39" stop-color="#faf8f7"/>
      <stop offset=".57" stop-color="#fff"/>
      <stop offset="1" stop-color="#e8d2d1"/>
    </linearGradient>
    <linearGradient id="linear-gradient-23" x1="-904.8" y1="152.58" x2="-904.51" y2="152.58" gradientTransform="translate(53468.11 9070.11) rotate(.57) scale(59.3 -55.63) skewX(.79)" gradientUnits="userSpaceOnUse">
      <stop offset="0" stop-color="#e8d8d7"/>
      <stop offset=".04" stop-color="#ebdddc"/>
      <stop offset=".21" stop-color="#f6f0ef"/>
      <stop offset=".38" stop-color="#fcfbfb"/>
      <stop offset=".57" stop-color="#fff"/>
      <stop offset=".69" stop-color="#fbf7f7"/>
      <stop offset=".87" stop-color="#f1e3e3"/>
      <stop offset="1" stop-color="#e8d2d1"/>
    </linearGradient>
    <linearGradient id="linear-gradient-24" x1="-903.49" y1="142.38" x2="-903.18" y2="142.38" gradientTransform="translate(36061.83 2419.43) rotate(-5.19) scale(39.48 -39.48)" gradientUnits="userSpaceOnUse">
      <stop offset="0" stop-color="#f96e7e"/>
      <stop offset=".03" stop-color="#f9707f"/>
      <stop offset=".25" stop-color="#fd7985"/>
      <stop offset=".53" stop-color="#ff7d88"/>
      <stop offset=".76" stop-color="#fd7985"/>
      <stop offset="1" stop-color="#f86d7d"/>
      <stop offset="1" stop-color="#f86d7d"/>
    </linearGradient>
    <linearGradient id="linear-gradient-25" x1="57.1" y1="138.53" x2="70.24" y2="138.56" gradientTransform="translate(-25.21 -91.74) rotate(1.22)" gradientUnits="userSpaceOnUse">
      <stop offset="0" stop-color="#e8d8d7"/>
      <stop offset=".05" stop-color="#eadcdb"/>
      <stop offset=".31" stop-color="#f6efee"/>
      <stop offset=".48" stop-color="#fbf6f6"/>
      <stop offset="1" stop-color="#e8d2d1"/>
    </linearGradient>
    <linearGradient id="linear-gradient-26" x1="49.15" y1="108.99" x2="58.55" y2="108.99" gradientTransform="translate(-17.39 -61.81) rotate(.52)" xlink:href="#linear-gradient-24"/>
    <linearGradient id="_ÂÁ_Ï_ÌÌ_È_ËÂÌÚ_25-2" data-name="¡ÂÁ˚ÏˇÌÌ˚È „‡‰ËÂÌÚ 25" x1="80.31" y1="78.22" x2="90.02" y2="78.22" xlink:href="#_ÂÁ_Ï_ÌÌ_È_ËÂÌÚ_25"/>
    <linearGradient id="_ÂÁ_Ï_ÌÌ_È_ËÂÌÚ_1259-5" data-name="¡ÂÁ˚ÏˇÌÌ˚È „‡‰ËÂÌÚ 1259" x1="70.66" y1="89.86" x2="69.92" y2="100.65" gradientTransform="translate(-34.3 -34.94) rotate(.54)" xlink:href="#_ÂÁ_Ï_ÌÌ_È_ËÂÌÚ_1259"/>
    <linearGradient id="_ÂÁ_Ï_ÌÌ_È_ËÂÌÚ_41" data-name="¡ÂÁ˚ÏˇÌÌ˚È „‡‰ËÂÌÚ 41" x1="53.89" y1="62.54" x2="67.54" y2="62.22" gradientTransform="translate(-34.3 -34.94) rotate(.54)" gradientUnits="userSpaceOnUse">
      <stop offset="0" stop-color="#3b2621"/>
      <stop offset=".41" stop-color="#3c2722"/>
      <stop offset=".56" stop-color="#432c25"/>
      <stop offset=".66" stop-color="#4f362c"/>
      <stop offset=".75" stop-color="#604335"/>
      <stop offset=".82" stop-color="#765441"/>
      <stop offset=".88" stop-color="#916950"/>
      <stop offset=".94" stop-color="#b18262"/>
      <stop offset=".99" stop-color="#d69f76"/>
      <stop offset="1" stop-color="#dba379"/>
    </linearGradient>
    <linearGradient id="_ÂÁ_Ï_ÌÌ_È_ËÂÌÚ_41-2" data-name="¡ÂÁ˚ÏˇÌÌ˚È „‡‰ËÂÌÚ 41" x1="-1288.98" y1="62.04" x2="-1275.32" y2="61.72" gradientTransform="translate(-1236.7 -45.74) rotate(-179.46) scale(1 -1)" xlink:href="#_ÂÁ_Ï_ÌÌ_È_ËÂÌÚ_41"/>
    <linearGradient id="_ÂÁ_Ï_ÌÌ_È_ËÂÌÚ_126" data-name="¡ÂÁ˚ÏˇÌÌ˚È „‡‰ËÂÌÚ 126" x1="-817.28" y1="164.33" x2="-817.04" y2="164.33" gradientTransform="translate(10426.35 2370.92) rotate(1.26) scale(12.79 -12.79)" gradientUnits="userSpaceOnUse">
      <stop offset="0" stop-color="#ffd9b3"/>
      <stop offset=".52" stop-color="#fccfa9"/>
      <stop offset="1" stop-color="#f8c39c"/>
    </linearGradient>
    <linearGradient id="_ÂÁ_Ï_ÌÌ_È_ËÂÌÚ_126-2" data-name="¡ÂÁ˚ÏˇÌÌ˚È „‡‰ËÂÌÚ 126" x1="-894" y1="163.37" x2="-893.76" y2="163.37" gradientTransform="translate(-11379.18 2165.43) rotate(179.82) scale(12.79)" xlink:href="#_ÂÁ_Ï_ÌÌ_È_ËÂÌÚ_126"/>
    <linearGradient id="_ÂÁ_Ï_ÌÌ_È_ËÂÌÚ_33-4" data-name="¡ÂÁ˚ÏˇÌÌ˚È „‡‰ËÂÌÚ 33" x1="69.86" y1="73.18" x2="96.63" y2="106.25" gradientTransform="translate(-34.3 -34.94) rotate(.54)" xlink:href="#_ÂÁ_Ï_ÌÌ_È_ËÂÌÚ_33"/>
    <linearGradient id="_ÂÁ_Ï_ÌÌ_È_ËÂÌÚ_33-5" data-name="¡ÂÁ˚ÏˇÌÌ˚È „‡‰ËÂÌÚ 33" x1="100.21" y1="115.91" x2="96.93" y2="104.49" gradientTransform="translate(-34.3 -34.94) rotate(.54)" xlink:href="#_ÂÁ_Ï_ÌÌ_È_ËÂÌÚ_33"/>
    <linearGradient id="_ÂÁ_Ï_ÌÌ_È_ËÂÌÚ_33-6" data-name="¡ÂÁ˚ÏˇÌÌ˚È „‡‰ËÂÌÚ 33" x1="-1106.22" y1="114.41" x2="-1109.5" y2="102.99" gradientTransform="translate(-1098.81 -44.44) rotate(-179.46) scale(1 -1)" xlink:href="#_ÂÁ_Ï_ÌÌ_È_ËÂÌÚ_33"/>
    <linearGradient id="_ÂÁ_Ï_ÌÌ_È_ËÂÌÚ_33-7" data-name="¡ÂÁ˚ÏˇÌÌ˚È „‡‰ËÂÌÚ 33" x1="57.44" y1="79.28" x2="54.74" y2="104.91" gradientTransform="translate(-34.3 -34.94) rotate(.54)" xlink:href="#_ÂÁ_Ï_ÌÌ_È_ËÂÌÚ_33"/>
    <linearGradient id="_ÂÁ_Ï_ÌÌ_È_ËÂÌÚ_46" data-name="¡ÂÁ˚ÏˇÌÌ˚È „‡‰ËÂÌÚ 46" x1="90.49" y1="113.78" x2="85.27" y2="70.33" gradientTransform="translate(-34.3 -34.94) rotate(.54)" gradientUnits="userSpaceOnUse">
      <stop offset="0" stop-color="#593a33"/>
      <stop offset=".29" stop-color="#482e29"/>
      <stop offset=".61" stop-color="#3e2822"/>
      <stop offset="1" stop-color="#3b2621"/>
    </linearGradient>
    <linearGradient id="_ÂÁ_Ï_ÌÌ_È_ËÂÌÚ_33-8" data-name="¡ÂÁ˚ÏˇÌÌ˚È „‡‰ËÂÌÚ 33" x1="86.2" y1="85.76" x2="80.61" y2="39.28" gradientTransform="translate(-34.3 -34.94) rotate(.54)" xlink:href="#_ÂÁ_Ï_ÌÌ_È_ËÂÌÚ_33"/>
    <linearGradient id="_ÂÁ_Ï_ÌÌ_È_ËÂÌÚ_33-9" data-name="¡ÂÁ˚ÏˇÌÌ˚È „‡‰ËÂÌÚ 33" x1="59.26" y1="85.03" x2="54.06" y2="41.76" gradientTransform="translate(-34.3 -34.94) rotate(.54)" xlink:href="#_ÂÁ_Ï_ÌÌ_È_ËÂÌÚ_33"/>
    <linearGradient id="_ÂÁ_Ï_ÌÌ_È_ËÂÌÚ_55" data-name="¡ÂÁ˚ÏˇÌÌ˚È „‡‰ËÂÌÚ 55" x1="48.55" y1="111.98" x2="48.02" y2="65.36" gradientTransform="translate(-34.3 -34.94) rotate(.54)" gradientUnits="userSpaceOnUse">
      <stop offset="0" stop-color="#593a33"/>
      <stop offset=".19" stop-color="#52352f"/>
      <stop offset="1" stop-color="#3b2621"/>
    </linearGradient>
    <linearGradient id="linear-gradient-27" x1="80.8" y1="108.88" x2="84.94" y2="48.04" gradientTransform="translate(-34.3 -34.94) rotate(.54)" gradientUnits="userSpaceOnUse">
      <stop offset="0" stop-color="#593a33"/>
      <stop offset=".4" stop-color="#5d3d36"/>
      <stop offset=".85" stop-color="#6a4741"/>
      <stop offset="1" stop-color="#714c46"/>
    </linearGradient>
    <linearGradient id="_ÂÁ_Ï_ÌÌ_È_ËÂÌÚ_33-10" data-name="¡ÂÁ˚ÏˇÌÌ˚È „‡‰ËÂÌÚ 33" x1="63.36" y1="98.41" x2="57.71" y2="56.81" gradientTransform="translate(-34.3 -34.94) rotate(.54)" xlink:href="#_ÂÁ_Ï_ÌÌ_È_ËÂÌÚ_33"/>
    <linearGradient id="_ÂÁ_Ï_ÌÌ_È_ËÂÌÚ_33-11" data-name="¡ÂÁ˚ÏˇÌÌ˚È „‡‰ËÂÌÚ 33" x1="87.58" y1="95.12" x2="81.93" y2="53.52" gradientTransform="translate(-34.3 -34.94) rotate(.54)" xlink:href="#_ÂÁ_Ï_ÌÌ_È_ËÂÌÚ_33"/>
    <linearGradient id="_ÂÁ_Ï_ÌÌ_È_ËÂÌÚ_48" data-name="¡ÂÁ˚ÏˇÌÌ˚È „‡‰ËÂÌÚ 48" x1="50.62" y1="127.66" x2="42.09" y2="88.4" gradientTransform="translate(-34.3 -34.94) rotate(.54)" gradientUnits="userSpaceOnUse">
      <stop offset="0" stop-color="#3b2621"/>
      <stop offset=".77" stop-color="#51342e"/>
      <stop offset="1" stop-color="#593a33"/>
    </linearGradient>
    <linearGradient id="linear-gradient-28" x1="53" y1="71.55" x2="52.57" y2="105.8" xlink:href="#linear-gradient-27"/>
    <linearGradient id="linear-gradient-29" x1="83.37" y1="112.71" x2="84.98" y2="89.05" xlink:href="#linear-gradient-27"/>
    <linearGradient id="linear-gradient-30" x1="81.99" y1="106.12" x2="83.38" y2="85.72" xlink:href="#linear-gradient-27"/>
    <linearGradient id="linear-gradient-31" x1="57.87" y1="109.94" x2="59.43" y2="87.09" xlink:href="#linear-gradient-27"/>
    <linearGradient id="linear-gradient-32" x1="47.64" y1="111.76" x2="48.52" y2="98.84" xlink:href="#linear-gradient-27"/>
    <linearGradient id="linear-gradient-33" x1="87.99" y1="112.12" x2="88.78" y2="100.48" xlink:href="#linear-gradient-27"/>
    <linearGradient id="linear-gradient-34" x1="71.01" y1="47.23" x2="69.1" y2="35.35" xlink:href="#linear-gradient-27"/>
    <linearGradient id="_ÂÁ_Ï_ÌÌ_È_ËÂÌÚ_33-12" data-name="¡ÂÁ˚ÏˇÌÌ˚È „‡‰ËÂÌÚ 33" x1="76.42" y1="55.2" x2="79.62" y2="48.51" gradientTransform="translate(-34.3 -34.94) rotate(.54)" xlink:href="#_ÂÁ_Ï_ÌÌ_È_ËÂÌÚ_33"/>
    <linearGradient id="_ÂÁ_Ï_ÌÌ_È_ËÂÌÚ_33-13" data-name="¡ÂÁ˚ÏˇÌÌ˚È „‡‰ËÂÌÚ 33" x1="59.38" y1="58.98" x2="65.46" y2="46.27" gradientTransform="translate(-34.3 -34.94) rotate(.54)" xlink:href="#_ÂÁ_Ï_ÌÌ_È_ËÂÌÚ_33"/>
    <linearGradient id="_ÂÁ_Ï_ÌÌ_È_ËÂÌÚ_33-14" data-name="¡ÂÁ˚ÏˇÌÌ˚È „‡‰ËÂÌÚ 33" x1="93.06" y1="67.44" x2="74.29" y2="36.51" gradientTransform="translate(-34.3 -34.94) rotate(.54)" xlink:href="#_ÂÁ_Ï_ÌÌ_È_ËÂÌÚ_33"/>
    <linearGradient id="_ÂÁ_Ï_ÌÌ_È_ËÂÌÚ_33-15" data-name="¡ÂÁ˚ÏˇÌÌ˚È „‡‰ËÂÌÚ 33" x1="61.44" y1="58.22" x2="53.35" y2="44.89" gradientTransform="translate(-34.3 -34.94) rotate(.54)" xlink:href="#_ÂÁ_Ï_ÌÌ_È_ËÂÌÚ_33"/>
    <linearGradient id="_ÂÁ_Ï_ÌÌ_È_ËÂÌÚ_33-16" data-name="¡ÂÁ˚ÏˇÌÌ˚È „‡‰ËÂÌÚ 33" x1="96.68" y1="85.5" x2="91.46" y2="50.08" gradientTransform="translate(-34.3 -34.94) rotate(.54)" xlink:href="#_ÂÁ_Ï_ÌÌ_È_ËÂÌÚ_33"/>
    <linearGradient id="_ÂÁ_Ï_ÌÌ_È_ËÂÌÚ_33-17" data-name="¡ÂÁ˚ÏˇÌÌ˚È „‡‰ËÂÌÚ 33" x1="48.41" y1="79.22" x2="44.91" y2="55.51" gradientTransform="translate(-34.3 -34.94) rotate(.54)" xlink:href="#_ÂÁ_Ï_ÌÌ_È_ËÂÌÚ_33"/>
    <linearGradient id="_ÂÁ_Ï_ÌÌ_È_ËÂÌÚ_45" data-name="¡ÂÁ˚ÏˇÌÌ˚È „‡‰ËÂÌÚ 45" x1="102.33" y1="116.4" x2="92.95" y2="73.16" gradientTransform="translate(-34.3 -34.94) rotate(.54)" gradientUnits="userSpaceOnUse">
      <stop offset="0" stop-color="#3b2621"/>
      <stop offset=".38" stop-color="#472e28"/>
      <stop offset="1" stop-color="#593a33"/>
    </linearGradient>
    <linearGradient id="linear-gradient-35" x1="52.44" y1="92.5" x2="55.6" y2="46.03" xlink:href="#linear-gradient-27"/>
    <linearGradient id="_ÂÁ_Ï_ÌÌ_È_ËÂÌÚ_46-2" data-name="¡ÂÁ˚ÏˇÌÌ˚È „‡‰ËÂÌÚ 46" x1="61.39" y1="108.3" x2="48.19" y2="86.55" xlink:href="#_ÂÁ_Ï_ÌÌ_È_ËÂÌÚ_46"/>
  </defs>
  <g id="Layer_1-2" data-name="Layer 1">
    <g style="clip-path: url(#clippath);">
      <g>
        <path d="M52.08,71.85s14.77-2.63,22.07,3.83c4.87,4.31,6.8,24.66,7.34,27.26s5.38,23.49,5.38,25.72.18,7.81-1.64,10.04c-1.82,2.23-25.81,18.03-25.81,18.03l-.18-19.51,12.9-12.64-7.81-27.69-12.27-25.03Z" style="fill: #f7d4ab;"/>
        <path d="M21.94,71.45s-14.36-2.04-21.9,3.96c-5.67,4.51-6.85,24.93-7.39,27.53s-5.56,23.46-5.56,25.69-.18,7.81,1.64,10.04c1.82,2.23,25.81,18.03,25.81,18.03l.18-19.51-12.9-12.64,7.81-27.69,12.32-25.4Z" style="fill: #f7d4ab;"/>
        <g>
          <g>
            <path d="M63.86,62.36s4.02,8.18-.23,16.92l.23-16.92Z" style="fill: url(#_ÂÁ_Ï_ÌÌ_È_ËÂÌÚ_33);"/>
            <path d="M6.33,62.54s-4.5,7.92-.79,16.91l.79-16.91Z" style="fill: url(#_ÂÁ_Ï_ÌÌ_È_ËÂÌÚ_33-2);"/>
            <path d="M35.7,6.93s13.58-.42,18.08,10.56c4.5,10.98,4.94,28.83,5.57,33.79.63,4.97-2.48,20.31-2.48,20.31l-43.31,1.06s-1.67-35.23-.37-41.93c1.3-6.69,22.52-23.8,22.52-23.8Z" style="fill: url(#_ÂÁ_Ï_ÌÌ_È_ËÂÌÚ_33-3);"/>
          </g>
          <path d="M44.16,44.76s.79,19.66,2.62,21.03c2.32,1.74,25.21,6.81,26.67,8.48,3.64,4.15,4.1,2.14,5.01,10.82s-81.09,1.13-81.09,1.13c0,0,2.17-11.71,4.61-12.9,7.11-3.48,19.48-5.44,22.75-6.63,4.58-1.67,3.89-19.18,3.89-19.18l15.55-2.74Z" style="fill: #f7d4ab;"/>
          <path d="M33.6,72.32s1.1-1.93,4.78-1.18c0,0-3.79.43-4.78,1.18Z" style="fill: url(#linear-gradient);"/>
          <path d="M46.79,65.23c-1.24-1.18-1.4-14.89-1.4-14.89,0,0-18.03.99-18.31.67.01,1.27.12,10.36,0,11.32-.14,1.1.05,4.39-12.32,7.04,0,0,4.22-.21,12-1.93,0,0,2.84-.48,3.17-1.97,0,0,8.29.52,12.48-3.52.43,3.19.84,8.96,1.86,9.62,1.03.66,10.23,1.69,10.23,1.69l1.22-4.31c-2.63-.64-7.67-2.55-8.91-3.73Z" style="fill: url(#linear-gradient-2);"/>
          <path d="M33.45,68.49s-1.54-2.03-2.85-1.98c-1.31.05-13.09,3.18-14.77,3.33,0,0,4.49-.09,8.1-.7,3.61-.6,6.17-2,9.53-.66Z" style="fill: url(#linear-gradient-3);"/>
          <path d="M38.31,68.09s1.28-1.57,2.93-1.72c1.65-.15,13.18,2.75,15.24,3.45,0,0-14.77-2.87-18.17-1.73Z" style="fill: url(#linear-gradient-4);"/>
          <path d="M18.47,68.49s-.91,13.51,16.38,12.66c17.29-.85,19.63-12.73,19.63-12.73l-5.77-2.01s-1.28,2.37-10.6,2.4c-13.55.04-13.77-2.69-13.77-2.69l-5.86,2.37Z" style="fill: url(#linear-gradient-5);"/>
          <path d="M74.74,74.13c-1.27-.99-5.29-2.8-9.72-4.01-6.14-1.69-12.76-3.15-12.76-3.15,0,0-3.1,4.36-16.23,3.9-15.09-.53-15.14-3.9-15.14-3.9l-12.02,3.53-7.84,2.77c0,.66,5.86,36.12,5.86,36.12l3.22,34.12c25.4,2.34,41.52,1.03,54.41,0l3.21-32.34s.42-8.93.73-9c.23-5.43,10.18-25.01,6.27-28.04Z" style="fill: #f5d534;"/>
          <path d="M20.9,66.97s-1.59,5.66,17.36,5.01c14.05-.48,14-5.01,14-5.01l-2.11-.68s-.25,3.66-12.25,3.92c-15.47.34-14.88-3.92-14.88-3.92l-2.13.68Z" style="fill: url(#_ÂÁ_Ï_ÌÌ_È_ËÂÌÚ_147);"/>
          <path d="M27.09,62.2s-.26-10.36-.55-12.61l18.91,1.95.17,5.6s-6.39,8.84-18.53,5.06Z" style="fill: url(#linear-gradient-6);"/>
          <path d="M-13.67,107.63s3.27-10.52,5.94-19.52c2.65-8.94,5.31-12.37,6.99-14.01,1.68-1.63,9.16-3.48,9.16-3.48,0,0-7.29,5.2-8.15,6.48-1.62,2.44-5.63,12.94-9.19,30.57l-4.76-.05Z" style="fill: url(#_ÂÁ_Ï_ÌÌ_È_ËÂÌÚ_30);"/>
          <path d="M88.49,109.33s-3.53-13.62-6.2-22.61c-2.65-8.94-5.12-10.97-6.8-12.61-1.68-1.63-9.92-3.84-9.92-3.84,0,0,7.93,5.56,8.79,6.85,1.62,2.44,5.98,14.43,9.54,32.07l4.59.15Z" style="fill: url(#_ÂÁ_Ï_ÌÌ_È_ËÂÌÚ_30-2);"/>
          <g>
            <path d="M35.98,6.87s-.05-.03-.05-.03c.02.01.03.02.05.03Z" style="fill: url(#_ÂÁ_Ï_ÌÌ_È_ËÂÌÚ_14);"/>
            <g>
              <g>
                <path d="M17.04,33.91c.76,6.25,1.64,11.09,1.64,11.09-2.67-.03-3.85-2.8-4.87-5.17-1.56-3.62-2.46-7.49,1.17-7.66.71-.03,2.07,1.74,2.07,1.74Z" style="fill: url(#_ÂÁ_Ï_ÌÌ_È_ËÂÌÚ_1259);"/>
                <path d="M16.47,42.79s-1.29-1.39-.86-4.11c1.02-6.41-3.33-6.89-2.38-2.5,0,0,.62-2.06,1.16-1.44.67.76-.74,1.17-.05,4.49.36,1.72,2.13,3.56,2.13,3.56Z" style="fill: url(#linear-gradient-7);"/>
              </g>
              <g>
                <path d="M54.38,34.26c-.88,6.23-1.61,10.97-1.61,10.97,2.67.03,3.67-2.64,4.74-4.99,1.63-3.59,2.6-7.44-1.02-7.68-.71-.05-2.1,1.7-2.1,1.7Z" style="fill: url(#_ÂÁ_Ï_ÌÌ_È_ËÂÌÚ_1259-2);"/>
                <path d="M54.78,43.15s1.32-1.37.94-4.09c-.89-6.42,3.46-6.82,2.43-2.45,0,0-.58-2.07-1.14-1.46-.68.75.71,1.18-.03,4.49-.39,1.72-2.2,3.51-2.2,3.51Z" style="fill: url(#linear-gradient-8);"/>
              </g>
              <path d="M52.37,14.48c-2.27-5.33-5.83-8.66-13.9-9.25,0,0-18.47,2.23-20.85,7.52-2.59,5.76-1.94,13.9-1.27,19.22.67,5.32,2.04,13.96,3.34,16.41s7.96,8.22,9.4,9.32c1.34,1.03,3.28,3.41,6.64,3.44,2.98.03,5.13-2.41,6.46-3.43,1.43-1.1,7.94-6.85,9.29-9.28,1.35-2.43,2.9-10.78,3.67-16.09.77-5.31-.31-12.05-2.79-17.86Z" style="fill: url(#_ÂÁ_Ï_ÌÌ_È_ËÂÌÚ_384);"/>
              <path d="M24.69,27.24c-2.64-.19-4.41.4-5.76,1.39-3.15,2.31-.92,8.9-.92,8.9,0,0,6.04,6.69,16.45,2.71-.79-4.35-1.3-12.42-9.77-13.01Z" style="fill: url(#linear-gradient-9);"/>
              <path d="M28.08,34.42c-2.37-.73-11.57-2.76-11.16.31.91,6.78,1.75,11.44,2.91,13.56,1.21,2.22,4.8,5.73,6.36,6.01,2.42.43,5.07-8.45,5.16-11.51.12-4.27-.89-7.63-3.27-8.36Z" style="fill: url(#radial-gradient);"/>
              <path d="M35.41,54.56c-1.7.06-3.07.66-3.07,1.33,0,.67,1.38,1.17,3.07,1.11,1.7-.07,3.06-.66,3.06-1.34,0-.67-1.38-1.17-3.07-1.11Z" style="fill: url(#linear-gradient-10);"/>
              <path d="M52.57,41.03s2.07-6.11,2.3-7.2c1.32-6.32,2.88-28.18-20.5-26.97-24.05,1.25-16.61,33.51-16.61,33.51,0,0,7.72-28.16,17.96-28.32,0,0,12.22.54,16.85,28.97Z" style="fill: url(#_ÂÁ_Ï_ÌÌ_È_ËÂÌÚ_1259-3);"/>
              <polygon points="17.75 40.38 19.7 48.39 19.83 23.4 17.32 25.91 17.75 40.38" style="fill: url(#_ÂÁ_Ï_ÌÌ_È_ËÂÌÚ_13);"/>
              <path d="M51.55,29.6c-1.34-.98-2.73-2.71-5.38-2.49-8.48.71-8.42,8.45-9.26,12.84,10.36,3.87,16.48-2.94,16.48-2.94,0,0,1.28-5.12-1.84-7.4Z" style="fill: url(#linear-gradient-11);"/>
              <path d="M16.45,32.65s1.58,12.33,3.13,15.77c.5,1.12,3.5,4.06,6.36,6.6,0,0-5.18-6.26-5.72-7.82-1.2-3.42-3.77-14.54-3.77-14.54Z" style="fill: url(#_ÂÁ_Ï_ÌÌ_È_ËÂÌÚ_1259-4);"/>
              <path d="M43.75,28.6s3.72-1.81,7.45.61c1.99,1.29,1.3,5.63,1.3,5.63.23,1.47-1.29-6.69-8.75-6.24Z" style="fill: url(#linear-gradient-12);"/>
              <path d="M43.42,34.56c2.38-.69,11.62-2.54,11.15.52-1.04,6.76-1.96,11.4-3.16,13.5-1.25,2.2-4.91,5.64-6.48,5.88-2.43.39-4.91-8.55-4.94-11.6-.04-4.27,1.04-7.61,3.42-8.3Z" style="fill: url(#radial-gradient-2);"/>
              <polygon points="53.21 41.75 51.31 47.66 51.11 24.44 54.15 26.03 53.21 41.75" style="fill: url(#_ÂÁ_Ï_ÌÌ_È_ËÂÌÚ_13-2);"/>
              <g>
                <g>
                  <path d="M44.45,31.19c-4.47-.18-5.25,3.51-5.35,5.8.42.09.86.16,1.68.4,1.11.32,2.42.84,4.29.81,1.48-.02,5.31-.86,4.69-3.78-.55-2.56-3.98-3.13-5.31-3.23Z" style="fill: url(#linear-gradient-13);"/>
                  <path d="M47.02,35.63c.07-1.43-.94-1.81-2.16-2.21,1.36.12,3.17-.08,5.17,1.57,0,0-1.13,2.39-4.36,2.82.75-.5,1.3-1.15,1.34-2.18Z" style="fill: url(#linear-gradient-14);"/>
                  <path d="M42.94,33.64c-.56.52-1.22.93-1.26,1.79-.05.99.21,1.56.86,2.16-.84-.22-1.72-.72-2.93-.89,0,0,1.37-1.9,3.33-3.06Z" style="fill: url(#_ÂÁ_Ï_ÌÌ_È_ËÂÌÚ_35);"/>
                  <path d="M41.61,35.32c-.02.11-.05.33-.05.46-.02.73.3,1.29.97,1.82.21.07,1.39.48,3.08.27.87-.16,1.63-1.01,1.68-1.92.03-.48-.08-.93-.29-1.33-1.53-.49-3.53-.48-5.39.72Z" style="fill: url(#_ÂÁ_Ï_ÌÌ_È_ËÂÌÚ_31);"/>
                  <path d="M41.89,35.71c0,1.35,1.15,2.24,2.58,2.24s2.58-.87,2.58-2.21-1.15-2.45-2.58-2.45-2.58,1.07-2.58,2.42Z" style="fill: url(#_ÂÁ_Ï_ÌÌ_È_ËÂÌÚ_31-2);"/>
                  <path d="M40.39,35.58s-.41.55.31,1.37c0,0-.51-.17-1.08-.25,0,0,.51-.88.77-1.12Z" style="fill: url(#_ÂÁ_Ï_ÌÌ_È_ËÂÌÚ_133);"/>
                  <path d="M45.84,33.84c1.44.26,2.78.93,3.57,1.93l-.38.7s-.62-.37-1.75-.84c-.22-.66-.82-1.46-1.44-1.8Z" style="fill: #ddd;"/>
                  <path d="M41.56,35.77c-.59.23-1.59.59-1.94.93,0,0,1.32-2.26,3.11-3.14-.54.42-1.05,1.53-1.17,2.2Z" style="fill: #ddd;"/>
                  <path d="M44.45,35.14c-1.81.14-2.61.5-2.9.63,0-.41.31-1.53,1.01-1.89.24-.13.57-.02.84-.08.83-.16,1.98-.07,2.84.09.62.34.93.93,1.03,1.74-.41-.24-1.33-.52-2.83-.5Z" style="fill: url(#_ÂÁ_Ï_ÌÌ_È_ËÂÌÚ_1050);"/>
                  <path d="M50.11,35.72h0c1.19-.62.63-2.31.64-2.37-.03.01-.77.71-2.58.22-5.61-1.51-8.34,1.32-8.55,3.13,0,0,1.42-2.01,4.59-2.26,1.8-.14,3.6.55,4.77,1.2-.84,1.05-1.5,1.61-3.37,2.21,1.37-.04,2.61-.56,3.49-.93.41-.17,1.49-.7,1.73-1.47-.2.39-.64.31-.73.26Z" style="fill: url(#_ÂÁ_Ï_ÌÌ_È_ËÂÌÚ_1655);"/>
                  <path d="M42.59,35.79c-.07.95.68,1.78,1.66,1.85.99.07,1.84-.65,1.91-1.6.07-.95-.68-1.78-1.66-1.85-.98-.07-1.84.64-1.9,1.6Z" style="fill: url(#_ÂÁ_Ï_ÌÌ_È_ËÂÌÚ_128);"/>
                  <path d="M44.77,36.6c.09.28-.06.56-.33.64-.27.08-.56-.09-.64-.36-.09-.28.06-.57.33-.64.27-.08.56.08.64.36Z" style="fill: #fff;"/>
                  <path d="M39.64,34.16s.72-3.74,5.76-2.85c0,0-4.15-.34-5.76,2.85Z" style="fill: #dba379;"/>
                  <path d="M25.93,31.14c4.09-.06,5.39,3.6,5.49,5.9-.42.09-.86.16-1.68.4-1.11.32-2.42.83-4.29.81-1.48-.02-5.03-.71-4.48-3.65.48-2.6,3.63-3.35,4.97-3.45Z" style="fill: url(#linear-gradient-15);"/>
                  <path d="M23.76,35.7c-.07-1.43.94-1.81,2.16-2.21-1.36.11-3.17-.08-5.18,1.57,0,0,1.13,2.39,4.36,2.83-.75-.5-1.3-1.15-1.34-2.19Z" style="fill: url(#linear-gradient-16);"/>
                  <path d="M27.84,33.72c.56.52,1.21.93,1.25,1.79.04.99-.21,1.56-.86,2.16.84-.22,1.72-.72,2.93-.89,0,0-1.37-1.9-3.32-3.06Z" style="fill: url(#_ÂÁ_Ï_ÌÌ_È_ËÂÌÚ_35-2);"/>
                  <path d="M29.18,35.39c.02.11.05.33.05.46.02.73-.31,1.29-.97,1.82-.21.07-1.39.48-3.08.26-.87-.16-1.63-1.01-1.68-1.92-.03-.48.08-.93.29-1.33,1.53-.49,3.53-.47,5.39.72Z" style="fill: url(#_ÂÁ_Ï_ÌÌ_È_ËÂÌÚ_1050-2);"/>
                  <path d="M28.93,35.71c0,1.35-1.15,2.24-2.58,2.24s-2.58-.87-2.58-2.21,1.15-2.45,2.58-2.45,2.58,1.07,2.58,2.42Z" style="fill: url(#_ÂÁ_Ï_ÌÌ_È_ËÂÌÚ_31-3);"/>
                  <path d="M30.4,35.66s.42.54-.3,1.36c0,0,.49-.16,1.06-.24,0,0-.5-.88-.76-1.13Z" style="fill: url(#_ÂÁ_Ï_ÌÌ_È_ËÂÌÚ_133-2);"/>
                  <path d="M24.95,33.91c-1.44.26-2.78.93-3.57,1.93l.38.7s.62-.37,1.75-.83c.22-.66.82-1.46,1.44-1.8Z" style="fill: #ddd;"/>
                  <path d="M29.23,35.85c.59.23,1.59.6,1.94.93,0,0-1.32-2.26-3.1-3.14.54.42,1.05,1.53,1.17,2.21Z" style="fill: #ddd;"/>
                  <path d="M26.33,35.21c1.81.14,2.61.5,2.9.63,0-.41-.31-1.53-1.01-1.89-.24-.13-.57-.02-.84-.08-.83-.16-1.97-.07-2.84.09-.62.34-.95.91-1.03,1.74.41-.24,1.33-.52,2.83-.49Z" style="fill: url(#_ÂÁ_Ï_ÌÌ_È_ËÂÌÚ_1050-3);"/>
                  <path d="M28.19,35.88c.07.95-.68,1.78-1.66,1.85-.99.07-1.84-.65-1.91-1.6-.07-.95.68-1.78,1.66-1.85.98-.07,1.84.65,1.9,1.6Z" style="fill: url(#_ÂÁ_Ï_ÌÌ_È_ËÂÌÚ_128-2);"/>
                  <path d="M26.61,36.67c.1.27-.05.57-.31.65-.27.09-.56-.07-.65-.35-.09-.27.05-.57.31-.65.27-.09.56.07.65.34Z" style="fill: #fff;"/>
                  <path d="M24.78,35.31s1.54-.61,3.35.2c0,0-.22-1.25-1.72-1.23-1.29.01-1.63,1.03-1.63,1.03Z" style="fill: #0f0f0f;"/>
                  <path d="M20.71,35.79h0c-1.19-.62-.63-2.31-.64-2.37.03.01.77.71,2.58.22,5.61-1.51,8.32,1.33,8.52,3.14,0,0-1.37-2.09-4.56-2.26-1.8-.1-3.6.55-4.77,1.2.84,1.05,1.48,1.62,3.35,2.21-1.37-.04-2.59-.56-3.48-.93-.41-.17-1.49-.7-1.73-1.47.2.39.64.31.73.26Z" style="fill: url(#_ÂÁ_Ï_ÌÌ_È_ËÂÌÚ_1655-2);"/>
                  <path d="M21.83,35.72s5.73-3.21,9.33,1.07c0,0-3.3-4.91-9.33-1.07Z" style="fill: url(#_ÂÁ_Ï_ÌÌ_È_ËÂÌÚ_44);"/>
                  <path d="M42.67,35.4s.26-1.12,1.61-1.18c1.34-.06,1.66.88,1.76,1.05,0,0-1.55-.53-3.37.12Z" style="fill: #0f0f0f;"/>
                  <path d="M25.08,31.26s4.28-1.09,5.7,3.04c0,0-1.24-3.02-5.7-3.04Z" style="fill: #dba379;"/>
                  <path d="M48.98,35.65s-5.76-3.22-9.36,1.06c0,0,3.37-4.95,9.36-1.06Z" style="fill: url(#_ÂÁ_Ï_ÌÌ_È_ËÂÌÚ_44-2);"/>
                  <path d="M28.53,35.67c.12.36-.08.76-.45.88-.37.12-.76-.07-.88-.44-.12-.36.08-.76.45-.88.37-.12.76.07.88.43Z" style="fill: #fff;"/>
                  <path d="M46.72,35.66c.11.37-.1.75-.47.87-.37.11-.76-.09-.86-.46-.11-.37.11-.75.47-.86.37-.11.76.09.87.46Z" style="fill: #fff;"/>
                </g>
                <g>
                  <polygon points="31.67 44.78 35.27 47.3 38.7 44.77 38.22 44.36 35.11 44.37 32.02 44.34 31.67 44.78" style="fill: url(#linear-gradient-17);"/>
                  <path d="M31.78,44.71s1.38-.41,2.58.11h1.48s1.47-.54,2.87-.05l.07-.67-1.17-.25-2.48.6-2.26-.65-1.18.13.1.78Z" style="fill: url(#linear-gradient-18);"/>
                  <path d="M31.33,41.83s-.64.35-.75,1.32c-.12,1.11,1.02,1.73,1.2,1.61.18-.11-.14-.96.92-.8,1.06.16,1,.69,1.17.88s2.04.25,2.36.05c.32-.19.24-.92,1.24-.88s1.03.73,1.17.82c.14.09.74-.44.92-1.46.18-1.02-.89-1.47-.89-1.47,0,0,.53.91.3,1.49-.23.58-1.78.06-2.41.45-1.17.72-1.88.53-3.03-.03-.76-.37-1.83.07-2.25-.56-.15-.22-.18-1,.04-1.43Z" style="fill: #f0c499;"/>
                  <path d="M32.75,41.34c-.03.71.05,1.01.35,1.48.45.71,3.69,1.32,4.26-.3.11-.32.11-.83.06-1.46-.06-.73-4.65-.42-4.68.28Z" style="fill: url(#_ÂÁ_Ï_ÌÌ_È_ËÂÌÚ_25);"/>
                </g>
                <path d="M27.43,46.76s6.21.91,8.32.97c2.11.06,7.12-.89,7.12-.89,0,0-5.02-.63-7.74-.6-2.73.03-7.71.52-7.71.52Z" style="fill: url(#linear-gradient-19);"/>
                <g>
                  <path d="M26.24,47.25c-.48-.17-.94-.96-.73-1.32.19-.32,2.41,1.34,3.17,2.46-1.05-.79-1.96-.97-2.45-1.14Z" style="fill: url(#linear-gradient-20);"/>
                  <path d="M44.45,47.46c.48-.18.94-.98.72-1.33-.2-.32-2.37,1.4-3.1,2.54,1.02-.82,1.9-1.03,2.38-1.22Z" style="fill: url(#_ÂÁ_Ï_ÌÌ_È_ËÂÌÚ_1253);"/>
                  <path d="M30.54,50.87c.89,1.94,5.9,4.71,9.73.14,0,0-5.35,2.21-9.73-.14Z" style="fill: url(#linear-gradient-21);"/>
                  <path d="M34.88,47.67c-4.77-.15-7.54-.9-8.66-1.15h0c.03.06.05.08.08.13.59.27,1.28.46,2.14,1.09.6.44,1.13,3.31,7.07,3.36,3.24.03,5.22-1.02,7.17-3.14.61-.66,1.19-.86,1.66-1.12.01-.05.04-.08.05-.13-1.31.34-3.93,1.14-9.52.97Z" style="fill: #961b27;"/>
                  <path d="M40.22,48.28c-3.34.67-7.87.49-9.51.17-.95-.43-.87.75-.87.75,2.05,2.12,3.73,1.76,5.41,1.84,1.65.07,4.14-.53,5.63-1.78.15-.38-.19-1.07-.66-.98Z" style="fill: url(#linear-gradient-22);"/>
                  <path d="M41.71,47.11s-1.1.49-3.65.71c-2.58.22-3.66.05-5.97-.11-1.06-.07-1.71-.23-3.03-.57,0,0,.24.3.39.65.19.46,1.17,2.02,5.95,2.05,3.59.02,5.51-1.19,5.78-1.94.16-.45.5-.65.53-.8Z" style="fill: url(#linear-gradient-23);"/>
                  <path d="M35.84,50.88c-7.3-.15-4.7-3-9.53-4.24.03,0,1.11.6,2.36,2.06,1.38,1.61,2.55,4.14,6.64,4.19,3.69.04,5.77-2.54,6.97-3.96,1.38-1.62,2.06-2.1,2.09-2.11-3.98.98-2.72,3.99-8.53,4.06Z" style="fill: #f86d78;"/>
                  <path d="M31.53,50.15c-1.11-.58-2.09-1.79-2.3-1.95.26.35,1.77,4.15,5.88,4.14,4.75-.01,5.67-3.1,6.53-4.01-.41.4-1.44,1.49-2.68,1.89-.82.26-2.2.56-3.74.6-.98.02-2.61-.2-3.69-.67Z" style="fill: url(#linear-gradient-24);"/>
                  <path d="M38.81,50.68c.06.16-.41.69-1.38.94-1.25.32-2.23-.03-2.29-.19-.06-.16,1.59-.25,2.08-.4.48-.15,1.54-.51,1.6-.35Z" style="fill: #ff9aa2;"/>
                  <path d="M26.37,46.92c.29.13.51-.08,1.65.35,0,0-1.93-1.03-2.06-.97-.09.04-.01.42.41.62Z" style="fill: #961b27;"/>
                  <path d="M44.36,47.11c-.29.13-.6-.08-1.61.34,0,0,1.88-1.06,2.03-.95.08.06,0,.42-.42.61Z" style="fill: #961b27;"/>
                  <path d="M29.17,47.26l.3.56s2.05,1.12,6.29,1.19c3.06.05,5.41-1.05,5.41-1.05l.25-.55-12.25-.16Z" style="fill: url(#linear-gradient-25);"/>
                  <path d="M35.55,47.16c-1.18-.04-6.62-.09-8.93-.6,0,0,.85.53,5.11,1.42,1.27.26,2.39.52,3.7.52,1.56.04,2.87-.26,4.09-.43,2.06-.3,4.51-1.25,4.52-1.3-1.1.28-7.53.43-8.49.39Z" style="fill: #f86d78;"/>
                  <path d="M30.78,47.29c.04-.14,2.16,0,2.51,0,.35,0,3.62.13,3.98.12.51,0,2.94-.08,2.91.1-.03.18-3.78.55-4.23.57-.44.03-5.3-.37-5.17-.8Z" style="fill: url(#linear-gradient-26);"/>
                </g>
              </g>
              <path d="M55.08,33.01s-1.82,12.3-3.42,15.7c-.52,1.11-3.24,3.71-6.5,6.45,0,0,4.78-5.4,5.75-7.88,1.32-3.37,4.17-14.27,4.17-14.27Z" style="fill: url(#_ÂÁ_Ï_ÌÌ_È_ËÂÌÚ_25-2);"/>
              <path d="M25.94,55.01s4.57,3.92,5.06,4.21c.98.57,1.9,1.37,4.47,1.48,2.5.11,4.04-.92,4.75-1.38.74-.49,4.59-3.81,4.95-4.15,0,0-3.07,3.69-4.22,4.62-1.88,1.52-4.07,2.31-5.44,2.3-1.72-.02-3.13-1.09-4.6-1.94-1.6-.92-4.96-5.13-4.96-5.13Z" style="fill: url(#_ÂÁ_Ï_ÌÌ_È_ËÂÌÚ_1259-5);"/>
              <path d="M29.93,27.23c.27.33.42,1.38.2,1.93.01-.89-.35-1.9-.94-2.12-.05-.01-.12-.03-.18-.04.4.37.62.93.57,1.6-.18-.5-.52-1.38-1.12-1.68-1.76-.29-4.4-.68-5.6-.46-1.7.31-3.97,3.21-3.97,3.21.57-.42,2.69-1.12,4.25-1.21,1-.06,5.98.97,7.29,1.16.17.02.54-1.7-.49-2.38Z" style="fill: url(#_ÂÁ_Ï_ÌÌ_È_ËÂÌÚ_41);"/>
              <path d="M40.78,27.34c-.28.33-.44,1.38-.23,1.92,0-.89.38-1.89.98-2.1.05-.01.12-.03.18-.04-.4.37-.64.92-.6,1.59.19-.49.55-1.37,1.16-1.66,1.77-.25,4.42-.6,5.61-.36,1.69.34,3.91,3.28,3.91,3.28-.57-.43-2.67-1.17-4.23-1.29-1-.07-6,.86-7.31,1.02-.17.02-.51-1.71.53-2.37Z" style="fill: url(#_ÂÁ_Ï_ÌÌ_È_ËÂÌÚ_41-2);"/>
              <path d="M22.36,37.63c-.84-.19-1.6.06-1.7.56-.1.51.5,1.07,1.34,1.27.84.19,1.6-.06,1.7-.56.1-.51-.51-1.08-1.35-1.27Z" style="fill: url(#_ÂÁ_Ï_ÌÌ_È_ËÂÌÚ_126);"/>
              <path d="M48.44,37.88c.84-.18,1.6.09,1.69.59.09.51-.52,1.06-1.37,1.25-.84.18-1.6-.09-1.69-.59-.09-.51.53-1.07,1.37-1.25Z" style="fill: url(#_ÂÁ_Ï_ÌÌ_È_ËÂÌÚ_126-2);"/>
            </g>
            <path d="M53.67,43.58s-4,11.53-5.77,15.34c-1.77,3.81-.25,16.8-.25,16.8,0,0,9.81-18.25,8.8-26.6-1.01-8.35-2.78-5.54-2.78-5.54Z" style="fill: url(#_ÂÁ_Ï_ÌÌ_È_ËÂÌÚ_33-4);"/>
            <path d="M60.94,68.56s1.2,5.18,4.37,7.94c0,0-3.93-.79-4.83-3.12s.46-4.83.46-4.83Z" style="fill: url(#_ÂÁ_Ï_ÌÌ_È_ËÂÌÚ_33-5);"/>
            <path d="M10.46,67.09s-1.3,5.16-4.52,7.86c0,0,3.95-.72,4.89-3.03.95-2.31-.37-4.83-.37-4.83Z" style="fill: url(#_ÂÁ_Ï_ÌÌ_È_ËÂÌÚ_33-6);"/>
            <path d="M26.11,66.89c-.55-7.95-4.09-13.81-5.83-16.11-2.85-3.78-3.03-12.27-3.03-12.27,0,0-1.89,13.72-2.64,18.64-1.16,7.58,2.02,17.91,5.44,20.19,2.3-3.94,2.63-8.5,1.9-14.17,2.98,6.06.51,11.76-.15,15.42,2.35-2.57,4.53-8.31,4.3-11.69Z" style="fill: url(#_ÂÁ_Ï_ÌÌ_È_ËÂÌÚ_33-7);"/>
            <path d="M53.68,34.31c.69,3.94,1.27,9.37,1.23,13.64-.1,10.74-5.66,30.23-11.15,31.07,1.72-.22,6.39-.53,10.14-5.71.22,1.92-2.06,3.3-3.8,4.74,3.51-1.84,5.15-3.49,5.15-3.49-.89,1.57-1.46,2.82-4.35,4.9,1.77-.27,7.08-3.61,9.59-6.94,1.56-3.53,3.04-6.98,3.89-11.04-.55-6.04-2.33-11.79-5.5-17.56-1.66-2.71-3.75-6.66-5.2-9.61Z" style="fill: url(#_ÂÁ_Ï_ÌÌ_È_ËÂÌÚ_46);"/>
            <path d="M62.07,46.98c-.15-1.58-3.99-26.68-5.98-30.92C48.34-.44,35.99,4.99,35.99,4.99l-.86,6.34c9.15-1.62,16.21,9.54,18.77,24.2,1.45,2.96,3.31,5.67,4.97,8.38,3.17,5.76,3.76,7.9,3.19,3.06Z" style="fill: url(#_ÂÁ_Ï_ÌÌ_È_ËÂÌÚ_33-8);"/>
            <path d="M19.56,6.99c-6,5.16-7.76,11.11-8.5,15.14-.44,2.38-2.73,17.2-3.92,27.36,2.56-5.29,5.56-6.79,9.44-10.98.17-.25.33-.51.48-.77.5-8.81,2.2-16.16,7.36-21.1,6.48-6.21,10.72-5.31,10.72-5.31l.86-6.34c-3.06-2.52-12.84-1.1-16.44,2Z" style="fill: url(#_ÂÁ_Ï_ÌÌ_È_ËÂÌÚ_33-9);"/>
            <path d="M7.14,49.49c-4.17,8.42-2.58,17.21-.33,20.31,1.88,2.25,5.21,5.8,7.73,7.45-.98-1.29-2.61-4.36-2.37-6.21,1.64,5.7,8.76,7.28,9.64,7.54-5.8-3.56-7.37-9.99-7.49-18.28-.08-5.8,2.45-17.54,2.74-22.56-.15.26-.3.52-.48.77-3.89,4.19-6.88,5.69-9.44,10.98Z" style="fill: url(#_ÂÁ_Ï_ÌÌ_È_ËÂÌÚ_55);"/>
            <path d="M35.14,11.34s8.06-3.61,13.09,2.95c5.03,6.55,4.78,20.39,7.62,27.87,2.84,7.48,7.19,18.33,5.25,24.39-1.95,6.06-7.3,10.84-7.3,10.84,0,0,6.26-7.73,5.31-15.12-.95-7.38-5.73-14.76-6.79-22.78-1.07-8.02-2.23-19.7-7.76-24.84-4.91-4.56-9.4-3.3-9.4-3.3Z" style="fill: url(#linear-gradient-27);"/>
            <path d="M35.93,6.84s-11.78-2.17-16.68,8.2-9.48,22.69-9.48,22.69c0,0,6.68-23.52,7.67-25.67,1.44-3.12,9.09-11.8,18.49-5.23Z" style="fill: url(#_ÂÁ_Ï_ÌÌ_È_ËÂÌÚ_33-10);"/>
            <path d="M36.64,6.37s6.83-1.87,14.13,5.99c4,4.31,5.48,27.15,5.48,27.15,0,0,.72-18.16-1.01-24.27-1.73-6.11-11.1-15.11-18.61-8.87Z" style="fill: url(#_ÂÁ_Ï_ÌÌ_È_ËÂÌÚ_33-11);"/>
            <path d="M14.49,42.93s-5.93,10.12-6.7,16.83c-.77,6.71-3.25,12.55-6.67,13.21,0,0,4.56-.86,6.58-3.46,2.02-2.59,3.75-20.49,6.79-26.59Z" style="fill: url(#_ÂÁ_Ï_ÌÌ_È_ËÂÌÚ_48);"/>
            <path d="M20.32,25.8s-3.15,8.78-4.93,19.69c-1.45,8.88-3.02,12.67-2.5,18.35.58,6.25,2.54,12.71,8.92,14.74,0,0-4.97-2.53-6.43-14.72-.51-4.25.87-11.34,2-18.35,1.6-10.03,2.95-19.71,2.95-19.71Z" style="fill: url(#linear-gradient-28);"/>
            <path d="M53.53,54.11s1.98,23.24-9.78,24.91c0,0,7.28-2.94,9.78-24.91Z" style="fill: url(#linear-gradient-29);"/>
            <path d="M50.41,50.79s-2.32,4.72-4.29,8.67c-1.96,3.95-.12,13.13-.12,13.13,0,0-.12-6.55,1.53-10.54,1.66-3.99,2.88-11.25,2.88-11.25Z" style="fill: url(#linear-gradient-30);"/>
            <path d="M20.88,51.39s3.73,4.52,5.38,10.4c1.65,5.88-1.42,14.7-1.42,14.7,0,0,1.19-10.56.15-15.46-1.04-4.9-4.11-9.64-4.11-9.64Z" style="fill: url(#linear-gradient-31);"/>
            <path d="M11.69,63.64s-1.22,9.54,3.39,14.28c0,0-8.63-2.85-3.39-14.28Z" style="fill: url(#linear-gradient-32);"/>
            <path d="M56.01,66.03s1.76,8.72-6.21,12.15c0,0,6.61-5.6,6.21-12.15Z" style="fill: url(#linear-gradient-33);"/>
            <path d="M35.98,6.66s5.5-3.65,14.82,1.7c0,0-5.76-6.77-14.02-4.6,0,0-8.26-4.99-16.72,2.84,0,0,2.42-1.88,6.6-2.34,3.48-.39,8.78.38,9.31,2.4Z" style="fill: url(#linear-gradient-34);"/>
            <path d="M50.17,26.28s.22-7.95-3.79-11.84c-4.01-3.88-7.88-4.14-11.24-3.11,0,0,4.73-.73,7.53,1.99,3.72,3.63,5.61,6.53,7.5,12.95Z" style="fill: url(#_ÂÁ_Ï_ÌÌ_È_ËÂÌÚ_33-12);"/>
            <path d="M35.14,11.34s-3.01-.83-5.28-.12c-4.4,1.38-6.94,6.96-8.17,14.07,0,0,1.58-8.46,7.7-11.9,3.3-1.86,5.75-2.06,5.75-2.06Z" style="fill: url(#_ÂÁ_Ï_ÌÌ_È_ËÂÌÚ_33-13);"/>
            <path d="M36.64,6.88s10.77-5.03,15.85,7.9c3.71,9.45,2.97,19,2.97,19,0,0-.44-15.7-8.66-23.89-4.67-4.65-10.15-3.01-10.15-3.01Z" style="fill: url(#_ÂÁ_Ï_ÌÌ_È_ËÂÌÚ_33-14);"/>
            <path d="M35.93,6.84s-3.75-1.68-8.63-.05c-3.8,1.27-6.85,4.83-8.58,8.95-1.14,2.7-4.37,9.92-6.74,16.28,0,0,6.34-8.35,8.62-15.44,1.65-5.14,7.68-11.05,15.33-9.74Z" style="fill: url(#_ÂÁ_Ï_ÌÌ_È_ËÂÌÚ_33-15);"/>
            <path d="M56.78,23.32s-.68,15.12,6.9,31.58l-6.9-31.58Z" style="fill: url(#_ÂÁ_Ï_ÌÌ_È_ËÂÌÚ_33-16);"/>
            <path d="M17.32,24.91l-10.2,23.19s9.55-7.69,10.2-23.19Z" style="fill: url(#_ÂÁ_Ï_ÌÌ_È_ËÂÌÚ_33-17);"/>
            <path d="M57.22,39.65s4.75,6.86,6.89,13.3c2.35,7.07,1.8,12.97-2.73,19.46,0,0,2.62-8.1-.01-20.65-1.06-5.04-4.14-12.12-4.14-12.12Z" style="fill: url(#_ÂÁ_Ï_ÌÌ_È_ËÂÌÚ_45);"/>
            <path d="M35.14,11.34s-6.86-3.99-11.96,3.34c-4.27,6.14-4.49,16.39-10.9,25.66-2.66,3.84-9.07,10.13-9.29,18.16,0,0,.79-3.93,7.26-11.21,6.47-7.28,10.23-16.09,11.99-24.02,2.46-11.09,8.01-12.67,12.91-11.93Z" style="fill: url(#linear-gradient-35);"/>
            <path d="M19.07,50.49s6.12,15.71,1.5,25.87c0,0-.72-20.79-1.5-25.87Z" style="fill: url(#_ÂÁ_Ï_ÌÌ_È_ËÂÌÚ_46-2);"/>
          </g>
        </g>
      </g>
    </g>
  </g>
</svg>