<?xml version="1.0" encoding="UTF-8"?>
<svg id="Layer_2" data-name="Layer 2" xmlns="http://www.w3.org/2000/svg" width="234" height="234" xmlns:xlink="http://www.w3.org/1999/xlink" viewBox="0 0 234 234">
  <defs>
    <clipPath id="clippath">
      <rect width="234" height="234" style="fill: none;"/>
    </clipPath>
    <linearGradient id="_ÂÁ_Ï_ÌÌ_È_ËÂÌÚ_8" data-name="¡ÂÁ˚ÏˇÌÌ˚È „‡‰ËÂÌÚ 8" x1="203.99" y1="325.84" x2="183.64" y2="255.09" gradientTransform="translate(141.67 -85.77) rotate(22.64)" gradientUnits="userSpaceOnUse">
      <stop offset="0" stop-color="#3b2621"/>
      <stop offset=".39" stop-color="#3e2822"/>
      <stop offset=".71" stop-color="#482e29"/>
      <stop offset="1" stop-color="#593a33"/>
    </linearGradient>
    <linearGradient id="_ÂÁ_Ï_ÌÌ_È_ËÂÌÚ_8-2" data-name="¡ÂÁ˚ÏˇÌÌ˚È „‡‰ËÂÌÚ 8" x1="-26.8" y1="420.73" x2="-47.15" y2="349.98" gradientTransform="translate(-140.58 -94.23) rotate(160.79) scale(1 -1)" xlink:href="#_ÂÁ_Ï_ÌÌ_È_ËÂÌÚ_8"/>
    <linearGradient id="_ÂÁ_Ï_ÌÌ_È_ËÂÌÚ_8-3" data-name="¡ÂÁ˚ÏˇÌÌ˚È „‡‰ËÂÌÚ 8" x1="-2.14" y1="461.58" x2="79.43" y2="-11.51" gradientTransform="translate(99.8 -131.51) rotate(1.71)" xlink:href="#_ÂÁ_Ï_ÌÌ_È_ËÂÌÚ_8"/>
    <linearGradient id="linear-gradient" x1="69.17" y1="195.27" x2="155.35" y2="221.48" gradientUnits="userSpaceOnUse">
      <stop offset="0" stop-color="#f0c499"/>
      <stop offset=".52" stop-color="#f1c69b"/>
      <stop offset=".85" stop-color="#f4cea4"/>
      <stop offset="1" stop-color="#f7d4ab"/>
    </linearGradient>
    <linearGradient id="linear-gradient-2" x1="137.26" y1="263.63" x2="243.81" y2="328.38" gradientTransform="translate(-188.76 -.27) rotate(-16.11)" xlink:href="#linear-gradient"/>
    <linearGradient id="linear-gradient-3" x1="249.51" y1="711.84" x2="132.48" y2="744.72" gradientTransform="translate(161.22 -521.96) rotate(13.36)" xlink:href="#linear-gradient"/>
    <linearGradient id="linear-gradient-4" x1="83.96" y1="254.7" x2="220.75" y2="217.43" xlink:href="#linear-gradient"/>
    <linearGradient id="_ÂÁ_Ï_ÌÌ_È_ËÂÌÚ_29" data-name="¡ÂÁ˚ÏˇÌÌ˚È „‡‰ËÂÌÚ 29" x1="124.16" y1="257" x2="120.61" y2="222.69" gradientUnits="userSpaceOnUse">
      <stop offset="0" stop-color="#d6b01f"/>
      <stop offset=".42" stop-color="#e0bc26"/>
      <stop offset="1" stop-color="#f5d534"/>
    </linearGradient>
    <linearGradient id="linear-gradient-5" x1="115.64" y1="169.95" x2="124.98" y2="209.52" gradientUnits="userSpaceOnUse">
      <stop offset="0" stop-color="#dba379"/>
      <stop offset=".49" stop-color="#e3b086"/>
      <stop offset="1" stop-color="#f0c499"/>
    </linearGradient>
    <linearGradient id="_ÂÁ_Ï_ÌÌ_È_ËÂÌÚ_14" data-name="¡ÂÁ˚ÏˇÌÌ˚È „‡‰ËÂÌÚ 14" x1="148.54" y1="64.96" x2="148.45" y2="64.7" gradientTransform="translate(-28.64 -39.01) rotate(.54)" gradientUnits="userSpaceOnUse">
      <stop offset="0" stop-color="#cb8076"/>
      <stop offset=".31" stop-color="#b76f65"/>
      <stop offset=".95" stop-color="#86443a"/>
      <stop offset="1" stop-color="#824137"/>
    </linearGradient>
    <linearGradient id="_ÂÁ_Ï_ÌÌ_È_ËÂÌÚ_18" data-name="¡ÂÁ˚ÏˇÌÌ˚È „‡‰ËÂÌÚ 18" x1="85.06" y1="183.82" x2="76.98" y2="158.65" gradientTransform="translate(-21.74 -37.42) rotate(1.27)" gradientUnits="userSpaceOnUse">
      <stop offset="0" stop-color="#dba379"/>
      <stop offset=".49" stop-color="#e3b086"/>
      <stop offset="1" stop-color="#f0c499"/>
    </linearGradient>
    <linearGradient id="linear-gradient-6" x1="-2932.26" y1="341.35" x2="-2930.62" y2="398.77" gradientTransform="translate(2989.2 -10.54) rotate(.54)" xlink:href="#linear-gradient-5"/>
    <linearGradient id="_ÂÁ_Ï_ÌÌ_È_ËÂÌÚ_18-2" data-name="¡ÂÁ˚ÏˇÌÌ˚È „‡‰ËÂÌÚ 18" x1="199.69" y1="164.08" x2="219.08" y2="164.08" xlink:href="#_ÂÁ_Ï_ÌÌ_È_ËÂÌÚ_18"/>
    <linearGradient id="linear-gradient-7" x1="-1458.58" y1="340.97" x2="-1456.94" y2="398.39" gradientTransform="translate(-1275.83 -50.26) rotate(-179.46) scale(1 -1)" xlink:href="#linear-gradient-5"/>
    <linearGradient id="_ÂÁ_Ï_ÌÌ_È_ËÂÌÚ_384" data-name="¡ÂÁ˚ÏˇÌÌ˚È „‡‰ËÂÌÚ 384" x1="147.9" y1="82.59" x2="147.67" y2="239.9" gradientTransform="translate(-28.64 -39.01) rotate(.54)" gradientUnits="userSpaceOnUse">
      <stop offset="0" stop-color="#ffd9b3"/>
      <stop offset=".32" stop-color="#f9d5ad"/>
      <stop offset="1" stop-color="#f7d4ab"/>
    </linearGradient>
    <linearGradient id="linear-gradient-8" x1="119.41" y1="180.72" x2="112.13" y2="135.66" gradientTransform="translate(-28.64 -39.01) rotate(.54)" gradientUnits="userSpaceOnUse">
      <stop offset="0" stop-color="#f7d4ab"/>
      <stop offset=".52" stop-color="#f5d1a8"/>
      <stop offset=".85" stop-color="#f2c99f"/>
      <stop offset="1" stop-color="#f0c499"/>
    </linearGradient>
    <radialGradient id="radial-gradient" cx="-107.78" cy="181.74" fx="-107.78" fy="181.74" r="32.14" gradientTransform="translate(166.65 -36.76) rotate(.54) scale(.79 1)" gradientUnits="userSpaceOnUse">
      <stop offset="0" stop-color="#f9b38e"/>
      <stop offset=".61" stop-color="#f7c59e"/>
      <stop offset="1" stop-color="#f7d4ab"/>
    </radialGradient>
    <linearGradient id="linear-gradient-9" x1="131.94" y1="223.65" x2="158.12" y2="223.65" gradientTransform="translate(-28.64 -39.01) rotate(.54)" gradientUnits="userSpaceOnUse">
      <stop offset="0" stop-color="#ffd9b3"/>
      <stop offset=".68" stop-color="#fcd7b0"/>
      <stop offset="1" stop-color="#f7d4ab"/>
    </linearGradient>
    <linearGradient id="_ÂÁ_Ï_ÌÌ_È_ËÂÌÚ_18-3" data-name="¡ÂÁ˚ÏˇÌÌ˚È „‡‰ËÂÌÚ 18" x1="194.78" y1="94.59" x2="106.3" y2="166.95" gradientTransform="translate(-28.64 -39.01) rotate(.54)" xlink:href="#_ÂÁ_Ï_ÌÌ_È_ËÂÌÚ_18"/>
    <linearGradient id="_ÂÁ_Ï_ÌÌ_È_ËÂÌÚ_72" data-name="¡ÂÁ˚ÏˇÌÌ˚È „‡‰ËÂÌÚ 72" x1="96.98" y1="205.65" x2="92.49" y2="129.94" gradientTransform="translate(-28.64 -39.01) rotate(.54)" gradientUnits="userSpaceOnUse">
      <stop offset="0" stop-color="#f9b38e"/>
      <stop offset=".5" stop-color="#f7b690"/>
      <stop offset=".9" stop-color="#f2c096"/>
      <stop offset="1" stop-color="#f0c499"/>
    </linearGradient>
    <linearGradient id="linear-gradient-10" x1="181.85" y1="174.11" x2="175.07" y2="136.59" xlink:href="#linear-gradient-8"/>
    <linearGradient id="_ÂÁ_Ï_ÌÌ_È_ËÂÌÚ_18-4" data-name="¡ÂÁ˚ÏˇÌÌ˚È „‡‰ËÂÌÚ 18" x1="85.88" y1="185.27" x2="117.39" y2="185.27" gradientTransform="translate(-28.64 -39.01) rotate(.54)" xlink:href="#_ÂÁ_Ï_ÌÌ_È_ËÂÌÚ_18"/>
    <linearGradient id="linear-gradient-11" x1="174.43" y1="144.28" x2="203.37" y2="144.28" xlink:href="#linear-gradient-9"/>
    <radialGradient id="radial-gradient-2" cx="1846.06" cy="182.08" fx="1846.06" fy="182.08" r="32.14" gradientTransform="translate(1623.1 -23.33) rotate(-179.46) scale(.79 -1)" xlink:href="#radial-gradient"/>
    <linearGradient id="_ÂÁ_Ï_ÌÌ_È_ËÂÌÚ_72-2" data-name="¡ÂÁ˚ÏˇÌÌ˚È „‡‰ËÂÌÚ 72" x1="-553.04" y1="201.4" x2="-557.21" y2="131.15" gradientTransform="translate(-382.9 -41.84) rotate(-179.46) scale(1 -1)" xlink:href="#_ÂÁ_Ï_ÌÌ_È_ËÂÌÚ_72"/>
    <linearGradient id="_ÂÁ_Ï_ÌÌ_È_ËÂÌÚ_18-5" data-name="¡ÂÁ˚ÏˇÌÌ˚È „‡‰ËÂÌÚ 18" x1="-6702.3" y1="-288.61" x2="-6734.6" y2="-276.06" gradientTransform="translate(-6631.42 369.48) rotate(-179.74) scale(1 -1)" xlink:href="#_ÂÁ_Ï_ÌÌ_È_ËÂÌÚ_18"/>
    <linearGradient id="linear-gradient-12" x1="-5546.02" y1="2173.78" x2="-5566.79" y2="2182.65" gradientTransform="translate(-5878.25 -76.33) rotate(160.48) scale(1 -1)" gradientUnits="userSpaceOnUse">
      <stop offset="0" stop-color="#fff"/>
      <stop offset=".47" stop-color="#fcfcfc"/>
      <stop offset=".77" stop-color="#f5f3f3"/>
      <stop offset="1" stop-color="#ece7e7"/>
    </linearGradient>
    <linearGradient id="_ÂÁ_Ï_ÌÌ_È_ËÂÌÚ_1050" data-name="¡ÂÁ˚ÏˇÌÌ˚È „‡‰ËÂÌÚ 1050" x1="-5173.41" y1="-390.81" x2="-5155.8" y2="-390.81" gradientTransform="translate(-5086.16 455.44) rotate(-179.39) scale(1 -1)" gradientUnits="userSpaceOnUse">
      <stop offset="0" stop-color="#b89c8c"/>
      <stop offset="1" stop-color="#715241"/>
    </linearGradient>
    <linearGradient id="_ÂÁ_Ï_ÌÌ_È_ËÂÌÚ_1050-2" data-name="¡ÂÁ˚ÏˇÌÌ˚È „‡‰ËÂÌÚ 1050" x1="-2133.16" y1="-120.89" x2="-2117.23" y2="-120.89" gradientTransform="translate(-2044.06 218.74) rotate(-179.42) scale(1 -1)" xlink:href="#_ÂÁ_Ï_ÌÌ_È_ËÂÌÚ_1050"/>
    <linearGradient id="_ÂÁ_Ï_ÌÌ_È_ËÂÌÚ_1050-3" data-name="¡ÂÁ˚ÏˇÌÌ˚È „‡‰ËÂÌÚ 1050" x1="-2146.57" y1="-117.78" x2="-2121.09" y2="-123.83" gradientTransform="translate(-2044.06 218.74) rotate(-179.42) scale(1 -1)" xlink:href="#_ÂÁ_Ï_ÌÌ_È_ËÂÌÚ_1050"/>
    <radialGradient id="_ÂÁ_Ï_ÌÌ_È_ËÂÌÚ_128" data-name="¡ÂÁ˚ÏˇÌÌ˚È „‡‰ËÂÌÚ 128" cx="-2123.11" cy="-122.48" fx="-2123.11" fy="-122.48" r="5.68" gradientTransform="translate(-2044.06 218.74) rotate(-179.42) scale(1 -1)" gradientUnits="userSpaceOnUse">
      <stop offset="0" stop-color="#666"/>
      <stop offset="1" stop-color="#1d1d1d"/>
    </radialGradient>
    <linearGradient id="_ÂÁ_Ï_ÌÌ_È_ËÂÌÚ_1655" data-name="¡ÂÁ˚ÏˇÌÌ˚È „‡‰ËÂÌÚ 1655" x1="-6733.84" y1="-282.07" x2="-6697.42" y2="-282.07" gradientTransform="translate(-6631.42 369.48) rotate(-179.74) scale(1 -1)" gradientUnits="userSpaceOnUse">
      <stop offset="0" stop-color="#4d322e"/>
      <stop offset=".06" stop-color="#4a302c"/>
      <stop offset=".55" stop-color="#3d2622"/>
      <stop offset="1" stop-color="#39231f"/>
    </linearGradient>
    <linearGradient id="_ÂÁ_Ï_ÌÌ_È_ËÂÌÚ_18-6" data-name="¡ÂÁ˚ÏˇÌÌ˚È „‡‰ËÂÌÚ 18" x1="-6718.03" y1="-292.18" x2="-6742.12" y2="-261.51" gradientTransform="translate(-6631.42 369.48) rotate(-179.74) scale(1 -1)" xlink:href="#_ÂÁ_Ï_ÌÌ_È_ËÂÌÚ_18"/>
    <linearGradient id="_ÂÁ_Ï_ÌÌ_È_ËÂÌÚ_44" data-name="¡ÂÁ˚ÏˇÌÌ˚È „‡‰ËÂÌÚ 44" x1="-2146.57" y1="-122.63" x2="-2116.72" y2="-122.63" gradientTransform="translate(-2044.06 218.74) rotate(-179.42) scale(1 -1)" gradientUnits="userSpaceOnUse">
      <stop offset="0" stop-color="#38221e"/>
      <stop offset=".77" stop-color="#291915"/>
    </linearGradient>
    <linearGradient id="_ÂÁ_Ï_ÌÌ_È_ËÂÌÚ_18-7" data-name="¡ÂÁ˚ÏˇÌÌ˚È „‡‰ËÂÌÚ 18" x1="7170.05" y1="-287.94" x2="7137.74" y2="-275.4" gradientTransform="translate(-7008.84 367.43) rotate(.26)" xlink:href="#_ÂÁ_Ï_ÌÌ_È_ËÂÌÚ_18"/>
    <linearGradient id="_ÂÁ_Ï_ÌÌ_È_ËÂÌÚ_18-8" data-name="¡ÂÁ˚ÏˇÌÌ˚È „‡‰ËÂÌÚ 18" x1="7154.31" y1="-291.51" x2="7130.22" y2="-260.85" gradientTransform="translate(-7008.84 367.43) rotate(.26)" xlink:href="#_ÂÁ_Ï_ÌÌ_È_ËÂÌÚ_18"/>
    <linearGradient id="linear-gradient-13" x1="-5265.25" y1="1875.43" x2="-5251.17" y2="1862.36" xlink:href="#linear-gradient-12"/>
    <linearGradient id="_ÂÁ_Ï_ÌÌ_È_ËÂÌÚ_1050-4" data-name="¡ÂÁ˚ÏˇÌÌ˚È „‡‰ËÂÌÚ 1050" x1="-5230.59" y1="-382.49" x2="-5216.49" y2="-395.58" xlink:href="#_ÂÁ_Ï_ÌÌ_È_ËÂÌÚ_1050"/>
    <linearGradient id="_ÂÁ_Ï_ÌÌ_È_ËÂÌÚ_1050-5" data-name="¡ÂÁ˚ÏˇÌÌ˚È „‡‰ËÂÌÚ 1050" x1="-2191.66" y1="-120.97" x2="-2174.92" y2="-120.97" gradientTransform="translate(-2044.06 218.74) rotate(-179.42) scale(1 -1)" xlink:href="#_ÂÁ_Ï_ÌÌ_È_ËÂÌÚ_1050"/>
    <linearGradient id="_ÂÁ_Ï_ÌÌ_È_ËÂÌÚ_1050-6" data-name="¡ÂÁ˚ÏˇÌÌ˚È „‡‰ËÂÌÚ 1050" x1="-2202.82" y1="-119.25" x2="-2182.32" y2="-121.92" gradientTransform="translate(-2044.06 218.74) rotate(-179.42) scale(1 -1)" xlink:href="#_ÂÁ_Ï_ÌÌ_È_ËÂÌÚ_1050"/>
    <radialGradient id="_ÂÁ_Ï_ÌÌ_È_ËÂÌÚ_13" data-name="¡ÂÁ˚ÏˇÌÌ˚È „‡‰ËÂÌÚ 13" cx="-2181.38" cy="-122.57" fx="-2181.38" fy="-122.57" r="5.69" gradientTransform="translate(-2044.06 218.74) rotate(-179.42) scale(1 -1)" gradientUnits="userSpaceOnUse">
      <stop offset="0" stop-color="#666"/>
      <stop offset=".42" stop-color="#4c4c4c"/>
      <stop offset="1" stop-color="#1d1d1d"/>
    </radialGradient>
    <linearGradient id="_ÂÁ_Ï_ÌÌ_È_ËÂÌÚ_1655-2" data-name="¡ÂÁ˚ÏˇÌÌ˚È „‡‰ËÂÌÚ 1655" x1="7138.51" y1="-281.39" x2="7174.92" y2="-281.39" gradientTransform="translate(-7008.84 367.43) rotate(.26)" xlink:href="#_ÂÁ_Ï_ÌÌ_È_ËÂÌÚ_1655"/>
    <linearGradient id="_ÂÁ_Ï_ÌÌ_È_ËÂÌÚ_44-2" data-name="¡ÂÁ˚ÏˇÌÌ˚È „‡‰ËÂÌÚ 44" x1="-2204.02" y1="-122.52" x2="-2174.23" y2="-122.52" xlink:href="#_ÂÁ_Ï_ÌÌ_È_ËÂÌÚ_44"/>
    <linearGradient id="linear-gradient-14" x1="148.94" y1="197.06" x2="146.74" y2="186.06" xlink:href="#linear-gradient-8"/>
    <linearGradient id="linear-gradient-15" x1="147.21" y1="185.19" x2="147.15" y2="193.82" gradientTransform="translate(-28.64 -39.01) rotate(.54)" xlink:href="#linear-gradient-5"/>
    <linearGradient id="_ÂÁ_Ï_ÌÌ_È_ËÂÌÚ_23" data-name="¡ÂÁ˚ÏˇÌÌ˚È „‡‰ËÂÌÚ 23" x1="146.68" y1="173.44" x2="146.8" y2="182.3" gradientTransform="translate(-28.64 -39.01) rotate(.54)" gradientUnits="userSpaceOnUse">
      <stop offset="0" stop-color="#f7d4ab"/>
      <stop offset="1" stop-color="#ffd9b3"/>
    </linearGradient>
    <linearGradient id="linear-gradient-16" x1="135.35" y1="176.51" x2="135.19" y2="165.79" gradientTransform="translate(-17.57 -16.88) rotate(.37)" gradientUnits="userSpaceOnUse">
      <stop offset="0" stop-color="#ffd9b3"/>
      <stop offset="1" stop-color="#f7d4ab"/>
    </linearGradient>
    <linearGradient id="linear-gradient-17" x1="111.93" y1="204.65" x2="122.59" y2="204.65" gradientTransform="translate(-21.79 -49.54) rotate(1.42)" xlink:href="#linear-gradient-5"/>
    <linearGradient id="_ÂÁ_Ï_ÌÌ_È_ËÂÌÚ_17" data-name="¡ÂÁ˚ÏˇÌÌ˚È „‡‰ËÂÌÚ 17" x1="166.06" y1="204.11" x2="176.12" y2="204.11" gradientTransform="translate(-21.79 -49.54) rotate(1.42)" gradientUnits="userSpaceOnUse">
      <stop offset="0" stop-color="#f0c499"/>
      <stop offset=".51" stop-color="#e3b086"/>
      <stop offset="1" stop-color="#dba379"/>
    </linearGradient>
    <linearGradient id="linear-gradient-18" x1="128.82" y1="220.4" x2="160.41" y2="220.4" gradientTransform="translate(-21.79 -49.54) rotate(1.42)" xlink:href="#linear-gradient-5"/>
    <linearGradient id="linear-gradient-19" x1="-485.61" y1="794.66" x2="-484.55" y2="794.66" gradientTransform="translate(-16696.6 -25658.22) rotate(178.3) scale(33.05 -33.11) skewX(-.01)" gradientUnits="userSpaceOnUse">
      <stop offset="0" stop-color="#e8d8d7"/>
      <stop offset=".14" stop-color="#efe4e4"/>
      <stop offset=".39" stop-color="#faf8f7"/>
      <stop offset=".57" stop-color="#fff"/>
      <stop offset="1" stop-color="#e8d2d1"/>
    </linearGradient>
    <linearGradient id="linear-gradient-20" x1="-477.98" y1="764.08" x2="-477.05" y2="764.08" gradientTransform="translate(27385.24 42945.63) rotate(.57) scale(59.3 -55.63) skewX(.79)" gradientUnits="userSpaceOnUse">
      <stop offset="0" stop-color="#e8d8d7"/>
      <stop offset=".04" stop-color="#ebdddc"/>
      <stop offset=".21" stop-color="#f6f0ef"/>
      <stop offset=".38" stop-color="#fcfbfb"/>
      <stop offset=".57" stop-color="#fff"/>
      <stop offset=".69" stop-color="#fbf7f7"/>
      <stop offset=".87" stop-color="#f1e3e3"/>
      <stop offset="1" stop-color="#e8d2d1"/>
    </linearGradient>
    <linearGradient id="linear-gradient-21" x1="-478.28" y1="758.21" x2="-477.26" y2="758.21" gradientTransform="translate(21613.73 28270.28) rotate(-5.19) scale(39.48 -39.48)" gradientUnits="userSpaceOnUse">
      <stop offset="0" stop-color="#f96e7e"/>
      <stop offset=".03" stop-color="#f9707f"/>
      <stop offset=".25" stop-color="#fd7985"/>
      <stop offset=".53" stop-color="#ff7d88"/>
      <stop offset=".76" stop-color="#fd7985"/>
      <stop offset="1" stop-color="#f86d7d"/>
      <stop offset="1" stop-color="#f86d7d"/>
    </linearGradient>
    <linearGradient id="linear-gradient-22" x1="114.2" y1="259.15" x2="156.88" y2="259.27" gradientTransform="translate(-12.29 -100.85) rotate(1.22)" gradientUnits="userSpaceOnUse">
      <stop offset="0" stop-color="#e8d8d7"/>
      <stop offset=".05" stop-color="#eadcdb"/>
      <stop offset=".31" stop-color="#f6efee"/>
      <stop offset=".48" stop-color="#fbf6f6"/>
      <stop offset="1" stop-color="#e8d2d1"/>
    </linearGradient>
    <linearGradient id="linear-gradient-23" x1="116.36" y1="224.21" x2="146.91" y2="224.21" gradientTransform="translate(-11.96 -65.71) rotate(.52)" xlink:href="#linear-gradient-21"/>
    <linearGradient id="_ÂÁ_Ï_ÌÌ_È_ËÂÌÚ_23-2" data-name="¡ÂÁ˚ÏˇÌÌ˚È „‡‰ËÂÌÚ 23" x1="179.83" y1="185.22" x2="211.37" y2="185.22" xlink:href="#_ÂÁ_Ï_ÌÌ_È_ËÂÌÚ_23"/>
    <linearGradient id="_ÂÁ_Ï_ÌÌ_È_ËÂÌÚ_18-9" data-name="¡ÂÁ˚ÏˇÌÌ˚È „‡‰ËÂÌÚ 18" x1="148.5" y1="223.02" x2="146.09" y2="258.07" gradientTransform="translate(-28.64 -39.01) rotate(.54)" xlink:href="#_ÂÁ_Ï_ÌÌ_È_ËÂÌÚ_18"/>
    <linearGradient id="_ÂÁ_Ï_ÌÌ_È_ËÂÌÚ_11" data-name="¡ÂÁ˚ÏˇÌÌ˚È „‡‰ËÂÌÚ 11" x1="94.02" y1="134.29" x2="138.37" y2="133.25" gradientTransform="translate(-28.64 -39.01) rotate(.54)" gradientUnits="userSpaceOnUse">
      <stop offset="0" stop-color="#3b2621"/>
      <stop offset=".41" stop-color="#3c2722"/>
      <stop offset=".56" stop-color="#432c25"/>
      <stop offset=".66" stop-color="#4f362c"/>
      <stop offset=".75" stop-color="#604335"/>
      <stop offset=".82" stop-color="#765441"/>
      <stop offset=".88" stop-color="#916950"/>
      <stop offset=".94" stop-color="#b18262"/>
      <stop offset=".99" stop-color="#d69f76"/>
      <stop offset="1" stop-color="#dba379"/>
    </linearGradient>
    <linearGradient id="_ÂÁ_Ï_ÌÌ_È_ËÂÌÚ_11-2" data-name="¡ÂÁ˚ÏˇÌÌ˚È „‡‰ËÂÌÚ 11" x1="-536.05" y1="133.79" x2="-491.69" y2="132.75" gradientTransform="translate(-364.47 -41.67) rotate(-179.46) scale(1 -1)" xlink:href="#_ÂÁ_Ï_ÌÌ_È_ËÂÌÚ_11"/>
    <linearGradient id="_ÂÁ_Ï_ÌÌ_È_ËÂÌÚ_126" data-name="¡ÂÁ˚ÏˇÌÌ˚È „‡‰ËÂÌÚ 126" x1="-414.91" y1="806.4" x2="-414.13" y2="806.4" gradientTransform="translate(5148.17 10560.13) rotate(1.26) scale(12.79 -12.79)" gradientUnits="userSpaceOnUse">
      <stop offset="0" stop-color="#ffd9b3"/>
      <stop offset=".52" stop-color="#fccfa9"/>
      <stop offset="1" stop-color="#f8c39c"/>
    </linearGradient>
    <linearGradient id="_ÂÁ_Ï_ÌÌ_È_ËÂÌÚ_126-2" data-name="¡ÂÁ˚ÏˇÌÌ˚È „‡‰ËÂÌÚ 126" x1="-435.96" y1="806.15" x2="-435.18" y2="806.15" gradientTransform="translate(-5378.47 10461.02) rotate(179.82) scale(12.79)" xlink:href="#_ÂÁ_Ï_ÌÌ_È_ËÂÌÚ_126"/>
    <linearGradient id="_ÂÁ_Ï_ÌÌ_È_ËÂÌÚ_8-4" data-name="¡ÂÁ˚ÏˇÌÌ˚È „‡‰ËÂÌÚ 8" x1="145.89" y1="168.83" x2="232.87" y2="276.25" gradientTransform="translate(-28.64 -39.01) rotate(.54)" xlink:href="#_ÂÁ_Ï_ÌÌ_È_ËÂÌÚ_8"/>
    <linearGradient id="_ÂÁ_Ï_ÌÌ_È_ËÂÌÚ_8-5" data-name="¡ÂÁ˚ÏˇÌÌ˚È „‡‰ËÂÌÚ 8" x1="244.49" y1="307.63" x2="233.82" y2="270.54" gradientTransform="translate(-28.64 -39.01) rotate(.54)" xlink:href="#_ÂÁ_Ï_ÌÌ_È_ËÂÌÚ_8"/>
    <linearGradient id="_ÂÁ_Ï_ÌÌ_È_ËÂÌÚ_8-6" data-name="¡ÂÁ˚ÏˇÌÌ˚È „‡‰ËÂÌÚ 8" x1="-252.41" y1="303.88" x2="-263.07" y2="266.8" gradientTransform="translate(-226.58 -40.36) rotate(-179.46) scale(1 -1)" xlink:href="#_ÂÁ_Ï_ÌÌ_È_ËÂÌÚ_8"/>
    <linearGradient id="_ÂÁ_Ï_ÌÌ_È_ËÂÌÚ_8-7" data-name="¡ÂÁ˚ÏˇÌÌ˚È „‡‰ËÂÌÚ 8" x1="105.56" y1="188.64" x2="96.8" y2="271.89" gradientTransform="translate(-28.64 -39.01) rotate(.54)" xlink:href="#_ÂÁ_Ï_ÌÌ_È_ËÂÌÚ_8"/>
    <linearGradient id="_ÂÁ_Ï_ÌÌ_È_ËÂÌÚ_46" data-name="¡ÂÁ˚ÏˇÌÌ˚È „‡‰ËÂÌÚ 46" x1="212.92" y1="300.71" x2="195.95" y2="159.59" gradientTransform="translate(-28.64 -39.01) rotate(.54)" gradientUnits="userSpaceOnUse">
      <stop offset="0" stop-color="#593a33"/>
      <stop offset=".29" stop-color="#482e29"/>
      <stop offset=".61" stop-color="#3e2822"/>
      <stop offset="1" stop-color="#3b2621"/>
    </linearGradient>
    <linearGradient id="_ÂÁ_Ï_ÌÌ_È_ËÂÌÚ_8-8" data-name="¡ÂÁ˚ÏˇÌÌ˚È „‡‰ËÂÌÚ 8" x1="198.98" y1="209.71" x2="180.82" y2="58.72" gradientTransform="translate(-28.64 -39.01) rotate(.54)" xlink:href="#_ÂÁ_Ï_ÌÌ_È_ËÂÌÚ_8"/>
    <linearGradient id="_ÂÁ_Ï_ÌÌ_È_ËÂÌÚ_8-9" data-name="¡ÂÁ˚ÏˇÌÌ˚È „‡‰ËÂÌÚ 8" x1="111.48" y1="207.34" x2="94.58" y2="66.79" gradientTransform="translate(-28.64 -39.01) rotate(.54)" xlink:href="#_ÂÁ_Ï_ÌÌ_È_ËÂÌÚ_8"/>
    <linearGradient id="_ÂÁ_Ï_ÌÌ_È_ËÂÌÚ_55" data-name="¡ÂÁ˚ÏˇÌÌ˚È „‡‰ËÂÌÚ 55" x1="76.69" y1="294.85" x2="74.95" y2="143.42" gradientTransform="translate(-28.64 -39.01) rotate(.54)" gradientUnits="userSpaceOnUse">
      <stop offset="0" stop-color="#593a33"/>
      <stop offset=".19" stop-color="#52352f"/>
      <stop offset="1" stop-color="#3b2621"/>
    </linearGradient>
    <linearGradient id="linear-gradient-24" x1="181.45" y1="284.81" x2="194.88" y2="87.19" gradientTransform="translate(-28.64 -39.01) rotate(.54)" gradientUnits="userSpaceOnUse">
      <stop offset="0" stop-color="#593a33"/>
      <stop offset=".4" stop-color="#5d3d36"/>
      <stop offset=".85" stop-color="#6a4741"/>
      <stop offset="1" stop-color="#714c46"/>
    </linearGradient>
    <linearGradient id="_ÂÁ_Ï_ÌÌ_È_ËÂÌÚ_8-10" data-name="¡ÂÁ˚ÏˇÌÌ˚È „‡‰ËÂÌÚ 8" x1="124.8" y1="250.79" x2="106.43" y2="115.65" gradientTransform="translate(-28.64 -39.01) rotate(.54)" xlink:href="#_ÂÁ_Ï_ÌÌ_È_ËÂÌÚ_8"/>
    <linearGradient id="_ÂÁ_Ï_ÌÌ_È_ËÂÌÚ_8-11" data-name="¡ÂÁ˚ÏˇÌÌ˚È „‡‰ËÂÌÚ 8" x1="203.46" y1="240.11" x2="185.09" y2="104.97" gradientTransform="translate(-28.64 -39.01) rotate(.54)" xlink:href="#_ÂÁ_Ï_ÌÌ_È_ËÂÌÚ_8"/>
    <linearGradient id="_ÂÁ_Ï_ÌÌ_È_ËÂÌÚ_10" data-name="¡ÂÁ˚ÏˇÌÌ˚È „‡‰ËÂÌÚ 10" x1="83.41" y1="345.78" x2="55.68" y2="218.27" gradientTransform="translate(-28.64 -39.01) rotate(.54)" gradientUnits="userSpaceOnUse">
      <stop offset="0" stop-color="#3b2621"/>
      <stop offset=".77" stop-color="#51342e"/>
      <stop offset="1" stop-color="#593a33"/>
    </linearGradient>
    <linearGradient id="linear-gradient-25" x1="91.12" y1="163.56" x2="89.73" y2="274.79" xlink:href="#linear-gradient-24"/>
    <linearGradient id="linear-gradient-26" x1="189.8" y1="297.25" x2="195.02" y2="220.4" xlink:href="#linear-gradient-24"/>
    <linearGradient id="linear-gradient-27" x1="185.3" y1="275.84" x2="189.8" y2="209.58" xlink:href="#linear-gradient-24"/>
    <linearGradient id="linear-gradient-28" x1="106.96" y1="288.23" x2="112" y2="214.02" xlink:href="#linear-gradient-24"/>
    <linearGradient id="linear-gradient-29" x1="73.73" y1="294.14" x2="76.58" y2="252.19" xlink:href="#linear-gradient-24"/>
    <linearGradient id="linear-gradient-30" x1="204.79" y1="295.33" x2="207.36" y2="257.51" xlink:href="#linear-gradient-24"/>
    <linearGradient id="linear-gradient-31" x1="149.63" y1="84.55" x2="143.44" y2="45.96" xlink:href="#linear-gradient-24"/>
    <linearGradient id="_ÂÁ_Ï_ÌÌ_È_ËÂÌÚ_8-12" data-name="¡ÂÁ˚ÏˇÌÌ˚È „‡‰ËÂÌÚ 8" x1="167.19" y1="110.43" x2="177.59" y2="88.7" gradientTransform="translate(-28.64 -39.01) rotate(.54)" xlink:href="#_ÂÁ_Ï_ÌÌ_È_ËÂÌÚ_8"/>
    <linearGradient id="_ÂÁ_Ï_ÌÌ_È_ËÂÌÚ_8-13" data-name="¡ÂÁ˚ÏˇÌÌ˚È „‡‰ËÂÌÚ 8" x1="111.85" y1="122.72" x2="131.62" y2="81.42" gradientTransform="translate(-28.64 -39.01) rotate(.54)" xlink:href="#_ÂÁ_Ï_ÌÌ_È_ËÂÌÚ_8"/>
    <linearGradient id="_ÂÁ_Ï_ÌÌ_È_ËÂÌÚ_8-14" data-name="¡ÂÁ˚ÏˇÌÌ˚È „‡‰ËÂÌÚ 8" x1="221.26" y1="150.21" x2="160.28" y2="49.71" gradientTransform="translate(-28.64 -39.01) rotate(.54)" xlink:href="#_ÂÁ_Ï_ÌÌ_È_ËÂÌÚ_8"/>
    <linearGradient id="_ÂÁ_Ï_ÌÌ_È_ËÂÌÚ_8-15" data-name="¡ÂÁ˚ÏˇÌÌ˚È „‡‰ËÂÌÚ 8" x1="118.55" y1="120.24" x2="92.27" y2="76.93" gradientTransform="translate(-28.64 -39.01) rotate(.54)" xlink:href="#_ÂÁ_Ï_ÌÌ_È_ËÂÌÚ_8"/>
    <linearGradient id="_ÂÁ_Ï_ÌÌ_È_ËÂÌÚ_8-16" data-name="¡ÂÁ˚ÏˇÌÌ˚È „‡‰ËÂÌÚ 8" x1="233.03" y1="208.85" x2="216.05" y2="93.81" gradientTransform="translate(-28.64 -39.01) rotate(.54)" xlink:href="#_ÂÁ_Ï_ÌÌ_È_ËÂÌÚ_8"/>
    <linearGradient id="_ÂÁ_Ï_ÌÌ_È_ËÂÌÚ_8-17" data-name="¡ÂÁ˚ÏˇÌÌ˚È „‡‰ËÂÌÚ 8" x1="76.24" y1="188.47" x2="64.87" y2="111.45" gradientTransform="translate(-28.64 -39.01) rotate(.54)" xlink:href="#_ÂÁ_Ï_ÌÌ_È_ËÂÌÚ_8"/>
    <linearGradient id="_ÂÁ_Ï_ÌÌ_È_ËÂÌÚ_7" data-name="¡ÂÁ˚ÏˇÌÌ˚È „‡‰ËÂÌÚ 7" x1="251.37" y1="309.22" x2="220.9" y2="168.76" gradientTransform="translate(-28.64 -39.01) rotate(.54)" gradientUnits="userSpaceOnUse">
      <stop offset="0" stop-color="#3b2621"/>
      <stop offset=".38" stop-color="#472e28"/>
      <stop offset="1" stop-color="#593a33"/>
    </linearGradient>
    <linearGradient id="linear-gradient-32" x1="89.32" y1="231.61" x2="99.58" y2="80.64" xlink:href="#linear-gradient-24"/>
    <linearGradient id="_ÂÁ_Ï_ÌÌ_È_ËÂÌÚ_46-2" data-name="¡ÂÁ˚ÏˇÌÌ˚È „‡‰ËÂÌÚ 46" x1="118.37" y1="282.9" x2="75.51" y2="212.27" xlink:href="#_ÂÁ_Ï_ÌÌ_È_ËÂÌÚ_46"/>
  </defs>
  <g id="Layer_1-2" data-name="Layer 1">
    <g style="clip-path: url(#clippath);">
      <g>
        <g>
          <path d="M209.86,207.39s13.04,26.56-.74,54.96l.74-54.96Z" style="fill: url(#_ÂÁ_Ï_ÌÌ_È_ËÂÌÚ_8);"/>
          <path d="M22.98,207.99s-14.61,25.74-2.55,54.91l2.55-54.91Z" style="fill: url(#_ÂÁ_Ï_ÌÌ_È_ËÂÌÚ_8-2);"/>
          <path d="M118.37,27.37s44.1-1.37,58.72,34.3c14.62,35.67,16.03,93.63,18.08,109.76,2.05,16.13-8.06,65.97-8.06,65.97l-140.68,3.44s-5.41-114.44-1.21-136.18c4.21-21.74,73.15-77.3,73.15-77.3Z" style="fill: url(#_ÂÁ_Ï_ÌÌ_È_ËÂÌÚ_8-3);"/>
        </g>
        <path d="M145.87,155.65s2.56,63.85,8.5,68.3c7.53,5.65,81.88,22.12,86.62,27.53,11.81,13.47,13.3,6.94,16.27,35.16,2.97,28.22-263.41,3.66-263.41,3.66,0,0,7.04-38.03,14.97-41.9,23.11-11.3,63.27-17.65,73.9-21.53,14.89-5.44,12.65-62.3,12.65-62.3l50.5-8.91Z" style="fill: #f7d4ab;"/>
        <path d="M154.41,222.13c-4.02-3.82-4.56-48.38-4.56-48.38,0,0-58.57,3.22-59.48,2.19.05,4.12.4,33.65,0,36.78-.47,3.57.15,14.26-40.03,22.88,0,0,13.7-.69,38.97-6.27,4.53-1,10.31-6.84,10.31-11.04,0,0,26.92,1.67,40.53-11.43,1.41,10.37,2.72,33.74,6.05,35.9s33.21,5.48,33.21,5.48l3.95-14c-8.56-2.07-24.92-8.29-28.94-12.11Z" style="fill: url(#linear-gradient);"/>
        <path d="M111.05,232.74s-5-6.58-9.27-6.42c-4.27.16-42.52,10.34-47.98,10.83,0,0,14.58-.31,26.31-2.26,11.72-1.96,20.05-6.5,30.94-2.15Z" style="fill: url(#linear-gradient-2);"/>
        <path d="M126.86,231.41s4.16-5.09,9.52-5.58c5.37-.49,42.82,8.92,49.5,11.21,0,0-47.98-9.31-59.02-5.63Z" style="fill: url(#linear-gradient-3);"/>
        <path d="M62.42,232.71s-2.95,43.89,53.2,41.12c56.15-2.77,63.75-41.35,63.75-41.35l-18.75-6.53s-4.16,7.7-34.44,7.78c-44.03.13-44.72-8.73-44.72-8.73l-19.04,7.71Z" style="fill: url(#linear-gradient-4);"/>
        <path d="M224.84,342.12c.73-17.64,33.06-81.23,20.35-91.09-4.13-3.21-17.19-9.09-31.56-13.03-19.94-5.48-41.44-10.22-41.44-10.22,0,0-10.08,14.16-52.71,12.66-49.01-1.72-49.17-12.66-49.17-12.66l-39.03,11.45-25.46,9.01c0,1.71,12.06,75.13,16.98,104.95h200.71c.42-5.89.9-10.97,1.32-11.06Z" style="fill: #f5d534;"/>
        <path d="M70.32,227.78s-5.16,18.37,56.39,16.28c45.63-1.56,45.48-16.28,45.48-16.28l-6.84-2.21s-.82,11.87-39.78,12.74c-50.25,1.11-48.34-12.74-48.34-12.74l-6.91,2.21Z" style="fill: url(#_ÂÁ_Ï_ÌÌ_È_ËÂÌÚ_29);"/>
        <path d="M90.52,206.97s-.96-33.75-1.91-41.06l61.44,6.34.3,18.43s-20.39,28.56-59.83,16.29Z" style="fill: url(#linear-gradient-5);"/>
        <g>
          <path d="M119.29,27.17c-.1-.07-.16-.1-.16-.1.06.03.11.06.16.1Z" style="fill: url(#_ÂÁ_Ï_ÌÌ_È_ËÂÌÚ_14);"/>
          <g>
            <g>
              <path d="M57.77,114.99c2.47,20.29,5.32,36.03,5.32,36.03-8.66-.08-12.52-9.1-15.83-16.79-5.06-11.75-8-24.33,3.79-24.89,2.3-.11,6.73,5.65,6.73,5.65Z" style="fill: url(#_ÂÁ_Ï_ÌÌ_È_ËÂÌÚ_18);"/>
              <path d="M55.92,143.84s-4.2-4.53-2.8-13.34c3.3-20.81-10.81-22.36-7.74-8.11,0,0,2.01-6.69,3.78-4.67,2.17,2.48-2.39,3.8-.17,14.58,1.16,5.6,6.92,11.55,6.92,11.55Z" style="fill: url(#linear-gradient-6);"/>
            </g>
            <g>
              <path d="M179.05,116.13c-2.86,20.24-5.24,35.64-5.24,35.64,8.66.08,11.93-8.58,15.38-16.2,5.29-11.65,8.46-24.18-3.32-24.96-2.3-.15-6.83,5.52-6.83,5.52Z" style="fill: url(#_ÂÁ_Ï_ÌÌ_È_ËÂÌÚ_18-2);"/>
              <path d="M180.35,145.01s4.28-4.45,3.05-13.29c-2.9-20.86,11.23-22.16,7.89-7.97,0,0-1.89-6.72-3.7-4.74-2.22,2.44,2.32,3.84-.11,14.58-1.26,5.58-7.14,11.42-7.14,11.42Z" style="fill: url(#linear-gradient-7);"/>
            </g>
            <path d="M172.54,51.87c-7.39-17.33-18.93-28.14-45.15-30.05,0,0-60.01,7.25-67.72,24.44-8.4,18.72-6.3,45.15-4.11,62.44,2.19,17.29,6.62,45.34,10.86,53.31,4.23,7.97,25.85,26.7,30.52,30.27,4.37,3.34,10.67,11.08,21.57,11.18,9.69.09,16.68-7.83,20.99-11.15,4.66-3.58,25.79-22.26,30.17-30.15,4.38-7.89,9.42-35.02,11.93-52.27,2.51-17.25-1.02-39.15-9.06-58.02Z" style="fill: url(#_ÂÁ_Ï_ÌÌ_È_ËÂÌÚ_384);"/>
            <path d="M82.61,93.32c-8.59-.61-14.31,1.31-18.7,4.52-10.22,7.49-2.98,28.92-2.98,28.92,0,0,19.62,21.74,53.42,8.81-2.55-14.13-4.22-40.33-31.74-42.26Z" style="fill: url(#linear-gradient-8);"/>
            <path d="M93.62,116.64c-7.7-2.38-37.58-8.96-36.25.99,2.95,22.01,5.68,37.15,9.44,44.03,3.93,7.21,15.6,18.6,20.67,19.51,7.85,1.41,16.46-27.46,16.75-37.38.39-13.88-2.91-24.77-10.61-27.15Z" style="fill: url(#radial-gradient);"/>
            <path d="M117.42,182.07c-5.52.21-9.97,2.15-9.96,4.33,0,2.19,4.47,3.81,9.98,3.6,5.51-.21,9.95-2.15,9.95-4.34-.01-2.19-4.49-3.8-9.98-3.59Z" style="fill: url(#linear-gradient-9);"/>
            <path d="M173.18,138.12s6.71-19.85,7.46-23.38c4.3-20.53,9.36-91.54-66.6-87.59-78.11,4.07-53.95,108.86-53.95,108.86,0,0,25.07-91.47,58.35-91.98,0,0,39.71,1.76,54.74,94.09Z" style="fill: url(#_ÂÁ_Ï_ÌÌ_È_ËÂÌÚ_18-3);"/>
            <polygon points="60.08 136.01 66.42 162.01 66.84 80.84 58.66 89.01 60.08 136.01" style="fill: url(#_ÂÁ_Ï_ÌÌ_È_ËÂÌÚ_72);"/>
            <path d="M169.84,100.99c-4.35-3.18-8.88-8.82-17.47-8.1-27.54,2.3-27.36,27.43-30.07,41.7,33.66,12.58,53.52-9.56,53.52-9.56,0,0,4.16-16.62-5.98-24.03Z" style="fill: url(#linear-gradient-10);"/>
            <path d="M55.84,110.89s5.14,40.05,10.16,51.21c1.63,3.63,11.37,13.18,20.67,21.42,0,0-16.81-20.34-18.58-25.4-3.88-11.09-12.25-47.24-12.25-47.24Z" style="fill: url(#_ÂÁ_Ï_ÌÌ_È_ËÂÌÚ_18-4);"/>
            <path d="M144.52,97.73s12.09-5.87,24.22,1.99c6.46,4.19,4.21,18.28,4.21,18.28.74,4.78-4.18-21.74-28.42-20.27Z" style="fill: url(#linear-gradient-11);"/>
            <path d="M143.45,117.11c7.75-2.24,37.74-8.25,36.22,1.68-3.36,21.95-6.38,37.04-10.27,43.85-4.07,7.13-15.95,18.31-21.04,19.11-7.88,1.26-15.94-27.77-16.04-37.69-.13-13.89,3.37-24.71,11.12-26.95Z" style="fill: url(#radial-gradient-2);"/>
            <polygon points="175.26 140.46 169.07 159.66 168.44 84.24 178.31 89.4 175.26 140.46" style="fill: url(#_ÂÁ_Ï_ÌÌ_È_ËÂÌÚ_72-2);"/>
            <g>
              <g>
                <g>
                  <path d="M84.85,105.92c17.52.08,19.1,10.8,19.42,18.53-1.33.29-2.72.54-5.33,1.33-3.52,1.07-7.65,2.79-13.6,2.71-4.68-.06-14.75-2.22-14.85-12.29-.08-7.96,10.12-9.95,14.35-10.28Z" style="fill: url(#_ÂÁ_Ï_ÌÌ_È_ËÂÌÚ_18-5);"/>
                  <path d="M103.49,123.85c-1.68-3.36-4.39-9.83-11.89-11.41-7.49-1.57-14.08,1.52-19.37,6.9,4.6,4.6,7.31,7.09,12.76,7.95,5.62.89,15.13-3.01,18.5-3.45Z" style="fill: url(#linear-gradient-12);"/>
                  <path d="M103.49,123.85s-8.94-8.13-16.68-6.4l-2.77-4.27s16.72-2.42,19.45,10.67Z" style="fill: #ddd;"/>
                  <path d="M87.1,127.42c-1.51.05-3.26.39-5.75-.8-3.43-1.46-6.62-4.08-7.59-4.95.3-.98.63-6.78.67-7.01,1.76-2.1,4.49-3.44,7.55-3.41,5.24.06,9.45,4.12,9.41,9.06-.03,3.06-1.79,5.51-4.29,7.09Z" style="fill: url(#_ÂÁ_Ï_ÌÌ_È_ËÂÌÚ_1050);"/>
                  <path d="M74.2,117.72c.21-4.24,3.05-5.47,7.59-5.42,4.65.05,8.37,3.57,8.32,7.95-.04,3.81-2.11,5.78-5.13,6.55-4.2-1.1-9.28-3.87-10.78-9.08Z" style="fill: url(#_ÂÁ_Ï_ÌÌ_È_ËÂÌÚ_1050-2);"/>
                  <path d="M90.88,117.33s-1-3.13-3.3-4.28c0,0-11.21-1.24-14.78,4.68,0,0,.94,2.8,2.23,3.92,0,0,6.94-5.63,15.85-4.32Z" style="fill: url(#_ÂÁ_Ï_ÌÌ_È_ËÂÌÚ_1050-3);"/>
                  <path d="M75.76,118.02c-.18,3.04,2.29,5.65,5.51,5.85,3.23.19,5.99-2.13,6.17-5.17.18-3.04-2.29-5.65-5.52-5.84-3.23-.19-5.98,2.12-6.16,5.16Z" style="fill: url(#_ÂÁ_Ï_ÌÌ_È_ËÂÌÚ_128);"/>
                  <path d="M87.3,117.15c-.76-3.02-3.81-4.93-6.72-4.23-5.79,1.41-5.15,6.31-4.25,7.81,0,0,5.13-3.57,10.96-3.58Z" style="fill: #0f0f0f;"/>
                  <path d="M81.33,118.71c.36.79,1.27,1.12,2.01.75.75-.37,1.05-1.31.68-2.1-.37-.78-1.27-1.12-2.01-.74-.74.37-1.04,1.31-.68,2.09Z" style="fill: #fff;"/>
                  <path d="M85.24,122.89c.5,1.02,1.74,1.44,2.77.95,1.03-.5,1.46-1.73.97-2.75-.5-1.02-1.74-1.45-2.77-.95-1.04.5-1.46,1.74-.97,2.75Z" style="fill: #fff;"/>
                  <path d="M67.32,110.04s1.69,3.6,10.25.56c16.48-5.24,25.62,4.39,25.92,13.25,0,0-4.91-9.75-14.24-10.71-5.68-.59-10.62,1.74-15.55,4.38-.08,3.95,5.16,8.79,10.82,9.97-4.85.02-15.63-5.03-16.4-9.14.3.51,1.33.87,2.65.4,0,0-4.62-1.87-3.45-8.69Z" style="fill: url(#_ÂÁ_Ï_ÌÌ_È_ËÂÌÚ_1655);"/>
                  <path d="M93.25,106.79c5.7,1.98,8.16,6.12,8.16,6.12,0,0-2.56-3.4-8.68-5.26-6.35-1.93-15.15-.12-15.15-.12,3.87-1.8,9.97-2.72,15.67-.74Z" style="fill: url(#_ÂÁ_Ï_ÌÌ_È_ËÂÌÚ_18-6);"/>
                  <path d="M89.94,112.28c10.7,1.85,13.55,11.57,13.55,11.57,0,0-4.08-8.35-13.79-10.13-5.52-1.01-11.79,1.68-16,3.79,0,0,6.61-6.9,16.24-5.23Z" style="fill: url(#_ÂÁ_Ï_ÌÌ_È_ËÂÌÚ_44);"/>
                </g>
                <g>
                  <path d="M149.94,106.57c-17.52-.08-19.2,10.62-19.59,18.35,1.32.3,2.72.56,5.32,1.38,3.51,1.1,7.63,2.86,13.57,2.83,4.68-.02,14.77-2.09,14.96-12.15.15-7.96-10.02-10.04-14.25-10.41Z" style="fill: url(#_ÂÁ_Ï_ÌÌ_È_ËÂÌÚ_18-7);"/>
                  <path d="M141.53,107.36c-5.72,1.93-8.22,6.05-8.22,6.05,0,0,2.59-3.37,8.73-5.18,6.37-1.87,15.15.02,15.15.02-3.86-1.84-9.94-2.82-15.66-.89Z" style="fill: url(#_ÂÁ_Ï_ÌÌ_È_ËÂÌÚ_18-8);"/>
                  <path d="M149.8,121.05c.04-3.64-2.24-6.79-5.54-8.23,6.93-1.02,13.09,1.97,18.11,6.99-4.55,4.64-7.27,8.24-12.77,8.37-1.32.03-2.32,0-3.44-.13,2.2-1.6,3.61-4.16,3.64-7Z" style="fill: url(#linear-gradient-13);"/>
                  <path d="M131.14,124.33c1.38-2.61,5.86-9.97,11.79-11.26.45-.1.89-.18,1.33-.24,3.29,1.44,5.57,4.59,5.54,8.23-.03,2.84-1.43,5.4-3.64,7-6.09-.47-13.1-3.32-13.85-3.53-.75-.21-1.18-.19-1.18-.19Z" style="fill: url(#_ÂÁ_Ï_ÌÌ_È_ËÂÌÚ_1050-4);"/>
                  <path d="M140.41,113c4.55.15,8.23,3.9,8.19,8.21-.03,3.27-1.7,4.92-3.68,5.93-6.05-.94-9.48-2.7-12.51-3.29-.22-.44-.41-1.03-.56-1.74,1.83-4.09,4.46-7.35,8.56-9.11Z" style="fill: url(#_ÂÁ_Ï_ÌÌ_È_ËÂÌÚ_1050-5);"/>
                  <path d="M162.2,118.26s-7.82-3.82-16.83-5.34c.62,2.26,1.77,3.66,3.06,5.08,5.31.77,9.49,3.64,11.18,5.68l2.59-5.43Z" style="fill: #ddd;"/>
                  <path d="M149.33,118.16s-.97-2.8-3.27-4.52c0,0-5.57-.41-9.69,3.18-4.11,3.59-5.23,7.5-5.23,7.5,0,0,6.94-8.18,18.18-6.16Z" style="fill: url(#_ÂÁ_Ï_ÌÌ_È_ËÂÌÚ_1050-6);"/>
                  <path d="M145.98,118.89c.12,3.04-2.4,5.6-5.62,5.72-3.23.11-5.95-2.27-6.07-5.31-.12-3.04,2.4-5.6,5.63-5.71,3.23-.12,5.94,2.26,6.06,5.3Z" style="fill: url(#_ÂÁ_Ï_ÌÌ_È_ËÂÌÚ_13);"/>
                  <path d="M145.84,117.84s-.61-4.4-5.77-4.26c-5.67.15-6.68,4.96-5.31,7.68,0,0,4.96-3.51,11.07-3.42Z" style="fill: #0f0f0f;"/>
                  <path d="M139.82,119.73c.37.8,1.29,1.14,2.05.76.76-.38,1.06-1.34.7-2.14-.38-.8-1.29-1.14-2.06-.76-.75.38-1.06,1.33-.68,2.13Z" style="fill: #fff;"/>
                  <path d="M143.56,123.63c.51,1.04,1.77,1.47,2.82.97,1.05-.52,1.49-1.76.98-2.8-.51-1.04-1.78-1.47-2.82-.96-1.05.51-1.49,1.76-.98,2.8Z" style="fill: #fff;"/>
                  <path d="M167.44,110.86s-1.72,3.58-10.26.46c-16.44-5.39-25.66,4.16-26.04,13.01,0,0,5-9.7,14.34-10.58,5.69-.53,10.6,1.83,15.51,4.52.04,3.95-5.24,8.77-10.91,9.89,4.85.06,15.68-4.91,16.48-9.01-.3.51-1.34.86-2.65.37,0,0,4.64-1.83,3.53-8.66Z" style="fill: url(#_ÂÁ_Ï_ÌÌ_È_ËÂÌÚ_1655-2);"/>
                  <path d="M144.8,112.89c-10.71,1.75-13.66,11.44-13.66,11.44,0,0,4.16-8.31,13.88-10,5.53-.96,11.77,1.79,15.96,3.94,0,0-6.54-6.96-16.19-5.38Z" style="fill: url(#_ÂÁ_Ï_ÌÌ_È_ËÂÌÚ_44-2);"/>
                </g>
              </g>
              <g>
                <polygon points="105.28 150.28 116.98 158.5 128.12 150.27 126.56 148.93 116.47 148.96 106.42 148.87 105.28 150.28" style="fill: url(#linear-gradient-14);"/>
                <path d="M105.64,150.08s4.48-1.34,8.37.35l4.79.05s4.77-1.79,9.32-.2l.22-2.17-3.81-.81-8.06,1.95-7.33-2.1-3.84.41.33,2.52Z" style="fill: url(#linear-gradient-15);"/>
                <path d="M104.19,140.73s-2.09,1.14-2.43,4.29c-.39,3.61,3.33,5.61,3.9,5.24.58-.37-.45-3.1,3-2.59,3.44.52,3.25,2.25,3.8,2.85s6.62.8,7.65.16c1.03-.63.77-3,4.03-2.87,3.26.13,3.33,2.36,3.8,2.65.46.29,2.41-1.43,3-4.73.59-3.31-2.89-4.79-2.89-4.79,0,0,1.74,2.96.97,4.83-.76,1.87-5.77.2-7.84,1.47-3.81,2.33-6.1,1.73-9.84-.09-2.46-1.2-5.95.24-7.32-1.81-.48-.71-.57-3.23.14-4.63Z" style="fill: #f0c499;"/>
                <path d="M108.79,139.14c-.09,2.3.18,3.29,1.15,4.8,1.48,2.31,11.99,4.28,13.84-.96.37-1.04.37-2.69.2-4.76-.19-2.36-15.1-1.38-15.19.92Z" style="fill: url(#_ÂÁ_Ï_ÌÌ_È_ËÂÌÚ_23);"/>
              </g>
              <path d="M91.51,156.72s20.18,2.97,27.04,3.15,23.14-2.89,23.14-2.89c0,0-16.29-2.04-25.15-1.94s-25.03,1.68-25.03,1.68Z" style="fill: url(#linear-gradient-16);"/>
              <g>
                <path d="M87.66,158.33c-1.57-.55-3.05-3.13-2.37-4.3.6-1.05,7.82,4.35,10.31,7.99-3.43-2.57-6.36-3.15-7.94-3.7Z" style="fill: url(#linear-gradient-17);"/>
                <path d="M146.79,158.99c1.56-.6,3.05-3.17,2.33-4.32-.64-1.03-7.71,4.54-10.06,8.27,3.33-2.68,6.18-3.35,7.74-3.95Z" style="fill: url(#_ÂÁ_Ï_ÌÌ_È_ËÂÌÚ_17);"/>
                <path d="M101.62,170.08c2.88,6.3,19.16,15.3,31.59.46,0,0-17.39,7.18-31.59-.46Z" style="fill: url(#linear-gradient-18);"/>
                <path d="M115.72,159.68c-15.49-.48-24.48-2.93-28.13-3.75v.03c.11.15.17.24.26.39,1.92.88,4.15,1.48,6.97,3.53,1.93,1.41,3.68,10.75,22.96,10.91,10.53.08,16.95-3.3,23.3-10.21,1.98-2.15,3.85-2.8,5.39-3.64.04-.17.12-.24.17-.42-4.24,1.09-12.77,3.71-30.91,3.16Z" style="fill: #961b27;"/>
                <path d="M133.05,161.67c-10.86,2.17-25.56,1.6-30.87.55-3.07-1.39-2.84,2.45-2.84,2.45,6.65,6.9,12.11,5.73,17.56,5.97,5.37.24,13.44-1.72,18.28-5.77.49-1.24-.61-3.49-2.13-3.19Z" style="fill: url(#linear-gradient-19);"/>
                <path d="M137.91,157.85s-3.56,1.61-11.86,2.31c-8.37.71-11.88.15-19.39-.34-3.45-.23-5.54-.76-9.84-1.84,0,0,.78.98,1.27,2.12.63,1.49,3.8,6.55,19.31,6.65,11.67.08,17.9-3.86,18.77-6.3.53-1.47,1.63-2.1,1.73-2.6Z" style="fill: url(#linear-gradient-20);"/>
                <path d="M118.82,170.12c-23.7-.47-15.28-9.76-30.97-13.77.11.03,3.59,1.94,7.65,6.7,4.49,5.25,8.28,13.45,21.56,13.59,11.98.12,18.74-8.27,22.65-12.87,4.48-5.26,6.69-6.82,6.79-6.84-12.93,3.19-8.85,12.96-27.69,13.18Z" style="fill: #f86d78;"/>
                <path d="M104.83,167.73c-3.61-1.89-6.79-5.83-7.46-6.33.84,1.15,5.74,13.49,19.09,13.46,15.44-.04,18.41-10.08,21.22-13.03-1.33,1.31-4.66,4.85-8.71,6.13-2.66.84-7.16,1.82-12.14,1.94-3.18.08-8.48-.66-11.99-2.17Z" style="fill: url(#linear-gradient-21);"/>
                <path d="M128.47,169.45c.19.53-1.32,2.26-4.48,3.06-4.07,1.03-7.25-.09-7.45-.62-.2-.53,5.17-.8,6.74-1.3,1.57-.5,4.99-1.67,5.19-1.14Z" style="fill: #ff9aa2;"/>
                <path d="M88.08,157.25c.93.43,1.66-.25,5.36,1.14,0,0-6.27-3.34-6.7-3.16-.29.12-.04,1.38,1.34,2.02Z" style="fill: #961b27;"/>
                <path d="M146.51,157.86c-.94.42-1.97-.27-5.23,1.09,0,0,6.1-3.44,6.61-3.09.26.18.01,1.38-1.37,2Z" style="fill: #961b27;"/>
                <path d="M97.16,158.35l.97,1.82s6.65,3.64,20.43,3.86c9.95.16,17.57-3.4,17.57-3.4l.82-1.77-39.79-.51Z" style="fill: url(#linear-gradient-22);"/>
                <path d="M117.88,158.02c-3.85-.13-21.5-.29-29.01-1.95,0,0,2.77,1.73,16.61,4.61,4.12.85,7.77,1.69,12.03,1.68,5.08.12,9.32-.83,13.27-1.41,6.7-.98,14.65-4.07,14.69-4.21-3.58.91-24.46,1.38-27.59,1.28Z" style="fill: #f86d78;"/>
                <path d="M102.4,158.45c.14-.47,7.02-.02,8.16,0,1.14.02,11.76.41,12.92.4,1.65,0,9.54-.25,9.45.31-.09.57-12.29,1.77-13.73,1.87-1.44.1-17.21-1.19-16.81-2.58Z" style="fill: url(#linear-gradient-23);"/>
              </g>
            </g>
            <path d="M181.33,112.08s-5.9,39.94-11.12,51.01c-1.7,3.6-10.53,12.04-21.1,20.94,0,0,15.53-17.55,18.68-25.61,4.28-10.95,13.54-46.34,13.54-46.34Z" style="fill: url(#_ÂÁ_Ï_ÌÌ_È_ËÂÌÚ_23-2);"/>
            <path d="M86.67,183.53s14.83,12.74,16.43,13.67c3.2,1.85,6.17,4.46,14.51,4.82,8.13.35,13.12-2.99,15.42-4.5,2.42-1.58,14.9-12.39,16.07-13.49,0,0-9.98,11.98-13.71,15-6.09,4.93-13.23,7.5-17.68,7.46-5.6-.05-10.16-3.53-14.94-6.29-5.2-3-16.11-16.66-16.11-16.66Z" style="fill: url(#_ÂÁ_Ï_ÌÌ_È_ËÂÌÚ_18-9);"/>
            <path d="M99.63,93.3c.87,1.08,1.36,4.5.64,6.26.05-2.91-1.12-6.16-3.05-6.87-.17-.04-.38-.09-.59-.14,1.29,1.22,2.03,3.03,1.84,5.19-.58-1.62-1.7-4.47-3.65-5.47-5.72-.93-14.31-2.21-18.19-1.5-5.52.99-12.91,10.43-12.91,10.43,1.86-1.35,8.75-3.63,13.82-3.92,3.26-.18,19.43,3.16,23.67,3.76.56.08,1.76-5.52-1.58-7.73Z" style="fill: url(#_ÂÁ_Ï_ÌÌ_È_ËÂÌÚ_11);"/>
            <path d="M134.87,93.63c-.9,1.07-1.44,4.47-.76,6.25,0-2.91,1.24-6.13,3.18-6.81.17-.04.39-.08.59-.13-1.31,1.19-2.08,2.99-1.94,5.15.61-1.61,1.78-4.44,3.76-5.4,5.74-.82,14.35-1.94,18.22-1.16,5.5,1.1,12.71,10.67,12.71,10.67-1.84-1.38-8.68-3.79-13.74-4.18-3.26-.24-19.49,2.8-23.73,3.31-.56.07-1.66-5.55,1.72-7.7Z" style="fill: url(#_ÂÁ_Ï_ÌÌ_È_ËÂÌÚ_11-2);"/>
            <path d="M75.06,127.07c-2.73-.63-5.2.19-5.51,1.83-.32,1.65,1.64,3.49,4.36,4.13,2.73.63,5.2-.19,5.52-1.83.31-1.65-1.64-3.5-4.37-4.13Z" style="fill: url(#_ÂÁ_Ï_ÌÌ_È_ËÂÌÚ_126);"/>
            <path d="M159.74,127.87c2.74-.58,5.19.29,5.48,1.93.29,1.65-1.7,3.46-4.44,4.05-2.74.58-5.2-.28-5.48-1.93-.28-1.65,1.71-3.46,4.45-4.05Z" style="fill: url(#_ÂÁ_Ï_ÌÌ_È_ËÂÌÚ_126-2);"/>
          </g>
          <path d="M176.74,146.41s-12.98,37.45-18.73,49.83c-5.76,12.38-.82,54.57-.82,54.57,0,0,31.86-59.29,28.59-86.41-3.28-27.12-9.04-17.99-9.04-17.99Z" style="fill: url(#_ÂÁ_Ï_ÌÌ_È_ËÂÌÚ_8-4);"/>
          <path d="M200.36,227.55s3.91,16.83,14.21,25.81c0,0-12.77-2.58-15.7-10.13-2.93-7.55,1.5-15.68,1.5-15.68Z" style="fill: url(#_ÂÁ_Ï_ÌÌ_È_ËÂÌÚ_8-5);"/>
          <path d="M36.38,222.77s-4.23,16.75-14.69,25.53c0,0,12.82-2.33,15.89-9.83s-1.2-15.7-1.2-15.7Z" style="fill: url(#_ÂÁ_Ï_ÌÌ_È_ËÂÌÚ_8-6);"/>
          <path d="M87.23,222.1c-1.77-25.84-13.29-44.84-18.94-52.33-9.26-12.28-9.85-39.87-9.85-39.87,0,0-6.13,44.58-8.57,60.54-3.77,24.64,6.57,58.19,17.68,65.6,7.48-12.79,8.53-27.61,6.17-46.03,9.67,19.68,1.66,38.18-.47,50.08,7.64-8.35,14.73-26.98,13.97-37.99Z" style="fill: url(#_ÂÁ_Ï_ÌÌ_È_ËÂÌÚ_8-7);"/>
          <path d="M176.78,116.28c2.24,12.81,4.13,30.43,4,44.31-.31,34.89-18.38,98.18-36.23,100.92,5.6-.7,20.77-1.71,32.92-18.56.7,6.25-6.68,10.72-12.33,15.39,11.39-5.98,16.74-11.34,16.74-11.34-2.88,5.1-4.75,9.15-14.14,15.92,5.75-.86,23-11.72,31.15-22.55,5.08-11.47,9.89-22.68,12.64-35.85-1.79-19.61-7.57-38.3-17.87-57.02-5.39-8.81-12.17-21.62-16.88-31.22Z" style="fill: url(#_ÂÁ_Ï_ÌÌ_È_ËÂÌÚ_46);"/>
          <path d="M204.02,157.44c-.47-5.14-12.96-86.67-19.41-100.42C159.45,3.41,119.33,21.05,119.33,21.05l-2.79,20.61c29.72-5.27,52.67,30.99,60.98,78.61,4.7,9.6,10.75,18.43,16.14,27.23,10.3,18.73,12.22,25.67,10.36,9.94Z" style="fill: url(#_ÂÁ_Ï_ÌÌ_È_ËÂÌÚ_8-8);"/>
          <path d="M65.94,27.55c-19.49,16.76-25.2,36.08-27.59,49.18-1.42,7.74-8.85,55.88-12.73,88.86,8.31-17.17,18.05-22.05,30.67-35.67.56-.82,1.06-1.66,1.54-2.5,1.62-28.62,7.16-52.48,23.9-68.53,21.05-20.17,34.81-17.23,34.81-17.23l2.79-20.61c-9.93-8.17-41.69-3.56-53.39,6.5Z" style="fill: url(#_ÂÁ_Ï_ÌÌ_È_ËÂÌÚ_8-9);"/>
          <path d="M25.62,165.59c-13.53,27.34-8.39,55.92-1.07,65.97,6.11,7.3,16.93,18.85,25.12,24.21-3.19-4.19-8.46-14.15-7.7-20.18,5.34,18.51,28.45,23.65,31.3,24.5-18.85-11.56-23.94-32.45-24.32-59.38-.27-18.82,7.96-56.99,8.89-73.29-.48.84-.98,1.68-1.54,2.5-12.62,13.62-22.36,18.5-30.67,35.67Z" style="fill: url(#_ÂÁ_Ï_ÌÌ_È_ËÂÌÚ_55);"/>
          <path d="M116.57,41.66s26.17-11.71,42.5,9.57c16.33,21.28,15.52,66.22,24.74,90.52,9.22,24.3,23.37,59.54,17.04,79.21-6.33,19.68-23.72,35.2-23.72,35.2,0,0,20.32-25.12,17.24-49.11s-18.6-47.94-22.06-74c-3.46-26.06-7.23-63.98-25.2-80.67-15.95-14.82-30.55-10.71-30.55-10.71Z" style="fill: url(#linear-gradient-24);"/>
          <path d="M119.13,27.07s-38.26-7.05-54.17,26.63c-15.91,33.68-30.78,73.71-30.78,73.71,0,0,21.69-76.41,24.9-83.37,4.67-10.13,29.52-38.33,60.05-16.98Z" style="fill: url(#_ÂÁ_Ï_ÌÌ_È_ËÂÌÚ_8-10);"/>
          <path d="M121.44,25.54s22.2-6.07,45.9,19.44c13,13.99,17.8,88.18,17.8,88.18,0,0,2.34-58.99-3.27-78.83s-36.06-49.08-60.43-28.8Z" style="fill: url(#_ÂÁ_Ï_ÌÌ_È_ËÂÌÚ_8-11);"/>
          <path d="M49.47,144.28s-19.25,32.87-21.77,54.67c-2.52,21.8-10.55,40.76-21.66,42.92,0,0,14.81-2.8,21.36-11.23,6.55-8.43,12.18-66.57,22.07-86.36Z" style="fill: url(#_ÂÁ_Ï_ÌÌ_È_ËÂÌÚ_10);"/>
          <path d="M68.42,88.65s-10.24,28.51-16.02,63.96c-4.7,28.83-9.82,41.14-8.11,59.61,1.88,20.3,8.24,41.29,28.97,47.88,0,0-16.14-8.21-20.9-47.8-1.66-13.82,2.84-36.85,6.48-59.62,5.21-32.57,9.58-64.02,9.58-64.02Z" style="fill: url(#linear-gradient-25);"/>
          <path d="M176.31,180.59s6.43,75.5-31.75,80.92c0,0,23.65-9.54,31.75-80.92Z" style="fill: url(#linear-gradient-26);"/>
          <path d="M166.17,169.82s-7.55,15.31-13.92,28.15c-6.37,12.83-.4,42.64-.4,42.64,0,0-.4-21.28,4.98-34.25,5.38-12.97,9.34-36.54,9.34-36.54Z" style="fill: url(#linear-gradient-27);"/>
          <path d="M70.23,171.76s12.11,14.67,17.47,33.77c5.36,19.09-4.61,47.74-4.61,47.74,0,0,3.85-34.29.47-50.2-3.38-15.92-13.34-31.3-13.34-31.3Z" style="fill: url(#linear-gradient-28);"/>
          <path d="M40.4,211.56s-3.95,30.98,11.02,46.37c0,0-28.04-9.25-11.02-46.37Z" style="fill: url(#linear-gradient-29);"/>
          <path d="M184.36,219.32s5.72,28.31-20.18,39.47c0,0,21.47-18.2,20.18-39.47Z" style="fill: url(#linear-gradient-30);"/>
          <path d="M119.28,26.46s17.87-11.84,48.15,5.52c0,0-18.72-21.98-45.52-14.95,0,0-26.82-16.19-54.31,9.23,0,0,7.88-6.1,21.45-7.61,11.31-1.26,28.53,1.24,30.24,7.81Z" style="fill: url(#linear-gradient-31);"/>
          <path d="M165.39,90.2s.72-25.83-12.31-38.45c-13.03-12.62-25.6-13.44-36.51-10.09,0,0,15.38-2.37,24.47,6.48,12.1,11.78,18.22,21.21,24.35,42.06Z" style="fill: url(#_ÂÁ_Ï_ÌÌ_È_ËÂÌÚ_8-12);"/>
          <path d="M116.57,41.66s-9.77-2.7-17.16-.38c-14.31,4.48-22.54,22.61-26.53,45.71,0,0,5.13-27.47,25.01-38.64,10.73-6.03,18.68-6.68,18.68-6.68Z" style="fill: url(#_ÂÁ_Ï_ÌÌ_È_ËÂÌÚ_8-13);"/>
          <path d="M121.43,27.19s34.98-16.34,51.47,25.67c12.05,30.69,9.64,61.7,9.64,61.7,0,0-1.42-51-28.14-77.59-15.18-15.1-32.97-9.79-32.97-9.79Z" style="fill: url(#_ÂÁ_Ï_ÌÌ_È_ËÂÌÚ_8-14);"/>
          <path d="M119.13,27.07s-12.18-5.45-28.03-.17c-12.36,4.12-22.24,15.7-27.87,29.08-3.69,8.76-14.18,32.23-21.88,52.87,0,0,20.59-27.11,28-50.16,5.36-16.7,24.93-35.89,49.79-31.63Z" style="fill: url(#_ÂÁ_Ï_ÌÌ_È_ËÂÌÚ_8-15);"/>
          <path d="M186.84,80.6s-2.2,49.13,22.42,102.59l-22.42-102.59Z" style="fill: url(#_ÂÁ_Ï_ÌÌ_È_ËÂÌÚ_8-16);"/>
          <path d="M58.69,85.75l-33.12,75.32s31.03-24.97,33.12-75.32Z" style="fill: url(#_ÂÁ_Ï_ÌÌ_È_ËÂÌÚ_8-17);"/>
          <path d="M188.27,133.65s15.42,22.28,22.37,43.21c7.62,22.96,5.86,42.13-8.87,63.22,0,0,8.53-26.3-.04-67.07-3.44-16.36-13.46-39.35-13.46-39.35Z" style="fill: url(#_ÂÁ_Ï_ÌÌ_È_ËÂÌÚ_7);"/>
          <path d="M116.57,41.66s-22.28-12.97-38.85,10.86c-13.87,19.94-14.59,53.23-35.41,83.36-8.62,12.48-29.45,32.91-30.17,58.98,0,0,2.56-12.76,23.57-36.41,21.01-23.65,33.22-52.26,38.94-78.03,7.99-36.03,26.01-41.15,41.92-38.76Z" style="fill: url(#linear-gradient-32);"/>
          <path d="M64.35,168.86s19.87,51.01,4.89,84.03c0,0-2.32-67.54-4.89-84.03Z" style="fill: url(#_ÂÁ_Ï_ÌÌ_È_ËÂÌÚ_46-2);"/>
        </g>
      </g>
    </g>
  </g>
</svg>