<?xml version="1.0" encoding="UTF-8"?>
<svg id="Layer_2" data-name="Layer 2" xmlns="http://www.w3.org/2000/svg" width="234" height="234" xmlns:xlink="http://www.w3.org/1999/xlink" viewBox="0 0 234 234">
  <defs>
    <clipPath id="clippath">
      <rect width="234" height="234" style="fill: none;"/>
    </clipPath>
    <linearGradient id="_ÂÁ_Ï_ÌÌ_È_ËÂÌÚ_8" data-name="¡ÂÁ˚ÏˇÌÌ˚È „‡‰ËÂÌÚ 8" x1="298.85" y1="31.54" x2="278.57" y2="-38.97" gradientTransform="translate(-60.31 146.84) rotate(22.64)" gradientUnits="userSpaceOnUse">
      <stop offset="0" stop-color="#3b2621"/>
      <stop offset=".39" stop-color="#3e2822"/>
      <stop offset=".71" stop-color="#482e29"/>
      <stop offset="1" stop-color="#593a33"/>
    </linearGradient>
    <linearGradient id="_ÂÁ_Ï_ÌÌ_È_ËÂÌÚ_8-2" data-name="¡ÂÁ˚ÏˇÌÌ˚È „‡‰ËÂÌÚ 8" x1="-1225.21" y1="621" x2="-1245.49" y2="550.5" gradientTransform="translate(-1338.67 108.57) rotate(160.79) scale(1 -1)" xlink:href="#_ÂÁ_Ï_ÌÌ_È_ËÂÌÚ_8"/>
    <linearGradient id="_ÂÁ_Ï_ÌÌ_È_ËÂÌÚ_8-3" data-name="¡ÂÁ˚ÏˇÌÌ˚È „‡‰ËÂÌÚ 8" x1="8.33" y1="438.42" x2="89.62" y2="-33.06" gradientTransform="translate(87.93 -111.28) rotate(1.71)" xlink:href="#_ÂÁ_Ï_ÌÌ_È_ËÂÌÚ_8"/>
    <linearGradient id="linear-gradient" x1="68.74" y1="192.54" x2="154.92" y2="218.75" gradientUnits="userSpaceOnUse">
      <stop offset="0" stop-color="#f0c499"/>
      <stop offset=".52" stop-color="#f1c69b"/>
      <stop offset=".85" stop-color="#f4cea4"/>
      <stop offset="1" stop-color="#f7d4ab"/>
    </linearGradient>
    <linearGradient id="linear-gradient-2" x1="3.2" y1="434.85" x2="109.76" y2="499.6" gradientTransform="translate(-107.91 -204.68) rotate(-16.11)" xlink:href="#linear-gradient"/>
    <linearGradient id="linear-gradient-3" x1="319.71" y1="541.2" x2="202.68" y2="574.07" gradientTransform="translate(53.05 -374.89) rotate(13.36)" xlink:href="#linear-gradient"/>
    <linearGradient id="linear-gradient-4" x1="83.53" y1="251.97" x2="220.32" y2="214.69" xlink:href="#linear-gradient"/>
    <linearGradient id="_ÂÁ_Ï_ÌÌ_È_ËÂÌÚ_29" data-name="¡ÂÁ˚ÏˇÌÌ˚È „‡‰ËÂÌÚ 29" x1="123.73" y1="254.27" x2="120.17" y2="219.96" gradientUnits="userSpaceOnUse">
      <stop offset="0" stop-color="#d6b01f"/>
      <stop offset=".42" stop-color="#e0bc26"/>
      <stop offset="1" stop-color="#f5d534"/>
    </linearGradient>
    <linearGradient id="linear-gradient-5" x1="115.21" y1="167.22" x2="124.55" y2="206.79" gradientUnits="userSpaceOnUse">
      <stop offset="0" stop-color="#dba379"/>
      <stop offset=".49" stop-color="#e3b086"/>
      <stop offset="1" stop-color="#f0c499"/>
    </linearGradient>
    <linearGradient id="_ÂÁ_Ï_ÌÌ_È_ËÂÌÚ_14" data-name="¡ÂÁ˚ÏˇÌÌ˚È „‡‰ËÂÌÚ 14" x1="129.67" y1="24.56" x2="129.57" y2="24.29" gradientTransform="translate(-12.27 1.11) rotate(-.19)" gradientUnits="userSpaceOnUse">
      <stop offset="0" stop-color="#cb8076"/>
      <stop offset=".31" stop-color="#b76f65"/>
      <stop offset=".95" stop-color="#86443a"/>
      <stop offset="1" stop-color="#824137"/>
    </linearGradient>
    <linearGradient id="_ÂÁ_Ï_ÌÌ_È_ËÂÌÚ_18" data-name="¡ÂÁ˚ÏˇÌÌ˚È „‡‰ËÂÌÚ 18" x1="53.95" y1="146.97" x2="52.59" y2="98.99" gradientUnits="userSpaceOnUse">
      <stop offset="0" stop-color="#dba379"/>
      <stop offset=".49" stop-color="#e3b086"/>
      <stop offset="1" stop-color="#f0c499"/>
    </linearGradient>
    <linearGradient id="linear-gradient-6" x1="-2951.04" y1="300.17" x2="-2949.4" y2="357.4" gradientTransform="translate(3005.69 -8.91) rotate(-.19)" xlink:href="#linear-gradient-5"/>
    <linearGradient id="_ÂÁ_Ï_ÌÌ_È_ËÂÌÚ_18-2" data-name="¡ÂÁ˚ÏˇÌÌ˚È „‡‰ËÂÌÚ 18" x1="183.53" y1="143.29" x2="182.17" y2="95.32" xlink:href="#_ÂÁ_Ï_ÌÌ_È_ËÂÌÚ_18"/>
    <linearGradient id="linear-gradient-7" x1="-2802.71" y1="300.39" x2="-2801.08" y2="357.62" gradientTransform="translate(-2622.66 9.45) rotate(179.81) scale(1 -1)" xlink:href="#linear-gradient-5"/>
    <linearGradient id="_ÂÁ_Ï_ÌÌ_È_ËÂÌÚ_384" data-name="¡ÂÁ˚ÏˇÌÌ˚È „‡‰ËÂÌÚ 384" x1="129.04" y1="41.86" x2="128.81" y2="196.84" gradientTransform="translate(-12.27 1.11) rotate(-.19)" gradientUnits="userSpaceOnUse">
      <stop offset="0" stop-color="#ffd9b3"/>
      <stop offset=".32" stop-color="#f9d5ad"/>
      <stop offset="1" stop-color="#f7d4ab"/>
    </linearGradient>
    <linearGradient id="linear-gradient-8" x1="100.64" y1="139.89" x2="93.54" y2="95.98" gradientTransform="translate(-12.27 1.11) rotate(-.19)" gradientUnits="userSpaceOnUse">
      <stop offset="0" stop-color="#f7d4ab"/>
      <stop offset=".52" stop-color="#f5d1a8"/>
      <stop offset=".85" stop-color="#f2c99f"/>
      <stop offset="1" stop-color="#f0c499"/>
    </linearGradient>
    <radialGradient id="_ÂÁ_Ï_ÌÌ_È_ËÂÌÚ_2" data-name="¡ÂÁ˚ÏˇÌÌ˚È „‡‰ËÂÌÚ 2" cx="47.45" cy="145.38" fx="47.45" fy="145.38" r="29.46" gradientTransform="translate(42.08 1.05) rotate(-.19) scale(.79 1)" gradientUnits="userSpaceOnUse">
      <stop offset="0" stop-color="#f9b38e"/>
      <stop offset=".61" stop-color="#f7c59e"/>
      <stop offset="1" stop-color="#f7d4ab"/>
    </radialGradient>
    <linearGradient id="linear-gradient-9" x1="114.43" y1="175.68" x2="140.52" y2="175.68" gradientTransform="translate(-12.27 1.11) rotate(-.19)" gradientUnits="userSpaceOnUse">
      <stop offset="0" stop-color="#ffd9b3"/>
      <stop offset=".68" stop-color="#fcd7b0"/>
      <stop offset="1" stop-color="#f7d4ab"/>
    </linearGradient>
    <linearGradient id="_ÂÁ_Ï_ÌÌ_È_ËÂÌÚ_18-3" data-name="¡ÂÁ˚ÏˇÌÌ˚È „‡‰ËÂÌÚ 18" x1="175.76" y1="54.09" x2="87.58" y2="126.2" gradientTransform="translate(-12.27 1.11) rotate(-.19)" xlink:href="#_ÂÁ_Ï_ÌÌ_È_ËÂÌÚ_18"/>
    <linearGradient id="_ÂÁ_Ï_ÌÌ_È_ËÂÌÚ_72" data-name="¡ÂÁ˚ÏˇÌÌ˚È „‡‰ËÂÌÚ 72" x1="78.29" y1="164.78" x2="73.81" y2="89.32" gradientTransform="translate(-12.27 1.11) rotate(-.19)" gradientUnits="userSpaceOnUse">
      <stop offset="0" stop-color="#f9b38e"/>
      <stop offset=".5" stop-color="#f7b690"/>
      <stop offset=".9" stop-color="#f2c096"/>
      <stop offset="1" stop-color="#f0c499"/>
    </linearGradient>
    <linearGradient id="linear-gradient-10" x1="162.97" y1="133.31" x2="156.1" y2="95.25" xlink:href="#linear-gradient-8"/>
    <linearGradient id="_ÂÁ_Ï_ÌÌ_È_ËÂÌÚ_18-4" data-name="¡ÂÁ˚ÏˇÌÌ˚È „‡‰ËÂÌÚ 18" x1="67.22" y1="144.46" x2="98.63" y2="144.46" gradientTransform="translate(-12.27 1.11) rotate(-.19)" xlink:href="#_ÂÁ_Ï_ÌÌ_È_ËÂÌÚ_18"/>
    <linearGradient id="linear-gradient-11" x1="151.61" y1="98.91" x2="184.17" y2="98.91" xlink:href="#linear-gradient-9"/>
    <radialGradient id="radial-gradient" cx="329.23" cy="141.81" fx="329.23" fy="141.81" r="32.04" gradientTransform="translate(417.33 -.76) rotate(179.81) scale(.79 -1)" gradientUnits="userSpaceOnUse">
      <stop offset="0" stop-color="#f9b38e"/>
      <stop offset=".61" stop-color="#f7c59e"/>
      <stop offset="1" stop-color="#f7d4ab"/>
    </radialGradient>
    <linearGradient id="_ÂÁ_Ï_ÌÌ_È_ËÂÌÚ_72-2" data-name="¡ÂÁ˚ÏˇÌÌ˚È „‡‰ËÂÌÚ 72" x1="-1897.18" y1="161.32" x2="-1901.34" y2="91.31" gradientTransform="translate(-1729.7 6.48) rotate(179.81) scale(1 -1)" xlink:href="#_ÂÁ_Ï_ÌÌ_È_ËÂÌÚ_72"/>
    <linearGradient id="linear-gradient-12" x1="130.53" y1="157.57" x2="128.33" y2="146.61" xlink:href="#linear-gradient-8"/>
    <linearGradient id="linear-gradient-13" x1="128.8" y1="145.74" x2="128.74" y2="154.35" gradientTransform="translate(-12.27 1.11) rotate(-.19)" xlink:href="#linear-gradient-5"/>
    <linearGradient id="_ÂÁ_Ï_ÌÌ_È_ËÂÌÚ_23" data-name="¡ÂÁ˚ÏˇÌÌ˚È „‡‰ËÂÌÚ 23" x1="128.28" y1="134.03" x2="128.4" y2="142.86" gradientTransform="translate(-12.27 1.11) rotate(-.19)" gradientUnits="userSpaceOnUse">
      <stop offset="0" stop-color="#f7d4ab"/>
      <stop offset="1" stop-color="#ffd9b3"/>
    </linearGradient>
    <linearGradient id="_ÂÁ_Ï_ÌÌ_È_ËÂÌÚ_23-2" data-name="¡ÂÁ˚ÏˇÌÌ˚È „‡‰ËÂÌÚ 23" x1="160.86" y1="144.42" x2="192.29" y2="144.42" xlink:href="#_ÂÁ_Ï_ÌÌ_È_ËÂÌÚ_23"/>
    <linearGradient id="_ÂÁ_Ï_ÌÌ_È_ËÂÌÚ_18-5" data-name="¡ÂÁ˚ÏˇÌÌ˚È „‡‰ËÂÌÚ 18" x1="130.27" y1="180.55" x2="128.23" y2="210.2" gradientTransform="translate(-12.27 1.11) rotate(-.19)" xlink:href="#_ÂÁ_Ï_ÌÌ_È_ËÂÌÚ_18"/>
    <linearGradient id="_ÂÁ_Ï_ÌÌ_È_ËÂÌÚ_11" data-name="¡ÂÁ˚ÏˇÌÌ˚È „‡‰ËÂÌÚ 11" x1="-2065.95" y1="518.75" x2="-2019.79" y2="517.66" gradientTransform="translate(-1756.36 -811.61) rotate(-168.85) scale(1 -1)" gradientUnits="userSpaceOnUse">
      <stop offset="0" stop-color="#3b2621"/>
      <stop offset=".41" stop-color="#3c2722"/>
      <stop offset=".56" stop-color="#432c25"/>
      <stop offset=".66" stop-color="#4f362c"/>
      <stop offset=".75" stop-color="#604335"/>
      <stop offset=".82" stop-color="#765441"/>
      <stop offset=".88" stop-color="#916950"/>
      <stop offset=".94" stop-color="#b18262"/>
      <stop offset=".99" stop-color="#d69f76"/>
      <stop offset="1" stop-color="#dba379"/>
    </linearGradient>
    <linearGradient id="_ÂÁ_Ï_ÌÌ_È_ËÂÌÚ_11-2" data-name="¡ÂÁ˚ÏˇÌÌ˚È „‡‰ËÂÌÚ 11" x1="-6521" y1="-359.01" x2="-6474.84" y2="-360.09" gradientTransform="translate(6530.17 -811.61) rotate(-11.15)" xlink:href="#_ÂÁ_Ï_ÌÌ_È_ËÂÌÚ_11"/>
    <linearGradient id="_ÂÁ_Ï_ÌÌ_È_ËÂÌÚ_126" data-name="¡ÂÁ˚ÏˇÌÌ˚È „‡‰ËÂÌÚ 126" x1="-1044.75" y1="391.65" x2="-1043.97" y2="391.65" gradientTransform="translate(13386.48 5265.05) rotate(.53) scale(12.79 -12.79)" gradientUnits="userSpaceOnUse">
      <stop offset="0" stop-color="#ffd9b3"/>
      <stop offset=".52" stop-color="#fccfa9"/>
      <stop offset="1" stop-color="#f8c39c"/>
    </linearGradient>
    <linearGradient id="_ÂÁ_Ï_ÌÌ_È_ËÂÌÚ_126-2" data-name="¡ÂÁ˚ÏˇÌÌ˚È „‡‰ËÂÌÚ 126" x1="-1169.18" y1="390.04" x2="-1168.4" y2="390.04" gradientTransform="translate(-14710.22 5357.7) rotate(179.09) scale(12.79)" xlink:href="#_ÂÁ_Ï_ÌÌ_È_ËÂÌÚ_126"/>
    <linearGradient id="_ÂÁ_Ï_ÌÌ_È_ËÂÌÚ_8-4" data-name="¡ÂÁ˚ÏˇÌÌ˚È „‡‰ËÂÌÚ 8" x1="127.03" y1="128.07" x2="213.72" y2="235.14" gradientTransform="translate(-12.27 1.11) rotate(-.19)" xlink:href="#_ÂÁ_Ï_ÌÌ_È_ËÂÌÚ_8"/>
    <linearGradient id="_ÂÁ_Ï_ÌÌ_È_ËÂÌÚ_8-5" data-name="¡ÂÁ˚ÏˇÌÌ˚È „‡‰ËÂÌÚ 8" x1="225.3" y1="266.41" x2="214.67" y2="229.45" gradientTransform="translate(-12.27 1.11) rotate(-.19)" xlink:href="#_ÂÁ_Ï_ÌÌ_È_ËÂÌÚ_8"/>
    <linearGradient id="_ÂÁ_Ï_ÌÌ_È_ËÂÌÚ_8-6" data-name="¡ÂÁ˚ÏˇÌÌ˚È „‡‰ËÂÌÚ 8" x1="-1597.03" y1="263.48" x2="-1607.66" y2="226.52" gradientTransform="translate(-1573.37 5.96) rotate(179.81) scale(1 -1)" xlink:href="#_ÂÁ_Ï_ÌÌ_È_ËÂÌÚ_8"/>
    <linearGradient id="_ÂÁ_Ï_ÌÌ_È_ËÂÌÚ_8-7" data-name="¡ÂÁ˚ÏˇÌÌ˚È „‡‰ËÂÌÚ 8" x1="86.84" y1="147.83" x2="78.11" y2="230.8" gradientTransform="translate(-12.27 1.11) rotate(-.19)" xlink:href="#_ÂÁ_Ï_ÌÌ_È_ËÂÌÚ_8"/>
    <linearGradient id="_ÂÁ_Ï_ÌÌ_È_ËÂÌÚ_46" data-name="¡ÂÁ˚ÏˇÌÌ˚È „‡‰ËÂÌÚ 46" x1="193.83" y1="259.45" x2="177.4" y2="122.74" gradientTransform="translate(-12.27 1.11) rotate(-.19)" gradientUnits="userSpaceOnUse">
      <stop offset="0" stop-color="#593a33"/>
      <stop offset=".29" stop-color="#482e29"/>
      <stop offset=".61" stop-color="#3e2822"/>
      <stop offset="1" stop-color="#3b2621"/>
    </linearGradient>
    <linearGradient id="_ÂÁ_Ï_ÌÌ_È_ËÂÌÚ_8-8" data-name="¡ÂÁ˚ÏˇÌÌ˚È „‡‰ËÂÌÚ 8" x1="179.7" y1="168.85" x2="161.61" y2="18.36" gradientTransform="translate(-12.27 1.11) rotate(-.19)" xlink:href="#_ÂÁ_Ï_ÌÌ_È_ËÂÌÚ_8"/>
    <linearGradient id="_ÂÁ_Ï_ÌÌ_È_ËÂÌÚ_8-9" data-name="¡ÂÁ˚ÏˇÌÌ˚È „‡‰ËÂÌÚ 8" x1="92.73" y1="166.47" x2="75.89" y2="26.38" gradientTransform="translate(-12.27 1.11) rotate(-.19)" xlink:href="#_ÂÁ_Ï_ÌÌ_È_ËÂÌÚ_8"/>
    <linearGradient id="_ÂÁ_Ï_ÌÌ_È_ËÂÌÚ_55" data-name="¡ÂÁ˚ÏˇÌÌ˚È „‡‰ËÂÌÚ 55" x1="58.06" y1="253.68" x2="56.34" y2="102.76" gradientTransform="translate(-12.27 1.11) rotate(-.19)" gradientUnits="userSpaceOnUse">
      <stop offset="0" stop-color="#593a33"/>
      <stop offset=".19" stop-color="#52352f"/>
      <stop offset="1" stop-color="#3b2621"/>
    </linearGradient>
    <linearGradient id="linear-gradient-14" x1="162.47" y1="243.67" x2="175.86" y2="46.72" gradientTransform="translate(-12.27 1.11) rotate(-.19)" gradientUnits="userSpaceOnUse">
      <stop offset="0" stop-color="#593a33"/>
      <stop offset=".4" stop-color="#5d3d36"/>
      <stop offset=".85" stop-color="#6a4741"/>
      <stop offset="1" stop-color="#714c46"/>
    </linearGradient>
    <linearGradient id="_ÂÁ_Ï_ÌÌ_È_ËÂÌÚ_8-10" data-name="¡ÂÁ˚ÏˇÌÌ˚È „‡‰ËÂÌÚ 8" x1="106.01" y1="209.78" x2="87.7" y2="75.08" gradientTransform="translate(-12.27 1.11) rotate(-.19)" xlink:href="#_ÂÁ_Ï_ÌÌ_È_ËÂÌÚ_8"/>
    <linearGradient id="_ÂÁ_Ï_ÌÌ_È_ËÂÌÚ_8-11" data-name="¡ÂÁ˚ÏˇÌÌ˚È „‡‰ËÂÌÚ 8" x1="184.41" y1="198.53" x2="166.1" y2="63.84" gradientTransform="translate(-12.27 1.11) rotate(-.19)" xlink:href="#_ÂÁ_Ï_ÌÌ_È_ËÂÌÚ_8"/>
    <linearGradient id="_ÂÁ_Ï_ÌÌ_È_ËÂÌÚ_10" data-name="¡ÂÁ˚ÏˇÌÌ˚È „‡‰ËÂÌÚ 10" x1="64.76" y1="304.45" x2="37.13" y2="177.36" gradientTransform="translate(-12.27 1.11) rotate(-.19)" gradientUnits="userSpaceOnUse">
      <stop offset="0" stop-color="#3b2621"/>
      <stop offset=".77" stop-color="#51342e"/>
      <stop offset="1" stop-color="#593a33"/>
    </linearGradient>
    <linearGradient id="linear-gradient-15" x1="72.45" y1="122.83" x2="71.07" y2="233.69" xlink:href="#linear-gradient-14"/>
    <linearGradient id="linear-gradient-16" x1="170.8" y1="256.07" x2="176" y2="179.47" xlink:href="#linear-gradient-14"/>
    <linearGradient id="linear-gradient-17" x1="166.31" y1="234.73" x2="170.8" y2="168.69" xlink:href="#linear-gradient-14"/>
    <linearGradient id="linear-gradient-18" x1="88.24" y1="247.08" x2="93.26" y2="173.12" xlink:href="#linear-gradient-14"/>
    <linearGradient id="linear-gradient-19" x1="55.47" y1="252.18" x2="58.26" y2="211.15" xlink:href="#linear-gradient-14"/>
    <linearGradient id="linear-gradient-20" x1="185.74" y1="254.15" x2="188.3" y2="216.46" xlink:href="#linear-gradient-14"/>
    <linearGradient id="linear-gradient-21" x1="131.04" y1="43.95" x2="124.89" y2="5.58" xlink:href="#linear-gradient-14"/>
    <linearGradient id="_ÂÁ_Ï_ÌÌ_È_ËÂÌÚ_8-12" data-name="¡ÂÁ˚ÏˇÌÌ˚È „‡‰ËÂÌÚ 8" x1="148.4" y1="69.49" x2="158.6" y2="48.18" gradientTransform="translate(-12.27 1.11) rotate(-.19)" xlink:href="#_ÂÁ_Ï_ÌÌ_È_ËÂÌÚ_8"/>
    <linearGradient id="_ÂÁ_Ï_ÌÌ_È_ËÂÌÚ_8-13" data-name="¡ÂÁ˚ÏˇÌÌ˚È „‡‰ËÂÌÚ 8" x1="93.6" y1="81.12" x2="112.89" y2="40.82" gradientTransform="translate(-12.27 1.11) rotate(-.19)" xlink:href="#_ÂÁ_Ï_ÌÌ_È_ËÂÌÚ_8"/>
    <linearGradient id="_ÂÁ_Ï_ÌÌ_È_ËÂÌÚ_8-14" data-name="¡ÂÁ˚ÏˇÌÌ˚È „‡‰ËÂÌÚ 8" x1="202.15" y1="109.52" x2="141.37" y2="9.36" gradientTransform="translate(-12.27 1.11) rotate(-.19)" xlink:href="#_ÂÁ_Ï_ÌÌ_È_ËÂÌÚ_8"/>
    <linearGradient id="_ÂÁ_Ï_ÌÌ_È_ËÂÌÚ_8-15" data-name="¡ÂÁ˚ÏˇÌÌ˚È „‡‰ËÂÌÚ 8" x1="99.78" y1="79.66" x2="73.59" y2="36.49" gradientTransform="translate(-12.27 1.11) rotate(-.19)" xlink:href="#_ÂÁ_Ï_ÌÌ_È_ËÂÌÚ_8"/>
    <linearGradient id="_ÂÁ_Ï_ÌÌ_È_ËÂÌÚ_8-16" data-name="¡ÂÁ˚ÏˇÌÌ˚È „‡‰ËÂÌÚ 8" x1="213.88" y1="167.97" x2="196.96" y2="53.3" gradientTransform="translate(-12.27 1.11) rotate(-.19)" xlink:href="#_ÂÁ_Ï_ÌÌ_È_ËÂÌÚ_8"/>
    <linearGradient id="_ÂÁ_Ï_ÌÌ_È_ËÂÌÚ_8-17" data-name="¡ÂÁ˚ÏˇÌÌ˚È „‡‰ËÂÌÚ 8" x1="57.61" y1="147.66" x2="46.28" y2="70.89" gradientTransform="translate(-12.27 1.11) rotate(-.19)" xlink:href="#_ÂÁ_Ï_ÌÌ_È_ËÂÌÚ_8"/>
    <linearGradient id="_ÂÁ_Ï_ÌÌ_È_ËÂÌÚ_7" data-name="¡ÂÁ˚ÏˇÌÌ˚È „‡‰ËÂÌÚ 7" x1="231.61" y1="266.56" x2="201.57" y2="128.07" gradientTransform="translate(-12.27 1.11) rotate(-.19)" gradientUnits="userSpaceOnUse">
      <stop offset="0" stop-color="#3b2621"/>
      <stop offset=".38" stop-color="#472e28"/>
      <stop offset="1" stop-color="#593a33"/>
    </linearGradient>
    <linearGradient id="linear-gradient-22" x1="70.65" y1="190.65" x2="80.87" y2="40.19" xlink:href="#linear-gradient-14"/>
    <linearGradient id="_ÂÁ_Ï_ÌÌ_È_ËÂÌÚ_46-2" data-name="¡ÂÁ˚ÏˇÌÌ˚È „‡‰ËÂÌÚ 46" x1="99.61" y1="241.77" x2="56.89" y2="171.38" xlink:href="#_ÂÁ_Ï_ÌÌ_È_ËÂÌÚ_46"/>
    <linearGradient id="_ÂÁ_Ï_ÌÌ_È_ËÂÌÚ_45" data-name="¡ÂÁ˚ÏˇÌÌ˚È „‡‰ËÂÌÚ 45" x1="101.98" y1="157.7" x2="134.32" y2="157.7" gradientUnits="userSpaceOnUse">
      <stop offset="0" stop-color="#f8d4ac"/>
      <stop offset=".52" stop-color="#ffd9b3"/>
      <stop offset="1" stop-color="#f7d4ab"/>
    </linearGradient>
    <linearGradient id="linear-gradient-23" x1="129.32" y1="163.77" x2="143.4" y2="163.77" xlink:href="#linear-gradient-5"/>
    <linearGradient id="_ÂÁ_Ï_ÌÌ_È_ËÂÌÚ_17" data-name="¡ÂÁ˚ÏˇÌÌ˚È „‡‰ËÂÌÚ 17" x1="92.31" y1="163.41" x2="103.92" y2="163.41" gradientUnits="userSpaceOnUse">
      <stop offset="0" stop-color="#f0c499"/>
      <stop offset=".51" stop-color="#e3b086"/>
      <stop offset="1" stop-color="#dba379"/>
    </linearGradient>
    <linearGradient id="linear-gradient-24" x1="117.65" y1="157.4" x2="117.86" y2="173.82" xlink:href="#linear-gradient-5"/>
    <linearGradient id="linear-gradient-25" x1="101.09" y1="164.59" x2="130.3" y2="164.16" gradientUnits="userSpaceOnUse">
      <stop offset="0" stop-color="#f96e7e"/>
      <stop offset=".03" stop-color="#f9707f"/>
      <stop offset=".25" stop-color="#fd7985"/>
      <stop offset=".53" stop-color="#ff7d88"/>
      <stop offset=".76" stop-color="#fd7985"/>
      <stop offset="1" stop-color="#f86d7d"/>
      <stop offset="1" stop-color="#f86d7d"/>
    </linearGradient>
    <linearGradient id="linear-gradient-26" x1="106.63" y1="158.52" x2="128.36" y2="158.34" xlink:href="#linear-gradient-25"/>
    <linearGradient id="_ÂÁ_Ï_ÌÌ_È_ËÂÌÚ_18-6" data-name="¡ÂÁ˚ÏˇÌÌ˚È „‡‰ËÂÌÚ 18" x1="-1212.66" y1="417.36" x2="-1211.8" y2="417.36" gradientTransform="translate(-47946.21 -6264.47) rotate(168.56) scale(37.84 -37.84)" xlink:href="#_ÂÁ_Ï_ÌÌ_È_ËÂÌÚ_18"/>
    <linearGradient id="_ÂÁ_Ï_ÌÌ_È_ËÂÌÚ_1655" data-name="¡ÂÁ˚ÏˇÌÌ˚È „‡‰ËÂÌÚ 1655" x1="-1115.92" y1="367.64" x2="-1115.08" y2="367.64" gradientTransform="translate(49190.74 14261.46) rotate(-2.16) scale(43.46 -43.46)" gradientUnits="userSpaceOnUse">
      <stop offset="0" stop-color="#4d322e"/>
      <stop offset=".06" stop-color="#4a302c"/>
      <stop offset=".55" stop-color="#3d2622"/>
      <stop offset="1" stop-color="#39231f"/>
    </linearGradient>
    <linearGradient id="_ÂÁ_Ï_ÌÌ_È_ËÂÌÚ_18-7" data-name="¡ÂÁ˚ÏˇÌÌ˚È „‡‰ËÂÌÚ 18" x1="144.08" y1="59.24" x2="143.11" y2="80.02" gradientTransform="translate(6.4 46.92) rotate(3.26)" xlink:href="#_ÂÁ_Ï_ÌÌ_È_ËÂÌÚ_18"/>
    <linearGradient id="_ÂÁ_Ï_ÌÌ_È_ËÂÌÚ_18-8" data-name="¡ÂÁ˚ÏˇÌÌ˚È „‡‰ËÂÌÚ 18" x1="-1163.69" y1="408.01" x2="-1162.83" y2="408.01" gradientTransform="translate(46181.01 -7056.86) rotate(10.48) scale(37.84)" xlink:href="#_ÂÁ_Ï_ÌÌ_È_ËÂÌÚ_18"/>
    <linearGradient id="_ÂÁ_Ï_ÌÌ_È_ËÂÌÚ_1655-2" data-name="¡ÂÁ˚ÏˇÌÌ˚È „‡‰ËÂÌÚ 1655" x1="-1159.33" y1="368.79" x2="-1158.5" y2="368.79" gradientTransform="translate(-50599.71 15090.2) rotate(-178.8) scale(43.46)" xlink:href="#_ÂÁ_Ï_ÌÌ_È_ËÂÌÚ_1655"/>
    <linearGradient id="_ÂÁ_Ï_ÌÌ_È_ËÂÌÚ_18-9" data-name="¡ÂÁ˚ÏˇÌÌ˚È „‡‰ËÂÌÚ 18" x1="-1738.77" y1="186.53" x2="-1739.73" y2="207.3" gradientTransform="translate(-1659.64 56) rotate(175.78) scale(1 -1)" xlink:href="#_ÂÁ_Ï_ÌÌ_È_ËÂÌÚ_18"/>
  </defs>
  <g id="Layer_1-2" data-name="Layer 1">
    <g style="clip-path: url(#clippath);">
      <g>
        <g>
          <path d="M208.71,205.2s13,26.47-.73,54.78l.73-54.78Z" style="fill: url(#_ÂÁ_Ï_ÌÌ_È_ËÂÌÚ_8);"/>
          <path d="M22.46,205.79s-14.56,25.65-2.54,54.72l2.54-54.72Z" style="fill: url(#_ÂÁ_Ï_ÌÌ_È_ËÂÌÚ_8-2);"/>
          <path d="M117.53,25.79s43.95-1.37,58.52,34.18c14.57,35.55,15.98,93.32,18.02,109.39,2.04,16.07-8.03,65.75-8.03,65.75l-140.2,3.43s-5.39-114.05-1.2-135.72c4.19-21.67,72.9-77.03,72.9-77.03Z" style="fill: url(#_ÂÁ_Ï_ÌÌ_È_ËÂÌÚ_8-3);"/>
        </g>
        <path d="M145.43,152.92s2.56,63.85,8.5,68.3c7.53,5.65,81.88,22.12,86.62,27.53,11.81,13.47,13.3,6.94,16.27,35.16,2.97,28.22-263.41,3.66-263.41,3.66,0,0,7.04-38.03,14.97-41.9,23.11-11.3,63.27-17.65,73.9-21.53,14.89-5.44,12.65-62.3,12.65-62.3l50.5-8.91Z" style="fill: #f7d4ab;"/>
        <path d="M153.98,219.4c-4.02-3.82-4.56-48.38-4.56-48.38,0,0-58.57,3.22-59.48,2.19.05,4.12.4,33.65,0,36.78-.47,3.57.16,14.26-40.03,22.88,0,0,13.7-.69,38.97-6.27,4.53-1,10.31-6.84,10.31-11.04,0,0,26.92,1.67,40.53-11.43,1.41,10.37,2.72,33.74,6.05,35.9s33.21,5.48,33.21,5.48l3.95-14c-8.56-2.07-24.92-8.29-28.94-12.11Z" style="fill: url(#linear-gradient);"/>
        <path d="M110.62,230.01s-5-6.58-9.27-6.42c-4.27.16-42.52,10.34-47.98,10.83,0,0,14.58-.31,26.31-2.26,11.72-1.96,20.05-6.5,30.94-2.15Z" style="fill: url(#linear-gradient-2);"/>
        <path d="M126.43,228.68s4.16-5.09,9.52-5.58c5.37-.49,42.82,8.92,49.5,11.21,0,0-47.98-9.31-59.02-5.63Z" style="fill: url(#linear-gradient-3);"/>
        <path d="M61.99,229.98s-2.95,43.89,53.2,41.12c56.15-2.77,63.75-41.35,63.75-41.35l-18.75-6.53s-4.16,7.7-34.44,7.78c-44.03.13-44.72-8.73-44.72-8.73l-19.04,7.71Z" style="fill: url(#linear-gradient-4);"/>
        <path d="M224.41,339.39c.73-17.64,33.06-81.23,20.35-91.09-4.13-3.21-17.19-9.09-31.56-13.03-19.94-5.48-41.44-10.22-41.44-10.22,0,0-10.08,14.16-52.71,12.66-49.01-1.73-49.17-12.66-49.17-12.66l-39.03,11.45-25.46,9.01c0,1.71,12.06,75.13,16.98,104.95h200.71c.42-5.89.9-10.97,1.32-11.06Z" style="fill: #f5d534;"/>
        <path d="M69.89,225.05s-5.16,18.38,56.39,16.28c45.63-1.56,45.48-16.28,45.48-16.28l-6.84-2.21s-.82,11.87-39.78,12.74c-50.25,1.11-48.34-12.74-48.34-12.74l-6.91,2.21Z" style="fill: url(#_ÂÁ_Ï_ÌÌ_È_ËÂÌÚ_29);"/>
        <path d="M90.09,204.24s-.96-33.75-1.91-41.06l61.44,6.34.3,18.43s-20.39,28.56-59.83,16.29Z" style="fill: url(#linear-gradient-5);"/>
        <g>
          <path d="M117.48,25.06c-.11-.07-.16-.09-.16-.09.06.03.11.06.16.09Z" style="fill: url(#_ÂÁ_Ï_ÌÌ_È_ËÂÌÚ_14);"/>
          <g>
            <g>
              <path d="M58.47,113.35c2.72,20.19,5,35.55,5,35.55-8.64.03-11.83-8.62-15.23-16.24-5.2-11.65-8.28-24.14,3.46-24.85,2.29-.14,6.77,5.55,6.77,5.55Z" style="fill: url(#_ÂÁ_Ï_ÌÌ_È_ËÂÌÚ_18);"/>
              <path d="M55.81,142.13s-4.24-4.46-2.96-13.26c3.02-20.78-11.06-22.15-7.82-7.99,0,0,1.92-6.69,3.71-4.7,2.2,2.45-2.34,3.82.02,14.53,1.23,5.56,7.05,11.42,7.05,11.42Z" style="fill: url(#linear-gradient-6);"/>
            </g>
            <g>
              <path d="M178.16,112.95c-2.59,20.2-4.77,35.58-4.77,35.58,8.64-.03,11.78-8.7,15.12-16.34,5.12-11.68,8.12-24.2-3.62-24.83-2.29-.12-6.74,5.59-6.74,5.59Z" style="fill: url(#_ÂÁ_Ï_ÌÌ_È_ËÂÌÚ_18-2);"/>
              <path d="M179.82,141.72s4.21-4.49,2.87-13.28c-3.16-20.75,10.91-22.22,7.76-8.04,0,0-1.97-6.68-3.74-4.67-2.18,2.46,2.36,3.8.08,14.53-1.19,5.57-6.97,11.47-6.97,11.47Z" style="fill: url(#linear-gradient-7);"/>
            </g>
            <path d="M170.85,48.99c-7.58-17.17-19.22-27.8-45.37-29.37,0,0-59.71,7.99-67.17,25.22-8.13,18.76-5.7,45.07-3.3,62.28,2.4,17.21,7.18,45.1,11.5,52.99,4.32,7.89,26.1,26.28,30.8,29.78,4.39,3.27,11.69,8.78,20.89,8.78,9.66,0,24.12-12.05,28.38-15.41,4.6-3.63,18.57-16.39,22.83-24.31,4.27-7.92,8.94-35.02,11.23-52.24,2.28-17.22-1.51-39-9.77-57.71Z" style="fill: url(#_ÂÁ_Ï_ÌÌ_È_ËÂÌÚ_384);"/>
            <path d="M101.66,92.88c-7.56-4.07-34.14.05-38.47,3.31-10.09,7.6-2.6,28.86-2.6,28.86,0,0,19.83,21.41,53.35,8.1-2.73-14.05-6.32-37.08-12.27-40.28Z" style="fill: url(#linear-gradient-8);"/>
            <path d="M93.03,122.24c-7.71-2.28-35.79-8.45-34.33,1.45,3.22,21.9,4.36,29.25,8.19,36.06,4.01,7.13,15.78,18.34,20.85,19.18,7.84,1.31,16.06-27.58,16.21-37.46.22-13.84-3.21-16.95-10.92-19.23Z" style="fill: url(#_ÂÁ_Ï_ÌÌ_È_ËÂÌÚ_2);"/>
            <path d="M118.85,172.4c-5.5.28-9.91,2.27-9.87,4.45.04,2.18,4.51,3.74,9.99,3.46,5.48-.28,9.89-2.26,9.86-4.45-.04-2.18-4.52-3.73-9.99-3.45Z" style="fill: url(#linear-gradient-9);"/>
            <path d="M172.59,134.94s6.44-19.86,7.13-23.39c4.03-20.51,8.16-91.35-67.48-86.44-77.79,5.05-52.38,109.17-52.38,109.17,0,0,23.82-91.47,56.98-92.4,0,0,39.59,1.25,55.75,93.07Z" style="fill: url(#_ÂÁ_Ï_ÌÌ_È_ËÂÌÚ_18-3);"/>
            <polygon points="59.86 134.28 66.5 160.11 65.89 79.21 57.84 87.45 59.86 134.28" style="fill: url(#_ÂÁ_Ï_ÌÌ_È_ËÂÌÚ_72);"/>
            <path d="M169.14,98.1c-4.38-3.12-29.31-7.76-37.52-5.22-6.91,2.14-7.26,24.93-9.77,39.18,33.7,12.11,53.21-10.21,53.21-10.21,0,0,4.28-16.49-5.92-23.75Z" style="fill: url(#linear-gradient-10);"/>
            <path d="M55.31,109.3s5.63,39.84,10.77,50.91c1.67,3.6,11.5,12.99,20.87,21.09,0,0-17.01-20.05-18.84-25.07-4.01-11.01-12.8-46.92-12.8-46.92Z" style="fill: url(#_ÂÁ_Ï_ÌÌ_È_ËÂÌÚ_18-4);"/>
            <path d="M139.65,93.38s17.31-2.96,29.49,4.72l2.99,6.65c.8,4.75-1.58-4.16-32.48-11.37Z" style="fill: url(#linear-gradient-11);"/>
            <path d="M142.7,114.38c7.69-2.33,37.51-8.7,36.12,1.21-3.07,21.92-5.89,36.99-9.67,43.83-3.96,7.16-15.66,18.44-20.72,19.32-7.83,1.36-16.24-27.47-16.46-37.36-.31-13.84,3.05-24.67,10.74-27Z" style="fill: url(#radial-gradient);"/>
            <polygon points="174.7 137.24 168.77 156.46 167.18 81.31 177.08 86.32 174.7 137.24" style="fill: url(#_ÂÁ_Ï_ÌÌ_È_ËÂÌÚ_72-2);"/>
            <g>
              <polygon points="105.54 149.28 117.31 157.31 128.3 148.97 126.73 147.65 116.68 147.82 106.66 147.85 105.54 149.28" style="fill: url(#linear-gradient-12);"/>
              <path d="M105.89,149.07s4.44-1.4,8.35.24l4.78-.02s4.73-1.84,9.28-.32l.19-2.16-3.81-.76-8.01,2.05-7.33-1.99-3.82.46.36,2.51Z" style="fill: url(#linear-gradient-13);"/>
              <path d="M104.33,139.77s-2.06,1.16-2.36,4.31c-.34,3.6,3.39,5.55,3.96,5.18.57-.37-.49-3.09,2.95-2.62,3.44.47,3.27,2.2,3.83,2.79s6.61.71,7.63.07c1.02-.64.73-3,3.98-2.91,3.25.09,3.35,2.31,3.82,2.6.47.28,2.39-1.45,2.93-4.76s-2.94-4.73-2.94-4.73c0,0,1.77,2.93,1.03,4.8-.74,1.88-5.75.28-7.79,1.56-3.76,2.38-6.05,1.8-9.81.03-2.47-1.16-5.92.32-7.31-1.71-.48-.7-.61-3.21.08-4.62Z" style="fill: #f0c499;"/>
              <path d="M108.9,138.12c-.06,2.3.22,3.27,1.2,4.77,1.5,2.28,12,4.11,13.78-1.14.35-1.05.34-2.68.14-4.74-.22-2.35-15.07-1.18-15.12,1.11Z" style="fill: url(#_ÂÁ_Ï_ÌÌ_È_ËÂÌÚ_23);"/>
            </g>
            <path d="M180.38,108.88s-5.37,39.88-10.44,50.98c-1.65,3.61-10.34,12.13-20.76,21.13,0,0,15.25-17.69,18.29-25.76,4.13-10.96,12.9-46.35,12.9-46.35Z" style="fill: url(#_ÂÁ_Ï_ÌÌ_È_ËÂÌÚ_23-2);"/>
            <path d="M86.96,181.29s14.59,9.13,16.2,10.03c3.21,1.8,6.5,2.97,14.81,3.22,8.1.24,13.04-1.96,15.31-3.49,2.39-1.61,15.88-9.87,17.03-10.98,0,0-10.99,9.4-14.67,12.46-6.01,4.99-13.09,6.45-17.52,6.47-5.58.02-10.17-2.21-14.96-4.89-5.22-2.92-16.21-12.8-16.21-12.8Z" style="fill: url(#_ÂÁ_Ï_ÌÌ_È_ËÂÌÚ_18-5);"/>
            <path d="M134.72,85.65c-1.07.88-2.23,4.11-1.89,5.98.54-2.85,2.34-5.78,4.36-6.09.18,0,.39-.01.6-.01-1.5.93-2.59,2.54-2.85,4.69.89-1.46,2.56-4.02,4.67-4.6,5.77.25,14.41,2.94,18.06,4.41,5.19,2.08,12.7,8.37,12.7,8.37,0,0-9.05-2.14-13.94-3.45-3.15-.83-20.57-1.79-24.82-2.07-.56-.04-.6-5.74,3.1-7.23Z" style="fill: url(#_ÂÁ_Ï_ÌÌ_È_ËÂÌÚ_11);"/>
            <path d="M98.56,85.65c1.07.88,2.23,4.11,1.89,5.98-.54-2.85-2.34-5.78-4.36-6.09-.18,0-.39-.01-.6-.01,1.5.93,2.59,2.54,2.85,4.69-.89-1.46-2.56-4.02-4.67-4.6-5.77.25-14.41,2.94-18.06,4.41-5.19,2.08-12.7,8.37-12.7,8.37,0,0,9.05-2.14,13.94-3.45,3.15-.83,20.57-1.79,24.82-2.07.56-.04.6-5.74-3.1-7.23Z" style="fill: url(#_ÂÁ_Ï_ÌÌ_È_ËÂÌÚ_11-2);"/>
            <path d="M74.67,127.54c-2.73-.59-5.18.25-5.47,1.89-.3,1.65,1.68,3.46,4.4,4.06,2.73.59,5.18-.25,5.48-1.89.29-1.65-1.68-3.46-4.41-4.06Z" style="fill: url(#_ÂÁ_Ï_ÌÌ_È_ËÂÌÚ_126);"/>
            <path d="M159.07,127.26c2.72-.61,5.18.22,5.48,1.86.31,1.64-1.65,3.47-4.37,4.09-2.73.61-5.18-.22-5.49-1.85-.3-1.64,1.66-3.47,4.38-4.09Z" style="fill: url(#_ÂÁ_Ï_ÌÌ_È_ËÂÌÚ_126-2);"/>
          </g>
          <path d="M176.24,143.15s-12.46,37.48-18.03,49.89c-5.58,12.41-.12,54.39-.12,54.39,0,0,31-59.49,27.39-86.47-3.61-26.98-9.23-17.81-9.23-17.81Z" style="fill: url(#_ÂÁ_Ï_ÌÌ_È_ËÂÌÚ_8-4);"/>
          <path d="M200.81,223.72s4.11,16.72,14.49,25.54c0,0-12.76-2.4-15.78-9.9-3.02-7.49,1.29-15.64,1.29-15.64Z" style="fill: url(#_ÂÁ_Ï_ÌÌ_È_ËÂÌÚ_8-5);"/>
          <path d="M37.34,221.03s-4,16.75-14.32,25.63c0,0,12.74-2.49,15.71-10,2.97-7.51-1.39-15.63-1.39-15.63Z" style="fill: url(#_ÂÁ_Ï_ÌÌ_È_ËÂÌÚ_8-6);"/>
          <path d="M88.01,219.72c-2.09-25.72-13.81-44.52-19.54-51.91-9.38-12.12-10.32-39.61-10.32-39.61,0,0-5.54,44.5-7.77,60.44-3.44,24.6,7.28,57.91,18.46,65.14,7.29-12.84,8.15-27.62,5.57-45.95,9.89,19.49,2.14,38.03.17,49.91,7.5-8.42,14.33-27.07,13.44-38.03Z" style="fill: url(#_ÂÁ_Ï_ÌÌ_È_ËÂÌÚ_8-7);"/>
          <path d="M176.69,117.09c2.39,12.74,3.72,26.31,3.77,40.14.13,34.77-17.07,98.07-34.83,101.03,5.57-.77,20.67-1.97,32.57-18.91.78,6.21-6.52,10.77-12.09,15.49,11.27-6.1,16.54-11.51,16.54-11.51-2.81,5.12-4.62,9.18-13.89,16.05,5.72-.93,22.77-11.97,30.75-22.87,4.92-11.5,9.57-22.73,12.14-35.89-2.03-19.52-8.03-38.07-18.54-56.6-5.48-8.71-11.62-17.42-16.43-26.94Z" style="fill: url(#_ÂÁ_Ï_ÌÌ_È_ËÂÌÚ_46);"/>
          <path d="M203.57,153.8c-.54-5.11-14.01-86.2-20.62-99.82C157.19.87,117.44,18.96,117.44,18.96l-2.99,20.62c29.55-5.63,53.35,30.17,62.24,77.52,4.81,9.51,10.95,18.22,16.43,26.94,10.5,18.53,12.51,25.42,10.45,9.77Z" style="fill: url(#_ÂÁ_Ï_ÌÌ_È_ËÂÌÚ_8-8);"/>
          <path d="M64.31,26.11c-19.21,16.95-24.65,36.28-26.87,49.36-1.31,7.74-8.11,55.8-11.56,88.71,8.06-17.22,17.7-22.2,30.11-35.94.55-.83,1.04-1.67,1.51-2.51,1.26-28.54,6.47-52.39,22.95-68.59,20.73-20.37,34-17.57,34-17.57l2.99-20.62c-10-8.02-41.59-3.02-53.12,7.15Z" style="fill: url(#_ÂÁ_Ï_ÌÌ_È_ËÂÌÚ_8-9);"/>
          <path d="M25.88,164.19c-13.14,27.42-7.65,55.83-.22,65.75,6.18,7.2,17.11,18.57,25.34,23.81-3.24-4.14-8.61-13.99-7.93-20.01,5.56,18.38,28.65,23.2,31.5,24.02-21.29-17.45-24.27-32.03-24.99-58.86-.51-18.75,7.21-56.89,7.93-73.15-.47.85-.96,1.69-1.51,2.51-12.4,13.74-22.05,18.72-30.11,35.94Z" style="fill: url(#_ÂÁ_Ï_ÌÌ_È_ËÂÌÚ_55);"/>
          <path d="M114.95,39.54s25.93-12.01,42.48,9c16.55,21,16.31,65.79,25.8,89.89,9.5,24.1,24.04,59.03,17.99,78.72-6.05,19.69-23.19,35.38-23.19,35.38,0,0,19.93-25.29,16.56-49.16-3.37-23.86-19.14-47.54-22.92-73.47-3.78-25.93-8.26-63.4-26.13-80.07s-30.58-10.29-30.58-10.29Z" style="fill: url(#linear-gradient-14);"/>
          <path d="M117.32,24.97s-38.22-6.54-53.64,27.23-29.74,73.84-29.74,73.84c0,0,20.65-76.42,23.76-83.39,4.53-10.16,28.93-38.57,59.62-17.68Z" style="fill: url(#_ÂÁ_Ï_ÌÌ_È_ËÂÌÚ_8-10);"/>
          <path d="M119.6,22.82s22.05-6.34,45.99,18.79c13.13,13.78,18.86,87.65,18.86,87.65,0,0,1.58-58.82-4.26-78.51-5.84-19.69-36.56-48.45-60.59-27.93Z" style="fill: url(#_ÂÁ_Ï_ÌÌ_È_ËÂÌÚ_8-11);"/>
          <path d="M49.39,142.65s-18.77,33-21,54.75c-2.23,21.75-10,40.76-21.04,43.05,0,0,14.73-2.98,21.14-11.46,6.42-8.48,11.29-66.49,20.9-86.34Z" style="fill: url(#_ÂÁ_Ï_ÌÌ_È_ËÂÌÚ_10);"/>
          <path d="M67.57,86.97s-9.84,28.54-15.15,63.94c-4.32,28.79-9.26,41.12-7.33,59.5,2.13,20.21,8.73,41.05,29.47,47.34,0,0-16.19-7.98-21.43-47.37-1.83-13.75,2.36-36.76,5.7-59.5,4.78-32.52,8.73-63.92,8.73-63.92Z" style="fill: url(#linear-gradient-15);"/>
          <path d="M176.24,177.22s7.36,75.15-30.62,81.05c0,0,23.44-9.81,30.62-81.05Z" style="fill: url(#linear-gradient-16);"/>
          <path d="M166.01,166.62s-7.33,15.36-13.51,28.23c-6.19,12.87.14,42.49.14,42.49,0,0-.67-21.2,4.53-34.19,5.2-12.99,8.84-36.53,8.84-36.53Z" style="fill: url(#linear-gradient-17);"/>
          <path d="M70.43,169.77s12.25,14.47,17.84,33.43c5.59,18.96-3.99,47.63-3.99,47.63,0,0,3.4-34.22-.17-50.04-3.57-15.82-13.69-31.03-13.69-31.03Z" style="fill: url(#linear-gradient-18);"/>
          <path d="M41.2,209.81s-2.95,30.11,12.17,45.25c0,0-28.66-8.05-12.17-45.25Z" style="fill: url(#linear-gradient-19);"/>
          <path d="M184.76,215.71s6.06,28.14-19.61,39.59c0,0,21.16-18.41,19.61-39.59Z" style="fill: url(#linear-gradient-20);"/>
          <path d="M117.45,24.35s17.27-8.34,48.65,4.73c0,0-20.39-22.56-46.15-14.15,0,0-26.93-15.8-54,9.89,0,0,7.77-6.18,21.28-7.86,11.26-1.4,28.45.87,30.23,7.4Z" style="fill: url(#linear-gradient-21);"/>
          <path d="M164.35,86.84s.26-25.31-12.88-37.72c-13.14-12.41-25.48-12.77-36.52-9.59,0,0,14.45-2.84,26.94,8.44,12.49,11.27,16.08,18.17,22.46,38.87Z" style="fill: url(#_ÂÁ_Ï_ÌÌ_È_ËÂÌÚ_8-12);"/>
          <path d="M114.95,39.54s-10.24-1.62-17.57.78c-14.2,4.65-21.12,20.78-24.8,43.84,0,0,4.17-26.34,23.85-37.73,10.62-6.15,18.53-6.9,18.53-6.9Z" style="fill: url(#_ÂÁ_Ï_ÌÌ_È_ËÂÌÚ_8-13);"/>
          <path d="M119.61,25.05s34.65-16.73,51.62,24.93c12.39,30.43,10.39,61.37,10.39,61.37,0,0-2.06-50.8-29.03-76.96-15.32-14.86-32.98-9.33-32.98-9.33Z" style="fill: url(#_ÂÁ_Ï_ÌÌ_È_ËÂÌÚ_8-14);"/>
          <path d="M117.32,24.97s-12.21-5.27-27.94.19c-12.26,4.26-21.97,15.93-27.41,29.33-3.56,8.78-11.9,32.83-21.13,52.97,0,0,20.17-27.27,27.26-50.34,5.13-16.71,24.39-36.08,49.21-32.15Z" style="fill: url(#_ÂÁ_Ï_ÌÌ_È_ËÂÌÚ_8-15);"/>
          <path d="M185.47,77.45s-1.56,48.98,23.65,101.95l-23.65-101.95Z" style="fill: url(#_ÂÁ_Ï_ÌÌ_È_ËÂÌÚ_8-16);"/>
          <path d="M57.83,84.21l-32.05,75.48s30.61-25.28,32.05-75.48Z" style="fill: url(#_ÂÁ_Ï_ÌÌ_È_ËÂÌÚ_8-17);"/>
          <path d="M187.57,130.29s15.65,22,22.84,42.78c7.89,22.79,5.7,40.89-8.71,62.09,0,0,8.84-25.29-.22-65.82-3.63-16.26-13.91-39.05-13.91-39.05Z" style="fill: url(#_ÂÁ_Ï_ÌÌ_È_ËÂÌÚ_7);"/>
          <path d="M114.95,39.54s-22.37-12.64-38.58,11.31c-13.57,20.05-13.86,53.23-34.22,83.52-8.44,12.55-28.93,33.17-29.31,59.16,0,0,2.39-12.75,23.02-36.59,20.63-23.84,32.44-52.5,37.81-78.25,7.51-36.01,25.39-41.34,41.28-39.16Z" style="fill: url(#linear-gradient-22);"/>
          <path d="M64.53,166.95s20.45,50.58,5.94,83.67c0,0-3.17-67.28-5.94-83.67Z" style="fill: url(#_ÂÁ_Ï_ÌÌ_È_ËÂÌÚ_46-2);"/>
          <g>
            <g>
              <path d="M101.98,161.3s8.3-6.16,10.87-6.77c2.57-.61,7.53-.55,8.99,0,1.45.55,12.47,6.77,12.47,6.77,0,0-14.65-3.43-17.52-3.44s-14.81,3.44-14.81,3.44Z" style="fill: url(#_ÂÁ_Ï_ÌÌ_È_ËÂÌÚ_45);"/>
              <g>
                <path d="M133.92,161.71c3.42,0,9.83,1.67,9.47,3.34-.37,1.67-9.88-2.59-14.06.76.84-.84,4.59-4.1,4.59-4.1Z" style="fill: url(#linear-gradient-23);"/>
                <path d="M102.02,161.64c-3.24.58-9.55,1.81-9.71,3.07-.16,1.26,8.16-.23,11.61-.71-.79-1.13-1.89-2.35-1.89-2.35Z" style="fill: url(#_ÂÁ_Ï_ÌÌ_È_ËÂÌÚ_17);"/>
                <path d="M103.64,164.83c3.67,3.34,7.21,5,14,5,7.14,0,12.51-3.18,14.19-5.69-2.51,0-8.16-.57-8.99-.56-2.78.09-5.88.18-8.77.27-1.44.04-10.43.98-10.43.98Z" style="fill: url(#linear-gradient-24);"/>
                <g>
                  <path d="M141.87,164.14c-.34.84-9.33-1.45-14.87-1.99-1.23.13-17.97.09-19.02.07-4.95.28-13.01,3.2-13.78,1.92-.39-.64,2.4-.83,5.78-1.86,3.37-1.04,7.36-2.44,11.79-3.38.61-.13,7.26-.02,10.72.18,1.16.08,11.68,2.39,14.73,3.41.88.27,4.99.82,4.65,1.66Z" style="fill: #961b27;"/>
                  <path d="M99,162.56c3.46-1.15,9.97-4.93,10.69-5.24,4.59-2,11.5-1.53,14.51-.44,2.88,1.05,9.07,4.11,13.02,5.61-4.2-1.01-7.06-1.69-10.85-1.66-.46-.03-3.02-.15-4.68-.34s-4.23-.47-5-.47c-.65,0-2.84.39-4.29.63-.72.12-2.15.09-2.92.18-2.74-.02-9.75,1.49-10.48,1.74Z" style="fill: #f86d78;"/>
                  <path d="M98.64,163.96c3.88-1.4,9.53-2.47,11.72-2.79s6.21-.31,6.97-.31c.6,0,4.07-.03,6.44.22,2.37.25,8.44.97,13.45,2.74-4.65-.23-6.71,1.72-11.97,3.11-3.52.93-10.85,1.15-13.79.44-3.23-.78-7.23-2.38-10.78-3.21-1.08-.28-2.03-.19-2.03-.19Z" style="fill: #f86d78;"/>
                  <path d="M104.75,163.26c.93-1.21,26.39-2.51,26.7.18.12.99-6.13,2.69-9.82,3.15-2.89.36-8.63.19-10.77-.29-.71-.16-7.34-1.98-6.11-3.05Z" style="fill: url(#linear-gradient-25);"/>
                  <path d="M127.36,163.68c-.07.47-1.53,1.61-3.09,2.01-1.38.31-2.02.39-2.93.39-.84,0-2.29,0-2.23-.49.06-.48,3.68-1.04,4.74-1.36,1.07-.32,3.58-1.01,3.51-.55Z" style="fill: #ff9aa2;"/>
                  <path d="M107.07,159.71c.28-.91,4-2.75,5.68-3.03,4.8-.8,8.71-.07,10.25.2.89.16,6.79,2.41,5.47,3.32-1.36.94-8.89-.91-11.17-.91s-10.67,1.89-10.23.42Z" style="fill: url(#linear-gradient-26);"/>
                </g>
              </g>
            </g>
            <g>
              <g>
                <path d="M151.85,110.27c-19.54-1.64-21.69,15.92-21.69,15.92,0,0,8.89-4.44,18.56-3.17,4.41.59,11.59,3.79,13.82.28,4.29-6.74-3.16-12.4-10.69-13.03Z" style="fill: url(#_ÂÁ_Ï_ÌÌ_È_ËÂÌÚ_18-6);"/>
                <path d="M162.81,121.64c4.45-1.25,4.07-7.27,4.13-7.49-.1.04-4.08,5.05-9.46,2.52-12-5.64-22.35,1.55-26.49,8.5,0,0,11.2-8.63,24.54-2.47,7.51,3.47,10.16-.77,10.13-.75-1.47.47-2.86-.23-2.84-.31Z" style="fill: url(#_ÂÁ_Ï_ÌÌ_È_ËÂÌÚ_1655);"/>
                <path d="M133.59,117.74s2.95-4.82,8.74-6.76c5.05-1.69,12.02-2.19,17.6,2.1,0,0-7.08-4.36-17.1-1.44-4.06,1.18-9.24,6.11-9.24,6.11Z" style="fill: url(#_ÂÁ_Ï_ÌÌ_È_ËÂÌÚ_18-7);"/>
              </g>
              <g>
                <path d="M83.11,110.33c19.51-1.97,21.95,15.55,21.95,15.55,0,0-8.96-4.29-18.61-2.86-4.4.66-11.52,3.98-13.82.51-4.41-6.67,2.95-12.45,10.47-13.21Z" style="fill: url(#_ÂÁ_Ï_ÌÌ_È_ËÂÌÚ_18-8);"/>
                <path d="M72.34,121.87c-4.47-1.18-4.19-7.2-4.25-7.42.1.04,4.17,4.98,9.5,2.36,11.9-5.84,22.37,1.17,26.63,8.05,0,0-11.34-8.44-24.58-2.06-7.45,3.6-10.17-.6-10.14-.58,1.47.44,2.86-.28,2.84-.36Z" style="fill: url(#_ÂÁ_Ï_ÌÌ_È_ËÂÌÚ_1655-2);"/>
                <path d="M101.49,117.49s-3.03-4.77-8.85-6.62c-5.07-1.6-12.06-1.99-17.56,2.39,0,0,7.01-4.48,17.07-1.73,4.08,1.12,9.34,5.95,9.34,5.95Z" style="fill: url(#_ÂÁ_Ï_ÌÌ_È_ËÂÌÚ_18-9);"/>
              </g>
            </g>
          </g>
        </g>
      </g>
    </g>
  </g>
</svg>