<?xml version="1.0" encoding="UTF-8"?>
<svg id="Layer_2" data-name="Layer 2" xmlns="http://www.w3.org/2000/svg" xmlns:xlink="http://www.w3.org/1999/xlink" viewBox="0 0 326.58 340.33">
  <defs>
    <style>
      .cls-1 {
        fill: url(#_ÂÁ_Ï_ÌÌ_È_ËÂÌÚ_1655-2);
      }

      .cls-2 {
        fill: #f5d534;
      }

      .cls-3 {
        fill: url(#_ÂÁ_Ï_ÌÌ_È_ËÂÌÚ_384);
      }

      .cls-4 {
        fill: url(#_ÂÁ_Ï_ÌÌ_È_ËÂÌÚ_126);
      }

      .cls-5 {
        fill: url(#_ÂÁ_Ï_ÌÌ_È_ËÂÌÚ_8-9);
      }

      .cls-6 {
        fill: url(#_ÂÁ_Ï_ÌÌ_È_ËÂÌÚ_8-8);
      }

      .cls-7 {
        fill: url(#_ÂÁ_Ï_ÌÌ_È_ËÂÌÚ_8-7);
      }

      .cls-8 {
        fill: url(#_ÂÁ_Ï_ÌÌ_È_ËÂÌÚ_8-6);
      }

      .cls-9 {
        fill: url(#_ÂÁ_Ï_ÌÌ_È_ËÂÌÚ_8-5);
      }

      .cls-10 {
        fill: url(#_ÂÁ_Ï_ÌÌ_È_ËÂÌÚ_8-4);
      }

      .cls-11 {
        fill: url(#_ÂÁ_Ï_ÌÌ_È_ËÂÌÚ_8-3);
      }

      .cls-12 {
        fill: url(#_ÂÁ_Ï_ÌÌ_È_ËÂÌÚ_8-2);
      }

      .cls-13 {
        fill: url(#linear-gradient-8);
      }

      .cls-14 {
        fill: url(#linear-gradient-7);
      }

      .cls-15 {
        fill: url(#linear-gradient-5);
      }

      .cls-16 {
        fill: url(#linear-gradient-6);
      }

      .cls-17 {
        fill: url(#linear-gradient-9);
      }

      .cls-18 {
        fill: url(#linear-gradient-4);
      }

      .cls-19 {
        fill: url(#linear-gradient-3);
      }

      .cls-20 {
        fill: url(#linear-gradient-2);
      }

      .cls-21 {
        fill: url(#radial-gradient);
      }

      .cls-22 {
        fill: url(#_ÂÁ_Ï_ÌÌ_È_ËÂÌÚ_126-2);
      }

      .cls-23 {
        fill: url(#linear-gradient);
      }

      .cls-24 {
        fill: url(#_ÂÁ_Ï_ÌÌ_È_ËÂÌÚ_7);
      }

      .cls-25 {
        fill: url(#_ÂÁ_Ï_ÌÌ_È_ËÂÌÚ_8);
      }

      .cls-26 {
        fill: url(#_ÂÁ_Ï_ÌÌ_È_ËÂÌÚ_2);
      }

      .cls-27 {
        fill: #961b27;
      }

      .cls-28 {
        fill: #f0c499;
      }

      .cls-29 {
        fill: #ff9aa2;
      }

      .cls-30 {
        fill: #f86d78;
      }

      .cls-31 {
        fill: url(#linear-gradient-10);
      }

      .cls-32 {
        fill: url(#linear-gradient-11);
      }

      .cls-33 {
        fill: url(#linear-gradient-12);
      }

      .cls-34 {
        fill: url(#linear-gradient-13);
      }

      .cls-35 {
        fill: url(#linear-gradient-19);
      }

      .cls-36 {
        fill: url(#linear-gradient-14);
      }

      .cls-37 {
        fill: url(#linear-gradient-21);
      }

      .cls-38 {
        fill: url(#linear-gradient-20);
      }

      .cls-39 {
        fill: url(#linear-gradient-22);
      }

      .cls-40 {
        fill: url(#linear-gradient-23);
      }

      .cls-41 {
        fill: url(#linear-gradient-25);
      }

      .cls-42 {
        fill: url(#linear-gradient-15);
      }

      .cls-43 {
        fill: url(#linear-gradient-16);
      }

      .cls-44 {
        fill: url(#linear-gradient-17);
      }

      .cls-45 {
        fill: url(#linear-gradient-18);
      }

      .cls-46 {
        fill: url(#linear-gradient-27);
      }

      .cls-47 {
        fill: url(#linear-gradient-24);
      }

      .cls-48 {
        fill: url(#linear-gradient-26);
      }

      .cls-49 {
        fill: #f7d4ab;
      }

      .cls-50 {
        fill: url(#_ÂÁ_Ï_ÌÌ_È_ËÂÌÚ_23-2);
      }

      .cls-51 {
        fill: url(#_ÂÁ_Ï_ÌÌ_È_ËÂÌÚ_46-2);
      }

      .cls-52 {
        fill: url(#_ÂÁ_Ï_ÌÌ_È_ËÂÌÚ_11-2);
      }

      .cls-53 {
        fill: url(#_ÂÁ_Ï_ÌÌ_È_ËÂÌÚ_1655);
      }

      .cls-54 {
        fill: url(#_ÂÁ_Ï_ÌÌ_È_ËÂÌÚ_18-7);
      }

      .cls-55 {
        fill: url(#_ÂÁ_Ï_ÌÌ_È_ËÂÌÚ_18-6);
      }

      .cls-56 {
        fill: url(#_ÂÁ_Ï_ÌÌ_È_ËÂÌÚ_18-9);
      }

      .cls-57 {
        fill: url(#_ÂÁ_Ï_ÌÌ_È_ËÂÌÚ_18-8);
      }

      .cls-58 {
        fill: url(#_ÂÁ_Ï_ÌÌ_È_ËÂÌÚ_18-3);
      }

      .cls-59 {
        fill: url(#_ÂÁ_Ï_ÌÌ_È_ËÂÌÚ_18-2);
      }

      .cls-60 {
        fill: url(#_ÂÁ_Ï_ÌÌ_È_ËÂÌÚ_18-5);
      }

      .cls-61 {
        fill: url(#_ÂÁ_Ï_ÌÌ_È_ËÂÌÚ_18-4);
      }

      .cls-62 {
        fill: url(#_ÂÁ_Ï_ÌÌ_È_ËÂÌÚ_8-10);
      }

      .cls-63 {
        fill: url(#_ÂÁ_Ï_ÌÌ_È_ËÂÌÚ_8-11);
      }

      .cls-64 {
        fill: url(#_ÂÁ_Ï_ÌÌ_È_ËÂÌÚ_8-15);
      }

      .cls-65 {
        fill: url(#_ÂÁ_Ï_ÌÌ_È_ËÂÌÚ_8-14);
      }

      .cls-66 {
        fill: url(#_ÂÁ_Ï_ÌÌ_È_ËÂÌÚ_8-17);
      }

      .cls-67 {
        fill: url(#_ÂÁ_Ï_ÌÌ_È_ËÂÌÚ_8-16);
      }

      .cls-68 {
        fill: url(#_ÂÁ_Ï_ÌÌ_È_ËÂÌÚ_8-13);
      }

      .cls-69 {
        fill: url(#_ÂÁ_Ï_ÌÌ_È_ËÂÌÚ_8-12);
      }

      .cls-70 {
        fill: url(#_ÂÁ_Ï_ÌÌ_È_ËÂÌÚ_72-2);
      }

      .cls-71 {
        fill: url(#_ÂÁ_Ï_ÌÌ_È_ËÂÌÚ_30-2);
      }

      .cls-72 {
        fill: url(#_ÂÁ_Ï_ÌÌ_È_ËÂÌÚ_30-3);
      }

      .cls-73 {
        fill: url(#_ÂÁ_Ï_ÌÌ_È_ËÂÌÚ_29-4);
      }

      .cls-74 {
        fill: url(#_ÂÁ_Ï_ÌÌ_È_ËÂÌÚ_29-6);
      }

      .cls-75 {
        fill: url(#_ÂÁ_Ï_ÌÌ_È_ËÂÌÚ_29-5);
      }

      .cls-76 {
        fill: url(#_ÂÁ_Ï_ÌÌ_È_ËÂÌÚ_29-3);
      }

      .cls-77 {
        fill: url(#_ÂÁ_Ï_ÌÌ_È_ËÂÌÚ_29-2);
      }

      .cls-78 {
        fill: url(#_ÂÁ_Ï_ÌÌ_È_ËÂÌÚ_72);
      }

      .cls-79 {
        fill: url(#_ÂÁ_Ï_ÌÌ_È_ËÂÌÚ_30);
      }

      .cls-80 {
        fill: url(#_ÂÁ_Ï_ÌÌ_È_ËÂÌÚ_14);
      }

      .cls-81 {
        fill: url(#_ÂÁ_Ï_ÌÌ_È_ËÂÌÚ_11);
      }

      .cls-82 {
        fill: url(#_ÂÁ_Ï_ÌÌ_È_ËÂÌÚ_10);
      }

      .cls-83 {
        fill: url(#_ÂÁ_Ï_ÌÌ_È_ËÂÌÚ_17);
      }

      .cls-84 {
        fill: url(#_ÂÁ_Ï_ÌÌ_È_ËÂÌÚ_18);
      }

      .cls-85 {
        fill: url(#_ÂÁ_Ï_ÌÌ_È_ËÂÌÚ_23);
      }

      .cls-86 {
        fill: url(#_ÂÁ_Ï_ÌÌ_È_ËÂÌÚ_55);
      }

      .cls-87 {
        fill: url(#_ÂÁ_Ï_ÌÌ_È_ËÂÌÚ_46);
      }

      .cls-88 {
        fill: url(#_ÂÁ_Ï_ÌÌ_È_ËÂÌÚ_45);
      }

      .cls-89 {
        fill: url(#_ÂÁ_Ï_ÌÌ_È_ËÂÌÚ_29);
      }
    </style>
    <linearGradient id="_ÂÁ_Ï_ÌÌ_È_ËÂÌÚ_8" data-name="¡ÂÁ˚ÏˇÌÌ˚È „‡‰ËÂÌÚ 8" x1="339.2" y1="21.41" x2="318.92" y2="-49.1" gradientTransform="translate(-61.1 130.52) rotate(22.64)" gradientUnits="userSpaceOnUse">
      <stop offset="0" stop-color="#3b2621"/>
      <stop offset=".39" stop-color="#3e2822"/>
      <stop offset=".71" stop-color="#482e29"/>
      <stop offset="1" stop-color="#593a33"/>
    </linearGradient>
    <linearGradient id="_ÂÁ_Ï_ÌÌ_È_ËÂÌÚ_8-2" data-name="¡ÂÁ˚ÏˇÌÌ˚È „‡‰ËÂÌÚ 8" x1="-1184.86" y1="610.88" x2="-1205.14" y2="540.37" gradientTransform="translate(-1256.87 94.72) rotate(160.79) scale(1 -1)" xlink:href="#_ÂÁ_Ï_ÌÌ_È_ËÂÌÚ_8"/>
    <linearGradient id="_ÂÁ_Ï_ÌÌ_È_ËÂÌÚ_8-3" data-name="¡ÂÁ˚ÏˇÌÌ˚È „‡‰ËÂÌÚ 8" x1="48.69" y1="428.29" x2="129.98" y2="-43.19" gradientTransform="translate(87.64 -112.49) rotate(1.71)" xlink:href="#_ÂÁ_Ï_ÌÌ_È_ËÂÌÚ_8"/>
    <linearGradient id="linear-gradient" x1="198.27" y1="223.87" x2="147.78" y2="231.31" gradientUnits="userSpaceOnUse">
      <stop offset="0" stop-color="#f0c499"/>
      <stop offset=".52" stop-color="#f1c69b"/>
      <stop offset=".85" stop-color="#f4cea4"/>
      <stop offset="1" stop-color="#f7d4ab"/>
    </linearGradient>
    <linearGradient id="linear-gradient-2" x1="109.09" y1="182.42" x2="195.28" y2="208.63" xlink:href="#linear-gradient"/>
    <linearGradient id="linear-gradient-3" x1="43.56" y1="424.73" x2="150.12" y2="489.47" gradientTransform="translate(-103.51 -193.88) rotate(-16.11)" xlink:href="#linear-gradient"/>
    <linearGradient id="linear-gradient-4" x1="360.06" y1="531.07" x2="243.04" y2="563.95" gradientTransform="translate(51.81 -384.5) rotate(13.36)" xlink:href="#linear-gradient"/>
    <linearGradient id="linear-gradient-5" x1="123.89" y1="241.84" x2="260.68" y2="204.57" xlink:href="#linear-gradient"/>
    <linearGradient id="_ÂÁ_Ï_ÌÌ_È_ËÂÌÚ_29" data-name="¡ÂÁ˚ÏˇÌÌ˚È „‡‰ËÂÌÚ 29" x1="164.09" y1="244.15" x2="160.53" y2="209.83" gradientUnits="userSpaceOnUse">
      <stop offset="0" stop-color="#d6b01f"/>
      <stop offset=".42" stop-color="#e0bc26"/>
      <stop offset="1" stop-color="#f5d534"/>
    </linearGradient>
    <linearGradient id="linear-gradient-6" x1="155.57" y1="157.09" x2="164.91" y2="196.67" gradientUnits="userSpaceOnUse">
      <stop offset="0" stop-color="#dba379"/>
      <stop offset=".49" stop-color="#e3b086"/>
      <stop offset="1" stop-color="#f0c499"/>
    </linearGradient>
    <linearGradient id="_ÂÁ_Ï_ÌÌ_È_ËÂÌÚ_30" data-name="¡ÂÁ˚ÏˇÌÌ˚È „‡‰ËÂÌÚ 30" x1="164.59" y1="223.97" x2="153.73" y2="357.71" gradientUnits="userSpaceOnUse">
      <stop offset="0" stop-color="#f5d534"/>
      <stop offset=".47" stop-color="#f7d942"/>
      <stop offset="1" stop-color="#f9de4f"/>
    </linearGradient>
    <linearGradient id="_ÂÁ_Ï_ÌÌ_È_ËÂÌÚ_30-2" data-name="¡ÂÁ˚ÏˇÌÌ˚È „‡‰ËÂÌÚ 30" x1="44.6" y1="371.55" x2="27.11" y2="213.53" xlink:href="#_ÂÁ_Ï_ÌÌ_È_ËÂÌÚ_30"/>
    <linearGradient id="_ÂÁ_Ï_ÌÌ_È_ËÂÌÚ_29-2" data-name="¡ÂÁ˚ÏˇÌÌ˚È „‡‰ËÂÌÚ 29" x1="30.92" y1="340.65" x2="68.13" y2="317.54" xlink:href="#_ÂÁ_Ï_ÌÌ_È_ËÂÌÚ_29"/>
    <linearGradient id="_ÂÁ_Ï_ÌÌ_È_ËÂÌÚ_29-3" data-name="¡ÂÁ˚ÏˇÌÌ˚È „‡‰ËÂÌÚ 29" x1="4.54" y1="340.88" x2="-.15" y2="339.78" xlink:href="#_ÂÁ_Ï_ÌÌ_È_ËÂÌÚ_29"/>
    <linearGradient id="_ÂÁ_Ï_ÌÌ_È_ËÂÌÚ_29-4" data-name="¡ÂÁ˚ÏˇÌÌ˚È „‡‰ËÂÌÚ 29" x1="60.75" y1="341.31" x2="59.39" y2="245.34" xlink:href="#_ÂÁ_Ï_ÌÌ_È_ËÂÌÚ_29"/>
    <linearGradient id="_ÂÁ_Ï_ÌÌ_È_ËÂÌÚ_29-5" data-name="¡ÂÁ˚ÏˇÌÌ˚È „‡‰ËÂÌÚ 29" x1="249.15" y1="336.87" x2="281.42" y2="316.82" xlink:href="#_ÂÁ_Ï_ÌÌ_È_ËÂÌÚ_29"/>
    <linearGradient id="_ÂÁ_Ï_ÌÌ_È_ËÂÌÚ_29-6" data-name="¡ÂÁ˚ÏˇÌÌ˚È „‡‰ËÂÌÚ 29" x1="267.91" y1="341.16" x2="266.56" y2="245.92" xlink:href="#_ÂÁ_Ï_ÌÌ_È_ËÂÌÚ_29"/>
    <linearGradient id="_ÂÁ_Ï_ÌÌ_È_ËÂÌÚ_30-3" data-name="¡ÂÁ˚ÏˇÌÌ˚È „‡‰ËÂÌÚ 30" x1="301.96" y1="382.44" x2="282.01" y2="202.15" xlink:href="#_ÂÁ_Ï_ÌÌ_È_ËÂÌÚ_30"/>
    <linearGradient id="_ÂÁ_Ï_ÌÌ_È_ËÂÌÚ_14" data-name="¡ÂÁ˚ÏˇÌÌ˚È „‡‰ËÂÌÚ 14" x1="170.03" y1="14.43" x2="169.93" y2="14.17" gradientTransform="translate(-12.24 1.24) rotate(-.19)" gradientUnits="userSpaceOnUse">
      <stop offset="0" stop-color="#cb8076"/>
      <stop offset=".31" stop-color="#b76f65"/>
      <stop offset=".95" stop-color="#86443a"/>
      <stop offset="1" stop-color="#824137"/>
    </linearGradient>
    <linearGradient id="_ÂÁ_Ï_ÌÌ_È_ËÂÌÚ_18" data-name="¡ÂÁ˚ÏˇÌÌ˚È „‡‰ËÂÌÚ 18" x1="94.31" y1="136.84" x2="92.94" y2="88.87" gradientUnits="userSpaceOnUse">
      <stop offset="0" stop-color="#dba379"/>
      <stop offset=".49" stop-color="#e3b086"/>
      <stop offset="1" stop-color="#f0c499"/>
    </linearGradient>
    <linearGradient id="linear-gradient-7" x1="-2910.68" y1="290.05" x2="-2909.04" y2="347.28" gradientTransform="translate(3005.72 -8.77) rotate(-.19)" xlink:href="#linear-gradient-6"/>
    <linearGradient id="_ÂÁ_Ï_ÌÌ_È_ËÂÌÚ_18-2" data-name="¡ÂÁ˚ÏˇÌÌ˚È „‡‰ËÂÌÚ 18" x1="223.88" y1="133.17" x2="222.52" y2="85.19" xlink:href="#_ÂÁ_Ï_ÌÌ_È_ËÂÌÚ_18"/>
    <linearGradient id="linear-gradient-8" x1="-2762.35" y1="290.26" x2="-2760.72" y2="347.5" gradientTransform="translate(-2541.92 9.31) rotate(179.81) scale(1 -1)" xlink:href="#linear-gradient-6"/>
    <linearGradient id="_ÂÁ_Ï_ÌÌ_È_ËÂÌÚ_384" data-name="¡ÂÁ˚ÏˇÌÌ˚È „‡‰ËÂÌÚ 384" x1="169.39" y1="31.74" x2="169.16" y2="186.72" gradientTransform="translate(-12.24 1.24) rotate(-.19)" gradientUnits="userSpaceOnUse">
      <stop offset="0" stop-color="#ffd9b3"/>
      <stop offset=".32" stop-color="#f9d5ad"/>
      <stop offset="1" stop-color="#f7d4ab"/>
    </linearGradient>
    <linearGradient id="linear-gradient-9" x1="140.99" y1="129.76" x2="133.9" y2="85.85" gradientTransform="translate(-12.24 1.24) rotate(-.19)" gradientUnits="userSpaceOnUse">
      <stop offset="0" stop-color="#f7d4ab"/>
      <stop offset=".52" stop-color="#f5d1a8"/>
      <stop offset=".85" stop-color="#f2c99f"/>
      <stop offset="1" stop-color="#f0c499"/>
    </linearGradient>
    <radialGradient id="_ÂÁ_Ï_ÌÌ_È_ËÂÌÚ_2" data-name="¡ÂÁ˚ÏˇÌÌ˚È „‡‰ËÂÌÚ 2" cx="87.81" cy="135.25" fx="87.81" fy="135.25" r="29.46" gradientTransform="translate(50.46 1.15) rotate(-.19) scale(.79 1)" gradientUnits="userSpaceOnUse">
      <stop offset="0" stop-color="#f9b38e"/>
      <stop offset=".61" stop-color="#f7c59e"/>
      <stop offset="1" stop-color="#f7d4ab"/>
    </radialGradient>
    <linearGradient id="linear-gradient-10" x1="154.78" y1="165.55" x2="180.88" y2="165.55" gradientTransform="translate(-12.24 1.24) rotate(-.19)" gradientUnits="userSpaceOnUse">
      <stop offset="0" stop-color="#ffd9b3"/>
      <stop offset=".68" stop-color="#fcd7b0"/>
      <stop offset="1" stop-color="#f7d4ab"/>
    </linearGradient>
    <linearGradient id="_ÂÁ_Ï_ÌÌ_È_ËÂÌÚ_18-3" data-name="¡ÂÁ˚ÏˇÌÌ˚È „‡‰ËÂÌÚ 18" x1="216.11" y1="43.96" x2="127.93" y2="116.08" gradientTransform="translate(-12.24 1.24) rotate(-.19)" xlink:href="#_ÂÁ_Ï_ÌÌ_È_ËÂÌÚ_18"/>
    <linearGradient id="_ÂÁ_Ï_ÌÌ_È_ËÂÌÚ_72" data-name="¡ÂÁ˚ÏˇÌÌ˚È „‡‰ËÂÌÚ 72" x1="118.65" y1="154.66" x2="114.17" y2="79.2" gradientTransform="translate(-12.24 1.24) rotate(-.19)" gradientUnits="userSpaceOnUse">
      <stop offset="0" stop-color="#f9b38e"/>
      <stop offset=".5" stop-color="#f7b690"/>
      <stop offset=".9" stop-color="#f2c096"/>
      <stop offset="1" stop-color="#f0c499"/>
    </linearGradient>
    <linearGradient id="linear-gradient-11" x1="203.33" y1="123.19" x2="196.46" y2="85.13" xlink:href="#linear-gradient-9"/>
    <linearGradient id="_ÂÁ_Ï_ÌÌ_È_ËÂÌÚ_18-4" data-name="¡ÂÁ˚ÏˇÌÌ˚È „‡‰ËÂÌÚ 18" x1="107.58" y1="134.34" x2="138.99" y2="134.34" gradientTransform="translate(-12.24 1.24) rotate(-.19)" xlink:href="#_ÂÁ_Ï_ÌÌ_È_ËÂÌÚ_18"/>
    <linearGradient id="linear-gradient-12" x1="191.97" y1="88.79" x2="224.53" y2="88.79" xlink:href="#linear-gradient-10"/>
    <radialGradient id="radial-gradient" cx="369.59" cy="131.69" fx="369.59" fy="131.69" r="32.04" gradientTransform="translate(489.73 -.87) rotate(179.81) scale(.79 -1)" gradientUnits="userSpaceOnUse">
      <stop offset="0" stop-color="#f9b38e"/>
      <stop offset=".61" stop-color="#f7c59e"/>
      <stop offset="1" stop-color="#f7d4ab"/>
    </radialGradient>
    <linearGradient id="_ÂÁ_Ï_ÌÌ_È_ËÂÌÚ_72-2" data-name="¡ÂÁ˚ÏˇÌÌ˚È „‡‰ËÂÌÚ 72" x1="-1856.82" y1="151.2" x2="-1860.98" y2="81.19" gradientTransform="translate(-1648.96 6.35) rotate(179.81) scale(1 -1)" xlink:href="#_ÂÁ_Ï_ÌÌ_È_ËÂÌÚ_72"/>
    <linearGradient id="linear-gradient-13" x1="170.88" y1="147.45" x2="168.69" y2="136.49" xlink:href="#linear-gradient-9"/>
    <linearGradient id="linear-gradient-14" x1="169.16" y1="135.61" x2="169.1" y2="144.22" gradientTransform="translate(-12.24 1.24) rotate(-.19)" xlink:href="#linear-gradient-6"/>
    <linearGradient id="_ÂÁ_Ï_ÌÌ_È_ËÂÌÚ_23" data-name="¡ÂÁ˚ÏˇÌÌ˚È „‡‰ËÂÌÚ 23" x1="168.63" y1="123.91" x2="168.75" y2="132.73" gradientTransform="translate(-12.24 1.24) rotate(-.19)" gradientUnits="userSpaceOnUse">
      <stop offset="0" stop-color="#f7d4ab"/>
      <stop offset="1" stop-color="#ffd9b3"/>
    </linearGradient>
    <linearGradient id="_ÂÁ_Ï_ÌÌ_È_ËÂÌÚ_23-2" data-name="¡ÂÁ˚ÏˇÌÌ˚È „‡‰ËÂÌÚ 23" x1="201.22" y1="134.29" x2="232.65" y2="134.29" xlink:href="#_ÂÁ_Ï_ÌÌ_È_ËÂÌÚ_23"/>
    <linearGradient id="_ÂÁ_Ï_ÌÌ_È_ËÂÌÚ_18-5" data-name="¡ÂÁ˚ÏˇÌÌ˚È „‡‰ËÂÌÚ 18" x1="170.63" y1="170.43" x2="168.59" y2="200.08" gradientTransform="translate(-12.24 1.24) rotate(-.19)" xlink:href="#_ÂÁ_Ï_ÌÌ_È_ËÂÌÚ_18"/>
    <linearGradient id="_ÂÁ_Ï_ÌÌ_È_ËÂÌÚ_11" data-name="¡ÂÁ˚ÏˇÌÌ˚È „‡‰ËÂÌÚ 11" x1="-2025.59" y1="508.62" x2="-1979.43" y2="507.54" gradientTransform="translate(-1678.37 -804) rotate(-168.85) scale(1 -1)" gradientUnits="userSpaceOnUse">
      <stop offset="0" stop-color="#3b2621"/>
      <stop offset=".41" stop-color="#3c2722"/>
      <stop offset=".56" stop-color="#432c25"/>
      <stop offset=".66" stop-color="#4f362c"/>
      <stop offset=".75" stop-color="#604335"/>
      <stop offset=".82" stop-color="#765441"/>
      <stop offset=".88" stop-color="#916950"/>
      <stop offset=".94" stop-color="#b18262"/>
      <stop offset=".99" stop-color="#d69f76"/>
      <stop offset="1" stop-color="#dba379"/>
    </linearGradient>
    <linearGradient id="_ÂÁ_Ï_ÌÌ_È_ËÂÌÚ_11-2" data-name="¡ÂÁ˚ÏˇÌÌ˚È „‡‰ËÂÌÚ 11" x1="-6480.64" y1="-369.13" x2="-6434.49" y2="-370.21" gradientTransform="translate(6532.89 -804) rotate(-11.15)" xlink:href="#_ÂÁ_Ï_ÌÌ_È_ËÂÌÚ_11"/>
    <linearGradient id="_ÂÁ_Ï_ÌÌ_È_ËÂÌÚ_126" data-name="¡ÂÁ˚ÏˇÌÌ˚È „‡‰ËÂÌÚ 126" x1="-1004.39" y1="381.53" x2="-1003.62" y2="381.53" gradientTransform="translate(12911.82 5120.61) rotate(.53) scale(12.79 -12.79)" gradientUnits="userSpaceOnUse">
      <stop offset="0" stop-color="#ffd9b3"/>
      <stop offset=".52" stop-color="#fccfa9"/>
      <stop offset="1" stop-color="#f8c39c"/>
    </linearGradient>
    <linearGradient id="_ÂÁ_Ï_ÌÌ_È_ËÂÌÚ_126-2" data-name="¡ÂÁ˚ÏˇÌÌ˚È „‡‰ËÂÌÚ 126" x1="-1128.82" y1="379.92" x2="-1128.05" y2="379.92" gradientTransform="translate(-14155.75 5209.85) rotate(179.09) scale(12.79)" xlink:href="#_ÂÁ_Ï_ÌÌ_È_ËÂÌÚ_126"/>
    <linearGradient id="_ÂÁ_Ï_ÌÌ_È_ËÂÌÚ_8-4" data-name="¡ÂÁ˚ÏˇÌÌ˚È „‡‰ËÂÌÚ 8" x1="167.39" y1="117.95" x2="254.08" y2="225.01" gradientTransform="translate(-12.24 1.24) rotate(-.19)" xlink:href="#_ÂÁ_Ï_ÌÌ_È_ËÂÌÚ_8"/>
    <linearGradient id="_ÂÁ_Ï_ÌÌ_È_ËÂÌÚ_8-5" data-name="¡ÂÁ˚ÏˇÌÌ˚È „‡‰ËÂÌÚ 8" x1="265.66" y1="256.28" x2="255.03" y2="219.33" gradientTransform="translate(-12.24 1.24) rotate(-.19)" xlink:href="#_ÂÁ_Ï_ÌÌ_È_ËÂÌÚ_8"/>
    <linearGradient id="_ÂÁ_Ï_ÌÌ_È_ËÂÌÚ_8-6" data-name="¡ÂÁ˚ÏˇÌÌ˚È „‡‰ËÂÌÚ 8" x1="-1556.67" y1="253.36" x2="-1567.3" y2="216.4" gradientTransform="translate(-1492.63 5.83) rotate(179.81) scale(1 -1)" xlink:href="#_ÂÁ_Ï_ÌÌ_È_ËÂÌÚ_8"/>
    <linearGradient id="_ÂÁ_Ï_ÌÌ_È_ËÂÌÚ_8-7" data-name="¡ÂÁ˚ÏˇÌÌ˚È „‡‰ËÂÌÚ 8" x1="127.2" y1="137.7" x2="118.46" y2="220.67" gradientTransform="translate(-12.24 1.24) rotate(-.19)" xlink:href="#_ÂÁ_Ï_ÌÌ_È_ËÂÌÚ_8"/>
    <linearGradient id="_ÂÁ_Ï_ÌÌ_È_ËÂÌÚ_46" data-name="¡ÂÁ˚ÏˇÌÌ˚È „‡‰ËÂÌÚ 46" x1="234.19" y1="249.33" x2="217.75" y2="112.61" gradientTransform="translate(-12.24 1.24) rotate(-.19)" gradientUnits="userSpaceOnUse">
      <stop offset="0" stop-color="#593a33"/>
      <stop offset=".29" stop-color="#482e29"/>
      <stop offset=".61" stop-color="#3e2822"/>
      <stop offset="1" stop-color="#3b2621"/>
    </linearGradient>
    <linearGradient id="_ÂÁ_Ï_ÌÌ_È_ËÂÌÚ_8-8" data-name="¡ÂÁ˚ÏˇÌÌ˚È „‡‰ËÂÌÚ 8" x1="220.06" y1="158.72" x2="201.97" y2="8.24" gradientTransform="translate(-12.24 1.24) rotate(-.19)" xlink:href="#_ÂÁ_Ï_ÌÌ_È_ËÂÌÚ_8"/>
    <linearGradient id="_ÂÁ_Ï_ÌÌ_È_ËÂÌÚ_8-9" data-name="¡ÂÁ˚ÏˇÌÌ˚È „‡‰ËÂÌÚ 8" x1="133.09" y1="156.34" x2="116.25" y2="16.26" gradientTransform="translate(-12.24 1.24) rotate(-.19)" xlink:href="#_ÂÁ_Ï_ÌÌ_È_ËÂÌÚ_8"/>
    <linearGradient id="_ÂÁ_Ï_ÌÌ_È_ËÂÌÚ_55" data-name="¡ÂÁ˚ÏˇÌÌ˚È „‡‰ËÂÌÚ 55" x1="98.42" y1="243.56" x2="96.69" y2="92.64" gradientTransform="translate(-12.24 1.24) rotate(-.19)" gradientUnits="userSpaceOnUse">
      <stop offset="0" stop-color="#593a33"/>
      <stop offset=".19" stop-color="#52352f"/>
      <stop offset="1" stop-color="#3b2621"/>
    </linearGradient>
    <linearGradient id="linear-gradient-15" x1="202.83" y1="233.55" x2="216.21" y2="36.59" gradientTransform="translate(-12.24 1.24) rotate(-.19)" gradientUnits="userSpaceOnUse">
      <stop offset="0" stop-color="#593a33"/>
      <stop offset=".4" stop-color="#5d3d36"/>
      <stop offset=".85" stop-color="#6a4741"/>
      <stop offset="1" stop-color="#714c46"/>
    </linearGradient>
    <linearGradient id="_ÂÁ_Ï_ÌÌ_È_ËÂÌÚ_8-10" data-name="¡ÂÁ˚ÏˇÌÌ˚È „‡‰ËÂÌÚ 8" x1="146.37" y1="199.65" x2="128.06" y2="64.96" gradientTransform="translate(-12.24 1.24) rotate(-.19)" xlink:href="#_ÂÁ_Ï_ÌÌ_È_ËÂÌÚ_8"/>
    <linearGradient id="_ÂÁ_Ï_ÌÌ_È_ËÂÌÚ_8-11" data-name="¡ÂÁ˚ÏˇÌÌ˚È „‡‰ËÂÌÚ 8" x1="224.76" y1="188.4" x2="206.46" y2="53.71" gradientTransform="translate(-12.24 1.24) rotate(-.19)" xlink:href="#_ÂÁ_Ï_ÌÌ_È_ËÂÌÚ_8"/>
    <linearGradient id="_ÂÁ_Ï_ÌÌ_È_ËÂÌÚ_10" data-name="¡ÂÁ˚ÏˇÌÌ˚È „‡‰ËÂÌÚ 10" x1="105.12" y1="294.33" x2="77.49" y2="167.23" gradientTransform="translate(-12.24 1.24) rotate(-.19)" gradientUnits="userSpaceOnUse">
      <stop offset="0" stop-color="#3b2621"/>
      <stop offset=".77" stop-color="#51342e"/>
      <stop offset="1" stop-color="#593a33"/>
    </linearGradient>
    <linearGradient id="linear-gradient-16" x1="112.81" y1="112.7" x2="111.43" y2="223.56" xlink:href="#linear-gradient-15"/>
    <linearGradient id="linear-gradient-17" x1="211.15" y1="245.95" x2="216.36" y2="169.35" xlink:href="#linear-gradient-15"/>
    <linearGradient id="linear-gradient-18" x1="206.67" y1="224.61" x2="211.16" y2="158.57" xlink:href="#linear-gradient-15"/>
    <linearGradient id="linear-gradient-19" x1="128.59" y1="236.96" x2="133.62" y2="163" xlink:href="#linear-gradient-15"/>
    <linearGradient id="linear-gradient-20" x1="95.83" y1="242.05" x2="98.61" y2="201.03" xlink:href="#linear-gradient-15"/>
    <linearGradient id="linear-gradient-21" x1="226.1" y1="244.03" x2="228.66" y2="206.33" xlink:href="#linear-gradient-15"/>
    <linearGradient id="linear-gradient-22" x1="171.4" y1="33.83" x2="165.24" y2="-4.55" xlink:href="#linear-gradient-15"/>
    <linearGradient id="_ÂÁ_Ï_ÌÌ_È_ËÂÌÚ_8-12" data-name="¡ÂÁ˚ÏˇÌÌ˚È „‡‰ËÂÌÚ 8" x1="188.76" y1="59.37" x2="198.96" y2="38.05" gradientTransform="translate(-12.24 1.24) rotate(-.19)" xlink:href="#_ÂÁ_Ï_ÌÌ_È_ËÂÌÚ_8"/>
    <linearGradient id="_ÂÁ_Ï_ÌÌ_È_ËÂÌÚ_8-13" data-name="¡ÂÁ˚ÏˇÌÌ˚È „‡‰ËÂÌÚ 8" x1="133.95" y1="71" x2="153.24" y2="30.69" gradientTransform="translate(-12.24 1.24) rotate(-.19)" xlink:href="#_ÂÁ_Ï_ÌÌ_È_ËÂÌÚ_8"/>
    <linearGradient id="_ÂÁ_Ï_ÌÌ_È_ËÂÌÚ_8-14" data-name="¡ÂÁ˚ÏˇÌÌ˚È „‡‰ËÂÌÚ 8" x1="242.51" y1="99.39" x2="181.72" y2="-.76" gradientTransform="translate(-12.24 1.24) rotate(-.19)" xlink:href="#_ÂÁ_Ï_ÌÌ_È_ËÂÌÚ_8"/>
    <linearGradient id="_ÂÁ_Ï_ÌÌ_È_ËÂÌÚ_8-15" data-name="¡ÂÁ˚ÏˇÌÌ˚È „‡‰ËÂÌÚ 8" x1="140.14" y1="69.53" x2="113.94" y2="26.37" gradientTransform="translate(-12.24 1.24) rotate(-.19)" xlink:href="#_ÂÁ_Ï_ÌÌ_È_ËÂÌÚ_8"/>
    <linearGradient id="_ÂÁ_Ï_ÌÌ_È_ËÂÌÚ_8-16" data-name="¡ÂÁ˚ÏˇÌÌ˚È „‡‰ËÂÌÚ 8" x1="254.24" y1="157.84" x2="237.31" y2="43.18" gradientTransform="translate(-12.24 1.24) rotate(-.19)" xlink:href="#_ÂÁ_Ï_ÌÌ_È_ËÂÌÚ_8"/>
    <linearGradient id="_ÂÁ_Ï_ÌÌ_È_ËÂÌÚ_8-17" data-name="¡ÂÁ˚ÏˇÌÌ˚È „‡‰ËÂÌÚ 8" x1="97.97" y1="137.54" x2="86.64" y2="60.77" gradientTransform="translate(-12.24 1.24) rotate(-.19)" xlink:href="#_ÂÁ_Ï_ÌÌ_È_ËÂÌÚ_8"/>
    <linearGradient id="_ÂÁ_Ï_ÌÌ_È_ËÂÌÚ_7" data-name="¡ÂÁ˚ÏˇÌÌ˚È „‡‰ËÂÌÚ 7" x1="271.97" y1="256.43" x2="241.92" y2="117.94" gradientTransform="translate(-12.24 1.24) rotate(-.19)" gradientUnits="userSpaceOnUse">
      <stop offset="0" stop-color="#3b2621"/>
      <stop offset=".38" stop-color="#472e28"/>
      <stop offset="1" stop-color="#593a33"/>
    </linearGradient>
    <linearGradient id="linear-gradient-23" x1="111.01" y1="180.53" x2="121.23" y2="30.06" xlink:href="#linear-gradient-15"/>
    <linearGradient id="_ÂÁ_Ï_ÌÌ_È_ËÂÌÚ_46-2" data-name="¡ÂÁ˚ÏˇÌÌ˚È „‡‰ËÂÌÚ 46" x1="139.97" y1="231.65" x2="97.24" y2="161.25" xlink:href="#_ÂÁ_Ï_ÌÌ_È_ËÂÌÚ_46"/>
    <linearGradient id="_ÂÁ_Ï_ÌÌ_È_ËÂÌÚ_45" data-name="¡ÂÁ˚ÏˇÌÌ˚È „‡‰ËÂÌÚ 45" x1="142.34" y1="147.57" x2="174.67" y2="147.57" gradientUnits="userSpaceOnUse">
      <stop offset="0" stop-color="#f8d4ac"/>
      <stop offset=".52" stop-color="#ffd9b3"/>
      <stop offset="1" stop-color="#f7d4ab"/>
    </linearGradient>
    <linearGradient id="linear-gradient-24" x1="169.68" y1="153.64" x2="183.76" y2="153.64" xlink:href="#linear-gradient-6"/>
    <linearGradient id="_ÂÁ_Ï_ÌÌ_È_ËÂÌÚ_17" data-name="¡ÂÁ˚ÏˇÌÌ˚È „‡‰ËÂÌÚ 17" x1="132.67" y1="153.29" x2="144.27" y2="153.29" gradientUnits="userSpaceOnUse">
      <stop offset="0" stop-color="#f0c499"/>
      <stop offset=".51" stop-color="#e3b086"/>
      <stop offset="1" stop-color="#dba379"/>
    </linearGradient>
    <linearGradient id="linear-gradient-25" x1="158" y1="147.28" x2="158.21" y2="163.69" xlink:href="#linear-gradient-6"/>
    <linearGradient id="linear-gradient-26" x1="141.45" y1="154.46" x2="170.66" y2="154.03" gradientUnits="userSpaceOnUse">
      <stop offset="0" stop-color="#f96e7e"/>
      <stop offset=".03" stop-color="#f9707f"/>
      <stop offset=".25" stop-color="#fd7985"/>
      <stop offset=".53" stop-color="#ff7d88"/>
      <stop offset=".76" stop-color="#fd7985"/>
      <stop offset="1" stop-color="#f86d7d"/>
      <stop offset="1" stop-color="#f86d7d"/>
    </linearGradient>
    <linearGradient id="linear-gradient-27" x1="146.99" y1="148.4" x2="168.72" y2="148.21" xlink:href="#linear-gradient-26"/>
    <linearGradient id="_ÂÁ_Ï_ÌÌ_È_ËÂÌÚ_18-6" data-name="¡ÂÁ˚ÏˇÌÌ˚È „‡‰ËÂÌÚ 18" x1="-1172.31" y1="407.24" x2="-1171.45" y2="407.24" gradientTransform="translate(-46333.01 -6201.96) rotate(168.56) scale(37.84 -37.84)" xlink:href="#_ÂÁ_Ï_ÌÌ_È_ËÂÌÚ_18"/>
    <linearGradient id="_ÂÁ_Ï_ÌÌ_È_ËÂÌÚ_1655" data-name="¡ÂÁ˚ÏˇÌÌ˚È „‡‰ËÂÌÚ 1655" x1="-1075.56" y1="357.52" x2="-1074.72" y2="357.52" gradientTransform="translate(47462.05 13877.66) rotate(-2.16) scale(43.46 -43.46)" gradientUnits="userSpaceOnUse">
      <stop offset="0" stop-color="#4d322e"/>
      <stop offset=".06" stop-color="#4a302c"/>
      <stop offset=".55" stop-color="#3d2622"/>
      <stop offset="1" stop-color="#39231f"/>
    </linearGradient>
    <linearGradient id="_ÂÁ_Ï_ÌÌ_È_ËÂÌÚ_18-7" data-name="¡ÂÁ˚ÏˇÌÌ˚È „‡‰ËÂÌÚ 18" x1="184.43" y1="49.12" x2="183.47" y2="69.89" gradientTransform="translate(5.89 44.61) rotate(3.26)" xlink:href="#_ÂÁ_Ï_ÌÌ_È_ËÂÌÚ_18"/>
    <linearGradient id="_ÂÁ_Ï_ÌÌ_È_ËÂÌÚ_18-8" data-name="¡ÂÁ˚ÏˇÌÌ˚È „‡‰ËÂÌÚ 18" x1="-1123.33" y1="397.88" x2="-1122.47" y2="397.88" gradientTransform="translate(44649.96 -6968.06) rotate(10.48) scale(37.84)" xlink:href="#_ÂÁ_Ï_ÌÌ_È_ËÂÌÚ_18"/>
    <linearGradient id="_ÂÁ_Ï_ÌÌ_È_ËÂÌÚ_1655-2" data-name="¡ÂÁ˚ÏˇÌÌ˚È „‡‰ËÂÌÚ 1655" x1="-1118.98" y1="358.67" x2="-1118.14" y2="358.67" gradientTransform="translate(-48796.8 14676.88) rotate(-178.8) scale(43.46)" xlink:href="#_ÂÁ_Ï_ÌÌ_È_ËÂÌÚ_1655"/>
    <linearGradient id="_ÂÁ_Ï_ÌÌ_È_ËÂÌÚ_18-9" data-name="¡ÂÁ˚ÏˇÌÌ˚È „‡‰ËÂÌÚ 18" x1="-1698.41" y1="176.4" x2="-1699.37" y2="197.18" gradientTransform="translate(-1578.29 53) rotate(175.78) scale(1 -1)" xlink:href="#_ÂÁ_Ï_ÌÌ_È_ËÂÌÚ_18"/>
  </defs>
  <g id="Layer_1-2" data-name="Layer 1">
    <g>
      <g>
        <path class="cls-25" d="M249.06,195.07s13,26.47-.73,54.78l.73-54.78Z"/>
        <path class="cls-12" d="M62.82,195.67s-14.56,25.65-2.54,54.72l2.54-54.72Z"/>
        <path class="cls-11" d="M157.88,15.66s43.95-1.37,58.52,34.18c14.57,35.55,15.98,93.32,18.02,109.39,2.04,16.07-8.03,65.75-8.03,65.75l-140.2,3.43s-5.39-114.05-1.2-135.72c4.19-21.67,72.9-77.03,72.9-77.03Z"/>
      </g>
      <path class="cls-49" d="M185.79,142.8s2.56,63.85,8.5,68.3c7.53,5.65,81.88,22.12,86.62,27.53,11.81,13.47,13.3,6.94,16.27,35.16,2.97,28.22-263.41,3.66-263.41,3.66,0,0,7.04-38.03,14.97-41.9,23.11-11.3,63.27-17.65,73.9-21.53,14.89-5.44,12.65-62.3,12.65-62.3l50.5-8.91Z"/>
      <path class="cls-23" d="M151.47,232.3s3.56-6.26,15.53-3.83c0,0-12.3,1.39-15.53,3.83Z"/>
      <path class="cls-20" d="M194.34,209.28c-4.02-3.82-4.56-48.38-4.56-48.38,0,0-58.57,3.22-59.48,2.19.05,4.12.4,33.65,0,36.78-.47,3.57.16,14.26-40.03,22.88,0,0,13.7-.69,38.97-6.27,4.53-1,10.31-6.84,10.31-11.04,0,0,26.92,1.67,40.53-11.43,1.41,10.37,2.72,33.74,6.05,35.9s33.21,5.48,33.21,5.48l3.95-14c-8.56-2.07-24.92-8.29-28.94-12.11Z"/>
      <path class="cls-19" d="M150.98,219.88s-5-6.58-9.27-6.42c-4.27.16-42.52,10.34-47.98,10.83,0,0,14.58-.31,26.31-2.26,11.72-1.96,20.05-6.5,30.94-2.15Z"/>
      <path class="cls-18" d="M166.78,218.56s4.16-5.09,9.52-5.58c5.37-.49,42.82,8.92,49.5,11.21,0,0-47.98-9.31-59.02-5.63Z"/>
      <path class="cls-15" d="M102.35,219.85s-2.95,43.89,53.2,41.12c56.15-2.77,63.75-41.35,63.75-41.35l-18.75-6.53s-4.16,7.7-34.44,7.78c-44.03.13-44.72-8.73-44.72-8.73l-19.04,7.71Z"/>
      <path class="cls-2" d="M264.76,329.27c.73-17.64,33.06-81.23,20.35-91.09-4.13-3.21-17.19-9.09-31.56-13.03-19.94-5.48-41.44-10.22-41.44-10.22,0,0-10.08,14.16-52.71,12.66-49.01-1.73-49.17-12.66-49.17-12.66l-39.03,11.45-25.46,9.01c0,1.71,12.06,75.13,16.98,104.95h200.71c.42-5.89.9-10.97,1.32-11.06Z"/>
      <path class="cls-89" d="M110.25,214.92s-5.16,18.38,56.39,16.28c45.63-1.56,45.48-16.28,45.48-16.28l-6.84-2.21s-.82,11.87-39.78,12.74c-50.25,1.11-48.34-12.74-48.34-12.74l-6.91,2.21Z"/>
      <path class="cls-16" d="M130.44,194.11s-.96-33.75-1.91-41.06l61.44,6.34.3,18.43s-20.39,28.56-59.83,16.29Z"/>
      <path class="cls-79" d="M264.67,256.33l-205.42.23s25.36,78.34,36.56,83.78h138.51c8.41-5.95,30.36-84.01,30.36-84.01Z"/>
      <path class="cls-2" d="M68.5,325.71l-21.06-90.12s-3.14,1.54-9.64,9.63c-5.19,6.46-25.57,69.82-33.58,95.11h62.17l2.11-14.62Z"/>
      <path class="cls-71" d="M43.25,247.88c2.78-4.17,26.46-21.06,26.46-21.06,0,0-24.31,6-29.75,11.29-5.48,5.33-14.09,16.46-22.71,45.5C10.92,304.96,3.53,328.96.01,340.33h14.81c11.18-53.15,23.37-84.86,28.43-92.46Z"/>
      <path class="cls-77" d="M56.13,306.8s-3.57,18.48-6.51,33.53h11.09l-4.58-33.53Z"/>
      <path class="cls-76" d="M.31,339.37l-.31.96h3.28c-1.89-.61-2.97-.96-2.97-.96Z"/>
      <path class="cls-73" d="M47.43,273.87c1.03,7.5,5.24,35.32,9.98,66.46h15.69c-8.26-23.36-25.67-66.46-25.67-66.46Z"/>
      <path class="cls-2" d="M289.89,245.22c-6.5-8.1-9.63-9.63-9.63-9.63l-21.06,90.12,2.3,14.62h61.4c-7.48-24.14-27.74-88.55-33.01-95.11Z"/>
      <path class="cls-75" d="M268.89,305.91l-2.33,34.42h7.1c-2.31-15.99-4.77-34.42-4.77-34.42Z"/>
      <path class="cls-74" d="M280.26,273.87s-17.41,43.11-25.67,66.46h15.55c4.82-31.15,9.09-58.97,10.12-66.46Z"/>
      <path class="cls-72" d="M309.65,279.07c-8.62-29.04-16.62-35.63-22.1-40.96-5.44-5.29-32.22-12.48-32.22-12.48,0,0,25.77,18.07,28.55,22.24,4.91,7.36,17.5,41.61,28.53,92.46h14.18c-4.02-15.21-11.1-41.63-16.93-61.27Z"/>
      <g>
        <path class="cls-80" d="M157.84,14.94c-.11-.07-.16-.09-.16-.09.06.03.11.06.16.09Z"/>
        <g>
          <g>
            <path class="cls-84" d="M98.83,103.23c2.72,20.19,5,35.55,5,35.55-8.64.03-11.83-8.62-15.23-16.24-5.2-11.65-8.28-24.14,3.46-24.85,2.29-.14,6.77,5.55,6.77,5.55Z"/>
            <path class="cls-14" d="M96.17,132s-4.24-4.46-2.96-13.26c3.02-20.78-11.06-22.15-7.82-7.99,0,0,1.92-6.69,3.71-4.7,2.2,2.45-2.34,3.82.02,14.53,1.23,5.56,7.05,11.42,7.05,11.42Z"/>
          </g>
          <g>
            <path class="cls-59" d="M218.51,102.83c-2.59,20.2-4.77,35.58-4.77,35.58,8.64-.03,11.78-8.7,15.12-16.34,5.12-11.68,8.12-24.2-3.62-24.83-2.29-.12-6.74,5.59-6.74,5.59Z"/>
            <path class="cls-13" d="M220.18,131.59s4.21-4.49,2.87-13.28c-3.16-20.75,10.91-22.22,7.76-8.04,0,0-1.97-6.68-3.74-4.67-2.18,2.46,2.36,3.8.08,14.53-1.19,5.57-6.97,11.47-6.97,11.47Z"/>
          </g>
          <path class="cls-3" d="M211.21,38.87c-7.58-17.17-19.22-27.8-45.37-29.37,0,0-59.71,7.99-67.17,25.22-8.13,18.76-5.7,45.07-3.3,62.28,2.4,17.21,7.18,45.1,11.5,52.99,4.32,7.89,26.1,26.28,30.8,29.78,4.39,3.27,11.69,8.78,20.89,8.78,9.66,0,24.12-12.05,28.38-15.41,4.6-3.63,18.57-16.39,22.83-24.31,4.27-7.92,8.94-35.02,11.23-52.24,2.28-17.22-1.51-39-9.77-57.71Z"/>
          <path class="cls-17" d="M142.02,82.76c-7.56-4.07-34.14.05-38.47,3.31-10.09,7.6-2.6,28.86-2.6,28.86,0,0,19.83,21.41,53.35,8.1-2.73-14.05-6.32-37.08-12.27-40.28Z"/>
          <path class="cls-26" d="M133.39,112.12c-7.71-2.28-35.79-8.45-34.33,1.45,3.22,21.9,4.36,29.25,8.19,36.06,4.01,7.13,15.78,18.34,20.85,19.18,7.84,1.31,16.06-27.58,16.21-37.46.22-13.84-3.21-16.95-10.92-19.23Z"/>
          <path class="cls-31" d="M159.21,162.28c-5.5.28-9.91,2.27-9.87,4.45.04,2.18,4.51,3.74,9.99,3.46,5.48-.28,9.89-2.26,9.86-4.45-.04-2.18-4.52-3.73-9.99-3.45Z"/>
          <path class="cls-58" d="M212.94,124.82s6.44-19.86,7.13-23.39c4.03-20.51,8.16-91.35-67.48-86.44-77.79,5.05-52.38,109.17-52.38,109.17,0,0,23.82-91.47,56.98-92.4,0,0,39.59,1.25,55.75,93.07Z"/>
          <polygon class="cls-78" points="100.21 124.15 106.86 149.98 106.24 69.09 98.2 77.33 100.21 124.15"/>
          <path class="cls-32" d="M209.5,87.98c-4.38-3.12-29.31-7.76-37.52-5.22-6.91,2.14-7.26,24.93-9.77,39.18,33.7,12.11,53.21-10.21,53.21-10.21,0,0,4.28-16.49-5.92-23.75Z"/>
          <path class="cls-61" d="M95.67,99.18s5.63,39.84,10.77,50.91c1.67,3.6,11.5,12.99,20.87,21.09,0,0-17.01-20.05-18.84-25.07-4.01-11.01-12.8-46.92-12.8-46.92Z"/>
          <path class="cls-33" d="M180,83.26s17.31-2.96,29.49,4.72l2.99,6.65c.8,4.75-1.58-4.16-32.48-11.37Z"/>
          <path class="cls-21" d="M183.05,104.25c7.69-2.33,37.51-8.7,36.12,1.21-3.07,21.92-5.89,36.99-9.67,43.83-3.96,7.16-15.66,18.44-20.72,19.32-7.83,1.36-16.24-27.47-16.46-37.36-.31-13.84,3.05-24.67,10.74-27Z"/>
          <polygon class="cls-70" points="215.05 127.12 209.12 146.34 207.54 71.18 217.44 76.2 215.05 127.12"/>
          <g>
            <polygon class="cls-34" points="145.9 139.15 157.66 147.19 168.66 138.84 167.08 137.53 157.03 137.69 147.02 137.73 145.9 139.15"/>
            <path class="cls-36" d="M146.25,138.94s4.44-1.4,8.35.24l4.78-.02s4.73-1.84,9.28-.32l.19-2.16-3.81-.76-8.01,2.05-7.33-1.99-3.82.46.36,2.51Z"/>
            <path class="cls-28" d="M144.68,129.64s-2.06,1.16-2.36,4.31c-.34,3.6,3.39,5.55,3.96,5.18.57-.37-.49-3.09,2.95-2.62,3.44.47,3.27,2.2,3.83,2.79s6.61.71,7.63.07c1.02-.64.73-3,3.98-2.91,3.25.09,3.35,2.31,3.82,2.6.47.28,2.39-1.45,2.93-4.76s-2.94-4.73-2.94-4.73c0,0,1.77,2.93,1.03,4.8-.74,1.88-5.75.28-7.79,1.56-3.76,2.38-6.05,1.8-9.81.03-2.47-1.16-5.92.32-7.31-1.71-.48-.7-.61-3.21.08-4.62Z"/>
            <path class="cls-85" d="M149.25,128c-.06,2.3.22,3.27,1.2,4.77,1.5,2.28,12,4.11,13.78-1.14.35-1.05.34-2.68.14-4.74-.22-2.35-15.07-1.18-15.12,1.11Z"/>
          </g>
          <path class="cls-50" d="M220.74,98.76s-5.37,39.88-10.44,50.98c-1.65,3.61-10.34,12.13-20.76,21.13,0,0,15.25-17.69,18.29-25.76,4.13-10.96,12.9-46.35,12.9-46.35Z"/>
          <path class="cls-60" d="M127.31,171.17s14.59,9.13,16.2,10.03c3.21,1.8,6.5,2.97,14.81,3.22,8.1.24,13.04-1.96,15.31-3.49,2.39-1.61,15.88-9.87,17.03-10.98,0,0-10.99,9.4-14.67,12.46-6.01,4.99-13.09,6.45-17.52,6.47-5.58.02-10.17-2.21-14.96-4.89-5.22-2.92-16.21-12.8-16.21-12.8Z"/>
          <path class="cls-81" d="M175.08,75.53c-1.07.88-2.23,4.11-1.89,5.98.54-2.85,2.34-5.78,4.36-6.09.18,0,.39-.01.6-.01-1.5.93-2.59,2.54-2.85,4.69.89-1.46,2.56-4.02,4.67-4.6,5.77.25,14.41,2.94,18.06,4.41,5.19,2.08,12.7,8.37,12.7,8.37,0,0-9.05-2.14-13.94-3.45-3.15-.83-20.57-1.79-24.82-2.07-.56-.04-.6-5.74,3.1-7.23Z"/>
          <path class="cls-52" d="M138.92,75.53c1.07.88,2.23,4.11,1.89,5.98-.54-2.85-2.34-5.78-4.36-6.09-.18,0-.39-.01-.6-.01,1.5.93,2.59,2.54,2.85,4.69-.89-1.46-2.56-4.02-4.67-4.6-5.77.25-14.41,2.94-18.06,4.41-5.19,2.08-12.7,8.37-12.7,8.37,0,0,9.05-2.14,13.94-3.45,3.15-.83,20.57-1.79,24.82-2.07.56-.04.6-5.74-3.1-7.23Z"/>
          <path class="cls-4" d="M115.02,117.42c-2.73-.59-5.18.25-5.47,1.89-.3,1.65,1.68,3.46,4.4,4.06,2.73.59,5.18-.25,5.48-1.89.29-1.65-1.68-3.46-4.41-4.06Z"/>
          <path class="cls-22" d="M199.43,117.14c2.72-.61,5.18.22,5.48,1.86.31,1.64-1.65,3.47-4.37,4.09-2.73.61-5.18-.22-5.49-1.85-.3-1.64,1.66-3.47,4.38-4.09Z"/>
        </g>
        <path class="cls-10" d="M216.6,133.03s-12.46,37.48-18.03,49.89c-5.58,12.41-.12,54.39-.12,54.39,0,0,31-59.49,27.39-86.47-3.61-26.98-9.23-17.81-9.23-17.81Z"/>
        <path class="cls-9" d="M241.17,213.59s4.11,16.72,14.49,25.54c0,0-12.76-2.4-15.78-9.9-3.02-7.49,1.29-15.64,1.29-15.64Z"/>
        <path class="cls-8" d="M77.7,210.91s-4,16.75-14.32,25.63c0,0,12.74-2.49,15.71-10,2.97-7.51-1.39-15.63-1.39-15.63Z"/>
        <path class="cls-7" d="M128.36,209.6c-2.09-25.72-13.81-44.52-19.54-51.91-9.38-12.12-10.32-39.61-10.32-39.61,0,0-5.54,44.5-7.77,60.44-3.44,24.6,7.28,57.91,18.46,65.14,7.29-12.84,8.15-27.62,5.57-45.95,9.89,19.49,2.14,38.03.17,49.91,7.5-8.42,14.33-27.07,13.44-38.03Z"/>
        <path class="cls-87" d="M217.04,106.97c2.39,12.74,3.72,26.31,3.77,40.14.13,34.77-17.07,98.07-34.83,101.03,5.57-.77,20.67-1.97,32.57-18.91.78,6.21-6.52,10.77-12.09,15.49,11.27-6.1,16.54-11.51,16.54-11.51-2.81,5.12-4.62,9.18-13.89,16.05,5.72-.93,22.77-11.97,30.75-22.87,4.92-11.5,9.57-22.73,12.14-35.89-2.03-19.52-8.03-38.07-18.54-56.6-5.48-8.71-11.62-17.42-16.43-26.94Z"/>
        <path class="cls-6" d="M243.93,143.68c-.54-5.11-14.01-86.2-20.62-99.82C197.55-9.26,157.79,8.84,157.79,8.84l-2.99,20.62c29.55-5.63,53.35,30.17,62.24,77.52,4.81,9.51,10.95,18.22,16.43,26.94,10.5,18.53,12.51,25.42,10.45,9.77Z"/>
        <path class="cls-5" d="M104.67,15.99c-19.21,16.95-24.65,36.28-26.87,49.36-1.31,7.74-8.11,55.8-11.56,88.71,8.06-17.22,17.7-22.2,30.11-35.94.55-.83,1.04-1.67,1.51-2.51,1.26-28.54,6.47-52.39,22.95-68.59,20.73-20.37,34-17.57,34-17.57l2.99-20.62c-10-8.02-41.59-3.02-53.12,7.15Z"/>
        <path class="cls-86" d="M66.24,154.06c-13.14,27.42-7.65,55.83-.22,65.75,6.18,7.2,17.11,18.57,25.34,23.81-3.24-4.14-8.61-13.99-7.93-20.01,5.56,18.38,28.65,23.2,31.5,24.02-21.29-17.45-24.27-32.03-24.99-58.86-.51-18.75,7.21-56.89,7.93-73.15-.47.85-.96,1.69-1.51,2.51-12.4,13.74-22.05,18.72-30.11,35.94Z"/>
        <path class="cls-42" d="M155.3,29.41s25.93-12.01,42.48,9c16.55,21,16.31,65.79,25.8,89.89,9.5,24.1,24.04,59.03,17.99,78.72-6.05,19.69-23.19,35.38-23.19,35.38,0,0,19.93-25.29,16.56-49.16-3.37-23.86-19.14-47.54-22.92-73.47-3.78-25.93-8.26-63.4-26.13-80.07s-30.58-10.29-30.58-10.29Z"/>
        <path class="cls-62" d="M157.67,14.84s-38.22-6.54-53.64,27.23-29.74,73.84-29.74,73.84c0,0,20.65-76.42,23.76-83.39,4.53-10.16,28.93-38.57,59.62-17.68Z"/>
        <path class="cls-63" d="M159.96,12.69s22.05-6.34,45.99,18.79c13.13,13.78,18.86,87.65,18.86,87.65,0,0,1.58-58.82-4.26-78.51-5.84-19.69-36.56-48.45-60.59-27.93Z"/>
        <path class="cls-82" d="M89.74,132.53s-18.77,33-21,54.75c-2.23,21.75-10,40.76-21.04,43.05,0,0,14.73-2.98,21.14-11.46,6.42-8.48,11.29-66.49,20.9-86.34Z"/>
        <path class="cls-43" d="M107.92,76.85s-9.84,28.54-15.15,63.94c-4.32,28.79-9.26,41.12-7.33,59.5,2.13,20.21,8.73,41.05,29.47,47.34,0,0-16.19-7.98-21.43-47.37-1.83-13.75,2.36-36.76,5.7-59.5,4.78-32.52,8.73-63.92,8.73-63.92Z"/>
        <path class="cls-44" d="M216.6,167.09s7.36,75.15-30.62,81.05c0,0,23.44-9.81,30.62-81.05Z"/>
        <path class="cls-45" d="M206.36,156.49s-7.33,15.36-13.51,28.23c-6.19,12.87.14,42.49.14,42.49,0,0-.67-21.2,4.53-34.19,5.2-12.99,8.84-36.53,8.84-36.53Z"/>
        <path class="cls-35" d="M110.78,159.65s12.25,14.47,17.84,33.43c5.59,18.96-3.99,47.63-3.99,47.63,0,0,3.4-34.22-.17-50.04-3.57-15.82-13.69-31.03-13.69-31.03Z"/>
        <path class="cls-38" d="M81.56,199.69s-2.95,30.11,12.17,45.25c0,0-28.66-8.05-12.17-45.25Z"/>
        <path class="cls-37" d="M225.12,205.59s6.06,28.14-19.61,39.59c0,0,21.16-18.41,19.61-39.59Z"/>
        <path class="cls-39" d="M157.81,14.23s17.27-8.34,48.65,4.73c0,0-20.39-22.56-46.15-14.15,0,0-26.93-15.8-54,9.89,0,0,7.77-6.18,21.28-7.86,11.26-1.4,28.45.87,30.23,7.4Z"/>
        <path class="cls-69" d="M204.7,76.72s.26-25.31-12.88-37.72c-13.14-12.41-25.48-12.77-36.52-9.59,0,0,14.45-2.84,26.94,8.44,12.49,11.27,16.08,18.17,22.46,38.87Z"/>
        <path class="cls-68" d="M155.3,29.41s-10.24-1.62-17.57.78c-14.2,4.65-21.12,20.78-24.8,43.84,0,0,4.17-26.34,23.85-37.73,10.62-6.15,18.53-6.9,18.53-6.9Z"/>
        <path class="cls-65" d="M159.96,14.93s34.65-16.73,51.62,24.93c12.39,30.43,10.39,61.37,10.39,61.37,0,0-2.06-50.8-29.03-76.96-15.32-14.86-32.98-9.33-32.98-9.33Z"/>
        <path class="cls-64" d="M157.67,14.84s-12.21-5.27-27.94.19c-12.26,4.26-21.97,15.93-27.41,29.33-3.56,8.78-11.9,32.83-21.13,52.97,0,0,20.17-27.27,27.26-50.34,5.13-16.71,24.39-36.08,49.21-32.15Z"/>
        <path class="cls-67" d="M225.83,67.32s-1.56,48.98,23.65,101.95l-23.65-101.95Z"/>
        <path class="cls-66" d="M98.19,74.08l-32.05,75.48s30.61-25.28,32.05-75.48Z"/>
        <path class="cls-24" d="M227.92,120.17s15.65,22,22.84,42.78c7.89,22.79,5.7,40.89-8.71,62.09,0,0,8.84-25.29-.22-65.82-3.63-16.26-13.91-39.05-13.91-39.05Z"/>
        <path class="cls-40" d="M155.3,29.41s-22.37-12.64-38.58,11.31c-13.57,20.05-13.86,53.23-34.22,83.52-8.44,12.55-28.93,33.17-29.31,59.16,0,0,2.39-12.75,23.02-36.59,20.63-23.84,32.44-52.5,37.81-78.25,7.51-36.01,25.39-41.34,41.28-39.16Z"/>
        <path class="cls-51" d="M104.89,156.83s20.45,50.58,5.94,83.67c0,0-3.17-67.28-5.94-83.67Z"/>
        <g>
          <g>
            <path class="cls-88" d="M142.34,151.17s8.3-6.16,10.87-6.77c2.57-.61,7.53-.55,8.99,0,1.45.55,12.47,6.77,12.47,6.77,0,0-14.65-3.43-17.52-3.44s-14.81,3.44-14.81,3.44Z"/>
            <g>
              <path class="cls-47" d="M174.28,151.59c3.42,0,9.83,1.67,9.47,3.34-.37,1.67-9.88-2.59-14.06.76.84-.84,4.59-4.1,4.59-4.1Z"/>
              <path class="cls-83" d="M142.38,151.51c-3.24.58-9.55,1.81-9.71,3.07-.16,1.26,8.16-.23,11.61-.71-.79-1.13-1.89-2.35-1.89-2.35Z"/>
              <path class="cls-41" d="M144,154.71c3.67,3.34,7.21,5,14,5,7.14,0,12.51-3.18,14.19-5.69-2.51,0-8.16-.57-8.99-.56-2.78.09-5.88.18-8.77.27-1.44.04-10.43.98-10.43.98Z"/>
              <g>
                <path class="cls-27" d="M182.23,154.02c-.34.84-9.33-1.45-14.87-1.99-1.23.13-17.97.09-19.02.07-4.95.28-13.01,3.2-13.78,1.92-.39-.64,2.4-.83,5.78-1.86,3.37-1.04,7.36-2.44,11.79-3.38.61-.13,7.26-.02,10.72.18,1.16.08,11.68,2.39,14.73,3.41.88.27,4.99.82,4.65,1.66Z"/>
                <path class="cls-30" d="M139.36,152.44c3.46-1.15,9.97-4.93,10.69-5.24,4.59-2,11.5-1.53,14.51-.44,2.88,1.05,9.07,4.11,13.02,5.61-4.2-1.01-7.06-1.69-10.85-1.66-.46-.03-3.02-.15-4.68-.34s-4.23-.47-5-.47c-.65,0-2.84.39-4.29.63-.72.12-2.15.09-2.92.18-2.74-.02-9.75,1.49-10.48,1.74Z"/>
                <path class="cls-30" d="M139,153.84c3.88-1.4,9.53-2.47,11.72-2.79s6.21-.31,6.97-.31c.6,0,4.07-.03,6.44.22,2.37.25,8.44.97,13.45,2.74-4.65-.23-6.71,1.72-11.97,3.11-3.52.93-10.85,1.15-13.79.44-3.23-.78-7.23-2.38-10.78-3.21-1.08-.28-2.03-.19-2.03-.19Z"/>
                <path class="cls-48" d="M145.1,153.14c.93-1.21,26.39-2.51,26.7.18.12.99-6.13,2.69-9.82,3.15-2.89.36-8.63.19-10.77-.29-.71-.16-7.34-1.98-6.11-3.05Z"/>
                <path class="cls-29" d="M167.71,153.55c-.07.47-1.53,1.61-3.09,2.01-1.38.31-2.02.39-2.93.39-.84,0-2.29,0-2.23-.49.06-.48,3.68-1.04,4.74-1.36,1.07-.32,3.58-1.01,3.51-.55Z"/>
                <path class="cls-46" d="M147.42,149.58c.28-.91,4-2.75,5.68-3.03,4.8-.8,8.71-.07,10.25.2.89.16,6.79,2.41,5.47,3.32-1.36.94-8.89-.91-11.17-.91s-10.67,1.89-10.23.42Z"/>
              </g>
            </g>
          </g>
          <g>
            <g>
              <path class="cls-55" d="M192.2,100.15c-19.54-1.64-21.69,15.92-21.69,15.92,0,0,8.89-4.44,18.56-3.17,4.41.59,11.59,3.79,13.82.28,4.29-6.74-3.16-12.4-10.69-13.03Z"/>
              <path class="cls-53" d="M203.17,111.51c4.45-1.25,4.07-7.27,4.13-7.49-.1.04-4.08,5.05-9.46,2.52-12-5.64-22.35,1.55-26.49,8.5,0,0,11.2-8.63,24.54-2.47,7.51,3.47,10.16-.77,10.13-.75-1.47.47-2.86-.23-2.84-.31Z"/>
              <path class="cls-54" d="M173.95,107.62s2.95-4.82,8.74-6.76c5.05-1.69,12.02-2.19,17.6,2.1,0,0-7.08-4.36-17.1-1.44-4.06,1.18-9.24,6.11-9.24,6.11Z"/>
            </g>
            <g>
              <path class="cls-57" d="M123.47,100.2c19.51-1.97,21.95,15.55,21.95,15.55,0,0-8.96-4.29-18.61-2.86-4.4.66-11.52,3.98-13.82.51-4.41-6.67,2.95-12.45,10.47-13.21Z"/>
              <path class="cls-1" d="M112.7,111.75c-4.47-1.18-4.19-7.2-4.25-7.42.1.04,4.17,4.98,9.5,2.36,11.9-5.84,22.37,1.17,26.63,8.05,0,0-11.34-8.44-24.58-2.06-7.45,3.6-10.17-.6-10.14-.58,1.47.44,2.86-.28,2.84-.36Z"/>
              <path class="cls-56" d="M141.84,107.37s-3.03-4.77-8.85-6.62c-5.07-1.6-12.06-1.99-17.56,2.39,0,0,7.01-4.48,17.07-1.73,4.08,1.12,9.34,5.95,9.34,5.95Z"/>
            </g>
          </g>
        </g>
      </g>
    </g>
  </g>
</svg>