<?xml version="1.0" encoding="UTF-8"?>
<svg id="Layer_2" data-name="Layer 2" xmlns="http://www.w3.org/2000/svg" width="221.01" height="221.01" xmlns:xlink="http://www.w3.org/1999/xlink" viewBox="0 0 221.01 221.01">
  <defs>
    <clipPath id="clippath">
      <rect width="221.01" height="221.01" style="fill: none;"/>
    </clipPath>
    <linearGradient id="_ÂÁ_Ï_ÌÌ_È_ËÂÌÚ_34" data-name="¡ÂÁ˚ÏˇÌÌ˚È „‡‰ËÂÌÚ 34" x1="81.37" y1="146.84" x2="62.22" y2="80.28" gradientTransform="translate(170.47 89.15) rotate(11.7)" gradientUnits="userSpaceOnUse">
      <stop offset="0" stop-color="#3b2621"/>
      <stop offset=".39" stop-color="#3e2822"/>
      <stop offset=".71" stop-color="#482e29"/>
      <stop offset="1" stop-color="#593a33"/>
    </linearGradient>
    <linearGradient id="_ÂÁ_Ï_ÌÌ_È_ËÂÌÚ_34-2" data-name="¡ÂÁ˚ÏˇÌÌ˚È „‡‰ËÂÌÚ 34" x1="669.46" y1="-72.11" x2="650.32" y2="-138.66" gradientTransform="translate(668.16 8.59) rotate(149.85) scale(1 -1)" xlink:href="#_ÂÁ_Ï_ÌÌ_È_ËÂÌÚ_34"/>
    <linearGradient id="_ÂÁ_Ï_ÌÌ_È_ËÂÌÚ_34-3" data-name="¡ÂÁ˚ÏˇÌÌ˚È „‡‰ËÂÌÚ 34" x1="129.26" y1="70.25" x2="205.98" y2="-374.78" gradientTransform="translate(-23.41 255.9) rotate(-9.22)" xlink:href="#_ÂÁ_Ï_ÌÌ_È_ËÂÌÚ_34"/>
    <linearGradient id="linear-gradient" x1="165.95" y1="208.14" x2="118.46" y2="215.14" gradientUnits="userSpaceOnUse">
      <stop offset="0" stop-color="#f0c499"/>
      <stop offset=".52" stop-color="#f1c69b"/>
      <stop offset=".85" stop-color="#f4cea4"/>
      <stop offset="1" stop-color="#f7d4ab"/>
    </linearGradient>
    <linearGradient id="linear-gradient-2" x1="78.38" y1="174.11" x2="157.93" y2="198.29" xlink:href="#linear-gradient"/>
    <linearGradient id="linear-gradient-3" x1="282.91" y1="103.28" x2="384.53" y2="165.03" gradientTransform="translate(-272.36 172.16) rotate(-16.11)" xlink:href="#linear-gradient"/>
    <linearGradient id="linear-gradient-4" x1="237.58" y1="182.11" x2="125.98" y2="213.46" xlink:href="#linear-gradient"/>
    <linearGradient id="linear-gradient-5" x1="93.48" y1="230.39" x2="231.17" y2="192.87" xlink:href="#linear-gradient"/>
    <linearGradient id="_ÂÁ_Ï_ÌÌ_È_ËÂÌÚ_29" data-name="¡ÂÁ˚ÏˇÌÌ˚È „‡‰ËÂÌÚ 29" x1="133.25" y1="230.48" x2="130.07" y2="199.85" gradientUnits="userSpaceOnUse">
      <stop offset="0" stop-color="#d6b01f"/>
      <stop offset=".42" stop-color="#e0bc26"/>
      <stop offset="1" stop-color="#f5d534"/>
    </linearGradient>
    <linearGradient id="linear-gradient-6" x1="123.07" y1="149.78" x2="131.28" y2="184.54" gradientUnits="userSpaceOnUse">
      <stop offset="0" stop-color="#dba379"/>
      <stop offset=".49" stop-color="#e3b086"/>
      <stop offset="1" stop-color="#f0c499"/>
    </linearGradient>
    <linearGradient id="_ÂÁ_Ï_ÌÌ_È_ËÂÌÚ_30" data-name="¡ÂÁ˚ÏˇÌÌ˚È „‡‰ËÂÌÚ 30" x1="6922.53" y1="343.07" x2="6903.59" y2="171.97" gradientTransform="translate(-6664.72)" gradientUnits="userSpaceOnUse">
      <stop offset="0" stop-color="#f5d534"/>
      <stop offset=".47" stop-color="#f7d942"/>
      <stop offset="1" stop-color="#f9de4f"/>
    </linearGradient>
    <linearGradient id="_ÂÁ_Ï_ÌÌ_È_ËÂÌÚ_30-2" data-name="¡ÂÁ˚ÏˇÌÌ˚È „‡‰ËÂÌÚ 30" x1="398.77" y1="309.62" x2="352.04" y2="220.28" gradientTransform="translate(363.8) rotate(-180) scale(1 -1)" xlink:href="#_ÂÁ_Ï_ÌÌ_È_ËÂÌÚ_30"/>
    <linearGradient id="_ÂÁ_Ï_ÌÌ_È_ËÂÌÚ_14" data-name="¡ÂÁ˚ÏˇÌÌ˚È „‡‰ËÂÌÚ 14" x1="179.6" y1="-255.96" x2="179.51" y2="-256.21" gradientTransform="translate(-31.57 305.7) rotate(-11.47)" gradientUnits="userSpaceOnUse">
      <stop offset="0" stop-color="#cb8076"/>
      <stop offset=".31" stop-color="#b76f65"/>
      <stop offset=".95" stop-color="#86443a"/>
      <stop offset="1" stop-color="#824137"/>
    </linearGradient>
    <linearGradient id="_ÂÁ_Ï_ÌÌ_È_ËÂÌÚ_1259" data-name="¡ÂÁ˚ÏˇÌÌ˚È „‡‰ËÂÌÚ 1259" x1="109.93" y1="-137.5" x2="102.35" y2="-161.14" gradientTransform="translate(-20.39 297.52) rotate(-10.74)" gradientUnits="userSpaceOnUse">
      <stop offset="0" stop-color="#dba379"/>
      <stop offset=".49" stop-color="#e3b086"/>
      <stop offset="1" stop-color="#f0c499"/>
    </linearGradient>
    <linearGradient id="linear-gradient-7" x1="-2897.56" y1="3.77" x2="-2896.02" y2="57.7" gradientTransform="translate(2926.09 -294.64) rotate(-11.47)" xlink:href="#linear-gradient-6"/>
    <linearGradient id="_ÂÁ_Ï_ÌÌ_È_ËÂÌÚ_1259-2" data-name="¡ÂÁ˚ÏˇÌÌ˚È „‡‰ËÂÌÚ 1259" x1="217.59" y1="-156.04" x2="235.81" y2="-156.04" xlink:href="#_ÂÁ_Ï_ÌÌ_È_ËÂÌÚ_1259"/>
    <linearGradient id="linear-gradient-8" x1="-349.84" y1="3.97" x2="-348.3" y2="57.9" gradientTransform="translate(-140.59 327.56) rotate(168.53) scale(1 -1)" xlink:href="#linear-gradient-6"/>
    <linearGradient id="_ÂÁ_Ï_ÌÌ_È_ËÂÌÚ_384" data-name="¡ÂÁ˚ÏˇÌÌ˚È „‡‰ËÂÌÚ 384" x1="179.01" y1="-239.65" x2="178.79" y2="-93.61" gradientTransform="translate(-31.57 305.7) rotate(-11.47)" gradientUnits="userSpaceOnUse">
      <stop offset="0" stop-color="#ffd9b3"/>
      <stop offset=".32" stop-color="#f9d5ad"/>
      <stop offset="1" stop-color="#f7d4ab"/>
    </linearGradient>
    <linearGradient id="linear-gradient-9" x1="152.25" y1="-147.24" x2="145.41" y2="-189.56" gradientTransform="translate(-31.57 305.7) rotate(-11.47)" gradientUnits="userSpaceOnUse">
      <stop offset="0" stop-color="#f7d4ab"/>
      <stop offset=".52" stop-color="#f5d1a8"/>
      <stop offset=".85" stop-color="#f2c99f"/>
      <stop offset="1" stop-color="#f0c499"/>
    </linearGradient>
    <radialGradient id="radial-gradient" cx="-213.49" cy="-145.58" fx="-213.49" fy="-145.58" r="30.19" gradientTransform="translate(274.67 243.21) rotate(-11.48) scale(.79 1)" gradientUnits="userSpaceOnUse">
      <stop offset="0" stop-color="#f9b38e"/>
      <stop offset=".61" stop-color="#f7c59e"/>
      <stop offset="1" stop-color="#f7d4ab"/>
    </radialGradient>
    <linearGradient id="linear-gradient-10" x1="165.22" y1="-107.31" x2="189.81" y2="-107.31" gradientTransform="translate(-31.57 305.7) rotate(-11.47)" gradientUnits="userSpaceOnUse">
      <stop offset="0" stop-color="#ffd9b3"/>
      <stop offset=".68" stop-color="#fcd7b0"/>
      <stop offset="1" stop-color="#f7d4ab"/>
    </linearGradient>
    <linearGradient id="_ÂÁ_Ï_ÌÌ_È_ËÂÌÚ_1259-3" data-name="¡ÂÁ˚ÏˇÌÌ˚È „‡‰ËÂÌÚ 1259" x1="223.03" y1="-228.13" x2="139.94" y2="-160.17" gradientTransform="translate(-31.57 305.7) rotate(-11.47)" xlink:href="#_ÂÁ_Ï_ÌÌ_È_ËÂÌÚ_1259"/>
    <linearGradient id="_ÂÁ_Ï_ÌÌ_È_ËÂÌÚ_13" data-name="¡ÂÁ˚ÏˇÌÌ˚È „‡‰ËÂÌÚ 13" x1="131.18" y1="-123.82" x2="126.96" y2="-194.93" gradientTransform="translate(-31.57 305.7) rotate(-11.47)" gradientUnits="userSpaceOnUse">
      <stop offset="0" stop-color="#f9b38e"/>
      <stop offset=".5" stop-color="#f7b690"/>
      <stop offset=".9" stop-color="#f2c096"/>
      <stop offset="1" stop-color="#f0c499"/>
    </linearGradient>
    <linearGradient id="linear-gradient-11" x1="210.88" y1="-153.44" x2="204.53" y2="-188.69" xlink:href="#linear-gradient-9"/>
    <linearGradient id="_ÂÁ_Ï_ÌÌ_È_ËÂÌÚ_1259-4" data-name="¡ÂÁ˚ÏˇÌÌ˚È „‡‰ËÂÌÚ 1259" x1="120.76" y1="-142.97" x2="150.35" y2="-142.97" gradientTransform="translate(-31.57 305.7) rotate(-11.47)" xlink:href="#_ÂÁ_Ï_ÌÌ_È_ËÂÌÚ_1259"/>
    <linearGradient id="linear-gradient-12" x1="203.92" y1="-181.46" x2="231.1" y2="-181.46" xlink:href="#linear-gradient-10"/>
    <radialGradient id="radial-gradient-2" cx="3094.56" cy="-146.03" fx="3094.56" fy="-146.03" r="30.19" gradientTransform="translate(2585.68 -225.48) rotate(168.52) scale(.79 -1)" xlink:href="#radial-gradient"/>
    <linearGradient id="_ÂÁ_Ï_ÌÌ_È_ËÂÌÚ_13-2" data-name="¡ÂÁ˚ÏˇÌÌ˚È „‡‰ËÂÌÚ 13" x1="554.99" y1="-127.08" x2="551.07" y2="-193.06" gradientTransform="translate(734.53 149.94) rotate(168.53) scale(1 -1)" xlink:href="#_ÂÁ_Ï_ÌÌ_È_ËÂÌÚ_13"/>
    <linearGradient id="_ÂÁ_Ï_ÌÌ_È_ËÂÌÚ_1259-5" data-name="¡ÂÁ˚ÏˇÌÌ˚È „‡‰ËÂÌÚ 1259" x1="-2779.6" y1="-176.67" x2="-2810.13" y2="-164.81" gradientTransform="translate(2909.11 -291.19) rotate(-11.47)" xlink:href="#_ÂÁ_Ï_ÌÌ_È_ËÂÌÚ_1259"/>
    <linearGradient id="_ÂÁ_Ï_ÌÌ_È_ËÂÌÚ_131" data-name="¡ÂÁ˚ÏˇÌÌ˚È „‡‰ËÂÌÚ 131" x1="-2809.41" y1="-169.55" x2="-2800.05" y2="-169.55" gradientTransform="translate(2909.11 -291.19) rotate(-11.47)" gradientUnits="userSpaceOnUse">
      <stop offset="0" stop-color="#fff"/>
      <stop offset=".41" stop-color="#fcfcfc"/>
      <stop offset=".69" stop-color="#f3f3f3"/>
      <stop offset=".92" stop-color="#e4e4e4"/>
      <stop offset="1" stop-color="#ddd"/>
    </linearGradient>
    <linearGradient id="_ÂÁ_Ï_ÌÌ_È_ËÂÌÚ_133" data-name="¡ÂÁ˚ÏˇÌÌ˚È „‡‰ËÂÌÚ 133" x1="4131.99" y1="-166.83" x2="4134.88" y2="-164.76" gradientTransform="translate(4208.67 -555.24) rotate(168.53) scale(1 -1)" gradientUnits="userSpaceOnUse">
      <stop offset="0" stop-color="#fff"/>
      <stop offset=".46" stop-color="#f2f2f2"/>
      <stop offset="1" stop-color="#ddd"/>
    </linearGradient>
    <linearGradient id="_ÂÁ_Ï_ÌÌ_È_ËÂÌÚ_131-2" data-name="¡ÂÁ˚ÏˇÌÌ˚È „‡‰ËÂÌÚ 131" x1="-2788.69" y1="-169.83" x2="-2781.24" y2="-169.83" xlink:href="#_ÂÁ_Ï_ÌÌ_È_ËÂÌÚ_131"/>
    <linearGradient id="_ÂÁ_Ï_ÌÌ_È_ËÂÌÚ_389" data-name="¡ÂÁ˚ÏˇÌÌ˚È „‡‰ËÂÌÚ 389" x1="217.9" y1="-161.19" x2="198.93" y2="-172.66" gradientTransform="translate(-31.57 305.7) rotate(-11.47)" gradientUnits="userSpaceOnUse">
      <stop offset="0" stop-color="#b89c8c"/>
      <stop offset="1" stop-color="#715241"/>
    </linearGradient>
    <linearGradient id="_ÂÁ_Ï_ÌÌ_È_ËÂÌÚ_389-2" data-name="¡ÂÁ˚ÏˇÌÌ˚È „‡‰ËÂÌÚ 389" x1="4115.01" y1="-169.31" x2="4130.48" y2="-169.31" gradientTransform="translate(4208.67 -555.24) rotate(168.53) scale(1 -1)" xlink:href="#_ÂÁ_Ï_ÌÌ_È_ËÂÌÚ_389"/>
    <linearGradient id="_ÂÁ_Ï_ÌÌ_È_ËÂÌÚ_387" data-name="¡ÂÁ˚ÏˇÌÌ˚È „‡‰ËÂÌÚ 387" x1="4121.78" y1="-164.77" x2="4123.81" y2="-149.59" gradientTransform="translate(4208.67 -555.24) rotate(168.53) scale(1 -1)" gradientUnits="userSpaceOnUse">
      <stop offset="0" stop-color="#715241"/>
      <stop offset="1" stop-color="#b89c8c"/>
    </linearGradient>
    <radialGradient id="_ÂÁ_Ï_ÌÌ_È_ËÂÌÚ_128" data-name="¡ÂÁ˚ÏˇÌÌ˚È „‡‰ËÂÌÚ 128" cx="4120.92" cy="-169.99" fx="4120.92" fy="-169.99" r="5.53" gradientTransform="translate(4208.67 -555.24) rotate(168.53) scale(1 -1)" gradientUnits="userSpaceOnUse">
      <stop offset="0" stop-color="#666"/>
      <stop offset="1" stop-color="#1d1d1d"/>
    </radialGradient>
    <linearGradient id="_ÂÁ_Ï_ÌÌ_È_ËÂÌÚ_1655" data-name="¡ÂÁ˚ÏˇÌÌ˚È „‡‰ËÂÌÚ 1655" x1="-2809.4" y1="-170.49" x2="-2774.99" y2="-170.49" gradientTransform="translate(2909.11 -291.19) rotate(-11.47)" gradientUnits="userSpaceOnUse">
      <stop offset="0" stop-color="#4d322e"/>
      <stop offset=".06" stop-color="#4a302c"/>
      <stop offset=".55" stop-color="#3d2622"/>
      <stop offset="1" stop-color="#39231f"/>
    </linearGradient>
    <linearGradient id="_ÂÁ_Ï_ÌÌ_È_ËÂÌÚ_1259-6" data-name="¡ÂÁ˚ÏˇÌÌ˚È „‡‰ËÂÌÚ 1259" x1="-2794.47" y1="-180.03" x2="-2817.23" y2="-151.06" gradientTransform="translate(2909.11 -291.19) rotate(-11.47)" xlink:href="#_ÂÁ_Ï_ÌÌ_È_ËÂÌÚ_1259"/>
    <linearGradient id="_ÂÁ_Ï_ÌÌ_È_ËÂÌÚ_44" data-name="¡ÂÁ˚ÏˇÌÌ˚È „‡‰ËÂÌÚ 44" x1="4124.87" y1="-152.03" x2="4122.46" y2="-162.66" gradientTransform="translate(4208.67 -555.24) rotate(168.53) scale(1 -1)" gradientUnits="userSpaceOnUse">
      <stop offset="0" stop-color="#38221e"/>
      <stop offset=".77" stop-color="#291915"/>
    </linearGradient>
    <linearGradient id="_ÂÁ_Ï_ÌÌ_È_ËÂÌÚ_1259-7" data-name="¡ÂÁ˚ÏˇÌÌ˚È „‡‰ËÂÌÚ 1259" x1="1190" y1="-176.44" x2="1159.48" y2="-164.58" gradientTransform="translate(1268 41.65) rotate(168.53) scale(1 -1)" xlink:href="#_ÂÁ_Ï_ÌÌ_È_ËÂÌÚ_1259"/>
    <linearGradient id="_ÂÁ_Ï_ÌÌ_È_ËÂÌÚ_131-3" data-name="¡ÂÁ˚ÏˇÌÌ˚È „‡‰ËÂÌÚ 131" x1="1160.19" y1="-169.32" x2="1169.55" y2="-169.32" gradientTransform="translate(1268 41.65) rotate(168.53) scale(1 -1)" xlink:href="#_ÂÁ_Ï_ÌÌ_È_ËÂÌÚ_131"/>
    <linearGradient id="_ÂÁ_Ï_ÌÌ_È_ËÂÌÚ_133-2" data-name="¡ÂÁ˚ÏˇÌÌ˚È „‡‰ËÂÌÚ 133" x1="162.39" y1="-167.17" x2="165.28" y2="-165.09" gradientTransform="translate(-31.57 305.7) rotate(-11.47)" xlink:href="#_ÂÁ_Ï_ÌÌ_È_ËÂÌÚ_133"/>
    <linearGradient id="_ÂÁ_Ï_ÌÌ_È_ËÂÌÚ_131-4" data-name="¡ÂÁ˚ÏˇÌÌ˚È „‡‰ËÂÌÚ 131" x1="1180.92" y1="-169.6" x2="1188.36" y2="-169.6" gradientTransform="translate(1268 41.65) rotate(168.53) scale(1 -1)" xlink:href="#_ÂÁ_Ï_ÌÌ_È_ËÂÌÚ_131"/>
    <linearGradient id="_ÂÁ_Ï_ÌÌ_È_ËÂÌÚ_387-2" data-name="¡ÂÁ˚ÏˇÌÌ˚È „‡‰ËÂÌÚ 387" x1="147.34" y1="-172.42" x2="166.23" y2="-151.78" gradientTransform="translate(-31.57 305.7) rotate(-11.47)" xlink:href="#_ÂÁ_Ï_ÌÌ_È_ËÂÌÚ_387"/>
    <linearGradient id="_ÂÁ_Ï_ÌÌ_È_ËÂÌÚ_387-3" data-name="¡ÂÁ˚ÏˇÌÌ˚È „‡‰ËÂÌÚ 387" x1="143.59" y1="-169.64" x2="159.06" y2="-169.64" gradientTransform="translate(-31.57 305.7) rotate(-11.47)" xlink:href="#_ÂÁ_Ï_ÌÌ_È_ËÂÌÚ_387"/>
    <linearGradient id="_ÂÁ_Ï_ÌÌ_È_ËÂÌÚ_389-3" data-name="¡ÂÁ˚ÏˇÌÌ˚È „‡‰ËÂÌÚ 389" x1="163.04" y1="-154.67" x2="152.52" y2="-169.76" xlink:href="#_ÂÁ_Ï_ÌÌ_È_ËÂÌÚ_389"/>
    <radialGradient id="_ÂÁ_Ï_ÌÌ_È_ËÂÌÚ_128-2" data-name="¡ÂÁ˚ÏˇÌÌ˚È „‡‰ËÂÌÚ 128" cx="151.31" cy="-170.33" fx="151.31" fy="-170.33" r="5.53" gradientTransform="translate(-31.57 305.7) rotate(-11.47)" xlink:href="#_ÂÁ_Ï_ÌÌ_È_ËÂÌÚ_128"/>
    <linearGradient id="_ÂÁ_Ï_ÌÌ_È_ËÂÌÚ_1655-2" data-name="¡ÂÁ˚ÏˇÌÌ˚È „‡‰ËÂÌÚ 1655" x1="1160.21" y1="-170.26" x2="1194.61" y2="-170.26" gradientTransform="translate(1268 41.65) rotate(168.53) scale(1 -1)" xlink:href="#_ÂÁ_Ï_ÌÌ_È_ËÂÌÚ_1655"/>
    <linearGradient id="_ÂÁ_Ï_ÌÌ_È_ËÂÌÚ_1259-8" data-name="¡ÂÁ˚ÏˇÌÌ˚È „‡‰ËÂÌÚ 1259" x1="1175.14" y1="-179.8" x2="1152.38" y2="-150.84" gradientTransform="translate(1268 41.65) rotate(168.53) scale(1 -1)" xlink:href="#_ÂÁ_Ï_ÌÌ_È_ËÂÌÚ_1259"/>
    <linearGradient id="_ÂÁ_Ï_ÌÌ_È_ËÂÌÚ_44-2" data-name="¡ÂÁ˚ÏˇÌÌ˚È „‡‰ËÂÌÚ 44" x1="155.26" y1="-152.37" x2="152.86" y2="-162.99" gradientTransform="translate(-31.57 305.7) rotate(-11.47)" xlink:href="#_ÂÁ_Ï_ÌÌ_È_ËÂÌÚ_44"/>
    <linearGradient id="linear-gradient-13" x1="180.41" y1="-130.61" x2="178.34" y2="-140.94" xlink:href="#linear-gradient-9"/>
    <linearGradient id="linear-gradient-14" x1="178.78" y1="-141.77" x2="178.73" y2="-133.65" gradientTransform="translate(-31.57 305.7) rotate(-11.47)" xlink:href="#linear-gradient-6"/>
    <linearGradient id="_ÂÁ_Ï_ÌÌ_È_ËÂÌÚ_25" data-name="¡ÂÁ˚ÏˇÌÌ˚È „‡‰ËÂÌÚ 25" x1="178.29" y1="-152.8" x2="178.4" y2="-144.48" gradientTransform="translate(-31.57 305.7) rotate(-11.47)" gradientUnits="userSpaceOnUse">
      <stop offset="0" stop-color="#f7d4ab"/>
      <stop offset="1" stop-color="#ffd9b3"/>
    </linearGradient>
    <linearGradient id="linear-gradient-15" x1="178.96" y1="-128.32" x2="178.82" y2="-137.38" gradientTransform="translate(-31.57 305.7) rotate(-11.47)" gradientUnits="userSpaceOnUse">
      <stop offset="0" stop-color="#ffd9b3"/>
      <stop offset="1" stop-color="#f7d4ab"/>
    </linearGradient>
    <linearGradient id="_ÂÁ_Ï_ÌÌ_È_ËÂÌÚ_1253" data-name="¡ÂÁ˚ÏˇÌÌ˚È „‡‰ËÂÌÚ 1253" x1="146.52" y1="-130.84" x2="161.27" y2="-130.84" gradientTransform="translate(-31.57 305.7) rotate(-11.47)" gradientUnits="userSpaceOnUse">
      <stop offset="0" stop-color="#f0c499"/>
      <stop offset=".51" stop-color="#e3b086"/>
      <stop offset="1" stop-color="#dba379"/>
    </linearGradient>
    <linearGradient id="linear-gradient-16" x1="195.74" y1="-130.84" x2="210.38" y2="-130.84" gradientTransform="translate(-31.57 305.7) rotate(-11.47)" xlink:href="#linear-gradient-6"/>
    <linearGradient id="linear-gradient-17" x1="178.61" y1="-130.55" x2="178.53" y2="-126.7" gradientTransform="translate(-31.57 305.7) rotate(-11.47)" gradientUnits="userSpaceOnUse">
      <stop offset="0" stop-color="#f96e7e"/>
      <stop offset=".03" stop-color="#f9707f"/>
      <stop offset=".25" stop-color="#fd7985"/>
      <stop offset=".53" stop-color="#ff7d88"/>
      <stop offset=".76" stop-color="#fd7985"/>
      <stop offset="1" stop-color="#f86d7d"/>
      <stop offset="1" stop-color="#f86d7d"/>
    </linearGradient>
    <linearGradient id="linear-gradient-18" x1="160.84" y1="-121.76" x2="196.73" y2="-121.76" gradientTransform="translate(-31.57 305.7) rotate(-11.47)" xlink:href="#linear-gradient-6"/>
    <linearGradient id="linear-gradient-19" x1="177.35" y1="-117.84" x2="178.25" y2="-125.64" xlink:href="#linear-gradient-17"/>
    <linearGradient id="_ÂÁ_Ï_ÌÌ_È_ËÂÌÚ_25-2" data-name="¡ÂÁ˚ÏˇÌÌ˚È „‡‰ËÂÌÚ 25" x1="208.99" y1="-143.01" x2="238.61" y2="-143.01" xlink:href="#_ÂÁ_Ï_ÌÌ_È_ËÂÌÚ_25"/>
    <linearGradient id="_ÂÁ_Ï_ÌÌ_È_ËÂÌÚ_1259-9" data-name="¡ÂÁ˚ÏˇÌÌ˚È „‡‰ËÂÌÚ 1259" x1="179.58" y1="-107.71" x2="177.44" y2="-76.63" gradientTransform="translate(-31.57 305.7) rotate(-11.47)" xlink:href="#_ÂÁ_Ï_ÌÌ_È_ËÂÌÚ_1259"/>
    <linearGradient id="_ÂÁ_Ï_ÌÌ_È_ËÂÌÚ_41" data-name="¡ÂÁ˚ÏˇÌÌ˚È „‡‰ËÂÌÚ 41" x1="128.4" y1="-190.84" x2="170.06" y2="-191.82" gradientTransform="translate(-31.57 305.7) rotate(-11.47)" gradientUnits="userSpaceOnUse">
      <stop offset="0" stop-color="#3b2621"/>
      <stop offset=".41" stop-color="#3c2722"/>
      <stop offset=".56" stop-color="#432c25"/>
      <stop offset=".66" stop-color="#4f362c"/>
      <stop offset=".75" stop-color="#604335"/>
      <stop offset=".82" stop-color="#765441"/>
      <stop offset=".88" stop-color="#916950"/>
      <stop offset=".94" stop-color="#b18262"/>
      <stop offset=".99" stop-color="#d69f76"/>
      <stop offset="1" stop-color="#dba379"/>
    </linearGradient>
    <linearGradient id="_ÂÁ_Ï_ÌÌ_È_ËÂÌÚ_41-2" data-name="¡ÂÁ˚ÏˇÌÌ˚È „‡‰ËÂÌÚ 41" x1="572.07" y1="-190.57" x2="613.73" y2="-191.55" gradientTransform="translate(752.59 146.27) rotate(168.53) scale(1 -1)" xlink:href="#_ÂÁ_Ï_ÌÌ_È_ËÂÌÚ_41"/>
    <linearGradient id="_ÂÁ_Ï_ÌÌ_È_ËÂÌÚ_126" data-name="¡ÂÁ˚ÏˇÌÌ˚È „‡‰ËÂÌÚ 126" x1="110.07" y1="1243.07" x2="110.81" y2="1243.07" gradientTransform="translate(1650.38 16008.13) rotate(-10.75) scale(12.79 -12.79)" gradientUnits="userSpaceOnUse">
      <stop offset="0" stop-color="#ffd9b3"/>
      <stop offset=".52" stop-color="#fccfa9"/>
      <stop offset="1" stop-color="#f8c39c"/>
    </linearGradient>
    <linearGradient id="_ÂÁ_Ï_ÌÌ_È_ËÂÌÚ_126-2" data-name="¡ÂÁ˚ÏˇÌÌ˚È „‡‰ËÂÌÚ 126" x1="173.11" y1="1243.88" x2="173.84" y2="1243.88" gradientTransform="translate(5682.42 15189.85) rotate(167.8) scale(12.79)" xlink:href="#_ÂÁ_Ï_ÌÌ_È_ËÂÌÚ_126"/>
    <linearGradient id="_ÂÁ_Ï_ÌÌ_È_ËÂÌÚ_34-4" data-name="¡ÂÁ˚ÏˇÌÌ˚È „‡‰ËÂÌÚ 34" x1="177.12" y1="-158.41" x2="258.81" y2="-57.52" gradientTransform="translate(-31.57 305.7) rotate(-11.47)" xlink:href="#_ÂÁ_Ï_ÌÌ_È_ËÂÌÚ_34"/>
    <linearGradient id="_ÂÁ_Ï_ÌÌ_È_ËÂÌÚ_34-5" data-name="¡ÂÁ˚ÏˇÌÌ˚È „‡‰ËÂÌÚ 34" x1="269.72" y1="-28.05" x2="259.7" y2="-62.88" gradientTransform="translate(-31.57 305.7) rotate(-11.47)" xlink:href="#_ÂÁ_Ï_ÌÌ_È_ËÂÌÚ_34"/>
    <linearGradient id="_ÂÁ_Ï_ÌÌ_È_ËÂÌÚ_34-6" data-name="¡ÂÁ˚ÏˇÌÌ˚È „‡‰ËÂÌÚ 34" x1="846.86" y1="-30.81" x2="836.84" y2="-65.64" gradientTransform="translate(887.73 118.84) rotate(168.53) scale(1 -1)" xlink:href="#_ÂÁ_Ï_ÌÌ_È_ËÂÌÚ_34"/>
    <linearGradient id="_ÂÁ_Ï_ÌÌ_È_ËÂÌÚ_34-7" data-name="¡ÂÁ˚ÏˇÌÌ˚È „‡‰ËÂÌÚ 34" x1="139.24" y1="-139.8" x2="131.01" y2="-61.61" gradientTransform="translate(-31.57 305.7) rotate(-11.47)" xlink:href="#_ÂÁ_Ï_ÌÌ_È_ËÂÌÚ_34"/>
    <linearGradient id="_ÂÁ_Ï_ÌÌ_È_ËÂÌÚ_46" data-name="¡ÂÁ˚ÏˇÌÌ˚È „‡‰ËÂÌÚ 46" x1="240.07" y1="-34.55" x2="224.14" y2="-167.08" gradientTransform="translate(-31.57 305.7) rotate(-11.47)" gradientUnits="userSpaceOnUse">
      <stop offset="0" stop-color="#593a33"/>
      <stop offset=".29" stop-color="#482e29"/>
      <stop offset=".61" stop-color="#3e2822"/>
      <stop offset="1" stop-color="#3b2621"/>
    </linearGradient>
    <linearGradient id="_ÂÁ_Ï_ÌÌ_È_ËÂÌÚ_34-8" data-name="¡ÂÁ˚ÏˇÌÌ˚È „‡‰ËÂÌÚ 34" x1="226.97" y1="-120.01" x2="209.92" y2="-261.82" gradientTransform="translate(-31.57 305.7) rotate(-11.47)" xlink:href="#_ÂÁ_Ï_ÌÌ_È_ËÂÌÚ_34"/>
    <linearGradient id="_ÂÁ_Ï_ÌÌ_È_ËÂÌÚ_34-9" data-name="¡ÂÁ˚ÏˇÌÌ˚È „‡‰ËÂÌÚ 34" x1="144.8" y1="-122.23" x2="128.92" y2="-254.24" gradientTransform="translate(-31.57 305.7) rotate(-11.47)" xlink:href="#_ÂÁ_Ï_ÌÌ_È_ËÂÌÚ_34"/>
    <linearGradient id="_ÂÁ_Ï_ÌÌ_È_ËÂÌÚ_55" data-name="¡ÂÁ˚ÏˇÌÌ˚È „‡‰ËÂÌÚ 55" x1="112.12" y1="-40.04" x2="110.5" y2="-182.26" gradientTransform="translate(-31.57 305.7) rotate(-11.47)" gradientUnits="userSpaceOnUse">
      <stop offset="0" stop-color="#593a33"/>
      <stop offset=".19" stop-color="#52352f"/>
      <stop offset="1" stop-color="#3b2621"/>
    </linearGradient>
    <linearGradient id="linear-gradient-20" x1="210.51" y1="-49.48" x2="223.13" y2="-235.08" gradientTransform="translate(-31.57 305.7) rotate(-11.47)" gradientUnits="userSpaceOnUse">
      <stop offset="0" stop-color="#593a33"/>
      <stop offset=".4" stop-color="#5d3d36"/>
      <stop offset=".85" stop-color="#6a4741"/>
      <stop offset="1" stop-color="#714c46"/>
    </linearGradient>
    <linearGradient id="_ÂÁ_Ï_ÌÌ_È_ËÂÌÚ_34-10" data-name="¡ÂÁ˚ÏˇÌÌ˚È „‡‰ËÂÌÚ 34" x1="157.31" y1="-81.42" x2="140.06" y2="-208.34" gradientTransform="translate(-31.57 305.7) rotate(-11.47)" xlink:href="#_ÂÁ_Ï_ÌÌ_È_ËÂÌÚ_34"/>
    <linearGradient id="_ÂÁ_Ï_ÌÌ_È_ËÂÌÚ_34-11" data-name="¡ÂÁ˚ÏˇÌÌ˚È „‡‰ËÂÌÚ 34" x1="231.18" y1="-91.46" x2="213.93" y2="-218.39" gradientTransform="translate(-31.57 305.7) rotate(-11.47)" xlink:href="#_ÂÁ_Ï_ÌÌ_È_ËÂÌÚ_34"/>
    <linearGradient id="_ÂÁ_Ï_ÌÌ_È_ËÂÌÚ_48" data-name="¡ÂÁ˚ÏˇÌÌ˚È „‡‰ËÂÌÚ 48" x1="118.43" y1="7.8" x2="92.4" y2="-111.97" gradientTransform="translate(-31.57 305.7) rotate(-11.47)" gradientUnits="userSpaceOnUse">
      <stop offset="0" stop-color="#3b2621"/>
      <stop offset=".77" stop-color="#51342e"/>
      <stop offset="1" stop-color="#593a33"/>
    </linearGradient>
    <linearGradient id="linear-gradient-21" x1="125.68" y1="-163.36" x2="124.38" y2="-58.88" xlink:href="#linear-gradient-20"/>
    <linearGradient id="linear-gradient-22" x1="218.36" y1="-37.79" x2="223.26" y2="-109.97" xlink:href="#linear-gradient-20"/>
    <linearGradient id="linear-gradient-23" x1="214.13" y1="-57.9" x2="218.36" y2="-120.14" xlink:href="#linear-gradient-20"/>
    <linearGradient id="linear-gradient-24" x1="140.56" y1="-46.26" x2="145.29" y2="-115.96" xlink:href="#linear-gradient-20"/>
    <linearGradient id="linear-gradient-25" x1="109.35" y1="-40.71" x2="112.02" y2="-80.11" xlink:href="#linear-gradient-20"/>
    <linearGradient id="linear-gradient-26" x1="232.44" y1="-39.6" x2="234.85" y2="-75.12" xlink:href="#linear-gradient-20"/>
    <linearGradient id="linear-gradient-27" x1="180.62" y1="-237.56" x2="174.81" y2="-273.8" xlink:href="#linear-gradient-20"/>
    <linearGradient id="_ÂÁ_Ï_ÌÌ_È_ËÂÌÚ_34-12" data-name="¡ÂÁ˚ÏˇÌÌ˚È „‡‰ËÂÌÚ 34" x1="197.12" y1="-213.25" x2="206.89" y2="-233.66" gradientTransform="translate(-31.57 305.7) rotate(-11.47)" xlink:href="#_ÂÁ_Ï_ÌÌ_È_ËÂÌÚ_34"/>
    <linearGradient id="_ÂÁ_Ï_ÌÌ_È_ËÂÌÚ_34-13" data-name="¡ÂÁ˚ÏˇÌÌ˚È „‡‰ËÂÌÚ 34" x1="145.14" y1="-201.71" x2="163.71" y2="-240.5" gradientTransform="translate(-31.57 305.7) rotate(-11.47)" xlink:href="#_ÂÁ_Ï_ÌÌ_È_ËÂÌÚ_34"/>
    <linearGradient id="_ÂÁ_Ï_ÌÌ_È_ËÂÌÚ_34-14" data-name="¡ÂÁ˚ÏˇÌÌ˚È „‡‰ËÂÌÚ 34" x1="247.9" y1="-175.9" x2="190.62" y2="-270.28" gradientTransform="translate(-31.57 305.7) rotate(-11.47)" xlink:href="#_ÂÁ_Ï_ÌÌ_È_ËÂÌÚ_34"/>
    <linearGradient id="_ÂÁ_Ï_ÌÌ_È_ËÂÌÚ_34-15" data-name="¡ÂÁ˚ÏˇÌÌ˚È „‡‰ËÂÌÚ 34" x1="151.44" y1="-204.03" x2="126.75" y2="-244.71" gradientTransform="translate(-31.57 305.7) rotate(-11.47)" xlink:href="#_ÂÁ_Ï_ÌÌ_È_ËÂÌÚ_34"/>
    <linearGradient id="_ÂÁ_Ï_ÌÌ_È_ËÂÌÚ_34-16" data-name="¡ÂÁ˚ÏˇÌÌ˚È „‡‰ËÂÌÚ 34" x1="258.96" y1="-120.82" x2="243.01" y2="-228.87" gradientTransform="translate(-31.57 305.7) rotate(-11.47)" xlink:href="#_ÂÁ_Ï_ÌÌ_È_ËÂÌÚ_34"/>
    <linearGradient id="_ÂÁ_Ï_ÌÌ_È_ËÂÌÚ_34-17" data-name="¡ÂÁ˚ÏˇÌÌ˚È „‡‰ËÂÌÚ 34" x1="111.7" y1="-139.95" x2="101.02" y2="-212.3" gradientTransform="translate(-31.57 305.7) rotate(-11.47)" xlink:href="#_ÂÁ_Ï_ÌÌ_È_ËÂÌÚ_34"/>
    <linearGradient id="_ÂÁ_Ï_ÌÌ_È_ËÂÌÚ_45" data-name="¡ÂÁ˚ÏˇÌÌ˚È „‡‰ËÂÌÚ 45" x1="276.19" y1="-26.55" x2="247.57" y2="-158.47" gradientTransform="translate(-31.57 305.7) rotate(-11.47)" gradientUnits="userSpaceOnUse">
      <stop offset="0" stop-color="#3b2621"/>
      <stop offset=".38" stop-color="#472e28"/>
      <stop offset="1" stop-color="#593a33"/>
    </linearGradient>
    <linearGradient id="linear-gradient-28" x1="123.98" y1="-99.44" x2="133.62" y2="-241.23" xlink:href="#linear-gradient-20"/>
    <linearGradient id="_ÂÁ_Ï_ÌÌ_È_ËÂÌÚ_46-2" data-name="¡ÂÁ˚ÏˇÌÌ˚È „‡‰ËÂÌÚ 46" x1="151.28" y1="-51.26" x2="111.02" y2="-117.6" xlink:href="#_ÂÁ_Ï_ÌÌ_È_ËÂÌÚ_46"/>
  </defs>
  <g id="Layer_1-2" data-name="Layer 1">
    <g style="clip-path: url(#clippath);">
      <g>
        <path d="M37.47,217.46s-21.56,2.87-35.11,13.51c-13.56,10.64-49.93,34.48-58.58,39.17s-62.64,32.04-80.23,53.24c-17.59,21.21-9.1,32.13-4.25,34.55,4.85,2.43,61.94,41.42,127.99,75.53,10.43,5.39,30.96,45.8,31.56,48.23.61,2.43,5.46,40.06,5.46,40.06,0,0,8.91-42.29,9.51-46.23.61-3.95,1.98-29.7-10.76-44.61s-57-40.98-66.7-48.79c-9.71-7.81-38.83-41.78-38.83-41.78,0,0,93.86-43.91,114.57-57.75l5.36-65.13Z" style="fill: #f7d4ab;"/>
        <g>
          <path d="M209.95,168.96s16.79,22.21,9.13,50.9l-9.13-50.9Z" style="fill: url(#_ÂÁ_Ï_ÌÌ_È_ËÂÌÚ_34);"/>
          <path d="M37.46,202.87s-8.9,26.38,7.45,51.17l-7.45-51.17Z" style="fill: url(#_ÂÁ_Ï_ÌÌ_È_ËÂÌÚ_34-2);"/>
          <path d="M93.32,19.03s40.48-9.14,60.35,21.2c19.87,30.34,31.52,83.62,36.29,98.15,4.77,14.53,4.33,62.37,4.33,62.37l-129.32,28.29s-25.43-104.73-25.42-125.56S93.32,19.03,93.32,19.03Z" style="fill: url(#_ÂÁ_Ï_ÌÌ_È_ËÂÌÚ_34-3);"/>
        </g>
        <path d="M151.72,136.38s0,48.16,5.67,52.41c7.19,5.39,82.92,25.44,87.45,30.61,11.26,12.84,10.29,15,13.12,41.91,2.83,26.91-251.21,3.49-251.21,3.49,0,0-12.9-29.71-5.34-33.41,22.04-10.77,79.96-23.4,90.09-27.09,14.2-5.19,12.07-59.42,12.07-59.42l48.16-8.5Z" style="fill: #f7d4ab;"/>
        <path d="M121.93,216.08s3.35-5.89,14.61-3.6c0,0-11.57,1.31-14.61,3.6Z" style="fill: url(#linear-gradient);"/>
        <path d="M159.87,187.28c-3.83-3.64-4.34-33.64-4.34-33.64,0,0-55.86,3.07-56.73,2.09.05,3.93.38,32.09,0,35.07-.44,3.41.15,13.6-38.18,21.82,0,0,13.07-.65,37.16-5.98,4.32-.95,9.41-6.87,9.93-13.43,0,0,26.1-.89,38.33-9.65,1.35,9.89,2.82,17.16,6,19.22,3.18,2.06,31.68-1.03,31.68-1.03l3.77-2.94c-8.16-1.97-23.77-7.9-27.6-11.55Z" style="fill: url(#linear-gradient-2);"/>
        <path d="M118.52,209.89s-4.77-6.28-8.84-6.12c-4.07.15-40.55,9.86-45.76,10.33,0,0,13.91-.29,25.09-2.16,11.18-1.87,19.12-6.2,29.51-2.05Z" style="fill: url(#linear-gradient-3);"/>
        <path d="M133.8,209.86s2.74-5.64,7.61-7.28c4.87-1.64,41.7-1.17,48.4-.51,0,0-46.57,1.93-56.01,7.79Z" style="fill: url(#linear-gradient-4);"/>
        <path d="M72.14,209.87s-2.81,41.86,50.74,39.22c53.55-2.64,64.21-49.97,64.21-49.97l-18.88-7.07s-6.4,18.71-35.27,18.79c-41.99.12-42.65-8.32-42.65-8.32l-18.16,7.35Z" style="fill: url(#linear-gradient-5);"/>
        <path d="M239.06,199.64c-9.02-7-60.34-3.66-60.34-3.66,0,0-12.92,21.35-51.92,19.98-44.84-1.58-42.14-11.41-42.14-11.41l-70.74,19.39c0,1.96,14.49,70.27,18.88,76.48,2.33,9.31,3.82,19.44,5.08,29.22,1.51.51,2.36.8,2.36.8l12.31,98.08c61.31,7.28,102.87,4.95,166.25,5.83l2.22-98.62s1.25-17.55,2.17-17.77c.67-16.14,43.64-4.26,56.7-20.82-.47-3.81-29.2-88.47-40.82-97.5Z" style="fill: #f5d534;"/>
        <path d="M81.82,205.31s-4.72,15.88,51.59,13.96c41.75-1.42,45.31-23.29,45.31-23.29l-5.35-2.07s-5.36,19.31-41.01,20.1c-45.97,1.02-44.22-10.8-44.22-10.8l-6.32,2.09Z" style="fill: url(#_ÂÁ_Ï_ÌÌ_È_ËÂÌÚ_29);"/>
        <path d="M98.93,185.31s-3.26-31.23-5.06-37.8l61.39.83.82,18.21s-16.17,23.84-57.15,18.76Z" style="fill: url(#linear-gradient-6);"/>
        <path d="M285.43,302.09s-12.63-30.09-20.91-57.99c-8.23-27.73-17.29-41-22.52-46.08-5.2-5.05-32.77-3.28-32.77-3.28,0,0,25.38,6.95,28.04,10.93,5.04,7.56,23.11,43.84,34.14,98.53l14.02-2.1Z" style="fill: url(#_ÂÁ_Ï_ÌÌ_È_ËÂÌÚ_30);"/>
        <path d="M37.47,217.46s-26.8,5.34-40.45,17.62c-13.65,12.29-53.24,35.05-53.24,35.05,0,0,26.26,26.05,57.8,49.66l15.91-12.03,16.37,17.1,3.61-107.41Z" style="fill: #f5d534;"/>
        <path d="M-46,263.9s17.03-11.29,32.84-22.33c7.71-5.38,14.26-11.32,20.07-14.68,12.62-7.3,43.07-12.9,43.07-12.9,0,0-29.71,12.85-33.34,15.79-8.54,6.92-27.49,24.78-54.74,46.22l-7.9-12.1Z" style="fill: url(#_ÂÁ_Ï_ÌÌ_È_ËÂÌÚ_30-2);"/>
        <g>
          <path d="M93.5,18.97c-.11-.04-.17-.06-.17-.06.06.02.11.04.17.06Z" style="fill: url(#_ÂÁ_Ï_ÌÌ_È_ËÂÌÚ_14);"/>
          <g>
            <g>
              <path d="M54.15,111.66c6.24,18.15,11.93,32.06,11.93,32.06-7.98,1.62-13.28-5.91-17.82-12.33-6.95-9.81-12.11-20.79-1.39-23.6,2.09-.55,7.28,3.88,7.28,3.88Z" style="fill: url(#_ÂÁ_Ï_ÌÌ_È_ËÂÌÚ_1259);"/>
              <path d="M58.1,138.53s-4.74-3.34-5.18-11.71c-1.04-19.76-14.3-18.43-8.7-5.94,0,0,.54-6.54,2.56-5.03,2.48,1.86-1.46,3.96,2.69,13.42,2.16,4.92,8.62,9.26,8.62,9.26Z" style="fill: url(#linear-gradient-7);"/>
            </g>
            <g>
              <path d="M165.78,89.01c1.33,19.15,2.16,33.76,2.16,33.76,7.98-1.62,9.28-10.21,10.96-17.89,2.58-11.74,3.04-23.86-7.92-22.28-2.14.31-5.2,6.41-5.2,6.41Z" style="fill: url(#_ÂÁ_Ï_ÌÌ_È_ËÂÌÚ_1259-2);"/>
              <path d="M172.62,115.28s3.07-4.92.21-12.8c-6.75-18.6,5.99-22.55,5.69-8.86,0,0-3.05-5.81-4.32-3.63-1.56,2.68,2.88,3.08,2.75,13.41-.07,5.37-4.33,11.88-4.33,11.88Z" style="fill: url(#linear-gradient-8);"/>
            </g>
            <path d="M147.23,31.25c-10.17-14.47-22.89-22.15-47.34-18.77,0,0-53.7,18.39-57.43,35.69-4.06,18.84,3.04,42.7,8.43,58.16,5.39,15.46,14.95,40.36,20.39,46.85,5.45,6.49,28.97,19.47,33.95,21.84,4.66,2.21,10.89,6.3,20.92,4.26,8.92-1.81,14.86-8.66,18.18-12.55,3.58-4.2,19.34-25.49,21.82-33.6s1.81-34.01.74-50.35c-1.06-16.34-8.59-35.76-19.67-51.53Z" style="fill: url(#_ÂÁ_Ï_ÌÌ_È_ËÂÌÚ_384);"/>
            <path d="M72.74,86.91c-8.01,1.12-12.89,4-16.29,7.81-7.92,8.88,2.91,27.15,2.91,27.15,0,0,22.27,16.13,50.79-2.35-5.11-12.48-11.76-36.22-37.42-32.62Z" style="fill: url(#linear-gradient-9);"/>
            <path d="M87.41,106.17c-7.54-.68-36.27-.89-33.1,8,7.01,19.64,12.48,33.02,17.28,38.6,5.02,5.85,17.97,14.04,22.8,13.88,7.49-.24,9.76-28.44,8.07-37.61-2.35-12.83-7.51-22.19-15.05-22.87Z" style="fill: url(#radial-gradient);"/>
            <path d="M123.16,161c-5.03,1.27-8.74,3.93-8.3,5.93.44,2.01,4.85,2.62,9.87,1.36,5.02-1.27,8.72-3.92,8.3-5.93-.44-2.01-4.87-2.62-9.87-1.35Z" style="fill: url(#linear-gradient-10);"/>
            <path d="M164.68,110.35s2.29-19.54,2.28-22.93c-.06-19.7-9.3-85.92-78.3-67.44-70.95,19-28.28,110.54-28.28,110.54,0,0,5.15-88.92,35.62-95.9,0,0,36.82-6.15,68.68,75.73Z" style="fill: url(#_ÂÁ_Ï_ÌÌ_È_ËÂÌÚ_1259-3);"/>
            <polygon points="60.38 130.53 71.29 153.17 55.81 78.53 49.89 87.63 60.38 130.53" style="fill: url(#_ÂÁ_Ï_ÌÌ_È_ËÂÌÚ_13);"/>
            <path d="M154.36,76.9c-4.62-2.07-9.88-6.36-17.63-4.02-24.85,7.5-19.77,30.55-19.47,44.18,33.38,4.98,47.29-19.25,47.29-19.25,0,0,.57-16.08-10.19-20.91Z" style="fill: url(#linear-gradient-11);"/>
            <path d="M51.58,108.28s12.55,35.78,19.34,45.06c2.21,3.02,13.02,9.88,23.18,15.64,0,0-19.42-15.39-22.03-19.7-5.74-9.43-20.48-41-20.48-41Z" style="fill: url(#_ÂÁ_Ï_ÌÌ_È_ËÂÌÚ_1259-4);"/>
            <path d="M130.47,78.85s9.96-7.76,22.63-2.9c6.76,2.59,7.44,15.97,7.44,15.97,1.62,4.24-8.09-19.15-30.07-13.06Z" style="fill: url(#linear-gradient-12);"/>
            <path d="M133.27,96.86c6.68-3.57,33.06-14.96,33.6-5.54,1.2,20.82,1.38,35.27-.86,42.28-2.34,7.35-11.07,19.93-15.59,21.67-6.99,2.7-20.07-22.39-22.1-31.49-2.83-12.73-1.73-23.36,4.95-26.93Z" style="fill: url(#radial-gradient-2);"/>
            <polygon points="167.06 112.1 165.12 130.95 149.8 61.79 159.87 64.59 167.06 112.1" style="fill: url(#_ÂÁ_Ï_ÌÌ_È_ËÂÌÚ_13-2);"/>
            <g>
              <g>
                <path d="M137.18,85.51c-16.22,3.29-15.71,13.52-14.6,20.74,1.28.02,2.62,0,5.18.25,3.46.34,7.61,1.18,13.1.01,4.32-.92,13.26-4.77,11.5-14.11-1.39-7.39-11.2-7.37-15.19-6.89Z" style="fill: url(#_ÂÁ_Ï_ÌÌ_È_ËÂÌÚ_1259-5);"/>
                <path d="M123.2,105.54c3.65-.21,6.26.52,8.85.69-2.27-1.38-3.7-2.75-4.15-5.69-.38-2.54.98-5.68,2.31-7.54-5.05,4.56-7.01,12.54-7.01,12.54Z" style="fill: url(#_ÂÁ_Ï_ÌÌ_È_ËÂÌÚ_131);"/>
                <path d="M124.77,101.79s-.91,1.81,1.68,3.8c0,0-1.53-.15-3.25-.04,0,0,.95-2.88,1.57-3.76Z" style="fill: url(#_ÂÁ_Ï_ÌÌ_È_ËÂÌÚ_133);"/>
                <path d="M123.2,105.54c.82-1.2,2.21-3.58,4.69-5.84-.05-2.04.72-4,2.06-5.55-4.73,3.62-6.75,11.39-6.75,11.39Z" style="fill: #ddd;"/>
                <path d="M144.31,98.07c.46,3.06-.75,5.28-2.67,7.2,9.23-3.16,10.39-11.22,10.39-11.22-6.84-3.67-11.36-4.33-15.43-3.88,3.81.48,7.07,3.67,7.71,7.9Z" style="fill: url(#_ÂÁ_Ï_ÌÌ_È_ËÂÌÚ_131-2);"/>
                <path d="M127.83,99.5c0,.38.03.64.07,1.04.36,2.86,1.81,4.4,4.15,5.69.74.19,6.92.19,10.43-1.15,2.03-1.9,3.34-4.07,2.92-7.03-.22-1.55-.83-2.95-1.72-4.11-4.93-.65-10.99.61-15.86,5.56Z" style="fill: url(#_ÂÁ_Ï_ÌÌ_È_ËÂÌÚ_389);"/>
                <path d="M128.95,100.29c.8,3.95,4.72,5.9,8.92,5.04,4.2-.85,7.06-4.08,6.26-8.03s-4.84-6.5-9.04-5.65-6.95,4.68-6.14,8.64Z" style="fill: url(#_ÂÁ_Ï_ÌÌ_È_ËÂÌÚ_389-2);"/>
                <path d="M139.69,91.41c2.02.64,3.73,1.98,4.76,3.8,3.6.71,6.14,2.06,6.14,2.06l.95-3.55c-2.9-2.46-7.48-2.39-11.85-2.32Z" style="fill: #ddd;"/>
                <path d="M139.69,91.41c-2.64.05-5.29.55-7.64,1.52-.75.31-1.46.73-2.1,1.23-1.35,1.55-2.21,3.51-2.12,5.56,1.83-1.66,4.3-3.26,7.53-4.23,3.22-.97,6.49-.78,9.14-.26-.98-1.88-2.79-3.17-4.81-3.82Z" style="fill: url(#_ÂÁ_Ï_ÌÌ_È_ËÂÌÚ_387);"/>
                <path d="M135.59,92.78c-3.05.38-5.22,3.08-4.84,6.02.36,2.94,3.14,5.01,6.18,4.63,3.05-.39,5.22-3.09,4.84-6.03-.37-2.94-3.14-5.02-6.19-4.63Z" style="fill: url(#_ÂÁ_Ï_ÌÌ_È_ËÂÌÚ_128);"/>
                <path d="M135.03,96.12c.63-.56,1.62-.48,2.2.16.59.64.55,1.61-.08,2.16-.63.55-1.61.48-2.2-.16-.59-.64-.55-1.61.08-2.16Z" style="fill: #fff;"/>
                <path d="M139.65,97.46c.86-.77,2.17-.71,2.92.14.76.85.68,2.18-.18,2.94-.86.78-2.17.71-2.92-.14-.76-.85-.68-2.17.18-2.95Z" style="fill: #fff;"/>
                <path d="M154.19,86.11s-.91,3.64-9.4,2.4c-16.24-1.83-22.94,8.78-21.59,17.04,0,0,2.76-9.94,11.23-12.54,5.16-1.59,10.16-.34,15.21,1.2.8,3.64-3.16,9.1-8.2,11.22,4.5-.88,13.56-7.54,13.52-11.49-.18.53-1.07,1.05-2.38.85,0,0,3.94-2.58,1.6-8.69Z" style="fill: url(#_ÂÁ_Ï_ÌÌ_È_ËÂÌÚ_1655);"/>
                <path d="M129.55,87.85c-4.92,2.88-6.44,7.17-6.44,7.17,0,0,1.75-3.62,7.08-6.47,5.53-2.96,14.02-2.9,14.02-2.9-3.92-.96-9.74-.69-14.66,2.19Z" style="fill: url(#_ÂÁ_Ï_ÌÌ_È_ËÂÌÚ_1259-6);"/>
                <path d="M130.75,97.54s3.19-2.85,9.92-2.74c0,0-1.97-3.01-6.24-1.8-3.49.99-3.68,4.54-3.68,4.54Z" style="fill: #0f0f0f;"/>
                <path d="M133.64,92.34c-9.57,3.68-10.43,13.21-10.43,13.21,0,0,2.25-8.48,10.92-11.92,4.93-1.95,11.23-.61,15.52.58,0,0-7.39-5.18-16.01-1.87Z" style="fill: url(#_ÂÁ_Ï_ÌÌ_È_ËÂÌÚ_44);"/>
              </g>
              <g>
                <path d="M77.29,97.66c16.22-3.29,19.74,6.32,21.53,13.41-1.17.52-2.42,1.02-4.68,2.25-3.05,1.67-6.54,4.05-12.06,5.12-4.34.84-14.07.78-16.1-8.51-1.6-7.35,7.44-11.15,11.3-12.27Z" style="fill: url(#_ÂÁ_Ï_ÌÌ_È_ËÂÌÚ_1259-7);"/>
                <path d="M97.97,110.67c-3.44,1.22-5.56,2.92-7.88,4.08,1.56-2.15,2.34-3.98,1.6-6.86-.64-2.49-3.12-4.85-5.06-6.04,6.43,2.23,11.34,8.82,11.34,8.82Z" style="fill: url(#_ÂÁ_Ï_ÌÌ_È_ËÂÌÚ_131-3);"/>
                <path d="M95.06,107.82s1.55,1.32-.07,4.15c0,0,1.35-.73,2.98-1.3,0,0-2-2.28-2.91-2.85Z" style="fill: url(#_ÂÁ_Ï_ÌÌ_È_ËÂÌÚ_133-2);"/>
                <path d="M97.97,110.67c-1.22-.78-3.43-2.44-6.59-3.55-.75-1.9-2.22-3.41-4.06-4.31,5.77,1.49,10.65,7.85,10.65,7.85Z" style="fill: #ddd;"/>
                <path d="M75.62,112.01c.77,3,2.75,4.57,5.26,5.59-9.73.69-13.94-6.28-13.94-6.28,4.87-6.05,8.77-8.42,12.69-9.59-3.32,1.93-5.08,6.13-4.01,10.28Z" style="fill: url(#_ÂÁ_Ï_ÌÌ_È_ËÂÌÚ_131-4);"/>
                <path d="M91.35,106.91c.14.35.22.6.34.98.78,2.77.05,4.75-1.6,6.86-.6.46-6.3,2.88-10.05,3.01-2.61-.96-4.66-2.44-5.43-5.34-.4-1.51-.39-3.04-.02-4.45,4.28-2.52,10.36-3.72,16.77-1.06Z" style="fill: url(#_ÂÁ_Ï_ÌÌ_È_ËÂÌÚ_387-2);"/>
                <path d="M90.62,108.07c.8,3.95-2.05,7.27-6.25,8.12-4.2.85-8.09-1-8.9-4.96s1.92-7.87,6.12-8.73c4.2-.85,8.22,1.61,9.02,5.56Z" style="fill: url(#_ÂÁ_Ï_ÌÌ_È_ËÂÌÚ_387-3);"/>
                <path d="M77.28,104.08c-1.61,1.38-2.67,3.28-2.9,5.36-3.04,2.06-4.85,4.3-4.85,4.3l-2.25-2.9c1.71-3.4,5.96-5.12,10.01-6.75Z" style="fill: #ddd;"/>
                <path d="M77.28,104.08c2.45-.99,5.08-1.56,7.62-1.58.82,0,1.63.11,2.42.31,1.84.9,3.4,2.37,4.12,4.3-2.33-.82-5.23-1.32-8.58-.96-3.34.36-6.28,1.81-8.52,3.32.17-2.11,1.33-4.01,2.94-5.39Z" style="fill: url(#_ÂÁ_Ï_ÌÌ_È_ËÂÌÚ_389-3);"/>
                <path d="M81.58,103.75c2.96-.84,6.01.8,6.8,3.66.81,2.85-.94,5.84-3.89,6.68-2.96.83-6.01-.81-6.81-3.66-.8-2.85.94-5.84,3.89-6.67Z" style="fill: url(#_ÂÁ_Ï_ÌÌ_È_ËÂÌÚ_128-2);"/>
                <path d="M83.4,106.6c-.8-.27-1.68.19-1.97,1-.29.82.12,1.7.92,1.96.79.26,1.67-.19,1.96-1,.29-.82-.12-1.69-.91-1.96Z" style="fill: #fff;"/>
                <path d="M88.74,107.8c-1.09-.38-2.27.19-2.64,1.27-.37,1.08.22,2.27,1.31,2.64,1.09.38,2.27-.19,2.64-1.26.36-1.08-.22-2.26-1.31-2.65Z" style="fill: #fff;"/>
                <path d="M61.86,104.85s2.26,3,9.59-1.45c14.24-8.02,24.55-.86,26.52,7.27,0,0-6.41-8.08-15.23-7.17-5.37.55-9.49,3.65-13.54,7.04.69,3.66,6.46,7.14,11.93,7.14-4.49.95-15.43-1.65-16.93-5.3.37.42,1.4.55,2.52-.14,0,0-4.64-.84-4.86-7.38Z" style="fill: url(#_ÂÁ_Ï_ÌÌ_È_ËÂÌÚ_1655-2);"/>
                <path d="M85.22,96.85c5.66.74,8.72,4.1,8.72,4.1,0,0-3.02-2.65-9.04-3.19-6.25-.57-14.04,2.8-14.04,2.8,3.24-2.41,8.7-4.44,14.35-3.7Z" style="fill: url(#_ÂÁ_Ï_ÌÌ_È_ËÂÌÚ_1259-8);"/>
                <path d="M87.9,106.24s-4.06-1.41-10.21,1.32c0,0,.59-3.5,4.99-4.05,3.6-.45,5.22,2.74,5.22,2.74Z" style="fill: #0f0f0f;"/>
                <path d="M83.21,102.57c10.25-.34,14.76,8.09,14.76,8.09,0,0-5.38-6.94-14.7-6.72-5.3.13-10.58,3.82-14.07,6.58,0,0,4.79-7.65,14.02-7.96Z" style="fill: url(#_ÂÁ_Ï_ÌÌ_È_ËÂÌÚ_44-2);"/>
              </g>
              <g>
                <polygon points="105.37 135.96 117.72 141.22 126.35 131.48 124.65 130.56 115.39 132.56 106.14 134.44 105.37 135.96" style="fill: url(#linear-gradient-13);"/>
                <path d="M105.65,135.71s3.85-2.11,7.76-1.32l4.41-.9s4.03-2.58,8.52-2.01l-.22-2.04h-3.66s-7.02,3.37-7.02,3.37l-7.14-.49-3.44,1.13.8,2.25Z" style="fill: url(#linear-gradient-14);"/>
                <path d="M102.49,127.4s-1.69,1.45-1.39,4.42c.35,3.39,4.15,4.51,4.61,4.05.46-.45-1.02-2.76,2.25-2.96,3.26-.2,3.43,1.43,4.05,1.87s6.24-.56,7.06-1.35c.82-.78.12-2.91,3.15-3.42,3.02-.51,3.52,1.52,4.01,1.7.48.18,1.94-1.78,1.83-4.94-.1-3.15-3.59-3.83-3.59-3.83,0,0,2.17,2.38,1.84,4.25-.33,1.87-5.26,1.31-6.91,2.88-3.04,2.89-5.26,2.78-9.06,1.84-2.49-.62-5.42,1.39-7.07-.23-.58-.56-1.16-2.86-.78-4.28Z" style="fill: #f0c499;"/>
                <path d="M106.41,125.04c.37,2.13.81,2.98,1.99,4.18,1.81,1.83,11.85,1.59,12.52-3.59.13-1.03-.18-2.54-.74-4.41-.64-2.13-14.14,1.69-13.77,3.82Z" style="fill: url(#_ÂÁ_Ï_ÌÌ_È_ËÂÌÚ_25);"/>
              </g>
              <path d="M95.24,145.52s4.97,1.97,22.63-1.61c6.08-1.23,22.01-7.37,22.01-7.37,0,0-7.69,1.05-14.76,2.13-3.4.52-4.97,1.34-7.72,1.95-2.56.57-3.54-.09-6.84.69-7.6,1.8-15.32,4.21-15.32,4.21Z" style="fill: url(#linear-gradient-15);"/>
              <g>
                <path d="M88.88,144.53c.37-2.68,9.81,2.79,15.63,3.82-7.47-1.54-16.28.91-15.63-3.82Z" style="fill: url(#_ÂÁ_Ï_ÌÌ_È_ËÂÌÚ_1253);"/>
                <path d="M145.08,133.12c-1.04-2.36-7.95,6.4-12.91,9.61,6.28-4.33,14.77-5.39,12.91-9.61Z" style="fill: url(#linear-gradient-16);"/>
                <path d="M144.26,133.65c-.29-.09-1.07.48-2.45,1.56-4.31,2.99-7.76,5.43-12.43,6.63-1.55.22-21.01,3.91-22.23,4.22-3.03.35-8.94.48-12.64-.35-1.88-.44-4.24-1.26-4.47-1.05-.32.28.71,2.59,3.32,1.91,6.39-.45,8.99,3.62,12.74,3.26,1.11-.07,22.48-4.5,23.33-4.73,5.2-.95,6.19-6.4,12.3-8.55,3-.5,2.53-2.89,2.53-2.89Z" style="fill: #961b27;"/>
                <path d="M93.58,145.47c6.54.46,16.57-1.89,17.05-1.97,1.96-.37,5.25-.18,6.62-.47,3-.64,4.83-1.87,7.26-2.35.68-.14,9.73-1.24,15.39-4.14-1.69,1.68-8.22,6.94-21.42,9.4-17.48,3.25-24.59-.42-24.89-.46Z" style="fill: #f86d78;"/>
                <path d="M102.22,145.82c.12-.27,9.02-2.14,9.49-2.14,2.76,0,4.87.04,5.64-.14,1.32-.31,4.87-1.6,5.93-2.21.44-.25,10.35-2.01,9.68-1.48-.56.45-13.07,5.36-14.8,5.71-1.27.26-16.07.55-15.95.26Z" style="fill: url(#linear-gradient-17);"/>
                <path d="M100.76,149.1c4.7,4.75,11.89,8.86,20.32,6.88,4.16-.98,9.69-5.08,14.94-13.61,0,0-17.33,7.45-35.26,6.73Z" style="fill: url(#linear-gradient-18);"/>
                <path d="M95.45,146.57c2.41-.13,5.8,3.09,22.93.04,16.13-2.88,19.93-9.3,22.54-9.76-2.58,1.92-7.07,8.77-9.32,10.93-1.63,1.76-5.1,5.12-11.3,6.62-4.9,1.18-10.98.13-14.2-1.71-1.94-1.11-6.82-4.77-10.64-6.12Z" style="fill: #f86d78;"/>
                <path d="M102.27,148.23c-.44-.62,5,.47,15.03-1.24,10.4-1.77,16.28-5.27,16.38-4.77.07.47-2.12,4.54-4.5,6.5-2.83,2.32-4.04,2.78-9.46,3.89-4.4.89-8.46,1.02-11.26.09-2.98-.98-5.35-3.3-6.17-4.47Z" style="fill: url(#linear-gradient-19);"/>
                <path d="M119.37,148.54s9.81-3.55,10.27-3.07c.46.47-2.75,2.48-4.7,2.99-1.96.51-6.52,1.06-5.57.08Z" style="fill: #ff9aa2;"/>
              </g>
            </g>
            <path d="M167.08,84.84s2.39,37.84-.24,49.03c-.86,3.64-7.32,13.12-15.29,23.36,0,0,10.83-19.16,12.15-27.18,1.79-10.89,3.38-45.21,3.38-45.21Z" style="fill: url(#_ÂÁ_Ï_ÌÌ_È_ËÂÌÚ_25-2);"/>
            <path d="M94.1,168.98s15.57,7.78,17.23,8.32c3.3,1.07,6.77,2.64,14.5,1.33,7.53-1.27,11.47-5.31,13.29-7.14,1.91-1.93,11.58-13.02,12.44-14.26,0,0-7.14,11.68-9.98,15.19-4.63,5.72-10.69,9.47-14.78,10.3-5.15,1.05-10.02-1.26-14.95-2.86-5.37-1.74-17.75-10.88-17.75-10.88Z" style="fill: url(#_ÂÁ_Ï_ÌÌ_È_ËÂÌÚ_1259-9);"/>
            <path d="M88.36,83.56c1.02.82,2.12,3.86,1.81,5.63-.52-2.68-2.23-5.44-4.14-5.72-.17,0-.37,0-.57-.01,1.42.86,2.45,2.38,2.71,4.4-.84-1.37-2.43-3.77-4.43-4.31-5.44.27-13.57.77-17,2.18-4.88,1.99-9.82,12.1-9.82,12.1,1.45-1.6,7.33-5.04,11.93-6.3,2.96-.8,18.47-.89,22.47-1.17.53-.04.54-5.42-2.96-6.8Z" style="fill: url(#_ÂÁ_Ï_ÌÌ_È_ËÂÌÚ_41);"/>
            <path d="M120.8,76.98c-.61,1.15-.45,4.39.53,5.89-.56-2.67-.06-5.88,1.59-6.88.15-.07.34-.15.52-.23-.97,1.35-1.33,3.15-.78,5.11.24-1.59.77-4.42,2.39-5.7,5.11-1.88,12.8-4.58,16.51-4.63,5.27-.07,13.76,7.31,13.76,7.31-1.96-.91-8.72-1.79-13.44-1.15-3.04.42-17.36,6.38-21.15,7.68-.5.17-2.61-4.78.08-7.41Z" style="fill: url(#_ÂÁ_Ï_ÌÌ_È_ËÂÌÚ_41-2);"/>
            <path d="M72.39,119.39c-2.63-.05-4.74,1.19-4.71,2.76.03,1.58,2.19,2.88,4.82,2.94,2.63.04,4.74-1.19,4.71-2.76-.03-1.58-2.19-2.89-4.82-2.94Z" style="fill: url(#_ÂÁ_Ï_ÌÌ_È_ËÂÌÚ_126);"/>
            <path d="M150.34,103.56c2.41-1.07,4.83-.75,5.41.7.59,1.46-.89,3.51-3.29,4.59-2.41,1.07-4.83.76-5.41-.7-.58-1.46.89-3.52,3.29-4.59Z" style="fill: url(#_ÂÁ_Ï_ÌÌ_È_ËÂÌÚ_126-2);"/>
          </g>
          <path d="M169.57,117.27s-4.6,36.93-7.47,49.43,9.92,50.29,9.92,50.29c0,0,17.68-60.69,9.37-84.96-8.31-24.27-11.82-14.76-11.82-14.76Z" style="fill: url(#_ÂÁ_Ï_ÌÌ_È_ËÂÌÚ_34-4);"/>
          <path d="M207.13,187.19s6.88,14.69,18.1,20.93c0,0-12.23.13-16.4-6.24-4.17-6.37-1.69-14.69-1.69-14.69Z" style="fill: url(#_ÂÁ_Ï_ÌÌ_È_ËÂÌÚ_34-5);"/>
          <path d="M55.58,214.85s-.61,16.21-8.5,26.33c0,0,11.32-4.65,12.68-12.14,1.36-7.49-4.17-14.19-4.17-14.19Z" style="fill: url(#_ÂÁ_Ï_ÌÌ_È_ËÂÌÚ_34-6);"/>
          <path d="M102.15,204.3c-6.68-23.39-20.97-38.59-27.62-44.37-10.91-9.47-16.84-34.7-16.84-34.7,0,0,3.08,42.15,3.96,57.29,1.35,23.37,17.41,52.17,29.07,56.8,4.37-13.21,2.44-27.03-3.33-43.49,12.73,16.18,8.99,34.75,9.36,46.09,5.38-9.17,8.25-27.66,5.41-37.62Z" style="fill: url(#_ÂÁ_Ï_ÌÌ_È_ËÂÌÚ_34-7);"/>
          <path d="M163.73,89.59c4.56,11.33,9.74,27.15,12.34,39.92,6.53,32.11,2.31,93.78-13.55,99.79,5.01-1.74,18.74-5.63,26.61-23.48,1.87,5.6-4.04,11.16-8.32,16.55,9.29-7.72,13.16-13.68,13.16-13.68-1.65,5.25-2.58,9.33-9.88,17.39,5.11-1.92,18.84-15.26,24.2-26.81,2.43-11.53,4.65-22.77,4.6-35.4-5.48-17.66-14.44-33.7-27.57-48.89-6.67-7.04-15.41-17.48-21.61-25.38Z" style="fill: url(#_ÂÁ_Ï_ÌÌ_È_ËÂÌÚ_46);"/>
          <path d="M196.79,122.07c-1.44-4.63-28.84-77.08-37.46-88.45C125.73-10.71,92.33,13.35,92.33,13.35l1.46,19.47c26.27-10.65,54.44,18.17,71.38,60.29,6.2,7.9,13.48,14.82,20.15,21.86,13.12,15.19,16.25,21.19,11.46,7.1Z" style="fill: url(#_ÂÁ_Ï_ÌÌ_È_ËÂÌÚ_34-8);"/>
          <path d="M44.56,29.75c-14.63,19.21-16.09,38.07-15.73,50.57.21,7.39,2.79,53.06,5.68,84.11,4.27-17.4,12.27-23.78,21.2-38.76.35-.86.65-1.73.93-2.6-4.1-26.6-3.68-49.61,8.56-67.62,15.4-22.65,28.61-22.64,28.61-22.64l-1.46-19.47c-10.72-5.57-38.99,4.88-47.77,16.4Z" style="fill: url(#_ÂÁ_Ï_ÌÌ_È_ËÂÌÚ_34-9);"/>
          <path d="M34.51,164.43c-7.09,27.76,3.22,53,11.92,60.8,7.04,5.51,19.23,14.01,27.81,17.33-3.75-3.23-10.54-11.34-11.02-17.03,8.52,15.96,30.75,16.16,33.54,16.39-19.57-6.93-28.33-25.13-33.95-49.79-3.93-17.24-3.83-53.9-6.16-69.06-.28.87-.58,1.73-.93,2.6-8.93,14.98-16.92,21.36-21.2,38.76Z" style="fill: url(#_ÂÁ_Ï_ÌÌ_È_ËÂÌÚ_55);"/>
          <path d="M93.83,32.82s21.75-15.88,40.91.48c19.16,16.36,27.2,57.79,40.42,78.31,13.22,20.52,33.1,50.12,31.14,69.43-1.97,19.31-14.91,36.97-14.91,36.97,0,0,13.75-27.05,6.24-48.48-7.52-21.43-26.45-40.4-34.73-63.66s-19.15-57.35-38.91-69.18c-17.54-10.49-30.15-3.87-30.15-3.87Z" style="fill: url(#linear-gradient-20);"/>
          <path d="M93.33,18.92s-36.53,1-44.55,35.05c-8.03,34.05-13.87,73.72-13.87,73.72,0,0,4.99-74.43,6.58-81.44,2.31-10.22,19.62-40.98,51.84-27.33Z" style="fill: url(#_ÂÁ_Ï_ÌÌ_È_ËÂÌÚ_34-10);"/>
          <path d="M95.15,17.06s19.2-9.92,45.97,8.89c14.68,10.31,33.59,77.52,33.59,77.52,0,0-9.39-54.65-18.41-71.77s-42.71-38.03-61.14-14.64Z" style="fill: url(#_ÂÁ_Ï_ÌÌ_È_ËÂÌÚ_34-11);"/>
          <path d="M52.25,140.2s-11.26,33.96-9.31,54.47c1.95,20.51-1.72,39.51-11.51,43.66,0,0,13.06-5.47,17.43-14.49,4.37-9.02-1.83-63.53,3.39-83.64Z" style="fill: url(#_ÂÁ_Ï_ÌÌ_È_ËÂÌÚ_48);"/>
          <path d="M58.79,85.39s-3.83,28.19-2.21,61.88c1.32,27.4-.98,39.71,4.2,56.34,5.69,18.28,15.64,36.32,35.97,38.31,0,0-16.43-4.39-28.54-39.82-4.23-12.37-4.59-34.4-5.7-56.03-1.58-30.93-3.72-60.68-3.72-60.68Z" style="fill: url(#linear-gradient-21);"/>
          <path d="M175.86,148.75s20.66,68.09-13.35,80.54c0,0,19.86-13.38,13.35-80.54Z" style="fill: url(#linear-gradient-22);"/>
          <path d="M164.44,140.84s-3.94,15.54-7.28,28.57c-3.35,13.03,7.97,39.24,7.97,39.24,0,0-4.53-19.47-2.12-32.43,2.41-12.96,1.44-35.39,1.44-35.39Z" style="fill: url(#linear-gradient-23);"/>
          <path d="M76.7,161.38s13.99,11.11,22.65,27.6c8.66,16.49,5.1,44.75,5.1,44.75,0,0-3.16-32.25-9.38-46.21-6.22-13.96-18.37-26.15-18.37-26.15Z" style="fill: url(#linear-gradient-24);"/>
          <path d="M57.07,203.77s2.43,29.23,19.19,40.44c0,0-27.57-3.02-19.19-40.44Z" style="fill: url(#linear-gradient-25);"/>
          <path d="M190.83,182.75s10.79,24.89-10.83,40.2c0,0,16.16-20.92,10.83-40.2Z" style="fill: url(#linear-gradient-26);"/>
          <path d="M93.34,18.33s14.1-14.37,45.31-4.34c0,0-21.49-16.53-44.74-4.83,0,0-27.8-9.63-48.08,19.09,0,0,6.04-7.15,18.21-11.19,10.15-3.37,26.45-4.44,29.3,1.26Z" style="fill: url(#linear-gradient-27);"/>
          <path d="M148.16,67.86s-4.39-23.87-18.82-32.91c-14.43-9.04-26.14-7.34-35.51-2.13,0,0,13.66-5.18,23.74,1.17,13.41,8.45,20.88,15.92,30.59,33.88Z" style="fill: url(#_ÂÁ_Ï_ÌÌ_È_ËÂÌÚ_34-12);"/>
          <path d="M93.83,32.82s-9.5-.57-15.83,3c-12.26,6.91-16.28,25.18-15.44,47.17,0,0-.66-26.23,15.42-40.39,8.68-7.64,15.85-9.79,15.85-9.79Z" style="fill: url(#_ÂÁ_Ï_ÌÌ_È_ËÂÌÚ_34-13);"/>
          <path d="M95.46,18.57s28.94-21.85,52.29,13.52c17.07,25.84,20.92,54.79,20.92,54.79,0,0-11.27-46.57-41.01-65.77-16.89-10.91-32.2-2.54-32.2-2.54Z" style="fill: url(#_ÂÁ_Ï_ÌÌ_È_ËÂÌÚ_34-14);"/>
          <path d="M93.33,18.92s-12.25-2.62-25.78,5.32c-10.55,6.2-17.36,18.77-19.92,32.16-1.68,8.77-6.73,32.38-9.76,52.85,0,0,13.61-28.92,15.91-51.55,1.66-16.39,15.89-37.84,39.55-38.78Z" style="fill: url(#_ÂÁ_Ï_ÌÌ_È_ËÂÌÚ_34-15);"/>
          <path d="M165.99,54.85s7.59,45.55,40.65,89.85l-40.65-89.85Z" style="fill: url(#_ÂÁ_Ï_ÌÌ_È_ËÂÌÚ_34-16);"/>
          <path d="M49.28,84.63l-15.7,75.66s23.62-29.01,15.7-75.66Z" style="fill: url(#_ÂÁ_Ï_ÌÌ_È_ËÂÌÚ_34-17);"/>
          <path d="M177.67,103.3s18.52,17.45,29,35.32c11.49,19.6,13.62,37.56,4.21,59.8,0,0,2.69-25.82-13.15-61.6-6.35-14.35-20.06-33.52-20.06-33.52Z" style="fill: url(#_ÂÁ_Ï_ÌÌ_È_ËÂÌÚ_45);"/>
          <path d="M93.83,32.82s-23-7.56-33.57,17.57c-8.84,21.03-2.99,51.74-16.23,83.49-5.48,13.15-20.62,35.99-16.18,60.07,0,0-.14-12.22,14.53-38.05,14.67-25.83,20.3-54.5,20.51-79.29.3-34.66,15.84-42.89,30.93-43.8Z" style="fill: url(#linear-gradient-28);"/>
          <path d="M70.73,159.86s28.23,42.98,20.91,76.23c0,0-15.34-61.59-20.91-76.23Z" style="fill: url(#_ÂÁ_Ï_ÌÌ_È_ËÂÌÚ_46-2);"/>
        </g>
      </g>
    </g>
  </g>
</svg>