<?xml version="1.0" encoding="UTF-8"?>
<svg id="Layer_2" data-name="Layer 2" xmlns="http://www.w3.org/2000/svg" width="234" height="234" xmlns:xlink="http://www.w3.org/1999/xlink" viewBox="0 0 234 234">
  <defs>
    <clipPath id="clippath">
      <rect width="234" height="234" style="fill: none;"/>
    </clipPath>
    <linearGradient id="_ÂÁ_Ï_ÌÌ_È_ËÂÌÚ_8" data-name="¡ÂÁ˚ÏˇÌÌ˚È „‡‰ËÂÌÚ 8" x1="149.38" y1="60.97" x2="129.1" y2="-9.54" gradientTransform="translate(87.86 176.95) rotate(22.64)" gradientUnits="userSpaceOnUse">
      <stop offset="0" stop-color="#3b2621"/>
      <stop offset=".39" stop-color="#3e2822"/>
      <stop offset=".71" stop-color="#482e29"/>
      <stop offset="1" stop-color="#593a33"/>
    </linearGradient>
    <linearGradient id="_ÂÁ_Ï_ÌÌ_È_ËÂÌÚ_8-2" data-name="¡ÂÁ˚ÏˇÌÌ˚È „‡‰ËÂÌÚ 8" x1="-1353.14" y1="642.2" x2="-1373.42" y2="571.69" gradientTransform="translate(-1467.55 130.38) rotate(160.79) scale(1 -1)" xlink:href="#_ÂÁ_Ï_ÌÌ_È_ËÂÌÚ_8"/>
    <linearGradient id="_ÂÁ_Ï_ÌÌ_È_ËÂÌÚ_8-3" data-name="¡ÂÁ˚ÏˇÌÌ˚È „‡‰ËÂÌÚ 8" x1="-4.3" y1="438.34" x2="76.99" y2="-33.14" gradientTransform="translate(99.44 -111.09) rotate(1.71)" xlink:href="#_ÂÁ_Ï_ÌÌ_È_ËÂÌÚ_8"/>
    <linearGradient id="linear-gradient" x1="67.53" y1="192.59" x2="153.72" y2="218.8" gradientUnits="userSpaceOnUse">
      <stop offset="0" stop-color="#f0c499"/>
      <stop offset=".52" stop-color="#f1c69b"/>
      <stop offset=".85" stop-color="#f4cea4"/>
      <stop offset="1" stop-color="#f7d4ab"/>
    </linearGradient>
    <linearGradient id="linear-gradient-2" x1="82.43" y1="251.7" x2="219.21" y2="214.43" xlink:href="#linear-gradient"/>
    <linearGradient id="linear-gradient-3" x1="109.01" y1="449.69" x2="215.56" y2="514.43" gradientTransform="translate(-214.77 -189.85) rotate(-16.11)" gradientUnits="userSpaceOnUse">
      <stop offset="0" stop-color="#dba379"/>
      <stop offset=".49" stop-color="#e3b086"/>
      <stop offset="1" stop-color="#f0c499"/>
    </linearGradient>
    <linearGradient id="linear-gradient-4" x1="229.54" y1="551.35" x2="112.52" y2="584.22" gradientTransform="translate(142.01 -364.2) rotate(13.36)" xlink:href="#linear-gradient-3"/>
    <linearGradient id="_ÂÁ_Ï_ÌÌ_È_ËÂÌÚ_29" data-name="¡ÂÁ˚ÏˇÌÌ˚È „‡‰ËÂÌÚ 29" x1="122.63" y1="254" x2="119.07" y2="219.69" gradientUnits="userSpaceOnUse">
      <stop offset="0" stop-color="#d6b01f"/>
      <stop offset=".42" stop-color="#e0bc26"/>
      <stop offset="1" stop-color="#f5d534"/>
    </linearGradient>
    <linearGradient id="linear-gradient-5" x1="114.25" y1="169.71" x2="126.11" y2="219.93" gradientTransform="matrix(1,0,0,1,0,0)" xlink:href="#linear-gradient-3"/>
    <linearGradient id="_ÂÁ_Ï_ÌÌ_È_ËÂÌÚ_14" data-name="¡ÂÁ˚ÏˇÌÌ˚È „‡‰ËÂÌÚ 14" x1="129.83" y1="24.29" x2="129.74" y2="24.03" gradientTransform="translate(-13.54 1.1) rotate(-.19)" gradientUnits="userSpaceOnUse">
      <stop offset="0" stop-color="#cb8076"/>
      <stop offset=".31" stop-color="#b76f65"/>
      <stop offset=".95" stop-color="#86443a"/>
      <stop offset="1" stop-color="#824137"/>
    </linearGradient>
    <linearGradient id="linear-gradient-6" x1="52.81" y1="153.25" x2="50.09" y2="94.73" gradientTransform="matrix(1,0,0,1,0,0)" xlink:href="#linear-gradient-3"/>
    <linearGradient id="linear-gradient-7" x1="-2950.87" y1="299.91" x2="-2949.24" y2="357.14" gradientTransform="translate(3004.42 -8.91) rotate(-.19)" xlink:href="#linear-gradient-3"/>
    <linearGradient id="linear-gradient-8" x1="182.82" y1="147.2" x2="180.1" y2="88.68" gradientTransform="matrix(1,0,0,1,0,0)" xlink:href="#linear-gradient-3"/>
    <linearGradient id="linear-gradient-9" x1="-2805.09" y1="300.12" x2="-2803.45" y2="357.35" gradientTransform="translate(-2626.15 9.45) rotate(179.81) scale(1 -1)" xlink:href="#linear-gradient-3"/>
    <linearGradient id="_ÂÁ_Ï_ÌÌ_È_ËÂÌÚ_384" data-name="¡ÂÁ˚ÏˇÌÌ˚È „‡‰ËÂÌÚ 384" x1="129.2" y1="43.79" x2="128.95" y2="213.57" gradientTransform="translate(-13.54 1.1) rotate(-.19)" gradientUnits="userSpaceOnUse">
      <stop offset="0" stop-color="#ffd9b3"/>
      <stop offset=".32" stop-color="#f9d5ad"/>
      <stop offset="1" stop-color="#f7d4ab"/>
    </linearGradient>
    <linearGradient id="linear-gradient-10" x1="100.81" y1="138.44" x2="93.71" y2="94.53" gradientTransform="translate(-13.54 1.1) rotate(-.19)" gradientUnits="userSpaceOnUse">
      <stop offset="0" stop-color="#f7d4ab"/>
      <stop offset=".52" stop-color="#f5d1a8"/>
      <stop offset=".85" stop-color="#f2c99f"/>
      <stop offset="1" stop-color="#f0c499"/>
    </linearGradient>
    <radialGradient id="radial-gradient" cx="46.79" cy="140.97" fx="46.79" fy="140.97" r="32.04" gradientTransform="translate(40.58 1.04) rotate(-.19) scale(.79 1)" gradientUnits="userSpaceOnUse">
      <stop offset="0" stop-color="#f9b38e"/>
      <stop offset=".61" stop-color="#f7c59e"/>
      <stop offset="1" stop-color="#f7d4ab"/>
    </radialGradient>
    <linearGradient id="linear-gradient-11" x1="114.59" y1="175.41" x2="140.68" y2="175.41" gradientTransform="translate(-13.54 1.1) rotate(-.19)" gradientUnits="userSpaceOnUse">
      <stop offset="0" stop-color="#ffd9b3"/>
      <stop offset=".68" stop-color="#fcd7b0"/>
      <stop offset="1" stop-color="#f7d4ab"/>
    </linearGradient>
    <linearGradient id="_ÂÁ_Ï_ÌÌ_È_ËÂÌÚ_18" data-name="¡ÂÁ˚ÏˇÌÌ˚È „‡‰ËÂÌÚ 18" x1="175.92" y1="53.82" x2="87.74" y2="125.94" gradientTransform="translate(-13.54 1.1) rotate(-.19)" gradientUnits="userSpaceOnUse">
      <stop offset="0" stop-color="#dba379"/>
      <stop offset=".49" stop-color="#e3b086"/>
      <stop offset="1" stop-color="#f0c499"/>
    </linearGradient>
    <linearGradient id="_ÂÁ_Ï_ÌÌ_È_ËÂÌÚ_72" data-name="¡ÂÁ˚ÏˇÌÌ˚È „‡‰ËÂÌÚ 72" x1="78.45" y1="164.52" x2="73.97" y2="89.06" gradientTransform="translate(-13.54 1.1) rotate(-.19)" gradientUnits="userSpaceOnUse">
      <stop offset="0" stop-color="#f9b38e"/>
      <stop offset=".5" stop-color="#f7b690"/>
      <stop offset=".9" stop-color="#f2c096"/>
      <stop offset="1" stop-color="#f0c499"/>
    </linearGradient>
    <linearGradient id="linear-gradient-12" x1="163.14" y1="131.86" x2="156.27" y2="93.81" xlink:href="#linear-gradient-10"/>
    <linearGradient id="linear-gradient-13" x1="151.78" y1="97.46" x2="184.34" y2="97.46" xlink:href="#linear-gradient-11"/>
    <radialGradient id="radial-gradient-2" cx="326.52" cy="141.55" fx="326.52" fy="141.55" r="32.04" gradientTransform="translate(414.07 -.76) rotate(179.81) scale(.79 -1)" xlink:href="#radial-gradient"/>
    <linearGradient id="_ÂÁ_Ï_ÌÌ_È_ËÂÌÚ_72-2" data-name="¡ÂÁ˚ÏˇÌÌ˚È „‡‰ËÂÌÚ 72" x1="-1899.56" y1="161.06" x2="-1903.71" y2="91.05" gradientTransform="translate(-1733.19 6.49) rotate(179.81) scale(1 -1)" xlink:href="#_ÂÁ_Ï_ÌÌ_È_ËÂÌÚ_72"/>
    <linearGradient id="_ÂÁ_Ï_ÌÌ_È_ËÂÌÚ_18-2" data-name="¡ÂÁ˚ÏˇÌÌ˚È „‡‰ËÂÌÚ 18" x1="-2787.42" y1="159.86" x2="-2819.5" y2="172.32" gradientTransform="translate(2948.06 -56.47) rotate(-.13)" xlink:href="#_ÂÁ_Ï_ÌÌ_È_ËÂÌÚ_18"/>
    <linearGradient id="_ÂÁ_Ï_ÌÌ_È_ËÂÌÚ_131" data-name="¡ÂÁ˚ÏˇÌÌ˚È „‡‰ËÂÌÚ 131" x1="-2818.75" y1="167.34" x2="-2808.91" y2="167.34" gradientTransform="translate(2948.06 -56.47) rotate(-.13)" gradientUnits="userSpaceOnUse">
      <stop offset="0" stop-color="#fff"/>
      <stop offset=".41" stop-color="#fcfcfc"/>
      <stop offset=".69" stop-color="#f3f3f3"/>
      <stop offset=".92" stop-color="#e4e4e4"/>
      <stop offset="1" stop-color="#ddd"/>
    </linearGradient>
    <linearGradient id="_ÂÁ_Ï_ÌÌ_È_ËÂÌÚ_107" data-name="¡ÂÁ˚ÏˇÌÌ˚È „‡‰ËÂÌÚ 107" x1="1639.75" y1="169.4" x2="1642.79" y2="171.58" gradientTransform="translate(1772.8 -53.26) rotate(179.87) scale(1 -1)" gradientUnits="userSpaceOnUse">
      <stop offset="0" stop-color="#fff"/>
      <stop offset=".46" stop-color="#f2f2f2"/>
      <stop offset="1" stop-color="#ddd"/>
    </linearGradient>
    <linearGradient id="_ÂÁ_Ï_ÌÌ_È_ËÂÌÚ_131-2" data-name="¡ÂÁ˚ÏˇÌÌ˚È „‡‰ËÂÌÚ 131" x1="-2796.97" y1="167.05" x2="-2789.14" y2="167.05" xlink:href="#_ÂÁ_Ï_ÌÌ_È_ËÂÌÚ_131"/>
    <linearGradient id="_ÂÁ_Ï_ÌÌ_È_ËÂÌÚ_387" data-name="¡ÂÁ˚ÏˇÌÌ˚È „‡‰ËÂÌÚ 387" x1="-2791.81" y1="175.77" x2="-2814.79" y2="161.41" gradientTransform="translate(2948.06 -56.47) rotate(-.13)" gradientUnits="userSpaceOnUse">
      <stop offset="0" stop-color="#715241"/>
      <stop offset="1" stop-color="#b89c8c"/>
    </linearGradient>
    <linearGradient id="_ÂÁ_Ï_ÌÌ_È_ËÂÌÚ_387-2" data-name="¡ÂÁ˚ÏˇÌÌ˚È „‡‰ËÂÌÚ 387" x1="-65.83" y1="99.1" x2="-91.44" y2="107.22" gradientTransform="translate(249.22 30.58) rotate(11.2)" xlink:href="#_ÂÁ_Ï_ÌÌ_È_ËÂÌÚ_387"/>
    <linearGradient id="_ÂÁ_Ï_ÌÌ_È_ËÂÌÚ_387-3" data-name="¡ÂÁ˚ÏˇÌÌ˚È „‡‰ËÂÌÚ 387" x1="1629.02" y1="171.57" x2="1631.15" y2="187.52" gradientTransform="translate(1772.8 -53.26) rotate(179.87) scale(1 -1)" xlink:href="#_ÂÁ_Ï_ÌÌ_È_ËÂÌÚ_387"/>
    <radialGradient id="_ÂÁ_Ï_ÌÌ_È_ËÂÌÚ_105" data-name="¡ÂÁ˚ÏˇÌÌ˚È „‡‰ËÂÌÚ 105" cx="1628.11" cy="166.08" fx="1628.11" fy="166.08" r="5.81" gradientTransform="translate(1772.8 -53.26) rotate(179.87) scale(1 -1)" gradientUnits="userSpaceOnUse">
      <stop offset="0" stop-color="#666"/>
      <stop offset="1" stop-color="#1d1d1d"/>
    </radialGradient>
    <linearGradient id="_ÂÁ_Ï_ÌÌ_È_ËÂÌÚ_1655" data-name="¡ÂÁ˚ÏˇÌÌ˚È „‡‰ËÂÌÚ 1655" x1="-2818.74" y1="165.95" x2="-2782.57" y2="165.95" gradientTransform="translate(2948.06 -56.47) rotate(-.13)" gradientUnits="userSpaceOnUse">
      <stop offset="0" stop-color="#4d322e"/>
      <stop offset=".06" stop-color="#4a302c"/>
      <stop offset=".55" stop-color="#3d2622"/>
      <stop offset="1" stop-color="#39231f"/>
    </linearGradient>
    <linearGradient id="_ÂÁ_Ï_ÌÌ_È_ËÂÌÚ_18-3" data-name="¡ÂÁ˚ÏˇÌÌ˚È „‡‰ËÂÌÚ 18" x1="-2803.04" y1="156.32" x2="-2826.97" y2="186.77" gradientTransform="translate(2948.06 -56.47) rotate(-.13)" xlink:href="#_ÂÁ_Ï_ÌÌ_È_ËÂÌÚ_18"/>
    <linearGradient id="_ÂÁ_Ï_ÌÌ_È_ËÂÌÚ_44" data-name="¡ÂÁ˚ÏˇÌÌ˚È „‡‰ËÂÌÚ 44" x1="1632.46" y1="185.82" x2="1629.73" y2="173.74" gradientTransform="translate(1772.8 -53.26) rotate(179.87) scale(1 -1)" gradientUnits="userSpaceOnUse">
      <stop offset="0" stop-color="#38221e"/>
      <stop offset=".77" stop-color="#291915"/>
    </linearGradient>
    <linearGradient id="_ÂÁ_Ï_ÌÌ_È_ËÂÌÚ_18-4" data-name="¡ÂÁ˚ÏˇÌÌ˚È „‡‰ËÂÌÚ 18" x1="-1299.11" y1="159.45" x2="-1331.2" y2="171.91" gradientTransform="translate(-1227.83 -46.45) rotate(179.87) scale(1 -1)" xlink:href="#_ÂÁ_Ï_ÌÌ_È_ËÂÌÚ_18"/>
    <linearGradient id="_ÂÁ_Ï_ÌÌ_È_ËÂÌÚ_131-3" data-name="¡ÂÁ˚ÏˇÌÌ˚È „‡‰ËÂÌÚ 131" x1="-1330.45" y1="166.93" x2="-1320.61" y2="166.93" gradientTransform="translate(-1227.83 -46.45) rotate(179.87) scale(1 -1)" xlink:href="#_ÂÁ_Ï_ÌÌ_È_ËÂÌÚ_131"/>
    <linearGradient id="_ÂÁ_Ï_ÌÌ_È_ËÂÌÚ_107-2" data-name="¡ÂÁ˚ÏˇÌÌ˚È „‡‰ËÂÌÚ 107" x1="151.45" y1="169.99" x2="154.48" y2="172.17" gradientTransform="translate(-52.58 -49.66) rotate(-.13)" xlink:href="#_ÂÁ_Ï_ÌÌ_È_ËÂÌÚ_107"/>
    <linearGradient id="_ÂÁ_Ï_ÌÌ_È_ËÂÌÚ_131-4" data-name="¡ÂÁ˚ÏˇÌÌ˚È „‡‰ËÂÌÚ 131" x1="-1308.66" y1="166.64" x2="-1300.83" y2="166.64" gradientTransform="translate(-1227.83 -46.45) rotate(179.87) scale(1 -1)" xlink:href="#_ÂÁ_Ï_ÌÌ_È_ËÂÌÚ_131"/>
    <linearGradient id="_ÂÁ_Ï_ÌÌ_È_ËÂÌÚ_387-4" data-name="¡ÂÁ˚ÏˇÌÌ˚È „‡‰ËÂÌÚ 387" x1="-1303.5" y1="175.36" x2="-1326.49" y2="161" gradientTransform="translate(-1227.83 -46.45) rotate(179.87) scale(1 -1)" xlink:href="#_ÂÁ_Ï_ÌÌ_È_ËÂÌÚ_387"/>
    <linearGradient id="_ÂÁ_Ï_ÌÌ_È_ËÂÌÚ_387-5" data-name="¡ÂÁ˚ÏˇÌÌ˚È „‡‰ËÂÌÚ 387" x1="-162.39" y1="114.47" x2="-133.71" y2="117.41" gradientTransform="translate(249.22 30.58) rotate(11.2)" xlink:href="#_ÂÁ_Ï_ÌÌ_È_ËÂÌÚ_387"/>
    <linearGradient id="_ÂÁ_Ï_ÌÌ_È_ËÂÌÚ_387-6" data-name="¡ÂÁ˚ÏˇÌÌ˚È „‡‰ËÂÌÚ 387" x1="140.73" y1="172.23" x2="142.89" y2="188.46" gradientTransform="translate(-52.58 -49.66) rotate(-.13)" xlink:href="#_ÂÁ_Ï_ÌÌ_È_ËÂÌÚ_387"/>
    <radialGradient id="_ÂÁ_Ï_ÌÌ_È_ËÂÌÚ_105-2" data-name="¡ÂÁ˚ÏˇÌÌ˚È „‡‰ËÂÌÚ 105" cx="139.81" cy="166.67" fx="139.81" fy="166.67" r="5.81" gradientTransform="translate(-52.58 -49.66) rotate(-.13)" xlink:href="#_ÂÁ_Ï_ÌÌ_È_ËÂÌÚ_105"/>
    <linearGradient id="_ÂÁ_Ï_ÌÌ_È_ËÂÌÚ_1655-2" data-name="¡ÂÁ˚ÏˇÌÌ˚È „‡‰ËÂÌÚ 1655" x1="-1330.43" y1="165.54" x2="-1294.27" y2="165.54" gradientTransform="translate(-1227.83 -46.45) rotate(179.87) scale(1 -1)" xlink:href="#_ÂÁ_Ï_ÌÌ_È_ËÂÌÚ_1655"/>
    <linearGradient id="_ÂÁ_Ï_ÌÌ_È_ËÂÌÚ_18-5" data-name="¡ÂÁ˚ÏˇÌÌ˚È „‡‰ËÂÌÚ 18" x1="-1314.74" y1="155.91" x2="-1338.66" y2="186.36" gradientTransform="translate(-1227.83 -46.45) rotate(179.87) scale(1 -1)" xlink:href="#_ÂÁ_Ï_ÌÌ_È_ËÂÌÚ_18"/>
    <linearGradient id="_ÂÁ_Ï_ÌÌ_È_ËÂÌÚ_44-2" data-name="¡ÂÁ˚ÏˇÌÌ˚È „‡‰ËÂÌÚ 44" x1="144.11" y1="186.24" x2="141.42" y2="174.34" gradientTransform="translate(-52.58 -49.66) rotate(-.13)" xlink:href="#_ÂÁ_Ï_ÌÌ_È_ËÂÌÚ_44"/>
    <linearGradient id="_ÂÁ_Ï_ÌÌ_È_ËÂÌÚ_11" data-name="¡ÂÁ˚ÏˇÌÌ˚È „‡‰ËÂÌÚ 11" x1="-1992.33" y1="524.57" x2="-1946.17" y2="523.49" gradientTransform="translate(-1684.12 -804.55) rotate(-168.85) scale(1 -1)" gradientUnits="userSpaceOnUse">
      <stop offset="0" stop-color="#3b2621"/>
      <stop offset=".41" stop-color="#3c2722"/>
      <stop offset=".56" stop-color="#432c25"/>
      <stop offset=".66" stop-color="#4f362c"/>
      <stop offset=".75" stop-color="#604335"/>
      <stop offset=".82" stop-color="#765441"/>
      <stop offset=".88" stop-color="#916950"/>
      <stop offset=".94" stop-color="#b18262"/>
      <stop offset=".99" stop-color="#d69f76"/>
      <stop offset="1" stop-color="#dba379"/>
    </linearGradient>
    <linearGradient id="_ÂÁ_Ï_ÌÌ_È_ËÂÌÚ_11-2" data-name="¡ÂÁ˚ÏˇÌÌ˚È „‡‰ËÂÌÚ 11" x1="-6447.38" y1="-353.18" x2="-6401.23" y2="-354.26" gradientTransform="translate(6455.71 -804.55) rotate(-11.15)" xlink:href="#_ÂÁ_Ï_ÌÌ_È_ËÂÌÚ_11"/>
    <linearGradient id="_ÂÁ_Ï_ÌÌ_È_ËÂÌÚ_126" data-name="¡ÂÁ˚ÏˇÌÌ˚È „‡‰ËÂÌÚ 126" x1="-1046.14" y1="807.04" x2="-1045.36" y2="807.04" gradientTransform="translate(13353.54 10576) rotate(.53) scale(12.79 -12.79)" gradientUnits="userSpaceOnUse">
      <stop offset="0" stop-color="#ffd9b3"/>
      <stop offset=".52" stop-color="#fccfa9"/>
      <stop offset="1" stop-color="#f8c39c"/>
    </linearGradient>
    <linearGradient id="_ÂÁ_Ï_ÌÌ_È_ËÂÌÚ_126-2" data-name="¡ÂÁ˚ÏˇÌÌ˚È „‡‰ËÂÌÚ 126" x1="-1170.77" y1="805.43" x2="-1169.99" y2="805.43" gradientTransform="translate(-14646.84 10668.32) rotate(179.09) scale(12.79)" xlink:href="#_ÂÁ_Ï_ÌÌ_È_ËÂÌÚ_126"/>
    <linearGradient id="_ÂÁ_Ï_ÌÌ_È_ËÂÌÚ_18-6" data-name="¡ÂÁ˚ÏˇÌÌ˚È „‡‰ËÂÌÚ 18" x1="54.95" y1="151.54" x2="86.84" y2="151.54" gradientTransform="matrix(1,0,0,1,0,0)" xlink:href="#_ÂÁ_Ï_ÌÌ_È_ËÂÌÚ_18"/>
    <linearGradient id="_ÂÁ_Ï_ÌÌ_È_ËÂÌÚ_23" data-name="¡ÂÁ˚ÏˇÌÌ˚È „‡‰ËÂÌÚ 23" x1="147.89" y1="151.52" x2="179.11" y2="151.52" gradientUnits="userSpaceOnUse">
      <stop offset="0" stop-color="#f7d4ab"/>
      <stop offset="1" stop-color="#ffd9b3"/>
    </linearGradient>
    <linearGradient id="linear-gradient-14" x1="118.14" y1="156.83" x2="116" y2="146.18" gradientTransform="matrix(1,0,0,1,0,0)" xlink:href="#linear-gradient-10"/>
    <linearGradient id="linear-gradient-15" x1="116.46" y1="145.33" x2="116.4" y2="153.7" gradientTransform="matrix(1,0,0,1,0,0)" xlink:href="#linear-gradient-3"/>
    <linearGradient id="_ÂÁ_Ï_ÌÌ_È_ËÂÌÚ_23-2" data-name="¡ÂÁ˚ÏˇÌÌ˚È „‡‰ËÂÌÚ 23" x1="115.95" y1="133.94" x2="116.07" y2="142.53" xlink:href="#_ÂÁ_Ï_ÌÌ_È_ËÂÌÚ_23"/>
    <linearGradient id="linear-gradient-16" x1="117.69" y1="193.3" x2="114.93" y2="233.37" gradientTransform="matrix(1,0,0,1,0,0)" xlink:href="#linear-gradient-3"/>
    <linearGradient id="linear-gradient-17" x1="117.04" y1="192.28" x2="117.26" y2="209.59" gradientTransform="matrix(1,0,0,1,0,0)" xlink:href="#linear-gradient-11"/>
    <linearGradient id="_ÂÁ_Ï_ÌÌ_È_ËÂÌÚ_45" data-name="¡ÂÁ˚ÏˇÌÌ˚È „‡‰ËÂÌÚ 45" x1="97.99" y1="159.98" x2="136.47" y2="159.98" gradientUnits="userSpaceOnUse">
      <stop offset="0" stop-color="#f8d4ac"/>
      <stop offset=".52" stop-color="#ffd9b3"/>
      <stop offset="1" stop-color="#f7d4ab"/>
    </linearGradient>
    <linearGradient id="linear-gradient-18" x1="114.96" y1="182.6" x2="101.71" y2="178.66" gradientTransform="translate(4.52 -16.84) rotate(3.5)" xlink:href="#linear-gradient-3"/>
    <linearGradient id="linear-gradient-19" x1="3012.68" y1="-157.23" x2="2999.4" y2="-161.19" gradientTransform="translate(3118.84 -209.9) rotate(169.69) scale(1 -1)" xlink:href="#linear-gradient-3"/>
    <linearGradient id="linear-gradient-20" x1="106.34" y1="212.85" x2="145.47" y2="212.85" gradientTransform="translate(-4.26 -34.72) rotate(1.32)" xlink:href="#linear-gradient-3"/>
    <linearGradient id="linear-gradient-21" x1="101.27" y1="232.39" x2="133.9" y2="232.25" gradientTransform="translate(-1.03 -69.66) rotate(-.02)" gradientUnits="userSpaceOnUse">
      <stop offset="0" stop-color="#e8d8d7"/>
      <stop offset=".04" stop-color="#ebdddc"/>
      <stop offset=".21" stop-color="#f6f0ef"/>
      <stop offset=".38" stop-color="#fcfbfb"/>
      <stop offset=".57" stop-color="#fff"/>
      <stop offset=".69" stop-color="#fbf7f7"/>
      <stop offset=".87" stop-color="#f1e3e3"/>
      <stop offset="1" stop-color="#e8d2d1"/>
    </linearGradient>
    <linearGradient id="linear-gradient-22" x1="183.41" y1="235.14" x2="183.11" y2="216.67" gradientTransform="translate(-57.6 -55.25) rotate(2.15)" gradientUnits="userSpaceOnUse">
      <stop offset="0" stop-color="#e46980"/>
      <stop offset=".37" stop-color="#e2677d"/>
      <stop offset=".55" stop-color="#db6076"/>
      <stop offset=".69" stop-color="#cf5568"/>
      <stop offset=".81" stop-color="#be4456"/>
      <stop offset=".92" stop-color="#a9303e"/>
      <stop offset="1" stop-color="#951c27"/>
    </linearGradient>
    <linearGradient id="linear-gradient-23" x1="183.57" y1="235.21" x2="183.34" y2="220.87" xlink:href="#linear-gradient-22"/>
    <linearGradient id="linear-gradient-24" x1="103.84" y1="263.84" x2="125.94" y2="263.84" gradientTransform="translate(11.02 -84.87) rotate(1.89)" xlink:href="#linear-gradient-21"/>
    <linearGradient id="linear-gradient-25" x1="106.7" y1="255.71" x2="132.92" y2="252.76" gradientTransform="translate(-1.03 -69.67) rotate(-.02)" gradientUnits="userSpaceOnUse">
      <stop offset="0" stop-color="#f96e7e"/>
      <stop offset=".03" stop-color="#f9707f"/>
      <stop offset=".25" stop-color="#fd7985"/>
      <stop offset=".53" stop-color="#ff7d88"/>
      <stop offset=".76" stop-color="#fd7985"/>
      <stop offset="1" stop-color="#f86d7d"/>
      <stop offset="1" stop-color="#f86d7d"/>
    </linearGradient>
    <linearGradient id="linear-gradient-26" x1="109.19" y1="193.77" x2="141.2" y2="193.64" gradientTransform="translate(-4.26 -34.72) rotate(1.32)" gradientUnits="userSpaceOnUse">
      <stop offset="0" stop-color="#e8d8d7"/>
      <stop offset=".05" stop-color="#eadcdb"/>
      <stop offset=".31" stop-color="#f6efee"/>
      <stop offset=".48" stop-color="#fbf6f6"/>
      <stop offset="1" stop-color="#e8d2d1"/>
    </linearGradient>
    <linearGradient id="linear-gradient-27" x1="102.54" y1="214.4" x2="134.33" y2="210.82" gradientTransform="translate(-.95 -45.31) rotate(-.02) scale(1 .97)" xlink:href="#linear-gradient-25"/>
    <linearGradient id="_ÂÁ_Ï_ÌÌ_È_ËÂÌÚ_8-4" data-name="¡ÂÁ˚ÏˇÌÌ˚È „‡‰ËÂÌÚ 8" x1="127.2" y1="127.81" x2="213.89" y2="234.87" gradientTransform="translate(-13.54 1.1) rotate(-.19)" xlink:href="#_ÂÁ_Ï_ÌÌ_È_ËÂÌÚ_8"/>
    <linearGradient id="_ÂÁ_Ï_ÌÌ_È_ËÂÌÚ_8-5" data-name="¡ÂÁ˚ÏˇÌÌ˚È „‡‰ËÂÌÚ 8" x1="225.47" y1="266.14" x2="214.84" y2="229.19" gradientTransform="translate(-13.54 1.1) rotate(-.19)" xlink:href="#_ÂÁ_Ï_ÌÌ_È_ËÂÌÚ_8"/>
    <linearGradient id="_ÂÁ_Ï_ÌÌ_È_ËÂÌÚ_8-6" data-name="¡ÂÁ˚ÏˇÌÌ˚È „‡‰ËÂÌÚ 8" x1="-1599.41" y1="263.22" x2="-1610.04" y2="226.26" gradientTransform="translate(-1576.86 5.97) rotate(179.81) scale(1 -1)" xlink:href="#_ÂÁ_Ï_ÌÌ_È_ËÂÌÚ_8"/>
    <linearGradient id="_ÂÁ_Ï_ÌÌ_È_ËÂÌÚ_8-7" data-name="¡ÂÁ˚ÏˇÌÌ˚È „‡‰ËÂÌÚ 8" x1="87" y1="147.56" x2="78.27" y2="230.53" gradientTransform="translate(-13.54 1.1) rotate(-.19)" xlink:href="#_ÂÁ_Ï_ÌÌ_È_ËÂÌÚ_8"/>
    <linearGradient id="_ÂÁ_Ï_ÌÌ_È_ËÂÌÚ_46" data-name="¡ÂÁ˚ÏˇÌÌ˚È „‡‰ËÂÌÚ 46" x1="194" y1="259.19" x2="177.56" y2="122.47" gradientTransform="translate(-13.54 1.1) rotate(-.19)" gradientUnits="userSpaceOnUse">
      <stop offset="0" stop-color="#593a33"/>
      <stop offset=".29" stop-color="#482e29"/>
      <stop offset=".61" stop-color="#3e2822"/>
      <stop offset="1" stop-color="#3b2621"/>
    </linearGradient>
    <linearGradient id="_ÂÁ_Ï_ÌÌ_È_ËÂÌÚ_8-8" data-name="¡ÂÁ˚ÏˇÌÌ˚È „‡‰ËÂÌÚ 8" x1="179.87" y1="168.58" x2="161.78" y2="18.1" gradientTransform="translate(-13.54 1.1) rotate(-.19)" xlink:href="#_ÂÁ_Ï_ÌÌ_È_ËÂÌÚ_8"/>
    <linearGradient id="_ÂÁ_Ï_ÌÌ_È_ËÂÌÚ_8-9" data-name="¡ÂÁ˚ÏˇÌÌ˚È „‡‰ËÂÌÚ 8" x1="92.9" y1="166.2" x2="76.06" y2="26.12" gradientTransform="translate(-13.54 1.1) rotate(-.19)" xlink:href="#_ÂÁ_Ï_ÌÌ_È_ËÂÌÚ_8"/>
    <linearGradient id="_ÂÁ_Ï_ÌÌ_È_ËÂÌÚ_55" data-name="¡ÂÁ˚ÏˇÌÌ˚È „‡‰ËÂÌÚ 55" x1="58.23" y1="253.42" x2="56.5" y2="102.5" gradientTransform="translate(-13.54 1.1) rotate(-.19)" gradientUnits="userSpaceOnUse">
      <stop offset="0" stop-color="#593a33"/>
      <stop offset=".19" stop-color="#52352f"/>
      <stop offset="1" stop-color="#3b2621"/>
    </linearGradient>
    <linearGradient id="linear-gradient-28" x1="162.64" y1="243.41" x2="176.02" y2="46.45" gradientTransform="translate(-13.54 1.1) rotate(-.19)" gradientUnits="userSpaceOnUse">
      <stop offset="0" stop-color="#593a33"/>
      <stop offset=".4" stop-color="#5d3d36"/>
      <stop offset=".85" stop-color="#6a4741"/>
      <stop offset="1" stop-color="#714c46"/>
    </linearGradient>
    <linearGradient id="_ÂÁ_Ï_ÌÌ_È_ËÂÌÚ_8-10" data-name="¡ÂÁ˚ÏˇÌÌ˚È „‡‰ËÂÌÚ 8" x1="106.17" y1="209.51" x2="87.87" y2="74.82" gradientTransform="translate(-13.54 1.1) rotate(-.19)" xlink:href="#_ÂÁ_Ï_ÌÌ_È_ËÂÌÚ_8"/>
    <linearGradient id="_ÂÁ_Ï_ÌÌ_È_ËÂÌÚ_8-11" data-name="¡ÂÁ˚ÏˇÌÌ˚È „‡‰ËÂÌÚ 8" x1="184.57" y1="198.26" x2="166.27" y2="63.57" gradientTransform="translate(-13.54 1.1) rotate(-.19)" xlink:href="#_ÂÁ_Ï_ÌÌ_È_ËÂÌÚ_8"/>
    <linearGradient id="_ÂÁ_Ï_ÌÌ_È_ËÂÌÚ_10" data-name="¡ÂÁ˚ÏˇÌÌ˚È „‡‰ËÂÌÚ 10" x1="64.93" y1="304.19" x2="37.3" y2="177.09" gradientTransform="translate(-13.54 1.1) rotate(-.19)" gradientUnits="userSpaceOnUse">
      <stop offset="0" stop-color="#3b2621"/>
      <stop offset=".77" stop-color="#51342e"/>
      <stop offset="1" stop-color="#593a33"/>
    </linearGradient>
    <linearGradient id="linear-gradient-29" x1="72.62" y1="122.56" x2="71.23" y2="233.42" xlink:href="#linear-gradient-28"/>
    <linearGradient id="linear-gradient-30" x1="170.96" y1="255.81" x2="176.17" y2="179.21" xlink:href="#linear-gradient-28"/>
    <linearGradient id="linear-gradient-31" x1="167.52" y1="234.6" x2="171.89" y2="170.33" xlink:href="#linear-gradient-28"/>
    <linearGradient id="linear-gradient-32" x1="88.4" y1="246.82" x2="93.43" y2="172.86" xlink:href="#linear-gradient-28"/>
    <linearGradient id="linear-gradient-33" x1="55.63" y1="251.91" x2="58.42" y2="210.89" xlink:href="#linear-gradient-28"/>
    <linearGradient id="linear-gradient-34" x1="185.91" y1="253.89" x2="188.47" y2="216.19" xlink:href="#linear-gradient-28"/>
    <linearGradient id="linear-gradient-35" x1="131.21" y1="43.69" x2="125.05" y2="5.31" xlink:href="#linear-gradient-28"/>
    <linearGradient id="_ÂÁ_Ï_ÌÌ_È_ËÂÌÚ_8-12" data-name="¡ÂÁ˚ÏˇÌÌ˚È „‡‰ËÂÌÚ 8" x1="148.35" y1="71.12" x2="159.41" y2="48.02" gradientTransform="translate(-13.54 1.1) rotate(-.19)" xlink:href="#_ÂÁ_Ï_ÌÌ_È_ËÂÌÚ_8"/>
    <linearGradient id="_ÂÁ_Ï_ÌÌ_È_ËÂÌÚ_8-13" data-name="¡ÂÁ˚ÏˇÌÌ˚È „‡‰ËÂÌÚ 8" x1="93.72" y1="80.83" x2="113.01" y2="40.53" gradientTransform="translate(-13.54 1.1) rotate(-.19)" xlink:href="#_ÂÁ_Ï_ÌÌ_È_ËÂÌÚ_8"/>
    <linearGradient id="_ÂÁ_Ï_ÌÌ_È_ËÂÌÚ_8-14" data-name="¡ÂÁ˚ÏˇÌÌ˚È „‡‰ËÂÌÚ 8" x1="202.31" y1="109.25" x2="141.53" y2="9.1" gradientTransform="translate(-13.54 1.1) rotate(-.19)" xlink:href="#_ÂÁ_Ï_ÌÌ_È_ËÂÌÚ_8"/>
    <linearGradient id="_ÂÁ_Ï_ÌÌ_È_ËÂÌÚ_8-15" data-name="¡ÂÁ˚ÏˇÌÌ˚È „‡‰ËÂÌÚ 8" x1="99.95" y1="79.39" x2="73.75" y2="36.23" gradientTransform="translate(-13.54 1.1) rotate(-.19)" xlink:href="#_ÂÁ_Ï_ÌÌ_È_ËÂÌÚ_8"/>
    <linearGradient id="_ÂÁ_Ï_ÌÌ_È_ËÂÌÚ_8-16" data-name="¡ÂÁ˚ÏˇÌÌ˚È „‡‰ËÂÌÚ 8" x1="214.05" y1="167.7" x2="197.12" y2="53.04" gradientTransform="translate(-13.54 1.1) rotate(-.19)" xlink:href="#_ÂÁ_Ï_ÌÌ_È_ËÂÌÚ_8"/>
    <linearGradient id="_ÂÁ_Ï_ÌÌ_È_ËÂÌÚ_8-17" data-name="¡ÂÁ˚ÏˇÌÌ˚È „‡‰ËÂÌÚ 8" x1="57.78" y1="147.4" x2="46.45" y2="70.63" gradientTransform="translate(-13.54 1.1) rotate(-.19)" xlink:href="#_ÂÁ_Ï_ÌÌ_È_ËÂÌÚ_8"/>
    <linearGradient id="_ÂÁ_Ï_ÌÌ_È_ËÂÌÚ_7" data-name="¡ÂÁ˚ÏˇÌÌ˚È „‡‰ËÂÌÚ 7" x1="231.78" y1="266.29" x2="201.73" y2="127.8" gradientTransform="translate(-13.54 1.1) rotate(-.19)" gradientUnits="userSpaceOnUse">
      <stop offset="0" stop-color="#3b2621"/>
      <stop offset=".38" stop-color="#472e28"/>
      <stop offset="1" stop-color="#593a33"/>
    </linearGradient>
    <linearGradient id="linear-gradient-36" x1="70.81" y1="190.39" x2="81.04" y2="39.92" xlink:href="#linear-gradient-28"/>
    <linearGradient id="_ÂÁ_Ï_ÌÌ_È_ËÂÌÚ_46-2" data-name="¡ÂÁ˚ÏˇÌÌ˚È „‡‰ËÂÌÚ 46" x1="99.78" y1="241.51" x2="57.05" y2="171.11" xlink:href="#_ÂÁ_Ï_ÌÌ_È_ËÂÌÚ_46"/>
  </defs>
  <g id="Layer_1-2" data-name="Layer 1">
    <g style="clip-path: url(#clippath);">
      <g>
        <g>
          <path d="M207.6,204.93s13,26.47-.73,54.78l.73-54.78Z" style="fill: url(#_ÂÁ_Ï_ÌÌ_È_ËÂÌÚ_8);"/>
          <path d="M21.36,205.53s-14.56,25.65-2.54,54.72l2.54-54.72Z" style="fill: url(#_ÂÁ_Ï_ÌÌ_È_ËÂÌÚ_8-2);"/>
          <path d="M116.42,25.52s43.95-1.37,58.52,34.18c14.57,35.55,15.98,93.32,18.02,109.39,2.04,16.07-8.03,65.75-8.03,65.75l-140.2,3.43s-5.39-114.05-1.2-135.72c4.19-21.67,72.9-77.03,72.9-77.03Z" style="fill: url(#_ÂÁ_Ï_ÌÌ_È_ËÂÌÚ_8-3);"/>
        </g>
        <path d="M144.33,152.65s2.56,63.85,8.5,68.3c7.53,5.65,81.88,22.12,86.62,27.53,11.81,13.47,13.3,6.94,16.27,35.16,2.97,28.22-263.41,3.66-263.41,3.66,0,0,7.04-38.03,14.97-41.9,23.11-11.3,63.27-17.65,73.9-21.53,14.89-5.44,12.65-62.3,12.65-62.3l50.5-8.91Z" style="fill: #f7d4ab;"/>
        <path d="M152.87,219.13c-4.02-3.82-4.56-48.38-4.56-48.38,0,0-58.57,3.22-59.48,2.19.05,4.12.4,33.65,0,36.78-.47,3.57.16,14.26-40.03,22.88,0,0,15.81,9.19,41.07,3.61,4.53-1,51.45,1.39,54.79,3.55s33.21,5.48,33.21,5.48l3.95-14c-8.56-2.07-24.92-8.29-28.94-12.11Z" style="fill: url(#linear-gradient);"/>
        <path d="M60.88,229.71s-2.95,43.89,53.2,41.12c56.15-2.77,63.75-41.35,63.75-41.35l-18.75-6.53s-4.16,7.7-34.44,7.78c-44.03.13-44.72-8.73-44.72-8.73l-19.04,7.71Z" style="fill: url(#linear-gradient-2);"/>
        <path d="M109.52,229.74s-5-6.58-9.27-6.42c-4.27.16-42.52,10.34-47.98,10.83,0,0,14.58-.31,26.31-2.26,11.72-1.96,20.05-6.5,30.94-2.15Z" style="fill: url(#linear-gradient-3);"/>
        <path d="M125.32,228.41s4.16-5.09,9.52-5.58c5.37-.49,42.82,8.92,49.5,11.21,0,0-47.98-9.31-59.02-5.63Z" style="fill: url(#linear-gradient-4);"/>
        <path d="M223.3,339.12c.73-17.64,33.06-81.23,20.35-91.09-4.13-3.21-17.19-9.09-31.56-13.03-19.94-5.48-41.44-10.22-41.44-10.22,0,0-10.08,14.16-52.71,12.66-49.01-1.72-49.17-12.66-49.17-12.66l-39.03,11.45-25.46,9.01c0,1.71,12.06,75.13,16.98,104.95h200.71c.42-5.89.9-10.97,1.32-11.06Z" style="fill: #f5d534;"/>
        <path d="M68.78,224.78s-5.16,18.37,56.39,16.28c45.63-1.56,45.48-16.28,45.48-16.28l-6.84-2.21s-.82,11.87-39.78,12.74c-50.25,1.11-48.34-12.74-48.34-12.74l-6.91,2.21Z" style="fill: url(#_ÂÁ_Ï_ÌÌ_È_ËÂÌÚ_29);"/>
        <path d="M88.93,208s-.9-37.78-1.86-45.09l61.44,6.34.7,26.38s-14.56,23.31-30.19,23.48c-8.07.08-20.19-1.63-30.09-11.11Z" style="fill: url(#linear-gradient-5);"/>
        <g>
          <path d="M116.37,24.79c-.11-.07-.16-.09-.16-.09.06.03.11.06.16.09Z" style="fill: url(#_ÂÁ_Ï_ÌÌ_È_ËÂÌÚ_14);"/>
          <g>
            <g>
              <path d="M56.18,113.08c2.72,20.19,6.19,35.55,6.19,35.55-8.64.03-13.02-8.62-16.42-16.24-5.2-11.65-8.28-24.14,3.46-24.85,2.29-.14,6.77,5.55,6.77,5.55Z" style="fill: url(#linear-gradient-6);"/>
              <path d="M54.71,141.86s-4.24-4.46-2.96-13.26c3.02-20.78-11.06-22.15-7.82-7.99,0,0,1.92-6.69,3.71-4.7,2.2,2.45-2.34,3.82.02,14.53,1.23,5.56,7.05,11.42,7.05,11.42Z" style="fill: url(#linear-gradient-7);"/>
            </g>
            <g>
              <path d="M177.05,112.68c-2.59,20.2-4.77,35.58-4.77,35.58,8.64-.03,11.78-8.7,15.12-16.34,5.12-11.68,8.12-24.2-3.62-24.83-2.29-.12-6.74,5.59-6.74,5.59Z" style="fill: url(#linear-gradient-8);"/>
              <path d="M178.71,141.45s4.21-4.49,2.87-13.28c-3.16-20.75,10.91-22.22,7.76-8.04,0,0-1.97-6.68-3.74-4.67-2.18,2.46,2.36,3.8.08,14.53-1.19,5.57-6.97,11.47-6.97,11.47Z" style="fill: url(#linear-gradient-9);"/>
            </g>
            <path d="M169.75,48.72c-7.58-17.17-19.22-27.8-45.37-29.37,0,0-59.71,7.99-67.17,25.22-8.13,18.76-5.7,45.07-3.3,62.28s7.18,45.1,11.5,52.99c4.32,7.89,12.2,20.23,20.61,31.22,3.24,4.23,15.41,23.25,30.99,24.38,6.09.44,13.84-1.78,31.78-24.38,3.64-4.59,15.24-24.47,19.51-32.39,4.27-7.92,8.94-35.02,11.23-52.24,2.28-17.22-1.51-39-9.77-57.71Z" style="fill: url(#_ÂÁ_Ï_ÌÌ_È_ËÂÌÚ_384);"/>
            <path d="M100.56,91.43c-7.56-4.07-34.14.05-38.47,3.31-10.09,7.6-2.6,28.86-2.6,28.86,0,0,19.83,21.41,53.35,8.1-2.73-14.05-6.32-37.08-12.27-40.28Z" style="fill: url(#linear-gradient-10);"/>
            <path d="M91.93,114.28c-7.71-2.28-37.56-8.45-36.11,1.45,3.22,21.9,6.13,36.95,9.96,43.76,4.01,7.13,15.78,18.34,20.85,19.18,7.84,1.31,16.06-27.58,16.21-37.46.22-13.84-3.21-24.65-10.92-26.92Z" style="fill: url(#radial-gradient);"/>
            <path d="M117.75,172.13c-5.5.28-9.91,2.27-9.87,4.45.04,2.18,4.51,3.74,9.99,3.46,5.48-.28,9.89-2.26,9.86-4.45-.04-2.18-4.52-3.73-9.99-3.45Z" style="fill: url(#linear-gradient-11);"/>
            <path d="M171.48,134.67s6.44-19.86,7.13-23.39c4.03-20.51,8.16-91.35-67.48-86.44-77.79,5.05-52.38,109.17-52.38,109.17,0,0,23.82-91.47,56.98-92.4,0,0,39.59,1.25,55.75,93.07Z" style="fill: url(#_ÂÁ_Ï_ÌÌ_È_ËÂÌÚ_18);"/>
            <polygon points="58.75 134.01 65.39 159.84 64.78 78.94 56.74 87.18 58.75 134.01" style="fill: url(#_ÂÁ_Ï_ÌÌ_È_ËÂÌÚ_72);"/>
            <path d="M168.03,96.65c-4.38-3.12-29.31-7.76-37.52-5.22-6.91,2.14-7.26,24.93-9.77,39.18,33.7,12.11,53.21-10.21,53.21-10.21,0,0,4.28-16.49-5.92-23.75Z" style="fill: url(#linear-gradient-12);"/>
            <path d="M138.54,91.93s17.31-2.96,29.49,4.72l2.99,6.65c.8,4.75-1.58-4.16-32.48-11.37Z" style="fill: url(#linear-gradient-13);"/>
            <path d="M141.59,114.11c7.69-2.33,37.51-8.7,36.12,1.21-3.07,21.92-5.89,36.99-9.67,43.83-3.96,7.16-15.66,18.44-20.72,19.32-7.83,1.36-16.24-27.47-16.46-37.36-.31-13.84,3.05-24.67,10.74-27Z" style="fill: url(#radial-gradient-2);"/>
            <polygon points="173.59 136.98 167.66 156.19 166.08 81.04 175.97 86.05 173.59 136.98" style="fill: url(#_ÂÁ_Ï_ÌÌ_È_ËÂÌÚ_72-2);"/>
            <g>
              <g>
                <path d="M148.46,104.04c-17.4.04-18.99,10.68-19.33,18.36,1.32.29,2.7.54,5.29,1.33,3.49,1.07,7.59,2.79,13.5,2.72,4.65-.05,14.65-2.17,14.77-12.17.1-7.91-10.02-9.91-14.23-10.25Z" style="fill: url(#_ÂÁ_Ï_ÌÌ_È_ËÂÌÚ_18-2);"/>
                <path d="M129.92,121.8c3.8.53,6.34,1.83,8.98,2.54-2.06-1.89-3.25-3.6-3.1-6.72.13-2.7,2.18-5.66,3.94-7.29-6.15,3.65-9.81,11.48-9.81,11.48Z" style="fill: url(#_ÂÁ_Ï_ÌÌ_È_ËÂÌÚ_131);"/>
                <path d="M132.31,118.25s-1.32,1.68.95,4.26c0,0-1.55-.47-3.34-.71,0,0,1.58-2.77,2.39-3.55Z" style="fill: url(#_ÂÁ_Ï_ÌÌ_È_ËÂÌÚ_107);"/>
                <path d="M129.92,121.8c1.09-1.06,3.02-3.24,6.04-5.05.37-2.11,1.56-3.98,3.27-5.29-5.63,2.75-9.31,10.34-9.31,10.34Z" style="fill: #ddd;"/>
                <path d="M153.21,118.46c-.16,3.25-1.86,5.28-4.24,6.86,10.16-1.35,13.03-9.41,13.03-9.41-6.29-5.2-10.81-6.81-15.1-7.19,3.83,1.28,6.52,5.24,6.31,9.74Z" style="fill: url(#_ÂÁ_Ï_ÌÌ_È_ËÂÌÚ_131-2);"/>
                <path d="M135.93,116.53c-.07.39-.1.67-.14,1.08-.22,3.02.95,4.91,3.1,6.72.72.35,7.09,1.63,10.99.97,2.49-1.54,4.28-3.5,4.46-6.65.09-1.64-.25-3.21-.92-4.59-4.94-1.69-11.45-1.64-17.49,2.46Z" style="fill: url(#_ÂÁ_Ï_ÌÌ_È_ËÂÌÚ_387);"/>
                <path d="M136.93,117.58c0,4.24,3.65,7.05,8.15,7.04,4.5-.01,8.12-2.74,8.11-6.98,0-4.24-3.64-7.7-8.14-7.69s-8.13,3.39-8.12,7.63Z" style="fill: url(#_ÂÁ_Ï_ÌÌ_È_ËÂÌÚ_387-2);"/>
                <path d="M149.83,110.64c1.95,1.08,3.44,2.82,4.12,4.91,3.56,1.48,5.91,3.4,5.91,3.4l1.71-3.46c-2.48-3.13-7.22-4.01-11.73-4.84Z" style="fill: #ddd;"/>
                <path d="M149.83,110.64c-2.73-.5-5.56-.53-8.19-.02-.84.16-1.65.45-2.42.83-1.71,1.32-3,3.16-3.33,5.3,2.23-1.33,5.11-2.47,8.63-2.81,3.52-.33,6.85.53,9.48,1.62-.62-2.14-2.22-3.85-4.17-4.93Z" style="fill: url(#_ÂÁ_Ï_ÌÌ_È_ËÂÌÚ_387-3);"/>
                <path d="M145.33,111.21c-3.22-.24-6.01,2.1-6.23,5.21-.23,3.11,2.2,5.82,5.41,6.05,3.22.23,6.01-2.1,6.24-5.21.23-3.11-2.2-5.82-5.42-6.05Z" style="fill: url(#_ÂÁ_Ï_ÌÌ_È_ËÂÌÚ_105);"/>
                <path d="M144.67,115.64c.77-.44,1.77-.16,2.24.62.47.78.23,1.78-.53,2.21-.76.44-1.76.16-2.23-.62-.48-.78-.24-1.77.52-2.21Z" style="fill: #fff;"/>
                <path d="M149.15,117.97c1.05-.62,2.38-.29,2.98.75.61,1.04.25,2.38-.8,3-1.04.63-2.38.29-2.98-.74-.6-1.04-.25-2.38.79-3Z" style="fill: #fff;"/>
                <path d="M165.87,108.17s-1.69,2.67-10.19-.37c-16.36-5.25-25.46,5.2-25.77,14,0,0,4.9-10.57,14.17-11.51,5.65-.57,10.55,2.65,15.43,5.29.07,3.92-5.14,8.72-10.77,9.87,4.82.03,15.54-4.96,16.31-9.04-.3.51-1.32.86-2.63.39,0,0,4.6-1.85,3.45-8.62Z" style="fill: url(#_ÂÁ_Ï_ÌÌ_È_ËÂÌÚ_1655);"/>
                <path d="M140.12,104.88c-5.67,1.95-8.12,6.06-8.12,6.06,0,0,2.55-3.37,8.63-5.2,6.32-1.9,15.05-.09,15.05-.09-3.84-1.8-9.89-2.73-15.56-.77Z" style="fill: url(#_ÂÁ_Ï_ÌÌ_È_ËÂÌÚ_18-3);"/>
                <path d="M139.35,115.11s3.88-2.27,10.79-.77c0,0-1.4-3.51-6.06-3.15-3.81.3-4.73,3.92-4.73,3.92Z" style="fill: #0f0f0f;"/>
                <path d="M143.27,108.94c-10.51,2.4-13.36,12.86-13.36,12.86,0,0,4.52-9.76,14.17-11.51,5.49-.99,13.1,4,15.43,5.29,0,0-7.31-8.68-16.24-6.64Z" style="fill: url(#_ÂÁ_Ï_ÌÌ_È_ËÂÌÚ_44);"/>
              </g>
              <g>
                <path d="M84.17,104.19c17.4-.04,19.04,10.6,19.42,18.27-1.31.3-2.7.55-5.29,1.36-3.49,1.09-7.58,2.83-13.48,2.78-4.65-.03-14.66-2.11-14.83-12.1-.13-7.91,9.98-9.95,14.18-10.31Z" style="fill: url(#_ÂÁ_Ï_ÌÌ_È_ËÂÌÚ_18-4);"/>
                <path d="M102.79,121.86c-3.8.55-6.33,1.86-8.97,2.58,2.05-1.9,3.23-3.61,3.07-6.74-.15-2.7-2.21-5.65-3.97-7.27,6.17,3.63,9.87,11.43,9.87,11.43Z" style="fill: url(#_ÂÁ_Ï_ÌÌ_È_ËÂÌÚ_131-3);"/>
                <path d="M100.38,118.32s1.32,1.68-.93,4.27c0,0,1.54-.48,3.34-.73,0,0-1.59-2.77-2.41-3.54Z" style="fill: url(#_ÂÁ_Ï_ÌÌ_È_ËÂÌÚ_107-2);"/>
                <path d="M102.79,121.86c-1.09-1.06-3.03-3.22-6.06-5.02-.38-2.11-1.58-3.97-3.3-5.28,7.12,4.03,9.35,10.3,9.35,10.3Z" style="fill: #ddd;"/>
                <path d="M79.48,118.63c.17,3.25,1.89,5.28,4.27,6.84-10.17-1.3-13.07-9.36-13.07-9.36,6.27-5.23,10.78-6.86,15.07-7.26-3.82,1.3-6.5,5.27-6.26,9.77Z" style="fill: url(#_ÂÁ_Ï_ÌÌ_È_ËÂÌÚ_131-4);"/>
                <path d="M96.75,116.62c.07.39.11.67.14,1.08.23,3.02-.93,4.91-3.07,6.74-.72.35-7.09,1.66-10.99,1.02-2.49-1.53-4.3-3.48-4.49-6.63-.1-1.64.23-3.21.9-4.59,4.94-1.72,11.45-1.69,17.5,2.38Z" style="fill: url(#_ÂÁ_Ï_ÌÌ_È_ËÂÌÚ_387-4);"/>
                <path d="M95.76,117.67c0,4.24-3.62,7.07-8.12,7.08-4.5.01-8.13-2.71-8.14-6.95,0-4.24,3.61-7.72,8.11-7.73,4.5-.01,8.14,3.35,8.15,7.6Z" style="fill: url(#_ÂÁ_Ï_ÌÌ_È_ËÂÌÚ_387-5);"/>
                <path d="M82.83,110.79c-1.95,1.09-3.43,2.83-4.1,4.92-3.56,1.49-5.89,3.42-5.89,3.42l-1.72-3.46c2.47-3.15,7.2-4.04,11.71-4.89Z" style="fill: #ddd;"/>
                <path d="M83.36,110.58c2.73-.51,5.03-.34,7.66.16.84.16,1.65.45,2.42.82,1.71,1.31,3.01,3.14,3.35,5.28-2.24-1.32-5.12-2.45-8.65-2.77-3.52-.32-6.85.56-9.47,1.66.39-1.78,2.14-4.4,4.68-5.16Z" style="fill: url(#_ÂÁ_Ï_ÌÌ_È_ËÂÌÚ_387-6);"/>
                <path d="M87.34,111.34c3.22-.25,6.02,2.07,6.26,5.18.25,3.11-2.17,5.83-5.39,6.08-3.22.25-6.02-2.08-6.26-5.18-.24-3.11,2.18-5.83,5.39-6.07Z" style="fill: url(#_ÂÁ_Ï_ÌÌ_È_ËÂÌÚ_105-2);"/>
                <path d="M89.23,115.77c-.77-.44-1.77-.15-2.24.63-.47.78-.23,1.78.54,2.21.76.44,1.76.15,2.23-.63.47-.78.23-1.77-.53-2.21Z" style="fill: #fff;"/>
                <path d="M94.49,118.1c-1.05-.61-2.38-.28-2.98.76-.6,1.04-.24,2.38.81,2.99,1.05.62,2.38.28,2.98-.76.6-1.04.24-2.38-.81-3Z" style="fill: #fff;"/>
                <path d="M66.78,108.4s1.7,2.66,10.18-.42c16.34-5.32,25.48,5.09,25.83,13.88,0,0-4.01-11.45-14.22-12.34-9.06-.8-14.27,5.26-15.41,6.26-.05,3.92,5.18,8.7,10.82,9.82-4.82.05-15.56-4.89-16.35-8.97.3.51,1.33.86,2.63.38,0,0-4.61-1.83-3.48-8.61Z" style="fill: url(#_ÂÁ_Ï_ÌÌ_È_ËÂÌÚ_1655-2);"/>
                <path d="M92.52,104.99c5.68,1.93,8.15,6.02,8.15,6.02,0,0-2.57-3.36-8.66-5.16-6.32-1.87-15.05-.02-15.05-.02,3.84-1.81,9.88-2.77,15.56-.85Z" style="fill: url(#_ÂÁ_Ï_ÌÌ_È_ËÂÌÚ_18-5);"/>
                <path d="M93.33,115.22s-3.89-2.29-10.79-.75c0,0,1.33-3.49,5.98-3.15,3.81.28,4.81,3.9,4.81,3.9Z" style="fill: #0f0f0f;"/>
                <path d="M89.2,109.27c10.64,1.77,13.59,12.59,13.59,12.59,0,0-3.91-9.53-13.57-11.23-5.49-.97-12.93,1.99-16.06,5.14,0,0,6.46-8.09,16.04-6.5Z" style="fill: url(#_ÂÁ_Ï_ÌÌ_È_ËÂÌÚ_44-2);"/>
              </g>
            </g>
            <path d="M133.61,84.2c-1.07.88-2.23,4.11-1.89,5.98.54-2.85,2.34-5.78,4.36-6.09.18,0,.39-.01.6-.01-1.5.93-2.59,2.54-2.85,4.69.89-1.46,2.56-4.02,4.67-4.6,5.77.25,14.41,2.94,18.06,4.41,5.19,2.08,12.7,8.37,12.7,8.37,0,0-9.05-2.14-13.94-3.45-3.15-.83-20.57-1.79-24.82-2.07-.56-.04-.6-5.74,3.1-7.23Z" style="fill: url(#_ÂÁ_Ï_ÌÌ_È_ËÂÌÚ_11);"/>
            <path d="M97.46,84.2c1.07.88,2.23,4.11,1.89,5.98-.54-2.85-2.34-5.78-4.36-6.09-.18,0-.39-.01-.6-.01,1.5.93,2.59,2.54,2.85,4.69-.89-1.46-2.56-4.02-4.67-4.6-5.77.25-14.41,2.94-18.06,4.41-5.19,2.08-12.7,8.37-12.7,8.37,0,0,9.05-2.14,13.94-3.45,3.15-.83,20.57-1.79,24.82-2.07.56-.04.6-5.74-3.1-7.23Z" style="fill: url(#_ÂÁ_Ï_ÌÌ_È_ËÂÌÚ_11-2);"/>
            <path d="M73.56,124.91c-2.73-.59-5.18.25-5.47,1.89-.3,1.65,1.68,3.46,4.4,4.06,2.73.59,5.18-.25,5.48-1.89.29-1.65-1.68-3.46-4.41-4.06Z" style="fill: url(#_ÂÁ_Ï_ÌÌ_È_ËÂÌÚ_126);"/>
            <path d="M157.96,124.63c2.72-.61,5.18.22,5.48,1.86.31,1.64-1.65,3.47-4.37,4.09-2.73.61-5.18-.22-5.49-1.85-.3-1.64,1.66-3.47,4.38-4.09Z" style="fill: url(#_ÂÁ_Ï_ÌÌ_È_ËÂÌÚ_126-2);"/>
            <path d="M54.95,110.9s5.46,39.57,10.53,50.57c1.65,3.58,12.08,19.78,21.36,30.71,0,0-14.41-22.05-19.33-34.66-4.22-10.84-12.56-46.62-12.56-46.62Z" style="fill: url(#_ÂÁ_Ï_ÌÌ_È_ËÂÌÚ_18-6);"/>
            <path d="M179.11,110.9s-5.46,39.57-10.53,50.57c-1.65,3.58-11.57,19.72-20.69,30.67,0,0,15.54-28.73,18.6-36.18,4.42-10.76,12.61-45.06,12.61-45.06Z" style="fill: url(#_ÂÁ_Ï_ÌÌ_È_ËÂÌÚ_23);"/>
            <g>
              <polygon points="105.29 148.07 116.71 155.92 127.43 147.84 125.9 146.56 116.13 146.68 106.39 146.68 105.29 148.07" style="fill: url(#linear-gradient-14);"/>
              <path d="M105.64,147.86s4.32-1.34,8.12.26h4.64s4.61-1.78,9.03-.28l.19-2.1-3.7-.75-7.79,1.96-7.12-1.96-3.71.43.34,2.44Z" style="fill: url(#linear-gradient-15);"/>
              <path d="M104.15,138.82s-2.01,1.12-2.31,4.18c-.35,3.5,3.28,5.41,3.83,5.05.56-.36-.46-3,2.88-2.54s3.17,2.15,3.71,2.73c.54.57,6.42.71,7.42.09.99-.62.72-2.92,3.88-2.82,3.16.1,3.25,2.26,3.7,2.54.45.28,2.33-1.4,2.87-4.61.54-3.21-2.84-4.61-2.84-4.61,0,0,1.71,2.85.99,4.67s-5.59.25-7.58,1.5c-3.67,2.3-5.89,1.73-9.54,0-2.4-1.14-5.76.29-7.11-1.68-.47-.69-.58-3.13.09-4.49Z" style="fill: #f0c499;"/>
              <path d="M108.59,137.24c-.06,2.23.2,3.18,1.15,4.64,1.45,2.22,11.65,4.04,13.4-1.06.35-1.02.34-2.61.15-4.61-.21-2.29-14.65-1.2-14.71,1.03Z" style="fill: url(#_ÂÁ_Ï_ÌÌ_È_ËÂÌÚ_23-2);"/>
            </g>
            <g>
              <path d="M86.84,192.18s10.32,12.33,15.1,16.08c3.98,3.12,6.73,4.4,14.94,4.68,8,.27,12.8-2.78,15.05-4.28,2.36-1.58,15.72-16.5,16.86-17.59,0,0-5.13,8.5-14.45,18.77-5.7,6.29-12.94,7.5-17.32,7.5-5.51,0-12.15-3.13-15.08-5.71-6.36-5.59-15.1-19.44-15.1-19.44Z" style="fill: url(#linear-gradient-16);"/>
              <path d="M117.09,195.66c-5.42.26-9.78,2.21-9.75,4.35.03,2.15,4.43,3.7,9.84,3.45,5.41-.26,9.76-2.2,9.74-4.36-.03-2.15-4.45-3.7-9.84-3.44Z" style="fill: url(#linear-gradient-17);"/>
              <path d="M97.99,166.9s9.14-12.95,12.33-13.46c3.18-.51,11.54-.86,13.37-.29,1.84.57,8.57,7.23,12.79,13.97l-20.02-7.63-18.46,7.4Z" style="fill: url(#_ÂÁ_Ï_ÌÌ_È_ËÂÌÚ_45);"/>
              <g>
                <path d="M93.96,166.47c.58-1.42,6.32,2.1,7.61,5.05-2.19-1.83-8.63-2.59-7.61-5.05Z" style="fill: url(#linear-gradient-18);"/>
                <path d="M139.93,166.76c-.75-1.34-6.05,2.84-6.98,5.92,1.96-2.07,8.28-3.59,6.98-5.92Z" style="fill: url(#linear-gradient-19);"/>
                <path d="M97.43,168.45s3.54,9.09,7.72,17.62c2.21,4.51,6.73,7.12,12.11,7.08,6.47-.05,10.83-2.33,13.19-8.13,3.07-7.56,5.74-14.49,6.11-15.79,0,0-27.69,7.68-39.12-.78Z" style="fill: url(#linear-gradient-20);"/>
                <path d="M96.79,167.9s13.73-6.73,15.35-8.34c1.62-1.62,11-1.14,11-1.14l14.12,9.59s-8.31,20.53-22.44,19.6c-10.86-.71-17.99-19.62-18.02-19.71Z" style="fill: #951c27;"/>
                <path d="M105.33,163.36s3.91,2.45,8.75,2.15c2.15-.14,12.34.63,15.56-3.14,0,0-15.16-6.55-24.31.99Z" style="fill: url(#linear-gradient-21);"/>
                <path d="M101.41,177.02s-1.31-5.16,5.56-7.4c4.65-1.52,15.95-.77,21.26.72,4.69,1.32,5.37,6.42,4.01,7.76-1.36,1.33-7.61,7.93-14.03,8.13-6.42.19-12.56-.84-16.8-9.2Z" style="fill: url(#linear-gradient-22);"/>
                <path d="M132.03,173.19s1.01,1.52,1.18,3.71c.12,1.62-6.13,7.08-7.8,7.86-1.67.78-15.04,3.14-17.91-.05-2.86-3.19-5.95-7.43-5.95-7.43,0,0-1.05-2.09.91-4.72,0,0,4.59,11.11,13.58,11.32,9.16.21,13.28-6.84,15.99-10.69Z" style="fill: url(#linear-gradient-23);"/>
                <path d="M128.3,179.84s-8.38,12.81-22.15.84c0,0,12.48,5.88,22.15-.84-4.08,4.58,0,0,0,0Z" style="fill: url(#linear-gradient-24);"/>
                <path d="M96.98,168.38s4.21,15.14,11.81,20.94c4.29,3.27,13.87,2.95,18.05-.17,5.49-4.09,9.99-20.21,9.99-20.21,0,0-2.81,6.64-11.24,13.16-5.11,3.96-12.89,3.01-16.42.56-8.15-5.66-12.2-14.29-12.2-14.29Z" style="fill: #f86d78;"/>
                <path d="M130.76,178.44c1.22-1.07-1.02,6.79-6.77,9.84-4.86,2.58-9.57,2.29-13.24-.3-2.65-1.88-8.4-9.12-4.82-6.91,3.35,2.07,4.01,2.7,6.56,3.67,1.88.72,5.9,1.7,11.12-1,5.03-2.6,6.08-4.36,7.15-5.3Z" style="fill: url(#linear-gradient-25);"/>
                <path d="M127.25,183.08c.09.99-.84,2.76-2.96,4.15-1.89,1.24-4.81,1.15-5.2.61-.4-.54,1.03-.78,4.04-2.15,2.78-1.26,3.73-3.14,4.13-2.61Z" style="fill: #ff9aa2;"/>
                <path d="M139.17,166.9c-.23-.1-1.39.68-2.4,1.2-.67.25-1.28.48-1.84.7.07.36.1.72.12,1.09.43-.33.87-.64,1.32-.92,3.43,0,3.19-1.9,2.8-2.06Z" style="fill: #961b27;"/>
                <path d="M98.3,168.14c-1.57-.67-3.32-1.78-3.54-1.66-.31.17-.52,1.96,2.35,1.88.62.27,1.72.88,2.99,1.55-.04-.43-.1-.86-.22-1.27-.57-.19-1.1-.36-1.58-.51Z" style="fill: #961b27;"/>
                <path d="M105.34,163.49l1.74.74s4.38-1.31,6.74-1.72c2.35-.41,8.34-.58,13.92,1.27,0,0,1.06-.52,1.46-.98,0,0-4.59-4.26-11.25-3.4-6.66.86-12.61,4.09-12.61,4.09Z" style="fill: url(#linear-gradient-26);"/>
                <path d="M109.88,156.02c2.21-.99,12.43-.93,14.76-.11,4.2,1.48,8.85,7.57,12.48,12.01-7.04-3.15-9.98-6.77-14.5-7.34-1.65-.21-8.95-.18-10.6.41-6.93,2.5-8.94,5.23-14.75,6.67,0,0,9.19-10.1,12.6-11.64Z" style="fill: #f86d78;"/>
                <path d="M101.53,164.1c-1.3.33,6.93-6.81,9.12-7.66,2.35-.92,12.82-.48,14.23.1,2.24.92,9.53,7.62,8.63,7.54-3.74-.32-7.14-3.55-10.78-4.47-1.17-.3-9.08-.25-10.79.54-1.24.58-6.16,2.87-10.4,3.94Z" style="fill: url(#linear-gradient-27);"/>
              </g>
            </g>
          </g>
          <path d="M175.13,142.88s-12.46,37.48-18.03,49.89c-5.58,12.41-.12,54.39-.12,54.39,0,0,31-59.49,27.39-86.47-3.61-26.98-9.23-17.81-9.23-17.81Z" style="fill: url(#_ÂÁ_Ï_ÌÌ_È_ËÂÌÚ_8-4);"/>
          <path d="M199.7,223.45s4.11,16.72,14.49,25.54c0,0-12.76-2.4-15.78-9.9-3.02-7.49,1.29-15.64,1.29-15.64Z" style="fill: url(#_ÂÁ_Ï_ÌÌ_È_ËÂÌÚ_8-5);"/>
          <path d="M36.24,220.77s-4,16.75-14.32,25.63c0,0,12.74-2.49,15.71-10,2.97-7.51-1.39-15.63-1.39-15.63Z" style="fill: url(#_ÂÁ_Ï_ÌÌ_È_ËÂÌÚ_8-6);"/>
          <path d="M86.9,219.45c-2.09-25.72-13.81-44.52-19.54-51.91-9.38-12.12-10.32-39.61-10.32-39.61,0,0-5.54,44.5-7.77,60.44-3.44,24.6,7.28,57.91,18.46,65.14,7.29-12.84,8.15-27.62,5.57-45.95,9.89,19.49,2.14,38.03.17,49.91,7.5-8.42,14.33-27.07,13.44-38.03Z" style="fill: url(#_ÂÁ_Ï_ÌÌ_È_ËÂÌÚ_8-7);"/>
          <path d="M175.58,116.83c2.39,12.74,3.72,26.31,3.77,40.14.13,34.77-17.07,98.07-34.83,101.03,5.57-.77,20.67-1.97,32.57-18.91.78,6.21-6.52,10.77-12.09,15.49,11.27-6.1,16.54-11.51,16.54-11.51-2.81,5.12-4.62,9.18-13.89,16.05,5.72-.93,22.77-11.97,30.75-22.87,4.92-11.5,9.57-22.73,12.14-35.89-2.03-19.52-8.03-38.07-18.54-56.6-5.48-8.71-11.62-17.42-16.43-26.94Z" style="fill: url(#_ÂÁ_Ï_ÌÌ_È_ËÂÌÚ_46);"/>
          <path d="M202.46,153.53c-.54-5.11-14.01-86.2-20.62-99.82C156.08.6,116.33,18.69,116.33,18.69l-2.99,20.62c29.55-5.63,53.35,30.17,62.24,77.52,4.81,9.51,10.95,18.22,16.43,26.94,10.5,18.53,12.51,25.42,10.45,9.77Z" style="fill: url(#_ÂÁ_Ï_ÌÌ_È_ËÂÌÚ_8-8);"/>
          <path d="M63.21,25.84c-19.21,16.95-24.65,36.28-26.87,49.36-1.31,7.74-8.11,55.8-11.56,88.71,8.06-17.22,17.7-22.2,30.11-35.94.55-.83,1.04-1.67,1.51-2.51,1.26-28.54,6.47-52.39,22.95-68.59,20.73-20.37,34-17.57,34-17.57l2.99-20.62c-10-8.02-41.59-3.02-53.12,7.15Z" style="fill: url(#_ÂÁ_Ï_ÌÌ_È_ËÂÌÚ_8-9);"/>
          <path d="M24.78,163.92c-13.14,27.42-7.65,55.83-.22,65.75,6.18,7.2,17.11,18.57,25.34,23.8-3.24-4.14-8.61-13.99-7.93-20.01,5.56,18.38,28.65,23.2,31.5,24.02-21.29-17.45-24.27-32.03-24.99-58.86-.51-18.75,7.21-56.89,7.93-73.15-.47.85-.96,1.69-1.51,2.51-12.4,13.74-22.05,18.72-30.11,35.94Z" style="fill: url(#_ÂÁ_Ï_ÌÌ_È_ËÂÌÚ_55);"/>
          <path d="M113.84,39.27s25.93-12.01,42.48,9c16.55,21,16.31,65.79,25.8,89.89,9.5,24.1,24.04,59.03,17.99,78.72-6.05,19.69-23.19,35.38-23.19,35.38,0,0,19.93-25.29,16.56-49.16-3.37-23.86-19.14-47.54-22.92-73.47-3.78-25.93-8.26-63.4-26.13-80.07-17.87-16.67-30.58-10.29-30.58-10.29Z" style="fill: url(#linear-gradient-28);"/>
          <path d="M116.21,24.7s-38.22-6.54-53.64,27.23c-15.42,33.77-29.74,73.84-29.74,73.84,0,0,20.65-76.42,23.76-83.39,4.53-10.16,28.93-38.57,59.62-17.68Z" style="fill: url(#_ÂÁ_Ï_ÌÌ_È_ËÂÌÚ_8-10);"/>
          <path d="M118.49,22.55s22.05-6.34,45.99,18.79c13.13,13.78,18.86,87.65,18.86,87.65,0,0,1.58-58.82-4.26-78.51-5.84-19.69-36.56-48.45-60.59-27.93Z" style="fill: url(#_ÂÁ_Ï_ÌÌ_È_ËÂÌÚ_8-11);"/>
          <path d="M48.28,142.39s-18.77,33-21,54.75c-2.23,21.75-10,40.76-21.04,43.05,0,0,14.73-2.98,21.14-11.46,6.42-8.48,11.29-66.49,20.9-86.34Z" style="fill: url(#_ÂÁ_Ï_ÌÌ_È_ËÂÌÚ_10);"/>
          <path d="M66.46,86.7s-9.84,28.54-15.15,63.94c-4.32,28.79-9.26,41.12-7.33,59.5,2.13,20.21,8.73,41.05,29.47,47.34,0,0-16.19-7.98-21.43-47.37-1.83-13.75,2.36-36.76,5.7-59.5,4.78-32.52,8.73-63.92,8.73-63.92Z" style="fill: url(#linear-gradient-29);"/>
          <path d="M175.14,176.95s7.36,75.15-30.62,81.05c0,0,23.44-9.81,30.62-81.05Z" style="fill: url(#linear-gradient-30);"/>
          <path d="M166.88,168.41s-9.3,13.3-15.49,26.17c-6.19,12.87.14,42.5.14,42.5,0,0-.67-21.2,4.53-34.19s10.82-34.47,10.82-34.47Z" style="fill: url(#linear-gradient-31);"/>
          <path d="M69.32,169.5s12.25,14.47,17.84,33.43c5.59,18.96-3.99,47.63-3.99,47.63,0,0,3.4-34.22-.17-50.04-3.57-15.82-13.69-31.03-13.69-31.03Z" style="fill: url(#linear-gradient-32);"/>
          <path d="M40.1,209.54s-2.95,30.11,12.17,45.25c0,0-28.66-8.05-12.17-45.25Z" style="fill: url(#linear-gradient-33);"/>
          <path d="M183.66,215.44s6.06,28.14-19.61,39.59c0,0,21.16-18.41,19.61-39.59Z" style="fill: url(#linear-gradient-34);"/>
          <path d="M116.35,24.09s17.27-8.34,48.65,4.73c0,0-20.39-22.56-46.15-14.15,0,0-26.93-15.8-54,9.89,0,0,7.77-6.18,21.28-7.86,11.26-1.4,28.45.87,30.23,7.4Z" style="fill: url(#linear-gradient-35);"/>
          <path d="M163.48,88.97s-3.01-29.12-13.13-40.11c-12.24-13.3-25.48-12.77-36.52-9.59,0,0,15.88-2.83,28.38,8.45,12.49,11.27,12.87,18.77,21.27,41.25Z" style="fill: url(#_ÂÁ_Ï_ÌÌ_È_ËÂÌÚ_8-12);"/>
          <path d="M113.84,39.27s-10.11-2.41-17.45,0c-14.2,4.65-21.24,21.57-24.93,44.63,0,0,4.17-26.34,23.85-37.73,10.62-6.15,18.53-6.9,18.53-6.9Z" style="fill: url(#_ÂÁ_Ï_ÌÌ_È_ËÂÌÚ_8-13);"/>
          <path d="M118.5,24.79s34.65-16.73,51.62,24.93c12.39,30.43,10.39,61.37,10.39,61.37,0,0-2.06-50.8-29.03-76.96-15.32-14.86-32.98-9.33-32.98-9.33Z" style="fill: url(#_ÂÁ_Ï_ÌÌ_È_ËÂÌÚ_8-14);"/>
          <path d="M116.21,24.7s-12.21-5.27-27.94.19c-12.26,4.26-21.97,15.93-27.41,29.33-3.56,8.78-11.9,32.83-21.13,52.97,0,0,20.17-27.27,27.26-50.34,5.13-16.71,24.39-36.08,49.21-32.15Z" style="fill: url(#_ÂÁ_Ï_ÌÌ_È_ËÂÌÚ_8-15);"/>
          <path d="M184.37,77.18s-1.56,48.98,23.65,101.95l-23.65-101.95Z" style="fill: url(#_ÂÁ_Ï_ÌÌ_È_ËÂÌÚ_8-16);"/>
          <path d="M56.73,83.94l-32.05,75.48s30.61-25.28,32.05-75.48Z" style="fill: url(#_ÂÁ_Ï_ÌÌ_È_ËÂÌÚ_8-17);"/>
          <path d="M186.46,130.02s15.65,22,22.84,42.78c7.89,22.79,5.7,40.89-8.71,62.09,0,0,8.84-25.29-.22-65.82-3.63-16.26-13.91-39.05-13.91-39.05Z" style="fill: url(#_ÂÁ_Ï_ÌÌ_È_ËÂÌÚ_7);"/>
          <path d="M113.84,39.27s-22.37-12.64-38.58,11.31c-13.57,20.05-13.86,53.23-34.22,83.52-8.44,12.55-28.93,33.17-29.31,59.16,0,0,2.39-12.75,23.02-36.59,20.63-23.84,32.44-52.5,37.81-78.25,7.51-36.01,25.39-41.34,41.28-39.16Z" style="fill: url(#linear-gradient-36);"/>
          <path d="M63.42,166.69s20.45,50.58,5.94,83.67c0,0-3.17-67.28-5.94-83.67Z" style="fill: url(#_ÂÁ_Ï_ÌÌ_È_ËÂÌÚ_46-2);"/>
        </g>
      </g>
    </g>
  </g>
</svg>