<?xml version="1.0" encoding="UTF-8"?>
<svg id="Layer_2" data-name="Layer 2" xmlns="http://www.w3.org/2000/svg" width="234" height="234" xmlns:xlink="http://www.w3.org/1999/xlink" viewBox="0 0 234 234">
  <defs>
    <clipPath id="clippath">
      <rect width="234" height="234" style="fill: none;"/>
    </clipPath>
    <linearGradient id="_ÂÁ_Ï_ÌÌ_È_ËÂÌÚ_8" data-name="¡ÂÁ˚ÏˇÌÌ˚È „‡‰ËÂÌÚ 8" x1="85.76" y1="-104.54" x2="65.62" y2="-174.54" gradientTransform="translate(92.65 348.79) rotate(19.03)" gradientUnits="userSpaceOnUse">
      <stop offset="0" stop-color="#3b2621"/>
      <stop offset=".39" stop-color="#3e2822"/>
      <stop offset=".71" stop-color="#482e29"/>
      <stop offset="1" stop-color="#593a33"/>
    </linearGradient>
    <linearGradient id="_ÂÁ_Ï_ÌÌ_È_ËÂÌÚ_8-2" data-name="¡ÂÁ˚ÏˇÌÌ˚È „‡‰ËÂÌÚ 8" x1="-1673.88" y1="575.92" x2="-1694.01" y2="505.92" gradientTransform="translate(-1737.38 408.45) rotate(157.18) scale(1 -1)" xlink:href="#_ÂÁ_Ï_ÌÌ_È_ËÂÌÚ_8"/>
    <linearGradient id="_ÂÁ_Ï_ÌÌ_È_ËÂÌÚ_8-3" data-name="¡ÂÁ˚ÏˇÌÌ˚È „‡‰ËÂÌÚ 8" x1="135.09" y1="286.27" x2="215.79" y2="-181.84" gradientTransform="translate(-53.53 39.68) rotate(-1.9)" xlink:href="#_ÂÁ_Ï_ÌÌ_È_ËÂÌÚ_8"/>
    <linearGradient id="linear-gradient" x1="68.61" y1="193.7" x2="154.8" y2="219.91" gradientUnits="userSpaceOnUse">
      <stop offset="0" stop-color="#f0c499"/>
      <stop offset=".52" stop-color="#f1c69b"/>
      <stop offset=".85" stop-color="#f4cea4"/>
      <stop offset="1" stop-color="#f7d4ab"/>
    </linearGradient>
    <linearGradient id="linear-gradient-2" x1="216.68" y1="466.19" x2="323.24" y2="530.94" gradientTransform="translate(-321.81 -174.41) rotate(-16.11)" xlink:href="#linear-gradient"/>
    <linearGradient id="linear-gradient-3" x1="141.64" y1="563.18" x2="24.61" y2="596.05" gradientTransform="translate(231.25 -353.97) rotate(13.36)" xlink:href="#linear-gradient"/>
    <linearGradient id="linear-gradient-4" x1="83.41" y1="253.13" x2="220.19" y2="215.85" xlink:href="#linear-gradient"/>
    <linearGradient id="_ÂÁ_Ï_ÌÌ_È_ËÂÌÚ_29" data-name="¡ÂÁ˚ÏˇÌÌ˚È „‡‰ËÂÌÚ 29" x1="123.61" y1="255.43" x2="120.05" y2="221.12" gradientUnits="userSpaceOnUse">
      <stop offset="0" stop-color="#d6b01f"/>
      <stop offset=".42" stop-color="#e0bc26"/>
      <stop offset="1" stop-color="#f5d534"/>
    </linearGradient>
    <linearGradient id="linear-gradient-5" x1="115.08" y1="168.38" x2="124.42" y2="207.95" gradientUnits="userSpaceOnUse">
      <stop offset="0" stop-color="#dba379"/>
      <stop offset=".49" stop-color="#e3b086"/>
      <stop offset="1" stop-color="#f0c499"/>
    </linearGradient>
    <linearGradient id="_ÂÁ_Ï_ÌÌ_È_ËÂÌÚ_14" data-name="¡ÂÁ˚ÏˇÌÌ˚È „‡‰ËÂÌÚ 14" x1="176.35" y1="31.59" x2="176.25" y2="31.33" gradientTransform="translate(-57.56 -7.03) rotate(.42)" gradientUnits="userSpaceOnUse">
      <stop offset="0" stop-color="#cb8076"/>
      <stop offset=".31" stop-color="#b76f65"/>
      <stop offset=".95" stop-color="#86443a"/>
      <stop offset="1" stop-color="#824137"/>
    </linearGradient>
    <linearGradient id="_ÂÁ_Ï_ÌÌ_È_ËÂÌÚ_18" data-name="¡ÂÁ˚ÏˇÌÌ˚È „‡‰ËÂÌÚ 18" x1="107.04" y1="142.37" x2="98.97" y2="117.23" gradientTransform="translate(-45.34 2.25) rotate(1.15)" gradientUnits="userSpaceOnUse">
      <stop offset="0" stop-color="#dba379"/>
      <stop offset=".49" stop-color="#e3b086"/>
      <stop offset="1" stop-color="#f0c499"/>
    </linearGradient>
    <linearGradient id="linear-gradient-6" x1="-2904.43" y1="307.77" x2="-2902.79" y2="365.12" gradientTransform="translate(2960.34 14.98) rotate(.42)" xlink:href="#linear-gradient-5"/>
    <linearGradient id="_ÂÁ_Ï_ÌÌ_È_ËÂÌÚ_18-2" data-name="¡ÂÁ˚ÏˇÌÌ˚È „‡‰ËÂÌÚ 18" x1="221.53" y1="122.66" x2="240.91" y2="122.66" xlink:href="#_ÂÁ_Ï_ÌÌ_È_ËÂÌÚ_18"/>
    <linearGradient id="linear-gradient-7" x1="-2850.09" y1="307.85" x2="-2848.45" y2="365.2" gradientTransform="translate(-2668.52 -26.19) rotate(-179.58) scale(1 -1)" xlink:href="#linear-gradient-5"/>
    <linearGradient id="_ÂÁ_Ï_ÌÌ_È_ËÂÌÚ_384" data-name="¡ÂÁ˚ÏˇÌÌ˚È „‡‰ËÂÌÚ 384" x1="175.72" y1="49.21" x2="175.48" y2="206.33" gradientTransform="translate(-57.56 -7.03) rotate(.42)" gradientUnits="userSpaceOnUse">
      <stop offset="0" stop-color="#ffd9b3"/>
      <stop offset=".32" stop-color="#f9d5ad"/>
      <stop offset="1" stop-color="#f7d4ab"/>
    </linearGradient>
    <linearGradient id="linear-gradient-8" x1="147.26" y1="147.21" x2="139.99" y2="102.21" gradientTransform="translate(-57.56 -7.03) rotate(.42)" gradientUnits="userSpaceOnUse">
      <stop offset="0" stop-color="#f7d4ab"/>
      <stop offset=".52" stop-color="#f5d1a8"/>
      <stop offset=".85" stop-color="#f2c99f"/>
      <stop offset="1" stop-color="#f0c499"/>
    </linearGradient>
    <radialGradient id="radial-gradient" cx="105.12" cy="148.57" fx="105.12" fy="148.57" r="32.1" gradientTransform="translate(-3.28 -6.56) rotate(.42) scale(.79 1)" gradientUnits="userSpaceOnUse">
      <stop offset="0" stop-color="#f9b38e"/>
      <stop offset=".61" stop-color="#f7c59e"/>
      <stop offset="1" stop-color="#f7d4ab"/>
    </radialGradient>
    <linearGradient id="linear-gradient-9" x1="183.78" y1="166.12" x2="209.93" y2="166.12" gradientTransform="translate(-82.5 22.78) rotate(-1.33)" gradientUnits="userSpaceOnUse">
      <stop offset="0" stop-color="#ffd9b3"/>
      <stop offset=".68" stop-color="#fcd7b0"/>
      <stop offset="1" stop-color="#f7d4ab"/>
    </linearGradient>
    <linearGradient id="_ÂÁ_Ï_ÌÌ_È_ËÂÌÚ_18-3" data-name="¡ÂÁ˚ÏˇÌÌ˚È „‡‰ËÂÌÚ 18" x1="222.54" y1="61.19" x2="134.17" y2="133.46" gradientTransform="translate(-57.56 -7.03) rotate(.42)" xlink:href="#_ÂÁ_Ï_ÌÌ_È_ËÂÌÚ_18"/>
    <linearGradient id="_ÂÁ_Ï_ÌÌ_È_ËÂÌÚ_72" data-name="¡ÂÁ˚ÏˇÌÌ˚È „‡‰ËÂÌÚ 72" x1="124.86" y1="172.12" x2="120.37" y2="96.5" gradientTransform="translate(-57.56 -7.03) rotate(.42)" gradientUnits="userSpaceOnUse">
      <stop offset="0" stop-color="#f9b38e"/>
      <stop offset=".5" stop-color="#f7b690"/>
      <stop offset=".9" stop-color="#f2c096"/>
      <stop offset="1" stop-color="#f0c499"/>
    </linearGradient>
    <linearGradient id="linear-gradient-10" x1="209.62" y1="140.61" x2="202.86" y2="103.13" xlink:href="#linear-gradient-8"/>
    <linearGradient id="_ÂÁ_Ï_ÌÌ_È_ËÂÌÚ_18-4" data-name="¡ÂÁ˚ÏˇÌÌ˚È „‡‰ËÂÌÚ 18" x1="113.77" y1="151.76" x2="145.24" y2="151.76" gradientTransform="translate(-57.56 -7.03) rotate(.42)" xlink:href="#_ÂÁ_Ï_ÌÌ_È_ËÂÌÚ_18"/>
    <linearGradient id="linear-gradient-11" x1="202.21" y1="110.82" x2="231.12" y2="110.82" gradientTransform="translate(-57.56 -7.03) rotate(.42)" xlink:href="#linear-gradient-9"/>
    <radialGradient id="radial-gradient-2" cx="269.56" cy="148.84" fx="269.56" fy="148.84" r="32.1" gradientTransform="translate(371.47 -4.09) rotate(-179.58) scale(.79 -1)" xlink:href="#radial-gradient"/>
    <linearGradient id="_ÂÁ_Ï_ÌÌ_È_ËÂÌÚ_72-2" data-name="¡ÂÁ˚ÏˇÌÌ˚È „‡‰ËÂÌÚ 72" x1="-1944.56" y1="168.47" x2="-1948.72" y2="98.31" gradientTransform="translate(-1775.58 -19.68) rotate(-179.58) scale(1 -1)" xlink:href="#_ÂÁ_Ï_ÌÌ_È_ËÂÌÚ_72"/>
    <linearGradient id="_ÂÁ_Ï_ÌÌ_È_ËÂÌÚ_18-5" data-name="¡ÂÁ˚ÏˇÌÌ˚È „‡‰ËÂÌÚ 18" x1="-1303.81" y1="115.97" x2="-1336.28" y2="128.58" gradientTransform="translate(-1231.24 -15.71) rotate(-179.58) scale(1 -1)" xlink:href="#_ÂÁ_Ï_ÌÌ_È_ËÂÌÚ_18"/>
    <linearGradient id="_ÂÁ_Ï_ÌÌ_È_ËÂÌÚ_131" data-name="¡ÂÁ˚ÏˇÌÌ˚È „‡‰ËÂÌÚ 131" x1="-1335.52" y1="123.54" x2="-1325.56" y2="123.54" gradientTransform="translate(-1231.24 -15.71) rotate(-179.58) scale(1 -1)" gradientUnits="userSpaceOnUse">
      <stop offset="0" stop-color="#fff"/>
      <stop offset=".41" stop-color="#fcfcfc"/>
      <stop offset=".69" stop-color="#f3f3f3"/>
      <stop offset=".92" stop-color="#e4e4e4"/>
      <stop offset="1" stop-color="#ddd"/>
    </linearGradient>
    <linearGradient id="_ÂÁ_Ï_ÌÌ_È_ËÂÌÚ_133" data-name="¡ÂÁ˚ÏˇÌÌ˚È „‡‰ËÂÌÚ 133" x1="158.04" y1="126.02" x2="161.11" y2="128.23" gradientTransform="translate(-57.56 -7.03) rotate(.42)" gradientUnits="userSpaceOnUse">
      <stop offset="0" stop-color="#fff"/>
      <stop offset=".46" stop-color="#f2f2f2"/>
      <stop offset="1" stop-color="#ddd"/>
    </linearGradient>
    <linearGradient id="_ÂÁ_Ï_ÌÌ_È_ËÂÌÚ_131-2" data-name="¡ÂÁ˚ÏˇÌÌ˚È „‡‰ËÂÌÚ 131" x1="-1313.48" y1="123.25" x2="-1305.56" y2="123.25" xlink:href="#_ÂÁ_Ï_ÌÌ_È_ËÂÌÚ_131"/>
    <linearGradient id="_ÂÁ_Ï_ÌÌ_È_ËÂÌÚ_387" data-name="¡ÂÁ˚ÏˇÌÌ˚È „‡‰ËÂÌÚ 387" x1="142.04" y1="120.43" x2="162.13" y2="142.38" gradientTransform="translate(-57.56 -7.03) rotate(.42)" gradientUnits="userSpaceOnUse">
      <stop offset="0" stop-color="#715241"/>
      <stop offset="1" stop-color="#b89c8c"/>
    </linearGradient>
    <linearGradient id="_ÂÁ_Ï_ÌÌ_È_ËÂÌÚ_387-2" data-name="¡ÂÁ˚ÏˇÌÌ˚È „‡‰ËÂÌÚ 387" x1="138.06" y1="123.39" x2="154.51" y2="123.39" xlink:href="#_ÂÁ_Ï_ÌÌ_È_ËÂÌÚ_387"/>
    <linearGradient id="_ÂÁ_Ï_ÌÌ_È_ËÂÌÚ_1050" data-name="¡ÂÁ˚ÏˇÌÌ˚È „‡‰ËÂÌÚ 1050" x1="158.74" y1="139.31" x2="147.55" y2="123.26" gradientTransform="translate(-57.56 -7.03) rotate(.42)" gradientUnits="userSpaceOnUse">
      <stop offset="0" stop-color="#b89c8c"/>
      <stop offset="1" stop-color="#715241"/>
    </linearGradient>
    <radialGradient id="_ÂÁ_Ï_ÌÌ_È_ËÂÌÚ_128" data-name="¡ÂÁ˚ÏˇÌÌ˚È „‡‰ËÂÌÚ 128" cx="146.27" cy="122.66" fx="146.27" fy="122.66" r="5.88" gradientTransform="translate(-57.56 -7.03) rotate(.42)" gradientUnits="userSpaceOnUse">
      <stop offset="0" stop-color="#666"/>
      <stop offset="1" stop-color="#1d1d1d"/>
    </radialGradient>
    <linearGradient id="_ÂÁ_Ï_ÌÌ_È_ËÂÌÚ_1655" data-name="¡ÂÁ˚ÏˇÌÌ˚È „‡‰ËÂÌÚ 1655" x1="-1335.5" y1="122.55" x2="-1298.91" y2="122.55" gradientTransform="translate(-1231.24 -15.71) rotate(-179.58) scale(1 -1)" gradientUnits="userSpaceOnUse">
      <stop offset="0" stop-color="#4d322e"/>
      <stop offset=".06" stop-color="#4a302c"/>
      <stop offset=".55" stop-color="#3d2622"/>
      <stop offset="1" stop-color="#39231f"/>
    </linearGradient>
    <linearGradient id="_ÂÁ_Ï_ÌÌ_È_ËÂÌÚ_18-6" data-name="¡ÂÁ˚ÏˇÌÌ˚È „‡‰ËÂÌÚ 18" x1="-1319.62" y1="112.39" x2="-1343.83" y2="143.2" gradientTransform="translate(-1231.24 -15.71) rotate(-179.58) scale(1 -1)" xlink:href="#_ÂÁ_Ï_ÌÌ_È_ËÂÌÚ_18"/>
    <linearGradient id="_ÂÁ_Ï_ÌÌ_È_ËÂÌÚ_44" data-name="¡ÂÁ˚ÏˇÌÌ˚È „‡‰ËÂÌÚ 44" x1="150.46" y1="141.76" x2="147.91" y2="130.46" gradientTransform="translate(-57.56 -7.03) rotate(.42)" gradientUnits="userSpaceOnUse">
      <stop offset="0" stop-color="#38221e"/>
      <stop offset=".77" stop-color="#291915"/>
    </linearGradient>
    <linearGradient id="linear-gradient-12" x1="232.59" y1="98.98" x2="230.39" y2="87.99" gradientTransform="translate(-119.91 75.09) rotate(-4.35)" xlink:href="#linear-gradient-8"/>
    <linearGradient id="linear-gradient-13" x1="230.86" y1="87.12" x2="230.8" y2="95.75" gradientTransform="translate(-119.91 75.09) rotate(-4.35)" xlink:href="#linear-gradient-5"/>
    <linearGradient id="_ÂÁ_Ï_ÌÌ_È_ËÂÌÚ_23" data-name="¡ÂÁ˚ÏˇÌÌ˚È „‡‰ËÂÌÚ 23" x1="230.33" y1="75.39" x2="230.46" y2="84.23" gradientTransform="translate(-119.91 75.09) rotate(-4.35)" gradientUnits="userSpaceOnUse">
      <stop offset="0" stop-color="#f7d4ab"/>
      <stop offset="1" stop-color="#ffd9b3"/>
    </linearGradient>
    <linearGradient id="linear-gradient-14" x1="281.16" y1="21.36" x2="281" y2="10.65" gradientTransform="translate(-163.38 183.54) rotate(-9.33)" gradientUnits="userSpaceOnUse">
      <stop offset="0" stop-color="#ffd9b3"/>
      <stop offset="1" stop-color="#f7d4ab"/>
    </linearGradient>
    <linearGradient id="linear-gradient-15" x1="247.84" y1="34.26" x2="258.48" y2="34.26" gradientTransform="translate(-164.21 163.5) rotate(-8.28)" xlink:href="#linear-gradient-5"/>
    <linearGradient id="_ÂÁ_Ï_ÌÌ_È_ËÂÌÚ_17" data-name="¡ÂÁ˚ÏˇÌÌ˚È „‡‰ËÂÌÚ 17" x1="301.89" y1="33.71" x2="311.94" y2="33.71" gradientTransform="translate(-164.21 163.5) rotate(-8.28)" gradientUnits="userSpaceOnUse">
      <stop offset="0" stop-color="#f0c499"/>
      <stop offset=".51" stop-color="#e3b086"/>
      <stop offset="1" stop-color="#dba379"/>
    </linearGradient>
    <linearGradient id="linear-gradient-16" x1="264.7" y1="49.98" x2="296.26" y2="49.98" gradientTransform="translate(-164.21 163.5) rotate(-8.28)" xlink:href="#linear-gradient-5"/>
    <linearGradient id="linear-gradient-17" x1="-1193.28" y1="1162.35" x2="-1192.22" y2="1162.35" gradientTransform="translate(-46149.4 -29760.68) rotate(168.59) scale(33.05 -33.11) skewX(-.01)" gradientUnits="userSpaceOnUse">
      <stop offset="0" stop-color="#e8d8d7"/>
      <stop offset=".14" stop-color="#efe4e4"/>
      <stop offset=".39" stop-color="#faf8f7"/>
      <stop offset=".57" stop-color="#fff"/>
      <stop offset="1" stop-color="#e8d2d1"/>
    </linearGradient>
    <linearGradient id="linear-gradient-18" x1="-1146.21" y1="1156.81" x2="-1145.28" y2="1156.81" gradientTransform="translate(76487.61 53062.62) rotate(-9.14) scale(59.3 -55.64) skewX(.79)" gradientUnits="userSpaceOnUse">
      <stop offset="0" stop-color="#e8d8d7"/>
      <stop offset=".04" stop-color="#ebdddc"/>
      <stop offset=".21" stop-color="#f6f0ef"/>
      <stop offset=".38" stop-color="#fcfbfb"/>
      <stop offset=".57" stop-color="#fff"/>
      <stop offset=".69" stop-color="#fbf7f7"/>
      <stop offset=".87" stop-color="#f1e3e3"/>
      <stop offset="1" stop-color="#e8d2d1"/>
    </linearGradient>
    <linearGradient id="linear-gradient-19" x1="-1138.1" y1="1152.75" x2="-1137.09" y2="1152.75" gradientTransform="translate(55226.61 32593.71) rotate(-14.9) scale(39.48 -39.48)" gradientUnits="userSpaceOnUse">
      <stop offset="0" stop-color="#f96e7e"/>
      <stop offset=".03" stop-color="#f9707f"/>
      <stop offset=".25" stop-color="#fd7985"/>
      <stop offset=".53" stop-color="#ff7d88"/>
      <stop offset=".76" stop-color="#fd7985"/>
      <stop offset="1" stop-color="#f86d7d"/>
      <stop offset="1" stop-color="#f86d7d"/>
    </linearGradient>
    <linearGradient id="linear-gradient-20" x1="251.78" y1="91.97" x2="294.41" y2="92.09" gradientTransform="translate(-164.98 108.79) rotate(-8.49)" gradientUnits="userSpaceOnUse">
      <stop offset="0" stop-color="#e8d8d7"/>
      <stop offset=".05" stop-color="#eadcdb"/>
      <stop offset=".31" stop-color="#f6efee"/>
      <stop offset=".48" stop-color="#fbf6f6"/>
      <stop offset="1" stop-color="#e8d2d1"/>
    </linearGradient>
    <linearGradient id="linear-gradient-21" x1="261.32" y1="66.93" x2="291.83" y2="66.93" gradientTransform="translate(-165.31 136.13) rotate(-9.19)" xlink:href="#linear-gradient-19"/>
    <linearGradient id="_ÂÁ_Ï_ÌÌ_È_ËÂÌÚ_23-2" data-name="¡ÂÁ˚ÏˇÌÌ˚È „‡‰ËÂÌÚ 23" x1="207.61" y1="151.71" x2="239.11" y2="151.71" gradientTransform="translate(-57.56 -7.03) rotate(.42)" xlink:href="#_ÂÁ_Ï_ÌÌ_È_ËÂÌÚ_23"/>
    <linearGradient id="_ÂÁ_Ï_ÌÌ_È_ËÂÌÚ_18-7" data-name="¡ÂÁ˚ÏˇÌÌ˚È „‡‰ËÂÌÚ 18" x1="176.31" y1="189.47" x2="173.9" y2="224.47" gradientTransform="translate(-57.56 -7.03) rotate(.42)" xlink:href="#_ÂÁ_Ï_ÌÌ_È_ËÂÌÚ_18"/>
    <linearGradient id="_ÂÁ_Ï_ÌÌ_È_ËÂÌÚ_11" data-name="¡ÂÁ˚ÏˇÌÌ˚È „‡‰ËÂÌÚ 11" x1="121.9" y1="100.84" x2="166.2" y2="99.81" gradientTransform="translate(-57.56 -7.03) rotate(.42)" gradientUnits="userSpaceOnUse">
      <stop offset="0" stop-color="#3b2621"/>
      <stop offset=".41" stop-color="#3c2722"/>
      <stop offset=".56" stop-color="#432c25"/>
      <stop offset=".66" stop-color="#4f362c"/>
      <stop offset=".75" stop-color="#604335"/>
      <stop offset=".82" stop-color="#765441"/>
      <stop offset=".88" stop-color="#916950"/>
      <stop offset=".94" stop-color="#b18262"/>
      <stop offset=".99" stop-color="#d69f76"/>
      <stop offset="1" stop-color="#dba379"/>
    </linearGradient>
    <linearGradient id="_ÂÁ_Ï_ÌÌ_È_ËÂÌÚ_11-2" data-name="¡ÂÁ˚ÏˇÌÌ˚È „‡‰ËÂÌÚ 11" x1="-2053.49" y1="-24.14" x2="-2009.19" y2="-25.18" gradientTransform="translate(-1852.29 466.51) rotate(170.24) scale(1 -1)" xlink:href="#_ÂÁ_Ï_ÌÌ_È_ËÂÌÚ_11"/>
    <linearGradient id="_ÂÁ_Ï_ÌÌ_È_ËÂÌÚ_126" data-name="¡ÂÁ˚ÏˇÌÌ˚È „‡‰ËÂÌÚ 126" x1="-1041.93" y1="1222.67" x2="-1041.15" y2="1222.67" gradientTransform="translate(13083.09 16031.51) rotate(1.14) scale(12.79 -12.79)" gradientUnits="userSpaceOnUse">
      <stop offset="0" stop-color="#ffd9b3"/>
      <stop offset=".52" stop-color="#fccfa9"/>
      <stop offset="1" stop-color="#f8c39c"/>
    </linearGradient>
    <linearGradient id="_ÂÁ_Ï_ÌÌ_È_ËÂÌÚ_126-2" data-name="¡ÂÁ˚ÏˇÌÌ˚È „‡‰ËÂÌÚ 126" x1="-1173.41" y1="1221.3" x2="-1172.63" y2="1221.3" gradientTransform="translate(-14766.25 15828.62) rotate(179.69) scale(12.79)" xlink:href="#_ÂÁ_Ï_ÌÌ_È_ËÂÌÚ_126"/>
    <linearGradient id="_ÂÁ_Ï_ÌÌ_È_ËÂÌÚ_18-8" data-name="¡ÂÁ˚ÏˇÌÌ˚È „‡‰ËÂÌÚ 18" x1="-1219.17" y1="1169.56" x2="-1218.34" y2="1169.56" gradientTransform="translate(-56692.26 -29129.42) rotate(163.4) scale(37.84 -37.84)" xlink:href="#_ÂÁ_Ï_ÌÌ_È_ËÂÌÚ_18"/>
    <linearGradient id="_ÂÁ_Ï_ÌÌ_È_ËÂÌÚ_1655-2" data-name="¡ÂÁ˚ÏˇÌÌ˚È „‡‰ËÂÌÚ 1655" x1="-1113.19" y1="1155.87" x2="-1112.37" y2="1155.87" gradientTransform="translate(54505.16 43781.35) rotate(-7.31) scale(43.46 -43.46)" xlink:href="#_ÂÁ_Ï_ÌÌ_È_ËÂÌÚ_1655"/>
    <linearGradient id="_ÂÁ_Ï_ÌÌ_È_ËÂÌÚ_18-9" data-name="¡ÂÁ˚ÏˇÌÌ˚È „‡‰ËÂÌÚ 18" x1="197.1" y1="76.64" x2="196.16" y2="96.84" gradientTransform="translate(-53.53 39.68) rotate(-1.9)" xlink:href="#_ÂÁ_Ï_ÌÌ_È_ËÂÌÚ_18"/>
    <linearGradient id="_ÂÁ_Ï_ÌÌ_È_ËÂÌÚ_8-4" data-name="¡ÂÁ˚ÏˇÌÌ˚È „‡‰ËÂÌÚ 8" x1="173.71" y1="135.34" x2="260.58" y2="242.63" gradientTransform="translate(-57.56 -7.03) rotate(.42)" xlink:href="#_ÂÁ_Ï_ÌÌ_È_ËÂÌÚ_8"/>
    <linearGradient id="_ÂÁ_Ï_ÌÌ_È_ËÂÌÚ_8-5" data-name="¡ÂÁ˚ÏˇÌÌ˚È „‡‰ËÂÌÚ 8" x1="272.19" y1="273.97" x2="261.53" y2="236.93" gradientTransform="translate(-57.56 -7.03) rotate(.42)" xlink:href="#_ÂÁ_Ï_ÌÌ_È_ËÂÌÚ_8"/>
    <linearGradient id="_ÂÁ_Ï_ÌÌ_È_ËÂÌÚ_8-6" data-name="¡ÂÁ˚ÏˇÌÌ˚È „‡‰ËÂÌÚ 8" x1="-1644.1" y1="270.84" x2="-1654.75" y2="233.8" gradientTransform="translate(-1619.25 -18.54) rotate(-179.58) scale(1 -1)" xlink:href="#_ÂÁ_Ï_ÌÌ_È_ËÂÌÚ_8"/>
    <linearGradient id="_ÂÁ_Ï_ÌÌ_È_ËÂÌÚ_8-7" data-name="¡ÂÁ˚ÏˇÌÌ˚È „‡‰ËÂÌÚ 8" x1="133.43" y1="155.13" x2="124.67" y2="238.28" gradientTransform="translate(-57.56 -7.03) rotate(.42)" xlink:href="#_ÂÁ_Ï_ÌÌ_È_ËÂÌÚ_8"/>
    <linearGradient id="_ÂÁ_Ï_ÌÌ_È_ËÂÌÚ_46" data-name="¡ÂÁ˚ÏˇÌÌ˚È „‡‰ËÂÌÚ 46" x1="240.66" y1="267.06" x2="223.71" y2="126.11" gradientTransform="translate(-57.56 -7.03) rotate(.42)" gradientUnits="userSpaceOnUse">
      <stop offset="0" stop-color="#593a33"/>
      <stop offset=".29" stop-color="#482e29"/>
      <stop offset=".61" stop-color="#3e2822"/>
      <stop offset="1" stop-color="#3b2621"/>
    </linearGradient>
    <linearGradient id="_ÂÁ_Ï_ÌÌ_È_ËÂÌÚ_8-8" data-name="¡ÂÁ˚ÏˇÌÌ˚È „‡‰ËÂÌÚ 8" x1="226.73" y1="176.17" x2="208.6" y2="25.36" gradientTransform="translate(-57.56 -7.03) rotate(.42)" xlink:href="#_ÂÁ_Ï_ÌÌ_È_ËÂÌÚ_8"/>
    <linearGradient id="_ÂÁ_Ï_ÌÌ_È_ËÂÌÚ_8-9" data-name="¡ÂÁ˚ÏˇÌÌ˚È „‡‰ËÂÌÚ 8" x1="139.34" y1="173.81" x2="122.46" y2="33.42" gradientTransform="translate(-57.56 -7.03) rotate(.42)" xlink:href="#_ÂÁ_Ï_ÌÌ_È_ËÂÌÚ_8"/>
    <linearGradient id="_ÂÁ_Ï_ÌÌ_È_ËÂÌÚ_55" data-name="¡ÂÁ˚ÏˇÌÌ˚È „‡‰ËÂÌÚ 55" x1="104.59" y1="261.21" x2="102.86" y2="109.97" gradientTransform="translate(-57.56 -7.03) rotate(.42)" gradientUnits="userSpaceOnUse">
      <stop offset="0" stop-color="#593a33"/>
      <stop offset=".19" stop-color="#52352f"/>
      <stop offset="1" stop-color="#3b2621"/>
    </linearGradient>
    <linearGradient id="linear-gradient-22" x1="209.22" y1="251.18" x2="222.64" y2="53.8" gradientTransform="translate(-57.56 -7.03) rotate(.42)" gradientUnits="userSpaceOnUse">
      <stop offset="0" stop-color="#593a33"/>
      <stop offset=".4" stop-color="#5d3d36"/>
      <stop offset=".85" stop-color="#6a4741"/>
      <stop offset="1" stop-color="#714c46"/>
    </linearGradient>
    <linearGradient id="_ÂÁ_Ï_ÌÌ_È_ËÂÌÚ_8-10" data-name="¡ÂÁ˚ÏˇÌÌ˚È „‡‰ËÂÌÚ 8" x1="152.64" y1="217.21" x2="134.3" y2="82.23" gradientTransform="translate(-57.56 -7.03) rotate(.42)" xlink:href="#_ÂÁ_Ï_ÌÌ_È_ËÂÌÚ_8"/>
    <linearGradient id="_ÂÁ_Ï_ÌÌ_È_ËÂÌÚ_8-11" data-name="¡ÂÁ˚ÏˇÌÌ˚È „‡‰ËÂÌÚ 8" x1="231.2" y1="206.53" x2="212.86" y2="71.55" gradientTransform="translate(-57.56 -7.03) rotate(.42)" xlink:href="#_ÂÁ_Ï_ÌÌ_È_ËÂÌÚ_8"/>
    <linearGradient id="_ÂÁ_Ï_ÌÌ_È_ËÂÌÚ_10" data-name="¡ÂÁ˚ÏˇÌÌ˚È „‡‰ËÂÌÚ 10" x1="111.3" y1="312.09" x2="83.61" y2="184.72" gradientTransform="translate(-57.56 -7.03) rotate(.42)" gradientUnits="userSpaceOnUse">
      <stop offset="0" stop-color="#3b2621"/>
      <stop offset=".77" stop-color="#51342e"/>
      <stop offset="1" stop-color="#593a33"/>
    </linearGradient>
    <linearGradient id="linear-gradient-23" x1="119.01" y1="130.07" x2="117.62" y2="241.18" xlink:href="#linear-gradient-22"/>
    <linearGradient id="linear-gradient-24" x1="217.56" y1="263.61" x2="222.78" y2="186.85" xlink:href="#linear-gradient-22"/>
    <linearGradient id="linear-gradient-25" x1="213.07" y1="242.22" x2="217.57" y2="176.04" xlink:href="#linear-gradient-22"/>
    <linearGradient id="linear-gradient-26" x1="134.83" y1="254.6" x2="139.86" y2="180.48" xlink:href="#linear-gradient-22"/>
    <linearGradient id="linear-gradient-27" x1="101.63" y1="260.51" x2="104.48" y2="218.61" xlink:href="#linear-gradient-22"/>
    <linearGradient id="linear-gradient-28" x1="232.54" y1="261.68" x2="235.11" y2="223.91" xlink:href="#linear-gradient-22"/>
    <linearGradient id="linear-gradient-29" x1="177.44" y1="51.16" x2="171.25" y2="12.62" xlink:href="#linear-gradient-22"/>
    <linearGradient id="_ÂÁ_Ï_ÌÌ_È_ËÂÌÚ_8-12" data-name="¡ÂÁ˚ÏˇÌÌ˚È „‡‰ËÂÌÚ 8" x1="194.98" y1="77.01" x2="205.37" y2="55.31" gradientTransform="translate(-57.56 -7.03) rotate(.42)" xlink:href="#_ÂÁ_Ï_ÌÌ_È_ËÂÌÚ_8"/>
    <linearGradient id="_ÂÁ_Ï_ÌÌ_È_ËÂÌÚ_8-13" data-name="¡ÂÁ˚ÏˇÌÌ˚È „‡‰ËÂÌÚ 8" x1="139.71" y1="89.29" x2="159.45" y2="48.04" gradientTransform="translate(-57.56 -7.03) rotate(.42)" xlink:href="#_ÂÁ_Ï_ÌÌ_È_ËÂÌÚ_8"/>
    <linearGradient id="_ÂÁ_Ï_ÌÌ_È_ËÂÌÚ_8-14" data-name="¡ÂÁ˚ÏˇÌÌ˚È „‡‰ËÂÌÚ 8" x1="248.99" y1="116.74" x2="188.07" y2="16.37" gradientTransform="translate(-57.56 -7.03) rotate(.42)" xlink:href="#_ÂÁ_Ï_ÌÌ_È_ËÂÌÚ_8"/>
    <linearGradient id="_ÂÁ_Ï_ÌÌ_È_ËÂÌÚ_8-15" data-name="¡ÂÁ˚ÏˇÌÌ˚È „‡‰ËÂÌÚ 8" x1="146.4" y1="86.81" x2="120.15" y2="43.56" gradientTransform="translate(-57.56 -7.03) rotate(.42)" xlink:href="#_ÂÁ_Ï_ÌÌ_È_ËÂÌÚ_8"/>
    <linearGradient id="_ÂÁ_Ï_ÌÌ_È_ËÂÌÚ_8-16" data-name="¡ÂÁ˚ÏˇÌÌ˚È „‡‰ËÂÌÚ 8" x1="260.74" y1="175.31" x2="243.78" y2="60.4" gradientTransform="translate(-57.56 -7.03) rotate(.42)" xlink:href="#_ÂÁ_Ï_ÌÌ_È_ËÂÌÚ_8"/>
    <linearGradient id="_ÂÁ_Ï_ÌÌ_È_ËÂÌÚ_8-17" data-name="¡ÂÁ˚ÏˇÌÌ˚È „‡‰ËÂÌÚ 8" x1="104.14" y1="154.96" x2="92.78" y2="78.03" gradientTransform="translate(-57.56 -7.03) rotate(.42)" xlink:href="#_ÂÁ_Ï_ÌÌ_È_ËÂÌÚ_8"/>
    <linearGradient id="_ÂÁ_Ï_ÌÌ_È_ËÂÌÚ_7" data-name="¡ÂÁ˚ÏˇÌÌ˚È „‡‰ËÂÌÚ 7" x1="279.06" y1="275.56" x2="248.63" y2="135.27" gradientTransform="translate(-57.56 -7.03) rotate(.42)" gradientUnits="userSpaceOnUse">
      <stop offset="0" stop-color="#3b2621"/>
      <stop offset=".38" stop-color="#472e28"/>
      <stop offset="1" stop-color="#593a33"/>
    </linearGradient>
    <linearGradient id="linear-gradient-30" x1="117.2" y1="198.05" x2="127.45" y2="47.26" xlink:href="#linear-gradient-22"/>
    <linearGradient id="_ÂÁ_Ï_ÌÌ_È_ËÂÌÚ_46-2" data-name="¡ÂÁ˚ÏˇÌÌ˚È „‡‰ËÂÌÚ 46" x1="146.23" y1="249.28" x2="103.41" y2="178.73" xlink:href="#_ÂÁ_Ï_ÌÌ_È_ËÂÌÚ_46"/>
  </defs>
  <g id="Layer_1-2" data-name="Layer 1">
    <g style="clip-path: url(#clippath);">
      <g>
        <g>
          <path d="M207.75,192.58s14.54,25.42,2.7,54.32l-2.7-54.32Z" style="fill: url(#_ÂÁ_Ï_ÌÌ_È_ËÂÌÚ_8);"/>
          <path d="M23.25,204.82s-12.82,26.32.9,54.38l-.9-54.38Z" style="fill: url(#_ÂÁ_Ï_ÌÌ_È_ËÂÌÚ_8-2);"/>
          <path d="M106.18,20.51s43.46-4.1,60.12,30.21c16.66,34.31,21.67,91.47,24.7,107.26,3.03,15.8-3.85,65.65-3.85,65.65l-138.71,12.17s-12.48-112.67-9.68-134.4c2.8-21.73,67.42-80.89,67.42-80.89Z" style="fill: url(#_ÂÁ_Ï_ÌÌ_È_ËÂÌÚ_8-3);"/>
        </g>
        <path d="M145.31,154.08s2.56,63.85,8.5,68.3c7.53,5.65,81.88,22.12,86.62,27.53,11.81,13.47,13.3,6.94,16.27,35.16,2.97,28.22-263.41,3.66-263.41,3.66,0,0,7.04-38.03,14.97-41.9,23.11-11.3,63.27-17.65,73.9-21.53,14.89-5.44,12.65-62.3,12.65-62.3l50.5-8.91Z" style="fill: #f7d4ab;"/>
        <path d="M153.85,220.56c-4.02-3.82-4.56-48.38-4.56-48.38,0,0-58.57,3.22-59.48,2.19.05,4.12.4,33.65,0,36.78-.47,3.57.16,14.26-40.03,22.88,0,0,13.7-.69,38.97-6.27,4.53-1,10.31-6.84,10.31-11.04,0,0,26.92,1.67,40.53-11.43,1.41,10.37,2.72,33.74,6.05,35.9,3.33,2.16,33.21,5.48,33.21,5.48l3.95-14c-8.56-2.07-24.92-8.29-28.94-12.11Z" style="fill: url(#linear-gradient);"/>
        <path d="M110.5,231.17s-5-6.58-9.27-6.42c-4.27.16-42.52,10.34-47.98,10.83,0,0,14.58-.31,26.31-2.26,11.72-1.96,20.05-6.5,30.94-2.15Z" style="fill: url(#linear-gradient-2);"/>
        <path d="M126.3,229.84s4.16-5.09,9.52-5.58c5.37-.49,42.82,8.92,49.5,11.21,0,0-47.98-9.31-59.02-5.63Z" style="fill: url(#linear-gradient-3);"/>
        <path d="M61.86,231.14s-2.95,43.89,53.2,41.12c56.15-2.77,63.75-41.35,63.75-41.35l-18.75-6.53s-4.16,7.7-34.44,7.78c-44.03.13-44.72-8.73-44.72-8.73l-19.04,7.71Z" style="fill: url(#linear-gradient-4);"/>
        <path d="M224.28,340.55c.73-17.64,33.06-81.23,20.35-91.09-4.13-3.21-17.19-9.09-31.56-13.03-19.94-5.48-41.44-10.22-41.44-10.22,0,0-10.08,14.16-52.71,12.66-49.01-1.72-49.17-12.66-49.17-12.66l-39.03,11.45-25.46,9.01c0,1.71,12.06,75.13,16.98,104.95h200.71c.42-5.89.9-10.97,1.32-11.06Z" style="fill: #f5d534;"/>
        <path d="M69.76,226.21s-5.16,18.37,56.39,16.28c45.63-1.56,45.48-16.28,45.48-16.28l-6.84-2.21s-.82,11.87-39.78,12.74c-50.25,1.11-48.34-12.74-48.34-12.74l-6.91,2.21Z" style="fill: url(#_ÂÁ_Ï_ÌÌ_È_ËÂÌÚ_29);"/>
        <path d="M89.96,205.4s-.96-33.75-1.91-41.06l61.44,6.34.3,18.43s-20.39,28.56-59.83,16.29Z" style="fill: url(#linear-gradient-5);"/>
        <g>
          <path d="M118.56,25.67c-.1-.07-.16-.1-.16-.1.06.03.11.06.16.1Z" style="fill: url(#_ÂÁ_Ï_ÌÌ_È_ËÂÌÚ_14);"/>
          <g>
            <g>
              <path d="M57.3,113.51c2.51,20.26,5.39,35.98,5.39,35.98-8.65-.06-12.52-9.06-15.85-16.73-5.08-11.73-8.04-24.28,3.73-24.87,2.3-.11,6.73,5.63,6.73,5.63Z" style="fill: url(#_ÂÁ_Ï_ÌÌ_È_ËÂÌÚ_18);"/>
              <path d="M55.52,142.33s-4.2-4.51-2.83-13.32c3.25-20.79-10.85-22.31-7.75-8.09,0,0,2-6.68,3.77-4.67,2.18,2.48-2.38,3.8-.14,14.56,1.17,5.59,6.94,11.52,6.94,11.52Z" style="fill: url(#linear-gradient-6);"/>
            </g>
            <g>
              <path d="M178.43,114.4c-2.81,20.22-5.15,35.6-5.15,35.6,8.65.06,11.89-8.59,15.33-16.21,5.25-11.65,8.4-24.16-3.37-24.92-2.29-.15-6.81,5.53-6.81,5.53Z" style="fill: url(#_ÂÁ_Ï_ÌÌ_È_ËÂÌÚ_18-2);"/>
              <path d="M179.79,143.24s4.27-4.45,3.02-13.28c-2.95-20.83,11.17-22.15,7.86-7.97,0,0-1.9-6.71-3.7-4.72-2.21,2.44,2.33,3.83-.07,14.56-1.25,5.57-7.11,11.42-7.11,11.42Z" style="fill: url(#linear-gradient-7);"/>
            </g>
            <path d="M171.79,50.22c-7.42-17.29-18.97-28.06-45.16-29.91,0,0-59.92,7.37-67.58,24.56-8.35,18.72-6.19,45.1-3.97,62.37,2.22,17.27,6.71,45.27,10.96,53.22,4.24,7.95,25.88,26.61,30.55,30.17,4.37,3.33,10.68,11.04,21.57,11.12,9.68.07,16.64-7.86,20.94-11.18,4.65-3.58,25.71-22.29,30.07-30.18,4.36-7.89,9.33-35,11.81-52.23,2.47-17.23-1.1-39.1-9.18-57.93Z" style="fill: url(#_ÂÁ_Ï_ÌÌ_È_ËÂÌÚ_384);"/>
            <path d="M82.07,91.82c-8.58-.59-14.29,1.34-18.67,4.56-10.19,7.5-2.92,28.9-2.92,28.9,0,0,19.64,21.67,53.38,8.69-2.58-14.11-4.31-40.27-31.79-42.14Z" style="fill: url(#linear-gradient-8);"/>
            <path d="M93.11,115.09c-7.7-2.37-37.55-8.87-36.2,1.07,2.99,21.98,5.75,37.1,9.52,43.96,3.94,7.19,15.62,18.55,20.69,19.44,7.85,1.39,16.39-27.46,16.65-37.37.36-13.86-2.96-24.74-10.66-27.1Z" style="fill: url(#radial-gradient);"/>
            <path d="M121.15,180.25c-5.5.39-9.88,2.47-9.8,4.65.08,2.19,4.59,3.66,10.08,3.27,5.49-.39,9.87-2.47,9.8-4.66-.08-2.19-4.6-3.65-10.07-3.26Z" style="fill: url(#linear-gradient-9);"/>
            <path d="M172.62,136.37s6.66-19.84,7.4-23.37c4.25-20.51,9.15-91.45-66.71-87.34-78,4.23-53.65,108.84-53.65,108.84,0,0,24.84-91.41,58.08-91.99,0,0,39.66,1.67,54.88,93.86Z" style="fill: url(#_ÂÁ_Ï_ÌÌ_È_ËÂÌÚ_18-3);"/>
            <polygon points="59.66 134.51 66.04 160.47 66.29 79.39 58.14 87.57 59.66 134.51" style="fill: url(#_ÂÁ_Ï_ÌÌ_È_ËÂÌÚ_72);"/>
            <path d="M169.21,99.29c-4.36-3.17-8.89-8.79-17.47-8.05-27.5,2.36-27.27,27.46-29.94,41.71,33.64,12.49,53.43-9.67,53.43-9.67,0,0,4.12-16.61-6.02-23.99Z" style="fill: url(#linear-gradient-10);"/>
            <path d="M55.37,109.43s5.22,39.99,10.26,51.13c1.64,3.63,11.39,13.14,20.69,21.35,0,0-16.83-20.28-18.61-25.33-3.9-11.07-12.33-47.16-12.33-47.16Z" style="fill: url(#_ÂÁ_Ï_ÌÌ_È_ËÂÌÚ_18-4);"/>
            <path d="M143.91,96.09s12.06-5.89,24.19,1.94c6.46,4.17,4.24,18.25,4.24,18.25.75,4.77-4.22-21.7-28.43-20.19Z" style="fill: url(#linear-gradient-11);"/>
            <path d="M142.88,115.45c7.73-2.25,37.68-8.32,36.18,1.6-3.31,21.93-6.29,37.01-10.16,43.82-4.05,7.13-15.89,18.32-20.97,19.14-7.87,1.28-15.98-27.7-16.1-37.61-.16-13.87,3.32-24.69,11.05-26.94Z" style="fill: url(#radial-gradient-2);"/>
            <polygon points="174.71 138.71 168.56 157.9 167.77 82.57 177.64 87.7 174.71 138.71" style="fill: url(#_ÂÁ_Ï_ÌÌ_È_ËÂÌÚ_72-2);"/>
            <g>
              <g>
                <path d="M84.45,104.02c17.6.13,19.16,10.9,19.47,18.67-1.33.29-2.74.53-5.36,1.32-3.54,1.07-7.7,2.79-13.67,2.68-4.7-.07-14.81-2.27-14.88-12.39-.06-8,10.19-9.97,14.45-10.29Z" style="fill: url(#_ÂÁ_Ï_ÌÌ_È_ËÂÌÚ_18-5);"/>
                <path d="M103.12,122.08c-3.85.52-6.42,1.82-9.1,2.52,2.09-1.9,3.31-3.63,3.17-6.79-.12-2.73-2.18-5.73-3.94-7.4,6.2,3.73,9.87,11.66,9.87,11.66Z" style="fill: url(#_ÂÁ_Ï_ÌÌ_È_ËÂÌÚ_131);"/>
                <path d="M100.71,118.47s1.32,1.71-.98,4.31c0,0,1.57-.47,3.38-.7,0,0-1.58-2.81-2.4-3.6Z" style="fill: url(#_ÂÁ_Ï_ÌÌ_È_ËÂÌÚ_133);"/>
                <path d="M103.12,122.08c-1.1-1.08-3.04-3.29-6.08-5.14-.37-2.14-1.56-4.03-3.28-5.37,5.68,2.81,9.36,10.51,9.36,10.51Z" style="fill: #ddd;"/>
                <path d="M79.57,118.58c.14,3.29,1.86,5.36,4.25,6.97-10.27-1.41-13.13-9.59-13.13-9.59,6.39-5.23,10.97-6.84,15.31-7.2-3.88,1.28-6.63,5.27-6.43,9.82Z" style="fill: url(#_ÂÁ_Ï_ÌÌ_È_ËÂÌÚ_131-2);"/>
                <path d="M97.06,116.72c.07.39.1.68.13,1.1.21,3.06-.99,4.96-3.17,6.79-.73.35-7.18,1.61-11.12.93-2.51-1.57-4.32-3.56-4.48-6.75-.08-1.66.26-3.24.96-4.64,5.01-1.69,11.6-1.6,17.68,2.57Z" style="fill: url(#_ÂÁ_Ï_ÌÌ_È_ËÂÌÚ_387);"/>
                <path d="M96.05,117.77c-.03,4.29-3.73,7.12-8.28,7.08s-8.2-2.82-8.17-7.11c.03-4.29,3.73-7.77,8.28-7.74,4.55.03,8.2,3.47,8.17,7.76Z" style="fill: url(#_ÂÁ_Ï_ÌÌ_È_ËÂÌÚ_387-2);"/>
                <path d="M83.03,110.69c-1.98,1.08-3.49,2.83-4.19,4.94-3.61,1.48-5.99,3.41-5.99,3.41l-1.71-3.51c2.53-3.16,7.32-4.02,11.89-4.84Z" style="fill: #ddd;"/>
                <path d="M83.03,110.69c2.76-.49,5.63-.51,8.28.02.85.17,1.67.47,2.44.86,1.72,1.34,3.02,3.21,3.34,5.37-2.25-1.36-5.15-2.52-8.72-2.88-3.56-.36-6.93.51-9.59,1.59.64-2.16,2.26-3.88,4.24-4.96Z" style="fill: url(#_ÂÁ_Ï_ÌÌ_È_ËÂÌÚ_1050);"/>
                <path d="M87.58,111.28c3.26-.22,6.07,2.15,6.28,5.3.22,3.15-2.26,5.87-5.51,6.1-3.26.22-6.07-2.16-6.29-5.3-.21-3.15,2.26-5.88,5.52-6.09Z" style="fill: url(#_ÂÁ_Ï_ÌÌ_È_ËÂÌÚ_128);"/>
                <path d="M88.85,114.66c-.77-.45-1.79-.17-2.27.61-.48.79-.25,1.79.52,2.24.77.45,1.78.17,2.26-.61.49-.79.25-1.79-.52-2.24Z" style="fill: #fff;"/>
                <path d="M94.14,117.07c-1.06-.63-2.41-.3-3.02.74-.62,1.05-.26,2.41.79,3.03,1.05.64,2.41.3,3.02-.74.62-1.04.27-2.4-.79-3.04Z" style="fill: #fff;"/>
                <path d="M66.81,108.11s1.69,3.62,10.3.59c16.58-5.22,25.73,4.48,26.01,13.38,0,0-4.91-9.81-14.28-10.8-5.71-.6-10.68,1.72-15.63,4.36-.09,3.96,5.16,8.85,10.85,10.04-4.88,0-15.69-5.1-16.45-9.23.3.52,1.33.88,2.66.41,0,0-4.64-1.89-3.44-8.74Z" style="fill: url(#_ÂÁ_Ï_ÌÌ_È_ËÂÌÚ_1655);"/>
                <path d="M92.89,104.91c5.72,2.01,8.18,6.17,8.18,6.17,0,0-2.56-3.42-8.71-5.3-6.38-1.96-15.22-.16-15.22-.16,3.9-1.8,10.02-2.71,15.75-.7Z" style="fill: url(#_ÂÁ_Ï_ÌÌ_È_ËÂÌÚ_18-6);"/>
                <path d="M93.61,115.27s-3.91-2.35-10.91-.87c0,0,1.38-3.51,6.08-3.13,3.85.32,4.83,3.99,4.83,3.99Z" style="fill: #0f0f0f;"/>
                <path d="M89.54,110.42c10.74,1.89,13.58,11.66,13.58,11.66,0,0-4.08-8.4-13.83-10.21-5.55-1.03-11.85,1.66-16.09,3.77,0,0,6.66-6.92,16.33-5.21Z" style="fill: url(#_ÂÁ_Ï_ÌÌ_È_ËÂÌÚ_44);"/>
              </g>
              <g>
                <polygon points="105.63 148.15 117.97 155.33 128.36 146.19 126.69 144.99 116.65 145.88 106.64 146.64 105.63 148.15" style="fill: url(#linear-gradient-12);"/>
                <path d="M105.96,147.91s4.34-1.72,8.36-.37l4.77-.36s4.6-2.19,9.26-1l.03-2.18-3.86-.48-7.86,2.63-7.47-1.46-3.78.73.54,2.48Z" style="fill: url(#linear-gradient-13);"/>
                <path d="M103.72,138.73s-1.98,1.31-2.05,4.48c-.08,3.63,3.79,5.3,4.33,4.89s-.71-3.05,2.76-2.83c3.47.22,3.43,1.97,4.03,2.51.6.55,6.66.23,7.63-.49.97-.72.51-3.05,3.77-3.2,3.26-.14,3.52,2.07,4,2.32.49.25,2.28-1.63,2.59-4.97.31-3.34-3.28-4.52-3.28-4.52,0,0,1.98,2.8,1.38,4.73s-5.73.69-7.67,2.13c-3.59,2.65-5.92,2.24-9.8.74-2.55-.98-5.9.75-7.43-1.17-.53-.67-.84-3.17-.25-4.62Z" style="fill: #f0c499;"/>
                <path d="M108.17,136.76c.11,2.3.46,3.25,1.55,4.68,1.66,2.17,12.29,3.24,13.69-2.14.28-1.07.14-2.7-.2-4.75-.39-2.34-15.15-.09-15.03,2.21Z" style="fill: url(#_ÂÁ_Ï_ÌÌ_È_ËÂÌÚ_23);"/>
              </g>
              <path d="M92.17,159.51s20.37-.48,27.15-1.45,22.3-6.75,22.3-6.75c0,0-16.38.74-25.08,2.32-8.7,1.59-24.36,5.87-24.36,5.87Z" style="fill: url(#linear-gradient-14);"/>
              <g>
                <path d="M88.65,161.75c-1.64-.28-3.53-2.56-3.06-3.83.42-1.13,8.43,2.96,11.5,6.13-3.81-1.95-6.8-2.03-8.44-2.3Z" style="fill: url(#linear-gradient-15);"/>
                <path d="M146.98,152.43c1.43-.85,2.47-3.63,1.56-4.64-.8-.9-6.82,5.77-8.52,9.83,2.82-3.2,5.52-4.34,6.95-5.19Z" style="fill: url(#_ÂÁ_Ï_ÌÌ_È_ËÂÌÚ_17);"/>
                <path d="M104.38,170.96c3.89,5.71,21.44,11.84,31.18-4.87,0,0-15.91,10-31.18,4.87Z" style="fill: url(#linear-gradient-16);"/>
                <path d="M116.51,158.35c-15.34,2.13-24.59,1.23-28.33,1.05v.03c.14.13.21.2.32.34,2.04.55,4.34.76,7.45,2.31,2.14,1.07,5.43,9.96,24.44,6.87,10.38-1.69,16.13-6.1,21.22-13.97,1.59-2.45,3.32-3.41,4.69-4.49.01-.18.08-.26.1-.45-3.99,1.79-11.94,5.8-29.9,8.32Z" style="fill: #961b27;"/>
                <path d="M133.9,157.39c-10.32,3.97-24.9,5.88-30.3,5.74-3.26-.85-2.39,2.89-2.39,2.89,7.71,5.67,12.89,3.6,18.29,2.91,5.33-.67,12.94-3.96,17.03-8.76.27-1.3-1.19-3.33-2.63-2.78Z" style="fill: url(#linear-gradient-17);"/>
                <path d="M138.05,152.81s-3.23,2.18-11.29,4.27c-8.12,2.1-11.67,2.15-19.14,2.93-3.43.36-5.58.18-9.99-.15,0,0,.94.83,1.6,1.87.87,1.36,4.84,5.81,20.14,3.3,11.51-1.89,16.97-6.81,17.42-9.36.27-1.53,1.25-2.35,1.26-2.85Z" style="fill: url(#linear-gradient-18);"/>
                <path d="M121.31,168.11c-23.41,3.53-16.69-7.03-32.81-8.34.11,0,3.86,1.31,8.66,5.31,5.3,4.41,10.42,11.85,23.52,9.75,11.82-1.9,17.06-11.29,20.14-16.48,3.53-5.93,5.44-7.84,5.54-7.88-12.19,5.31-6.53,14.25-25.04,17.64Z" style="fill: #f86d78;"/>
                <path d="M107.14,168.1c-3.87-1.25-7.67-4.59-8.41-4.98,1.02.99,7.92,12.31,21.06,10.03,15.19-2.64,16.43-13.03,18.7-16.4-1.09,1.52-3.77,5.57-7.54,7.51-2.48,1.28-6.74,3-11.62,3.95-3.12.61-8.46.78-12.17-.11Z" style="fill: url(#linear-gradient-19);"/>
                <path d="M130.71,165.82c.28.49-.92,2.45-3.9,3.76-3.83,1.7-7.15,1.13-7.44.64-.28-.49,4.96-1.66,6.42-2.41,1.46-.75,4.64-2.48,4.91-1.99Z" style="fill: #ff9aa2;"/>
                <path d="M88.89,160.61c.99.27,1.6-.52,5.47.22,0,0-6.74-2.23-7.13-1.98-.27.17.2,1.36,1.66,1.76Z" style="fill: #961b27;"/>
                <path d="M146.51,151.37c-.85.57-1.98.07-4.97,1.96,0,0,5.42-4.41,5.98-4.15.29.13.24,1.36-1.01,2.2Z" style="fill: #961b27;"/>
                <path d="M98,160.16l1.27,1.63s7.16,2.47,20.76.36c9.82-1.52,16.72-6.3,16.72-6.3l.51-1.88-39.25,6.2Z" style="fill: url(#linear-gradient-20);"/>
                <path d="M118.35,156.34c-3.81.52-21.22,3.34-28.89,2.96,0,0,3.02,1.24,17.13,1.74,4.2.15,7.93.36,12.12-.37,5.02-.74,9.04-2.39,12.83-3.62,6.43-2.09,13.74-6.47,13.75-6.62-3.37,1.5-23.85,5.48-26.94,5.91Z" style="fill: #f86d78;"/>
                <path d="M103.19,159.38c.06-.49,6.91-1.2,8.03-1.37,1.12-.17,11.64-1.58,12.79-1.78,1.62-.28,9.35-1.86,9.36-1.29,0,.58-11.8,3.81-13.2,4.15-1.4.34-17.15,1.72-16.98.29Z" style="fill: url(#linear-gradient-21);"/>
              </g>
            </g>
            <path d="M180.71,110.35s-5.8,39.91-11,50.97c-1.69,3.6-10.49,12.05-21.03,20.96,0,0,15.47-17.56,18.6-25.62,4.25-10.94,13.42-46.31,13.42-46.31Z" style="fill: url(#_ÂÁ_Ï_ÌÌ_È_ËÂÌÚ_23-2);"/>
            <path d="M86.31,181.91s14.84,12.69,16.44,13.61c3.2,1.84,6.18,4.44,14.51,4.78,8.12.33,13.1-3.01,15.39-4.52,2.41-1.59,14.85-12.41,16.02-13.51,0,0-9.94,11.99-13.67,15.01-6.07,4.93-13.2,7.52-17.64,7.48-5.59-.04-10.15-3.51-14.93-6.25-5.2-2.98-16.13-16.61-16.13-16.61Z" style="fill: url(#_ÂÁ_Ï_ÌÌ_È_ËÂÌÚ_18-7);"/>
            <path d="M99.07,91.76c.88,1.08,1.36,4.49.65,6.26.04-2.9-1.13-6.15-3.06-6.86-.17-.04-.38-.09-.59-.14,1.29,1.21,2.03,3.02,1.85,5.18-.58-1.61-1.71-4.46-3.66-5.46-5.72-.92-14.29-2.17-18.17-1.46-5.51,1-12.87,10.44-12.87,10.44,1.86-1.35,8.73-3.64,13.79-3.94,3.26-.19,19.42,3.12,23.64,3.7.56.08,1.75-5.52-1.59-7.72Z" style="fill: url(#_ÂÁ_Ï_ÌÌ_È_ËÂÌÚ_11);"/>
            <path d="M131.86,97.31c-.69,1.21-.62,4.65.37,6.28-.51-2.86.12-6.25,1.91-7.26.16-.07.36-.15.56-.23-1.08,1.4-1.51,3.31-.99,5.41.31-1.69.96-4.68,2.73-5.98,5.49-1.83,13.75-4.47,17.69-4.39,5.6.09,14.39,8.21,14.39,8.21-2.05-1.03-9.21-2.17-14.25-1.65-3.25.35-18.65,6.23-22.73,7.49-.54.17-2.62-5.16.32-7.88Z" style="fill: url(#_ÂÁ_Ï_ÌÌ_È_ËÂÌÚ_11-2);"/>
            <path d="M74.6,125.55c-2.73-.62-5.19.2-5.5,1.84-.31,1.65,1.64,3.48,4.37,4.12,2.73.62,5.2-.2,5.51-1.84.31-1.65-1.65-3.49-4.38-4.12Z" style="fill: url(#_ÂÁ_Ï_ÌÌ_È_ËÂÌÚ_126);"/>
            <path d="M154.83,122.64c2.74-.58,5.19.27,5.47,1.92.29,1.65-1.69,3.46-4.43,4.05-2.74.58-5.19-.27-5.48-1.92-.29-1.65,1.7-3.46,4.44-4.05Z" style="fill: url(#_ÂÁ_Ï_ÌÌ_È_ËÂÌÚ_126-2);"/>
            <g>
              <path d="M150.47,105.47c-19.06.12-19.61,17.31-19.61,17.31,0,0,8.22-5.08,17.69-4.69,4.32.18,11.55,2.65,13.41-.94,3.57-6.9-4.14-11.73-11.49-11.68Z" style="fill: url(#_ÂÁ_Ï_ÌÌ_È_ËÂÌÚ_18-8);"/>
              <path d="M162.08,115.51c4.2-1.6,3.31-7.39,3.34-7.61-.09.05-3.51,5.25-8.94,3.27-12.11-4.42-21.51,3.45-24.91,10.54,0,0,10.09-9.34,23.55-4.53,7.58,2.7,9.77-1.63,9.74-1.62-1.38.58-2.79.03-2.78-.06Z" style="fill: url(#_ÂÁ_Ï_ÌÌ_È_ËÂÌÚ_1655-2);"/>
              <path d="M133.45,114.29s2.43-4.93,7.87-7.31c4.74-2.08,11.45-3.17,17.22.49,0,0-7.24-3.61-16.68.1-3.82,1.5-8.42,6.72-8.42,6.72Z" style="fill: url(#_ÂÁ_Ï_ÌÌ_È_ËÂÌÚ_18-9);"/>
            </g>
          </g>
          <path d="M176.19,144.64s-12.88,37.43-18.6,49.81c-5.72,12.38-.7,54.51-.7,54.51,0,0,31.7-59.29,28.37-86.37-3.33-27.08-9.06-17.95-9.06-17.95Z" style="fill: url(#_ÂÁ_Ï_ÌÌ_È_ËÂÌÚ_8-4);"/>
          <path d="M199.96,225.64s3.94,16.8,14.25,25.74c0,0-12.76-2.55-15.71-10.08-2.94-7.54,1.46-15.66,1.46-15.66Z" style="fill: url(#_ÂÁ_Ï_ÌÌ_È_ËÂÌÚ_8-5);"/>
          <path d="M36.17,221.21s-4.18,16.74-14.62,25.53c0,0,12.8-2.36,15.85-9.85,3.05-7.49-1.23-15.68-1.23-15.68Z" style="fill: url(#_ÂÁ_Ï_ÌÌ_È_ËÂÌÚ_8-6);"/>
          <path d="M86.96,220.43c-1.83-25.8-13.37-44.76-19.03-52.23-9.28-12.24-9.92-39.8-9.92-39.8,0,0-6.03,44.54-8.43,60.49-3.71,24.61,6.68,58.11,17.8,65.48,7.45-12.79,8.46-27.59,6.07-45.99,9.7,19.63,1.74,38.13-.36,50.02,7.61-8.36,14.65-26.98,13.87-37.97Z" style="fill: url(#_ÂÁ_Ï_ÌÌ_È_ËÂÌÚ_8-7);"/>
          <path d="M176.17,114.55c2.26,12.79,4.19,30.39,4.09,44.25-.24,34.85-18.15,98.1-35.97,100.88,5.59-.71,20.74-1.75,32.84-18.61.71,6.24-6.65,10.72-12.28,15.4,11.36-6,16.7-11.36,16.7-11.36-2.87,5.1-4.73,9.15-14.09,15.93,5.74-.87,22.95-11.76,31.06-22.59,5.05-11.47,9.83-22.67,12.55-35.83-1.83-19.58-7.64-38.23-17.97-56.92-5.4-8.79-12.2-21.57-16.92-31.15Z" style="fill: url(#_ÂÁ_Ï_ÌÌ_È_ËÂÌÚ_46);"/>
          <path d="M203.47,155.6c-.48-5.13-13.13-86.54-19.6-100.25C158.62,1.85,118.58,19.56,118.58,19.56l-2.74,20.59c29.67-5.33,52.67,30.84,61.08,78.39,4.72,9.58,10.78,18.38,16.18,27.17,10.33,18.68,12.26,25.61,10.37,9.9Z" style="fill: url(#_ÂÁ_Ï_ÌÌ_È_ËÂÌÚ_8-8);"/>
          <path d="M65.27,26.16c-19.43,16.79-25.09,36.09-27.46,49.18-1.4,7.74-8.72,55.84-12.52,88.78,8.26-17.17,17.98-22.06,30.55-35.69.56-.82,1.06-1.66,1.54-2.5,1.56-28.59,7.04-52.44,23.73-68.49,20.99-20.19,34.73-17.29,34.73-17.29l2.74-20.59c-9.93-8.14-41.65-3.47-53.31,6.6Z" style="fill: url(#_ÂÁ_Ï_ÌÌ_È_ËÂÌÚ_8-9);"/>
          <path d="M25.29,164.12c-13.46,27.34-8.26,55.86-.92,65.89,6.11,7.28,16.95,18.79,25.14,24.12-3.2-4.18-8.48-14.11-7.74-20.14,5.37,18.48,28.46,23.56,31.31,24.41-18.85-11.5-23.98-32.36-24.42-59.25-.31-18.8,7.83-56.94,8.72-73.22-.48.84-.98,1.68-1.54,2.5-12.58,13.63-22.29,18.52-30.55,35.69Z" style="fill: url(#_ÂÁ_Ï_ÌÌ_È_ËÂÌÚ_55);"/>
          <path d="M115.87,40.15s26.12-11.76,42.47,9.47c16.36,21.22,15.64,66.1,24.9,90.35,9.26,24.25,23.46,59.41,17.19,79.08-6.28,19.67-23.62,35.2-23.62,35.2,0,0,20.24-25.13,17.11-49.08-3.13-23.95-18.68-47.84-22.19-73.86-3.51-26.02-7.36-63.88-25.34-80.52-15.96-14.77-30.53-10.63-30.53-10.63Z" style="fill: url(#linear-gradient-22);"/>
          <path d="M118.4,25.58s-38.23-6.96-54.05,26.71c-15.82,33.68-30.59,73.68-30.59,73.68,0,0,21.5-76.36,24.69-83.32,4.64-10.13,29.4-38.34,59.94-17.08Z" style="fill: url(#_ÂÁ_Ï_ÌÌ_È_ËÂÌÚ_8-10);"/>
          <path d="M120.71,24.04s22.16-6.11,45.89,19.32c13.01,13.95,17.96,88.04,17.96,88.04,0,0,2.21-58.93-3.43-78.72-5.64-19.8-36.12-48.94-60.42-28.64Z" style="fill: url(#_ÂÁ_Ï_ÌÌ_È_ËÂÌÚ_8-11);"/>
          <path d="M49.07,142.79s-19.16,32.87-21.63,54.65-10.45,40.74-21.54,42.92c0,0,14.79-2.83,21.31-11.26,6.52-8.43,12.02-66.52,21.86-86.3Z" style="fill: url(#_ÂÁ_Ï_ÌÌ_È_ËÂÌÚ_10);"/>
          <path d="M67.89,87.18s-10.17,28.5-15.86,63.91c-4.63,28.81-9.72,41.11-7.98,59.55,1.92,20.27,8.31,41.23,29.03,47.76,0,0-16.14-8.17-20.97-47.7-1.69-13.8,2.76-36.81,6.35-59.56,5.13-32.54,9.43-63.96,9.43-63.96Z" style="fill: url(#linear-gradient-23);"/>
          <path d="M175.83,178.78s6.58,75.39-31.54,80.89c0,0,23.6-9.58,31.54-80.89Z" style="fill: url(#linear-gradient-24);"/>
          <path d="M165.69,168.05s-7.5,15.31-13.84,28.14c-6.34,12.83-.31,42.59-.31,42.59,0,0-.45-21.25,4.9-34.21,5.35-12.96,9.25-36.51,9.25-36.51Z" style="fill: url(#linear-gradient-25);"/>
          <path d="M69.87,170.19s12.12,14.63,17.52,33.69c5.4,19.06-4.5,47.69-4.5,47.69,0,0,3.78-34.25.37-50.14-3.41-15.89-13.39-31.24-13.39-31.24Z" style="fill: url(#linear-gradient-26);"/>
          <path d="M40.16,210s-3.88,30.95,11.11,46.29c0,0-28.03-9.18-11.11-46.29Z" style="fill: url(#linear-gradient-27);"/>
          <path d="M183.96,217.45s5.77,28.27-20.08,39.46c0,0,21.4-18.23,20.08-39.46Z" style="fill: url(#linear-gradient-28);"/>
          <path d="M118.54,24.97s17.82-11.87,48.1,5.41c0,0-18.75-21.91-45.5-14.83,0,0-26.82-16.12-54.22,9.33,0,0,7.85-6.11,21.41-7.65,11.3-1.28,28.5,1.18,30.22,7.73Z" style="fill: url(#linear-gradient-29);"/>
          <path d="M164.74,88.53s.66-25.8-12.38-38.38c-13.04-12.57-25.59-13.37-36.49-10,0,0,15.35-2.4,24.45,6.42,12.11,11.74,18.24,21.15,24.41,41.96Z" style="fill: url(#_ÂÁ_Ï_ÌÌ_È_ËÂÌÚ_8-12);"/>
          <path d="M115.87,40.15s-9.76-2.67-17.14-.34c-14.28,4.51-22.46,22.63-26.4,45.71,0,0,5.06-27.45,24.9-38.65,10.71-6.05,18.64-6.71,18.64-6.71Z" style="fill: url(#_ÂÁ_Ï_ÌÌ_È_ËÂÌÚ_8-13);"/>
          <path d="M120.69,25.69s34.9-16.4,51.46,25.53c12.1,30.63,9.76,61.61,9.76,61.61,0,0-1.52-50.93-28.27-77.43-15.19-15.05-32.95-9.7-32.95-9.7Z" style="fill: url(#_ÂÁ_Ï_ÌÌ_È_ËÂÌÚ_8-14);"/>
          <path d="M118.4,25.58s-12.18-5.41-28-.11c-12.33,4.14-22.18,15.73-27.78,29.11-3.67,8.76-14.1,32.22-21.74,52.86,0,0,20.51-27.12,27.85-50.16,5.32-16.69,24.83-35.9,49.66-31.7Z" style="fill: url(#_ÂÁ_Ï_ÌÌ_È_ËÂÌÚ_8-15);"/>
          <path d="M186.14,78.9s-2.09,49.07,22.62,102.41l-22.62-102.41Z" style="fill: url(#_ÂÁ_Ï_ÌÌ_È_ËÂÌÚ_8-16);"/>
          <path d="M58.16,84.31l-32.92,75.3s30.94-25.01,32.92-75.3Z" style="fill: url(#_ÂÁ_Ï_ÌÌ_È_ËÂÌÚ_8-17);"/>
          <path d="M187.68,131.87s15.45,22.22,22.44,43.11c7.66,22.92,5.94,42.07-8.73,63.16,0,0,8.46-26.29-.18-66.99-3.47-16.33-13.53-39.28-13.53-39.28Z" style="fill: url(#_ÂÁ_Ï_ÌÌ_È_ËÂÌÚ_7);"/>
          <path d="M115.87,40.15s-22.28-12.91-38.78,10.93c-13.81,19.94-14.45,53.19-35.18,83.34-8.59,12.49-29.34,32.93-30,58.97,0,0,2.53-12.75,23.46-36.42,20.93-23.67,33.07-52.27,38.72-78.02,7.91-36.01,25.89-41.16,41.79-38.8Z" style="fill: url(#linear-gradient-30);"/>
          <path d="M63.99,167.31s19.96,50.91,5.06,83.91c0,0-2.46-67.46-5.06-83.91Z" style="fill: url(#_ÂÁ_Ï_ÌÌ_È_ËÂÌÚ_46-2);"/>
        </g>
      </g>
    </g>
  </g>
</svg>