<?xml version="1.0" encoding="UTF-8"?>
<svg id="Layer_2" data-name="Layer 2" xmlns="http://www.w3.org/2000/svg" width="234" height="234" xmlns:xlink="http://www.w3.org/1999/xlink" viewBox="0 0 234 234">
  <defs>
    <clipPath id="clippath">
      <rect width="234" height="234" style="fill: none;"/>
    </clipPath>
    <linearGradient id="_ÂÁ_Ï_ÌÌ_È_ËÂÌÚ_8" data-name="¡ÂÁ˚ÏˇÌÌ˚È „‡‰ËÂÌÚ 8" x1="134.72" y1="126.6" x2="114.58" y2="56.61" gradientTransform="translate(121.6 112.45) rotate(18.76)" gradientUnits="userSpaceOnUse">
      <stop offset="0" stop-color="#3b2621"/>
      <stop offset=".39" stop-color="#3e2822"/>
      <stop offset=".71" stop-color="#482e29"/>
      <stop offset="1" stop-color="#593a33"/>
    </linearGradient>
    <linearGradient id="_ÂÁ_Ï_ÌÌ_È_ËÂÌÚ_8-2" data-name="¡ÂÁ˚ÏˇÌÌ˚È „‡‰ËÂÌÚ 8" x1="-364.1" y1="324.45" x2="-384.24" y2="254.45" gradientTransform="translate(-432.66 132.97) rotate(156.9) scale(1 -1)" xlink:href="#_ÂÁ_Ï_ÌÌ_È_ËÂÌÚ_8"/>
    <linearGradient id="_ÂÁ_Ï_ÌÌ_È_ËÂÌÚ_8-3" data-name="¡ÂÁ˚ÏˇÌÌ˚È „‡‰ËÂÌÚ 8" x1="142.95" y1="275.52" x2="223.66" y2="-192.6" gradientTransform="translate(-61.47 49.69) rotate(-2.17)" xlink:href="#_ÂÁ_Ï_ÌÌ_È_ËÂÌÚ_8"/>
    <linearGradient id="linear-gradient" x1="69.17" y1="191.69" x2="155.35" y2="217.9" gradientUnits="userSpaceOnUse">
      <stop offset="0" stop-color="#f0c499"/>
      <stop offset=".52" stop-color="#f1c69b"/>
      <stop offset=".85" stop-color="#f4cea4"/>
      <stop offset="1" stop-color="#f7d4ab"/>
    </linearGradient>
    <linearGradient id="linear-gradient-2" x1="83.96" y1="251.12" x2="220.75" y2="213.85" xlink:href="#linear-gradient"/>
    <linearGradient id="linear-gradient-3" x1="160.63" y1="718.66" x2="43.6" y2="751.54" gradientTransform="translate(249.26 -511.64) rotate(13.36)" gradientUnits="userSpaceOnUse">
      <stop offset="0" stop-color="#dba379"/>
      <stop offset=".49" stop-color="#e3b086"/>
      <stop offset="1" stop-color="#f0c499"/>
    </linearGradient>
    <linearGradient id="linear-gradient-4" x1="243.95" y1="275.13" x2="350.51" y2="339.87" gradientTransform="translate(-294.45 14.7) rotate(-16.11)" xlink:href="#linear-gradient-3"/>
    <linearGradient id="_ÂÁ_Ï_ÌÌ_È_ËÂÌÚ_29" data-name="¡ÂÁ˚ÏˇÌÌ˚È „‡‰ËÂÌÚ 29" x1="124.16" y1="253.42" x2="120.61" y2="219.11" gradientUnits="userSpaceOnUse">
      <stop offset="0" stop-color="#d6b01f"/>
      <stop offset=".42" stop-color="#e0bc26"/>
      <stop offset="1" stop-color="#f5d534"/>
    </linearGradient>
    <linearGradient id="linear-gradient-5" x1="115.39" y1="169.13" x2="127.16" y2="218.98" gradientTransform="matrix(1,0,0,1,0,0)" xlink:href="#linear-gradient-3"/>
    <linearGradient id="_ÂÁ_Ï_ÌÌ_È_ËÂÌÚ_14" data-name="¡ÂÁ˚ÏˇÌÌ˚È „‡‰ËÂÌÚ 14" x1="184.73" y1="48.06" x2="184.64" y2="47.79" gradientTransform="translate(-66.22 -24.46) rotate(.15)" gradientUnits="userSpaceOnUse">
      <stop offset="0" stop-color="#cb8076"/>
      <stop offset=".31" stop-color="#b76f65"/>
      <stop offset=".95" stop-color="#86443a"/>
      <stop offset="1" stop-color="#824137"/>
    </linearGradient>
    <linearGradient id="_ÂÁ_Ï_ÌÌ_È_ËÂÌÚ_18" data-name="¡ÂÁ˚ÏˇÌÌ˚È „‡‰ËÂÌÚ 18" x1="-264.69" y1="-24.84" x2="-272.66" y2="-49.71" gradientTransform="translate(322.34 180.29) rotate(2.06)" gradientUnits="userSpaceOnUse">
      <stop offset="0" stop-color="#dba379"/>
      <stop offset=".49" stop-color="#e3b086"/>
      <stop offset="1" stop-color="#f0c499"/>
    </linearGradient>
    <linearGradient id="linear-gradient-6" x1="-3274.04" y1="127.02" x2="-3272.42" y2="183.76" gradientTransform="translate(3327.17 247.66) rotate(1.32)" xlink:href="#linear-gradient-3"/>
    <linearGradient id="_ÂÁ_Ï_ÌÌ_È_ËÂÌÚ_18-2" data-name="¡ÂÁ˚ÏˇÌÌ˚È „‡‰ËÂÌÚ 18" x1="-151.42" y1="-44.35" x2="-132.25" y2="-44.35" xlink:href="#_ÂÁ_Ï_ÌÌ_È_ËÂÌÚ_18"/>
    <linearGradient id="linear-gradient-7" x1="-1114.39" y1="126.67" x2="-1112.77" y2="183.41" gradientTransform="translate(-935.66 149.51) rotate(-178.68) scale(1 -1)" xlink:href="#linear-gradient-3"/>
    <linearGradient id="_ÂÁ_Ï_ÌÌ_È_ËÂÌÚ_384" data-name="¡ÂÁ˚ÏˇÌÌ˚È „‡‰ËÂÌÚ 384" x1="-194.38" y1="-126.9" x2="-194.63" y2="40.61" gradientTransform="translate(310 177.86) rotate(1.32)" gradientUnits="userSpaceOnUse">
      <stop offset="0" stop-color="#ffd9b3"/>
      <stop offset=".32" stop-color="#f9d5ad"/>
      <stop offset="1" stop-color="#f7d4ab"/>
    </linearGradient>
    <linearGradient id="linear-gradient-8" x1="-222.63" y1="-32.67" x2="-229.79" y2="-77" gradientTransform="translate(310 177.86) rotate(1.32)" gradientUnits="userSpaceOnUse">
      <stop offset="0" stop-color="#f7d4ab"/>
      <stop offset=".52" stop-color="#f5d1a8"/>
      <stop offset=".85" stop-color="#f2c99f"/>
      <stop offset="1" stop-color="#f0c499"/>
    </linearGradient>
    <radialGradient id="radial-gradient" cx="-539.72" cy="-32.79" fx="-539.72" fy="-32.79" r="31.76" gradientTransform="translate(505.68 182.24) rotate(1.32) scale(.79 1)" gradientUnits="userSpaceOnUse">
      <stop offset="0" stop-color="#f9b38e"/>
      <stop offset=".61" stop-color="#f7c59e"/>
      <stop offset="1" stop-color="#f7d4ab"/>
    </radialGradient>
    <linearGradient id="linear-gradient-9" x1="-161.11" y1="-39.22" x2="-168.23" y2="-78.73" xlink:href="#linear-gradient-8"/>
    <linearGradient id="linear-gradient-10" x1="-169.53" y1="-70.76" x2="-139.53" y2="-70.76" gradientTransform="translate(310 177.86) rotate(1.32)" gradientUnits="userSpaceOnUse">
      <stop offset="0" stop-color="#ffd9b3"/>
      <stop offset=".68" stop-color="#fcd7b0"/>
      <stop offset="1" stop-color="#f7d4ab"/>
    </linearGradient>
    <radialGradient id="radial-gradient-2" cx="2279.95" cy="-35.66" fx="2279.95" fy="-35.66" r="31.76" gradientTransform="translate(1962.18 216.7) rotate(-178.68) scale(.79 -1)" xlink:href="#radial-gradient"/>
    <linearGradient id="_ÂÁ_Ï_ÌÌ_È_ËÂÌÚ_126" data-name="¡ÂÁ˚ÏˇÌÌ˚È „‡‰ËÂÌÚ 126" x1="-442.26" y1="1233.66" x2="-441.49" y2="1233.66" gradientTransform="translate(5158.46 16099.42) rotate(2.05) scale(12.79 -12.79)" gradientUnits="userSpaceOnUse">
      <stop offset="0" stop-color="#ffd9b3"/>
      <stop offset=".52" stop-color="#fccfa9"/>
      <stop offset="1" stop-color="#f8c39c"/>
    </linearGradient>
    <linearGradient id="_ÂÁ_Ï_ÌÌ_È_ËÂÌÚ_126-2" data-name="¡ÂÁ˚ÏˇÌÌ˚È „‡‰ËÂÌÚ 126" x1="-409.8" y1="1234.27" x2="-409.03" y2="1234.27" gradientTransform="translate(-5241.6 15858.77) rotate(-179.4) scale(12.79)" xlink:href="#_ÂÁ_Ï_ÌÌ_È_ËÂÌÚ_126"/>
    <linearGradient id="_ÂÁ_Ï_ÌÌ_È_ËÂÌÚ_3" data-name="¡ÂÁ˚ÏˇÌÌ˚È „‡‰ËÂÌÚ 3" x1="-203.54" y1="339.86" x2="-234.59" y2="196.73" gradientTransform="translate(391.16 -130.7) rotate(12.5)" gradientUnits="userSpaceOnUse">
      <stop offset="0" stop-color="#f0c499"/>
      <stop offset=".51" stop-color="#e3b086"/>
      <stop offset="1" stop-color="#dba379"/>
    </linearGradient>
    <linearGradient id="_ÂÁ_Ï_ÌÌ_È_ËÂÌÚ_72" data-name="¡ÂÁ˚ÏˇÌÌ˚È „‡‰ËÂÌÚ 72" x1="133.33" y1="190.4" x2="128.84" y2="114.78" gradientTransform="translate(-66.22 -24.46) rotate(.15)" gradientUnits="userSpaceOnUse">
      <stop offset="0" stop-color="#f9b38e"/>
      <stop offset=".5" stop-color="#f7b690"/>
      <stop offset=".9" stop-color="#f2c096"/>
      <stop offset="1" stop-color="#f0c499"/>
    </linearGradient>
    <linearGradient id="_ÂÁ_Ï_ÌÌ_È_ËÂÌÚ_72-2" data-name="¡ÂÁ˚ÏˇÌÌ˚È „‡‰ËÂÌÚ 72" x1="-588.62" y1="187.15" x2="-592.79" y2="116.98" gradientTransform="translate(-419.83 -25.88) rotate(-179.85) scale(1 -1)" xlink:href="#_ÂÁ_Ï_ÌÌ_È_ËÂÌÚ_72"/>
    <linearGradient id="_ÂÁ_Ï_ÌÌ_È_ËÂÌÚ_18-3" data-name="¡ÂÁ˚ÏˇÌÌ˚È „‡‰ËÂÌÚ 18" x1="-255.67" y1="-23.98" x2="-224.08" y2="-23.98" gradientTransform="translate(310 177.86) rotate(1.32)" xlink:href="#_ÂÁ_Ï_ÌÌ_È_ËÂÌÚ_18"/>
    <linearGradient id="_ÂÁ_Ï_ÌÌ_È_ËÂÌÚ_23" data-name="¡ÂÁ˚ÏˇÌÌ˚È „‡‰ËÂÌÚ 23" x1="-159.23" y1="-25.68" x2="-131.66" y2="-25.68" gradientTransform="translate(310 177.86) rotate(1.32)" gradientUnits="userSpaceOnUse">
      <stop offset="0" stop-color="#f7d4ab"/>
      <stop offset="1" stop-color="#ffd9b3"/>
    </linearGradient>
    <linearGradient id="_ÂÁ_Ï_ÌÌ_È_ËÂÌÚ_11" data-name="¡ÂÁ˚ÏˇÌÌ˚È „‡‰ËÂÌÚ 11" x1="-20.85" y1="-110.57" x2="22.98" y2="-111.6" gradientTransform="translate(96.6 198.62) rotate(-6.14)" gradientUnits="userSpaceOnUse">
      <stop offset="0" stop-color="#3b2621"/>
      <stop offset=".41" stop-color="#3c2722"/>
      <stop offset=".56" stop-color="#432c25"/>
      <stop offset=".66" stop-color="#4f362c"/>
      <stop offset=".75" stop-color="#604335"/>
      <stop offset=".82" stop-color="#765441"/>
      <stop offset=".88" stop-color="#916950"/>
      <stop offset=".94" stop-color="#b18262"/>
      <stop offset=".99" stop-color="#d69f76"/>
      <stop offset="1" stop-color="#dba379"/>
    </linearGradient>
    <linearGradient id="_ÂÁ_Ï_ÌÌ_È_ËÂÌÚ_11-2" data-name="¡ÂÁ˚ÏˇÌÌ˚È „‡‰ËÂÌÚ 11" x1="18.21" y1="-36.87" x2="62.04" y2="-37.9" gradientTransform="translate(181.21 132.33) rotate(-171.62) scale(1 -1)" xlink:href="#_ÂÁ_Ï_ÌÌ_È_ËÂÌÚ_11"/>
    <linearGradient id="_ÂÁ_Ï_ÌÌ_È_ËÂÌÚ_18-4" data-name="¡ÂÁ˚ÏˇÌÌ˚È „‡‰ËÂÌÚ 18" x1="-2800.04" y1="183.27" x2="-2832.13" y2="195.73" gradientTransform="translate(2961.59 -81.37) rotate(-.13)" xlink:href="#_ÂÁ_Ï_ÌÌ_È_ËÂÌÚ_18"/>
    <linearGradient id="_ÂÁ_Ï_ÌÌ_È_ËÂÌÚ_131" data-name="¡ÂÁ˚ÏˇÌÌ˚È „‡‰ËÂÌÚ 131" x1="-2831.38" y1="190.75" x2="-2821.54" y2="190.75" gradientTransform="translate(2961.59 -81.37) rotate(-.13)" gradientUnits="userSpaceOnUse">
      <stop offset="0" stop-color="#fff"/>
      <stop offset=".41" stop-color="#fcfcfc"/>
      <stop offset=".69" stop-color="#f3f3f3"/>
      <stop offset=".92" stop-color="#e4e4e4"/>
      <stop offset="1" stop-color="#ddd"/>
    </linearGradient>
    <linearGradient id="_ÂÁ_Ï_ÌÌ_È_ËÂÌÚ_107" data-name="¡ÂÁ˚ÏˇÌÌ˚È „‡‰ËÂÌÚ 107" x1="3018.38" y1="193.49" x2="3021.42" y2="195.67" gradientTransform="translate(3152.34 -81.96) rotate(179.87) scale(1 -1)" gradientUnits="userSpaceOnUse">
      <stop offset="0" stop-color="#fff"/>
      <stop offset=".46" stop-color="#f2f2f2"/>
      <stop offset="1" stop-color="#ddd"/>
    </linearGradient>
    <linearGradient id="_ÂÁ_Ï_ÌÌ_È_ËÂÌÚ_131-2" data-name="¡ÂÁ˚ÏˇÌÌ˚È „‡‰ËÂÌÚ 131" x1="-2809.59" y1="190.46" x2="-2801.76" y2="190.46" xlink:href="#_ÂÁ_Ï_ÌÌ_È_ËÂÌÚ_131"/>
    <linearGradient id="_ÂÁ_Ï_ÌÌ_È_ËÂÌÚ_387" data-name="¡ÂÁ˚ÏˇÌÌ˚È „‡‰ËÂÌÚ 387" x1="-2804.43" y1="199.19" x2="-2827.42" y2="184.82" gradientTransform="translate(2961.59 -81.37) rotate(-.13)" gradientUnits="userSpaceOnUse">
      <stop offset="0" stop-color="#715241"/>
      <stop offset="1" stop-color="#b89c8c"/>
    </linearGradient>
    <linearGradient id="_ÂÁ_Ï_ÌÌ_È_ËÂÌÚ_387-2" data-name="¡ÂÁ˚ÏˇÌÌ˚È „‡‰ËÂÌÚ 387" x1="-136.45" y1="266.94" x2="-162.06" y2="275.05" gradientTransform="translate(352.03 -122.1) rotate(11.2)" xlink:href="#_ÂÁ_Ï_ÌÌ_È_ËÂÌÚ_387"/>
    <linearGradient id="_ÂÁ_Ï_ÌÌ_È_ËÂÌÚ_387-3" data-name="¡ÂÁ˚ÏˇÌÌ˚È „‡‰ËÂÌÚ 387" x1="3007.65" y1="195.65" x2="3009.78" y2="211.61" gradientTransform="translate(3152.34 -81.96) rotate(179.87) scale(1 -1)" xlink:href="#_ÂÁ_Ï_ÌÌ_È_ËÂÌÚ_387"/>
    <radialGradient id="_ÂÁ_Ï_ÌÌ_È_ËÂÌÚ_105" data-name="¡ÂÁ˚ÏˇÌÌ˚È „‡‰ËÂÌÚ 105" cx="3006.74" cy="190.16" fx="3006.74" fy="190.16" r="5.81" gradientTransform="translate(3152.34 -81.96) rotate(179.87) scale(1 -1)" gradientUnits="userSpaceOnUse">
      <stop offset="0" stop-color="#666"/>
      <stop offset="1" stop-color="#1d1d1d"/>
    </radialGradient>
    <linearGradient id="_ÂÁ_Ï_ÌÌ_È_ËÂÌÚ_1655" data-name="¡ÂÁ˚ÏˇÌÌ˚È „‡‰ËÂÌÚ 1655" x1="-2831.36" y1="189.36" x2="-2795.2" y2="189.36" gradientTransform="translate(2961.59 -81.37) rotate(-.13)" gradientUnits="userSpaceOnUse">
      <stop offset="0" stop-color="#4d322e"/>
      <stop offset=".06" stop-color="#4a302c"/>
      <stop offset=".55" stop-color="#3d2622"/>
      <stop offset="1" stop-color="#39231f"/>
    </linearGradient>
    <linearGradient id="_ÂÁ_Ï_ÌÌ_È_ËÂÌÚ_18-5" data-name="¡ÂÁ˚ÏˇÌÌ˚È „‡‰ËÂÌÚ 18" x1="-2815.67" y1="179.73" x2="-2839.59" y2="210.18" gradientTransform="translate(2961.59 -81.37) rotate(-.13)" xlink:href="#_ÂÁ_Ï_ÌÌ_È_ËÂÌÚ_18"/>
    <linearGradient id="_ÂÁ_Ï_ÌÌ_È_ËÂÌÚ_44" data-name="¡ÂÁ˚ÏˇÌÌ˚È „‡‰ËÂÌÚ 44" x1="3011.09" y1="209.91" x2="3008.35" y2="197.83" gradientTransform="translate(3152.34 -81.96) rotate(179.87) scale(1 -1)" gradientUnits="userSpaceOnUse">
      <stop offset="0" stop-color="#38221e"/>
      <stop offset=".77" stop-color="#291915"/>
    </linearGradient>
    <linearGradient id="_ÂÁ_Ï_ÌÌ_È_ËÂÌÚ_18-6" data-name="¡ÂÁ˚ÏˇÌÌ˚È „‡‰ËÂÌÚ 18" x1="79.52" y1="183.42" x2="47.43" y2="195.88" gradientTransform="translate(151.71 -75.33) rotate(179.87) scale(1 -1)" xlink:href="#_ÂÁ_Ï_ÌÌ_È_ËÂÌÚ_18"/>
    <linearGradient id="_ÂÁ_Ï_ÌÌ_È_ËÂÌÚ_131-3" data-name="¡ÂÁ˚ÏˇÌÌ˚È „‡‰ËÂÌÚ 131" x1="48.18" y1="190.89" x2="58.02" y2="190.89" gradientTransform="translate(151.71 -75.33) rotate(179.87) scale(1 -1)" xlink:href="#_ÂÁ_Ï_ÌÌ_È_ËÂÌÚ_131"/>
    <linearGradient id="_ÂÁ_Ï_ÌÌ_È_ËÂÌÚ_107-2" data-name="¡ÂÁ˚ÏˇÌÌ˚È „‡‰ËÂÌÚ 107" x1="138.82" y1="193.28" x2="141.86" y2="195.46" gradientTransform="translate(-39.04 -74.73) rotate(-.13)" xlink:href="#_ÂÁ_Ï_ÌÌ_È_ËÂÌÚ_107"/>
    <linearGradient id="_ÂÁ_Ï_ÌÌ_È_ËÂÌÚ_131-4" data-name="¡ÂÁ˚ÏˇÌÌ˚È „‡‰ËÂÌÚ 131" x1="69.96" y1="190.61" x2="77.79" y2="190.61" gradientTransform="translate(151.71 -75.33) rotate(179.87) scale(1 -1)" xlink:href="#_ÂÁ_Ï_ÌÌ_È_ËÂÌÚ_131"/>
    <linearGradient id="_ÂÁ_Ï_ÌÌ_È_ËÂÌÚ_387-4" data-name="¡ÂÁ˚ÏˇÌÌ˚È „‡‰ËÂÌÚ 387" x1="75.12" y1="199.33" x2="52.14" y2="184.97" gradientTransform="translate(151.71 -75.33) rotate(179.87) scale(1 -1)" xlink:href="#_ÂÁ_Ï_ÌÌ_È_ËÂÌÚ_387"/>
    <linearGradient id="_ÂÁ_Ï_ÌÌ_È_ËÂÌÚ_387-5" data-name="¡ÂÁ˚ÏˇÌÌ˚È „‡‰ËÂÌÚ 387" x1="-233.01" y1="282.3" x2="-204.33" y2="285.24" gradientTransform="translate(352.03 -122.1) rotate(11.2)" xlink:href="#_ÂÁ_Ï_ÌÌ_È_ËÂÌÚ_387"/>
    <linearGradient id="_ÂÁ_Ï_ÌÌ_È_ËÂÌÚ_387-6" data-name="¡ÂÁ˚ÏˇÌÌ˚È „‡‰ËÂÌÚ 387" x1="128.1" y1="195.52" x2="130.27" y2="211.74" gradientTransform="translate(-39.04 -74.73) rotate(-.13)" xlink:href="#_ÂÁ_Ï_ÌÌ_È_ËÂÌÚ_387"/>
    <radialGradient id="_ÂÁ_Ï_ÌÌ_È_ËÂÌÚ_105-2" data-name="¡ÂÁ˚ÏˇÌÌ˚È „‡‰ËÂÌÚ 105" cx="127.18" cy="189.96" fx="127.18" fy="189.96" r="5.81" gradientTransform="translate(-39.04 -74.73) rotate(-.13)" xlink:href="#_ÂÁ_Ï_ÌÌ_È_ËÂÌÚ_105"/>
    <linearGradient id="_ÂÁ_Ï_ÌÌ_È_ËÂÌÚ_1655-2" data-name="¡ÂÁ˚ÏˇÌÌ˚È „‡‰ËÂÌÚ 1655" x1="48.19" y1="189.5" x2="84.36" y2="189.5" gradientTransform="translate(151.71 -75.33) rotate(179.87) scale(1 -1)" xlink:href="#_ÂÁ_Ï_ÌÌ_È_ËÂÌÚ_1655"/>
    <linearGradient id="_ÂÁ_Ï_ÌÌ_È_ËÂÌÚ_18-7" data-name="¡ÂÁ˚ÏˇÌÌ˚È „‡‰ËÂÌÚ 18" x1="63.89" y1="179.88" x2="39.96" y2="210.33" gradientTransform="translate(151.71 -75.33) rotate(179.87) scale(1 -1)" xlink:href="#_ÂÁ_Ï_ÌÌ_È_ËÂÌÚ_18"/>
    <linearGradient id="_ÂÁ_Ï_ÌÌ_È_ËÂÌÚ_44-2" data-name="¡ÂÁ˚ÏˇÌÌ˚È „‡‰ËÂÌÚ 44" x1="131.49" y1="209.53" x2="128.8" y2="197.63" gradientTransform="translate(-39.04 -74.73) rotate(-.13)" xlink:href="#_ÂÁ_Ï_ÌÌ_È_ËÂÌÚ_44"/>
    <linearGradient id="linear-gradient-11" x1="124.45" y1="245.28" x2="122.29" y2="234.49" gradientTransform="translate(-.74 -91.85) rotate(1.18)" xlink:href="#linear-gradient-8"/>
    <linearGradient id="linear-gradient-12" x1="122.75" y1="233.63" x2="122.69" y2="242.1" gradientTransform="translate(-.74 -91.85) rotate(1.18)" xlink:href="#linear-gradient-3"/>
    <linearGradient id="_ÂÁ_Ï_ÌÌ_È_ËÂÌÚ_23-2" data-name="¡ÂÁ˚ÏˇÌÌ˚È „‡‰ËÂÌÚ 23" x1="122.23" y1="222.1" x2="122.35" y2="230.79" gradientTransform="translate(-.74 -91.85) rotate(1.18)" xlink:href="#_ÂÁ_Ï_ÌÌ_È_ËÂÌÚ_23"/>
    <linearGradient id="linear-gradient-13" x1="124.33" y1="280.33" x2="121.26" y2="324.99" gradientTransform="translate(-.74 -91.85) rotate(1.18)" xlink:href="#linear-gradient-3"/>
    <linearGradient id="linear-gradient-14" x1="124.25" y1="283.72" x2="124.47" y2="300.75" gradientTransform="translate(-.74 -91.85) rotate(1.18)" xlink:href="#linear-gradient-10"/>
    <linearGradient id="_ÂÁ_Ï_ÌÌ_È_ËÂÌÚ_101" data-name="¡ÂÁ˚ÏˇÌÌ˚È „‡‰ËÂÌÚ 101" x1="101.2" y1="246.75" x2="145.39" y2="246.75" gradientTransform="translate(-.74 -91.85) rotate(1.18)" gradientUnits="userSpaceOnUse">
      <stop offset="0" stop-color="#f8d4ac"/>
      <stop offset=".52" stop-color="#ffd9b3"/>
      <stop offset="1" stop-color="#f7d4ab"/>
    </linearGradient>
    <linearGradient id="linear-gradient-15" x1="133.5" y1="249.6" x2="129.53" y2="287.65" gradientTransform="translate(-37.72 -80.92) rotate(-5.09)" xlink:href="#linear-gradient-3"/>
    <linearGradient id="linear-gradient-16" x1="80.42" y1="238.57" x2="68.26" y2="234.95" gradientTransform="translate(-4.86 -66.17) rotate(-5.64)" xlink:href="#linear-gradient-3"/>
    <linearGradient id="linear-gradient-17" x1="4268.6" y1="-187.93" x2="4256.41" y2="-191.56" gradientTransform="translate(4303.17 1104.13) rotate(-169.82) scale(1 -1)" xlink:href="#linear-gradient-3"/>
    <linearGradient id="linear-gradient-18" x1="176.31" y1="303.53" x2="176.03" y2="285.92" gradientTransform="translate(-47.83 -123.1) rotate(2.01)" gradientUnits="userSpaceOnUse">
      <stop offset="0" stop-color="#e46980"/>
      <stop offset=".37" stop-color="#e2677d"/>
      <stop offset=".55" stop-color="#db6076"/>
      <stop offset=".69" stop-color="#cf5568"/>
      <stop offset=".81" stop-color="#be4456"/>
      <stop offset=".92" stop-color="#a9303e"/>
      <stop offset="1" stop-color="#951c27"/>
    </linearGradient>
    <linearGradient id="linear-gradient-19" x1="175.4" y1="283.73" x2="176.35" y2="274.51" gradientTransform="translate(-47.83 -123.1) rotate(2.01)" gradientUnits="userSpaceOnUse">
      <stop offset="0" stop-color="#e7d7d6"/>
      <stop offset=".14" stop-color="#efe4e4"/>
      <stop offset=".4" stop-color="#faf8f7"/>
      <stop offset=".57" stop-color="#fff"/>
      <stop offset="1" stop-color="#e7d1d0"/>
    </linearGradient>
    <linearGradient id="linear-gradient-20" x1="176.46" y1="303.59" x2="176.24" y2="289.92" xlink:href="#linear-gradient-18"/>
    <linearGradient id="linear-gradient-21" x1="175.71" y1="290.85" x2="174.76" y2="308.83" gradientTransform="translate(-47.83 -123.1) rotate(2.01)" gradientUnits="userSpaceOnUse">
      <stop offset="0" stop-color="#f96e7e"/>
      <stop offset=".03" stop-color="#f9707f"/>
      <stop offset=".25" stop-color="#fd7985"/>
      <stop offset=".53" stop-color="#ff7d88"/>
      <stop offset=".76" stop-color="#fd7985"/>
      <stop offset="1" stop-color="#f86d7d"/>
      <stop offset="1" stop-color="#f86d7d"/>
    </linearGradient>
    <linearGradient id="linear-gradient-22" x1="175.94" y1="285.64" x2="175.88" y2="271.75" gradientTransform="translate(-47.83 -123.1) rotate(2.01)" gradientUnits="userSpaceOnUse">
      <stop offset="0" stop-color="#e7d7d6"/>
      <stop offset=".05" stop-color="#e9dbda"/>
      <stop offset=".31" stop-color="#f5eeed"/>
      <stop offset=".48" stop-color="#faf5f5"/>
      <stop offset="1" stop-color="#e7d1d0"/>
    </linearGradient>
    <linearGradient id="linear-gradient-23" x1="175.28" y1="271.85" x2="174.98" y2="277.58" xlink:href="#linear-gradient-21"/>
    <linearGradient id="_ÂÁ_Ï_ÌÌ_È_ËÂÌÚ_8-4" data-name="¡ÂÁ˚ÏˇÌÌ˚È „‡‰ËÂÌÚ 8" x1="182.1" y1="151.8" x2="268.97" y2="259.1" gradientTransform="translate(-66.22 -24.46) rotate(.15)" xlink:href="#_ÂÁ_Ï_ÌÌ_È_ËÂÌÚ_8"/>
    <linearGradient id="_ÂÁ_Ï_ÌÌ_È_ËÂÌÚ_8-5" data-name="¡ÂÁ˚ÏˇÌÌ˚È „‡‰ËÂÌÚ 8" x1="280.58" y1="290.43" x2="269.93" y2="253.39" gradientTransform="translate(-66.22 -24.46) rotate(.15)" xlink:href="#_ÂÁ_Ï_ÌÌ_È_ËÂÌÚ_8"/>
    <linearGradient id="_ÂÁ_Ï_ÌÌ_È_ËÂÌÚ_8-6" data-name="¡ÂÁ˚ÏˇÌÌ˚È „‡‰ËÂÌÚ 8" x1="-288.07" y1="287.72" x2="-298.73" y2="250.68" gradientTransform="translate(-263.5 -25.48) rotate(-179.85) scale(1 -1)" xlink:href="#_ÂÁ_Ï_ÌÌ_È_ËÂÌÚ_8"/>
    <linearGradient id="_ÂÁ_Ï_ÌÌ_È_ËÂÌÚ_8-7" data-name="¡ÂÁ˚ÏˇÌÌ˚È „‡‰ËÂÌÚ 8" x1="141.81" y1="171.6" x2="133.06" y2="254.75" gradientTransform="translate(-66.22 -24.46) rotate(.15)" xlink:href="#_ÂÁ_Ï_ÌÌ_È_ËÂÌÚ_8"/>
    <linearGradient id="_ÂÁ_Ï_ÌÌ_È_ËÂÌÚ_46" data-name="¡ÂÁ˚ÏˇÌÌ˚È „‡‰ËÂÌÚ 46" x1="249.05" y1="283.53" x2="232.1" y2="142.57" gradientTransform="translate(-66.22 -24.46) rotate(.15)" gradientUnits="userSpaceOnUse">
      <stop offset="0" stop-color="#593a33"/>
      <stop offset=".29" stop-color="#482e29"/>
      <stop offset=".61" stop-color="#3e2822"/>
      <stop offset="1" stop-color="#3b2621"/>
    </linearGradient>
    <linearGradient id="_ÂÁ_Ï_ÌÌ_È_ËÂÌÚ_8-8" data-name="¡ÂÁ˚ÏˇÌÌ˚È „‡‰ËÂÌÚ 8" x1="235.11" y1="192.63" x2="216.98" y2="41.82" gradientTransform="translate(-66.22 -24.46) rotate(.15)" xlink:href="#_ÂÁ_Ï_ÌÌ_È_ËÂÌÚ_8"/>
    <linearGradient id="_ÂÁ_Ï_ÌÌ_È_ËÂÌÚ_8-9" data-name="¡ÂÁ˚ÏˇÌÌ˚È „‡‰ËÂÌÚ 8" x1="147.72" y1="190.28" x2="130.84" y2="49.89" gradientTransform="translate(-66.22 -24.46) rotate(.15)" xlink:href="#_ÂÁ_Ï_ÌÌ_È_ËÂÌÚ_8"/>
    <linearGradient id="_ÂÁ_Ï_ÌÌ_È_ËÂÌÚ_55" data-name="¡ÂÁ˚ÏˇÌÌ˚È „‡‰ËÂÌÚ 55" x1="112.98" y1="277.68" x2="111.25" y2="126.43" gradientTransform="translate(-66.22 -24.46) rotate(.15)" gradientUnits="userSpaceOnUse">
      <stop offset="0" stop-color="#593a33"/>
      <stop offset=".19" stop-color="#52352f"/>
      <stop offset="1" stop-color="#3b2621"/>
    </linearGradient>
    <linearGradient id="linear-gradient-24" x1="217.61" y1="267.65" x2="231.03" y2="70.26" gradientTransform="translate(-66.22 -24.46) rotate(.15)" gradientUnits="userSpaceOnUse">
      <stop offset="0" stop-color="#593a33"/>
      <stop offset=".4" stop-color="#5d3d36"/>
      <stop offset=".85" stop-color="#6a4741"/>
      <stop offset="1" stop-color="#714c46"/>
    </linearGradient>
    <linearGradient id="_ÂÁ_Ï_ÌÌ_È_ËÂÌÚ_8-10" data-name="¡ÂÁ˚ÏˇÌÌ˚È „‡‰ËÂÌÚ 8" x1="161.02" y1="233.68" x2="142.68" y2="98.69" gradientTransform="translate(-66.22 -24.46) rotate(.15)" xlink:href="#_ÂÁ_Ï_ÌÌ_È_ËÂÌÚ_8"/>
    <linearGradient id="_ÂÁ_Ï_ÌÌ_È_ËÂÌÚ_8-11" data-name="¡ÂÁ˚ÏˇÌÌ˚È „‡‰ËÂÌÚ 8" x1="239.59" y1="223" x2="221.25" y2="88.02" gradientTransform="translate(-66.22 -24.46) rotate(.15)" xlink:href="#_ÂÁ_Ï_ÌÌ_È_ËÂÌÚ_8"/>
    <linearGradient id="_ÂÁ_Ï_ÌÌ_È_ËÂÌÚ_10" data-name="¡ÂÁ˚ÏˇÌÌ˚È „‡‰ËÂÌÚ 10" x1="119.69" y1="328.56" x2="92" y2="201.19" gradientTransform="translate(-66.22 -24.46) rotate(.15)" gradientUnits="userSpaceOnUse">
      <stop offset="0" stop-color="#3b2621"/>
      <stop offset=".77" stop-color="#51342e"/>
      <stop offset="1" stop-color="#593a33"/>
    </linearGradient>
    <linearGradient id="linear-gradient-25" x1="127.39" y1="146.54" x2="126.01" y2="257.64" xlink:href="#linear-gradient-24"/>
    <linearGradient id="linear-gradient-26" x1="225.95" y1="280.08" x2="231.17" y2="203.31" xlink:href="#linear-gradient-24"/>
    <linearGradient id="linear-gradient-27" x1="221.46" y1="258.69" x2="225.96" y2="192.5" xlink:href="#linear-gradient-24"/>
    <linearGradient id="linear-gradient-28" x1="143.21" y1="271.07" x2="148.25" y2="196.95" xlink:href="#linear-gradient-24"/>
    <linearGradient id="linear-gradient-29" x1="110.02" y1="276.98" x2="112.87" y2="235.07" xlink:href="#linear-gradient-24"/>
    <linearGradient id="linear-gradient-30" x1="240.93" y1="278.15" x2="243.5" y2="240.37" xlink:href="#linear-gradient-24"/>
    <linearGradient id="linear-gradient-31" x1="185.82" y1="67.62" x2="179.64" y2="29.08" xlink:href="#linear-gradient-24"/>
    <linearGradient id="_ÂÁ_Ï_ÌÌ_È_ËÂÌÚ_8-12" data-name="¡ÂÁ˚ÏˇÌÌ˚È „‡‰ËÂÌÚ 8" x1="203.37" y1="93.48" x2="213.76" y2="71.77" gradientTransform="translate(-66.22 -24.46) rotate(.15)" xlink:href="#_ÂÁ_Ï_ÌÌ_È_ËÂÌÚ_8"/>
    <linearGradient id="_ÂÁ_Ï_ÌÌ_È_ËÂÌÚ_8-13" data-name="¡ÂÁ˚ÏˇÌÌ˚È „‡‰ËÂÌÚ 8" x1="148.09" y1="105.75" x2="167.83" y2="64.5" gradientTransform="translate(-66.22 -24.46) rotate(.15)" xlink:href="#_ÂÁ_Ï_ÌÌ_È_ËÂÌÚ_8"/>
    <linearGradient id="_ÂÁ_Ï_ÌÌ_È_ËÂÌÚ_8-14" data-name="¡ÂÁ˚ÏˇÌÌ˚È „‡‰ËÂÌÚ 8" x1="257.37" y1="133.2" x2="196.46" y2="32.83" gradientTransform="translate(-66.22 -24.46) rotate(.15)" xlink:href="#_ÂÁ_Ï_ÌÌ_È_ËÂÌÚ_8"/>
    <linearGradient id="_ÂÁ_Ï_ÌÌ_È_ËÂÌÚ_8-15" data-name="¡ÂÁ˚ÏˇÌÌ˚È „‡‰ËÂÌÚ 8" x1="154.79" y1="103.28" x2="128.53" y2="60.02" gradientTransform="translate(-66.22 -24.46) rotate(.15)" xlink:href="#_ÂÁ_Ï_ÌÌ_È_ËÂÌÚ_8"/>
    <linearGradient id="_ÂÁ_Ï_ÌÌ_È_ËÂÌÚ_8-16" data-name="¡ÂÁ˚ÏˇÌÌ˚È „‡‰ËÂÌÚ 8" x1="269.13" y1="191.78" x2="252.17" y2="76.87" gradientTransform="translate(-66.22 -24.46) rotate(.15)" xlink:href="#_ÂÁ_Ï_ÌÌ_È_ËÂÌÚ_8"/>
    <linearGradient id="_ÂÁ_Ï_ÌÌ_È_ËÂÌÚ_8-17" data-name="¡ÂÁ˚ÏˇÌÌ˚È „‡‰ËÂÌÚ 8" x1="112.52" y1="171.43" x2="101.17" y2="94.49" gradientTransform="translate(-66.22 -24.46) rotate(.15)" xlink:href="#_ÂÁ_Ï_ÌÌ_È_ËÂÌÚ_8"/>
    <linearGradient id="_ÂÁ_Ï_ÌÌ_È_ËÂÌÚ_7" data-name="¡ÂÁ˚ÏˇÌÌ˚È „‡‰ËÂÌÚ 7" x1="287.46" y1="292.03" x2="257.02" y2="151.73" gradientTransform="translate(-66.22 -24.46) rotate(.15)" gradientUnits="userSpaceOnUse">
      <stop offset="0" stop-color="#3b2621"/>
      <stop offset=".38" stop-color="#472e28"/>
      <stop offset="1" stop-color="#593a33"/>
    </linearGradient>
    <linearGradient id="linear-gradient-32" x1="125.59" y1="214.52" x2="135.84" y2="63.72" xlink:href="#linear-gradient-24"/>
    <linearGradient id="_ÂÁ_Ï_ÌÌ_È_ËÂÌÚ_46-2" data-name="¡ÂÁ˚ÏˇÌÌ˚È „‡‰ËÂÌÚ 46" x1="154.62" y1="265.75" x2="111.8" y2="195.2" xlink:href="#_ÂÁ_Ï_ÌÌ_È_ËÂÌÚ_46"/>
  </defs>
  <g id="Layer_1-2" data-name="Layer 1">
    <g style="clip-path: url(#clippath);">
      <g>
        <g>
          <path d="M207.98,190.31s14.66,25.35,2.96,54.31l-2.96-54.31Z" style="fill: url(#_ÂÁ_Ï_ÌÌ_È_ËÂÌÚ_8);"/>
          <path d="M23.53,203.42s-12.7,26.39,1.16,54.38l-1.16-54.38Z" style="fill: url(#_ÂÁ_Ï_ÌÌ_È_ËÂÌÚ_8-2);"/>
          <path d="M105.6,18.73s43.44-4.31,60.26,29.93c16.82,34.24,22.1,91.36,25.2,107.15,3.1,15.79-3.54,65.67-3.54,65.67l-138.65,12.82s-13.01-112.61-10.31-134.36c2.7-21.75,67.03-81.21,67.03-81.21Z" style="fill: url(#_ÂÁ_Ï_ÌÌ_È_ËÂÌÚ_8-3);"/>
        </g>
        <path d="M145.87,152.07s2.56,63.85,8.5,68.3c7.53,5.65,81.88,22.12,86.62,27.53,11.81,13.47,13.3,6.94,16.27,35.16,2.97,28.22-263.41,3.66-263.41,3.66,0,0,7.04-38.03,14.97-41.9,23.11-11.3,63.27-17.65,73.9-21.53,14.89-5.44,12.65-62.3,12.65-62.3l50.5-8.91Z" style="fill: #f7d4ab;"/>
        <path d="M154.41,218.55c-4.02-3.82-4.56-48.38-4.56-48.38,0,0-58.57,3.22-59.48,2.19.05,4.12.4,33.65,0,36.78-.47,3.57.15,14.26-40.03,22.88,0,0,20.42,2.28,43.03,5.16,7.14.91,46.35,3.45,52.83,2,3.87-.87,33.21,5.48,33.21,5.48l3.95-14c-8.56-2.07-24.92-8.29-28.94-12.11Z" style="fill: url(#linear-gradient);"/>
        <path d="M62.42,229.13s-2.95,43.89,53.2,41.12c56.15-2.77,63.75-41.35,63.75-41.35l-18.75-6.53s-4.16,7.7-34.44,7.78c-44.03.13-44.72-8.73-44.72-8.73l-19.04,7.71Z" style="fill: url(#linear-gradient-2);"/>
        <path d="M224.84,338.54c.73-17.64,33.06-81.23,20.35-91.09-4.13-3.21-17.19-9.09-31.56-13.03-19.94-5.48-41.44-10.22-41.44-10.22,0,0-10.08,14.16-52.71,12.66-49.01-1.72-49.17-12.66-49.17-12.66l-39.03,11.45-25.46,9.01c0,1.71,12.06,75.13,16.98,104.95h200.71c.42-5.89.9-10.97,1.32-11.06Z" style="fill: #f5d534;"/>
        <path d="M126.86,227.83s4.16-5.09,9.52-5.58c5.37-.49,42.82,8.92,49.5,11.21,0,0-47.98-9.31-59.02-5.63Z" style="fill: url(#linear-gradient-3);"/>
        <path d="M111.05,229.16s-5-6.58-9.27-6.42c-4.27.16-42.52,10.34-47.98,10.83,0,0,14.58-.31,26.31-2.26,11.72-1.96,20.05-6.5,30.94-2.15Z" style="fill: url(#linear-gradient-4);"/>
        <path d="M70.32,224.2s-5.16,18.37,56.39,16.28c45.63-1.56,45.48-16.28,45.48-16.28l-6.84-2.21s-.82,11.87-39.78,12.74c-50.25,1.11-48.34-12.74-48.34-12.74l-6.91,2.21Z" style="fill: url(#_ÂÁ_Ï_ÌÌ_È_ËÂÌÚ_29);"/>
        <path d="M90.27,209.96s-.71-40.33-1.66-47.64l61.44,6.34.77,27.46s-19.61,22.61-32.43,22.49c-8.49-.08-19.91-3.32-28.11-8.66Z" style="fill: url(#linear-gradient-5);"/>
        <g>
          <path d="M118.39,23.91c-.11-.07-.16-.1-.16-.1.06.03.11.06.16.1Z" style="fill: url(#_ÂÁ_Ï_ÌÌ_È_ËÂÌÚ_14);"/>
          <g>
            <g>
              <path d="M57.72,113.07c2.17,20.08,4.77,35.67,4.77,35.67-8.56-.2-12.24-9.16-15.41-16.8-4.85-11.68-7.58-24.15,4.08-24.54,2.27-.08,6.57,5.67,6.57,5.67Z" style="fill: url(#_ÂÁ_Ï_ÌÌ_È_ËÂÌÚ_18);"/>
              <path d="M55.5,141.55s-4.09-4.53-2.59-13.22c3.54-20.51-10.38-22.24-7.54-8.12,0,0,2.08-6.58,3.8-4.56,2.11,2.48-2.42,3.72-.36,14.4,1.07,5.55,6.69,11.5,6.69,11.5Z" style="fill: url(#linear-gradient-6);"/>
            </g>
            <g>
              <path d="M177.52,115.85c-3.1,19.96-5.66,35.14-5.66,35.14,8.56.2,11.9-8.31,15.42-15.8,5.38-11.44,8.68-23.77-2.94-24.7-2.27-.18-6.82,5.36-6.82,5.36Z" style="fill: url(#_ÂÁ_Ï_ÌÌ_È_ËÂÌÚ_18-2);"/>
              <path d="M178.42,144.4s4.29-4.34,3.19-13.09c-2.59-20.65,11.4-21.74,7.9-7.77,0,0-1.77-6.67-3.59-4.73-2.23,2.38,2.24,3.83-.3,14.4-1.32,5.49-7.21,11.18-7.21,11.18Z" style="fill: url(#linear-gradient-7);"/>
            </g>
            <path d="M171.96,52.26c-7.06-17.22-18.32-28.06-44.2-30.3,0,0-59.38,6.35-67.24,23.23-8.55,18.38-6.83,44.52-4.91,61.64,1.93,17.12,5.93,44.89,10,52.82,4.07,7.93,27.25,36.92,33.37,46.1,3.01,4.52,9,9.3,19.77,9.55,9.57.22,17.61-11.74,21.11-15.83,6.34-7.4,23.32-30.54,27.76-38.27,4.44-7.73,9.78-34.47,12.5-51.48,2.72-17.01-.47-38.69-8.17-57.45Z" style="fill: url(#_ÂÁ_Ï_ÌÌ_È_ËÂÌÚ_384);"/>
            <path d="M91.85,89.96c-8.49-.52-23.68,2.21-28.06,5.33-10.2,7.26-3.34,28.54-3.34,28.54,0,0,19.09,21.74,52.66,9.43-2.33-14-.96-42.05-21.26-43.3Z" style="fill: url(#linear-gradient-8);"/>
            <path d="M92.81,112.57c-7.58-2.46-37.01-9.36-35.82.49,2.62,21.79,5.11,36.78,8.73,43.63,3.79,7.17,15.16,18.59,20.16,19.55,7.74,1.5,16.64-26.91,17.05-36.7.58-13.71-2.54-24.52-10.12-26.97Z" style="fill: url(#radial-gradient);"/>
            <path d="M168.4,99.84c-4.26-3.2-15.75-9.73-24.26-9.86-20.92-.33-20.29,28.36-23.16,42.41,33.08,12.88,53.01-8.73,53.01-8.73,0,0,4.33-16.36-5.58-23.83Z" style="fill: url(#linear-gradient-9);"/>
            <path d="M142.46,90.02s13.76-.98,25.64,6.95c6.33,4.23,3.14,19.71,3.14,19.71.4,2.82-.45-7.5-6.75-14.34-4.27-4.64-12.33-12.78-22.02-12.33Z" style="fill: url(#linear-gradient-10);"/>
            <path d="M141.9,111.68c7.68-2.11,37.4-7.64,35.76,2.15-3.62,21.64-6.81,36.51-10.74,43.18-4.12,6.99-16.01,17.87-21.04,18.6-7.8,1.14-15.38-27.65-15.33-37.45.06-13.72,3.67-24.37,11.35-26.48Z" style="fill: url(#radial-gradient-2);"/>
            <path d="M74.62,123.35c-2.69-.66-5.14.11-5.47,1.73-.34,1.62,1.57,3.47,4.26,4.14,2.69.66,5.14-.11,5.48-1.73.33-1.62-1.58-3.48-4.26-4.14Z" style="fill: url(#_ÂÁ_Ï_ÌÌ_È_ËÂÌÚ_126);"/>
            <path d="M160.58,122.75c2.72-.54,5.13.35,5.38,1.98.26,1.64-1.73,3.39-4.44,3.94-2.72.53-5.13-.35-5.39-1.98-.26-1.64,1.73-3.4,4.45-3.94Z" style="fill: url(#_ÂÁ_Ï_ÌÌ_È_ËÂÌÚ_126-2);"/>
            <path d="M173.54,135.9s4.79-17.92,5.56-21.4c4.53-20.22,10.48-90.32-64.62-87.44-77.23,2.96-54.61,107.2-54.61,107.2,0,0,26.71-91.4,57.96-92.98,0,0,40.08,3.67,55.7,94.62Z" style="fill: url(#_ÂÁ_Ï_ÌÌ_È_ËÂÌÚ_3);"/>
            <polygon points="60.08 134.83 66.58 160.75 66.45 79.68 58.33 87.89 60.08 134.83" style="fill: url(#_ÂÁ_Ï_ÌÌ_È_ËÂÌÚ_72);"/>
            <polygon points="175.15 138.48 169.09 157.7 167.95 82.38 177.84 87.46 175.15 138.48" style="fill: url(#_ÂÁ_Ï_ÌÌ_È_ËÂÌÚ_72-2);"/>
            <path d="M55.87,109.01s4.54,39.63,9.34,50.74c1.56,3.61,11.08,16.72,20.44,27.93,0,0-16.64-26.81-18.32-31.83-3.69-11.01-11.46-46.84-11.46-46.84Z" style="fill: url(#_ÂÁ_Ï_ÌÌ_È_ËÂÌÚ_18-3);"/>
            <path d="M179.83,111.87s-6.37,39.38-11.68,50.25c-1.73,3.54-7.78,12.73-17.6,23.65,0,0,12.05-20.38,15.28-28.3,4.38-10.76,14-45.6,14-45.6Z" style="fill: url(#_ÂÁ_Ï_ÌÌ_È_ËÂÌÚ_23);"/>
            <path d="M98.56,84.02c.98.96,1.85,4.26,1.35,6.07-.29-2.86-1.81-5.91-3.78-6.39-.17-.02-.39-.04-.59-.07,1.41,1.04,2.34,2.74,2.41,4.88-.75-1.52-2.18-4.19-4.22-4.95-5.72-.25-14.29-.52-18.02.62-5.3,1.61-11.47,11.72-11.47,11.72,1.67-1.54,8.17-4.57,13.11-5.43,3.18-.55,19.43.87,23.66.97.56.01,1.09-5.62-2.44-7.41Z" style="fill: url(#_ÂÁ_Ï_ÌÌ_È_ËÂÌÚ_11);"/>
            <path d="M134.35,84.96c-1.02.92-2.01,4.18-1.58,6.02.4-2.84,2.04-5.84,4.03-6.24.18-.02.39-.03.59-.04-1.44.99-2.44,2.64-2.59,4.78.81-1.49,2.34-4.1,4.41-4.78,5.73-.03,14.3.04,17.99,1.32,5.24,1.81,11,12.15,11,12.15-1.61-1.6-7.99-4.88-12.89-5.94-3.16-.68-19.45.11-23.68.04-.56,0-.87-5.66,2.72-7.31Z" style="fill: url(#_ÂÁ_Ï_ÌÌ_È_ËÂÌÚ_11-2);"/>
            <g>
              <g>
                <path d="M149.41,102.3c-17.4.04-18.99,10.68-19.33,18.36,1.32.29,2.7.54,5.29,1.33,3.49,1.07,7.59,2.79,13.5,2.72,4.65-.05,14.65-2.17,14.77-12.17.1-7.91-10.02-9.91-14.23-10.25Z" style="fill: url(#_ÂÁ_Ï_ÌÌ_È_ËÂÌÚ_18-4);"/>
                <path d="M130.86,120.06c3.8.53,6.34,1.83,8.98,2.54-2.06-1.89-3.25-3.6-3.1-6.72.13-2.7,2.19-5.66,3.94-7.29-6.15,3.65-9.81,11.48-9.81,11.48Z" style="fill: url(#_ÂÁ_Ï_ÌÌ_È_ËÂÌÚ_131);"/>
                <path d="M133.26,116.51s-1.32,1.68.94,4.26c0,0-1.55-.47-3.34-.71,0,0,1.58-2.77,2.4-3.55Z" style="fill: url(#_ÂÁ_Ï_ÌÌ_È_ËÂÌÚ_107);"/>
                <path d="M130.86,120.06c1.09-1.06,3.02-3.24,6.04-5.05.37-2.11,1.57-3.98,3.27-5.29-5.63,2.75-9.31,10.34-9.31,10.34Z" style="fill: #ddd;"/>
                <path d="M154.16,116.72c-.16,3.25-1.86,5.28-4.24,6.86,10.16-1.34,13.03-9.41,13.03-9.41-6.29-5.2-10.81-6.82-15.1-7.19,3.83,1.28,6.52,5.24,6.31,9.74Z" style="fill: url(#_ÂÁ_Ï_ÌÌ_È_ËÂÌÚ_131-2);"/>
                <path d="M136.88,114.79c-.07.39-.1.67-.14,1.08-.22,3.02.95,4.91,3.1,6.72.72.35,7.09,1.63,10.99.97,2.49-1.54,4.28-3.5,4.46-6.65.09-1.64-.24-3.21-.92-4.59-4.94-1.69-11.45-1.64-17.49,2.46Z" style="fill: url(#_ÂÁ_Ï_ÌÌ_È_ËÂÌÚ_387);"/>
                <path d="M137.87,115.83c0,4.24,3.65,7.05,8.15,7.04,4.5,0,8.12-2.74,8.11-6.98,0-4.24-3.64-7.7-8.14-7.69-4.5,0-8.13,3.39-8.12,7.63Z" style="fill: url(#_ÂÁ_Ï_ÌÌ_È_ËÂÌÚ_387-2);"/>
                <path d="M150.78,108.9c1.95,1.08,3.44,2.82,4.12,4.91,3.56,1.48,5.91,3.4,5.91,3.4l1.71-3.46c-2.48-3.13-7.22-4.01-11.73-4.84Z" style="fill: #ddd;"/>
                <path d="M150.78,108.9c-2.73-.5-5.56-.53-8.19-.02-.84.16-1.65.45-2.42.83-1.71,1.32-3,3.16-3.33,5.29,2.23-1.33,5.11-2.47,8.63-2.81,3.52-.33,6.85.53,9.48,1.62-.62-2.14-2.22-3.85-4.17-4.93Z" style="fill: url(#_ÂÁ_Ï_ÌÌ_È_ËÂÌÚ_387-3);"/>
                <path d="M146.27,109.47c-3.22-.24-6.01,2.1-6.23,5.21-.23,3.11,2.2,5.82,5.41,6.05,3.22.23,6.01-2.1,6.24-5.21.23-3.11-2.2-5.82-5.42-6.05Z" style="fill: url(#_ÂÁ_Ï_ÌÌ_È_ËÂÌÚ_105);"/>
                <path d="M145.62,113.9c.77-.44,1.77-.16,2.24.62.47.78.23,1.78-.53,2.21-.76.44-1.76.16-2.23-.62-.48-.78-.24-1.77.52-2.21Z" style="fill: #fff;"/>
                <path d="M150.09,116.23c1.05-.62,2.38-.29,2.98.75.61,1.04.25,2.38-.8,3-1.04.63-2.38.29-2.98-.74-.6-1.04-.25-2.38.79-3Z" style="fill: #fff;"/>
                <path d="M166.82,106.43s-1.69,2.67-10.19-.37c-16.36-5.25-25.46,5.2-25.77,14,0,0,4.9-10.57,14.17-11.51,5.65-.57,10.55,2.65,15.43,5.29.07,3.92-5.14,8.72-10.77,9.87,4.82.03,15.54-4.96,16.31-9.04-.3.51-1.32.86-2.63.39,0,0,4.6-1.85,3.45-8.62Z" style="fill: url(#_ÂÁ_Ï_ÌÌ_È_ËÂÌÚ_1655);"/>
                <path d="M141.06,103.14c-5.67,1.95-8.12,6.06-8.12,6.06,0,0,2.55-3.37,8.63-5.2,6.32-1.9,15.05-.09,15.05-.09-3.84-1.8-9.89-2.73-15.56-.78Z" style="fill: url(#_ÂÁ_Ï_ÌÌ_È_ËÂÌÚ_18-5);"/>
                <path d="M140.3,113.37s3.88-2.27,10.79-.77c0,0-1.4-3.51-6.05-3.15-3.81.3-4.73,3.92-4.73,3.92Z" style="fill: #0f0f0f;"/>
                <path d="M144.22,107.2c-10.51,2.4-13.36,12.86-13.36,12.86,0,0,4.52-9.76,14.17-11.51,5.49-.99,13.1,4.01,15.43,5.29,0,0-7.31-8.68-16.24-6.64Z" style="fill: url(#_ÂÁ_Ï_ÌÌ_È_ËÂÌÚ_44);"/>
              </g>
              <g>
                <path d="M85.11,102.44c17.4-.04,19.04,10.6,19.42,18.27-1.31.3-2.7.55-5.29,1.36-3.49,1.09-7.58,2.83-13.48,2.78-4.65-.03-14.66-2.11-14.83-12.1-.13-7.91,9.98-9.95,14.18-10.31Z" style="fill: url(#_ÂÁ_Ï_ÌÌ_È_ËÂÌÚ_18-6);"/>
                <path d="M103.74,120.12c-3.8.55-6.33,1.86-8.97,2.58,2.05-1.9,3.23-3.61,3.07-6.74-.15-2.7-2.21-5.65-3.97-7.27,6.17,3.63,9.87,11.43,9.87,11.43Z" style="fill: url(#_ÂÁ_Ï_ÌÌ_È_ËÂÌÚ_131-3);"/>
                <path d="M101.33,116.58s1.32,1.68-.93,4.27c0,0,1.54-.48,3.34-.73,0,0-1.59-2.77-2.41-3.54Z" style="fill: url(#_ÂÁ_Ï_ÌÌ_È_ËÂÌÚ_107-2);"/>
                <path d="M103.74,120.12c-1.09-1.06-3.03-3.22-6.06-5.02-.38-2.11-1.58-3.97-3.29-5.28,7.12,4.03,9.35,10.3,9.35,10.3Z" style="fill: #ddd;"/>
                <path d="M80.43,116.88c.17,3.25,1.89,5.28,4.27,6.85-10.17-1.3-13.07-9.36-13.07-9.36,6.27-5.23,10.78-6.86,15.07-7.26-3.82,1.3-6.5,5.27-6.26,9.77Z" style="fill: url(#_ÂÁ_Ï_ÌÌ_È_ËÂÌÚ_131-4);"/>
                <path d="M97.7,114.87c.07.39.11.67.14,1.08.23,3.02-.93,4.91-3.07,6.74-.72.35-7.09,1.66-10.99,1.02-2.49-1.53-4.3-3.48-4.49-6.63-.1-1.64.23-3.21.9-4.59,4.94-1.72,11.45-1.69,17.5,2.38Z" style="fill: url(#_ÂÁ_Ï_ÌÌ_È_ËÂÌÚ_387-4);"/>
                <path d="M96.71,115.92c0,4.24-3.62,7.07-8.12,7.08-4.5,0-8.13-2.71-8.14-6.95,0-4.24,3.61-7.72,8.11-7.73,4.5,0,8.14,3.35,8.15,7.6Z" style="fill: url(#_ÂÁ_Ï_ÌÌ_È_ËÂÌÚ_387-5);"/>
                <path d="M83.78,109.05c-1.95,1.09-3.43,2.83-4.1,4.92-3.56,1.49-5.89,3.42-5.89,3.42l-1.72-3.46c2.47-3.15,7.2-4.04,11.71-4.89Z" style="fill: #ddd;"/>
                <path d="M84.31,108.83c2.73-.51,5.03-.34,7.66.16.84.16,1.65.45,2.42.82,1.71,1.31,3.01,3.14,3.35,5.28-2.24-1.32-5.12-2.45-8.64-2.77-3.52-.32-6.85.56-9.47,1.66.39-1.78,2.14-4.4,4.68-5.16Z" style="fill: url(#_ÂÁ_Ï_ÌÌ_È_ËÂÌÚ_387-6);"/>
                <path d="M88.28,109.59c3.22-.25,6.02,2.07,6.25,5.18.25,3.11-2.17,5.83-5.39,6.08-3.22.25-6.02-2.08-6.26-5.18-.24-3.11,2.18-5.83,5.39-6.07Z" style="fill: url(#_ÂÁ_Ï_ÌÌ_È_ËÂÌÚ_105-2);"/>
                <path d="M90.18,114.02c-.77-.44-1.77-.15-2.24.63-.47.78-.23,1.78.54,2.21.76.44,1.76.15,2.23-.63.47-.78.23-1.77-.53-2.21Z" style="fill: #fff;"/>
                <path d="M95.43,116.35c-1.05-.61-2.38-.28-2.98.76-.6,1.04-.24,2.38.81,2.99,1.05.62,2.38.28,2.98-.76.6-1.04.24-2.38-.81-3Z" style="fill: #fff;"/>
                <path d="M67.72,106.65s1.7,2.66,10.18-.42c16.34-5.32,25.48,5.09,25.83,13.88,0,0-4.01-11.45-14.22-12.34-9.06-.8-14.27,5.26-15.41,6.26-.05,3.92,5.18,8.7,10.82,9.82-4.82.05-15.56-4.89-16.35-8.97.3.51,1.33.86,2.63.38,0,0-4.61-1.83-3.48-8.61Z" style="fill: url(#_ÂÁ_Ï_ÌÌ_È_ËÂÌÚ_1655-2);"/>
                <path d="M93.46,103.24c5.68,1.93,8.14,6.03,8.14,6.03,0,0-2.57-3.36-8.65-5.16-6.32-1.88-15.05-.02-15.05-.02,3.84-1.81,9.88-2.77,15.56-.84Z" style="fill: url(#_ÂÁ_Ï_ÌÌ_È_ËÂÌÚ_18-7);"/>
                <path d="M94.28,113.47s-3.89-2.29-10.79-.75c0,0,1.33-3.49,5.98-3.15,3.81.28,4.81,3.9,4.81,3.9Z" style="fill: #0f0f0f;"/>
                <path d="M90.15,107.53c10.64,1.77,13.59,12.59,13.59,12.59,0,0-3.91-9.53-13.57-11.23-5.49-.97-12.93,1.99-16.06,5.14,0,0,6.46-8.09,16.04-6.5Z" style="fill: url(#_ÂÁ_Ï_ÌÌ_È_ËÂÌÚ_44-2);"/>
              </g>
            </g>
            <g>
              <g>
                <polygon points="105.81 146.8 117.21 154.98 128.22 147.03 126.7 145.7 116.81 145.62 106.95 145.42 105.81 146.8" style="fill: url(#linear-gradient-11);"/>
                <path d="M106.16,146.6s4.41-1.27,8.21.43l4.7.1s4.7-1.7,9.15-.1l.24-2.13-3.73-.83-7.93,1.83-7.17-2.14-3.77.36.3,2.48Z" style="fill: url(#linear-gradient-12);"/>
                <path d="M104.84,137.41s-2.06,1.09-2.43,4.18c-.42,3.54,3.2,5.54,3.77,5.19.57-.35-.4-3.05,2.97-2.51,3.37.54,3.16,2.25,3.7,2.84.54.59,6.49.85,7.51.24s.79-2.94,3.99-2.77c3.2.17,3.24,2.35,3.7,2.64.45.29,2.38-1.37,3-4.61.62-3.24-2.78-4.73-2.78-4.73,0,0,1.67,2.92.9,4.75-.77,1.83-5.66.14-7.7,1.36-3.76,2.25-6,1.63-9.65-.2-2.4-1.2-5.84.17-7.16-1.85-.46-.7-.53-3.18.19-4.54Z" style="fill: #f0c499;"/>
                <path d="M109.38,135.9c-.11,2.26.14,3.22,1.07,4.72,1.42,2.28,11.71,4.33,13.59-.79.37-1.02.39-2.63.25-4.67-.16-2.32-14.8-1.52-14.91.74Z" style="fill: url(#_ÂÁ_Ï_ÌÌ_È_ËÂÌÚ_23-2);"/>
              </g>
              <path d="M87.58,190.23s9.99,12.59,14.42,17.17c3.33,3.44,7.07,5.83,14.82,6.24,7.56.41,11.7-3.02,13.86-4.4,2.26-1.45,16.48-19.41,17.58-20.42,0,0-11.91,18.19-15.17,21.25-5.85,5.5-12.08,7.81-16.22,7.73-5.21-.11-10.9-4.23-13.62-6.72-5.9-5.41-15.68-20.84-15.68-20.84Z" style="fill: url(#linear-gradient-13);"/>
              <path d="M117.62,197.69c-5.34.14-9.67,1.97-9.68,4.08-.02,2.12,4.28,3.73,9.61,3.59,5.33-.14,9.65-1.97,9.67-4.09.01-2.12-4.3-3.73-9.61-3.58Z" style="fill: url(#linear-gradient-14);"/>
              <g>
                <path d="M95.24,162.16s11.44-9.47,14.64-9.91c3.2-.45,12.1-.62,13.93,0,1.83.61,9.18,3.84,15.6,11.18l-22.36-4.96-21.82,3.7Z" style="fill: url(#_ÂÁ_Ï_ÌÌ_È_ËÂÌÚ_101);"/>
                <g>
                  <path d="M141.25,163.13s-2.4,6.26-3.12,7.54c-.72,1.28-7.73,18.29-11.09,22.03-3.42,3.81-12.96,4.98-17.97.74-4.46-3.77-7.18-10.22-8.15-12.4-.52-1.17-4.29-13.56-7.56-18.48,10.53-.22,47.89.57,47.89.57Z" style="fill: url(#linear-gradient-15);"/>
                  <path d="M91.39,161.24c.32-1.37,6.03.98,7.63,3.47-2.25-1.34-8.19-1.09-7.63-3.47Z" style="fill: url(#linear-gradient-16);"/>
                  <path d="M143.63,162.8c-.21-1.39-6.11.5-7.91,2.85,2.35-1.15,8.28-.43,7.91-2.85Z" style="fill: url(#linear-gradient-17);"/>
                  <g>
                    <path d="M94.91,162.24c.84-.8,7.38-3.11,9.89-4.28,3.04-1.42,11.14-2.47,16.48-1.5,5.34.98,14.56,3.6,18.43,7.01-.83,2.28-9.43,21-14.55,22.2-5.11,1.19-16.53.33-17.44-1.1-.91-1.43-10.34-17.23-12.81-22.33Z" style="fill: #951c27;"/>
                    <path d="M103,177.32s-1.26-4.92,5.29-7.07c4.43-1.46,15.21-.77,20.27.64,4.48,1.25,5.14,6.11,3.84,7.39-1.3,1.28-7.24,7.58-13.36,7.78-6.12.2-11.98-.77-16.04-8.74Z" style="fill: url(#linear-gradient-18);"/>
                    <path d="M102.25,159.99s1.4-3.35,16.05-2.38c14.64.97,15.89,3.4,15.89,3.4,0,0,1.11,4.24-3.43,4.46-1.79.09-7.84-.41-12.83-.61-5.73-.23-12.69-.24-13.24-.4-3.03-.87-2.44-4.47-2.44-4.47Z" style="fill: url(#linear-gradient-19);"/>
                    <path d="M132.18,173.6s.97,1.44,1.13,3.53c.12,1.54-5.83,6.76-7.42,7.51-1.59.75-14.34,3.03-17.07,0-2.74-3.03-5.69-7.07-5.69-7.07,0,0-1.01-1.99.86-4.5,0,0,4.41,10.59,12.98,10.76,8.74.18,12.64-6.55,15.22-10.23Z" style="fill: url(#linear-gradient-20);"/>
                    <path d="M94.51,162.16s1.35,2.57,2.42,5.43c1.3,3.45,6.03,14.5,8.96,19.34,3.51,5.8,16.9,8.52,22.28,1.13.67-.92,4.93-7.21,9.28-18.28.75-1.92,2.18-5.11,2.96-6.33.04-.06-1.37.14-3.71,4.34-2.67,4.8-7.06,12.94-10.06,14.91-6.38,4.19-15.15,1.63-16.82,1-2.57-.97-7.84-9.08-10.79-15.06-2.13-4.32-4.53-6.48-4.53-6.48Z" style="fill: #f86d78;"/>
                    <path d="M101.36,174.99c.61.73,2.6,4.95,6.69,8.2,2.56,2.04,8.09,3.13,12.57,2.41,7.17-1.15,10.84-6.08,12.84-9.83,1.47-2.77-3.87,13.01-10.02,14.64-5.05,1.34-10.61,1.11-14.05-1.21-4.27-2.88-9.08-15.47-8.03-14.21Z" style="fill: url(#linear-gradient-21);"/>
                    <path d="M102.28,158.23s-.32,2.24.01,3.48c.33-.02,11.93-.64,16.44-.31,4.51.32,13.93,1.4,15.39,1.95,0,0,.33-.74.18-2.24,0,0-10.52-4.34-15.98-4.2-5.46.14-16.05,1.33-16.05,1.33Z" style="fill: url(#linear-gradient-22);"/>
                    <path d="M95.22,162.02s8.72-4.52,11.39-5.78c4.99-2.35,16.23-2.88,22.17.27,4.22,2.24,9.56,5.73,10.7,6.77-4.47-.59-8.37-4.61-22.29-4.29-17.05.39-17.17,2.76-21.97,3.03Z" style="fill: #f86d78;"/>
                    <path d="M109.1,156c4.86-1.46,13.14-1.48,16.91.27,3.04,1.41,6.75,4.06,4.4,3.37-4.18-1.23-8.18-1.54-12.98-1.5-5.72.04-9.5.24-13.46.94-1.39.24,2.89-2.41,5.13-3.08Z" style="fill: url(#linear-gradient-23);"/>
                    <path d="M94.04,162.91c.83.27,1.37-.4,4.64.37,0,0-5.67-2.17-6.01-1.97-.23.14.13,1.19,1.36,1.59Z" style="fill: #951c27;"/>
                    <path d="M141.01,164.18c-.85.2-1.59-.56-4.55.04,0,0,5.68-1.9,6.04-1.52.19.2-.23,1.18-1.49,1.47Z" style="fill: #951c27;"/>
                    <path d="M118.01,188.37c.58-.42,6.99-2.56,8.01-2.71,1.25-.19,1.18,2.61-2.81,3.67-3.98,1.06-6.9.26-5.2-.96Z" style="fill: #ff9aa2;"/>
                  </g>
                </g>
              </g>
            </g>
          </g>
          <path d="M176.58,142.6s-12.7,37.49-18.37,49.89c-5.66,12.41-.44,54.51-.44,54.51,0,0,31.42-59.44,27.96-86.5-3.46-27.06-9.15-17.91-9.15-17.91Z" style="fill: url(#_ÂÁ_Ï_ÌÌ_È_ËÂÌÚ_8-4);"/>
          <path d="M200.73,223.48s4.02,16.78,14.37,25.68c0,0-12.77-2.49-15.75-10.01-2.98-7.52,1.39-15.67,1.39-15.67Z" style="fill: url(#_ÂÁ_Ï_ÌÌ_È_ËÂÌÚ_8-5);"/>
          <path d="M36.92,219.83s-4.11,16.76-14.5,25.6c0,0,12.79-2.42,15.8-9.93,3.02-7.51-1.31-15.67-1.31-15.67Z" style="fill: url(#_ÂÁ_Ï_ÌÌ_È_ËÂÌÚ_8-6);"/>
          <path d="M87.71,218.81c-1.95-25.79-13.58-44.69-19.27-52.13-9.33-12.2-10.11-39.75-10.11-39.75,0,0-5.82,44.56-8.15,60.53-3.6,24.63,6.96,58.07,18.11,65.39,7.39-12.83,8.33-27.63,5.85-46.01,9.79,19.59,1.92,38.13-.13,50.02,7.57-8.4,14.52-27.05,13.69-38.04Z" style="fill: url(#_ÂÁ_Ï_ÌÌ_È_ËÂÌÚ_8-7);"/>
          <path d="M176.42,112.51c2.32,12.78,4.33,30.37,4.3,44.23-.07,34.85-17.69,98.18-35.5,101.04,5.59-.74,20.73-1.85,32.75-18.76.74,6.23-6.6,10.76-12.21,15.46,11.33-6.05,16.64-11.44,16.64-11.44-2.84,5.12-4.69,9.17-14.02,16,5.74-.9,22.89-11.86,30.96-22.74,5-11.49,9.72-22.72,12.38-35.89-1.92-19.57-7.83-38.2-18.24-56.83-5.44-8.76-12.3-21.51-17.07-31.07Z" style="fill: url(#_ÂÁ_Ï_ÌÌ_È_ËÂÌÚ_46);"/>
          <path d="M203.91,153.43c-.51-5.13-13.53-86.47-20.07-100.16C158.33-.11,118.38,17.79,118.38,17.79l-2.65,20.6c29.65-5.47,52.82,30.6,61.45,78.1,4.76,9.56,10.86,18.33,16.31,27.09,10.42,18.63,12.39,25.55,10.42,9.85Z" style="fill: url(#_ÂÁ_Ï_ÌÌ_È_ËÂÌÚ_8-8);"/>
          <path d="M65.1,24.65c-19.35,16.88-24.92,36.21-27.22,49.31-1.36,7.75-8.46,55.88-12.1,88.83,8.18-17.21,17.87-22.14,30.38-35.84.55-.82,1.05-1.66,1.52-2.51,1.43-28.59,6.79-52.47,23.4-68.61,20.89-20.29,34.65-17.45,34.65-17.45l2.65-20.6c-9.97-8.09-41.66-3.27-53.28,6.85Z" style="fill: url(#_ÂÁ_Ï_ÌÌ_È_ËÂÌÚ_8-9);"/>
          <path d="M25.78,162.79c-13.33,27.4-8,55.9-.61,65.89,6.15,7.25,17.03,18.71,25.25,24.01-3.22-4.17-8.55-14.07-7.83-20.1,5.46,18.45,28.57,23.42,31.43,24.26-18.9-11.41-24.13-32.25-24.7-59.14-.4-18.8,7.56-56.97,8.37-73.26-.47.84-.97,1.68-1.52,2.51-12.51,13.69-22.21,18.63-30.38,35.84Z" style="fill: url(#_ÂÁ_Ï_ÌÌ_È_ËÂÌÚ_55);"/>
          <path d="M115.77,38.4s26.06-11.88,42.52,9.27c16.46,21.14,15.96,66.03,25.33,90.23,9.37,24.21,23.74,59.3,17.56,79-6.18,19.69-23.45,35.32-23.45,35.32,0,0,20.12-25.23,16.88-49.16-3.24-23.94-18.9-47.76-22.54-73.76-3.64-26-7.66-63.85-25.72-80.4-16.03-14.69-30.58-10.49-30.58-10.49Z" style="fill: url(#linear-gradient-24);"/>
          <path d="M118.23,23.81s-38.26-6.78-53.92,26.97c-15.66,33.75-30.24,73.83-30.24,73.83,0,0,21.14-76.46,24.3-83.43,4.6-10.15,29.22-38.48,59.86-17.37Z" style="fill: url(#_ÂÁ_Ï_ÌÌ_È_ËÂÌÚ_8-10);"/>
          <path d="M120.53,22.26s22.13-6.22,45.98,19.1c13.08,13.89,18.38,87.95,18.38,87.95,0,0,1.93-58.94-3.81-78.7-5.74-19.77-36.35-48.77-60.56-28.35Z" style="fill: url(#_ÂÁ_Ï_ÌÌ_È_ËÂÌÚ_8-11);"/>
          <path d="M49.46,141.35s-19.01,32.96-21.37,54.75c-2.36,21.79-10.26,40.79-21.34,43.02,0,0,14.78-2.9,21.26-11.36s11.71-66.57,21.45-86.4Z" style="fill: url(#_ÂÁ_Ï_ÌÌ_È_ËÂÌÚ_10);"/>
          <path d="M68.01,85.65s-10.03,28.54-15.56,63.99c-4.49,28.83-9.53,41.16-7.69,59.59,2.02,20.26,8.51,41.19,29.26,47.62,0,0-16.17-8.09-21.2-47.6-1.75-13.79,2.58-36.82,6.06-59.59,4.98-32.56,9.13-64,9.13-64Z" style="fill: url(#linear-gradient-25);"/>
          <path d="M176.38,176.74s6.94,75.36-31.16,81.04c0,0,23.55-9.69,31.16-81.04Z" style="fill: url(#linear-gradient-26);"/>
          <path d="M166.19,166.05s-7.43,15.35-13.71,28.21c-6.28,12.86-.11,42.59-.11,42.59,0,0-.55-21.25,4.74-34.24,5.29-12.99,9.08-36.56,9.08-36.56Z" style="fill: url(#linear-gradient-27);"/>
          <path d="M70.38,168.65s12.19,14.57,17.68,33.61c5.49,19.03-4.28,47.71-4.28,47.71,0,0,3.61-34.27.13-50.14-3.48-15.87-13.53-31.17-13.53-31.17Z" style="fill: url(#linear-gradient-28);"/>
          <path d="M40.86,208.6s-3.73,30.97,11.33,46.23c0,0-28.07-9.05-11.33-46.23Z" style="fill: url(#linear-gradient-29);"/>
          <path d="M184.69,215.37s5.91,28.24-19.89,39.56c0,0,21.32-18.33,19.89-39.56Z" style="fill: url(#linear-gradient-30);"/>
          <path d="M118.37,23.2s17.77-11.95,48.13,5.19c0,0-18.85-21.82-45.57-14.62,0,0-26.9-15.99-54.18,9.59,0,0,7.82-6.15,21.37-7.75,11.29-1.34,28.5,1.04,30.25,7.59Z" style="fill: url(#linear-gradient-31);"/>
          <path d="M164.86,86.54s.54-25.81-12.56-38.32c-13.1-12.51-25.66-13.24-36.54-9.83,0,0,15.34-2.47,24.48,6.3,12.16,11.68,18.34,21.06,24.61,41.84Z" style="fill: url(#_ÂÁ_Ï_ÌÌ_È_ËÂÌÚ_8-12);"/>
          <path d="M115.77,38.4s-9.77-2.63-17.14-.26c-14.26,4.57-22.36,22.74-26.19,45.83,0,0,4.93-27.47,24.72-38.77,10.68-6.1,18.61-6.8,18.61-6.8Z" style="fill: url(#_ÂÁ_Ï_ÌÌ_È_ËÂÌÚ_8-13);"/>
          <path d="M120.52,23.91s34.82-16.56,51.58,25.29c12.24,30.57,10.05,61.56,10.05,61.56,0,0-1.77-50.93-28.63-77.3-15.26-14.98-32.99-9.55-32.99-9.55Z" style="fill: url(#_ÂÁ_Ï_ÌÌ_È_ËÂÌÚ_8-14);"/>
          <path d="M118.23,23.81s-12.2-5.36-28,.02c-12.31,4.2-22.11,15.84-27.64,29.24-3.62,8.78-13.94,32.29-21.49,52.96,0,0,20.38-27.21,27.62-50.29,5.24-16.71,24.66-36.01,49.51-31.93Z" style="fill: url(#_ÂÁ_Ï_ÌÌ_È_ËÂÌÚ_8-15);"/>
          <path d="M186.22,76.81s-1.86,49.08,23.1,102.31l-23.1-102.31Z" style="fill: url(#_ÂÁ_Ï_ÌÌ_È_ËÂÌÚ_8-16);"/>
          <path d="M58.26,82.83l-32.56,75.46s30.82-25.16,32.56-75.46Z" style="fill: url(#_ÂÁ_Ï_ÌÌ_È_ËÂÌÚ_8-17);"/>
          <path d="M188.01,129.78s15.56,22.14,22.64,43c7.77,22.88,6.14,42.04-8.43,63.2,0,0,8.34-26.33-.5-66.99-3.54-16.31-13.71-39.21-13.71-39.21Z" style="fill: url(#_ÂÁ_Ï_ÌÌ_È_ËÂÌÚ_7);"/>
          <path d="M115.77,38.4s-22.34-12.8-38.73,11.11c-13.71,20.01-14.2,53.26-34.79,83.5-8.53,12.53-29.19,33.07-29.72,59.11,0,0,2.47-12.76,23.29-36.53,20.82-23.77,32.82-52.43,38.35-78.2,7.74-36.04,25.69-41.28,41.6-39Z" style="fill: url(#linear-gradient-32);"/>
          <path d="M64.49,165.79s20.2,50.81,5.46,83.89c0,0-2.78-67.44-5.46-83.89Z" style="fill: url(#_ÂÁ_Ï_ÌÌ_È_ËÂÌÚ_46-2);"/>
        </g>
      </g>
    </g>
  </g>
</svg>