<?xml version="1.0" encoding="UTF-8"?>
<svg id="Layer_2" data-name="Layer 2" xmlns="http://www.w3.org/2000/svg" xmlns:xlink="http://www.w3.org/1999/xlink" viewBox="0 0 302.32 298.58">
  <defs>
    <style>
      .cls-1 {
        fill: url(#Gradient_58);
      }

      .cls-2 {
        fill: url(#Gradient_32);
      }

      .cls-3 {
        fill: url(#Gradient_96);
      }

      .cls-4 {
        fill: url(#Gradient_27);
      }

      .cls-5 {
        fill: url(#Gradient_25);
      }

      .cls-6 {
        fill: #fed8b3;
      }

      .cls-7 {
        fill: url(#Gradient_113);
      }

      .cls-8 {
        fill: url(#Gradient_115);
      }

      .cls-9 {
        fill: url(#radial-gradient-2);
      }

      .cls-10 {
        fill: url(#linear-gradient-8);
      }

      .cls-11 {
        fill: url(#linear-gradient-7);
      }

      .cls-12 {
        fill: url(#linear-gradient-5);
      }

      .cls-13 {
        fill: url(#linear-gradient-6);
      }

      .cls-14 {
        fill: url(#linear-gradient-9);
      }

      .cls-15 {
        fill: url(#linear-gradient-4);
      }

      .cls-16 {
        fill: url(#linear-gradient-3);
      }

      .cls-17 {
        fill: url(#linear-gradient-2);
      }

      .cls-18 {
        fill: url(#radial-gradient);
      }

      .cls-19 {
        fill: url(#linear-gradient);
      }

      .cls-20 {
        fill: #ddd;
      }

      .cls-21 {
        fill: #192b51;
      }

      .cls-22 {
        fill: #fff;
      }

      .cls-23 {
        fill: #f0c499;
      }

      .cls-24 {
        fill: #711e22;
      }

      .cls-25 {
        fill: url(#Gradient_115-4);
      }

      .cls-26 {
        fill: url(#Gradient_115-5);
      }

      .cls-27 {
        fill: url(#Gradient_115-6);
      }

      .cls-28 {
        fill: url(#Gradient_115-3);
      }

      .cls-29 {
        fill: url(#Gradient_115-2);
      }

      .cls-30 {
        fill: url(#linear-gradient-43);
      }

      .cls-31 {
        fill: url(#linear-gradient-40);
      }

      .cls-32 {
        fill: url(#linear-gradient-41);
      }

      .cls-33 {
        fill: url(#linear-gradient-42);
      }

      .cls-34 {
        fill: url(#linear-gradient-49);
      }

      .cls-35 {
        fill: url(#linear-gradient-48);
      }

      .cls-36 {
        fill: url(#linear-gradient-45);
      }

      .cls-37 {
        fill: url(#linear-gradient-47);
      }

      .cls-38 {
        fill: url(#linear-gradient-44);
      }

      .cls-39 {
        fill: url(#linear-gradient-46);
      }

      .cls-40 {
        fill: url(#linear-gradient-10);
      }

      .cls-41 {
        fill: url(#linear-gradient-11);
      }

      .cls-42 {
        fill: url(#linear-gradient-12);
      }

      .cls-43 {
        fill: url(#linear-gradient-13);
      }

      .cls-44 {
        fill: url(#linear-gradient-19);
      }

      .cls-45 {
        fill: url(#linear-gradient-14);
      }

      .cls-46 {
        fill: url(#linear-gradient-21);
      }

      .cls-47 {
        fill: url(#linear-gradient-20);
      }

      .cls-48 {
        fill: url(#linear-gradient-22);
      }

      .cls-49 {
        fill: url(#linear-gradient-23);
      }

      .cls-50 {
        fill: url(#linear-gradient-28);
      }

      .cls-51 {
        fill: url(#linear-gradient-25);
      }

      .cls-52 {
        fill: url(#linear-gradient-32);
      }

      .cls-53 {
        fill: url(#linear-gradient-31);
      }

      .cls-54 {
        fill: url(#linear-gradient-33);
      }

      .cls-55 {
        fill: url(#linear-gradient-30);
      }

      .cls-56 {
        fill: url(#linear-gradient-15);
      }

      .cls-57 {
        fill: url(#linear-gradient-16);
      }

      .cls-58 {
        fill: url(#linear-gradient-17);
      }

      .cls-59 {
        fill: url(#linear-gradient-18);
      }

      .cls-60 {
        fill: url(#linear-gradient-35);
      }

      .cls-61 {
        fill: url(#linear-gradient-34);
      }

      .cls-62 {
        fill: url(#linear-gradient-36);
      }

      .cls-63 {
        fill: url(#linear-gradient-38);
      }

      .cls-64 {
        fill: url(#linear-gradient-27);
      }

      .cls-65 {
        fill: url(#linear-gradient-24);
      }

      .cls-66 {
        fill: url(#linear-gradient-26);
      }

      .cls-67 {
        fill: url(#linear-gradient-29);
      }

      .cls-68 {
        fill: url(#linear-gradient-37);
      }

      .cls-69 {
        fill: url(#linear-gradient-39);
      }

      .cls-70 {
        fill: url(#linear-gradient-53);
      }

      .cls-71 {
        fill: url(#linear-gradient-54);
      }

      .cls-72 {
        fill: url(#linear-gradient-50);
      }

      .cls-73 {
        fill: url(#linear-gradient-51);
      }

      .cls-74 {
        fill: url(#linear-gradient-52);
      }

      .cls-75 {
        fill: url(#Gradient_32-2);
      }

      .cls-76 {
        fill: url(#Gradient_58-3);
      }

      .cls-77 {
        fill: url(#Gradient_58-2);
      }

      .cls-78 {
        fill: url(#Gradient_25-2);
      }

      .cls-79 {
        fill: url(#Gradient_96-2);
      }

      .cls-80 {
        fill: url(#Gradient_96-3);
      }

      .cls-81 {
        fill: url(#Gradient_96-4);
      }

      .cls-82 {
        fill: url(#Gradient_27-9);
      }

      .cls-83 {
        fill: url(#Gradient_27-2);
      }

      .cls-84 {
        fill: url(#Gradient_27-4);
      }

      .cls-85 {
        fill: url(#Gradient_27-3);
      }

      .cls-86 {
        fill: url(#Gradient_27-6);
      }

      .cls-87 {
        fill: url(#Gradient_27-5);
      }

      .cls-88 {
        fill: url(#Gradient_27-8);
      }

      .cls-89 {
        fill: url(#Gradient_27-7);
      }

      .cls-90 {
        fill: #dca57b;
      }
    </style>
    <linearGradient id="linear-gradient" x1="100.51" y1="101.41" x2="194.15" y2="243.29" gradientUnits="userSpaceOnUse">
      <stop offset="0" stop-color="#0b173d"/>
      <stop offset=".5" stop-color="#0c193f"/>
      <stop offset=".82" stop-color="#132248"/>
      <stop offset="1" stop-color="#192b51"/>
    </linearGradient>
    <linearGradient id="linear-gradient-2" x1="177.22" y1="161.57" x2="192.79" y2="165.94" gradientUnits="userSpaceOnUse">
      <stop offset="0" stop-color="#f0c499"/>
      <stop offset=".52" stop-color="#f4cfa5"/>
      <stop offset="1" stop-color="#f7d4ab"/>
    </linearGradient>
    <linearGradient id="linear-gradient-3" x1="126.94" y1="167.72" x2="192.16" y2="186.03" xlink:href="#linear-gradient-2"/>
    <linearGradient id="linear-gradient-4" x1="148.99" y1="204.61" x2="117.89" y2="162.94" gradientUnits="userSpaceOnUse">
      <stop offset="0" stop-color="#f0c499"/>
      <stop offset=".51" stop-color="#e3b086"/>
      <stop offset="1" stop-color="#dba379"/>
    </linearGradient>
    <linearGradient id="linear-gradient-5" x1="191.1" y1="166.59" x2="123.92" y2="141.26" xlink:href="#linear-gradient-4"/>
    <linearGradient id="linear-gradient-6" x1="44.72" y1="192.33" x2="35.69" y2="295.54" gradientUnits="userSpaceOnUse">
      <stop offset="0" stop-color="#2b416b"/>
      <stop offset=".46" stop-color="#293e68"/>
      <stop offset=".75" stop-color="#23375f"/>
      <stop offset="1" stop-color="#192b51"/>
    </linearGradient>
    <linearGradient id="linear-gradient-7" x1="273.55" y1="210.2" x2="274.68" y2="347.58" xlink:href="#linear-gradient-6"/>
    <linearGradient id="linear-gradient-8" x1="124.54" y1="-262.25" x2="123.62" y2="-213.04" gradientTransform="translate(11.75 287.18) rotate(3.42) scale(1 .96)" gradientUnits="userSpaceOnUse">
      <stop offset="0" stop-color="#ffd9b3"/>
      <stop offset=".28" stop-color="#fbd6af"/>
      <stop offset="1" stop-color="#f7d4ab"/>
    </linearGradient>
    <linearGradient id="linear-gradient-9" x1="596.83" y1="575.82" x2="607.03" y2="600.59" gradientTransform="translate(798.98 -599.98) rotate(177.48) scale(.99 -1.14) skewX(3.14)" gradientUnits="userSpaceOnUse">
      <stop offset="0" stop-color="#dba379"/>
      <stop offset=".49" stop-color="#e3b086"/>
      <stop offset="1" stop-color="#f0c499"/>
    </linearGradient>
    <linearGradient id="linear-gradient-10" x1="1067.5" y1="560.41" x2="1077.56" y2="584.83" gradientTransform="translate(-972.22 -592.85) rotate(2) scale(.99 1.14) skewX(3.13)" xlink:href="#linear-gradient-9"/>
    <linearGradient id="linear-gradient-11" x1="135.71" y1="-213.52" x2="154.46" y2="-195.82" gradientTransform="translate(11.77 277.3) rotate(3.42)" xlink:href="#linear-gradient-2"/>
    <linearGradient id="linear-gradient-12" x1="105.79" y1="-209.65" x2="101.31" y2="-190.68" gradientTransform="translate(11.77 277.3) rotate(3.42)" xlink:href="#linear-gradient-2"/>
    <radialGradient id="radial-gradient" cx="431.73" cy="-1.86" fx="431.73" fy="-1.86" r="23.16" gradientTransform="translate(619.98 86.12) rotate(177.65) scale(1.02 -.71) skewX(-1.54)" gradientUnits="userSpaceOnUse">
      <stop offset="0" stop-color="#f8c39c"/>
      <stop offset="1" stop-color="#f7d4ab"/>
    </radialGradient>
    <radialGradient id="radial-gradient-2" cx="146.83" cy="-31.56" fx="146.83" fy="-31.56" r="23.75" gradientTransform="translate(-24.33 134.35) rotate(-3.81) scale(1.02 .69) skewX(2.86)" xlink:href="#radial-gradient"/>
    <linearGradient id="linear-gradient-13" x1="239.48" y1="150.44" x2="225.24" y2="155.35" gradientTransform="translate(-50.52 -54.68) rotate(-.26)" gradientUnits="userSpaceOnUse">
      <stop offset="0" stop-color="#fbd6af"/>
      <stop offset="1" stop-color="#f7d4ab"/>
    </linearGradient>
    <linearGradient id="linear-gradient-14" x1="175.26" y1="155.36" x2="154.12" y2="150.2" xlink:href="#linear-gradient-13"/>
    <linearGradient id="Gradient_58" data-name="Gradient 58" x1="-1475.14" y1="-46.63" x2="-1448.51" y2="-46.63" gradientTransform="translate(-1320.91 296.92) rotate(172.96) scale(1 -1)" gradientUnits="userSpaceOnUse">
      <stop offset="0" stop-color="#2b1b13"/>
      <stop offset=".04" stop-color="#2e1d14"/>
      <stop offset=".38" stop-color="#442b1d"/>
      <stop offset=".71" stop-color="#513423"/>
      <stop offset="1" stop-color="#563725"/>
    </linearGradient>
    <linearGradient id="Gradient_58-2" data-name="Gradient 58" x1="1255.94" y1="506.72" x2="1284.86" y2="506.72" gradientTransform="translate(-1032.14 -570.34) rotate(6.22)" xlink:href="#Gradient_58"/>
    <linearGradient id="linear-gradient-15" x1="255.35" y1="150.84" x2="228.07" y2="174.15" gradientTransform="translate(-65.71 -80.51) rotate(1.21)" xlink:href="#linear-gradient-4"/>
    <linearGradient id="linear-gradient-16" x1="233.43" y1="122.93" x2="208.05" y2="116.8" gradientTransform="translate(-44.64 -31)" gradientUnits="userSpaceOnUse">
      <stop offset="0" stop-color="#ece7e7"/>
      <stop offset=".23" stop-color="#f5f3f3"/>
      <stop offset=".53" stop-color="#fcfcfc"/>
      <stop offset="1" stop-color="#fff"/>
    </linearGradient>
    <linearGradient id="Gradient_96" data-name="Gradient 96" x1="236.68" y1="137.59" x2="212.59" y2="115.73" gradientTransform="translate(-44.64 -31)" gradientUnits="userSpaceOnUse">
      <stop offset="0" stop-color="#a8c3dd"/>
      <stop offset="1" stop-color="#7a90a5"/>
    </linearGradient>
    <linearGradient id="Gradient_96-2" data-name="Gradient 96" x1="150.7" y1="-186.27" x2="149.9" y2="-193.72" gradientTransform="translate(11.77 277.3) rotate(3.42)" xlink:href="#Gradient_96"/>
    <radialGradient id="Gradient_25" data-name="Gradient 25" cx="-865.49" cy="144.17" fx="-865.49" fy="144.17" r="4.05" gradientTransform="translate(1049.37 -36.4) rotate(1.3) skewX(.07)" gradientUnits="userSpaceOnUse">
      <stop offset="0" stop-color="#666"/>
      <stop offset="1" stop-color="#1d1d1d"/>
    </radialGradient>
    <linearGradient id="linear-gradient-17" x1="160.59" y1="156.13" x2="180.93" y2="155.16" gradientTransform="translate(4.37 -73.97) rotate(1.2)" gradientUnits="userSpaceOnUse">
      <stop offset="0" stop-color="#2b1b13"/>
      <stop offset=".04" stop-color="#2e1d14"/>
      <stop offset=".38" stop-color="#442b1d"/>
      <stop offset=".71" stop-color="#513423"/>
      <stop offset="1" stop-color="#563725"/>
    </linearGradient>
    <linearGradient id="linear-gradient-18" x1="134.18" y1="-91.39" x2="131.78" y2="-122.6" gradientTransform="translate(11.77 277.3) rotate(3.42)" gradientUnits="userSpaceOnUse">
      <stop offset="0" stop-color="#f7d4ab"/>
      <stop offset=".45" stop-color="#f3caa0"/>
      <stop offset="1" stop-color="#f0c499"/>
    </linearGradient>
    <linearGradient id="linear-gradient-19" x1="-2253.64" y1="204.27" x2="-2280.72" y2="227.41" gradientTransform="translate(-2143.55 -80.79) rotate(178.8) scale(1 -1)" xlink:href="#linear-gradient-4"/>
    <linearGradient id="linear-gradient-20" x1="189.42" y1="122.7" x2="163.36" y2="116.41" xlink:href="#linear-gradient-16"/>
    <linearGradient id="Gradient_96-3" data-name="Gradient 96" x1="192.17" y1="137.92" x2="167.99" y2="115.98" xlink:href="#Gradient_96"/>
    <linearGradient id="Gradient_96-4" data-name="Gradient 96" x1="106.03" y1="-181.42" x2="105.23" y2="-188.85" gradientTransform="translate(11.77 277.3) rotate(3.42)" xlink:href="#Gradient_96"/>
    <radialGradient id="Gradient_25-2" data-name="Gradient 25" cx="-3594.96" cy="206.76" fx="-3594.96" fy="206.76" r="4.05" gradientTransform="translate(-3472.79 -36.87) rotate(178.7) scale(1 -1) skewX(.09)" xlink:href="#Gradient_25"/>
    <linearGradient id="linear-gradient-21" x1="-2348.23" y1="208.72" x2="-2328.08" y2="207.76" gradientTransform="translate(-2213.63 -74.26) rotate(178.81) scale(1 -1)" xlink:href="#linear-gradient-17"/>
    <linearGradient id="Gradient_32" data-name="Gradient 32" x1="131.66" y1="-277.92" x2="114.5" y2="-126.47" gradientTransform="translate(11.77 277.3) rotate(3.42)" gradientUnits="userSpaceOnUse">
      <stop offset="0" stop-color="#724831"/>
      <stop offset=".22" stop-color="#67412c"/>
      <stop offset=".63" stop-color="#5a3926"/>
      <stop offset="1" stop-color="#563725"/>
    </linearGradient>
    <linearGradient id="Gradient_32-2" data-name="Gradient 32" x1="80.12" y1="-239.15" x2="69.32" y2="-143.86" xlink:href="#Gradient_32"/>
    <linearGradient id="linear-gradient-22" x1="131.14" y1="-161.55" x2="130.83" y2="-165.53" gradientTransform="translate(10.36 300.02) rotate(3.42) scale(1 .93)" xlink:href="#linear-gradient-18"/>
    <linearGradient id="Gradient_115" data-name="Gradient 115" x1="149.9" y1="112.53" x2="147.75" y2="167.59" gradientUnits="userSpaceOnUse">
      <stop offset="0" stop-color="#d6ac88"/>
      <stop offset="1" stop-color="#a18166"/>
    </linearGradient>
    <linearGradient id="Gradient_115-2" data-name="Gradient 115" x1="150.94" y1="111.3" x2="148.8" y2="165.94" xlink:href="#Gradient_115"/>
    <linearGradient id="Gradient_27" data-name="Gradient 27" x1="151.13" y1="47.56" x2="163.56" y2="6.67" gradientUnits="userSpaceOnUse">
      <stop offset="0" stop-color="#724831"/>
      <stop offset=".42" stop-color="#7f553b"/>
      <stop offset="1" stop-color="#8e6346"/>
    </linearGradient>
    <linearGradient id="Gradient_27-2" data-name="Gradient 27" x1="134.18" y1="42.41" x2="146.61" y2="1.52" xlink:href="#Gradient_27"/>
    <linearGradient id="Gradient_27-3" data-name="Gradient 27" x1="120.89" y1="38.71" x2="133.61" y2="-3.15" xlink:href="#Gradient_27"/>
    <linearGradient id="Gradient_27-4" data-name="Gradient 27" x1="112.16" y1="34.21" x2="124.59" y2="-6.68" xlink:href="#Gradient_27"/>
    <linearGradient id="Gradient_115-3" data-name="Gradient 115" x1="150.33" y1="-149.35" x2="149.68" y2="-152.12" gradientTransform="translate(11.77 277.3) rotate(3.42)" xlink:href="#Gradient_115"/>
    <linearGradient id="Gradient_115-4" data-name="Gradient 115" x1="110.12" y1="-148.77" x2="109.59" y2="-151.04" gradientTransform="translate(11.77 277.3) rotate(3.42)" xlink:href="#Gradient_115"/>
    <linearGradient id="Gradient_27-5" data-name="Gradient 27" x1="166.52" y1="52.24" x2="178.95" y2="11.34" xlink:href="#Gradient_27"/>
    <linearGradient id="Gradient_27-6" data-name="Gradient 27" x1="180.07" y1="56.36" x2="192.49" y2="15.46" xlink:href="#Gradient_27"/>
    <linearGradient id="Gradient_27-7" data-name="Gradient 27" x1="102.44" y1="32.77" x2="114.87" y2="-8.13" xlink:href="#Gradient_27"/>
    <linearGradient id="Gradient_27-8" data-name="Gradient 27" x1="67.47" y1="-229.79" x2="76.85" y2="-228.55" gradientTransform="translate(11.77 277.3) rotate(3.42)" xlink:href="#Gradient_27"/>
    <linearGradient id="Gradient_27-9" data-name="Gradient 27" x1="192.49" y1="60.33" x2="205.66" y2="16.98" xlink:href="#Gradient_27"/>
    <linearGradient id="Gradient_58-3" data-name="Gradient 58" x1="84.97" y1="-140.09" x2="178.78" y2="-308.14" gradientTransform="translate(11.77 277.3) rotate(3.42)" xlink:href="#Gradient_58"/>
    <linearGradient id="Gradient_115-5" data-name="Gradient 115" x1="131.68" y1="-145.52" x2="131.29" y2="-150.65" gradientTransform="translate(10.36 300.02) rotate(3.42) scale(1 .93)" xlink:href="#Gradient_115"/>
    <linearGradient id="Gradient_113" data-name="Gradient 113" x1="129.67" y1="-176.85" x2="128.58" y2="-161.97" gradientTransform="translate(11.77 277.3) rotate(3.42)" gradientUnits="userSpaceOnUse">
      <stop offset="0" stop-color="#a18166"/>
      <stop offset="1" stop-color="#d6ac88"/>
    </linearGradient>
    <linearGradient id="linear-gradient-23" x1="228.25" y1="316.24" x2="228.94" y2="340.72" gradientTransform="translate(-92.04 -225.47) rotate(-2.17)" gradientUnits="userSpaceOnUse">
      <stop offset="0" stop-color="#f7d4ab"/>
      <stop offset=".52" stop-color="#f5d1a8"/>
      <stop offset=".85" stop-color="#f2c99f"/>
      <stop offset="1" stop-color="#f0c499"/>
    </linearGradient>
    <linearGradient id="linear-gradient-24" x1="228.55" y1="670.45" x2="230.07" y2="659.28" gradientTransform="translate(-122.15 -1019.55) rotate(-2.16) scale(1 1.7) skewX(.04)" xlink:href="#linear-gradient-8"/>
    <linearGradient id="Gradient_115-6" data-name="Gradient 115" x1="131.8" y1="-165.52" x2="130.85" y2="-169.55" gradientTransform="translate(10.36 300.02) rotate(3.42) scale(1 .93)" xlink:href="#Gradient_115"/>
    <linearGradient id="linear-gradient-25" x1="217.34" y1="403.61" x2="217.56" y2="436.77" gradientTransform="translate(-76.99 -304.09) rotate(-1.14)" xlink:href="#linear-gradient-23"/>
    <linearGradient id="linear-gradient-26" x1="218.52" y1="447.36" x2="218.42" y2="441.13" gradientTransform="translate(-76.99 -304.09) rotate(-1.14)" gradientUnits="userSpaceOnUse">
      <stop offset="0" stop-color="#f0c499"/>
      <stop offset=".52" stop-color="#f1c69b"/>
      <stop offset=".85" stop-color="#f4cea4"/>
      <stop offset="1" stop-color="#f7d4ab"/>
    </linearGradient>
    <linearGradient id="linear-gradient-27" x1="213.66" y1="446.14" x2="224.76" y2="446.14" gradientTransform="translate(-76.99 -304.09) rotate(-1.14)" xlink:href="#linear-gradient-9"/>
    <linearGradient id="linear-gradient-28" x1="219.54" y1="445.61" x2="213.47" y2="424.05" gradientTransform="translate(-76.99 -304.09) rotate(-1.14)" xlink:href="#linear-gradient-9"/>
    <linearGradient id="linear-gradient-29" x1="149.06" y1="119.55" x2="149.34" y2="125.78" gradientUnits="userSpaceOnUse">
      <stop offset="0" stop-color="#e8d8d7"/>
      <stop offset=".24" stop-color="#efe4e4"/>
      <stop offset=".69" stop-color="#faf8f7"/>
      <stop offset="1" stop-color="#fff"/>
    </linearGradient>
    <linearGradient id="linear-gradient-30" x1="148.96" y1="121.04" x2="149.37" y2="125.67" gradientUnits="userSpaceOnUse">
      <stop offset="0" stop-color="#e8d8d7"/>
      <stop offset=".3" stop-color="#eadcdc"/>
      <stop offset=".66" stop-color="#f3eaea"/>
      <stop offset="1" stop-color="#fff"/>
    </linearGradient>
    <linearGradient id="linear-gradient-31" x1="249.38" y1="231.3" x2="249.67" y2="425.07" xlink:href="#linear-gradient"/>
    <linearGradient id="linear-gradient-32" x1="150.23" y1="170.97" x2="152.77" y2="318.97" xlink:href="#linear-gradient-6"/>
    <linearGradient id="linear-gradient-33" x1="147.92" y1="179.2" x2="168.47" y2="179.2" gradientTransform="matrix(1,0,0,1,0,0)" xlink:href="#linear-gradient-8"/>
    <linearGradient id="linear-gradient-34" x1="241.46" y1="231.31" x2="241.75" y2="425.08" xlink:href="#linear-gradient"/>
    <linearGradient id="linear-gradient-35" x1="27.47" y1="205.33" x2="28.61" y2="342.52" xlink:href="#linear-gradient-6"/>
    <linearGradient id="linear-gradient-36" x1="51.08" y1="231.6" x2="51.38" y2="425.37" xlink:href="#linear-gradient"/>
    <linearGradient id="linear-gradient-37" x1="60.68" y1="231.58" x2="60.97" y2="425.35" xlink:href="#linear-gradient"/>
    <linearGradient id="linear-gradient-38" x1="155.42" y1="207.68" x2="155.15" y2="312.85" xlink:href="#linear-gradient-6"/>
    <linearGradient id="linear-gradient-39" x1="164.56" y1="351.1" x2="136.23" y2="199.8" xlink:href="#linear-gradient-6"/>
    <linearGradient id="linear-gradient-40" x1="119.04" y1="248.14" x2="119.88" y2="206.7" xlink:href="#linear-gradient-6"/>
    <linearGradient id="linear-gradient-41" x1="119.96" y1="289.94" x2="119.96" y2="166.73" xlink:href="#linear-gradient-6"/>
    <linearGradient id="linear-gradient-42" x1="126.32" y1="194.33" x2="125.28" y2="122.67" xlink:href="#linear-gradient"/>
    <linearGradient id="linear-gradient-43" x1="125.04" y1="327.98" x2="170.35" y2="175.05" xlink:href="#linear-gradient-6"/>
    <linearGradient id="linear-gradient-44" x1="179.93" y1="252.49" x2="180.81" y2="209.32" xlink:href="#linear-gradient-6"/>
    <linearGradient id="linear-gradient-45" x1="162.01" y1="305.65" x2="169.37" y2="149.28" xlink:href="#linear-gradient"/>
    <linearGradient id="linear-gradient-46" x1="152.6" y1="303.36" x2="138.18" y2="216.61" xlink:href="#linear-gradient"/>
    <linearGradient id="linear-gradient-47" x1="181.52" y1="301.27" x2="181.52" y2="164" xlink:href="#linear-gradient-6"/>
    <linearGradient id="linear-gradient-48" x1="174.8" y1="193.85" x2="173.91" y2="132.27" xlink:href="#linear-gradient"/>
    <linearGradient id="linear-gradient-49" x1="134.08" y1="201.13" x2="140.29" y2="210.55" xlink:href="#linear-gradient"/>
    <linearGradient id="linear-gradient-50" x1="161.18" y1="212.52" x2="171.47" y2="229.84" xlink:href="#linear-gradient-6"/>
    <linearGradient id="linear-gradient-51" x1="187.11" y1="194.08" x2="147.08" y2="304.3" gradientUnits="userSpaceOnUse">
      <stop offset="0" stop-color="#2b416b"/>
      <stop offset=".54" stop-color="#1f325a"/>
      <stop offset="1" stop-color="#192b51"/>
    </linearGradient>
    <linearGradient id="linear-gradient-52" x1="172.73" y1="196.53" x2="137.94" y2="292.31" gradientUnits="userSpaceOnUse">
      <stop offset="0" stop-color="#2b416b"/>
      <stop offset=".53" stop-color="#1f335a"/>
      <stop offset="1" stop-color="#192b51"/>
    </linearGradient>
    <linearGradient id="linear-gradient-53" x1="194.87" y1="209.49" x2="205.67" y2="227.67" xlink:href="#linear-gradient-6"/>
    <linearGradient id="linear-gradient-54" x1="122.53" y1="205.49" x2="131.94" y2="221.33" xlink:href="#linear-gradient-6"/>
  </defs>
  <g id="Layer_1-2" data-name="Layer 1">
    <g>
      <path class="cls-19" d="M119.11,158.07s25.47-18.7,63.1-2.44c0,0,17.81,22.47.85,38.81-16.96,16.34-59.9,14.8-66.11,1.41-6.2-13.39-2.78-34.93,2.16-37.78Z"/>
      <path class="cls-17" d="M182.95,175.41l6.66-8.51s-7.23-2.17-10.07-16.92c-.12.11-.24.22-.36.33-.87,8.81.71,17.24,3.77,25.09Z"/>
      <path class="cls-16" d="M179.18,150.32c-11.43,10.5-16.96,14.97-31.67,14.05-5.69,0-16.94,2.61-24.05-2.09,5.96,11.97,17.22,21.08,26.44,29.14,3.8,3.8,5.36,10.31,7.33,16.85l25.73-32.86c-3.06-7.85-4.64-16.28-3.77-25.09Z"/>
      <path class="cls-15" d="M131.82,163.75s-9.84-2.47-10.52-3.02c-1.21,2.84-2.69,5.81-4.52,8.9l31.5,51.88,8.94-13.23c-1.96-6.54-3.52-13.04-7.33-16.85-9.22-8.06-14.7-16.01-18.07-27.68Z"/>
      <path class="cls-12" d="M179.54,149.99c-.53-2.76-.91-5.96-1.06-9.66l-58.14-14.7s3.12,16.83.97,35.1c7.04,5.71,20.98,6.64,27.26,6.64,14.87.93,25.81-7.81,30.97-17.38Z"/>
      <path class="cls-21" d="M271.94,209.68c-15.56-5.75-74.21-32.38-74.21-32.38l-47.79,44.91-40.82-44.91s-68.63,27.64-79.27,32.38l28.4,84.45-.06,4.45h186.72l27.03-88.9Z"/>
      <path class="cls-13" d="M58.25,277.81l-28.4-68.13c-12.03,9.93-14.9,49.15-15.13,88.9h43.45c.1-7.31-.56-14.75.08-20.77Z"/>
      <path class="cls-11" d="M297.34,273.97c-11.14-62.84-25.41-64.28-25.41-64.28l-25.9,64.47,5.51,11.59c1.24,4.5,2.9,8.78,4.91,12.84h45.86c-1.76-7.98-3.51-16.33-4.98-24.61Z"/>
      <g>
        <path class="cls-10" d="M106.01,87.09s3.47,47.24,4.79,49.21c1.32,1.97,21.23,16.56,23.8,18.75,2.57,2.19,29.26.84,29.26.84,0,0,22.42-16.55,24.37-19.77,1.94-3.22,5.26-49.79,5.26-49.79,0,0,5.88-37.97-3.2-51-9.08-13.03-70.98-17.24-81.25.87-10.27,18.11-3.04,50.88-3.04,50.88Z"/>
        <g>
          <path class="cls-23" d="M201.34,82.41c9.68-.71,3.37,14.49,3.37,14.49-3.75,19.67-2.13,23.06-10.74,22.32-6.37-.54.45-36.3,7.37-36.81Z"/>
          <path class="cls-14" d="M195.56,110.7s3.06-3.44,2.91-10.81c-.37-17.38,8.77-17.69,5.62-6.16,0,0-.73-5.65-2.03-4.1-1.6,1.9,1.21,3.29-1.1,12.03-1.21,4.54-5.39,9.05-5.39,9.05Z"/>
        </g>
        <g>
          <path class="cls-23" d="M98.76,82.68c-9.68-.39-3.53,14.6-3.53,14.6,3.54,19.56,3.01,22.47,10.49,21.98,8.41-.55-.05-36.3-6.96-36.58Z"/>
          <path class="cls-40" d="M104.23,110.79s-3.03-3.34-2.79-10.71c.56-17.39-8.58-17.41-5.55-5.98,0,0,.79-5.67,2.08-4.17,1.57,1.84-1.25,3.34.97,11.99,1.16,4.5,5.29,8.87,5.29,8.87Z"/>
        </g>
        <path class="cls-41" d="M160.47,72.12s-4.31,11.56-4.17,12.43c.14.87,1.26,11.42,1.26,11.42,0,0,25.48-.8,28.81-1.85,3.33-1.04,5.06-11.29,5.06-11.29l-6.03-9.78s-5.29-2.42-6.04-1.92c-.74.5-18.91.99-18.91.99Z"/>
        <path class="cls-42" d="M139.01,72.5s3.55,10.77,3.43,11.65c-.11.88-.45,11.6-.45,11.6,0,0-25.49.16-28.86-.76s-4.45-7.41-4.45-7.41l.55-6.4s5.45-4.96,6.14-5.52c5.37-4.39,23.63-3.15,23.63-3.15Z"/>
        <path class="cls-18" d="M175.2,119.18c8.23.51,17.42-.56,19.07-17.3.94-9.54-.13-14.51-4.2-15.23-8.64-1.55-21.01,2.22-26.15,4.88-10.87,5.62-3.3,26.76,11.28,27.66Z"/>
        <path class="cls-9" d="M133.98,90.25c-2.36-.84-20.28-4.76-25.61-3.2-3.04.89-1.73,7.6-1.2,13.97.26,3.06.24,7.96.95,9.88,3.49,9.42,16.63,9.77,24.2,7.11,12.93-4.55,13.6-23.53,1.65-27.75Z"/>
        <path class="cls-43" d="M189.23,93.18c-1.49-.81-2.59.38-5.67,1.39-3.02.99-11.28,2.56-7.38,4.61,4.3,2.27,10.29-.89,11.01-1.48.72-.59,3.87-3.51,2.04-4.51Z"/>
        <path class="cls-45" d="M116.15,95.49c-3.14-.83-4.3-1.95-5.74-1.05-1.77,1.11,1.55,3.83,2.31,4.38.76.55,6.93,3.35,11.08.83,3.76-2.28-4.58-3.35-7.65-4.16Z"/>
        <path class="cls-1" d="M117.41,71.38c2.65-3.83,9.88-4.19,13.82-4.59,2.23-.23,5.38-.55,7.5-.05.4,1.22.54,2.11.33,3.62.81-.89.84-2.34.51-3.32.06.02,1.81,2.04.76,4.73-.5,1.28-4.15.72-12.35,1.52-2.23.22-5.75.71-9,1.75-1.13.36-4.28,1.69-4.28,1.69-.29-.37,1.58-3.73,2.7-5.35Z"/>
        <path class="cls-77" d="M182.72,70.57c-2.09-2.38-9.2-3.74-13.27-3.98-2.09-.13-7.38-.85-9.55-.33-.38,1.22-.51,2.11-.26,3.63-.85-.89-.91-2.34-.6-3.32-.06.02-1.81,2.05-.68,4.74.54,1.28,4.26.68,12.67,1.43,2.28.2,7.16.61,10.45,1.41,1.18.29,4.82,1.97,4.82,1.97.29-.37-1.72-3.41-3.59-5.54Z"/>
        <g>
          <path class="cls-56" d="M159.5,91.36c-1.02-1.23.04-3.85.62-5.49,1.8-5.12,5.69-6.82,13.76-6.99,2.65-.06,7.22.5,10.03,3.09,2.16,1.99,3.41,3.97,3.17,5.74-.12.9-4.36,5.98-13.16,6.25-5.75.18-12.29-.05-14.41-2.6Z"/>
          <path class="cls-57" d="M182.89,87.65c-.22.59-.54,1.11-.94,1.59-.62.75-1.42,1.36-2.31,1.83-.33.15-.69.25-1.05.33-.05.02-.1.02-.14.03-.59.13-1.15.26-1.67.36-2.79.56-4.93.82-6.77.82-.75,0-1.43-.05-2.08-.13-.32-.03-.64-.1-.94-.18-2.67-.62-4.68-2.38-5.06-3.1,0,0,0-.02.02-.03v-.02c.14-.33,1.18-2.56,2.83-4.32,1.03-1.1,2.32-2.02,3.8-2.18.48-.05.94-.1,1.4-.12,8.34-.34,12.51,4.6,12.89,5.08.02.02.02.03.02.03Z"/>
          <path class="cls-20" d="M182.87,87.61s.02.04.02.04c-.23.59-.55,1.12-.94,1.6-.1-.06-.22-.13-.35-.2-.84-.45-2.36-1.07-5.21-1.3-11.77-.98-14.31,1.3-14.44,1.42,0,0,0,0,0,0,.36-1.87,1.42-3.28,2.84-4.33,1.48-1.11,3.34-1.83,5.2-2.29,1.53-.38,3.05-.59,4.35-.69,4.17-.32,8.19,5.25,8.55,5.76Z"/>
          <path class="cls-3" d="M179.33,89.7c-.06.34-.24,1.27-.44,1.63-.13.08-.59.26-.76.34-.59.13-1.22.32-1.75.42-2.79.56-4.53.51-6.36.51-.75,0-1.43-.05-2.08-.13-.32-.03-.64-.1-.94-.18-.57-.75-1.11-1.85-1.08-3.36.1-3.98,3.44-5.75,7.13-5.45,3.68.31,6.88,2.38,6.29,6.21Z"/>
          <path class="cls-79" d="M166.04,87.75s5.22-1.14,13.33.56c0,0-.15-4.14-5.03-5.03-4.58-.84-7.96,2.11-8.3,4.47Z"/>
          <path class="cls-5" d="M173,84.04c-2.26-.12-4.34,1.65-4.45,3.92-.11,2.27,1.8,4.18,4.05,4.3,2.26.12,4.18-1.63,4.29-3.9.11-2.27-1.63-4.2-3.89-4.32Z"/>
          <path d="M172.85,84.03c-2.67-.15-3.91,1.79-4.24,3.41,0,0,4.38-.43,8.28.38,0,0-.21-3.58-4.03-3.79Z"/>
          <path class="cls-22" d="M178.45,90.76c.44-.82.09-1.89-.77-2.37-.87-.48-1.93-.2-2.37.63-.44.83-.1,1.89.77,2.37.86.48,1.93.2,2.37-.63Z"/>
          <path class="cls-22" d="M174.33,88.56c.35-.65.08-1.48-.6-1.86-.69-.38-1.52-.16-1.88.5-.35.65-.08,1.48.6,1.86.69.38,1.53.16,1.88-.5Z"/>
          <path class="cls-58" d="M161.94,89.18s-.4-3.13,3.36-5.68c3.94-2.67,10.6-2.6,14.46-.19,2.32,1.45,3.15,4.33,3.15,4.33,0,0-4.91-3.48-10.16-3.23-2.91.13-4.02.39-5.33.71-3.42.82-5.47,4.07-5.47,4.07Z"/>
        </g>
        <path class="cls-59" d="M118.26,40.38c1.71-.82,26.78,2.73,30.71,1.83,3.93-.89,25.05-4.73,29.15-2.45,4.1,2.28,7,6.84,7.4,9.36.4,2.52-.25,14.97,0,17,.24,2.03,3.79,4.55,4.81,16.3,1.01,11.75.48,22.9-.15,27.78-.62,4.88-5.12,21.07-5.12,21.07l8.21-23.67s.82-2.8,1-5.74c.18-2.93,2.36-38.65,2.36-38.65l-11.75-34.77-68.88-3.3-14.9,33.32,3.85,40.24,1.87,5.42,5.83,20.5s-2.23-24.69-2.93-26.16c-.71-1.47-.71-14.81-.47-17.31.66-6.79,4.04-13.4,4.46-15.21.42-1.81-1.7-14.64-1.26-16.45.43-1.81,5.82-9.14,5.82-9.14Z"/>
        <g>
          <path class="cls-44" d="M140.59,91.68c1.01-1.23-.04-3.85-.61-5.49-1.78-5.12-5.64-6.82-13.63-6.99-2.62-.06-7.15.5-9.94,3.08-2.15,1.99-3.38,3.96-3.14,5.74.12.9,4.32,5.98,13.04,6.25,5.7.18,12.18-.04,14.28-2.6Z"/>
          <path class="cls-47" d="M138.19,89.52c-.36.7-2.24,2.34-4.72,3.01-.39.12-.8.21-1.23.26-.65.08-1.34.13-2.08.13-1.8,0-3.93-.26-6.69-.82-.35-.07-.69-.15-1.06-.21-.25-.07-.51-.12-.76-.16-.36-.08-.69-.2-1.02-.33-.88-.48-1.67-1.1-2.29-1.85-.39-.46-.71-1-.93-1.59,0,0,0-.02.02-.03.38-.46,4.51-5.41,12.78-5.08.44.03.92.07,1.39.11,1.47.16,2.73,1.08,3.77,2.18,1.64,1.77,2.67,4,2.81,4.33v.02s.02.03.02.03Z"/>
          <path class="cls-20" d="M117.43,87.93s-.02.04-.02.04c.23.59.54,1.12.94,1.6.1-.06.22-.13.35-.2.84-.45,2.34-1.07,5.17-1.3,11.67-.97,14.18,1.3,14.31,1.42,0,0,0,0,0,0-.36-1.87-1.41-3.28-2.81-4.33-1.47-1.11-3.31-1.83-5.15-2.29-1.52-.38-3.02-.59-4.31-.69-4.13-.32-8.12,5.25-8.47,5.76Z"/>
          <path class="cls-80" d="M134.48,89.26c.03,1.46-.47,2.54-1.01,3.28-.39.12-.8.21-1.23.26-.65.08-1.34.13-2.08.13-1.8,0-3.54.13-6.28-.51-.34-.08-1.03-.35-1.39-.42-.33-.12-.59-.13-.79-.26-.21-.38-.46-1.38-.51-1.73-.58-3.83,2.59-5.9,6.23-6.19,3.66-.31,6.97,1.46,7.07,5.44Z"/>
          <path class="cls-81" d="M134.34,88.07s-5.18-1.14-13.21.56c0,0,.15-4.14,4.99-5.03,4.54-.84,7.89,2.11,8.22,4.47Z"/>
          <path class="cls-78" d="M127.45,84.36c2.24-.12,4.3,1.65,4.41,3.92.11,2.27-1.78,4.18-4.02,4.3-2.24.12-4.15-1.63-4.25-3.9-.11-2.27,1.62-4.2,3.86-4.32Z"/>
          <path d="M127.6,84.36c2.64-.15,3.87,1.79,4.21,3.41,0,0-4.34-.44-8.2.38,0,0,.21-3.58,4-3.79Z"/>
          <path class="cls-22" d="M129.42,91.56c-.44-.82-.09-1.89.77-2.37.86-.48,1.91-.2,2.35.63.44.83.09,1.89-.77,2.37-.86.48-1.91.2-2.35-.63Z"/>
          <path class="cls-22" d="M126.56,89.15c-.35-.65-.08-1.48.6-1.86.68-.38,1.51-.16,1.86.5.35.65.08,1.48-.6,1.86-.68.38-1.51.16-1.86-.5Z"/>
          <path class="cls-46" d="M138.18,89.5s.39-3.13-3.33-5.68c-3.9-2.67-10.5-2.61-14.33-.2-2.3,1.45-3.12,4.33-3.12,4.33,0,0,4.86-3.48,10.07-3.23,2.89.14,3.99.39,5.28.71,3.39.82,5.42,4.07,5.42,4.07Z"/>
        </g>
        <path class="cls-2" d="M110.22,41.45s6.72-9.77,23.73-7.1c11.31,1.77,11.78,1.65,15.58,2.49,3.8.84,22-6.17,29.99-3.03,7.99,3.13,8.78,12.36,8.85,16.91.06,4.55-.91,15.26.2,15.98s5.11,5.21,4.75,11.43c-.36,6.23.96,23.75.96,23.75,0,0,1.29-18.95,7.73-19.49l.4-13.05s2.58-8.96,2.79-12.67c.41-6.99-1.57-12.93-1.68-14.1-.29-3.01-5.42-8.21-6.31-9.21,0,0,3.26-7.01-5.68-11.89,0,0-1.81-14.65-17.66-17.98-15.85-3.32-29.17-2.42-34.06-.71,0,0-17.49-4.48-26.09,6.97,0,0-11.04,4.39-12.16,15.25-1.12,10.87,2.59,15.28,3.19,15.12l5.48,1.31Z"/>
        <path class="cls-75" d="M111.92,40.13s-5.48,7.04-3.69,21.12c0,0-2.75,7.72-2.76,12.84,0,5.12,1.51,24.89,1.51,24.89,0,0-3.35-16.79-9.67-16.23,0,0-1.23-11.58-1.55-12.33,0,0-4.91-9.18-1.45-19.95,1.99-6.21,10.41-10.34,10.41-10.34h7.18Z"/>
        <path class="cls-48" d="M127.87,137.82s11.32,6.65,11.97,6.54c.64-.11,8.47-4.95,8.47-4.95,0,0,8.48,5.7,10.94,5.51,2.46-.19,12.43-7.52,12.43-7.52,0,0-7.91,11.2-10.43,12.38s-27.82-.27-27.82-.27l-5.56-11.69Z"/>
        <path class="cls-8" d="M193.27,107.51s-1.45,23.11-3.47,27.6c-2.02,4.49-24.36,22.31-28.63,25.84-4.27,3.54-20.35.54-23.41,0-3.07-.54-25.43-20.88-28.48-25.84-3.06-4.96-2.09-34.1-2.09-34.1,0,0,4.02,20.69,6.84,24.69,2.82,4,20.8,17.57,23.83,19.58,1.28.85,4.06,1.36,6.16-1.51,2-2.73,1.07-4.11,6.19-3.8,4.11.25,3.26,1.92,6.21,5.37,2.08,2.44,4.03,1.39,5.35.23,2.81-2.46,24.57-19.43,25.5-21.62.93-2.19,6-16.45,6-16.45Z"/>
        <path class="cls-29" d="M125.57,128.37c4.08-5.68,15.01-13.96,16.24-13.58,7.41,2.26,15.11-1.69,16.05-1.99.94-.3,13.81,11.31,16,15.57,2.2,4.26,1.86,7.57,2.28,10.12.51,3.16-4.94,4.88-4.94,4.88,0,0,1.32-9.26.48-12.47-5.93-2.79-30.11-8.1-30.11-8.1,0,0-8.64,5.65-13.31,6.96-1.12,4.74,1.15,11.29,1.15,11.29,0,0-3.52,1.12-5.81-3.27.55-5.61.54-7.39,1.98-9.4Z"/>
        <path class="cls-4" d="M149.99,27.9s-.18-23.36,28.63-22.91c0,0-16.74-10.08-27.37,1.54-10.63,11.63-1.26,21.37-1.26,21.37Z"/>
        <path class="cls-83" d="M136.94,25.6s1.28-18.1,18.13-22.22c0,0-5.61-7.19-15.27-.59-9.66,6.59-2.86,22.82-2.86,22.82Z"/>
        <path class="cls-85" d="M129.9,26.7s-3.54-19.27,9.89-23.92c0,0-10.4-7.24-16.64,3.4-6.24,10.64,6.75,20.52,6.75,20.52Z"/>
        <path class="cls-84" d="M117.6,27.9s-12.25-11.04-3.9-19.65c8.36-8.61,15.63-5.49,15.63-5.49,0,0-8.28,5.13-9.82,11.29-1.54,6.15-1.92,13.86-1.92,13.86Z"/>
        <path class="cls-28" d="M167.6,131.19l.94-1.81-1.23-2.92s4.55,2.42,4.38,4.44c-.08.89-4.08.29-4.08.29Z"/>
        <path class="cls-25" d="M132.23,130.27l-1.79-1.02s1.66-2.28,1.61-3.42c0,0-3.79,2.39-5.24,4.12-1.59,1.91,5.42.31,5.42.31Z"/>
        <path class="cls-87" d="M159.99,25.2s.12-15,11.77-17.7c11.65-2.69,18.42,4.37,19.76,13.97,0,0-2.69-11.04-16.64-6.73-9.44,2.92-14.89,10.46-14.89,10.46Z"/>
        <path class="cls-86" d="M177.88,30.9s13.01-6.76,19.33,2.45c0,0,.7-10.15-9.1-10.73-9.8-.58-10.23,8.28-10.23,8.28Z"/>
        <path class="cls-89" d="M104.73,40.13s-7.55-5.17-2.88-20.35c2.38-7.74,11.85-10.03,11.85-10.03,0,0-3.8,3.04-8.97,16.18-2.42,6.16,0,14.2,0,14.2Z"/>
        <path class="cls-88" d="M104.73,40.13s-7.73.13-11.42,9.67c-2.03,5.24,4.09,17.14,4.09,17.14,0,0-1.33-11.32.64-17,2.23-6.44,6.7-9.81,6.7-9.81Z"/>
        <path class="cls-82" d="M190.28,35.68s9.51-4.3,13.21,5.27c2.4,6.21,2.64,10.48-2.1,18.62,0,0,.36-12.48-1.9-16.02-2.27-3.53-9.21-7.87-9.21-7.87Z"/>
        <path class="cls-76" d="M107.18,101.02s.22-6.9.04-18.34c-.1-6.66,1-11.4,4.69-16.9,0,0-2.02-15.83-1.13-17.89,1.97-4.59,8.65-10.91,9.88-11.11,1.24-.2,26.74,2.04,29.89,1.69,3.15-.36,23.2-3.7,28.96-.73,2.42,1.25,8.52,6.84,8.69,9.91.16,3.07-.75,18.34-.75,18.34,0,0,5.02,5.8,4.93,14.08s1.88,21.81,1.88,21.81c0,0,2.14-25.48,1.9-28.34-.24-2.87-1.61-27.28-2.71-29.79-1.1-2.51-10.21-11.83-15.58-12.84-5.38-1-27.5,1.45-28.49,2.06-.99.61-27.32-6.43-31.79-3.56-4.47,2.88-13.08,12.93-13.03,15.53.04,2.6-1.57,23.56-1.52,25.56.02.85,4.14,30.52,4.14,30.52Z"/>
        <path class="cls-26" d="M120.6,147.02s14.02,11.15,17.59,11.99c4.54,1.06,18.55,2.42,23.09.43,3.83-1.68,16.71-12.48,16.71-12.48,0,0-11.57,13.58-16.88,15.32-3.29,1.08-19.33,1.18-23.68-.21-4.34-1.39-15.94-13.94-16.84-15.04Z"/>
        <path class="cls-7" d="M139.84,115.79s10.79,4.67,11.26,4.56,10.66-4.68,10.66-4.68c0,0-1.29-2.06-3.14-2.17-3.21-.19-6.55,2.73-8.75,2.19-.95-.23-5.76-1.59-8.34-1.73-1.86-.1-1.69,1.84-1.69,1.84Z"/>
        <g>
          <path class="cls-90" d="M154.63,115.02c6.51-5.19,7.13.65,7.13.65-3.6-2.92-7.13-.65-7.13-.65Z"/>
          <path class="cls-90" d="M139.84,115.79s.89-1.79,5.65-.37c0,0-7.92-5.12-5.65.37Z"/>
          <path class="cls-49" d="M157.02,97.36c.05,2.45,1.34,11.66.65,13.09-1.54,3.18-4.61,4.53-7.5,4.4-2.17.35-6.13-.6-8.38-3.78-.92-1.3.69-10.55.2-13.14,0,0-9.39,16.98-2.15,17.87,0,0-1.19-1.9,1.69-1.84,2.54.06,3.89,4.46,8.9,4.27,5.53-.21,4.57-4.13,7.49-4.63,3.63-.63,3.01,1.75,3.85,2.08,3.61-1.62-1.3-13.98-4.75-18.31Z"/>
          <path class="cls-65" d="M145.76,107.24c-.15,2.73.21,5.66,4.24,5.56,4.43-.11,4.5-3.1,4.04-5.59-2.75-14.76-7.74-10.14-8.28.03Z"/>
        </g>
        <path class="cls-27" d="M142.53,145.47s3.15-4.82,4.01-5.76c.83-.9,5.59-.59,6.37.38.81,1.01,3.51,5.25,3.51,5.25,0,0-4.17-3.02-4.69-3.36-.52-.34-2.34-1.34-3.68-.85-1.33.49-5.52,4.34-5.52,4.34Z"/>
        <g>
          <path class="cls-51" d="M128.25,129.76c-.07-.76,6.7-7.41,13.78-9.5,3.09-.91,6.78.33,8.16.33,2.01,0,3.94-.66,7-.16,7,1.13,12.1,8.56,12.9,9.54s.33,1.99-20.87,1.25c-15.92-.55-20.9-.69-20.97-1.45Z"/>
          <path class="cls-6" d="M140.02,132.15c-.26-.96,6.69-.22,10.38-.19,3.49.03,9.32-.69,9.62-.18.61,1.05-7.15,3.53-9.73,3.22-2.58-.3-9.5-.05-10.26-2.86Z"/>
          <path class="cls-66" d="M137.62,134.52s12.05,4.11,25.22-.61c0,0-3.95,3.67-12.43,3.84-4.08.08-9.16-.91-12.79-3.23Z"/>
          <path class="cls-64" d="M145.51,137.36s2.95.73,5.24.82c2.51.1,5.85-1.26,5.85-1.26,0,0-6.29,1.04-11.09.44Z"/>
          <path class="cls-50" d="M170.54,129.86c-.98-.79-9.87-7.8-20.77-7.92-12.87-.14-20.28,6.77-21.59,7.36-1.31.59-.2,1.1,0,1.13.2.03,11.59-.62,21.89-.47,12.35.17,20.39,1.04,20.56,1.01.18-.02.87-.33-.11-1.12Z"/>
          <path class="cls-24" d="M131.82,129.44s14.26,0,35.48.52c0,0-5.04-7.31-18.44-7.31s-17.05,6.78-17.05,6.78Z"/>
          <path class="cls-67" d="M138.11,124.57s3.77-2.08,12.05-1.93c6.84.12,10.3,2.28,10.3,2.28,0,0-2.98.49-10.9.58-6.73.08-11.45-.93-11.45-.93Z"/>
          <path class="cls-55" d="M138.11,124.57s4.12-2.21,11.52-2.01c7.4.21,9.34,1.42,10.83,2.35,0,0-1.99.2-2.2.24,0,0-3.13-1.48-8.97-1.52-5.85-.03-8.83,1.32-8.83,1.32,0,0-1.89-.26-2.35-.39Z"/>
        </g>
      </g>
      <path class="cls-21" d="M249.11,273.65l-.39,24.93h11.57c-5.01-8.14-8.9-16.65-11.18-24.93Z"/>
      <path class="cls-53" d="M249.23,284.3c1.34-6.84,9.9-42.75,9.9-42.75l-19.41,43.43,3.66,13.6h10.56c-2.94-7.79-4.87-13.45-4.71-14.28Z"/>
      <path class="cls-52" d="M29.85,209.68s34.61,62.94,44.87,69.91c10.05,6.83,149.97,11.02,163.56-4.36l33.66-65.55-75.82-40.06-25.55,19.4-22.29,32.48-39.06-50.54-79.37,38.72Z"/>
      <path class="cls-54" d="M147.92,171.94s14.38.95,19.77-2.32c4.71-2.85-13.45,19.15-14.94,19.39-1.49.24-4.83-17.08-4.83-17.08Z"/>
      <polygon class="cls-61" points="239.72 284.98 240.32 298.58 243.38 298.58 239.72 284.98"/>
      <path class="cls-60" d="M50.78,285.74l5.51-11.59-25.9-64.47s-14.27,1.44-25.41,64.28c-1.47,8.28-3.21,16.63-4.98,24.61h45.86c2.01-4.06,3.68-8.34,4.91-12.84Z"/>
      <path class="cls-21" d="M53.21,273.65c-2.28,8.28-6.17,16.79-11.18,24.93h11.57l-.39-24.93Z"/>
      <path class="cls-62" d="M62.6,284.98l-22.95-52.23s12.09,44.72,13.43,51.55c.16.83-1.77,6.49-4.71,14.28h10.56l3.66-13.6Z"/>
      <polygon class="cls-68" points="62.6 284.98 58.94 298.58 62 298.58 62.6 284.98"/>
      <path class="cls-63" d="M165.56,219.33c-5.41,2.22-11.92,2.3-17.59,3.77,0,0-1.35,34.1-2.97,75.48h16.49l4.07-79.25Z"/>
      <g>
        <path class="cls-69" d="M135.52,190.45s6.83,6.28,8.09,7.39c1.21,1.06,4.95,18.55,4.95,18.55l-2.15,36.69-19.64-54.48,8.75-8.14Z"/>
        <path class="cls-31" d="M105.15,178.55c0,4.09,7.23,33.57,7.7,35.15,0,0,8.93-7.71,14.93-12.5l7.74-10.75s-30.37-15.99-30.37-11.9Z"/>
        <path class="cls-32" d="M120.62,157.09s-4.95,6.31-2.42,14.92c2.37,8.05,17.32,18.44,17.32,18.44,0,0-17.89,14.96-21.35,18.33-2.42-8.47-11.57-31.91-9.46-35.24,4.05-6.4,9.85-13.15,15.91-16.46Z"/>
        <path class="cls-33" d="M120.62,157.09s-6.34,8.26,1.06,19.17c5.29,7.81,13.85,14.19,13.85,14.19,0,0-11.6-8.15-14.62-11.87-9.34-11.48-.28-21.5-.28-21.5Z"/>
        <path class="cls-30" d="M164.05,190.15c-2.29,1.5-5.28,3.58-9,6.48-1.57,1.22-7.59,21.77-7.07,26.47.07.62.11,1.55.12,2.66,5.63-1.64,12.14-2.05,17.9-3.27.69-6.2.88-12.67,1.49-18.46.04-.37.33-5.32.33-5.32.38-3.66.16-3.46.33-5.85-2.01-.16-3.45-1.22-4.1-2.71Z"/>
        <path class="cls-38" d="M164.05,190.15l3.77,8.56c4.24,3.31,17.16,11.62,23.79,14.99.81.41,5.84-30.09,7.04-38.56l-34.61,15.01Z"/>
        <polygon class="cls-36" points="165.56 257.73 167.83 198.71 163.58 244.55 162.05 280.34 162.05 280.51 161.24 298.58 162.5 298.58 165.56 257.73"/>
        <path class="cls-39" d="M147.98,234.42v-11.33s-.29,2.9-.69,6.98c-.62,6.3-3.35,36.54-4.19,68.5h2.16l2.72-64.16Z"/>
        <path class="cls-37" d="M164.05,190.15s24.1,16.27,27.17,19.59c2.69-10.61,7.76-30.97,7.76-37.04,0-3.19-13.63-15.47-16.77-17.07,0,0,1.77,5.23.87,10.31-3.22,18.22-19.03,24.21-19.03,24.21Z"/>
        <path class="cls-35" d="M164.05,190.15s23.66-11.19,18.16-34.52c0,0,13.59,22.67-18.16,34.52Z"/>
        <path class="cls-34" d="M139.75,206.15c0,1.17-1.06,2.12-2.36,2.12s-2.36-.95-2.36-2.12,1.06-2.12,2.36-2.12,2.36.95,2.36,2.12Z"/>
        <path class="cls-72" d="M164.05,190.15s-6.61,4.6-9.72,6.19c-3.11,1.6-5.9,21.93-5.9,21.93,0,0,5.63-17.71,6.65-19.36,1.02-1.65,8.97-8.76,8.97-8.76Z"/>
        <path class="cls-73" d="M156.46,284.98c0,1.17-1.06,2.12-2.36,2.12s-2.36-.95-2.36-2.12,1.06-2.12,2.36-2.12,2.36.95,2.36,2.12Z"/>
        <path class="cls-74" d="M157.92,243.81c0,1.2-1.06,2.16-2.36,2.16s-2.36-.97-2.36-2.16,1.06-2.16,2.36-2.16,2.36.97,2.36,2.16Z"/>
      </g>
      <path class="cls-70" d="M176.5,198.71l14.73,11.03,4.57-18.83s-4.43,12.8-5.5,13.13c-1.07.33-13.8-5.33-13.8-5.33Z"/>
      <path class="cls-71" d="M109.42,194.38l4.75,14.41,13.61-11.82s-12.26,8.56-12.72,8.39-5.63-10.98-5.63-10.98Z"/>
    </g>
  </g>
</svg>