<?xml version="1.0" encoding="UTF-8"?>
<svg id="Layer_2" data-name="Layer 2" xmlns="http://www.w3.org/2000/svg" xmlns:xlink="http://www.w3.org/1999/xlink" viewBox="0 0 302.32 298.31">
  <defs>
    <style>
      .cls-1 {
        fill: url(#Gradient_58);
      }

      .cls-2 {
        fill: url(#Gradient_32);
      }

      .cls-3 {
        fill: url(#Gradient_96);
      }

      .cls-4 {
        fill: url(#Gradient_27);
      }

      .cls-5 {
        fill: url(#Gradient_25);
      }

      .cls-6 {
        fill: url(#Gradient_113);
      }

      .cls-7 {
        fill: url(#Gradient_115);
      }

      .cls-8 {
        fill: url(#radial-gradient-2);
      }

      .cls-9 {
        fill: url(#linear-gradient-8);
      }

      .cls-10 {
        fill: url(#linear-gradient-7);
      }

      .cls-11 {
        fill: url(#linear-gradient-5);
      }

      .cls-12 {
        fill: url(#linear-gradient-6);
      }

      .cls-13 {
        fill: url(#linear-gradient-9);
      }

      .cls-14 {
        fill: url(#linear-gradient-4);
      }

      .cls-15 {
        fill: url(#linear-gradient-3);
      }

      .cls-16 {
        fill: url(#linear-gradient-2);
      }

      .cls-17 {
        fill: url(#radial-gradient);
      }

      .cls-18 {
        fill: url(#linear-gradient);
      }

      .cls-19 {
        fill: #ddd;
      }

      .cls-20 {
        fill: #192b51;
      }

      .cls-21 {
        fill: #fff;
      }

      .cls-22 {
        fill: #f0c499;
      }

      .cls-23 {
        fill: url(#Gradient_115-4);
      }

      .cls-24 {
        fill: url(#Gradient_115-5);
      }

      .cls-25 {
        fill: url(#Gradient_115-6);
      }

      .cls-26 {
        fill: url(#Gradient_115-3);
      }

      .cls-27 {
        fill: url(#Gradient_115-2);
      }

      .cls-28 {
        fill: url(#Gradient_113-2);
      }

      .cls-29 {
        fill: url(#linear-gradient-43);
      }

      .cls-30 {
        fill: url(#linear-gradient-40);
      }

      .cls-31 {
        fill: url(#linear-gradient-41);
      }

      .cls-32 {
        fill: url(#linear-gradient-42);
      }

      .cls-33 {
        fill: url(#linear-gradient-49);
      }

      .cls-34 {
        fill: url(#linear-gradient-48);
      }

      .cls-35 {
        fill: url(#linear-gradient-45);
      }

      .cls-36 {
        fill: url(#linear-gradient-47);
      }

      .cls-37 {
        fill: url(#linear-gradient-44);
      }

      .cls-38 {
        fill: url(#linear-gradient-46);
      }

      .cls-39 {
        fill: url(#linear-gradient-10);
      }

      .cls-40 {
        fill: url(#linear-gradient-11);
      }

      .cls-41 {
        fill: url(#linear-gradient-12);
      }

      .cls-42 {
        fill: url(#linear-gradient-13);
      }

      .cls-43 {
        fill: url(#linear-gradient-19);
      }

      .cls-44 {
        fill: url(#linear-gradient-14);
      }

      .cls-45 {
        fill: url(#linear-gradient-21);
      }

      .cls-46 {
        fill: url(#linear-gradient-20);
      }

      .cls-47 {
        fill: url(#linear-gradient-22);
      }

      .cls-48 {
        fill: url(#linear-gradient-23);
      }

      .cls-49 {
        fill: url(#linear-gradient-28);
      }

      .cls-50 {
        fill: url(#linear-gradient-25);
      }

      .cls-51 {
        fill: url(#linear-gradient-32);
      }

      .cls-52 {
        fill: url(#linear-gradient-31);
      }

      .cls-53 {
        fill: url(#linear-gradient-33);
      }

      .cls-54 {
        fill: url(#linear-gradient-30);
      }

      .cls-55 {
        fill: url(#linear-gradient-15);
      }

      .cls-56 {
        fill: url(#linear-gradient-16);
      }

      .cls-57 {
        fill: url(#linear-gradient-17);
      }

      .cls-58 {
        fill: url(#linear-gradient-18);
      }

      .cls-59 {
        fill: url(#linear-gradient-35);
      }

      .cls-60 {
        fill: url(#linear-gradient-34);
      }

      .cls-61 {
        fill: url(#linear-gradient-36);
      }

      .cls-62 {
        fill: url(#linear-gradient-38);
      }

      .cls-63 {
        fill: url(#linear-gradient-27);
      }

      .cls-64 {
        fill: url(#linear-gradient-24);
      }

      .cls-65 {
        fill: url(#linear-gradient-26);
      }

      .cls-66 {
        fill: url(#linear-gradient-29);
      }

      .cls-67 {
        fill: url(#linear-gradient-37);
      }

      .cls-68 {
        fill: url(#linear-gradient-39);
      }

      .cls-69 {
        fill: url(#linear-gradient-53);
      }

      .cls-70 {
        fill: url(#linear-gradient-54);
      }

      .cls-71 {
        fill: url(#linear-gradient-50);
      }

      .cls-72 {
        fill: url(#linear-gradient-51);
      }

      .cls-73 {
        fill: url(#linear-gradient-52);
      }

      .cls-74 {
        fill: url(#Gradient_32-2);
      }

      .cls-75 {
        fill: url(#Gradient_58-3);
      }

      .cls-76 {
        fill: url(#Gradient_58-2);
      }

      .cls-77 {
        fill: url(#Gradient_25-2);
      }

      .cls-78 {
        fill: url(#Gradient_96-2);
      }

      .cls-79 {
        fill: url(#Gradient_96-3);
      }

      .cls-80 {
        fill: url(#Gradient_96-4);
      }

      .cls-81 {
        fill: url(#Gradient_27-9);
      }

      .cls-82 {
        fill: url(#Gradient_27-2);
      }

      .cls-83 {
        fill: url(#Gradient_27-4);
      }

      .cls-84 {
        fill: url(#Gradient_27-3);
      }

      .cls-85 {
        fill: url(#Gradient_27-6);
      }

      .cls-86 {
        fill: url(#Gradient_27-5);
      }

      .cls-87 {
        fill: url(#Gradient_27-8);
      }

      .cls-88 {
        fill: url(#Gradient_27-7);
      }

      .cls-89 {
        fill: #dca57b;
      }
    </style>
    <linearGradient id="linear-gradient" x1="100.51" y1="101.15" x2="194.15" y2="243.03" gradientUnits="userSpaceOnUse">
      <stop offset="0" stop-color="#0b173d"/>
      <stop offset=".5" stop-color="#0c193f"/>
      <stop offset=".82" stop-color="#132248"/>
      <stop offset="1" stop-color="#192b51"/>
    </linearGradient>
    <linearGradient id="linear-gradient-2" x1="177.22" y1="161.3" x2="192.79" y2="165.68" gradientUnits="userSpaceOnUse">
      <stop offset="0" stop-color="#f0c499"/>
      <stop offset=".52" stop-color="#f4cfa5"/>
      <stop offset="1" stop-color="#f7d4ab"/>
    </linearGradient>
    <linearGradient id="linear-gradient-3" x1="126.94" y1="167.45" x2="192.16" y2="185.76" xlink:href="#linear-gradient-2"/>
    <linearGradient id="linear-gradient-4" x1="148.34" y1="204.83" x2="117.24" y2="163.16" gradientUnits="userSpaceOnUse">
      <stop offset="0" stop-color="#f0c499"/>
      <stop offset=".51" stop-color="#e3b086"/>
      <stop offset="1" stop-color="#dba379"/>
    </linearGradient>
    <linearGradient id="linear-gradient-5" x1="190.83" y1="167.05" x2="123.65" y2="141.72" xlink:href="#linear-gradient-4"/>
    <linearGradient id="linear-gradient-6" x1="44.72" y1="192.07" x2="35.69" y2="295.27" gradientUnits="userSpaceOnUse">
      <stop offset="0" stop-color="#2b416b"/>
      <stop offset=".46" stop-color="#293e68"/>
      <stop offset=".75" stop-color="#23375f"/>
      <stop offset="1" stop-color="#192b51"/>
    </linearGradient>
    <linearGradient id="linear-gradient-7" x1="273.55" y1="209.94" x2="274.68" y2="347.31" xlink:href="#linear-gradient-6"/>
    <linearGradient id="linear-gradient-8" x1="249.38" y1="231.03" x2="249.67" y2="424.8" xlink:href="#linear-gradient"/>
    <linearGradient id="linear-gradient-9" x1="150.23" y1="170.71" x2="152.77" y2="318.7" xlink:href="#linear-gradient-6"/>
    <linearGradient id="linear-gradient-10" x1="84.55" y1="-306.93" x2="83.59" y2="-255.98" gradientTransform="translate(49.8 333.03) rotate(3.42) scale(1 .96)" gradientUnits="userSpaceOnUse">
      <stop offset="0" stop-color="#ffd9b3"/>
      <stop offset=".28" stop-color="#fbd6af"/>
      <stop offset="1" stop-color="#f7d4ab"/>
    </linearGradient>
    <linearGradient id="linear-gradient-11" x1="-55.08" y1="673.16" x2="-44.92" y2="697.81" gradientTransform="translate(152.86 -683.33) rotate(177.48) scale(.99 -1.14) skewX(3.14)" gradientUnits="userSpaceOnUse">
      <stop offset="0" stop-color="#dba379"/>
      <stop offset=".49" stop-color="#e3b086"/>
      <stop offset="1" stop-color="#f0c499"/>
    </linearGradient>
    <linearGradient id="linear-gradient-12" x1="1079.54" y1="635.01" x2="1089.56" y2="659.3" gradientTransform="translate(-984.24 -679.06) rotate(2) scale(.99 1.14) skewX(3.13)" xlink:href="#linear-gradient-11"/>
    <linearGradient id="linear-gradient-13" x1="97.16" y1="-227.64" x2="113.57" y2="-212.15" gradientTransform="translate(51.37 297.92) rotate(3.42)" xlink:href="#linear-gradient-2"/>
    <linearGradient id="linear-gradient-14" x1="65.72" y1="-224.89" x2="61.87" y2="-208.58" gradientTransform="translate(51.37 297.92) rotate(3.42)" xlink:href="#linear-gradient-2"/>
    <radialGradient id="radial-gradient" cx="-265.78" cy="-254.94" fx="-265.78" fy="-254.94" r="23.04" gradientTransform="translate(-75.7 294.7) rotate(177.65) scale(1.02 -.71) skewX(-1.54)" gradientUnits="userSpaceOnUse">
      <stop offset="0" stop-color="#f8c39c"/>
      <stop offset="1" stop-color="#f7d4ab"/>
    </radialGradient>
    <radialGradient id="radial-gradient-2" cx="232.52" cy="-301.74" fx="232.52" fy="-301.74" r="23.63" gradientTransform="translate(-84.36 324.73) rotate(-3.81) scale(1.02 .69) skewX(2.86)" xlink:href="#radial-gradient"/>
    <linearGradient id="linear-gradient-15" x1="243.07" y1="151.47" x2="228.9" y2="156.35" gradientTransform="translate(-53.56 -56.15) rotate(-.26)" gradientUnits="userSpaceOnUse">
      <stop offset="0" stop-color="#fbd6af"/>
      <stop offset="1" stop-color="#f7d4ab"/>
    </linearGradient>
    <linearGradient id="linear-gradient-16" x1="179.16" y1="156.36" x2="158.13" y2="151.22" xlink:href="#linear-gradient-15"/>
    <linearGradient id="Gradient_58" data-name="Gradient 58" x1="-2935.94" y1="99.55" x2="-2910.46" y2="99.55" gradientTransform="translate(-2799.57 -28.07) rotate(-179.93) scale(1 -1)" gradientUnits="userSpaceOnUse">
      <stop offset="0" stop-color="#2b1b13"/>
      <stop offset=".04" stop-color="#2e1d14"/>
      <stop offset=".38" stop-color="#442b1d"/>
      <stop offset=".71" stop-color="#513423"/>
      <stop offset="1" stop-color="#563725"/>
    </linearGradient>
    <linearGradient id="Gradient_58-2" data-name="Gradient 58" x1="447.37" y1="100.01" x2="475.17" y2="100.01" gradientTransform="translate(-284.36 -25.59) rotate(.07)" xlink:href="#Gradient_58"/>
    <linearGradient id="linear-gradient-17" x1="241.54" y1="143.73" x2="214.4" y2="166.93" gradientTransform="translate(-51.48 -73.48) rotate(1.21)" xlink:href="#linear-gradient-4"/>
    <linearGradient id="linear-gradient-18" x1="233.93" y1="122.45" x2="208.67" y2="116.35" gradientTransform="translate(-44.57 -30.97)" gradientUnits="userSpaceOnUse">
      <stop offset="0" stop-color="#ece7e7"/>
      <stop offset=".23" stop-color="#f5f3f3"/>
      <stop offset=".53" stop-color="#fcfcfc"/>
      <stop offset="1" stop-color="#fff"/>
    </linearGradient>
    <linearGradient id="Gradient_96" data-name="Gradient 96" x1="237.16" y1="137.05" x2="213.18" y2="115.29" gradientTransform="translate(-44.57 -30.97)" gradientUnits="userSpaceOnUse">
      <stop offset="0" stop-color="#a8c3dd"/>
      <stop offset="1" stop-color="#7a90a5"/>
    </linearGradient>
    <linearGradient id="Gradient_96-2" data-name="Gradient 96" x1="110.55" y1="-205.03" x2="109.75" y2="-212.43" gradientTransform="translate(51.37 297.92) rotate(3.42)" xlink:href="#Gradient_96"/>
    <radialGradient id="Gradient_25" data-name="Gradient 25" cx="-882.47" cy="136.54" fx="-882.47" fy="136.54" r="4.03" gradientTransform="translate(1066.99 -28.81) rotate(1.3) skewX(.07)" gradientUnits="userSpaceOnUse">
      <stop offset="0" stop-color="#666"/>
      <stop offset="1" stop-color="#1d1d1d"/>
    </radialGradient>
    <linearGradient id="linear-gradient-19" x1="147.11" y1="149.06" x2="167.34" y2="148.09" gradientTransform="translate(18.4 -67.03) rotate(1.2)" gradientUnits="userSpaceOnUse">
      <stop offset="0" stop-color="#2b1b13"/>
      <stop offset=".04" stop-color="#2e1d14"/>
      <stop offset=".38" stop-color="#442b1d"/>
      <stop offset=".71" stop-color="#513423"/>
      <stop offset="1" stop-color="#563725"/>
    </linearGradient>
    <linearGradient id="linear-gradient-20" x1="94.1" y1="-110.6" x2="91.71" y2="-141.66" gradientTransform="translate(51.37 297.92) rotate(3.42)" gradientUnits="userSpaceOnUse">
      <stop offset="0" stop-color="#f7d4ab"/>
      <stop offset=".45" stop-color="#f3caa0"/>
      <stop offset="1" stop-color="#f0c499"/>
    </linearGradient>
    <linearGradient id="linear-gradient-21" x1="-2920.05" y1="210.92" x2="-2946.99" y2="233.95" gradientTransform="translate(-2809.04 -73.82) rotate(178.8) scale(1 -1)" xlink:href="#linear-gradient-4"/>
    <linearGradient id="linear-gradient-22" x1="190.13" y1="122.22" x2="164.19" y2="115.96" xlink:href="#linear-gradient-18"/>
    <linearGradient id="Gradient_96-3" data-name="Gradient 96" x1="192.87" y1="137.37" x2="168.8" y2="115.53" xlink:href="#Gradient_96"/>
    <linearGradient id="Gradient_96-4" data-name="Gradient 96" x1="66.09" y1="-200.2" x2="65.29" y2="-207.59" gradientTransform="translate(51.37 297.92) rotate(3.42)" xlink:href="#Gradient_96"/>
    <radialGradient id="Gradient_25-2" data-name="Gradient 25" cx="-4261.16" cy="213.92" fx="-4261.16" fy="213.92" r="4.03" gradientTransform="translate(-4138.55 -29.34) rotate(178.7) scale(1 -1) skewX(.09)" xlink:href="#Gradient_25"/>
    <linearGradient id="linear-gradient-23" x1="-3014.32" y1="215.22" x2="-2994.27" y2="214.26" gradientTransform="translate(-2878.92 -67.38) rotate(178.81) scale(1 -1)" xlink:href="#linear-gradient-19"/>
    <linearGradient id="Gradient_32" data-name="Gradient 32" x1="91.6" y1="-296.23" x2="74.52" y2="-145.51" gradientTransform="translate(51.37 297.92) rotate(3.42)" gradientUnits="userSpaceOnUse">
      <stop offset="0" stop-color="#724831"/>
      <stop offset=".22" stop-color="#67412c"/>
      <stop offset=".63" stop-color="#5a3926"/>
      <stop offset="1" stop-color="#563725"/>
    </linearGradient>
    <linearGradient id="Gradient_32-2" data-name="Gradient 32" x1="40.3" y1="-257.65" x2="29.56" y2="-162.82" xlink:href="#Gradient_32"/>
    <linearGradient id="linear-gradient-24" x1="93.96" y1="-229.84" x2="93.64" y2="-233.98" gradientTransform="translate(47.2 367.05) rotate(3.42) scale(1 .93)" xlink:href="#linear-gradient-20"/>
    <linearGradient id="Gradient_27" data-name="Gradient 27" x1="151.88" y1="47.33" x2="164.24" y2="6.63" gradientUnits="userSpaceOnUse">
      <stop offset="0" stop-color="#724831"/>
      <stop offset=".42" stop-color="#7f553b"/>
      <stop offset="1" stop-color="#8e6346"/>
    </linearGradient>
    <linearGradient id="linear-gradient-25" x1="94.27" y1="-228.32" x2="93.9" y2="-233.14" gradientTransform="translate(47.2 367.05) rotate(3.42) scale(1 .93)" xlink:href="#linear-gradient-20"/>
    <linearGradient id="Gradient_115" data-name="Gradient 115" x1="150.47" y1="110.73" x2="143.59" y2="188.63" gradientUnits="userSpaceOnUse">
      <stop offset="0" stop-color="#d6ac88"/>
      <stop offset="1" stop-color="#a18166"/>
    </linearGradient>
    <linearGradient id="Gradient_115-2" data-name="Gradient 115" x1="153.86" y1="110.24" x2="146.98" y2="188.13" xlink:href="#Gradient_115"/>
    <linearGradient id="Gradient_115-3" data-name="Gradient 115" x1="110.93" y1="-165.29" x2="109.98" y2="-169.31" gradientTransform="translate(51.37 297.92) rotate(3.42)" xlink:href="#Gradient_115"/>
    <linearGradient id="Gradient_115-4" data-name="Gradient 115" x1="74.85" y1="-164.34" x2="73.98" y2="-168.03" gradientTransform="translate(51.37 297.92) rotate(3.42)" xlink:href="#Gradient_115"/>
    <linearGradient id="linear-gradient-26" x1="300.56" y1="541.09" x2="300.65" y2="554.42" gradientTransform="translate(-167.81 -417.64) rotate(-1.95)" gradientUnits="userSpaceOnUse">
      <stop offset="0" stop-color="#f7d4ab"/>
      <stop offset=".52" stop-color="#f5d1a8"/>
      <stop offset=".85" stop-color="#f2c99f"/>
      <stop offset="1" stop-color="#f0c499"/>
    </linearGradient>
    <linearGradient id="linear-gradient-27" x1="221.4" y1="239.2" x2="221.57" y2="247.19" gradientTransform="translate(-72.85 -108.31) rotate(-.81)" gradientUnits="userSpaceOnUse">
      <stop offset="0" stop-color="#ffd9b3"/>
      <stop offset="1" stop-color="#f7d4ab"/>
    </linearGradient>
    <linearGradient id="linear-gradient-28" x1="300.93" y1="565.29" x2="300.74" y2="553.32" gradientTransform="translate(-167.81 -417.64) rotate(-1.95)" gradientUnits="userSpaceOnUse">
      <stop offset="0" stop-color="#f0c499"/>
      <stop offset=".52" stop-color="#f1c69b"/>
      <stop offset=".85" stop-color="#f4cea4"/>
      <stop offset="1" stop-color="#f7d4ab"/>
    </linearGradient>
    <linearGradient id="linear-gradient-29" x1="294.67" y1="562.73" x2="306.36" y2="562.73" gradientTransform="translate(-167.81 -417.64) rotate(-1.95)" xlink:href="#linear-gradient-11"/>
    <linearGradient id="linear-gradient-30" x1="302.53" y1="559.63" x2="297.39" y2="541.38" gradientTransform="translate(-167.81 -417.64) rotate(-1.95)" xlink:href="#linear-gradient-11"/>
    <linearGradient id="Gradient_115-5" data-name="Gradient 115" x1="91.9" y1="-207.75" x2="91.29" y2="-215.74" gradientTransform="translate(47.2 367.05) rotate(3.42) scale(1 .93)" xlink:href="#Gradient_115"/>
    <linearGradient id="Gradient_115-6" data-name="Gradient 115" x1="94.63" y1="-235.72" x2="93.51" y2="-240.45" gradientTransform="translate(47.2 367.05) rotate(3.42) scale(1 .93)" xlink:href="#Gradient_115"/>
    <linearGradient id="Gradient_113" data-name="Gradient 113" x1="89.64" y1="-198.14" x2="88.45" y2="-181.83" gradientTransform="translate(51.37 297.92) rotate(3.42)" gradientUnits="userSpaceOnUse">
      <stop offset="0" stop-color="#a18166"/>
      <stop offset="1" stop-color="#d6ac88"/>
    </linearGradient>
    <linearGradient id="Gradient_27-2" data-name="Gradient 27" x1="135.01" y1="42.21" x2="147.38" y2="1.51" xlink:href="#Gradient_27"/>
    <linearGradient id="Gradient_27-3" data-name="Gradient 27" x1="121.78" y1="38.52" x2="134.44" y2="-3.13" xlink:href="#Gradient_27"/>
    <linearGradient id="Gradient_27-4" data-name="Gradient 27" x1="113.09" y1="34.05" x2="125.46" y2="-6.65" xlink:href="#Gradient_27"/>
    <linearGradient id="Gradient_27-5" data-name="Gradient 27" x1="167.19" y1="51.99" x2="179.56" y2="11.29" xlink:href="#Gradient_27"/>
    <linearGradient id="Gradient_27-6" data-name="Gradient 27" x1="180.67" y1="56.08" x2="193.04" y2="15.38" xlink:href="#Gradient_27"/>
    <linearGradient id="Gradient_27-7" data-name="Gradient 27" x1="103.42" y1="32.61" x2="115.79" y2="-8.09" xlink:href="#Gradient_27"/>
    <linearGradient id="Gradient_27-8" data-name="Gradient 27" x1="27.72" y1="-248.33" x2="37.05" y2="-247.1" gradientTransform="translate(51.37 297.92) rotate(3.42)" xlink:href="#Gradient_27"/>
    <linearGradient id="Gradient_27-9" data-name="Gradient 27" x1="193.04" y1="60.04" x2="206.15" y2="16.9" xlink:href="#Gradient_27"/>
    <linearGradient id="Gradient_58-3" data-name="Gradient 58" x1="45.13" y1="-159.07" x2="138.49" y2="-326.3" gradientTransform="translate(51.37 297.92) rotate(3.42)" xlink:href="#Gradient_58"/>
    <linearGradient id="Gradient_113-2" data-name="Gradient 113" x1="89.8" y1="-198.19" x2="88.61" y2="-181.93" xlink:href="#Gradient_113"/>
    <linearGradient id="linear-gradient-31" x1="254.34" y1="328.71" x2="255.03" y2="353.07" gradientTransform="translate(-117.82 -237.34) rotate(-2.17)" xlink:href="#linear-gradient-26"/>
    <linearGradient id="linear-gradient-32" x1="254.76" y1="956.41" x2="256.27" y2="945.29" gradientTransform="translate(-166.14 -1506.24) rotate(-2.16) scale(1 1.7) skewX(.04)" xlink:href="#linear-gradient-10"/>
    <linearGradient id="linear-gradient-33" x1="148.79" y1="180.42" x2="167.03" y2="180.42" gradientTransform="matrix(1,0,0,1,0,0)" xlink:href="#linear-gradient-10"/>
    <linearGradient id="linear-gradient-34" x1="241.46" y1="231.04" x2="241.75" y2="424.81" xlink:href="#linear-gradient"/>
    <linearGradient id="linear-gradient-35" x1="27.47" y1="205.07" x2="28.61" y2="342.25" xlink:href="#linear-gradient-6"/>
    <linearGradient id="linear-gradient-36" x1="51.08" y1="231.33" x2="51.38" y2="425.1" xlink:href="#linear-gradient"/>
    <linearGradient id="linear-gradient-37" x1="60.68" y1="231.32" x2="60.97" y2="425.09" xlink:href="#linear-gradient"/>
    <linearGradient id="linear-gradient-38" x1="155.42" y1="207.41" x2="155.15" y2="312.58" xlink:href="#linear-gradient-6"/>
    <linearGradient id="linear-gradient-39" x1="164.56" y1="350.83" x2="136.23" y2="199.54" xlink:href="#linear-gradient-6"/>
    <linearGradient id="linear-gradient-40" x1="119.04" y1="247.87" x2="119.88" y2="206.43" xlink:href="#linear-gradient-6"/>
    <linearGradient id="linear-gradient-41" x1="119.96" y1="289.68" x2="119.96" y2="166.46" xlink:href="#linear-gradient-6"/>
    <linearGradient id="linear-gradient-42" x1="126.32" y1="194.06" x2="125.28" y2="122.41" xlink:href="#linear-gradient"/>
    <linearGradient id="linear-gradient-43" x1="125.04" y1="327.72" x2="170.35" y2="174.78" xlink:href="#linear-gradient-6"/>
    <linearGradient id="linear-gradient-44" x1="179.93" y1="252.23" x2="180.81" y2="209.06" xlink:href="#linear-gradient-6"/>
    <linearGradient id="linear-gradient-45" x1="162.01" y1="305.39" x2="169.37" y2="149.02" xlink:href="#linear-gradient"/>
    <linearGradient id="linear-gradient-46" x1="152.6" y1="303.1" x2="138.18" y2="216.34" xlink:href="#linear-gradient"/>
    <linearGradient id="linear-gradient-47" x1="181.52" y1="301.01" x2="181.52" y2="163.74" xlink:href="#linear-gradient-6"/>
    <linearGradient id="linear-gradient-48" x1="174.8" y1="193.58" x2="173.91" y2="132" xlink:href="#linear-gradient"/>
    <linearGradient id="linear-gradient-49" x1="134.08" y1="200.86" x2="140.29" y2="210.28" xlink:href="#linear-gradient"/>
    <linearGradient id="linear-gradient-50" x1="161.18" y1="212.26" x2="171.47" y2="229.58" xlink:href="#linear-gradient-6"/>
    <linearGradient id="linear-gradient-51" x1="187.11" y1="193.82" x2="147.08" y2="304.04" gradientUnits="userSpaceOnUse">
      <stop offset="0" stop-color="#2b416b"/>
      <stop offset=".54" stop-color="#1f325a"/>
      <stop offset="1" stop-color="#192b51"/>
    </linearGradient>
    <linearGradient id="linear-gradient-52" x1="172.73" y1="196.27" x2="137.94" y2="292.04" gradientUnits="userSpaceOnUse">
      <stop offset="0" stop-color="#2b416b"/>
      <stop offset=".53" stop-color="#1f335a"/>
      <stop offset="1" stop-color="#192b51"/>
    </linearGradient>
    <linearGradient id="linear-gradient-53" x1="194.87" y1="209.22" x2="205.67" y2="227.41" xlink:href="#linear-gradient-6"/>
    <linearGradient id="linear-gradient-54" x1="122.53" y1="205.22" x2="131.94" y2="221.06" xlink:href="#linear-gradient-6"/>
  </defs>
  <g id="Layer_1-2" data-name="Layer 1">
    <g>
      <path class="cls-18" d="M119.11,157.8s25.47-18.7,63.1-2.44c0,0,17.81,22.47.85,38.81s-59.9,14.8-66.11,1.41c-6.2-13.39-2.78-34.93,2.16-37.78Z"/>
      <path class="cls-16" d="M182.95,175.15l6.66-8.51s-7.23-2.17-10.07-16.92c-.12.11-.24.22-.36.33-.87,8.81.71,17.24,3.77,25.09Z"/>
      <path class="cls-15" d="M179.18,150.06c-11.43,10.5-17.98,20.08-32.69,19.16-5.69,0-15.91-2.49-23.03-7.19,5.96,11.97,17.22,21.08,26.44,29.14,3.8,3.8,5.36,10.31,7.33,16.85l25.73-32.86c-3.06-7.85-4.64-16.28-3.77-25.09Z"/>
      <path class="cls-14" d="M132.6,167.25c-.75-.5-10.62-6.24-11.3-6.78-1.21,2.84-2.69,5.81-4.52,8.9l31.5,51.88,8.94-13.23c-1.96-6.54-3.52-13.04-7.33-16.85-9.22-8.06-11.33-11.94-17.29-23.91Z"/>
      <path class="cls-11" d="M179.54,149.72c-.53-2.76-.91-5.96-1.06-9.66l-58.14-14.7s3.12,16.83.97,35.1c7.04,5.71,19.74,11.05,26.03,11.05,14.87.93,23.74-3.63,32.21-21.8Z"/>
      <path class="cls-20" d="M271.94,209.42c-15.56-5.75-74.21-32.38-74.21-32.38l-47.79,44.91-40.82-44.91s-68.63,27.64-79.27,32.38l28.4,84.45-.06,4.45h186.72l27.03-88.9Z"/>
      <path class="cls-12" d="M58.25,277.54l-28.4-68.13c-12.03,9.93-14.9,49.15-15.13,88.9h43.45c.1-7.31-.56-14.75.08-20.77Z"/>
      <path class="cls-10" d="M297.34,273.7c-11.14-62.84-25.41-64.28-25.41-64.28l-25.9,64.47,5.51,11.59c1.24,4.5,2.9,8.78,4.91,12.84h45.86c-1.76-7.98-3.51-16.33-4.98-24.61Z"/>
      <path class="cls-20" d="M249.11,273.39l-.39,24.93h11.57c-5.01-8.14-8.9-16.65-11.18-24.93Z"/>
      <path class="cls-9" d="M249.23,284.03c1.34-6.84,9.9-42.75,9.9-42.75l-19.41,43.43,3.66,13.6h10.56c-2.94-7.79-4.87-13.45-4.71-14.28Z"/>
      <path class="cls-13" d="M29.85,209.42s34.61,62.94,44.87,69.91c10.05,6.83,149.97,11.02,163.56-4.36l33.66-65.55-75.82-40.06-25.55,19.4-22.29,32.48-39.06-50.54-79.37,38.72Z"/>
      <g>
        <path class="cls-39" d="M106.98,86.67s3.46,47.01,4.77,48.98c1.31,1.97,21.13,21.8,23.68,23.98,2.56,2.18,29.12.84,29.12.84,0,0,22.32-20.01,24.25-23.22,1.93-3.21,5.23-51.32,5.23-51.32,0,0,5.86-37.79-3.18-50.75-9.04-12.96-70.64-17.16-80.85.87-10.22,18.03-3.02,50.64-3.02,50.64Z"/>
        <g>
          <path class="cls-22" d="M201.84,82.01c9.63-.7,3.36,14.42,3.36,14.42-3.73,19.58-2.12,22.95-10.69,22.21-6.34-.54.45-36.13,7.33-36.63Z"/>
          <path class="cls-40" d="M196.09,110.16s3.05-3.42,2.89-10.76c-.37-17.29,8.73-17.61,5.59-6.13,0,0-.73-5.62-2.02-4.08-1.59,1.89,1.2,3.28-1.1,11.97-1.2,4.51-5.37,9-5.37,9Z"/>
        </g>
        <g>
          <path class="cls-22" d="M99.76,82.28c-9.63-.39-3.52,14.53-3.52,14.53,3.52,19.46,2.99,22.36,10.44,21.87,8.37-.55-.05-36.12-6.93-36.4Z"/>
          <path class="cls-41" d="M105.2,110.25s-3.01-3.32-2.78-10.66c.56-17.31-8.54-17.33-5.53-5.95,0,0,.79-5.64,2.07-4.15,1.57,1.83-1.24,3.32.96,11.93,1.15,4.48,5.27,8.83,5.27,8.83Z"/>
        </g>
        <path class="cls-42" d="M163.39,75.41s-6.51,7.86-6.36,8.73c.14.87,1.25,11.36,1.25,11.36,0,0,25.36-.8,28.67-1.84,3.31-1.04,4.15-7.54,4.15-7.54l-3.54-5.29s-7.6-7.29-8.34-6.8c-.74.49-15.83,1.37-15.83,1.37Z"/>
        <path class="cls-44" d="M136.93,75.4s6.42,7.48,6.31,8.35-.45,11.54-.45,11.54c0,0-25.37.15-28.72-.76s-4.43-7.38-4.43-7.38l3.34-5.42s7.32-7.57,8.08-7.1c.76.47,15.87.77,15.87.77Z"/>
        <path class="cls-17" d="M175.83,118.6c8.19.5,17.34-.56,18.98-17.22.94-9.49-.12-14.44-4.18-15.16-8.6-1.54-20.91,2.21-26.03,4.86-10.82,5.59-3.28,26.63,11.23,27.52Z"/>
        <path class="cls-8" d="M134.81,89.81c-2.34-.83-20.19-4.74-25.49-3.19-3.03.88-1.73,7.56-1.19,13.9.26,3.04.24,7.92.95,9.83,3.47,9.37,16.55,9.73,24.09,7.07,12.86-4.53,13.54-23.42,1.65-27.62Z"/>
        <path class="cls-55" d="M189.79,92.73c-1.48-.81-2.57.38-5.64,1.38-3.01.98-11.23,2.55-7.35,4.59,4.28,2.26,10.24-.89,10.96-1.48.72-.59,3.85-3.49,2.03-4.49Z"/>
        <path class="cls-56" d="M117.07,95.03c-3.12-.82-4.28-1.94-5.71-1.05-1.76,1.1,1.54,3.82,2.3,4.36.75.55,6.9,3.34,11.03.83,3.75-2.27-4.55-3.34-7.61-4.14Z"/>
        <path class="cls-1" d="M116.15,73.76c2.22-3.48,10.27-2.92,14.21-2.83,2.23.05,5.38.12,7.42.87.24,1.25.27,2.15-.12,3.62.91-.78,1.12-2.21.92-3.21.05.03,1.54,2.23.17,4.76-.66,1.2-4.19.2-12.38-.02-2.23-.06-6.03-.38-9.1.62-1.12.37-3.39,1.55-3.39,1.55-.24-.4,1.23-3.71,2.28-5.37Z"/>
        <path class="cls-76" d="M184.15,73.36c-1.76-2.61-9.5-2.72-13.56-2.52-2.08.1-7.39-.05-9.48.69-.24,1.25-.28,2.14.13,3.62-.94-.79-1.15-2.22-.94-3.22-.06.03-1.58,2.22-.16,4.76.67,1.21,4.29.22,12.69.06,2.28-.04,7.15-.13,9.32.68,1.14.42,5.16,1.77,5.16,1.77.25-.4-1.18-2.9-3.16-5.83Z"/>
        <g>
          <path class="cls-57" d="M160.21,90.91c-1.01-1.22.04-3.83.61-5.46,1.79-5.09,5.66-6.78,13.69-6.96,2.63-.06,7.18.5,9.98,3.07,2.15,1.98,3.39,3.95,3.15,5.72-.12.9-4.34,5.95-13.09,6.22-5.72.18-12.23-.05-14.34-2.59Z"/>
          <path class="cls-58" d="M183.49,87.22c-.22.59-.54,1.11-.94,1.58-.62.75-1.41,1.35-2.3,1.83-.33.15-.68.25-1.05.33-.05.02-.1.02-.14.03-.59.13-1.14.26-1.66.36-2.77.55-4.91.81-6.73.81-.74,0-1.42-.05-2.07-.13-.32-.03-.63-.1-.93-.18-2.66-.62-4.66-2.36-5.04-3.08,0,0,0-.02.02-.03v-.02c.14-.33,1.17-2.54,2.82-4.3,1.03-1.09,2.31-2.01,3.79-2.17.47-.05.93-.1,1.39-.11,8.3-.34,12.45,4.58,12.83,5.06.02.02.02.03.02.03Z"/>
          <path class="cls-19" d="M183.46,87.19s.02.03.02.03c-.23.59-.55,1.12-.94,1.59-.1-.06-.22-.13-.35-.2-.84-.45-2.35-1.06-5.19-1.3-11.72-.97-14.24,1.29-14.37,1.41,0,0,0,0,0,0,.36-1.86,1.42-3.26,2.82-4.31,1.47-1.1,3.33-1.82,5.18-2.28,1.52-.38,3.03-.59,4.32-.69,4.15-.32,8.15,5.23,8.51,5.73Z"/>
          <path class="cls-3" d="M179.94,89.26c-.06.34-.23,1.27-.44,1.63-.13.08-.58.26-.76.34-.59.13-1.22.32-1.74.42-2.77.55-4.5.51-6.33.51-.74,0-1.42-.05-2.07-.13-.32-.03-.63-.1-.93-.18-.57-.75-1.11-1.84-1.08-3.34.09-3.96,3.42-5.72,7.1-5.43,3.66.31,6.84,2.36,6.26,6.18Z"/>
          <path class="cls-78" d="M166.72,87.32s5.2-1.13,13.26.56c0,0-.15-4.12-5.01-5.01-4.56-.83-7.92,2.1-8.26,4.45Z"/>
          <path class="cls-5" d="M173.64,83.63c-2.25-.12-4.32,1.64-4.43,3.9-.11,2.26,1.79,4.16,4.03,4.28,2.25.12,4.16-1.62,4.27-3.88.11-2.26-1.63-4.18-3.87-4.3Z"/>
          <path d="M173.49,83.63c-2.65-.15-3.89,1.78-4.22,3.39,0,0,4.36-.43,8.24.38,0,0-.21-3.56-4.01-3.77Z"/>
          <path class="cls-21" d="M179.07,90.32c.44-.82.09-1.88-.77-2.36-.86-.48-1.92-.2-2.36.63-.44.82-.1,1.88.77,2.36.86.48,1.92.2,2.36-.63Z"/>
          <path class="cls-21" d="M174.96,88.13c.35-.65.08-1.48-.6-1.85-.68-.37-1.52-.16-1.87.49-.35.65-.08,1.48.6,1.85.68.38,1.52.16,1.87-.49Z"/>
          <path class="cls-43" d="M162.63,88.75s-.39-3.11,3.34-5.65c3.92-2.66,10.55-2.59,14.39-.19,2.31,1.44,3.13,4.31,3.13,4.31,0,0-4.88-3.46-10.11-3.22-2.9.13-4,.39-5.31.7-3.41.82-5.44,4.05-5.44,4.05Z"/>
        </g>
        <path class="cls-46" d="M119.17,40.18c1.7-.82,26.65,2.71,30.56,1.82,3.91-.89,24.93-4.71,29.01-2.44s6.96,6.81,7.37,9.32c.4,2.51-.25,14.9,0,16.92.24,2.02,3.78,4.53,4.79,16.22s.47,22.79-.14,27.64c-.62,4.86-5.09,20.97-5.09,20.97l8.17-23.55s.82-2.79,1-5.71c.18-2.92,2.35-38.46,2.35-38.46l-11.69-34.6-68.54-3.28-14.83,33.16,3.83,40.04,1.86,5.39,5.8,20.4s-2.22-24.57-2.92-26.04c-.71-1.47-.71-14.74-.47-17.22.66-6.76,4.02-13.34,4.44-15.14.42-1.8-1.69-14.57-1.26-16.37.43-1.8,5.8-9.1,5.8-9.1Z"/>
        <g>
          <path class="cls-45" d="M141.39,91.24c1.01-1.22-.04-3.83-.61-5.46-1.77-5.09-5.61-6.78-13.57-6.96-2.61-.06-7.12.5-9.89,3.07-2.13,1.98-3.36,3.95-3.12,5.72.12.9,4.3,5.95,12.97,6.22,5.67.18,12.12-.04,14.21-2.58Z"/>
          <path class="cls-47" d="M139,89.09c-.36.7-2.23,2.33-4.69,3-.39.11-.8.21-1.22.26-.64.08-1.33.13-2.07.13-1.79,0-3.91-.26-6.66-.82-.34-.07-.69-.15-1.05-.21-.25-.07-.5-.11-.75-.16-.36-.08-.69-.2-1.02-.33-.88-.47-1.66-1.09-2.28-1.84-.39-.46-.71-.99-.93-1.58,0,0,0-.02.02-.03.38-.46,4.49-5.38,12.72-5.05.44.03.91.07,1.38.11,1.46.16,2.71,1.08,3.75,2.17,1.63,1.76,2.65,3.98,2.79,4.3v.02s.02.03.02.03Z"/>
          <path class="cls-19" d="M118.34,87.5s-.02.03-.02.03c.23.59.54,1.12.93,1.59.1-.06.22-.13.35-.2.83-.45,2.33-1.06,5.14-1.3,11.61-.97,14.11,1.3,14.24,1.42,0,0,0,0,0,0-.36-1.86-1.4-3.26-2.8-4.31-1.46-1.1-3.3-1.82-5.13-2.28-1.51-.38-3.01-.59-4.28-.69-4.11-.32-8.08,5.23-8.43,5.73Z"/>
          <path class="cls-79" d="M135.31,88.83c.03,1.45-.47,2.53-1.01,3.26-.39.11-.8.21-1.22.26-.64.08-1.33.13-2.07.13-1.79,0-3.53.13-6.25-.51-.34-.08-1.03-.35-1.39-.42-.33-.11-.59-.13-.79-.26-.21-.38-.46-1.38-.51-1.72-.58-3.82,2.57-5.87,6.2-6.16,3.64-.31,6.94,1.45,7.03,5.41Z"/>
          <path class="cls-80" d="M135.17,87.65s-5.15-1.14-13.14.56c0,0,.15-4.12,4.96-5.01,4.52-.83,7.85,2.1,8.18,4.45Z"/>
          <path class="cls-77" d="M128.32,83.95c2.23-.12,4.28,1.64,4.39,3.9.11,2.26-1.77,4.15-4,4.28-2.23.11-4.13-1.62-4.23-3.88-.11-2.26,1.61-4.18,3.84-4.3Z"/>
          <path d="M128.46,83.95c2.63-.14,3.85,1.78,4.19,3.39,0,0-4.32-.43-8.16.38,0,0,.21-3.56,3.98-3.77Z"/>
          <path class="cls-21" d="M130.27,91.11c-.43-.82-.09-1.88.76-2.36.85-.48,1.9-.2,2.34.63.44.82.09,1.88-.76,2.36-.85.48-1.9.2-2.34-.63Z"/>
          <path class="cls-21" d="M127.43,88.72c-.35-.65-.08-1.48.6-1.85.68-.37,1.5-.16,1.85.49.35.65.08,1.48-.6,1.85-.68.38-1.51.16-1.85-.49Z"/>
          <path class="cls-48" d="M138.99,89.07s.39-3.11-3.31-5.65c-3.88-2.66-10.45-2.59-14.26-.2-2.29,1.44-3.1,4.31-3.1,4.31,0,0,4.84-3.46,10.02-3.22,2.87.13,3.97.39,5.26.7,3.37.82,5.39,4.05,5.39,4.05Z"/>
        </g>
        <path class="cls-2" d="M111.16,41.25s6.69-9.73,23.61-7.07c11.26,1.77,11.72,1.64,15.5,2.48,3.78.84,21.89-6.14,29.85-3.02,7.96,3.12,8.74,12.3,8.8,16.83s-.91,15.19.2,15.9,5.09,5.18,4.72,11.38c-.36,6.2.96,23.64.96,23.64,0,0,1.29-18.86,7.69-19.4l.4-12.98s2.56-8.92,2.78-12.6c.41-6.95-1.56-12.87-1.67-14.03-.29-2.99-5.4-8.17-6.28-9.17,0,0,3.24-6.97-5.66-11.83,0,0-1.8-14.58-17.58-17.89-15.78-3.31-29.03-2.41-33.89-.7,0,0-17.4-4.45-25.97,6.94,0,0-10.99,4.36-12.1,15.18-1.12,10.81,2.58,15.21,3.18,15.05l5.46,1.31Z"/>
        <path class="cls-74" d="M112.85,39.94s-5.46,7.01-3.67,21.01c0,0-2.74,7.69-2.74,12.78,0,5.1,1.51,24.77,1.51,24.77,0,0-3.33-16.71-9.62-16.15,0,0-1.22-11.53-1.54-12.27,0,0-4.88-9.14-1.45-19.85,1.98-6.18,10.36-10.29,10.36-10.29h7.15Z"/>
        <path class="cls-64" d="M127.55,138.84s12.31,6.95,12.95,6.84c.64-.11,10.34-5.15,10.34-5.15,0,0,10.89,5.48,13.33,5.29,2.45-.19,14.83-8,14.83-8,0,0-12.78,11.85-15.29,13.03-2.5,1.17-27.69-.27-27.69-.27l-8.49-11.74Z"/>
        <path class="cls-4" d="M150.74,27.77s-.18-23.24,28.49-22.8c0,0-16.66-10.03-27.24,1.54-10.58,11.57-1.25,21.27-1.25,21.27Z"/>
        <g>
          <path class="cls-50" d="M127.31,136.43s12.48,7.62,13.12,7.51c.64-.11,10.23-5.81,10.23-5.81,0,0,11.55,6.63,14.01,6.44,2.45-.19,14.86-8.05,14.86-8.05,0,0-13.43,13.34-15.95,14.51-2.51,1.18-27.77-.27-27.77-.27l-8.51-14.33Z"/>
          <path class="cls-7" d="M194.8,101.38s-2.43,30.53-4.45,35.01c-2.02,4.48-21.73,21.76-25.99,25.29-4.26,3.53-23.21,1.79-26.27,1.25s-25.12-20.46-28.17-25.41c-3.05-4.95-2.08-36.97-2.08-36.97,0,0,4.01,20.65,6.82,24.64,2.81,3.99,22.25,18.84,25.28,20.84,1.28.85,4.74-2.61,6.84-5.47,2-2.72.67-3.96,5.78-3.66,4.1.24,3.25,1.92,6.2,5.36,2.08,2.43,4.45,4.89,5.96,4.59,3.66-.73,20.02-15.67,20.95-17.85.93-2.19,9.13-27.62,9.13-27.62Z"/>
          <path class="cls-27" d="M128.69,121.96c1.14-1.29,13.6-8.2,14.65-7.92,7.47,1.99,14.89-.52,15.83-.83.94-.3,13.57,8.59,14.3,9.54s4.91,12.36,5.32,14.91c.51,3.15-4.2,4.68-4.2,4.68l-3.19-17.86-26.1.62-13.78.47-2.45,16.02s-2.66-.97-4.95-5.36c1.93-5.34,3.43-12.98,4.57-14.27Z"/>
          <path class="cls-26" d="M172.56,131l-1.21-6.42-5.07-.07s5.37-1.58,5.83-1.34c.43.44.44,7.82.44,7.82Z"/>
          <path class="cls-23" d="M130.61,131.53s.91-5.73,1.32-5.78c1.42-.18,5.67-1.19,5.67-1.19,0,0-5.85.08-7.19-.28-1.34-.36.19,7.25.19,7.25Z"/>
          <g>
            <path class="cls-65" d="M143.5,127.36c-3.17-.18-10.9-1.04-11.98-1.79,5.12-.32,8.57-2.06,13.19-2.47,2.85-.25,5.18.6,6.4.54,1.22-.06,6.03-.8,7.03-.61,2.39.46,11.87,2.08,13.27,1.45,0,0-4.57,2.25-9.84,2.67-3.45.28-5.67.34-9.75.4-4.04.07-5.13-.01-8.31-.2Z"/>
            <path class="cls-63" d="M141.09,129.49c-.55-1.14,5.06-.79,11.11-.89,5.74-.09,10.04-.58,10.53.05,1,1.29-5.29,3.53-9.55,3.69-4.15.16-10.69.05-12.09-2.85Z"/>
            <path class="cls-49" d="M135.33,128.75s9.69,4.2,10.92,4.28c3.15.19,11.09.06,12.11-.2,2.44-.62,7.17-4.11,9.72-5.53,0,0-7.21,7.6-15.82,7.71-7.92.1-13.69-4.12-16.93-6.25Z"/>
            <path class="cls-66" d="M145.79,134.08s2.6,1.13,6.77,1.07c2.23-.03,4.93-1.1,4.93-1.1,0,0-3.07.22-11.7.03Z"/>
            <path class="cls-54" d="M172.09,123.09c0-.44-.79,1.36-.99,1.42-7.37,2.33-15.96,2.18-19.52,2.22-4.24.04-13.35.29-20.24-1.42,0,0-.55-.47-1.18-1.12-.26-.27.63,1.66,1.24,2.03,1,.6,11.33,1.88,20.46,1.86,10.94-.02,18.57-1.93,19.29-2.72.42-.46.95-1.84.94-2.28Z"/>
          </g>
          <path class="cls-24" d="M111.47,139.53s22.4,19.77,27.33,21.19c2.25.65,21.15,1.07,23.05.43,1.89-.64,25.82-21.17,25.82-21.17,0,0-14.98,16.85-25.99,24-1.82,1.18-22.26.31-23.63-.21-6.06-2.27-25.69-23.14-26.58-24.24Z"/>
          <path class="cls-25" d="M145.5,142.18s2.66-4.78,3.67-5.47c1.01-.7,5.9-.78,6.36.38.45,1.16,4.38,6.48,4.38,6.48,0,0-5.04-4.26-5.56-4.6-.52-.34-2.34-1.34-3.67-.85-1.33.49-5.17,4.06-5.17,4.06Z"/>
          <path class="cls-6" d="M140.44,115.3s10.8,5.44,11.27,5.33c.47-.11,10.61-5.45,10.61-5.45,0,0-1.29-2.05-3.14-2.16-3.2-.19-7.66,2.05-8.54,2.64-.81.54-5.94-2.04-8.52-2.18-1.85-.1-1.68,1.83-1.68,1.83Z"/>
        </g>
        <path class="cls-82" d="M137.75,25.48s1.28-18.01,18.04-22.11c0,0-5.58-7.15-15.2-.59s-2.84,22.71-2.84,22.71Z"/>
        <path class="cls-84" d="M130.75,26.57s-3.52-19.18,9.84-23.8c0,0-10.35-7.21-16.56,3.38-6.21,10.59,6.71,20.42,6.71,20.42Z"/>
        <path class="cls-83" d="M118.51,27.77s-12.19-10.99-3.88-19.56c8.32-8.57,15.56-5.47,15.56-5.47,0,0-8.24,5.11-9.77,11.23-1.53,6.12-1.91,13.79-1.91,13.79Z"/>
        <path class="cls-86" d="M160.69,25.07s.12-14.93,11.72-17.61,18.33,4.35,19.66,13.9c0,0-2.68-10.99-16.56-6.7-9.4,2.9-14.82,10.41-14.82,10.41Z"/>
        <path class="cls-85" d="M178.49,30.75s12.95-6.73,19.23,2.44c0,0,.7-10.1-9.05-10.68-9.75-.58-10.18,8.24-10.18,8.24Z"/>
        <path class="cls-88" d="M105.7,39.94s-7.51-5.14-2.87-20.25c2.37-7.7,11.79-9.98,11.79-9.98,0,0-3.78,3.03-8.93,16.1-2.41,6.13,0,14.13,0,14.13Z"/>
        <path class="cls-87" d="M105.7,39.94s-7.7.13-11.37,9.62c-2.02,5.22,4.07,17.06,4.07,17.06,0,0-1.32-11.26.63-16.91,2.22-6.41,6.66-9.76,6.66-9.76Z"/>
        <path class="cls-81" d="M190.83,35.51s9.47-4.28,13.14,5.24c2.38,6.18,2.62,10.42-2.09,18.53,0,0,.36-12.42-1.89-15.94-2.26-3.52-9.16-7.83-9.16-7.83Z"/>
        <path class="cls-75" d="M108.14,100.53s.22-6.87.04-18.26c-.1-6.63,1-11.34,4.67-16.82,0,0-2.01-15.75-1.13-17.81,1.96-4.57,8.6-10.85,9.83-11.05,1.23-.2,26.61,2.03,29.74,1.68,3.13-.35,23.08-3.69,28.82-.73,2.41,1.24,8.48,6.8,8.64,9.86.16,3.06-.75,18.25-.75,18.25,0,0,4.99,5.77,4.91,14.02-.09,8.25,1.88,21.71,1.88,21.71,0,0,2.13-25.35,1.89-28.21s-1.6-27.15-2.69-29.65c-1.09-2.5-10.16-11.78-15.51-12.77-5.35-1-27.37,1.44-28.35,2.05s-27.19-6.4-31.63-3.54-13.01,12.86-12.97,15.46c.04,2.59-1.56,23.44-1.52,25.43.02.85,4.12,30.38,4.12,30.38Z"/>
        <path class="cls-28" d="M140.64,115.23s10.77,5.42,11.24,5.31c.47-.11,10.58-5.44,10.58-5.44,0,0-1.29-2.05-3.13-2.16-3.19-.19-6.52,2.71-8.71,2.17-.94-.23-5.73-1.59-8.3-1.72-1.85-.1-1.68,1.83-1.68,1.83Z"/>
        <g>
          <path class="cls-89" d="M155.36,114.47c6.48-5.17,7.1.65,7.1.65-3.58-2.91-7.1-.65-7.1-.65Z"/>
          <path class="cls-89" d="M140.64,115.23s.88-1.78,5.62-.37c0,0-7.88-5.09-5.62.37Z"/>
          <path class="cls-52" d="M157.73,96.89c.05,2.44,1.34,11.6.65,13.02-1.54,3.16-4.58,4.51-7.46,4.38-2.16.35-6.1-.59-8.34-3.76-.91-1.29.68-10.49.2-13.08,0,0-9.34,16.89-2.14,17.78,0,0-1.18-1.89,1.68-1.83,2.53.06,3.87,4.44,8.86,4.25,5.51-.21,4.54-4.11,7.46-4.61,3.61-.62,2.99,1.74,3.83,2.07,3.6-1.61-1.3-13.91-4.72-18.23Z"/>
          <path class="cls-51" d="M146.53,106.72c-.15,2.72.21,5.63,4.22,5.53,4.4-.11,4.48-3.08,4.02-5.56-2.74-14.69-7.7-10.09-8.24.03Z"/>
        </g>
      </g>
      <path class="cls-53" d="M148.79,174.95s12.62.17,17.39-2.59c4.77-2.77-11.94,16.15-13.43,16.4-1.49.24-3.95-13.8-3.95-13.8Z"/>
      <polygon class="cls-60" points="239.72 284.71 240.32 298.31 243.38 298.31 239.72 284.71"/>
      <path class="cls-59" d="M50.78,285.47l5.51-11.59-25.9-64.47s-14.27,1.44-25.41,64.28c-1.47,8.28-3.21,16.63-4.98,24.61h45.86c2.01-4.06,3.68-8.34,4.91-12.84Z"/>
      <path class="cls-20" d="M53.21,273.39c-2.28,8.28-6.17,16.79-11.18,24.93h11.57l-.39-24.93Z"/>
      <path class="cls-61" d="M62.6,284.71l-22.95-52.23s12.09,44.72,13.43,51.55c.16.83-1.77,6.49-4.71,14.28h10.56l3.66-13.6Z"/>
      <polygon class="cls-67" points="62.6 284.71 58.94 298.31 62 298.31 62.6 284.71"/>
      <path class="cls-62" d="M165.57,219.06c-5.41,2.22-11.92,2.3-17.59,3.77,0,0-1.35,34.1-2.97,75.48h16.49l4.07-79.25Z"/>
      <g>
        <path class="cls-68" d="M135.52,190.19s6.83,6.28,8.09,7.39c1.21,1.06,4.95,18.55,4.95,18.55l-2.15,36.69-19.64-54.48,8.75-8.14Z"/>
        <path class="cls-30" d="M105.15,178.28c0,4.09,7.23,33.57,7.7,35.15,0,0,8.93-7.71,14.93-12.5l7.74-10.75s-30.37-15.99-30.37-11.9Z"/>
        <path class="cls-31" d="M120.62,156.83s-4.95,6.31-2.42,14.92c2.37,8.05,17.32,18.44,17.32,18.44,0,0-17.89,14.96-21.35,18.33-2.42-8.47-11.57-31.91-9.46-35.24,4.05-6.4,9.85-13.15,15.91-16.46Z"/>
        <path class="cls-32" d="M120.62,156.83s-6.34,8.26,1.06,19.17c5.29,7.81,13.85,14.19,13.85,14.19,0,0-11.6-8.15-14.62-11.87-9.34-11.48-.28-21.5-.28-21.5Z"/>
        <path class="cls-29" d="M164.05,189.88c-2.29,1.5-5.28,3.58-9,6.48-1.57,1.22-7.59,21.77-7.07,26.47.07.62.11,1.55.12,2.66,5.63-1.64,12.14-2.05,17.9-3.27.69-6.2.88-12.67,1.49-18.46.04-.37.33-5.32.33-5.32.38-3.66.16-3.46.33-5.85-2.01-.16-3.45-1.22-4.1-2.71Z"/>
        <path class="cls-37" d="M164.05,189.88l3.77,8.56c4.24,3.31,17.16,11.62,23.79,14.99.81.41,5.84-30.09,7.04-38.56l-34.61,15.01Z"/>
        <polygon class="cls-35" points="165.57 257.46 167.83 198.44 163.58 244.29 162.05 280.07 162.05 280.25 161.24 298.31 162.5 298.31 165.57 257.46"/>
        <path class="cls-38" d="M147.98,234.16v-11.33s-.29,2.9-.69,6.98c-.62,6.3-3.35,36.54-4.19,68.5h2.16l2.72-64.16Z"/>
        <path class="cls-36" d="M164.05,189.88s24.1,16.27,27.17,19.59c2.69-10.61,7.76-30.97,7.76-37.04,0-3.19-13.63-15.47-16.77-17.07,0,0,1.77,5.23.87,10.31-3.22,18.22-19.03,24.21-19.03,24.21Z"/>
        <path class="cls-34" d="M164.05,189.88s23.66-11.19,18.16-34.52c0,0,13.59,22.67-18.16,34.52Z"/>
        <path class="cls-33" d="M139.75,205.88c0,1.17-1.06,2.12-2.36,2.12s-2.36-.95-2.36-2.12,1.06-2.12,2.36-2.12,2.36.95,2.36,2.12Z"/>
        <path class="cls-71" d="M164.05,189.88s-6.61,4.6-9.72,6.19c-3.11,1.6-5.9,21.93-5.9,21.93,0,0,5.63-17.71,6.65-19.36,1.02-1.65,8.97-8.76,8.97-8.76Z"/>
        <path class="cls-72" d="M156.46,284.71c0,1.17-1.06,2.12-2.36,2.12s-2.36-.95-2.36-2.12,1.06-2.12,2.36-2.12,2.36.95,2.36,2.12Z"/>
        <path class="cls-73" d="M157.92,243.54c0,1.2-1.06,2.16-2.36,2.16s-2.36-.97-2.36-2.16,1.06-2.16,2.36-2.16,2.36.97,2.36,2.16Z"/>
      </g>
      <path class="cls-69" d="M176.5,198.44l14.73,11.03,4.57-18.83s-4.43,12.8-5.5,13.13c-1.07.33-13.8-5.33-13.8-5.33Z"/>
      <path class="cls-70" d="M109.42,194.11l4.75,14.41,13.61-11.82s-12.26,8.56-12.72,8.39c-.46-.17-5.63-10.98-5.63-10.98Z"/>
    </g>
  </g>
</svg>