<?xml version="1.0" encoding="UTF-8"?>
<svg id="Layer_2" data-name="Layer 2" xmlns="http://www.w3.org/2000/svg" xmlns:xlink="http://www.w3.org/1999/xlink" viewBox="0 0 302.32 298.31">
  <defs>
    <style>
      .cls-1 {
        fill: url(#Gradient_58);
      }

      .cls-2 {
        fill: url(#Gradient_32);
      }

      .cls-3 {
        fill: url(#Gradient_96);
      }

      .cls-4 {
        fill: url(#Gradient_27);
      }

      .cls-5 {
        fill: url(#Gradient_25);
      }

      .cls-6 {
        fill: url(#Gradient_113);
      }

      .cls-7 {
        fill: url(#Gradient_115);
      }

      .cls-8 {
        fill: url(#radial-gradient-2);
      }

      .cls-9 {
        fill: #e1b18c;
      }

      .cls-10 {
        fill: url(#linear-gradient-8);
      }

      .cls-11 {
        fill: url(#linear-gradient-7);
      }

      .cls-12 {
        fill: url(#linear-gradient-5);
      }

      .cls-13 {
        fill: url(#linear-gradient-6);
      }

      .cls-14 {
        fill: url(#linear-gradient-9);
      }

      .cls-15 {
        fill: url(#linear-gradient-4);
      }

      .cls-16 {
        fill: url(#linear-gradient-3);
      }

      .cls-17 {
        fill: url(#linear-gradient-2);
      }

      .cls-18 {
        fill: #f3eceb;
      }

      .cls-19 {
        fill: url(#radial-gradient);
      }

      .cls-20 {
        fill: url(#linear-gradient);
      }

      .cls-21 {
        fill: #ddd;
      }

      .cls-22 {
        fill: #192b51;
      }

      .cls-23 {
        fill: #fff;
      }

      .cls-24 {
        fill: #f0c499;
      }

      .cls-25 {
        fill: #711e22;
      }

      .cls-26 {
        fill: url(#Gradient_115-4);
      }

      .cls-27 {
        fill: url(#Gradient_115-5);
      }

      .cls-28 {
        fill: url(#Gradient_115-6);
      }

      .cls-29 {
        fill: url(#Gradient_115-3);
      }

      .cls-30 {
        fill: url(#Gradient_115-2);
      }

      .cls-31 {
        fill: url(#linear-gradient-43);
      }

      .cls-32 {
        fill: url(#linear-gradient-40);
      }

      .cls-33 {
        fill: url(#linear-gradient-41);
      }

      .cls-34 {
        fill: url(#linear-gradient-42);
      }

      .cls-35 {
        fill: url(#linear-gradient-49);
      }

      .cls-36 {
        fill: url(#linear-gradient-48);
      }

      .cls-37 {
        fill: url(#linear-gradient-45);
      }

      .cls-38 {
        fill: url(#linear-gradient-47);
      }

      .cls-39 {
        fill: url(#linear-gradient-44);
      }

      .cls-40 {
        fill: url(#linear-gradient-46);
      }

      .cls-41 {
        fill: url(#linear-gradient-10);
      }

      .cls-42 {
        fill: url(#linear-gradient-11);
      }

      .cls-43 {
        fill: url(#linear-gradient-12);
      }

      .cls-44 {
        fill: url(#linear-gradient-13);
      }

      .cls-45 {
        fill: url(#linear-gradient-19);
      }

      .cls-46 {
        fill: url(#linear-gradient-14);
      }

      .cls-47 {
        fill: url(#linear-gradient-21);
      }

      .cls-48 {
        fill: url(#linear-gradient-20);
      }

      .cls-49 {
        fill: url(#linear-gradient-22);
      }

      .cls-50 {
        fill: url(#linear-gradient-23);
      }

      .cls-51 {
        fill: url(#linear-gradient-28);
      }

      .cls-52 {
        fill: url(#linear-gradient-25);
      }

      .cls-53 {
        fill: url(#linear-gradient-32);
      }

      .cls-54 {
        fill: url(#linear-gradient-31);
      }

      .cls-55 {
        fill: url(#linear-gradient-33);
      }

      .cls-56 {
        fill: url(#linear-gradient-30);
      }

      .cls-57 {
        fill: url(#linear-gradient-15);
      }

      .cls-58 {
        fill: url(#linear-gradient-16);
      }

      .cls-59 {
        fill: url(#linear-gradient-17);
      }

      .cls-60 {
        fill: url(#linear-gradient-18);
      }

      .cls-61 {
        fill: url(#linear-gradient-35);
      }

      .cls-62 {
        fill: url(#linear-gradient-34);
      }

      .cls-63 {
        fill: url(#linear-gradient-36);
      }

      .cls-64 {
        fill: url(#linear-gradient-38);
      }

      .cls-65 {
        fill: url(#linear-gradient-27);
      }

      .cls-66 {
        fill: url(#linear-gradient-24);
      }

      .cls-67 {
        fill: url(#linear-gradient-26);
      }

      .cls-68 {
        fill: url(#linear-gradient-29);
      }

      .cls-69 {
        fill: url(#linear-gradient-37);
      }

      .cls-70 {
        fill: url(#linear-gradient-39);
      }

      .cls-71 {
        fill: url(#linear-gradient-53);
      }

      .cls-72 {
        fill: url(#linear-gradient-50);
      }

      .cls-73 {
        fill: url(#linear-gradient-51);
      }

      .cls-74 {
        fill: url(#linear-gradient-52);
      }

      .cls-75 {
        fill: url(#Gradient_32-2);
      }

      .cls-76 {
        fill: url(#Gradient_58-3);
      }

      .cls-77 {
        fill: url(#Gradient_58-2);
      }

      .cls-78 {
        fill: url(#Gradient_25-2);
      }

      .cls-79 {
        fill: url(#Gradient_96-2);
      }

      .cls-80 {
        fill: url(#Gradient_96-3);
      }

      .cls-81 {
        fill: url(#Gradient_96-4);
      }

      .cls-82 {
        fill: url(#Gradient_27-9);
      }

      .cls-83 {
        fill: url(#Gradient_27-2);
      }

      .cls-84 {
        fill: url(#Gradient_27-4);
      }

      .cls-85 {
        fill: url(#Gradient_27-3);
      }

      .cls-86 {
        fill: url(#Gradient_27-6);
      }

      .cls-87 {
        fill: url(#Gradient_27-5);
      }

      .cls-88 {
        fill: url(#Gradient_27-8);
      }

      .cls-89 {
        fill: url(#Gradient_27-7);
      }

      .cls-90 {
        fill: #dca57b;
      }
    </style>
    <linearGradient id="linear-gradient" x1="100.51" y1="101.15" x2="194.15" y2="243.03" gradientUnits="userSpaceOnUse">
      <stop offset="0" stop-color="#0b173d"/>
      <stop offset=".5" stop-color="#0c193f"/>
      <stop offset=".82" stop-color="#132248"/>
      <stop offset="1" stop-color="#192b51"/>
    </linearGradient>
    <linearGradient id="linear-gradient-2" x1="177.22" y1="161.3" x2="192.79" y2="165.68" gradientUnits="userSpaceOnUse">
      <stop offset="0" stop-color="#f0c499"/>
      <stop offset=".52" stop-color="#f4cfa5"/>
      <stop offset="1" stop-color="#f7d4ab"/>
    </linearGradient>
    <linearGradient id="linear-gradient-3" x1="126.94" y1="167.45" x2="192.16" y2="185.76" xlink:href="#linear-gradient-2"/>
    <linearGradient id="linear-gradient-4" x1="148.34" y1="204.83" x2="117.24" y2="163.16" gradientUnits="userSpaceOnUse">
      <stop offset="0" stop-color="#f0c499"/>
      <stop offset=".51" stop-color="#e3b086"/>
      <stop offset="1" stop-color="#dba379"/>
    </linearGradient>
    <linearGradient id="linear-gradient-5" x1="190.83" y1="167.05" x2="123.65" y2="141.72" xlink:href="#linear-gradient-4"/>
    <linearGradient id="linear-gradient-6" x1="44.72" y1="192.07" x2="35.69" y2="295.27" gradientUnits="userSpaceOnUse">
      <stop offset="0" stop-color="#2b416b"/>
      <stop offset=".46" stop-color="#293e68"/>
      <stop offset=".75" stop-color="#23375f"/>
      <stop offset="1" stop-color="#192b51"/>
    </linearGradient>
    <linearGradient id="linear-gradient-7" x1="273.55" y1="209.94" x2="274.68" y2="347.31" xlink:href="#linear-gradient-6"/>
    <linearGradient id="linear-gradient-8" x1="249.38" y1="231.03" x2="249.67" y2="424.8" xlink:href="#linear-gradient"/>
    <linearGradient id="linear-gradient-9" x1="150.23" y1="170.71" x2="152.77" y2="318.7" xlink:href="#linear-gradient-6"/>
    <linearGradient id="linear-gradient-10" x1="104.63" y1="-294.41" x2="103.67" y2="-243.46" gradientTransform="translate(30.47 319.8) rotate(3.42) scale(1 .96)" gradientUnits="userSpaceOnUse">
      <stop offset="0" stop-color="#ffd9b3"/>
      <stop offset=".28" stop-color="#fbd6af"/>
      <stop offset="1" stop-color="#f7d4ab"/>
    </linearGradient>
    <linearGradient id="linear-gradient-11" x1="-56.33" y1="630.56" x2="-46.17" y2="655.21" gradientTransform="translate(151.44 -634.52) rotate(177.48) scale(.99 -1.14) skewX(3.14)" gradientUnits="userSpaceOnUse">
      <stop offset="0" stop-color="#dba379"/>
      <stop offset=".49" stop-color="#e3b086"/>
      <stop offset="1" stop-color="#f0c499"/>
    </linearGradient>
    <linearGradient id="linear-gradient-12" x1="1075.27" y1="592.52" x2="1085.28" y2="616.81" gradientTransform="translate(-979.39 -630.28) rotate(2) scale(.99 1.14) skewX(3.13)" xlink:href="#linear-gradient-11"/>
    <linearGradient id="linear-gradient-13" x1="117.27" y1="-228.23" x2="133.67" y2="-212.74" gradientTransform="translate(31.27 297.32) rotate(3.42)" xlink:href="#linear-gradient-2"/>
    <linearGradient id="linear-gradient-14" x1="85.82" y1="-225.48" x2="81.97" y2="-209.17" gradientTransform="translate(31.27 297.32) rotate(3.42)" xlink:href="#linear-gradient-2"/>
    <radialGradient id="radial-gradient" cx="-239.5" cy="-119.3" fx="-239.5" fy="-119.3" r="23.04" gradientTransform="translate(-56.61 197.16) rotate(177.65) scale(1.02 -.71) skewX(-1.54)" gradientUnits="userSpaceOnUse">
      <stop offset="0" stop-color="#f8c39c"/>
      <stop offset="1" stop-color="#f7d4ab"/>
    </radialGradient>
    <radialGradient id="radial-gradient-2" cx="186.07" cy="-151.19" fx="186.07" fy="-151.19" r="23.63" gradientTransform="translate(-51.74 218.46) rotate(-3.81) scale(1.02 .69) skewX(2.86)" xlink:href="#radial-gradient"/>
    <linearGradient id="linear-gradient-15" x1="241.55" y1="151.46" x2="227.38" y2="156.35" gradientTransform="translate(-52.04 -56.15) rotate(-.26)" gradientUnits="userSpaceOnUse">
      <stop offset="0" stop-color="#fbd6af"/>
      <stop offset="1" stop-color="#f7d4ab"/>
    </linearGradient>
    <linearGradient id="linear-gradient-16" x1="177.64" y1="156.35" x2="156.61" y2="151.22" xlink:href="#linear-gradient-15"/>
    <linearGradient id="Gradient_58" data-name="Gradient 58" x1="-2936.34" y1="99.55" x2="-2910.87" y2="99.55" gradientTransform="translate(-2799.98 -28.07) rotate(-179.93) scale(1 -1)" gradientUnits="userSpaceOnUse">
      <stop offset="0" stop-color="#2b1b13"/>
      <stop offset=".04" stop-color="#2e1d14"/>
      <stop offset=".38" stop-color="#442b1d"/>
      <stop offset=".71" stop-color="#513423"/>
      <stop offset="1" stop-color="#563725"/>
    </linearGradient>
    <linearGradient id="Gradient_58-2" data-name="Gradient 58" x1="447.77" y1="100.01" x2="475.58" y2="100.01" gradientTransform="translate(-284.76 -25.59) rotate(.07)" xlink:href="#Gradient_58"/>
    <linearGradient id="linear-gradient-17" x1="248.69" y1="143.64" x2="221.55" y2="166.84" gradientTransform="translate(-58.63 -73.54) rotate(1.21)" xlink:href="#linear-gradient-4"/>
    <linearGradient id="linear-gradient-18" x1="233.96" y1="122.45" x2="208.71" y2="116.35" gradientTransform="translate(-44.6 -30.97)" gradientUnits="userSpaceOnUse">
      <stop offset="0" stop-color="#ece7e7"/>
      <stop offset=".23" stop-color="#f5f3f3"/>
      <stop offset=".53" stop-color="#fcfcfc"/>
      <stop offset="1" stop-color="#fff"/>
    </linearGradient>
    <linearGradient id="Gradient_96" data-name="Gradient 96" x1="237.19" y1="137.05" x2="213.22" y2="115.29" gradientTransform="translate(-44.6 -30.97)" gradientUnits="userSpaceOnUse">
      <stop offset="0" stop-color="#a8c3dd"/>
      <stop offset="1" stop-color="#7a90a5"/>
    </linearGradient>
    <linearGradient id="Gradient_96-2" data-name="Gradient 96" x1="130.65" y1="-205.62" x2="129.85" y2="-213.02" gradientTransform="translate(31.27 297.32) rotate(3.42)" xlink:href="#Gradient_96"/>
    <radialGradient id="Gradient_25" data-name="Gradient 25" cx="-875.29" cy="136.44" fx="-875.29" fy="136.44" r="4.03" gradientTransform="translate(1059.74 -28.88) rotate(1.3) skewX(.07)" gradientUnits="userSpaceOnUse">
      <stop offset="0" stop-color="#666"/>
      <stop offset="1" stop-color="#1d1d1d"/>
    </radialGradient>
    <linearGradient id="linear-gradient-19" x1="154.16" y1="148.98" x2="174.39" y2="148.01" gradientTransform="translate(11.35 -67.1) rotate(1.2)" gradientUnits="userSpaceOnUse">
      <stop offset="0" stop-color="#2b1b13"/>
      <stop offset=".04" stop-color="#2e1d14"/>
      <stop offset=".38" stop-color="#442b1d"/>
      <stop offset=".71" stop-color="#513423"/>
      <stop offset="1" stop-color="#563725"/>
    </linearGradient>
    <linearGradient id="linear-gradient-20" x1="114.21" y1="-111.19" x2="111.82" y2="-142.25" gradientTransform="translate(31.27 297.32) rotate(3.42)" gradientUnits="userSpaceOnUse">
      <stop offset="0" stop-color="#f7d4ab"/>
      <stop offset=".45" stop-color="#f3caa0"/>
      <stop offset="1" stop-color="#f0c499"/>
    </linearGradient>
    <linearGradient id="linear-gradient-21" x1="-2912.97" y1="210.84" x2="-2939.91" y2="233.87" gradientTransform="translate(-2801.95 -73.88) rotate(178.8) scale(1 -1)" xlink:href="#linear-gradient-4"/>
    <linearGradient id="linear-gradient-22" x1="190.17" y1="122.22" x2="164.23" y2="115.96" xlink:href="#linear-gradient-18"/>
    <linearGradient id="Gradient_96-3" data-name="Gradient 96" x1="192.9" y1="137.37" x2="168.83" y2="115.53" xlink:href="#Gradient_96"/>
    <linearGradient id="Gradient_96-4" data-name="Gradient 96" x1="86.2" y1="-200.79" x2="85.4" y2="-208.19" gradientTransform="translate(31.27 297.32) rotate(3.42)" xlink:href="#Gradient_96"/>
    <radialGradient id="Gradient_25-2" data-name="Gradient 25" cx="-4254.04" cy="213.83" fx="-4254.04" fy="213.83" r="4.03" gradientTransform="translate(-4131.43 -29.41) rotate(178.7) scale(1 -1) skewX(.09)" xlink:href="#Gradient_25"/>
    <linearGradient id="linear-gradient-23" x1="-3007.34" y1="215.14" x2="-2987.28" y2="214.18" gradientTransform="translate(-2871.93 -67.45) rotate(178.81) scale(1 -1)" xlink:href="#linear-gradient-19"/>
    <linearGradient id="Gradient_32" data-name="Gradient 32" x1="111.7" y1="-296.82" x2="94.63" y2="-146.11" gradientTransform="translate(31.27 297.32) rotate(3.42)" gradientUnits="userSpaceOnUse">
      <stop offset="0" stop-color="#724831"/>
      <stop offset=".22" stop-color="#67412c"/>
      <stop offset=".63" stop-color="#5a3926"/>
      <stop offset="1" stop-color="#563725"/>
    </linearGradient>
    <linearGradient id="Gradient_32-2" data-name="Gradient 32" x1="60.41" y1="-258.24" x2="49.67" y2="-163.41" xlink:href="#Gradient_32"/>
    <linearGradient id="linear-gradient-24" x1="114.07" y1="-205.51" x2="113.75" y2="-209.64" gradientTransform="translate(28.48 343.23) rotate(3.42) scale(1 .93)" xlink:href="#linear-gradient-20"/>
    <linearGradient id="Gradient_115" data-name="Gradient 115" x1="150.86" y1="106.12" x2="151.6" y2="179.91" gradientUnits="userSpaceOnUse">
      <stop offset="0" stop-color="#d6ac88"/>
      <stop offset="1" stop-color="#a18166"/>
    </linearGradient>
    <linearGradient id="Gradient_115-2" data-name="Gradient 115" x1="150.34" y1="106.13" x2="151.08" y2="179.92" xlink:href="#Gradient_115"/>
    <linearGradient id="Gradient_27" data-name="Gradient 27" x1="151.88" y1="47.33" x2="164.24" y2="6.63" gradientUnits="userSpaceOnUse">
      <stop offset="0" stop-color="#724831"/>
      <stop offset=".42" stop-color="#7f553b"/>
      <stop offset="1" stop-color="#8e6346"/>
    </linearGradient>
    <linearGradient id="Gradient_27-2" data-name="Gradient 27" x1="135.01" y1="42.21" x2="147.38" y2="1.51" xlink:href="#Gradient_27"/>
    <linearGradient id="Gradient_27-3" data-name="Gradient 27" x1="121.78" y1="38.52" x2="134.44" y2="-3.13" xlink:href="#Gradient_27"/>
    <linearGradient id="Gradient_27-4" data-name="Gradient 27" x1="113.09" y1="34.05" x2="125.46" y2="-6.65" xlink:href="#Gradient_27"/>
    <linearGradient id="Gradient_27-5" data-name="Gradient 27" x1="167.19" y1="51.99" x2="179.56" y2="11.29" xlink:href="#Gradient_27"/>
    <linearGradient id="Gradient_27-6" data-name="Gradient 27" x1="180.67" y1="56.08" x2="193.04" y2="15.38" xlink:href="#Gradient_27"/>
    <linearGradient id="Gradient_27-7" data-name="Gradient 27" x1="103.42" y1="32.61" x2="115.79" y2="-8.09" xlink:href="#Gradient_27"/>
    <linearGradient id="Gradient_27-8" data-name="Gradient 27" x1="47.82" y1="-248.92" x2="57.16" y2="-247.69" gradientTransform="translate(31.27 297.32) rotate(3.42)" xlink:href="#Gradient_27"/>
    <linearGradient id="Gradient_27-9" data-name="Gradient 27" x1="193.04" y1="60.04" x2="206.15" y2="16.9" xlink:href="#Gradient_27"/>
    <linearGradient id="Gradient_58-3" data-name="Gradient 58" x1="65.24" y1="-159.66" x2="158.59" y2="-326.89" gradientTransform="translate(31.27 297.32) rotate(3.42)" xlink:href="#Gradient_58"/>
    <linearGradient id="Gradient_115-3" data-name="Gradient 115" x1="112.77" y1="-181.67" x2="112.13" y2="-190.01" gradientTransform="translate(28.48 343.23) rotate(3.42) scale(1 .93)" xlink:href="#Gradient_115"/>
    <linearGradient id="Gradient_115-4" data-name="Gradient 115" x1="115.77" y1="-207.02" x2="114.54" y2="-212.22" gradientTransform="translate(28.48 343.23) rotate(3.42) scale(1 .93)" xlink:href="#Gradient_115"/>
    <linearGradient id="Gradient_115-5" data-name="Gradient 115" x1="89.39" y1="-165.5" x2="88.36" y2="-169.88" gradientTransform="translate(31.27 297.32) rotate(3.42)" xlink:href="#Gradient_115"/>
    <linearGradient id="Gradient_115-6" data-name="Gradient 115" x1="134.86" y1="-167.9" x2="133.85" y2="-172.18" gradientTransform="translate(31.27 297.32) rotate(3.42)" xlink:href="#Gradient_115"/>
    <linearGradient id="Gradient_113" data-name="Gradient 113" x1="109.91" y1="-198.79" x2="108.72" y2="-182.52" gradientTransform="translate(31.27 297.32) rotate(3.42)" gradientUnits="userSpaceOnUse">
      <stop offset="0" stop-color="#a18166"/>
      <stop offset="1" stop-color="#d6ac88"/>
    </linearGradient>
    <linearGradient id="linear-gradient-25" x1="241.55" y1="328.46" x2="242.25" y2="352.82" gradientTransform="translate(-105.04 -237.57) rotate(-2.17)" gradientUnits="userSpaceOnUse">
      <stop offset="0" stop-color="#f7d4ab"/>
      <stop offset=".52" stop-color="#f5d1a8"/>
      <stop offset=".85" stop-color="#f2c99f"/>
      <stop offset="1" stop-color="#f0c499"/>
    </linearGradient>
    <linearGradient id="linear-gradient-26" x1="241.91" y1="816.81" x2="243.42" y2="805.69" gradientTransform="translate(-144.25 -1268.91) rotate(-2.16) scale(1 1.7) skewX(.04)" xlink:href="#linear-gradient-10"/>
    <linearGradient id="linear-gradient-27" x1="224.93" y1="421.64" x2="225.04" y2="437.49" gradientTransform="translate(-83.76 -310.5) rotate(-1.14)" xlink:href="#linear-gradient-25"/>
    <linearGradient id="linear-gradient-28" x1="149.09" y1="116.27" x2="149.77" y2="132.26" gradientUnits="userSpaceOnUse">
      <stop offset="0" stop-color="#e8d9d7"/>
      <stop offset=".4" stop-color="#efe5e3"/>
      <stop offset="1" stop-color="#fff"/>
    </linearGradient>
    <linearGradient id="linear-gradient-29" x1="227.01" y1="444.63" x2="221.24" y2="424.17" gradientTransform="translate(-83.76 -310.5) rotate(-1.14)" xlink:href="#linear-gradient-11"/>
    <linearGradient id="linear-gradient-30" x1="224.63" y1="455.44" x2="224.41" y2="441.19" gradientTransform="translate(-83.76 -310.5) rotate(-1.14)" gradientUnits="userSpaceOnUse">
      <stop offset="0" stop-color="#f0c499"/>
      <stop offset=".52" stop-color="#f1c69b"/>
      <stop offset=".85" stop-color="#f4cea4"/>
      <stop offset="1" stop-color="#f7d4ab"/>
    </linearGradient>
    <linearGradient id="linear-gradient-31" x1="215.54" y1="452.14" x2="232.36" y2="452.14" gradientTransform="translate(-83.76 -310.5) rotate(-1.14)" xlink:href="#linear-gradient-11"/>
    <linearGradient id="linear-gradient-32" x1="148.79" y1="180.42" x2="167.03" y2="180.42" gradientTransform="matrix(1,0,0,1,0,0)" xlink:href="#linear-gradient-10"/>
    <linearGradient id="linear-gradient-33" x1="241.46" y1="231.04" x2="241.75" y2="424.81" xlink:href="#linear-gradient"/>
    <linearGradient id="linear-gradient-34" x1="27.47" y1="205.07" x2="28.61" y2="342.25" xlink:href="#linear-gradient-6"/>
    <linearGradient id="linear-gradient-35" x1="51.08" y1="231.33" x2="51.38" y2="425.1" xlink:href="#linear-gradient"/>
    <linearGradient id="linear-gradient-36" x1="60.68" y1="231.32" x2="60.97" y2="425.09" xlink:href="#linear-gradient"/>
    <linearGradient id="linear-gradient-37" x1="155.42" y1="207.41" x2="155.15" y2="312.58" xlink:href="#linear-gradient-6"/>
    <linearGradient id="linear-gradient-38" x1="164.56" y1="350.83" x2="136.23" y2="199.54" xlink:href="#linear-gradient-6"/>
    <linearGradient id="linear-gradient-39" x1="119.04" y1="247.87" x2="119.88" y2="206.43" xlink:href="#linear-gradient-6"/>
    <linearGradient id="linear-gradient-40" x1="119.96" y1="289.68" x2="119.96" y2="166.46" xlink:href="#linear-gradient-6"/>
    <linearGradient id="linear-gradient-41" x1="126.32" y1="194.06" x2="125.28" y2="122.41" xlink:href="#linear-gradient"/>
    <linearGradient id="linear-gradient-42" x1="125.04" y1="327.72" x2="170.35" y2="174.78" xlink:href="#linear-gradient-6"/>
    <linearGradient id="linear-gradient-43" x1="179.93" y1="252.23" x2="180.81" y2="209.06" xlink:href="#linear-gradient-6"/>
    <linearGradient id="linear-gradient-44" x1="162.01" y1="305.39" x2="169.37" y2="149.02" xlink:href="#linear-gradient"/>
    <linearGradient id="linear-gradient-45" x1="152.6" y1="303.1" x2="138.18" y2="216.34" xlink:href="#linear-gradient"/>
    <linearGradient id="linear-gradient-46" x1="181.52" y1="301.01" x2="181.52" y2="163.74" xlink:href="#linear-gradient-6"/>
    <linearGradient id="linear-gradient-47" x1="174.8" y1="193.58" x2="173.91" y2="132.01" xlink:href="#linear-gradient"/>
    <linearGradient id="linear-gradient-48" x1="134.08" y1="200.86" x2="140.29" y2="210.28" xlink:href="#linear-gradient"/>
    <linearGradient id="linear-gradient-49" x1="161.18" y1="212.26" x2="171.47" y2="229.58" xlink:href="#linear-gradient-6"/>
    <linearGradient id="linear-gradient-50" x1="187.11" y1="193.82" x2="147.08" y2="304.04" gradientUnits="userSpaceOnUse">
      <stop offset="0" stop-color="#2b416b"/>
      <stop offset=".54" stop-color="#1f325a"/>
      <stop offset="1" stop-color="#192b51"/>
    </linearGradient>
    <linearGradient id="linear-gradient-51" x1="172.73" y1="196.27" x2="137.94" y2="292.04" gradientUnits="userSpaceOnUse">
      <stop offset="0" stop-color="#2b416b"/>
      <stop offset=".53" stop-color="#1f335a"/>
      <stop offset="1" stop-color="#192b51"/>
    </linearGradient>
    <linearGradient id="linear-gradient-52" x1="194.87" y1="209.22" x2="205.67" y2="227.41" xlink:href="#linear-gradient-6"/>
    <linearGradient id="linear-gradient-53" x1="122.53" y1="205.22" x2="131.94" y2="221.06" xlink:href="#linear-gradient-6"/>
  </defs>
  <g id="Layer_1-2" data-name="Layer 1">
    <g>
      <path class="cls-20" d="M119.11,157.8s25.47-18.7,63.1-2.44c0,0,17.81,22.47.85,38.81-16.96,16.34-59.9,14.8-66.11,1.41-6.2-13.39-2.78-34.93,2.16-37.78Z"/>
      <path class="cls-17" d="M182.95,175.15l6.66-8.51s-7.23-2.17-10.07-16.92c-.12.11-.24.22-.36.34-.87,8.81.71,17.24,3.77,25.09Z"/>
      <path class="cls-16" d="M179.18,150.06c-11.43,10.5-17.98,20.08-32.69,19.16-5.69,0-15.91-2.49-23.03-7.19,5.96,11.97,17.22,21.08,26.44,29.14,3.8,3.8,5.36,10.31,7.33,16.85l25.73-32.86c-3.06-7.85-4.64-16.28-3.77-25.09Z"/>
      <path class="cls-15" d="M132.6,167.25c-.75-.5-10.62-6.24-11.3-6.78-1.21,2.84-2.69,5.81-4.52,8.9l31.5,51.88,8.94-13.23c-1.96-6.54-3.52-13.04-7.33-16.85-9.22-8.06-11.33-11.94-17.29-23.91Z"/>
      <path class="cls-12" d="M179.54,149.72c-.53-2.76-.91-5.96-1.06-9.66l-58.14-14.7s3.12,16.83.97,35.1c7.04,5.71,19.74,11.05,26.03,11.05,14.87.93,23.74-3.63,32.21-21.8Z"/>
      <path class="cls-22" d="M271.94,209.42c-15.56-5.75-74.21-32.38-74.21-32.38l-47.79,44.91-40.82-44.91s-68.63,27.64-79.27,32.38l28.4,84.45-.06,4.45h186.72l27.03-88.9Z"/>
      <path class="cls-13" d="M58.25,277.54l-28.4-68.13c-12.03,9.93-14.9,49.15-15.13,88.9h43.45c.1-7.31-.56-14.75.08-20.77Z"/>
      <path class="cls-11" d="M297.34,273.7c-11.14-62.84-25.41-64.28-25.41-64.28l-25.9,64.47,5.51,11.59c1.24,4.5,2.9,8.78,4.91,12.84h45.86c-1.76-7.98-3.51-16.33-4.98-24.61Z"/>
      <path class="cls-22" d="M249.11,273.39l-.39,24.93h11.57c-5.01-8.14-8.9-16.65-11.18-24.93Z"/>
      <path class="cls-10" d="M249.23,284.03c1.34-6.84,9.9-42.75,9.9-42.75l-19.41,43.43,3.66,13.6h10.56c-2.94-7.79-4.87-13.45-4.71-14.28Z"/>
      <path class="cls-14" d="M29.85,209.42s34.61,62.94,44.87,69.91c10.05,6.83,149.97,11.02,163.56-4.36l33.66-65.55-75.82-40.06-25.55,19.4-22.29,32.48-39.06-50.54-79.37,38.72Z"/>
      <g>
        <path class="cls-41" d="M106.98,86.67s3.46,47.01,4.77,48.98c1.31,1.97,21.13,21.8,23.68,23.98,2.56,2.18,29.12.84,29.12.84,0,0,22.32-20.01,24.25-23.22,1.93-3.21,5.23-51.32,5.23-51.32,0,0,5.86-37.79-3.18-50.75-9.04-12.96-70.64-17.16-80.85.87-10.22,18.03-3.02,50.64-3.02,50.64Z"/>
        <g>
          <path class="cls-24" d="M201.84,82.01c9.63-.7,3.36,14.42,3.36,14.42-3.73,19.58-2.12,22.95-10.69,22.21-6.34-.54.45-36.13,7.33-36.63Z"/>
          <path class="cls-42" d="M196.09,110.16s3.05-3.42,2.89-10.76c-.37-17.29,8.73-17.61,5.59-6.13,0,0-.73-5.62-2.02-4.08-1.59,1.89,1.2,3.28-1.1,11.97-1.2,4.51-5.37,9-5.37,9Z"/>
        </g>
        <g>
          <path class="cls-24" d="M99.76,82.28c-9.63-.39-3.52,14.53-3.52,14.53,3.52,19.46,2.99,22.36,10.44,21.87,8.37-.55-.05-36.12-6.93-36.4Z"/>
          <path class="cls-43" d="M105.2,110.25s-3.01-3.32-2.78-10.66c.56-17.31-8.54-17.33-5.53-5.95,0,0,.79-5.64,2.07-4.15,1.57,1.83-1.24,3.32.96,11.93,1.15,4.48,5.27,8.83,5.27,8.83Z"/>
        </g>
        <path class="cls-44" d="M163.39,75.41s-6.51,7.86-6.36,8.73c.14.87,1.25,11.36,1.25,11.36,0,0,25.36-.8,28.67-1.84,3.31-1.04,4.15-7.54,4.15-7.54l-3.54-5.29s-7.6-7.29-8.34-6.8c-.74.49-15.83,1.37-15.83,1.37Z"/>
        <path class="cls-46" d="M136.93,75.4s6.42,7.48,6.31,8.35-.45,11.54-.45,11.54c0,0-25.37.15-28.72-.76s-4.43-7.38-4.43-7.38l3.34-5.42s7.32-7.57,8.08-7.1c.76.47,15.87.77,15.87.77Z"/>
        <path class="cls-19" d="M175.83,118.6c8.19.5,17.34-.56,18.98-17.22.94-9.49-.12-14.44-4.18-15.16-8.6-1.54-20.91,2.21-26.03,4.86-10.82,5.59-3.28,26.63,11.23,27.52Z"/>
        <path class="cls-8" d="M134.81,89.81c-2.34-.83-20.19-4.74-25.49-3.19-3.03.88-1.73,7.56-1.19,13.9.26,3.04.24,7.92.95,9.83,3.47,9.37,16.55,9.73,24.09,7.07,12.86-4.53,13.54-23.42,1.65-27.62Z"/>
        <path class="cls-57" d="M189.79,92.73c-1.48-.81-2.57.38-5.64,1.38-3.01.98-11.23,2.55-7.35,4.59,4.28,2.26,10.24-.89,10.96-1.48.72-.59,3.85-3.49,2.03-4.49Z"/>
        <path class="cls-58" d="M117.07,95.03c-3.12-.82-4.28-1.94-5.71-1.05-1.76,1.1,1.54,3.82,2.3,4.36.75.55,6.9,3.34,11.03.83,3.75-2.27-4.55-3.34-7.61-4.14Z"/>
        <path class="cls-1" d="M116.15,73.76c2.22-3.48,10.27-2.92,14.21-2.83,2.23.05,5.38.12,7.42.87.24,1.25.27,2.15-.12,3.62.91-.78,1.12-2.21.92-3.21.05.03,1.54,2.23.17,4.76-.66,1.2-4.19.2-12.38-.02-2.23-.06-6.03-.38-9.1.62-1.12.37-3.39,1.55-3.39,1.55-.24-.4,1.23-3.71,2.28-5.37Z"/>
        <path class="cls-77" d="M184.15,73.36c-1.76-2.61-9.5-2.72-13.56-2.52-2.08.1-7.39-.05-9.48.69-.24,1.25-.28,2.14.13,3.62-.94-.79-1.15-2.22-.94-3.22-.06.03-1.58,2.22-.16,4.76.67,1.21,4.29.22,12.69.06,2.28-.04,7.15-.13,9.32.68,1.14.42,5.16,1.77,5.16,1.77.25-.4-1.18-2.9-3.16-5.83Z"/>
        <g>
          <path class="cls-59" d="M160.21,90.91c-1.01-1.22.04-3.83.61-5.46,1.79-5.09,5.66-6.78,13.69-6.96,2.63-.06,7.18.5,9.98,3.07,2.15,1.98,3.39,3.95,3.15,5.72-.12.9-4.34,5.95-13.09,6.22-5.72.18-12.23-.05-14.34-2.59Z"/>
          <path class="cls-60" d="M183.49,87.22c-.22.59-.54,1.11-.94,1.58-.62.75-1.41,1.35-2.3,1.83-.33.15-.68.25-1.05.33-.05.02-.1.02-.14.03-.59.13-1.14.26-1.66.36-2.77.55-4.91.81-6.73.81-.74,0-1.42-.05-2.07-.13-.32-.03-.63-.1-.93-.18-2.66-.62-4.66-2.36-5.04-3.08,0,0,0-.02.02-.03v-.02c.14-.33,1.17-2.54,2.82-4.3,1.03-1.09,2.31-2.01,3.79-2.17.47-.05.93-.1,1.39-.11,8.3-.34,12.45,4.58,12.83,5.06.02.02.02.03.02.03Z"/>
          <path class="cls-21" d="M183.46,87.19s.02.03.02.03c-.23.59-.55,1.12-.94,1.59-.1-.06-.22-.13-.35-.2-.84-.45-2.35-1.06-5.19-1.3-11.72-.97-14.24,1.29-14.37,1.41,0,0,0,0,0,0,.36-1.86,1.42-3.26,2.82-4.31,1.47-1.1,3.33-1.82,5.18-2.28,1.52-.38,3.03-.59,4.32-.69,4.15-.32,8.15,5.23,8.51,5.73Z"/>
          <path class="cls-3" d="M179.94,89.26c-.06.34-.23,1.27-.44,1.63-.13.08-.58.26-.76.34-.59.13-1.22.32-1.74.42-2.77.55-4.5.51-6.33.51-.74,0-1.42-.05-2.07-.13-.32-.03-.63-.1-.93-.18-.57-.75-1.11-1.84-1.08-3.34.09-3.96,3.42-5.72,7.1-5.43,3.66.31,6.84,2.36,6.26,6.18Z"/>
          <path class="cls-79" d="M166.72,87.32s5.2-1.13,13.26.56c0,0-.15-4.12-5.01-5.01-4.56-.83-7.92,2.1-8.26,4.45Z"/>
          <path class="cls-5" d="M173.64,83.63c-2.25-.12-4.32,1.64-4.43,3.9-.11,2.26,1.79,4.16,4.03,4.28,2.25.12,4.16-1.62,4.27-3.88.11-2.26-1.63-4.18-3.87-4.3Z"/>
          <path d="M173.49,83.63c-2.65-.15-3.89,1.78-4.22,3.39,0,0,4.36-.43,8.24.38,0,0-.21-3.56-4.01-3.77Z"/>
          <path class="cls-23" d="M179.07,90.32c.44-.82.09-1.88-.77-2.36-.86-.48-1.92-.2-2.36.63-.44.82-.1,1.88.77,2.36.86.48,1.92.2,2.36-.63Z"/>
          <path class="cls-23" d="M174.96,88.13c.35-.65.08-1.48-.6-1.85-.68-.37-1.52-.16-1.87.49-.35.65-.08,1.48.6,1.85.68.38,1.52.16,1.87-.49Z"/>
          <path class="cls-45" d="M162.63,88.75s-.39-3.11,3.34-5.65c3.92-2.66,10.55-2.59,14.39-.19,2.31,1.44,3.13,4.31,3.13,4.31,0,0-4.88-3.46-10.11-3.22-2.9.13-4,.39-5.31.7-3.41.82-5.44,4.05-5.44,4.05Z"/>
        </g>
        <path class="cls-48" d="M119.17,40.18c1.7-.82,26.65,2.71,30.56,1.82,3.91-.89,24.93-4.71,29.01-2.44s6.96,6.81,7.37,9.32c.4,2.51-.25,14.9,0,16.92.24,2.02,3.78,4.53,4.79,16.22,1.01,11.69.47,22.79-.14,27.64-.62,4.86-5.09,20.97-5.09,20.97l8.17-23.55s.82-2.79,1-5.71c.18-2.92,2.35-38.46,2.35-38.46l-11.69-34.6-68.54-3.28-14.83,33.16,3.83,40.04,1.86,5.39,5.8,20.4s-2.22-24.57-2.92-26.04c-.71-1.47-.71-14.74-.47-17.22.66-6.76,4.02-13.34,4.44-15.14.42-1.8-1.69-14.57-1.26-16.37.43-1.8,5.8-9.1,5.8-9.1Z"/>
        <g>
          <path class="cls-47" d="M141.39,91.24c1.01-1.22-.04-3.83-.61-5.46-1.77-5.09-5.61-6.78-13.57-6.96-2.61-.06-7.12.5-9.89,3.07-2.13,1.98-3.36,3.95-3.12,5.72.12.9,4.3,5.95,12.97,6.22,5.67.18,12.12-.04,14.21-2.58Z"/>
          <path class="cls-49" d="M139,89.09c-.36.7-2.23,2.33-4.69,3-.39.11-.8.21-1.22.26-.64.08-1.33.13-2.07.13-1.79,0-3.91-.26-6.66-.82-.34-.07-.69-.15-1.05-.21-.25-.07-.5-.11-.75-.16-.36-.08-.69-.2-1.02-.33-.88-.47-1.66-1.09-2.28-1.84-.39-.46-.71-.99-.93-1.58,0,0,0-.02.02-.03.38-.46,4.49-5.38,12.72-5.05.44.03.91.07,1.38.11,1.46.16,2.71,1.08,3.75,2.17,1.63,1.76,2.65,3.98,2.79,4.3v.02s.02.03.02.03Z"/>
          <path class="cls-21" d="M118.34,87.5s-.02.03-.02.03c.23.59.54,1.12.93,1.59.1-.06.22-.13.35-.2.83-.45,2.33-1.06,5.14-1.3,11.61-.97,14.11,1.3,14.24,1.42,0,0,0,0,0,0-.36-1.86-1.4-3.26-2.8-4.31-1.46-1.1-3.3-1.82-5.13-2.28-1.51-.38-3.01-.59-4.28-.69-4.11-.32-8.08,5.23-8.43,5.73Z"/>
          <path class="cls-80" d="M135.31,88.83c.03,1.45-.47,2.53-1.01,3.26-.39.11-.8.21-1.22.26-.64.08-1.33.13-2.07.13-1.79,0-3.53.13-6.25-.51-.34-.08-1.03-.35-1.39-.42-.33-.11-.59-.13-.79-.26-.21-.38-.46-1.38-.51-1.72-.58-3.82,2.57-5.87,6.2-6.16,3.64-.31,6.94,1.45,7.03,5.41Z"/>
          <path class="cls-81" d="M135.17,87.65s-5.15-1.14-13.14.56c0,0,.15-4.12,4.96-5.01,4.52-.83,7.85,2.1,8.18,4.45Z"/>
          <path class="cls-78" d="M128.32,83.95c2.23-.12,4.28,1.64,4.39,3.9.11,2.26-1.77,4.15-4,4.28-2.23.11-4.13-1.62-4.23-3.88-.11-2.26,1.61-4.18,3.84-4.3Z"/>
          <path d="M128.46,83.95c2.63-.14,3.85,1.78,4.19,3.39,0,0-4.32-.43-8.16.38,0,0,.21-3.56,3.98-3.77Z"/>
          <path class="cls-23" d="M130.27,91.11c-.43-.82-.09-1.88.76-2.36.85-.48,1.9-.2,2.34.63.44.82.09,1.88-.76,2.36-.85.48-1.9.2-2.34-.63Z"/>
          <path class="cls-23" d="M127.43,88.72c-.35-.65-.08-1.48.6-1.85.68-.37,1.5-.16,1.85.49.35.65.08,1.48-.6,1.85-.68.38-1.51.16-1.85-.49Z"/>
          <path class="cls-50" d="M138.99,89.07s.39-3.11-3.31-5.65c-3.88-2.66-10.45-2.59-14.26-.2-2.29,1.44-3.1,4.31-3.1,4.31,0,0,4.84-3.46,10.02-3.22,2.87.13,3.97.39,5.26.7,3.37.82,5.39,4.05,5.39,4.05Z"/>
        </g>
        <path class="cls-2" d="M111.16,41.25s6.69-9.73,23.61-7.07c11.26,1.77,11.72,1.64,15.5,2.48,3.78.84,21.89-6.14,29.85-3.02,7.96,3.12,8.74,12.3,8.8,16.83s-.91,15.19.2,15.9,5.09,5.18,4.72,11.38c-.36,6.2.96,23.64.96,23.64,0,0,1.29-18.86,7.69-19.4l.4-12.98s2.56-8.92,2.78-12.6c.41-6.95-1.56-12.87-1.67-14.03-.29-2.99-5.4-8.17-6.28-9.17,0,0,3.24-6.97-5.66-11.83,0,0-1.8-14.58-17.58-17.89-15.78-3.31-29.03-2.41-33.89-.7,0,0-17.4-4.45-25.97,6.94,0,0-10.99,4.36-12.1,15.18-1.12,10.81,2.58,15.21,3.18,15.05l5.46,1.31Z"/>
        <path class="cls-75" d="M112.85,39.94s-5.46,7.01-3.67,21.01c0,0-2.74,7.69-2.74,12.78,0,5.1,1.51,24.77,1.51,24.77,0,0-3.33-16.71-9.62-16.15,0,0-1.22-11.53-1.54-12.27,0,0-4.88-9.14-1.45-19.85,1.98-6.18,10.36-10.29,10.36-10.29h7.15Z"/>
        <path class="cls-66" d="M127.55,138.84s12.31,6.95,12.95,6.84c.64-.11,10.34-5.15,10.34-5.15,0,0,10.89,5.48,13.33,5.29,2.45-.19,14.83-8,14.83-8,0,0-12.78,11.85-15.29,13.03-2.5,1.17-27.69-.27-27.69-.27l-8.49-11.74Z"/>
        <path class="cls-7" d="M193.81,106.99s-1.44,24.78-3.46,29.24-21.61,22.99-25.86,26.51c-4.25,3.52-23.14,1.79-26.19,1.25-3.05-.54-25.04-21.67-28.09-26.61-3.04-4.93-2.08-36.86-2.08-36.86,0,0,4,20.59,6.8,24.57,2.81,3.98,22.18,21.32,25.2,23.32,1.28.85,4.72-2.6,6.82-5.45,1.99-2.72.66-3.95,5.76-3.65,4.09.24,3.24,1.91,6.18,5.35,2.07,2.43,3.3,3.5,4.81,3.2,3.64-.73,23.19-22.33,24.12-24.51.93-2.18,5.98-16.37,5.98-16.37Z"/>
        <path class="cls-30" d="M122.23,120.55s20.08-6.94,21.3-6.57c7.37,2.25,14.85-.52,15.79-.82.94-.3,13.34,5.29,17.98,7.4,0,0,1.17,14.44,1.58,16.98.51,3.14-4.19,4.67-4.19,4.67l-.05-20.41-29.15,3.23-21.22-3.44,5.04,19.88s-3.52-1.01-5.8-5.38c-.66-5.46-1.27-15.52-1.27-15.52Z"/>
        <path class="cls-4" d="M150.74,27.77s-.18-23.24,28.49-22.8c0,0-16.66-10.03-27.24,1.54-10.58,11.57-1.25,21.27-1.25,21.27Z"/>
        <path class="cls-83" d="M137.75,25.48s1.28-18.01,18.04-22.11c0,0-5.58-7.15-15.2-.59-9.62,6.56-2.84,22.71-2.84,22.71Z"/>
        <path class="cls-85" d="M130.75,26.57s-3.52-19.18,9.84-23.8c0,0-10.35-7.21-16.56,3.38-6.21,10.59,6.71,20.42,6.71,20.42Z"/>
        <path class="cls-84" d="M118.51,27.77s-12.19-10.99-3.88-19.56c8.32-8.57,15.56-5.47,15.56-5.47,0,0-8.24,5.11-9.77,11.23-1.53,6.12-1.91,13.79-1.91,13.79Z"/>
        <path class="cls-87" d="M160.69,25.07s.12-14.93,11.72-17.61,18.33,4.35,19.66,13.9c0,0-2.68-10.99-16.56-6.7-9.4,2.9-14.82,10.41-14.82,10.41Z"/>
        <path class="cls-86" d="M178.49,30.75s12.95-6.73,19.23,2.44c0,0,.7-10.1-9.05-10.68-9.75-.58-10.18,8.24-10.18,8.24Z"/>
        <path class="cls-89" d="M105.7,39.94s-7.51-5.14-2.87-20.25c2.37-7.7,11.79-9.98,11.79-9.98,0,0-3.78,3.03-8.93,16.1-2.41,6.13,0,14.13,0,14.13Z"/>
        <path class="cls-88" d="M105.7,39.94s-7.7.13-11.37,9.62c-2.02,5.22,4.07,17.06,4.07,17.06,0,0-1.32-11.26.63-16.91,2.22-6.41,6.66-9.76,6.66-9.76Z"/>
        <path class="cls-82" d="M190.83,35.51s9.47-4.28,13.14,5.24c2.38,6.18,2.62,10.42-2.09,18.53,0,0,.36-12.42-1.89-15.94-2.26-3.52-9.16-7.83-9.16-7.83Z"/>
        <path class="cls-76" d="M108.14,100.53s.22-6.87.04-18.26c-.1-6.63,1-11.34,4.67-16.82,0,0-2.01-15.75-1.13-17.81,1.96-4.57,8.6-10.85,9.83-11.05,1.23-.2,26.61,2.03,29.74,1.68,3.13-.35,23.08-3.69,28.82-.73,2.41,1.24,8.48,6.8,8.64,9.86.16,3.06-.75,18.25-.75,18.25,0,0,4.99,5.77,4.91,14.02-.09,8.25,1.88,21.71,1.88,21.71,0,0,2.13-25.35,1.89-28.21s-1.6-27.15-2.69-29.65c-1.09-2.5-10.16-11.78-15.51-12.77-5.35-1-27.37,1.44-28.35,2.05s-27.19-6.4-31.63-3.54-13.01,12.86-12.97,15.46c.04,2.59-1.56,23.44-1.52,25.43.02.85,4.12,30.38,4.12,30.38Z"/>
        <path class="cls-29" d="M111.74,139.42s24.94,22.04,27.26,22.37c2.31.33,21.09,1.07,22.98.43,1.89-.64,26.63-23.41,26.63-23.41,0,0-14.32,17.57-26.8,26.24-1.78,1.24-22.11-.03-23.56-.21-4.5-.54-25.61-24.31-26.51-25.41Z"/>
        <path class="cls-26" d="M145.68,144.57s2.65-4.76,3.66-5.46c1.01-.69,5.89-.78,6.34.38.45,1.16,5.11,7.25,5.11,7.25,0,0-5.77-5.03-6.29-5.37-.52-.34-2.33-1.33-3.66-.84-1.33.49-5.16,4.04-5.16,4.04Z"/>
        <path class="cls-27" d="M126.14,129l-.73-6.13c2.01.25,6.34-1.84,6.34-1.84,0,0-6.8.12-8.14-.24-1.34-.36,2.53,8.21,2.53,8.21Z"/>
        <path class="cls-28" d="M174.65,129l-.02-6.43-4.83-1.22s6.48-.8,6.48-.07c-.01,1.23-1.63,7.72-1.63,7.72Z"/>
        <path class="cls-6" d="M140.64,115.23s10.77,5.42,11.24,5.31c.47-.11,10.58-5.44,10.58-5.44,0,0-1.29-2.05-3.13-2.16-3.19-.19-6.52,2.71-8.71,2.17-.94-.23-5.73-1.59-8.3-1.72-1.85-.1-1.68,1.83-1.68,1.83Z"/>
        <g>
          <path class="cls-90" d="M155.36,114.47c6.48-5.17,7.1.65,7.1.65-3.58-2.91-7.1-.65-7.1-.65Z"/>
          <path class="cls-90" d="M140.64,115.23s.88-1.78,5.62-.37c0,0-7.88-5.09-5.62.37Z"/>
          <path class="cls-52" d="M157.73,96.89c.05,2.44,1.34,11.6.65,13.02-1.54,3.16-4.58,4.51-7.46,4.38-2.16.35-6.1-.59-8.34-3.76-.91-1.29.68-10.49.2-13.08,0,0-9.34,16.89-2.14,17.78,0,0-1.18-1.89,1.68-1.83,2.53.06,3.87,4.44,8.86,4.25,5.51-.21,4.54-4.11,7.46-4.61,3.61-.62,2.99,1.74,3.83,2.07,3.6-1.61-1.3-13.91-4.72-18.23Z"/>
          <path class="cls-67" d="M146.53,106.72c-.15,2.72.21,5.63,4.22,5.53,4.4-.11,4.48-3.08,4.02-5.56-2.74-14.69-7.7-10.09-8.24.03Z"/>
        </g>
        <g>
          <path class="cls-65" d="M140.18,123.59c-3.87-.28-13.3-.59-14.61-1.48,6.25-.27,10.49-3.12,16.14-3.51,3.48-.24,6.32.81,7.81.76,1.49-.05,7.37-.82,8.59-.58,2.92.59,14.46,3.55,16.18,2.82,0,0-5.62,1.7-12.05,2.09-4.22.26-6.93.28-11.92.28s-6.27-.12-10.14-.4Z"/>
          <g>
            <path class="cls-9" d="M173.69,122.56l1.33-.99s-.6,1.94-1.06,2.42c-.45.48-6.06,1.58-6.06,1.58l5.78-3.01Z"/>
            <path class="cls-9" d="M126.91,123.52l-2.65-1.94s.58,2.3,1.03,2.79c.45.48,6.99,1.91,6.99,1.91l-5.37-2.76Z"/>
            <path class="cls-25" d="M173.97,122.64c-1,1-7.96,5.28-8.17,5.39-3.47,1.7-4.69.59-7.97,1.5-.09.03-.19.05-.28.08-1.31.33-14.03.71-16.74.25h0c-2.83-.71-4.62.02-7.7-1.53-.41-.2-6.18-4.33-7.28-5.51,0,0,2.28-.22,6.87.31,7.89.92,21.46,1.74,36.9-.6,1.45-.21,2.91.4,4.39.12Z"/>
            <path class="cls-51" d="M132.12,123.74c.27,1.12.57,3.52.98,4.58,2.82,1.37,5.65,2.46,7.7,2.82h0c2.71.47,15.1.22,16.45.05,1.93-.25,5.83-1.85,8.55-3.16.44-1.04.68-3.52.88-4.65-5.92,1.1-20.28,3.14-34.56.36Z"/>
            <path class="cls-18" d="M131.75,122.58c.28,1.27.58,2.13.98,3.39,3.63.6,11.1,1.2,17.08,1.24,5.75.04,12.7-.81,16.36-1.52.29-1,.47-2.07.63-3.06-4.51.18-15.01.81-35.05-.05Z"/>
          </g>
          <path class="cls-68" d="M175.02,121.57c-9.46,1.07-20.08,1.15-24.43,1.12-5.18-.04-18.78-.44-26.33-1.12,0,0,.41.85,1.16,1.3,1.21.73,5.67,1.03,24.9,1.12,14.14.07,22.27-.97,23.65-1.35.72-.2,1.06-1.07,1.06-1.07Z"/>
          <path class="cls-56" d="M129.5,130.19s8.49,4.05,10,4.17c3.85.29,17.35.83,18.6.55,2.99-.68,8.29-4.15,11.42-5.79,0,0-8.91,8.81-19.42,8.77-9.67-.04-16.66-5.12-20.59-7.69Z"/>
          <path class="cls-54" d="M140.71,136.24s4.66,1.83,9.75,1.85c2.72,0,7.09-1.55,7.09-1.55,0,0-6.3.09-16.84-.3Z"/>
        </g>
      </g>
      <path class="cls-53" d="M148.79,174.95s12.62.17,17.39-2.59c4.77-2.77-11.94,16.15-13.43,16.4-1.49.24-3.95-13.8-3.95-13.8Z"/>
      <polygon class="cls-55" points="239.72 284.71 240.32 298.31 243.38 298.31 239.72 284.71"/>
      <path class="cls-62" d="M50.78,285.47l5.51-11.59-25.9-64.47s-14.27,1.44-25.41,64.28c-1.47,8.28-3.21,16.63-4.98,24.61h45.86c2.01-4.06,3.68-8.34,4.91-12.84Z"/>
      <path class="cls-22" d="M53.21,273.39c-2.28,8.28-6.17,16.79-11.18,24.93h11.57l-.39-24.93Z"/>
      <path class="cls-61" d="M62.6,284.71l-22.95-52.23s12.09,44.72,13.43,51.55c.16.83-1.77,6.49-4.71,14.28h10.56l3.66-13.6Z"/>
      <polygon class="cls-63" points="62.6 284.71 58.94 298.31 62 298.31 62.6 284.71"/>
      <path class="cls-69" d="M165.57,219.06c-5.41,2.22-11.92,2.3-17.59,3.77,0,0-1.35,34.1-2.97,75.48h16.49l4.07-79.25Z"/>
      <g>
        <path class="cls-64" d="M135.52,190.19s6.83,6.28,8.09,7.39c1.21,1.06,4.95,18.55,4.95,18.55l-2.15,36.69-19.64-54.48,8.75-8.14Z"/>
        <path class="cls-70" d="M105.15,178.28c0,4.09,7.23,33.57,7.7,35.15,0,0,8.93-7.71,14.93-12.5l7.74-10.75s-30.37-15.99-30.37-11.9Z"/>
        <path class="cls-32" d="M120.62,156.83s-4.95,6.31-2.42,14.92c2.37,8.05,17.32,18.44,17.32,18.44,0,0-17.89,14.96-21.35,18.33-2.42-8.47-11.57-31.91-9.46-35.24,4.05-6.4,9.85-13.15,15.91-16.46Z"/>
        <path class="cls-33" d="M120.62,156.83s-6.34,8.26,1.06,19.17c5.29,7.81,13.85,14.19,13.85,14.19,0,0-11.6-8.15-14.62-11.87-9.34-11.48-.28-21.5-.28-21.5Z"/>
        <path class="cls-34" d="M164.05,189.88c-2.29,1.5-5.28,3.58-9,6.48-1.57,1.22-7.59,21.77-7.07,26.47.07.62.11,1.55.12,2.66,5.63-1.64,12.14-2.05,17.9-3.27.69-6.2.88-12.67,1.49-18.46.04-.37.33-5.32.33-5.32.38-3.66.16-3.46.33-5.85-2.01-.16-3.45-1.22-4.1-2.71Z"/>
        <path class="cls-31" d="M164.05,189.88l3.77,8.56c4.24,3.31,17.16,11.62,23.79,14.99.81.41,5.84-30.09,7.04-38.56l-34.61,15.01Z"/>
        <polygon class="cls-39" points="165.57 257.46 167.83 198.44 163.58 244.29 162.05 280.07 162.05 280.25 161.24 298.31 162.5 298.31 165.57 257.46"/>
        <path class="cls-37" d="M147.98,234.16v-11.33s-.29,2.9-.69,6.98c-.62,6.3-3.35,36.54-4.19,68.5h2.16l2.72-64.16Z"/>
        <path class="cls-40" d="M164.05,189.88s24.1,16.27,27.17,19.59c2.69-10.61,7.76-30.97,7.76-37.04,0-3.19-13.63-15.47-16.77-17.07,0,0,1.77,5.23.87,10.31-3.22,18.22-19.03,24.21-19.03,24.21Z"/>
        <path class="cls-38" d="M164.05,189.88s23.66-11.19,18.16-34.52c0,0,13.59,22.67-18.16,34.52Z"/>
        <path class="cls-36" d="M139.75,205.88c0,1.17-1.06,2.12-2.36,2.12s-2.36-.95-2.36-2.12,1.06-2.12,2.36-2.12,2.36.95,2.36,2.12Z"/>
        <path class="cls-35" d="M164.05,189.88s-6.61,4.6-9.72,6.19c-3.11,1.6-5.9,21.93-5.9,21.93,0,0,5.63-17.71,6.65-19.36,1.02-1.65,8.97-8.76,8.97-8.76Z"/>
        <path class="cls-72" d="M156.46,284.71c0,1.17-1.06,2.12-2.36,2.12s-2.36-.95-2.36-2.12,1.06-2.12,2.36-2.12,2.36.95,2.36,2.12Z"/>
        <path class="cls-73" d="M157.92,243.54c0,1.2-1.06,2.17-2.36,2.17s-2.36-.97-2.36-2.17,1.06-2.16,2.36-2.16,2.36.97,2.36,2.16Z"/>
      </g>
      <path class="cls-74" d="M176.5,198.44l14.73,11.03,4.57-18.83s-4.43,12.8-5.5,13.13c-1.07.33-13.8-5.33-13.8-5.33Z"/>
      <path class="cls-71" d="M109.42,194.11l4.75,14.41,13.61-11.82s-12.26,8.56-12.72,8.39c-.46-.17-5.63-10.98-5.63-10.98Z"/>
    </g>
  </g>
</svg>