<?xml version="1.0" encoding="UTF-8"?>
<svg id="Layer_2" data-name="Layer 2" xmlns="http://www.w3.org/2000/svg" xmlns:xlink="http://www.w3.org/1999/xlink" viewBox="0 0 302.32 298.74">
  <defs>
    <style>
      .cls-1 {
        fill: url(#Gradient_58);
      }

      .cls-2 {
        fill: url(#Gradient_32);
      }

      .cls-3 {
        fill: url(#Gradient_96);
      }

      .cls-4 {
        fill: url(#Gradient_27);
      }

      .cls-5 {
        fill: url(#Gradient_25);
      }

      .cls-6 {
        fill: url(#Gradient_113);
      }

      .cls-7 {
        fill: url(#Gradient_115);
      }

      .cls-8 {
        fill: url(#radial-gradient-2);
      }

      .cls-9 {
        fill: url(#linear-gradient-8);
      }

      .cls-10 {
        fill: url(#linear-gradient-7);
      }

      .cls-11 {
        fill: url(#linear-gradient-5);
      }

      .cls-12 {
        fill: url(#linear-gradient-6);
      }

      .cls-13 {
        fill: url(#linear-gradient-9);
      }

      .cls-14 {
        fill: url(#linear-gradient-4);
      }

      .cls-15 {
        fill: url(#linear-gradient-3);
      }

      .cls-16 {
        fill: url(#linear-gradient-2);
      }

      .cls-17 {
        fill: url(#radial-gradient);
      }

      .cls-18 {
        fill: url(#linear-gradient);
      }

      .cls-19 {
        fill: #ddd;
      }

      .cls-20 {
        fill: #192b51;
      }

      .cls-21 {
        fill: #fff;
      }

      .cls-22 {
        fill: #f0c499;
      }

      .cls-23 {
        fill: url(#Gradient_115-4);
      }

      .cls-24 {
        fill: url(#Gradient_115-5);
      }

      .cls-25 {
        fill: url(#Gradient_115-6);
      }

      .cls-26 {
        fill: url(#Gradient_115-3);
      }

      .cls-27 {
        fill: url(#Gradient_115-2);
      }

      .cls-28 {
        fill: url(#linear-gradient-43);
      }

      .cls-29 {
        fill: url(#linear-gradient-40);
      }

      .cls-30 {
        fill: url(#linear-gradient-41);
      }

      .cls-31 {
        fill: url(#linear-gradient-42);
      }

      .cls-32 {
        fill: url(#linear-gradient-49);
      }

      .cls-33 {
        fill: url(#linear-gradient-48);
      }

      .cls-34 {
        fill: url(#linear-gradient-45);
      }

      .cls-35 {
        fill: url(#linear-gradient-47);
      }

      .cls-36 {
        fill: url(#linear-gradient-44);
      }

      .cls-37 {
        fill: url(#linear-gradient-46);
      }

      .cls-38 {
        fill: url(#linear-gradient-10);
      }

      .cls-39 {
        fill: url(#linear-gradient-11);
      }

      .cls-40 {
        fill: url(#linear-gradient-12);
      }

      .cls-41 {
        fill: url(#linear-gradient-13);
      }

      .cls-42 {
        fill: url(#linear-gradient-19);
      }

      .cls-43 {
        fill: url(#linear-gradient-14);
      }

      .cls-44 {
        fill: url(#linear-gradient-21);
      }

      .cls-45 {
        fill: url(#linear-gradient-20);
      }

      .cls-46 {
        fill: url(#linear-gradient-22);
      }

      .cls-47 {
        fill: url(#linear-gradient-23);
      }

      .cls-48 {
        fill: url(#linear-gradient-28);
      }

      .cls-49 {
        fill: url(#linear-gradient-25);
      }

      .cls-50 {
        fill: url(#linear-gradient-32);
      }

      .cls-51 {
        fill: url(#linear-gradient-31);
      }

      .cls-52 {
        fill: url(#linear-gradient-33);
      }

      .cls-53 {
        fill: url(#linear-gradient-30);
      }

      .cls-54 {
        fill: url(#linear-gradient-15);
      }

      .cls-55 {
        fill: url(#linear-gradient-16);
      }

      .cls-56 {
        fill: url(#linear-gradient-17);
      }

      .cls-57 {
        fill: url(#linear-gradient-18);
      }

      .cls-58 {
        fill: url(#linear-gradient-35);
      }

      .cls-59 {
        fill: url(#linear-gradient-34);
      }

      .cls-60 {
        fill: url(#linear-gradient-36);
      }

      .cls-61 {
        fill: url(#linear-gradient-38);
      }

      .cls-62 {
        fill: url(#linear-gradient-27);
      }

      .cls-63 {
        fill: url(#linear-gradient-24);
      }

      .cls-64 {
        fill: url(#linear-gradient-26);
      }

      .cls-65 {
        fill: url(#linear-gradient-29);
      }

      .cls-66 {
        fill: url(#linear-gradient-37);
      }

      .cls-67 {
        fill: url(#linear-gradient-39);
      }

      .cls-68 {
        fill: url(#linear-gradient-53);
      }

      .cls-69 {
        fill: url(#linear-gradient-50);
      }

      .cls-70 {
        fill: url(#linear-gradient-51);
      }

      .cls-71 {
        fill: url(#linear-gradient-52);
      }

      .cls-72 {
        fill: url(#Gradient_32-2);
      }

      .cls-73 {
        fill: url(#Gradient_58-3);
      }

      .cls-74 {
        fill: url(#Gradient_58-2);
      }

      .cls-75 {
        fill: url(#Gradient_25-2);
      }

      .cls-76 {
        fill: url(#Gradient_96-2);
      }

      .cls-77 {
        fill: url(#Gradient_96-3);
      }

      .cls-78 {
        fill: url(#Gradient_96-4);
      }

      .cls-79 {
        fill: url(#Gradient_27-9);
      }

      .cls-80 {
        fill: url(#Gradient_27-2);
      }

      .cls-81 {
        fill: url(#Gradient_27-4);
      }

      .cls-82 {
        fill: url(#Gradient_27-3);
      }

      .cls-83 {
        fill: url(#Gradient_27-6);
      }

      .cls-84 {
        fill: url(#Gradient_27-5);
      }

      .cls-85 {
        fill: url(#Gradient_27-8);
      }

      .cls-86 {
        fill: url(#Gradient_27-7);
      }

      .cls-87 {
        fill: #dca57b;
      }
    </style>
    <linearGradient id="linear-gradient" x1="100.51" y1="101.58" x2="194.15" y2="243.46" gradientUnits="userSpaceOnUse">
      <stop offset="0" stop-color="#0b173d"/>
      <stop offset=".5" stop-color="#0c193f"/>
      <stop offset=".82" stop-color="#132248"/>
      <stop offset="1" stop-color="#192b51"/>
    </linearGradient>
    <linearGradient id="linear-gradient-2" x1="177.22" y1="161.73" x2="192.79" y2="166.11" gradientUnits="userSpaceOnUse">
      <stop offset="0" stop-color="#f0c499"/>
      <stop offset=".52" stop-color="#f4cfa5"/>
      <stop offset="1" stop-color="#f7d4ab"/>
    </linearGradient>
    <linearGradient id="linear-gradient-3" x1="126.94" y1="167.88" x2="192.16" y2="186.19" xlink:href="#linear-gradient-2"/>
    <linearGradient id="linear-gradient-4" x1="148.99" y1="204.77" x2="117.89" y2="163.11" gradientUnits="userSpaceOnUse">
      <stop offset="0" stop-color="#f0c499"/>
      <stop offset=".51" stop-color="#e3b086"/>
      <stop offset="1" stop-color="#dba379"/>
    </linearGradient>
    <linearGradient id="linear-gradient-5" x1="191.1" y1="166.76" x2="123.92" y2="141.43" xlink:href="#linear-gradient-4"/>
    <linearGradient id="linear-gradient-6" x1="44.72" y1="192.5" x2="35.69" y2="295.7" gradientUnits="userSpaceOnUse">
      <stop offset="0" stop-color="#2b416b"/>
      <stop offset=".46" stop-color="#293e68"/>
      <stop offset=".75" stop-color="#23375f"/>
      <stop offset="1" stop-color="#192b51"/>
    </linearGradient>
    <linearGradient id="linear-gradient-7" x1="273.55" y1="210.37" x2="274.68" y2="347.74" xlink:href="#linear-gradient-6"/>
    <linearGradient id="linear-gradient-8" x1="249.38" y1="231.46" x2="249.67" y2="425.23" xlink:href="#linear-gradient"/>
    <linearGradient id="linear-gradient-9" x1="103.86" y1="-315.21" x2="102.94" y2="-266.09" gradientTransform="translate(29.91 339.23) rotate(3.42) scale(1 .96)" gradientUnits="userSpaceOnUse">
      <stop offset="0" stop-color="#ffd9b3"/>
      <stop offset=".28" stop-color="#fbd6af"/>
      <stop offset="1" stop-color="#f7d4ab"/>
    </linearGradient>
    <linearGradient id="linear-gradient-10" x1="-710.21" y1="643.38" x2="-700.01" y2="668.1" gradientTransform="translate(-497.51 -620.35) rotate(177.48) scale(.99 -1.14) skewX(3.14)" gradientUnits="userSpaceOnUse">
      <stop offset="0" stop-color="#dba379"/>
      <stop offset=".49" stop-color="#e3b086"/>
      <stop offset="1" stop-color="#f0c499"/>
    </linearGradient>
    <linearGradient id="linear-gradient-11" x1="1077.37" y1="582.87" x2="1087.42" y2="607.24" gradientTransform="translate(-981.71 -619.04) rotate(2) scale(.99 1.14) skewX(3.13)" xlink:href="#linear-gradient-10"/>
    <linearGradient id="linear-gradient-12" x1="118.05" y1="-249.01" x2="134.46" y2="-233.52" gradientTransform="translate(30.7 316.73) rotate(3.42)" xlink:href="#linear-gradient-2"/>
    <linearGradient id="linear-gradient-13" x1="84.34" y1="-244.78" x2="80.48" y2="-228.43" gradientTransform="translate(30.7 316.73) rotate(3.42)" xlink:href="#linear-gradient-2"/>
    <radialGradient id="radial-gradient" cx="-883.75" cy="-100.28" fx="-883.75" fy="-100.28" r="23.12" gradientTransform="translate(-714.15 210.9) rotate(177.65) scale(1.02 -.71) skewX(-1.54)" gradientUnits="userSpaceOnUse">
      <stop offset="0" stop-color="#f8c39c"/>
      <stop offset="1" stop-color="#f7d4ab"/>
    </radialGradient>
    <radialGradient id="radial-gradient-2" cx="177.72" cy="-119.55" fx="177.72" fy="-119.55" r="23.71" gradientTransform="translate(-46.6 196.54) rotate(-3.81) scale(1.02 .69) skewX(2.86)" xlink:href="#radial-gradient"/>
    <linearGradient id="linear-gradient-14" x1="241.48" y1="153.22" x2="227.25" y2="158.13" gradientTransform="translate(-52.04 -57.61) rotate(-.26)" gradientUnits="userSpaceOnUse">
      <stop offset="0" stop-color="#fbd6af"/>
      <stop offset="1" stop-color="#f7d4ab"/>
    </linearGradient>
    <linearGradient id="linear-gradient-15" x1="177.36" y1="158.13" x2="156.26" y2="152.98" xlink:href="#linear-gradient-14"/>
    <linearGradient id="Gradient_58" data-name="Gradient 58" x1="-3662.01" y1="-240.76" x2="-3636.46" y2="-240.76" gradientTransform="translate(-3463.3 -619.36) rotate(-165.3) scale(1 -1)" gradientUnits="userSpaceOnUse">
      <stop offset="0" stop-color="#2b1b13"/>
      <stop offset=".04" stop-color="#2e1d14"/>
      <stop offset=".38" stop-color="#442b1d"/>
      <stop offset=".71" stop-color="#513423"/>
      <stop offset="1" stop-color="#563725"/>
    </linearGradient>
    <linearGradient id="Gradient_58-2" data-name="Gradient 58" x1="457.05" y1="600.6" x2="484.94" y2="600.6" gradientTransform="translate(-416.57 -409.94) rotate(-12.57)" xlink:href="#Gradient_58"/>
    <linearGradient id="linear-gradient-16" x1="248.52" y1="136.98" x2="221.29" y2="160.25" gradientTransform="translate(-58.69 -66.64) rotate(1.21)" xlink:href="#linear-gradient-4"/>
    <linearGradient id="linear-gradient-17" x1="233.88" y1="122.7" x2="208.55" y2="116.59" gradientTransform="translate(-44.6 -30.94)" gradientUnits="userSpaceOnUse">
      <stop offset="0" stop-color="#ece7e7"/>
      <stop offset=".23" stop-color="#f5f3f3"/>
      <stop offset=".53" stop-color="#fcfcfc"/>
      <stop offset="1" stop-color="#fff"/>
    </linearGradient>
    <linearGradient id="Gradient_96" data-name="Gradient 96" x1="237.13" y1="137.35" x2="213.08" y2="115.52" gradientTransform="translate(-44.6 -30.94)" gradientUnits="userSpaceOnUse">
      <stop offset="0" stop-color="#a8c3dd"/>
      <stop offset="1" stop-color="#7a90a5"/>
    </linearGradient>
    <linearGradient id="Gradient_96-2" data-name="Gradient 96" x1="129.95" y1="-224.71" x2="129.15" y2="-232.14" gradientTransform="translate(30.7 316.73) rotate(3.42)" xlink:href="#Gradient_96"/>
    <radialGradient id="Gradient_25" data-name="Gradient 25" cx="-878.67" cy="129.33" fx="-878.67" fy="129.33" r="4.04" gradientTransform="translate(1062.87 -21.42) rotate(1.3) skewX(.07)" gradientUnits="userSpaceOnUse">
      <stop offset="0" stop-color="#666"/>
      <stop offset="1" stop-color="#1d1d1d"/>
    </radialGradient>
    <linearGradient id="linear-gradient-18" x1="153.92" y1="142.44" x2="174.22" y2="141.48" gradientTransform="translate(11.29 -60.29) rotate(1.2)" gradientUnits="userSpaceOnUse">
      <stop offset="0" stop-color="#2b1b13"/>
      <stop offset=".04" stop-color="#2e1d14"/>
      <stop offset=".38" stop-color="#442b1d"/>
      <stop offset=".71" stop-color="#513423"/>
      <stop offset="1" stop-color="#563725"/>
    </linearGradient>
    <linearGradient id="linear-gradient-19" x1="113.45" y1="-129.98" x2="111.06" y2="-161.14" gradientTransform="translate(30.7 316.73) rotate(3.42)" gradientUnits="userSpaceOnUse">
      <stop offset="0" stop-color="#f7d4ab"/>
      <stop offset=".45" stop-color="#f3caa0"/>
      <stop offset="1" stop-color="#f0c499"/>
    </linearGradient>
    <linearGradient id="linear-gradient-20" x1="-3563.97" y1="217.91" x2="-3591" y2="241.01" gradientTransform="translate(-3453.29 -67.04) rotate(178.8) scale(1 -1)" xlink:href="#linear-gradient-4"/>
    <linearGradient id="linear-gradient-21" x1="189.95" y1="122.48" x2="163.93" y2="116.2" xlink:href="#linear-gradient-17"/>
    <linearGradient id="Gradient_96-3" data-name="Gradient 96" x1="192.69" y1="137.68" x2="168.55" y2="115.77" xlink:href="#Gradient_96"/>
    <linearGradient id="Gradient_96-4" data-name="Gradient 96" x1="85.36" y1="-219.86" x2="84.55" y2="-227.28" gradientTransform="translate(30.7 316.73) rotate(3.42)" xlink:href="#Gradient_96"/>
    <radialGradient id="Gradient_25-2" data-name="Gradient 25" cx="-4904.89" cy="221.49" fx="-4904.89" fy="221.49" r="4.04" gradientTransform="translate(-4782.96 -22.01) rotate(178.7) scale(1 -1) skewX(.09)" xlink:href="#Gradient_25"/>
    <linearGradient id="linear-gradient-22" x1="-3658.42" y1="222.15" x2="-3638.31" y2="221.19" gradientTransform="translate(-3523.27 -60.71) rotate(178.81) scale(1 -1)" xlink:href="#linear-gradient-18"/>
    <linearGradient id="Gradient_32" data-name="Gradient 32" x1="110.94" y1="-316.2" x2="93.81" y2="-165.01" gradientTransform="translate(30.7 316.73) rotate(3.42)" gradientUnits="userSpaceOnUse">
      <stop offset="0" stop-color="#724831"/>
      <stop offset=".22" stop-color="#67412c"/>
      <stop offset=".63" stop-color="#5a3926"/>
      <stop offset="1" stop-color="#563725"/>
    </linearGradient>
    <linearGradient id="Gradient_32-2" data-name="Gradient 32" x1="59.49" y1="-277.5" x2="48.71" y2="-182.37" xlink:href="#Gradient_32"/>
    <linearGradient id="linear-gradient-23" x1="111.22" y1="-231.45" x2="110.9" y2="-235.59" gradientTransform="translate(27.92 362.67) rotate(3.42) scale(1 .93)" xlink:href="#linear-gradient-19"/>
    <linearGradient id="Gradient_115" data-name="Gradient 115" x1="150.47" y1="111.98" x2="148.4" y2="164.94" gradientUnits="userSpaceOnUse">
      <stop offset="0" stop-color="#d6ac88"/>
      <stop offset="1" stop-color="#a18166"/>
    </linearGradient>
    <linearGradient id="Gradient_115-2" data-name="Gradient 115" x1="151.46" y1="112.02" x2="149.39" y2="164.98" xlink:href="#Gradient_115"/>
    <linearGradient id="Gradient_27" data-name="Gradient 27" x1="151.68" y1="47.48" x2="164.09" y2="6.65" gradientUnits="userSpaceOnUse">
      <stop offset="0" stop-color="#724831"/>
      <stop offset=".42" stop-color="#7f553b"/>
      <stop offset="1" stop-color="#8e6346"/>
    </linearGradient>
    <linearGradient id="Gradient_27-2" data-name="Gradient 27" x1="134.76" y1="42.34" x2="147.17" y2="1.51" xlink:href="#Gradient_27"/>
    <linearGradient id="Gradient_27-3" data-name="Gradient 27" x1="121.49" y1="38.65" x2="134.19" y2="-3.14" xlink:href="#Gradient_27"/>
    <linearGradient id="Gradient_27-4" data-name="Gradient 27" x1="112.78" y1="34.15" x2="125.18" y2="-6.67" xlink:href="#Gradient_27"/>
    <linearGradient id="Gradient_27-5" data-name="Gradient 27" x1="167.04" y1="52.15" x2="179.45" y2="11.32" xlink:href="#Gradient_27"/>
    <linearGradient id="Gradient_27-6" data-name="Gradient 27" x1="180.57" y1="56.26" x2="192.98" y2="15.43" xlink:href="#Gradient_27"/>
    <linearGradient id="Gradient_27-7" data-name="Gradient 27" x1="103.07" y1="32.71" x2="115.48" y2="-8.12" xlink:href="#Gradient_27"/>
    <linearGradient id="Gradient_27-8" data-name="Gradient 27" x1="46.86" y1="-268.15" x2="56.23" y2="-266.91" gradientTransform="translate(30.7 316.73) rotate(3.42)" xlink:href="#Gradient_27"/>
    <linearGradient id="Gradient_27-9" data-name="Gradient 27" x1="192.97" y1="60.23" x2="206.12" y2="16.95" xlink:href="#Gradient_27"/>
    <linearGradient id="Gradient_58-3" data-name="Gradient 58" x1="64.33" y1="-178.6" x2="157.98" y2="-346.37" gradientTransform="translate(30.7 316.73) rotate(3.42)" xlink:href="#Gradient_58"/>
    <linearGradient id="Gradient_115-3" data-name="Gradient 115" x1="111.49" y1="-209.67" x2="110.94" y2="-216.8" gradientTransform="translate(27.92 362.67) rotate(3.42) scale(1 .93)" xlink:href="#Gradient_115"/>
    <linearGradient id="Gradient_115-4" data-name="Gradient 115" x1="91.94" y1="-185.73" x2="91.13" y2="-189.19" gradientTransform="translate(30.7 316.73) rotate(3.42)" xlink:href="#Gradient_115"/>
    <linearGradient id="Gradient_115-5" data-name="Gradient 115" x1="128.32" y1="-188.39" x2="127.5" y2="-191.89" gradientTransform="translate(30.7 316.73) rotate(3.42)" xlink:href="#Gradient_115"/>
    <linearGradient id="Gradient_113" data-name="Gradient 113" x1="108.98" y1="-215.69" x2="107.79" y2="-199.37" gradientTransform="translate(30.7 316.73) rotate(3.42)" gradientUnits="userSpaceOnUse">
      <stop offset="0" stop-color="#a18166"/>
      <stop offset="1" stop-color="#d6ac88"/>
    </linearGradient>
    <linearGradient id="linear-gradient-24" x1="241.12" y1="341.06" x2="241.81" y2="365.49" gradientTransform="translate(-105.28 -249.92) rotate(-2.17)" gradientUnits="userSpaceOnUse">
      <stop offset="0" stop-color="#f7d4ab"/>
      <stop offset=".52" stop-color="#f5d1a8"/>
      <stop offset=".85" stop-color="#f2c99f"/>
      <stop offset="1" stop-color="#f0c499"/>
    </linearGradient>
    <linearGradient id="linear-gradient-25" x1="241.48" y1="824.39" x2="242.99" y2="813.24" gradientTransform="translate(-144.5 -1281.49) rotate(-2.16) scale(1 1.7) skewX(.04)" xlink:href="#linear-gradient-9"/>
    <linearGradient id="linear-gradient-26" x1="302.42" y1="1027.63" x2="301.15" y2="1020.49" gradientTransform="translate(-161.74 -886.09) rotate(-.51)" xlink:href="#linear-gradient-24"/>
    <linearGradient id="linear-gradient-27" x1="358.41" y1="1089.45" x2="358.62" y2="1082.34" gradientTransform="translate(-267.67 -942.03) rotate(-3.14)" gradientUnits="userSpaceOnUse">
      <stop offset="0" stop-color="#f7d4ab"/>
      <stop offset=".76" stop-color="#f2c89e"/>
      <stop offset="1" stop-color="#f0c499"/>
    </linearGradient>
    <linearGradient id="linear-gradient-28" x1="247.81" y1="903.93" x2="242.97" y2="886.74" gradientTransform="translate(-156.23 -754.36) rotate(-3.86)" xlink:href="#linear-gradient-10"/>
    <linearGradient id="linear-gradient-29" x1="320.9" y1="963.69" x2="320.83" y2="959.16" gradientTransform="translate(-201.11 -820.55) rotate(-1.81)" xlink:href="#linear-gradient-10"/>
    <linearGradient id="linear-gradient-30" x1="109.69" y1="319.98" x2="108.24" y2="314.85" gradientTransform="translate(64.31 -197.42) rotate(4.22)" gradientUnits="userSpaceOnUse">
      <stop offset="0" stop-color="#ffd9b3"/>
      <stop offset="1" stop-color="#f7d4ab"/>
    </linearGradient>
    <linearGradient id="Gradient_115-6" data-name="Gradient 115" x1="112.33" y1="-233.55" x2="111.14" y2="-238.64" gradientTransform="translate(27.92 362.67) rotate(3.42) scale(1 .93)" xlink:href="#Gradient_115"/>
    <linearGradient id="linear-gradient-31" x1="150.23" y1="171.14" x2="152.77" y2="319.13" xlink:href="#linear-gradient-6"/>
    <linearGradient id="linear-gradient-32" x1="147.92" y1="179.36" x2="168.47" y2="179.36" gradientTransform="matrix(1,0,0,1,0,0)" xlink:href="#linear-gradient-9"/>
    <linearGradient id="linear-gradient-33" x1="241.46" y1="231.47" x2="241.75" y2="425.24" xlink:href="#linear-gradient"/>
    <linearGradient id="linear-gradient-34" x1="27.47" y1="205.5" x2="28.61" y2="342.68" xlink:href="#linear-gradient-6"/>
    <linearGradient id="linear-gradient-35" x1="51.08" y1="231.76" x2="51.38" y2="425.53" xlink:href="#linear-gradient"/>
    <linearGradient id="linear-gradient-36" x1="60.68" y1="231.75" x2="60.97" y2="425.52" xlink:href="#linear-gradient"/>
    <linearGradient id="linear-gradient-37" x1="155.42" y1="207.84" x2="155.15" y2="313.01" xlink:href="#linear-gradient-6"/>
    <linearGradient id="linear-gradient-38" x1="164.56" y1="351.26" x2="136.23" y2="199.97" xlink:href="#linear-gradient-6"/>
    <linearGradient id="linear-gradient-39" x1="119.04" y1="248.3" x2="119.88" y2="206.86" xlink:href="#linear-gradient-6"/>
    <linearGradient id="linear-gradient-40" x1="119.96" y1="290.11" x2="119.96" y2="166.89" xlink:href="#linear-gradient-6"/>
    <linearGradient id="linear-gradient-41" x1="126.32" y1="194.49" x2="125.28" y2="122.84" xlink:href="#linear-gradient"/>
    <linearGradient id="linear-gradient-42" x1="125.04" y1="328.15" x2="170.35" y2="175.21" xlink:href="#linear-gradient-6"/>
    <linearGradient id="linear-gradient-43" x1="179.93" y1="252.66" x2="180.81" y2="209.49" xlink:href="#linear-gradient-6"/>
    <linearGradient id="linear-gradient-44" x1="162.01" y1="305.82" x2="169.37" y2="149.45" xlink:href="#linear-gradient"/>
    <linearGradient id="linear-gradient-45" x1="152.6" y1="303.53" x2="138.18" y2="216.77" xlink:href="#linear-gradient"/>
    <linearGradient id="linear-gradient-46" x1="181.52" y1="301.44" x2="181.52" y2="164.17" xlink:href="#linear-gradient-6"/>
    <linearGradient id="linear-gradient-47" x1="174.8" y1="194.01" x2="173.91" y2="132.43" xlink:href="#linear-gradient"/>
    <linearGradient id="linear-gradient-48" x1="134.08" y1="201.29" x2="140.29" y2="210.71" xlink:href="#linear-gradient"/>
    <linearGradient id="linear-gradient-49" x1="161.18" y1="212.69" x2="171.47" y2="230.01" xlink:href="#linear-gradient-6"/>
    <linearGradient id="linear-gradient-50" x1="187.11" y1="194.25" x2="147.08" y2="304.47" gradientUnits="userSpaceOnUse">
      <stop offset="0" stop-color="#2b416b"/>
      <stop offset=".54" stop-color="#1f325a"/>
      <stop offset="1" stop-color="#192b51"/>
    </linearGradient>
    <linearGradient id="linear-gradient-51" x1="172.73" y1="196.7" x2="137.94" y2="292.47" gradientUnits="userSpaceOnUse">
      <stop offset="0" stop-color="#2b416b"/>
      <stop offset=".53" stop-color="#1f335a"/>
      <stop offset="1" stop-color="#192b51"/>
    </linearGradient>
    <linearGradient id="linear-gradient-52" x1="194.87" y1="209.65" x2="205.67" y2="227.84" xlink:href="#linear-gradient-6"/>
    <linearGradient id="linear-gradient-53" x1="122.53" y1="205.65" x2="131.94" y2="221.49" xlink:href="#linear-gradient-6"/>
  </defs>
  <g id="Layer_1-2" data-name="Layer 1">
    <g>
      <path class="cls-18" d="M119.11,158.23s25.47-18.7,63.1-2.44c0,0,17.81,22.47.85,38.81-16.96,16.34-59.9,14.8-66.11,1.41-6.2-13.39-2.78-34.93,2.16-37.78Z"/>
      <path class="cls-16" d="M182.95,175.58l6.66-8.51s-7.23-2.17-10.07-16.92c-.12.11-.24.22-.36.34-.87,8.81.71,17.24,3.77,25.09Z"/>
      <path class="cls-15" d="M179.18,150.49c-11.43,10.5-16.96,14.97-31.67,14.05-5.69,0-16.94,2.61-24.05-2.09,5.96,11.97,17.22,21.08,26.44,29.14,3.8,3.8,5.36,10.31,7.33,16.85l25.73-32.86c-3.06-7.85-4.64-16.28-3.77-25.09Z"/>
      <path class="cls-14" d="M131.82,163.91s-9.84-2.47-10.52-3.02c-1.21,2.84-2.69,5.81-4.52,8.9l31.5,51.88,8.94-13.23c-1.96-6.54-3.52-13.04-7.33-16.85-9.22-8.06-14.7-16.01-18.07-27.68Z"/>
      <path class="cls-11" d="M179.54,150.15c-.53-2.76-.91-5.96-1.06-9.66l-58.14-14.7s3.12,16.83.97,35.1c7.04,5.71,20.98,6.64,27.26,6.64,14.87.93,25.81-7.81,30.97-17.38Z"/>
      <path class="cls-20" d="M271.94,209.85c-15.56-5.75-74.21-32.38-74.21-32.38l-47.79,44.91-40.82-44.91s-68.63,27.64-79.27,32.38l28.4,84.45-.06,4.45h186.72l27.03-88.9Z"/>
      <path class="cls-12" d="M58.25,277.97l-28.4-68.13c-12.03,9.93-14.9,49.15-15.13,88.9h43.45c.1-7.31-.56-14.75.08-20.77Z"/>
      <path class="cls-10" d="M297.34,274.13c-11.14-62.84-25.41-64.28-25.41-64.28l-25.9,64.47,5.51,11.59c1.24,4.5,2.9,8.78,4.91,12.84h45.86c-1.76-7.98-3.51-16.33-4.98-24.61Z"/>
      <path class="cls-20" d="M249.11,273.82l-.39,24.93h11.57c-5.01-8.14-8.9-16.65-11.18-24.93Z"/>
      <path class="cls-9" d="M249.23,284.46c1.34-6.84,9.9-42.75,9.9-42.75l-19.41,43.43,3.66,13.6h10.56c-2.94-7.79-4.87-13.45-4.71-14.28Z"/>
      <g>
        <path class="cls-13" d="M106.64,86.95s3.47,47.16,4.78,49.13c1.32,1.97,21.19,16.53,23.76,18.72,2.57,2.19,29.21.84,29.21.84,0,0,22.39-16.52,24.33-19.74,1.94-3.22,5.25-49.7,5.25-49.7,0,0,5.87-37.91-3.19-50.91-9.07-13-70.86-17.21-81.11.87-10.25,18.08-3.03,50.8-3.03,50.8Z"/>
        <g>
          <path class="cls-22" d="M201.8,82.27c9.67-.71,3.37,14.46,3.37,14.46-3.75,19.64-2.13,23.02-10.72,22.29-6.36-.54.45-36.24,7.36-36.75Z"/>
          <path class="cls-38" d="M196.04,110.51s3.06-3.43,2.9-10.79c-.37-17.35,8.76-17.66,5.61-6.15,0,0-.73-5.64-2.03-4.1-1.59,1.89,1.21,3.29-1.1,12-1.21,4.53-5.38,9.03-5.38,9.03Z"/>
        </g>
        <g>
          <path class="cls-22" d="M99.4,82.54c-9.66-.39-3.53,14.57-3.53,14.57,3.53,19.52,3,22.43,10.48,21.94,8.4-.55-.05-36.23-6.95-36.51Z"/>
          <path class="cls-39" d="M104.86,110.6s-3.02-3.33-2.78-10.7c.56-17.36-8.56-17.38-5.54-5.97,0,0,.79-5.66,2.07-4.16,1.57,1.84-1.24,3.33.97,11.97,1.16,4.49,5.29,8.86,5.29,8.86Z"/>
        </g>
        <path class="cls-40" d="M163.23,75.65s-6.53,7.89-6.38,8.76c.14.87,1.26,11.4,1.26,11.4,0,0,25.44-.8,28.76-1.84,3.32-1.04,5.06-11.27,5.06-11.27l-6.02-9.77s-5.28-2.41-6.03-1.92-16.65,4.63-16.65,4.63Z"/>
        <path class="cls-41" d="M136.68,75.63s6.44,7.5,6.33,8.38c-.11.88-.45,11.58-.45,11.58,0,0-25.45.15-28.81-.76-3.36-.91-4.44-7.4-4.44-7.4l.55-6.39s5.44-4.95,6.13-5.51c5.36-4.38,20.69.11,20.69.11Z"/>
        <path class="cls-17" d="M175.71,118.98c8.22.5,17.39-.56,19.04-17.27.94-9.52-.12-14.48-4.19-15.21-8.63-1.55-20.97,2.21-26.11,4.87-10.85,5.61-3.29,26.71,11.27,27.61Z"/>
        <path class="cls-8" d="M134.57,90.1c-2.35-.83-20.25-4.75-25.57-3.2-3.03.88-1.73,7.58-1.19,13.95.26,3.05.24,7.94.95,9.86,3.48,9.4,16.6,9.76,24.16,7.1,12.91-4.54,13.58-23.49,1.65-27.71Z"/>
        <path class="cls-43" d="M189.71,93.02c-1.49-.81-2.58.38-5.66,1.39-3.02.99-11.26,2.55-7.37,4.6,4.3,2.27,10.27-.89,11-1.48.72-.59,3.87-3.5,2.03-4.51Z"/>
        <path class="cls-54" d="M116.76,95.33c-3.13-.83-4.3-1.94-5.73-1.05-1.77,1.11,1.55,3.83,2.3,4.38.76.55,6.92,3.35,11.06.83,3.76-2.28-4.57-3.35-7.64-4.16Z"/>
        <path class="cls-1" d="M120.52,70.89c3.03-2.81,10.71-.23,14.51.86,2.15.61,5.19,1.48,6.98,2.72-.08,1.27-.28,2.15-1.04,3.48,1.08-.53,1.65-1.86,1.7-2.89.05.04.93,2.56-1.05,4.66-.94,1-4.12-.87-12.02-3.15-2.15-.62-5.76-1.9-8.99-1.7-1.18.07-3.68.65-3.68.65-.13-.45,2.13-3.29,3.58-4.63Z"/>
        <path class="cls-74" d="M180.72,70.52c-2.3-2.17-9.9-.57-13.83.51-2.01.55-7.25,1.57-9.13,2.75.03,1.27.2,2.16.92,3.51-1.09-.56-1.61-1.92-1.63-2.94-.05.04-1.05,2.52.89,4.69.92,1.04,4.25-.72,12.43-2.72,2.22-.54,6.97-1.69,9.28-1.38,1.2.16,5.44.6,5.44.6.15-.44-1.79-2.58-4.37-5.02Z"/>
        <g>
          <path class="cls-55" d="M160.04,91.2c-1.02-1.23.04-3.84.61-5.48,1.79-5.11,5.68-6.8,13.73-6.98,2.64-.06,7.21.5,10.01,3.08,2.16,1.99,3.4,3.96,3.16,5.73-.12.9-4.35,5.97-13.13,6.24-5.74.18-12.27-.05-14.39-2.59Z"/>
          <path class="cls-56" d="M183.39,87.5c-.22.59-.54,1.11-.94,1.59-.62.75-1.41,1.36-2.3,1.83-.33.15-.68.25-1.05.33-.05.02-.1.02-.14.03-.59.13-1.15.26-1.67.36-2.78.56-4.93.82-6.75.82-.75,0-1.43-.05-2.08-.13-.32-.03-.63-.1-.94-.18-2.67-.62-4.67-2.37-5.05-3.09,0,0,0-.02.02-.03v-.02c.14-.33,1.18-2.55,2.83-4.32,1.03-1.1,2.32-2.01,3.8-2.18.48-.05.94-.1,1.4-.11,8.33-.34,12.49,4.6,12.87,5.07.02.02.02.03.02.03Z"/>
          <path class="cls-19" d="M183.37,87.46s.02.04.02.04c-.23.59-.55,1.12-.94,1.6-.1-.06-.22-.13-.35-.2-.84-.45-2.36-1.07-5.2-1.3-11.75-.97-14.29,1.3-14.42,1.42,0,0,0,0,0,0,.36-1.86,1.42-3.27,2.83-4.32,1.48-1.1,3.34-1.83,5.19-2.29,1.53-.38,3.04-.59,4.34-.69,4.16-.32,8.17,5.24,8.53,5.75Z"/>
          <path class="cls-3" d="M179.83,89.54c-.06.34-.24,1.27-.44,1.63-.13.08-.59.26-.76.34-.59.13-1.22.32-1.75.42-2.78.56-4.52.51-6.35.51-.75,0-1.43-.05-2.08-.13-.32-.03-.63-.1-.94-.18-.57-.75-1.11-1.85-1.08-3.35.09-3.97,3.43-5.74,7.12-5.45,3.67.31,6.87,2.37,6.28,6.2Z"/>
          <path class="cls-76" d="M166.57,87.6s5.21-1.14,13.31.56c0,0-.15-4.13-5.02-5.02-4.58-.84-7.95,2.1-8.28,4.46Z"/>
          <path class="cls-5" d="M173.51,83.9c-2.25-.12-4.34,1.64-4.45,3.91-.11,2.26,1.79,4.17,4.05,4.29,2.26.12,4.18-1.63,4.29-3.89.11-2.26-1.63-4.2-3.89-4.31Z"/>
          <path d="M173.36,83.89c-2.66-.15-3.9,1.79-4.24,3.4,0,0,4.37-.43,8.26.38,0,0-.21-3.58-4.03-3.78Z"/>
          <path class="cls-21" d="M178.96,90.61c.44-.82.09-1.88-.77-2.37-.86-.48-1.92-.2-2.37.63-.44.83-.1,1.88.77,2.37.86.48,1.92.2,2.37-.63Z"/>
          <path class="cls-21" d="M174.84,88.41c.35-.65.08-1.48-.6-1.86-.68-.38-1.52-.16-1.87.5-.35.65-.08,1.48.6,1.86.69.38,1.53.16,1.87-.5Z"/>
          <path class="cls-57" d="M162.47,89.03s-.39-3.12,3.35-5.67c3.93-2.67,10.58-2.6,14.43-.19,2.32,1.45,3.14,4.33,3.14,4.33,0,0-4.9-3.47-10.14-3.23-2.91.13-4.02.39-5.32.7-3.42.82-5.46,4.06-5.46,4.06Z"/>
        </g>
        <path class="cls-42" d="M118.87,40.31c1.71-.82,26.73,2.72,30.65,1.83,3.92-.89,25.01-4.72,29.1-2.44s6.99,6.83,7.39,9.35-.25,14.95,0,16.97c.24,2.02,3.79,4.54,4.8,16.27s.48,22.86-.15,27.73c-.62,4.87-5.11,21.04-5.11,21.04l8.19-23.63s.82-2.8,1-5.73c.18-2.93,2.36-38.58,2.36-38.58l-11.73-34.71-68.76-3.29-14.87,33.27,3.84,40.17,1.86,5.41,5.82,20.47s-2.22-24.65-2.93-26.12c-.71-1.47-.71-14.79-.47-17.28.66-6.78,4.03-13.38,4.46-15.18.42-1.81-1.69-14.61-1.26-16.42.43-1.81,5.81-9.12,5.81-9.12Z"/>
        <g>
          <path class="cls-45" d="M141.16,91.52c1.01-1.22-.04-3.84-.61-5.48-1.78-5.11-5.63-6.81-13.61-6.98-2.62-.06-7.14.5-9.92,3.08-2.14,1.99-3.37,3.96-3.13,5.73.12.9,4.31,5.97,13.01,6.24,5.69.18,12.16-.04,14.26-2.59Z"/>
          <path class="cls-44" d="M138.76,89.37c-.36.7-2.24,2.34-4.71,3.01-.39.11-.8.21-1.23.26-.64.08-1.34.13-2.08.13-1.8,0-3.92-.26-6.68-.82-.35-.07-.69-.15-1.05-.21-.25-.07-.5-.12-.76-.16-.36-.08-.69-.2-1.02-.33-.88-.47-1.67-1.1-2.28-1.85-.39-.46-.71-1-.93-1.59,0,0,0-.02.02-.03.38-.46,4.51-5.4,12.76-5.07.44.03.91.07,1.39.11,1.46.16,2.72,1.08,3.76,2.18,1.64,1.77,2.66,3.99,2.8,4.32v.02s.02.03.02.03Z"/>
          <path class="cls-19" d="M118.04,87.78s-.02.04-.02.04c.23.59.54,1.12.93,1.6.1-.06.22-.13.35-.2.83-.45,2.33-1.07,5.16-1.3,11.65-.97,14.16,1.3,14.29,1.42,0,0,0,0,0,0-.36-1.86-1.41-3.27-2.81-4.32-1.47-1.11-3.31-1.83-5.15-2.29-1.51-.38-3.02-.59-4.3-.69-4.12-.32-8.1,5.24-8.46,5.75Z"/>
          <path class="cls-77" d="M135.06,89.11c.03,1.46-.47,2.54-1.01,3.27-.39.11-.8.21-1.23.26-.64.08-1.34.13-2.08.13-1.8,0-3.54.13-6.27-.51-.34-.08-1.03-.35-1.39-.42-.33-.12-.59-.13-.79-.26-.21-.38-.46-1.38-.51-1.72-.58-3.83,2.58-5.89,6.22-6.18,3.65-.31,6.96,1.46,7.06,5.43Z"/>
          <path class="cls-78" d="M134.92,87.92s-5.17-1.14-13.19.56c0,0,.15-4.13,4.98-5.02,4.54-.83,7.87,2.1,8.21,4.46Z"/>
          <path class="cls-75" d="M128.05,84.22c2.23-.12,4.3,1.65,4.41,3.91.11,2.27-1.78,4.17-4.01,4.29-2.24.12-4.14-1.63-4.25-3.89-.11-2.26,1.62-4.2,3.85-4.31Z"/>
          <path d="M128.19,84.21c2.64-.15,3.87,1.79,4.2,3.4,0,0-4.33-.43-8.19.38,0,0,.21-3.58,3.99-3.78Z"/>
          <path class="cls-21" d="M130.01,91.4c-.44-.82-.09-1.88.77-2.37.86-.48,1.91-.2,2.34.63.44.83.09,1.88-.76,2.37-.86.48-1.91.2-2.35-.63Z"/>
          <path class="cls-21" d="M127.16,89c-.35-.65-.08-1.48.6-1.86.68-.38,1.51-.16,1.86.5.35.65.08,1.48-.6,1.86-.68.38-1.51.16-1.86-.5Z"/>
          <path class="cls-46" d="M138.75,89.35s.39-3.12-3.32-5.67c-3.89-2.67-10.48-2.6-14.3-.2-2.3,1.45-3.11,4.33-3.11,4.33,0,0,4.85-3.47,10.05-3.23,2.88.13,3.98.39,5.28.71,3.39.82,5.41,4.06,5.41,4.06Z"/>
        </g>
        <path class="cls-2" d="M110.84,41.38s6.71-9.76,23.69-7.09c11.29,1.77,11.76,1.65,15.55,2.49,3.79.84,21.96-6.16,29.94-3.03,7.98,3.13,8.77,12.34,8.83,16.88.06,4.54-.91,15.24.2,15.95,1.11.71,5.1,5.2,4.74,11.41-.36,6.22.96,23.71.96,23.71,0,0,1.29-18.91,7.72-19.46l.4-13.02s2.57-8.94,2.79-12.64c.41-6.98-1.57-12.91-1.68-14.08-.29-3-5.41-8.2-6.3-9.2,0,0,3.25-7-5.67-11.87,0,0-1.81-14.63-17.63-17.95s-29.12-2.41-34-.7c0,0-17.46-4.47-26.05,6.96,0,0-11.02,4.38-12.14,15.23s2.59,15.26,3.19,15.1l5.47,1.31Z"/>
        <path class="cls-72" d="M112.53,40.07s-5.47,7.03-3.68,21.08c0,0-2.75,7.71-2.75,12.82,0,5.11,1.51,24.84,1.51,24.84,0,0-3.34-16.76-9.65-16.2,0,0-1.23-11.57-1.54-12.31,0,0-4.9-9.17-1.45-19.91,1.99-6.2,10.4-10.33,10.4-10.33h7.17Z"/>
        <path class="cls-47" d="M125.5,133.94s12.35,6.97,12.99,6.86c.64-.11,10.38-5.16,10.38-5.16,0,0,10.92,5.5,13.38,5.31,2.45-.19,14.88-8.03,14.88-8.03,0,0-12.82,11.89-15.33,13.07-2.51,1.18-27.78-.27-27.78-.27l-8.51-11.78Z"/>
        <path class="cls-7" d="M193.75,107.33s-1.45,23.07-3.47,27.56c-2.02,4.48-21.68,19.51-25.94,23.04s-23.21,1.79-26.27,1.25c-3.06-.54-25.12-19.34-28.17-24.29-3.05-4.95-2.09-34.04-2.09-34.04,0,0,4.01,20.65,6.83,24.64s20.33,14.6,23.36,16.61c1.28.85,4.48-1.02,6.58-3.88,2-2.73,1.07-4.1,6.18-3.79,4.11.24,3.25,1.92,6.2,5.36,2.08,2.43,3.31,3.52,4.83,3.21,3.66-.73,25.04-17.06,25.97-19.25.93-2.19,5.99-16.42,5.99-16.42Z"/>
        <path class="cls-27" d="M126.7,122.95s15.38-8.99,16.61-8.62c7.4,2.25,14.9-.52,15.84-.83.94-.3,8.64,6.5,13.27,9.44,0,0,3.83,12.75,4.24,15.3.51,3.15-4.93,4.87-4.93,4.87,0,0-1.4-15.58-2.24-18.78-5.92-2.79-27.35-1.76-27.35-1.76,0,0-7.73.82-12.4,2.13-.37,4.68-.42,16.72-.42,16.72,0,0-2.84.5-5.13-3.9.55-5.6,2.51-14.58,2.51-14.58Z"/>
        <path class="cls-4" d="M150.54,27.85s-.18-23.32,28.58-22.88c0,0-16.71-10.07-27.33,1.54-10.61,11.61-1.26,21.33-1.26,21.33Z"/>
        <path class="cls-80" d="M137.52,25.56s1.28-18.07,18.1-22.18c0,0-5.6-7.17-15.25-.59-9.65,6.58-2.85,22.78-2.85,22.78Z"/>
        <path class="cls-82" d="M130.49,26.66s-3.53-19.24,9.88-23.88c0,0-10.38-7.23-16.61,3.39-6.23,10.62,6.73,20.49,6.73,20.49Z"/>
        <path class="cls-81" d="M118.21,27.85s-12.23-11.03-3.89-19.62c8.34-8.59,15.6-5.48,15.6-5.48,0,0-8.26,5.13-9.8,11.27-1.54,6.14-1.91,13.83-1.91,13.83Z"/>
        <path class="cls-84" d="M160.53,25.15s.12-14.98,11.75-17.67c11.63-2.69,18.38,4.37,19.72,13.94,0,0-2.69-11.02-16.61-6.72-9.43,2.91-14.87,10.44-14.87,10.44Z"/>
        <path class="cls-83" d="M178.38,30.85s12.99-6.75,19.29,2.45c0,0,.7-10.13-9.08-10.72-9.78-.58-10.21,8.27-10.21,8.27Z"/>
        <path class="cls-86" d="M105.36,40.07s-7.53-5.16-2.88-20.31c2.37-7.72,11.83-10.02,11.83-10.02,0,0-3.8,3.04-8.96,16.15-2.42,6.15,0,14.17,0,14.17Z"/>
        <path class="cls-85" d="M105.36,40.07s-7.72.13-11.4,9.65c-2.02,5.23,4.08,17.11,4.08,17.11,0,0-1.33-11.3.64-16.97,2.23-6.43,6.69-9.8,6.69-9.8Z"/>
        <path class="cls-79" d="M190.76,35.62s9.5-4.3,13.19,5.26c2.39,6.2,2.63,10.46-2.09,18.59,0,0,.36-12.46-1.9-15.99-2.26-3.53-9.19-7.86-9.19-7.86Z"/>
        <path class="cls-73" d="M107.8,100.85s.22-6.89.04-18.31c-.1-6.65,1-11.38,4.69-16.87,0,0-2.01-15.8-1.13-17.86,1.96-4.58,8.63-10.89,9.86-11.09s26.69,2.04,29.83,1.68c3.14-.36,23.16-3.7,28.91-.73,2.42,1.25,8.51,6.82,8.67,9.89.16,3.07-.75,18.31-.75,18.31,0,0,5.01,5.79,4.92,14.06-.09,8.27,1.88,21.78,1.88,21.78,0,0,2.14-25.43,1.9-28.3-.24-2.86-1.61-27.23-2.7-29.74-1.1-2.51-10.19-11.81-15.56-12.81-5.37-1-27.46,1.45-28.44,2.06-.99.61-27.27-6.42-31.73-3.55-4.46,2.87-13.05,12.9-13.01,15.5s-1.57,23.52-1.52,25.51c.02.85,4.13,30.47,4.13,30.47Z"/>
        <path class="cls-26" d="M113.29,138.85s23.3,17.25,25.48,18.11c4.33,1.7,18.53,2.43,23.05.43,7.13-3.16,24.96-18.28,24.96-18.28,0,0-13.62,15.69-25.13,21.12-3.13,1.48-19.29,1.18-23.64-.21-4.33-1.39-23.83-20.07-24.72-21.17Z"/>
        <path class="cls-23" d="M129.43,130.29l.38-5.6c2.02.25,4.51-2.1,4.51-2.1,0,0-3.07,1.22-5.35,1.58-1.37.22.46,6.11.46,6.11Z"/>
        <path class="cls-24" d="M170.23,128.96l-.65-4.76-4.85-1.23s4.68.69,5.88.79c.89.07-.38,5.2-.38,5.2Z"/>
        <path class="cls-6" d="M140.41,115.6s10.81,5.44,11.28,5.33c.47-.11,10.61-5.45,10.61-5.45,0,0-1.29-2.05-3.14-2.16-3.2-.19-6.54,2.72-8.74,2.18-.95-.23-5.75-1.59-8.33-1.73-1.85-.1-1.68,1.83-1.68,1.83Z"/>
        <g>
          <path class="cls-87" d="M155.18,114.83c6.5-5.19,7.12.65,7.12.65-3.59-2.92-7.12-.65-7.12-.65Z"/>
          <path class="cls-87" d="M140.41,115.6s.89-1.78,5.64-.37c0,0-7.91-5.11-5.64.37Z"/>
          <path class="cls-63" d="M157.56,97.19c.05,2.45,1.34,11.64.65,13.07-1.54,3.17-4.6,4.52-7.48,4.4-2.17.35-6.12-.6-8.36-3.77-.92-1.3.69-10.53.2-13.12,0,0-9.37,16.95-2.15,17.84,0,0-1.18-1.9,1.68-1.83,2.54.06,3.88,4.45,8.88,4.26,5.52-.21,4.56-4.12,7.48-4.63,3.62-.63,3,1.75,3.84,2.08,3.61-1.61-1.3-13.96-4.74-18.28Z"/>
          <path class="cls-49" d="M146.32,107.05c-.15,2.73.21,5.65,4.24,5.55,4.42-.11,4.49-3.09,4.03-5.58-2.74-14.73-7.72-10.12-8.27.03Z"/>
        </g>
        <g>
          <path class="cls-64" d="M139.15,135.49c11.98-2.11,20.1.06,20.1.06-9.17-8.49-20.1-.06-20.1-.06Z"/>
          <path class="cls-62" d="M139.83,121.02c6.6.44,9.77,1.45,15.95.76,2.12-.29,3.25-1.65,6.41-.84,1.05.27,4.84,2.7,6.16,3.01-1.97-.25-5.04-1.42-6.72-1.23-.56.06-1.14.15-1.76.27-7.6,2.9-16.25.71-24.28.39-.7,0-3.68.92-4.45,1.12.95-.34,5.02-3.8,8.68-3.47Z"/>
          <path class="cls-48" d="M169.48,124.35c-1.56-.71-7.8-2.69-10.32-2.2-2.07.4-6.45,1.64-9.27,1.63-2.98-.01-8.43-1.18-10.43-1.53-2-.35-7.12,1.79-9.73,2.48,2.25.02,5.55-.91,7.67-1.04,2.66.07,7.35,2.88,23.09.16,1.17-.2,1.29-.21,2.03-.34,2.96-.48,5.09.56,6.95.85Z"/>
          <path class="cls-65" d="M138.93,129.58s8.35,5.03,22.01-.18c0,0-8.09,3.16-22.01.18Z"/>
          <path class="cls-53" d="M145.55,126.69c1.58-.34,8.82-1.27,9.62-.06.81,1.21-3.06,3.24-6.51,3.11-3.45-.13-6.63-2.29-3.11-3.05Z"/>
        </g>
        <path class="cls-25" d="M143.09,139.91s3.14-4.81,4-5.75c.83-.9,5.58-.59,6.36.38.81,1,5.07,6.96,5.07,6.96,0,0-5.73-4.74-6.25-5.08s-2.34-1.34-3.67-.85c-1.33.49-5.51,4.33-5.51,4.33Z"/>
      </g>
      <path class="cls-51" d="M29.85,209.85s34.61,62.94,44.87,69.91c10.05,6.83,149.97,11.02,163.56-4.36l33.66-65.55-75.82-40.06-25.55,19.4-22.29,32.48-39.06-50.54-79.37,38.72Z"/>
      <path class="cls-50" d="M147.92,172.1s14.38.95,19.77-2.32c4.71-2.85-13.45,19.15-14.94,19.39-1.49.24-4.83-17.08-4.83-17.08Z"/>
      <polygon class="cls-52" points="239.72 285.14 240.32 298.74 243.38 298.74 239.72 285.14"/>
      <path class="cls-59" d="M50.78,285.9l5.51-11.59-25.9-64.47s-14.27,1.44-25.41,64.28c-1.47,8.28-3.21,16.63-4.98,24.61h45.86c2.01-4.06,3.68-8.34,4.91-12.84Z"/>
      <path class="cls-20" d="M53.21,273.82c-2.28,8.28-6.17,16.79-11.18,24.93h11.57l-.39-24.93Z"/>
      <path class="cls-58" d="M62.6,285.14l-22.95-52.23s12.09,44.72,13.43,51.55c.16.83-1.77,6.49-4.71,14.28h10.56l3.66-13.6Z"/>
      <polygon class="cls-60" points="62.6 285.14 58.94 298.74 62 298.74 62.6 285.14"/>
      <path class="cls-66" d="M165.57,219.49c-5.41,2.22-11.92,2.3-17.59,3.77,0,0-1.35,34.1-2.97,75.48h16.49l4.07-79.25Z"/>
      <g>
        <path class="cls-61" d="M135.52,190.62s6.83,6.28,8.09,7.39c1.21,1.06,4.95,18.55,4.95,18.55l-2.15,36.69-19.64-54.48,8.75-8.14Z"/>
        <path class="cls-67" d="M105.15,178.71c0,4.09,7.23,33.57,7.7,35.15,0,0,8.93-7.71,14.93-12.5l7.74-10.75s-30.37-15.99-30.37-11.9Z"/>
        <path class="cls-29" d="M120.62,157.26s-4.95,6.31-2.42,14.92c2.37,8.05,17.32,18.44,17.32,18.44,0,0-17.89,14.96-21.35,18.33-2.42-8.47-11.57-31.91-9.46-35.24,4.05-6.4,9.85-13.15,15.91-16.46Z"/>
        <path class="cls-30" d="M120.62,157.26s-6.34,8.26,1.06,19.17c5.29,7.81,13.85,14.19,13.85,14.19,0,0-11.6-8.15-14.62-11.87-9.34-11.48-.28-21.5-.28-21.5Z"/>
        <path class="cls-31" d="M164.05,190.31c-2.29,1.5-5.28,3.58-9,6.48-1.57,1.22-7.59,21.77-7.07,26.47.07.62.11,1.55.12,2.66,5.63-1.64,12.14-2.05,17.9-3.27.69-6.2.88-12.67,1.49-18.46.04-.37.33-5.32.33-5.32.38-3.66.16-3.46.33-5.85-2.01-.16-3.45-1.22-4.1-2.71Z"/>
        <path class="cls-28" d="M164.05,190.31l3.77,8.56c4.24,3.31,17.16,11.62,23.79,14.99.81.41,5.84-30.09,7.04-38.56l-34.61,15.01Z"/>
        <polygon class="cls-36" points="165.57 257.89 167.83 198.87 163.58 244.72 162.05 280.5 162.05 280.67 161.24 298.74 162.5 298.74 165.57 257.89"/>
        <path class="cls-34" d="M147.98,234.59v-11.33s-.29,2.9-.69,6.98c-.62,6.3-3.35,36.54-4.19,68.5h2.16l2.72-64.16Z"/>
        <path class="cls-37" d="M164.05,190.31s24.1,16.27,27.17,19.59c2.69-10.61,7.76-30.97,7.76-37.04,0-3.19-13.63-15.47-16.77-17.07,0,0,1.77,5.23.87,10.31-3.22,18.22-19.03,24.21-19.03,24.21Z"/>
        <path class="cls-35" d="M164.05,190.31s23.66-11.19,18.16-34.52c0,0,13.59,22.67-18.16,34.52Z"/>
        <ellipse class="cls-33" cx="137.39" cy="206.31" rx="2.36" ry="2.12"/>
        <path class="cls-32" d="M164.05,190.31s-6.61,4.6-9.72,6.19c-3.11,1.6-5.9,21.93-5.9,21.93,0,0,5.63-17.71,6.65-19.36,1.02-1.65,8.97-8.76,8.97-8.76Z"/>
        <path class="cls-69" d="M156.46,285.14c0,1.17-1.06,2.12-2.36,2.12s-2.36-.95-2.36-2.12,1.06-2.12,2.36-2.12,2.36.95,2.36,2.12Z"/>
        <path class="cls-70" d="M157.92,243.97c0,1.2-1.06,2.17-2.36,2.17s-2.36-.97-2.36-2.17,1.06-2.16,2.36-2.16,2.36.97,2.36,2.16Z"/>
      </g>
      <path class="cls-71" d="M176.5,198.87l14.73,11.03,4.57-18.83s-4.43,12.8-5.5,13.13c-1.07.33-13.8-5.33-13.8-5.33Z"/>
      <path class="cls-68" d="M109.42,194.54l4.75,14.41,13.61-11.82s-12.26,8.56-12.72,8.39c-.46-.17-5.63-10.98-5.63-10.98Z"/>
    </g>
  </g>
</svg>