<?xml version="1.0" encoding="UTF-8"?>
<svg id="Layer_2" data-name="Layer 2" xmlns="http://www.w3.org/2000/svg" xmlns:xlink="http://www.w3.org/1999/xlink" viewBox="0 0 302.32 296.48">
  <defs>
    <style>
      .cls-1 {
        fill: url(#Gradient_58);
      }

      .cls-2 {
        fill: url(#Gradient_51);
      }

      .cls-3 {
        fill: url(#Gradient_32);
      }

      .cls-4 {
        fill: url(#Gradient_96);
      }

      .cls-5 {
        fill: url(#Gradient_27);
      }

      .cls-6 {
        fill: url(#Gradient_25);
      }

      .cls-7 {
        fill: url(#Gradient_15);
      }

      .cls-8 {
        fill: url(#Gradient_149);
      }

      .cls-9 {
        fill: url(#Gradient_113);
      }

      .cls-10 {
        fill: url(#Gradient_115);
      }

      .cls-11 {
        fill: url(#radial-gradient-2);
      }

      .cls-12 {
        fill: url(#linear-gradient-8);
      }

      .cls-13 {
        fill: url(#linear-gradient-7);
      }

      .cls-14 {
        fill: url(#linear-gradient-5);
      }

      .cls-15 {
        fill: url(#linear-gradient-6);
      }

      .cls-16 {
        fill: url(#linear-gradient-9);
      }

      .cls-17 {
        fill: url(#linear-gradient-4);
      }

      .cls-18 {
        fill: url(#linear-gradient-3);
      }

      .cls-19 {
        fill: url(#linear-gradient-2);
      }

      .cls-20 {
        fill: url(#radial-gradient);
      }

      .cls-21 {
        fill: url(#linear-gradient);
      }

      .cls-22 {
        fill: #ddd;
      }

      .cls-23 {
        fill: #192b51;
      }

      .cls-24 {
        fill: #fff;
      }

      .cls-25 {
        fill: #f0c499;
      }

      .cls-26 {
        fill: #711e22;
      }

      .cls-27 {
        fill: url(#Gradient_149-2);
      }

      .cls-28 {
        fill: url(#Gradient_149-3);
      }

      .cls-29 {
        fill: url(#Gradient_115-4);
      }

      .cls-30 {
        fill: url(#Gradient_115-5);
      }

      .cls-31 {
        fill: url(#Gradient_115-6);
      }

      .cls-32 {
        fill: url(#Gradient_115-3);
      }

      .cls-33 {
        fill: url(#Gradient_115-2);
      }

      .cls-34 {
        fill: url(#linear-gradient-43);
      }

      .cls-35 {
        fill: url(#linear-gradient-40);
      }

      .cls-36 {
        fill: url(#linear-gradient-41);
      }

      .cls-37 {
        fill: url(#linear-gradient-42);
      }

      .cls-38 {
        fill: url(#linear-gradient-49);
      }

      .cls-39 {
        fill: url(#linear-gradient-48);
      }

      .cls-40 {
        fill: url(#linear-gradient-45);
      }

      .cls-41 {
        fill: url(#linear-gradient-47);
      }

      .cls-42 {
        fill: url(#linear-gradient-44);
      }

      .cls-43 {
        fill: url(#linear-gradient-46);
      }

      .cls-44 {
        fill: url(#linear-gradient-10);
      }

      .cls-45 {
        fill: url(#linear-gradient-11);
      }

      .cls-46 {
        fill: url(#linear-gradient-12);
      }

      .cls-47 {
        fill: url(#linear-gradient-13);
      }

      .cls-48 {
        fill: url(#linear-gradient-19);
      }

      .cls-49 {
        fill: url(#linear-gradient-14);
      }

      .cls-50 {
        fill: url(#linear-gradient-21);
      }

      .cls-51 {
        fill: url(#linear-gradient-20);
      }

      .cls-52 {
        fill: url(#linear-gradient-22);
      }

      .cls-53 {
        fill: url(#linear-gradient-23);
      }

      .cls-54 {
        fill: url(#linear-gradient-28);
      }

      .cls-55 {
        fill: url(#linear-gradient-25);
      }

      .cls-56 {
        fill: url(#linear-gradient-32);
      }

      .cls-57 {
        fill: url(#linear-gradient-31);
      }

      .cls-58 {
        fill: url(#linear-gradient-33);
      }

      .cls-59 {
        fill: url(#linear-gradient-30);
      }

      .cls-60 {
        fill: url(#linear-gradient-15);
      }

      .cls-61 {
        fill: url(#linear-gradient-16);
      }

      .cls-62 {
        fill: url(#linear-gradient-17);
      }

      .cls-63 {
        fill: url(#linear-gradient-18);
      }

      .cls-64 {
        fill: url(#linear-gradient-35);
      }

      .cls-65 {
        fill: url(#linear-gradient-34);
      }

      .cls-66 {
        fill: url(#linear-gradient-36);
      }

      .cls-67 {
        fill: url(#linear-gradient-38);
      }

      .cls-68 {
        fill: url(#linear-gradient-27);
      }

      .cls-69 {
        fill: url(#linear-gradient-24);
      }

      .cls-70 {
        fill: url(#linear-gradient-26);
      }

      .cls-71 {
        fill: url(#linear-gradient-29);
      }

      .cls-72 {
        fill: url(#linear-gradient-37);
      }

      .cls-73 {
        fill: url(#linear-gradient-39);
      }

      .cls-74 {
        fill: url(#linear-gradient-57);
      }

      .cls-75 {
        fill: url(#linear-gradient-53);
      }

      .cls-76 {
        fill: url(#linear-gradient-54);
      }

      .cls-77 {
        fill: url(#linear-gradient-55);
      }

      .cls-78 {
        fill: url(#linear-gradient-56);
      }

      .cls-79 {
        fill: url(#linear-gradient-50);
      }

      .cls-80 {
        fill: url(#linear-gradient-51);
      }

      .cls-81 {
        fill: url(#linear-gradient-52);
      }

      .cls-82 {
        fill: url(#Gradient_15-4);
      }

      .cls-83 {
        fill: url(#Gradient_15-3);
      }

      .cls-84 {
        fill: url(#Gradient_15-2);
      }

      .cls-85 {
        fill: url(#Gradient_32-2);
      }

      .cls-86 {
        fill: url(#Gradient_58-3);
      }

      .cls-87 {
        fill: url(#Gradient_58-2);
      }

      .cls-88 {
        fill: url(#Gradient_25-2);
      }

      .cls-89 {
        fill: url(#Gradient_96-2);
      }

      .cls-90 {
        fill: url(#Gradient_96-3);
      }

      .cls-91 {
        fill: url(#Gradient_96-4);
      }

      .cls-92 {
        fill: url(#Gradient_27-9);
      }

      .cls-93 {
        fill: url(#Gradient_27-2);
      }

      .cls-94 {
        fill: url(#Gradient_27-4);
      }

      .cls-95 {
        fill: url(#Gradient_27-3);
      }

      .cls-96 {
        fill: url(#Gradient_27-6);
      }

      .cls-97 {
        fill: url(#Gradient_27-5);
      }

      .cls-98 {
        fill: url(#Gradient_27-8);
      }

      .cls-99 {
        fill: url(#Gradient_27-7);
      }

      .cls-100 {
        fill: #dca57b;
      }
    </style>
    <linearGradient id="linear-gradient" x1="100.51" y1="99.32" x2="194.15" y2="241.2" gradientUnits="userSpaceOnUse">
      <stop offset="0" stop-color="#0b173d"/>
      <stop offset=".5" stop-color="#0c193f"/>
      <stop offset=".82" stop-color="#132248"/>
      <stop offset="1" stop-color="#192b51"/>
    </linearGradient>
    <linearGradient id="linear-gradient-2" x1="177.22" y1="159.48" x2="192.79" y2="163.85" gradientUnits="userSpaceOnUse">
      <stop offset="0" stop-color="#f0c499"/>
      <stop offset=".52" stop-color="#f4cfa5"/>
      <stop offset="1" stop-color="#f7d4ab"/>
    </linearGradient>
    <linearGradient id="linear-gradient-3" x1="126.94" y1="165.62" x2="192.16" y2="183.93" xlink:href="#linear-gradient-2"/>
    <linearGradient id="linear-gradient-4" x1="148.34" y1="203" x2="117.24" y2="161.33" gradientUnits="userSpaceOnUse">
      <stop offset="0" stop-color="#f0c499"/>
      <stop offset=".51" stop-color="#e3b086"/>
      <stop offset="1" stop-color="#dba379"/>
    </linearGradient>
    <linearGradient id="linear-gradient-5" x1="193.94" y1="168.62" x2="123.34" y2="142.01" xlink:href="#linear-gradient-4"/>
    <linearGradient id="linear-gradient-6" x1="44.72" y1="190.24" x2="35.69" y2="293.45" gradientUnits="userSpaceOnUse">
      <stop offset="0" stop-color="#2b416b"/>
      <stop offset=".46" stop-color="#293e68"/>
      <stop offset=".75" stop-color="#23375f"/>
      <stop offset="1" stop-color="#192b51"/>
    </linearGradient>
    <linearGradient id="linear-gradient-7" x1="273.55" y1="208.11" x2="274.68" y2="345.48" xlink:href="#linear-gradient-6"/>
    <linearGradient id="linear-gradient-8" x1="249.38" y1="229.2" x2="249.67" y2="422.97" xlink:href="#linear-gradient"/>
    <linearGradient id="linear-gradient-9" x1="150.23" y1="168.88" x2="152.77" y2="316.87" xlink:href="#linear-gradient-6"/>
    <linearGradient id="linear-gradient-10" x1="241.46" y1="229.21" x2="241.75" y2="422.98" xlink:href="#linear-gradient"/>
    <linearGradient id="linear-gradient-11" x1="27.47" y1="203.24" x2="28.61" y2="340.42" xlink:href="#linear-gradient-6"/>
    <linearGradient id="linear-gradient-12" x1="51.08" y1="229.5" x2="51.38" y2="423.27" xlink:href="#linear-gradient"/>
    <linearGradient id="linear-gradient-13" x1="60.68" y1="229.49" x2="60.97" y2="423.26" xlink:href="#linear-gradient"/>
    <linearGradient id="linear-gradient-14" x1="155.42" y1="205.58" x2="155.15" y2="310.76" xlink:href="#linear-gradient-6"/>
    <linearGradient id="linear-gradient-15" x1="164.56" y1="349" x2="136.23" y2="197.71" xlink:href="#linear-gradient-6"/>
    <linearGradient id="linear-gradient-16" x1="119.04" y1="246.04" x2="119.88" y2="204.6" xlink:href="#linear-gradient-6"/>
    <linearGradient id="linear-gradient-17" x1="119.96" y1="287.85" x2="119.96" y2="164.64" xlink:href="#linear-gradient-6"/>
    <linearGradient id="linear-gradient-18" x1="126.32" y1="192.23" x2="125.28" y2="120.58" xlink:href="#linear-gradient"/>
    <linearGradient id="linear-gradient-19" x1="125.04" y1="325.89" x2="170.35" y2="172.95" xlink:href="#linear-gradient-6"/>
    <linearGradient id="linear-gradient-20" x1="179.93" y1="250.4" x2="180.81" y2="207.23" xlink:href="#linear-gradient-6"/>
    <linearGradient id="linear-gradient-21" x1="162.01" y1="303.56" x2="169.37" y2="147.19" xlink:href="#linear-gradient"/>
    <linearGradient id="linear-gradient-22" x1="152.6" y1="301.27" x2="138.18" y2="214.51" xlink:href="#linear-gradient"/>
    <linearGradient id="linear-gradient-23" x1="181.52" y1="299.18" x2="181.52" y2="161.91" xlink:href="#linear-gradient-6"/>
    <linearGradient id="linear-gradient-24" x1="174.8" y1="191.75" x2="173.91" y2="130.18" xlink:href="#linear-gradient"/>
    <linearGradient id="linear-gradient-25" x1="134.08" y1="199.03" x2="140.29" y2="208.45" xlink:href="#linear-gradient"/>
    <linearGradient id="linear-gradient-26" x1="161.18" y1="210.43" x2="171.47" y2="227.75" xlink:href="#linear-gradient-6"/>
    <linearGradient id="linear-gradient-27" x1="187.11" y1="191.99" x2="147.08" y2="302.21" gradientUnits="userSpaceOnUse">
      <stop offset="0" stop-color="#2b416b"/>
      <stop offset=".54" stop-color="#1f325a"/>
      <stop offset="1" stop-color="#192b51"/>
    </linearGradient>
    <linearGradient id="linear-gradient-28" x1="172.73" y1="194.44" x2="137.94" y2="290.22" gradientUnits="userSpaceOnUse">
      <stop offset="0" stop-color="#2b416b"/>
      <stop offset=".53" stop-color="#1f335a"/>
      <stop offset="1" stop-color="#192b51"/>
    </linearGradient>
    <linearGradient id="linear-gradient-29" x1="194.87" y1="207.4" x2="205.67" y2="225.58" xlink:href="#linear-gradient-6"/>
    <linearGradient id="linear-gradient-30" x1="122.53" y1="203.4" x2="131.94" y2="219.23" xlink:href="#linear-gradient-6"/>
    <linearGradient id="linear-gradient-31" x1="149.16" y1="183.07" x2="167.46" y2="183.07" gradientUnits="userSpaceOnUse">
      <stop offset="0" stop-color="#ffd9b3"/>
      <stop offset=".28" stop-color="#fbd6af"/>
      <stop offset="1" stop-color="#f7d4ab"/>
    </linearGradient>
    <linearGradient id="linear-gradient-32" x1="86.03" y1="-266.68" x2="85.08" y2="-215.9" gradientTransform="translate(50.87 294.13) rotate(3.42) scale(1 .96)" xlink:href="#linear-gradient-31"/>
    <linearGradient id="linear-gradient-33" x1="1252.66" y1="647.64" x2="1262.78" y2="672.2" gradientTransform="translate(1450.75 -711.53) rotate(177.48) scale(.99 -1.14) skewX(3.14)" gradientUnits="userSpaceOnUse">
      <stop offset="0" stop-color="#dba379"/>
      <stop offset=".49" stop-color="#e3b086"/>
      <stop offset="1" stop-color="#f0c499"/>
    </linearGradient>
    <linearGradient id="linear-gradient-34" x1="1075" y1="654.42" x2="1084.99" y2="678.64" gradientTransform="translate(-979.59 -701.4) rotate(2) scale(.99 1.14) skewX(3.13)" xlink:href="#linear-gradient-33"/>
    <linearGradient id="linear-gradient-35" x1="97.94" y1="-189.71" x2="114.8" y2="-173.79" gradientTransform="translate(52.44 259.1) rotate(3.42)" xlink:href="#linear-gradient-2"/>
    <linearGradient id="linear-gradient-36" x1="67.22" y1="-186.14" x2="63.42" y2="-170.04" gradientTransform="translate(52.44 259.1) rotate(3.42)" xlink:href="#linear-gradient-2"/>
    <radialGradient id="radial-gradient" cx="1022.88" cy="-292.13" fx="1022.88" fy="-292.13" r="22.97" gradientTransform="translate(1239.43 266.94) rotate(177.65) scale(1.02 -.71) skewX(-1.54)" gradientUnits="userSpaceOnUse">
      <stop offset="0" stop-color="#f8c39c"/>
      <stop offset="1" stop-color="#f7d4ab"/>
    </radialGradient>
    <radialGradient id="radial-gradient-2" cx="248.81" cy="-364.14" fx="248.81" fy="-364.14" r="23.56" gradientTransform="translate(-94.54 368.25) rotate(-3.81) scale(1.02 .69) skewX(2.86)" xlink:href="#radial-gradient"/>
    <linearGradient id="linear-gradient-37" x1="243.2" y1="148.23" x2="229.07" y2="153.1" gradientTransform="translate(-53.55 -53.21) rotate(-.26)" gradientUnits="userSpaceOnUse">
      <stop offset="0" stop-color="#fbd6af"/>
      <stop offset="1" stop-color="#f7d4ab"/>
    </linearGradient>
    <linearGradient id="linear-gradient-38" x1="179.49" y1="153.11" x2="158.52" y2="147.99" xlink:href="#linear-gradient-37"/>
    <linearGradient id="Gradient_58" data-name="Gradient 58" x1="-1853.1" y1="124.65" x2="-1827.71" y2="124.65" gradientTransform="translate(-1720.76 61.48) rotate(176.54) scale(1 -1)" gradientUnits="userSpaceOnUse">
      <stop offset="0" stop-color="#2b1b13"/>
      <stop offset=".04" stop-color="#2e1d14"/>
      <stop offset=".38" stop-color="#442b1d"/>
      <stop offset=".71" stop-color="#513423"/>
      <stop offset="1" stop-color="#563725"/>
    </linearGradient>
    <linearGradient id="Gradient_58-2" data-name="Gradient 58" x1="196.92" y1="86.67" x2="224.64" y2="86.67" gradientTransform="translate(-26.34 -27.2) rotate(4.1)" xlink:href="#Gradient_58"/>
    <linearGradient id="linear-gradient-39" x1="241.79" y1="157.21" x2="214.74" y2="180.33" gradientTransform="translate(-51.39 -87.29) rotate(1.21)" xlink:href="#linear-gradient-4"/>
    <linearGradient id="linear-gradient-40" x1="234.05" y1="122.22" x2="208.88" y2="116.14" gradientTransform="translate(-44.57 -31.03)" gradientUnits="userSpaceOnUse">
      <stop offset="0" stop-color="#ece7e7"/>
      <stop offset=".23" stop-color="#f5f3f3"/>
      <stop offset=".53" stop-color="#fcfcfc"/>
      <stop offset="1" stop-color="#fff"/>
    </linearGradient>
    <linearGradient id="Gradient_96" data-name="Gradient 96" x1="237.27" y1="136.77" x2="213.37" y2="115.08" gradientTransform="translate(-44.57 -31.03)" gradientUnits="userSpaceOnUse">
      <stop offset="0" stop-color="#a8c3dd"/>
      <stop offset="1" stop-color="#7a90a5"/>
    </linearGradient>
    <linearGradient id="Gradient_96-2" data-name="Gradient 96" x1="111.95" y1="-166.54" x2="111.15" y2="-173.92" gradientTransform="translate(52.44 259.1) rotate(3.42)" xlink:href="#Gradient_96"/>
    <radialGradient id="Gradient_25" data-name="Gradient 25" cx="-875.75" cy="151.02" fx="-875.75" fy="151.02" r="4.02" gradientTransform="translate(1060.7 -43.73) rotate(1.3) skewX(.07)" gradientUnits="userSpaceOnUse">
      <stop offset="0" stop-color="#666"/>
      <stop offset="1" stop-color="#1d1d1d"/>
    </radialGradient>
    <linearGradient id="linear-gradient-41" x1="147.5" y1="162.39" x2="167.67" y2="161.43" gradientTransform="translate(18.49 -80.64) rotate(1.2)" gradientUnits="userSpaceOnUse">
      <stop offset="0" stop-color="#2b1b13"/>
      <stop offset=".04" stop-color="#2e1d14"/>
      <stop offset=".38" stop-color="#442b1d"/>
      <stop offset=".71" stop-color="#513423"/>
      <stop offset="1" stop-color="#563725"/>
    </linearGradient>
    <linearGradient id="linear-gradient-42" x1="181.15" y1="83.84" x2="166.17" y2="96.11" xlink:href="#linear-gradient-4"/>
    <linearGradient id="linear-gradient-43" x1="95.57" y1="-72.25" x2="93.19" y2="-103.24" gradientTransform="translate(52.44 259.1) rotate(3.42)" gradientUnits="userSpaceOnUse">
      <stop offset="0" stop-color="#f7d4ab"/>
      <stop offset=".45" stop-color="#f3caa0"/>
      <stop offset="1" stop-color="#f0c499"/>
    </linearGradient>
    <linearGradient id="linear-gradient-44" x1="-1617.81" y1="196.94" x2="-1644.66" y2="219.89" gradientTransform="translate(-1506.34 -87.5) rotate(178.8) scale(1 -1)" xlink:href="#linear-gradient-4"/>
    <linearGradient id="linear-gradient-45" x1="190.4" y1="122" x2="164.54" y2="115.75" xlink:href="#linear-gradient-40"/>
    <linearGradient id="Gradient_96-3" data-name="Gradient 96" x1="193.12" y1="137.1" x2="169.13" y2="115.33" xlink:href="#Gradient_96"/>
    <linearGradient id="Gradient_96-4" data-name="Gradient 96" x1="67.64" y1="-161.72" x2="66.84" y2="-169.09" gradientTransform="translate(52.44 259.1) rotate(3.42)" xlink:href="#Gradient_96"/>
    <radialGradient id="Gradient_25-2" data-name="Gradient 25" cx="-2959.23" cy="198.87" fx="-2959.23" fy="198.87" r="4.02" gradientTransform="translate(-2835.46 -44.13) rotate(178.7) scale(1 -1) skewX(.09)" xlink:href="#Gradient_25"/>
    <linearGradient id="linear-gradient-46" x1="-1711.93" y1="201.46" x2="-1691.95" y2="200.51" gradientTransform="translate(-1576.22 -80.87) rotate(178.81) scale(1 -1)" xlink:href="#linear-gradient-41"/>
    <linearGradient id="linear-gradient-47" x1="121.16" y1="83.62" x2="136.6" y2="96.26" xlink:href="#linear-gradient-4"/>
    <linearGradient id="Gradient_32" data-name="Gradient 32" x1="93.06" y1="-257.45" x2="76.04" y2="-107.21" gradientTransform="translate(52.44 259.1) rotate(3.42)" gradientUnits="userSpaceOnUse">
      <stop offset="0" stop-color="#724831"/>
      <stop offset=".22" stop-color="#67412c"/>
      <stop offset=".63" stop-color="#5a3926"/>
      <stop offset="1" stop-color="#563725"/>
    </linearGradient>
    <linearGradient id="Gradient_32-2" data-name="Gradient 32" x1="41.93" y1="-218.99" x2="31.23" y2="-124.47" xlink:href="#Gradient_32"/>
    <linearGradient id="linear-gradient-48" x1="94.78" y1="-178.71" x2="94.38" y2="-183.95" gradientTransform="translate(48.27 328.09) rotate(3.42) scale(1 .93)" xlink:href="#linear-gradient-43"/>
    <linearGradient id="linear-gradient-49" x1="175.03" y1="158.29" x2="174.28" y2="112.33" gradientUnits="userSpaceOnUse">
      <stop offset="0" stop-color="#f7d4ab"/>
      <stop offset=".53" stop-color="#f6d1a8"/>
      <stop offset=".87" stop-color="#f2c99f"/>
      <stop offset="1" stop-color="#f1c59a"/>
    </linearGradient>
    <linearGradient id="linear-gradient-50" x1="126.02" y1="153.43" x2="125.35" y2="112.87" xlink:href="#linear-gradient-49"/>
    <linearGradient id="Gradient_115" data-name="Gradient 115" x1="151.11" y1="106.3" x2="151.91" y2="186.19" gradientUnits="userSpaceOnUse">
      <stop offset="0" stop-color="#d6ac88"/>
      <stop offset="1" stop-color="#a18166"/>
    </linearGradient>
    <linearGradient id="Gradient_115-2" data-name="Gradient 115" x1="149.74" y1="104.82" x2="150.58" y2="188.64" xlink:href="#Gradient_115"/>
    <linearGradient id="Gradient_27" data-name="Gradient 27" x1="152.12" y1="47.18" x2="164.45" y2="6.61" gradientUnits="userSpaceOnUse">
      <stop offset="0" stop-color="#724831"/>
      <stop offset=".42" stop-color="#7f553b"/>
      <stop offset="1" stop-color="#8e6346"/>
    </linearGradient>
    <linearGradient id="Gradient_27-2" data-name="Gradient 27" x1="135.31" y1="42.07" x2="147.64" y2="1.5" xlink:href="#Gradient_27"/>
    <linearGradient id="Gradient_27-3" data-name="Gradient 27" x1="122.12" y1="38.4" x2="134.74" y2="-3.12" xlink:href="#Gradient_27"/>
    <linearGradient id="Gradient_27-4" data-name="Gradient 27" x1="113.46" y1="33.94" x2="125.79" y2="-6.63" xlink:href="#Gradient_27"/>
    <linearGradient id="Gradient_27-5" data-name="Gradient 27" x1="167.38" y1="51.82" x2="179.71" y2="11.25" xlink:href="#Gradient_27"/>
    <linearGradient id="Gradient_27-6" data-name="Gradient 27" x1="180.82" y1="55.9" x2="193.15" y2="15.34" xlink:href="#Gradient_27"/>
    <linearGradient id="Gradient_27-7" data-name="Gradient 27" x1="103.82" y1="32.5" x2="116.15" y2="-8.07" xlink:href="#Gradient_27"/>
    <linearGradient id="Gradient_27-8" data-name="Gradient 27" x1="29.39" y1="-209.7" x2="38.69" y2="-208.47" gradientTransform="translate(52.44 259.1) rotate(3.42)" xlink:href="#Gradient_27"/>
    <linearGradient id="Gradient_27-9" data-name="Gradient 27" x1="193.15" y1="59.84" x2="206.21" y2="16.84" xlink:href="#Gradient_27"/>
    <linearGradient id="Gradient_58-3" data-name="Gradient 58" x1="46.75" y1="-120.73" x2="139.8" y2="-287.42" gradientTransform="translate(52.44 259.1) rotate(3.42)" xlink:href="#Gradient_58"/>
    <linearGradient id="Gradient_115-3" data-name="Gradient 115" x1="95.44" y1="-156.06" x2="94.68" y2="-165.94" gradientTransform="translate(48.27 328.09) rotate(3.42) scale(1 .93)" xlink:href="#Gradient_115"/>
    <linearGradient id="Gradient_115-4" data-name="Gradient 115" x1="69.42" y1="-131.14" x2="68.73" y2="-134.08" gradientTransform="translate(52.44 259.1) rotate(3.42)" xlink:href="#Gradient_115"/>
    <linearGradient id="Gradient_115-5" data-name="Gradient 115" x1="115.36" y1="-134.36" x2="114.68" y2="-137.27" gradientTransform="translate(52.44 259.1) rotate(3.42)" xlink:href="#Gradient_115"/>
    <linearGradient id="Gradient_113" data-name="Gradient 113" x1="91.27" y1="-159.72" x2="90.09" y2="-143.51" gradientTransform="translate(52.44 259.1) rotate(3.42)" gradientUnits="userSpaceOnUse">
      <stop offset="0" stop-color="#a18166"/>
      <stop offset="1" stop-color="#d6ac88"/>
    </linearGradient>
    <linearGradient id="linear-gradient-51" x1="255.01" y1="303.77" x2="255.71" y2="328.05" gradientTransform="translate(-117.3 -212.65) rotate(-2.17)" gradientUnits="userSpaceOnUse">
      <stop offset="0" stop-color="#f7d4ab"/>
      <stop offset=".52" stop-color="#f5d1a8"/>
      <stop offset=".85" stop-color="#f2c99f"/>
      <stop offset="1" stop-color="#f0c499"/>
    </linearGradient>
    <linearGradient id="linear-gradient-52" x1="255.43" y1="941.04" x2="256.93" y2="929.96" gradientTransform="translate(-165.57 -1480.4) rotate(-2.16) scale(1 1.7) skewX(.04)" xlink:href="#linear-gradient-31"/>
    <linearGradient id="Gradient_149" data-name="Gradient 149" x1="160.83" y1="130.4" x2="180.64" y2="120.65" gradientUnits="userSpaceOnUse">
      <stop offset="0" stop-color="#dba379"/>
      <stop offset=".49" stop-color="#e3b086"/>
      <stop offset="1" stop-color="#f0c499"/>
    </linearGradient>
    <linearGradient id="Gradient_51" data-name="Gradient 51" x1="124.21" y1="124.64" x2="129.17" y2="124.64" gradientUnits="userSpaceOnUse">
      <stop offset="0" stop-color="#f0c499"/>
      <stop offset=".51" stop-color="#e3b086"/>
      <stop offset="1" stop-color="#dba379"/>
    </linearGradient>
    <linearGradient id="Gradient_15" data-name="Gradient 15" x1="150.03" y1="142.24" x2="149.8" y2="127.63" gradientUnits="userSpaceOnUse">
      <stop offset="0" stop-color="#e56a81"/>
      <stop offset=".34" stop-color="#e2687f"/>
      <stop offset=".51" stop-color="#db6378"/>
      <stop offset=".65" stop-color="#cd5a6e"/>
      <stop offset=".76" stop-color="#bb4e5e"/>
      <stop offset=".86" stop-color="#a33e4a"/>
      <stop offset=".95" stop-color="#852b32"/>
      <stop offset="1" stop-color="#711e22"/>
    </linearGradient>
    <linearGradient id="Gradient_15-2" data-name="Gradient 15" x1="150.02" y1="144.06" x2="149.84" y2="132.88" xlink:href="#Gradient_15"/>
    <linearGradient id="Gradient_15-3" data-name="Gradient 15" x1="188.62" y1="57.27" x2="188.37" y2="41.75" gradientTransform="translate(-23.51 85.34) rotate(.04) scale(1 .98) skewX(-.29)" xlink:href="#Gradient_15"/>
    <linearGradient id="Gradient_15-4" data-name="Gradient 15" x1="189.29" y1="54.67" x2="189.1" y2="42.79" gradientTransform="translate(-24.4 86.35) rotate(.19)" xlink:href="#Gradient_15"/>
    <linearGradient id="linear-gradient-53" x1="147.63" y1="161.45" x2="151.05" y2="140.18" gradientTransform="matrix(1,0,0,1,0,0)" xlink:href="#linear-gradient-43"/>
    <linearGradient id="linear-gradient-54" x1="398.16" y1="-180.84" x2="396.59" y2="-197.31" gradientTransform="translate(-279.03 298.23) rotate(-.38) scale(1.08 .82)" gradientUnits="userSpaceOnUse">
      <stop offset="0" stop-color="#e8d8d7"/>
      <stop offset=".57" stop-color="#f4eceb"/>
      <stop offset="1" stop-color="#fff"/>
    </linearGradient>
    <linearGradient id="linear-gradient-55" x1="397.31" y1="-195.64" x2="397.45" y2="-186.55" xlink:href="#linear-gradient-54"/>
    <linearGradient id="Gradient_149-2" data-name="Gradient 149" x1="151.67" y1="180.31" x2="150.02" y2="133.13" xlink:href="#Gradient_149"/>
    <linearGradient id="linear-gradient-56" x1="149.53" y1="115.74" x2="150.11" y2="129.41" gradientUnits="userSpaceOnUse">
      <stop offset="0" stop-color="#e8d9d7"/>
      <stop offset=".4" stop-color="#efe5e3"/>
      <stop offset="1" stop-color="#fff"/>
    </linearGradient>
    <linearGradient id="linear-gradient-57" x1="232.19" y1="409.4" x2="232.28" y2="423.92" gradientTransform="translate(-90.3 -297.47) rotate(-1.14)" xlink:href="#linear-gradient-51"/>
    <linearGradient id="Gradient_149-3" data-name="Gradient 149" x1="152.51" y1="156.15" x2="151.89" y2="118.52" gradientTransform="translate(-1.69 -3.07) rotate(-.02)" xlink:href="#Gradient_149"/>
    <linearGradient id="Gradient_115-6" data-name="Gradient 115" x1="97.53" y1="-182.5" x2="96.31" y2="-187.69" gradientTransform="translate(48.27 328.09) rotate(3.42) scale(1 .93)" xlink:href="#Gradient_115"/>
  </defs>
  <g id="Layer_1-2" data-name="Layer 1">
    <g>
      <path class="cls-21" d="M119.11,155.97s25.47-18.7,63.1-2.44c0,0,17.81,22.47.85,38.81-16.96,16.34-59.9,14.8-66.11,1.41-6.2-13.39-2.78-34.93,2.16-37.78Z"/>
      <path class="cls-19" d="M182.95,173.32l6.66-8.51s-7.23-2.17-10.07-16.92c-.12.11-.24.22-.36.33-.87,8.81.71,17.24,3.77,25.09Z"/>
      <path class="cls-18" d="M179.18,148.23c-11.43,10.5-17.98,20.08-32.69,19.16-5.69,0-15.91-2.49-23.03-7.19,5.96,11.97,17.22,21.08,26.44,29.14,3.8,3.8,5.36,10.31,7.33,16.85l25.73-32.86c-3.06-7.85-4.64-16.28-3.77-25.09Z"/>
      <path class="cls-17" d="M132.6,165.42c-.75-.5-10.62-6.24-11.3-6.78-1.21,2.84-2.69,5.81-4.52,8.9l31.5,51.88,8.94-13.23c-1.96-6.54-3.52-13.04-7.33-16.85-9.22-8.06-11.33-11.94-17.29-23.91Z"/>
      <path class="cls-14" d="M180.95,153.38c-.97-3.16-2.33-11.44-2.47-15.15l-58.14-14.7s3.12,16.83.97,35.1c8.84,11.71,19.61,15.49,25.9,15.49,14.87.93,25.29-2.59,33.75-20.75Z"/>
      <path class="cls-23" d="M271.94,207.59c-15.56-5.75-74.21-32.38-74.21-32.38l-47.79,44.91-40.82-44.91s-68.63,27.64-79.27,32.38l28.4,84.45-.06,4.45h186.72l27.03-88.9Z"/>
      <path class="cls-15" d="M58.25,275.71l-28.4-68.13c-12.03,9.93-14.9,49.15-15.13,88.9h43.45c.1-7.31-.56-14.75.08-20.77Z"/>
      <path class="cls-13" d="M297.34,271.87c-11.14-62.84-25.41-64.28-25.41-64.28l-25.9,64.47,5.51,11.59c1.24,4.5,2.9,8.78,4.91,12.84h45.86c-1.76-7.98-3.51-16.33-4.98-24.61Z"/>
      <path class="cls-23" d="M249.11,271.56l-.39,24.93h11.57c-5.01-8.14-8.9-16.65-11.18-24.93Z"/>
      <path class="cls-12" d="M249.23,282.2c1.34-6.84,9.9-42.75,9.9-42.75l-19.41,43.43,3.66,13.6h10.56c-2.94-7.79-4.87-13.45-4.71-14.28Z"/>
      <path class="cls-16" d="M29.85,207.59s34.61,62.94,44.87,69.91c10.05,6.83,149.97,11.02,163.56-4.36l33.66-65.55-75.82-40.06-25.55,19.4-22.29,32.48-39.06-50.54-79.37,38.72Z"/>
      <polygon class="cls-44" points="239.72 282.88 240.32 296.48 243.38 296.48 239.72 282.88"/>
      <path class="cls-45" d="M50.78,283.64l5.51-11.59-25.9-64.47s-14.27,1.44-25.41,64.28c-1.47,8.28-3.21,16.63-4.98,24.61h45.86c2.01-4.06,3.68-8.34,4.91-12.84Z"/>
      <path class="cls-23" d="M53.21,271.56c-2.28,8.28-6.17,16.79-11.18,24.93h11.57l-.39-24.93Z"/>
      <path class="cls-46" d="M62.6,282.88l-22.95-52.23s12.09,44.72,13.43,51.55c.16.83-1.77,6.49-4.71,14.28h10.56l3.66-13.6Z"/>
      <polygon class="cls-47" points="62.6 282.88 58.94 296.48 62 296.48 62.6 282.88"/>
      <path class="cls-49" d="M165.56,217.23c-5.41,2.22-11.92,2.3-17.59,3.77,0,0-1.35,34.1-2.97,75.48h16.49l4.07-79.25Z"/>
      <g>
        <path class="cls-60" d="M135.52,188.36s6.83,6.28,8.09,7.39c1.21,1.06,4.95,18.55,4.95,18.55l-2.15,36.69-19.64-54.48,8.75-8.14Z"/>
        <path class="cls-61" d="M105.15,176.46c0,4.09,7.23,33.57,7.7,35.15,0,0,8.93-7.71,14.93-12.5l7.74-10.75s-30.37-15.99-30.37-11.9Z"/>
        <path class="cls-62" d="M120.62,155s-4.95,6.31-2.42,14.92c2.37,8.05,17.32,18.44,17.32,18.44,0,0-17.89,14.96-21.35,18.33-2.42-8.47-11.57-31.91-9.46-35.24,4.05-6.4,9.85-13.15,15.91-16.46Z"/>
        <path class="cls-63" d="M120.62,155s-6.34,8.26,1.06,19.17c5.29,7.81,13.85,14.19,13.85,14.19,0,0-11.6-8.15-14.62-11.87-9.34-11.48-.28-21.5-.28-21.5Z"/>
        <path class="cls-48" d="M164.05,188.06c-2.29,1.5-5.28,3.58-9,6.48-1.57,1.22-7.59,21.77-7.07,26.47.07.62.11,1.55.12,2.66,5.63-1.64,12.14-2.05,17.9-3.27.69-6.2.88-12.67,1.49-18.46.04-.37.33-5.32.33-5.32.38-3.66.16-3.46.33-5.85-2.01-.16-3.45-1.22-4.1-2.71Z"/>
        <path class="cls-51" d="M164.05,188.06l3.77,8.56c4.24,3.31,17.16,11.62,23.79,14.99.81.41,5.84-30.09,7.04-38.56l-34.61,15.01Z"/>
        <polygon class="cls-50" points="165.56 255.64 167.83 196.61 163.58 242.46 162.05 278.25 162.05 278.42 161.24 296.48 162.5 296.48 165.56 255.64"/>
        <path class="cls-52" d="M147.98,232.33v-11.33s-.29,2.9-.69,6.98c-.62,6.3-3.35,36.54-4.19,68.5h2.16l2.72-64.16Z"/>
        <path class="cls-53" d="M164.05,188.06s24.1,16.27,27.17,19.59c2.69-10.61,7.76-30.97,7.76-37.04,0-3.19-13.63-15.47-16.77-17.07,0,0,1.77,5.23.87,10.31-3.22,18.22-19.03,24.21-19.03,24.21Z"/>
        <path class="cls-69" d="M164.05,188.06s23.66-11.19,18.16-34.52c0,0,13.59,22.67-18.16,34.52Z"/>
        <ellipse class="cls-55" cx="137.39" cy="204.05" rx="2.36" ry="2.12"/>
        <path class="cls-70" d="M164.05,188.06s-6.61,4.6-9.72,6.19c-3.11,1.6-5.9,21.93-5.9,21.93,0,0,5.63-17.71,6.65-19.36,1.02-1.65,8.97-8.76,8.97-8.76Z"/>
        <ellipse class="cls-68" cx="154.1" cy="282.88" rx="2.36" ry="2.12"/>
        <path class="cls-54" d="M157.92,241.71c0,1.2-1.06,2.16-2.36,2.16s-2.36-.97-2.36-2.16,1.06-2.16,2.36-2.16,2.36.97,2.36,2.16Z"/>
      </g>
      <path class="cls-71" d="M176.5,196.61l14.73,11.03,4.57-18.83s-4.43,12.8-5.5,13.13c-1.07.33-13.8-5.33-13.8-5.33Z"/>
      <path class="cls-59" d="M109.42,192.28l4.75,14.41,13.61-11.82s-12.26,8.56-12.72,8.39c-.46-.17-5.63-10.98-5.63-10.98Z"/>
      <path class="cls-57" d="M149.16,181.37s12.64.1,17.41-1.51c4.77-1.61-11.19,6.49-12.68,6.63-1.49.14-4.73-5.12-4.73-5.12Z"/>
      <g>
        <path class="cls-56" d="M107.37,86.39s3.44,46.86,4.75,48.82c1.31,1.96,21.06,21.73,23.61,23.9s29.03.83,29.03.83c0,0,22.24-19.95,24.17-23.15,1.93-3.2,5.22-51.16,5.22-51.16,0,0,5.84-37.67-3.17-50.59-9.01-12.92-70.41-17.1-80.59.87-10.19,17.97-3.01,50.47-3.01,50.47Z"/>
        <g>
          <path class="cls-25" d="M201.92,81.74c9.6-.7,3.34,14.37,3.34,14.37-3.72,19.52-2.12,22.87-10.65,22.14-6.32-.54.45-36.01,7.31-36.51Z"/>
          <path class="cls-58" d="M196.19,109.81s3.04-3.41,2.88-10.72c-.37-17.24,8.7-17.55,5.57-6.11,0,0-.73-5.6-2.02-4.07-1.58,1.88,1.2,3.27-1.09,11.93-1.2,4.5-5.35,8.97-5.35,8.97Z"/>
        </g>
        <g>
          <path class="cls-25" d="M100.17,82.02c-9.6-.39-3.5,14.48-3.5,14.48,3.51,19.4,2.98,22.29,10.41,21.8,8.34-.55-.05-36-6.91-36.28Z"/>
          <path class="cls-65" d="M105.6,109.9s-3-3.31-2.77-10.63c.56-17.25-8.51-17.27-5.51-5.93,0,0,.79-5.63,2.06-4.14,1.56,1.83-1.24,3.31.96,11.9,1.15,4.46,5.25,8.8,5.25,8.8Z"/>
        </g>
        <path class="cls-64" d="M161.86,75.54s-4.76,7.47-4.62,8.33c.14.87,1.25,11.33,1.25,11.33,0,0,25.28-.8,28.58-1.83s4.13-7.52,4.13-7.52l-3.53-5.27s-7.58-7.27-8.31-6.77-17.51,1.73-17.51,1.73Z"/>
        <path class="cls-66" d="M139.12,75.97s4.49,6.64,4.38,7.51c-.11.87-.44,11.5-.44,11.5,0,0-25.29.15-28.62-.75-3.34-.91-4.41-7.35-4.41-7.35l3.33-5.4s7.3-7.55,8.05-7.08,17.72,1.58,17.72,1.58Z"/>
        <path class="cls-20" d="M175.99,118.22c8.16.5,17.28-.56,18.91-17.16.93-9.46-.12-14.39-4.16-15.11-8.57-1.54-20.84,2.2-25.94,4.84-10.78,5.58-3.27,26.54,11.19,27.43Z"/>
        <path class="cls-11" d="M135.11,89.53c-2.34-.83-20.12-4.72-25.4-3.18-3.02.88-1.72,7.54-1.19,13.86.26,3.03.24,7.89.94,9.8,3.46,9.34,16.5,9.7,24.01,7.05,12.82-4.51,13.49-23.34,1.64-27.53Z"/>
        <path class="cls-72" d="M189.91,92.43c-1.48-.8-2.57.38-5.62,1.38-3,.98-11.19,2.54-7.33,4.57,4.27,2.25,10.21-.89,10.93-1.47.72-.59,3.84-3.48,2.02-4.48Z"/>
        <path class="cls-67" d="M117.42,94.72c-3.11-.82-4.27-1.93-5.69-1.04-1.76,1.1,1.54,3.8,2.29,4.35.75.54,6.87,3.32,10.99.82,3.73-2.26-4.54-3.33-7.59-4.13Z"/>
        <path class="cls-1" d="M116.45,74.16c1.99-3.6,10.04-3.53,13.97-3.69,2.22-.09,5.36-.21,7.43.41.32,1.23.4,2.12.1,3.61.86-.83.98-2.27.71-3.25.06.02,1.67,2.13.46,4.73-.58,1.24-4.16.45-12.32.74-2.22.08-6.02,0-9.02,1.18-1.09.43-3.27,1.75-3.27,1.75-.26-.38.99-3.77,1.94-5.48Z"/>
        <path class="cls-87" d="M185.12,73.21c-1.57-2.72-9.26-3.37-13.3-3.46-2.07-.05-7.35-.57-9.47.02-.33,1.22-.43,2.11-.12,3.61-.88-.85-.99-2.29-.71-3.27-.06.02-1.72,2.1-.5,4.72.59,1.25,4.25.52,12.61.95,2.27.12,7.12.37,9.22,1.33,1.1.5,5.01,2.12,5.01,2.12.27-.38-.97-2.97-2.73-6.02Z"/>
        <g>
          <path class="cls-73" d="M160.42,90.62c-.98-1.24.04-3.82.61-5.44,1.78-5.08,5.65-6.76,13.65-6.93,2.63-.06,7.16.5,9.95,3.06,2.15,1.98,3.38,3.93,3.14,5.7-.12.9-4.98,5.47-13.7,5.74-5.7.17-12.08-.15-13.64-2.12Z"/>
          <path class="cls-35" d="M183.63,86.94c-.22.58-.54,1.11-.93,1.58-.62.75-1.41,1.35-2.29,1.82-.33.15-.68.24-1.04.33-.05.02-.1.02-.14.03-.58.13-1.14.26-1.66.36-2.76.55-4.89.81-6.71.81-.74,0-1.42-.05-2.07-.13-.32-.03-.63-.1-.93-.18-2.65-.62-4.64-2.36-5.02-3.07,0,0,0-.02.02-.03v-.02c.14-.32,1.17-2.54,2.81-4.29,1.03-1.09,2.31-2,3.77-2.16.47-.05.93-.1,1.39-.11,8.27-.34,12.41,4.57,12.79,5.04.02.02.02.03.02.03Z"/>
          <path class="cls-22" d="M183.61,86.9s.02.03.02.03c-.23.58-.54,1.11-.94,1.58-.1-.06-.22-.13-.35-.2-.84-.45-2.34-1.06-5.17-1.29-11.68-.97-14.19,1.29-14.33,1.41,0,0,0,0,0,0,.36-1.85,1.41-3.25,2.82-4.3,1.47-1.1,3.32-1.82,5.16-2.27,1.52-.38,3.02-.59,4.31-.68,4.13-.32,8.12,5.21,8.48,5.71Z"/>
          <path class="cls-4" d="M180.09,88.98c-.06.34-.23,1.26-.44,1.62-.13.08-.58.26-.76.34-.58.13-1.22.32-1.74.42-2.76.55-4.49.51-6.31.51-.74,0-1.42-.05-2.07-.13-.32-.03-.63-.1-.93-.18-.57-.75-1.11-1.84-1.07-3.33.09-3.95,3.41-5.7,7.07-5.41,3.65.31,6.82,2.36,6.24,6.16Z"/>
          <path class="cls-89" d="M166.91,87.04s5.18-1.13,13.22.56c0,0-.15-4.11-4.99-4.99-4.55-.83-7.9,2.09-8.23,4.43Z"/>
          <path class="cls-6" d="M173.81,83.36c-2.24-.12-4.31,1.63-4.42,3.89-.11,2.25,1.78,4.14,4.02,4.26,2.24.12,4.15-1.62,4.26-3.86.11-2.25-1.62-4.17-3.86-4.28Z"/>
          <path d="M173.66,83.36c-2.65-.14-3.88,1.78-4.21,3.38,0,0,4.35-.43,8.21.38,0,0-.21-3.55-4-3.76Z"/>
          <path class="cls-24" d="M179.22,90.03c.44-.82.09-1.87-.77-2.35-.86-.47-1.91-.2-2.35.62-.44.82-.1,1.87.77,2.35.86.48,1.91.2,2.35-.62Z"/>
          <path class="cls-24" d="M175.13,87.85c.35-.65.08-1.47-.6-1.84-.68-.37-1.51-.16-1.86.49-.35.64-.08,1.47.6,1.84.68.37,1.52.16,1.86-.49Z"/>
          <path class="cls-36" d="M162.84,88.46s-.39-3.1,3.33-5.63c3.9-2.65,10.51-2.58,14.34-.19,2.3,1.44,3.12,4.3,3.12,4.3,0,0-4.87-3.45-10.08-3.21-2.89.13-3.99.39-5.29.7-3.39.81-5.43,4.03-5.43,4.03Z"/>
          <path class="cls-37" d="M165.16,90.48s5.52,1.5,9.69.81,6.9-1.84,6.9-1.84c0,0-1.16,2.88-7.63,2.95-6.47.07-8.96-1.92-8.96-1.92Z"/>
        </g>
        <path class="cls-34" d="M119.52,40.06c1.69-.82,26.56,2.7,30.46,1.82s24.85-4.69,28.91-2.43c4.06,2.26,6.94,6.79,7.34,9.29.4,2.5-.25,14.85,0,16.86.24,2.01,3.76,4.52,4.77,16.17,1.01,11.65.47,22.71-.14,27.56s-5.08,20.9-5.08,20.9l3.13.05s5.83-26.31,6.01-29.22c.18-2.91,2.35-38.34,2.35-38.34l-11.65-34.49-68.32-3.27-14.78,33.06,3.81,39.91,1.85,5.38,5.81,26s-2.24-30.16-2.94-31.62c-.7-1.46-.71-14.69-.47-17.17.66-6.74,4.01-13.29,4.43-15.09.42-1.8-1.68-14.52-1.25-16.31.43-1.79,5.78-9.07,5.78-9.07Z"/>
        <g>
          <path class="cls-42" d="M141.67,90.94c1.03-1.19-.04-3.82-.6-5.44-1.76-5.08-5.59-6.76-13.52-6.94-2.6-.06-7.1.5-9.86,3.06-2.13,1.98-3.35,3.93-3.11,5.7.12.9,4.38,5.28,13.03,5.55,5.65.18,12.47-.08,14.07-1.92Z"/>
          <path class="cls-40" d="M139.28,88.8c-.36.7-2.22,2.32-4.68,2.99-.39.11-.8.21-1.22.26-.64.08-1.33.13-2.06.13-1.78,0-3.9-.26-6.64-.81-.34-.07-.69-.15-1.05-.21-.25-.07-.5-.11-.75-.16-.36-.08-.69-.2-1.02-.33-.88-.47-1.66-1.09-2.27-1.84-.39-.45-.7-.99-.92-1.58,0,0,0-.02.02-.03.38-.45,4.48-5.36,12.67-5.04.44.03.91.07,1.38.11,1.45.16,2.71,1.07,3.74,2.16,1.63,1.76,2.64,3.97,2.79,4.29v.02s.02.03.02.03Z"/>
          <path class="cls-22" d="M118.69,87.22s-.02.03-.02.03c.23.58.54,1.11.93,1.59.1-.06.21-.13.35-.2.83-.45,2.32-1.06,5.12-1.29,11.57-.97,14.07,1.29,14.2,1.41,0,0,0,0,0,0-.36-1.85-1.4-3.25-2.79-4.3-1.46-1.1-3.29-1.82-5.11-2.28-1.5-.38-3-.59-4.27-.69-4.09-.32-8.05,5.21-8.4,5.71Z"/>
          <path class="cls-90" d="M135.61,88.54c.03,1.45-.47,2.52-1,3.25-.39.11-.8.21-1.22.26-.64.08-1.33.13-2.06.13-1.78,0-3.51.13-6.23-.5-.34-.08-1.02-.35-1.38-.42-.33-.11-.58-.13-.79-.26-.2-.37-.46-1.37-.51-1.71-.58-3.8,2.57-5.85,6.18-6.14,3.63-.31,6.92,1.45,7.01,5.4Z"/>
          <path class="cls-91" d="M135.47,87.36s-5.13-1.13-13.1.56c0,0,.15-4.11,4.95-4.99,4.51-.83,7.82,2.09,8.15,4.43Z"/>
          <path class="cls-88" d="M128.63,83.68c2.22-.12,4.27,1.64,4.38,3.89.11,2.25-1.77,4.14-3.99,4.26-2.22.11-4.11-1.62-4.22-3.87-.11-2.25,1.61-4.17,3.83-4.28Z"/>
          <path d="M128.78,83.68c2.62-.14,3.84,1.78,4.17,3.38,0,0-4.31-.43-8.14.38,0,0,.2-3.55,3.97-3.76Z"/>
          <path class="cls-24" d="M130.58,90.82c-.43-.82-.09-1.87.76-2.35.85-.47,1.89-.2,2.33.62.43.82.09,1.87-.76,2.35-.85.48-1.89.2-2.33-.62Z"/>
          <path class="cls-24" d="M127.75,88.44c-.34-.65-.08-1.47.59-1.84.67-.37,1.5-.16,1.84.49.35.65.08,1.47-.59,1.84-.68.37-1.5.15-1.84-.49Z"/>
          <path class="cls-43" d="M139.27,88.78s.39-3.1-3.3-5.63c-3.87-2.65-10.42-2.59-14.21-.2-2.28,1.44-3.09,4.3-3.09,4.3,0,0,4.82-3.45,9.99-3.21,2.86.13,3.95.39,5.24.7,3.36.81,5.38,4.04,5.38,4.04Z"/>
          <path class="cls-41" d="M120.35,89.62s3.1,2.26,8.67,2.22c5.58-.04,8.69-1.52,8.69-1.52,0,0-1.35,2.77-8.8,2.25-7.45-.51-8.56-2.95-8.56-2.95Z"/>
        </g>
        <path class="cls-3" d="M111.53,41.11s6.67-9.69,23.54-7.05c11.22,1.76,11.69,1.64,15.45,2.47s21.82-6.12,29.75-3.01c7.93,3.11,8.71,12.26,8.78,16.78s-.9,15.14.19,15.85c1.1.71,5.07,5.17,4.71,11.34-.36,6.18.95,23.56.95,23.56,0,0,1.28-18.79,7.67-19.33l.4-12.94s2.55-8.89,2.77-12.56c.41-6.93-1.56-12.83-1.67-13.99-.28-2.98-5.38-8.15-6.26-9.14,0,0,3.23-6.95-5.64-11.79,0,0-1.8-14.54-17.52-17.83-15.72-3.3-28.93-2.4-33.78-.7,0,0-17.35-4.44-25.88,6.92,0,0-10.95,4.35-12.07,15.13s2.57,15.16,3.17,15l5.44,1.3Z"/>
        <path class="cls-85" d="M113.22,39.81s-5.44,6.99-3.66,20.95c0,0-2.73,7.66-2.73,12.74,0,5.08,1.5,24.69,1.5,24.69,0,0-3.32-16.66-9.59-16.1,0,0-1.22-11.49-1.53-12.23,0,0-4.87-9.11-1.44-19.79,1.98-6.16,10.33-10.26,10.33-10.26h7.13Z"/>
        <path class="cls-39" d="M128.3,141.44s11.83,10.95,12.47,10.84c.64-.11,10.31-5.13,10.31-5.13,0,0,10.85,5.47,13.29,5.27,2.44-.19,11.74-10.79,11.74-10.79,0,0-9.7,14.63-12.19,15.79-2.5,1.17-29.43-.46-29.43-.46l-6.19-15.53Z"/>
        <path class="cls-38" d="M167.41,113.25c10.98,8.7,9.18,15.76,6.91,17.96,4.22-3.47,7.65-8.31,6.89-9.68-1.29-2.31-13.8-8.28-13.8-8.28Z"/>
        <path class="cls-79" d="M119.5,121.94c-.31,1.72,1.49,4.17,4.76,7.48,0,0-4.98-7.38,7.15-15.66,0,0-11.48,5.83-11.9,8.18Z"/>
        <path class="cls-10" d="M193.92,106.65s-1.44,24.7-3.45,29.15-22.76,28.55-26.99,32.06c-4.24,3.51-21.9,1.67-24.94,1.13-3.04-.54-24.92-27.11-27.95-32.03-3.03-4.92-2.07-36.74-2.07-36.74,0,0,3.99,24.06,6.78,28.02s22.11,24.79,25.12,26.79c1.27.84,4.71-2.59,6.8-5.44,1.99-2.71.66-3.94,5.74-3.63,4.08.24,3.23,1.9,6.16,5.33,2.06,2.42,3.29,3.49,4.8,3.19,3.63-.72,23.12-25.79,24.04-27.97.92-2.17,5.96-19.85,5.96-19.85Z"/>
        <path class="cls-33" d="M121.21,120.39s17.48-4.28,19.71-5.53c6.66,2.33,17.68-1.77,18.62-2.07,3.13,2.93,16.4,6.63,18.99,7.63,0,0,.33,16.63.11,19.18-.33,3.87-5.03,6.22-5.03,6.22l1.19-24.44-29.06,3.22-21.06-3.02,5.2,24.24s-3.92-3.53-6.19-7.9c-.66-5.44-2.48-17.54-2.48-17.54Z"/>
        <path class="cls-5" d="M150.99,27.68s-.18-23.17,28.4-22.73c0,0-16.61-10-27.15,1.53-10.55,11.53-1.25,21.2-1.25,21.2Z"/>
        <path class="cls-93" d="M138.04,25.39s1.27-17.95,17.99-22.04c0,0-5.56-7.13-15.15-.59-9.59,6.54-2.83,22.63-2.83,22.63Z"/>
        <path class="cls-95" d="M131.06,26.49s-3.51-19.12,9.81-23.73c0,0-10.31-7.18-16.5,3.37-6.19,10.55,6.69,20.36,6.69,20.36Z"/>
        <path class="cls-94" d="M118.86,27.68s-12.15-10.96-3.86-19.49c8.29-8.54,15.51-5.45,15.51-5.45,0,0-8.21,5.09-9.74,11.19-1.53,6.1-1.9,13.75-1.9,13.75Z"/>
        <path class="cls-97" d="M160.91,24.99s.12-14.88,11.68-17.55c11.56-2.67,18.27,4.34,19.6,13.86,0,0-2.67-10.95-16.5-6.68-9.37,2.89-14.77,10.38-14.77,10.38Z"/>
        <path class="cls-96" d="M178.65,30.66s12.91-6.7,19.17,2.43c0,0,.7-10.07-9.02-10.65-9.72-.58-10.15,8.21-10.15,8.21Z"/>
        <path class="cls-99" d="M106.09,39.81s-7.49-5.12-2.86-20.18c2.36-7.67,11.76-9.95,11.76-9.95,0,0-3.77,3.02-8.9,16.05-2.41,6.11,0,14.08,0,14.08Z"/>
        <path class="cls-98" d="M106.09,39.81s-7.67.13-11.33,9.59c-2.01,5.2,4.06,17,4.06,17,0,0-1.32-11.23.63-16.86,2.22-6.39,6.64-9.73,6.64-9.73Z"/>
        <path class="cls-92" d="M190.95,35.4s9.44-4.27,13.1,5.23c2.38,6.16,2.62,10.39-2.08,18.47,0,0,.36-12.38-1.89-15.89-2.25-3.5-9.13-7.81-9.13-7.81Z"/>
        <path class="cls-86" d="M108.52,100.21s.22-6.85.04-18.2c-.1-6.6.99-11.31,4.66-16.76,0,0-2-15.7-1.12-17.75,1.95-4.55,8.58-10.82,9.8-11.02,1.23-.2,26.52,2.03,29.64,1.67s23.01-3.67,28.73-.73c2.4,1.24,8.46,6.78,8.62,9.83.16,3.05-.74,18.19-.74,18.19,0,0,4.98,5.75,4.89,13.97-.09,8.22,1.87,21.64,1.87,21.64,0,0,2.12-25.27,1.89-28.12-.23-2.85-1.6-27.06-2.69-29.55-1.09-2.49-10.12-11.74-15.46-12.73-5.33-.99-27.28,1.44-28.26,2.04-.98.6-27.1-6.38-31.53-3.53-4.43,2.85-12.97,12.82-12.93,15.41.04,2.58-1.56,23.37-1.51,25.35.02.84,4.1,30.28,4.1,30.28Z"/>
        <path class="cls-32" d="M113.27,140.69s23.71,25.56,26.01,25.89c2.31.33,21.02,1.07,22.91.43,1.88-.64,26.71-28.67,26.71-28.67,0,0-14.44,22.85-26.88,31.49-1.77,1.23-22.04-.03-23.49-.21-4.49-.53-24.38-27.83-25.27-28.92Z"/>
        <path class="cls-29" d="M125.8,126.82l-.51-4.21c2.04-.01,7.17-1.89,7.17-1.89,0,0-8.28.42-9.61.79-.66.19,2.95,5.31,2.95,5.31Z"/>
        <path class="cls-30" d="M174.58,125.93l.22-3.75-4.82-1.22s7.48-.6,7.47.12c-.01,1.22-2.88,4.85-2.88,4.85Z"/>
        <path class="cls-9" d="M140.92,114.86s10.74,5.4,11.21,5.3c.47-.11,10.54-5.42,10.54-5.42,0,0-1.28-2.04-3.12-2.15-3.18-.19-6.49,2.7-8.68,2.17-.94-.23-5.71-1.58-8.28-1.72-1.84-.1-1.67,1.82-1.67,1.82Z"/>
        <g>
          <path class="cls-100" d="M155.59,114.1c6.46-5.15,7.08.64,7.08.64-3.57-2.9-7.08-.64-7.08-.64Z"/>
          <path class="cls-100" d="M140.92,114.86s.88-1.77,5.6-.37c0,0-7.86-5.07-5.6.37Z"/>
          <path class="cls-80" d="M157.96,96.57c.05,2.43,1.33,11.57.65,12.98-1.53,3.15-4.57,4.49-7.43,4.37-2.15.34-6.08-.59-8.31-3.75-.91-1.29.68-10.46.2-13.03,0,0-9.31,16.84-2.14,17.72,0,0-1.18-1.89,1.67-1.82,2.52.06,3.85,4.42,8.83,4.23,5.49-.21,4.53-4.1,7.43-4.6,3.6-.62,2.98,1.74,3.82,2.06,3.58-1.6-1.29-13.87-4.71-18.17Z"/>
          <path class="cls-81" d="M146.79,106.37c-.14,2.71.21,5.61,4.21,5.51,4.39-.11,4.47-3.07,4-5.55-2.73-14.64-7.68-10.06-8.21.03Z"/>
        </g>
        <g>
          <path class="cls-8" d="M172.98,122.47l3.48-1.06s-.44,1.4-.92,1.79-3.48,3.61-3.48,3.61l.92-4.34Z"/>
          <path class="cls-2" d="M127.7,122.99l-3.48-1.06s.44,1.4.92,1.79c.48.39,4.04,3.63,4.04,3.63l-1.48-4.35Z"/>
          <g>
            <path class="cls-26" d="M125.99,122.84c.3.31,5.08,7.43,8.5,11.64.93,1.15,30.51-.26,30.72-.44,6.67-5.47,9.72-11.78,9.72-11.78-31.37,1.38-48.93.57-48.93.57Z"/>
            <path class="cls-7" d="M165.21,134.05c-.13-.2-.31-.41-.59-.66,0,0-.02-.02-.02-.02-.02-.02-.04-.03-.06-.05-.76-.65-1.94-1.21-3.64-1.46-5.26-.77-16.38-.98-20.9.01-2.29.51-3.6,1.1-4.34,1.67-.34.25-.72.62-1.05.99.78.34,1.37.89,1.79,1.55.02,0,.05,0,.07.02,10.32,4.04,17.84,3.63,25.65.84.21-.19.45-.34.7-.48.36-.6.87-1.09,1.51-1.45.24-.36.54-.68.89-.95Z"/>
            <path class="cls-84" d="M165.23,134.04c-.26-.32-.49-.55-.61-.65,0,0-.02-.02-.02-.02-.02-.02-.04-.03-.06-.05-2.53,2.38-5.33,5.13-14.33,5.18-8.78.05-14.48-4.9-14.55-4.96,0,0,0,0,0,0-.34.22-.78.59-1.16.95.91.37,1.58,1.01,2.02,1.79.57.26,1.03.64,1.4,1.08.5.27.93.62,1.27,1.04,8.58,2.99,14.13,3.48,19.95.84.36-.85,2.85-2.32,3.69-2.8.36-.59.87-1.08,1.5-1.44.25-.36.55-.69.91-.96Z"/>
            <path class="cls-26" d="M164.6,130.35s.02.02.02.03c0,0-.01-.02-.02-.03Z"/>
            <path class="cls-83" d="M164.6,130.35s.02.02.02.03c0,0-.01-.02-.02-.03Z"/>
            <path class="cls-26" d="M164.54,130.27s0,0,0,0c.02.02.04.04.06.07-.04-.05-.06-.07-.06-.07Z"/>
            <path class="cls-82" d="M164.54,130.27s0,0,0,0c.02.02.04.04.06.07-.04-.05-.06-.07-.06-.07Z"/>
          </g>
          <path class="cls-75" d="M135.51,140.41c15.92,12.66,31.15-.87,31.15-.87-16.09,8.56-31.15.87-31.15.87Z"/>
          <path class="cls-76" d="M137.07,136.59s9.88.37,12.95.4c3.41.03,12.79-.55,12.79-.55,0,0-2.4,3.54-13,3.75-8.2.16-12.74-3.61-12.74-3.61Z"/>
          <path class="cls-77" d="M139.48,137.52s4.79,1.27,10.57,1.24c2.81-.01,6.81-.39,11.39-1.33,0,0-2.8,2.6-11.46,2.83-5.03.14-8.49-1.42-10.5-2.74Z"/>
          <path class="cls-27" d="M133.36,133.06s7.32,7.54,16.97,7.21c9.65-.33,14.42-6.23,16.32-7.47,0,0-2.96,3.18-4.81,4.74-3.17,2.67-9.09,4.48-11.96,4.48s-7.26-.77-11.94-4.13c-2.82-2.03-4.59-4.82-4.59-4.82Z"/>
          <path class="cls-78" d="M133.64,122.19s-.58,4.59.86,5.39c3.71,2.07,26.94,1.18,30.73-.23,1.5-.56.9-5.41.9-5.41l-32.48.26Z"/>
          <path class="cls-74" d="M140.62,122.77c-3.86-.28-13.64.22-14.95-.67,6.23-.27,10.29-3.44,15.92-3.82,3.47-.24,7.29.63,8.78.58,1.49-.05,7.89-.9,9.1-.66,2.91.59,13.88,3.84,15.59,3.11,0,0-6.04,1.18-12.45,1.57-4.21.26-6.91.28-11.88.28s-6.25-.12-10.11-.4Z"/>
          <path class="cls-28" d="M124.21,121.93s1.95,1.2,1.66.89c0,0,18.58,2.21,48.93-.57l1.66-.83c-16.87-1.38-52.25.51-52.25.51Z"/>
        </g>
        <path class="cls-31" d="M145.94,151.18s2.64-4.75,3.65-5.44c1-.69,5.87-.78,6.32.38.45,1.15,5.09,7.22,5.09,7.22,0,0-5.75-5.01-6.27-5.35-.52-.34-2.33-1.33-3.65-.84s-5.14,4.03-5.14,4.03Z"/>
      </g>
    </g>
  </g>
</svg>