<?xml version="1.0" encoding="UTF-8"?>
<svg id="Layer_2" data-name="Layer 2" xmlns="http://www.w3.org/2000/svg" xmlns:xlink="http://www.w3.org/1999/xlink" viewBox="0 0 302.32 298.33">
  <defs>
    <style>
      .cls-1 {
        fill: url(#Gradient_58);
      }

      .cls-2 {
        fill: url(#Gradient_32);
      }

      .cls-3 {
        fill: url(#Gradient_96);
      }

      .cls-4 {
        fill: url(#Gradient_27);
      }

      .cls-5 {
        fill: url(#Gradient_25);
      }

      .cls-6 {
        fill: url(#Gradient_149);
      }

      .cls-7 {
        fill: url(#Gradient_113);
      }

      .cls-8 {
        fill: url(#Gradient_115);
      }

      .cls-9 {
        fill: url(#radial-gradient-2);
      }

      .cls-10 {
        fill: #e1b18c;
      }

      .cls-11 {
        fill: url(#linear-gradient-8);
      }

      .cls-12 {
        fill: url(#linear-gradient-7);
      }

      .cls-13 {
        fill: url(#linear-gradient-5);
      }

      .cls-14 {
        fill: url(#linear-gradient-6);
      }

      .cls-15 {
        fill: url(#linear-gradient-9);
      }

      .cls-16 {
        fill: url(#linear-gradient-4);
      }

      .cls-17 {
        fill: url(#linear-gradient-3);
      }

      .cls-18 {
        fill: url(#linear-gradient-2);
      }

      .cls-19 {
        fill: #f3eceb;
      }

      .cls-20 {
        fill: url(#radial-gradient);
      }

      .cls-21 {
        fill: url(#linear-gradient);
      }

      .cls-22 {
        fill: #ddd;
      }

      .cls-23 {
        fill: #192b51;
      }

      .cls-24 {
        fill: #fff;
      }

      .cls-25 {
        fill: #f0c499;
      }

      .cls-26 {
        fill: #711e22;
      }

      .cls-27 {
        fill: url(#Gradient_115-4);
      }

      .cls-28 {
        fill: url(#Gradient_115-5);
      }

      .cls-29 {
        fill: url(#Gradient_115-6);
      }

      .cls-30 {
        fill: url(#Gradient_115-3);
      }

      .cls-31 {
        fill: url(#Gradient_115-2);
      }

      .cls-32 {
        fill: url(#linear-gradient-43);
      }

      .cls-33 {
        fill: url(#linear-gradient-40);
      }

      .cls-34 {
        fill: url(#linear-gradient-41);
      }

      .cls-35 {
        fill: url(#linear-gradient-42);
      }

      .cls-36 {
        fill: url(#linear-gradient-49);
      }

      .cls-37 {
        fill: url(#linear-gradient-48);
      }

      .cls-38 {
        fill: url(#linear-gradient-45);
      }

      .cls-39 {
        fill: url(#linear-gradient-47);
      }

      .cls-40 {
        fill: url(#linear-gradient-44);
      }

      .cls-41 {
        fill: url(#linear-gradient-46);
      }

      .cls-42 {
        fill: url(#linear-gradient-10);
      }

      .cls-43 {
        fill: url(#linear-gradient-11);
      }

      .cls-44 {
        fill: url(#linear-gradient-12);
      }

      .cls-45 {
        fill: url(#linear-gradient-13);
      }

      .cls-46 {
        fill: url(#linear-gradient-19);
      }

      .cls-47 {
        fill: url(#linear-gradient-14);
      }

      .cls-48 {
        fill: url(#linear-gradient-21);
      }

      .cls-49 {
        fill: url(#linear-gradient-20);
      }

      .cls-50 {
        fill: url(#linear-gradient-22);
      }

      .cls-51 {
        fill: url(#linear-gradient-23);
      }

      .cls-52 {
        fill: url(#linear-gradient-28);
      }

      .cls-53 {
        fill: url(#linear-gradient-25);
      }

      .cls-54 {
        fill: url(#linear-gradient-32);
      }

      .cls-55 {
        fill: url(#linear-gradient-31);
      }

      .cls-56 {
        fill: url(#linear-gradient-33);
      }

      .cls-57 {
        fill: url(#linear-gradient-30);
      }

      .cls-58 {
        fill: url(#linear-gradient-15);
      }

      .cls-59 {
        fill: url(#linear-gradient-16);
      }

      .cls-60 {
        fill: url(#linear-gradient-17);
      }

      .cls-61 {
        fill: url(#linear-gradient-18);
      }

      .cls-62 {
        fill: url(#linear-gradient-35);
      }

      .cls-63 {
        fill: url(#linear-gradient-34);
      }

      .cls-64 {
        fill: url(#linear-gradient-36);
      }

      .cls-65 {
        fill: url(#linear-gradient-38);
      }

      .cls-66 {
        fill: url(#linear-gradient-27);
      }

      .cls-67 {
        fill: url(#linear-gradient-24);
      }

      .cls-68 {
        fill: url(#linear-gradient-26);
      }

      .cls-69 {
        fill: url(#linear-gradient-29);
      }

      .cls-70 {
        fill: url(#linear-gradient-37);
      }

      .cls-71 {
        fill: url(#linear-gradient-39);
      }

      .cls-72 {
        fill: url(#linear-gradient-50);
      }

      .cls-73 {
        fill: url(#Gradient_32-2);
      }

      .cls-74 {
        fill: url(#Gradient_58-3);
      }

      .cls-75 {
        fill: url(#Gradient_58-2);
      }

      .cls-76 {
        fill: url(#Gradient_58-4);
      }

      .cls-77 {
        fill: url(#Gradient_96-2);
      }

      .cls-78 {
        fill: url(#Gradient_27-9);
      }

      .cls-79 {
        fill: url(#Gradient_27-2);
      }

      .cls-80 {
        fill: url(#Gradient_27-4);
      }

      .cls-81 {
        fill: url(#Gradient_27-3);
      }

      .cls-82 {
        fill: url(#Gradient_27-6);
      }

      .cls-83 {
        fill: url(#Gradient_27-5);
      }

      .cls-84 {
        fill: url(#Gradient_27-8);
      }

      .cls-85 {
        fill: url(#Gradient_27-7);
      }

      .cls-86 {
        fill: #dca57b;
      }
    </style>
    <linearGradient id="linear-gradient" x1="100.51" y1="101.16" x2="194.15" y2="243.04" gradientUnits="userSpaceOnUse">
      <stop offset="0" stop-color="#0b173d"/>
      <stop offset=".5" stop-color="#0c193f"/>
      <stop offset=".82" stop-color="#132248"/>
      <stop offset="1" stop-color="#192b51"/>
    </linearGradient>
    <linearGradient id="linear-gradient-2" x1="177.22" y1="161.32" x2="192.79" y2="165.69" gradientUnits="userSpaceOnUse">
      <stop offset="0" stop-color="#f0c499"/>
      <stop offset=".52" stop-color="#f4cfa5"/>
      <stop offset="1" stop-color="#f7d4ab"/>
    </linearGradient>
    <linearGradient id="linear-gradient-3" x1="126.94" y1="167.46" x2="192.16" y2="185.77" xlink:href="#linear-gradient-2"/>
    <linearGradient id="linear-gradient-4" x1="148.34" y1="204.84" x2="117.24" y2="163.18" gradientUnits="userSpaceOnUse">
      <stop offset="0" stop-color="#f0c499"/>
      <stop offset=".51" stop-color="#e3b086"/>
      <stop offset="1" stop-color="#dba379"/>
    </linearGradient>
    <linearGradient id="linear-gradient-5" x1="190.83" y1="167.07" x2="123.65" y2="141.74" xlink:href="#linear-gradient-4"/>
    <linearGradient id="linear-gradient-6" x1="44.72" y1="192.08" x2="35.69" y2="295.29" gradientUnits="userSpaceOnUse">
      <stop offset="0" stop-color="#2b416b"/>
      <stop offset=".46" stop-color="#293e68"/>
      <stop offset=".75" stop-color="#23375f"/>
      <stop offset="1" stop-color="#192b51"/>
    </linearGradient>
    <linearGradient id="linear-gradient-7" x1="273.55" y1="209.95" x2="274.68" y2="347.32" xlink:href="#linear-gradient-6"/>
    <linearGradient id="linear-gradient-8" x1="105.2" y1="-274.26" x2="104.24" y2="-223.35" gradientTransform="translate(31.06 300.39) rotate(3.42) scale(1 .96)" gradientUnits="userSpaceOnUse">
      <stop offset="0" stop-color="#ffd9b3"/>
      <stop offset=".28" stop-color="#fbd6af"/>
      <stop offset="1" stop-color="#f7d4ab"/>
    </linearGradient>
    <linearGradient id="linear-gradient-9" x1="597.61" y1="618" x2="607.76" y2="642.63" gradientTransform="translate(800.39 -648.75) rotate(177.48) scale(.99 -1.14) skewX(3.14)" gradientUnits="userSpaceOnUse">
      <stop offset="0" stop-color="#dba379"/>
      <stop offset=".49" stop-color="#e3b086"/>
      <stop offset="1" stop-color="#f0c499"/>
    </linearGradient>
    <linearGradient id="linear-gradient-10" x1="1072.83" y1="602.43" x2="1082.84" y2="626.71" gradientTransform="translate(-977.07 -641.58) rotate(2) scale(.99 1.14) skewX(3.13)" xlink:href="#linear-gradient-9"/>
    <linearGradient id="linear-gradient-11" x1="115.62" y1="-211.23" x2="132.02" y2="-195.74" gradientTransform="translate(31.85 277.9) rotate(3.42)" xlink:href="#linear-gradient-2"/>
    <linearGradient id="linear-gradient-12" x1="86.41" y1="-206.11" x2="82.56" y2="-189.81" gradientTransform="translate(31.85 277.9) rotate(3.42)" xlink:href="#linear-gradient-2"/>
    <radialGradient id="radial-gradient" cx="404.85" cy="-138.11" fx="404.85" fy="-138.11" r="23.03" gradientTransform="translate(600.91 183.55) rotate(177.65) scale(1.02 -.71) skewX(-1.54)" gradientUnits="userSpaceOnUse">
      <stop offset="0" stop-color="#f8c39c"/>
      <stop offset="1" stop-color="#f7d4ab"/>
    </radialGradient>
    <radialGradient id="radial-gradient-2" cx="194.19" cy="-182.66" fx="194.19" fy="-182.66" r="23.62" gradientTransform="translate(-56.92 240.51) rotate(-3.81) scale(1.02 .69) skewX(2.86)" xlink:href="#radial-gradient"/>
    <linearGradient id="linear-gradient-13" x1="-232.3" y1="-297.45" x2="-246.47" y2="-292.56" gradientTransform="translate(350.28 392.76) rotate(10.97) scale(.93 .88)" gradientUnits="userSpaceOnUse">
      <stop offset="0" stop-color="#fbd6af"/>
      <stop offset="1" stop-color="#f7d4ab"/>
    </linearGradient>
    <linearGradient id="linear-gradient-14" x1="177.67" y1="154.83" x2="156.64" y2="149.7" gradientTransform="translate(-52.04 -54.68) rotate(-.26)" xlink:href="#linear-gradient-13"/>
    <linearGradient id="Gradient_58" data-name="Gradient 58" x1="-2284.96" y1="99.9" x2="-2259.5" y2="99.9" gradientTransform="translate(-2148.58 -27.68) rotate(-179.93) scale(1 -1)" gradientUnits="userSpaceOnUse">
      <stop offset="0" stop-color="#2b1b13"/>
      <stop offset=".04" stop-color="#2e1d14"/>
      <stop offset=".38" stop-color="#442b1d"/>
      <stop offset=".71" stop-color="#513423"/>
      <stop offset="1" stop-color="#563725"/>
    </linearGradient>
    <linearGradient id="Gradient_58-2" data-name="Gradient 58" x1="831.42" y1="254.45" x2="859.22" y2="254.45" gradientTransform="translate(-698.21 -43.02) rotate(-9.11)" xlink:href="#Gradient_58"/>
    <linearGradient id="linear-gradient-15" x1="114.78" y1="-91.88" x2="112.39" y2="-122.92" gradientTransform="translate(31.85 277.9) rotate(3.42)" gradientUnits="userSpaceOnUse">
      <stop offset="0" stop-color="#f7d4ab"/>
      <stop offset=".45" stop-color="#f3caa0"/>
      <stop offset="1" stop-color="#f0c499"/>
    </linearGradient>
    <linearGradient id="linear-gradient-16" x1="-2261.67" y1="203.96" x2="-2288.61" y2="226.98" gradientTransform="translate(-2150.62 -80.72) rotate(178.8) scale(1 -1)" xlink:href="#linear-gradient-4"/>
    <linearGradient id="linear-gradient-17" x1="190.17" y1="122.21" x2="164.25" y2="115.95" gradientTransform="translate(-44.6 -31)" gradientUnits="userSpaceOnUse">
      <stop offset="0" stop-color="#ece7e7"/>
      <stop offset=".23" stop-color="#f5f3f3"/>
      <stop offset=".53" stop-color="#fcfcfc"/>
      <stop offset="1" stop-color="#fff"/>
    </linearGradient>
    <linearGradient id="Gradient_96" data-name="Gradient 96" x1="192.9" y1="137.35" x2="168.85" y2="115.52" gradientTransform="translate(-44.6 -31)" gradientUnits="userSpaceOnUse">
      <stop offset="0" stop-color="#a8c3dd"/>
      <stop offset="1" stop-color="#7a90a5"/>
    </linearGradient>
    <linearGradient id="Gradient_96-2" data-name="Gradient 96" x1="86.78" y1="-181.43" x2="85.98" y2="-188.82" gradientTransform="translate(31.85 277.9) rotate(3.42)" xlink:href="#Gradient_96"/>
    <radialGradient id="Gradient_25" data-name="Gradient 25" cx="-3602.95" cy="206.4" fx="-3602.95" fy="206.4" r="4.03" gradientTransform="translate(-3479.9 -36.8) rotate(178.7) scale(1 -1) skewX(.09)" gradientUnits="userSpaceOnUse">
      <stop offset="0" stop-color="#666"/>
      <stop offset="1" stop-color="#1d1d1d"/>
    </radialGradient>
    <linearGradient id="linear-gradient-18" x1="-2356.03" y1="208.35" x2="-2335.99" y2="207.4" gradientTransform="translate(-2220.61 -74.19) rotate(178.81) scale(1 -1)" gradientUnits="userSpaceOnUse">
      <stop offset="0" stop-color="#2b1b13"/>
      <stop offset=".04" stop-color="#2e1d14"/>
      <stop offset=".38" stop-color="#442b1d"/>
      <stop offset=".71" stop-color="#513423"/>
      <stop offset="1" stop-color="#563725"/>
    </linearGradient>
    <linearGradient id="Gradient_32" data-name="Gradient 32" x1="112.27" y1="-277.42" x2="95.21" y2="-126.78" gradientTransform="translate(31.85 277.9) rotate(3.42)" gradientUnits="userSpaceOnUse">
      <stop offset="0" stop-color="#724831"/>
      <stop offset=".22" stop-color="#67412c"/>
      <stop offset=".63" stop-color="#5a3926"/>
      <stop offset="1" stop-color="#563725"/>
    </linearGradient>
    <linearGradient id="Gradient_32-2" data-name="Gradient 32" x1="61.01" y1="-238.85" x2="50.27" y2="-144.07" xlink:href="#Gradient_32"/>
    <linearGradient id="linear-gradient-19" x1="114.64" y1="-184.75" x2="114.32" y2="-188.88" gradientTransform="translate(29.07 323.82) rotate(3.42) scale(1 .93)" xlink:href="#linear-gradient-15"/>
    <linearGradient id="Gradient_115" data-name="Gradient 115" x1="151.42" y1="106.06" x2="152.16" y2="179.81" gradientUnits="userSpaceOnUse">
      <stop offset="0" stop-color="#d6ac88"/>
      <stop offset="1" stop-color="#a18166"/>
    </linearGradient>
    <linearGradient id="Gradient_115-2" data-name="Gradient 115" x1="152.73" y1="107.17" x2="153.42" y2="176.22" xlink:href="#Gradient_115"/>
    <linearGradient id="Gradient_27" data-name="Gradient 27" x1="151.88" y1="47.31" x2="164.24" y2="6.63" gradientUnits="userSpaceOnUse">
      <stop offset="0" stop-color="#724831"/>
      <stop offset=".42" stop-color="#7f553b"/>
      <stop offset="1" stop-color="#8e6346"/>
    </linearGradient>
    <linearGradient id="Gradient_27-2" data-name="Gradient 27" x1="135.02" y1="42.19" x2="147.39" y2="1.51" xlink:href="#Gradient_27"/>
    <linearGradient id="Gradient_27-3" data-name="Gradient 27" x1="121.8" y1="38.5" x2="134.45" y2="-3.13" xlink:href="#Gradient_27"/>
    <linearGradient id="Gradient_27-4" data-name="Gradient 27" x1="113.12" y1="34.03" x2="125.48" y2="-6.65" xlink:href="#Gradient_27"/>
    <linearGradient id="Gradient_27-5" data-name="Gradient 27" x1="167.19" y1="51.96" x2="179.55" y2="11.28" xlink:href="#Gradient_27"/>
    <linearGradient id="Gradient_27-6" data-name="Gradient 27" x1="180.66" y1="56.05" x2="193.02" y2="15.38" xlink:href="#Gradient_27"/>
    <linearGradient id="Gradient_27-7" data-name="Gradient 27" x1="103.45" y1="32.59" x2="115.81" y2="-8.09" xlink:href="#Gradient_27"/>
    <linearGradient id="Gradient_27-8" data-name="Gradient 27" x1="48.43" y1="-229.54" x2="57.76" y2="-228.31" gradientTransform="translate(31.85 277.9) rotate(3.42)" xlink:href="#Gradient_27"/>
    <linearGradient id="Gradient_27-9" data-name="Gradient 27" x1="193.02" y1="60.01" x2="206.12" y2="16.89" xlink:href="#Gradient_27"/>
    <linearGradient id="Gradient_58-3" data-name="Gradient 58" x1="65.83" y1="-140.32" x2="159.14" y2="-307.47" gradientTransform="translate(31.85 277.9) rotate(3.42)" xlink:href="#Gradient_58"/>
    <linearGradient id="Gradient_115-3" data-name="Gradient 115" x1="113.34" y1="-160.93" x2="112.7" y2="-169.25" gradientTransform="translate(29.07 323.82) rotate(3.42) scale(1 .93)" xlink:href="#Gradient_115"/>
    <linearGradient id="Gradient_115-4" data-name="Gradient 115" x1="116.33" y1="-186.26" x2="115.11" y2="-191.46" gradientTransform="translate(29.07 323.82) rotate(3.42) scale(1 .93)" xlink:href="#Gradient_115"/>
    <linearGradient id="Gradient_115-5" data-name="Gradient 115" x1="391.36" y1="-50.1" x2="390.23" y2="-54.88" gradientTransform="translate(-252.39 216.16) rotate(-3.58)" xlink:href="#Gradient_115"/>
    <linearGradient id="Gradient_115-6" data-name="Gradient 115" x1="437.01" y1="-52.04" x2="435.88" y2="-56.85" gradientTransform="translate(-252.39 216.16) rotate(-3.58)" xlink:href="#Gradient_115"/>
    <linearGradient id="Gradient_113" data-name="Gradient 113" x1="110.48" y1="-179.43" x2="109.29" y2="-163.17" gradientTransform="translate(31.85 277.9) rotate(3.42)" gradientUnits="userSpaceOnUse">
      <stop offset="0" stop-color="#a18166"/>
      <stop offset="1" stop-color="#d6ac88"/>
    </linearGradient>
    <linearGradient id="linear-gradient-20" x1="241.8" y1="316.08" x2="242.5" y2="340.43" gradientTransform="translate(-104.81 -225.23) rotate(-2.17)" gradientUnits="userSpaceOnUse">
      <stop offset="0" stop-color="#f7d4ab"/>
      <stop offset=".52" stop-color="#f5d1a8"/>
      <stop offset=".85" stop-color="#f2c99f"/>
      <stop offset="1" stop-color="#f0c499"/>
    </linearGradient>
    <linearGradient id="linear-gradient-21" x1="242.16" y1="809.58" x2="243.67" y2="798.46" gradientTransform="translate(-144.02 -1256.64) rotate(-2.16) scale(1 1.7) skewX(.04)" xlink:href="#linear-gradient-8"/>
    <linearGradient id="linear-gradient-22" x1="517.67" y1="533.19" x2="517.78" y2="549.03" gradientTransform="translate(-438.02 -347.33) rotate(-8.14)" xlink:href="#linear-gradient-20"/>
    <linearGradient id="linear-gradient-23" x1="443.98" y1="228.86" x2="444.66" y2="244.85" gradientTransform="translate(-317.87 -56.19) rotate(-7)" gradientUnits="userSpaceOnUse">
      <stop offset="0" stop-color="#e8d9d7"/>
      <stop offset=".4" stop-color="#efe5e3"/>
      <stop offset="1" stop-color="#fff"/>
    </linearGradient>
    <linearGradient id="linear-gradient-24" x1="519.74" y1="556.16" x2="513.98" y2="535.71" gradientTransform="translate(-438.02 -347.33) rotate(-8.14)" xlink:href="#linear-gradient-9"/>
    <linearGradient id="linear-gradient-25" x1="517.37" y1="566.98" x2="517.15" y2="552.73" gradientTransform="translate(-438.02 -347.33) rotate(-8.14)" gradientUnits="userSpaceOnUse">
      <stop offset="0" stop-color="#f0c499"/>
      <stop offset=".52" stop-color="#f1c69b"/>
      <stop offset=".85" stop-color="#f4cea4"/>
      <stop offset="1" stop-color="#f7d4ab"/>
    </linearGradient>
    <linearGradient id="linear-gradient-26" x1="508.28" y1="563.68" x2="525.1" y2="563.68" gradientTransform="translate(-438.02 -347.33) rotate(-8.14)" xlink:href="#linear-gradient-9"/>
    <linearGradient id="Gradient_149" data-name="Gradient 149" x1="-396.73" y1="3.22" x2="-373.26" y2="9.83" gradientTransform="translate(586.64 21.05) rotate(-8.16) scale(1.09 .99) skewX(.02)" gradientUnits="userSpaceOnUse">
      <stop offset="0" stop-color="#dba379"/>
      <stop offset=".49" stop-color="#e3b086"/>
      <stop offset="1" stop-color="#f0c499"/>
    </linearGradient>
    <linearGradient id="Gradient_58-4" data-name="Gradient 58" x1="-408.51" y1="11.46" x2="-390.26" y2="10.59" gradientTransform="translate(596.01 14.75) rotate(-8.17) scale(1.08)" xlink:href="#Gradient_58"/>
    <linearGradient id="linear-gradient-27" x1="249.38" y1="231.04" x2="249.67" y2="424.81" xlink:href="#linear-gradient"/>
    <linearGradient id="linear-gradient-28" x1="150.23" y1="170.72" x2="152.77" y2="318.72" xlink:href="#linear-gradient-6"/>
    <linearGradient id="linear-gradient-29" x1="148.79" y1="180.43" x2="167.03" y2="180.43" gradientTransform="matrix(1,0,0,1,0,0)" xlink:href="#linear-gradient-8"/>
    <linearGradient id="linear-gradient-30" x1="241.46" y1="231.06" x2="241.75" y2="424.82" xlink:href="#linear-gradient"/>
    <linearGradient id="linear-gradient-31" x1="27.47" y1="205.08" x2="28.61" y2="342.26" xlink:href="#linear-gradient-6"/>
    <linearGradient id="linear-gradient-32" x1="51.08" y1="231.35" x2="51.38" y2="425.12" xlink:href="#linear-gradient"/>
    <linearGradient id="linear-gradient-33" x1="60.68" y1="231.33" x2="60.97" y2="425.1" xlink:href="#linear-gradient"/>
    <linearGradient id="linear-gradient-34" x1="155.42" y1="207.42" x2="155.15" y2="312.6" xlink:href="#linear-gradient-6"/>
    <linearGradient id="linear-gradient-35" x1="164.56" y1="350.84" x2="136.23" y2="199.55" xlink:href="#linear-gradient-6"/>
    <linearGradient id="linear-gradient-36" x1="119.04" y1="247.88" x2="119.88" y2="206.44" xlink:href="#linear-gradient-6"/>
    <linearGradient id="linear-gradient-37" x1="119.96" y1="289.69" x2="119.96" y2="166.48" xlink:href="#linear-gradient-6"/>
    <linearGradient id="linear-gradient-38" x1="126.32" y1="194.08" x2="125.28" y2="122.42" xlink:href="#linear-gradient"/>
    <linearGradient id="linear-gradient-39" x1="125.04" y1="327.73" x2="170.35" y2="174.79" xlink:href="#linear-gradient-6"/>
    <linearGradient id="linear-gradient-40" x1="179.93" y1="252.24" x2="180.81" y2="209.07" xlink:href="#linear-gradient-6"/>
    <linearGradient id="linear-gradient-41" x1="162.01" y1="305.4" x2="169.37" y2="149.03" xlink:href="#linear-gradient"/>
    <linearGradient id="linear-gradient-42" x1="152.6" y1="303.11" x2="138.18" y2="216.36" xlink:href="#linear-gradient"/>
    <linearGradient id="linear-gradient-43" x1="181.52" y1="301.02" x2="181.52" y2="163.75" xlink:href="#linear-gradient-6"/>
    <linearGradient id="linear-gradient-44" x1="174.8" y1="193.6" x2="173.91" y2="132.02" xlink:href="#linear-gradient"/>
    <linearGradient id="linear-gradient-45" x1="134.08" y1="200.88" x2="140.29" y2="210.29" xlink:href="#linear-gradient"/>
    <linearGradient id="linear-gradient-46" x1="161.18" y1="212.27" x2="171.47" y2="229.59" xlink:href="#linear-gradient-6"/>
    <linearGradient id="linear-gradient-47" x1="187.11" y1="193.83" x2="147.08" y2="304.05" gradientUnits="userSpaceOnUse">
      <stop offset="0" stop-color="#2b416b"/>
      <stop offset=".54" stop-color="#1f325a"/>
      <stop offset="1" stop-color="#192b51"/>
    </linearGradient>
    <linearGradient id="linear-gradient-48" x1="172.73" y1="196.28" x2="137.94" y2="292.06" gradientUnits="userSpaceOnUse">
      <stop offset="0" stop-color="#2b416b"/>
      <stop offset=".53" stop-color="#1f335a"/>
      <stop offset="1" stop-color="#192b51"/>
    </linearGradient>
    <linearGradient id="linear-gradient-49" x1="194.87" y1="209.24" x2="205.67" y2="227.42" xlink:href="#linear-gradient-6"/>
    <linearGradient id="linear-gradient-50" x1="122.53" y1="205.24" x2="131.94" y2="221.08" xlink:href="#linear-gradient-6"/>
  </defs>
  <g id="Layer_1-2" data-name="Layer 1">
    <g>
      <path class="cls-21" d="M119.11,157.82s25.47-18.7,63.1-2.44c0,0,17.81,22.47.85,38.81-16.96,16.34-59.9,14.8-66.11,1.41-6.2-13.39-2.78-34.93,2.16-37.78Z"/>
      <path class="cls-18" d="M182.95,175.16l6.66-8.51s-7.23-2.17-10.07-16.92c-.12.11-.24.22-.36.34-.87,8.81.71,17.24,3.77,25.09Z"/>
      <path class="cls-17" d="M179.18,150.07c-11.43,10.5-17.98,20.08-32.69,19.16-5.69,0-15.91-2.49-23.03-7.19,5.96,11.97,17.22,21.08,26.44,29.14,3.8,3.8,5.36,10.31,7.33,16.85l25.73-32.86c-3.06-7.85-4.64-16.28-3.77-25.09Z"/>
      <path class="cls-16" d="M132.6,167.26c-.75-.5-10.62-6.24-11.3-6.78-1.21,2.84-2.69,5.81-4.52,8.9l31.5,51.88,8.94-13.23c-1.96-6.54-3.52-13.04-7.33-16.85-9.22-8.06-11.33-11.94-17.29-23.91Z"/>
      <path class="cls-13" d="M179.54,149.74c-.53-2.76-.91-5.96-1.06-9.66l-58.14-14.7s3.12,16.83.97,35.1c7.04,5.71,19.74,11.05,26.03,11.05,14.87.93,23.74-3.63,32.21-21.8Z"/>
      <path class="cls-23" d="M271.94,209.43c-15.56-5.75-74.21-32.38-74.21-32.38l-47.79,44.91-40.82-44.91s-68.63,27.64-79.27,32.38l28.4,84.45-.06,4.45h186.72l27.03-88.9Z"/>
      <path class="cls-14" d="M58.25,277.56l-28.4-68.13c-12.03,9.93-14.9,49.15-15.13,88.9h43.45c.1-7.31-.56-14.75.08-20.77Z"/>
      <path class="cls-12" d="M297.34,273.71c-11.14-62.84-25.41-64.28-25.41-64.28l-25.9,64.47,5.51,11.59c1.24,4.5,2.9,8.78,4.91,12.84h45.86c-1.76-7.98-3.51-16.33-4.98-24.61Z"/>
      <path class="cls-23" d="M249.11,273.4l-.39,24.93h11.57c-5.01-8.14-8.9-16.65-11.18-24.93Z"/>
      <g>
        <path class="cls-11" d="M107,86.63s3.45,46.99,4.76,48.95c1.31,1.96,21.12,21.79,23.67,23.97,2.56,2.18,29.11.84,29.11.84,0,0,22.3-20,24.24-23.21,1.93-3.21,5.23-51.29,5.23-51.29,0,0,5.85-37.77-3.18-50.73-9.03-12.96-70.6-17.15-80.81.87s-3.02,50.61-3.02,50.61Z"/>
        <g>
          <path class="cls-25" d="M201.82,81.96c9.63-.7,3.35,14.41,3.35,14.41-3.73,19.57-2.12,22.93-10.68,22.2-6.33-.54.45-36.11,7.33-36.61Z"/>
          <path class="cls-15" d="M196.07,110.1s3.05-3.42,2.89-10.75c-.37-17.28,8.72-17.6,5.59-6.13,0,0-.73-5.62-2.02-4.08-1.59,1.89,1.2,3.28-1.1,11.96-1.2,4.51-5.36,9-5.36,9Z"/>
        </g>
        <g>
          <path class="cls-25" d="M99.79,82.24c-9.62-.39-3.51,14.52-3.51,14.52,3.52,19.45,2.99,22.35,10.44,21.86,8.37-.55-.05-36.1-6.93-36.38Z"/>
          <path class="cls-42" d="M105.23,110.19s-3.01-3.32-2.77-10.66c.56-17.3-8.53-17.32-5.52-5.94,0,0,.79-5.64,2.07-4.15,1.57,1.83-1.24,3.32.96,11.93,1.15,4.47,5.27,8.82,5.27,8.82Z"/>
        </g>
        <path class="cls-43" d="M163.38,75.37s-5.98,10.4-5.83,11.27c.14.87.37,7.85.37,7.85,0,0,25.71.17,29.02-.87,3.31-1.04,4.14-7.54,4.14-7.54l-3.54-5.29s-7.6-7.29-8.33-6.79c-.74.49-15.82,1.36-15.82,1.36Z"/>
        <path class="cls-44" d="M136.94,75.36s6.41,7.47,6.3,8.35c-.11.87-.45,11.54-.45,11.54,0,0-25.36.15-28.7-.76s-4.42-7.37-4.42-7.37l3.33-5.42s7.32-7.57,8.07-7.1c.76.47,15.86.77,15.86.77Z"/>
        <path class="cls-20" d="M175.82,118.54c8.19.5,17.33-.56,18.97-17.21.93-9.49-.12-14.43-4.17-15.15-8.6-1.54-20.9,2.21-26.01,4.85-10.81,5.59-3.28,26.61,11.22,27.51Z"/>
        <path class="cls-9" d="M134.83,89.77c-2.34-.83-20.18-4.73-25.47-3.19-3.02.88-1.72,7.56-1.19,13.9.26,3.04.24,7.92.95,9.82,3.47,9.37,16.54,9.72,24.07,7.07,12.86-4.53,13.53-23.4,1.64-27.6Z"/>
        <path class="cls-45" d="M187.94,92.54c-1.21-.97-2.41-.14-5.38.17-2.91.31-10.68.17-7.49,2.64,3.52,2.73,9.49,1.08,10.25.7.76-.38,4.12-2.32,2.62-3.52Z"/>
        <path class="cls-47" d="M117.09,94.98c-3.12-.82-4.28-1.94-5.71-1.04-1.76,1.1,1.54,3.81,2.3,4.36.75.55,6.89,3.33,11.02.83,3.74-2.27-4.55-3.34-7.61-4.14Z"/>
        <path class="cls-1" d="M116.17,73.72c2.22-3.47,10.26-2.92,14.2-2.83,2.23.05,5.38.12,7.41.87.24,1.25.27,2.14-.12,3.61.91-.78,1.12-2.21.92-3.21.05.03,1.54,2.23.17,4.76-.66,1.2-4.19.2-12.38-.02-2.23-.06-6.03-.38-9.1.62-1.12.37-3.38,1.55-3.38,1.55-.24-.4,1.23-3.71,2.28-5.36Z"/>
        <path class="cls-75" d="M183.74,71.63c-2.16-2.29-9.81-1.16-13.78-.33-2.04.43-7.3,1.13-9.24,2.19-.04,1.27.07,2.16.71,3.55-1.05-.63-1.49-2-1.44-3.03-.05.03-1.2,2.45.6,4.72.86,1.09,4.27-.46,12.53-1.96,2.24-.41,7.03-1.26,9.31-.81,1.19.23,5.38.92,5.38.92.18-.43-1.63-2.67-4.05-5.25Z"/>
        <path class="cls-58" d="M119.19,40.16c1.7-.82,26.63,2.71,30.54,1.82,3.91-.89,24.92-4.7,28.99-2.43,4.07,2.27,6.96,6.81,7.36,9.31.4,2.51-.25,14.89,0,16.91.24,2.01,3.77,4.53,4.78,16.21,1.01,11.68.47,22.77-.14,27.63-.62,4.86-5.09,20.96-5.09,20.96l8.16-23.54s.82-2.79,1-5.71,2.35-38.44,2.35-38.44l-11.69-34.58-68.51-3.28-14.82,33.14,3.83,40.02,1.86,5.39,5.8,20.39s-2.21-24.56-2.92-26.02c-.71-1.47-.71-14.73-.47-17.21.66-6.76,4.02-13.33,4.44-15.13.42-1.8-1.69-14.56-1.26-16.36s5.79-9.09,5.79-9.09Z"/>
        <g>
          <path class="cls-59" d="M141.4,91.19c1.01-1.22-.04-3.83-.61-5.46-1.77-5.09-5.61-6.78-13.56-6.96-2.61-.06-7.12.5-9.89,3.07-2.13,1.98-3.36,3.94-3.12,5.71.12.9,4.29,5.95,12.97,6.22,5.67.18,12.12-.04,14.21-2.58Z"/>
          <path class="cls-60" d="M139.01,89.04c-.36.7-2.23,2.33-4.69,3-.39.11-.8.21-1.22.26-.64.08-1.33.13-2.07.13-1.79,0-3.91-.26-6.65-.82-.34-.07-.69-.15-1.05-.21-.25-.07-.5-.11-.75-.16-.36-.08-.69-.2-1.02-.33-.88-.47-1.66-1.09-2.28-1.84-.39-.46-.71-.99-.93-1.58,0,0,0-.02.02-.03.38-.46,4.49-5.38,12.71-5.05.44.03.91.07,1.38.11,1.46.16,2.71,1.08,3.75,2.17,1.63,1.76,2.65,3.98,2.79,4.3v.02s.02.03.02.03Z"/>
          <path class="cls-22" d="M118.36,87.46s-.02.03-.02.03c.23.59.54,1.12.93,1.59.1-.06.22-.13.35-.2.83-.45,2.33-1.06,5.14-1.3,11.6-.97,14.1,1.29,14.23,1.42,0,0,0,0,0,0-.36-1.86-1.4-3.26-2.8-4.31-1.46-1.1-3.3-1.82-5.13-2.28-1.51-.38-3.01-.59-4.28-.69-4.11-.32-8.07,5.22-8.43,5.73Z"/>
          <path class="cls-3" d="M135.32,88.78c.03,1.45-.47,2.53-1.01,3.26-.39.11-.8.21-1.22.26-.64.08-1.33.13-2.07.13-1.79,0-3.52.13-6.24-.51-.34-.08-1.03-.35-1.39-.42-.33-.11-.59-.13-.79-.26-.21-.37-.46-1.38-.51-1.72-.58-3.81,2.57-5.87,6.2-6.16,3.64-.31,6.93,1.45,7.03,5.41Z"/>
          <path class="cls-77" d="M135.18,87.6s-5.15-1.13-13.14.56c0,0,.15-4.12,4.96-5,4.52-.83,7.84,2.1,8.18,4.45Z"/>
          <path class="cls-5" d="M128.33,83.91c2.22-.12,4.28,1.64,4.39,3.9.11,2.26-1.77,4.15-4,4.28-2.23.11-4.12-1.62-4.23-3.88-.11-2.26,1.61-4.18,3.84-4.3Z"/>
          <path d="M128.48,83.91c2.63-.14,3.85,1.78,4.18,3.39,0,0-4.32-.43-8.16.38,0,0,.21-3.56,3.98-3.77Z"/>
          <path class="cls-24" d="M130.28,91.07c-.43-.82-.09-1.88.76-2.36.85-.48,1.9-.2,2.34.63.44.82.09,1.88-.76,2.36-.85.48-1.9.2-2.34-.63Z"/>
          <path class="cls-24" d="M127.44,88.68c-.35-.65-.08-1.48.6-1.85.68-.37,1.5-.16,1.85.49.35.65.08,1.48-.6,1.85-.68.37-1.51.16-1.85-.49Z"/>
          <path class="cls-61" d="M139,89.03s.39-3.11-3.31-5.65c-3.88-2.66-10.45-2.59-14.25-.2-2.29,1.44-3.1,4.31-3.1,4.31,0,0,4.84-3.46,10.01-3.22,2.87.13,3.96.39,5.26.7,3.37.82,5.39,4.05,5.39,4.05Z"/>
        </g>
        <path class="cls-2" d="M111.19,41.22s6.69-9.72,23.6-7.07c11.25,1.77,11.72,1.64,15.49,2.48,3.78.84,21.88-6.13,29.83-3.02,7.95,3.12,8.74,12.3,8.8,16.82.06,4.53-.91,15.18.2,15.89,1.1.71,5.08,5.18,4.72,11.37-.36,6.19.96,23.63.96,23.63,0,0,1.29-18.85,7.69-19.39l.4-12.98s2.56-8.91,2.78-12.6c.41-6.95-1.56-12.86-1.67-14.02-.29-2.99-5.39-8.17-6.28-9.16,0,0,3.24-6.97-5.65-11.83,0,0-1.8-14.58-17.57-17.88-15.77-3.31-29.01-2.41-33.87-.7,0,0-17.39-4.45-25.95,6.93,0,0-10.98,4.36-12.1,15.17-1.12,10.81,2.58,15.2,3.18,15.04l5.45,1.31Z"/>
        <path class="cls-73" d="M112.88,39.92s-5.45,7-3.67,21c0,0-2.74,7.68-2.74,12.78,0,5.09,1.51,24.75,1.51,24.75,0,0-3.33-16.7-9.62-16.14,0,0-1.22-11.52-1.54-12.26,0,0-4.88-9.13-1.44-19.84,1.98-6.18,10.36-10.29,10.36-10.29h7.15Z"/>
        <path class="cls-46" d="M127.56,138.77s12.3,6.95,12.94,6.84c.64-.11,10.34-5.15,10.34-5.15,0,0,10.88,5.48,13.33,5.29s14.83-8,14.83-8c0,0-12.78,11.85-15.28,13.02-2.5,1.17-27.67-.27-27.67-.27l-8.48-11.74Z"/>
        <path class="cls-8" d="M194.85,100.57s-2.5,31.13-4.51,35.6c-2.01,4.47-21.6,22.98-25.85,26.5-4.25,3.52-23.13,1.79-26.18,1.25-3.05-.54-25.03-21.66-28.07-26.59s-2.08-36.84-2.08-36.84c0,0,4,20.58,6.8,24.55,2.8,3.97,22.17,21.31,25.19,23.31,1.28.85,4.72-2.6,6.81-5.45,1.99-2.72.66-3.95,5.76-3.64,4.09.24,3.24,1.91,6.18,5.34,2.07,2.42,3.3,3.5,4.81,3.2,3.64-.73,23.17-22.32,24.11-24.5,3.8-8.84,7.03-22.73,7.03-22.73Z"/>
        <path class="cls-31" d="M124.5,123.68s17.81-10.13,19.03-9.76c7.37,2.25,17.98,1.44,18.92,1.13.94-.3,11.91.45,16.54,2.55,0,0,2.1,15.02,2.51,17.56.51,3.14-4.45,5.74-4.45,5.74l-.26-20.92-31.3,4.96-17.49,1.32,1.31,15.1s-2.54-1.08-4.82-5.46c0-5.99.01-12.24.01-12.24Z"/>
        <path class="cls-4" d="M150.74,27.75s-.18-23.23,28.48-22.79c0,0-16.65-10.03-27.22,1.54-10.57,11.57-1.25,21.26-1.25,21.26Z"/>
        <path class="cls-79" d="M137.77,25.46s1.27-18,18.03-22.1c0,0-5.58-7.15-15.19-.59-9.61,6.56-2.84,22.69-2.84,22.69Z"/>
        <path class="cls-81" d="M130.77,26.56s-3.52-19.17,9.84-23.79c0,0-10.34-7.2-16.55,3.38-6.21,10.58,6.71,20.41,6.71,20.41Z"/>
        <path class="cls-80" d="M118.53,27.75s-12.19-10.98-3.88-19.55c8.31-8.56,15.55-5.46,15.55-5.46,0,0-8.23,5.11-9.76,11.23-1.53,6.12-1.91,13.78-1.91,13.78Z"/>
        <path class="cls-83" d="M160.69,25.06s.12-14.92,11.71-17.6c11.59-2.68,18.32,4.35,19.65,13.89,0,0-2.68-10.98-16.55-6.7-9.39,2.9-14.81,10.4-14.81,10.4Z"/>
        <path class="cls-82" d="M178.48,30.74s12.94-6.72,19.22,2.44c0,0,.7-10.1-9.05-10.68-9.74-.58-10.18,8.24-10.18,8.24Z"/>
        <path class="cls-85" d="M105.73,39.92s-7.51-5.14-2.87-20.24c2.36-7.69,11.79-9.98,11.79-9.98,0,0-3.78,3.03-8.92,16.09-2.41,6.13,0,14.12,0,14.12Z"/>
        <path class="cls-84" d="M105.73,39.92s-7.69.13-11.36,9.62c-2.02,5.22,4.07,17.05,4.07,17.05,0,0-1.32-11.26.63-16.91,2.22-6.41,6.66-9.76,6.66-9.76Z"/>
        <path class="cls-78" d="M190.82,35.49s9.46-4.28,13.14,5.24c2.38,6.17,2.62,10.42-2.09,18.52,0,0,.36-12.42-1.89-15.93-2.25-3.51-9.16-7.83-9.16-7.83Z"/>
        <path class="cls-74" d="M108.16,100.48s.22-6.87.04-18.25c-.1-6.62.99-11.34,4.67-16.81,0,0-2-15.74-1.12-17.8,1.95-4.56,8.6-10.85,9.83-11.05s26.59,2.03,29.72,1.68c3.13-.35,23.07-3.68,28.81-.73,2.41,1.24,8.48,6.8,8.64,9.86.16,3.06-.75,18.24-.75,18.24,0,0,4.99,5.77,4.9,14.01-.09,8.24,1.87,21.7,1.87,21.7,0,0,2.13-25.34,1.89-28.19s-1.6-27.13-2.69-29.63c-1.09-2.5-10.15-11.77-15.5-12.77-5.35-1-27.36,1.44-28.34,2.05-.98.61-27.17-6.4-31.61-3.54s-13.01,12.86-12.96,15.45c.04,2.59-1.56,23.43-1.52,25.42.02.85,4.11,30.36,4.11,30.36Z"/>
        <path class="cls-30" d="M111.77,139.35s24.93,22.03,27.24,22.35,21.08,1.07,22.97.43c1.89-.64,26.61-23.4,26.61-23.4,0,0-14.31,17.56-26.78,26.22-1.78,1.23-22.1-.03-23.55-.21-4.5-.54-25.6-24.3-26.49-25.4Z"/>
        <path class="cls-27" d="M145.69,144.5s2.65-4.76,3.66-5.45c1.01-.69,5.88-.78,6.34.38.45,1.16,5.11,7.24,5.11,7.24,0,0-5.77-5.03-6.29-5.37-.52-.34-2.33-1.33-3.66-.84s-5.16,4.04-5.16,4.04Z"/>
        <path class="cls-28" d="M128.61,133.35l-.61-7.08c2.03,0,6.06-2.59,6.06-2.59,0,0-6.73.94-8.1.75-1.37-.2,2.66,8.92,2.66,8.92Z"/>
        <path class="cls-29" d="M176.88,127.64l-.1-7.66-4.94-.63s6.34-1.59,6.42-.86c.14,1.22-1.38,9.14-1.38,9.14Z"/>
        <path class="cls-7" d="M140.65,115.17s10.77,5.42,11.24,5.31c.47-.11,10.57-5.43,10.57-5.43,0,0-1.28-2.05-3.13-2.15-3.19-.19-6.51,2.71-8.7,2.17-.94-.23-5.72-1.58-8.3-1.72-1.85-.1-1.68,1.83-1.68,1.83Z"/>
        <g>
          <path class="cls-86" d="M155.36,114.41c6.48-5.17,7.09.65,7.09.65-3.58-2.9-7.09-.65-7.09-.65Z"/>
          <path class="cls-86" d="M140.65,115.17s.88-1.78,5.62-.37c0,0-7.88-5.09-5.62.37Z"/>
          <path class="cls-49" d="M157.73,96.84c.05,2.44,1.34,11.6.65,13.02-1.54,3.16-4.58,4.5-7.45,4.38-2.16.35-6.09-.59-8.33-3.76-.91-1.29.68-10.49.2-13.07,0,0-9.34,16.89-2.14,17.77,0,0-1.18-1.89,1.68-1.83,2.53.06,3.87,4.43,8.85,4.25,5.5-.21,4.54-4.11,7.45-4.61,3.61-.62,2.99,1.74,3.83,2.07,3.59-1.61-1.3-13.91-4.72-18.22Z"/>
          <path class="cls-48" d="M146.54,106.66c-.15,2.72.21,5.63,4.22,5.53,4.4-.11,4.48-3.08,4.02-5.56-2.73-14.68-7.7-10.09-8.24.03Z"/>
        </g>
        <g>
          <path class="cls-50" d="M142.73,125.19c-3.88.2-13.26,1.04-14.67.31,6.17-1.03,10.03-4.37,15.58-5.44,3.42-.66,6.37.04,7.84-.2,1.47-.23,7.22-1.71,8.46-1.62,2.96.23,14.78,1.76,16.39.83,0,0-5.37,2.37-11.7,3.54-4.15.77-6.84,1.13-11.79,1.73-4.89.6-6.23.65-10.11.84Z"/>
          <g>
            <path class="cls-10" d="M175.85,120.08l1.2-1.14s-.36,2-.75,2.53c-.39.54-5.82,2.3-5.82,2.3l5.37-3.69Z"/>
            <path class="cls-10" d="M129.56,126.73l-2.86-1.61s.86,2.21,1.37,2.64c.51.42,7.17,1.05,7.17,1.05l-5.67-2.08Z"/>
            <path class="cls-26" d="M176.13,120.13c-.87,1.12-7.25,6.21-7.45,6.34-3.24,2.11-4.58,1.16-7.73,2.46-.09.04-.18.08-.27.11-1.26.49-13.83,2.42-16.57,2.28t0,0c-2.89-.36-4.59.59-7.82-.58-.43-.15-6.66-3.54-7.9-4.58,0,0,2.23-.5,6.85-.53,7.94-.05,21.5-.89,36.53-5.09,1.41-.39,2.93.04,4.37-.41Z"/>
            <path class="cls-51" d="M134.76,126.32c.4,1.07.99,3.42,1.53,4.43,2.96,1.01,5.9,1.76,7.98,1.86t0,0c2.74.13,15.01-1.62,16.32-1.96,1.89-.49,5.55-2.55,8.1-4.17.31-1.08.25-3.57.31-4.72-5.74,1.82-19.74,5.59-34.24,4.57Z"/>
            <path class="cls-19" d="M134.25,125.21c.43,1.23.83,2.04,1.38,3.24,3.68.15,11.16-.17,17.09-.85,5.71-.66,12.5-2.35,16.04-3.5.17-1.03.22-2.11.26-3.11-4.46.73-14.79,2.63-34.78,4.22Z"/>
          </g>
          <path class="cls-67" d="M177.05,118.94c-9.26,2.21-19.78,3.59-24.1,4.09-5.15.59-18.68,1.85-26.26,2.1,0,0,.51.79,1.31,1.15,1.29.58,5.75.33,24.84-1.92,14.03-1.66,21.98-3.68,23.29-4.22.69-.28.92-1.19.92-1.19Z"/>
          <path class="cls-53" d="M132.94,133.04s8.91,2.99,10.42,2.92c3.85-.18,17.31-1.29,18.52-1.72,2.88-1.04,7.72-5.13,10.62-7.13,0,0-7.77,9.82-18.2,11.07-9.6,1.14-17.15-3.05-21.36-5.13Z"/>
          <path class="cls-68" d="M144.8,137.67s4.85,1.25,9.9.65c2.7-.32,6.84-2.4,6.84-2.4,0,0-6.24.86-16.74,1.75Z"/>
        </g>
        <g>
          <path class="cls-6" d="M160.65,91.5c-1.1-.85.48-3.12,1.22-4.36,1.82-3.05,5.86-6.38,11.62-6.55,2.47-.07,8.63-.37,11.91,6.11.34.67,2.38,4.85-5.73,3.42-11.54-2.04-16.72,3.16-19.02,1.4Z"/>
          <path class="cls-76" d="M162.22,90.85s-.03-1.01,2.55-3.55c3.27-3.21,8.31-3.81,12.53-2.85,2.6.6,5.52,2.82,5.12,4.47-2.75-.47-6.2-.81-8.03-.89-2.76-.12-7.08.79-8.37,1.38-2.42,1.1-3.79,1.44-3.79,1.44Z"/>
        </g>
      </g>
      <path class="cls-66" d="M249.23,284.05c1.34-6.84,9.9-42.75,9.9-42.75l-19.41,43.43,3.66,13.6h10.56c-2.94-7.79-4.87-13.45-4.71-14.28Z"/>
      <path class="cls-52" d="M29.85,209.43s34.61,62.94,44.87,69.91c10.05,6.83,149.97,11.02,163.56-4.36l33.66-65.55-75.82-40.06-25.55,19.4-22.29,32.48-39.06-50.54-79.37,38.72Z"/>
      <path class="cls-69" d="M148.79,174.96s12.62.17,17.39-2.59c4.77-2.77-11.94,16.15-13.43,16.4-1.49.24-3.95-13.8-3.95-13.8Z"/>
      <polygon class="cls-57" points="239.72 284.73 240.32 298.33 243.38 298.33 239.72 284.73"/>
      <path class="cls-55" d="M50.78,285.49l5.51-11.59-25.9-64.47s-14.27,1.44-25.41,64.28c-1.47,8.28-3.21,16.63-4.98,24.61h45.86c2.01-4.06,3.68-8.34,4.91-12.84Z"/>
      <path class="cls-23" d="M53.21,273.4c-2.28,8.28-6.17,16.79-11.18,24.93h11.57l-.39-24.93Z"/>
      <path class="cls-54" d="M62.6,284.73l-22.95-52.23s12.09,44.72,13.43,51.55c.16.83-1.77,6.49-4.71,14.28h10.56l3.66-13.6Z"/>
      <polygon class="cls-56" points="62.6 284.73 58.94 298.33 62 298.33 62.6 284.73"/>
      <path class="cls-63" d="M165.56,219.08c-5.41,2.22-11.92,2.3-17.59,3.77,0,0-1.35,34.1-2.97,75.48h16.49l4.07-79.25Z"/>
      <g>
        <path class="cls-62" d="M135.52,190.2s6.83,6.28,8.09,7.39c1.21,1.06,4.95,18.55,4.95,18.55l-2.15,36.69-19.64-54.48,8.75-8.14Z"/>
        <path class="cls-64" d="M105.15,178.3c0,4.09,7.23,33.57,7.7,35.15,0,0,8.93-7.71,14.93-12.5l7.74-10.75s-30.37-15.99-30.37-11.9Z"/>
        <path class="cls-70" d="M120.62,156.84s-4.95,6.31-2.42,14.92c2.37,8.05,17.32,18.44,17.32,18.44,0,0-17.89,14.96-21.35,18.33-2.42-8.47-11.57-31.91-9.46-35.24,4.05-6.4,9.85-13.15,15.91-16.46Z"/>
        <path class="cls-65" d="M120.62,156.84s-6.34,8.26,1.06,19.17c5.29,7.81,13.85,14.19,13.85,14.19,0,0-11.6-8.15-14.62-11.87-9.34-11.48-.28-21.5-.28-21.5Z"/>
        <path class="cls-71" d="M164.05,189.9c-2.29,1.5-5.28,3.58-9,6.48-1.57,1.22-7.59,21.77-7.07,26.47.07.62.11,1.55.12,2.66,5.63-1.64,12.14-2.05,17.9-3.27.69-6.2.88-12.67,1.49-18.46.04-.37.33-5.32.33-5.32.38-3.66.16-3.46.33-5.85-2.01-.16-3.45-1.22-4.1-2.71Z"/>
        <path class="cls-33" d="M164.05,189.9l3.77,8.56c4.24,3.31,17.16,11.62,23.79,14.99.81.41,5.84-30.09,7.04-38.56l-34.61,15.01Z"/>
        <polygon class="cls-34" points="165.56 257.48 167.83 198.45 163.58 244.3 162.05 280.09 162.05 280.26 161.24 298.33 162.5 298.33 165.56 257.48"/>
        <path class="cls-35" d="M147.98,234.17v-11.33s-.29,2.9-.69,6.98c-.62,6.3-3.35,36.54-4.19,68.5h2.16l2.72-64.16Z"/>
        <path class="cls-32" d="M164.05,189.9s24.1,16.27,27.17,19.59c2.69-10.61,7.76-30.97,7.76-37.04,0-3.19-13.63-15.47-16.77-17.07,0,0,1.77,5.23.87,10.31-3.22,18.22-19.03,24.21-19.03,24.21Z"/>
        <path class="cls-40" d="M164.05,189.9s23.66-11.19,18.16-34.52c0,0,13.59,22.67-18.16,34.52Z"/>
        <path class="cls-38" d="M139.75,205.89c0,1.17-1.06,2.12-2.36,2.12s-2.36-.95-2.36-2.12,1.06-2.12,2.36-2.12,2.36.95,2.36,2.12Z"/>
        <path class="cls-41" d="M164.05,189.9s-6.61,4.6-9.72,6.19c-3.11,1.6-5.9,21.93-5.9,21.93,0,0,5.63-17.71,6.65-19.36,1.02-1.65,8.97-8.76,8.97-8.76Z"/>
        <ellipse class="cls-39" cx="154.1" cy="284.73" rx="2.36" ry="2.12"/>
        <path class="cls-37" d="M157.92,243.56c0,1.2-1.06,2.17-2.36,2.17s-2.36-.97-2.36-2.17,1.06-2.16,2.36-2.16,2.36.97,2.36,2.16Z"/>
      </g>
      <path class="cls-36" d="M176.5,198.45l14.73,11.03,4.57-18.83s-4.43,12.8-5.5,13.13c-1.07.33-13.8-5.33-13.8-5.33Z"/>
      <path class="cls-72" d="M109.42,194.12l4.75,14.41,13.61-11.82s-12.26,8.56-12.72,8.39c-.46-.17-5.63-10.98-5.63-10.98Z"/>
    </g>
  </g>
</svg>