<?xml version="1.0" encoding="UTF-8" standalone="no"?>
<!DOCTYPE svg PUBLIC "-//W3C//DTD SVG 1.1//EN"
 "http://www.w3.org/Graphics/SVG/1.1/DTD/svg11.dtd">
<!-- Generated by graphviz version 2.44.0 (20200518.1210)
 -->
<!-- Title: g Pages: 1 -->
<svg width="194pt" height="152pt"
 viewBox="0.00 0.00 194.00 152.00" xmlns="http://www.w3.org/2000/svg" xmlns:xlink="http://www.w3.org/1999/xlink">
<g id="graph0" class="graph" transform="scale(1 1) rotate(0) translate(4 148)">
<title>g</title>
<polygon fill="white" stroke="transparent" points="-4,4 -4,-148 190,-148 190,4 -4,4"/>
<g id="node1" class="node">
<title></title>
<ellipse fill="none" stroke="#666666" cx="3.5" cy="-72" rx="3.5" ry="3.5"/>
</g>
<!-- /message -->
<g id="node2" class="node">
<title>/message</title>
<polygon fill="none" stroke="#b3b3b3" points="186,-144 115,-144 115,-108 186,-108 186,-144"/>
<text text-anchor="middle" x="150.5" y="-123" font-family="Helvetica,sans-Serif" font-size="10.00">Hello, world!</text>
</g>
<!-- &#45;&gt;/message -->
<g id="edge1" class="edge">
<title>&#45;&gt;/message</title>
<path fill="none" stroke="#999999" d="M7.02,-72.94C18.83,-77.34 69.76,-96.3 107.37,-110.31"/>
<polygon fill="#999999" stroke="#999999" points="114.7,-113.04 106.5,-113.59 111.19,-111.73 107.68,-110.42 107.68,-110.42 107.68,-110.42 111.19,-111.73 108.85,-107.26 114.7,-113.04 114.7,-113.04"/>
<text text-anchor="middle" x="64.86" y="-112.83" font-family="Helvetica,sans-Serif" font-size="14.00">message</text>
</g>
<!-- /message = &#39;Hello, world!&#39; -->
<g id="node3" class="node">
<title>/message = &#39;Hello, world!&#39;</title>
<polygon fill="none" stroke="#b3b3b3" points="177.5,-36 123.5,-36 123.5,0 177.5,0 177.5,-36"/>
</g>
<!-- &#45;&gt;/message = &#39;Hello, world!&#39; -->
<g id="edge2" class="edge">
<title>&#45;&gt;/message = &#39;Hello, world!&#39;</title>
<path fill="none" stroke="#999999" d="M7.02,-71.06C19.78,-66.31 78.22,-44.54 116.18,-30.41"/>
<polygon fill="#999999" stroke="#999999" points="123.48,-27.69 117.63,-33.47 119.97,-29 116.45,-30.31 116.45,-30.31 116.45,-30.31 119.97,-29 115.28,-27.14 123.48,-27.69 123.48,-27.69"/>
<text text-anchor="middle" x="88.39" y="-59.11" font-family="Helvetica,sans-Serif" font-size="14.00">message = &#39;Hello, world!&#39;</text>
</g>
</g>
</svg>
