<?xml version="1.0" encoding="UTF-8" standalone="no"?>
<!DOCTYPE svg PUBLIC "-//W3C//DTD SVG 1.1//EN"
 "http://www.w3.org/Graphics/SVG/1.1/DTD/svg11.dtd">
<!-- Generated by graphviz version 2.44.0 (20200518.1210)
 -->
<!-- Title: g Pages: 1 -->
<svg width="177pt" height="260pt"
 viewBox="0.00 0.00 177.00 260.00" xmlns="http://www.w3.org/2000/svg" xmlns:xlink="http://www.w3.org/1999/xlink">
<g id="graph0" class="graph" transform="scale(1 1) rotate(0) translate(4 256)">
<title>g</title>
<polygon fill="white" stroke="transparent" points="-4,4 -4,-256 173,-256 173,4 -4,4"/>
<g id="node1" class="node">
<title></title>
<ellipse fill="none" stroke="#666666" cx="3.5" cy="-126" rx="3.5" ry="3.5"/>
</g>
<!-- /0 -->
<g id="node2" class="node">
<title>/0</title>
<polygon fill="none" stroke="#b3b3b3" points="169,-252 115,-252 115,-216 169,-216 169,-252"/>
<text text-anchor="middle" x="142" y="-231" font-family="Helvetica,sans-Serif" font-size="10.00">Alice</text>
</g>
<!-- &#45;&gt;/0 -->
<g id="edge1" class="edge">
<title>&#45;&gt;/0</title>
<path fill="none" stroke="#999999" d="M6.87,-127.87C19.18,-137.62 76.69,-183.11 112.28,-211.28"/>
<polygon fill="#999999" stroke="#999999" points="118.23,-215.98 110.25,-213.98 115.29,-213.66 112.35,-211.33 112.35,-211.33 112.35,-211.33 115.29,-213.66 114.44,-208.68 118.23,-215.98 118.23,-215.98"/>
<text text-anchor="middle" x="69.58" y="-200.24" font-family="Helvetica,sans-Serif" font-size="14.00">0</text>
</g>
<!-- /1 -->
<g id="node3" class="node">
<title>/1</title>
<polygon fill="none" stroke="#b3b3b3" points="169,-144 115,-144 115,-108 169,-108 169,-144"/>
<text text-anchor="middle" x="142" y="-123" font-family="Helvetica,sans-Serif" font-size="10.00">Bob</text>
</g>
<!-- &#45;&gt;/1 -->
<g id="edge2" class="edge">
<title>&#45;&gt;/1</title>
<path fill="none" stroke="#999999" d="M7.35,-126C19.99,-126 71.87,-126 107.14,-126"/>
<polygon fill="#999999" stroke="#999999" points="114.84,-126 107.34,-129.38 111.09,-126 107.34,-126 107.34,-126 107.34,-126 111.09,-126 107.34,-122.63 114.84,-126 114.84,-126"/>
<text text-anchor="middle" x="69.53" y="-142.93" font-family="Helvetica,sans-Serif" font-size="14.00">1</text>
</g>
<!-- /2 -->
<g id="node4" class="node">
<title>/2</title>
<polygon fill="none" stroke="#b3b3b3" points="169,-36 115,-36 115,0 169,0 169,-36"/>
<text text-anchor="middle" x="142" y="-15" font-family="Helvetica,sans-Serif" font-size="10.00">Carol</text>
</g>
<!-- &#45;&gt;/2 -->
<g id="edge3" class="edge">
<title>&#45;&gt;/2</title>
<path fill="none" stroke="#999999" d="M6.87,-124.13C19.18,-114.38 76.69,-68.89 112.28,-40.72"/>
<polygon fill="#999999" stroke="#999999" points="118.23,-36.02 114.44,-43.32 115.29,-38.34 112.35,-40.67 112.35,-40.67 112.35,-40.67 115.29,-38.34 110.25,-38.02 118.23,-36.02 118.23,-36.02"/>
<text text-anchor="middle" x="95.8" y="-76.5" font-family="Helvetica,sans-Serif" font-size="14.00">2</text>
</g>
</g>
</svg>
