<?xml version="1.0" encoding="UTF-8" standalone="no"?>
<!DOCTYPE svg PUBLIC "-//W3C//DTD SVG 1.1//EN"
 "http://www.w3.org/Graphics/SVG/1.1/DTD/svg11.dtd">
<!-- Generated by graphviz version 2.44.0 (20200518.1210)
 -->
<!-- Title: g Pages: 1 -->
<svg width="330pt" height="260pt"
 viewBox="0.00 0.00 329.59 260.00" xmlns="http://www.w3.org/2000/svg" xmlns:xlink="http://www.w3.org/1999/xlink">
<g id="graph0" class="graph" transform="scale(1 1) rotate(0) translate(4 256)">
<title>g</title>
<polygon fill="white" stroke="transparent" points="-4,4 -4,-256 325.59,-256 325.59,4 -4,4"/>
<g id="node1" class="node">
<title></title>
<ellipse fill="none" stroke="#666666" cx="3.5" cy="-126" rx="3.5" ry="3.5"/>
</g>
<!-- /alice -->
<g id="node2" class="node">
<title>/alice</title>
<polygon fill="none" stroke="#b3b3b3" points="316.38,-252 120.21,-252 120.21,-216 316.38,-216 316.38,-252"/>
<text text-anchor="middle" x="218.29" y="-231" font-family="Helvetica,sans-Serif" font-size="10.00">id: alice name: Alice Wijaya location: J…</text>
</g>
<!-- &#45;&gt;/alice -->
<g id="edge1" class="edge">
<title>&#45;&gt;/alice</title>
<path fill="none" stroke="#999999" d="M6.89,-127.21C23.12,-135.45 118.27,-183.74 174.91,-212.49"/>
<polygon fill="#999999" stroke="#999999" points="181.62,-215.89 173.4,-215.51 178.27,-214.2 174.93,-212.5 174.93,-212.5 174.93,-212.5 178.27,-214.2 176.46,-209.49 181.62,-215.89 181.62,-215.89"/>
<text text-anchor="middle" x="131.65" y="-210.03" font-family="Helvetica,sans-Serif" font-size="14.00">alice</text>
</g>
<!-- /imani -->
<g id="node3" class="node">
<title>/imani</title>
<polygon fill="none" stroke="#b3b3b3" points="321.38,-144 115.21,-144 115.21,-108 321.38,-108 321.38,-144"/>
<text text-anchor="middle" x="218.29" y="-123" font-family="Helvetica,sans-Serif" font-size="10.00">id: imani name: Imani Davenhall location…</text>
</g>
<!-- &#45;&gt;/imani -->
<g id="edge2" class="edge">
<title>&#45;&gt;/imani</title>
<path fill="none" stroke="#999999" d="M7.19,-126C18.36,-126 62.57,-126 107.57,-126"/>
<polygon fill="#999999" stroke="#999999" points="115.09,-126 107.59,-129.38 111.34,-126 107.59,-126 107.59,-126 107.59,-126 111.34,-126 107.59,-122.63 115.09,-126 115.09,-126"/>
<text text-anchor="middle" x="69.78" y="-142.93" font-family="Helvetica,sans-Serif" font-size="14.00">imani</text>
</g>
<!-- /ines -->
<g id="node4" class="node">
<title>/ines</title>
<polygon fill="none" stroke="#b3b3b3" points="316.4,-36 120.19,-36 120.19,0 316.4,0 316.4,-36"/>
<text text-anchor="middle" x="218.29" y="-15" font-family="Helvetica,sans-Serif" font-size="10.00">id: ines name: Ines Silva location: Lisb…</text>
</g>
<!-- &#45;&gt;/ines -->
<g id="edge3" class="edge">
<title>&#45;&gt;/ines</title>
<path fill="none" stroke="#999999" d="M6.89,-124.79C23.12,-116.55 118.27,-68.26 174.91,-39.51"/>
<polygon fill="#999999" stroke="#999999" points="181.62,-36.11 176.46,-42.51 178.27,-37.8 174.93,-39.5 174.93,-39.5 174.93,-39.5 178.27,-37.8 173.4,-36.49 181.62,-36.11 181.62,-36.11"/>
<text text-anchor="middle" x="150.77" y="-71.26" font-family="Helvetica,sans-Serif" font-size="14.00">ines</text>
</g>
</g>
</svg>
