<?xml version="1.0" encoding="UTF-8" standalone="no"?>
<!DOCTYPE svg PUBLIC "-//W3C//DTD SVG 1.1//EN"
 "http://www.w3.org/Graphics/SVG/1.1/DTD/svg11.dtd">
<!-- Generated by graphviz version 2.44.0 (20200518.1210)
 -->
<!-- Title: g Pages: 1 -->
<svg width="185pt" height="56pt"
 viewBox="0.00 0.00 185.44 55.53" xmlns="http://www.w3.org/2000/svg" xmlns:xlink="http://www.w3.org/1999/xlink">
<g id="graph0" class="graph" transform="scale(1 1) rotate(0) translate(4 51.53)">
<title>g</title>
<polygon fill="white" stroke="transparent" points="-4,4 -4,-51.53 181.44,-51.53 181.44,4 -4,4"/>
<g id="node1" class="node">
<title></title>
<ellipse fill="none" stroke="#666666" cx="11.94" cy="-18" rx="3.5" ry="3.5"/>
</g>
<!-- /message = &#39;Hello, world!&#39; -->
<g id="node2" class="node">
<title>/message = &#39;Hello, world!&#39;</title>
<polygon fill="none" stroke="#b3b3b3" points="177.44,-36 123.44,-36 123.44,0 177.44,0 177.44,-36"/>
</g>
<!-- &#45;&gt;/message = &#39;Hello, world!&#39; -->
<g id="edge1" class="edge">
<title>&#45;&gt;/message = &#39;Hello, world!&#39;</title>
<path fill="none" stroke="#999999" d="M15.79,-18C28.43,-18 80.3,-18 115.58,-18"/>
<polygon fill="#999999" stroke="#999999" points="123.28,-18 115.78,-21.38 119.53,-18 115.78,-18 115.78,-18 115.78,-18 119.53,-18 115.78,-14.63 123.28,-18 123.28,-18"/>
<text text-anchor="middle" x="77.96" y="-34.93" font-family="Helvetica,sans-Serif" font-size="14.00">message = &#39;Hello, world!&#39;</text>
</g>
</g>
</svg>
