<?xml version="1.0" encoding="UTF-8" standalone="no"?>
<!DOCTYPE svg PUBLIC "-//W3C//DTD SVG 1.1//EN"
 "http://www.w3.org/Graphics/SVG/1.1/DTD/svg11.dtd">
<!-- Generated by graphviz version 2.44.0 (20200518.1210)
 -->
<!-- Title: g Pages: 1 -->
<svg width="276pt" height="260pt"
 viewBox="0.00 0.00 275.70 260.00" xmlns="http://www.w3.org/2000/svg" xmlns:xlink="http://www.w3.org/1999/xlink">
<g id="graph0" class="graph" transform="scale(1 1) rotate(0) translate(4 256)">
<title>g</title>
<polygon fill="white" stroke="transparent" points="-4,4 -4,-256 271.7,-256 271.7,4 -4,4"/>
<g id="node1" class="node">
<title></title>
<ellipse fill="none" stroke="#666666" cx="3.5" cy="-126" rx="3.5" ry="3.5"/>
</g>
<!-- /0 -->
<g id="node2" class="node">
<title>/0</title>
<polygon fill="none" stroke="#b3b3b3" points="266.83,-252 115.87,-252 115.87,-216 266.83,-216 266.83,-252"/>
<text text-anchor="middle" x="191.35" y="-231" font-family="Helvetica,sans-Serif" font-size="10.00">Hello, &lt;strong&gt;Alice&lt;/strong&gt;!</text>
</g>
<!-- &#45;&gt;/0 -->
<g id="edge1" class="edge">
<title>&#45;&gt;/0</title>
<path fill="none" stroke="#999999" d="M6.85,-127.37C21.66,-135.97 103.02,-183.25 152.3,-211.89"/>
<polygon fill="#999999" stroke="#999999" points="159.03,-215.8 150.85,-214.95 155.79,-213.92 152.55,-212.03 152.55,-212.03 152.55,-212.03 155.79,-213.92 154.24,-209.11 159.03,-215.8 159.03,-215.8"/>
<text text-anchor="middle" x="109.24" y="-207.1" font-family="Helvetica,sans-Serif" font-size="14.00">0</text>
</g>
<!-- /1 -->
<g id="node3" class="node">
<title>/1</title>
<polygon fill="none" stroke="#b3b3b3" points="264.46,-144 118.25,-144 118.25,-108 264.46,-108 264.46,-144"/>
<text text-anchor="middle" x="191.35" y="-123" font-family="Helvetica,sans-Serif" font-size="10.00">Hello, &lt;strong&gt;Bob&lt;/strong&gt;!</text>
</g>
<!-- &#45;&gt;/1 -->
<g id="edge2" class="edge">
<title>&#45;&gt;/1</title>
<path fill="none" stroke="#999999" d="M7.13,-126C18.72,-126 66.68,-126 110.63,-126"/>
<polygon fill="#999999" stroke="#999999" points="118.21,-126 110.71,-129.38 114.46,-126 110.71,-126 110.71,-126 110.71,-126 114.46,-126 110.71,-122.63 118.21,-126 118.21,-126"/>
<text text-anchor="middle" x="72.89" y="-142.93" font-family="Helvetica,sans-Serif" font-size="14.00">1</text>
</g>
<!-- /2 -->
<g id="node4" class="node">
<title>/2</title>
<polygon fill="none" stroke="#b3b3b3" points="267.55,-36 115.15,-36 115.15,0 267.55,0 267.55,-36"/>
<text text-anchor="middle" x="191.35" y="-15" font-family="Helvetica,sans-Serif" font-size="10.00">Hello, &lt;strong&gt;Carol&lt;/strong&gt;!</text>
</g>
<!-- &#45;&gt;/2 -->
<g id="edge3" class="edge">
<title>&#45;&gt;/2</title>
<path fill="none" stroke="#999999" d="M6.85,-124.63C21.66,-116.03 103.02,-68.75 152.3,-40.11"/>
<polygon fill="#999999" stroke="#999999" points="159.03,-36.2 154.24,-42.89 155.79,-38.08 152.55,-39.97 152.55,-39.97 152.55,-39.97 155.79,-38.08 150.85,-37.05 159.03,-36.2 159.03,-36.2"/>
<text text-anchor="middle" x="130.47" y="-73.04" font-family="Helvetica,sans-Serif" font-size="14.00">2</text>
</g>
</g>
</svg>
