<?xml version="1.0" encoding="UTF-8" standalone="no"?>
<!DOCTYPE svg PUBLIC "-//W3C//DTD SVG 1.1//EN"
 "http://www.w3.org/Graphics/SVG/1.1/DTD/svg11.dtd">
<!-- Generated by graphviz version 2.44.0 (20200518.1210)
 -->
<!-- Title: g Pages: 1 -->
<svg width="346pt" height="260pt"
 viewBox="0.00 0.00 346.26 260.00" xmlns="http://www.w3.org/2000/svg" xmlns:xlink="http://www.w3.org/1999/xlink">
<g id="graph0" class="graph" transform="scale(1 1) rotate(0) translate(4 256)">
<title>g</title>
<polygon fill="white" stroke="transparent" points="-4,4 -4,-256 342.26,-256 342.26,4 -4,4"/>
<g id="node1" class="node">
<title></title>
<ellipse fill="none" stroke="#666666" cx="3.5" cy="-126" rx="3.5" ry="3.5"/>
</g>
<!-- /alice -->
<g id="node2" class="node">
<title>/alice</title>
<polygon fill="none" stroke="#b3b3b3" points="335.94,-252 117.33,-252 117.33,-216 335.94,-216 335.94,-252"/>
<text text-anchor="middle" x="226.63" y="-231" font-family="Helvetica,sans-Serif" font-size="10.00">…&lt;title&gt;Alice Wijaya &#45; Our Team &#45; About U…</text>
</g>
<!-- &#45;&gt;/alice -->
<g id="edge1" class="edge">
<title>&#45;&gt;/alice</title>
<path fill="none" stroke="#999999" d="M6.91,-127.18C18.72,-132.95 71.64,-158.82 115,-180 136.9,-190.7 161.25,-202.58 181.51,-212.47"/>
<polygon fill="#999999" stroke="#999999" points="188.5,-215.88 180.28,-215.62 185.13,-214.24 181.76,-212.59 181.76,-212.59 181.76,-212.59 185.13,-214.24 183.24,-209.56 188.5,-215.88 188.5,-215.88"/>
<text text-anchor="middle" x="138.51" y="-210.8" font-family="Helvetica,sans-Serif" font-size="14.00">alice</text>
</g>
<!-- /imani -->
<g id="node3" class="node">
<title>/imani</title>
<polygon fill="none" stroke="#b3b3b3" points="338.4,-144 114.87,-144 114.87,-108 338.4,-108 338.4,-144"/>
<text text-anchor="middle" x="226.63" y="-123" font-family="Helvetica,sans-Serif" font-size="10.00">…&lt;title&gt;Imani Davenhall &#45; Our Team &#45; Abou…</text>
</g>
<!-- &#45;&gt;/imani -->
<g id="edge2" class="edge">
<title>&#45;&gt;/imani</title>
<path fill="none" stroke="#999999" d="M7.3,-126C18.54,-126 62.06,-126 107.32,-126"/>
<polygon fill="#999999" stroke="#999999" points="114.89,-126 107.39,-129.38 111.14,-126 107.39,-126 107.39,-126 107.39,-126 111.14,-126 107.39,-122.63 114.89,-126 114.89,-126"/>
<text text-anchor="middle" x="69.57" y="-142.93" font-family="Helvetica,sans-Serif" font-size="14.00">imani</text>
</g>
<!-- /ines -->
<g id="node4" class="node">
<title>/ines</title>
<polygon fill="none" stroke="#b3b3b3" points="335.68,-36 117.59,-36 117.59,0 335.68,0 335.68,-36"/>
<text text-anchor="middle" x="226.63" y="-15" font-family="Helvetica,sans-Serif" font-size="10.00">…&lt;title&gt;Ines Silva &#45; Our Team &#45; About Us&lt;…</text>
</g>
<!-- &#45;&gt;/ines -->
<g id="edge3" class="edge">
<title>&#45;&gt;/ines</title>
<path fill="none" stroke="#999999" d="M6.91,-124.82C18.72,-119.05 71.64,-93.18 115,-72 136.9,-61.3 161.25,-49.42 181.51,-39.53"/>
<polygon fill="#999999" stroke="#999999" points="188.5,-36.12 183.24,-42.44 185.13,-37.76 181.76,-39.41 181.76,-39.41 181.76,-39.41 185.13,-37.76 180.28,-36.38 188.5,-36.12 188.5,-36.12"/>
<text text-anchor="middle" x="157.04" y="-70.78" font-family="Helvetica,sans-Serif" font-size="14.00">ines</text>
</g>
</g>
</svg>
