<?xml version="1.0" encoding="UTF-8" standalone="no"?>
<!DOCTYPE svg PUBLIC "-//W3C//DTD SVG 1.1//EN"
 "http://www.w3.org/Graphics/SVG/1.1/DTD/svg11.dtd">
<!-- Generated by graphviz version 2.44.0 (20200518.1210)
 -->
<!-- Title: g Pages: 1 -->
<svg width="206pt" height="152pt"
 viewBox="0.00 0.00 206.23 152.00" xmlns="http://www.w3.org/2000/svg" xmlns:xlink="http://www.w3.org/1999/xlink">
<g id="graph0" class="graph" transform="scale(1 1) rotate(0) translate(4 148)">
<title>g</title>
<polygon fill="white" stroke="transparent" points="-4,4 -4,-148 202.23,-148 202.23,4 -4,4"/>
<g id="node1" class="node">
<title></title>
<ellipse fill="none" stroke="#666666" cx="3.5" cy="-72" rx="3.5" ry="3.5"/>
</g>
<!-- /Alice -->
<g id="node2" class="node">
<title>/Alice</title>
<polygon fill="none" stroke="#b3b3b3" points="194.36,-144 80.31,-144 80.31,-108 194.36,-108 194.36,-144"/>
<text text-anchor="middle" x="137.34" y="-121.8" font-family="Helvetica,sans-Serif" font-size="14.00">HELLO, ALICE.</text>
</g>
<!-- &#45;&gt;/Alice -->
<g id="edge1" class="edge">
<title>&#45;&gt;/Alice</title>
<path fill="none" stroke="#999999" d="M6.13,-74.33C9.28,-78.66 16.62,-87.95 25,-93 39.52,-101.76 56.52,-108.33 72.8,-113.19"/>
<polygon fill="#999999" stroke="#999999" points="80.22,-115.31 72.08,-116.5 76.61,-114.28 73.01,-113.25 73.01,-113.25 73.01,-113.25 76.61,-114.28 73.93,-110.01 80.22,-115.31 80.22,-115.31"/>
<text text-anchor="middle" x="41.72" y="-111.2" font-family="Helvetica,sans-Serif" font-size="14.00">Alice</text>
</g>
<!-- /Bob -->
<g id="node3" class="node">
<title>/Bob</title>
<polygon fill="none" stroke="#b3b3b3" points="188.97,-90 85.7,-90 85.7,-54 188.97,-54 188.97,-90"/>
<text text-anchor="middle" x="137.34" y="-67.8" font-family="Helvetica,sans-Serif" font-size="14.00">HELLO, BOB.</text>
</g>
<!-- &#45;&gt;/Bob -->
<g id="edge2" class="edge">
<title>&#45;&gt;/Bob</title>
<path fill="none" stroke="#999999" d="M7.25,-72C16.59,-72 48.1,-72 77.65,-72"/>
<polygon fill="#999999" stroke="#999999" points="85.5,-72 78,-75.38 81.75,-72 78,-72 78,-72 78,-72 81.75,-72 78,-68.63 85.5,-72 85.5,-72"/>
<text text-anchor="middle" x="41.72" y="-76.2" font-family="Helvetica,sans-Serif" font-size="14.00">Bob</text>
</g>
<!-- /Carol -->
<g id="node4" class="node">
<title>/Carol</title>
<polygon fill="none" stroke="#b3b3b3" points="198.13,-36 76.54,-36 76.54,0 198.13,0 198.13,-36"/>
<text text-anchor="middle" x="137.34" y="-13.8" font-family="Helvetica,sans-Serif" font-size="14.00">HELLO, CAROL.</text>
</g>
<!-- &#45;&gt;/Carol -->
<g id="edge3" class="edge">
<title>&#45;&gt;/Carol</title>
<path fill="none" stroke="#999999" d="M6.14,-69.69C9.3,-65.41 16.66,-56.22 25,-51.2 38.45,-43.12 54,-36.88 69.13,-32.12"/>
<polygon fill="#999999" stroke="#999999" points="76.52,-29.89 70.31,-35.29 72.93,-30.98 69.34,-32.06 69.34,-32.06 69.34,-32.06 72.93,-30.98 68.37,-28.82 76.52,-29.89 76.52,-29.89"/>
<text text-anchor="middle" x="41.72" y="-56.2" font-family="Helvetica,sans-Serif" font-size="14.00">Carol</text>
</g>
</g>
</svg>
