<svg xmlns="http://www.w3.org/2000/svg" viewBox="0 0 210.66 170.27"><g id="Layer_2" data-name="Layer 2"><g id="Layer_1-2" data-name="Layer 1"><path d="M210.15,1.32a2.76,2.76,0,0,0-.43-.47l-.11-.13s0,0,0,0a2.63,2.63,0,0,0-.41-.27,2.82,2.82,0,0,0-.38-.21,2.29,2.29,0,0,0-.37-.12,2.34,2.34,0,0,0-.54-.08l-.31,0a2.64,2.64,0,0,0-.87.17L1.84,77l-.14.07c-.09,0-.17.1-.25.14a3.54,3.54,0,0,0-.58.44,2,2,0,0,0-.2.21,2.67,2.67,0,0,0-.45.74.93.93,0,0,0,0,.1,2.68,2.68,0,0,0-.17.85c0,.05,0,.09,0,.14s0,.07,0,.11A1.05,1.05,0,0,0,.05,80a2.85,2.85,0,0,0,.18.71c0,.1.07.2.12.3a3.23,3.23,0,0,0,.47.63,2.18,2.18,0,0,0,.22.21,2.63,2.63,0,0,0,.59.39L59,109.15l14.81,39.49c0,.07.07.12.1.18l.1.2a3.1,3.1,0,0,0,.59.76,0,0,0,0,1,0,0,3,3,0,0,0,.86.48.33.33,0,0,0,.1.06l.1,0,.14,0a2.67,2.67,0,0,0,.56.06l.09,0h0a2.66,2.66,0,0,0,.79-.12l.22-.09A2.13,2.13,0,0,0,78,150l.23-.16c.06-.05.12-.08.17-.13l19.85-18.35,64.62,38.49a2.78,2.78,0,0,0,.4.16c.09,0,.17.09.26.12a3,3,0,0,0,.72.1l.08,0a2.68,2.68,0,0,0,1-.19l0,0h0a2.14,2.14,0,0,0,.19-.13,2.92,2.92,0,0,0,.78-.56,2.62,2.62,0,0,0,.23-.32,2.7,2.7,0,0,0,.38-.71c0-.07.07-.11.09-.18L210.45,3.55a.88.88,0,0,0,0-.16A1.89,1.89,0,0,0,210.15,1.32ZM163.89,158.07,134,78.31l14.76-14.14c15.33-14.7,30.64-29.42,42.09-40.52,4.87-4.72,8.55-8.3,11.38-11.09ZM99.38,125.41l0,0h0l-9.18-5.18c6.06-5.78,21.49-20.51,39.36-37.61l29.36,78.25Zm-34.66-17.3C75.2,100.6,89.64,90.24,105.39,79l5.19,13.86-27.13,25.9c-.07.07-.09.17-.16.24a2.94,2.94,0,0,0-.36.42c-.05.1-.06.21-.1.31s-.09.12-.12.19l-6.36,19.22ZM14.37,81.94l82.89-4.15L61,103.79Zm114.34-6.46,0,0-13.63,13-4.88-13C135,57.76,162.34,38.24,182,24.3,167.65,38.15,148.37,56.66,128.71,75.48ZM87,125l6.11,3.45-10.45,9.67Zm18.79-53.29L20.93,75.93,187.48,13.45C167.94,27.25,136.32,49.82,105.81,71.67Z"/></g></g></svg>