<svg xmlns="http://www.w3.org/2000/svg" viewBox="0 0 245.47 200.14"><g id="Layer_2" data-name="Layer 2"><g id="Layer_1-2" data-name="Layer 1"><path d="M243.71,135.27l-57.93-23.69-.08,0a2.73,2.73,0,0,0-.73-.16l-.13,0a3,3,0,0,0-.9.1h0l-69.67,20.18.65-6a1.49,1.49,0,0,1,0-.21,4.23,4.23,0,0,0-.05-.5,3.1,3.1,0,0,0-.18-.68c0-.07,0-.15-.06-.22l-9.71-18.64a2.86,2.86,0,0,0-2.58-1.52l-20.24.39a2.85,2.85,0,0,0-2.16,1.06,2.56,2.56,0,0,0-.27.55l-4.78,3.41L57,40.52a0,0,0,0,0,0,0,2.41,2.41,0,0,0-.36-.82c0-.06-.1-.11-.15-.17a2.27,2.27,0,0,0-.45-.48L56,39,6,.59a2.84,2.84,0,0,0-4.58,2.2L0,93.13s0,0,0,0A2.83,2.83,0,0,0,.24,94.3s0,0,0,0L47,198.46s0,.06.05.09a2.9,2.9,0,0,0,.27.41s.05.09.07.12l.05.07.06.06a2.37,2.37,0,0,0,.34.29,2.78,2.78,0,0,0,.27.21l0,0h0a2.54,2.54,0,0,0,.38.16,1.28,1.28,0,0,0,.27.11l0,0a3,3,0,0,0,.73.1l.32,0,119.33-13.33.09,0a2.65,2.65,0,0,0,1-.36l.08,0,73.7-46.07a2.85,2.85,0,0,0-.43-5Zm-77.1,46.1L61.91,193.06l118.53-72.9ZM80.85,115.56l3.34,17.32a2.87,2.87,0,0,0,3.56,2.2l18-5,1.94,4.83L55.31,187.52c7.39-26.22,17.74-62.9,20.06-71ZM53.13,174.3l3.4-113.08,13.66,52.71C68.61,119.44,59.64,151.21,53.13,174.3Zm-6,10.56L6.23,93.79l45-45.43Zm21.32-2.49,44-44.28,52.9-15.32Zm39.47-58.85-14.48,4.06,8.7-15.15ZM97.2,109.62l-8.76,15.27-2.91-15ZM7.05,8.54,50,41.53,5.8,86.15Zm166.16,169.4,13.52-59.83,49.69,20.32Z"/></g></g></svg>