<svg xmlns="http://www.w3.org/2000/svg" viewBox="0 0 220.94 184"><g id="Layer_2" data-name="Layer 2"><g id="Layer_1-2" data-name="Layer 1"><path d="M220.86,35.05a2.85,2.85,0,0,0-2-2.09L179.76,22.48a.88.88,0,0,0-.16,0l-.27,0a2.69,2.69,0,0,0-.85,0,.48.48,0,0,0-.12,0l0,0a2.62,2.62,0,0,0-.88.41,1.73,1.73,0,0,0-.21.17,1.57,1.57,0,0,0-.25.2l-33.63,35L94.29,25.35c-.06,0-.14-.06-.21-.1a3,3,0,0,0-.36-.16,1.42,1.42,0,0,0-.25-.12L3.6.11A2.82,2.82,0,0,0,.37,1.45,2.84,2.84,0,0,0,.89,4.91L120.27,117.67,60.46,162.19a2.84,2.84,0,0,0,1.7,5.12h.07l61-1.39.43,15.32a2.85,2.85,0,0,0,1.91,2.6,2.76,2.76,0,0,0,.93.16,2.85,2.85,0,0,0,2.19-1l70-83.83s0-.05,0-.07a2.91,2.91,0,0,0,.49-1l.06-.2s0-.08,0-.13a2.85,2.85,0,0,0-.05-1,.33.33,0,0,0,0-.1l-8-33.17L220,37.83A2.84,2.84,0,0,0,220.86,35.05Zm-43.38-4.11,14.48,60L148.14,61.5Zm-51,83.52L98.26,34.85l91.52,61.43ZM90.53,30.05l27.54,77.73L13.11,8.63ZM71,161.42l51-37.95,1,36.77Zm56.57-41.37,60.74-17.43-59.24,71Zm62.09-62.83-6.76-28,29.37,7.88Z"/></g></g></svg>