<svg xmlns="http://www.w3.org/2000/svg" viewBox="0 0 212.19 189.21"><g id="Layer_2" data-name="Layer 2"><g id="Layer_1-2" data-name="Layer 1"><path d="M210.89,53.9,176.46,31.7c-.05,0-.11,0-.17-.07a3.09,3.09,0,0,0-.71-.28c-.11,0-.22-.05-.33-.06a2.56,2.56,0,0,0-.73,0,2.11,2.11,0,0,0-.25,0,2.91,2.91,0,0,0-.84.34l-52.66,32.7L100.28,25.64a2.64,2.64,0,0,0-.53-.7s-.1-.07-.15-.11a2.67,2.67,0,0,0-.7-.44,1.25,1.25,0,0,0-.12-.08C29.56-1.82,28.68-.93,27.05.68a3,3,0,0,0-.69,3.06,2.5,2.5,0,0,0,.19.41L75.47,92.59,60.41,143.71l-51.87,3c-.11,0-.21.05-.32.07l-.34.07a2.75,2.75,0,0,0-.67.32,1.39,1.39,0,0,0-.21.11,2.67,2.67,0,0,0-.64.7,2.29,2.29,0,0,0-.14.27,2.52,2.52,0,0,0-.21.4,2.5,2.5,0,0,0,0,.29c0,.06,0,.1-.06.16L0,185.92a2.82,2.82,0,0,0,1.41,2.92,2.76,2.76,0,0,0,1.39.37,2.81,2.81,0,0,0,1.84-.68l22.77-19.38,21.78,18.46s0,0,.05,0l0,0a2.33,2.33,0,0,0,.51.28,2.85,2.85,0,0,0,.3.16,2.62,2.62,0,0,0,.88.15h0a2.85,2.85,0,0,0,1-.22l.22-.09c.06,0,.13-.05.19-.09l99.3-59.07s.06-.07.1-.09a3,3,0,0,0,.53-.48,2.08,2.08,0,0,0,.21-.21,3.25,3.25,0,0,0,.38-.77c0-.05.05-.09.06-.14a0,0,0,0,0,0,0l16.11-60.54,40.64-7.48a2.84,2.84,0,0,0,1-5.18ZM170.33,40.28l-20.85,78.35-26-49.23ZM34.66,7.08C46.69,11,74.71,21.32,94.3,28.7L77.73,84.93Zm24,142.42-9.12,30.95L16,152ZM6.86,179.21,10.72,155l12.34,10.46Zm49,.08L98.52,34.47l48.07,90.84Zm115-118.81,5.83-21.89,25.11,16.2Z"/></g></g></svg>