<svg xmlns="http://www.w3.org/2000/svg" viewBox="0 0 219.14 107.98"><g id="Layer_2" data-name="Layer 2"><g id="Layer_1-2" data-name="Layer 1"><path d="M219.1,25.38a2.91,2.91,0,0,0,0-1s0,0,0-.06-.06-.12-.08-.18a2.75,2.75,0,0,0-.3-.71c-.06-.1-.13-.19-.2-.29s-.1-.16-.16-.23a3.55,3.55,0,0,0-.31-.23,2.37,2.37,0,0,0-1-.52c-.07,0-.13-.05-.19-.06a2.86,2.86,0,0,0-1,0s-.06,0-.09,0L139.54,37.57,112.05,1.13l-.13-.1a2.74,2.74,0,0,0-4.28,0s-.1.06-.13.1L81,36.32,3.34,22.07H3.27a2.91,2.91,0,0,0-1,0,1,1,0,0,0-.16.06,2.7,2.7,0,0,0-.76.33l-.25.19a3.55,3.55,0,0,0-.31.23c-.07.08-.11.18-.18.26l-.19.29a2.81,2.81,0,0,0-.3.74c0,.06,0,.1-.06.16s0,0,0,0a2.69,2.69,0,0,0,0,1,1.43,1.43,0,0,0,.09.27,2.27,2.27,0,0,0,.17.5l42.26,80.26A2.78,2.78,0,0,0,44,107.77a2.06,2.06,0,0,0,.35.12,3,3,0,0,0,.79.09H175.11a3.25,3.25,0,0,0,.69-.08,2.51,2.51,0,0,0,.46-.16,2.79,2.79,0,0,0,1.38-1.31l41.2-80.27a2.63,2.63,0,0,0,.18-.54C219,25.54,219.08,25.46,219.1,25.38Zm-25.52,7L150.77,52.46l-7.44-9.86ZM106.94,11.33V70.24L74.05,54.92Zm5.68,0,32.89,43.59L112.62,70.34ZM68.78,52.46,24.16,31.67l53,9.72ZM9.28,31l93.91,43.77L46.35,101.42Zm48.58,71.3,52.05-24.4,52.37,24.4Zm116-.89L116.61,74.75,210,31Z"/></g></g></svg>