<svg xmlns="http://www.w3.org/2000/svg" viewBox="0 0 250.77 215.49"><g id="Layer_2" data-name="Layer 2"><g id="Layer_1-2" data-name="Layer 1"><path d="M249.71,11l-9.48-7.57a2.75,2.75,0,0,0-1.55-.62L202.45,0a2.84,2.84,0,0,0-2.3.89L182.88,19.35a2.63,2.63,0,0,0-.46.68s0,0,0,0,0,.08,0,.12a3.2,3.2,0,0,0-.17.43l-9.15,33-28.89-7L94.8,15.76a2.84,2.84,0,0,0-3.33.24L79.82,25.77,67.34,15.94a2.85,2.85,0,0,0-.84-.45l-.2,0a3.06,3.06,0,0,0-.79-.1l-.34.05a2.42,2.42,0,0,0-.64.17l-.34.16a2.26,2.26,0,0,0-.22.11,2.13,2.13,0,0,0-.34.33,1.33,1.33,0,0,0-.19.14L.69,88.6a1.34,1.34,0,0,0-.18.28,2.13,2.13,0,0,0-.16.25A2.64,2.64,0,0,0,0,90,.14.14,0,0,1,0,90a2.87,2.87,0,0,0,.06,1,.41.41,0,0,0,0,.11L21.63,175.7a2.83,2.83,0,0,0,2.72,2.14h0a2.84,2.84,0,0,0,2.74-2.07l11-39.34,4.44,18.4A2.83,2.83,0,0,0,45.3,157h0a2.84,2.84,0,0,0,2.74-2.09L64.92,93.3H86.66l38.49,120.18h0v0a3,3,0,0,0,.47.87c.06.07.13.12.2.19a2.8,2.8,0,0,0,.56.47,2.1,2.1,0,0,0,.3.15,2.56,2.56,0,0,0,.68.21,1.29,1.29,0,0,0,.21.07h.29a2.83,2.83,0,0,0,.41,0,2,2,0,0,0,.32-.1,3.57,3.57,0,0,0,.46-.16,2.47,2.47,0,0,0,.44-.27,2.54,2.54,0,0,0,.36-.29,2.65,2.65,0,0,0,.33-.42,2.28,2.28,0,0,0,.24-.39,2.49,2.49,0,0,0,.16-.55,2.72,2.72,0,0,0,.11-.34l6.83-66.32L147.24,172a2.84,2.84,0,0,0,2.65,1.83,2.15,2.15,0,0,0,.43,0,2.83,2.83,0,0,0,2.41-2.62L158,92l7.29,1.25c.06,0,.12,0,.18,0s.2,0,.3,0a3.47,3.47,0,0,0,.45-.06c.09,0,.19,0,.29,0a2.68,2.68,0,0,0,.83-.37l0,0,.06,0,35.42-23.62a2.82,2.82,0,0,0,1.23-1.91l5.3-33.1,28.54-9.41a2.84,2.84,0,0,0,1.9-2.12L241,17l7.31-.93a2.84,2.84,0,0,0,1.42-5Zm-86,76.18-21-3.6-9.28-15.46a2.58,2.58,0,0,0-.52-.57c-.06-.06-.09-.15-.16-.2l-7.61-6,18.27-9.14,28.15,6.83Zm-30.12-7.69L138,86.85l-5.75,55.83Zm-40-57.85L137.22,49l-17.06,8.53L84.39,29.36ZM128.07,71,125.39,195.6,71.13,26.15ZM24.51,164l-18-70.7H44.32Zm21-21.25-4.23-17.53L50.22,93.3H59ZM9.06,87.62,64.42,23.85,84.84,87.62Zm138.86,70.24-9.11-23.76,4.6-44.59,8.94,1.54Zm50.75-92.75L170.54,83.86l16.22-58.5,17,8.24Zm35.92-45.27-27.54,9.07-12.3-6L235,17.78Zm3.72-8.21h-.13l-45.77,5.85,11-11.71,34,2.67,3.56,2.84Z"/></g></g></svg>