<svg xmlns="http://www.w3.org/2000/svg" viewBox="0 0 181.86 244.74"><g id="Layer_2" data-name="Layer 2"><g id="Layer_1-2" data-name="Layer 1"><path d="M181.53,78c.05-.1.13-.18.17-.28a3,3,0,0,0,.16-1.12h0a1.38,1.38,0,0,0-.08-.29,2.72,2.72,0,0,0-.2-.78L145.71,1.6a2.85,2.85,0,0,0-5.22.23L127.9,35,83.05,44.9,50.35,20.8a2.85,2.85,0,0,0-4.53,2.36L47.6,97.4a1.7,1.7,0,0,0,.09.39c0,.11,0,.22,0,.32a.83.83,0,0,0,.09.16,2.62,2.62,0,0,0,.33.62,2.9,2.9,0,0,0,.25.36,2.69,2.69,0,0,0,.63.48c.09,0,.14.13.23.17l24.3,11.29L46,169.83,21.1,112.52,39.21,88.38A2.84,2.84,0,0,0,36,84L10.47,92.5A2.82,2.82,0,0,0,8.6,94.56L.09,131.44a2.81,2.81,0,0,0,0,1.19l17.05,99.8a.56.56,0,0,1,0,.12,3.39,3.39,0,0,0,.27.73l.06.14,0,.06a3.15,3.15,0,0,0,.54.61l.16.11a2.77,2.77,0,0,0,.6.35l.22.09a2.84,2.84,0,0,0,.87.15H35.82l16.38,9.56a2.86,2.86,0,0,0,1.44.39,2.81,2.81,0,0,0,1.32-.33,2.84,2.84,0,0,0,1.51-2.31l.53-7.31h44.08l1.64,7.7a2.84,2.84,0,0,0,1.57,2,2.88,2.88,0,0,0,1.21.27,2.81,2.81,0,0,0,1.32-.33l17.52-9.25,18.09,9.27a2.83,2.83,0,0,0,1.3.31,2.87,2.87,0,0,0,1.3-.32,2.83,2.83,0,0,0,1.51-2.12l12.91-89.42h0v-.09a1.49,1.49,0,0,0,0-.21,3,3,0,0,0-.08-.94s0-.1,0-.14L147,113.93,181.07,78.7a.21.21,0,0,1,0-.06A3,3,0,0,0,181.53,78ZM143.47,10,171,66.61,133.4,36.49ZM125.92,41.23,113.57,83.07,87.43,49.75ZM78.57,48.65,53.06,88.05,51.64,28.81ZM13.78,97.39l15.43-5.15L8.63,119.68Zm3.4,20.37,25.57,58.92L29.28,205.3v0l-8.11,17.24L5.85,132.87Zm7.19,111.35,6.3-13.4,2.5,13.4Zm14.77,1L34.81,206.9l21.9-46.57-5.58,76.82Zm18.27-1,6-83.1,12.86-27.35L99.87,229.11ZM81.29,114.79l41.24,19.15-1,96.29-14,7.4Zm43.46,13.92-17.11-8,30.93-6.32Zm16.73,108.85-14.3-7.34,1-92.89,25.4,16.45Zm9.94-91.95-21.59-14,12.67-13.08Zm-5.86-38.4L99,116.73l-20.46-9.5h0L54.6,96.13l28-43.29L112.5,90.91a2.84,2.84,0,0,0,5-1l14.07-47.69L174.81,77Z"/></g></g></svg>