<svg xmlns="http://www.w3.org/2000/svg" viewBox="0 0 248.14 190.56"><g id="Layer_2" data-name="Layer 2"><g id="Layer_1-2" data-name="Layer 1"><path d="M247.53,139.74l-28.7-36.44a2.7,2.7,0,0,0-2.27-1.09l-5.8.08L241,3.65s0-.08,0-.11,0-.2.05-.29a2.83,2.83,0,0,0,0-.71,1.77,1.77,0,0,0-.05-.32,2.75,2.75,0,0,0-.24-.68c0-.08-.07-.17-.12-.25a3,3,0,0,0-.63-.71l0,0s0,0,0,0-.11,0-.16-.07a2.64,2.64,0,0,0-.74-.35l-.3-.06a3.06,3.06,0,0,0-.74,0l-.26,0a2.88,2.88,0,0,0-.93.33L122.67,68.45A2.91,2.91,0,0,0,121.43,70l-11.78,35.28-13.49,6.8L21.84,14.81A2.84,2.84,0,0,0,17.12,18l52.65,91.63-1.69-.21a2.74,2.74,0,0,0-1.93.46L1.25,153.39a3.15,3.15,0,0,0-.38.35c-.07.07-.15.12-.21.19a3,3,0,0,0-.49.86c0,.06,0,.12,0,.19a2.5,2.5,0,0,0-.11.82s0,.09,0,.14,0,.13.05.2,0,.22,0,.32a3.09,3.09,0,0,0,.14.32c.05.11.09.22.14.32a2.77,2.77,0,0,0,.4.55c.07.07.12.15.19.21a2.88,2.88,0,0,0,.81.52.8.8,0,0,0,.15,0,2.68,2.68,0,0,0,.69.17L136.29,169.5a2.34,2.34,0,0,0,.24.31l18.12,19.83c.07.07.16.1.23.16s.11.16.2.22a2.42,2.42,0,0,0,.36.18c.1.05.19.11.29.15a2.78,2.78,0,0,0,1,.21h0a2.87,2.87,0,0,0,.87-.13,2.24,2.24,0,0,0,.27-.13l.22-.11a2.94,2.94,0,0,0,.89-.75.1.1,0,0,1,.05,0l49.44-67.66,35.3,22.17a2.84,2.84,0,0,0,3.74-4.17Zm-49.37-37.29-.08,0h-.15a3,3,0,0,0-.73.18l-.08,0a2.47,2.47,0,0,0-.68.41.39.39,0,0,0-.11.06L165,130.48l-8-11.32,73.63-101-25.83,84.19Zm-64.94,42.22L100.41,116.3l30.8-15.52,23.37,53.75Zm27.51-10.44-6.36,5.56-15-34.51,1.59,1.15Zm2.13,26.07a2.77,2.77,0,0,0-.24-1.52l-5.87-13.52,32.53-28.4L161.35,173Zm35.84-49.64,5.52,7.29-28.57,39.1ZM126.49,72.79,227.82,12.38l-74.31,101.9-8.2-11.52a2.9,2.9,0,0,0-.65-.66l-10.38-7.52c-.12-.08-.25-.1-.38-.17a3.45,3.45,0,0,0-.32-.2c-.05,0-.11,0-.16,0a3.31,3.31,0,0,0-.62-.09,2.66,2.66,0,0,0-.49,0,2.46,2.46,0,0,0-.59.16,2.36,2.36,0,0,0-.38.1l-14.48,7.29ZM43.64,52.7,89,112l-12.12-1.53Zm24.79,62.44,25.7,3.24,30.45,26.33L13.22,152.2ZM41.09,156l90-6.05,23.08,10.65-5.85,4.17Zm107.84,14.52a2.8,2.8,0,0,0,1.88-.52l5.65-4-1.8,15.23-10.09-11Zm60.79-54.75-5.86-7.73,11.37-.15,17.68,22.45Z"/></g></g></svg>