<svg xmlns="http://www.w3.org/2000/svg" viewBox="0 0 242.25 234.08"><g id="Layer_2" data-name="Layer 2"><g id="Layer_1-2" data-name="Layer 1"><path d="M206.9,82.7h0l.11-.12h0a1.64,1.64,0,0,0,.21-.25l34.44-45.08a2.88,2.88,0,0,0,.36-2.84l-5-11.72A2.82,2.82,0,0,0,234,21L207.8,25.3V17.41A2.86,2.86,0,0,0,206,14.74L166.88.18a2.87,2.87,0,0,0-2.19.08L124.56,18.73a2.84,2.84,0,0,0-1.46,1.55L103.56,70.37A2.83,2.83,0,0,0,105,74l18.2,8.87-4.5,3.32-44.61-8.3a2.82,2.82,0,0,0-1.93.33L46.61,92.79,21.53,67.37l12.33-15.9a2.84,2.84,0,0,0-3.48-4.3L9.06,57.47,9,57.54a3,3,0,0,0-.76.57l-.07.07a2.94,2.94,0,0,0-.39.58L.3,73.68A2.84,2.84,0,0,0,.2,76l14.87,37.53L45.59,215.36a2.84,2.84,0,0,0,1.78,1.87,2.77,2.77,0,0,0,.94.16,2.83,2.83,0,0,0,1.62-.51l48.35-33.47,31.1,49.35a2.83,2.83,0,0,0,2.41,1.32,2.75,2.75,0,0,0,1.32-.33c36.64-19.41,49.16-26.2,53.15-29.44a2.44,2.44,0,0,0,.24-.1,2.8,2.8,0,0,0,1-1.15,1.89,1.89,0,0,0,.43-1.45c.31-1.39,1.39-5.26,3-10.76a120.7,120.7,0,0,1,11.81-3.4,3.15,3.15,0,0,0,.42.09c2.55.32,2.54.34,6.51-13.76,2-7,4.59-16.43,7.19-25.82,5.2-18.78,10.37-37.56,10.37-37.56a2.84,2.84,0,0,0-.58-2.6c-6.87-8-16.5-19.3-20.84-24.43l.27-.13A2.66,2.66,0,0,0,206.9,82.7Zm.9-51.64L232.7,27l3.45,8.14L207.8,72.23ZM166,5.92l36.11,13.46V78.81L175,91.2,145,15.58ZM128,23.41,139.83,18l30,75.61-6,2.75L109.81,70Zm1,62.23L162.51,102a2.82,2.82,0,0,0,1.24.29,2.85,2.85,0,0,0,1.18-.26L190.7,90.27l17.16,22.89C193,163,186.68,184.71,184.06,194.4l-61-104.47ZM17.5,63.29l-2.39-2.43,6.83-3.3Zm-6.43,1.56L41.51,95.72,19.19,108.51,6,75.08ZM49.91,210l-28.78-96L74,83.62l41.89,7.79L96.57,177.68Zm82.87,17.52-30.65-48.64,18.41-82L181.31,201C174.43,205.18,149.8,218.46,132.78,227.5Zm88.57-117.15c-7.16,26-17.41,63-19.91,71.57a76.71,76.71,0,0,0-8.62,2.34c5.44-18.79,14.27-48.62,20.9-70.85a2.85,2.85,0,0,0-.45-2.51L196,87.86l4.57-2.09C203.2,89.14,208.94,95.86,221.35,110.35Z"/></g></g></svg>