<svg xmlns="http://www.w3.org/2000/svg" xmlns:xlink="http://www.w3.org/1999/xlink" viewBox="0 0 63.49 30.56"><defs><style>.cls-1{fill:url(#linear-gradient);}.cls-2{fill:url(#linear-gradient-2);}.cls-3{fill:url(#linear-gradient-3);}.cls-4{fill:url(#linear-gradient-4);}.cls-5{fill:url(#linear-gradient-5);}.cls-6{fill:url(#linear-gradient-6);}</style><linearGradient id="linear-gradient" y1="16.17" x2="10.09" y2="16.17" gradientTransform="matrix(-1, 0, 0, 1, 63.49, 0)" gradientUnits="userSpaceOnUse"><stop offset="0" stop-color="#c2d1d3"/><stop offset="1" stop-color="#7f9ba3"/></linearGradient><linearGradient id="linear-gradient-2" x1="1.77" y1="25.32" x2="11.96" y2="25.32" xlink:href="#linear-gradient"/><linearGradient id="linear-gradient-3" x1="58.33" y1="8.55" x2="6.54" y2="22.73" xlink:href="#linear-gradient"/><linearGradient id="linear-gradient-4" x1="32.04" y1="24.58" x2="44.44" y2="24.58" xlink:href="#linear-gradient"/><linearGradient id="linear-gradient-5" x1="30.12" y1="3.32" x2="37.35" y2="3.32" xlink:href="#linear-gradient"/><linearGradient id="linear-gradient-6" x1="64.75" y1="24.27" x2="51.44" y2="15.3" xlink:href="#linear-gradient"/></defs><g id="Layer_2" data-name="Layer 2"><g id="Origami"><g id="dolphin"><polygon class="cls-1" points="53.45 18.46 63.49 12.26 58.17 20.08 53.4 19.98 53.45 18.46"/><polygon class="cls-2" points="58.17 20.08 61.72 30.56 51.53 20.18 58.17 20.08"/><path class="cls-3" d="M58.17,20.08S43,10.48,42.37,10.34s-16.24-6.8-16.24-6.8L6.05,14.62l3.55,5.9Z"/><polygon class="cls-4" points="31.45 28.79 27.61 20.38 19.05 20.38 31.45 28.79"/><polygon class="cls-5" points="33.37 6.64 26.13 3.54 32.33 0 33.37 6.64"/><polygon class="cls-6" points="6.59 15.4 0 20.67 9.6 20.52 6.59 15.4"/></g></g></g></svg>