<svg xmlns="http://www.w3.org/2000/svg" viewBox="0 0 244.39 183.28"><g id="Layer_2" data-name="Layer 2"><g id="Layer_1-2" data-name="Layer 1"><path d="M243.56,34.58,210.17.83h0a3.29,3.29,0,0,0-.54-.43l-.29-.13-.19-.08a2.61,2.61,0,0,0-.92-.19h-.17a3,3,0,0,0-.88.16l-.11,0h0L170.45,15.85a2.79,2.79,0,0,0-1.16.91L127.16,73.51,124.48,71a2.87,2.87,0,0,0-2-.76,2.81,2.81,0,0,0-2,.93L100.86,92.63H93.23L4.44,32.1A.59.59,0,0,0,4.3,32a2.64,2.64,0,0,0-.77-.33l-.17-.05a2.81,2.81,0,0,0-1,0l-.28.08a1.91,1.91,0,0,0-.41.11,1.94,1.94,0,0,0-.24.15,1.61,1.61,0,0,0-.28.17,2.57,2.57,0,0,0-.62.61s-.06,0-.08.07,0,0,0,0a3,3,0,0,0-.38.92c0,.1,0,.2,0,.3s0,.24,0,.36V97.06a2.85,2.85,0,0,0,1,2.16l45.37,38.49-34,20.64a2.84,2.84,0,0,0,1.47,5.27H36l-13.61,14.9a2.84,2.84,0,0,0,2.1,4.76l.28,0,158.42-15.63a2.85,2.85,0,0,0,1.87-1l2.66-3h13.8a2.88,2.88,0,0,0,2.2-1l29.7-36.12a2.86,2.86,0,0,0,.28-3.2l-2.92-5.17-8.66-81.94,18.93,3.22a3.73,3.73,0,0,0,.47,0,2.84,2.84,0,0,0,2-4.84ZM173.39,20.77,205.6,7l8.51,118.74-14.28,15.49L131.34,77.41Zm-87,87.7L75.5,98.32H95.67Zm-17-15.84L32.05,57.8,83.14,92.63ZM5.68,41l60.59,56.5h0l16.28,15.18-24.85,27.2-52-44.13ZM24,157.94l26.93-16.36,2.93,2.49L41.21,157.94Zm157.52,4.15L31.61,176.88l91.1-99.74L196,145.47Zm18.67-4.15h-7.5l9.43-10.8h0l17-18.45a2.81,2.81,0,0,0,.75-2.12l-1.34-18.67,9.28,16.47Zm23.57-52.32-6.19-11-4.3-60,3,.52ZM212.86,28.83l-1.32-18.54,21.77,22Z"/></g></g></svg>