<svg xmlns="http://www.w3.org/2000/svg" xmlns:xlink="http://www.w3.org/1999/xlink" viewBox="0 0 49.06 31.02"><defs><style>.cls-1{fill:url(#linear-gradient);}.cls-2{fill:url(#linear-gradient-2);}.cls-3{fill:url(#linear-gradient-3);}.cls-4{fill:url(#linear-gradient-4);}.cls-5{fill:url(#linear-gradient-5);}.cls-6{fill:url(#linear-gradient-6);}</style><linearGradient id="linear-gradient" x1="24.75" y1="6.73" x2="13.85" y2="27.58" gradientTransform="matrix(-1, 0, 0, 1, 49.06, 0)" gradientUnits="userSpaceOnUse"><stop offset="0" stop-color="#b9d432"/><stop offset="0.5" stop-color="#77b343"/><stop offset="1" stop-color="#567133"/></linearGradient><linearGradient id="linear-gradient-2" x1="39.14" y1="40.35" x2="26.69" y2="19.81" xlink:href="#linear-gradient"/><linearGradient id="linear-gradient-3" x1="24.41" y1="6.81" x2="6.46" y2="16.14" xlink:href="#linear-gradient"/><linearGradient id="linear-gradient-4" x1="3.11" y1="4.91" x2="21.47" y2="5.53" xlink:href="#linear-gradient"/><linearGradient id="linear-gradient-5" x1="-4.08" y1="8.16" x2="12.1" y2="6.92" xlink:href="#linear-gradient"/><linearGradient id="linear-gradient-6" x1="38.17" y1="18.52" x2="49.06" y2="18.52" xlink:href="#linear-gradient"/></defs><g id="Layer_2" data-name="Layer 2"><g id="Origami"><g id="duck"><polygon class="cls-1" points="44.65 20.45 32.62 15.51 15.11 14.3 31.95 31.02 40.37 31.02 44.65 20.45"/><polygon class="cls-2" points="3.74 23.53 15.11 14.3 31.95 31.02 8.29 31.02 3.74 23.53"/><polygon class="cls-3" points="44.65 20.45 45.59 18.58 39.74 10.09 29.01 4.81 32.62 15.51 44.65 20.45"/><polygon class="cls-4" points="40.91 3.34 33.96 0 29.01 4.81 35.83 10.56 40.91 10.03 40.91 3.34"/><polygon class="cls-5" points="49.06 9.49 40.88 4.41 40.91 10.03 49.06 9.49"/><polygon class="cls-6" points="10.9 17.78 0 14.04 4.51 22.99 10.9 17.78"/></g></g></g></svg>