<svg xmlns="http://www.w3.org/2000/svg" viewBox="0 0 242.73 208.63"><g id="Layer_2" data-name="Layer 2"><g id="Layer_1-2" data-name="Layer 1"><path d="M241.23,142.42l-24.46-13.16,5.79-34.06a.76.76,0,0,0,0-.15,2.7,2.7,0,0,0,0-.85c0-.06,0-.11,0-.16a2.94,2.94,0,0,0-.33-.8L187.37,36.17a2.87,2.87,0,0,0-1-1L128.15.4a2.86,2.86,0,0,0-3.08.1l-46.17,32a2.85,2.85,0,0,0-1.19,2.83l4.81,27.19L53.38,59.22h-.11a2.85,2.85,0,0,0-1.62.36L6.7,83.94a2.83,2.83,0,0,0-1.47,2.18L0,133.24A3,3,0,0,0,0,134l9.47,55.89a2.83,2.83,0,0,0,2.26,2.31l30.31,5.92a2.51,2.51,0,0,0,.55.06,2.8,2.8,0,0,0,1.71-.58,2.87,2.87,0,0,0,1.12-2l1.26-16.11,20.74-13.87L145,208.27a2.75,2.75,0,0,0,1.37.36,2.78,2.78,0,0,0,1.34-.34,2.83,2.83,0,0,0,1.49-2.26l1.91-22.51,16.28,3a3.12,3.12,0,0,0,.52,0,2.86,2.86,0,0,0,1.89-.71,2.82,2.82,0,0,0,.95-2.31l-6.18-94.77,26.84,4.27,8.05,42a2.81,2.81,0,0,0,.64,1.32l9,10.42a.24.24,0,0,0,.08.06,2.91,2.91,0,0,0,.69.52c.09,0,.15.12.24.16a2.88,2.88,0,0,0,1.14.25h28.65a2.85,2.85,0,0,0,1.35-5.35ZM126.8,6.22l56.08,33.51L214.12,91,89.83,71.16l-6.2-35Zm17.79,186.59L96.39,78l57.17,9.1ZM55.65,65.2l27.91,3.13,1,5.81a2.85,2.85,0,0,0,2.35,2.31l2.95.47a3,3,0,0,0,.09.43l51.4,122.45L49.1,149ZM14.79,187,5.71,133.48l5-45.26L49.8,67,40,192Zm32.49-14.76,1.33-17,13.24,7.28Zm104.29,5.56L159,90.58l5.85,89.72ZM197.35,94l19.12,3-7,41.42-4.56-5.27Zm17.25,48.05,1.17-6.9,12.84,6.9Z"/></g></g></svg>