<svg xmlns="http://www.w3.org/2000/svg" xmlns:xlink="http://www.w3.org/1999/xlink" viewBox="0 0 41.26 34.45"><defs><style>.cls-1{fill:url(#linear-gradient);}.cls-2{fill:url(#linear-gradient-2);}.cls-3{fill:url(#linear-gradient-3);}.cls-4{fill:url(#linear-gradient-4);}.cls-5{fill:url(#linear-gradient-5);}.cls-6{fill:url(#linear-gradient-6);}.cls-7{fill:url(#linear-gradient-7);}.cls-8{fill:url(#linear-gradient-8);}</style><linearGradient id="linear-gradient" y1="19.49" x2="16.39" y2="19.49" gradientUnits="userSpaceOnUse"><stop offset="0" stop-color="#ffdd51"/><stop offset="1" stop-color="#ffc93c"/></linearGradient><linearGradient id="linear-gradient-2" x1="6.64" y1="29.16" x2="23.86" y2="29.16" xlink:href="#linear-gradient"/><linearGradient id="linear-gradient-3" x1="6.64" y1="5.63" x2="23.61" y2="5.63" xlink:href="#linear-gradient"/><linearGradient id="linear-gradient-4" x1="14.26" y1="29.45" x2="26.99" y2="-10.97" xlink:href="#linear-gradient"/><linearGradient id="linear-gradient-5" x1="9.38" y1="-2.76" x2="19.48" y2="17.83" xlink:href="#linear-gradient"/><linearGradient id="linear-gradient-6" x1="4.31" y1="20.02" x2="57.96" y2="12.53" xlink:href="#linear-gradient"/><linearGradient id="linear-gradient-7" x1="42.17" y1="-6.91" x2="31.39" y2="21.12" xlink:href="#linear-gradient"/><linearGradient id="linear-gradient-8" x1="42.07" y1="25.33" x2="20.51" y2="8.95" xlink:href="#linear-gradient"/></defs><g id="Layer_2" data-name="Layer 2"><g id="Origami"><g id="fish"><polygon class="cls-1" points="0 15.8 13.11 16.39 16.39 20.08 6.22 23.19 0 15.8"/><polygon class="cls-2" points="6.64 34.28 17.81 23.86 23.53 31 23.86 34.45 6.64 34.28"/><polygon class="cls-3" points="6.64 0 17.39 11.26 23.61 0.17 6.64 0"/><polygon class="cls-4" points="6.72 17.9 23.95 17.73 23.86 34.45 6.72 17.9"/><polygon class="cls-5" points="23.61 0.17 6.72 17.9 23.95 17.73 23.61 0.17"/><polygon class="cls-6" points="41.26 17.14 32.6 8.82 23.61 0.17 23.86 34.45 41.26 17.14"/><polygon class="cls-7" points="24.37 17.73 41.26 17.14 32.6 8.82 24.37 17.73"/><polygon class="cls-8" points="32.6 25.71 24.37 17.73 41.26 17.14 32.6 25.71"/></g></g></g></svg>