<svg xmlns="http://www.w3.org/2000/svg" viewBox="0 0 141.61 222.78"><g id="Layer_2" data-name="Layer 2"><g id="Layer_1-2" data-name="Layer 1"><path d="M141.6,109.26s0,0,0-.06h0a2.66,2.66,0,0,0-.29-1.12,2.78,2.78,0,0,0-.41-.56,2.45,2.45,0,0,0-.29-.35s-.06-.09-.1-.13L4.59.6A2.84,2.84,0,0,0,.32,4.16l40.76,78L25.17,95.75,11.87,66.11a2.85,2.85,0,0,0-5.44,1.17v89.39a2.85,2.85,0,0,0,2.23,2.78,3.18,3.18,0,0,0,.62.07,2.85,2.85,0,0,0,2.57-1.64l13.33-28.51,17,13.55L7.89,218.77a2.85,2.85,0,0,0,.89,3.45,2.91,2.91,0,0,0,1.7.56,2.82,2.82,0,0,0,1.86-.69L140.62,111.42s0-.07.08-.11a2.7,2.7,0,0,0,.49-.66,1.75,1.75,0,0,0,.18-.29A2.71,2.71,0,0,0,141.6,109.26Zm-10.8-2.62L61.24,108.5,11.46,13.2Zm-110.13-7-8.55,7.3V80.55Zm-8.55,44.3V119l8.49,6.78ZM13.74,113l30-25.63,12.6,24.13-11.79,26.1Zm47.66,1.2,69.48-1.86L18.37,209.38Z"/></g></g></svg>