<svg xmlns="http://www.w3.org/2000/svg" xmlns:xlink="http://www.w3.org/1999/xlink" viewBox="0 0 64.18 31.29"><defs><style>.cls-1{fill:url(#linear-gradient);}.cls-2{fill:url(#linear-gradient-2);}.cls-3{fill:url(#linear-gradient-3);}.cls-4{fill:url(#linear-gradient-4);}.cls-5{fill:url(#linear-gradient-5);}.cls-6{fill:url(#linear-gradient-6);}.cls-7{fill:url(#linear-gradient-7);}.cls-8{fill:url(#linear-gradient-8);}.cls-9{fill:url(#linear-gradient-9);}</style><linearGradient id="linear-gradient" x1="-2.56" y1="0.55" x2="11.61" y2="10.17" gradientUnits="userSpaceOnUse"><stop offset="0" stop-color="#f49b1e"/><stop offset="1" stop-color="#ea5724"/></linearGradient><linearGradient id="linear-gradient-2" x1="-2.57" y1="26.2" x2="31.99" y2="-1.88" xlink:href="#linear-gradient"/><linearGradient id="linear-gradient-3" x1="-5.9" y1="27.76" x2="19.2" y2="7.36" xlink:href="#linear-gradient"/><linearGradient id="linear-gradient-4" x1="-8.34" y1="31.34" x2="24.3" y2="4.81" xlink:href="#linear-gradient"/><linearGradient id="linear-gradient-5" x1="-5.37" y1="32.6" x2="14.26" y2="16.65" xlink:href="#linear-gradient"/><linearGradient id="linear-gradient-6" x1="12.35" y1="17.31" x2="24.57" y2="23.91" xlink:href="#linear-gradient"/><linearGradient id="linear-gradient-7" x1="38.95" y1="37.69" x2="20.86" y2="15.44" xlink:href="#linear-gradient"/><linearGradient id="linear-gradient-8" x1="-19.72" y1="63.48" x2="44.89" y2="10.98" xlink:href="#linear-gradient"/><linearGradient id="linear-gradient-9" x1="53.94" y1="31.3" x2="42.71" y2="15.79" xlink:href="#linear-gradient"/></defs><g id="Layer_2" data-name="Layer 2"><g id="Origami"><g id="fox"><polygon class="cls-1" points="0 0.18 13.8 6.24 4.4 10.7 0 0.18"/><polygon class="cls-2" points="14.43 6.17 28.05 0 24.02 10.82 14.43 6.17"/><polygon class="cls-3" points="4.4 10.7 14.12 5.99 14.06 20.23 4.4 10.7"/><polygon class="cls-4" points="14.06 20.23 14.12 5.99 24.02 10.82 14.06 20.23"/><polygon class="cls-5" points="4.4 10.7 12.16 30.93 13.88 30.93 14.06 20.23 4.4 10.7"/><polygon class="cls-6" points="24.02 10.82 14.06 20.23 13.88 30.93 16.07 30.99 24.02 10.82"/><polygon class="cls-7" points="34.72 31.29 16.07 30.99 24.02 10.82 40.4 18.03 34.72 31.29"/><path class="cls-8" d="M40.4,18,16.07,31Z"/><polygon class="cls-9" points="64.18 28.61 45.17 28.85 37.27 25.12 40.4 18.03 64.18 28.61"/></g></g></g></svg>