<svg xmlns="http://www.w3.org/2000/svg" viewBox="0 0 243.13 189.24"><g id="Layer_2" data-name="Layer 2"><g id="Layer_1-2" data-name="Layer 1"><path d="M243.12,103.42c0-.11,0-.21,0-.31a3.11,3.11,0,0,0-.14-.75,1.29,1.29,0,0,0,0-.19L225.51,59.22l.61-56.35a2.84,2.84,0,0,0-5.38-1.29L195.3,52.66l-36.74-27A2.83,2.83,0,0,0,154,27.91L153.53,85,97.08,73.27a2.84,2.84,0,0,0-3.26,1.83l-1.57,4.4L64.88,58.44a2.87,2.87,0,0,0-1.33-.57L3.24,49.4A2.84,2.84,0,0,0,.81,54.2l52.32,53.6a2.79,2.79,0,0,0,1.57.82l25.67,4.22-15,42a2.85,2.85,0,0,0,2.68,3.8,2.94,2.94,0,0,0,.51-.05L136,146.33l33.36,40.29a2.8,2.8,0,0,0,1.9,1l15.71,1.6h.29a2.83,2.83,0,0,0,2.68-3.79L176.1,146.58l10.46,7.68a2.86,2.86,0,0,0,1.68.55h.12l19.11-.85a2.82,2.82,0,0,0,2.41-1.56,2.86,2.86,0,0,0-.19-2.88l-14.07-20.7a2.8,2.8,0,0,0,1.1-2l1.52-22.73,41.93,2h.14a2.87,2.87,0,0,0,1-.18s.07,0,.11,0a1.7,1.7,0,0,1,.14-.1,2.58,2.58,0,0,0,.66-.43c.06-.06.13-.1.18-.16a2.88,2.88,0,0,0,.53-.76l0-.05c0-.06,0-.12.05-.19A2.58,2.58,0,0,0,243.12,103.42ZM232,90.41,203.72,60.6l16.95,1.8ZM219.86,56.6l-19.16-2,19.61-39.37Zm-27.8.74L159.15,92l.52-58.52ZM56.54,103.17l-45.85-47L62,63.4,90.25,85.12,82.31,107.4Zm15.86,49L93,94.39l38.85,46.92Zm100.58,30L95.41,88.42a2.23,2.23,0,0,0-.24-.19l3.17-8.9,55.14,11.43-.07,8.45s0,.08,0,.12a2.85,2.85,0,0,0,.11.65c0,.07,0,.14,0,.21l29.5,82.93Zm16.13-33-11.64-8.55,13.4-8.59,11.26,16.56Zm2-24.08-18.5,11.87-12.3-34.6,32.21,1.54ZM162.58,96.69l33.76-35.61,37,39Z"/></g></g></svg>