<svg xmlns="http://www.w3.org/2000/svg" viewBox="0 0 211.71 198.92"><g id="Layer_2" data-name="Layer 2"><g id="Layer_1-2" data-name="Layer 1"><path d="M210.46.49a2.81,2.81,0,0,0-3.12,0L155.91,33.24,103,9.29a2.84,2.84,0,0,0-3.83,3.6l18.71,49.25L50.67,122.45a2.83,2.83,0,0,0-.93,1.84L44.68,177,1.82,193.42a2.85,2.85,0,0,0,1,5.5H172a3.11,3.11,0,0,0,.86-.22h0a2.75,2.75,0,0,0,.86-.61s.06,0,.09-.06.06-.13.11-.19a2.71,2.71,0,0,0,.38-.64c0-.11.09-.22.13-.33a1.69,1.69,0,0,0,.08-.24L211.66,3.38A2.85,2.85,0,0,0,210.46.49ZM161.23,94.83l6.23,81.85-40.6-106.9Zm5.67-.45,26.65-26.83L173,174.65Zm-3.23-4.81-37.19-27.1L156.4,39.83l37,19.82ZM150.61,37.09,122.52,58.35l-15.59-41ZM44.07,183.28l-1,10H18.16Zm11.22-57.34L120,67.84l47.63,125.4H48.82ZM196,54.62,161.76,36.25,204.83,8.78Z"/></g></g></svg>