<svg xmlns="http://www.w3.org/2000/svg" xmlns:xlink="http://www.w3.org/1999/xlink" viewBox="0 0 48.13 43.45"><defs><style>.cls-1{fill:url(#linear-gradient);}.cls-2{fill:url(#linear-gradient-2);}.cls-3{fill:url(#linear-gradient-3);}.cls-4{fill:url(#linear-gradient-4);}.cls-5{fill:url(#linear-gradient-5);}.cls-6{fill:url(#linear-gradient-6);}.cls-7{fill:url(#linear-gradient-7);}.cls-8{fill:url(#linear-gradient-8);}.cls-9{fill:url(#linear-gradient-9);}</style><linearGradient id="linear-gradient" x1="11.35" y1="24.27" x2="-4.06" y2="31.38" gradientUnits="userSpaceOnUse"><stop offset="0" stop-color="#b0d253"/><stop offset="1" stop-color="#609941"/></linearGradient><linearGradient id="linear-gradient-2" x1="25.73" y1="36.85" x2="35.5" y2="36.85" xlink:href="#linear-gradient"/><linearGradient id="linear-gradient-3" x1="27.18" y1="16.61" x2="30.73" y2="38.38" xlink:href="#linear-gradient"/><linearGradient id="linear-gradient-4" x1="1.72" y1="22.04" x2="15.15" y2="28.56" xlink:href="#linear-gradient"/><linearGradient id="linear-gradient-5" x1="18.29" y1="30.87" x2="28.06" y2="19.02" xlink:href="#linear-gradient"/><linearGradient id="linear-gradient-6" x1="24.5" y1="11.11" x2="24.06" y2="23.11" xlink:href="#linear-gradient"/><linearGradient id="linear-gradient-7" x1="19.7" y1="20.54" x2="39.25" y2="1.88" xlink:href="#linear-gradient"/><linearGradient id="linear-gradient-8" x1="42.38" y1="-12.61" x2="26.98" y2="18.5" xlink:href="#linear-gradient"/><linearGradient id="linear-gradient-9" x1="21.53" y1="27.65" x2="39.01" y2="1.58" xlink:href="#linear-gradient"/></defs><g id="Layer_2" data-name="Layer 2"><g id="Origami"><g id="frog"><polygon class="cls-1" points="0 24.4 12.2 21.05 14.87 24.4 10.19 29.91 0 24.4"/><path class="cls-2" d="M25.73,38.1l1-7.85,7,3.84s2.18,9.36,1.68,9.36S25.73,38.1,25.73,38.1Z"/><polygon class="cls-3" points="35.09 34.76 25.73 38.1 26.74 30.25 35.09 34.76"/><path class="cls-4" d="M7.85,21.56s2,8.18,2.34,8.35,6.19-4.51,6.19-4.51Z"/><polygon class="cls-5" points="6.68 18.21 7.85 21.56 33.25 35.76 37.26 34.59 37.43 30.25 10.69 15.71 6.68 18.21"/><polygon class="cls-6" points="11.86 19.38 10.69 15.71 37.43 30.25 34.09 31.25 11.86 19.38"/><polygon class="cls-7" points="13.22 0.93 48.13 19.22 34.09 22.73 18.88 14.54 13.22 0.93"/><polygon class="cls-8" points="16.77 7.15 36.59 0 42.11 19.89 34.26 21.89 19.55 13.03 16.77 7.15"/><polygon class="cls-9" points="11.86 19.55 36.59 0 34.09 31.42 11.86 19.55"/></g></g></g></svg>