<svg xmlns="http://www.w3.org/2000/svg" viewBox="0 0 244.37 201.05"><g id="Layer_2" data-name="Layer 2"><g id="Layer_1-2" data-name="Layer 1"><path d="M244.3,141a.56.56,0,0,1,0-.12c0-.1,0-.2,0-.3a3.05,3.05,0,0,0,0-.43,2,2,0,0,0-.08-.43,2.79,2.79,0,0,0-.1-.39,2.67,2.67,0,0,0-.22-.41,1.43,1.43,0,0,0-.15-.27l-6.78-9-9.51-32.81,14.75-27.47a2.83,2.83,0,0,0-2.5-4.18H218.36l-2.15-7.41a2.83,2.83,0,0,0-2.73-2H181.27L149,12.85a2.84,2.84,0,0,0-2-1.11,2.87,2.87,0,0,0-2.17.68L134.94,21l-5.49-1.65L124.2,2A2.84,2.84,0,0,0,119.46.84L90.33,30.33a2.29,2.29,0,0,0-.28.41,2.35,2.35,0,0,0-.23.32,3,3,0,0,0-.26.87.45.45,0,0,0,0,.11,2.82,2.82,0,0,0,.1,1s0,.05,0,.08a2.22,2.22,0,0,0,.2.41c0,.1.08.22.14.32L101,50.6,63.53,83.24,36.79,81.35c-.09,0-.17,0-.26,0s-.25,0-.39,0a2,2,0,0,0-.41.15,2.35,2.35,0,0,0-.37.14,2.57,2.57,0,0,0-.71.51,1.77,1.77,0,0,0-.22.16L.68,121.76a2.84,2.84,0,0,0,2.16,4.69h.34l36.23-4.27a1.76,1.76,0,0,0,.3-.1l2.95,18.68A2.84,2.84,0,0,0,45,143.11L62.41,146l.46,0h0a2.83,2.83,0,0,0,.41,0,1.66,1.66,0,0,0,.29-.1,2.79,2.79,0,0,0,.55-.2,2.52,2.52,0,0,0,.44-.28c.08-.06.18-.09.25-.15l39-36.49,4.81,1.2,4,21.11L106.93,198a2.85,2.85,0,0,0,1.44,2.73,2.88,2.88,0,0,0,1.39.36,2.83,2.83,0,0,0,1.69-.56l58.46-43.26,72.18-14.13.06,0a2.54,2.54,0,0,0,.73-.26l.06,0a3.35,3.35,0,0,0,.57-.42c.06-.06.11-.13.17-.2a3,3,0,0,0,.23-.27.75.75,0,0,0,.06-.13,2.57,2.57,0,0,0,.19-.41C244.21,141.21,244.26,141.08,244.3,141ZM61.74,92.34l41.54-36.18,121.81,77.1ZM235,70.82,225.26,89,220,70.82Zm-23.67-9.46,10.4,35.92h0l5.67,19.57-41.86-55.5ZM146.27,18.71l83.61,110.85L107.75,52.26ZM120.14,8.24l3.49,11.54-21.34,6.53ZM96.82,33.93l30.35-9.29,2.71.81L105.33,46.83ZM54,91.59h0l-.05,0a3.3,3.3,0,0,0-.52.6h0L43.24,108.07,40,87.27l17.53,1.24ZM38.74,116.53l-29,3.41,25-29.23,4.09,25.83S38.77,116.52,38.74,116.53Zm5.84,0,9.47-14.79,5.46,38L48,137.84Zm20.33,20.82L59.19,97.56l38.07,9.54ZM228.49,140,168.08,151.8h0l-44,8.62-9.38-48.95ZM113.13,192.18l3.48-40.58,2.44,12.69a2.84,2.84,0,0,0,1.2,1.82,2.81,2.81,0,0,0,1.59.48,2.47,2.47,0,0,0,.54-.05l34.54-6.76Z"/></g></g></svg>