<svg xmlns="http://www.w3.org/2000/svg" xmlns:xlink="http://www.w3.org/1999/xlink" viewBox="0 0 41.53 60.64"><defs><style>.cls-1{fill:url(#linear-gradient);}.cls-2{fill:url(#linear-gradient-2);}.cls-3{fill:url(#linear-gradient-3);}.cls-4{fill:url(#linear-gradient-4);}.cls-5{fill:url(#linear-gradient-5);}.cls-6{fill:url(#linear-gradient-6);}.cls-7{fill:url(#linear-gradient-7);}</style><linearGradient id="linear-gradient" y1="4.14" x2="10.71" y2="4.14" gradientTransform="matrix(-1, 0, 0, 1, 41.53, 0)" gradientUnits="userSpaceOnUse"><stop offset="0" stop-color="#ffdd51"/><stop offset="1" stop-color="#ffc93c"/></linearGradient><linearGradient id="linear-gradient-2" x1="6.57" y1="32.2" x2="20.9" y2="32.2" xlink:href="#linear-gradient"/><linearGradient id="linear-gradient-3" x1="6.82" y1="33.63" x2="12.7" y2="33.63" xlink:href="#linear-gradient"/><linearGradient id="linear-gradient-4" x1="17.26" y1="35.56" x2="28.11" y2="35.56" xlink:href="#linear-gradient"/><linearGradient id="linear-gradient-5" x1="26" y1="44.94" x2="31.78" y2="24.4" xlink:href="#linear-gradient"/><linearGradient id="linear-gradient-6" x1="41.79" y1="54.61" x2="24.14" y2="44.19" xlink:href="#linear-gradient"/><linearGradient id="linear-gradient-7" x1="33" y1="43.49" x2="41.53" y2="43.49" xlink:href="#linear-gradient"/></defs><g id="Layer_2" data-name="Layer 2"><g id="Origami"><g id="giraffe"><polygon class="cls-1" points="41.53 6.08 40.42 8.28 30.82 3.75 34.02 0 41.53 6.08"/><polygon class="cls-2" points="20.63 34.88 30.82 3.75 34.96 5.63 27.83 60.64 20.63 34.88"/><polygon class="cls-3" points="31.73 60.14 28.83 52.77 34.71 7.12 31.73 60.14"/><polygon class="cls-4" points="24.27 24.19 13.42 24.11 24.04 47.02 20.63 34.88 24.27 24.19"/><polygon class="cls-5" points="20.63 39.68 7.46 39.6 8.53 27 13.42 24.11 20.63 39.68"/><polygon class="cls-6" points="9.29 39.61 8.37 59.98 7.46 39.6 9.29 39.61"/><polygon class="cls-7" points="8.53 27 0 39.27 8.37 59.98 7.46 39.6 8.53 27"/></g></g></g></svg>