<svg xmlns="http://www.w3.org/2000/svg" xmlns:xlink="http://www.w3.org/1999/xlink" viewBox="0 0 45.12 49.7"><defs><style>.cls-1{fill:url(#linear-gradient);}.cls-2{fill:url(#linear-gradient-2);}.cls-3{fill:url(#linear-gradient-3);}.cls-4{fill:url(#linear-gradient-4);}.cls-5{fill:url(#linear-gradient-5);}.cls-6{fill:url(#linear-gradient-6);}.cls-7{fill:url(#linear-gradient-7);}.cls-8{fill:url(#linear-gradient-8);}.cls-9{fill:url(#linear-gradient-9);}.cls-10{fill:url(#linear-gradient-10);}.cls-11{fill:url(#linear-gradient-11);}.cls-12{fill:url(#linear-gradient-12);}.cls-13{fill:url(#linear-gradient-13);}.cls-14{fill:url(#linear-gradient-14);}</style><linearGradient id="linear-gradient" x1="-2.57" y1="24.38" x2="40.93" y2="12.93" gradientTransform="matrix(-1, 0, 0, 1, 45.12, 0)" gradientUnits="userSpaceOnUse"><stop offset="0" stop-color="#af6f4f"/><stop offset="1" stop-color="#6f4836"/></linearGradient><linearGradient id="linear-gradient-2" x1="-1.87" y1="32.44" x2="31.9" y2="25" xlink:href="#linear-gradient"/><linearGradient id="linear-gradient-3" x1="31.63" y1="4.26" x2="15.99" y2="22.39" xlink:href="#linear-gradient"/><linearGradient id="linear-gradient-4" x1="35.19" y1="25.14" x2="20.75" y2="35.91" xlink:href="#linear-gradient"/><linearGradient id="linear-gradient-5" x1="44.37" y1="15.76" x2="26.42" y2="29.14" xlink:href="#linear-gradient"/><linearGradient id="linear-gradient-6" x1="49.73" y1="39.66" x2="36.71" y2="33.22" xlink:href="#linear-gradient"/><linearGradient id="linear-gradient-7" x1="30.95" y1="17.83" x2="28.77" y2="19.45" xlink:href="#linear-gradient"/><linearGradient id="linear-gradient-8" x1="38.15" y1="43.2" x2="31.52" y2="48.14" xlink:href="#linear-gradient"/><linearGradient id="linear-gradient-9" x1="22.74" y1="39.73" x2="1.18" y2="41.64" xlink:href="#linear-gradient"/><linearGradient id="linear-gradient-10" x1="3.44" y1="49.14" x2="12.79" y2="40.55" xlink:href="#linear-gradient"/><linearGradient id="linear-gradient-11" x1="1.24" y1="7.49" x2="15.49" y2="7.49" xlink:href="#linear-gradient"/><linearGradient id="linear-gradient-12" x1="8.97" y1="3.99" x2="18.03" y2="3.99" xlink:href="#linear-gradient"/><linearGradient id="linear-gradient-13" x1="3.15" y1="3.34" x2="6.3" y2="3.34" xlink:href="#linear-gradient"/><linearGradient id="linear-gradient-14" x1="1.24" y1="8.63" x2="6.77" y2="8.63" xlink:href="#linear-gradient"/></defs><g id="Layer_2" data-name="Layer 2"><g id="Origami"><g id="gorilla"><polygon class="cls-1" points="27.09 2.1 34.53 18.51 25.09 35.3 27.09 2.1"/><polygon class="cls-2" points="34.53 18.51 45.12 43.22 25.09 35.3 34.53 18.51"/><polygon class="cls-3" points="27.09 2.1 15.28 20.95 15.26 24.23 25.09 35.3 27.09 2.1"/><polygon class="cls-4" points="25.09 35.3 15.26 24.23 15.36 34.06 25.09 35.3"/><polygon class="cls-5" points="15.32 17.3 15.36 34.06 0 24.52 6.11 18.13 15.32 17.3"/><polygon class="cls-6" points="15.36 34.06 0 24.52 0.57 34.53 6.68 46.94 15.36 34.06"/><polygon class="cls-7" points="17.26 17.82 15.29 17.28 15.28 20.95 17.26 17.82"/><polygon class="cls-8" points="15.55 45.7 10.24 41.68 6.68 46.94 15.55 45.7"/><polygon class="cls-9" points="27.49 36.13 45.12 43.22 31.1 44.55 27.49 36.13"/><polygon class="cls-10" points="27.09 44.83 45.12 43.22 33.29 49.7 27.09 44.83"/><polygon class="cls-11" points="43.88 5.72 36.16 0 29.63 7.98 32.82 14.98 38.35 13.93 43.88 5.72"/><polygon class="cls-12" points="36.16 0 27.09 2.1 29.63 7.98 36.16 0"/><polygon class="cls-13" points="41.98 2.86 38.83 4.39 39.97 2.29 41.98 2.86"/><polygon class="cls-14" points="38.83 4.39 38.35 13.93 43.88 5.72 40.83 3.34 38.83 4.39"/></g></g></g></svg>