<svg xmlns="http://www.w3.org/2000/svg" xmlns:xlink="http://www.w3.org/1999/xlink" viewBox="0 0 78.12 62.76"><defs><style>.cls-1{fill:url(#linear-gradient);}.cls-2{fill:url(#linear-gradient-2);}.cls-3{fill:url(#linear-gradient-3);}.cls-4{fill:url(#linear-gradient-4);}.cls-5{fill:url(#linear-gradient-5);}.cls-6{fill:url(#linear-gradient-6);}.cls-7{fill:url(#linear-gradient-7);}.cls-8{fill:url(#linear-gradient-8);}.cls-9{fill:url(#linear-gradient-9);}.cls-10{fill:url(#linear-gradient-10);}.cls-11{fill:url(#linear-gradient-11);}.cls-12{fill:url(#linear-gradient-12);}.cls-13{fill:url(#linear-gradient-13);}.cls-14{fill:url(#linear-gradient-14);}.cls-15{fill:url(#linear-gradient-15);}</style><linearGradient id="linear-gradient" x1="9.58" y1="59.05" x2="24" y2="59.05" gradientTransform="matrix(-1, 0, 0, 1, 78.12, 0)" gradientUnits="userSpaceOnUse"><stop offset="0" stop-color="#f7973a"/><stop offset="1" stop-color="#ea5724"/></linearGradient><linearGradient id="linear-gradient-2" x1="-23.4" y1="13.81" x2="32.98" y2="13.81" xlink:href="#linear-gradient"/><linearGradient id="linear-gradient-3" x1="-23.76" y1="17.01" x2="27.27" y2="17.01" xlink:href="#linear-gradient"/><linearGradient id="linear-gradient-4" x1="9.84" y1="8.98" x2="16.14" y2="8.98" xlink:href="#linear-gradient"/><linearGradient id="linear-gradient-5" x1="9.84" y1="5.87" x2="13.32" y2="5.87" xlink:href="#linear-gradient"/><linearGradient id="linear-gradient-6" x1="6.65" y1="21.41" x2="12.26" y2="21.41" xlink:href="#linear-gradient"/><linearGradient id="linear-gradient-7" x1="10.79" y1="21.41" x2="19.42" y2="21.41" xlink:href="#linear-gradient"/><linearGradient id="linear-gradient-8" x1="5.74" y1="30.84" x2="7.51" y2="30.84" xlink:href="#linear-gradient"/><linearGradient id="linear-gradient-9" x1="5.87" y1="28.4" x2="13.98" y2="28.4" xlink:href="#linear-gradient"/><linearGradient id="linear-gradient-10" x1="10.79" y1="27.88" x2="19.42" y2="27.88" xlink:href="#linear-gradient"/><linearGradient id="linear-gradient-11" x1="10.91" y1="38.8" x2="29.87" y2="38.8" xlink:href="#linear-gradient"/><linearGradient id="linear-gradient-12" x1="24.35" y1="46.27" x2="39.54" y2="46.27" xlink:href="#linear-gradient"/><linearGradient id="linear-gradient-13" x1="27.44" y1="56.53" x2="39.16" y2="56.53" xlink:href="#linear-gradient"/><linearGradient id="linear-gradient-14" x1="37.55" y1="59.22" x2="78.12" y2="59.22" xlink:href="#linear-gradient"/><linearGradient id="linear-gradient-15" x1="20.02" y1="54" x2="27.45" y2="54" xlink:href="#linear-gradient"/></defs><g id="Layer_2" data-name="Layer 2"><g id="Origami"><g id="kangaroo"><polygon class="cls-1" points="68.54 60.69 57.58 57.41 54.13 60.43 68.54 60.69"/><polygon class="cls-2" points="65.87 15.88 68.28 11.74 78.12 15.19 65.87 15.88"/><polygon class="cls-3" points="71.48 18.82 65.87 15.88 78.12 15.19 71.48 18.82"/><polygon class="cls-4" points="68.28 11.74 61.98 2.07 65.87 15.88 68.28 11.74"/><polygon class="cls-5" points="66.3 0 64.81 6.44 68.28 11.74 66.3 0"/><polygon class="cls-6" points="71.48 18.82 65.87 15.88 67.33 26.93 71.48 18.82"/><polygon class="cls-7" points="65.87 15.88 58.7 25.9 67.33 26.93 65.87 15.88"/><polygon class="cls-8" points="72.38 32.85 70.61 29.7 72.25 28.83 72.38 32.85"/><polygon class="cls-9" points="72.25 28.83 67.33 26.93 64.14 29.87 70.61 29.7 72.25 28.83"/><polygon class="cls-10" points="58.7 25.9 64.14 29.87 67.33 26.93 58.7 25.9"/><path class="cls-11" d="M66.62,29.81c0,.26.8,14.39.54,14.39s-10.79,7.51-10.79,7.51c-.26-.26-7.25-8.2-7.34-8.55s-.77-7.34-.77-7.34L58.7,25.9l5.44,4Z"/><path class="cls-12" d="M38.59,56.72c.26-.52,9.67-20.9,9.67-20.9L49,43.16l4.74,5.51Z"/><polygon class="cls-13" points="40.57 62.76 50.68 50.3 38.96 56.45 40.57 62.76"/><polygon class="cls-14" points="39.1 55.68 0 61.98 40.57 62.76 39.1 55.68"/><polygon class="cls-15" points="58.1 50.47 57.84 57.49 54.13 60.43 50.67 50.24 52.88 47.57 58.1 50.47"/></g></g></g></svg>