<svg xmlns="http://www.w3.org/2000/svg" viewBox="0 0 235.51 136.4"><g id="Layer_2" data-name="Layer 2"><g id="Layer_1-2" data-name="Layer 1"><path d="M234.64.8a2.85,2.85,0,0,0-3-.6l-63.2,25.18-5.57-7.53a3.71,3.71,0,0,0-.29-.27,2.79,2.79,0,0,0-.44-.4,2.94,2.94,0,0,0-.51-.23,2.32,2.32,0,0,0-.39-.18h-.14s-.08,0-.13,0L119.38,11a2.85,2.85,0,0,0-2.93,4.08l12.91,25.82L98.76,53.13a2.84,2.84,0,0,0-1.59,1.6L81,95.83,3.36,81.39a2.84,2.84,0,0,0-1.69,5.38l70.4,31.92-.83,2.11a2.84,2.84,0,0,0,1.69,3.71l32.67,11.72a2.9,2.9,0,0,0,1,.17h78.16a3,3,0,0,0,1-.19,2.24,2.24,0,0,0,.27-.13,3,3,0,0,0,.56-.36,1.75,1.75,0,0,0,.24-.23,2.83,2.83,0,0,0,.39-.52c.05-.1.11-.18.16-.29s.06-.09.08-.14l48-130.72A2.83,2.83,0,0,0,234.64.8ZM137.75,43.71l15.64-6.23-2.23,9.42Zm24.16-17.56L182.78,54.4l-26.09-6.19ZM124,17.4l33.12,4.53L155,30.73l-20.33,8.09ZM25.31,91.25l53.62,10-4.78,12.18Zm52.29,28.9L102,58l26.55-10.58,24.06,5.71h0l34.07,8.09-4.64,69.55h-75ZM188.86,114l3.66-54.84a2.84,2.84,0,0,0-.06-.51c0-.14,0-.27,0-.41a3,3,0,0,0-.45-1L171.9,30.11,227.8,7.84Z"/></g></g></svg>