<svg xmlns="http://www.w3.org/2000/svg" xmlns:xlink="http://www.w3.org/1999/xlink" viewBox="0 0 54.06 18.7"><defs><style>.cls-1{fill:url(#linear-gradient);}.cls-2{fill:url(#linear-gradient-2);}.cls-3{fill:url(#linear-gradient-3);}.cls-4{fill:url(#linear-gradient-4);}.cls-5{fill:url(#linear-gradient-5);}</style><linearGradient id="linear-gradient" x1="911.31" y1="11.35" x2="937.86" y2="11.35" gradientTransform="translate(-894.09)" gradientUnits="userSpaceOnUse"><stop offset="0" stop-color="#d1dbdd"/><stop offset="1" stop-color="#aebdc2"/></linearGradient><linearGradient id="linear-gradient-2" x1="931.58" y1="7.34" x2="937.82" y2="7.34" xlink:href="#linear-gradient"/><linearGradient id="linear-gradient-3" x1="935.06" y1="6.77" x2="948.15" y2="6.77" xlink:href="#linear-gradient"/><linearGradient id="linear-gradient-4" x1="894.09" y1="16.4" x2="914.09" y2="16.4" xlink:href="#linear-gradient"/><linearGradient id="linear-gradient-5" x1="894.09" y1="17.66" x2="899.64" y2="17.66" xlink:href="#linear-gradient"/></defs><g id="Layer_2" data-name="Layer 2"><g id="Origami"><g id="mouse"><polygon class="cls-1" points="17.22 18.46 24.16 7.87 37.49 4.23 43.77 13.51 41.43 18.29 17.22 18.46"/><polygon class="cls-2" points="43.73 13.54 40.5 1.15 37.49 4.23 43.73 13.54"/><polygon class="cls-3" points="40.97 3.06 53.27 0 54.06 1.82 50.06 8.5 43.73 13.54 40.97 3.06"/><polygon class="cls-4" points="20 14.27 0 16.62 17.22 18.52 20 14.27"/><polygon class="cls-5" points="0 16.62 5.55 18.7 2.78 16.88 0 16.62"/></g></g></g></svg>