<svg xmlns="http://www.w3.org/2000/svg" xmlns:xlink="http://www.w3.org/1999/xlink" viewBox="0 0 80.21 36.49"><defs><style>.cls-1{fill:url(#linear-gradient);}.cls-2{fill:url(#linear-gradient-2);}.cls-3{fill:url(#linear-gradient-3);}.cls-4{fill:url(#linear-gradient-4);}.cls-5{fill:url(#linear-gradient-5);}.cls-6{fill:url(#linear-gradient-6);}.cls-7{fill:url(#linear-gradient-7);}.cls-8{fill:url(#linear-gradient-8);}.cls-9{fill:url(#linear-gradient-9);}.cls-10{fill:url(#linear-gradient-10);}</style><linearGradient id="linear-gradient" x1="14.14" y1="-6.27" x2="4.59" y2="17.59" gradientTransform="matrix(-1, 0, 0, 1, 80.21, 0)" gradientUnits="userSpaceOnUse"><stop offset="0" stop-color="#af6f4f"/><stop offset="1" stop-color="#6f4836"/></linearGradient><linearGradient id="linear-gradient-2" x1="18.02" y1="-6.66" x2="13.1" y2="4.91" xlink:href="#linear-gradient"/><linearGradient id="linear-gradient-3" x1="8.46" y1="17.37" x2="19.28" y2="17.37" xlink:href="#linear-gradient"/><linearGradient id="linear-gradient-4" x1="44.73" y1="10.03" x2="19.13" y2="36.07" xlink:href="#linear-gradient"/><linearGradient id="linear-gradient-5" x1="49.57" y1="19.17" x2="34.52" y2="28.43" xlink:href="#linear-gradient"/><linearGradient id="linear-gradient-6" x1="35.26" y1="34.37" x2="42.79" y2="34.37" xlink:href="#linear-gradient"/><linearGradient id="linear-gradient-7" x1="13.41" y1="17.9" x2="26" y2="27.88" xlink:href="#linear-gradient"/><linearGradient id="linear-gradient-8" x1="19.09" y1="27.51" x2="26.05" y2="27.51" xlink:href="#linear-gradient"/><linearGradient id="linear-gradient-9" x1="15.52" y1="33.15" x2="23.41" y2="33.15" xlink:href="#linear-gradient"/><linearGradient id="linear-gradient-10" x1="74.06" y1="36.43" x2="46" y2="22.55" xlink:href="#linear-gradient"/></defs><g id="Layer_2" data-name="Layer 2"><g id="Origami"><g id="otter"><polygon class="cls-1" points="80.21 3.85 70.43 0.09 62.35 5.17 62.06 8.93 74.85 8.18 80.21 5.83 80.21 3.85"/><polygon class="cls-2" points="68.12 1.57 64.7 0 64.27 3.94 68.12 1.57"/><polygon class="cls-3" points="71.01 8.42 62.06 8.93 60.94 17.11 62.91 26.33 71.75 19 71.01 8.42"/><path class="cls-4" d="M60.94,17.11c-.47-.18-17-2.25-17-2.25L42.69,28.49,39.5,32.91l16.38-4.36-1.72-6L61.22,18Z"/><polygon class="cls-5" points="43.91 14.86 33.29 20.88 31.41 25.39 37.43 35.83 42.69 28.49 43.91 14.86"/><polygon class="cls-6" points="44.95 35.73 39.49 32.91 37.43 35.83 44.95 35.73"/><polygon class="cls-7" points="62.91 26.33 61.12 26.99 54.16 22.57 61.22 17.96 62.91 26.33"/><polygon class="cls-8" points="61.12 26.99 60.18 32.44 56.8 31.97 54.16 22.57 61.12 26.99"/><path class="cls-9" d="M64.7,33.85c-.57-.19-4.52-1.41-4.52-1.41L56.8,32l2.72,2.35Z"/><path class="cls-10" d="M34.32,30.37s-15.79,6.12-16.08,6.12S0,31.6,0,31.6l31.41-6.21Z"/></g></g></g></svg>