<svg xmlns="http://www.w3.org/2000/svg" xmlns:xlink="http://www.w3.org/1999/xlink" viewBox="0 0 62.56 30.09"><defs><style>.cls-1{fill:url(#linear-gradient);}.cls-2{fill:url(#linear-gradient-2);}.cls-3{fill:url(#linear-gradient-3);}.cls-4{fill:url(#linear-gradient-4);}.cls-5{fill:url(#linear-gradient-5);}</style><linearGradient id="linear-gradient" x1="-0.8" y1="6.37" x2="19.26" y2="27.38" gradientUnits="userSpaceOnUse"><stop offset="0.01" stop-color="#b9bbbd"/><stop offset="0.99" stop-color="#eaebec"/></linearGradient><linearGradient id="linear-gradient-2" x1="23.43" y1="36.8" x2="32.5" y2="11.97" xlink:href="#linear-gradient"/><linearGradient id="linear-gradient-3" x1="25.59" y1="6.1" x2="46.06" y2="20" xlink:href="#linear-gradient"/><linearGradient id="linear-gradient-4" x1="55.48" y1="13.48" x2="33.84" y2="3.29" xlink:href="#linear-gradient"/><linearGradient id="linear-gradient-5" x1="48.84" y1="7.42" x2="46.08" y2="-2.55" xlink:href="#linear-gradient"/></defs><g id="Layer_2" data-name="Layer 2"><g id="Origami"><g id="pelican"><polygon class="cls-1" points="0 11.47 19.72 16.24 10.5 29.83 0 11.47"/><path class="cls-2" d="M10.5,29.83l10.44-15.4s24,6.38,23.71,6.64-7.28,9-7.28,9S10.31,29.77,10.5,29.83Z"/><path class="cls-3" d="M31.12,17.59l-4-8.83s4.31-6.44,4.57-6.25,13,18.56,13,18.56Z"/><path class="cls-4" d="M32.15,3.19l29.77,8.7L36.28,9.05Z"/><polygon class="cls-5" points="31.7 2.51 62.56 0 42.49 6.22 32.22 3.42 31.7 2.51"/></g></g></g></svg>