<svg xmlns="http://www.w3.org/2000/svg" viewBox="0 0 160.53 207.8"><g id="Layer_2" data-name="Layer 2"><g id="Layer_1-2" data-name="Layer 1"><path d="M160,54.51,123.44,1.23A2.84,2.84,0,0,0,120.32.11L79.47,11.83a2.81,2.81,0,0,0-1.67,1.3L.36,146c0,.05,0,.1,0,.15a2.49,2.49,0,0,0-.2.6,4,4,0,0,0-.11.47,3.77,3.77,0,0,0,.06.66c0,.12,0,.25,0,.37s0,.05.05.08a2.46,2.46,0,0,0,.3.55,2.09,2.09,0,0,0,.27.43.25.25,0,0,0,0,.07l45.46,48.31a2.86,2.86,0,0,0,1.7.87l70.69,9.23a2.31,2.31,0,0,0,.37,0,2.89,2.89,0,0,0,1.86-.69,2.85,2.85,0,0,0,1-2.11l2.67-163.47,31.86,17.1A2.85,2.85,0,0,0,160,54.51ZM81.33,18.36l20.58,11.05L63.48,174.11,6.81,146.21Zm34.85,183.37L49.66,193l-34-36.13,48.44,23.85a2.85,2.85,0,0,0,4-1.82l39-146.76,11.79,6.33ZM87.76,15.37l32.16-9.23,28.8,42Z"/></g></g></svg>