<svg xmlns="http://www.w3.org/2000/svg" xmlns:xlink="http://www.w3.org/1999/xlink" viewBox="0 0 27.9 47.37"><defs><style>.cls-1{fill:url(#linear-gradient);}.cls-2{fill:url(#linear-gradient-2);}.cls-3{fill:url(#linear-gradient-3);}.cls-4{fill:url(#linear-gradient-4);}.cls-5{fill:url(#linear-gradient-5);}.cls-6{fill:url(#linear-gradient-6);}.cls-7{fill:url(#linear-gradient-7);}.cls-8{fill:url(#linear-gradient-8);}</style><linearGradient id="linear-gradient" x1="1.41" y1="3.64" x2="9.49" y2="2.47" gradientTransform="matrix(-1, 0, 0, 1, 27.9, 0)" gradientUnits="userSpaceOnUse"><stop offset="0" stop-color="#7a7c7f"/><stop offset="1" stop-color="#231f20"/></linearGradient><linearGradient id="linear-gradient-2" x1="0.83" y1="12.22" x2="36.39" y2="7.09" xlink:href="#linear-gradient"/><linearGradient id="linear-gradient-3" x1="-10.58" y1="12.09" x2="19.51" y2="34.08" gradientTransform="matrix(-1, 0, 0, 1, 27.9, 0)" gradientUnits="userSpaceOnUse"><stop offset="0" stop-color="#b1b3b5"/><stop offset="1" stop-color="#eaebec"/></linearGradient><linearGradient id="linear-gradient-4" x1="33.03" y1="24.33" x2="9.88" y2="35.32" gradientTransform="matrix(-1, 0, 0, 1, 27.9, 0)" gradientUnits="userSpaceOnUse"><stop offset="0" stop-color="#7a7c7f"/><stop offset="0.15" stop-color="#6a6a6d"/><stop offset="0.52" stop-color="#434243"/><stop offset="0.82" stop-color="#2c282a"/><stop offset="1" stop-color="#231f20"/></linearGradient><linearGradient id="linear-gradient-5" x1="22.75" y1="29.91" x2="12.62" y2="39.46" xlink:href="#linear-gradient"/><linearGradient id="linear-gradient-6" x1="11.49" y1="40.21" x2="20.17" y2="43.68" xlink:href="#linear-gradient"/><linearGradient id="linear-gradient-7" x1="0.26" y1="45.18" x2="10.01" y2="45.18" xlink:href="#linear-gradient"/><linearGradient id="linear-gradient-8" x1="10.86" y1="25.51" x2="17.8" y2="28.41" xlink:href="#linear-gradient"/></defs><g id="Layer_2" data-name="Layer 2"><g id="Origami"><g id="penguin"><polygon class="cls-1" points="25.48 2.22 22.85 4.38 20.76 2.35 25.48 2.22"/><polygon class="cls-2" points="18.41 0 8.3 0.41 0 19.29 22.85 4.38 18.41 0"/><path class="cls-3" d="M16.35,8.61l11.5,12.17,0,19.29s-9.85,7.22-10,7.27-11.3,0-11.3,0l5.73-3.45,1.29-22.28-4.8-8.1Z"/><polygon class="cls-4" points="0 19.29 8.82 13.51 13.62 21.61 9.95 26.61 12.84 32.7 12.33 43.89 6.6 47.34 0 19.29"/><path class="cls-5" d="M10,26.61l5.57,11L9.59,41.93S9.9,26.35,10,26.61Z"/><polygon class="cls-6" points="12.61 39.69 9.59 41.93 12.33 43.89 12.61 39.69"/><polygon class="cls-7" points="27.64 47.34 23.88 43.01 17.9 47.34 27.64 47.34"/><polygon class="cls-8" points="13.62 21.61 9.95 26.61 12.97 32.54 13.62 21.61"/></g></g></g></svg>