<svg xmlns="http://www.w3.org/2000/svg" viewBox="0 0 257.88 152.55"><g id="Layer_2" data-name="Layer 2"><g id="Layer_1-2" data-name="Layer 1"><path d="M257.24,103.94,175.42,3.79l-.06,0,0-.06a2.36,2.36,0,0,0-.36-.26,2.6,2.6,0,0,0-.51-.38c-.14-.06-.28-.08-.43-.13a3.61,3.61,0,0,0-.65-.15l-.11,0L33.43,0a3,3,0,0,0-1.81.6L1.09,24.42a2.84,2.84,0,0,0-1,2.75L19.28,131a1.92,1.92,0,0,0,.11.31,2.17,2.17,0,0,0,.07.24,3.11,3.11,0,0,0,.5.82s.05,0,.06,0a3.1,3.1,0,0,0,.71.54l.24.11.22.11a3.35,3.35,0,0,0,.68.12l.07,0,30.83,1.52h.15A2.87,2.87,0,0,0,55.76,132V118.6l22.3-3a2.85,2.85,0,0,0,2.46-2.82v-6.5l31.34,2.21,27.93,42.79a2.86,2.86,0,0,0,2.38,1.29H161a2.83,2.83,0,0,0,2.83-2.61L166,124.51l13.24-1a2.84,2.84,0,0,0,2.63-2.83V100.82l62.31,18a3.07,3.07,0,0,0,.79.11,2.83,2.83,0,0,0,2-.86l10.08-10.39A2.83,2.83,0,0,0,257.24,103.94ZM168.82,91.13l6.63-78.31,44.47,54.43-36.7,28ZM110.87,102.7,56.08,98.84,66.73,6.34l52,1ZM34.32,5.7,61,6.23,50.21,100.1,23.92,124.83l-18-97ZM28.89,128,50.07,108v21Zm45.94-17.68-19.07,2.58v-8.35l19.07,1.35Zm68.88,36.58L116.38,105l8.05-97.53,45.7.9L158.39,146.86Zm32.46-28.8-9.7.72,1.86-21.88,7.84,2.27Zm68-5.15L190,97.26l33.51-25.61,27.72,33.92Z"/></g></g></svg>