<svg xmlns="http://www.w3.org/2000/svg" viewBox="0 0 262.03 167.57"><g id="Layer_2" data-name="Layer 2"><g id="Layer_1-2" data-name="Layer 1"><path d="M261.53,19.14a2.86,2.86,0,0,0-1.89-1.2L258,17.67,252.89,7.49a2.84,2.84,0,0,0-2-1.52L216.44,0A2.85,2.85,0,0,0,213.7,1.1L184.57,38.81a1.19,1.19,0,0,0-.08.16,2.35,2.35,0,0,0-.22.45,2.69,2.69,0,0,0-.22.62c0,.06-.05.11-.06.17l-1.23,10.35-14-4a2.83,2.83,0,0,0-2,.19L62.07,98.64,4.55,55.42A2.84,2.84,0,0,0,.42,59.17l40.37,66.09a3,3,0,0,0,.32.39,1.58,1.58,0,0,0,.12.15,3.14,3.14,0,0,0,.66.49.94.94,0,0,1,.15.06,3,3,0,0,0,.64.2l.11,0,54.47,8.19a3,3,0,0,0,.42,0l.31,0,73.6-7.85v6c0,.07,0,.13,0,.2a.53.53,0,0,1,0,.13,1.15,1.15,0,0,0,.06.17,2.57,2.57,0,0,0,.2.65c0,.09.07.18.12.27a.67.67,0,0,0,.06.12l20.57,31.81a2.86,2.86,0,0,0,2.38,1.3,2,2,0,0,0,.42,0,2.83,2.83,0,0,0,2.31-2L208,130.1v0a2.94,2.94,0,0,0,.09-1.06s0,0,0-.05a2.29,2.29,0,0,0-.09-.28,2.94,2.94,0,0,0-.16-.6l-8-16.87,40.85-31.86a3.1,3.1,0,0,0,.62-.69,2.39,2.39,0,0,0,.12-.22,3,3,0,0,0,.26-.7l.06-.28a2.81,2.81,0,0,0,0-1h0l-8.94-37.87,24.87-5.36a2.83,2.83,0,0,0,2.18-2.17L262,21.34A2.82,2.82,0,0,0,261.53,19.14ZM217.16,5.93l31.3,5.4,2.63,5.21-26.3-4.31h0a2.88,2.88,0,0,0-1,0l-.23.06a2.85,2.85,0,0,0-.82.36l0,0,0,0L200,28.16ZM189.48,42.17l33-22.47,12.69,53.75-48.29-9.83ZM168.24,52.35l13.84,3.93-.74,6.2L175,61.19h-.17a3,3,0,0,0-.42,0l-.34,0a2.34,2.34,0,0,0-.38.09,1.59,1.59,0,0,0-.33.1.38.38,0,0,0-.1,0L73.19,107l-6-4.53ZM67.3,109.68l-23,10.47L13,68.89ZM97.75,129.1l-44.64-6.71,118.48-54v52.83ZM194,158,179.3,135.21l22.06-2.59Zm7-31-23.75,2.78V76.65Zm-3.63-21-18-38.06,52.95,10.78Zm57.3-77.89-23.19,5-3.43-14.54,27.7,4.55Z"/></g></g></svg>