<svg xmlns="http://www.w3.org/2000/svg" xmlns:xlink="http://www.w3.org/1999/xlink" viewBox="0 0 66.63 27.57"><defs><style>.cls-1{fill:url(#linear-gradient);}.cls-2{fill:url(#linear-gradient-2);}.cls-3{fill:url(#linear-gradient-3);}.cls-4{fill:url(#linear-gradient-4);}.cls-5{fill:url(#linear-gradient-5);}.cls-6{fill:url(#linear-gradient-6);}.cls-7{fill:url(#linear-gradient-7);}</style><linearGradient id="linear-gradient" x1="20.54" y1="18.65" x2="58.02" y2="18.65" gradientTransform="matrix(-1, 0, 0, 1, 66.63, 0)" gradientUnits="userSpaceOnUse"><stop offset="0" stop-color="#c2d1d3"/><stop offset="1" stop-color="#7f9ba3"/></linearGradient><linearGradient id="linear-gradient-2" x1="23.32" y1="18.17" x2="35.17" y2="24.31" xlink:href="#linear-gradient"/><linearGradient id="linear-gradient-3" x1="53.62" y1="16.37" x2="61.26" y2="16.37" xlink:href="#linear-gradient"/><linearGradient id="linear-gradient-4" x1="58.34" y1="12.35" x2="66.63" y2="12.35" xlink:href="#linear-gradient"/><linearGradient id="linear-gradient-5" x1="2.48" y1="4.8" x2="25.32" y2="16.49" xlink:href="#linear-gradient"/><linearGradient id="linear-gradient-6" x1="29.6" y1="5.46" x2="38.56" y2="5.46" xlink:href="#linear-gradient"/><linearGradient id="linear-gradient-7" x1="3.06" y1="23.51" x2="20.54" y2="23.51" xlink:href="#linear-gradient"/></defs><g id="Layer_2" data-name="Layer 2"><g id="Origami"><g id="shark"><polygon class="cls-1" points="43.21 25.05 46.09 27.57 13.66 20.72 8.61 12.97 28.07 9.73 46.09 27.57 46.09 27.57 43.21 25.05"/><polygon class="cls-2" points="19.79 25.77 34.38 16.04 43.38 24.89 19.79 25.77"/><polygon class="cls-3" points="5.37 18.2 8.61 12.97 13.01 19.76 5.37 18.2"/><polygon class="cls-4" points="8.29 13.48 0 7.9 6.24 16.81 8.29 13.48"/><polygon class="cls-5" points="66.63 14.78 28.07 9.73 46.09 27.57 65.2 17.33 66.63 14.78"/><polygon class="cls-6" points="37.03 10.91 28.61 0 28.07 9.73 37.03 10.91"/><polygon class="cls-7" points="63.57 20.18 61.22 19.46 46.09 27.57 63.57 20.18"/></g></g></g></svg>