<svg xmlns="http://www.w3.org/2000/svg" viewBox="0 0 264.34 136.97"><g id="Layer_2" data-name="Layer 2"><g id="Layer_1-2" data-name="Layer 1"><path d="M263.66,1a2.84,2.84,0,0,0-3.17-.81L145.18,44,93.06,22.22a2.83,2.83,0,0,0-3.55,4l18.91,32.66c-4.81,3.86-18,14.45-31.19,25.07C69,90.66,60.7,97.34,54.52,102.38c-4.76,3.89-7.64,6.24-9.32,7.81L3.15,105.68a2.84,2.84,0,0,0-1.51,5.4L44.14,131c0,1,.08,2.06.11,3.07a2.84,2.84,0,0,0,2.84,2.74,2.92,2.92,0,0,0,1-.2L72.45,127l8.82,3.62a2.84,2.84,0,0,0,2,0c10.43-3.54,25.94-8.74,33.8-11.21l-6.78,13.39a2.84,2.84,0,0,0,4.19,3.59l40.16-28.92L207,90.19a2.18,2.18,0,0,0,.42-.24l3.9,1.12a2.85,2.85,0,0,0,3.25-1.31l6.56-11.37,39.38-48.28a2.84,2.84,0,0,0-2.82-4.57l-6.93,1.56L264,4.27A2.85,2.85,0,0,0,263.66,1Zm-165,29.72,38.81,16.21L113.35,56.1Zm-79.2,82.42,24,2.58c.11,2,.26,5.2.41,8.86Zm30.34,16.69c-.22-5.86-.38-9.72-.52-12.32l15.58,6.37Zm32.65-4.89-31-12.68C61.34,104,91.33,79.9,112.73,62.75L141.58,71l-21.06,41.59C116.83,113.28,107.77,116.32,82.44,124.94Zm64.7-52.31,25,7.18-30.4,3.49Zm-8.48,16.75,37.41-4.3L120.62,125ZM170,96.44l17.12-12.32,10.78,3.09Zm80.91-63.55-12,14.69,8-13.79ZM210.77,85,121.09,59.24l25-9.5.11,0L255,8.34Z"/></g></g></svg>