<svg xmlns="http://www.w3.org/2000/svg" xmlns:xlink="http://www.w3.org/1999/xlink" viewBox="0 0 80.21 42.39"><defs><style>.cls-1{fill:url(#linear-gradient);}.cls-2{fill:url(#linear-gradient-2);}.cls-3{fill:url(#linear-gradient-3);}.cls-4{fill:url(#linear-gradient-4);}.cls-5{fill:url(#linear-gradient-5);}.cls-6{fill:url(#linear-gradient-6);}.cls-7{fill:url(#linear-gradient-7);}.cls-8{fill:url(#linear-gradient-8);}.cls-9{fill:url(#linear-gradient-9);}.cls-10{fill:url(#linear-gradient-10);}.cls-11{fill:url(#linear-gradient-11);}</style><linearGradient id="linear-gradient" x1="28.13" y1="42.82" x2="28.86" y2="24.16" gradientTransform="matrix(-1, 0, 0, 1, 80.21, 0)" gradientUnits="userSpaceOnUse"><stop offset="0" stop-color="#b0d253"/><stop offset="1" stop-color="#609941"/></linearGradient><linearGradient id="linear-gradient-2" x1="24.42" y1="37.2" x2="30.31" y2="37.2" xlink:href="#linear-gradient"/><linearGradient id="linear-gradient-3" x1="26.48" y1="-3.75" x2="-5.57" y2="19.32" xlink:href="#linear-gradient"/><linearGradient id="linear-gradient-4" x1="28.25" y1="16.13" x2="12.91" y2="5.57" xlink:href="#linear-gradient"/><linearGradient id="linear-gradient-5" x1="17.07" y1="20.65" x2="21.48" y2="20.65" xlink:href="#linear-gradient"/><linearGradient id="linear-gradient-6" x1="24.48" y1="11.69" x2="32" y2="26.3" xlink:href="#linear-gradient"/><linearGradient id="linear-gradient-7" x1="43.7" y1="36.86" x2="27.49" y2="11.98" xlink:href="#linear-gradient"/><linearGradient id="linear-gradient-8" x1="34.08" y1="19.29" x2="56.07" y2="29.7" xlink:href="#linear-gradient"/><linearGradient id="linear-gradient-9" x1="32.98" y1="40.47" x2="41.08" y2="40.47" xlink:href="#linear-gradient"/><linearGradient id="linear-gradient-10" x1="46.76" y1="22.34" x2="67.02" y2="33.62" xlink:href="#linear-gradient"/><linearGradient id="linear-gradient-11" x1="60.64" y1="28.26" x2="77.42" y2="33.08" xlink:href="#linear-gradient"/></defs><g id="Layer_2" data-name="Layer 2"><g id="Origami"><g id="t-rex"><path class="cls-1" d="M52.85,35.78s2.41-10.42,2.31-10.27S48,34,48,34l1.93,4.43Z"/><polygon class="cls-2" points="55.79 38.63 52.85 35.78 49.91 38.38 55.79 38.63"/><polygon class="cls-3" points="76.96 17.58 80.22 10.71 71.53 0 60.83 1.01 64.45 13.02 76.96 17.58"/><path class="cls-4" d="M64.45,13s-5.72,7.67-5.72,7.45S53.67,9.69,53.89,9.62,60.83,1,60.83,1Z"/><path class="cls-5" d="M63.14,22.57c-.14-.29-2.82-4.2-2.82-4.2l-1.59,2.1,1.16,2.46Z"/><polygon class="cls-6" points="53.89 9.62 60.25 23.51 57.07 23.72 50.05 31.69 49.69 25.53 44.88 12.19 53.89 9.62"/><polygon class="cls-7" points="50.05 31.69 44.12 39.71 43.69 38.55 39.13 41.45 39.64 31.61 35.8 22.35 44.99 12.15 49.69 25.53 50.05 31.69"/><polygon class="cls-8" points="44.99 12.15 27.63 18.81 29.66 32.04 39.64 31.61 35.8 22.35 44.99 12.15"/><path class="cls-9" d="M47.23,42.39s-3.36-3.71-3.54-3.84l-4.56,2.9Z"/><path class="cls-10" d="M27.88,20.11c-.36.14-13.12,6.07-13.12,6.07l1.37,6.15L29.51,31.1Z"/><polygon class="cls-11" points="14.9 26.98 0 34.43 16.06 31.9 14.9 26.98"/></g></g></g></svg>