<svg xmlns="http://www.w3.org/2000/svg" viewBox="0 0 279.7 150.66"><g id="Layer_2" data-name="Layer 2"><g id="Layer_1-2" data-name="Layer 1"><path d="M279.51,60.13l-12-31.66a2.87,2.87,0,0,0-1.93-1.74l-29.7-7.93L233.6,2.45A2.84,2.84,0,0,0,229,.61l-15.5,12.22L195.28,8a2,2,0,0,0-.34,0,1.77,1.77,0,0,0-.33-.08L131.73,6.33a2.82,2.82,0,0,0-2.88,2.44l-.33,2.32L76.34,9.17a2.81,2.81,0,0,0-1.68.46l-.07,0L30.05,40.46c-.08,0-.11.14-.18.2a2.7,2.7,0,0,0-.49.52,3,3,0,0,0-.25.43,1.76,1.76,0,0,0-.14.23L19.29,69H2.84A2.84,2.84,0,0,0,1.6,74.39L17.32,82h.06a2.79,2.79,0,0,0,1.18.27h9.61A2.85,2.85,0,0,0,30.6,81l10-16.43L38.22,99.37a2.9,2.9,0,0,0,.42,1.7l20.09,32.1a2.84,2.84,0,0,0,2.41,1.33,3.15,3.15,0,0,0,.61-.06A2.85,2.85,0,0,0,64,132l6.46-51.34,3.35,8.76a2.79,2.79,0,0,0,.83,1.17l26.42,22a2.81,2.81,0,0,0,1.82.66,2.82,2.82,0,0,0,2.78-3.43L102.7,96.2l78.44,54c.09.06.2.09.29.14l.26.13a2.85,2.85,0,0,0,1.06.23h0a2.74,2.74,0,0,0,.85-.13,2.23,2.23,0,0,0,.31-.15l.23-.11a2.77,2.77,0,0,0,.9-.8s0,0,.05,0,0-.11.07-.16a2.64,2.64,0,0,0,.31-.71c0-.1.05-.2.07-.31a1.06,1.06,0,0,0,0-.19l3-34.53,15.2,9.41a2.75,2.75,0,0,0,1.49.43,2.85,2.85,0,0,0,2.83-3.11l-4.34-46.9,14.59-8.66.1,0,41.05,12a3.07,3.07,0,0,0,.79.11,2.86,2.86,0,0,0,1.75-.59L278.6,63.38A2.82,2.82,0,0,0,279.51,60.13Zm-50.85-52,1.26,9.07-9.53-2.55ZM211.37,18.23l4.69,41.2L192,73.74l5.11-59.42,14.27,3.81S211.37,18.2,211.37,18.23Zm-19.92-4.76L180.52,140.68,125.26,74.26l8.86-62.18ZM78.7,15l49,1.8-8.25,58a2.83,2.83,0,0,0,.63,2.22l47.31,56.88L100,87.42h0L72,68.18ZM17.26,74.68l-.31.86-1.76-.86Zm9.31,2h-4L32.89,47.82,40,54.46Zm32.75,46.75L44,98.84l3-44.28a2.82,2.82,0,0,0-.9-2.27l-9.85-9.16L72.59,18Zm39-20.36L78.81,86.73l-3.6-9.44L95.88,91.51ZM201.89,115.1l-12.79-7.92,2.28-26.48,6.94-4.12Zm57.78-44.22L221.83,59.82l-4.57-40.11,45.45,12.14,10.75,28.33Z"/></g></g></svg>