<svg xmlns="http://www.w3.org/2000/svg" viewBox="0 0 268.5 199.48"><g id="Layer_2" data-name="Layer 2"><g id="Layer_1-2" data-name="Layer 1"><path d="M268.49,20.69a2.84,2.84,0,0,0-1.06-2.34L245.15.59h0a2.27,2.27,0,0,0-.41-.21,2.88,2.88,0,0,0-.61-.3h0c-.12,0-.23,0-.35,0A3,3,0,0,0,243,0a2.07,2.07,0,0,0-.42.14,2.8,2.8,0,0,0-.63.23l-.09,0L45.33,125.55l-.13.08-4.52,2.88a2.82,2.82,0,0,0-.39-.29L4.06,111A2.84,2.84,0,0,0,.61,115.3L22,142.39,6,195.82A2.84,2.84,0,0,0,11.24,198l26.58-48,27.73,12.82a3,3,0,0,0,1.2.26h0c21.57-.28,32.65-.42,38.41-.84l-3.32,16.11a2.83,2.83,0,0,0,1.39,3,2.79,2.79,0,0,0,1.4.37,2.86,2.86,0,0,0,1.92-.74c6.35-5.82,13.53-12.37,20.81-19l60.45-27a2.93,2.93,0,0,0,1.14-.92L262.25,33.92a2.83,2.83,0,0,0,.18-3.07l-1.92-3.42,6.72-4.49A2.82,2.82,0,0,0,268.49,20.69ZM35.12,132.05l-9.36,6L12.61,121.34Zm-7.59,11.57,11.36-7.23L19,172.35Zm39.82,13.82L40.58,145.07,48.93,130l72.41-46.1-15,72.69C100.22,156.91,80.41,157.27,67.35,157.44Zm44,3.26a3,3,0,0,0,.3-1.14,1.13,1.13,0,0,0,0-.26l15.75-76.45c15.82,11.93,36.43,27.54,43.52,33.12-6.51,5-22,18.69-61.67,55Zm73.52-30.48-43.91,19.6c17.37-15.68,32.67-29.28,35.4-31.09a2.86,2.86,0,0,0,1.58-1.37c1.25-2.4,1.25-2.4-25.67-22.82C143.63,88,135,81.5,130.46,78.08L242.37,6.82,256.58,32ZM257.71,22.46,253,14.13l7.83,6.24Z"/></g></g></svg>