<svg xmlns="http://www.w3.org/2000/svg" xmlns:xlink="http://www.w3.org/1999/xlink" viewBox="0 0 51.95 29.51"><defs><style>.cls-1{fill:url(#linear-gradient);}.cls-2{fill:url(#linear-gradient-2);}.cls-3{fill:url(#linear-gradient-3);}.cls-4{fill:url(#linear-gradient-4);}.cls-5{fill:url(#linear-gradient-5);}.cls-6{fill:url(#linear-gradient-6);}.cls-7{fill:url(#linear-gradient-7);}.cls-8{fill:url(#linear-gradient-8);}.cls-9{fill:url(#linear-gradient-9);}</style><linearGradient id="linear-gradient" x1="2" y1="6.97" x2="9.88" y2="21.26" gradientUnits="userSpaceOnUse"><stop offset="0" stop-color="#c2d1d3"/><stop offset="1" stop-color="#7f9ba3"/></linearGradient><linearGradient id="linear-gradient-2" x1="9.86" y1="10.25" x2="20.54" y2="22.07" xlink:href="#linear-gradient"/><linearGradient id="linear-gradient-3" x1="5.1" y1="-0.22" x2="8.08" y2="13.97" xlink:href="#linear-gradient"/><linearGradient id="linear-gradient-4" x1="27.62" y1="0.75" x2="9.31" y2="9.9" xlink:href="#linear-gradient"/><linearGradient id="linear-gradient-5" x1="-2.2" y1="-0.24" x2="4.46" y2="5.64" xlink:href="#linear-gradient"/><linearGradient id="linear-gradient-6" x1="24.4" y1="-4.34" x2="18.6" y2="5.86" xlink:href="#linear-gradient"/><linearGradient id="linear-gradient-7" x1="46.71" y1="42.24" x2="14.35" y2="9.05" xlink:href="#linear-gradient"/><linearGradient id="linear-gradient-8" x1="48.33" y1="7.91" x2="40.1" y2="20.42" xlink:href="#linear-gradient"/><linearGradient id="linear-gradient-9" x1="48.5" y1="5.52" x2="47.44" y2="1.66" xlink:href="#linear-gradient"/></defs><g id="Layer_2" data-name="Layer 2"><g id="Origami"><g id="wolf"><polygon class="cls-1" points="0.35 6.31 9.08 29.28 11.22 29.28 11.46 14.64 8.21 14.64 0.35 6.31"/><polygon class="cls-2" points="11.22 29.28 13.6 29.28 22.39 6.6 14.46 14.64 11.46 14.64 11.22 29.28"/><polygon class="cls-3" points="0.35 6.31 11.57 1.45 11.46 14.64 8.21 14.64 0.35 6.31"/><polygon class="cls-4" points="11.46 14.64 14.46 14.64 22.39 6.6 11.57 1.45 11.46 14.64"/><polygon class="cls-5" points="1.39 5.91 0 0.18 5.88 3.91 1.39 5.91"/><path class="cls-6" d="M16.84,4s6-4.17,5.95-4-1.5,6.09-1.5,6.09Z"/><path class="cls-7" d="M22.1,7.18s18.22,7.29,18.22,7.52-5.84,14.81-5.84,14.81L13.6,29.28Z"/><path class="cls-8" d="M36.1,25.35c.35-.18,11.86-8.1,11.86-8.1L47.73,4.34l-3.36.81-4,9.55Z"/><path class="cls-9" d="M44.37,5.15s2.67-3,2.84-3S52,3.42,52,3.42Z"/></g></g></g></svg>