<?xml version="1.0" encoding="UTF-8" standalone="no"?>
<!DOCTYPE svg PUBLIC "-//W3C//DTD SVG 1.1//EN"
 "http://www.w3.org/Graphics/SVG/1.1/DTD/svg11.dtd">
<!-- Generated by graphviz version 2.44.0 (20200518.1210)
 -->
<!-- Title: g Pages: 1 -->
<svg width="199pt" height="152pt"
 viewBox="0.00 0.00 199.21 152.00" xmlns="http://www.w3.org/2000/svg" xmlns:xlink="http://www.w3.org/1999/xlink">
<g id="graph0" class="graph" transform="scale(1 1) rotate(0) translate(4 148)">
<title>g</title>
<polygon fill="white" stroke="transparent" points="-4,4 -4,-148 195.21,-148 195.21,4 -4,4"/>
<g id="node1" class="node">
<title></title>
<ellipse fill="none" stroke="#666666" cx="3.5" cy="-72" rx="3.5" ry="3.5"/>
</g>
<!-- /Alice -->
<g id="node2" class="node">
<title>/Alice</title>
<polygon fill="none" stroke="#b3b3b3" points="184.16,-144 94.38,-144 94.38,-108 184.16,-108 184.16,-144"/>
<text text-anchor="middle" x="139.27" y="-121.8" font-family="Helvetica,sans-Serif" font-size="14.00">Hello, Alice.</text>
</g>
<!-- &#45;&gt;/Alice -->
<g id="edge1" class="edge">
<title>&#45;&gt;/Alice</title>
<path fill="none" stroke="#999999" d="M6.13,-74.34C9.27,-78.67 16.61,-87.97 25,-93 43.77,-104.26 66.61,-111.87 86.85,-116.92"/>
<polygon fill="#999999" stroke="#999999" points="94.18,-118.66 86.1,-120.21 90.53,-117.79 86.88,-116.93 86.88,-116.93 86.88,-116.93 90.53,-117.79 87.66,-113.64 94.18,-118.66 94.18,-118.66"/>
<text text-anchor="middle" x="47.16" y="-116.2" font-family="Helvetica,sans-Serif" font-size="14.00">Alice</text>
</g>
<!-- /Bob -->
<g id="node3" class="node">
<title>/Bob</title>
<polygon fill="none" stroke="#b3b3b3" points="181.73,-90 96.81,-90 96.81,-54 181.73,-54 181.73,-90"/>
<text text-anchor="middle" x="139.27" y="-67.8" font-family="Helvetica,sans-Serif" font-size="14.00">Hello, Bob.</text>
</g>
<!-- &#45;&gt;/Bob -->
<g id="edge2" class="edge">
<title>&#45;&gt;/Bob</title>
<path fill="none" stroke="#999999" d="M7.29,-72C17.89,-72 56.63,-72 89.26,-72"/>
<polygon fill="#999999" stroke="#999999" points="96.97,-72 89.47,-75.38 93.22,-72 89.47,-72 89.47,-72 89.47,-72 93.22,-72 89.47,-68.63 96.97,-72 96.97,-72"/>
<text text-anchor="middle" x="47.16" y="-76.2" font-family="Helvetica,sans-Serif" font-size="14.00">Bob</text>
</g>
<!-- /Charlie -->
<g id="node4" class="node">
<title>/Charlie</title>
<polygon fill="none" stroke="#b3b3b3" points="191.16,-36 87.39,-36 87.39,0 191.16,0 191.16,-36"/>
<text text-anchor="middle" x="139.27" y="-13.8" font-family="Helvetica,sans-Serif" font-size="14.00">Hello, Charlie.</text>
</g>
<!-- &#45;&gt;/Charlie -->
<g id="edge3" class="edge">
<title>&#45;&gt;/Charlie</title>
<path fill="none" stroke="#999999" d="M6.14,-69.69C9.29,-65.4 16.64,-56.2 25,-51.2 41.54,-41.31 61.22,-34.2 79.5,-29.17"/>
<polygon fill="#999999" stroke="#999999" points="87.23,-27.14 80.84,-32.31 83.61,-28.09 79.98,-29.05 79.98,-29.05 79.98,-29.05 83.61,-28.09 79.12,-25.78 87.23,-27.14 87.23,-27.14"/>
<text text-anchor="middle" x="47.16" y="-56.2" font-family="Helvetica,sans-Serif" font-size="14.00">Charlie</text>
</g>
</g>
</svg>
