<?xml version="1.0" encoding="UTF-8" standalone="no"?>
<!DOCTYPE svg PUBLIC "-//W3C//DTD SVG 1.1//EN"
 "http://www.w3.org/Graphics/SVG/1.1/DTD/svg11.dtd">
<!-- Generated by graphviz version 2.44.0 (20200518.1210)
 -->
<!-- Title: g Pages: 1 -->
<svg width="230pt" height="152pt"
 viewBox="0.00 0.00 229.57 152.00" xmlns="http://www.w3.org/2000/svg" xmlns:xlink="http://www.w3.org/1999/xlink">
<g id="graph0" class="graph" transform="scale(1 1) rotate(0) translate(4 148)">
<title>g</title>
<polygon fill="white" stroke="transparent" points="-4,4 -4,-148 225.57,-148 225.57,4 -4,4"/>
<g id="node1" class="node">
<title></title>
<ellipse fill="none" stroke="#666666" cx="3.5" cy="-72" rx="3.5" ry="3.5"/>
</g>
<!-- /Alice -->
<g id="node2" class="node">
<title>/Alice</title>
<polygon fill="none" stroke="#b3b3b3" points="211.47,-144 97.42,-144 97.42,-108 211.47,-108 211.47,-144"/>
<text text-anchor="middle" x="154.45" y="-121.8" font-family="Helvetica,sans-Serif" font-size="14.00">HELLO, ALICE.</text>
</g>
<!-- &#45;&gt;/Alice -->
<g id="edge1" class="edge">
<title>&#45;&gt;/Alice</title>
<path fill="none" stroke="#999999" d="M6.12,-74.36C9.23,-78.74 16.53,-88.1 25,-93 44.61,-104.34 68.12,-111.84 89.64,-116.78"/>
<polygon fill="#999999" stroke="#999999" points="97.16,-118.42 89.11,-120.12 93.49,-117.62 89.83,-116.82 89.83,-116.82 89.83,-116.82 93.49,-117.62 90.55,-113.52 97.16,-118.42 97.16,-118.42"/>
<text text-anchor="middle" x="47.16" y="-115.2" font-family="Helvetica,sans-Serif" font-size="14.00">Alice</text>
</g>
<!-- /Bob -->
<g id="node3" class="node">
<title>/Bob</title>
<polygon fill="none" stroke="#b3b3b3" points="206.08,-90 102.81,-90 102.81,-54 206.08,-54 206.08,-90"/>
<text text-anchor="middle" x="154.45" y="-67.8" font-family="Helvetica,sans-Serif" font-size="14.00">HELLO, BOB.</text>
</g>
<!-- &#45;&gt;/Bob -->
<g id="edge2" class="edge">
<title>&#45;&gt;/Bob</title>
<path fill="none" stroke="#999999" d="M7.09,-72C17.69,-72 58.99,-72 95.02,-72"/>
<polygon fill="#999999" stroke="#999999" points="102.62,-72 95.12,-75.38 98.87,-72 95.12,-72 95.12,-72 95.12,-72 98.87,-72 95.12,-68.63 102.62,-72 102.62,-72"/>
<text text-anchor="middle" x="47.16" y="-76.2" font-family="Helvetica,sans-Serif" font-size="14.00">Bob</text>
</g>
<!-- /Charlie -->
<g id="node4" class="node">
<title>/Charlie</title>
<polygon fill="none" stroke="#b3b3b3" points="221.68,-36 87.21,-36 87.21,0 221.68,0 221.68,-36"/>
<text text-anchor="middle" x="154.45" y="-13.8" font-family="Helvetica,sans-Serif" font-size="14.00">HELLO, CHARLIE.</text>
</g>
<!-- &#45;&gt;/Charlie -->
<g id="edge3" class="edge">
<title>&#45;&gt;/Charlie</title>
<path fill="none" stroke="#999999" d="M6.12,-69.66C9.25,-65.33 16.57,-56.06 25,-51.2 41.65,-41.61 61.09,-34.74 79.73,-29.84"/>
<polygon fill="#999999" stroke="#999999" points="87.1,-27.99 80.65,-33.09 83.46,-28.9 79.83,-29.82 79.83,-29.82 79.83,-29.82 83.46,-28.9 79.01,-26.54 87.1,-27.99 87.1,-27.99"/>
<text text-anchor="middle" x="47.16" y="-56.2" font-family="Helvetica,sans-Serif" font-size="14.00">Charlie</text>
</g>
</g>
</svg>
